<svg viewBox="0 0 560 90" version="1.1" xmlns="http://www.w3.org/2000/svg" xmlns:xlink="http://www.w3.org/1999/xlink" overflow="visible" id="v1jphvw2"><desc>Engraved by Verovio 5.6.0-85e7620</desc><defs><g id="E050-v1jphvw2"><path transform="scale(1,-1)" d="M441 -245c-23 -4 -48 -6 -76 -6c-59 0 -102 7 -130 20c-88 42 -150 93 -187 154c-26 44 -43 103 -48 176c0 6 -1 13 -1 19c0 54 15 111 45 170c29 57 65 106 110 148s96 85 153 127c-3 16 -8 46 -13 92c-4 43 -5 73 -5 89c0 117 16 172 69 257c34 54 64 82 89 82 c21 0 43 -30 69 -92s39 -115 41 -159v-15c0 -109 -21 -162 -67 -241c-13 -20 -63 -90 -98 -118c-13 -9 -25 -19 -37 -29l31 -181c8 1 18 2 28 2c58 0 102 -12 133 -35c59 -43 92 -104 98 -184c1 -7 1 -15 1 -22c0 -123 -87 -209 -181 -248c8 -57 17 -110 25 -162 c5 -31 6 -58 6 -80c0 -30 -5 -53 -14 -70c-35 -64 -88 -99 -158 -103c-5 0 -11 -1 -16 -1c-37 0 -72 10 -108 27c-50 24 -77 59 -80 105v11c0 29 7 55 20 76c18 28 45 42 79 44h6c49 0 93 -42 97 -87v-9c0 -51 -34 -86 -105 -106c17 -24 51 -36 102 -36c62 0 116 43 140 85 c9 16 13 41 13 74c0 20 -1 42 -5 67c-8 53 -18 106 -26 159zM461 939c-95 0 -135 -175 -135 -286c0 -24 2 -48 5 -71c50 39 92 82 127 128c40 53 60 100 60 140v8c-4 53 -22 81 -55 81h-2zM406 119l54 -326c73 25 110 78 110 161c0 7 0 15 -1 23c-7 95 -57 142 -151 142h-12 zM382 117c-72 -2 -128 -47 -128 -120v-7c2 -46 43 -99 75 -115c-3 -2 -7 -5 -10 -10c-70 33 -116 88 -123 172v11c0 68 44 126 88 159c23 17 49 29 78 36l-29 170c-21 -13 -52 -37 -92 -73c-50 -44 -86 -84 -109 -119c-45 -69 -67 -130 -67 -182v-13c5 -68 35 -127 93 -176 s125 -73 203 -73c25 0 50 3 75 9c-19 111 -36 221 -54 331z"/></g><g id="E262-v1jphvw2"><path transform="scale(1,-1)" d="M136 186v169h17v-164l44 14v-91l-44 -14v-165l44 12v-91l-44 -13v-155h-17v150l-76 -22v-155h-17v149l-43 -13v90l43 14v167l-43 -14v92l43 13v169h17v-163zM60 73v-167l76 22v168z"/></g><g id="E08A-v1jphvw2"><path transform="scale(1,-1)" d="M340 179c-9 24 -56 41 -89 41c-46 0 -81 -28 -100 -58c-17 -28 -25 -78 -25 -150c0 -65 2 -111 8 -135c8 -31 18 -49 40 -67c20 -17 43 -25 70 -25c54 0 92 36 115 75c14 25 23 54 28 88h27c0 -63 -24 -105 -58 -141c-35 -38 -82 -56 -140 -56c-45 0 -83 13 -115 39 c-57 45 -101 130 -101 226c0 59 33 127 68 163c36 37 97 72 160 72c36 0 93 -21 121 -40c11 -8 23 -17 33 -30c19 -23 27 -48 27 -76c0 -51 -35 -88 -86 -88c-43 0 -76 27 -76 68c0 26 7 35 21 51c15 17 32 27 58 32c7 2 14 7 14 11z"/></g><g id="E4E5-v1jphvw2"><path transform="scale(1,-1)" d="M107 292c-13 24 -30 49 -52 71c-1 1 0 2 0 3l-2 2c3 3 4 4 6 4c12 0 26 -7 40 -20s44 -40 89 -81c26 -24 28 -29 46 -47c4 -4 8 -9 10 -14c6 -8 8 -16 8 -27c0 -19 -12 -40 -36 -61c-28 -23 -49 -38 -61 -73c-4 -11 -7 -27 -10 -50c13 -43 34 -83 59 -121 c31 -47 59 -79 101 -129c-8 0 -26 7 -54 20l-62 29l-21 6l-23 1c-25 0 -45 -10 -60 -30l-4 -14l-1 -12c0 -33 20 -56 39 -78c8 -9 17 -18 26 -26c17 -15 27 -24 28 -30l-3 -3c-11 5 -19 10 -25 15c-9 3 -37 21 -45 26c-24 14 -45 32 -63 51c-19 21 -37 44 -37 71 c0 63 27 95 80 95c41 0 86 -18 136 -52c-19 26 -37 48 -55 66c-23 23 -48 44 -73 65c-28 23 -47 40 -58 53s-17 26 -18 39c75 64 113 125 113 183c0 27 -7 48 -18 68z"/></g><g id="E4E6-v1jphvw2"><path transform="scale(1,-1)" d="M0 123c7 34 33 56 69 60c29 -3 43 -9 53 -29c4 -8 7 -15 10 -22c0 -21 -1 -25 -11 -35c-5 -8 -18 -14 -40 -20l12 -3l15 -1c44 0 97 26 122 56c10 11 18 26 24 42c7 1 15 2 22 3l-140 -424h-36l111 330c-10 -6 -27 -12 -53 -16l-52 -8h-10l-20 1c-1 0 -8 3 -21 6 c-37 9 -55 28 -55 60z"/></g><g id="E0A4-v1jphvw2"><path transform="scale(1,-1)" d="M0 -39c0 68 73 172 200 172c66 0 114 -37 114 -95c0 -84 -106 -171 -218 -171c-64 0 -96 30 -96 94z"/></g><g id="E883-v1jphvw2"><path transform="scale(1,-1)" d="M161 326c52 0 94 -17 94 -68c0 -50 -40 -76 -82 -94c26 -21 39 -42 39 -64c0 -52 -56 -100 -118 -100h-12c-40 0 -82 23 -82 56c0 30 12 49 37 49c17 0 31 -16 34 -31c0 -5 -4 -12 -11 -21c-7 -5 -13 -10 -13 -21l11 -9l17 -4c21 0 40 12 56 37c13 21 19 45 19 70 c-9 30 -28 35 -66 35l6 23c34 0 60 4 77 13c20 11 30 35 30 70c0 28 -12 38 -39 40l-20 -3c-8 -3 -12 -9 -12 -16c2 -7 4 -11 5 -14l4 -11l3 -10l-3 -12c-5 -6 -11 -11 -20 -13c-2 0 -4 -1 -6 -1c-16 0 -30 13 -30 28c0 39 43 71 82 71z"/></g></defs><style type="text/css">#v1jphvw2 g.page-margin {font-family:Times,serif;}#v1jphvw2 g.ending, #v1jphvw2 g.fing, #v1jphvw2 g.reh, #v1jphvw2 g.tempo {font-weight:bold;}#v1jphvw2 g.dir, #v1jphvw2 g.dynam, #v1jphvw2 g.mNum {font-style:italic;}#v1jphvw2 g.label {font-weight:normal;}#v1jphvw2 path {stroke:currentColor}</style><svg class="definition-scale" color="black" viewBox="0 0 14000 2230"><g class="page-margin" transform="translate(0, 150)"><g data-id="q3twxgu" data-class="mdiv" class="mdiv pageMilestone"/><g data-id="ruxvcuz" data-class="score" class="score pageMilestone"/><g data-id="z43e4xj" data-class="system" class="system"><g data-id="t1t55uw2" data-class="section" class="section systemMilestone"/><g data-id="w2tnx2e" data-class="measure" class="measure"><g data-id="fraf8by" data-class="staff" class="staff"><path d="M0 559 L3105 559" stroke-width="13"/><path d="M0 739 L3105 739" stroke-width="13"/><path d="M0 919 L3105 919" stroke-width="13"/><path d="M0 1099 L3105 1099" stroke-width="13"/><path d="M0 1279 L3105 1279" stroke-width="13"/><g data-id="g1t72utj" data-class="clef" class="clef"><use href="#E050-v1jphvw2" transform="translate(90, 1099) scale(0.72, 0.72)"/></g><g data-id="hjgoveb" data-class="keySig" class="keySig"><g data-id="i1i8gj9i" data-class="keyAccid" class="keyAccid"><use href="#E262-v1jphvw2" transform="translate(735, 559) scale(0.72, 0.72)"/></g></g><g data-id="j1qaby1b" data-class="meterSig" class="meterSig"><use href="#E08A-v1jphvw2" transform="translate(1056, 919) scale(0.72, 0.72)"/></g><g data-id="gepujpl" data-class="layer" class="layer"><g data-id="xvmt2xb" data-class="rest" class="rest"><use href="#E4E5-v1jphvw2" transform="translate(1780, 919) scale(0.72, 0.72)"/></g></g></g><g data-id="e1xu76d6" data-class="barLine" class="barLine"><path d="M3092 559 L3092 1279" stroke-width="27"/></g></g><g data-id="f1b98liu" data-class="measure" class="measure"><g data-id="hwi8qoi" data-class="staff" class="staff"><path d="M3105 559 L8553 559" stroke-width="13"/><path d="M3105 739 L8553 739" stroke-width="13"/><path d="M3105 919 L8553 919" stroke-width="13"/><path d="M3105 1099 L8553 1099" stroke-width="13"/><path d="M3105 1279 L8553 1279" stroke-width="13"/><g data-id="i61g4u1" data-class="layer" class="layer"><g data-id="ec8gu54" data-class="tuplet" class="tuplet"><g data-id="x1k26es7" data-class="tupletNum" class="tupletNum"><use href="#E883-v1jphvw2" transform="translate(3778, 417) scale(0.72, 0.72)"/></g><g data-id="w1hvdfsc" data-class="tupletBracket" class="tupletBracket"><polyline stroke="currentColor" stroke-width="18" stroke-opacity="1" stroke-linecap="butt" stroke-linejoin="miter" fill="none" points="3332,473 3332,356 3733,314 "/><polyline stroke="currentColor" stroke-width="18" stroke-opacity="1" stroke-linecap="butt" stroke-linejoin="miter" fill="none" points="4409,360 4409,243 4006,286 "/></g><g data-id="yqp7ltb" data-class="rest" class="rest"><use href="#E4E6-v1jphvw2" transform="translate(3323, 919) scale(0.72, 0.72)"/></g><g data-id="w1yx3791" data-class="beam" class="beam"><polygon stroke-opacity="1" fill-opacity="1" points="3966,469 4418,424 4418,514 3966,559"/><g data-id="b1yg0lgj" data-class="note" class="note"><g data-class="notehead" class="notehead"><use href="#E0A4-v1jphvw2" transform="translate(3758, 1369) scale(0.72, 0.72)"/></g><g data-id="yx5rdop" data-class="stem" class="stem"><path d="M3975 1341 L3975 487" stroke-width="18"/></g></g><g data-id="c1y935m6" data-class="note" class="note"><g data-class="notehead" class="notehead"><use href="#E0A4-v1jphvw2" transform="translate(4192, 1099) scale(0.72, 0.72)"/></g><g data-id="z3ks8od" data-class="stem" class="stem"><path d="M4409 1071 L4409 442" stroke-width="18"/></g></g></g></g><g data-id="flev9ms" data-class="tuplet" class="tuplet"><g data-id="a1v49pzc" data-class="tupletNum" class="tupletNum"><use href="#E883-v1jphvw2" transform="translate(5026, 1936) scale(0.72, 0.72)"/></g><g data-id="x1b3tl8p" data-class="beam" class="beam"><polygon stroke-opacity="1" fill-opacity="1" points="4627,1639 5515,1639 5515,1549 4627,1549"/><g data-id="d9umbdl" data-class="note" class="note"><g data-class="notehead" class="notehead"><use href="#E0A4-v1jphvw2" transform="translate(4627, 919) scale(0.72, 0.72)"/></g><g data-id="b1jsi65h" data-class="stem" class="stem"><path d="M4636 947 L4636 1621" stroke-width="18"/></g></g><g data-id="e18l2f6u" data-class="note" class="note"><g data-class="notehead" class="notehead"><use href="#E0A4-v1jphvw2" transform="translate(5062, 1099) scale(0.72, 0.72)"/></g><g data-id="c11v9do6" data-class="stem" class="stem"><path d="M5071 1127 L5071 1621" stroke-width="18"/></g></g><g data-id="f19bni3b" data-class="note" class="note"><g data-class="notehead" class="notehead"><use href="#E0A4-v1jphvw2" transform="translate(5497, 739) scale(0.72, 0.72)"/></g><g data-id="d4r3d7w" data-class="stem" class="stem"><path d="M5506 767 L5506 1621" stroke-width="18"/></g></g></g></g><g data-id="g1cykky6" data-class="tuplet" class="tuplet"><g data-id="f1o6deak" data-class="tupletNum" class="tupletNum"><use href="#E883-v1jphvw2" transform="translate(6387, 327) scale(0.72, 0.72)"/></g><g data-id="eog7bv1" data-class="tupletBracket" class="tupletBracket"><polyline stroke="currentColor" stroke-width="18" stroke-opacity="1" stroke-linecap="butt" stroke-linejoin="miter" fill="none" points="5941,383 5941,266 6342,224 "/><polyline stroke="currentColor" stroke-width="18" stroke-opacity="1" stroke-linecap="butt" stroke-linejoin="miter" fill="none" points="7018,270 7018,153 6615,196 "/></g><g data-id="z1u3d3o6" data-class="rest" class="rest"><use href="#E4E6-v1jphvw2" transform="translate(5932, 919) scale(0.72, 0.72)"/></g><g data-id="ywi9l37" data-class="beam" class="beam"><polygon stroke-opacity="1" fill-opacity="1" points="6574,379 7027,334 7027,424 6574,469"/><g data-id="g10a514q" data-class="note" class="note"><g data-class="notehead" class="notehead"><use href="#E0A4-v1jphvw2" transform="translate(6366, 1099) scale(0.72, 0.72)"/></g><g data-id="g1c308ip" data-class="stem" class="stem"><path d="M6583 1071 L6583 397" stroke-width="18"/></g></g><g data-id="h173reb6" data-class="note" class="note"><g data-class="notehead" class="notehead"><use href="#E0A4-v1jphvw2" transform="translate(6801, 919) scale(0.72, 0.72)"/></g><g data-id="h16x9bu9" data-class="stem" class="stem"><path d="M7018 891 L7018 352" stroke-width="18"/></g></g></g></g><g data-id="h1jqn32h" data-class="tuplet" class="tuplet"><g data-id="i1ggpork" data-class="tupletNum" class="tupletNum"><use href="#E883-v1jphvw2" transform="translate(7635, 1801) scale(0.72, 0.72)"/></g><g data-id="zr767pb" data-class="beam" class="beam"><polygon stroke-opacity="1" fill-opacity="1" points="7236,1504 8124,1504 8124,1414 7236,1414"/><g data-id="i3zg3e3" data-class="note" class="note"><g data-class="notehead" class="notehead"><use href="#E0A4-v1jphvw2" transform="translate(7236, 739) scale(0.72, 0.72)"/></g><g data-id="j18wx5qg" data-class="stem" class="stem"><path d="M7245 767 L7245 1486" stroke-width="18"/></g></g><g data-id="j265k3q" data-class="note" class="note"><g data-class="notehead" class="notehead"><use href="#E0A4-v1jphvw2" transform="translate(7671, 919) scale(0.72, 0.72)"/></g><g data-id="kcbwro3" data-class="stem" class="stem"><path d="M7680 947 L7680 1486" stroke-width="18"/></g></g><g data-id="k1ei2n75" data-class="note" class="note"><g data-class="notehead" class="notehead"><use href="#E0A4-v1jphvw2" transform="translate(8106, 469) scale(0.72, 0.72)"/></g><g data-id="l1ebb5sk" data-class="stem" class="stem"><path d="M8115 497 L8115 1486" stroke-width="18"/></g></g></g></g></g></g><g data-id="n1op5kt8" data-class="barLine" class="barLine"><path d="M8540 559 L8540 1279" stroke-width="27"/></g></g><g data-id="opye4oz" data-class="measure" class="measure"><g data-id="j1adx0v" data-class="staff" class="staff"><path d="M8553 559 L14001 559" stroke-width="13"/><path d="M8553 739 L14001 739" stroke-width="13"/><path d="M8553 919 L14001 919" stroke-width="13"/><path d="M8553 1099 L14001 1099" stroke-width="13"/><path d="M8553 1279 L14001 1279" stroke-width="13"/><g data-id="kx7cu7r" data-class="layer" class="layer"><g data-id="i1llsxq0" data-class="tuplet" class="tuplet"><g data-id="noxy6bf" data-class="tupletNum" class="tupletNum"><use href="#E883-v1jphvw2" transform="translate(9226, 327) scale(0.72, 0.72)"/></g><g data-id="m1y9s01x" data-class="tupletBracket" class="tupletBracket"><polyline stroke="currentColor" stroke-width="18" stroke-opacity="1" stroke-linecap="butt" stroke-linejoin="miter" fill="none" points="8780,383 8780,266 9181,224 "/><polyline stroke="currentColor" stroke-width="18" stroke-opacity="1" stroke-linecap="butt" stroke-linejoin="miter" fill="none" points="9857,270 9857,153 9454,196 "/></g><g data-id="amfnjcj" data-class="rest" class="rest"><use href="#E4E6-v1jphvw2" transform="translate(8771, 919) scale(0.72, 0.72)"/></g><g data-id="anruo28" data-class="beam" class="beam"><polygon stroke-opacity="1" fill-opacity="1" points="9414,379 9866,334 9866,424 9414,469"/><g data-id="lag9sf5" data-class="note" class="note"><g data-class="notehead" class="notehead"><use href="#E0A4-v1jphvw2" transform="translate(9206, 1189) scale(0.72, 0.72)"/></g><g data-id="o1lo58vs" data-class="stem" class="stem"><path d="M9423 1161 L9423 397" stroke-width="18"/></g><g data-id="m1qe8lyn" data-class="accid" class="accid"/></g><g data-id="m1cha0ac" data-class="note" class="note"><g data-class="notehead" class="notehead"><use href="#E0A4-v1jphvw2" transform="translate(9640, 1009) scale(0.72, 0.72)"/></g><g data-id="pkyd5yy" data-class="stem" class="stem"><path d="M9857 981 L9857 352" stroke-width="18"/></g></g></g></g><g data-id="j1m9sz0z" data-class="tuplet" class="tuplet"><g data-id="ql9lg0t" data-class="tupletNum" class="tupletNum"><use href="#E883-v1jphvw2" transform="translate(10474, 1846) scale(0.72, 0.72)"/></g><g data-id="bl21vw2" data-class="beam" class="beam"><polygon stroke-opacity="1" fill-opacity="1" points="10075,1549 10963,1549 10963,1459 10075,1459"/><g data-id="n1uh2qh4" data-class="note" class="note"><g data-class="notehead" class="notehead"><use href="#E0A4-v1jphvw2" transform="translate(10075, 829) scale(0.72, 0.72)"/></g><g data-id="r6op3h4" data-class="stem" class="stem"><path d="M10084 857 L10084 1531" stroke-width="18"/></g></g><g data-id="o161ausn" data-class="note" class="note"><g data-class="notehead" class="notehead"><use href="#E0A4-v1jphvw2" transform="translate(10510, 1009) scale(0.72, 0.72)"/></g><g data-id="sy6lu5t" data-class="stem" class="stem"><path d="M10519 1037 L10519 1531" stroke-width="18"/></g></g><g data-id="p1b8so6p" data-class="note" class="note"><g data-class="notehead" class="notehead"><use href="#E0A4-v1jphvw2" transform="translate(10945, 559) scale(0.72, 0.72)"/></g><g data-id="t18npr9l" data-class="stem" class="stem"><path d="M10954 587 L10954 1531" stroke-width="18"/></g><g data-id="nxbcs6b" data-class="accid" class="accid"/></g></g></g><g data-id="k1wvuuyc" data-class="tuplet" class="tuplet"><g data-id="u1r8tih9" data-class="tupletNum" class="tupletNum"><use href="#E883-v1jphvw2" transform="translate(11779, 1834) scale(0.72, 0.72)"/></g><g data-id="c1r0vt64" data-class="beam" class="beam"><polygon stroke-opacity="1" fill-opacity="1" points="11380,1639 12267,1459 12267,1369 11380,1549"/><g data-id="qqgfmpb" data-class="note" class="note"><g data-class="notehead" class="notehead"><use href="#E0A4-v1jphvw2" transform="translate(11380, 1099) scale(0.72, 0.72)"/></g><g data-id="v19e1q55" data-class="stem" class="stem"><path d="M11389 1127 L11389 1621" stroke-width="18"/></g></g><g data-id="ri82zwx" data-class="note" class="note"><g data-class="notehead" class="notehead"><use href="#E0A4-v1jphvw2" transform="translate(11814, 829) scale(0.72, 0.72)"/></g><g data-id="w50vl43" data-class="stem" class="stem"><path d="M11823 857 L11823 1531" stroke-width="18"/></g></g><g data-id="s1ktczof" data-class="note" class="note"><g data-class="notehead" class="notehead"><use href="#E0A4-v1jphvw2" transform="translate(12249, 649) scale(0.72, 0.72)"/></g><g data-id="x121gy16" data-class="stem" class="stem"><path d="M12258 677 L12258 1441" stroke-width="18"/></g></g></g></g><g data-id="l1k0ztph" data-class="tuplet" class="tuplet"><g data-id="y1xwmbdx" data-class="tupletNum" class="tupletNum"><use href="#E883-v1jphvw2" transform="translate(13196, 234) scale(0.72, 0.72)"/></g><g data-id="d1retem" data-class="beam" class="beam"><polygon stroke-opacity="1" fill-opacity="1" points="12892,379 13780,199 13780,289 12892,469"/><g data-id="t1lss7ud" data-class="note" class="note"><g data-class="notehead" class="notehead"><use href="#E0A4-v1jphvw2" transform="translate(12684, 1189) scale(0.72, 0.72)"/></g><g data-id="z9kyzg0" data-class="stem" class="stem"><path d="M12901 1161 L12901 397" stroke-width="18"/></g><g data-id="o10riwq6" data-class="accid" class="accid"/></g><g data-id="u6n1pgs" data-class="note" class="note"><g data-class="notehead" class="notehead"><use href="#E0A4-v1jphvw2" transform="translate(13119, 829) scale(0.72, 0.72)"/></g><g data-id="a1yegke2" data-class="stem" class="stem"><path d="M13336 801 L13336 307" stroke-width="18"/></g></g><g data-id="v1d8q4lf" data-class="note" class="note"><g data-class="notehead" class="notehead"><use href="#E0A4-v1jphvw2" transform="translate(13554, 739) scale(0.72, 0.72)"/></g><g data-id="bhx09ed" data-class="stem" class="stem"><path d="M13771 711 L13771 217" stroke-width="18"/></g></g></g></g></g></g><g data-id="w1pg7w5z" data-class="barLine" class="barLine"><path d="M13988 559 L13988 1279" stroke-width="27"/></g></g><g data-id="sreo2f0" data-class="systemMilestoneEnd" class="systemMilestoneEnd t1t55uw2"/></g><g data-id="t23i9wi" data-class="pageMilestoneEnd" class="pageMilestoneEnd ruxvcuz"/><g data-id="ucxunt2" data-class="pageMilestoneEnd" class="pageMilestoneEnd q3twxgu"/></g></svg></svg>