<svg viewBox="0 0 560 84" version="1.1" xmlns="http://www.w3.org/2000/svg" xmlns:xlink="http://www.w3.org/1999/xlink" overflow="visible" id="r1udx6c5"><desc>Engraved by Verovio 5.6.0-85e7620</desc><defs><g id="E050-r1udx6c5"><path transform="scale(1,-1)" d="M441 -245c-23 -4 -48 -6 -76 -6c-59 0 -102 7 -130 20c-88 42 -150 93 -187 154c-26 44 -43 103 -48 176c0 6 -1 13 -1 19c0 54 15 111 45 170c29 57 65 106 110 148s96 85 153 127c-3 16 -8 46 -13 92c-4 43 -5 73 -5 89c0 117 16 172 69 257c34 54 64 82 89 82 c21 0 43 -30 69 -92s39 -115 41 -159v-15c0 -109 -21 -162 -67 -241c-13 -20 -63 -90 -98 -118c-13 -9 -25 -19 -37 -29l31 -181c8 1 18 2 28 2c58 0 102 -12 133 -35c59 -43 92 -104 98 -184c1 -7 1 -15 1 -22c0 -123 -87 -209 -181 -248c8 -57 17 -110 25 -162 c5 -31 6 -58 6 -80c0 -30 -5 -53 -14 -70c-35 -64 -88 -99 -158 -103c-5 0 -11 -1 -16 -1c-37 0 -72 10 -108 27c-50 24 -77 59 -80 105v11c0 29 7 55 20 76c18 28 45 42 79 44h6c49 0 93 -42 97 -87v-9c0 -51 -34 -86 -105 -106c17 -24 51 -36 102 -36c62 0 116 43 140 85 c9 16 13 41 13 74c0 20 -1 42 -5 67c-8 53 -18 106 -26 159zM461 939c-95 0 -135 -175 -135 -286c0 -24 2 -48 5 -71c50 39 92 82 127 128c40 53 60 100 60 140v8c-4 53 -22 81 -55 81h-2zM406 119l54 -326c73 25 110 78 110 161c0 7 0 15 -1 23c-7 95 -57 142 -151 142h-12 zM382 117c-72 -2 -128 -47 -128 -120v-7c2 -46 43 -99 75 -115c-3 -2 -7 -5 -10 -10c-70 33 -116 88 -123 172v11c0 68 44 126 88 159c23 17 49 29 78 36l-29 170c-21 -13 -52 -37 -92 -73c-50 -44 -86 -84 -109 -119c-45 -69 -67 -130 -67 -182v-13c5 -68 35 -127 93 -176 s125 -73 203 -73c25 0 50 3 75 9c-19 111 -36 221 -54 331z"/></g><g id="E260-r1udx6c5"><path transform="scale(1,-1)" d="M20 110c32 16 54 27 93 27c26 0 35 -3 54 -13c13 -7 24 -20 27 -38l4 -25c0 -28 -16 -57 -45 -89c-23 -25 -39 -44 -65 -68l-88 -79v644h20v-359zM90 106c-32 0 -48 -10 -70 -29v-194c31 31 54 59 71 84c21 32 32 59 32 84c0 9 1 16 1 20c0 14 -3 21 -11 30l-8 3z"/></g><g id="E08A-r1udx6c5"><path transform="scale(1,-1)" d="M340 179c-9 24 -56 41 -89 41c-46 0 -81 -28 -100 -58c-17 -28 -25 -78 -25 -150c0 -65 2 -111 8 -135c8 -31 18 -49 40 -67c20 -17 43 -25 70 -25c54 0 92 36 115 75c14 25 23 54 28 88h27c0 -63 -24 -105 -58 -141c-35 -38 -82 -56 -140 -56c-45 0 -83 13 -115 39 c-57 45 -101 130 -101 226c0 59 33 127 68 163c36 37 97 72 160 72c36 0 93 -21 121 -40c11 -8 23 -17 33 -30c19 -23 27 -48 27 -76c0 -51 -35 -88 -86 -88c-43 0 -76 27 -76 68c0 26 7 35 21 51c15 17 32 27 58 32c7 2 14 7 14 11z"/></g><g id="E0A4-r1udx6c5"><path transform="scale(1,-1)" d="M0 -39c0 68 73 172 200 172c66 0 114 -37 114 -95c0 -84 -106 -171 -218 -171c-64 0 -96 30 -96 94z"/></g><g id="E240-r1udx6c5"><path transform="scale(1,-1)" d="M179 -646c15 29 29 55 46 102c18 49 30 108 30 138c0 105 -80 173 -168 200c-18 5 -47 9 -87 16v190h22c8 0 33 -61 71 -95c4 -3 -2 3 61 -56c62 -58 122 -137 122 -241c0 -38 -13 -106 -35 -163c-20 -51 -43 -99 -66 -132c-6 -5 -10 -7 -13 -7s-5 2 -5 5l4 10 c1 3 14 25 18 33z"/></g><g id="E0A3-r1udx6c5"><path transform="scale(1,-1)" d="M278 64c0 22 -17 39 -43 39c-12 0 -26 -3 -41 -10c-85 -43 -165 -94 -165 -156c5 -25 15 -32 49 -32c67 11 200 95 200 159zM0 -36c0 68 73 174 200 174c66 0 114 -39 114 -97c0 -84 -106 -173 -218 -173c-64 0 -96 32 -96 96z"/></g><g id="E241-r1udx6c5"><path transform="scale(1,-1)" d="M179 646c-4 8 -17 30 -18 33l-4 10c0 3 2 5 5 5s7 -2 13 -7c23 -33 46 -81 66 -132c22 -57 35 -125 35 -163c0 -104 -60 -183 -122 -241c-63 -59 -57 -53 -61 -56c-38 -34 -63 -95 -71 -95h-22v190c40 7 69 11 87 16c88 27 168 95 168 200c0 30 -12 89 -30 138 c-17 47 -31 73 -46 102z"/></g></defs><style type="text/css">#r1udx6c5 g.page-margin {font-family:Times,serif;}#r1udx6c5 g.ending, #r1udx6c5 g.fing, #r1udx6c5 g.reh, #r1udx6c5 g.tempo {font-weight:bold;}#r1udx6c5 g.dir, #r1udx6c5 g.dynam, #r1udx6c5 g.mNum {font-style:italic;}#r1udx6c5 g.label {font-weight:normal;}#r1udx6c5 path {stroke:currentColor}</style><svg class="definition-scale" color="black" viewBox="0 0 14000 2100"><g class="page-margin" transform="translate(0, 150)"><g data-id="h1j2uj33" data-class="mdiv" class="mdiv pageMilestone"/><g data-id="i84k1xv" data-class="score" class="score pageMilestone"/><g data-id="z39r6hc" data-class="system" class="system"><g data-id="ke76696" data-class="section" class="section systemMilestone"/><g data-id="ssr7ui2" data-class="measure" class="measure"><g data-id="w1ku158m" data-class="staff" class="staff"><path d="M0 540 L2734 540" stroke-width="13"/><path d="M0 720 L2734 720" stroke-width="13"/><path d="M0 900 L2734 900" stroke-width="13"/><path d="M0 1080 L2734 1080" stroke-width="13"/><path d="M0 1260 L2734 1260" stroke-width="13"/><g data-id="ekw31qh" data-class="clef" class="clef"><use href="#E050-r1udx6c5" transform="translate(90, 1080) scale(0.72, 0.72)"/></g><g data-id="f13sml08" data-class="keySig" class="keySig"><g data-id="g8bp6wy" data-class="keyAccid" class="keyAccid"><use href="#E260-r1udx6c5" transform="translate(735, 900) scale(0.72, 0.72)"/></g><g data-id="he4de9i" data-class="keyAccid" class="keyAccid"><use href="#E260-r1udx6c5" transform="translate(915, 630) scale(0.72, 0.72)"/></g><g data-id="i2o6bng" data-class="keyAccid" class="keyAccid"><use href="#E260-r1udx6c5" transform="translate(1095, 990) scale(0.72, 0.72)"/></g></g><g data-id="j1oyrw9" data-class="meterSig" class="meterSig"><use href="#E08A-r1udx6c5" transform="translate(1417, 900) scale(0.72, 0.72)"/></g><g data-id="x1tc4eop" data-class="layer" class="layer"><g data-id="l1810ioc" data-class="note" class="note"><g data-class="notehead" class="notehead"><use href="#E0A4-r1udx6c5" transform="translate(1995, 900) scale(0.72, 0.72)"/></g><g data-id="tfo6bj" data-class="stem" class="stem"><path d="M2004 928 L2004 1500" stroke-width="18"/></g><g data-id="z92si77" data-class="accid" class="accid"/></g></g></g><g data-id="a1tmia38" data-class="barLine" class="barLine"><path d="M2721 540 L2721 1260" stroke-width="27"/></g></g><g data-id="bf6fy8v" data-class="measure" class="measure"><g data-id="y1tjr0f5" data-class="staff" class="staff"><path d="M2734 540 L5851 540" stroke-width="13"/><path d="M2734 720 L5851 720" stroke-width="13"/><path d="M2734 900 L5851 900" stroke-width="13"/><path d="M2734 1080 L5851 1080" stroke-width="13"/><path d="M2734 1260 L5851 1260" stroke-width="13"/><g data-id="zcccdpi" data-class="layer" class="layer"><g data-id="m1o1537i" data-class="note" class="note"><g data-class="notehead" class="notehead"><use href="#E0A4-r1udx6c5" transform="translate(2924, 1080) scale(0.72, 0.72)"/></g><g data-id="uz21bsw" data-class="stem" class="stem"><path d="M3141 1052 L3141 450" stroke-width="18"/></g></g><g data-id="n1gw7cy2" data-class="note" class="note"><g data-class="notehead" class="notehead"><use href="#E0A4-r1udx6c5" transform="translate(3650, 1260) scale(0.72, 0.72)"/></g><g data-id="v1bgk69h" data-class="stem" class="stem"><path d="M3867 1232 L3867 630" stroke-width="18"/></g><g data-id="aq0z926" data-class="accid" class="accid"/></g><g data-id="odx0joy" data-class="note" class="note"><g data-class="notehead" class="notehead"><use href="#E0A4-r1udx6c5" transform="translate(4375, 1350) scale(0.72, 0.72)"/></g><g data-id="x1g1xtta" data-class="dots" class="dots"><ellipse cx="4691" cy="1350" rx="36" ry="36" fill-opacity="1" stroke-opacity="1"/></g><g data-id="wzc9z8u" data-class="stem" class="stem"><path d="M4592 1322 L4592 720" stroke-width="18"/></g></g><g data-id="pjuwpy2" data-class="note" class="note"><g data-class="notehead" class="notehead"><use href="#E0A4-r1udx6c5" transform="translate(5301, 1260) scale(0.72, 0.72)"/></g><g data-id="yhfgibn" data-class="stem" class="stem"><path d="M5518 1232 L5518 630" stroke-width="18"/><g data-id="z3cuhhl" data-class="flag" class="flag"><use href="#E240-r1udx6c5" transform="translate(5509, 630) scale(0.72, 0.72)"/></g></g><g data-id="b9k64nn" data-class="accid" class="accid"/></g></g></g><g data-id="j1b426sg" data-class="barLine" class="barLine"><path d="M5838 540 L5838 1260" stroke-width="27"/></g></g><g data-id="k3wic0a" data-class="measure" class="measure"><g data-id="ag3v61t" data-class="staff" class="staff"><path d="M5851 540 L8610 540" stroke-width="13"/><path d="M5851 720 L8610 720" stroke-width="13"/><path d="M5851 900 L8610 900" stroke-width="13"/><path d="M5851 1080 L8610 1080" stroke-width="13"/><path d="M5851 1260 L8610 1260" stroke-width="13"/><g data-id="b1t1thhz" data-class="layer" class="layer"><g data-id="q2bc1g" data-class="note" class="note"><g data-class="notehead" class="notehead"><use href="#E0A3-r1udx6c5" transform="translate(6041, 1080) scale(0.72, 0.72)"/></g><g data-id="a6pb2v3" data-class="stem" class="stem"><path d="M6258 1052 L6258 450" stroke-width="18"/></g></g><g data-id="rjtwc7z" data-class="note" class="note"><g data-class="notehead" class="notehead"><use href="#E0A4-r1udx6c5" transform="translate(7146, 1170) scale(0.72, 0.72)"/></g><g data-id="bylb70w" data-class="stem" class="stem"><path d="M7363 1142 L7363 540" stroke-width="18"/></g></g><g data-id="s1gv5uzr" data-class="note" class="note"><g data-class="notehead" class="notehead"><use href="#E0A4-r1udx6c5" transform="translate(7872, 1260) scale(0.72, 0.72)"/></g><g data-id="c15kup5p" data-class="stem" class="stem"><path d="M8089 1232 L8089 630" stroke-width="18"/></g><g data-id="c1ewfic0" data-class="accid" class="accid"/></g></g></g><g data-id="s1kmsf5l" data-class="barLine" class="barLine"><path d="M8597 540 L8597 1260" stroke-width="27"/></g></g><g data-id="t1xscn8" data-class="measure" class="measure"><g data-id="c1o6ouyc" data-class="staff" class="staff"><path d="M8610 540 L11663 540" stroke-width="13"/><path d="M8610 720 L11663 720" stroke-width="13"/><path d="M8610 900 L11663 900" stroke-width="13"/><path d="M8610 1080 L11663 1080" stroke-width="13"/><path d="M8610 1260 L11663 1260" stroke-width="13"/><g data-id="d17lx62f" data-class="layer" class="layer"><g data-id="t1y90wcf" data-class="note" class="note"><g data-class="notehead" class="notehead"><use href="#E0A4-r1udx6c5" transform="translate(8800, 990) scale(0.72, 0.72)"/></g><g data-id="d1mz9jay" data-class="stem" class="stem"><path d="M9017 962 L9017 360" stroke-width="18"/></g><g data-id="d18k6wvb" data-class="accid" class="accid"/></g><g data-id="u10selt3" data-class="note" class="note"><g data-class="notehead" class="notehead"><use href="#E0A4-r1udx6c5" transform="translate(9526, 1080) scale(0.72, 0.72)"/></g><g data-id="e1wzmkbg" data-class="stem" class="stem"><path d="M9743 1052 L9743 450" stroke-width="18"/></g></g><g data-id="v165qtwz" data-class="note" class="note"><g data-class="notehead" class="notehead"><use href="#E0A4-r1udx6c5" transform="translate(10251, 810) scale(0.72, 0.72)"/></g><g data-id="gkfhkuw" data-class="dots" class="dots"><ellipse cx="10567" cy="810" rx="36" ry="36" fill-opacity="1" stroke-opacity="1"/></g><g data-id="fg5y5ho" data-class="stem" class="stem"><path d="M10260 838 L10260 1440" stroke-width="18"/></g></g><g data-id="w1cn7gfs" data-class="note" class="note"><g data-class="notehead" class="notehead"><use href="#E0A4-r1udx6c5" transform="translate(11177, 810) scale(0.72, 0.72)"/></g><g data-id="hixarn1" data-class="stem" class="stem"><path d="M11186 838 L11186 1440" stroke-width="18"/><g data-id="i13opue6" data-class="flag" class="flag"><use href="#E241-r1udx6c5" transform="translate(11177, 1440) scale(0.72, 0.72)"/></g></g></g></g></g><g data-id="b1j8trve" data-class="barLine" class="barLine"><path d="M11650 540 L11650 1260" stroke-width="27"/></g></g><g data-id="c6ma2sk" data-class="measure" class="measure"><g data-id="e1t0sjs" data-class="staff" class="staff"><path d="M11663 540 L14002 540" stroke-width="13"/><path d="M11663 720 L14002 720" stroke-width="13"/><path d="M11663 900 L14002 900" stroke-width="13"/><path d="M11663 1080 L14002 1080" stroke-width="13"/><path d="M11663 1260 L14002 1260" stroke-width="13"/><g data-id="f1xthvih" data-class="layer" class="layer"><g data-id="x13r9fns" data-class="note" class="note"><g data-class="notehead" class="notehead"><use href="#E0A3-r1udx6c5" transform="translate(11853, 900) scale(0.72, 0.72)"/></g><g data-id="k1nsiw4w" data-class="dots" class="dots"><ellipse cx="12169" cy="810" rx="36" ry="36" fill-opacity="1" stroke-opacity="1"/></g><g data-id="j1i01fvr" data-class="stem" class="stem"><path d="M11862 925 L11862 1500" stroke-width="18"/></g><g data-id="eh07br" data-class="accid" class="accid"/></g><g data-id="ydkg3b4" data-class="note" class="note"><g data-class="notehead" class="notehead"><use href="#E0A4-r1udx6c5" transform="translate(13263, 900) scale(0.72, 0.72)"/></g><g data-id="l1wo108" data-class="stem" class="stem"><path d="M13272 928 L13272 1500" stroke-width="18"/></g><g data-id="fibvmst" data-class="accid" class="accid"/></g></g></g><g data-id="k1rsb7hm" data-class="barLine" class="barLine"><path d="M13989 540 L13989 1260" stroke-width="27"/></g></g><g data-id="n1om1br3" data-class="systemMilestoneEnd" class="systemMilestoneEnd ke76696"/></g><g data-id="oprs4k4" data-class="pageMilestoneEnd" class="pageMilestoneEnd i84k1xv"/><g data-id="p1ep6jfx" data-class="pageMilestoneEnd" class="pageMilestoneEnd h1j2uj33"/></g></svg></svg>