<svg viewBox="0 0 560 84" version="1.1" xmlns="http://www.w3.org/2000/svg" xmlns:xlink="http://www.w3.org/1999/xlink" overflow="visible" id="ppwzpjc"><desc>Engraved by Verovio 5.6.0-85e7620</desc><defs><g id="E050-ppwzpjc"><path transform="scale(1,-1)" d="M441 -245c-23 -4 -48 -6 -76 -6c-59 0 -102 7 -130 20c-88 42 -150 93 -187 154c-26 44 -43 103 -48 176c0 6 -1 13 -1 19c0 54 15 111 45 170c29 57 65 106 110 148s96 85 153 127c-3 16 -8 46 -13 92c-4 43 -5 73 -5 89c0 117 16 172 69 257c34 54 64 82 89 82 c21 0 43 -30 69 -92s39 -115 41 -159v-15c0 -109 -21 -162 -67 -241c-13 -20 -63 -90 -98 -118c-13 -9 -25 -19 -37 -29l31 -181c8 1 18 2 28 2c58 0 102 -12 133 -35c59 -43 92 -104 98 -184c1 -7 1 -15 1 -22c0 -123 -87 -209 -181 -248c8 -57 17 -110 25 -162 c5 -31 6 -58 6 -80c0 -30 -5 -53 -14 -70c-35 -64 -88 -99 -158 -103c-5 0 -11 -1 -16 -1c-37 0 -72 10 -108 27c-50 24 -77 59 -80 105v11c0 29 7 55 20 76c18 28 45 42 79 44h6c49 0 93 -42 97 -87v-9c0 -51 -34 -86 -105 -106c17 -24 51 -36 102 -36c62 0 116 43 140 85 c9 16 13 41 13 74c0 20 -1 42 -5 67c-8 53 -18 106 -26 159zM461 939c-95 0 -135 -175 -135 -286c0 -24 2 -48 5 -71c50 39 92 82 127 128c40 53 60 100 60 140v8c-4 53 -22 81 -55 81h-2zM406 119l54 -326c73 25 110 78 110 161c0 7 0 15 -1 23c-7 95 -57 142 -151 142h-12 zM382 117c-72 -2 -128 -47 -128 -120v-7c2 -46 43 -99 75 -115c-3 -2 -7 -5 -10 -10c-70 33 -116 88 -123 172v11c0 68 44 126 88 159c23 17 49 29 78 36l-29 170c-21 -13 -52 -37 -92 -73c-50 -44 -86 -84 -109 -119c-45 -69 -67 -130 -67 -182v-13c5 -68 35 -127 93 -176 s125 -73 203 -73c25 0 50 3 75 9c-19 111 -36 221 -54 331z"/></g><g id="E262-ppwzpjc"><path transform="scale(1,-1)" d="M136 186v169h17v-164l44 14v-91l-44 -14v-165l44 12v-91l-44 -13v-155h-17v150l-76 -22v-155h-17v149l-43 -13v90l43 14v167l-43 -14v92l43 13v169h17v-163zM60 73v-167l76 22v168z"/></g><g id="E086-ppwzpjc"><path transform="scale(1,-1)" d="M284 -91c0 37 -28 92 -67 92c-35 0 -65 -54 -65 -111c0 -52 22 -104 68 -104c47 0 64 68 64 123zM230 214c-36 0 -90 -33 -90 -184l2 -36c40 24 81 36 120 36c80 0 140 -48 140 -121c0 -99 -99 -159 -182 -159c-160 0 -200 173 -200 244c0 21 2 43 7 71l10 35 c26 85 73 115 98 126c41 19 74 24 103 24c93 0 142 -63 142 -105c0 -58 -52 -72 -73 -72c-33 0 -59 24 -65 35c-3 5 -6 14 -7 25l11 30c6 15 9 27 9 35c0 11 -9 16 -25 16z"/></g><g id="E088-ppwzpjc"><path transform="scale(1,-1)" d="M195 -214c76 0 88 58 90 68c0 34 -35 60 -57 73l-52 29c-21 10 -32 17 -34 20c-39 -33 -58 -54 -62 -92c5 -23 23 -98 115 -98zM301 135c0 61 -72 76 -113 76c-40 0 -77 -17 -77 -51c3 -21 15 -38 26 -50c17 -15 33 -26 48 -34l65 -28c34 27 51 56 51 87zM176 -250 c-57 0 -166 26 -166 132c0 47 30 86 89 116c-33 15 -79 60 -79 119c0 79 85 132 178 132h18c5 0 21 1 28 -1c25 0 126 -30 126 -110c0 -37 -23 -76 -69 -116c43 -25 83 -71 83 -119c0 -101 -118 -153 -208 -153z"/></g><g id="E0A4-ppwzpjc"><path transform="scale(1,-1)" d="M0 -39c0 68 73 172 200 172c66 0 114 -37 114 -95c0 -84 -106 -171 -218 -171c-64 0 -96 30 -96 94z"/></g><g id="E241-ppwzpjc"><path transform="scale(1,-1)" d="M179 646c-4 8 -17 30 -18 33l-4 10c0 3 2 5 5 5s7 -2 13 -7c23 -33 46 -81 66 -132c22 -57 35 -125 35 -163c0 -104 -60 -183 -122 -241c-63 -59 -57 -53 -61 -56c-38 -34 -63 -95 -71 -95h-22v190c40 7 69 11 87 16c88 27 168 95 168 200c0 30 -12 89 -30 138 c-17 47 -31 73 -46 102z"/></g><g id="E240-ppwzpjc"><path transform="scale(1,-1)" d="M179 -646c15 29 29 55 46 102c18 49 30 108 30 138c0 105 -80 173 -168 200c-18 5 -47 9 -87 16v190h22c8 0 33 -61 71 -95c4 -3 -2 3 61 -56c62 -58 122 -137 122 -241c0 -38 -13 -106 -35 -163c-20 -51 -43 -99 -66 -132c-6 -5 -10 -7 -13 -7s-5 2 -5 5l4 10 c1 3 14 25 18 33z"/></g><g id="E4E6-ppwzpjc"><path transform="scale(1,-1)" d="M0 123c7 34 33 56 69 60c29 -3 43 -9 53 -29c4 -8 7 -15 10 -22c0 -21 -1 -25 -11 -35c-5 -8 -18 -14 -40 -20l12 -3l15 -1c44 0 97 26 122 56c10 11 18 26 24 42c7 1 15 2 22 3l-140 -424h-36l111 330c-10 -6 -27 -12 -53 -16l-52 -8h-10l-20 1c-1 0 -8 3 -21 6 c-37 9 -55 28 -55 60z"/></g></defs><style type="text/css">#ppwzpjc g.page-margin {font-family:Times,serif;}#ppwzpjc g.ending, #ppwzpjc g.fing, #ppwzpjc g.reh, #ppwzpjc g.tempo {font-weight:bold;}#ppwzpjc g.dir, #ppwzpjc g.dynam, #ppwzpjc g.mNum {font-style:italic;}#ppwzpjc g.label {font-weight:normal;}#ppwzpjc path {stroke:currentColor}</style><svg class="definition-scale" color="black" viewBox="0 0 14000 2100"><g class="page-margin" transform="translate(0, 150)"><g data-id="t1amgmvx" data-class="mdiv" class="mdiv pageMilestone"/><g data-id="u1nxf5ii" data-class="score" class="score pageMilestone"/><g data-id="s1ym28b7" data-class="system" class="system"><g data-id="w1nvx1be" data-class="section" class="section systemMilestone"/><g data-id="qcxoyw7" data-class="measure" class="measure"><g data-id="iymeeb6" data-class="staff" class="staff"><path d="M0 540 L2305 540" stroke-width="13"/><path d="M0 720 L2305 720" stroke-width="13"/><path d="M0 900 L2305 900" stroke-width="13"/><path d="M0 1080 L2305 1080" stroke-width="13"/><path d="M0 1260 L2305 1260" stroke-width="13"/><g data-id="o1gz36ja" data-class="clef" class="clef"><use href="#E050-ppwzpjc" transform="translate(90, 1080) scale(0.72, 0.72)"/></g><g data-id="p2c2ha0" data-class="keySig" class="keySig"><g data-id="qcpeo7j" data-class="keyAccid" class="keyAccid"><use href="#E262-ppwzpjc" transform="translate(735, 540) scale(0.72, 0.72)"/></g></g><g data-id="rnc9h7p" data-class="meterSig" class="meterSig"><use href="#E086-ppwzpjc" transform="translate(1042, 720) scale(0.72, 0.72)"/><use href="#E088-ppwzpjc" transform="translate(1049, 1080) scale(0.72, 0.72)"/></g><g data-id="ju6wz4n" data-class="layer" class="layer"><g data-id="jixckx7" data-class="beam" class="beam"><polygon stroke-opacity="1" fill-opacity="1" points="1819,540 2170,495 2170,585 1819,630"/><polygon stroke-opacity="1" fill-opacity="1" points="1819,675 2170,630 2170,720 1819,765"/><g data-id="d1on9agb" data-class="note" class="note"><g data-class="notehead" class="notehead"><use href="#E0A4-ppwzpjc" transform="translate(1611, 1260) scale(0.72, 0.72)"/></g><g data-id="h103rdlf" data-class="stem" class="stem"><path d="M1828 1232 L1828 558" stroke-width="18"/></g></g><g data-id="e1szpyxu" data-class="note" class="note"><g data-class="notehead" class="notehead"><use href="#E0A4-ppwzpjc" transform="translate(1944, 1170) scale(0.72, 0.72)"/></g><g data-id="i1a2rr9f" data-class="stem" class="stem"><path d="M2161 1142 L2161 513" stroke-width="18"/></g><g data-id="q63lwep" data-class="accid" class="accid"/></g></g></g></g><g data-id="y1h94yr3" data-class="barLine" class="barLine"><path d="M2292 540 L2292 1260" stroke-width="27"/></g></g><g data-id="z1j9clsn" data-class="measure" class="measure"><g data-id="k1kb7nqz" data-class="staff" class="staff"><path d="M2305 540 L5353 540" stroke-width="13"/><path d="M2305 720 L5353 720" stroke-width="13"/><path d="M2305 900 L5353 900" stroke-width="13"/><path d="M2305 1080 L5353 1080" stroke-width="13"/><path d="M2305 1260 L5353 1260" stroke-width="13"/><g data-id="le8bmu8" data-class="layer" class="layer"><g data-id="k90gkdd" data-class="beam" class="beam"><polygon stroke-opacity="1" fill-opacity="1" points="2703,360 3195,315 3195,405 2703,450"/><g data-id="fgkxzit" data-class="note" class="note"><g data-class="notehead" class="notehead"><use href="#E0A4-ppwzpjc" transform="translate(2495, 1080) scale(0.72, 0.72)"/></g><g data-id="j1og09qj" data-class="stem" class="stem"><path d="M2712 1052 L2712 378" stroke-width="18"/></g></g><g data-id="gvfj026" data-class="note" class="note"><g data-class="notehead" class="notehead"><use href="#E0A4-ppwzpjc" transform="translate(2969, 990) scale(0.72, 0.72)"/></g><g data-id="k1egltcx" data-class="stem" class="stem"><path d="M3186 962 L3186 333" stroke-width="18"/></g></g></g><g data-id="hi6gwek" data-class="note" class="note"><g data-class="notehead" class="notehead"><use href="#E0A4-ppwzpjc" transform="translate(3444, 900) scale(0.72, 0.72)"/></g><g data-id="l15op3zd" data-class="stem" class="stem"><path d="M3453 928 L3453 1500" stroke-width="18"/><g data-id="msjim0g" data-class="flag" class="flag"><use href="#E241-ppwzpjc" transform="translate(3444, 1500) scale(0.72, 0.72)"/></g></g></g><g data-id="i8eh4om" data-class="note" class="note"><g data-class="notehead" class="notehead"><use href="#E0A4-ppwzpjc" transform="translate(3918, 720) scale(0.72, 0.72)"/></g><g data-id="no06er6" data-class="stem" class="stem"><path d="M3927 748 L3927 1350" stroke-width="18"/><g data-id="o19g87of" data-class="flag" class="flag"><use href="#E241-ppwzpjc" transform="translate(3918, 1350) scale(0.72, 0.72)"/></g></g></g><g data-id="j1jtr8n9" data-class="note" class="note"><g data-class="notehead" class="notehead"><use href="#E0A4-ppwzpjc" transform="translate(4392, 810) scale(0.72, 0.72)"/></g><g data-id="p1nxd4op" data-class="stem" class="stem"><path d="M4401 838 L4401 1440" stroke-width="18"/><g data-id="q1pg1qq8" data-class="flag" class="flag"><use href="#E241-ppwzpjc" transform="translate(4392, 1440) scale(0.72, 0.72)"/></g></g></g><g data-id="k1aicsj" data-class="note" class="note"><g data-class="notehead" class="notehead"><use href="#E0A4-ppwzpjc" transform="translate(4866, 900) scale(0.72, 0.72)"/></g><g data-id="r1pag0xe" data-class="stem" class="stem"><path d="M4875 928 L4875 1500" stroke-width="18"/><g data-id="sc1i7iv" data-class="flag" class="flag"><use href="#E241-ppwzpjc" transform="translate(4866, 1500) scale(0.72, 0.72)"/></g></g></g></g></g><g data-id="hj5xez4" data-class="barLine" class="barLine"><path d="M5340 540 L5340 1260" stroke-width="27"/></g></g><g data-id="i56gzha" data-class="measure" class="measure"><g data-id="ma3rkg7" data-class="staff" class="staff"><path d="M5353 540 L8525 540" stroke-width="13"/><path d="M5353 720 L8525 720" stroke-width="13"/><path d="M5353 900 L8525 900" stroke-width="13"/><path d="M5353 1080 L8525 1080" stroke-width="13"/><path d="M5353 1260 L8525 1260" stroke-width="13"/><g data-id="na5vqla" data-class="layer" class="layer"><g data-id="l1xxjiw5" data-class="note" class="note"><g data-class="notehead" class="notehead"><use href="#E0A4-ppwzpjc" transform="translate(5468, 900) scale(0.54, 0.54)"/></g><g data-id="t9tvx8u" data-class="stem" class="stem"><path d="M5628 879 L5628 450" stroke-width="18"/><path d="M5561 718 L5762 517" stroke-width="21"/><g data-id="u1ybt58w" data-class="flag" class="flag"><use href="#E240-ppwzpjc" transform="translate(5619, 450) scale(0.54, 0.54)"/></g></g></g><g data-id="l15m38y0" data-class="beam" class="beam"><polygon stroke-opacity="1" fill-opacity="1" points="6047,315 6540,360 6540,450 6047,405"/><g data-id="m170qvpz" data-class="note" class="note"><g data-class="notehead" class="notehead"><use href="#E0A4-ppwzpjc" transform="translate(5839, 990) scale(0.72, 0.72)"/></g><g data-id="vbcrnpk" data-class="stem" class="stem"><path d="M6056 962 L6056 333" stroke-width="18"/></g></g><g data-id="n1xg6ucg" data-class="note" class="note"><g data-class="notehead" class="notehead"><use href="#E0A4-ppwzpjc" transform="translate(6314, 1080) scale(0.72, 0.72)"/></g><g data-id="w2b80au" data-class="stem" class="stem"><path d="M6531 1052 L6531 378" stroke-width="18"/></g></g></g><g data-id="ovrw0v2" data-class="note" class="note"><g data-class="notehead" class="notehead"><use href="#E0A4-ppwzpjc" transform="translate(6788, 990) scale(0.72, 0.72)"/></g><g data-id="x4h8kni" data-class="stem" class="stem"><path d="M7005 962 L7005 360" stroke-width="18"/><g data-id="y11mrwuk" data-class="flag" class="flag"><use href="#E240-ppwzpjc" transform="translate(6996, 360) scale(0.72, 0.72)"/></g></g></g><g data-id="p1013y7z" data-class="note" class="note"><g data-class="notehead" class="notehead"><use href="#E0A4-ppwzpjc" transform="translate(7310, 900) scale(0.72, 0.72)"/></g><g data-id="zsbo1op" data-class="stem" class="stem"><path d="M7319 928 L7319 1500" stroke-width="18"/></g></g><g data-id="q1p3vhzb" data-class="note" class="note"><g data-class="notehead" class="notehead"><use href="#E0A4-ppwzpjc" transform="translate(8038, 720) scale(0.72, 0.72)"/></g><g data-id="a1koykvq" data-class="stem" class="stem"><path d="M8047 748 L8047 1350" stroke-width="18"/><g data-id="byps1o9" data-class="flag" class="flag"><use href="#E241-ppwzpjc" transform="translate(8038, 1350) scale(0.72, 0.72)"/></g></g></g></g></g><g data-id="q10lup6x" data-class="barLine" class="barLine"><path d="M8512 540 L8512 1260" stroke-width="27"/></g></g><g data-id="r1kj9k1b" data-class="measure" class="measure"><g data-id="oo4b139" data-class="staff" class="staff"><path d="M8525 540 L11194 540" stroke-width="13"/><path d="M8525 720 L11194 720" stroke-width="13"/><path d="M8525 900 L11194 900" stroke-width="13"/><path d="M8525 1080 L11194 1080" stroke-width="13"/><path d="M8525 1260 L11194 1260" stroke-width="13"/><g data-id="pwdwa60" data-class="layer" class="layer"><g data-id="r157o9yl" data-class="note" class="note"><g data-class="notehead" class="notehead"><use href="#E0A4-ppwzpjc" transform="translate(8715, 900) scale(0.72, 0.72)"/></g><g data-id="c1xwb8ne" data-class="stem" class="stem"><path d="M8724 928 L8724 1500" stroke-width="18"/></g></g><g data-id="s4zvb18" data-class="note" class="note"><g data-class="notehead" class="notehead"><use href="#E0A4-ppwzpjc" transform="translate(9442, 1080) scale(0.72, 0.72)"/></g><g data-id="dnuyqye" data-class="stem" class="stem"><path d="M9659 1052 L9659 450" stroke-width="18"/><g data-id="eaqsjg6" data-class="flag" class="flag"><use href="#E240-ppwzpjc" transform="translate(9650, 450) scale(0.72, 0.72)"/></g></g></g><g data-id="tpte2cg" data-class="note" class="note"><g data-class="notehead" class="notehead"><use href="#E0A4-ppwzpjc" transform="translate(9917, 1260) scale(0.72, 0.72)"/></g><g data-id="f4habqc" data-class="stem" class="stem"><path d="M10134 1232 L10134 630" stroke-width="18"/></g></g><g data-id="u1cdc4mg" data-class="note" class="note"><g data-class="notehead" class="notehead"><use href="#E0A4-ppwzpjc" transform="translate(10644, 1080) scale(0.72, 0.72)"/></g><g data-id="g1mkqgj6" data-class="stem" class="stem"><path d="M10861 1052 L10861 450" stroke-width="18"/><g data-id="hmn0r1c" data-class="flag" class="flag"><use href="#E240-ppwzpjc" transform="translate(10852, 450) scale(0.72, 0.72)"/></g></g></g></g></g><g data-id="z107piep" data-class="barLine" class="barLine"><path d="M11181 540 L11181 1260" stroke-width="27"/></g></g><g data-id="a127mo3u" data-class="measure" class="measure"><g data-id="q1fc6v9t" data-class="staff" class="staff"><path d="M11194 540 L14002 540" stroke-width="13"/><path d="M11194 720 L14002 720" stroke-width="13"/><path d="M11194 900 L14002 900" stroke-width="13"/><path d="M11194 1080 L14002 1080" stroke-width="13"/><path d="M11194 1260 L14002 1260" stroke-width="13"/><g data-id="r175g7kb" data-class="layer" class="layer"><g data-id="v1pwyo35" data-class="note" class="note"><g data-class="notehead" class="notehead"><use href="#E0A4-ppwzpjc" transform="translate(11384, 1350) scale(0.72, 0.72)"/></g><g data-id="jqpsy2" data-class="dots" class="dots"><ellipse cx="11700" cy="1350" rx="36" ry="36" fill-opacity="1" stroke-opacity="1"/></g><g data-id="igqa29h" data-class="stem" class="stem"><path d="M11601 1322 L11601 720" stroke-width="18"/></g></g><g data-id="w11uskcl" data-class="note" class="note"><g data-class="notehead" class="notehead"><use href="#E0A4-ppwzpjc" transform="translate(12312, 1350) scale(0.72, 0.72)"/></g><g data-id="kf0skh6" data-class="stem" class="stem"><path d="M12529 1322 L12529 720" stroke-width="18"/><g data-id="lj7tafp" data-class="flag" class="flag"><use href="#E240-ppwzpjc" transform="translate(12520, 720) scale(0.72, 0.72)"/></g></g></g><g data-id="be3is48" data-class="rest" class="rest"><use href="#E4E6-ppwzpjc" transform="translate(12834, 900) scale(0.72, 0.72)"/></g><g data-id="mqtgav6" data-class="beam" class="beam"><polygon stroke-opacity="1" fill-opacity="1" points="13516,540 13867,495 13867,585 13516,630"/><polygon stroke-opacity="1" fill-opacity="1" points="13516,675 13867,630 13867,720 13516,765"/><g data-id="x10en259" data-class="note" class="note"><g data-class="notehead" class="notehead"><use href="#E0A4-ppwzpjc" transform="translate(13308, 1260) scale(0.72, 0.72)"/></g><g data-id="mpmlpl9" data-class="stem" class="stem"><path d="M13525 1232 L13525 558" stroke-width="18"/></g></g><g data-id="yq4bonb" data-class="note" class="note"><g data-class="notehead" class="notehead"><use href="#E0A4-ppwzpjc" transform="translate(13641, 1170) scale(0.72, 0.72)"/></g><g data-id="n1qp2ela" data-class="stem" class="stem"><path d="M13858 1142 L13858 513" stroke-width="18"/></g><g data-id="ro1i332" data-class="accid" class="accid"/></g></g></g></g><g data-id="p149ztz7" data-class="tie" class="tie"><path d="M11655,1462 C11816,1567 12105,1567 12267,1462 C12122,1616 11799,1616 11655,1462" stroke-linecap="round" stroke-linejoin="round" stroke-width="9"/></g><g data-id="izdvevt" data-class="barLine" class="barLine"><path d="M13989 540 L13989 1260" stroke-width="27"/></g></g></g></g></svg></svg>