<svg viewBox="0 0 560 84" version="1.1" xmlns="http://www.w3.org/2000/svg" xmlns:xlink="http://www.w3.org/1999/xlink" overflow="visible" id="d1t0lwxo"><desc>Engraved by Verovio 5.6.0-85e7620</desc><defs><g id="E050-d1t0lwxo"><path transform="scale(1,-1)" d="M441 -245c-23 -4 -48 -6 -76 -6c-59 0 -102 7 -130 20c-88 42 -150 93 -187 154c-26 44 -43 103 -48 176c0 6 -1 13 -1 19c0 54 15 111 45 170c29 57 65 106 110 148s96 85 153 127c-3 16 -8 46 -13 92c-4 43 -5 73 -5 89c0 117 16 172 69 257c34 54 64 82 89 82 c21 0 43 -30 69 -92s39 -115 41 -159v-15c0 -109 -21 -162 -67 -241c-13 -20 -63 -90 -98 -118c-13 -9 -25 -19 -37 -29l31 -181c8 1 18 2 28 2c58 0 102 -12 133 -35c59 -43 92 -104 98 -184c1 -7 1 -15 1 -22c0 -123 -87 -209 -181 -248c8 -57 17 -110 25 -162 c5 -31 6 -58 6 -80c0 -30 -5 -53 -14 -70c-35 -64 -88 -99 -158 -103c-5 0 -11 -1 -16 -1c-37 0 -72 10 -108 27c-50 24 -77 59 -80 105v11c0 29 7 55 20 76c18 28 45 42 79 44h6c49 0 93 -42 97 -87v-9c0 -51 -34 -86 -105 -106c17 -24 51 -36 102 -36c62 0 116 43 140 85 c9 16 13 41 13 74c0 20 -1 42 -5 67c-8 53 -18 106 -26 159zM461 939c-95 0 -135 -175 -135 -286c0 -24 2 -48 5 -71c50 39 92 82 127 128c40 53 60 100 60 140v8c-4 53 -22 81 -55 81h-2zM406 119l54 -326c73 25 110 78 110 161c0 7 0 15 -1 23c-7 95 -57 142 -151 142h-12 zM382 117c-72 -2 -128 -47 -128 -120v-7c2 -46 43 -99 75 -115c-3 -2 -7 -5 -10 -10c-70 33 -116 88 -123 172v11c0 68 44 126 88 159c23 17 49 29 78 36l-29 170c-21 -13 -52 -37 -92 -73c-50 -44 -86 -84 -109 -119c-45 -69 -67 -130 -67 -182v-13c5 -68 35 -127 93 -176 s125 -73 203 -73c25 0 50 3 75 9c-19 111 -36 221 -54 331z"/></g><g id="E262-d1t0lwxo"><path transform="scale(1,-1)" d="M136 186v169h17v-164l44 14v-91l-44 -14v-165l44 12v-91l-44 -13v-155h-17v150l-76 -22v-155h-17v149l-43 -13v90l43 14v167l-43 -14v92l43 13v169h17v-163zM60 73v-167l76 22v168z"/></g><g id="E082-d1t0lwxo"><path transform="scale(1,-1)" d="M124 -185c-18 0 -55 -14 -65 -65h-36l-3 30c0 25 6 45 18 63c11 19 22 30 39 43l121 82l37 29c15 11 27 29 38 54c12 24 18 47 18 70c0 40 -19 88 -94 88c-25 0 -32 0 -50 -8c-14 -5 -23 -12 -26 -22c3 -9 7 -15 10 -18l24 -17c12 -7 17 -11 27 -21c5 -7 7 -16 7 -27 c0 -12 0 -57 -79 -74c-30 0 -76 26 -76 94c0 66 81 135 197 135c72 0 181 -32 181 -150c0 -53 -32 -95 -113 -133l-91 -41c-26 -11 -45 -23 -57 -37l49 7c84 0 115 -41 148 -41c20 0 33 20 39 61h35c0 -152 -68 -168 -114 -168c-17 0 -65 0 -79 7h10l-28 17 c-49 37 -69 40 -87 42z"/></g><g id="E084-d1t0lwxo"><path transform="scale(1,-1)" d="M20 -78c84 97 114 180 134 329h170c-13 -32 -82 -132 -99 -151l-84 -97c-33 -36 -59 -63 -80 -81h162v102l127 123v-225h57v-39h-57v-34c0 -43 19 -65 57 -65v-34h-244v36c48 0 60 26 60 70v27h-203v39z"/></g><g id="E0A4-d1t0lwxo"><path transform="scale(1,-1)" d="M0 -39c0 68 73 172 200 172c66 0 114 -37 114 -95c0 -84 -106 -171 -218 -171c-64 0 -96 30 -96 94z"/></g><g id="E240-d1t0lwxo"><path transform="scale(1,-1)" d="M179 -646c15 29 29 55 46 102c18 49 30 108 30 138c0 105 -80 173 -168 200c-18 5 -47 9 -87 16v190h22c8 0 33 -61 71 -95c4 -3 -2 3 61 -56c62 -58 122 -137 122 -241c0 -38 -13 -106 -35 -163c-20 -51 -43 -99 -66 -132c-6 -5 -10 -7 -13 -7s-5 2 -5 5l4 10 c1 3 14 25 18 33z"/></g><g id="E242-d1t0lwxo"><path transform="scale(1,-1)" d="M206 -748c32 48 49 100 49 149c0 89 -55 168 -168 203c-18 5 -47 9 -87 16v190v190h22c8 0 33 -61 71 -95c4 -3 -2 3 61 -56c62 -58 122 -137 122 -241c0 -32 -7 -65 -17 -96c11 -29 17 -60 17 -94c0 -71 -32 -148 -67 -190c-6 -5 -10 -7 -13 -7s-5 2 -5 5l4 10 c1 3 6 8 11 16zM248 -463c4 18 7 38 7 57c0 105 -80 173 -168 200c-11 3 -27 6 -47 9c9 -17 23 -61 53 -88c4 -3 -2 3 61 -56c36 -33 71 -74 94 -122z"/></g><g id="E241-d1t0lwxo"><path transform="scale(1,-1)" d="M179 646c-4 8 -17 30 -18 33l-4 10c0 3 2 5 5 5s7 -2 13 -7c23 -33 46 -81 66 -132c22 -57 35 -125 35 -163c0 -104 -60 -183 -122 -241c-63 -59 -57 -53 -61 -56c-38 -34 -63 -95 -71 -95h-22v190c40 7 69 11 87 16c88 27 168 95 168 200c0 30 -12 89 -30 138 c-17 47 -31 73 -46 102z"/></g><g id="E243-d1t0lwxo"><path transform="scale(1,-1)" d="M216 730c-5 8 -10 13 -11 16l-4 10c0 3 2 5 5 5s7 -2 13 -7c35 -42 57 -101 57 -172c0 -34 -6 -65 -17 -94c10 -31 17 -64 17 -96c0 -104 -60 -183 -122 -241c-63 -59 -57 -53 -61 -56c-38 -34 -63 -95 -71 -95h-22v190v190c40 7 69 11 87 16c116 36 175 111 175 197 c0 44 -15 91 -46 137zM248 463c-23 -48 -58 -89 -94 -122c-63 -59 -57 -53 -61 -56c-30 -27 -44 -71 -53 -88c20 3 36 6 47 9c88 27 168 95 168 200c0 19 -3 39 -7 57z"/></g><g id="E4E5-d1t0lwxo"><path transform="scale(1,-1)" d="M107 292c-13 24 -30 49 -52 71c-1 1 0 2 0 3l-2 2c3 3 4 4 6 4c12 0 26 -7 40 -20s44 -40 89 -81c26 -24 28 -29 46 -47c4 -4 8 -9 10 -14c6 -8 8 -16 8 -27c0 -19 -12 -40 -36 -61c-28 -23 -49 -38 -61 -73c-4 -11 -7 -27 -10 -50c13 -43 34 -83 59 -121 c31 -47 59 -79 101 -129c-8 0 -26 7 -54 20l-62 29l-21 6l-23 1c-25 0 -45 -10 -60 -30l-4 -14l-1 -12c0 -33 20 -56 39 -78c8 -9 17 -18 26 -26c17 -15 27 -24 28 -30l-3 -3c-11 5 -19 10 -25 15c-9 3 -37 21 -45 26c-24 14 -45 32 -63 51c-19 21 -37 44 -37 71 c0 63 27 95 80 95c41 0 86 -18 136 -52c-19 26 -37 48 -55 66c-23 23 -48 44 -73 65c-28 23 -47 40 -58 53s-17 26 -18 39c75 64 113 125 113 183c0 27 -7 48 -18 68z"/></g></defs><style type="text/css">#d1t0lwxo g.page-margin {font-family:Times,serif;}#d1t0lwxo g.ending, #d1t0lwxo g.fing, #d1t0lwxo g.reh, #d1t0lwxo g.tempo {font-weight:bold;}#d1t0lwxo g.dir, #d1t0lwxo g.dynam, #d1t0lwxo g.mNum {font-style:italic;}#d1t0lwxo g.label {font-weight:normal;}#d1t0lwxo path {stroke:currentColor}</style><svg class="definition-scale" color="black" viewBox="0 0 14000 2100"><g class="page-margin" transform="translate(0, 150)"><g data-id="l1fnyj39" data-class="mdiv" class="mdiv pageMilestone"/><g data-id="mnz8xr9" data-class="score" class="score pageMilestone"/><g data-id="ka0l9f1" data-class="system" class="system"><g data-id="oao5m40" data-class="section" class="section systemMilestone"/><g data-id="e1huyhl1" data-class="measure" class="measure"><g data-id="arysmxm" data-class="staff" class="staff"><path d="M0 540 L3440 540" stroke-width="13"/><path d="M0 720 L3440 720" stroke-width="13"/><path d="M0 900 L3440 900" stroke-width="13"/><path d="M0 1080 L3440 1080" stroke-width="13"/><path d="M0 1260 L3440 1260" stroke-width="13"/><g data-id="p1hryufb" data-class="clef" class="clef"><use href="#E050-d1t0lwxo" transform="translate(90, 1080) scale(0.72, 0.72)"/></g><g data-id="q1ky8dxm" data-class="keySig" class="keySig"><g data-id="r1lws0w" data-class="keyAccid" class="keyAccid"><use href="#E262-d1t0lwxo" transform="translate(735, 540) scale(0.72, 0.72)"/></g><g data-id="smze766" data-class="keyAccid" class="keyAccid"><use href="#E262-d1t0lwxo" transform="translate(913, 810) scale(0.72, 0.72)"/></g><g data-id="tn1iu3q" data-class="keyAccid" class="keyAccid"><use href="#E262-d1t0lwxo" transform="translate(1091, 450) scale(0.72, 0.72)"/></g></g><g data-id="u1gicixh" data-class="meterSig" class="meterSig"><use href="#E082-d1t0lwxo" transform="translate(1398, 720) scale(0.72, 0.72)"/><use href="#E084-d1t0lwxo" transform="translate(1403, 1080) scale(0.72, 0.72)"/></g><g data-id="b1ioikw1" data-class="layer" class="layer"><g data-id="ps5uu2x" data-class="note" class="note"><g data-class="notehead" class="notehead"><use href="#E0A4-d1t0lwxo" transform="translate(1971, 990) scale(0.72, 0.72)"/></g><g data-id="v1p0mhii" data-class="stem" class="stem"><path d="M2188 962 L2188 360" stroke-width="18"/><g data-id="w1h4f61l" data-class="flag" class="flag"><use href="#E240-d1t0lwxo" transform="translate(2179, 360) scale(0.72, 0.72)"/></g></g></g><g data-id="q1c8dh8r" data-class="note" class="note"><g data-class="notehead" class="notehead"><use href="#E0A4-d1t0lwxo" transform="translate(2421, 1080) scale(0.72, 0.72)"/></g><g data-id="x3ypevx" data-class="stem" class="stem"><path d="M2638 1052 L2638 450" stroke-width="18"/><g data-id="y1gj46a8" data-class="flag" class="flag"><use href="#E242-d1t0lwxo" transform="translate(2629, 450) scale(0.72, 0.72)"/></g></g><g data-id="ed688nd" data-class="accid" class="accid"/></g><g data-id="rw4f4tv" data-class="note" class="note"><g data-class="notehead" class="notehead"><use href="#E0A4-d1t0lwxo" transform="translate(2917, 990) scale(0.72, 0.72)"/></g><g data-id="z3v8rc5" data-class="stem" class="stem"><path d="M3134 962 L3134 360" stroke-width="18"/><g data-id="a23ml4w" data-class="flag" class="flag"><use href="#E242-d1t0lwxo" transform="translate(3125, 360) scale(0.72, 0.72)"/></g></g></g></g></g><g data-id="m1d6k9ng" data-class="barLine" class="barLine"><path d="M3427 540 L3427 1260" stroke-width="27"/></g></g><g data-id="n2cjqko" data-class="measure" class="measure"><g data-id="cx6jlyx" data-class="staff" class="staff"><path d="M3440 540 L5989 540" stroke-width="13"/><path d="M3440 720 L5989 720" stroke-width="13"/><path d="M3440 900 L5989 900" stroke-width="13"/><path d="M3440 1080 L5989 1080" stroke-width="13"/><path d="M3440 1260 L5989 1260" stroke-width="13"/><g data-id="dru2j2q" data-class="layer" class="layer"><g data-id="s13he56" data-class="note" class="note"><g data-class="notehead" class="notehead"><use href="#E0A4-d1t0lwxo" transform="translate(3620, 720) scale(0.72, 0.72)"/></g><g data-id="brrvpwo" data-class="stem" class="stem"><path d="M3629 748 L3629 1350" stroke-width="18"/><g data-id="c1h7vufz" data-class="flag" class="flag"><use href="#E241-d1t0lwxo" transform="translate(3620, 1350) scale(0.72, 0.72)"/></g></g></g><g data-id="t1wfnou6" data-class="note" class="note"><g data-class="notehead" class="notehead"><use href="#E0A4-d1t0lwxo" transform="translate(4070, 810) scale(0.72, 0.72)"/></g><g data-id="dmnxsgx" data-class="stem" class="stem"><path d="M4079 838 L4079 1440" stroke-width="18"/><g data-id="e1i8ws5q" data-class="flag" class="flag"><use href="#E241-d1t0lwxo" transform="translate(4070, 1440) scale(0.72, 0.72)"/></g></g><g data-id="fqh5ao3" data-class="accid" class="accid"/></g><g data-id="u1dyx9sl" data-class="note" class="note"><g data-class="notehead" class="notehead"><use href="#E0A4-d1t0lwxo" transform="translate(4520, 990) scale(0.72, 0.72)"/></g><g data-id="fcaroog" data-class="stem" class="stem"><path d="M4737 962 L4737 360" stroke-width="18"/><g data-id="g188gwih" data-class="flag" class="flag"><use href="#E240-d1t0lwxo" transform="translate(4728, 360) scale(0.72, 0.72)"/></g></g></g><g data-id="v1p2xgnf" data-class="note" class="note"><g data-class="notehead" class="notehead"><use href="#E0A4-d1t0lwxo" transform="translate(4970, 1080) scale(0.72, 0.72)"/></g><g data-id="hp17lxx" data-class="stem" class="stem"><path d="M5187 1052 L5187 450" stroke-width="18"/><g data-id="i1bmbrir" data-class="flag" class="flag"><use href="#E242-d1t0lwxo" transform="translate(5178, 450) scale(0.72, 0.72)"/></g></g><g data-id="g1cmijnj" data-class="accid" class="accid"/></g><g data-id="w5eooza" data-class="note" class="note"><g data-class="notehead" class="notehead"><use href="#E0A4-d1t0lwxo" transform="translate(5466, 990) scale(0.72, 0.72)"/></g><g data-id="j13l1kza" data-class="stem" class="stem"><path d="M5683 962 L5683 360" stroke-width="18"/><g data-id="kf3nbdz" data-class="flag" class="flag"><use href="#E242-d1t0lwxo" transform="translate(5674, 360) scale(0.72, 0.72)"/></g></g></g></g></g><g data-id="v2c4eq" data-class="barLine" class="barLine"><path d="M5976 540 L5976 1260" stroke-width="27"/></g></g><g data-id="wy0535v" data-class="measure" class="measure"><g data-id="e16tnwo0" data-class="staff" class="staff"><path d="M5989 540 L8178 540" stroke-width="13"/><path d="M5989 720 L8178 720" stroke-width="13"/><path d="M5989 900 L8178 900" stroke-width="13"/><path d="M5989 1080 L8178 1080" stroke-width="13"/><path d="M5989 1260 L8178 1260" stroke-width="13"/><g data-id="f1s0etz6" data-class="layer" class="layer"><g data-id="x1fajeig" data-class="note" class="note"><g data-class="notehead" class="notehead"><use href="#E0A4-d1t0lwxo" transform="translate(6169, 540) scale(0.72, 0.72)"/></g><g data-id="lrgc7a7" data-class="stem" class="stem"><path d="M6178 568 L6178 1170" stroke-width="18"/><g data-id="m15lj6c9" data-class="flag" class="flag"><use href="#E241-d1t0lwxo" transform="translate(6169, 1170) scale(0.72, 0.72)"/></g></g><g data-id="h1wgmf9h" data-class="accid" class="accid"/></g><g data-id="yyktup0" data-class="note" class="note"><g data-class="notehead" class="notehead"><use href="#E0A4-d1t0lwxo" transform="translate(6619, 630) scale(0.72, 0.72)"/></g><g data-id="n1bfcs67" data-class="stem" class="stem"><path d="M6628 658 L6628 1260" stroke-width="18"/><g data-id="owxmdev" data-class="flag" class="flag"><use href="#E241-d1t0lwxo" transform="translate(6619, 1260) scale(0.72, 0.72)"/></g></g></g><g data-id="z1pkl431" data-class="note" class="note"><g data-class="notehead" class="notehead"><use href="#E0A4-d1t0lwxo" transform="translate(7069, 720) scale(0.72, 0.72)"/></g><g data-id="pisdvio" data-class="stem" class="stem"><path d="M7078 748 L7078 1350" stroke-width="18"/><g data-id="q1dz2dn8" data-class="flag" class="flag"><use href="#E241-d1t0lwxo" transform="translate(7069, 1350) scale(0.72, 0.72)"/></g></g></g><g data-id="aewsye7" data-class="note" class="note"><g data-class="notehead" class="notehead"><use href="#E0A4-d1t0lwxo" transform="translate(7519, 810) scale(0.72, 0.72)"/></g><g data-id="ruvygw5" data-class="stem" class="stem"><path d="M7528 838 L7528 1440" stroke-width="18"/><g data-id="s1chy9qq" data-class="flag" class="flag"><use href="#E243-d1t0lwxo" transform="translate(7519, 1440) scale(0.72, 0.72)"/></g></g><g data-id="i19k6s9f" data-class="accid" class="accid"/></g><g data-id="b1iqou6n" data-class="note" class="note"><g data-class="notehead" class="notehead"><use href="#E0A4-d1t0lwxo" transform="translate(7835, 900) scale(0.72, 0.72)"/></g><g data-id="ty0pfjf" data-class="stem" class="stem"><path d="M7844 928 L7844 1500" stroke-width="18"/><g data-id="unncng1" data-class="flag" class="flag"><use href="#E243-d1t0lwxo" transform="translate(7835, 1500) scale(0.72, 0.72)"/></g></g></g></g></g><g data-id="eiml5bt" data-class="barLine" class="barLine"><path d="M8165 540 L8165 1260" stroke-width="27"/></g></g><g data-id="f18v4x4v" data-class="measure" class="measure"><g data-id="g190muap" data-class="staff" class="staff"><path d="M8178 540 L10007 540" stroke-width="13"/><path d="M8178 720 L10007 720" stroke-width="13"/><path d="M8178 900 L10007 900" stroke-width="13"/><path d="M8178 1080 L10007 1080" stroke-width="13"/><path d="M8178 1260 L10007 1260" stroke-width="13"/><g data-id="ho9g740" data-class="layer" class="layer"><g data-id="cbl1n9u" data-class="note" class="note"><g data-class="notehead" class="notehead"><use href="#E0A4-d1t0lwxo" transform="translate(8358, 990) scale(0.72, 0.72)"/></g><g data-id="v16vt8f3" data-class="stem" class="stem"><path d="M8575 962 L8575 360" stroke-width="18"/><g data-id="w1ndz1vj" data-class="flag" class="flag"><use href="#E240-d1t0lwxo" transform="translate(8566, 360) scale(0.72, 0.72)"/></g></g></g><g data-id="d1wn4kny" data-class="note" class="note"><g data-class="notehead" class="notehead"><use href="#E0A4-d1t0lwxo" transform="translate(8808, 1080) scale(0.72, 0.72)"/></g><g data-id="x1lpczti" data-class="stem" class="stem"><path d="M9025 1052 L9025 450" stroke-width="18"/><g data-id="y1u4n0tg" data-class="flag" class="flag"><use href="#E240-d1t0lwxo" transform="translate(9016, 450) scale(0.72, 0.72)"/></g></g><g data-id="j60ppu" data-class="accid" class="accid"/></g><g data-id="o5n27ke" data-class="rest" class="rest"><use href="#E4E5-d1t0lwxo" transform="translate(9304, 900) scale(0.72, 0.72)"/></g></g></g><g data-id="ncz3p6z" data-class="barLine" class="barLine"><path d="M9994 540 L9994 1260" stroke-width="27"/></g></g><g data-id="p1wug3y3" data-class="systemMilestoneEnd" class="systemMilestoneEnd oao5m40"/></g><g data-id="qrqoauh" data-class="pageMilestoneEnd" class="pageMilestoneEnd mnz8xr9"/><g data-id="r1d4701t" data-class="pageMilestoneEnd" class="pageMilestoneEnd l1fnyj39"/></g></svg></svg>