<svg viewBox="0 0 560 84" version="1.1" xmlns="http://www.w3.org/2000/svg" xmlns:xlink="http://www.w3.org/1999/xlink" overflow="visible" id="qx6bes5"><desc>Engraved by Verovio 5.6.0-85e7620</desc><defs><g id="E050-qx6bes5"><path transform="scale(1,-1)" d="M441 -245c-23 -4 -48 -6 -76 -6c-59 0 -102 7 -130 20c-88 42 -150 93 -187 154c-26 44 -43 103 -48 176c0 6 -1 13 -1 19c0 54 15 111 45 170c29 57 65 106 110 148s96 85 153 127c-3 16 -8 46 -13 92c-4 43 -5 73 -5 89c0 117 16 172 69 257c34 54 64 82 89 82 c21 0 43 -30 69 -92s39 -115 41 -159v-15c0 -109 -21 -162 -67 -241c-13 -20 -63 -90 -98 -118c-13 -9 -25 -19 -37 -29l31 -181c8 1 18 2 28 2c58 0 102 -12 133 -35c59 -43 92 -104 98 -184c1 -7 1 -15 1 -22c0 -123 -87 -209 -181 -248c8 -57 17 -110 25 -162 c5 -31 6 -58 6 -80c0 -30 -5 -53 -14 -70c-35 -64 -88 -99 -158 -103c-5 0 -11 -1 -16 -1c-37 0 -72 10 -108 27c-50 24 -77 59 -80 105v11c0 29 7 55 20 76c18 28 45 42 79 44h6c49 0 93 -42 97 -87v-9c0 -51 -34 -86 -105 -106c17 -24 51 -36 102 -36c62 0 116 43 140 85 c9 16 13 41 13 74c0 20 -1 42 -5 67c-8 53 -18 106 -26 159zM461 939c-95 0 -135 -175 -135 -286c0 -24 2 -48 5 -71c50 39 92 82 127 128c40 53 60 100 60 140v8c-4 53 -22 81 -55 81h-2zM406 119l54 -326c73 25 110 78 110 161c0 7 0 15 -1 23c-7 95 -57 142 -151 142h-12 zM382 117c-72 -2 -128 -47 -128 -120v-7c2 -46 43 -99 75 -115c-3 -2 -7 -5 -10 -10c-70 33 -116 88 -123 172v11c0 68 44 126 88 159c23 17 49 29 78 36l-29 170c-21 -13 -52 -37 -92 -73c-50 -44 -86 -84 -109 -119c-45 -69 -67 -130 -67 -182v-13c5 -68 35 -127 93 -176 s125 -73 203 -73c25 0 50 3 75 9c-19 111 -36 221 -54 331z"/></g><g id="E262-qx6bes5"><path transform="scale(1,-1)" d="M136 186v169h17v-164l44 14v-91l-44 -14v-165l44 12v-91l-44 -13v-155h-17v150l-76 -22v-155h-17v149l-43 -13v90l43 14v167l-43 -14v92l43 13v169h17v-163zM60 73v-167l76 22v168z"/></g><g id="E082-qx6bes5"><path transform="scale(1,-1)" d="M124 -185c-18 0 -55 -14 -65 -65h-36l-3 30c0 25 6 45 18 63c11 19 22 30 39 43l121 82l37 29c15 11 27 29 38 54c12 24 18 47 18 70c0 40 -19 88 -94 88c-25 0 -32 0 -50 -8c-14 -5 -23 -12 -26 -22c3 -9 7 -15 10 -18l24 -17c12 -7 17 -11 27 -21c5 -7 7 -16 7 -27 c0 -12 0 -57 -79 -74c-30 0 -76 26 -76 94c0 66 81 135 197 135c72 0 181 -32 181 -150c0 -53 -32 -95 -113 -133l-91 -41c-26 -11 -45 -23 -57 -37l49 7c84 0 115 -41 148 -41c20 0 33 20 39 61h35c0 -152 -68 -168 -114 -168c-17 0 -65 0 -79 7h10l-28 17 c-49 37 -69 40 -87 42z"/></g><g id="E084-qx6bes5"><path transform="scale(1,-1)" d="M20 -78c84 97 114 180 134 329h170c-13 -32 -82 -132 -99 -151l-84 -97c-33 -36 -59 -63 -80 -81h162v102l127 123v-225h57v-39h-57v-34c0 -43 19 -65 57 -65v-34h-244v36c48 0 60 26 60 70v27h-203v39z"/></g><g id="E0A4-qx6bes5"><path transform="scale(1,-1)" d="M0 -39c0 68 73 172 200 172c66 0 114 -37 114 -95c0 -84 -106 -171 -218 -171c-64 0 -96 30 -96 94z"/></g><g id="E240-qx6bes5"><path transform="scale(1,-1)" d="M179 -646c15 29 29 55 46 102c18 49 30 108 30 138c0 105 -80 173 -168 200c-18 5 -47 9 -87 16v190h22c8 0 33 -61 71 -95c4 -3 -2 3 61 -56c62 -58 122 -137 122 -241c0 -38 -13 -106 -35 -163c-20 -51 -43 -99 -66 -132c-6 -5 -10 -7 -13 -7s-5 2 -5 5l4 10 c1 3 14 25 18 33z"/></g><g id="E242-qx6bes5"><path transform="scale(1,-1)" d="M206 -748c32 48 49 100 49 149c0 89 -55 168 -168 203c-18 5 -47 9 -87 16v190v190h22c8 0 33 -61 71 -95c4 -3 -2 3 61 -56c62 -58 122 -137 122 -241c0 -32 -7 -65 -17 -96c11 -29 17 -60 17 -94c0 -71 -32 -148 -67 -190c-6 -5 -10 -7 -13 -7s-5 2 -5 5l4 10 c1 3 6 8 11 16zM248 -463c4 18 7 38 7 57c0 105 -80 173 -168 200c-11 3 -27 6 -47 9c9 -17 23 -61 53 -88c4 -3 -2 3 61 -56c36 -33 71 -74 94 -122z"/></g><g id="E241-qx6bes5"><path transform="scale(1,-1)" d="M179 646c-4 8 -17 30 -18 33l-4 10c0 3 2 5 5 5s7 -2 13 -7c23 -33 46 -81 66 -132c22 -57 35 -125 35 -163c0 -104 -60 -183 -122 -241c-63 -59 -57 -53 -61 -56c-38 -34 -63 -95 -71 -95h-22v190c40 7 69 11 87 16c88 27 168 95 168 200c0 30 -12 89 -30 138 c-17 47 -31 73 -46 102z"/></g><g id="E243-qx6bes5"><path transform="scale(1,-1)" d="M216 730c-5 8 -10 13 -11 16l-4 10c0 3 2 5 5 5s7 -2 13 -7c35 -42 57 -101 57 -172c0 -34 -6 -65 -17 -94c10 -31 17 -64 17 -96c0 -104 -60 -183 -122 -241c-63 -59 -57 -53 -61 -56c-38 -34 -63 -95 -71 -95h-22v190v190c40 7 69 11 87 16c116 36 175 111 175 197 c0 44 -15 91 -46 137zM248 463c-23 -48 -58 -89 -94 -122c-63 -59 -57 -53 -61 -56c-30 -27 -44 -71 -53 -88c20 3 36 6 47 9c88 27 168 95 168 200c0 19 -3 39 -7 57z"/></g></defs><style type="text/css">#qx6bes5 g.page-margin {font-family:Times,serif;}#qx6bes5 g.ending, #qx6bes5 g.fing, #qx6bes5 g.reh, #qx6bes5 g.tempo {font-weight:bold;}#qx6bes5 g.dir, #qx6bes5 g.dynam, #qx6bes5 g.mNum {font-style:italic;}#qx6bes5 g.label {font-weight:normal;}#qx6bes5 path {stroke:currentColor}</style><svg class="definition-scale" color="black" viewBox="0 0 14000 2100"><g class="page-margin" transform="translate(0, 150)"><g data-id="ijeb0qo" data-class="mdiv" class="mdiv pageMilestone"/><g data-id="j7qjtjv" data-class="score" class="score pageMilestone"/><g data-id="y1vd6vs7" data-class="system" class="system"><g data-id="lf8aukk" data-class="section" class="section systemMilestone"/><g data-id="r17jbccu" data-class="measure" class="measure"><g data-id="x1yabsj8" data-class="staff" class="staff"><path d="M0 540 L2494 540" stroke-width="13"/><path d="M0 720 L2494 720" stroke-width="13"/><path d="M0 900 L2494 900" stroke-width="13"/><path d="M0 1080 L2494 1080" stroke-width="13"/><path d="M0 1260 L2494 1260" stroke-width="13"/><g data-id="dgmky78" data-class="clef" class="clef"><use href="#E050-qx6bes5" transform="translate(90, 1080) scale(0.72, 0.72)"/></g><g data-id="e1jpxq3b" data-class="keySig" class="keySig"><g data-id="fitfzx1" data-class="keyAccid" class="keyAccid"><use href="#E262-qx6bes5" transform="translate(735, 540) scale(0.72, 0.72)"/></g><g data-id="g1lf93dy" data-class="keyAccid" class="keyAccid"><use href="#E262-qx6bes5" transform="translate(913, 810) scale(0.72, 0.72)"/></g><g data-id="h12wlmvt" data-class="keyAccid" class="keyAccid"><use href="#E262-qx6bes5" transform="translate(1091, 450) scale(0.72, 0.72)"/></g></g><g data-id="i14oiybu" data-class="meterSig" class="meterSig"><use href="#E082-qx6bes5" transform="translate(1398, 720) scale(0.72, 0.72)"/><use href="#E084-qx6bes5" transform="translate(1403, 1080) scale(0.72, 0.72)"/></g><g data-id="y1odv903" data-class="layer" class="layer"><g data-id="k1kdur5r" data-class="note" class="note"><g data-class="notehead" class="notehead"><use href="#E0A4-qx6bes5" transform="translate(1971, 1260) scale(0.72, 0.72)"/></g><g data-id="u1syv3qi" data-class="stem" class="stem"><path d="M2188 1232 L2188 630" stroke-width="18"/><g data-id="v11u5wmg" data-class="flag" class="flag"><use href="#E240-qx6bes5" transform="translate(2179, 630) scale(0.72, 0.72)"/></g></g></g></g></g><g data-id="z1j2obsl" data-class="barLine" class="barLine"><path d="M2481 540 L2481 1260" stroke-width="27"/></g></g><g data-id="ass97xt" data-class="measure" class="measure"><g data-id="z1smx28v" data-class="staff" class="staff"><path d="M2494 540 L4723 540" stroke-width="13"/><path d="M2494 720 L4723 720" stroke-width="13"/><path d="M2494 900 L4723 900" stroke-width="13"/><path d="M2494 1080 L4723 1080" stroke-width="13"/><path d="M2494 1260 L4723 1260" stroke-width="13"/><g data-id="a1otmici" data-class="layer" class="layer"><g data-id="l154mgv2" data-class="note" class="note"><g data-class="notehead" class="notehead"><use href="#E0A4-qx6bes5" transform="translate(2674, 990) scale(0.72, 0.72)"/></g><g data-id="x5ld1nd" data-class="dots" class="dots"><ellipse cx="2990" cy="990" rx="36" ry="36" fill-opacity="1" stroke-opacity="1"/></g><g data-id="w1gtkwo" data-class="stem" class="stem"><path d="M2891 962 L2891 360" stroke-width="18"/><g data-id="y18o9ygc" data-class="flag" class="flag"><use href="#E240-qx6bes5" transform="translate(2882, 360) scale(0.72, 0.72)"/></g></g></g><g data-id="m339j9x" data-class="note" class="note"><g data-class="notehead" class="notehead"><use href="#E0A4-qx6bes5" transform="translate(3254, 1080) scale(0.72, 0.72)"/></g><g data-id="zfjcwzg" data-class="stem" class="stem"><path d="M3471 1052 L3471 450" stroke-width="18"/><g data-id="aiskxgz" data-class="flag" class="flag"><use href="#E242-qx6bes5" transform="translate(3462, 450) scale(0.72, 0.72)"/></g></g><g data-id="b1kgeapq" data-class="accid" class="accid"/></g><g data-id="n17gc7ev" data-class="note" class="note"><g data-class="notehead" class="notehead"><use href="#E0A4-qx6bes5" transform="translate(3750, 900) scale(0.72, 0.72)"/></g><g data-id="b2dzvgp" data-class="stem" class="stem"><path d="M3759 928 L3759 1500" stroke-width="18"/><g data-id="cdr2ysl" data-class="flag" class="flag"><use href="#E241-qx6bes5" transform="translate(3750, 1500) scale(0.72, 0.72)"/></g></g></g><g data-id="o10zfxd8" data-class="note" class="note"><g data-class="notehead" class="notehead"><use href="#E0A4-qx6bes5" transform="translate(4200, 990) scale(0.72, 0.72)"/></g><g data-id="d1emci0x" data-class="stem" class="stem"><path d="M4417 962 L4417 360" stroke-width="18"/><g data-id="e1lnegeo" data-class="flag" class="flag"><use href="#E240-qx6bes5" transform="translate(4408, 360) scale(0.72, 0.72)"/></g></g></g></g></g><g data-id="iaee60b" data-class="barLine" class="barLine"><path d="M4710 540 L4710 1260" stroke-width="27"/></g></g><g data-id="jfrwepo" data-class="measure" class="measure"><g data-id="b44ct6s" data-class="staff" class="staff"><path d="M4723 540 L6712 540" stroke-width="13"/><path d="M4723 720 L6712 720" stroke-width="13"/><path d="M4723 900 L6712 900" stroke-width="13"/><path d="M4723 1080 L6712 1080" stroke-width="13"/><path d="M4723 1260 L6712 1260" stroke-width="13"/><g data-id="c12am6rw" data-class="layer" class="layer"><g data-id="pkg3k2z" data-class="note" class="note"><g data-class="notehead" class="notehead"><use href="#E0A4-qx6bes5" transform="translate(4903, 720) scale(0.72, 0.72)"/></g><g data-id="g2kpn3f" data-class="dots" class="dots"><ellipse cx="5219" cy="630" rx="36" ry="36" fill-opacity="1" stroke-opacity="1"/></g><g data-id="f712r5m" data-class="stem" class="stem"><path d="M4912 748 L4912 1350" stroke-width="18"/><g data-id="h13n629e" data-class="flag" class="flag"><use href="#E241-qx6bes5" transform="translate(4903, 1350) scale(0.72, 0.72)"/></g></g></g><g data-id="q1f81h4h" data-class="note" class="note"><g data-class="notehead" class="notehead"><use href="#E0A4-qx6bes5" transform="translate(5483, 810) scale(0.72, 0.72)"/></g><g data-id="iamip2n" data-class="stem" class="stem"><path d="M5492 838 L5492 1440" stroke-width="18"/><g data-id="ji6h488" data-class="flag" class="flag"><use href="#E243-qx6bes5" transform="translate(5483, 1440) scale(0.72, 0.72)"/></g></g><g data-id="c1q9m9ti" data-class="accid" class="accid"/></g><g data-id="rjwa5r0" data-class="note" class="note"><g data-class="notehead" class="notehead"><use href="#E0A4-qx6bes5" transform="translate(5799, 810) scale(0.72, 0.72)"/></g><g data-id="kh25e6p" data-class="stem" class="stem"><path d="M5808 838 L5808 1440" stroke-width="18"/><g data-id="lvfyxyn" data-class="flag" class="flag"><use href="#E241-qx6bes5" transform="translate(5799, 1440) scale(0.72, 0.72)"/></g></g><g data-id="d1r1hu7x" data-class="accid" class="accid"/></g><g data-id="s1ankgl" data-class="note" class="note"><g data-class="notehead" class="notehead"><use href="#E0A4-qx6bes5" transform="translate(6249, 900) scale(0.72, 0.72)"/></g><g data-id="m14l200m" data-class="stem" class="stem"><path d="M6258 928 L6258 1500" stroke-width="18"/><g data-id="n91guli" data-class="flag" class="flag"><use href="#E241-qx6bes5" transform="translate(6249, 1500) scale(0.72, 0.72)"/></g></g></g></g></g><g data-id="r1hgjm0a" data-class="barLine" class="barLine"><path d="M6699 540 L6699 1260" stroke-width="27"/></g></g><g data-id="s1s5isso" data-class="measure" class="measure"><g data-id="d1o8osk4" data-class="staff" class="staff"><path d="M6712 540 L8751 540" stroke-width="13"/><path d="M6712 720 L8751 720" stroke-width="13"/><path d="M6712 900 L8751 900" stroke-width="13"/><path d="M6712 1080 L8751 1080" stroke-width="13"/><path d="M6712 1260 L8751 1260" stroke-width="13"/><g data-id="e1idqn8o" data-class="layer" class="layer"><g data-id="tbjsxin" data-class="note" class="note"><g data-class="notehead" class="notehead"><use href="#E0A4-qx6bes5" transform="translate(6892, 990) scale(0.72, 0.72)"/></g><g data-id="o17cgsfh" data-class="stem" class="stem"><path d="M7109 962 L7109 360" stroke-width="18"/><g data-id="p1tr10q1" data-class="flag" class="flag"><use href="#E240-qx6bes5" transform="translate(7100, 360) scale(0.72, 0.72)"/></g></g></g><g data-id="u1yomfus" data-class="note" class="note"><g data-class="notehead" class="notehead"><use href="#E0A4-qx6bes5" transform="translate(7388, 810) scale(0.72, 0.72)"/></g><g data-id="q12ooae5" data-class="stem" class="stem"><path d="M7397 838 L7397 1440" stroke-width="18"/><g data-id="r13z6tio" data-class="flag" class="flag"><use href="#E241-qx6bes5" transform="translate(7388, 1440) scale(0.72, 0.72)"/></g></g><g data-id="e55ely9" data-class="accid" class="accid"/></g><g data-id="veb5jns" data-class="note" class="note"><g data-class="notehead" class="notehead"><use href="#E0A4-qx6bes5" transform="translate(7838, 540) scale(0.72, 0.72)"/></g><g data-id="s15na3x7" data-class="stem" class="stem"><path d="M7847 568 L7847 1170" stroke-width="18"/><g data-id="t1oh3z9j" data-class="flag" class="flag"><use href="#E241-qx6bes5" transform="translate(7838, 1170) scale(0.72, 0.72)"/></g></g><g data-id="ff1dyfz" data-class="accid" class="accid"/></g><g data-id="wm7vbim" data-class="note" class="note"><g data-class="notehead" class="notehead"><use href="#E0A4-qx6bes5" transform="translate(8288, 630) scale(0.72, 0.72)"/></g><g data-id="uq6ek8k" data-class="stem" class="stem"><path d="M8297 658 L8297 1260" stroke-width="18"/><g data-id="v10widlx" data-class="flag" class="flag"><use href="#E241-qx6bes5" transform="translate(8288, 1260) scale(0.72, 0.72)"/></g></g></g></g></g><g data-id="aa0pxsb" data-class="barLine" class="barLine"><path d="M8738 540 L8738 1260" stroke-width="27"/></g></g><g data-id="b1432hxf" data-class="measure" class="measure"><g data-id="f1oyw9oc" data-class="staff" class="staff"><path d="M8751 540 L10740 540" stroke-width="13"/><path d="M8751 720 L10740 720" stroke-width="13"/><path d="M8751 900 L10740 900" stroke-width="13"/><path d="M8751 1080 L10740 1080" stroke-width="13"/><path d="M8751 1260 L10740 1260" stroke-width="13"/><g data-id="g1xhk1q7" data-class="layer" class="layer"><g data-id="x110byiv" data-class="note" class="note"><g data-class="notehead" class="notehead"><use href="#E0A4-qx6bes5" transform="translate(8931, 630) scale(0.72, 0.72)"/></g><g data-id="xjm0he2" data-class="dots" class="dots"><ellipse cx="9247" cy="630" rx="36" ry="36" fill-opacity="1" stroke-opacity="1"/></g><g data-id="w1mfihzf" data-class="stem" class="stem"><path d="M8940 658 L8940 1260" stroke-width="18"/><g data-id="y16g2p94" data-class="flag" class="flag"><use href="#E241-qx6bes5" transform="translate(8931, 1260) scale(0.72, 0.72)"/></g></g></g><g data-id="yi35k5e" data-class="note" class="note"><g data-class="notehead" class="notehead"><use href="#E0A4-qx6bes5" transform="translate(9511, 720) scale(0.72, 0.72)"/></g><g data-id="z1mcgywb" data-class="stem" class="stem"><path d="M9520 748 L9520 1350" stroke-width="18"/><g data-id="aw4ejix" data-class="flag" class="flag"><use href="#E243-qx6bes5" transform="translate(9511, 1350) scale(0.72, 0.72)"/></g></g></g><g data-id="z12dnvxy" data-class="note" class="note"><g data-class="notehead" class="notehead"><use href="#E0A4-qx6bes5" transform="translate(9827, 720) scale(0.72, 0.72)"/></g><g data-id="bxtpr3i" data-class="stem" class="stem"><path d="M9836 748 L9836 1350" stroke-width="18"/><g data-id="c1dlaad7" data-class="flag" class="flag"><use href="#E241-qx6bes5" transform="translate(9827, 1350) scale(0.72, 0.72)"/></g></g></g><g data-id="afrbt40" data-class="note" class="note"><g data-class="notehead" class="notehead"><use href="#E0A4-qx6bes5" transform="translate(10277, 810) scale(0.72, 0.72)"/></g><g data-id="d1gjk05b" data-class="stem" class="stem"><path d="M10286 838 L10286 1440" stroke-width="18"/><g data-id="e1kbtgd8" data-class="flag" class="flag"><use href="#E241-qx6bes5" transform="translate(10277, 1440) scale(0.72, 0.72)"/></g></g><g data-id="g1gjk1ol" data-class="accid" class="accid"/></g></g></g><g data-id="jqa58p2" data-class="barLine" class="barLine"><path d="M10727 540 L10727 1260" stroke-width="27"/></g></g><g data-id="o15yaa26" data-class="systemMilestoneEnd" class="systemMilestoneEnd lf8aukk"/></g><g data-id="p4ai27h" data-class="pageMilestoneEnd" class="pageMilestoneEnd j7qjtjv"/><g data-id="q18sl7od" data-class="pageMilestoneEnd" class="pageMilestoneEnd ijeb0qo"/></g></svg></svg>