<svg viewBox="0 0 560 84" version="1.1" xmlns="http://www.w3.org/2000/svg" xmlns:xlink="http://www.w3.org/1999/xlink" overflow="visible" id="x1rmcw91"><desc>Engraved by Verovio 5.6.0-85e7620</desc><defs><g id="E050-x1rmcw91"><path transform="scale(1,-1)" d="M441 -245c-23 -4 -48 -6 -76 -6c-59 0 -102 7 -130 20c-88 42 -150 93 -187 154c-26 44 -43 103 -48 176c0 6 -1 13 -1 19c0 54 15 111 45 170c29 57 65 106 110 148s96 85 153 127c-3 16 -8 46 -13 92c-4 43 -5 73 -5 89c0 117 16 172 69 257c34 54 64 82 89 82 c21 0 43 -30 69 -92s39 -115 41 -159v-15c0 -109 -21 -162 -67 -241c-13 -20 -63 -90 -98 -118c-13 -9 -25 -19 -37 -29l31 -181c8 1 18 2 28 2c58 0 102 -12 133 -35c59 -43 92 -104 98 -184c1 -7 1 -15 1 -22c0 -123 -87 -209 -181 -248c8 -57 17 -110 25 -162 c5 -31 6 -58 6 -80c0 -30 -5 -53 -14 -70c-35 -64 -88 -99 -158 -103c-5 0 -11 -1 -16 -1c-37 0 -72 10 -108 27c-50 24 -77 59 -80 105v11c0 29 7 55 20 76c18 28 45 42 79 44h6c49 0 93 -42 97 -87v-9c0 -51 -34 -86 -105 -106c17 -24 51 -36 102 -36c62 0 116 43 140 85 c9 16 13 41 13 74c0 20 -1 42 -5 67c-8 53 -18 106 -26 159zM461 939c-95 0 -135 -175 -135 -286c0 -24 2 -48 5 -71c50 39 92 82 127 128c40 53 60 100 60 140v8c-4 53 -22 81 -55 81h-2zM406 119l54 -326c73 25 110 78 110 161c0 7 0 15 -1 23c-7 95 -57 142 -151 142h-12 zM382 117c-72 -2 -128 -47 -128 -120v-7c2 -46 43 -99 75 -115c-3 -2 -7 -5 -10 -10c-70 33 -116 88 -123 172v11c0 68 44 126 88 159c23 17 49 29 78 36l-29 170c-21 -13 -52 -37 -92 -73c-50 -44 -86 -84 -109 -119c-45 -69 -67 -130 -67 -182v-13c5 -68 35 -127 93 -176 s125 -73 203 -73c25 0 50 3 75 9c-19 111 -36 221 -54 331z"/></g><g id="E260-x1rmcw91"><path transform="scale(1,-1)" d="M20 110c32 16 54 27 93 27c26 0 35 -3 54 -13c13 -7 24 -20 27 -38l4 -25c0 -28 -16 -57 -45 -89c-23 -25 -39 -44 -65 -68l-88 -79v644h20v-359zM90 106c-32 0 -48 -10 -70 -29v-194c31 31 54 59 71 84c21 32 32 59 32 84c0 9 1 16 1 20c0 14 -3 21 -11 30l-8 3z"/></g><g id="E08A-x1rmcw91"><path transform="scale(1,-1)" d="M340 179c-9 24 -56 41 -89 41c-46 0 -81 -28 -100 -58c-17 -28 -25 -78 -25 -150c0 -65 2 -111 8 -135c8 -31 18 -49 40 -67c20 -17 43 -25 70 -25c54 0 92 36 115 75c14 25 23 54 28 88h27c0 -63 -24 -105 -58 -141c-35 -38 -82 -56 -140 -56c-45 0 -83 13 -115 39 c-57 45 -101 130 -101 226c0 59 33 127 68 163c36 37 97 72 160 72c36 0 93 -21 121 -40c11 -8 23 -17 33 -30c19 -23 27 -48 27 -76c0 -51 -35 -88 -86 -88c-43 0 -76 27 -76 68c0 26 7 35 21 51c15 17 32 27 58 32c7 2 14 7 14 11z"/></g><g id="E0A4-x1rmcw91"><path transform="scale(1,-1)" d="M0 -39c0 68 73 172 200 172c66 0 114 -37 114 -95c0 -84 -106 -171 -218 -171c-64 0 -96 30 -96 94z"/></g><g id="E240-x1rmcw91"><path transform="scale(1,-1)" d="M179 -646c15 29 29 55 46 102c18 49 30 108 30 138c0 105 -80 173 -168 200c-18 5 -47 9 -87 16v190h22c8 0 33 -61 71 -95c4 -3 -2 3 61 -56c62 -58 122 -137 122 -241c0 -38 -13 -106 -35 -163c-20 -51 -43 -99 -66 -132c-6 -5 -10 -7 -13 -7s-5 2 -5 5l4 10 c1 3 14 25 18 33z"/></g><g id="E241-x1rmcw91"><path transform="scale(1,-1)" d="M179 646c-4 8 -17 30 -18 33l-4 10c0 3 2 5 5 5s7 -2 13 -7c23 -33 46 -81 66 -132c22 -57 35 -125 35 -163c0 -104 -60 -183 -122 -241c-63 -59 -57 -53 -61 -56c-38 -34 -63 -95 -71 -95h-22v190c40 7 69 11 87 16c88 27 168 95 168 200c0 30 -12 89 -30 138 c-17 47 -31 73 -46 102z"/></g><g id="E243-x1rmcw91"><path transform="scale(1,-1)" d="M216 730c-5 8 -10 13 -11 16l-4 10c0 3 2 5 5 5s7 -2 13 -7c35 -42 57 -101 57 -172c0 -34 -6 -65 -17 -94c10 -31 17 -64 17 -96c0 -104 -60 -183 -122 -241c-63 -59 -57 -53 -61 -56c-38 -34 -63 -95 -71 -95h-22v190v190c40 7 69 11 87 16c116 36 175 111 175 197 c0 44 -15 91 -46 137zM248 463c-23 -48 -58 -89 -94 -122c-63 -59 -57 -53 -61 -56c-30 -27 -44 -71 -53 -88c20 3 36 6 47 9c88 27 168 95 168 200c0 19 -3 39 -7 57z"/></g></defs><style type="text/css">#x1rmcw91 g.page-margin {font-family:Times,serif;}#x1rmcw91 g.ending, #x1rmcw91 g.fing, #x1rmcw91 g.reh, #x1rmcw91 g.tempo {font-weight:bold;}#x1rmcw91 g.dir, #x1rmcw91 g.dynam, #x1rmcw91 g.mNum {font-style:italic;}#x1rmcw91 g.label {font-weight:normal;}#x1rmcw91 path {stroke:currentColor}</style><svg class="definition-scale" color="black" viewBox="0 0 14000 2100"><g class="page-margin" transform="translate(0, 150)"><g data-id="xe9ycvp" data-class="mdiv" class="mdiv pageMilestone"/><g data-id="yq8g703" data-class="score" class="score pageMilestone"/><g data-id="o1hikufu" data-class="system" class="system"><g data-id="a1q41s32" data-class="section" class="section systemMilestone"/><g data-id="y1i9gtzx" data-class="measure" class="measure"><g data-id="m1jkg7zs" data-class="staff" class="staff"><path d="M0 540 L4068 540" stroke-width="13"/><path d="M0 720 L4068 720" stroke-width="13"/><path d="M0 900 L4068 900" stroke-width="13"/><path d="M0 1080 L4068 1080" stroke-width="13"/><path d="M0 1260 L4068 1260" stroke-width="13"/><g data-id="u1h3y7gg" data-class="clef" class="clef"><use href="#E050-x1rmcw91" transform="translate(90, 1080) scale(0.72, 0.72)"/></g><g data-id="v1vunt20" data-class="keySig" class="keySig"><g data-id="w1lj94wu" data-class="keyAccid" class="keyAccid"><use href="#E260-x1rmcw91" transform="translate(735, 900) scale(0.72, 0.72)"/></g><g data-id="x1x3lrnh" data-class="keyAccid" class="keyAccid"><use href="#E260-x1rmcw91" transform="translate(915, 630) scale(0.72, 0.72)"/></g></g><g data-id="y1jtowte" data-class="meterSig" class="meterSig"><use href="#E08A-x1rmcw91" transform="translate(1237, 900) scale(0.72, 0.72)"/></g><g data-id="n1kpj4wt" data-class="layer" class="layer"><g data-id="zbixx5f" data-class="note" class="note"><g data-class="notehead" class="notehead"><use href="#E0A4-x1rmcw91" transform="translate(1805, 1170) scale(0.72, 0.72)"/></g><g data-id="e5xbord" data-class="stem" class="stem"><path d="M2022 1142 L2022 540" stroke-width="18"/><g data-id="fjmgflk" data-class="flag" class="flag"><use href="#E240-x1rmcw91" transform="translate(2013, 540) scale(0.72, 0.72)"/></g></g></g><g data-id="n13nu7ic" data-class="beam" class="beam"><polygon stroke-opacity="1" fill-opacity="1" points="2463,360 2931,315 2931,405 2463,450"/><g data-id="a1mzud49" data-class="note" class="note"><g data-class="notehead" class="notehead"><use href="#E0A4-x1rmcw91" transform="translate(2255, 1170) scale(0.72, 0.72)"/></g><g data-id="g1h59ve5" data-class="stem" class="stem"><path d="M2472 1142 L2472 378" stroke-width="18"/></g></g><g data-id="b14g10gh" data-class="note" class="note"><g data-class="notehead" class="notehead"><use href="#E0A4-x1rmcw91" transform="translate(2705, 900) scale(0.72, 0.72)"/></g><g data-id="hu9chfk" data-class="stem" class="stem"><path d="M2922 872 L2922 333" stroke-width="18"/></g><g data-id="pce1wkt" data-class="accid" class="accid"/></g></g><g data-id="otdpvdy" data-class="beam" class="beam"><polygon stroke-opacity="1" fill-opacity="1" points="3155,1485 3623,1440 3623,1350 3155,1395"/><g data-id="cbgd9ju" data-class="note" class="note"><g data-class="notehead" class="notehead"><use href="#E0A4-x1rmcw91" transform="translate(3155, 900) scale(0.72, 0.72)"/></g><g data-id="i1axdyf1" data-class="stem" class="stem"><path d="M3164 928 L3164 1467" stroke-width="18"/></g><g data-id="q1wk8f53" data-class="accid" class="accid"/></g><g data-id="def6oi8" data-class="note" class="note"><g data-class="notehead" class="notehead"><use href="#E0A4-x1rmcw91" transform="translate(3605, 720) scale(0.72, 0.72)"/></g><g data-id="j1oaciis" data-class="stem" class="stem"><path d="M3614 748 L3614 1422" stroke-width="18"/></g></g></g></g></g><g data-id="gps2mxo" data-class="barLine" class="barLine"><path d="M4055 540 L4055 1260" stroke-width="27"/></g></g><g data-id="hd4i84z" data-class="measure" class="measure"><g data-id="o1lhrbth" data-class="staff" class="staff"><path d="M4068 540 L7191 540" stroke-width="13"/><path d="M4068 720 L7191 720" stroke-width="13"/><path d="M4068 900 L7191 900" stroke-width="13"/><path d="M4068 1080 L7191 1080" stroke-width="13"/><path d="M4068 1260 L7191 1260" stroke-width="13"/><g data-id="p1ft6o2d" data-class="layer" class="layer"><g data-id="ejwxu3i" data-class="note" class="note"><g data-class="notehead" class="notehead"><use href="#E0A4-x1rmcw91" transform="translate(4248, 720) scale(0.72, 0.72)"/></g><g data-id="l1in6ez0" data-class="dots" class="dots"><ellipse cx="4564" cy="630" rx="36" ry="36" fill-opacity="1" stroke-opacity="1"/></g><g data-id="krnzqea" data-class="stem" class="stem"><path d="M4257 748 L4257 1350" stroke-width="18"/></g></g><g data-id="f10we3sy" data-class="note" class="note"><g data-class="notehead" class="notehead"><use href="#E0A4-x1rmcw91" transform="translate(5128, 720) scale(0.72, 0.72)"/></g><g data-id="m1txl88j" data-class="stem" class="stem"><path d="M5137 748 L5137 1350" stroke-width="18"/><g data-id="nqril15" data-class="flag" class="flag"><use href="#E241-x1rmcw91" transform="translate(5128, 1350) scale(0.72, 0.72)"/></g></g></g><g data-id="g1hfvrj7" data-class="note" class="note"><g data-class="notehead" class="notehead"><use href="#E0A4-x1rmcw91" transform="translate(5578, 630) scale(0.72, 0.72)"/></g><g data-id="o1ns9jqz" data-class="stem" class="stem"><path d="M5587 658 L5587 1260" stroke-width="18"/></g><g data-id="rhk8a99" data-class="accid" class="accid"/></g><g data-id="hr6u5ym" data-class="note" class="note"><g data-class="notehead" class="notehead"><use href="#E0A4-x1rmcw91" transform="translate(6268, 720) scale(0.72, 0.72)"/></g><g data-id="qxdmd15" data-class="dots" class="dots"><ellipse cx="6584" cy="630" rx="36" ry="36" fill-opacity="1" stroke-opacity="1"/></g><g data-id="plbhv6z" data-class="stem" class="stem"><path d="M6277 748 L6277 1350" stroke-width="18"/><g data-id="r22rfq2" data-class="flag" class="flag"><use href="#E241-x1rmcw91" transform="translate(6268, 1350) scale(0.72, 0.72)"/></g></g></g><g data-id="i8t2k6" data-class="note" class="note"><g data-class="notehead" class="notehead"><use href="#E0A4-x1rmcw91" transform="translate(6848, 810) scale(0.72, 0.72)"/></g><g data-id="sv4f3my" data-class="stem" class="stem"><path d="M6857 838 L6857 1440" stroke-width="18"/><g data-id="ta77zog" data-class="flag" class="flag"><use href="#E243-x1rmcw91" transform="translate(6848, 1440) scale(0.72, 0.72)"/></g></g></g></g></g><g data-id="p8hd80v" data-class="barLine" class="barLine"><path d="M7178 540 L7178 1260" stroke-width="27"/></g></g><g data-id="q18t1cty" data-class="measure" class="measure"><g data-id="q18uuxls" data-class="staff" class="staff"><path d="M7191 540 L10193 540" stroke-width="13"/><path d="M7191 720 L10193 720" stroke-width="13"/><path d="M7191 900 L10193 900" stroke-width="13"/><path d="M7191 1080 L10193 1080" stroke-width="13"/><path d="M7191 1260 L10193 1260" stroke-width="13"/><g data-id="r323719" data-class="layer" class="layer"><g data-id="jhen4os" data-class="note" class="note"><g data-class="notehead" class="notehead"><use href="#E0A4-x1rmcw91" transform="translate(7371, 900) scale(0.72, 0.72)"/></g><g data-id="vry93ji" data-class="dots" class="dots"><ellipse cx="7687" cy="810" rx="36" ry="36" fill-opacity="1" stroke-opacity="1"/></g><g data-id="uglrcgj" data-class="stem" class="stem"><path d="M7380 928 L7380 1500" stroke-width="18"/></g><g data-id="sk5ghu8" data-class="accid" class="accid"/></g><g data-id="k18s2tks" data-class="note" class="note"><g data-class="notehead" class="notehead"><use href="#E0A4-x1rmcw91" transform="translate(8251, 900) scale(0.72, 0.72)"/></g><g data-id="w1p7ix9a" data-class="stem" class="stem"><path d="M8260 928 L8260 1500" stroke-width="18"/><g data-id="x65xszw" data-class="flag" class="flag"><use href="#E241-x1rmcw91" transform="translate(8251, 1500) scale(0.72, 0.72)"/></g></g><g data-id="t1degvin" data-class="accid" class="accid"/></g><g data-id="llyg5nf" data-class="note" class="note"><g data-class="notehead" class="notehead"><use href="#E0A4-x1rmcw91" transform="translate(8701, 900) scale(0.72, 0.72)"/></g><g data-id="y1nt1pya" data-class="stem" class="stem"><path d="M8710 928 L8710 1500" stroke-width="18"/></g><g data-id="u1t6w6tf" data-class="accid" class="accid"/></g><g data-id="m17h52w1" data-class="note" class="note"><g data-class="notehead" class="notehead"><use href="#E0A4-x1rmcw91" transform="translate(9391, 900) scale(0.72, 0.72)"/></g><g data-id="zir7lsk" data-class="stem" class="stem"><path d="M9400 928 L9400 1500" stroke-width="18"/></g><g data-id="v1wiblox" data-class="accid" class="accid"/></g></g></g><g data-id="yonpygo" data-class="barLine" class="barLine"><path d="M10081 540 L10081 1260" stroke-width="27"/><path d="M10180 540 L10180 1260" stroke-width="27"/></g></g><g data-id="z1hzb0qb" data-class="systemMilestoneEnd" class="systemMilestoneEnd a1q41s32"/></g><g data-id="anz3q23" data-class="pageMilestoneEnd" class="pageMilestoneEnd yq8g703"/><g data-id="bdsc550" data-class="pageMilestoneEnd" class="pageMilestoneEnd xe9ycvp"/></g></svg></svg>