<svg viewBox="0 0 560 84" version="1.1" xmlns="http://www.w3.org/2000/svg" xmlns:xlink="http://www.w3.org/1999/xlink" overflow="visible" id="c1wj0h7d"><desc>Engraved by Verovio 5.6.0-85e7620</desc><defs><g id="E050-c1wj0h7d"><path transform="scale(1,-1)" d="M441 -245c-23 -4 -48 -6 -76 -6c-59 0 -102 7 -130 20c-88 42 -150 93 -187 154c-26 44 -43 103 -48 176c0 6 -1 13 -1 19c0 54 15 111 45 170c29 57 65 106 110 148s96 85 153 127c-3 16 -8 46 -13 92c-4 43 -5 73 -5 89c0 117 16 172 69 257c34 54 64 82 89 82 c21 0 43 -30 69 -92s39 -115 41 -159v-15c0 -109 -21 -162 -67 -241c-13 -20 -63 -90 -98 -118c-13 -9 -25 -19 -37 -29l31 -181c8 1 18 2 28 2c58 0 102 -12 133 -35c59 -43 92 -104 98 -184c1 -7 1 -15 1 -22c0 -123 -87 -209 -181 -248c8 -57 17 -110 25 -162 c5 -31 6 -58 6 -80c0 -30 -5 -53 -14 -70c-35 -64 -88 -99 -158 -103c-5 0 -11 -1 -16 -1c-37 0 -72 10 -108 27c-50 24 -77 59 -80 105v11c0 29 7 55 20 76c18 28 45 42 79 44h6c49 0 93 -42 97 -87v-9c0 -51 -34 -86 -105 -106c17 -24 51 -36 102 -36c62 0 116 43 140 85 c9 16 13 41 13 74c0 20 -1 42 -5 67c-8 53 -18 106 -26 159zM461 939c-95 0 -135 -175 -135 -286c0 -24 2 -48 5 -71c50 39 92 82 127 128c40 53 60 100 60 140v8c-4 53 -22 81 -55 81h-2zM406 119l54 -326c73 25 110 78 110 161c0 7 0 15 -1 23c-7 95 -57 142 -151 142h-12 zM382 117c-72 -2 -128 -47 -128 -120v-7c2 -46 43 -99 75 -115c-3 -2 -7 -5 -10 -10c-70 33 -116 88 -123 172v11c0 68 44 126 88 159c23 17 49 29 78 36l-29 170c-21 -13 -52 -37 -92 -73c-50 -44 -86 -84 -109 -119c-45 -69 -67 -130 -67 -182v-13c5 -68 35 -127 93 -176 s125 -73 203 -73c25 0 50 3 75 9c-19 111 -36 221 -54 331z"/></g><g id="E262-c1wj0h7d"><path transform="scale(1,-1)" d="M136 186v169h17v-164l44 14v-91l-44 -14v-165l44 12v-91l-44 -13v-155h-17v150l-76 -22v-155h-17v149l-43 -13v90l43 14v167l-43 -14v92l43 13v169h17v-163zM60 73v-167l76 22v168z"/></g><g id="E083-c1wj0h7d"><path transform="scale(1,-1)" d="M208 250c97 0 177 -52 177 -116c0 -69 -40 -111 -118 -125c56 -5 125 -44 125 -116c0 -31 -10 -57 -31 -78c-19 -21 -45 -38 -78 -49l-50 -11c-15 -3 -36 -7 -55 -7c-50 0 -86 16 -113 38c-16 10 -23 18 -34 34c-7 13 -11 25 -11 38c0 43 27 83 68 83l3 -2 c61 0 75 -42 75 -70c0 -19 -24 -42 -26 -57c7 -17 20 -25 37 -25c44 0 94 29 94 78c0 75 -34 125 -138 125v36c84 0 131 22 131 98c0 54 -37 88 -87 88c-26 0 -43 -7 -51 -22c15 -22 44 -16 44 -70c0 -37 -37 -62 -71 -62c-22 0 -69 15 -69 76c0 79 101 116 178 116z"/></g><g id="E088-c1wj0h7d"><path transform="scale(1,-1)" d="M195 -214c76 0 88 58 90 68c0 34 -35 60 -57 73l-52 29c-21 10 -32 17 -34 20c-39 -33 -58 -54 -62 -92c5 -23 23 -98 115 -98zM301 135c0 61 -72 76 -113 76c-40 0 -77 -17 -77 -51c3 -21 15 -38 26 -50c17 -15 33 -26 48 -34l65 -28c34 27 51 56 51 87zM176 -250 c-57 0 -166 26 -166 132c0 47 30 86 89 116c-33 15 -79 60 -79 119c0 79 85 132 178 132h18c5 0 21 1 28 -1c25 0 126 -30 126 -110c0 -37 -23 -76 -69 -116c43 -25 83 -71 83 -119c0 -101 -118 -153 -208 -153z"/></g><g id="E0A4-c1wj0h7d"><path transform="scale(1,-1)" d="M0 -39c0 68 73 172 200 172c66 0 114 -37 114 -95c0 -84 -106 -171 -218 -171c-64 0 -96 30 -96 94z"/></g><g id="E243-c1wj0h7d"><path transform="scale(1,-1)" d="M216 730c-5 8 -10 13 -11 16l-4 10c0 3 2 5 5 5s7 -2 13 -7c35 -42 57 -101 57 -172c0 -34 -6 -65 -17 -94c10 -31 17 -64 17 -96c0 -104 -60 -183 -122 -241c-63 -59 -57 -53 -61 -56c-38 -34 -63 -95 -71 -95h-22v190v190c40 7 69 11 87 16c116 36 175 111 175 197 c0 44 -15 91 -46 137zM248 463c-23 -48 -58 -89 -94 -122c-63 -59 -57 -53 -61 -56c-30 -27 -44 -71 -53 -88c20 3 36 6 47 9c88 27 168 95 168 200c0 19 -3 39 -7 57z"/></g><g id="E241-c1wj0h7d"><path transform="scale(1,-1)" d="M179 646c-4 8 -17 30 -18 33l-4 10c0 3 2 5 5 5s7 -2 13 -7c23 -33 46 -81 66 -132c22 -57 35 -125 35 -163c0 -104 -60 -183 -122 -241c-63 -59 -57 -53 -61 -56c-38 -34 -63 -95 -71 -95h-22v190c40 7 69 11 87 16c88 27 168 95 168 200c0 30 -12 89 -30 138 c-17 47 -31 73 -46 102z"/></g><g id="E242-c1wj0h7d"><path transform="scale(1,-1)" d="M206 -748c32 48 49 100 49 149c0 89 -55 168 -168 203c-18 5 -47 9 -87 16v190v190h22c8 0 33 -61 71 -95c4 -3 -2 3 61 -56c62 -58 122 -137 122 -241c0 -32 -7 -65 -17 -96c11 -29 17 -60 17 -94c0 -71 -32 -148 -67 -190c-6 -5 -10 -7 -13 -7s-5 2 -5 5l4 10 c1 3 6 8 11 16zM248 -463c4 18 7 38 7 57c0 105 -80 173 -168 200c-11 3 -27 6 -47 9c9 -17 23 -61 53 -88c4 -3 -2 3 61 -56c36 -33 71 -74 94 -122z"/></g><g id="E240-c1wj0h7d"><path transform="scale(1,-1)" d="M179 -646c15 29 29 55 46 102c18 49 30 108 30 138c0 105 -80 173 -168 200c-18 5 -47 9 -87 16v190h22c8 0 33 -61 71 -95c4 -3 -2 3 61 -56c62 -58 122 -137 122 -241c0 -38 -13 -106 -35 -163c-20 -51 -43 -99 -66 -132c-6 -5 -10 -7 -13 -7s-5 2 -5 5l4 10 c1 3 14 25 18 33z"/></g></defs><style type="text/css">#c1wj0h7d g.page-margin {font-family:Times,serif;}#c1wj0h7d g.ending, #c1wj0h7d g.fing, #c1wj0h7d g.reh, #c1wj0h7d g.tempo {font-weight:bold;}#c1wj0h7d g.dir, #c1wj0h7d g.dynam, #c1wj0h7d g.mNum {font-style:italic;}#c1wj0h7d g.label {font-weight:normal;}#c1wj0h7d path {stroke:currentColor}</style><svg class="definition-scale" color="black" viewBox="0 0 14000 2100"><g class="page-margin" transform="translate(0, 150)"><g data-id="pjedwa3" data-class="mdiv" class="mdiv pageMilestone"/><g data-id="q43ymk6" data-class="score" class="score pageMilestone"/><g data-id="l1g6zxnj" data-class="system" class="system"><g data-id="sz7m7p" data-class="section" class="section systemMilestone"/><g data-id="dg7z6np" data-class="measure" class="measure"><g data-id="e1qtuwmm" data-class="staff" class="staff"><path d="M0 540 L2339 540" stroke-width="13"/><path d="M0 720 L2339 720" stroke-width="13"/><path d="M0 900 L2339 900" stroke-width="13"/><path d="M0 1080 L2339 1080" stroke-width="13"/><path d="M0 1260 L2339 1260" stroke-width="13"/><g data-id="s1vtaqjp" data-class="clef" class="clef"><use href="#E050-c1wj0h7d" transform="translate(90, 1080) scale(0.72, 0.72)"/></g><g data-id="t1tjywz" data-class="keySig" class="keySig"><g data-id="uprf46n" data-class="keyAccid" class="keyAccid"><use href="#E262-c1wj0h7d" transform="translate(735, 540) scale(0.72, 0.72)"/></g></g><g data-id="v182redy" data-class="meterSig" class="meterSig"><use href="#E083-c1wj0h7d" transform="translate(1046, 720) scale(0.72, 0.72)"/><use href="#E088-c1wj0h7d" transform="translate(1049, 1080) scale(0.72, 0.72)"/></g><g data-id="f1conait" data-class="layer" class="layer"><g data-id="o1lltnq7" data-class="note" class="note"><g data-class="notehead" class="notehead"><use href="#E0A4-c1wj0h7d" transform="translate(1616, 900) scale(0.72, 0.72)"/></g><g data-id="dgjzgr0" data-class="stem" class="stem"><path d="M1625 928 L1625 1500" stroke-width="18"/><g data-id="exd53b2" data-class="flag" class="flag"><use href="#E243-c1wj0h7d" transform="translate(1616, 1500) scale(0.72, 0.72)"/></g></g></g><g data-id="p114n5d7" data-class="note" class="note"><g data-class="notehead" class="notehead"><use href="#E0A4-c1wj0h7d" transform="translate(1963, 900) scale(0.72, 0.72)"/></g><g data-id="fbbkumk" data-class="stem" class="stem"><path d="M1972 928 L1972 1500" stroke-width="18"/><g data-id="g1d75ur2" data-class="flag" class="flag"><use href="#E243-c1wj0h7d" transform="translate(1963, 1500) scale(0.72, 0.72)"/></g></g></g></g></g><g data-id="l1pu4rvp" data-class="barLine" class="barLine"><path d="M2326 540 L2326 1260" stroke-width="27"/></g></g><g data-id="m1e8y3x2" data-class="measure" class="measure"><g data-id="ggs8nne" data-class="staff" class="staff"><path d="M2339 540 L4786 540" stroke-width="13"/><path d="M2339 720 L4786 720" stroke-width="13"/><path d="M2339 900 L4786 900" stroke-width="13"/><path d="M2339 1080 L4786 1080" stroke-width="13"/><path d="M2339 1260 L4786 1260" stroke-width="13"/><g data-id="hef6jug" data-class="layer" class="layer"><g data-id="qe4rt0j" data-class="note" class="note"><g data-class="notehead" class="notehead"><use href="#E0A4-c1wj0h7d" transform="translate(2538, 900) scale(0.72, 0.72)"/></g><g data-id="ixzn7qd" data-class="dots" class="dots"><ellipse cx="2854" cy="810" rx="36" ry="36" fill-opacity="1" stroke-opacity="1"/></g><g data-id="hnuc86k" data-class="stem" class="stem"><path d="M2547 928 L2547 1500" stroke-width="18"/><g data-id="j1bk8r5u" data-class="flag" class="flag"><use href="#E241-c1wj0h7d" transform="translate(2538, 1500) scale(0.72, 0.72)"/></g></g></g><g data-id="reyx5od" data-class="note" class="note"><g data-class="notehead" class="notehead"><use href="#E0A4-c1wj0h7d" transform="translate(3176, 990) scale(0.72, 0.72)"/></g><g data-id="krff200" data-class="stem" class="stem"><path d="M3393 962 L3393 360" stroke-width="18"/><g data-id="l1k4hd1t" data-class="flag" class="flag"><use href="#E242-c1wj0h7d" transform="translate(3384, 360) scale(0.72, 0.72)"/></g></g></g><g data-id="s1ihqdl8" data-class="note" class="note"><g data-class="notehead" class="notehead"><use href="#E0A4-c1wj0h7d" transform="translate(3694, 990) scale(0.72, 0.72)"/></g><g data-id="m1l4fos0" data-class="stem" class="stem"><path d="M3911 962 L3911 360" stroke-width="18"/><g data-id="n1bvoeuh" data-class="flag" class="flag"><use href="#E242-c1wj0h7d" transform="translate(3902, 360) scale(0.72, 0.72)"/></g></g></g><g data-id="tuik9qb" data-class="note" class="note"><g data-class="notehead" class="notehead"><use href="#E0A4-c1wj0h7d" transform="translate(4212, 990) scale(0.72, 0.72)"/></g><g data-id="o1q9snwn" data-class="stem" class="stem"><path d="M4429 962 L4429 360" stroke-width="18"/><g data-id="p1uwwfxi" data-class="flag" class="flag"><use href="#E242-c1wj0h7d" transform="translate(4420, 360) scale(0.72, 0.72)"/></g></g></g></g></g><g data-id="udju0i0" data-class="barLine" class="barLine"><path d="M4773 540 L4773 1260" stroke-width="27"/></g></g><g data-id="vlukw4n" data-class="measure" class="measure"><g data-id="i1e680mu" data-class="staff" class="staff"><path d="M4786 540 L6672 540" stroke-width="13"/><path d="M4786 720 L6672 720" stroke-width="13"/><path d="M4786 900 L6672 900" stroke-width="13"/><path d="M4786 1080 L6672 1080" stroke-width="13"/><path d="M4786 1260 L6672 1260" stroke-width="13"/><g data-id="jxy4cdf" data-class="layer" class="layer"><g data-id="ulsblvn" data-class="note" class="note"><g data-class="notehead" class="notehead"><use href="#E0A4-c1wj0h7d" transform="translate(5189, 720) scale(0.72, 0.72)"/></g><g data-id="q1tmjtt" data-class="stem" class="stem"><path d="M5198 748 L5198 1350" stroke-width="18"/></g><g data-id="krw5xf3" data-class="accid" class="accid"><use href="#E262-c1wj0h7d" transform="translate(5003, 720) scale(0.72, 0.72)"/></g></g><g data-id="v2shpgq" data-class="note" class="note"><g data-class="notehead" class="notehead"><use href="#E0A4-c1wj0h7d" transform="translate(5948, 720) scale(0.72, 0.72)"/></g><g data-id="rrw496v" data-class="stem" class="stem"><path d="M5957 748 L5957 1350" stroke-width="18"/><g data-id="svaz2vu" data-class="flag" class="flag"><use href="#E243-c1wj0h7d" transform="translate(5948, 1350) scale(0.72, 0.72)"/></g></g><g data-id="l1wibvvy" data-class="accid" class="accid"/></g><g data-id="w7xdgvg" data-class="note" class="note"><g data-class="notehead" class="notehead"><use href="#E0A4-c1wj0h7d" transform="translate(6296, 720) scale(0.72, 0.72)"/></g><g data-id="tomwi82" data-class="stem" class="stem"><path d="M6305 748 L6305 1350" stroke-width="18"/><g data-id="u1fkh0wk" data-class="flag" class="flag"><use href="#E243-c1wj0h7d" transform="translate(6296, 1350) scale(0.72, 0.72)"/></g></g><g data-id="mz0f0lo" data-class="accid" class="accid"/></g></g></g><g data-id="dq1hm8z" data-class="barLine" class="barLine"><path d="M6659 540 L6659 1260" stroke-width="27"/></g></g><g data-id="e8as6nr" data-class="measure" class="measure"><g data-id="k1486h4n" data-class="staff" class="staff"><path d="M6672 540 L8778 540" stroke-width="13"/><path d="M6672 720 L8778 720" stroke-width="13"/><path d="M6672 900 L8778 900" stroke-width="13"/><path d="M6672 1080 L8778 1080" stroke-width="13"/><path d="M6672 1260 L8778 1260" stroke-width="13"/><g data-id="l18mcia" data-class="layer" class="layer"><g data-id="x1j5w8pc" data-class="note" class="note"><g data-class="notehead" class="notehead"><use href="#E0A4-c1wj0h7d" transform="translate(6871, 630) scale(0.72, 0.72)"/></g><g data-id="wsmjmi3" data-class="dots" class="dots"><ellipse cx="7187" cy="630" rx="36" ry="36" fill-opacity="1" stroke-opacity="1"/></g><g data-id="v1m4ejy5" data-class="stem" class="stem"><path d="M6880 658 L6880 1260" stroke-width="18"/><g data-id="x1i2k8o4" data-class="flag" class="flag"><use href="#E241-c1wj0h7d" transform="translate(6871, 1260) scale(0.72, 0.72)"/></g></g></g><g data-id="yvcybr6" data-class="note" class="note"><g data-class="notehead" class="notehead"><use href="#E0A4-c1wj0h7d" transform="translate(7509, 900) scale(0.72, 0.72)"/></g><g data-id="y16zzuoi" data-class="stem" class="stem"><path d="M7518 928 L7518 1500" stroke-width="18"/><g data-id="z1xwr8mr" data-class="flag" class="flag"><use href="#E243-c1wj0h7d" transform="translate(7509, 1500) scale(0.72, 0.72)"/></g></g></g><g data-id="z1cziy2q" data-class="note" class="note"><g data-class="notehead" class="notehead"><use href="#E0A4-c1wj0h7d" transform="translate(7856, 900) scale(0.72, 0.72)"/></g><g data-id="a1g5x525" data-class="stem" class="stem"><path d="M7865 928 L7865 1500" stroke-width="18"/><g data-id="be7379f" data-class="flag" class="flag"><use href="#E243-c1wj0h7d" transform="translate(7856, 1500) scale(0.72, 0.72)"/></g></g></g><g data-id="a9c7h7k" data-class="note" class="note"><g data-class="notehead" class="notehead"><use href="#E0A4-c1wj0h7d" transform="translate(8204, 990) scale(0.72, 0.72)"/></g><g data-id="c156d5t5" data-class="stem" class="stem"><path d="M8421 962 L8421 360" stroke-width="18"/><g data-id="d1ddqc6t" data-class="flag" class="flag"><use href="#E242-c1wj0h7d" transform="translate(8412, 360) scale(0.72, 0.72)"/></g></g></g></g></g><g data-id="mkopl5v" data-class="barLine" class="barLine"><path d="M8765 540 L8765 1260" stroke-width="27"/></g></g><g data-id="n1hev5lk" data-class="measure" class="measure"><g data-id="m1scs9jh" data-class="staff" class="staff"><path d="M8778 540 L10741 540" stroke-width="13"/><path d="M8778 720 L10741 720" stroke-width="13"/><path d="M8778 900 L10741 900" stroke-width="13"/><path d="M8778 1080 L10741 1080" stroke-width="13"/><path d="M8778 1260 L10741 1260" stroke-width="13"/><g data-id="n1665cl4" data-class="layer" class="layer"><g data-id="bia3cz0" data-class="note" class="note"><g data-class="notehead" class="notehead"><use href="#E0A4-c1wj0h7d" transform="translate(8977, 1080) scale(0.72, 0.72)"/></g><g data-id="e1pcgo6b" data-class="stem" class="stem"><path d="M9194 1052 L9194 450" stroke-width="18"/><g data-id="f1mqaf37" data-class="flag" class="flag"><use href="#E240-c1wj0h7d" transform="translate(9185, 450) scale(0.72, 0.72)"/></g></g></g><g data-id="ca9gfb1" data-class="note" class="note"><g data-class="notehead" class="notehead"><use href="#E0A4-c1wj0h7d" transform="translate(9472, 1170) scale(0.72, 0.72)"/></g><g data-id="g1e22amu" data-class="stem" class="stem"><path d="M9689 1142 L9689 540" stroke-width="18"/><g data-id="h1oah0n9" data-class="flag" class="flag"><use href="#E240-c1wj0h7d" transform="translate(9680, 540) scale(0.72, 0.72)"/></g></g><g data-id="n140lx6v" data-class="accid" class="accid"/></g><g data-id="d1cicx7v" data-class="note" class="note"><g data-class="notehead" class="notehead"><use href="#E0A4-c1wj0h7d" transform="translate(10017, 900) scale(0.72, 0.72)"/></g><g data-id="i1uwi01w" data-class="stem" class="stem"><path d="M10026 928 L10026 1500" stroke-width="18"/><g data-id="j6v1ef5" data-class="flag" class="flag"><use href="#E243-c1wj0h7d" transform="translate(10017, 1500) scale(0.72, 0.72)"/></g></g></g><g data-id="e3tytjr" data-class="note" class="note"><g data-class="notehead" class="notehead"><use href="#E0A4-c1wj0h7d" transform="translate(10365, 900) scale(0.72, 0.72)"/></g><g data-id="k1kytwz1" data-class="stem" class="stem"><path d="M10374 928 L10374 1500" stroke-width="18"/><g data-id="l88gao8" data-class="flag" class="flag"><use href="#E243-c1wj0h7d" transform="translate(10365, 1500) scale(0.72, 0.72)"/></g></g></g></g></g><g data-id="vd8c4hx" data-class="barLine" class="barLine"><path d="M10728 540 L10728 1260" stroke-width="27"/></g></g><g data-id="w9h8l1w" data-class="measure" class="measure"><g data-id="o109uabs" data-class="staff" class="staff"><path d="M10741 540 L13045 540" stroke-width="13"/><path d="M10741 720 L13045 720" stroke-width="13"/><path d="M10741 900 L13045 900" stroke-width="13"/><path d="M10741 1080 L13045 1080" stroke-width="13"/><path d="M10741 1260 L13045 1260" stroke-width="13"/><g data-id="p1akvwlf" data-class="layer" class="layer"><g data-id="f1taiu9k" data-class="note" class="note"><g data-class="notehead" class="notehead"><use href="#E0A4-c1wj0h7d" transform="translate(10940, 900) scale(0.72, 0.72)"/></g><g data-id="n1ea64zq" data-class="dots" class="dots"><ellipse cx="11256" cy="810" rx="36" ry="36" fill-opacity="1" stroke-opacity="1"/></g><g data-id="m80ks0h" data-class="stem" class="stem"><path d="M10949 928 L10949 1500" stroke-width="18"/><g data-id="o1l27wwe" data-class="flag" class="flag"><use href="#E241-c1wj0h7d" transform="translate(10940, 1500) scale(0.72, 0.72)"/></g></g></g><g data-id="gua2ge" data-class="note" class="note"><g data-class="notehead" class="notehead"><use href="#E0A4-c1wj0h7d" transform="translate(11578, 990) scale(0.72, 0.72)"/></g><g data-id="p18mrwm7" data-class="stem" class="stem"><path d="M11795 962 L11795 360" stroke-width="18"/><g data-id="qa8bwi1" data-class="flag" class="flag"><use href="#E242-c1wj0h7d" transform="translate(11786, 360) scale(0.72, 0.72)"/></g></g></g><g data-id="h108cbes" data-class="note" class="note"><g data-class="notehead" class="notehead"><use href="#E0A4-c1wj0h7d" transform="translate(12123, 720) scale(0.72, 0.72)"/></g><g data-id="r1mqpjpq" data-class="stem" class="stem"><path d="M12132 748 L12132 1350" stroke-width="18"/><g data-id="s17ci4ce" data-class="flag" class="flag"><use href="#E243-c1wj0h7d" transform="translate(12123, 1350) scale(0.72, 0.72)"/></g></g></g><g data-id="ict7drv" data-class="note" class="note"><g data-class="notehead" class="notehead"><use href="#E0A4-c1wj0h7d" transform="translate(12471, 990) scale(0.72, 0.72)"/></g><g data-id="tckzvvn" data-class="stem" class="stem"><path d="M12688 962 L12688 360" stroke-width="18"/><g data-id="uvs1w6d" data-class="flag" class="flag"><use href="#E242-c1wj0h7d" transform="translate(12679, 360) scale(0.72, 0.72)"/></g></g></g></g></g><g data-id="egr6syv" data-class="barLine" class="barLine"><path d="M13032 540 L13032 1260" stroke-width="27"/></g></g><g data-id="f1flds61" data-class="measure" class="measure"><g data-id="q87xfng" data-class="staff" class="staff"><path d="M13045 540 L14003 540" stroke-width="13"/><path d="M13045 720 L14003 720" stroke-width="13"/><path d="M13045 900 L14003 900" stroke-width="13"/><path d="M13045 1080 L14003 1080" stroke-width="13"/><path d="M13045 1260 L14003 1260" stroke-width="13"/><g data-id="rvw69ox" data-class="layer" class="layer"><g data-id="j69wplu" data-class="note" class="note"><g data-class="notehead" class="notehead"><use href="#E0A4-c1wj0h7d" transform="translate(13244, 900) scale(0.72, 0.72)"/></g><g data-id="v1s8hc7t" data-class="stem" class="stem"><path d="M13253 928 L13253 1500" stroke-width="18"/></g></g></g></g><g data-id="ntiv04j" data-class="barLine" class="barLine"/></g><g data-id="zi12hiu" data-class="systemMilestoneEnd" class="systemMilestoneEnd sz7m7p"/></g><g data-id="a1upvnwv" data-class="pageMilestoneEnd" class="pageMilestoneEnd q43ymk6"/><g data-id="bwuwrq7" data-class="pageMilestoneEnd" class="pageMilestoneEnd pjedwa3"/></g></svg></svg>