<svg viewBox="0 0 560 84" version="1.1" xmlns="http://www.w3.org/2000/svg" xmlns:xlink="http://www.w3.org/1999/xlink" overflow="visible" id="s1n1jm7r"><desc>Engraved by Verovio 5.6.0-85e7620</desc><defs><g id="E050-s1n1jm7r"><path transform="scale(1,-1)" d="M441 -245c-23 -4 -48 -6 -76 -6c-59 0 -102 7 -130 20c-88 42 -150 93 -187 154c-26 44 -43 103 -48 176c0 6 -1 13 -1 19c0 54 15 111 45 170c29 57 65 106 110 148s96 85 153 127c-3 16 -8 46 -13 92c-4 43 -5 73 -5 89c0 117 16 172 69 257c34 54 64 82 89 82 c21 0 43 -30 69 -92s39 -115 41 -159v-15c0 -109 -21 -162 -67 -241c-13 -20 -63 -90 -98 -118c-13 -9 -25 -19 -37 -29l31 -181c8 1 18 2 28 2c58 0 102 -12 133 -35c59 -43 92 -104 98 -184c1 -7 1 -15 1 -22c0 -123 -87 -209 -181 -248c8 -57 17 -110 25 -162 c5 -31 6 -58 6 -80c0 -30 -5 -53 -14 -70c-35 -64 -88 -99 -158 -103c-5 0 -11 -1 -16 -1c-37 0 -72 10 -108 27c-50 24 -77 59 -80 105v11c0 29 7 55 20 76c18 28 45 42 79 44h6c49 0 93 -42 97 -87v-9c0 -51 -34 -86 -105 -106c17 -24 51 -36 102 -36c62 0 116 43 140 85 c9 16 13 41 13 74c0 20 -1 42 -5 67c-8 53 -18 106 -26 159zM461 939c-95 0 -135 -175 -135 -286c0 -24 2 -48 5 -71c50 39 92 82 127 128c40 53 60 100 60 140v8c-4 53 -22 81 -55 81h-2zM406 119l54 -326c73 25 110 78 110 161c0 7 0 15 -1 23c-7 95 -57 142 -151 142h-12 zM382 117c-72 -2 -128 -47 -128 -120v-7c2 -46 43 -99 75 -115c-3 -2 -7 -5 -10 -10c-70 33 -116 88 -123 172v11c0 68 44 126 88 159c23 17 49 29 78 36l-29 170c-21 -13 -52 -37 -92 -73c-50 -44 -86 -84 -109 -119c-45 -69 -67 -130 -67 -182v-13c5 -68 35 -127 93 -176 s125 -73 203 -73c25 0 50 3 75 9c-19 111 -36 221 -54 331z"/></g><g id="E262-s1n1jm7r"><path transform="scale(1,-1)" d="M136 186v169h17v-164l44 14v-91l-44 -14v-165l44 12v-91l-44 -13v-155h-17v150l-76 -22v-155h-17v149l-43 -13v90l43 14v167l-43 -14v92l43 13v169h17v-163zM60 73v-167l76 22v168z"/></g><g id="E086-s1n1jm7r"><path transform="scale(1,-1)" d="M284 -91c0 37 -28 92 -67 92c-35 0 -65 -54 -65 -111c0 -52 22 -104 68 -104c47 0 64 68 64 123zM230 214c-36 0 -90 -33 -90 -184l2 -36c40 24 81 36 120 36c80 0 140 -48 140 -121c0 -99 -99 -159 -182 -159c-160 0 -200 173 -200 244c0 21 2 43 7 71l10 35 c26 85 73 115 98 126c41 19 74 24 103 24c93 0 142 -63 142 -105c0 -58 -52 -72 -73 -72c-33 0 -59 24 -65 35c-3 5 -6 14 -7 25l11 30c6 15 9 27 9 35c0 11 -9 16 -25 16z"/></g><g id="E088-s1n1jm7r"><path transform="scale(1,-1)" d="M195 -214c76 0 88 58 90 68c0 34 -35 60 -57 73l-52 29c-21 10 -32 17 -34 20c-39 -33 -58 -54 -62 -92c5 -23 23 -98 115 -98zM301 135c0 61 -72 76 -113 76c-40 0 -77 -17 -77 -51c3 -21 15 -38 26 -50c17 -15 33 -26 48 -34l65 -28c34 27 51 56 51 87zM176 -250 c-57 0 -166 26 -166 132c0 47 30 86 89 116c-33 15 -79 60 -79 119c0 79 85 132 178 132h18c5 0 21 1 28 -1c25 0 126 -30 126 -110c0 -37 -23 -76 -69 -116c43 -25 83 -71 83 -119c0 -101 -118 -153 -208 -153z"/></g><g id="E0A4-s1n1jm7r"><path transform="scale(1,-1)" d="M0 -39c0 68 73 172 200 172c66 0 114 -37 114 -95c0 -84 -106 -171 -218 -171c-64 0 -96 30 -96 94z"/></g><g id="E241-s1n1jm7r"><path transform="scale(1,-1)" d="M179 646c-4 8 -17 30 -18 33l-4 10c0 3 2 5 5 5s7 -2 13 -7c23 -33 46 -81 66 -132c22 -57 35 -125 35 -163c0 -104 -60 -183 -122 -241c-63 -59 -57 -53 -61 -56c-38 -34 -63 -95 -71 -95h-22v190c40 7 69 11 87 16c88 27 168 95 168 200c0 30 -12 89 -30 138 c-17 47 -31 73 -46 102z"/></g><g id="E240-s1n1jm7r"><path transform="scale(1,-1)" d="M179 -646c15 29 29 55 46 102c18 49 30 108 30 138c0 105 -80 173 -168 200c-18 5 -47 9 -87 16v190h22c8 0 33 -61 71 -95c4 -3 -2 3 61 -56c62 -58 122 -137 122 -241c0 -38 -13 -106 -35 -163c-20 -51 -43 -99 -66 -132c-6 -5 -10 -7 -13 -7s-5 2 -5 5l4 10 c1 3 14 25 18 33z"/></g></defs><style type="text/css">#s1n1jm7r g.page-margin {font-family:Times,serif;}#s1n1jm7r g.ending, #s1n1jm7r g.fing, #s1n1jm7r g.reh, #s1n1jm7r g.tempo {font-weight:bold;}#s1n1jm7r g.dir, #s1n1jm7r g.dynam, #s1n1jm7r g.mNum {font-style:italic;}#s1n1jm7r g.label {font-weight:normal;}#s1n1jm7r path {stroke:currentColor}</style><svg class="definition-scale" color="black" viewBox="0 0 14000 2100"><g class="page-margin" transform="translate(0, 150)"><g data-id="h6f7dx0" data-class="mdiv" class="mdiv pageMilestone"/><g data-id="i1kh5wca" data-class="score" class="score pageMilestone"/><g data-id="n12167fd" data-class="system" class="system"><g data-id="k1urjf4c" data-class="section" class="section systemMilestone"/><g data-id="tc4wrop" data-class="measure" class="measure"><g data-id="wlfm0ur" data-class="staff" class="staff"><path d="M0 540 L2172 540" stroke-width="13"/><path d="M0 720 L2172 720" stroke-width="13"/><path d="M0 900 L2172 900" stroke-width="13"/><path d="M0 1080 L2172 1080" stroke-width="13"/><path d="M0 1260 L2172 1260" stroke-width="13"/><g data-id="u71yz7z" data-class="clef" class="clef"><use href="#E050-s1n1jm7r" transform="translate(90, 1080) scale(0.72, 0.72)"/></g><g data-id="v1g2io8j" data-class="keySig" class="keySig"><g data-id="w18jpamo" data-class="keyAccid" class="keyAccid"><use href="#E262-s1n1jm7r" transform="translate(735, 540) scale(0.72, 0.72)"/></g></g><g data-id="xdjlxfg" data-class="meterSig" class="meterSig"><use href="#E086-s1n1jm7r" transform="translate(1042, 720) scale(0.72, 0.72)"/><use href="#E088-s1n1jm7r" transform="translate(1049, 1080) scale(0.72, 0.72)"/></g><g data-id="x16x5tk" data-class="layer" class="layer"><g data-id="m1jmwgv7" data-class="note" class="note"><g data-class="notehead" class="notehead"><use href="#E0A4-s1n1jm7r" transform="translate(1632, 720) scale(0.72, 0.72)"/></g><g data-id="r18fh1w8" data-class="stem" class="stem"><path d="M1641 748 L1641 1350" stroke-width="18"/><g data-id="sj0j8fs" data-class="flag" class="flag"><use href="#E241-s1n1jm7r" transform="translate(1632, 1350) scale(0.72, 0.72)"/></g></g></g></g></g><g data-id="b14d9geo" data-class="barLine" class="barLine"><path d="M2159 540 L2159 1260" stroke-width="27"/></g></g><g data-id="c8xoj2m" data-class="measure" class="measure"><g data-id="ybvh7lc" data-class="staff" class="staff"><path d="M2172 540 L5135 540" stroke-width="13"/><path d="M2172 720 L5135 720" stroke-width="13"/><path d="M2172 900 L5135 900" stroke-width="13"/><path d="M2172 1080 L5135 1080" stroke-width="13"/><path d="M2172 1260 L5135 1260" stroke-width="13"/><g data-id="z1aazkxi" data-class="layer" class="layer"><g data-id="n1jynrdw" data-class="note" class="note"><g data-class="notehead" class="notehead"><use href="#E0A4-s1n1jm7r" transform="translate(2383, 720) scale(0.72, 0.72)"/></g><g data-id="td0md17" data-class="stem" class="stem"><path d="M2392 748 L2392 1350" stroke-width="18"/></g></g><g data-id="o133p20" data-class="note" class="note"><g data-class="notehead" class="notehead"><use href="#E0A4-s1n1jm7r" transform="translate(3191, 900) scale(0.72, 0.72)"/></g><g data-id="uz8qqnx" data-class="stem" class="stem"><path d="M3200 928 L3200 1500" stroke-width="18"/><g data-id="v1v5wj5y" data-class="flag" class="flag"><use href="#E241-s1n1jm7r" transform="translate(3191, 1500) scale(0.72, 0.72)"/></g></g></g><g data-id="p1ifgdgg" data-class="note" class="note"><g data-class="notehead" class="notehead"><use href="#E0A4-s1n1jm7r" transform="translate(3718, 1080) scale(0.72, 0.72)"/></g><g data-id="w4prgji" data-class="stem" class="stem"><path d="M3935 1052 L3935 450" stroke-width="18"/></g></g><g data-id="q1wseiaj" data-class="note" class="note"><g data-class="notehead" class="notehead"><use href="#E0A4-s1n1jm7r" transform="translate(4525, 990) scale(0.72, 0.72)"/></g><g data-id="xb3rjpx" data-class="stem" class="stem"><path d="M4742 962 L4742 360" stroke-width="18"/><g data-id="yd3xiao" data-class="flag" class="flag"><use href="#E240-s1n1jm7r" transform="translate(4733, 360) scale(0.72, 0.72)"/></g></g></g></g></g><g data-id="kcl2g0q" data-class="barLine" class="barLine"><path d="M5122 540 L5122 1260" stroke-width="27"/></g></g><g data-id="lgwacrm" data-class="measure" class="measure"><g data-id="a6oo2re" data-class="staff" class="staff"><path d="M5135 540 L8028 540" stroke-width="13"/><path d="M5135 720 L8028 720" stroke-width="13"/><path d="M5135 900 L8028 900" stroke-width="13"/><path d="M5135 1080 L8028 1080" stroke-width="13"/><path d="M5135 1260 L8028 1260" stroke-width="13"/><g data-id="be9iu3n" data-class="layer" class="layer"><g data-id="rkuidbl" data-class="note" class="note"><g data-class="notehead" class="notehead"><use href="#E0A4-s1n1jm7r" transform="translate(5346, 900) scale(0.72, 0.72)"/></g><g data-id="z1aj8frv" data-class="stem" class="stem"><path d="M5355 928 L5355 1500" stroke-width="18"/></g></g><g data-id="sawcbv4" data-class="note" class="note"><g data-class="notehead" class="notehead"><use href="#E0A4-s1n1jm7r" transform="translate(6154, 810) scale(0.72, 0.72)"/></g><g data-id="a4gdbms" data-class="stem" class="stem"><path d="M6163 838 L6163 1440" stroke-width="18"/><g data-id="b1n03wis" data-class="flag" class="flag"><use href="#E241-s1n1jm7r" transform="translate(6154, 1440) scale(0.72, 0.72)"/></g></g></g><g data-id="tptd48r" data-class="note" class="note"><g data-class="notehead" class="notehead"><use href="#E0A4-s1n1jm7r" transform="translate(6681, 720) scale(0.72, 0.72)"/></g><g data-id="c1s06llk" data-class="stem" class="stem"><path d="M6690 748 L6690 1350" stroke-width="18"/></g></g><g data-id="u20h59r" data-class="note" class="note"><g data-class="notehead" class="notehead"><use href="#E0A4-s1n1jm7r" transform="translate(7488, 900) scale(0.72, 0.72)"/></g><g data-id="d1hjbap5" data-class="stem" class="stem"><path d="M7497 928 L7497 1500" stroke-width="18"/><g data-id="e1rcollo" data-class="flag" class="flag"><use href="#E241-s1n1jm7r" transform="translate(7488, 1500) scale(0.72, 0.72)"/></g></g></g></g></g><g data-id="t1dpgz6e" data-class="barLine" class="barLine"><path d="M8015 540 L8015 1260" stroke-width="27"/></g></g><g data-id="u1fu13rz" data-class="measure" class="measure"><g data-id="c1kojdj9" data-class="staff" class="staff"><path d="M8028 540 L11167 540" stroke-width="13"/><path d="M8028 720 L11167 720" stroke-width="13"/><path d="M8028 900 L11167 900" stroke-width="13"/><path d="M8028 1080 L11167 1080" stroke-width="13"/><path d="M8028 1260 L11167 1260" stroke-width="13"/><g data-id="dsymp9a" data-class="layer" class="layer"><g data-id="e16tsd5a" data-class="beam" class="beam"><polygon stroke-opacity="1" fill-opacity="1" points="8447,315 8992,360 8992,450 8447,405"/><g data-id="v1gsv75n" data-class="note" class="note"><g data-class="notehead" class="notehead"><use href="#E0A4-s1n1jm7r" transform="translate(8239, 900) scale(0.72, 0.72)"/></g><g data-id="fpae2eg" data-class="stem" class="stem"><path d="M8456 872 L8456 333" stroke-width="18"/></g></g><g data-id="w1kmgmv6" data-class="note" class="note"><g data-class="notehead" class="notehead"><use href="#E0A4-s1n1jm7r" transform="translate(8766, 990) scale(0.72, 0.72)"/></g><g data-id="g18fej8o" data-class="stem" class="stem"><path d="M8983 962 L8983 378" stroke-width="18"/></g></g></g><g data-id="x3iwb9z" data-class="note" class="note"><g data-class="notehead" class="notehead"><use href="#E0A4-s1n1jm7r" transform="translate(9293, 900) scale(0.72, 0.72)"/></g><g data-id="h1kgqpr2" data-class="stem" class="stem"><path d="M9302 928 L9302 1500" stroke-width="18"/><g data-id="i1i71pre" data-class="flag" class="flag"><use href="#E241-s1n1jm7r" transform="translate(9293, 1500) scale(0.72, 0.72)"/></g></g></g><g data-id="yz3woyf" data-class="note" class="note"><g data-class="notehead" class="notehead"><use href="#E0A4-s1n1jm7r" transform="translate(9820, 1080) scale(0.72, 0.72)"/></g><g data-id="jp91uay" data-class="stem" class="stem"><path d="M10037 1052 L10037 450" stroke-width="18"/></g></g><g data-id="zjyz4ue" data-class="note" class="note"><g data-class="notehead" class="notehead"><use href="#E0A4-s1n1jm7r" transform="translate(10627, 720) scale(0.72, 0.72)"/></g><g data-id="k167aow5" data-class="stem" class="stem"><path d="M10636 748 L10636 1350" stroke-width="18"/><g data-id="lrrkque" data-class="flag" class="flag"><use href="#E241-s1n1jm7r" transform="translate(10627, 1350) scale(0.72, 0.72)"/></g></g></g></g></g><g data-id="chp3iru" data-class="barLine" class="barLine"><path d="M11154 540 L11154 1260" stroke-width="27"/></g></g><g data-id="d15zr3tu" data-class="measure" class="measure"><g data-id="ec6ubr8" data-class="staff" class="staff"><path d="M11167 540 L14002 540" stroke-width="13"/><path d="M11167 720 L14002 720" stroke-width="13"/><path d="M11167 900 L14002 900" stroke-width="13"/><path d="M11167 1080 L14002 1080" stroke-width="13"/><path d="M11167 1260 L14002 1260" stroke-width="13"/><g data-id="fcf4t6z" data-class="layer" class="layer"><g data-id="f1rhxkyd" data-class="beam" class="beam"><polygon stroke-opacity="1" fill-opacity="1" points="11378,1440 11923,1485 11923,1395 11378,1350"/><g data-id="ayz2gx2" data-class="note" class="note"><g data-class="notehead" class="notehead"><use href="#E0A4-s1n1jm7r" transform="translate(11378, 720) scale(0.72, 0.72)"/></g><g data-id="m7mwgfr" data-class="stem" class="stem"><path d="M11387 748 L11387 1422" stroke-width="18"/></g></g><g data-id="bngrzpc" data-class="note" class="note"><g data-class="notehead" class="notehead"><use href="#E0A4-s1n1jm7r" transform="translate(11905, 810) scale(0.72, 0.72)"/></g><g data-id="na59cmc" data-class="stem" class="stem"><path d="M11914 838 L11914 1467" stroke-width="18"/></g></g></g><g data-id="c18sfibd" data-class="note" class="note"><g data-class="notehead" class="notehead"><use href="#E0A4-s1n1jm7r" transform="translate(12432, 720) scale(0.72, 0.72)"/></g><g data-id="o1t0mrum" data-class="stem" class="stem"><path d="M12441 748 L12441 1350" stroke-width="18"/><g data-id="po6v66s" data-class="flag" class="flag"><use href="#E241-s1n1jm7r" transform="translate(12432, 1350) scale(0.72, 0.72)"/></g></g></g><g data-id="d15hy64z" data-class="note" class="note"><g data-class="notehead" class="notehead"><use href="#E0A4-s1n1jm7r" transform="translate(12959, 900) scale(0.72, 0.72)"/></g><g data-id="r13p0aa3" data-class="dots" class="dots"><ellipse cx="13275" cy="810" rx="36" ry="36" fill-opacity="1" stroke-opacity="1"/></g><g data-id="qudrecz" data-class="stem" class="stem"><path d="M12968 928 L12968 1500" stroke-width="18"/></g></g></g></g><g data-id="l1qg2m4n" data-class="barLine" class="barLine"><path d="M13989 540 L13989 1260" stroke-width="27"/></g></g><g data-id="n1kvijw6" data-class="systemMilestoneEnd" class="systemMilestoneEnd k1urjf4c"/></g><g data-id="o1ysjhrl" data-class="pageMilestoneEnd" class="pageMilestoneEnd i1kh5wca"/><g data-id="p1ubdkly" data-class="pageMilestoneEnd" class="pageMilestoneEnd h6f7dx0"/></g></svg></svg>