<svg viewBox="0 0 560 84" version="1.1" xmlns="http://www.w3.org/2000/svg" xmlns:xlink="http://www.w3.org/1999/xlink" overflow="visible" id="v13fa3qg"><desc>Engraved by Verovio 5.6.0-85e7620</desc><defs><g id="E050-v13fa3qg"><path transform="scale(1,-1)" d="M441 -245c-23 -4 -48 -6 -76 -6c-59 0 -102 7 -130 20c-88 42 -150 93 -187 154c-26 44 -43 103 -48 176c0 6 -1 13 -1 19c0 54 15 111 45 170c29 57 65 106 110 148s96 85 153 127c-3 16 -8 46 -13 92c-4 43 -5 73 -5 89c0 117 16 172 69 257c34 54 64 82 89 82 c21 0 43 -30 69 -92s39 -115 41 -159v-15c0 -109 -21 -162 -67 -241c-13 -20 -63 -90 -98 -118c-13 -9 -25 -19 -37 -29l31 -181c8 1 18 2 28 2c58 0 102 -12 133 -35c59 -43 92 -104 98 -184c1 -7 1 -15 1 -22c0 -123 -87 -209 -181 -248c8 -57 17 -110 25 -162 c5 -31 6 -58 6 -80c0 -30 -5 -53 -14 -70c-35 -64 -88 -99 -158 -103c-5 0 -11 -1 -16 -1c-37 0 -72 10 -108 27c-50 24 -77 59 -80 105v11c0 29 7 55 20 76c18 28 45 42 79 44h6c49 0 93 -42 97 -87v-9c0 -51 -34 -86 -105 -106c17 -24 51 -36 102 -36c62 0 116 43 140 85 c9 16 13 41 13 74c0 20 -1 42 -5 67c-8 53 -18 106 -26 159zM461 939c-95 0 -135 -175 -135 -286c0 -24 2 -48 5 -71c50 39 92 82 127 128c40 53 60 100 60 140v8c-4 53 -22 81 -55 81h-2zM406 119l54 -326c73 25 110 78 110 161c0 7 0 15 -1 23c-7 95 -57 142 -151 142h-12 zM382 117c-72 -2 -128 -47 -128 -120v-7c2 -46 43 -99 75 -115c-3 -2 -7 -5 -10 -10c-70 33 -116 88 -123 172v11c0 68 44 126 88 159c23 17 49 29 78 36l-29 170c-21 -13 -52 -37 -92 -73c-50 -44 -86 -84 -109 -119c-45 -69 -67 -130 -67 -182v-13c5 -68 35 -127 93 -176 s125 -73 203 -73c25 0 50 3 75 9c-19 111 -36 221 -54 331z"/></g><g id="E262-v13fa3qg"><path transform="scale(1,-1)" d="M136 186v169h17v-164l44 14v-91l-44 -14v-165l44 12v-91l-44 -13v-155h-17v150l-76 -22v-155h-17v149l-43 -13v90l43 14v167l-43 -14v92l43 13v169h17v-163zM60 73v-167l76 22v168z"/></g><g id="E083-v13fa3qg"><path transform="scale(1,-1)" d="M208 250c97 0 177 -52 177 -116c0 -69 -40 -111 -118 -125c56 -5 125 -44 125 -116c0 -31 -10 -57 -31 -78c-19 -21 -45 -38 -78 -49l-50 -11c-15 -3 -36 -7 -55 -7c-50 0 -86 16 -113 38c-16 10 -23 18 -34 34c-7 13 -11 25 -11 38c0 43 27 83 68 83l3 -2 c61 0 75 -42 75 -70c0 -19 -24 -42 -26 -57c7 -17 20 -25 37 -25c44 0 94 29 94 78c0 75 -34 125 -138 125v36c84 0 131 22 131 98c0 54 -37 88 -87 88c-26 0 -43 -7 -51 -22c15 -22 44 -16 44 -70c0 -37 -37 -62 -71 -62c-22 0 -69 15 -69 76c0 79 101 116 178 116z"/></g><g id="E088-v13fa3qg"><path transform="scale(1,-1)" d="M195 -214c76 0 88 58 90 68c0 34 -35 60 -57 73l-52 29c-21 10 -32 17 -34 20c-39 -33 -58 -54 -62 -92c5 -23 23 -98 115 -98zM301 135c0 61 -72 76 -113 76c-40 0 -77 -17 -77 -51c3 -21 15 -38 26 -50c17 -15 33 -26 48 -34l65 -28c34 27 51 56 51 87zM176 -250 c-57 0 -166 26 -166 132c0 47 30 86 89 116c-33 15 -79 60 -79 119c0 79 85 132 178 132h18c5 0 21 1 28 -1c25 0 126 -30 126 -110c0 -37 -23 -76 -69 -116c43 -25 83 -71 83 -119c0 -101 -118 -153 -208 -153z"/></g><g id="E0A4-v13fa3qg"><path transform="scale(1,-1)" d="M0 -39c0 68 73 172 200 172c66 0 114 -37 114 -95c0 -84 -106 -171 -218 -171c-64 0 -96 30 -96 94z"/></g><g id="E241-v13fa3qg"><path transform="scale(1,-1)" d="M179 646c-4 8 -17 30 -18 33l-4 10c0 3 2 5 5 5s7 -2 13 -7c23 -33 46 -81 66 -132c22 -57 35 -125 35 -163c0 -104 -60 -183 -122 -241c-63 -59 -57 -53 -61 -56c-38 -34 -63 -95 -71 -95h-22v190c40 7 69 11 87 16c88 27 168 95 168 200c0 30 -12 89 -30 138 c-17 47 -31 73 -46 102z"/></g><g id="E240-v13fa3qg"><path transform="scale(1,-1)" d="M179 -646c15 29 29 55 46 102c18 49 30 108 30 138c0 105 -80 173 -168 200c-18 5 -47 9 -87 16v190h22c8 0 33 -61 71 -95c4 -3 -2 3 61 -56c62 -58 122 -137 122 -241c0 -38 -13 -106 -35 -163c-20 -51 -43 -99 -66 -132c-6 -5 -10 -7 -13 -7s-5 2 -5 5l4 10 c1 3 14 25 18 33z"/></g></defs><style type="text/css">#v13fa3qg g.page-margin {font-family:Times,serif;}#v13fa3qg g.ending, #v13fa3qg g.fing, #v13fa3qg g.reh, #v13fa3qg g.tempo {font-weight:bold;}#v13fa3qg g.dir, #v13fa3qg g.dynam, #v13fa3qg g.mNum {font-style:italic;}#v13fa3qg g.label {font-weight:normal;}#v13fa3qg path {stroke:currentColor}</style><svg class="definition-scale" color="black" viewBox="0 0 14000 2100"><g class="page-margin" transform="translate(0, 150)"><g data-id="n1e921ja" data-class="mdiv" class="mdiv pageMilestone"/><g data-id="odojwde" data-class="score" class="score pageMilestone"/><g data-id="i1nw39iu" data-class="system" class="system"><g data-id="q1rczezt" data-class="section" class="section systemMilestone"/><g data-id="wf8tips" data-class="measure" class="measure"><g data-id="c3ft7kr" data-class="staff" class="staff"><path d="M0 540 L3357 540" stroke-width="13"/><path d="M0 720 L3357 720" stroke-width="13"/><path d="M0 900 L3357 900" stroke-width="13"/><path d="M0 1080 L3357 1080" stroke-width="13"/><path d="M0 1260 L3357 1260" stroke-width="13"/><g data-id="plzbskn" data-class="clef" class="clef"><use href="#E050-v13fa3qg" transform="translate(90, 1080) scale(0.72, 0.72)"/></g><g data-id="q1iah4gr" data-class="keySig" class="keySig"><g data-id="r1jnadl7" data-class="keyAccid" class="keyAccid"><use href="#E262-v13fa3qg" transform="translate(735, 540) scale(0.72, 0.72)"/></g></g><g data-id="s17fvmfx" data-class="meterSig" class="meterSig"><use href="#E083-v13fa3qg" transform="translate(1046, 720) scale(0.72, 0.72)"/><use href="#E088-v13fa3qg" transform="translate(1049, 1080) scale(0.72, 0.72)"/></g><g data-id="d18hoxo1" data-class="layer" class="layer"><g data-id="q1euyhn" data-class="note" class="note"><g data-class="notehead" class="notehead"><use href="#E0A4-v13fa3qg" transform="translate(1614, 720) scale(0.72, 0.72)"/></g><g data-id="d1yb0v4j" data-class="stem" class="stem"><path d="M1623 748 L1623 1350" stroke-width="18"/><g data-id="es0zdqd" data-class="flag" class="flag"><use href="#E241-v13fa3qg" transform="translate(1614, 1350) scale(0.72, 0.72)"/></g></g></g><g data-id="r1nunnzf" data-class="note" class="note"><g data-class="notehead" class="notehead"><use href="#E0A4-v13fa3qg" transform="translate(1992, 540) scale(0.54, 0.54)"/></g><g data-id="f13cc9wr" data-class="stem" class="stem"><path d="M2152 519 L2152 158" stroke-width="18"/><path d="M2085 426 L2286 225" stroke-width="21"/><g data-id="g10r79he" data-class="flag" class="flag"><use href="#E240-v13fa3qg" transform="translate(2143, 158) scale(0.54, 0.54)"/></g></g><g data-id="l940oyo" data-class="accid" class="accid"/></g><g data-id="s1o28zep" data-class="note" class="note"><g data-class="notehead" class="notehead"><use href="#E0A4-v13fa3qg" transform="translate(2363, 630) scale(0.72, 0.72)"/></g><g data-id="h7fgvi9" data-class="stem" class="stem"><path d="M2372 658 L2372 1260" stroke-width="18"/><g data-id="iwa5evk" data-class="flag" class="flag"><use href="#E241-v13fa3qg" transform="translate(2363, 1260) scale(0.72, 0.72)"/></g></g></g><g data-id="t8xhvyt" data-class="note" class="note"><g data-class="notehead" class="notehead"><use href="#E0A4-v13fa3qg" transform="translate(2854, 720) scale(0.72, 0.72)"/></g><g data-id="j1vcqwnc" data-class="stem" class="stem"><path d="M2863 748 L2863 1350" stroke-width="18"/><g data-id="k1h24i5e" data-class="flag" class="flag"><use href="#E241-v13fa3qg" transform="translate(2854, 1350) scale(0.72, 0.72)"/></g></g></g></g></g><g data-id="eeoun1h" data-class="barLine" class="barLine"><path d="M3344 540 L3344 1260" stroke-width="27"/></g></g><g data-id="f12hlvtt" data-class="measure" class="measure"><g data-id="e1ollrdj" data-class="staff" class="staff"><path d="M3357 540 L4810 540" stroke-width="13"/><path d="M3357 720 L4810 720" stroke-width="13"/><path d="M3357 900 L4810 900" stroke-width="13"/><path d="M3357 1080 L4810 1080" stroke-width="13"/><path d="M3357 1260 L4810 1260" stroke-width="13"/><g data-id="fl8s68n" data-class="layer" class="layer"><g data-id="uatv70a" data-class="note" class="note"><g data-class="notehead" class="notehead"><use href="#E0A4-v13fa3qg" transform="translate(3554, 450) scale(0.72, 0.72)"/></g><g data-id="l47r9vw" data-class="stem" class="stem"><path d="M3563 478 L3563 1080" stroke-width="18"/></g></g><g data-id="v1nks76" data-class="note" class="note"><g data-class="notehead" class="notehead"><use href="#E0A4-v13fa3qg" transform="translate(4306, 720) scale(0.72, 0.72)"/></g><g data-id="m5evo5j" data-class="stem" class="stem"><path d="M4315 748 L4315 1350" stroke-width="18"/><g data-id="n18ncnfz" data-class="flag" class="flag"><use href="#E241-v13fa3qg" transform="translate(4306, 1350) scale(0.72, 0.72)"/></g></g></g></g></g><g data-id="n14vw0uh" data-class="barLine" class="barLine"><path d="M4797 540 L4797 1260" stroke-width="27"/></g></g><g data-id="o18rli0j" data-class="measure" class="measure"><g data-id="gcz0c3k" data-class="staff" class="staff"><path d="M4810 540 L6492 540" stroke-width="13"/><path d="M4810 720 L6492 720" stroke-width="13"/><path d="M4810 900 L6492 900" stroke-width="13"/><path d="M4810 1080 L6492 1080" stroke-width="13"/><path d="M4810 1260 L6492 1260" stroke-width="13"/><g data-id="hb8v64h" data-class="layer" class="layer"><g data-id="w1wnljxu" data-class="note" class="note"><g data-class="notehead" class="notehead"><use href="#E0A4-v13fa3qg" transform="translate(5007, 900) scale(0.72, 0.72)"/></g><g data-id="o1ue7hvs" data-class="stem" class="stem"><path d="M5016 928 L5016 1500" stroke-width="18"/><g data-id="p8zzpbf" data-class="flag" class="flag"><use href="#E241-v13fa3qg" transform="translate(5007, 1500) scale(0.72, 0.72)"/></g></g></g><g data-id="x1ljoqo3" data-class="note" class="note"><g data-class="notehead" class="notehead"><use href="#E0A4-v13fa3qg" transform="translate(5498, 810) scale(0.72, 0.72)"/></g><g data-id="q17fuvtg" data-class="stem" class="stem"><path d="M5507 838 L5507 1440" stroke-width="18"/><g data-id="rah55it" data-class="flag" class="flag"><use href="#E241-v13fa3qg" transform="translate(5498, 1440) scale(0.72, 0.72)"/></g></g></g><g data-id="y1ghgmrn" data-class="note" class="note"><g data-class="notehead" class="notehead"><use href="#E0A4-v13fa3qg" transform="translate(5988, 630) scale(0.72, 0.72)"/></g><g data-id="ssa4gti" data-class="stem" class="stem"><path d="M5997 658 L5997 1260" stroke-width="18"/><g data-id="t1fb2mts" data-class="flag" class="flag"><use href="#E241-v13fa3qg" transform="translate(5988, 1260) scale(0.72, 0.72)"/></g></g></g></g></g><g data-id="w16u2t52" data-class="barLine" class="barLine"><path d="M6479 540 L6479 1260" stroke-width="27"/></g></g><g data-id="x16kv55q" data-class="measure" class="measure"><g data-id="ioqsm33" data-class="staff" class="staff"><path d="M6492 540 L7661 540" stroke-width="13"/><path d="M6492 720 L7661 720" stroke-width="13"/><path d="M6492 900 L7661 900" stroke-width="13"/><path d="M6492 1080 L7661 1080" stroke-width="13"/><path d="M6492 1260 L7661 1260" stroke-width="13"/><g data-id="j4qe2la" data-class="layer" class="layer"><g data-id="z1w6ze31" data-class="note" class="note"><g data-class="notehead" class="notehead"><use href="#E0A4-v13fa3qg" transform="translate(6689, 720) scale(0.72, 0.72)"/></g><g data-id="v9b9ikm" data-class="dots" class="dots"><ellipse cx="7005" cy="630" rx="36" ry="36" fill-opacity="1" stroke-opacity="1"/></g><g data-id="u1dpt78y" data-class="stem" class="stem"><path d="M6698 748 L6698 1350" stroke-width="18"/></g></g></g></g><g data-id="f798gvr" data-class="barLine" class="barLine"><path d="M7648 540 L7648 1260" stroke-width="27"/></g></g><g data-id="g98yqpb" data-class="measure" class="measure"><g data-id="k3nzn89" data-class="staff" class="staff"><path d="M7661 540 L9343 540" stroke-width="13"/><path d="M7661 720 L9343 720" stroke-width="13"/><path d="M7661 900 L9343 900" stroke-width="13"/><path d="M7661 1080 L9343 1080" stroke-width="13"/><path d="M7661 1260 L9343 1260" stroke-width="13"/><g data-id="lfjtyyz" data-class="layer" class="layer"><g data-id="a1rliep5" data-class="note" class="note"><g data-class="notehead" class="notehead"><use href="#E0A4-v13fa3qg" transform="translate(7858, 720) scale(0.72, 0.72)"/></g><g data-id="w1c1rrfp" data-class="stem" class="stem"><path d="M7867 748 L7867 1350" stroke-width="18"/><g data-id="x1tgal70" data-class="flag" class="flag"><use href="#E241-v13fa3qg" transform="translate(7858, 1350) scale(0.72, 0.72)"/></g></g></g><g data-id="bsx8yp8" data-class="note" class="note"><g data-class="notehead" class="notehead"><use href="#E0A4-v13fa3qg" transform="translate(8349, 810) scale(0.72, 0.72)"/></g><g data-id="y13foke6" data-class="stem" class="stem"><path d="M8358 838 L8358 1440" stroke-width="18"/><g data-id="z11ymqjg" data-class="flag" class="flag"><use href="#E241-v13fa3qg" transform="translate(8349, 1440) scale(0.72, 0.72)"/></g></g></g><g data-id="cewn1hl" data-class="note" class="note"><g data-class="notehead" class="notehead"><use href="#E0A4-v13fa3qg" transform="translate(8839, 900) scale(0.72, 0.72)"/></g><g data-id="a11n2vpv" data-class="stem" class="stem"><path d="M8848 928 L8848 1500" stroke-width="18"/><g data-id="b1k71q6n" data-class="flag" class="flag"><use href="#E241-v13fa3qg" transform="translate(8839, 1500) scale(0.72, 0.72)"/></g></g></g></g></g><g data-id="oayesml" data-class="barLine" class="barLine"><path d="M9330 540 L9330 1260" stroke-width="27"/></g></g><g data-id="p7xyna8" data-class="measure" class="measure"><g data-id="m1uvmcun" data-class="staff" class="staff"><path d="M9343 540 L11086 540" stroke-width="13"/><path d="M9343 720 L11086 720" stroke-width="13"/><path d="M9343 900 L11086 900" stroke-width="13"/><path d="M9343 1080 L11086 1080" stroke-width="13"/><path d="M9343 1260 L11086 1260" stroke-width="13"/><g data-id="nsgp4yz" data-class="layer" class="layer"><g data-id="k1swdew1" data-class="beam" class="beam"><polygon stroke-opacity="1" fill-opacity="1" points="9748,315 10398,405 10398,495 9748,405"/><polygon stroke-opacity="1" fill-opacity="1" points="10172,511 10398,540 10398,630 10172,601"/><g data-id="do0n6si" data-class="note" class="note"><g data-class="notehead" class="notehead"><use href="#E0A4-v13fa3qg" transform="translate(9540, 900) scale(0.72, 0.72)"/></g><g data-id="d1ey5f0k" data-class="dots" class="dots"><ellipse cx="9856" cy="810" rx="36" ry="36" fill-opacity="1" stroke-opacity="1"/></g><g data-id="c1giv6t3" data-class="stem" class="stem"><path d="M9757 872 L9757 333" stroke-width="18"/></g></g><g data-id="eyuyyyu" data-class="note" class="note"><g data-class="notehead" class="notehead"><use href="#E0A4-v13fa3qg" transform="translate(10172, 990) scale(0.72, 0.72)"/></g><g data-id="e1t9a2xq" data-class="stem" class="stem"><path d="M10389 962 L10389 423" stroke-width="18"/></g></g></g><g data-id="fdxsd0" data-class="note" class="note"><g data-class="notehead" class="notehead"><use href="#E0A4-v13fa3qg" transform="translate(10517, 990) scale(0.72, 0.72)"/></g><g data-id="fx1bkr3" data-class="stem" class="stem"><path d="M10734 962 L10734 360" stroke-width="18"/><g data-id="gap6eme" data-class="flag" class="flag"><use href="#E240-v13fa3qg" transform="translate(10725, 360) scale(0.72, 0.72)"/></g></g></g></g></g><g data-id="xctj1hp" data-class="barLine" class="barLine"><path d="M11073 540 L11073 1260" stroke-width="27"/></g></g><g data-id="y1qjuji1" data-class="measure" class="measure"><g data-id="o2u55ht" data-class="staff" class="staff"><path d="M11086 540 L12833 540" stroke-width="13"/><path d="M11086 720 L12833 720" stroke-width="13"/><path d="M11086 900 L12833 900" stroke-width="13"/><path d="M11086 1080 L12833 1080" stroke-width="13"/><path d="M11086 1260 L12833 1260" stroke-width="13"/><g data-id="p19652nq" data-class="layer" class="layer"><g data-id="g1ysjcsq" data-class="note" class="note"><g data-class="notehead" class="notehead"><use href="#E0A4-v13fa3qg" transform="translate(11283, 630) scale(0.72, 0.72)"/></g><g data-id="h18mgim9" data-class="stem" class="stem"><path d="M11292 658 L11292 1260" stroke-width="18"/><g data-id="i10bly3x" data-class="flag" class="flag"><use href="#E241-v13fa3qg" transform="translate(11283, 1260) scale(0.72, 0.72)"/></g></g></g><g data-id="h104nl32" data-class="note" class="note"><g data-class="notehead" class="notehead"><use href="#E0A4-v13fa3qg" transform="translate(11774, 990) scale(0.72, 0.72)"/></g><g data-id="j1paqw0w" data-class="stem" class="stem"><path d="M11991 962 L11991 360" stroke-width="18"/><g data-id="kxwxddt" data-class="flag" class="flag"><use href="#E240-v13fa3qg" transform="translate(11982, 360) scale(0.72, 0.72)"/></g></g></g><g data-id="i10lk2u" data-class="note" class="note"><g data-class="notehead" class="notehead"><use href="#E0A4-v13fa3qg" transform="translate(12264, 990) scale(0.72, 0.72)"/></g><g data-id="l1kp2tuy" data-class="stem" class="stem"><path d="M12481 962 L12481 360" stroke-width="18"/><g data-id="m18e78dn" data-class="flag" class="flag"><use href="#E240-v13fa3qg" transform="translate(12472, 360) scale(0.72, 0.72)"/></g></g></g></g></g><g data-id="g15mdv2d" data-class="barLine" class="barLine"><path d="M12820 540 L12820 1260" stroke-width="27"/></g></g><g data-id="h19ma3xb" data-class="measure" class="measure"><g data-id="q13441ww" data-class="staff" class="staff"><path d="M12833 540 L14002 540" stroke-width="13"/><path d="M12833 720 L14002 720" stroke-width="13"/><path d="M12833 900 L14002 900" stroke-width="13"/><path d="M12833 1080 L14002 1080" stroke-width="13"/><path d="M12833 1260 L14002 1260" stroke-width="13"/><g data-id="r1q2t9q6" data-class="layer" class="layer"><g data-id="j1uyws7i" data-class="note" class="note"><g data-class="notehead" class="notehead"><use href="#E0A4-v13fa3qg" transform="translate(13030, 990) scale(0.72, 0.72)"/></g><g data-id="o1hxxpgt" data-class="dots" class="dots"><ellipse cx="13346" cy="990" rx="36" ry="36" fill-opacity="1" stroke-opacity="1"/></g><g data-id="n1fz7nfi" data-class="stem" class="stem"><path d="M13247 962 L13247 360" stroke-width="18"/></g></g></g></g><g data-id="p1h5ha97" data-class="barLine" class="barLine"><path d="M13989 540 L13989 1260" stroke-width="27"/></g></g><g data-id="ztokq9s" data-class="systemMilestoneEnd" class="systemMilestoneEnd q1rczezt"/></g><g data-id="a1r8pbdc" data-class="pageMilestoneEnd" class="pageMilestoneEnd odojwde"/><g data-id="b1jdc3bl" data-class="pageMilestoneEnd" class="pageMilestoneEnd n1e921ja"/></g></svg></svg>