<svg viewBox="0 0 560 84" version="1.1" xmlns="http://www.w3.org/2000/svg" xmlns:xlink="http://www.w3.org/1999/xlink" overflow="visible" id="m1fwuts2"><desc>Engraved by Verovio 5.6.0-85e7620</desc><defs><g id="E050-m1fwuts2"><path transform="scale(1,-1)" d="M441 -245c-23 -4 -48 -6 -76 -6c-59 0 -102 7 -130 20c-88 42 -150 93 -187 154c-26 44 -43 103 -48 176c0 6 -1 13 -1 19c0 54 15 111 45 170c29 57 65 106 110 148s96 85 153 127c-3 16 -8 46 -13 92c-4 43 -5 73 -5 89c0 117 16 172 69 257c34 54 64 82 89 82 c21 0 43 -30 69 -92s39 -115 41 -159v-15c0 -109 -21 -162 -67 -241c-13 -20 -63 -90 -98 -118c-13 -9 -25 -19 -37 -29l31 -181c8 1 18 2 28 2c58 0 102 -12 133 -35c59 -43 92 -104 98 -184c1 -7 1 -15 1 -22c0 -123 -87 -209 -181 -248c8 -57 17 -110 25 -162 c5 -31 6 -58 6 -80c0 -30 -5 -53 -14 -70c-35 -64 -88 -99 -158 -103c-5 0 -11 -1 -16 -1c-37 0 -72 10 -108 27c-50 24 -77 59 -80 105v11c0 29 7 55 20 76c18 28 45 42 79 44h6c49 0 93 -42 97 -87v-9c0 -51 -34 -86 -105 -106c17 -24 51 -36 102 -36c62 0 116 43 140 85 c9 16 13 41 13 74c0 20 -1 42 -5 67c-8 53 -18 106 -26 159zM461 939c-95 0 -135 -175 -135 -286c0 -24 2 -48 5 -71c50 39 92 82 127 128c40 53 60 100 60 140v8c-4 53 -22 81 -55 81h-2zM406 119l54 -326c73 25 110 78 110 161c0 7 0 15 -1 23c-7 95 -57 142 -151 142h-12 zM382 117c-72 -2 -128 -47 -128 -120v-7c2 -46 43 -99 75 -115c-3 -2 -7 -5 -10 -10c-70 33 -116 88 -123 172v11c0 68 44 126 88 159c23 17 49 29 78 36l-29 170c-21 -13 -52 -37 -92 -73c-50 -44 -86 -84 -109 -119c-45 -69 -67 -130 -67 -182v-13c5 -68 35 -127 93 -176 s125 -73 203 -73c25 0 50 3 75 9c-19 111 -36 221 -54 331z"/></g><g id="E262-m1fwuts2"><path transform="scale(1,-1)" d="M136 186v169h17v-164l44 14v-91l-44 -14v-165l44 12v-91l-44 -13v-155h-17v150l-76 -22v-155h-17v149l-43 -13v90l43 14v167l-43 -14v92l43 13v169h17v-163zM60 73v-167l76 22v168z"/></g><g id="E083-m1fwuts2"><path transform="scale(1,-1)" d="M208 250c97 0 177 -52 177 -116c0 -69 -40 -111 -118 -125c56 -5 125 -44 125 -116c0 -31 -10 -57 -31 -78c-19 -21 -45 -38 -78 -49l-50 -11c-15 -3 -36 -7 -55 -7c-50 0 -86 16 -113 38c-16 10 -23 18 -34 34c-7 13 -11 25 -11 38c0 43 27 83 68 83l3 -2 c61 0 75 -42 75 -70c0 -19 -24 -42 -26 -57c7 -17 20 -25 37 -25c44 0 94 29 94 78c0 75 -34 125 -138 125v36c84 0 131 22 131 98c0 54 -37 88 -87 88c-26 0 -43 -7 -51 -22c15 -22 44 -16 44 -70c0 -37 -37 -62 -71 -62c-22 0 -69 15 -69 76c0 79 101 116 178 116z"/></g><g id="E084-m1fwuts2"><path transform="scale(1,-1)" d="M20 -78c84 97 114 180 134 329h170c-13 -32 -82 -132 -99 -151l-84 -97c-33 -36 -59 -63 -80 -81h162v102l127 123v-225h57v-39h-57v-34c0 -43 19 -65 57 -65v-34h-244v36c48 0 60 26 60 70v27h-203v39z"/></g><g id="E0A4-m1fwuts2"><path transform="scale(1,-1)" d="M0 -39c0 68 73 172 200 172c66 0 114 -37 114 -95c0 -84 -106 -171 -218 -171c-64 0 -96 30 -96 94z"/></g><g id="E241-m1fwuts2"><path transform="scale(1,-1)" d="M179 646c-4 8 -17 30 -18 33l-4 10c0 3 2 5 5 5s7 -2 13 -7c23 -33 46 -81 66 -132c22 -57 35 -125 35 -163c0 -104 -60 -183 -122 -241c-63 -59 -57 -53 -61 -56c-38 -34 -63 -95 -71 -95h-22v190c40 7 69 11 87 16c88 27 168 95 168 200c0 30 -12 89 -30 138 c-17 47 -31 73 -46 102z"/></g><g id="E243-m1fwuts2"><path transform="scale(1,-1)" d="M216 730c-5 8 -10 13 -11 16l-4 10c0 3 2 5 5 5s7 -2 13 -7c35 -42 57 -101 57 -172c0 -34 -6 -65 -17 -94c10 -31 17 -64 17 -96c0 -104 -60 -183 -122 -241c-63 -59 -57 -53 -61 -56c-38 -34 -63 -95 -71 -95h-22v190v190c40 7 69 11 87 16c116 36 175 111 175 197 c0 44 -15 91 -46 137zM248 463c-23 -48 -58 -89 -94 -122c-63 -59 -57 -53 -61 -56c-30 -27 -44 -71 -53 -88c20 3 36 6 47 9c88 27 168 95 168 200c0 19 -3 39 -7 57z"/></g><g id="E240-m1fwuts2"><path transform="scale(1,-1)" d="M179 -646c15 29 29 55 46 102c18 49 30 108 30 138c0 105 -80 173 -168 200c-18 5 -47 9 -87 16v190h22c8 0 33 -61 71 -95c4 -3 -2 3 61 -56c62 -58 122 -137 122 -241c0 -38 -13 -106 -35 -163c-20 -51 -43 -99 -66 -132c-6 -5 -10 -7 -13 -7s-5 2 -5 5l4 10 c1 3 14 25 18 33z"/></g><g id="E242-m1fwuts2"><path transform="scale(1,-1)" d="M206 -748c32 48 49 100 49 149c0 89 -55 168 -168 203c-18 5 -47 9 -87 16v190v190h22c8 0 33 -61 71 -95c4 -3 -2 3 61 -56c62 -58 122 -137 122 -241c0 -32 -7 -65 -17 -96c11 -29 17 -60 17 -94c0 -71 -32 -148 -67 -190c-6 -5 -10 -7 -13 -7s-5 2 -5 5l4 10 c1 3 6 8 11 16zM248 -463c4 18 7 38 7 57c0 105 -80 173 -168 200c-11 3 -27 6 -47 9c9 -17 23 -61 53 -88c4 -3 -2 3 61 -56c36 -33 71 -74 94 -122z"/></g><g id="E0A3-m1fwuts2"><path transform="scale(1,-1)" d="M278 64c0 22 -17 39 -43 39c-12 0 -26 -3 -41 -10c-85 -43 -165 -94 -165 -156c5 -25 15 -32 49 -32c67 11 200 95 200 159zM0 -36c0 68 73 174 200 174c66 0 114 -39 114 -97c0 -84 -106 -173 -218 -173c-64 0 -96 32 -96 96z"/></g><g id="E4E5-m1fwuts2"><path transform="scale(1,-1)" d="M107 292c-13 24 -30 49 -52 71c-1 1 0 2 0 3l-2 2c3 3 4 4 6 4c12 0 26 -7 40 -20s44 -40 89 -81c26 -24 28 -29 46 -47c4 -4 8 -9 10 -14c6 -8 8 -16 8 -27c0 -19 -12 -40 -36 -61c-28 -23 -49 -38 -61 -73c-4 -11 -7 -27 -10 -50c13 -43 34 -83 59 -121 c31 -47 59 -79 101 -129c-8 0 -26 7 -54 20l-62 29l-21 6l-23 1c-25 0 -45 -10 -60 -30l-4 -14l-1 -12c0 -33 20 -56 39 -78c8 -9 17 -18 26 -26c17 -15 27 -24 28 -30l-3 -3c-11 5 -19 10 -25 15c-9 3 -37 21 -45 26c-24 14 -45 32 -63 51c-19 21 -37 44 -37 71 c0 63 27 95 80 95c41 0 86 -18 136 -52c-19 26 -37 48 -55 66c-23 23 -48 44 -73 65c-28 23 -47 40 -58 53s-17 26 -18 39c75 64 113 125 113 183c0 27 -7 48 -18 68z"/></g></defs><style type="text/css">#m1fwuts2 g.page-margin {font-family:Times,serif;}#m1fwuts2 g.ending, #m1fwuts2 g.fing, #m1fwuts2 g.reh, #m1fwuts2 g.tempo {font-weight:bold;}#m1fwuts2 g.dir, #m1fwuts2 g.dynam, #m1fwuts2 g.mNum {font-style:italic;}#m1fwuts2 g.label {font-weight:normal;}#m1fwuts2 path {stroke:currentColor}</style><svg class="definition-scale" color="black" viewBox="0 0 14000 2100"><g class="page-margin" transform="translate(0, 150)"><g data-id="h1rwh780" data-class="mdiv" class="mdiv pageMilestone"/><g data-id="inlh68" data-class="score" class="score pageMilestone"/><g data-id="ag4fz7u" data-class="system" class="system"><g data-id="k9egc38" data-class="section" class="section systemMilestone"/><g data-id="nc9z9vx" data-class="measure" class="measure"><g data-id="w1guqori" data-class="staff" class="staff"><path d="M0 540 L3176 540" stroke-width="13"/><path d="M0 720 L3176 720" stroke-width="13"/><path d="M0 900 L3176 900" stroke-width="13"/><path d="M0 1080 L3176 1080" stroke-width="13"/><path d="M0 1260 L3176 1260" stroke-width="13"/><g data-id="e71suc7" data-class="clef" class="clef"><use href="#E050-m1fwuts2" transform="translate(90, 1080) scale(0.72, 0.72)"/></g><g data-id="fmsvcnc" data-class="keySig" class="keySig"><g data-id="gx6c7tc" data-class="keyAccid" class="keyAccid"><use href="#E262-m1fwuts2" transform="translate(735, 540) scale(0.72, 0.72)"/></g><g data-id="h4x1l7e" data-class="keyAccid" class="keyAccid"><use href="#E262-m1fwuts2" transform="translate(913, 810) scale(0.72, 0.72)"/></g><g data-id="i1gu753k" data-class="keyAccid" class="keyAccid"><use href="#E262-m1fwuts2" transform="translate(1091, 450) scale(0.72, 0.72)"/></g><g data-id="j1eu14q5" data-class="keyAccid" class="keyAccid"><use href="#E262-m1fwuts2" transform="translate(1269, 720) scale(0.72, 0.72)"/></g></g><g data-id="k12hmfpb" data-class="meterSig" class="meterSig"><use href="#E083-m1fwuts2" transform="translate(1582, 720) scale(0.72, 0.72)"/><use href="#E084-m1fwuts2" transform="translate(1576, 1080) scale(0.72, 0.72)"/></g><g data-id="x1nitbo5" data-class="layer" class="layer"><g data-id="hrkomhr" data-class="note" class="note"><g data-class="notehead" class="notehead"><use href="#E0A4-m1fwuts2" transform="translate(2157, 810) scale(0.72, 0.72)"/></g><g data-id="vzdabyz" data-class="dots" class="dots"><ellipse cx="2473" cy="810" rx="36" ry="36" fill-opacity="1" stroke-opacity="1"/></g><g data-id="u1b03dwn" data-class="stem" class="stem"><path d="M2166 838 L2166 1440" stroke-width="18"/><g data-id="w123vj0g" data-class="flag" class="flag"><use href="#E241-m1fwuts2" transform="translate(2157, 1440) scale(0.72, 0.72)"/></g></g><g data-id="bjnsglb" data-class="accid" class="accid"/></g><g data-id="iyvtold" data-class="note" class="note"><g data-class="notehead" class="notehead"><use href="#E0A4-m1fwuts2" transform="translate(2798, 900) scale(0.72, 0.72)"/></g><g data-id="xo1v6b2" data-class="stem" class="stem"><path d="M2807 928 L2807 1500" stroke-width="18"/><g data-id="y1k1zo87" data-class="flag" class="flag"><use href="#E243-m1fwuts2" transform="translate(2798, 1500) scale(0.72, 0.72)"/></g></g></g></g></g><g data-id="vps2nyq" data-class="barLine" class="barLine"><path d="M3163 540 L3163 1260" stroke-width="27"/></g></g><g data-id="wegw44x" data-class="measure" class="measure"><g data-id="yczszdb" data-class="staff" class="staff"><path d="M3176 540 L6114 540" stroke-width="13"/><path d="M3176 720 L6114 720" stroke-width="13"/><path d="M3176 900 L6114 900" stroke-width="13"/><path d="M3176 1080 L6114 1080" stroke-width="13"/><path d="M3176 1260 L6114 1260" stroke-width="13"/><g data-id="zjrlipe" data-class="layer" class="layer"><g data-id="jrhbe8w" data-class="note" class="note"><g data-class="notehead" class="notehead"><use href="#E0A4-m1fwuts2" transform="translate(3375, 900) scale(0.72, 0.72)"/></g><g data-id="a1ugvll6" data-class="dots" class="dots"><ellipse cx="3691" cy="810" rx="36" ry="36" fill-opacity="1" stroke-opacity="1"/></g><g data-id="zdloumd" data-class="stem" class="stem"><path d="M3384 928 L3384 1500" stroke-width="18"/></g></g><g data-id="k2j4nio" data-class="note" class="note"><g data-class="notehead" class="notehead"><use href="#E0A4-m1fwuts2" transform="translate(4348, 1260) scale(0.72, 0.72)"/></g><g data-id="b1u2nm41" data-class="stem" class="stem"><path d="M4565 1232 L4565 630" stroke-width="18"/><g data-id="cq5hq6l" data-class="flag" class="flag"><use href="#E240-m1fwuts2" transform="translate(4556, 630) scale(0.72, 0.72)"/></g></g></g><g data-id="l10d4yld" data-class="note" class="note"><g data-class="notehead" class="notehead"><use href="#E0A4-m1fwuts2" transform="translate(4896, 990) scale(0.72, 0.72)"/></g><g data-id="epng7kt" data-class="dots" class="dots"><ellipse cx="5212" cy="990" rx="36" ry="36" fill-opacity="1" stroke-opacity="1"/></g><g data-id="d1pxcj5n" data-class="stem" class="stem"><path d="M5113 962 L5113 360" stroke-width="18"/><g data-id="f1rbbenm" data-class="flag" class="flag"><use href="#E240-m1fwuts2" transform="translate(5104, 360) scale(0.72, 0.72)"/></g></g></g><g data-id="m1w8vupq" data-class="note" class="note"><g data-class="notehead" class="notehead"><use href="#E0A4-m1fwuts2" transform="translate(5537, 1080) scale(0.72, 0.72)"/></g><g data-id="gacycde" data-class="stem" class="stem"><path d="M5754 1052 L5754 450" stroke-width="18"/><g data-id="htnol4v" data-class="flag" class="flag"><use href="#E242-m1fwuts2" transform="translate(5745, 450) scale(0.72, 0.72)"/></g></g><g data-id="cg9vptg" data-class="accid" class="accid"/></g></g></g><g data-id="eovlhya" data-class="barLine" class="barLine"><path d="M6101 540 L6101 1260" stroke-width="27"/></g></g><g data-id="f275hh2" data-class="measure" class="measure"><g data-id="a15zq3mn" data-class="staff" class="staff"><path d="M6114 540 L8249 540" stroke-width="13"/><path d="M6114 720 L8249 720" stroke-width="13"/><path d="M6114 900 L8249 900" stroke-width="13"/><path d="M6114 1080 L8249 1080" stroke-width="13"/><path d="M6114 1260 L8249 1260" stroke-width="13"/><g data-id="bpjnbxd" data-class="layer" class="layer"><g data-id="n171d09j" data-class="note" class="note"><g data-class="notehead" class="notehead"><use href="#E0A3-m1fwuts2" transform="translate(6313, 1080) scale(0.72, 0.72)"/></g><g data-id="i18rk0w5" data-class="stem" class="stem"><path d="M6530 1052 L6530 450" stroke-width="18"/></g><g data-id="dwzlvr4" data-class="accid" class="accid"/></g><g data-id="o1p42925" data-class="note" class="note"><g data-class="notehead" class="notehead"><use href="#E0A4-m1fwuts2" transform="translate(7474, 900) scale(0.72, 0.72)"/></g><g data-id="j1mt2jpa" data-class="stem" class="stem"><path d="M7483 928 L7483 1500" stroke-width="18"/></g></g></g></g><g data-id="aum4we3" data-class="tie" class="tie"><path d="M7745,855 C7900,700 8245,700 8403,855 C8228,749 7917,749 7745,855" stroke-linecap="round" stroke-linejoin="round" stroke-width="9"/></g><g data-id="n1g51cgd" data-class="barLine" class="barLine"><path d="M8236 540 L8236 1260" stroke-width="27"/></g></g><g data-id="o6lin1j" data-class="measure" class="measure"><g data-id="czqow5j" data-class="staff" class="staff"><path d="M8249 540 L11503 540" stroke-width="13"/><path d="M8249 720 L11503 720" stroke-width="13"/><path d="M8249 900 L11503 900" stroke-width="13"/><path d="M8249 1080 L11503 1080" stroke-width="13"/><path d="M8249 1260 L11503 1260" stroke-width="13"/><g data-id="d7noeux" data-class="layer" class="layer"><g data-id="p9gqjpj" data-class="note" class="note"><g data-class="notehead" class="notehead"><use href="#E0A4-m1fwuts2" transform="translate(8448, 900) scale(0.72, 0.72)"/></g><g data-id="k1ygmdzl" data-class="stem" class="stem"><path d="M8457 928 L8457 1500" stroke-width="18"/><g data-id="lq49p5r" data-class="flag" class="flag"><use href="#E241-m1fwuts2" transform="translate(8448, 1500) scale(0.72, 0.72)"/></g></g></g><g data-id="q1hxh2l5" data-class="note" class="note"><g data-class="notehead" class="notehead"><use href="#E0A4-m1fwuts2" transform="translate(8946, 900) scale(0.72, 0.72)"/></g><g data-id="m1u7a3hp" data-class="stem" class="stem"><path d="M8955 928 L8955 1500" stroke-width="18"/><g data-id="n16zke0i" data-class="flag" class="flag"><use href="#E241-m1fwuts2" transform="translate(8946, 1500) scale(0.72, 0.72)"/></g></g></g><g data-id="y1v1i8ms" data-class="beam" class="beam"><polygon stroke-opacity="1" fill-opacity="1" points="9708,360 10224,315 10224,405 9708,450"/><g data-id="rgz6j37" data-class="note" class="note"><g data-class="notehead" class="notehead"><use href="#E0A4-m1fwuts2" transform="translate(9500, 990) scale(0.72, 0.72)"/></g><g data-id="ooljdyk" data-class="stem" class="stem"><path d="M9717 962 L9717 378" stroke-width="18"/></g><g data-id="x1o4p5yq" data-class="accid" class="accid"><use href="#E262-m1fwuts2" transform="translate(9314, 990) scale(0.72, 0.72)"/></g></g><g data-id="s809qju" data-class="note" class="note"><g data-class="notehead" class="notehead"><use href="#E0A4-m1fwuts2" transform="translate(9998, 900) scale(0.72, 0.72)"/></g><g data-id="pmtm5mk" data-class="stem" class="stem"><path d="M10215 872 L10215 333" stroke-width="18"/></g></g></g><g data-id="z18szese" data-class="beam" class="beam"><polygon stroke-opacity="1" fill-opacity="1" points="10495,1485 11010,1440 11010,1350 10495,1395"/><g data-id="t1e7w11h" data-class="note" class="note"><g data-class="notehead" class="notehead"><use href="#E0A4-m1fwuts2" transform="translate(10495, 810) scale(0.72, 0.72)"/></g><g data-id="q1l2tzgt" data-class="stem" class="stem"><path d="M10504 838 L10504 1467" stroke-width="18"/></g><g data-id="e13d68ia" data-class="accid" class="accid"/></g><g data-id="u1qq4ej" data-class="note" class="note"><g data-class="notehead" class="notehead"><use href="#E0A4-m1fwuts2" transform="translate(10992, 630) scale(0.72, 0.72)"/></g><g data-id="r1feo0r3" data-class="stem" class="stem"><path d="M11001 658 L11001 1422" stroke-width="18"/></g></g></g></g></g><g data-id="w1s0y8ue" data-class="barLine" class="barLine"><path d="M11490 540 L11490 1260" stroke-width="27"/></g></g><g data-id="x95gq9e" data-class="measure" class="measure"><g data-id="e1ushk5q" data-class="staff" class="staff"><path d="M11503 540 L14003 540" stroke-width="13"/><path d="M11503 720 L14003 720" stroke-width="13"/><path d="M11503 900 L14003 900" stroke-width="13"/><path d="M11503 1080 L14003 1080" stroke-width="13"/><path d="M11503 1260 L14003 1260" stroke-width="13"/><g data-id="fqhq2dv" data-class="layer" class="layer"><g data-id="v1kyryxn" data-class="note" class="note"><g data-class="notehead" class="notehead"><use href="#E0A4-m1fwuts2" transform="translate(11702, 630) scale(0.72, 0.72)"/></g><g data-id="s1i7mjrw" data-class="stem" class="stem"><path d="M11711 658 L11711 1260" stroke-width="18"/></g></g><g data-id="wawu7nz" data-class="note" class="note"><g data-class="notehead" class="notehead"><use href="#E0A4-m1fwuts2" transform="translate(12465, 720) scale(0.72, 0.72)"/></g><g data-id="t1prb9ir" data-class="stem" class="stem"><path d="M12474 748 L12474 1350" stroke-width="18"/></g><g data-id="f1498807" data-class="accid" class="accid"/></g><g data-id="g83br0v" data-class="rest" class="rest"><use href="#E4E5-m1fwuts2" transform="translate(13227, 900) scale(0.72, 0.72)"/></g></g></g><g data-id="f1oqm8bu" data-class="barLine" class="barLine"><path d="M13990 540 L13990 1260" stroke-width="27"/></g></g><g data-id="n1gqb1hl" data-class="systemMilestoneEnd" class="systemMilestoneEnd k9egc38"/></g><g data-id="o1kpojc6" data-class="pageMilestoneEnd" class="pageMilestoneEnd inlh68"/><g data-id="pu6boxx" data-class="pageMilestoneEnd" class="pageMilestoneEnd h1rwh780"/></g></svg></svg>