<svg viewBox="0 0 560 84" version="1.1" xmlns="http://www.w3.org/2000/svg" xmlns:xlink="http://www.w3.org/1999/xlink" overflow="visible" id="o1d0a4pm"><desc>Engraved by Verovio 5.6.0-85e7620</desc><defs><g id="E050-o1d0a4pm"><path transform="scale(1,-1)" d="M441 -245c-23 -4 -48 -6 -76 -6c-59 0 -102 7 -130 20c-88 42 -150 93 -187 154c-26 44 -43 103 -48 176c0 6 -1 13 -1 19c0 54 15 111 45 170c29 57 65 106 110 148s96 85 153 127c-3 16 -8 46 -13 92c-4 43 -5 73 -5 89c0 117 16 172 69 257c34 54 64 82 89 82 c21 0 43 -30 69 -92s39 -115 41 -159v-15c0 -109 -21 -162 -67 -241c-13 -20 -63 -90 -98 -118c-13 -9 -25 -19 -37 -29l31 -181c8 1 18 2 28 2c58 0 102 -12 133 -35c59 -43 92 -104 98 -184c1 -7 1 -15 1 -22c0 -123 -87 -209 -181 -248c8 -57 17 -110 25 -162 c5 -31 6 -58 6 -80c0 -30 -5 -53 -14 -70c-35 -64 -88 -99 -158 -103c-5 0 -11 -1 -16 -1c-37 0 -72 10 -108 27c-50 24 -77 59 -80 105v11c0 29 7 55 20 76c18 28 45 42 79 44h6c49 0 93 -42 97 -87v-9c0 -51 -34 -86 -105 -106c17 -24 51 -36 102 -36c62 0 116 43 140 85 c9 16 13 41 13 74c0 20 -1 42 -5 67c-8 53 -18 106 -26 159zM461 939c-95 0 -135 -175 -135 -286c0 -24 2 -48 5 -71c50 39 92 82 127 128c40 53 60 100 60 140v8c-4 53 -22 81 -55 81h-2zM406 119l54 -326c73 25 110 78 110 161c0 7 0 15 -1 23c-7 95 -57 142 -151 142h-12 zM382 117c-72 -2 -128 -47 -128 -120v-7c2 -46 43 -99 75 -115c-3 -2 -7 -5 -10 -10c-70 33 -116 88 -123 172v11c0 68 44 126 88 159c23 17 49 29 78 36l-29 170c-21 -13 -52 -37 -92 -73c-50 -44 -86 -84 -109 -119c-45 -69 -67 -130 -67 -182v-13c5 -68 35 -127 93 -176 s125 -73 203 -73c25 0 50 3 75 9c-19 111 -36 221 -54 331z"/></g><g id="E260-o1d0a4pm"><path transform="scale(1,-1)" d="M20 110c32 16 54 27 93 27c26 0 35 -3 54 -13c13 -7 24 -20 27 -38l4 -25c0 -28 -16 -57 -45 -89c-23 -25 -39 -44 -65 -68l-88 -79v644h20v-359zM90 106c-32 0 -48 -10 -70 -29v-194c31 31 54 59 71 84c21 32 32 59 32 84c0 9 1 16 1 20c0 14 -3 21 -11 30l-8 3z"/></g><g id="E08A-o1d0a4pm"><path transform="scale(1,-1)" d="M340 179c-9 24 -56 41 -89 41c-46 0 -81 -28 -100 -58c-17 -28 -25 -78 -25 -150c0 -65 2 -111 8 -135c8 -31 18 -49 40 -67c20 -17 43 -25 70 -25c54 0 92 36 115 75c14 25 23 54 28 88h27c0 -63 -24 -105 -58 -141c-35 -38 -82 -56 -140 -56c-45 0 -83 13 -115 39 c-57 45 -101 130 -101 226c0 59 33 127 68 163c36 37 97 72 160 72c36 0 93 -21 121 -40c11 -8 23 -17 33 -30c19 -23 27 -48 27 -76c0 -51 -35 -88 -86 -88c-43 0 -76 27 -76 68c0 26 7 35 21 51c15 17 32 27 58 32c7 2 14 7 14 11z"/></g><g id="E0A4-o1d0a4pm"><path transform="scale(1,-1)" d="M0 -39c0 68 73 172 200 172c66 0 114 -37 114 -95c0 -84 -106 -171 -218 -171c-64 0 -96 30 -96 94z"/></g><g id="E241-o1d0a4pm"><path transform="scale(1,-1)" d="M179 646c-4 8 -17 30 -18 33l-4 10c0 3 2 5 5 5s7 -2 13 -7c23 -33 46 -81 66 -132c22 -57 35 -125 35 -163c0 -104 -60 -183 -122 -241c-63 -59 -57 -53 -61 -56c-38 -34 -63 -95 -71 -95h-22v190c40 7 69 11 87 16c88 27 168 95 168 200c0 30 -12 89 -30 138 c-17 47 -31 73 -46 102z"/></g><g id="E242-o1d0a4pm"><path transform="scale(1,-1)" d="M206 -748c32 48 49 100 49 149c0 89 -55 168 -168 203c-18 5 -47 9 -87 16v190v190h22c8 0 33 -61 71 -95c4 -3 -2 3 61 -56c62 -58 122 -137 122 -241c0 -32 -7 -65 -17 -96c11 -29 17 -60 17 -94c0 -71 -32 -148 -67 -190c-6 -5 -10 -7 -13 -7s-5 2 -5 5l4 10 c1 3 6 8 11 16zM248 -463c4 18 7 38 7 57c0 105 -80 173 -168 200c-11 3 -27 6 -47 9c9 -17 23 -61 53 -88c4 -3 -2 3 61 -56c36 -33 71 -74 94 -122z"/></g></defs><style type="text/css">#o1d0a4pm g.page-margin {font-family:Times,serif;}#o1d0a4pm g.ending, #o1d0a4pm g.fing, #o1d0a4pm g.reh, #o1d0a4pm g.tempo {font-weight:bold;}#o1d0a4pm g.dir, #o1d0a4pm g.dynam, #o1d0a4pm g.mNum {font-style:italic;}#o1d0a4pm g.label {font-weight:normal;}#o1d0a4pm path {stroke:currentColor}</style><svg class="definition-scale" color="black" viewBox="0 0 14000 2100"><g class="page-margin" transform="translate(0, 150)"><g data-id="k127xjgt" data-class="mdiv" class="mdiv pageMilestone"/><g data-id="l1kx5t5k" data-class="score" class="score pageMilestone"/><g data-id="s1l5x1ng" data-class="system" class="system"><g data-id="n1s1b5iq" data-class="section" class="section systemMilestone"/><g data-id="pde2xw3" data-class="measure" class="measure"><g data-id="zsjikyd" data-class="staff" class="staff"><path d="M0 540 L2867 540" stroke-width="13"/><path d="M0 720 L2867 720" stroke-width="13"/><path d="M0 900 L2867 900" stroke-width="13"/><path d="M0 1080 L2867 1080" stroke-width="13"/><path d="M0 1260 L2867 1260" stroke-width="13"/><g data-id="w1o1oe9v" data-class="clef" class="clef"><use href="#E050-o1d0a4pm" transform="translate(90, 1080) scale(0.72, 0.72)"/></g><g data-id="x5d8rou" data-class="keySig" class="keySig"><g data-id="y1ba4xh2" data-class="keyAccid" class="keyAccid"><use href="#E260-o1d0a4pm" transform="translate(735, 900) scale(0.72, 0.72)"/></g><g data-id="z1xqqj1z" data-class="keyAccid" class="keyAccid"><use href="#E260-o1d0a4pm" transform="translate(915, 630) scale(0.72, 0.72)"/></g><g data-id="aem5web" data-class="keyAccid" class="keyAccid"><use href="#E260-o1d0a4pm" transform="translate(1095, 990) scale(0.72, 0.72)"/></g></g><g data-id="b5pwkim" data-class="meterSig" class="meterSig"><use href="#E08A-o1d0a4pm" transform="translate(1417, 900) scale(0.72, 0.72)"/></g><g data-id="a1d9bui4" data-class="layer" class="layer"><g data-id="iuip4bx" data-class="note" class="note"><g data-class="notehead" class="notehead"><use href="#E0A4-o1d0a4pm" transform="translate(1998, 900) scale(0.72, 0.72)"/></g><g data-id="w9xj9nb" data-class="stem" class="stem"><path d="M2007 928 L2007 1500" stroke-width="18"/></g><g data-id="ah5cadr" data-class="accid" class="accid"/></g></g></g><g data-id="x1651t65" data-class="barLine" class="barLine"><path d="M2854 540 L2854 1260" stroke-width="27"/></g></g><g data-id="ylo50w0" data-class="measure" class="measure"><g data-id="b1c1hirv" data-class="staff" class="staff"><path d="M2867 540 L6435 540" stroke-width="13"/><path d="M2867 720 L6435 720" stroke-width="13"/><path d="M2867 900 L6435 900" stroke-width="13"/><path d="M2867 1080 L6435 1080" stroke-width="13"/><path d="M2867 1260 L6435 1260" stroke-width="13"/><g data-id="c1me32t5" data-class="layer" class="layer"><g data-id="jz5gfjn" data-class="note" class="note"><g data-class="notehead" class="notehead"><use href="#E0A4-o1d0a4pm" transform="translate(3060, 450) scale(0.72, 0.72)"/></g><g data-id="y1bdcqbr" data-class="dots" class="dots"><ellipse cx="3376" cy="450" rx="36" ry="36" fill-opacity="1" stroke-opacity="1"/></g><g data-id="x5vxttu" data-class="stem" class="stem"><path d="M3069 478 L3069 1080" stroke-width="18"/></g></g><g data-id="kvmyyj6" data-class="note" class="note"><g data-class="notehead" class="notehead"><use href="#E0A4-o1d0a4pm" transform="translate(4153, 450) scale(0.72, 0.72)"/></g><g data-id="z14v3yy0" data-class="stem" class="stem"><path d="M4162 478 L4162 1080" stroke-width="18"/><g data-id="a1kvdlcg" data-class="flag" class="flag"><use href="#E241-o1d0a4pm" transform="translate(4153, 1080) scale(0.72, 0.72)"/></g></g></g><g data-id="lwv24aa" data-class="note" class="note"><g data-class="notehead" class="notehead"><use href="#E0A4-o1d0a4pm" transform="translate(4711, 540) scale(0.72, 0.72)"/></g><g data-id="b16tnk1b" data-class="stem" class="stem"><path d="M4720 568 L4720 1170" stroke-width="18"/></g></g><g data-id="mshcv0z" data-class="note" class="note"><g data-class="notehead" class="notehead"><use href="#E0A4-o1d0a4pm" transform="translate(5567, 630) scale(0.72, 0.72)"/></g><g data-id="clvvexy" data-class="stem" class="stem"><path d="M5576 658 L5576 1260" stroke-width="18"/></g><g data-id="b1myg3ar" data-class="accid" class="accid"/></g></g></g><g data-id="g1sc367j" data-class="barLine" class="barLine"><path d="M6422 540 L6422 1260" stroke-width="27"/></g></g><g data-id="h1rrkt6q" data-class="measure" class="measure"><g data-id="dhq25c" data-class="staff" class="staff"><path d="M6435 540 L10003 540" stroke-width="13"/><path d="M6435 720 L10003 720" stroke-width="13"/><path d="M6435 900 L10003 900" stroke-width="13"/><path d="M6435 1080 L10003 1080" stroke-width="13"/><path d="M6435 1260 L10003 1260" stroke-width="13"/><g data-class="ledgerLines" class="ledgerLines above"><g data-class="lineDash" class="lineDash" data-related="#nyx5gxp"><path d="M6580 360 L6902 360" stroke-width="22"/></g><g data-class="lineDash" class="lineDash" data-related="#or4r0s9"><path d="M7673 360 L7995 360" stroke-width="22"/></g></g><g data-id="e1s1rnyi" data-class="layer" class="layer"><g data-id="nyx5gxp" data-class="note" class="note"><g data-class="notehead" class="notehead"><use href="#E0A4-o1d0a4pm" transform="translate(6628, 360) scale(0.72, 0.72)"/></g><g data-id="e13cgly1" data-class="dots" class="dots"><ellipse cx="6944" cy="270" rx="36" ry="36" fill-opacity="1" stroke-opacity="1"/></g><g data-id="d14h816b" data-class="stem" class="stem"><path d="M6637 388 L6637 990" stroke-width="18"/></g><g data-id="c7lkrkk" data-class="accid" class="accid"/></g><g data-id="or4r0s9" data-class="note" class="note"><g data-class="notehead" class="notehead"><use href="#E0A4-o1d0a4pm" transform="translate(7721, 360) scale(0.72, 0.72)"/></g><g data-id="f1b61f6" data-class="stem" class="stem"><path d="M7730 388 L7730 990" stroke-width="18"/><g data-id="g1e285jp" data-class="flag" class="flag"><use href="#E241-o1d0a4pm" transform="translate(7721, 990) scale(0.72, 0.72)"/></g></g><g data-id="d1o1v2na" data-class="accid" class="accid"/></g><g data-id="p15feqdq" data-class="note" class="note"><g data-class="notehead" class="notehead"><use href="#E0A4-o1d0a4pm" transform="translate(8279, 450) scale(0.72, 0.72)"/></g><g data-id="h1162a5a" data-class="stem" class="stem"><path d="M8288 478 L8288 1080" stroke-width="18"/></g></g><g data-id="qdyhlps" data-class="note" class="note"><g data-class="notehead" class="notehead"><use href="#E0A4-o1d0a4pm" transform="translate(9135, 540) scale(0.72, 0.72)"/></g><g data-id="ix33cfl" data-class="stem" class="stem"><path d="M9144 568 L9144 1170" stroke-width="18"/></g></g></g></g><g data-id="p1yl8kid" data-class="barLine" class="barLine"><path d="M9990 540 L9990 1260" stroke-width="27"/></g></g><g data-id="q1o6hjxj" data-class="measure" class="measure"><g data-id="f1rd7myh" data-class="staff" class="staff"><path d="M10003 540 L14001 540" stroke-width="13"/><path d="M10003 720 L14001 720" stroke-width="13"/><path d="M10003 900 L14001 900" stroke-width="13"/><path d="M10003 1080 L14001 1080" stroke-width="13"/><path d="M10003 1260 L14001 1260" stroke-width="13"/><g data-id="g1w0msil" data-class="layer" class="layer"><g data-id="r1y7jg8i" data-class="note" class="note"><g data-class="notehead" class="notehead"><use href="#E0A4-o1d0a4pm" transform="translate(10196, 900) scale(0.72, 0.72)"/></g><g data-id="j1d35shk" data-class="stem" class="stem"><path d="M10205 928 L10205 1500" stroke-width="18"/></g><g data-id="ex22bka" data-class="accid" class="accid"/></g><g data-id="siq2h50" data-class="note" class="note"><g data-class="notehead" class="notehead"><use href="#E0A4-o1d0a4pm" transform="translate(11052, 810) scale(0.72, 0.72)"/></g><g data-id="l2k5jlw" data-class="dots" class="dots"><ellipse cx="11368" cy="810" rx="36" ry="36" fill-opacity="1" stroke-opacity="1"/></g><g data-id="k146v6gc" data-class="stem" class="stem"><path d="M11061 838 L11061 1440" stroke-width="18"/><g data-id="m1k6hdhs" data-class="flag" class="flag"><use href="#E241-o1d0a4pm" transform="translate(11052, 1440) scale(0.72, 0.72)"/></g></g></g><g data-id="tf8yanm" data-class="note" class="note"><g data-class="notehead" class="notehead"><use href="#E0A4-o1d0a4pm" transform="translate(11772, 990) scale(0.72, 0.72)"/></g><g data-id="nj5hspp" data-class="stem" class="stem"><path d="M11989 962 L11989 360" stroke-width="18"/><g data-id="owja2gt" data-class="flag" class="flag"><use href="#E242-o1d0a4pm" transform="translate(11980, 360) scale(0.72, 0.72)"/></g></g><g data-id="flebl29" data-class="accid" class="accid"/></g><g data-id="u15tj1rt" data-class="note" class="note"><g data-class="notehead" class="notehead"><use href="#E0A4-o1d0a4pm" transform="translate(12276, 990) scale(0.72, 0.72)"/></g><g data-id="p1i78oso" data-class="stem" class="stem"><path d="M12493 962 L12493 360" stroke-width="18"/></g><g data-id="g1954ueh" data-class="accid" class="accid"/></g><g data-id="vnua1vj" data-class="note" class="note"><g data-class="notehead" class="notehead"><use href="#E0A4-o1d0a4pm" transform="translate(13132, 1080) scale(0.72, 0.72)"/></g><g data-id="qirlt2" data-class="stem" class="stem"><path d="M13349 1052 L13349 450" stroke-width="18"/></g></g></g></g><g data-id="y32qtbw" data-class="barLine" class="barLine"><path d="M13988 540 L13988 1260" stroke-width="27"/></g></g></g></g></svg></svg>