<svg viewBox="0 0 560 84" version="1.1" xmlns="http://www.w3.org/2000/svg" xmlns:xlink="http://www.w3.org/1999/xlink" overflow="visible" id="yr5utky"><desc>Engraved by Verovio 5.6.0-85e7620</desc><defs><g id="E050-yr5utky"><path transform="scale(1,-1)" d="M441 -245c-23 -4 -48 -6 -76 -6c-59 0 -102 7 -130 20c-88 42 -150 93 -187 154c-26 44 -43 103 -48 176c0 6 -1 13 -1 19c0 54 15 111 45 170c29 57 65 106 110 148s96 85 153 127c-3 16 -8 46 -13 92c-4 43 -5 73 -5 89c0 117 16 172 69 257c34 54 64 82 89 82 c21 0 43 -30 69 -92s39 -115 41 -159v-15c0 -109 -21 -162 -67 -241c-13 -20 -63 -90 -98 -118c-13 -9 -25 -19 -37 -29l31 -181c8 1 18 2 28 2c58 0 102 -12 133 -35c59 -43 92 -104 98 -184c1 -7 1 -15 1 -22c0 -123 -87 -209 -181 -248c8 -57 17 -110 25 -162 c5 -31 6 -58 6 -80c0 -30 -5 -53 -14 -70c-35 -64 -88 -99 -158 -103c-5 0 -11 -1 -16 -1c-37 0 -72 10 -108 27c-50 24 -77 59 -80 105v11c0 29 7 55 20 76c18 28 45 42 79 44h6c49 0 93 -42 97 -87v-9c0 -51 -34 -86 -105 -106c17 -24 51 -36 102 -36c62 0 116 43 140 85 c9 16 13 41 13 74c0 20 -1 42 -5 67c-8 53 -18 106 -26 159zM461 939c-95 0 -135 -175 -135 -286c0 -24 2 -48 5 -71c50 39 92 82 127 128c40 53 60 100 60 140v8c-4 53 -22 81 -55 81h-2zM406 119l54 -326c73 25 110 78 110 161c0 7 0 15 -1 23c-7 95 -57 142 -151 142h-12 zM382 117c-72 -2 -128 -47 -128 -120v-7c2 -46 43 -99 75 -115c-3 -2 -7 -5 -10 -10c-70 33 -116 88 -123 172v11c0 68 44 126 88 159c23 17 49 29 78 36l-29 170c-21 -13 -52 -37 -92 -73c-50 -44 -86 -84 -109 -119c-45 -69 -67 -130 -67 -182v-13c5 -68 35 -127 93 -176 s125 -73 203 -73c25 0 50 3 75 9c-19 111 -36 221 -54 331z"/></g><g id="E089-yr5utky"><path transform="scale(1,-1)" d="M139 107c0 -51 22 -104 66 -104c38 0 64 48 64 110c0 50 -31 100 -64 100c-40 0 -66 -56 -66 -106zM114 -74c40 0 72 -27 72 -65c0 -8 -3 -19 -9 -34l-7 -16l-5 -15c2 -8 12 -12 31 -12c56 0 84 73 84 219c-32 -24 -71 -36 -119 -36c-29 0 -56 6 -79 20 c-51 26 -57 78 -62 108c0 64 56 155 188 155c158 0 197 -151 197 -237c0 -145 -92 -263 -207 -263c-109 0 -155 68 -155 101c0 46 33 75 71 75z"/></g><g id="E088-yr5utky"><path transform="scale(1,-1)" d="M195 -214c76 0 88 58 90 68c0 34 -35 60 -57 73l-52 29c-21 10 -32 17 -34 20c-39 -33 -58 -54 -62 -92c5 -23 23 -98 115 -98zM301 135c0 61 -72 76 -113 76c-40 0 -77 -17 -77 -51c3 -21 15 -38 26 -50c17 -15 33 -26 48 -34l65 -28c34 27 51 56 51 87zM176 -250 c-57 0 -166 26 -166 132c0 47 30 86 89 116c-33 15 -79 60 -79 119c0 79 85 132 178 132h18c5 0 21 1 28 -1c25 0 126 -30 126 -110c0 -37 -23 -76 -69 -116c43 -25 83 -71 83 -119c0 -101 -118 -153 -208 -153z"/></g><g id="E0A4-yr5utky"><path transform="scale(1,-1)" d="M0 -39c0 68 73 172 200 172c66 0 114 -37 114 -95c0 -84 -106 -171 -218 -171c-64 0 -96 30 -96 94z"/></g><g id="E240-yr5utky"><path transform="scale(1,-1)" d="M179 -646c15 29 29 55 46 102c18 49 30 108 30 138c0 105 -80 173 -168 200c-18 5 -47 9 -87 16v190h22c8 0 33 -61 71 -95c4 -3 -2 3 61 -56c62 -58 122 -137 122 -241c0 -38 -13 -106 -35 -163c-20 -51 -43 -99 -66 -132c-6 -5 -10 -7 -13 -7s-5 2 -5 5l4 10 c1 3 14 25 18 33z"/></g><g id="E241-yr5utky"><path transform="scale(1,-1)" d="M179 646c-4 8 -17 30 -18 33l-4 10c0 3 2 5 5 5s7 -2 13 -7c23 -33 46 -81 66 -132c22 -57 35 -125 35 -163c0 -104 -60 -183 -122 -241c-63 -59 -57 -53 -61 -56c-38 -34 -63 -95 -71 -95h-22v190c40 7 69 11 87 16c88 27 168 95 168 200c0 30 -12 89 -30 138 c-17 47 -31 73 -46 102z"/></g></defs><style type="text/css">#yr5utky g.page-margin {font-family:Times,serif;}#yr5utky g.ending, #yr5utky g.fing, #yr5utky g.reh, #yr5utky g.tempo {font-weight:bold;}#yr5utky g.dir, #yr5utky g.dynam, #yr5utky g.mNum {font-style:italic;}#yr5utky g.label {font-weight:normal;}#yr5utky path {stroke:currentColor}</style><svg class="definition-scale" color="black" viewBox="0 0 14000 2100"><g class="page-margin" transform="translate(0, 150)"><g data-id="vspeyx2" data-class="mdiv" class="mdiv pageMilestone"/><g data-id="wn7md8k" data-class="score" class="score pageMilestone"/><g data-id="e1n7bpbu" data-class="system" class="system"><g data-id="y3r1uiz" data-class="section" class="section systemMilestone"/><g data-id="z1m03mxu" data-class="measure" class="measure"><g data-id="k1mhq6gs" data-class="staff" class="staff"><path d="M0 540 L3198 540" stroke-width="13"/><path d="M0 720 L3198 720" stroke-width="13"/><path d="M0 900 L3198 900" stroke-width="13"/><path d="M0 1080 L3198 1080" stroke-width="13"/><path d="M0 1260 L3198 1260" stroke-width="13"/><g data-id="w1liu2us" data-class="clef" class="clef"><use href="#E050-yr5utky" transform="translate(90, 1080) scale(0.72, 0.72)"/></g><g data-id="x10efa53" data-class="keySig" class="keySig"/><g data-id="y11rq8yg" data-class="meterSig" class="meterSig"><use href="#E089-yr5utky" transform="translate(721, 720) scale(0.72, 0.72)"/><use href="#E088-yr5utky" transform="translate(729, 1080) scale(0.72, 0.72)"/></g><g data-id="l1ci8b0w" data-class="layer" class="layer"><g data-id="t1x172iu" data-class="note" class="note"><g data-class="notehead" class="notehead"><use href="#E0A4-yr5utky" transform="translate(1292, 1080) scale(0.72, 0.72)"/></g><g data-id="e1xegc96" data-class="stem" class="stem"><path d="M1509 1052 L1509 450" stroke-width="18"/><g data-id="f1nm5im1" data-class="flag" class="flag"><use href="#E240-yr5utky" transform="translate(1500, 450) scale(0.72, 0.72)"/></g></g></g><g data-id="p6g0bg9" data-class="beam" class="beam"><polygon stroke-opacity="1" fill-opacity="1" points="1765,1665 2257,1620 2257,1530 1765,1575"/><g data-id="udp7bp9" data-class="note" class="note"><g data-class="notehead" class="notehead"><use href="#E0A4-yr5utky" transform="translate(1765, 1080) scale(0.72, 0.72)"/></g><g data-id="g1hn6txf" data-class="stem" class="stem"><path d="M1774 1108 L1774 1647" stroke-width="18"/></g></g><g data-id="v1u2w1br" data-class="note" class="note"><g data-class="notehead" class="notehead"><use href="#E0A4-yr5utky" transform="translate(2239, 630) scale(0.72, 0.72)"/></g><g data-id="hg9pcol" data-class="stem" class="stem"><path d="M2248 658 L2248 1602" stroke-width="18"/></g></g></g><g data-id="wjljxpe" data-class="note" class="note"><g data-class="notehead" class="notehead"><use href="#E0A4-yr5utky" transform="translate(2712, 810) scale(0.72, 0.72)"/></g><g data-id="i1ptk7l2" data-class="stem" class="stem"><path d="M2721 838 L2721 1440" stroke-width="18"/><g data-id="j3my7bg" data-class="flag" class="flag"><use href="#E241-yr5utky" transform="translate(2712, 1440) scale(0.72, 0.72)"/></g></g></g></g></g><g data-id="h62bem1" data-class="barLine" class="barLine"><path d="M3185 540 L3185 1260" stroke-width="27"/></g></g><g data-id="iknpxkh" data-class="measure" class="measure"><g data-id="mqbfcan" data-class="staff" class="staff"><path d="M3198 540 L6946 540" stroke-width="13"/><path d="M3198 720 L6946 720" stroke-width="13"/><path d="M3198 900 L6946 900" stroke-width="13"/><path d="M3198 1080 L6946 1080" stroke-width="13"/><path d="M3198 1260 L6946 1260" stroke-width="13"/><g data-id="na5cbzx" data-class="layer" class="layer"><g data-id="xzw21zm" data-class="note" class="note"><g data-class="notehead" class="notehead"><use href="#E0A4-yr5utky" transform="translate(3388, 900) scale(0.72, 0.72)"/></g><g data-id="l16r02mj" data-class="dots" class="dots"><ellipse cx="3704" cy="810" rx="36" ry="36" fill-opacity="1" stroke-opacity="1"/></g><g data-id="kst8zh" data-class="stem" class="stem"><path d="M3397 928 L3397 1500" stroke-width="18"/></g></g><g data-id="yu7o46l" data-class="note" class="note"><g data-class="notehead" class="notehead"><use href="#E0A4-yr5utky" transform="translate(4314, 990) scale(0.72, 0.72)"/></g><g data-id="mctukm5" data-class="stem" class="stem"><path d="M4531 962 L4531 360" stroke-width="18"/></g></g><g data-id="zh137y9" data-class="note" class="note"><g data-class="notehead" class="notehead"><use href="#E0A4-yr5utky" transform="translate(5041, 990) scale(0.72, 0.72)"/></g><g data-id="n1ova5zi" data-class="stem" class="stem"><path d="M5258 962 L5258 360" stroke-width="18"/><g data-id="ojy85q7" data-class="flag" class="flag"><use href="#E240-yr5utky" transform="translate(5249, 360) scale(0.72, 0.72)"/></g></g></g><g data-id="qfg8r6g" data-class="beam" class="beam"><polygon stroke-opacity="1" fill-opacity="1" points="5514,1575 6005,1530 6005,1440 5514,1485"/><g data-id="a1q55v8h" data-class="note" class="note"><g data-class="notehead" class="notehead"><use href="#E0A4-yr5utky" transform="translate(5514, 990) scale(0.72, 0.72)"/></g><g data-id="pf5r6wz" data-class="stem" class="stem"><path d="M5523 1018 L5523 1557" stroke-width="18"/></g></g><g data-id="b1g85knh" data-class="note" class="note"><g data-class="notehead" class="notehead"><use href="#E0A4-yr5utky" transform="translate(5987, 540) scale(0.72, 0.72)"/></g><g data-id="q1pzqc7f" data-class="stem" class="stem"><path d="M5996 568 L5996 1512" stroke-width="18"/></g></g></g><g data-id="c15u841m" data-class="note" class="note"><g data-class="notehead" class="notehead"><use href="#E0A4-yr5utky" transform="translate(6460, 720) scale(0.72, 0.72)"/></g><g data-id="r1il3jqm" data-class="stem" class="stem"><path d="M6469 748 L6469 1350" stroke-width="18"/><g data-id="s1hljwni" data-class="flag" class="flag"><use href="#E241-yr5utky" transform="translate(6460, 1350) scale(0.72, 0.72)"/></g></g></g></g></g><g data-id="q1ai7crk" data-class="barLine" class="barLine"><path d="M6933 540 L6933 1260" stroke-width="27"/></g></g><g data-id="rwzcvju" data-class="measure" class="measure"><g data-id="o66225j" data-class="staff" class="staff"><path d="M6946 540 L10474 540" stroke-width="13"/><path d="M6946 720 L10474 720" stroke-width="13"/><path d="M6946 900 L10474 900" stroke-width="13"/><path d="M6946 1080 L10474 1080" stroke-width="13"/><path d="M6946 1260 L10474 1260" stroke-width="13"/><g data-class="ledgerLines" class="ledgerLines above"><g data-class="lineDash" class="lineDash" data-related="#h8slia8"><path d="M9940 360 L10262 360" stroke-width="22"/></g></g><g data-id="ptgl595" data-class="layer" class="layer"><g data-id="d1whvlvp" data-class="note" class="note"><g data-class="notehead" class="notehead"><use href="#E0A4-yr5utky" transform="translate(7136, 900) scale(0.72, 0.72)"/></g><g data-id="ugqogzy" data-class="dots" class="dots"><ellipse cx="7452" cy="810" rx="36" ry="36" fill-opacity="1" stroke-opacity="1"/></g><g data-id="twsi2n8" data-class="stem" class="stem"><path d="M7145 928 L7145 1500" stroke-width="18"/></g></g><g data-id="e1rvo991" data-class="note" class="note"><g data-class="notehead" class="notehead"><use href="#E0A4-yr5utky" transform="translate(8062, 900) scale(0.72, 0.72)"/></g><g data-id="vvefb4w" data-class="stem" class="stem"><path d="M8071 928 L8071 1500" stroke-width="18"/></g></g><g data-id="f1ol9nr6" data-class="note" class="note"><g data-class="notehead" class="notehead"><use href="#E0A4-yr5utky" transform="translate(8789, 720) scale(0.72, 0.72)"/></g><g data-id="w1dox7nz" data-class="stem" class="stem"><path d="M8798 748 L8798 1350" stroke-width="18"/><g data-id="xy1f593" data-class="flag" class="flag"><use href="#E241-yr5utky" transform="translate(8789, 1350) scale(0.72, 0.72)"/></g></g></g><g data-id="gxeykhn" data-class="note" class="note"><g data-class="notehead" class="notehead"><use href="#E0A4-yr5utky" transform="translate(9262, 540) scale(0.72, 0.72)"/></g><g data-id="y3udvks" data-class="stem" class="stem"><path d="M9271 568 L9271 1170" stroke-width="18"/></g></g><g data-id="h8slia8" data-class="note" class="note"><g data-class="notehead" class="notehead"><use href="#E0A4-yr5utky" transform="translate(9988, 360) scale(0.72, 0.72)"/></g><g data-id="zg297hm" data-class="stem" class="stem"><path d="M9997 388 L9997 990" stroke-width="18"/><g data-id="a1dfdgze" data-class="flag" class="flag"><use href="#E241-yr5utky" transform="translate(9988, 990) scale(0.72, 0.72)"/></g></g></g></g></g><g data-id="r9mm2zq" data-class="tie" class="tie"><path d="M7407,698 C7549,544 7871,544 8017,698 C7854,593 7568,593 7407,698" stroke-linecap="round" stroke-linejoin="round" stroke-width="9"/></g><g data-id="zfafalv" data-class="barLine" class="barLine"><path d="M10461 540 L10461 1260" stroke-width="27"/></g></g><g data-id="a1gv13tp" data-class="measure" class="measure"><g data-id="qorb7h4" data-class="staff" class="staff"><path d="M10474 540 L14002 540" stroke-width="13"/><path d="M10474 720 L14002 720" stroke-width="13"/><path d="M10474 900 L14002 900" stroke-width="13"/><path d="M10474 1080 L14002 1080" stroke-width="13"/><path d="M10474 1260 L14002 1260" stroke-width="13"/><g data-id="r138i1vh" data-class="layer" class="layer"><g data-id="i1xdmg4r" data-class="note" class="note"><g data-class="notehead" class="notehead"><use href="#E0A4-yr5utky" transform="translate(10664, 450) scale(0.72, 0.72)"/></g><g data-id="cmdx31t" data-class="dots" class="dots"><ellipse cx="10980" cy="450" rx="36" ry="36" fill-opacity="1" stroke-opacity="1"/></g><g data-id="b1m3wlcm" data-class="stem" class="stem"><path d="M10673 478 L10673 1080" stroke-width="18"/></g></g><g data-id="jfsajy4" data-class="note" class="note"><g data-class="notehead" class="notehead"><use href="#E0A4-yr5utky" transform="translate(11590, 450) scale(0.72, 0.72)"/></g><g data-id="dtv0ub7" data-class="stem" class="stem"><path d="M11599 478 L11599 1080" stroke-width="18"/></g></g><g data-id="k6l9a5b" data-class="note" class="note"><g data-class="notehead" class="notehead"><use href="#E0A4-yr5utky" transform="translate(12317, 630) scale(0.72, 0.72)"/></g><g data-id="elfvtf0" data-class="stem" class="stem"><path d="M12326 658 L12326 1260" stroke-width="18"/><g data-id="f1t4n78o" data-class="flag" class="flag"><use href="#E241-yr5utky" transform="translate(12317, 1260) scale(0.72, 0.72)"/></g></g></g><g data-id="ljbbhgd" data-class="note" class="note"><g data-class="notehead" class="notehead"><use href="#E0A4-yr5utky" transform="translate(12790, 720) scale(0.72, 0.72)"/></g><g data-id="g1oh31nl" data-class="stem" class="stem"><path d="M12799 748 L12799 1350" stroke-width="18"/></g></g><g data-id="m58jb1d" data-class="note" class="note"><g data-class="notehead" class="notehead"><use href="#E0A4-yr5utky" transform="translate(13516, 630) scale(0.72, 0.72)"/></g><g data-id="h11bxgbk" data-class="stem" class="stem"><path d="M13525 658 L13525 1260" stroke-width="18"/><g data-id="i1291oeg" data-class="flag" class="flag"><use href="#E241-yr5utky" transform="translate(13516, 1260) scale(0.72, 0.72)"/></g></g></g></g></g><g data-id="sqigdyn" data-class="tie" class="tie"><path d="M10935,338 C11077,184 11399,184 11545,338 C11382,233 11096,233 10935,338" stroke-linecap="round" stroke-linejoin="round" stroke-width="9"/></g><g data-id="i1xa6mcn" data-class="barLine" class="barLine"><path d="M13989 540 L13989 1260" stroke-width="27"/></g></g></g></g></svg></svg>