<svg viewBox="0 0 560 84" version="1.1" xmlns="http://www.w3.org/2000/svg" xmlns:xlink="http://www.w3.org/1999/xlink" overflow="visible" id="z6faz7r"><desc>Engraved by Verovio 5.6.0-85e7620</desc><defs><g id="E050-z6faz7r"><path transform="scale(1,-1)" d="M441 -245c-23 -4 -48 -6 -76 -6c-59 0 -102 7 -130 20c-88 42 -150 93 -187 154c-26 44 -43 103 -48 176c0 6 -1 13 -1 19c0 54 15 111 45 170c29 57 65 106 110 148s96 85 153 127c-3 16 -8 46 -13 92c-4 43 -5 73 -5 89c0 117 16 172 69 257c34 54 64 82 89 82 c21 0 43 -30 69 -92s39 -115 41 -159v-15c0 -109 -21 -162 -67 -241c-13 -20 -63 -90 -98 -118c-13 -9 -25 -19 -37 -29l31 -181c8 1 18 2 28 2c58 0 102 -12 133 -35c59 -43 92 -104 98 -184c1 -7 1 -15 1 -22c0 -123 -87 -209 -181 -248c8 -57 17 -110 25 -162 c5 -31 6 -58 6 -80c0 -30 -5 -53 -14 -70c-35 -64 -88 -99 -158 -103c-5 0 -11 -1 -16 -1c-37 0 -72 10 -108 27c-50 24 -77 59 -80 105v11c0 29 7 55 20 76c18 28 45 42 79 44h6c49 0 93 -42 97 -87v-9c0 -51 -34 -86 -105 -106c17 -24 51 -36 102 -36c62 0 116 43 140 85 c9 16 13 41 13 74c0 20 -1 42 -5 67c-8 53 -18 106 -26 159zM461 939c-95 0 -135 -175 -135 -286c0 -24 2 -48 5 -71c50 39 92 82 127 128c40 53 60 100 60 140v8c-4 53 -22 81 -55 81h-2zM406 119l54 -326c73 25 110 78 110 161c0 7 0 15 -1 23c-7 95 -57 142 -151 142h-12 zM382 117c-72 -2 -128 -47 -128 -120v-7c2 -46 43 -99 75 -115c-3 -2 -7 -5 -10 -10c-70 33 -116 88 -123 172v11c0 68 44 126 88 159c23 17 49 29 78 36l-29 170c-21 -13 -52 -37 -92 -73c-50 -44 -86 -84 -109 -119c-45 -69 -67 -130 -67 -182v-13c5 -68 35 -127 93 -176 s125 -73 203 -73c25 0 50 3 75 9c-19 111 -36 221 -54 331z"/></g><g id="E086-z6faz7r"><path transform="scale(1,-1)" d="M284 -91c0 37 -28 92 -67 92c-35 0 -65 -54 -65 -111c0 -52 22 -104 68 -104c47 0 64 68 64 123zM230 214c-36 0 -90 -33 -90 -184l2 -36c40 24 81 36 120 36c80 0 140 -48 140 -121c0 -99 -99 -159 -182 -159c-160 0 -200 173 -200 244c0 21 2 43 7 71l10 35 c26 85 73 115 98 126c41 19 74 24 103 24c93 0 142 -63 142 -105c0 -58 -52 -72 -73 -72c-33 0 -59 24 -65 35c-3 5 -6 14 -7 25l11 30c6 15 9 27 9 35c0 11 -9 16 -25 16z"/></g><g id="E088-z6faz7r"><path transform="scale(1,-1)" d="M195 -214c76 0 88 58 90 68c0 34 -35 60 -57 73l-52 29c-21 10 -32 17 -34 20c-39 -33 -58 -54 -62 -92c5 -23 23 -98 115 -98zM301 135c0 61 -72 76 -113 76c-40 0 -77 -17 -77 -51c3 -21 15 -38 26 -50c17 -15 33 -26 48 -34l65 -28c34 27 51 56 51 87zM176 -250 c-57 0 -166 26 -166 132c0 47 30 86 89 116c-33 15 -79 60 -79 119c0 79 85 132 178 132h18c5 0 21 1 28 -1c25 0 126 -30 126 -110c0 -37 -23 -76 -69 -116c43 -25 83 -71 83 -119c0 -101 -118 -153 -208 -153z"/></g><g id="E0A4-z6faz7r"><path transform="scale(1,-1)" d="M0 -39c0 68 73 172 200 172c66 0 114 -37 114 -95c0 -84 -106 -171 -218 -171c-64 0 -96 30 -96 94z"/></g><g id="E240-z6faz7r"><path transform="scale(1,-1)" d="M179 -646c15 29 29 55 46 102c18 49 30 108 30 138c0 105 -80 173 -168 200c-18 5 -47 9 -87 16v190h22c8 0 33 -61 71 -95c4 -3 -2 3 61 -56c62 -58 122 -137 122 -241c0 -38 -13 -106 -35 -163c-20 -51 -43 -99 -66 -132c-6 -5 -10 -7 -13 -7s-5 2 -5 5l4 10 c1 3 14 25 18 33z"/></g><g id="E241-z6faz7r"><path transform="scale(1,-1)" d="M179 646c-4 8 -17 30 -18 33l-4 10c0 3 2 5 5 5s7 -2 13 -7c23 -33 46 -81 66 -132c22 -57 35 -125 35 -163c0 -104 -60 -183 -122 -241c-63 -59 -57 -53 -61 -56c-38 -34 -63 -95 -71 -95h-22v190c40 7 69 11 87 16c88 27 168 95 168 200c0 30 -12 89 -30 138 c-17 47 -31 73 -46 102z"/></g></defs><style type="text/css">#z6faz7r g.page-margin {font-family:Times,serif;}#z6faz7r g.ending, #z6faz7r g.fing, #z6faz7r g.reh, #z6faz7r g.tempo {font-weight:bold;}#z6faz7r g.dir, #z6faz7r g.dynam, #z6faz7r g.mNum {font-style:italic;}#z6faz7r g.label {font-weight:normal;}#z6faz7r path {stroke:currentColor}</style><svg class="definition-scale" color="black" viewBox="0 0 14000 2100"><g class="page-margin" transform="translate(0, 150)"><g data-id="n1ve1wb3" data-class="mdiv" class="mdiv pageMilestone"/><g data-id="o1dj923y" data-class="score" class="score pageMilestone"/><g data-id="ep5oa9i" data-class="system" class="system"><g data-id="qxf7xvu" data-class="section" class="section systemMilestone"/><g data-id="a1ri9q76" data-class="measure" class="measure"><g data-id="cfzjuut" data-class="staff" class="staff"><path d="M0 540 L3093 540" stroke-width="13"/><path d="M0 720 L3093 720" stroke-width="13"/><path d="M0 900 L3093 900" stroke-width="13"/><path d="M0 1080 L3093 1080" stroke-width="13"/><path d="M0 1260 L3093 1260" stroke-width="13"/><g data-id="mp9ny0o" data-class="clef" class="clef"><use href="#E050-z6faz7r" transform="translate(90, 1080) scale(0.72, 0.72)"/></g><g data-id="nsbsegq" data-class="keySig" class="keySig"/><g data-id="o1g4otl0" data-class="meterSig" class="meterSig"><use href="#E086-z6faz7r" transform="translate(721, 720) scale(0.72, 0.72)"/><use href="#E088-z6faz7r" transform="translate(728, 1080) scale(0.72, 0.72)"/></g><g data-id="dxra3vi" data-class="layer" class="layer"><g data-id="trvq0eb" data-class="note" class="note"><g data-class="notehead" class="notehead"><use href="#E0A4-z6faz7r" transform="translate(1280, 1080) scale(0.72, 0.72)"/></g><g data-id="wfctryr" data-class="stem" class="stem"><path d="M1497 1052 L1497 450" stroke-width="18"/><g data-id="xca12pm" data-class="flag" class="flag"><use href="#E240-z6faz7r" transform="translate(1488, 450) scale(0.72, 0.72)"/></g></g></g><g data-id="k16wf9fb" data-class="beam" class="beam"><polygon stroke-opacity="1" fill-opacity="1" points="1730,1665 2198,1620 2198,1530 1730,1575"/><g data-id="uu89fre" data-class="note" class="note"><g data-class="notehead" class="notehead"><use href="#E0A4-z6faz7r" transform="translate(1730, 1080) scale(0.72, 0.72)"/></g><g data-id="yqq0mn6" data-class="stem" class="stem"><path d="M1739 1108 L1739 1647" stroke-width="18"/></g></g><g data-id="v5x8lg9" data-class="note" class="note"><g data-class="notehead" class="notehead"><use href="#E0A4-z6faz7r" transform="translate(2180, 630) scale(0.72, 0.72)"/></g><g data-id="z15w9t68" data-class="stem" class="stem"><path d="M2189 658 L2189 1602" stroke-width="18"/></g></g></g><g data-id="wan6n4u" data-class="note" class="note"><g data-class="notehead" class="notehead"><use href="#E0A4-z6faz7r" transform="translate(2630, 720) scale(0.72, 0.72)"/></g><g data-id="a1k0dfl9" data-class="stem" class="stem"><path d="M2639 748 L2639 1350" stroke-width="18"/><g data-id="b1jzooxg" data-class="flag" class="flag"><use href="#E241-z6faz7r" transform="translate(2630, 1350) scale(0.72, 0.72)"/></g></g></g></g></g><g data-id="izbl7jm" data-class="barLine" class="barLine"><path d="M3080 540 L3080 1260" stroke-width="27"/></g></g><g data-id="j1rcf8no" data-class="measure" class="measure"><g data-id="e12b7jo1" data-class="staff" class="staff"><path d="M3093 540 L6013 540" stroke-width="13"/><path d="M3093 720 L6013 720" stroke-width="13"/><path d="M3093 900 L6013 900" stroke-width="13"/><path d="M3093 1080 L6013 1080" stroke-width="13"/><path d="M3093 1260 L6013 1260" stroke-width="13"/><g data-id="f1o68lpg" data-class="layer" class="layer"><g data-id="x13q1nsq" data-class="note" class="note"><g data-class="notehead" class="notehead"><use href="#E0A4-z6faz7r" transform="translate(3273, 810) scale(0.72, 0.72)"/></g><g data-id="ceebl6" data-class="stem" class="stem"><path d="M3282 838 L3282 1440" stroke-width="18"/></g></g><g data-id="y1et0i71" data-class="note" class="note"><g data-class="notehead" class="notehead"><use href="#E0A4-z6faz7r" transform="translate(3963, 810) scale(0.72, 0.72)"/></g><g data-id="doj9uh4" data-class="stem" class="stem"><path d="M3972 838 L3972 1440" stroke-width="18"/><g data-id="e13l1iso" data-class="flag" class="flag"><use href="#E241-z6faz7r" transform="translate(3963, 1440) scale(0.72, 0.72)"/></g></g></g><g data-id="z1da6lts" data-class="note" class="note"><g data-class="notehead" class="notehead"><use href="#E0A4-z6faz7r" transform="translate(4279, 720) scale(0.54, 0.54)"/></g><g data-id="f13izvxu" data-class="stem" class="stem"><path d="M4439 699 L4439 315" stroke-width="18"/><path d="M4372 583 L4573 382" stroke-width="21"/><g data-id="gl73zz9" data-class="flag" class="flag"><use href="#E240-z6faz7r" transform="translate(4430, 315) scale(0.54, 0.54)"/></g></g></g><g data-id="l2xhc0t" data-class="beam" class="beam"><polygon stroke-opacity="1" fill-opacity="1" points="4650,1440 5118,1485 5118,1395 4650,1350"/><g data-id="a17xuncs" data-class="note" class="note"><g data-class="notehead" class="notehead"><use href="#E0A4-z6faz7r" transform="translate(4650, 810) scale(0.72, 0.72)"/></g><g data-id="ho9kmvw" data-class="stem" class="stem"><path d="M4659 838 L4659 1422" stroke-width="18"/></g></g><g data-id="bpfkwl5" data-class="note" class="note"><g data-class="notehead" class="notehead"><use href="#E0A4-z6faz7r" transform="translate(5100, 900) scale(0.72, 0.72)"/></g><g data-id="itv04o0" data-class="stem" class="stem"><path d="M5109 928 L5109 1467" stroke-width="18"/></g></g></g><g data-id="c1ozwd8h" data-class="note" class="note"><g data-class="notehead" class="notehead"><use href="#E0A4-z6faz7r" transform="translate(5550, 810) scale(0.72, 0.72)"/></g><g data-id="j1j8n14e" data-class="stem" class="stem"><path d="M5559 838 L5559 1440" stroke-width="18"/><g data-id="k16u4718" data-class="flag" class="flag"><use href="#E241-z6faz7r" transform="translate(5550, 1440) scale(0.72, 0.72)"/></g></g></g></g></g><g data-id="r18mcga" data-class="barLine" class="barLine"><path d="M6000 540 L6000 1260" stroke-width="27"/></g></g><g data-id="s12bd62l" data-class="measure" class="measure"><g data-id="g1qvsf8f" data-class="staff" class="staff"><path d="M6013 540 L7966 540" stroke-width="13"/><path d="M6013 720 L7966 720" stroke-width="13"/><path d="M6013 900 L7966 900" stroke-width="13"/><path d="M6013 1080 L7966 1080" stroke-width="13"/><path d="M6013 1260 L7966 1260" stroke-width="13"/><g data-id="hl317ch" data-class="layer" class="layer"><g data-id="dijmw1b" data-class="note" class="note"><g data-class="notehead" class="notehead"><use href="#E0A4-z6faz7r" transform="translate(6193, 720) scale(0.72, 0.72)"/></g><g data-id="m17k5eb8" data-class="dots" class="dots"><ellipse cx="6509" cy="630" rx="36" ry="36" fill-opacity="1" stroke-opacity="1"/></g><g data-id="lzo6ls6" data-class="stem" class="stem"><path d="M6202 748 L6202 1350" stroke-width="18"/></g></g><g data-id="e1bozr6t" data-class="note" class="note"><g data-class="notehead" class="notehead"><use href="#E0A4-z6faz7r" transform="translate(7073, 630) scale(0.72, 0.72)"/></g><g data-id="o5z92rn" data-class="dots" class="dots"><ellipse cx="7389" cy="630" rx="36" ry="36" fill-opacity="1" stroke-opacity="1"/></g><g data-id="n1ge9s7z" data-class="stem" class="stem"><path d="M7082 658 L7082 1260" stroke-width="18"/></g></g></g></g><g data-id="ajikz07" data-class="barLine" class="barLine"><path d="M7953 540 L7953 1260" stroke-width="27"/></g></g><g data-id="b1uuvh46" data-class="measure" class="measure"><g data-id="i1e63w2z" data-class="staff" class="staff"><path d="M7966 540 L10439 540" stroke-width="13"/><path d="M7966 720 L10439 720" stroke-width="13"/><path d="M7966 900 L10439 900" stroke-width="13"/><path d="M7966 1080 L10439 1080" stroke-width="13"/><path d="M7966 1260 L10439 1260" stroke-width="13"/><g data-id="j1wo0cbb" data-class="layer" class="layer"><g data-id="f190szau" data-class="note" class="note"><g data-class="notehead" class="notehead"><use href="#E0A4-z6faz7r" transform="translate(8146, 540) scale(0.72, 0.72)"/></g><g data-id="p1lnlenu" data-class="stem" class="stem"><path d="M8155 568 L8155 1170" stroke-width="18"/></g></g><g data-id="ghrde7z" data-class="note" class="note"><g data-class="notehead" class="notehead"><use href="#E0A4-z6faz7r" transform="translate(8836, 630) scale(0.72, 0.72)"/></g><g data-id="q1ssx0yo" data-class="stem" class="stem"><path d="M8845 658 L8845 1260" stroke-width="18"/><g data-id="r1ewk063" data-class="flag" class="flag"><use href="#E241-z6faz7r" transform="translate(8836, 1260) scale(0.72, 0.72)"/></g></g></g><g data-id="h7odyg4" data-class="note" class="note"><g data-class="notehead" class="notehead"><use href="#E0A4-z6faz7r" transform="translate(9286, 630) scale(0.72, 0.72)"/></g><g data-id="s1cp3c84" data-class="stem" class="stem"><path d="M9295 658 L9295 1260" stroke-width="18"/></g></g><g data-id="i1c2fy4l" data-class="note" class="note"><g data-class="notehead" class="notehead"><use href="#E0A4-z6faz7r" transform="translate(9976, 720) scale(0.72, 0.72)"/></g><g data-id="t1avhkki" data-class="stem" class="stem"><path d="M9985 748 L9985 1350" stroke-width="18"/><g data-id="u80u0m2" data-class="flag" class="flag"><use href="#E241-z6faz7r" transform="translate(9976, 1350) scale(0.72, 0.72)"/></g></g></g></g></g><g data-id="jkslj91" data-class="barLine" class="barLine"><path d="M10426 540 L10426 1260" stroke-width="27"/></g></g><g data-id="kmr7s5c" data-class="measure" class="measure"><g data-id="k97wits" data-class="staff" class="staff"><path d="M10439 540 L11309 540" stroke-width="13"/><path d="M10439 720 L11309 720" stroke-width="13"/><path d="M10439 900 L11309 900" stroke-width="13"/><path d="M10439 1080 L11309 1080" stroke-width="13"/><path d="M10439 1260 L11309 1260" stroke-width="13"/><g data-id="l1mpy53v" data-class="layer" class="layer"><g data-id="j3sd3rv" data-class="note" class="note"><g data-class="notehead" class="notehead"><use href="#E0A4-z6faz7r" transform="translate(10619, 810) scale(0.72, 0.72)"/></g><g data-id="v1tyjaal" data-class="stem" class="stem"><path d="M10628 838 L10628 1440" stroke-width="18"/></g></g></g></g><g data-id="sv0yoc8" data-class="barLine" class="barLine"/></g><g data-id="taorfyv" data-class="systemMilestoneEnd" class="systemMilestoneEnd qxf7xvu"/></g><g data-id="ukludz4" data-class="pageMilestoneEnd" class="pageMilestoneEnd o1dj923y"/><g data-id="v4x7zky" data-class="pageMilestoneEnd" class="pageMilestoneEnd n1ve1wb3"/></g></svg></svg>