<svg viewBox="0 0 560 84" version="1.1" xmlns="http://www.w3.org/2000/svg" xmlns:xlink="http://www.w3.org/1999/xlink" overflow="visible" id="aygx9gh"><desc>Engraved by Verovio 5.6.0-85e7620</desc><defs><g id="E050-aygx9gh"><path transform="scale(1,-1)" d="M441 -245c-23 -4 -48 -6 -76 -6c-59 0 -102 7 -130 20c-88 42 -150 93 -187 154c-26 44 -43 103 -48 176c0 6 -1 13 -1 19c0 54 15 111 45 170c29 57 65 106 110 148s96 85 153 127c-3 16 -8 46 -13 92c-4 43 -5 73 -5 89c0 117 16 172 69 257c34 54 64 82 89 82 c21 0 43 -30 69 -92s39 -115 41 -159v-15c0 -109 -21 -162 -67 -241c-13 -20 -63 -90 -98 -118c-13 -9 -25 -19 -37 -29l31 -181c8 1 18 2 28 2c58 0 102 -12 133 -35c59 -43 92 -104 98 -184c1 -7 1 -15 1 -22c0 -123 -87 -209 -181 -248c8 -57 17 -110 25 -162 c5 -31 6 -58 6 -80c0 -30 -5 -53 -14 -70c-35 -64 -88 -99 -158 -103c-5 0 -11 -1 -16 -1c-37 0 -72 10 -108 27c-50 24 -77 59 -80 105v11c0 29 7 55 20 76c18 28 45 42 79 44h6c49 0 93 -42 97 -87v-9c0 -51 -34 -86 -105 -106c17 -24 51 -36 102 -36c62 0 116 43 140 85 c9 16 13 41 13 74c0 20 -1 42 -5 67c-8 53 -18 106 -26 159zM461 939c-95 0 -135 -175 -135 -286c0 -24 2 -48 5 -71c50 39 92 82 127 128c40 53 60 100 60 140v8c-4 53 -22 81 -55 81h-2zM406 119l54 -326c73 25 110 78 110 161c0 7 0 15 -1 23c-7 95 -57 142 -151 142h-12 zM382 117c-72 -2 -128 -47 -128 -120v-7c2 -46 43 -99 75 -115c-3 -2 -7 -5 -10 -10c-70 33 -116 88 -123 172v11c0 68 44 126 88 159c23 17 49 29 78 36l-29 170c-21 -13 -52 -37 -92 -73c-50 -44 -86 -84 -109 -119c-45 -69 -67 -130 -67 -182v-13c5 -68 35 -127 93 -176 s125 -73 203 -73c25 0 50 3 75 9c-19 111 -36 221 -54 331z"/></g><g id="E260-aygx9gh"><path transform="scale(1,-1)" d="M20 110c32 16 54 27 93 27c26 0 35 -3 54 -13c13 -7 24 -20 27 -38l4 -25c0 -28 -16 -57 -45 -89c-23 -25 -39 -44 -65 -68l-88 -79v644h20v-359zM90 106c-32 0 -48 -10 -70 -29v-194c31 31 54 59 71 84c21 32 32 59 32 84c0 9 1 16 1 20c0 14 -3 21 -11 30l-8 3z"/></g><g id="E086-aygx9gh"><path transform="scale(1,-1)" d="M284 -91c0 37 -28 92 -67 92c-35 0 -65 -54 -65 -111c0 -52 22 -104 68 -104c47 0 64 68 64 123zM230 214c-36 0 -90 -33 -90 -184l2 -36c40 24 81 36 120 36c80 0 140 -48 140 -121c0 -99 -99 -159 -182 -159c-160 0 -200 173 -200 244c0 21 2 43 7 71l10 35 c26 85 73 115 98 126c41 19 74 24 103 24c93 0 142 -63 142 -105c0 -58 -52 -72 -73 -72c-33 0 -59 24 -65 35c-3 5 -6 14 -7 25l11 30c6 15 9 27 9 35c0 11 -9 16 -25 16z"/></g><g id="E088-aygx9gh"><path transform="scale(1,-1)" d="M195 -214c76 0 88 58 90 68c0 34 -35 60 -57 73l-52 29c-21 10 -32 17 -34 20c-39 -33 -58 -54 -62 -92c5 -23 23 -98 115 -98zM301 135c0 61 -72 76 -113 76c-40 0 -77 -17 -77 -51c3 -21 15 -38 26 -50c17 -15 33 -26 48 -34l65 -28c34 27 51 56 51 87zM176 -250 c-57 0 -166 26 -166 132c0 47 30 86 89 116c-33 15 -79 60 -79 119c0 79 85 132 178 132h18c5 0 21 1 28 -1c25 0 126 -30 126 -110c0 -37 -23 -76 -69 -116c43 -25 83 -71 83 -119c0 -101 -118 -153 -208 -153z"/></g><g id="E4E1-aygx9gh"><path transform="scale(1,-1)" d="M0 -240v480c0 8 2 10 10 10h105c8 0 10 -2 10 -10v-480c0 -8 -2 -10 -10 -10h-105c-8 0 -10 2 -10 10z"/></g><g id="E084-aygx9gh"><path transform="scale(1,-1)" d="M20 -78c84 97 114 180 134 329h170c-13 -32 -82 -132 -99 -151l-84 -97c-33 -36 -59 -63 -80 -81h162v102l127 123v-225h57v-39h-57v-34c0 -43 19 -65 57 -65v-34h-244v36c48 0 60 26 60 70v27h-203v39z"/></g><g id="E0A4-aygx9gh"><path transform="scale(1,-1)" d="M0 -39c0 68 73 172 200 172c66 0 114 -37 114 -95c0 -84 -106 -171 -218 -171c-64 0 -96 30 -96 94z"/></g><g id="E240-aygx9gh"><path transform="scale(1,-1)" d="M179 -646c15 29 29 55 46 102c18 49 30 108 30 138c0 105 -80 173 -168 200c-18 5 -47 9 -87 16v190h22c8 0 33 -61 71 -95c4 -3 -2 3 61 -56c62 -58 122 -137 122 -241c0 -38 -13 -106 -35 -163c-20 -51 -43 -99 -66 -132c-6 -5 -10 -7 -13 -7s-5 2 -5 5l4 10 c1 3 14 25 18 33z"/></g><g id="E241-aygx9gh"><path transform="scale(1,-1)" d="M179 646c-4 8 -17 30 -18 33l-4 10c0 3 2 5 5 5s7 -2 13 -7c23 -33 46 -81 66 -132c22 -57 35 -125 35 -163c0 -104 -60 -183 -122 -241c-63 -59 -57 -53 -61 -56c-38 -34 -63 -95 -71 -95h-22v190c40 7 69 11 87 16c88 27 168 95 168 200c0 30 -12 89 -30 138 c-17 47 -31 73 -46 102z"/></g></defs><style type="text/css">#aygx9gh g.page-margin {font-family:Times,serif;}#aygx9gh g.ending, #aygx9gh g.fing, #aygx9gh g.reh, #aygx9gh g.tempo {font-weight:bold;}#aygx9gh g.dir, #aygx9gh g.dynam, #aygx9gh g.mNum {font-style:italic;}#aygx9gh g.label {font-weight:normal;}#aygx9gh path {stroke:currentColor}</style><svg class="definition-scale" color="black" viewBox="0 0 14000 2100"><g class="page-margin" transform="translate(0, 150)"><g data-id="uqdf19n" data-class="mdiv" class="mdiv pageMilestone"/><g data-id="vvii4m4" data-class="score" class="score pageMilestone"/><g data-id="xm190v1" data-class="system" class="system"><g data-id="x1924kvo" data-class="section" class="section systemMilestone"/><g data-id="b1v898kw" data-class="measure" class="measure"><g data-id="j10x18io" data-class="staff" class="staff"><path d="M0 540 L3330 540" stroke-width="13"/><path d="M0 720 L3330 720" stroke-width="13"/><path d="M0 900 L3330 900" stroke-width="13"/><path d="M0 1080 L3330 1080" stroke-width="13"/><path d="M0 1260 L3330 1260" stroke-width="13"/><g data-id="c15yx4ab" data-class="clef" class="clef"><use href="#E050-aygx9gh" transform="translate(90, 1080) scale(0.72, 0.72)"/></g><g data-id="drt9mmy" data-class="keySig" class="keySig"><g data-id="e4xwuwf" data-class="keyAccid" class="keyAccid"><use href="#E260-aygx9gh" transform="translate(735, 900) scale(0.72, 0.72)"/></g><g data-id="fqee265" data-class="keyAccid" class="keyAccid"><use href="#E260-aygx9gh" transform="translate(915, 630) scale(0.72, 0.72)"/></g><g data-id="g3vn29c" data-class="keyAccid" class="keyAccid"><use href="#E260-aygx9gh" transform="translate(1095, 990) scale(0.72, 0.72)"/></g></g><g data-id="h8amxoc" data-class="meterSig" class="meterSig"><use href="#E086-aygx9gh" transform="translate(1403, 720) scale(0.72, 0.72)"/><use href="#E088-aygx9gh" transform="translate(1410, 1080) scale(0.72, 0.72)"/></g><g data-id="ko67tkr" data-class="layer" class="layer"><g data-id="u1lauj6y" data-class="multiRest" class="multiRest"><use href="#E4E1-aygx9gh" transform="translate(2497, 900) scale(0.72, 0.72)"/><use href="#E084-aygx9gh" transform="translate(2388, 270) scale(0.72, 0.72)"/></g></g></g><g data-id="jy2rv8r" data-class="barLine" class="barLine"><path d="M3317 540 L3317 1260" stroke-width="27"/></g></g><g data-id="kyc5vye" data-class="measure" class="measure"><g data-id="lbpxq18" data-class="staff" class="staff"><path d="M3330 540 L6097 540" stroke-width="13"/><path d="M3330 720 L6097 720" stroke-width="13"/><path d="M3330 900 L6097 900" stroke-width="13"/><path d="M3330 1080 L6097 1080" stroke-width="13"/><path d="M3330 1260 L6097 1260" stroke-width="13"/><g data-id="mlqharr" data-class="layer" class="layer"><g data-id="vouxtf2" data-class="note" class="note"><g data-class="notehead" class="notehead"><use href="#E0A4-aygx9gh" transform="translate(3524, 900) scale(0.72, 0.72)"/></g><g data-id="get6sow" data-class="stem" class="stem"><path d="M3533 928 L3533 1500" stroke-width="18"/></g><g data-id="m1y0mhh6" data-class="accid" class="accid"/></g><g data-id="w11ylow4" data-class="note" class="note"><g data-class="notehead" class="notehead"><use href="#E0A4-aygx9gh" transform="translate(4264, 1350) scale(0.72, 0.72)"/></g><g data-id="hpezsix" data-class="stem" class="stem"><path d="M4481 1322 L4481 720" stroke-width="18"/><g data-id="i1s6crfb" data-class="flag" class="flag"><use href="#E240-aygx9gh" transform="translate(4472, 720) scale(0.72, 0.72)"/></g></g></g><g data-id="x7hn0gp" data-class="note" class="note"><g data-class="notehead" class="notehead"><use href="#E0A4-aygx9gh" transform="translate(4796, 1260) scale(0.72, 0.72)"/></g><g data-id="j9mrag8" data-class="stem" class="stem"><path d="M5013 1232 L5013 630" stroke-width="18"/></g><g data-id="nl334zu" data-class="accid" class="accid"/></g><g data-id="ydgpoo6" data-class="note" class="note"><g data-class="notehead" class="notehead"><use href="#E0A4-aygx9gh" transform="translate(5537, 990) scale(0.72, 0.72)"/></g><g data-id="k1ehxajr" data-class="stem" class="stem"><path d="M5754 962 L5754 360" stroke-width="18"/><g data-id="lu9jz90" data-class="flag" class="flag"><use href="#E240-aygx9gh" transform="translate(5745, 360) scale(0.72, 0.72)"/></g></g><g data-id="o1r82w33" data-class="accid" class="accid"/></g></g></g><g data-id="s1vu1q9j" data-class="barLine" class="barLine"><path d="M6084 540 L6084 1260" stroke-width="27"/></g></g><g data-id="t11r9i6z" data-class="measure" class="measure"><g data-id="n693ba3" data-class="staff" class="staff"><path d="M6097 540 L8975 540" stroke-width="13"/><path d="M6097 720 L8975 720" stroke-width="13"/><path d="M6097 900 L8975 900" stroke-width="13"/><path d="M6097 1080 L8975 1080" stroke-width="13"/><path d="M6097 1260 L8975 1260" stroke-width="13"/><g data-id="obpfe78" data-class="layer" class="layer"><g data-id="l1s1woy9" data-class="beam" class="beam"><polygon stroke-opacity="1" fill-opacity="1" points="6499,405 7000,450 7000,540 6499,495"/><g data-id="zjzx01m" data-class="note" class="note"><g data-class="notehead" class="notehead"><use href="#E0A4-aygx9gh" transform="translate(6291, 1080) scale(0.72, 0.72)"/></g><g data-id="m2ggkvw" data-class="stem" class="stem"><path d="M6508 1052 L6508 423" stroke-width="18"/></g></g><g data-id="a69rfb9" data-class="note" class="note"><g data-class="notehead" class="notehead"><use href="#E0A4-aygx9gh" transform="translate(6774, 1170) scale(0.72, 0.72)"/></g><g data-id="n1r1v4ha" data-class="stem" class="stem"><path d="M6991 1142 L6991 468" stroke-width="18"/></g></g></g><g data-id="b1rbke26" data-class="note" class="note"><g data-class="notehead" class="notehead"><use href="#E0A4-aygx9gh" transform="translate(7256, 810) scale(0.72, 0.72)"/></g><g data-id="omzpk7v" data-class="stem" class="stem"><path d="M7265 838 L7265 1440" stroke-width="18"/><g data-id="p1uv1334" data-class="flag" class="flag"><use href="#E241-aygx9gh" transform="translate(7256, 1440) scale(0.72, 0.72)"/></g></g></g><g data-id="c1l7ifeg" data-class="note" class="note"><g data-class="notehead" class="notehead"><use href="#E0A4-aygx9gh" transform="translate(7739, 810) scale(0.72, 0.72)"/></g><g data-id="q1ajtjvo" data-class="stem" class="stem"><path d="M7748 838 L7748 1440" stroke-width="18"/><g data-id="r14j05pu" data-class="flag" class="flag"><use href="#E241-aygx9gh" transform="translate(7739, 1440) scale(0.72, 0.72)"/></g></g></g><g data-id="d1mbqykn" data-class="note" class="note"><g data-class="notehead" class="notehead"><use href="#E0A4-aygx9gh" transform="translate(8222, 900) scale(0.72, 0.72)"/></g><g data-id="ss4cwng" data-class="stem" class="stem"><path d="M8231 928 L8231 1500" stroke-width="18"/></g><g data-id="p2duyjm" data-class="accid" class="accid"/></g></g></g><g data-id="bcxn68m" data-class="barLine" class="barLine"><path d="M8962 540 L8962 1260" stroke-width="27"/></g></g><g data-id="c11j93bv" data-class="measure" class="measure"><g data-id="pur3kmu" data-class="staff" class="staff"><path d="M8975 540 L11628 540" stroke-width="13"/><path d="M8975 720 L11628 720" stroke-width="13"/><path d="M8975 900 L11628 900" stroke-width="13"/><path d="M8975 1080 L11628 1080" stroke-width="13"/><path d="M8975 1260 L11628 1260" stroke-width="13"/><g data-id="qwoo8i8" data-class="layer" class="layer"><g data-id="e1d9r88q" data-class="note" class="note"><g data-class="notehead" class="notehead"><use href="#E0A4-aygx9gh" transform="translate(9169, 630) scale(0.72, 0.72)"/></g><g data-id="teagg47" data-class="stem" class="stem"><path d="M9178 658 L9178 1260" stroke-width="18"/></g><g data-id="qedk1z1" data-class="accid" class="accid"/></g><g data-id="f133dh1b" data-class="note" class="note"><g data-class="notehead" class="notehead"><use href="#E0A4-aygx9gh" transform="translate(9909, 990) scale(0.72, 0.72)"/></g><g data-id="u1p6gzyu" data-class="stem" class="stem"><path d="M10126 962 L10126 360" stroke-width="18"/><g data-id="v528gt5" data-class="flag" class="flag"><use href="#E240-aygx9gh" transform="translate(10117, 360) scale(0.72, 0.72)"/></g></g><g data-id="r5kln7n" data-class="accid" class="accid"/></g><g data-id="g1ae7gyg" data-class="note" class="note"><g data-class="notehead" class="notehead"><use href="#E0A4-aygx9gh" transform="translate(10392, 990) scale(0.72, 0.72)"/></g><g data-id="w2jspxf" data-class="stem" class="stem"><path d="M10609 962 L10609 360" stroke-width="18"/><g data-id="xmufpcb" data-class="flag" class="flag"><use href="#E240-aygx9gh" transform="translate(10600, 360) scale(0.72, 0.72)"/></g></g><g data-id="s1p00t2g" data-class="accid" class="accid"/></g><g data-id="h1bqz6fs" data-class="note" class="note"><g data-class="notehead" class="notehead"><use href="#E0A4-aygx9gh" transform="translate(10875, 1080) scale(0.72, 0.72)"/></g><g data-id="ykp8ktt" data-class="stem" class="stem"><path d="M11092 1052 L11092 450" stroke-width="18"/></g></g></g></g><g data-id="k1n5vb2b" data-class="barLine" class="barLine"><path d="M11615 540 L11615 1260" stroke-width="27"/></g></g><g data-id="l1qtxdcw" data-class="measure" class="measure"><g data-id="r194kg87" data-class="staff" class="staff"><path d="M11628 540 L14002 540" stroke-width="13"/><path d="M11628 720 L14002 720" stroke-width="13"/><path d="M11628 900 L14002 900" stroke-width="13"/><path d="M11628 1080 L14002 1080" stroke-width="13"/><path d="M11628 1260 L14002 1260" stroke-width="13"/><g data-id="s1m3kt5m" data-class="layer" class="layer"><g data-id="i19n68z4" data-class="note" class="note"><g data-class="notehead" class="notehead"><use href="#E0A4-aygx9gh" transform="translate(11822, 810) scale(0.72, 0.72)"/></g><g data-id="z1yr3g2q" data-class="stem" class="stem"><path d="M11831 838 L11831 1440" stroke-width="18"/></g></g><g data-id="j1si9uua" data-class="note" class="note"><g data-class="notehead" class="notehead"><use href="#E0A4-aygx9gh" transform="translate(12562, 1170) scale(0.72, 0.72)"/></g><g data-id="acnkz7a" data-class="stem" class="stem"><path d="M12779 1142 L12779 540" stroke-width="18"/><g data-id="b12eli0o" data-class="flag" class="flag"><use href="#E240-aygx9gh" transform="translate(12770, 540) scale(0.72, 0.72)"/></g></g></g><g data-id="kg4r1k4" data-class="note" class="note"><g data-class="notehead" class="notehead"><use href="#E0A4-aygx9gh" transform="translate(13045, 1170) scale(0.72, 0.72)"/></g><g data-id="d1bv48lr" data-class="dots" class="dots"><ellipse cx="13361" cy="1170" rx="36" ry="36" fill-opacity="1" stroke-opacity="1"/></g><g data-id="c114kacb" data-class="stem" class="stem"><path d="M13262 1142 L13262 540" stroke-width="18"/></g></g></g></g><g data-id="tsinjox" data-class="barLine" class="barLine"><path d="M13989 540 L13989 1260" stroke-width="27"/></g></g><g data-id="a9k8pmd" data-class="systemMilestoneEnd" class="systemMilestoneEnd x1924kvo"/></g><g data-id="bk2mxnw" data-class="pageMilestoneEnd" class="pageMilestoneEnd vvii4m4"/><g data-id="c7rs4ip" data-class="pageMilestoneEnd" class="pageMilestoneEnd uqdf19n"/></g></svg></svg>