<svg viewBox="0 0 560 84" version="1.1" xmlns="http://www.w3.org/2000/svg" xmlns:xlink="http://www.w3.org/1999/xlink" overflow="visible" id="mx1glk3"><desc>Engraved by Verovio 5.6.0-85e7620</desc><defs><g id="E062-mx1glk3"><path transform="scale(1,-1)" d="M582 -120c0 32 26 58 58 58s58 -26 58 -58s-26 -58 -58 -58s-58 26 -58 58zM582 120c0 32 26 58 58 58s58 -26 58 -58s-26 -58 -58 -58s-58 26 -58 58zM158 96c51 0 73 -14 88 -49l16 -39c0 -17 -2 -30 -7 -40c-3 -11 -10 -21 -19 -31c-17 -18 -49 -43 -84 -43 c-55 0 -77 13 -112 44c-24 21 -35 55 -35 100c0 46 14 81 32 112c30 52 71 79 137 93l36 6l26 2c154 0 235 -68 274 -182c11 -32 18 -68 18 -107c0 -103 -26 -182 -68 -250c-89 -145 -234 -230 -412 -288l-30 -5c-9 0 -14 3 -14 8c3 10 5 11 10 16c35 15 70 30 96 44l78 43 c96 57 162 136 197 258c9 33 17 60 22 100c3 22 5 35 6 39c-7 69 -16 115 -23 140s-4 22 -16 40c-8 12 -19 23 -31 34c-24 21 -62 44 -118 44c-48 0 -84 -8 -113 -28c-28 -19 -42 -44 -42 -73v-16c2 -5 3 -9 4 -11c24 22 52 39 84 39z"/></g><g id="E260-mx1glk3"><path transform="scale(1,-1)" d="M20 110c32 16 54 27 93 27c26 0 35 -3 54 -13c13 -7 24 -20 27 -38l4 -25c0 -28 -16 -57 -45 -89c-23 -25 -39 -44 -65 -68l-88 -79v644h20v-359zM90 106c-32 0 -48 -10 -70 -29v-194c31 31 54 59 71 84c21 32 32 59 32 84c0 9 1 16 1 20c0 14 -3 21 -11 30l-8 3z"/></g><g id="E082-mx1glk3"><path transform="scale(1,-1)" d="M124 -185c-18 0 -55 -14 -65 -65h-36l-3 30c0 25 6 45 18 63c11 19 22 30 39 43l121 82l37 29c15 11 27 29 38 54c12 24 18 47 18 70c0 40 -19 88 -94 88c-25 0 -32 0 -50 -8c-14 -5 -23 -12 -26 -22c3 -9 7 -15 10 -18l24 -17c12 -7 17 -11 27 -21c5 -7 7 -16 7 -27 c0 -12 0 -57 -79 -74c-30 0 -76 26 -76 94c0 66 81 135 197 135c72 0 181 -32 181 -150c0 -53 -32 -95 -113 -133l-91 -41c-26 -11 -45 -23 -57 -37l49 7c84 0 115 -41 148 -41c20 0 33 20 39 61h35c0 -152 -68 -168 -114 -168c-17 0 -65 0 -79 7h10l-28 17 c-49 37 -69 40 -87 42z"/></g><g id="E084-mx1glk3"><path transform="scale(1,-1)" d="M20 -78c84 97 114 180 134 329h170c-13 -32 -82 -132 -99 -151l-84 -97c-33 -36 -59 -63 -80 -81h162v102l127 123v-225h57v-39h-57v-34c0 -43 19 -65 57 -65v-34h-244v36c48 0 60 26 60 70v27h-203v39z"/></g><g id="E4E7-mx1glk3"><path transform="scale(1,-1)" d="M133 -111c0 -33 -21 -50 -52 -55c10 -3 18 -4 25 -4c40 0 69 24 90 47l66 197c-36 -18 -64 -25 -112 -25c-23 0 -38 3 -45 8c-37 7 -55 27 -55 59c8 35 30 54 68 58c45 -6 49 -13 64 -48c0 -3 1 -5 1 -7c0 -27 -25 -46 -52 -49c6 -4 15 -6 26 -6c32 2 62 14 88 29 c32 19 44 36 59 71l7 1l10 2h4c-72 -220 -143 -439 -215 -659h-37l108 324c-20 -13 -51 -20 -82 -20c-21 0 -35 4 -43 10c-37 6 -55 26 -55 58c8 35 31 56 68 60c43 -8 48 -13 64 -51z"/></g><g id="E0A4-mx1glk3"><path transform="scale(1,-1)" d="M0 -39c0 68 73 172 200 172c66 0 114 -37 114 -95c0 -84 -106 -171 -218 -171c-64 0 -96 30 -96 94z"/></g></defs><style type="text/css">#mx1glk3 g.page-margin {font-family:Times,serif;}#mx1glk3 g.ending, #mx1glk3 g.fing, #mx1glk3 g.reh, #mx1glk3 g.tempo {font-weight:bold;}#mx1glk3 g.dir, #mx1glk3 g.dynam, #mx1glk3 g.mNum {font-style:italic;}#mx1glk3 g.label {font-weight:normal;}#mx1glk3 path {stroke:currentColor}</style><svg class="definition-scale" color="black" viewBox="0 0 14000 2100"><g class="page-margin" transform="translate(0, 150)"><g data-id="tika8k1" data-class="mdiv" class="mdiv pageMilestone"/><g data-id="u1q6mq9g" data-class="score" class="score pageMilestone"/><g data-id="t1y2dpil" data-class="system" class="system"><g data-id="wvtqnje" data-class="section" class="section systemMilestone"/><g data-id="ndl54j" data-class="measure" class="measure"><g data-id="i7662qd" data-class="staff" class="staff"><path d="M0 546 L3128 546" stroke-width="13"/><path d="M0 726 L3128 726" stroke-width="13"/><path d="M0 906 L3128 906" stroke-width="13"/><path d="M0 1086 L3128 1086" stroke-width="13"/><path d="M0 1266 L3128 1266" stroke-width="13"/><g data-id="zjpok43" data-class="clef" class="clef"><use href="#E062-mx1glk3" transform="translate(88, 726) scale(0.72, 0.72)"/></g><g data-id="a1tjtnen" data-class="keySig" class="keySig"><g data-id="b1tuxo0j" data-class="keyAccid" class="keyAccid"><use href="#E260-mx1glk3" transform="translate(769, 1086) scale(0.72, 0.72)"/></g><g data-id="ciakr6m" data-class="keyAccid" class="keyAccid"><use href="#E260-mx1glk3" transform="translate(949, 816) scale(0.72, 0.72)"/></g></g><g data-id="d1p76e10" data-class="meterSig" class="meterSig"><use href="#E082-mx1glk3" transform="translate(1257, 726) scale(0.72, 0.72)"/><use href="#E084-mx1glk3" transform="translate(1262, 1086) scale(0.72, 0.72)"/></g><g data-class="ledgerLines" class="ledgerLines above"><g data-class="lineDash" class="lineDash" data-related="#ru73oyh"><path d="M2737 366 L3059 366" stroke-width="22"/></g></g><g data-id="j151jlh3" data-class="layer" class="layer"><g data-id="o1eqfsyk" data-class="rest" class="rest"><use href="#E4E7-mx1glk3" transform="translate(1830, 906) scale(0.72, 0.72)"/></g><g data-id="i1002evh" data-class="beam" class="beam"><polygon stroke-opacity="1" fill-opacity="1" points="2153,1356 2803,1176 2803,1086 2153,1266"/><polygon stroke-opacity="1" fill-opacity="1" points="2153,1221 2478,1131 2478,1041 2153,1131"/><polygon stroke-opacity="1" fill-opacity="1" points="2478,1131 2803,1041 2803,951 2478,1041"/><g data-id="p1iobt8y" data-class="note" class="note"><g data-class="notehead" class="notehead"><use href="#E0A4-mx1glk3" transform="translate(2153, 726) scale(0.72, 0.72)"/></g><g data-id="ag6den9" data-class="stem" class="stem"><path d="M2162 754 L2162 1338" stroke-width="18"/></g></g><g data-id="qo8j01v" data-class="note" class="note"><g data-class="notehead" class="notehead"><use href="#E0A4-mx1glk3" transform="translate(2469, 456) scale(0.72, 0.72)"/></g><g data-id="b1b8t23k" data-class="stem" class="stem"><path d="M2478 484 L2478 1248" stroke-width="18"/></g><g data-id="nkegr4a" data-class="accid" class="accid"/></g><g data-id="ru73oyh" data-class="note" class="note"><g data-class="notehead" class="notehead"><use href="#E0A4-mx1glk3" transform="translate(2785, 366) scale(0.72, 0.72)"/></g><g data-id="c745gpl" data-class="stem" class="stem"><path d="M2794 394 L2794 1158" stroke-width="18"/></g></g></g></g></g><g data-id="v1x8tgjm" data-class="barLine" class="barLine"><path d="M3115 546 L3115 1266" stroke-width="27"/></g></g><g data-id="wwxif1m" data-class="measure" class="measure"><g data-id="k11r7mfp" data-class="staff" class="staff"><path d="M3128 546 L5863 546" stroke-width="13"/><path d="M3128 726 L5863 726" stroke-width="13"/><path d="M3128 906 L5863 906" stroke-width="13"/><path d="M3128 1086 L5863 1086" stroke-width="13"/><path d="M3128 1266 L5863 1266" stroke-width="13"/><g data-class="ledgerLines" class="ledgerLines above"><g data-class="lineDash" class="lineDash" data-related="#s1yx37q3"><path d="M3260 366 L3582 366" stroke-width="22"/></g><g data-class="lineDash" class="lineDash" data-related="#u9v4q6h"><path d="M3892 366 L4214 366" stroke-width="22"/></g><g data-class="lineDash" class="lineDash" data-related="#w1hssghn"><path d="M4524 366 L4846 366" stroke-width="22"/></g><g data-class="lineDash" class="lineDash" data-related="#z1vihcjl"><path d="M5472 366 L5794 366" stroke-width="22"/></g><g data-class="lineDash" class="lineDash" data-related="#s1yx37q3"><path d="M3260 186 L3582 186" stroke-width="22"/></g><g data-class="lineDash" class="lineDash" data-related="#u9v4q6h"><path d="M3892 186 L4214 186" stroke-width="22"/></g></g><g data-id="lgh87rc" data-class="layer" class="layer"><g data-id="j1fblw71" data-class="beam" class="beam"><polygon stroke-opacity="1" fill-opacity="1" points="3308,1311 4274,1311 4274,1221 3308,1221"/><polygon stroke-opacity="1" fill-opacity="1" points="3308,1176 3633,1176 3633,1086 3308,1086"/><polygon stroke-opacity="1" fill-opacity="1" points="3633,1176 3949,1176 3949,1086 3633,1086"/><polygon stroke-opacity="1" fill-opacity="1" points="3949,1176 4274,1176 4274,1086 3949,1086"/><g data-id="s1yx37q3" data-class="note" class="note"><g data-class="notehead" class="notehead"><use href="#E0A4-mx1glk3" transform="translate(3308, 96) scale(0.72, 0.72)"/></g><g data-id="du2qwy4" data-class="stem" class="stem"><path d="M3317 124 L3317 1293" stroke-width="18"/></g></g><g data-id="t16yprl7" data-class="note" class="note"><g data-class="notehead" class="notehead"><use href="#E0A4-mx1glk3" transform="translate(3624, 726) scale(0.72, 0.72)"/></g><g data-id="etx46yb" data-class="stem" class="stem"><path d="M3633 754 L3633 1293" stroke-width="18"/></g></g><g data-id="u9v4q6h" data-class="note" class="note"><g data-class="notehead" class="notehead"><use href="#E0A4-mx1glk3" transform="translate(3940, 186) scale(0.72, 0.72)"/></g><g data-id="fulp9p7" data-class="stem" class="stem"><path d="M3949 214 L3949 1293" stroke-width="18"/></g><g data-id="odpr71n" data-class="accid" class="accid"/></g><g data-id="v1reb55" data-class="note" class="note"><g data-class="notehead" class="notehead"><use href="#E0A4-mx1glk3" transform="translate(4256, 726) scale(0.72, 0.72)"/></g><g data-id="g9r7s3i" data-class="stem" class="stem"><path d="M4265 754 L4265 1293" stroke-width="18"/></g></g></g><g data-id="k1ivswrj" data-class="beam" class="beam"><polygon stroke-opacity="1" fill-opacity="1" points="4572,1311 5538,1311 5538,1221 4572,1221"/><polygon stroke-opacity="1" fill-opacity="1" points="4572,1176 4897,1176 4897,1086 4572,1086"/><polygon stroke-opacity="1" fill-opacity="1" points="4897,1176 5213,1176 5213,1086 4897,1086"/><polygon stroke-opacity="1" fill-opacity="1" points="5213,1176 5538,1176 5538,1086 5213,1086"/><g data-id="w1hssghn" data-class="note" class="note"><g data-class="notehead" class="notehead"><use href="#E0A4-mx1glk3" transform="translate(4572, 276) scale(0.72, 0.72)"/></g><g data-id="h166nxxj" data-class="stem" class="stem"><path d="M4581 304 L4581 1293" stroke-width="18"/></g></g><g data-id="x172svcy" data-class="note" class="note"><g data-class="notehead" class="notehead"><use href="#E0A4-mx1glk3" transform="translate(4888, 726) scale(0.72, 0.72)"/></g><g data-id="i1n0nkl1" data-class="stem" class="stem"><path d="M4897 754 L4897 1293" stroke-width="18"/></g></g><g data-id="ydfglw1" data-class="note" class="note"><g data-class="notehead" class="notehead"><use href="#E0A4-mx1glk3" transform="translate(5204, 456) scale(0.72, 0.72)"/></g><g data-id="j1vu8zw0" data-class="stem" class="stem"><path d="M5213 484 L5213 1293" stroke-width="18"/></g><g data-id="p1combhg" data-class="accid" class="accid"/></g><g data-id="z1vihcjl" data-class="note" class="note"><g data-class="notehead" class="notehead"><use href="#E0A4-mx1glk3" transform="translate(5520, 366) scale(0.72, 0.72)"/></g><g data-id="k1iq80l4" data-class="stem" class="stem"><path d="M5529 394 L5529 1293" stroke-width="18"/></g></g></g></g></g><g data-id="ehwaas6" data-class="barLine" class="barLine"><path d="M5850 546 L5850 1266" stroke-width="27"/></g></g><g data-id="f1h2ppbr" data-class="measure" class="measure"><g data-id="m1paymq5" data-class="staff" class="staff"><path d="M5863 546 L8598 546" stroke-width="13"/><path d="M5863 726 L8598 726" stroke-width="13"/><path d="M5863 906 L8598 906" stroke-width="13"/><path d="M5863 1086 L8598 1086" stroke-width="13"/><path d="M5863 1266 L8598 1266" stroke-width="13"/><g data-class="ledgerLines" class="ledgerLines above"><g data-class="lineDash" class="lineDash" data-related="#a1ee5rvu"><path d="M5995 366 L6317 366" stroke-width="22"/></g><g data-class="lineDash" class="lineDash" data-related="#c3um8kx"><path d="M6627 366 L6949 366" stroke-width="22"/></g><g data-class="lineDash" class="lineDash" data-related="#ery6hgc"><path d="M7259 366 L7581 366" stroke-width="22"/></g><g data-class="lineDash" class="lineDash" data-related="#hyelrcq"><path d="M8207 366 L8529 366" stroke-width="22"/></g><g data-class="lineDash" class="lineDash" data-related="#a1ee5rvu"><path d="M5995 186 L6317 186" stroke-width="22"/></g><g data-class="lineDash" class="lineDash" data-related="#c3um8kx"><path d="M6627 186 L6949 186" stroke-width="22"/></g></g><g data-id="n19souk5" data-class="layer" class="layer"><g data-id="lqyral4" data-class="beam" class="beam"><polygon stroke-opacity="1" fill-opacity="1" points="6043,1311 7009,1311 7009,1221 6043,1221"/><polygon stroke-opacity="1" fill-opacity="1" points="6043,1176 6368,1176 6368,1086 6043,1086"/><polygon stroke-opacity="1" fill-opacity="1" points="6368,1176 6684,1176 6684,1086 6368,1086"/><polygon stroke-opacity="1" fill-opacity="1" points="6684,1176 7009,1176 7009,1086 6684,1086"/><g data-id="a1ee5rvu" data-class="note" class="note"><g data-class="notehead" class="notehead"><use href="#E0A4-mx1glk3" transform="translate(6043, 96) scale(0.72, 0.72)"/></g><g data-id="l5s6z6f" data-class="stem" class="stem"><path d="M6052 124 L6052 1293" stroke-width="18"/></g></g><g data-id="b1iqz9ic" data-class="note" class="note"><g data-class="notehead" class="notehead"><use href="#E0A4-mx1glk3" transform="translate(6359, 726) scale(0.72, 0.72)"/></g><g data-id="m1garo6y" data-class="stem" class="stem"><path d="M6368 754 L6368 1293" stroke-width="18"/></g></g><g data-id="c3um8kx" data-class="note" class="note"><g data-class="notehead" class="notehead"><use href="#E0A4-mx1glk3" transform="translate(6675, 186) scale(0.72, 0.72)"/></g><g data-id="n1rm8q2v" data-class="stem" class="stem"><path d="M6684 214 L6684 1293" stroke-width="18"/></g><g data-id="qd74en2" data-class="accid" class="accid"/></g><g data-id="d11sre9u" data-class="note" class="note"><g data-class="notehead" class="notehead"><use href="#E0A4-mx1glk3" transform="translate(6991, 726) scale(0.72, 0.72)"/></g><g data-id="o1n2erop" data-class="stem" class="stem"><path d="M7000 754 L7000 1293" stroke-width="18"/></g></g></g><g data-id="mij5vdm" data-class="beam" class="beam"><polygon stroke-opacity="1" fill-opacity="1" points="7307,1311 8273,1311 8273,1221 7307,1221"/><polygon stroke-opacity="1" fill-opacity="1" points="7307,1176 7632,1176 7632,1086 7307,1086"/><polygon stroke-opacity="1" fill-opacity="1" points="7632,1176 7948,1176 7948,1086 7632,1086"/><polygon stroke-opacity="1" fill-opacity="1" points="7948,1176 8273,1176 8273,1086 7948,1086"/><g data-id="ery6hgc" data-class="note" class="note"><g data-class="notehead" class="notehead"><use href="#E0A4-mx1glk3" transform="translate(7307, 276) scale(0.72, 0.72)"/></g><g data-id="p125e62r" data-class="stem" class="stem"><path d="M7316 304 L7316 1293" stroke-width="18"/></g></g><g data-id="f1r5j6kq" data-class="note" class="note"><g data-class="notehead" class="notehead"><use href="#E0A4-mx1glk3" transform="translate(7623, 726) scale(0.72, 0.72)"/></g><g data-id="q1sro6vo" data-class="stem" class="stem"><path d="M7632 754 L7632 1293" stroke-width="18"/></g></g><g data-id="g1fo4d6g" data-class="note" class="note"><g data-class="notehead" class="notehead"><use href="#E0A4-mx1glk3" transform="translate(7939, 456) scale(0.72, 0.72)"/></g><g data-id="rqw2fhp" data-class="stem" class="stem"><path d="M7948 484 L7948 1293" stroke-width="18"/></g><g data-id="r1qwzokp" data-class="accid" class="accid"/></g><g data-id="hyelrcq" data-class="note" class="note"><g data-class="notehead" class="notehead"><use href="#E0A4-mx1glk3" transform="translate(8255, 366) scale(0.72, 0.72)"/></g><g data-id="s15iechk" data-class="stem" class="stem"><path d="M8264 394 L8264 1293" stroke-width="18"/></g></g></g></g></g><g data-id="n6phkxr" data-class="barLine" class="barLine"><path d="M8585 546 L8585 1266" stroke-width="27"/></g></g><g data-id="v1b9nijt" data-class="systemMilestoneEnd" class="systemMilestoneEnd wvtqnje"/></g><g data-id="wczmh85" data-class="pageMilestoneEnd" class="pageMilestoneEnd u1q6mq9g"/><g data-id="x15u00hk" data-class="pageMilestoneEnd" class="pageMilestoneEnd tika8k1"/></g></svg></svg>