<svg viewBox="0 0 560 84" version="1.1" xmlns="http://www.w3.org/2000/svg" xmlns:xlink="http://www.w3.org/1999/xlink" overflow="visible" id="y80u33c"><desc>Engraved by Verovio 5.6.0-85e7620</desc><defs><g id="E050-y80u33c"><path transform="scale(1,-1)" d="M441 -245c-23 -4 -48 -6 -76 -6c-59 0 -102 7 -130 20c-88 42 -150 93 -187 154c-26 44 -43 103 -48 176c0 6 -1 13 -1 19c0 54 15 111 45 170c29 57 65 106 110 148s96 85 153 127c-3 16 -8 46 -13 92c-4 43 -5 73 -5 89c0 117 16 172 69 257c34 54 64 82 89 82 c21 0 43 -30 69 -92s39 -115 41 -159v-15c0 -109 -21 -162 -67 -241c-13 -20 -63 -90 -98 -118c-13 -9 -25 -19 -37 -29l31 -181c8 1 18 2 28 2c58 0 102 -12 133 -35c59 -43 92 -104 98 -184c1 -7 1 -15 1 -22c0 -123 -87 -209 -181 -248c8 -57 17 -110 25 -162 c5 -31 6 -58 6 -80c0 -30 -5 -53 -14 -70c-35 -64 -88 -99 -158 -103c-5 0 -11 -1 -16 -1c-37 0 -72 10 -108 27c-50 24 -77 59 -80 105v11c0 29 7 55 20 76c18 28 45 42 79 44h6c49 0 93 -42 97 -87v-9c0 -51 -34 -86 -105 -106c17 -24 51 -36 102 -36c62 0 116 43 140 85 c9 16 13 41 13 74c0 20 -1 42 -5 67c-8 53 -18 106 -26 159zM461 939c-95 0 -135 -175 -135 -286c0 -24 2 -48 5 -71c50 39 92 82 127 128c40 53 60 100 60 140v8c-4 53 -22 81 -55 81h-2zM406 119l54 -326c73 25 110 78 110 161c0 7 0 15 -1 23c-7 95 -57 142 -151 142h-12 zM382 117c-72 -2 -128 -47 -128 -120v-7c2 -46 43 -99 75 -115c-3 -2 -7 -5 -10 -10c-70 33 -116 88 -123 172v11c0 68 44 126 88 159c23 17 49 29 78 36l-29 170c-21 -13 -52 -37 -92 -73c-50 -44 -86 -84 -109 -119c-45 -69 -67 -130 -67 -182v-13c5 -68 35 -127 93 -176 s125 -73 203 -73c25 0 50 3 75 9c-19 111 -36 221 -54 331z"/></g><g id="E262-y80u33c"><path transform="scale(1,-1)" d="M136 186v169h17v-164l44 14v-91l-44 -14v-165l44 12v-91l-44 -13v-155h-17v150l-76 -22v-155h-17v149l-43 -13v90l43 14v167l-43 -14v92l43 13v169h17v-163zM60 73v-167l76 22v168z"/></g><g id="E08A-y80u33c"><path transform="scale(1,-1)" d="M340 179c-9 24 -56 41 -89 41c-46 0 -81 -28 -100 -58c-17 -28 -25 -78 -25 -150c0 -65 2 -111 8 -135c8 -31 18 -49 40 -67c20 -17 43 -25 70 -25c54 0 92 36 115 75c14 25 23 54 28 88h27c0 -63 -24 -105 -58 -141c-35 -38 -82 -56 -140 -56c-45 0 -83 13 -115 39 c-57 45 -101 130 -101 226c0 59 33 127 68 163c36 37 97 72 160 72c36 0 93 -21 121 -40c11 -8 23 -17 33 -30c19 -23 27 -48 27 -76c0 -51 -35 -88 -86 -88c-43 0 -76 27 -76 68c0 26 7 35 21 51c15 17 32 27 58 32c7 2 14 7 14 11z"/></g><g id="E4E2-y80u33c"><path transform="scale(1,-1)" d="M0 10v230c0 8 2 10 10 10h105c8 0 10 -2 10 -10v-230c0 -8 -2 -10 -10 -10h-105c-8 0 -10 2 -10 10z"/></g><g id="E082-y80u33c"><path transform="scale(1,-1)" d="M124 -185c-18 0 -55 -14 -65 -65h-36l-3 30c0 25 6 45 18 63c11 19 22 30 39 43l121 82l37 29c15 11 27 29 38 54c12 24 18 47 18 70c0 40 -19 88 -94 88c-25 0 -32 0 -50 -8c-14 -5 -23 -12 -26 -22c3 -9 7 -15 10 -18l24 -17c12 -7 17 -11 27 -21c5 -7 7 -16 7 -27 c0 -12 0 -57 -79 -74c-30 0 -76 26 -76 94c0 66 81 135 197 135c72 0 181 -32 181 -150c0 -53 -32 -95 -113 -133l-91 -41c-26 -11 -45 -23 -57 -37l49 7c84 0 115 -41 148 -41c20 0 33 20 39 61h35c0 -152 -68 -168 -114 -168c-17 0 -65 0 -79 7h10l-28 17 c-49 37 -69 40 -87 42z"/></g><g id="E4E5-y80u33c"><path transform="scale(1,-1)" d="M107 292c-13 24 -30 49 -52 71c-1 1 0 2 0 3l-2 2c3 3 4 4 6 4c12 0 26 -7 40 -20s44 -40 89 -81c26 -24 28 -29 46 -47c4 -4 8 -9 10 -14c6 -8 8 -16 8 -27c0 -19 -12 -40 -36 -61c-28 -23 -49 -38 -61 -73c-4 -11 -7 -27 -10 -50c13 -43 34 -83 59 -121 c31 -47 59 -79 101 -129c-8 0 -26 7 -54 20l-62 29l-21 6l-23 1c-25 0 -45 -10 -60 -30l-4 -14l-1 -12c0 -33 20 -56 39 -78c8 -9 17 -18 26 -26c17 -15 27 -24 28 -30l-3 -3c-11 5 -19 10 -25 15c-9 3 -37 21 -45 26c-24 14 -45 32 -63 51c-19 21 -37 44 -37 71 c0 63 27 95 80 95c41 0 86 -18 136 -52c-19 26 -37 48 -55 66c-23 23 -48 44 -73 65c-28 23 -47 40 -58 53s-17 26 -18 39c75 64 113 125 113 183c0 27 -7 48 -18 68z"/></g><g id="E0A4-y80u33c"><path transform="scale(1,-1)" d="M0 -39c0 68 73 172 200 172c66 0 114 -37 114 -95c0 -84 -106 -171 -218 -171c-64 0 -96 30 -96 94z"/></g><g id="E241-y80u33c"><path transform="scale(1,-1)" d="M179 646c-4 8 -17 30 -18 33l-4 10c0 3 2 5 5 5s7 -2 13 -7c23 -33 46 -81 66 -132c22 -57 35 -125 35 -163c0 -104 -60 -183 -122 -241c-63 -59 -57 -53 -61 -56c-38 -34 -63 -95 -71 -95h-22v190c40 7 69 11 87 16c88 27 168 95 168 200c0 30 -12 89 -30 138 c-17 47 -31 73 -46 102z"/></g></defs><style type="text/css">#y80u33c g.page-margin {font-family:Times,serif;}#y80u33c g.ending, #y80u33c g.fing, #y80u33c g.reh, #y80u33c g.tempo {font-weight:bold;}#y80u33c g.dir, #y80u33c g.dynam, #y80u33c g.mNum {font-style:italic;}#y80u33c g.label {font-weight:normal;}#y80u33c path {stroke:currentColor}</style><svg class="definition-scale" color="black" viewBox="0 0 14000 2100"><g class="page-margin" transform="translate(0, 150)"><g data-id="ggwvul2" data-class="mdiv" class="mdiv pageMilestone"/><g data-id="h10zpbrk" data-class="score" class="score pageMilestone"/><g data-id="cwkpy69" data-class="system" class="system"><g data-id="j1rxee57" data-class="section" class="section systemMilestone"/><g data-id="z14sszpr" data-class="measure" class="measure"><g data-id="vb01eoo" data-class="staff" class="staff"><path d="M0 540 L3315 540" stroke-width="13"/><path d="M0 720 L3315 720" stroke-width="13"/><path d="M0 900 L3315 900" stroke-width="13"/><path d="M0 1080 L3315 1080" stroke-width="13"/><path d="M0 1260 L3315 1260" stroke-width="13"/><g data-id="i7m72zd" data-class="clef" class="clef"><use href="#E050-y80u33c" transform="translate(90, 1080) scale(0.72, 0.72)"/></g><g data-id="jx4am88" data-class="keySig" class="keySig"><g data-id="k1u137uw" data-class="keyAccid" class="keyAccid"><use href="#E262-y80u33c" transform="translate(735, 540) scale(0.72, 0.72)"/></g><g data-id="l11vi6et" data-class="keyAccid" class="keyAccid"><use href="#E262-y80u33c" transform="translate(913, 810) scale(0.72, 0.72)"/></g></g><g data-id="m18zsrm" data-class="meterSig" class="meterSig"><use href="#E08A-y80u33c" transform="translate(1234, 900) scale(0.72, 0.72)"/></g><g data-id="w1hjffck" data-class="layer" class="layer"><g data-id="jqzgyoa" data-class="multiRest" class="multiRest"><use href="#E4E2-y80u33c" transform="translate(2410, 900) scale(0.72, 0.72)"/><use href="#E082-y80u33c" transform="translate(2296, 270) scale(0.72, 0.72)"/></g></g></g><g data-id="hedwj5c" data-class="barLine" class="barLine"><path d="M3302 540 L3302 1260" stroke-width="27"/></g></g><g data-id="itlqbtb" data-class="measure" class="measure"><g data-id="xt7ic" data-class="staff" class="staff"><path d="M3315 540 L6688 540" stroke-width="13"/><path d="M3315 720 L6688 720" stroke-width="13"/><path d="M3315 900 L6688 900" stroke-width="13"/><path d="M3315 1080 L6688 1080" stroke-width="13"/><path d="M3315 1260 L6688 1260" stroke-width="13"/><g data-id="y97vc4f" data-class="layer" class="layer"><g data-id="kiduhud" data-class="rest" class="rest"><use href="#E4E5-y80u33c" transform="translate(3495, 900) scale(0.72, 0.72)"/></g><g data-id="lcrxvsh" data-class="note" class="note"><g data-class="notehead" class="notehead"><use href="#E0A4-y80u33c" transform="translate(4185, 900) scale(0.72, 0.72)"/></g><g data-id="p1metixx" data-class="stem" class="stem"><path d="M4194 928 L4194 1500" stroke-width="18"/></g></g><g data-id="y7kvdct" data-class="beam" class="beam"><polygon stroke-opacity="1" fill-opacity="1" points="4875,1485 5343,1440 5343,1350 4875,1395"/><g data-id="mq1jtk1" data-class="note" class="note"><g data-class="notehead" class="notehead"><use href="#E0A4-y80u33c" transform="translate(4875, 900) scale(0.72, 0.72)"/></g><g data-id="qmlh1i1" data-class="stem" class="stem"><path d="M4884 928 L4884 1467" stroke-width="18"/></g></g><g data-id="ndn703t" data-class="note" class="note"><g data-class="notehead" class="notehead"><use href="#E0A4-y80u33c" transform="translate(5325, 810) scale(0.72, 0.72)"/></g><g data-id="rszyesb" data-class="stem" class="stem"><path d="M5334 838 L5334 1422" stroke-width="18"/></g><g data-id="bgslg4b" data-class="accid" class="accid"/></g></g><g data-id="o2pu6x5" data-class="note" class="note"><g data-class="notehead" class="notehead"><use href="#E0A4-y80u33c" transform="translate(5775, 900) scale(0.72, 0.72)"/></g><g data-id="s1g05ii2" data-class="stem" class="stem"><path d="M5784 928 L5784 1500" stroke-width="18"/><g data-id="t7d28nc" data-class="flag" class="flag"><use href="#E241-y80u33c" transform="translate(5775, 1500) scale(0.72, 0.72)"/></g></g></g><g data-id="pdp6d2l" data-class="note" class="note"><g data-class="notehead" class="notehead"><use href="#E0A4-y80u33c" transform="translate(6225, 810) scale(0.72, 0.72)"/></g><g data-id="u1q360ui" data-class="stem" class="stem"><path d="M6234 838 L6234 1440" stroke-width="18"/><g data-id="vlw1jjg" data-class="flag" class="flag"><use href="#E241-y80u33c" transform="translate(6225, 1440) scale(0.72, 0.72)"/></g></g><g data-id="c4hquuy" data-class="accid" class="accid"/></g></g></g><g data-id="q1uawzwz" data-class="barLine" class="barLine"><path d="M6675 540 L6675 1260" stroke-width="27"/></g></g><g data-id="r13hkadn" data-class="measure" class="measure"><g data-id="z465qmf" data-class="staff" class="staff"><path d="M6688 540 L10271 540" stroke-width="13"/><path d="M6688 720 L10271 720" stroke-width="13"/><path d="M6688 900 L10271 900" stroke-width="13"/><path d="M6688 1080 L10271 1080" stroke-width="13"/><path d="M6688 1260 L10271 1260" stroke-width="13"/><g data-id="a1c83kn1" data-class="layer" class="layer"><g data-id="q1bzlff5" data-class="note" class="note"><g data-class="notehead" class="notehead"><use href="#E0A4-y80u33c" transform="translate(6868, 720) scale(0.72, 0.72)"/></g><g data-id="w14t5d5n" data-class="stem" class="stem"><path d="M6877 748 L6877 1350" stroke-width="18"/></g></g><g data-id="rks0n72" data-class="note" class="note"><g data-class="notehead" class="notehead"><use href="#E0A4-y80u33c" transform="translate(7558, 900) scale(0.72, 0.72)"/></g><g data-id="x1dk5axr" data-class="stem" class="stem"><path d="M7567 928 L7567 1500" stroke-width="18"/><g data-id="y1cnp2n2" data-class="flag" class="flag"><use href="#E241-y80u33c" transform="translate(7558, 1500) scale(0.72, 0.72)"/></g></g></g><g data-id="s1mf60s7" data-class="note" class="note"><g data-class="notehead" class="notehead"><use href="#E0A4-y80u33c" transform="translate(8008, 900) scale(0.72, 0.72)"/></g><g data-id="z13ykmbc" data-class="stem" class="stem"><path d="M8017 928 L8017 1500" stroke-width="18"/><g data-id="an1opnp" data-class="flag" class="flag"><use href="#E241-y80u33c" transform="translate(8008, 1500) scale(0.72, 0.72)"/></g></g></g><g data-id="z1ocsub" data-class="beam" class="beam"><polygon stroke-opacity="1" fill-opacity="1" points="8458,1485 8926,1440 8926,1350 8458,1395"/><g data-id="t1p5n6cy" data-class="note" class="note"><g data-class="notehead" class="notehead"><use href="#E0A4-y80u33c" transform="translate(8458, 900) scale(0.72, 0.72)"/></g><g data-id="bsxivzz" data-class="stem" class="stem"><path d="M8467 928 L8467 1467" stroke-width="18"/></g></g><g data-id="umgy9t4" data-class="note" class="note"><g data-class="notehead" class="notehead"><use href="#E0A4-y80u33c" transform="translate(8908, 810) scale(0.72, 0.72)"/></g><g data-id="cn4coh5" data-class="stem" class="stem"><path d="M8917 838 L8917 1422" stroke-width="18"/></g><g data-id="d1w60uva" data-class="accid" class="accid"/></g></g><g data-id="a8wnxbn" data-class="beam" class="beam"><polygon stroke-opacity="1" fill-opacity="1" points="9358,1395 9826,1350 9826,1260 9358,1305"/><g data-id="v1i35z69" data-class="note" class="note"><g data-class="notehead" class="notehead"><use href="#E0A4-y80u33c" transform="translate(9358, 720) scale(0.72, 0.72)"/></g><g data-id="dbjxe4m" data-class="stem" class="stem"><path d="M9367 748 L9367 1377" stroke-width="18"/></g></g><g data-id="wk47pe1" data-class="note" class="note"><g data-class="notehead" class="notehead"><use href="#E0A4-y80u33c" transform="translate(9808, 630) scale(0.72, 0.72)"/></g><g data-id="eg0631o" data-class="stem" class="stem"><path d="M9817 658 L9817 1332" stroke-width="18"/></g></g></g></g></g><g data-id="zu852zz" data-class="barLine" class="barLine"><path d="M10258 540 L10258 1260" stroke-width="27"/></g></g><g data-id="a1rcksd3" data-class="measure" class="measure"><g data-id="b12on6q9" data-class="staff" class="staff"><path d="M10271 540 L11253 540" stroke-width="13"/><path d="M10271 720 L11253 720" stroke-width="13"/><path d="M10271 900 L11253 900" stroke-width="13"/><path d="M10271 1080 L11253 1080" stroke-width="13"/><path d="M10271 1260 L11253 1260" stroke-width="13"/><g data-id="c1rdoj80" data-class="layer" class="layer"><g data-id="xxb8511" data-class="note" class="note"><g data-class="notehead" class="notehead"><use href="#E0A4-y80u33c" transform="translate(10451, 540) scale(0.72, 0.72)"/></g><g data-id="fsea5z8" data-class="stem" class="stem"><path d="M10460 568 L10460 1170" stroke-width="18"/></g><g data-id="e1erlypf" data-class="accid" class="accid"/></g></g></g><g data-id="i2sxm0s" data-class="barLine" class="barLine"><path d="M11141 540 L11141 1260" stroke-width="27"/><path d="M11240 540 L11240 1260" stroke-width="27"/></g></g><g data-id="kz1z67z" data-class="systemMilestoneEnd" class="systemMilestoneEnd j1rxee57"/></g><g data-id="l11zc4zv" data-class="pageMilestoneEnd" class="pageMilestoneEnd h10zpbrk"/><g data-id="mzgzvmv" data-class="pageMilestoneEnd" class="pageMilestoneEnd ggwvul2"/></g></svg></svg>