<svg viewBox="0 0 560 84" version="1.1" xmlns="http://www.w3.org/2000/svg" xmlns:xlink="http://www.w3.org/1999/xlink" overflow="visible" id="yeze7vr"><desc>Engraved by Verovio 5.6.0-85e7620</desc><defs><g id="E050-yeze7vr"><path transform="scale(1,-1)" d="M441 -245c-23 -4 -48 -6 -76 -6c-59 0 -102 7 -130 20c-88 42 -150 93 -187 154c-26 44 -43 103 -48 176c0 6 -1 13 -1 19c0 54 15 111 45 170c29 57 65 106 110 148s96 85 153 127c-3 16 -8 46 -13 92c-4 43 -5 73 -5 89c0 117 16 172 69 257c34 54 64 82 89 82 c21 0 43 -30 69 -92s39 -115 41 -159v-15c0 -109 -21 -162 -67 -241c-13 -20 -63 -90 -98 -118c-13 -9 -25 -19 -37 -29l31 -181c8 1 18 2 28 2c58 0 102 -12 133 -35c59 -43 92 -104 98 -184c1 -7 1 -15 1 -22c0 -123 -87 -209 -181 -248c8 -57 17 -110 25 -162 c5 -31 6 -58 6 -80c0 -30 -5 -53 -14 -70c-35 -64 -88 -99 -158 -103c-5 0 -11 -1 -16 -1c-37 0 -72 10 -108 27c-50 24 -77 59 -80 105v11c0 29 7 55 20 76c18 28 45 42 79 44h6c49 0 93 -42 97 -87v-9c0 -51 -34 -86 -105 -106c17 -24 51 -36 102 -36c62 0 116 43 140 85 c9 16 13 41 13 74c0 20 -1 42 -5 67c-8 53 -18 106 -26 159zM461 939c-95 0 -135 -175 -135 -286c0 -24 2 -48 5 -71c50 39 92 82 127 128c40 53 60 100 60 140v8c-4 53 -22 81 -55 81h-2zM406 119l54 -326c73 25 110 78 110 161c0 7 0 15 -1 23c-7 95 -57 142 -151 142h-12 zM382 117c-72 -2 -128 -47 -128 -120v-7c2 -46 43 -99 75 -115c-3 -2 -7 -5 -10 -10c-70 33 -116 88 -123 172v11c0 68 44 126 88 159c23 17 49 29 78 36l-29 170c-21 -13 -52 -37 -92 -73c-50 -44 -86 -84 -109 -119c-45 -69 -67 -130 -67 -182v-13c5 -68 35 -127 93 -176 s125 -73 203 -73c25 0 50 3 75 9c-19 111 -36 221 -54 331z"/></g><g id="E262-yeze7vr"><path transform="scale(1,-1)" d="M136 186v169h17v-164l44 14v-91l-44 -14v-165l44 12v-91l-44 -13v-155h-17v150l-76 -22v-155h-17v149l-43 -13v90l43 14v167l-43 -14v92l43 13v169h17v-163zM60 73v-167l76 22v168z"/></g><g id="E08A-yeze7vr"><path transform="scale(1,-1)" d="M340 179c-9 24 -56 41 -89 41c-46 0 -81 -28 -100 -58c-17 -28 -25 -78 -25 -150c0 -65 2 -111 8 -135c8 -31 18 -49 40 -67c20 -17 43 -25 70 -25c54 0 92 36 115 75c14 25 23 54 28 88h27c0 -63 -24 -105 -58 -141c-35 -38 -82 -56 -140 -56c-45 0 -83 13 -115 39 c-57 45 -101 130 -101 226c0 59 33 127 68 163c36 37 97 72 160 72c36 0 93 -21 121 -40c11 -8 23 -17 33 -30c19 -23 27 -48 27 -76c0 -51 -35 -88 -86 -88c-43 0 -76 27 -76 68c0 26 7 35 21 51c15 17 32 27 58 32c7 2 14 7 14 11z"/></g><g id="E0A4-yeze7vr"><path transform="scale(1,-1)" d="M0 -39c0 68 73 172 200 172c66 0 114 -37 114 -95c0 -84 -106 -171 -218 -171c-64 0 -96 30 -96 94z"/></g><g id="E241-yeze7vr"><path transform="scale(1,-1)" d="M179 646c-4 8 -17 30 -18 33l-4 10c0 3 2 5 5 5s7 -2 13 -7c23 -33 46 -81 66 -132c22 -57 35 -125 35 -163c0 -104 -60 -183 -122 -241c-63 -59 -57 -53 -61 -56c-38 -34 -63 -95 -71 -95h-22v190c40 7 69 11 87 16c88 27 168 95 168 200c0 30 -12 89 -30 138 c-17 47 -31 73 -46 102z"/></g><g id="E4E6-yeze7vr"><path transform="scale(1,-1)" d="M0 123c7 34 33 56 69 60c29 -3 43 -9 53 -29c4 -8 7 -15 10 -22c0 -21 -1 -25 -11 -35c-5 -8 -18 -14 -40 -20l12 -3l15 -1c44 0 97 26 122 56c10 11 18 26 24 42c7 1 15 2 22 3l-140 -424h-36l111 330c-10 -6 -27 -12 -53 -16l-52 -8h-10l-20 1c-1 0 -8 3 -21 6 c-37 9 -55 28 -55 60z"/></g></defs><style type="text/css">#yeze7vr g.page-margin {font-family:Times,serif;}#yeze7vr g.ending, #yeze7vr g.fing, #yeze7vr g.reh, #yeze7vr g.tempo {font-weight:bold;}#yeze7vr g.dir, #yeze7vr g.dynam, #yeze7vr g.mNum {font-style:italic;}#yeze7vr g.label {font-weight:normal;}#yeze7vr path {stroke:currentColor}</style><svg class="definition-scale" color="black" viewBox="0 0 14000 2100"><g class="page-margin" transform="translate(0, 150)"><g data-id="s1wcucet" data-class="mdiv" class="mdiv pageMilestone"/><g data-id="tydd1ro" data-class="score" class="score pageMilestone"/><g data-id="r1m5ec8b" data-class="system" class="system"><g data-id="v9a5ha2" data-class="section" class="section systemMilestone"/><g data-id="z1349g9e" data-class="measure" class="measure"><g data-id="h1mjdpze" data-class="staff" class="staff"><path d="M0 540 L2166 540" stroke-width="13"/><path d="M0 720 L2166 720" stroke-width="13"/><path d="M0 900 L2166 900" stroke-width="13"/><path d="M0 1080 L2166 1080" stroke-width="13"/><path d="M0 1260 L2166 1260" stroke-width="13"/><g data-id="n1ui6xdg" data-class="clef" class="clef"><use href="#E050-yeze7vr" transform="translate(90, 1080) scale(0.72, 0.72)"/></g><g data-id="oa8hzvq" data-class="keySig" class="keySig"><g data-id="p156r8co" data-class="keyAccid" class="keyAccid"><use href="#E262-yeze7vr" transform="translate(735, 540) scale(0.72, 0.72)"/></g></g><g data-id="qt73gcc" data-class="meterSig" class="meterSig"><use href="#E08A-yeze7vr" transform="translate(1056, 900) scale(0.72, 0.72)"/></g><g data-id="i17yp7yl" data-class="layer" class="layer"><g data-id="v1t6002o" data-class="note" class="note"><g data-class="notehead" class="notehead"><use href="#E0A4-yeze7vr" transform="translate(1635, 720) scale(0.72, 0.72)"/></g><g data-id="c1ajx30d" data-class="stem" class="stem"><path d="M1644 748 L1644 1350" stroke-width="18"/><g data-id="dd0zzw2" data-class="flag" class="flag"><use href="#E241-yeze7vr" transform="translate(1635, 1350) scale(0.72, 0.72)"/></g></g></g></g></g><g data-id="h1yf676y" data-class="barLine" class="barLine"><path d="M2153 540 L2153 1260" stroke-width="27"/></g></g><g data-id="i1y7ckna" data-class="measure" class="measure"><g data-id="jpzuk7u" data-class="staff" class="staff"><path d="M2166 540 L6031 540" stroke-width="13"/><path d="M2166 720 L6031 720" stroke-width="13"/><path d="M2166 900 L6031 900" stroke-width="13"/><path d="M2166 1080 L6031 1080" stroke-width="13"/><path d="M2166 1260 L6031 1260" stroke-width="13"/><g data-id="k1jymx1p" data-class="layer" class="layer"><g data-id="w1va0klf" data-class="note" class="note"><g data-class="notehead" class="notehead"><use href="#E0A4-yeze7vr" transform="translate(2357, 720) scale(0.72, 0.72)"/></g><g data-id="e1blg0ds" data-class="stem" class="stem"><path d="M2366 748 L2366 1350" stroke-width="18"/></g></g><g data-id="xgm1yu5" data-class="note" class="note"><g data-class="notehead" class="notehead"><use href="#E0A4-yeze7vr" transform="translate(3152, 900) scale(0.72, 0.72)"/></g><g data-id="fp6w7ho" data-class="stem" class="stem"><path d="M3161 928 L3161 1500" stroke-width="18"/><g data-id="g1fp4ao2" data-class="flag" class="flag"><use href="#E241-yeze7vr" transform="translate(3152, 1500) scale(0.72, 0.72)"/></g></g></g><g data-id="yvm156z" data-class="note" class="note"><g data-class="notehead" class="notehead"><use href="#E0A4-yeze7vr" transform="translate(3670, 810) scale(0.72, 0.72)"/></g><g data-id="h1wjojem" data-class="stem" class="stem"><path d="M3679 838 L3679 1440" stroke-width="18"/><g data-id="ifkn5eq" data-class="flag" class="flag"><use href="#E241-yeze7vr" transform="translate(3670, 1440) scale(0.72, 0.72)"/></g></g></g><g data-id="zv2f22" data-class="note" class="note"><g data-class="notehead" class="notehead"><use href="#E0A4-yeze7vr" transform="translate(4187, 720) scale(0.72, 0.72)"/></g><g data-id="j1iebpwn" data-class="stem" class="stem"><path d="M4196 748 L4196 1350" stroke-width="18"/></g></g><g data-id="s2c0ul4" data-class="rest" class="rest"><use href="#E4E6-yeze7vr" transform="translate(4982, 900) scale(0.72, 0.72)"/></g><g data-id="ai2s3pe" data-class="note" class="note"><g data-class="notehead" class="notehead"><use href="#E0A4-yeze7vr" transform="translate(5500, 720) scale(0.72, 0.72)"/></g><g data-id="knfk32m" data-class="stem" class="stem"><path d="M5509 748 L5509 1350" stroke-width="18"/><g data-id="lz00vu3" data-class="flag" class="flag"><use href="#E241-yeze7vr" transform="translate(5500, 1350) scale(0.72, 0.72)"/></g></g></g></g></g><g data-id="qho8mhw" data-class="barLine" class="barLine"><path d="M6018 540 L6018 1260" stroke-width="27"/></g></g><g data-id="r1f89464" data-class="measure" class="measure"><g data-id="l1nle6fv" data-class="staff" class="staff"><path d="M6031 540 L10137 540" stroke-width="13"/><path d="M6031 720 L10137 720" stroke-width="13"/><path d="M6031 900 L10137 900" stroke-width="13"/><path d="M6031 1080 L10137 1080" stroke-width="13"/><path d="M6031 1260 L10137 1260" stroke-width="13"/><g data-id="msyrrvt" data-class="layer" class="layer"><g data-id="qc7rd80" data-class="beam" class="beam"><polygon stroke-opacity="1" fill-opacity="1" points="6222,1395 6758,1350 6758,1260 6222,1305"/><g data-id="bqkukd2" data-class="note" class="note"><g data-class="notehead" class="notehead"><use href="#E0A4-yeze7vr" transform="translate(6222, 720) scale(0.72, 0.72)"/></g><g data-id="maah2ay" data-class="stem" class="stem"><path d="M6231 748 L6231 1377" stroke-width="18"/></g></g><g data-id="c15c55ps" data-class="note" class="note"><g data-class="notehead" class="notehead"><use href="#E0A4-yeze7vr" transform="translate(6740, 450) scale(0.72, 0.72)"/></g><g data-id="n1h2z53z" data-class="stem" class="stem"><path d="M6749 478 L6749 1332" stroke-width="18"/></g></g></g><g data-id="d1zs33d" data-class="note" class="note"><g data-class="notehead" class="notehead"><use href="#E0A4-yeze7vr" transform="translate(7258, 900) scale(0.72, 0.72)"/></g><g data-id="ovpuloz" data-class="stem" class="stem"><path d="M7267 928 L7267 1500" stroke-width="18"/><g data-id="pxnp89s" data-class="flag" class="flag"><use href="#E241-yeze7vr" transform="translate(7258, 1500) scale(0.72, 0.72)"/></g></g></g><g data-id="e5ei2up" data-class="note" class="note"><g data-class="notehead" class="notehead"><use href="#E0A4-yeze7vr" transform="translate(7776, 810) scale(0.72, 0.72)"/></g><g data-id="q1lau811" data-class="stem" class="stem"><path d="M7785 838 L7785 1440" stroke-width="18"/><g data-id="r1v58ewo" data-class="flag" class="flag"><use href="#E241-yeze7vr" transform="translate(7776, 1440) scale(0.72, 0.72)"/></g></g></g><g data-id="ft8l1nz" data-class="note" class="note"><g data-class="notehead" class="notehead"><use href="#E0A4-yeze7vr" transform="translate(8294, 720) scale(0.72, 0.72)"/></g><g data-id="si4dvo7" data-class="stem" class="stem"><path d="M8303 748 L8303 1350" stroke-width="18"/></g></g><g data-id="t1wqj9f8" data-class="rest" class="rest"><use href="#E4E6-yeze7vr" transform="translate(9088, 900) scale(0.72, 0.72)"/></g><g data-id="g75kpq1" data-class="note" class="note"><g data-class="notehead" class="notehead"><use href="#E0A4-yeze7vr" transform="translate(9606, 720) scale(0.72, 0.72)"/></g><g data-id="tzkg0sv" data-class="stem" class="stem"><path d="M9615 748 L9615 1350" stroke-width="18"/><g data-id="uaw9bzh" data-class="flag" class="flag"><use href="#E241-yeze7vr" transform="translate(9606, 1350) scale(0.72, 0.72)"/></g></g></g></g></g><g data-id="zlrdq2e" data-class="barLine" class="barLine"><path d="M10124 540 L10124 1260" stroke-width="27"/></g></g><g data-id="a1k8ipg1" data-class="measure" class="measure"><g data-id="n1v0dnmp" data-class="staff" class="staff"><path d="M10137 540 L14002 540" stroke-width="13"/><path d="M10137 720 L14002 720" stroke-width="13"/><path d="M10137 900 L14002 900" stroke-width="13"/><path d="M10137 1080 L14002 1080" stroke-width="13"/><path d="M10137 1260 L14002 1260" stroke-width="13"/><g data-id="o1kj7o7r" data-class="layer" class="layer"><g data-id="hk0fffc" data-class="note" class="note"><g data-class="notehead" class="notehead"><use href="#E0A4-yeze7vr" transform="translate(10328, 630) scale(0.72, 0.72)"/></g><g data-id="vx3g3iv" data-class="stem" class="stem"><path d="M10337 658 L10337 1260" stroke-width="18"/></g></g><g data-id="i1a5wamz" data-class="note" class="note"><g data-class="notehead" class="notehead"><use href="#E0A4-yeze7vr" transform="translate(11123, 720) scale(0.72, 0.72)"/></g><g data-id="wgxv8a0" data-class="stem" class="stem"><path d="M11132 748 L11132 1350" stroke-width="18"/><g data-id="x1ft1a7p" data-class="flag" class="flag"><use href="#E241-yeze7vr" transform="translate(11123, 1350) scale(0.72, 0.72)"/></g></g></g><g data-id="j7n9bxz" data-class="note" class="note"><g data-class="notehead" class="notehead"><use href="#E0A4-yeze7vr" transform="translate(11641, 900) scale(0.72, 0.72)"/></g><g data-id="y4dh1fr" data-class="stem" class="stem"><path d="M11650 928 L11650 1500" stroke-width="18"/><g data-id="zdrm18x" data-class="flag" class="flag"><use href="#E241-yeze7vr" transform="translate(11641, 1500) scale(0.72, 0.72)"/></g></g></g><g data-id="k4jmm4f" data-class="note" class="note"><g data-class="notehead" class="notehead"><use href="#E0A4-yeze7vr" transform="translate(12158, 630) scale(0.72, 0.72)"/></g><g data-id="aigz775" data-class="stem" class="stem"><path d="M12167 658 L12167 1260" stroke-width="18"/></g></g><g data-id="l47qhtn" data-class="note" class="note"><g data-class="notehead" class="notehead"><use href="#E0A4-yeze7vr" transform="translate(12953, 720) scale(0.72, 0.72)"/></g><g data-id="bcddv0i" data-class="stem" class="stem"><path d="M12962 748 L12962 1350" stroke-width="18"/><g data-id="clomd8o" data-class="flag" class="flag"><use href="#E241-yeze7vr" transform="translate(12953, 1350) scale(0.72, 0.72)"/></g></g></g><g data-id="m1od5p77" data-class="note" class="note"><g data-class="notehead" class="notehead"><use href="#E0A4-yeze7vr" transform="translate(13471, 900) scale(0.72, 0.72)"/></g><g data-id="d1ox6tu8" data-class="stem" class="stem"><path d="M13480 928 L13480 1500" stroke-width="18"/><g data-id="eira46z" data-class="flag" class="flag"><use href="#E241-yeze7vr" transform="translate(13471, 1500) scale(0.72, 0.72)"/></g></g></g></g></g><g data-id="i1dnf9vr" data-class="barLine" class="barLine"><path d="M13989 540 L13989 1260" stroke-width="27"/></g></g></g></g></svg></svg>