<svg viewBox="0 0 560 84" version="1.1" xmlns="http://www.w3.org/2000/svg" xmlns:xlink="http://www.w3.org/1999/xlink" overflow="visible" id="p1n3b3j7"><desc>Engraved by Verovio 5.6.0-85e7620</desc><defs><g id="E050-p1n3b3j7"><path transform="scale(1,-1)" d="M441 -245c-23 -4 -48 -6 -76 -6c-59 0 -102 7 -130 20c-88 42 -150 93 -187 154c-26 44 -43 103 -48 176c0 6 -1 13 -1 19c0 54 15 111 45 170c29 57 65 106 110 148s96 85 153 127c-3 16 -8 46 -13 92c-4 43 -5 73 -5 89c0 117 16 172 69 257c34 54 64 82 89 82 c21 0 43 -30 69 -92s39 -115 41 -159v-15c0 -109 -21 -162 -67 -241c-13 -20 -63 -90 -98 -118c-13 -9 -25 -19 -37 -29l31 -181c8 1 18 2 28 2c58 0 102 -12 133 -35c59 -43 92 -104 98 -184c1 -7 1 -15 1 -22c0 -123 -87 -209 -181 -248c8 -57 17 -110 25 -162 c5 -31 6 -58 6 -80c0 -30 -5 -53 -14 -70c-35 -64 -88 -99 -158 -103c-5 0 -11 -1 -16 -1c-37 0 -72 10 -108 27c-50 24 -77 59 -80 105v11c0 29 7 55 20 76c18 28 45 42 79 44h6c49 0 93 -42 97 -87v-9c0 -51 -34 -86 -105 -106c17 -24 51 -36 102 -36c62 0 116 43 140 85 c9 16 13 41 13 74c0 20 -1 42 -5 67c-8 53 -18 106 -26 159zM461 939c-95 0 -135 -175 -135 -286c0 -24 2 -48 5 -71c50 39 92 82 127 128c40 53 60 100 60 140v8c-4 53 -22 81 -55 81h-2zM406 119l54 -326c73 25 110 78 110 161c0 7 0 15 -1 23c-7 95 -57 142 -151 142h-12 zM382 117c-72 -2 -128 -47 -128 -120v-7c2 -46 43 -99 75 -115c-3 -2 -7 -5 -10 -10c-70 33 -116 88 -123 172v11c0 68 44 126 88 159c23 17 49 29 78 36l-29 170c-21 -13 -52 -37 -92 -73c-50 -44 -86 -84 -109 -119c-45 -69 -67 -130 -67 -182v-13c5 -68 35 -127 93 -176 s125 -73 203 -73c25 0 50 3 75 9c-19 111 -36 221 -54 331z"/></g><g id="E260-p1n3b3j7"><path transform="scale(1,-1)" d="M20 110c32 16 54 27 93 27c26 0 35 -3 54 -13c13 -7 24 -20 27 -38l4 -25c0 -28 -16 -57 -45 -89c-23 -25 -39 -44 -65 -68l-88 -79v644h20v-359zM90 106c-32 0 -48 -10 -70 -29v-194c31 31 54 59 71 84c21 32 32 59 32 84c0 9 1 16 1 20c0 14 -3 21 -11 30l-8 3z"/></g><g id="E086-p1n3b3j7"><path transform="scale(1,-1)" d="M284 -91c0 37 -28 92 -67 92c-35 0 -65 -54 -65 -111c0 -52 22 -104 68 -104c47 0 64 68 64 123zM230 214c-36 0 -90 -33 -90 -184l2 -36c40 24 81 36 120 36c80 0 140 -48 140 -121c0 -99 -99 -159 -182 -159c-160 0 -200 173 -200 244c0 21 2 43 7 71l10 35 c26 85 73 115 98 126c41 19 74 24 103 24c93 0 142 -63 142 -105c0 -58 -52 -72 -73 -72c-33 0 -59 24 -65 35c-3 5 -6 14 -7 25l11 30c6 15 9 27 9 35c0 11 -9 16 -25 16z"/></g><g id="E088-p1n3b3j7"><path transform="scale(1,-1)" d="M195 -214c76 0 88 58 90 68c0 34 -35 60 -57 73l-52 29c-21 10 -32 17 -34 20c-39 -33 -58 -54 -62 -92c5 -23 23 -98 115 -98zM301 135c0 61 -72 76 -113 76c-40 0 -77 -17 -77 -51c3 -21 15 -38 26 -50c17 -15 33 -26 48 -34l65 -28c34 27 51 56 51 87zM176 -250 c-57 0 -166 26 -166 132c0 47 30 86 89 116c-33 15 -79 60 -79 119c0 79 85 132 178 132h18c5 0 21 1 28 -1c25 0 126 -30 126 -110c0 -37 -23 -76 -69 -116c43 -25 83 -71 83 -119c0 -101 -118 -153 -208 -153z"/></g><g id="E0A4-p1n3b3j7"><path transform="scale(1,-1)" d="M0 -39c0 68 73 172 200 172c66 0 114 -37 114 -95c0 -84 -106 -171 -218 -171c-64 0 -96 30 -96 94z"/></g><g id="E241-p1n3b3j7"><path transform="scale(1,-1)" d="M179 646c-4 8 -17 30 -18 33l-4 10c0 3 2 5 5 5s7 -2 13 -7c23 -33 46 -81 66 -132c22 -57 35 -125 35 -163c0 -104 -60 -183 -122 -241c-63 -59 -57 -53 -61 -56c-38 -34 -63 -95 -71 -95h-22v190c40 7 69 11 87 16c88 27 168 95 168 200c0 30 -12 89 -30 138 c-17 47 -31 73 -46 102z"/></g><g id="E261-p1n3b3j7"><path transform="scale(1,-1)" d="M0 -188v539h18v-191l139 22v-533h-17v186zM18 -100l122 17v176l-122 -19v-174z"/></g></defs><style type="text/css">#p1n3b3j7 g.page-margin {font-family:Times,serif;}#p1n3b3j7 g.ending, #p1n3b3j7 g.fing, #p1n3b3j7 g.reh, #p1n3b3j7 g.tempo {font-weight:bold;}#p1n3b3j7 g.dir, #p1n3b3j7 g.dynam, #p1n3b3j7 g.mNum {font-style:italic;}#p1n3b3j7 g.label {font-weight:normal;}#p1n3b3j7 path {stroke:currentColor}</style><svg class="definition-scale" color="black" viewBox="0 0 14000 2100"><g class="page-margin" transform="translate(0, 150)"><g data-id="ljmil4a" data-class="mdiv" class="mdiv pageMilestone"/><g data-id="mr2xv70" data-class="score" class="score pageMilestone"/><g data-id="kyvt8cl" data-class="system" class="system"><g data-id="oay8clu" data-class="section" class="section systemMilestone"/><g data-id="qxm0xsf" data-class="measure" class="measure"><g data-id="a10u7nis" data-class="staff" class="staff"><path d="M0 540 L2425 540" stroke-width="13"/><path d="M0 720 L2425 720" stroke-width="13"/><path d="M0 900 L2425 900" stroke-width="13"/><path d="M0 1080 L2425 1080" stroke-width="13"/><path d="M0 1260 L2425 1260" stroke-width="13"/><g data-id="pwv92lh" data-class="clef" class="clef"><use href="#E050-p1n3b3j7" transform="translate(90, 1080) scale(0.72, 0.72)"/></g><g data-id="q1m4mpig" data-class="keySig" class="keySig"><g data-id="r1yqkhur" data-class="keyAccid" class="keyAccid"><use href="#E260-p1n3b3j7" transform="translate(735, 900) scale(0.72, 0.72)"/></g><g data-id="s1mongxk" data-class="keyAccid" class="keyAccid"><use href="#E260-p1n3b3j7" transform="translate(915, 630) scale(0.72, 0.72)"/></g><g data-id="tt14a8h" data-class="keyAccid" class="keyAccid"><use href="#E260-p1n3b3j7" transform="translate(1095, 990) scale(0.72, 0.72)"/></g></g><g data-id="u1vnsuvp" data-class="meterSig" class="meterSig"><use href="#E086-p1n3b3j7" transform="translate(1403, 720) scale(0.72, 0.72)"/><use href="#E088-p1n3b3j7" transform="translate(1410, 1080) scale(0.72, 0.72)"/></g><g data-id="blbcxhh" data-class="layer" class="layer"><g data-id="juvi40x" data-class="note" class="note"><g data-class="notehead" class="notehead"><use href="#E0A4-p1n3b3j7" transform="translate(1962, 900) scale(0.72, 0.72)"/></g><g data-id="x11nfoor" data-class="stem" class="stem"><path d="M1971 928 L1971 1500" stroke-width="18"/><g data-id="yea59m7" data-class="flag" class="flag"><use href="#E241-p1n3b3j7" transform="translate(1962, 1500) scale(0.72, 0.72)"/></g></g><g data-id="b1va55db" data-class="accid" class="accid"/></g></g></g><g data-id="ypmx7f2" data-class="barLine" class="barLine"><path d="M2412 540 L2412 1260" stroke-width="27"/></g></g><g data-id="z11639cc" data-class="measure" class="measure"><g data-id="c1kdgm84" data-class="staff" class="staff"><path d="M2425 540 L5108 540" stroke-width="13"/><path d="M2425 720 L5108 720" stroke-width="13"/><path d="M2425 900 L5108 900" stroke-width="13"/><path d="M2425 1080 L5108 1080" stroke-width="13"/><path d="M2425 1260 L5108 1260" stroke-width="13"/><g data-id="dkmnziu" data-class="layer" class="layer"><g data-id="kq5ewpr" data-class="note" class="note"><g data-class="notehead" class="notehead"><use href="#E0A4-p1n3b3j7" transform="translate(2605, 1080) scale(0.72, 0.72)"/></g><g data-id="ze7lci" data-class="stem" class="stem"><path d="M2822 1052 L2822 450" stroke-width="18"/></g></g><g data-id="l1chw49k" data-class="note" class="note"><g data-class="notehead" class="notehead"><use href="#E0A4-p1n3b3j7" transform="translate(3295, 900) scale(0.72, 0.72)"/></g><g data-id="ayp5pbb" data-class="stem" class="stem"><path d="M3304 928 L3304 1500" stroke-width="18"/><g data-id="b13r53ek" data-class="flag" class="flag"><use href="#E241-p1n3b3j7" transform="translate(3295, 1500) scale(0.72, 0.72)"/></g></g><g data-id="c1q2r9v2" data-class="accid" class="accid"/></g><g data-id="z53r24g" data-class="beam" class="beam"><polygon stroke-opacity="1" fill-opacity="1" points="3745,1440 4213,1485 4213,1395 3745,1350"/><g data-id="m1wue0pc" data-class="note" class="note"><g data-class="notehead" class="notehead"><use href="#E0A4-p1n3b3j7" transform="translate(3745, 630) scale(0.72, 0.72)"/></g><g data-id="c3ahy5w" data-class="stem" class="stem"><path d="M3754 658 L3754 1422" stroke-width="18"/></g><g data-id="d1jg9yg6" data-class="accid" class="accid"/></g><g data-id="n1y54ufu" data-class="note" class="note"><g data-class="notehead" class="notehead"><use href="#E0A4-p1n3b3j7" transform="translate(4195, 900) scale(0.72, 0.72)"/></g><g data-id="ddmt461" data-class="stem" class="stem"><path d="M4204 928 L4204 1467" stroke-width="18"/></g><g data-id="ehp1jg5" data-class="accid" class="accid"/></g></g><g data-id="ome7a4n" data-class="note" class="note"><g data-class="notehead" class="notehead"><use href="#E0A4-p1n3b3j7" transform="translate(4645, 450) scale(0.72, 0.72)"/></g><g data-id="e17d77d8" data-class="stem" class="stem"><path d="M4654 478 L4654 1080" stroke-width="18"/><g data-id="fo9g67n" data-class="flag" class="flag"><use href="#E241-p1n3b3j7" transform="translate(4645, 1080) scale(0.72, 0.72)"/></g></g></g></g></g><g data-id="htnz9a1" data-class="barLine" class="barLine"><path d="M5095 540 L5095 1260" stroke-width="27"/></g></g><g data-id="i3eu7qg" data-class="measure" class="measure"><g data-id="e1xb5ugv" data-class="staff" class="staff"><path d="M5108 540 L7321 540" stroke-width="13"/><path d="M5108 720 L7321 720" stroke-width="13"/><path d="M5108 900 L7321 900" stroke-width="13"/><path d="M5108 1080 L7321 1080" stroke-width="13"/><path d="M5108 1260 L7321 1260" stroke-width="13"/><g data-id="fn8d4u3" data-class="layer" class="layer"><g data-id="prk743q" data-class="note" class="note"><g data-class="notehead" class="notehead"><use href="#E0A4-p1n3b3j7" transform="translate(5288, 450) scale(0.72, 0.72)"/></g><g data-id="hn8dlwg" data-class="dots" class="dots"><ellipse cx="5604" cy="450" rx="36" ry="36" fill-opacity="1" stroke-opacity="1"/></g><g data-id="g1ibue7f" data-class="stem" class="stem"><path d="M5297 478 L5297 1080" stroke-width="18"/></g></g><g data-id="q1235t4l" data-class="note" class="note"><g data-class="notehead" class="notehead"><use href="#E0A4-p1n3b3j7" transform="translate(6168, 630) scale(0.72, 0.72)"/></g><g data-id="ii2o4h3" data-class="stem" class="stem"><path d="M6177 658 L6177 1260" stroke-width="18"/></g><g data-id="f10youbg" data-class="accid" class="accid"/></g><g data-id="r1mj6vwd" data-class="note" class="note"><g data-class="notehead" class="notehead"><use href="#E0A4-p1n3b3j7" transform="translate(6858, 630) scale(0.72, 0.72)"/></g><g data-id="j1pgedg6" data-class="stem" class="stem"><path d="M6867 658 L6867 1260" stroke-width="18"/><g data-id="k1m8tdpg" data-class="flag" class="flag"><use href="#E241-p1n3b3j7" transform="translate(6858, 1260) scale(0.72, 0.72)"/></g></g><g data-id="g1837048" data-class="accid" class="accid"/></g></g></g><g data-id="qpslerx" data-class="barLine" class="barLine"><path d="M7308 540 L7308 1260" stroke-width="27"/></g></g><g data-id="rdm48ue" data-class="measure" class="measure"><g data-id="g8nndwl" data-class="staff" class="staff"><path d="M7321 540 L9794 540" stroke-width="13"/><path d="M7321 720 L9794 720" stroke-width="13"/><path d="M7321 900 L9794 900" stroke-width="13"/><path d="M7321 1080 L9794 1080" stroke-width="13"/><path d="M7321 1260 L9794 1260" stroke-width="13"/><g data-id="hnp6zjh" data-class="layer" class="layer"><g data-id="s1hdqh9o" data-class="note" class="note"><g data-class="notehead" class="notehead"><use href="#E0A4-p1n3b3j7" transform="translate(7501, 630) scale(0.72, 0.72)"/></g><g data-id="laoby86" data-class="stem" class="stem"><path d="M7510 658 L7510 1260" stroke-width="18"/></g><g data-id="hzxaez3" data-class="accid" class="accid"/></g><g data-id="t1963lyp" data-class="note" class="note"><g data-class="notehead" class="notehead"><use href="#E0A4-p1n3b3j7" transform="translate(8191, 900) scale(0.72, 0.72)"/></g><g data-id="m1kad7s7" data-class="stem" class="stem"><path d="M8200 928 L8200 1500" stroke-width="18"/><g data-id="n1mvxfcg" data-class="flag" class="flag"><use href="#E241-p1n3b3j7" transform="translate(8191, 1500) scale(0.72, 0.72)"/></g></g><g data-id="i1xbt07h" data-class="accid" class="accid"/></g><g data-id="u6nya3s" data-class="note" class="note"><g data-class="notehead" class="notehead"><use href="#E0A4-p1n3b3j7" transform="translate(8641, 900) scale(0.72, 0.72)"/></g><g data-id="od59if1" data-class="stem" class="stem"><path d="M8650 928 L8650 1500" stroke-width="18"/></g><g data-id="j11o83uy" data-class="accid" class="accid"/></g><g data-id="v1tb9yx3" data-class="note" class="note"><g data-class="notehead" class="notehead"><use href="#E0A4-p1n3b3j7" transform="translate(9331, 900) scale(0.72, 0.72)"/></g><g data-id="p1rqpr3z" data-class="stem" class="stem"><path d="M9340 928 L9340 1500" stroke-width="18"/><g data-id="q10x5igr" data-class="flag" class="flag"><use href="#E241-p1n3b3j7" transform="translate(9331, 1500) scale(0.72, 0.72)"/></g></g><g data-id="y1vk90yg" data-class="accid" class="accid"><use href="#E261-p1n3b3j7" transform="translate(9173, 900) scale(0.72, 0.72)"/></g></g></g></g><g data-id="z9qtfx3" data-class="barLine" class="barLine"><path d="M9781 540 L9781 1260" stroke-width="27"/></g></g><g data-id="a1swsb6b" data-class="measure" class="measure"><g data-id="i1yhj5le" data-class="staff" class="staff"><path d="M9794 540 L11304 540" stroke-width="13"/><path d="M9794 720 L11304 720" stroke-width="13"/><path d="M9794 900 L11304 900" stroke-width="13"/><path d="M9794 1080 L11304 1080" stroke-width="13"/><path d="M9794 1260 L11304 1260" stroke-width="13"/><g data-id="j1bfigwh" data-class="layer" class="layer"><g data-id="w1gjaaiz" data-class="note" class="note"><g data-class="notehead" class="notehead"><use href="#E0A4-p1n3b3j7" transform="translate(9974, 810) scale(0.72, 0.72)"/></g><g data-id="s1qjf1we" data-class="dots" class="dots"><ellipse cx="10290" cy="810" rx="36" ry="36" fill-opacity="1" stroke-opacity="1"/></g><g data-id="rrw4dl6" data-class="stem" class="stem"><path d="M9983 838 L9983 1440" stroke-width="18"/></g></g><g data-id="x1730m7p" data-class="note" class="note"><g data-class="notehead" class="notehead"><use href="#E0A4-p1n3b3j7" transform="translate(10854, 810) scale(0.72, 0.72)"/></g><g data-id="t1wzuv43" data-class="stem" class="stem"><path d="M10863 838 L10863 1440" stroke-width="18"/><g data-id="umduag5" data-class="flag" class="flag"><use href="#E241-p1n3b3j7" transform="translate(10854, 1440) scale(0.72, 0.72)"/></g></g></g></g></g><g data-id="a3pm6du" data-class="tie" class="tie"><path d="M10245,698 C10376,544 10677,544 10809,698 C10658,593 10395,593 10245,698" stroke-linecap="round" stroke-linejoin="round" stroke-width="9"/></g><g data-id="iheoeac" data-class="barLine" class="barLine"/></g><g data-id="rcqlhxo" data-class="systemMilestoneEnd" class="systemMilestoneEnd oay8clu"/></g><g data-id="s19svov4" data-class="pageMilestoneEnd" class="pageMilestoneEnd mr2xv70"/><g data-id="t13sz8m4" data-class="pageMilestoneEnd" class="pageMilestoneEnd ljmil4a"/></g></svg></svg>