<svg viewBox="0 0 560 84" version="1.1" xmlns="http://www.w3.org/2000/svg" xmlns:xlink="http://www.w3.org/1999/xlink" overflow="visible" id="v1mvvpe8"><desc>Engraved by Verovio 5.6.0-85e7620</desc><defs><g id="E050-v1mvvpe8"><path transform="scale(1,-1)" d="M441 -245c-23 -4 -48 -6 -76 -6c-59 0 -102 7 -130 20c-88 42 -150 93 -187 154c-26 44 -43 103 -48 176c0 6 -1 13 -1 19c0 54 15 111 45 170c29 57 65 106 110 148s96 85 153 127c-3 16 -8 46 -13 92c-4 43 -5 73 -5 89c0 117 16 172 69 257c34 54 64 82 89 82 c21 0 43 -30 69 -92s39 -115 41 -159v-15c0 -109 -21 -162 -67 -241c-13 -20 -63 -90 -98 -118c-13 -9 -25 -19 -37 -29l31 -181c8 1 18 2 28 2c58 0 102 -12 133 -35c59 -43 92 -104 98 -184c1 -7 1 -15 1 -22c0 -123 -87 -209 -181 -248c8 -57 17 -110 25 -162 c5 -31 6 -58 6 -80c0 -30 -5 -53 -14 -70c-35 -64 -88 -99 -158 -103c-5 0 -11 -1 -16 -1c-37 0 -72 10 -108 27c-50 24 -77 59 -80 105v11c0 29 7 55 20 76c18 28 45 42 79 44h6c49 0 93 -42 97 -87v-9c0 -51 -34 -86 -105 -106c17 -24 51 -36 102 -36c62 0 116 43 140 85 c9 16 13 41 13 74c0 20 -1 42 -5 67c-8 53 -18 106 -26 159zM461 939c-95 0 -135 -175 -135 -286c0 -24 2 -48 5 -71c50 39 92 82 127 128c40 53 60 100 60 140v8c-4 53 -22 81 -55 81h-2zM406 119l54 -326c73 25 110 78 110 161c0 7 0 15 -1 23c-7 95 -57 142 -151 142h-12 zM382 117c-72 -2 -128 -47 -128 -120v-7c2 -46 43 -99 75 -115c-3 -2 -7 -5 -10 -10c-70 33 -116 88 -123 172v11c0 68 44 126 88 159c23 17 49 29 78 36l-29 170c-21 -13 -52 -37 -92 -73c-50 -44 -86 -84 -109 -119c-45 -69 -67 -130 -67 -182v-13c5 -68 35 -127 93 -176 s125 -73 203 -73c25 0 50 3 75 9c-19 111 -36 221 -54 331z"/></g><g id="E262-v1mvvpe8"><path transform="scale(1,-1)" d="M136 186v169h17v-164l44 14v-91l-44 -14v-165l44 12v-91l-44 -13v-155h-17v150l-76 -22v-155h-17v149l-43 -13v90l43 14v167l-43 -14v92l43 13v169h17v-163zM60 73v-167l76 22v168z"/></g><g id="E08A-v1mvvpe8"><path transform="scale(1,-1)" d="M340 179c-9 24 -56 41 -89 41c-46 0 -81 -28 -100 -58c-17 -28 -25 -78 -25 -150c0 -65 2 -111 8 -135c8 -31 18 -49 40 -67c20 -17 43 -25 70 -25c54 0 92 36 115 75c14 25 23 54 28 88h27c0 -63 -24 -105 -58 -141c-35 -38 -82 -56 -140 -56c-45 0 -83 13 -115 39 c-57 45 -101 130 -101 226c0 59 33 127 68 163c36 37 97 72 160 72c36 0 93 -21 121 -40c11 -8 23 -17 33 -30c19 -23 27 -48 27 -76c0 -51 -35 -88 -86 -88c-43 0 -76 27 -76 68c0 26 7 35 21 51c15 17 32 27 58 32c7 2 14 7 14 11z"/></g><g id="E0A4-v1mvvpe8"><path transform="scale(1,-1)" d="M0 -39c0 68 73 172 200 172c66 0 114 -37 114 -95c0 -84 -106 -171 -218 -171c-64 0 -96 30 -96 94z"/></g><g id="E241-v1mvvpe8"><path transform="scale(1,-1)" d="M179 646c-4 8 -17 30 -18 33l-4 10c0 3 2 5 5 5s7 -2 13 -7c23 -33 46 -81 66 -132c22 -57 35 -125 35 -163c0 -104 -60 -183 -122 -241c-63 -59 -57 -53 -61 -56c-38 -34 -63 -95 -71 -95h-22v190c40 7 69 11 87 16c88 27 168 95 168 200c0 30 -12 89 -30 138 c-17 47 -31 73 -46 102z"/></g><g id="E4E5-v1mvvpe8"><path transform="scale(1,-1)" d="M107 292c-13 24 -30 49 -52 71c-1 1 0 2 0 3l-2 2c3 3 4 4 6 4c12 0 26 -7 40 -20s44 -40 89 -81c26 -24 28 -29 46 -47c4 -4 8 -9 10 -14c6 -8 8 -16 8 -27c0 -19 -12 -40 -36 -61c-28 -23 -49 -38 -61 -73c-4 -11 -7 -27 -10 -50c13 -43 34 -83 59 -121 c31 -47 59 -79 101 -129c-8 0 -26 7 -54 20l-62 29l-21 6l-23 1c-25 0 -45 -10 -60 -30l-4 -14l-1 -12c0 -33 20 -56 39 -78c8 -9 17 -18 26 -26c17 -15 27 -24 28 -30l-3 -3c-11 5 -19 10 -25 15c-9 3 -37 21 -45 26c-24 14 -45 32 -63 51c-19 21 -37 44 -37 71 c0 63 27 95 80 95c41 0 86 -18 136 -52c-19 26 -37 48 -55 66c-23 23 -48 44 -73 65c-28 23 -47 40 -58 53s-17 26 -18 39c75 64 113 125 113 183c0 27 -7 48 -18 68z"/></g></defs><style type="text/css">#v1mvvpe8 g.page-margin {font-family:Times,serif;}#v1mvvpe8 g.ending, #v1mvvpe8 g.fing, #v1mvvpe8 g.reh, #v1mvvpe8 g.tempo {font-weight:bold;}#v1mvvpe8 g.dir, #v1mvvpe8 g.dynam, #v1mvvpe8 g.mNum {font-style:italic;}#v1mvvpe8 g.label {font-weight:normal;}#v1mvvpe8 path {stroke:currentColor}</style><svg class="definition-scale" color="black" viewBox="0 0 14000 2100"><g class="page-margin" transform="translate(0, 150)"><g data-id="wcy3bzw" data-class="mdiv" class="mdiv pageMilestone"/><g data-id="xea8o23" data-class="score" class="score pageMilestone"/><g data-id="xn8fqnp" data-class="system" class="system"><g data-id="z984ixj" data-class="section" class="section systemMilestone"/><g data-id="wwq1pgd" data-class="measure" class="measure"><g data-id="li2d0uj" data-class="staff" class="staff"><path d="M0 540 L3323 540" stroke-width="13"/><path d="M0 720 L3323 720" stroke-width="13"/><path d="M0 900 L3323 900" stroke-width="13"/><path d="M0 1080 L3323 1080" stroke-width="13"/><path d="M0 1260 L3323 1260" stroke-width="13"/><g data-id="c12hl0vf" data-class="clef" class="clef"><use href="#E050-v1mvvpe8" transform="translate(90, 1080) scale(0.72, 0.72)"/></g><g data-id="dga1pm6" data-class="keySig" class="keySig"><g data-id="e176o1m1" data-class="keyAccid" class="keyAccid"><use href="#E262-v1mvvpe8" transform="translate(735, 540) scale(0.72, 0.72)"/></g><g data-id="fd6vqz2" data-class="keyAccid" class="keyAccid"><use href="#E262-v1mvvpe8" transform="translate(913, 810) scale(0.72, 0.72)"/></g><g data-id="ghdrrva" data-class="keyAccid" class="keyAccid"><use href="#E262-v1mvvpe8" transform="translate(1091, 450) scale(0.72, 0.72)"/></g></g><g data-id="h19edqcc" data-class="meterSig" class="meterSig"><use href="#E08A-v1mvvpe8" transform="translate(1412, 900) scale(0.72, 0.72)"/></g><g data-id="mn0bw9y" data-class="layer" class="layer"><g data-id="i1k6gqvo" data-class="note" class="note"><g data-class="notehead" class="notehead"><use href="#E0A4-v1mvvpe8" transform="translate(1980, 810) scale(0.72, 0.72)"/></g><g data-id="h1vky0fn" data-class="dots" class="dots"><ellipse cx="2296" cy="810" rx="36" ry="36" fill-opacity="1" stroke-opacity="1"/></g><g data-id="g18ujkeu" data-class="stem" class="stem"><path d="M1989 838 L1989 1440" stroke-width="18"/></g><g data-id="r1w03tcm" data-class="accid" class="accid"/></g><g data-id="j1aetp3k" data-class="note" class="note"><g data-class="notehead" class="notehead"><use href="#E0A4-v1mvvpe8" transform="translate(2860, 720) scale(0.72, 0.72)"/></g><g data-id="ifadido" data-class="stem" class="stem"><path d="M2869 748 L2869 1350" stroke-width="18"/><g data-id="jayfalc" data-class="flag" class="flag"><use href="#E241-v1mvvpe8" transform="translate(2860, 1350) scale(0.72, 0.72)"/></g></g></g></g></g><g data-id="e1iyikp1" data-class="barLine" class="barLine"><path d="M3310 540 L3310 1260" stroke-width="27"/></g></g><g data-id="f1nhqqiu" data-class="measure" class="measure"><g data-id="n1impcrm" data-class="staff" class="staff"><path d="M3323 540 L6226 540" stroke-width="13"/><path d="M3323 720 L6226 720" stroke-width="13"/><path d="M3323 900 L6226 900" stroke-width="13"/><path d="M3323 1080 L6226 1080" stroke-width="13"/><path d="M3323 1260 L6226 1260" stroke-width="13"/><g data-id="o13c7sj5" data-class="layer" class="layer"><g data-id="k1m8llx3" data-class="note" class="note"><g data-class="notehead" class="notehead"><use href="#E0A4-v1mvvpe8" transform="translate(3503, 630) scale(0.72, 0.72)"/></g><g data-id="k1m6n7" data-class="stem" class="stem"><path d="M3512 658 L3512 1260" stroke-width="18"/></g></g><g data-id="g1fr1qas" data-class="rest" class="rest"><use href="#E4E5-v1mvvpe8" transform="translate(4193, 900) scale(0.72, 0.72)"/></g><g data-id="l1l6nma1" data-class="note" class="note"><g data-class="notehead" class="notehead"><use href="#E0A4-v1mvvpe8" transform="translate(4883, 630) scale(0.72, 0.72)"/></g><g data-id="m179io89" data-class="dots" class="dots"><ellipse cx="5199" cy="630" rx="36" ry="36" fill-opacity="1" stroke-opacity="1"/></g><g data-id="l8kt80" data-class="stem" class="stem"><path d="M4892 658 L4892 1260" stroke-width="18"/></g></g><g data-id="m149demm" data-class="note" class="note"><g data-class="notehead" class="notehead"><use href="#E0A4-v1mvvpe8" transform="translate(5763, 720) scale(0.72, 0.72)"/></g><g data-id="n13fi5yy" data-class="stem" class="stem"><path d="M5772 748 L5772 1350" stroke-width="18"/><g data-id="olaaepi" data-class="flag" class="flag"><use href="#E241-v1mvvpe8" transform="translate(5763, 1350) scale(0.72, 0.72)"/></g></g></g></g></g><g data-id="n3yg7cx" data-class="barLine" class="barLine"><path d="M6213 540 L6213 1260" stroke-width="27"/></g></g><g data-id="obqb72b" data-class="measure" class="measure"><g data-id="p1mg5r3y" data-class="staff" class="staff"><path d="M6226 540 L9129 540" stroke-width="13"/><path d="M6226 720 L9129 720" stroke-width="13"/><path d="M6226 900 L9129 900" stroke-width="13"/><path d="M6226 1080 L9129 1080" stroke-width="13"/><path d="M6226 1260 L9129 1260" stroke-width="13"/><g data-id="q12g8vdm" data-class="layer" class="layer"><g data-id="n172t1e7" data-class="note" class="note"><g data-class="notehead" class="notehead"><use href="#E0A4-v1mvvpe8" transform="translate(6406, 810) scale(0.72, 0.72)"/></g><g data-id="pqq8cug" data-class="stem" class="stem"><path d="M6415 838 L6415 1440" stroke-width="18"/></g><g data-id="s17av11s" data-class="accid" class="accid"/></g><g data-id="h1cobouc" data-class="rest" class="rest"><use href="#E4E5-v1mvvpe8" transform="translate(7096, 900) scale(0.72, 0.72)"/></g><g data-id="ohnv1e8" data-class="note" class="note"><g data-class="notehead" class="notehead"><use href="#E0A4-v1mvvpe8" transform="translate(7786, 810) scale(0.72, 0.72)"/></g><g data-id="r9o8yf2" data-class="dots" class="dots"><ellipse cx="8102" cy="810" rx="36" ry="36" fill-opacity="1" stroke-opacity="1"/></g><g data-id="q1r0x9s8" data-class="stem" class="stem"><path d="M7795 838 L7795 1440" stroke-width="18"/></g><g data-id="te9588o" data-class="accid" class="accid"/></g><g data-id="p3g6fdj" data-class="note" class="note"><g data-class="notehead" class="notehead"><use href="#E0A4-v1mvvpe8" transform="translate(8666, 810) scale(0.72, 0.72)"/></g><g data-id="s1pb4l09" data-class="stem" class="stem"><path d="M8675 838 L8675 1440" stroke-width="18"/><g data-id="tgs1g7u" data-class="flag" class="flag"><use href="#E241-v1mvvpe8" transform="translate(8666, 1440) scale(0.72, 0.72)"/></g></g><g data-id="uhpk7to" data-class="accid" class="accid"/></g></g></g><g data-id="w140uk42" data-class="barLine" class="barLine"><path d="M9116 540 L9116 1260" stroke-width="27"/></g></g><g data-id="xtppo9f" data-class="measure" class="measure"><g data-id="r1q4o33o" data-class="staff" class="staff"><path d="M9129 540 L9759 540" stroke-width="13"/><path d="M9129 720 L9759 720" stroke-width="13"/><path d="M9129 900 L9759 900" stroke-width="13"/><path d="M9129 1080 L9759 1080" stroke-width="13"/><path d="M9129 1260 L9759 1260" stroke-width="13"/><g data-id="sedjcms" data-class="layer" class="layer"><g data-id="qgqhf2f" data-class="note" class="note"><g data-class="notehead" class="notehead"><use href="#E0A4-v1mvvpe8" transform="translate(9309, 720) scale(0.72, 0.72)"/></g><g data-id="umx87uw" data-class="stem" class="stem"><path d="M9318 748 L9318 1350" stroke-width="18"/><g data-id="vlgo75z" data-class="flag" class="flag"><use href="#E241-v1mvvpe8" transform="translate(9309, 1350) scale(0.72, 0.72)"/></g></g></g></g></g><g data-id="f1pf46rr" data-class="barLine" class="barLine"/></g><g data-id="a1fzwamy" data-class="systemMilestoneEnd" class="systemMilestoneEnd z984ixj"/></g><g data-id="bpqpfnj" data-class="pageMilestoneEnd" class="pageMilestoneEnd xea8o23"/><g data-id="c1p4fm1f" data-class="pageMilestoneEnd" class="pageMilestoneEnd wcy3bzw"/></g></svg></svg>