<svg viewBox="0 0 560 87" version="1.1" xmlns="http://www.w3.org/2000/svg" xmlns:xlink="http://www.w3.org/1999/xlink" overflow="visible" id="vi5rsz8"><desc>Engraved by Verovio 5.6.0-85e7620</desc><defs><g id="E062-vi5rsz8"><path transform="scale(1,-1)" d="M582 -120c0 32 26 58 58 58s58 -26 58 -58s-26 -58 -58 -58s-58 26 -58 58zM582 120c0 32 26 58 58 58s58 -26 58 -58s-26 -58 -58 -58s-58 26 -58 58zM158 96c51 0 73 -14 88 -49l16 -39c0 -17 -2 -30 -7 -40c-3 -11 -10 -21 -19 -31c-17 -18 -49 -43 -84 -43 c-55 0 -77 13 -112 44c-24 21 -35 55 -35 100c0 46 14 81 32 112c30 52 71 79 137 93l36 6l26 2c154 0 235 -68 274 -182c11 -32 18 -68 18 -107c0 -103 -26 -182 -68 -250c-89 -145 -234 -230 -412 -288l-30 -5c-9 0 -14 3 -14 8c3 10 5 11 10 16c35 15 70 30 96 44l78 43 c96 57 162 136 197 258c9 33 17 60 22 100c3 22 5 35 6 39c-7 69 -16 115 -23 140s-4 22 -16 40c-8 12 -19 23 -31 34c-24 21 -62 44 -118 44c-48 0 -84 -8 -113 -28c-28 -19 -42 -44 -42 -73v-16c2 -5 3 -9 4 -11c24 22 52 39 84 39z"/></g><g id="E260-vi5rsz8"><path transform="scale(1,-1)" d="M20 110c32 16 54 27 93 27c26 0 35 -3 54 -13c13 -7 24 -20 27 -38l4 -25c0 -28 -16 -57 -45 -89c-23 -25 -39 -44 -65 -68l-88 -79v644h20v-359zM90 106c-32 0 -48 -10 -70 -29v-194c31 31 54 59 71 84c21 32 32 59 32 84c0 9 1 16 1 20c0 14 -3 21 -11 30l-8 3z"/></g><g id="E083-vi5rsz8"><path transform="scale(1,-1)" d="M208 250c97 0 177 -52 177 -116c0 -69 -40 -111 -118 -125c56 -5 125 -44 125 -116c0 -31 -10 -57 -31 -78c-19 -21 -45 -38 -78 -49l-50 -11c-15 -3 -36 -7 -55 -7c-50 0 -86 16 -113 38c-16 10 -23 18 -34 34c-7 13 -11 25 -11 38c0 43 27 83 68 83l3 -2 c61 0 75 -42 75 -70c0 -19 -24 -42 -26 -57c7 -17 20 -25 37 -25c44 0 94 29 94 78c0 75 -34 125 -138 125v36c84 0 131 22 131 98c0 54 -37 88 -87 88c-26 0 -43 -7 -51 -22c15 -22 44 -16 44 -70c0 -37 -37 -62 -71 -62c-22 0 -69 15 -69 76c0 79 101 116 178 116z"/></g><g id="E084-vi5rsz8"><path transform="scale(1,-1)" d="M20 -78c84 97 114 180 134 329h170c-13 -32 -82 -132 -99 -151l-84 -97c-33 -36 -59 -63 -80 -81h162v102l127 123v-225h57v-39h-57v-34c0 -43 19 -65 57 -65v-34h-244v36c48 0 60 26 60 70v27h-203v39z"/></g><g id="E4E6-vi5rsz8"><path transform="scale(1,-1)" d="M0 123c7 34 33 56 69 60c29 -3 43 -9 53 -29c4 -8 7 -15 10 -22c0 -21 -1 -25 -11 -35c-5 -8 -18 -14 -40 -20l12 -3l15 -1c44 0 97 26 122 56c10 11 18 26 24 42c7 1 15 2 22 3l-140 -424h-36l111 330c-10 -6 -27 -12 -53 -16l-52 -8h-10l-20 1c-1 0 -8 3 -21 6 c-37 9 -55 28 -55 60z"/></g><g id="E0A4-vi5rsz8"><path transform="scale(1,-1)" d="M0 -39c0 68 73 172 200 172c66 0 114 -37 114 -95c0 -84 -106 -171 -218 -171c-64 0 -96 30 -96 94z"/></g><g id="E0A3-vi5rsz8"><path transform="scale(1,-1)" d="M278 64c0 22 -17 39 -43 39c-12 0 -26 -3 -41 -10c-85 -43 -165 -94 -165 -156c5 -25 15 -32 49 -32c67 11 200 95 200 159zM0 -36c0 68 73 174 200 174c66 0 114 -39 114 -97c0 -84 -106 -173 -218 -173c-64 0 -96 32 -96 96z"/></g></defs><style type="text/css">#vi5rsz8 g.page-margin {font-family:Times,serif;}#vi5rsz8 g.ending, #vi5rsz8 g.fing, #vi5rsz8 g.reh, #vi5rsz8 g.tempo {font-weight:bold;}#vi5rsz8 g.dir, #vi5rsz8 g.dynam, #vi5rsz8 g.mNum {font-style:italic;}#vi5rsz8 g.label {font-weight:normal;}#vi5rsz8 path {stroke:currentColor}</style><svg class="definition-scale" color="black" viewBox="0 0 14000 2160"><g class="page-margin" transform="translate(0, 150)"><g data-id="iuh551" data-class="mdiv" class="mdiv pageMilestone"/><g data-id="j1ob72s8" data-class="score" class="score pageMilestone"/><g data-id="tuyue6g" data-class="system" class="system"><g data-id="l8sbans" data-class="section" class="section systemMilestone"/><g data-id="w1kk9nq3" data-class="measure" class="measure"><g data-id="x1wrribm" data-class="staff" class="staff"><path d="M0 607 L4712 607" stroke-width="13"/><path d="M0 787 L4712 787" stroke-width="13"/><path d="M0 967 L4712 967" stroke-width="13"/><path d="M0 1147 L4712 1147" stroke-width="13"/><path d="M0 1327 L4712 1327" stroke-width="13"/><g data-id="y1vrlptp" data-class="clef" class="clef"><use href="#E062-vi5rsz8" transform="translate(88, 787) scale(0.72, 0.72)"/></g><g data-id="z1t9e8ds" data-class="keySig" class="keySig"><g data-id="asbs8a1" data-class="keyAccid" class="keyAccid"><use href="#E260-vi5rsz8" transform="translate(769, 1147) scale(0.72, 0.72)"/></g><g data-id="b1yfldtn" data-class="keyAccid" class="keyAccid"><use href="#E260-vi5rsz8" transform="translate(949, 877) scale(0.72, 0.72)"/></g><g data-id="c1lzvzpm" data-class="keyAccid" class="keyAccid"><use href="#E260-vi5rsz8" transform="translate(1129, 1237) scale(0.72, 0.72)"/></g></g><g data-id="d14ruypb" data-class="meterSig" class="meterSig"><use href="#E083-vi5rsz8" transform="translate(1443, 787) scale(0.72, 0.72)"/><use href="#E084-vi5rsz8" transform="translate(1437, 1147) scale(0.72, 0.72)"/></g><g data-id="y1k4u23t" data-class="layer" class="layer"><g data-id="grmjob9" data-class="rest" class="rest"><use href="#E4E6-vi5rsz8" transform="translate(1999, 967) scale(0.72, 0.72)"/></g><g data-id="x1qifzoj" data-class="beam" class="beam"><polygon stroke-opacity="1" fill-opacity="1" points="2657,427 4475,247 4475,337 2657,517"/><g data-id="h10l60l8" data-class="note" class="note"><g data-class="notehead" class="notehead"><use href="#E0A4-vi5rsz8" transform="translate(2449, 1147) scale(0.72, 0.72)"/></g><g data-id="s11zsime" data-class="stem" class="stem"><path d="M2666 1119 L2666 445" stroke-width="18"/></g><g data-id="a18inqc3" data-class="accid" class="accid"/></g><g data-id="i18kjns4" data-class="note" class="note"><g data-class="notehead" class="notehead"><use href="#E0A4-vi5rsz8" transform="translate(2899, 1327) scale(0.72, 0.72)"/></g><g data-id="t1lgbnbd" data-class="stem" class="stem"><path d="M3116 1299 L3116 400" stroke-width="18"/></g></g><g data-id="j26l6zu" data-class="note" class="note"><g data-class="notehead" class="notehead"><use href="#E0A4-vi5rsz8" transform="translate(3349, 1147) scale(0.72, 0.72)"/></g><g data-id="u1qlweu3" data-class="stem" class="stem"><path d="M3566 1119 L3566 355" stroke-width="18"/></g><g data-id="b1331swd" data-class="accid" class="accid"/></g><g data-id="kdj0dpu" data-class="note" class="note"><g data-class="notehead" class="notehead"><use href="#E0A4-vi5rsz8" transform="translate(3799, 877) scale(0.72, 0.72)"/></g><g data-id="v16mruu2" data-class="stem" class="stem"><path d="M4016 849 L4016 310" stroke-width="18"/></g><g data-id="c19x7y3o" data-class="accid" class="accid"/></g><g data-id="lbshsx8" data-class="note" class="note"><g data-class="notehead" class="notehead"><use href="#E0A4-vi5rsz8" transform="translate(4249, 787) scale(0.72, 0.72)"/></g><g data-id="w1q7dvjv" data-class="stem" class="stem"><path d="M4466 759 L4466 265" stroke-width="18"/></g></g></g></g></g><g data-id="e21gsh9" data-class="barLine" class="barLine"><path d="M4699 607 L4699 1327" stroke-width="27"/></g></g><g data-id="fhd1fb0" data-class="measure" class="measure"><g data-id="z1msn92k" data-class="staff" class="staff"><path d="M4712 607 L6855 607" stroke-width="13"/><path d="M4712 787 L6855 787" stroke-width="13"/><path d="M4712 967 L6855 967" stroke-width="13"/><path d="M4712 1147 L6855 1147" stroke-width="13"/><path d="M4712 1327 L6855 1327" stroke-width="13"/><g data-id="a1dtp8bx" data-class="layer" class="layer"><g data-id="my086df" data-class="note" class="note"><g data-class="notehead" class="notehead"><use href="#E0A3-vi5rsz8" transform="translate(4892, 697) scale(0.72, 0.72)"/></g><g data-id="x1pn37i2" data-class="stem" class="stem"><path d="M4901 722 L4901 1327" stroke-width="18"/></g></g><g data-id="yo78dow" data-class="beam" class="beam"><polygon stroke-opacity="1" fill-opacity="1" points="5942,1462 6410,1417 6410,1327 5942,1372"/><g data-id="nmla7do" data-class="note" class="note"><g data-class="notehead" class="notehead"><use href="#E0A4-vi5rsz8" transform="translate(5942, 787) scale(0.72, 0.72)"/></g><g data-id="yoxz1f6" data-class="stem" class="stem"><path d="M5951 815 L5951 1444" stroke-width="18"/></g></g><g data-id="opgj9si" data-class="note" class="note"><g data-class="notehead" class="notehead"><use href="#E0A4-vi5rsz8" transform="translate(6392, 697) scale(0.72, 0.72)"/></g><g data-id="z18lbyg9" data-class="stem" class="stem"><path d="M6401 725 L6401 1399" stroke-width="18"/></g></g></g></g></g><g data-id="nmvd9pi" data-class="barLine" class="barLine"><path d="M6842 607 L6842 1327" stroke-width="27"/></g></g><g data-id="orqe4dw" data-class="measure" class="measure"><g data-id="bhbphj8" data-class="staff" class="staff"><path d="M6855 607 L9827 607" stroke-width="13"/><path d="M6855 787 L9827 787" stroke-width="13"/><path d="M6855 967 L9827 967" stroke-width="13"/><path d="M6855 1147 L9827 1147" stroke-width="13"/><path d="M6855 1327 L9827 1327" stroke-width="13"/><g data-class="ledgerLines" class="ledgerLines above"><g data-class="lineDash" class="lineDash" data-related="#tto00a4"><path d="M8787 427 L9109 427" stroke-width="22"/></g><g data-class="lineDash" class="lineDash" data-related="#utetdoj"><path d="M9316 427 L9638 427" stroke-width="22"/></g></g><g data-id="c1yemptg" data-class="layer" class="layer"><g data-id="z1lj7k5w" data-class="beam" class="beam"><polygon stroke-opacity="1" fill-opacity="1" points="7035,1597 9382,1597 9382,1507 7035,1507"/><g data-id="p685vqr" data-class="note" class="note"><g data-class="notehead" class="notehead"><use href="#E0A4-vi5rsz8" transform="translate(7035, 607) scale(0.72, 0.72)"/></g><g data-id="a1v597yn" data-class="stem" class="stem"><path d="M7044 635 L7044 1579" stroke-width="18"/></g><g data-id="d4sb5ih" data-class="accid" class="accid"/></g><g data-id="q1aoprif" data-class="note" class="note"><g data-class="notehead" class="notehead"><use href="#E0A4-vi5rsz8" transform="translate(7485, 877) scale(0.72, 0.72)"/></g><g data-id="bazf0t8" data-class="stem" class="stem"><path d="M7494 905 L7494 1579" stroke-width="18"/></g><g data-id="esfp2d9" data-class="accid" class="accid"/></g><g data-id="r1jvxd5i" data-class="note" class="note"><g data-class="notehead" class="notehead"><use href="#E0A4-vi5rsz8" transform="translate(7935, 1057) scale(0.72, 0.72)"/></g><g data-id="cpdww7" data-class="stem" class="stem"><path d="M7944 1085 L7944 1579" stroke-width="18"/></g></g><g data-id="s19z0ney" data-class="note" class="note"><g data-class="notehead" class="notehead"><use href="#E0A4-vi5rsz8" transform="translate(8385, 877) scale(0.72, 0.72)"/></g><g data-id="dmf3lyw" data-class="stem" class="stem"><path d="M8394 905 L8394 1579" stroke-width="18"/></g><g data-id="f1vomcbj" data-class="accid" class="accid"/></g><g data-id="tto00a4" data-class="note" class="note"><g data-class="notehead" class="notehead"><use href="#E0A4-vi5rsz8" transform="translate(8835, 427) scale(0.72, 0.72)"/></g><g data-id="eajemt5" data-class="stem" class="stem"><path d="M8844 455 L8844 1579" stroke-width="18"/></g></g><g data-id="utetdoj" data-class="note" class="note"><g data-class="notehead" class="notehead"><use href="#E0A4-vi5rsz8" transform="translate(9364, 337) scale(0.72, 0.72)"/></g><g data-id="f1pd04qx" data-class="stem" class="stem"><path d="M9373 365 L9373 1579" stroke-width="18"/></g><g data-id="wtxp3hi" data-class="accid" class="accid"><use href="#E260-vi5rsz8" transform="translate(9151, 337) scale(0.72, 0.72)"/></g></g></g></g></g><g data-id="w1b3yjjn" data-class="barLine" class="barLine"><path d="M9814 607 L9814 1327" stroke-width="27"/></g></g><g data-id="xu9yfq3" data-class="measure" class="measure"><g data-id="dd9034a" data-class="staff" class="staff"><path d="M9827 607 L10887 607" stroke-width="13"/><path d="M9827 787 L10887 787" stroke-width="13"/><path d="M9827 967 L10887 967" stroke-width="13"/><path d="M9827 1147 L10887 1147" stroke-width="13"/><path d="M9827 1327 L10887 1327" stroke-width="13"/><g data-class="ledgerLines" class="ledgerLines above"><g data-class="lineDash" class="lineDash" data-related="#vu1okga"><path d="M9959 427 L10281 427" stroke-width="22"/></g><g data-class="lineDash" class="lineDash" data-related="#vu1okga"><path d="M9959 247 L10281 247" stroke-width="22"/></g></g><g data-id="e5f7046" data-class="layer" class="layer"><g data-id="vu1okga" data-class="note" class="note"><g data-class="notehead" class="notehead"><use href="#E0A4-vi5rsz8" transform="translate(10007, 247) scale(0.72, 0.72)"/></g><g data-id="h17lu5ch" data-class="dots" class="dots"><ellipse cx="10323" cy="157" rx="36" ry="36" fill-opacity="1" stroke-opacity="1"/></g><g data-id="g135x9vh" data-class="stem" class="stem"><path d="M10016 275 L10016 967" stroke-width="18"/></g><g data-id="g1nrgvpw" data-class="accid" class="accid"/></g></g></g><g data-id="fcn87pp" data-class="barLine" class="barLine"/></g><g data-id="m1iu9f19" data-class="systemMilestoneEnd" class="systemMilestoneEnd l8sbans"/></g><g data-id="n1p7y7i7" data-class="pageMilestoneEnd" class="pageMilestoneEnd j1ob72s8"/><g data-id="o196famv" data-class="pageMilestoneEnd" class="pageMilestoneEnd iuh551"/></g></svg></svg>