<svg viewBox="0 0 560 84" version="1.1" xmlns="http://www.w3.org/2000/svg" xmlns:xlink="http://www.w3.org/1999/xlink" overflow="visible" id="ujd3niq"><desc>Engraved by Verovio 5.6.0-85e7620</desc><defs><g id="E050-ujd3niq"><path transform="scale(1,-1)" d="M441 -245c-23 -4 -48 -6 -76 -6c-59 0 -102 7 -130 20c-88 42 -150 93 -187 154c-26 44 -43 103 -48 176c0 6 -1 13 -1 19c0 54 15 111 45 170c29 57 65 106 110 148s96 85 153 127c-3 16 -8 46 -13 92c-4 43 -5 73 -5 89c0 117 16 172 69 257c34 54 64 82 89 82 c21 0 43 -30 69 -92s39 -115 41 -159v-15c0 -109 -21 -162 -67 -241c-13 -20 -63 -90 -98 -118c-13 -9 -25 -19 -37 -29l31 -181c8 1 18 2 28 2c58 0 102 -12 133 -35c59 -43 92 -104 98 -184c1 -7 1 -15 1 -22c0 -123 -87 -209 -181 -248c8 -57 17 -110 25 -162 c5 -31 6 -58 6 -80c0 -30 -5 -53 -14 -70c-35 -64 -88 -99 -158 -103c-5 0 -11 -1 -16 -1c-37 0 -72 10 -108 27c-50 24 -77 59 -80 105v11c0 29 7 55 20 76c18 28 45 42 79 44h6c49 0 93 -42 97 -87v-9c0 -51 -34 -86 -105 -106c17 -24 51 -36 102 -36c62 0 116 43 140 85 c9 16 13 41 13 74c0 20 -1 42 -5 67c-8 53 -18 106 -26 159zM461 939c-95 0 -135 -175 -135 -286c0 -24 2 -48 5 -71c50 39 92 82 127 128c40 53 60 100 60 140v8c-4 53 -22 81 -55 81h-2zM406 119l54 -326c73 25 110 78 110 161c0 7 0 15 -1 23c-7 95 -57 142 -151 142h-12 zM382 117c-72 -2 -128 -47 -128 -120v-7c2 -46 43 -99 75 -115c-3 -2 -7 -5 -10 -10c-70 33 -116 88 -123 172v11c0 68 44 126 88 159c23 17 49 29 78 36l-29 170c-21 -13 -52 -37 -92 -73c-50 -44 -86 -84 -109 -119c-45 -69 -67 -130 -67 -182v-13c5 -68 35 -127 93 -176 s125 -73 203 -73c25 0 50 3 75 9c-19 111 -36 221 -54 331z"/></g><g id="E262-ujd3niq"><path transform="scale(1,-1)" d="M136 186v169h17v-164l44 14v-91l-44 -14v-165l44 12v-91l-44 -13v-155h-17v150l-76 -22v-155h-17v149l-43 -13v90l43 14v167l-43 -14v92l43 13v169h17v-163zM60 73v-167l76 22v168z"/></g><g id="E086-ujd3niq"><path transform="scale(1,-1)" d="M284 -91c0 37 -28 92 -67 92c-35 0 -65 -54 -65 -111c0 -52 22 -104 68 -104c47 0 64 68 64 123zM230 214c-36 0 -90 -33 -90 -184l2 -36c40 24 81 36 120 36c80 0 140 -48 140 -121c0 -99 -99 -159 -182 -159c-160 0 -200 173 -200 244c0 21 2 43 7 71l10 35 c26 85 73 115 98 126c41 19 74 24 103 24c93 0 142 -63 142 -105c0 -58 -52 -72 -73 -72c-33 0 -59 24 -65 35c-3 5 -6 14 -7 25l11 30c6 15 9 27 9 35c0 11 -9 16 -25 16z"/></g><g id="E088-ujd3niq"><path transform="scale(1,-1)" d="M195 -214c76 0 88 58 90 68c0 34 -35 60 -57 73l-52 29c-21 10 -32 17 -34 20c-39 -33 -58 -54 -62 -92c5 -23 23 -98 115 -98zM301 135c0 61 -72 76 -113 76c-40 0 -77 -17 -77 -51c3 -21 15 -38 26 -50c17 -15 33 -26 48 -34l65 -28c34 27 51 56 51 87zM176 -250 c-57 0 -166 26 -166 132c0 47 30 86 89 116c-33 15 -79 60 -79 119c0 79 85 132 178 132h18c5 0 21 1 28 -1c25 0 126 -30 126 -110c0 -37 -23 -76 -69 -116c43 -25 83 -71 83 -119c0 -101 -118 -153 -208 -153z"/></g><g id="E0A4-ujd3niq"><path transform="scale(1,-1)" d="M0 -39c0 68 73 172 200 172c66 0 114 -37 114 -95c0 -84 -106 -171 -218 -171c-64 0 -96 30 -96 94z"/></g><g id="E240-ujd3niq"><path transform="scale(1,-1)" d="M179 -646c15 29 29 55 46 102c18 49 30 108 30 138c0 105 -80 173 -168 200c-18 5 -47 9 -87 16v190h22c8 0 33 -61 71 -95c4 -3 -2 3 61 -56c62 -58 122 -137 122 -241c0 -38 -13 -106 -35 -163c-20 -51 -43 -99 -66 -132c-6 -5 -10 -7 -13 -7s-5 2 -5 5l4 10 c1 3 14 25 18 33z"/></g><g id="E241-ujd3niq"><path transform="scale(1,-1)" d="M179 646c-4 8 -17 30 -18 33l-4 10c0 3 2 5 5 5s7 -2 13 -7c23 -33 46 -81 66 -132c22 -57 35 -125 35 -163c0 -104 -60 -183 -122 -241c-63 -59 -57 -53 -61 -56c-38 -34 -63 -95 -71 -95h-22v190c40 7 69 11 87 16c88 27 168 95 168 200c0 30 -12 89 -30 138 c-17 47 -31 73 -46 102z"/></g></defs><style type="text/css">#ujd3niq g.page-margin {font-family:Times,serif;}#ujd3niq g.ending, #ujd3niq g.fing, #ujd3niq g.reh, #ujd3niq g.tempo {font-weight:bold;}#ujd3niq g.dir, #ujd3niq g.dynam, #ujd3niq g.mNum {font-style:italic;}#ujd3niq g.label {font-weight:normal;}#ujd3niq path {stroke:currentColor}</style><svg class="definition-scale" color="black" viewBox="0 0 14000 2100"><g class="page-margin" transform="translate(0, 150)"><g data-id="m11pbfzb" data-class="mdiv" class="mdiv pageMilestone"/><g data-id="n1osbkzh" data-class="score" class="score pageMilestone"/><g data-id="p1809qd7" data-class="system" class="system"><g data-id="p1b9oe2y" data-class="section" class="section systemMilestone"/><g data-id="vtiwwmo" data-class="measure" class="measure"><g data-id="bxt9max" data-class="staff" class="staff"><path d="M0 540 L3070 540" stroke-width="13"/><path d="M0 720 L3070 720" stroke-width="13"/><path d="M0 900 L3070 900" stroke-width="13"/><path d="M0 1080 L3070 1080" stroke-width="13"/><path d="M0 1260 L3070 1260" stroke-width="13"/><g data-id="w1dk69dl" data-class="clef" class="clef"><use href="#E050-ujd3niq" transform="translate(90, 1080) scale(0.72, 0.72)"/></g><g data-id="x112jum2" data-class="keySig" class="keySig"><g data-id="yggu55j" data-class="keyAccid" class="keyAccid"><use href="#E262-ujd3niq" transform="translate(735, 540) scale(0.72, 0.72)"/></g></g><g data-id="zryrhf0" data-class="meterSig" class="meterSig"><use href="#E086-ujd3niq" transform="translate(1042, 720) scale(0.72, 0.72)"/><use href="#E088-ujd3niq" transform="translate(1049, 1080) scale(0.72, 0.72)"/></g><g data-id="c1bjy0h4" data-class="layer" class="layer"><g data-id="w9c6nir" data-class="note" class="note"><g data-class="notehead" class="notehead"><use href="#E0A4-ujd3niq" transform="translate(1601, 1080) scale(0.72, 0.72)"/></g><g data-id="sf56ngd" data-class="stem" class="stem"><path d="M1818 1052 L1818 450" stroke-width="18"/><g data-id="t1ohuhe2" data-class="flag" class="flag"><use href="#E240-ujd3niq" transform="translate(1809, 450) scale(0.72, 0.72)"/></g></g></g><g data-id="x1qqdfq4" data-class="note" class="note"><g data-class="notehead" class="notehead"><use href="#E0A4-ujd3niq" transform="translate(2051, 1170) scale(0.72, 0.72)"/></g><g data-id="u14cjm1d" data-class="stem" class="stem"><path d="M2268 1142 L2268 540" stroke-width="18"/><g data-id="vm65hmd" data-class="flag" class="flag"><use href="#E240-ujd3niq" transform="translate(2259, 540) scale(0.72, 0.72)"/></g></g><g data-id="kjxf1t4" data-class="accid" class="accid"/></g><g data-id="y1dojwi2" data-class="note" class="note"><g data-class="notehead" class="notehead"><use href="#E0A4-ujd3niq" transform="translate(2547, 1080) scale(0.72, 0.72)"/></g><g data-id="wgq5hjh" data-class="stem" class="stem"><path d="M2764 1052 L2764 450" stroke-width="18"/><g data-id="x1t5kttt" data-class="flag" class="flag"><use href="#E240-ujd3niq" transform="translate(2755, 450) scale(0.72, 0.72)"/></g></g></g></g></g><g data-id="d14bw9ie" data-class="barLine" class="barLine"><path d="M3057 540 L3057 1260" stroke-width="27"/></g></g><g data-id="e1f54y7s" data-class="measure" class="measure"><g data-id="d1uykvsr" data-class="staff" class="staff"><path d="M3070 540 L5851 540" stroke-width="13"/><path d="M3070 720 L5851 720" stroke-width="13"/><path d="M3070 900 L5851 900" stroke-width="13"/><path d="M3070 1080 L5851 1080" stroke-width="13"/><path d="M3070 1260 L5851 1260" stroke-width="13"/><g data-id="emq7ibt" data-class="layer" class="layer"><g data-id="z6z4xp4" data-class="note" class="note"><g data-class="notehead" class="notehead"><use href="#E0A4-ujd3niq" transform="translate(3250, 810) scale(0.72, 0.72)"/></g><g data-id="y1bkbq2a" data-class="stem" class="stem"><path d="M3259 838 L3259 1440" stroke-width="18"/></g></g><g data-id="a1n7lgel" data-class="note" class="note"><g data-class="notehead" class="notehead"><use href="#E0A4-ujd3niq" transform="translate(3940, 900) scale(0.72, 0.72)"/></g><g data-id="z18pws74" data-class="stem" class="stem"><path d="M3949 928 L3949 1500" stroke-width="18"/><g data-id="a1hl03z4" data-class="flag" class="flag"><use href="#E241-ujd3niq" transform="translate(3940, 1500) scale(0.72, 0.72)"/></g></g></g><g data-id="b27niy8" data-class="note" class="note"><g data-class="notehead" class="notehead"><use href="#E0A4-ujd3niq" transform="translate(4390, 900) scale(0.72, 0.72)"/></g><g data-id="b5ifrrp" data-class="stem" class="stem"><path d="M4399 928 L4399 1500" stroke-width="18"/><g data-id="cmsjv82" data-class="flag" class="flag"><use href="#E241-ujd3niq" transform="translate(4390, 1500) scale(0.72, 0.72)"/></g></g></g><g data-id="c12lla9g" data-class="note" class="note"><g data-class="notehead" class="notehead"><use href="#E0A4-ujd3niq" transform="translate(4892, 990) scale(0.72, 0.72)"/></g><g data-id="d1ieo2vb" data-class="stem" class="stem"><path d="M5109 962 L5109 360" stroke-width="18"/><g data-id="e1mqicxa" data-class="flag" class="flag"><use href="#E240-ujd3niq" transform="translate(5100, 360) scale(0.72, 0.72)"/></g></g><g data-id="j52mxms" data-class="accid" class="accid"><use href="#E262-ujd3niq" transform="translate(4706, 990) scale(0.72, 0.72)"/></g></g><g data-id="d5dk3q3" data-class="note" class="note"><g data-class="notehead" class="notehead"><use href="#E0A4-ujd3niq" transform="translate(5388, 900) scale(0.72, 0.72)"/></g><g data-id="f12rydli" data-class="stem" class="stem"><path d="M5397 928 L5397 1500" stroke-width="18"/><g data-id="g12pyarx" data-class="flag" class="flag"><use href="#E241-ujd3niq" transform="translate(5388, 1500) scale(0.72, 0.72)"/></g></g></g></g></g><g data-id="m1ff7ri7" data-class="barLine" class="barLine"><path d="M5838 540 L5838 1260" stroke-width="27"/></g></g><g data-id="nzsvnyo" data-class="measure" class="measure"><g data-id="fwfzo1i" data-class="staff" class="staff"><path d="M5851 540 L8693 540" stroke-width="13"/><path d="M5851 720 L8693 720" stroke-width="13"/><path d="M5851 900 L8693 900" stroke-width="13"/><path d="M5851 1080 L8693 1080" stroke-width="13"/><path d="M5851 1260 L8693 1260" stroke-width="13"/><g data-id="gwp07pu" data-class="layer" class="layer"><g data-id="e1rnxxa7" data-class="note" class="note"><g data-class="notehead" class="notehead"><use href="#E0A4-ujd3niq" transform="translate(6031, 630) scale(0.72, 0.72)"/></g><g data-id="hgo1xep" data-class="stem" class="stem"><path d="M6040 658 L6040 1260" stroke-width="18"/></g></g><g data-id="f1u4qssp" data-class="note" class="note"><g data-class="notehead" class="notehead"><use href="#E0A4-ujd3niq" transform="translate(6721, 720) scale(0.72, 0.72)"/></g><g data-id="i19ngnzb" data-class="stem" class="stem"><path d="M6730 748 L6730 1350" stroke-width="18"/><g data-id="jn15xdd" data-class="flag" class="flag"><use href="#E241-ujd3niq" transform="translate(6721, 1350) scale(0.72, 0.72)"/></g></g></g><g data-id="g1amosuf" data-class="note" class="note"><g data-class="notehead" class="notehead"><use href="#E0A4-ujd3niq" transform="translate(7171, 720) scale(0.72, 0.72)"/></g><g data-id="kj77w8f" data-class="stem" class="stem"><path d="M7180 748 L7180 1350" stroke-width="18"/><g data-id="l6q6bpm" data-class="flag" class="flag"><use href="#E241-ujd3niq" transform="translate(7171, 1350) scale(0.72, 0.72)"/></g></g></g><g data-id="hhuqf2b" data-class="note" class="note"><g data-class="notehead" class="notehead"><use href="#E0A4-ujd3niq" transform="translate(7621, 900) scale(0.72, 0.72)"/></g><g data-id="m7qzc72" data-class="stem" class="stem"><path d="M7630 928 L7630 1500" stroke-width="18"/><g data-id="n1m3a2j0" data-class="flag" class="flag"><use href="#E241-ujd3niq" transform="translate(7621, 1500) scale(0.72, 0.72)"/></g></g></g><g data-id="iiqp1dr" data-class="note" class="note"><g data-class="notehead" class="notehead"><use href="#E0A4-ujd3niq" transform="translate(8071, 990) scale(0.72, 0.72)"/></g><g data-id="o6tm2xz" data-class="stem" class="stem"><path d="M8288 962 L8288 360" stroke-width="18"/><g data-id="pf68yep" data-class="flag" class="flag"><use href="#E240-ujd3niq" transform="translate(8279, 360) scale(0.72, 0.72)"/></g></g></g></g></g><g data-id="v1fbjv" data-class="barLine" class="barLine"><path d="M8581 540 L8581 1260" stroke-width="27"/><path d="M8680 540 L8680 1260" stroke-width="27"/></g></g><g data-id="oe502cl" data-class="systemMilestoneEnd" class="systemMilestoneEnd p1b9oe2y"/></g><g data-id="pn702b4" data-class="pageMilestoneEnd" class="pageMilestoneEnd n1osbkzh"/><g data-id="qr7f7oz" data-class="pageMilestoneEnd" class="pageMilestoneEnd m11pbfzb"/></g></svg></svg>