<svg viewBox="0 0 560 84" version="1.1" xmlns="http://www.w3.org/2000/svg" xmlns:xlink="http://www.w3.org/1999/xlink" overflow="visible" id="x5a60y8"><desc>Engraved by Verovio 5.6.0-85e7620</desc><defs><g id="E050-x5a60y8"><path transform="scale(1,-1)" d="M441 -245c-23 -4 -48 -6 -76 -6c-59 0 -102 7 -130 20c-88 42 -150 93 -187 154c-26 44 -43 103 -48 176c0 6 -1 13 -1 19c0 54 15 111 45 170c29 57 65 106 110 148s96 85 153 127c-3 16 -8 46 -13 92c-4 43 -5 73 -5 89c0 117 16 172 69 257c34 54 64 82 89 82 c21 0 43 -30 69 -92s39 -115 41 -159v-15c0 -109 -21 -162 -67 -241c-13 -20 -63 -90 -98 -118c-13 -9 -25 -19 -37 -29l31 -181c8 1 18 2 28 2c58 0 102 -12 133 -35c59 -43 92 -104 98 -184c1 -7 1 -15 1 -22c0 -123 -87 -209 -181 -248c8 -57 17 -110 25 -162 c5 -31 6 -58 6 -80c0 -30 -5 -53 -14 -70c-35 -64 -88 -99 -158 -103c-5 0 -11 -1 -16 -1c-37 0 -72 10 -108 27c-50 24 -77 59 -80 105v11c0 29 7 55 20 76c18 28 45 42 79 44h6c49 0 93 -42 97 -87v-9c0 -51 -34 -86 -105 -106c17 -24 51 -36 102 -36c62 0 116 43 140 85 c9 16 13 41 13 74c0 20 -1 42 -5 67c-8 53 -18 106 -26 159zM461 939c-95 0 -135 -175 -135 -286c0 -24 2 -48 5 -71c50 39 92 82 127 128c40 53 60 100 60 140v8c-4 53 -22 81 -55 81h-2zM406 119l54 -326c73 25 110 78 110 161c0 7 0 15 -1 23c-7 95 -57 142 -151 142h-12 zM382 117c-72 -2 -128 -47 -128 -120v-7c2 -46 43 -99 75 -115c-3 -2 -7 -5 -10 -10c-70 33 -116 88 -123 172v11c0 68 44 126 88 159c23 17 49 29 78 36l-29 170c-21 -13 -52 -37 -92 -73c-50 -44 -86 -84 -109 -119c-45 -69 -67 -130 -67 -182v-13c5 -68 35 -127 93 -176 s125 -73 203 -73c25 0 50 3 75 9c-19 111 -36 221 -54 331z"/></g><g id="E260-x5a60y8"><path transform="scale(1,-1)" d="M20 110c32 16 54 27 93 27c26 0 35 -3 54 -13c13 -7 24 -20 27 -38l4 -25c0 -28 -16 -57 -45 -89c-23 -25 -39 -44 -65 -68l-88 -79v644h20v-359zM90 106c-32 0 -48 -10 -70 -29v-194c31 31 54 59 71 84c21 32 32 59 32 84c0 9 1 16 1 20c0 14 -3 21 -11 30l-8 3z"/></g><g id="E086-x5a60y8"><path transform="scale(1,-1)" d="M284 -91c0 37 -28 92 -67 92c-35 0 -65 -54 -65 -111c0 -52 22 -104 68 -104c47 0 64 68 64 123zM230 214c-36 0 -90 -33 -90 -184l2 -36c40 24 81 36 120 36c80 0 140 -48 140 -121c0 -99 -99 -159 -182 -159c-160 0 -200 173 -200 244c0 21 2 43 7 71l10 35 c26 85 73 115 98 126c41 19 74 24 103 24c93 0 142 -63 142 -105c0 -58 -52 -72 -73 -72c-33 0 -59 24 -65 35c-3 5 -6 14 -7 25l11 30c6 15 9 27 9 35c0 11 -9 16 -25 16z"/></g><g id="E088-x5a60y8"><path transform="scale(1,-1)" d="M195 -214c76 0 88 58 90 68c0 34 -35 60 -57 73l-52 29c-21 10 -32 17 -34 20c-39 -33 -58 -54 -62 -92c5 -23 23 -98 115 -98zM301 135c0 61 -72 76 -113 76c-40 0 -77 -17 -77 -51c3 -21 15 -38 26 -50c17 -15 33 -26 48 -34l65 -28c34 27 51 56 51 87zM176 -250 c-57 0 -166 26 -166 132c0 47 30 86 89 116c-33 15 -79 60 -79 119c0 79 85 132 178 132h18c5 0 21 1 28 -1c25 0 126 -30 126 -110c0 -37 -23 -76 -69 -116c43 -25 83 -71 83 -119c0 -101 -118 -153 -208 -153z"/></g><g id="E0A4-x5a60y8"><path transform="scale(1,-1)" d="M0 -39c0 68 73 172 200 172c66 0 114 -37 114 -95c0 -84 -106 -171 -218 -171c-64 0 -96 30 -96 94z"/></g><g id="E240-x5a60y8"><path transform="scale(1,-1)" d="M179 -646c15 29 29 55 46 102c18 49 30 108 30 138c0 105 -80 173 -168 200c-18 5 -47 9 -87 16v190h22c8 0 33 -61 71 -95c4 -3 -2 3 61 -56c62 -58 122 -137 122 -241c0 -38 -13 -106 -35 -163c-20 -51 -43 -99 -66 -132c-6 -5 -10 -7 -13 -7s-5 2 -5 5l4 10 c1 3 14 25 18 33z"/></g><g id="E4E6-x5a60y8"><path transform="scale(1,-1)" d="M0 123c7 34 33 56 69 60c29 -3 43 -9 53 -29c4 -8 7 -15 10 -22c0 -21 -1 -25 -11 -35c-5 -8 -18 -14 -40 -20l12 -3l15 -1c44 0 97 26 122 56c10 11 18 26 24 42c7 1 15 2 22 3l-140 -424h-36l111 330c-10 -6 -27 -12 -53 -16l-52 -8h-10l-20 1c-1 0 -8 3 -21 6 c-37 9 -55 28 -55 60z"/></g></defs><style type="text/css">#x5a60y8 g.page-margin {font-family:Times,serif;}#x5a60y8 g.ending, #x5a60y8 g.fing, #x5a60y8 g.reh, #x5a60y8 g.tempo {font-weight:bold;}#x5a60y8 g.dir, #x5a60y8 g.dynam, #x5a60y8 g.mNum {font-style:italic;}#x5a60y8 g.label {font-weight:normal;}#x5a60y8 path {stroke:currentColor}</style><svg class="definition-scale" color="black" viewBox="0 0 14000 2100"><g class="page-margin" transform="translate(0, 150)"><g data-id="o1n058lh" data-class="mdiv" class="mdiv pageMilestone"/><g data-id="pv3330n" data-class="score" class="score pageMilestone"/><g data-id="f1wn8g1z" data-class="system" class="system"><g data-id="rrckbd8" data-class="section" class="section systemMilestone"/><g data-id="y94m5zj" data-class="measure" class="measure"><g data-id="dmo6p9y" data-class="staff" class="staff"><path d="M0 540 L5230 540" stroke-width="13"/><path d="M0 720 L5230 720" stroke-width="13"/><path d="M0 900 L5230 900" stroke-width="13"/><path d="M0 1080 L5230 1080" stroke-width="13"/><path d="M0 1260 L5230 1260" stroke-width="13"/><g data-id="lb7ihhn" data-class="clef" class="clef"><use href="#E050-x5a60y8" transform="translate(90, 1080) scale(0.72, 0.72)"/></g><g data-id="mxwe1bp" data-class="keySig" class="keySig"><g data-id="n315z5p" data-class="keyAccid" class="keyAccid"><use href="#E260-x5a60y8" transform="translate(735, 900) scale(0.72, 0.72)"/></g><g data-id="o144bcc7" data-class="keyAccid" class="keyAccid"><use href="#E260-x5a60y8" transform="translate(915, 630) scale(0.72, 0.72)"/></g></g><g data-id="p3ztc9e" data-class="meterSig" class="meterSig"><use href="#E086-x5a60y8" transform="translate(1223, 720) scale(0.72, 0.72)"/><use href="#E088-x5a60y8" transform="translate(1230, 1080) scale(0.72, 0.72)"/></g><g data-id="ezlm7ai" data-class="layer" class="layer"><g data-id="i1jnmbqo" data-class="beam" class="beam"><polygon stroke-opacity="1" fill-opacity="1" points="1782,1305 3198,1305 3198,1215 1782,1215"/><polygon stroke-opacity="1" fill-opacity="1" points="2241,1170 2557,1170 2557,1080 2241,1080"/><polygon stroke-opacity="1" fill-opacity="1" points="2557,1170 2873,1170 2873,1080 2557,1080"/><polygon stroke-opacity="1" fill-opacity="1" points="2873,1170 3198,1170 3198,1080 2873,1080"/><g data-id="s1g5hbe4" data-class="note" class="note"><g data-class="notehead" class="notehead"><use href="#E0A4-x5a60y8" transform="translate(1782, 720) scale(0.72, 0.72)"/></g><g data-id="t1dwp8qm" data-class="stem" class="stem"><path d="M1791 748 L1791 1287" stroke-width="18"/></g></g><g data-id="th05nug" data-class="note" class="note"><g data-class="notehead" class="notehead"><use href="#E0A4-x5a60y8" transform="translate(2232, 720) scale(0.72, 0.72)"/></g><g data-id="u1563kji" data-class="stem" class="stem"><path d="M2241 748 L2241 1287" stroke-width="18"/></g></g><g data-id="u7yrh7u" data-class="note" class="note"><g data-class="notehead" class="notehead"><use href="#E0A4-x5a60y8" transform="translate(2548, 720) scale(0.72, 0.72)"/></g><g data-id="vppv1nn" data-class="stem" class="stem"><path d="M2557 748 L2557 1287" stroke-width="18"/></g></g><g data-id="v1m4rr4d" data-class="note" class="note"><g data-class="notehead" class="notehead"><use href="#E0A4-x5a60y8" transform="translate(2864, 720) scale(0.72, 0.72)"/></g><g data-id="wiq73z5" data-class="stem" class="stem"><path d="M2873 748 L2873 1287" stroke-width="18"/></g></g><g data-id="wpphxwv" data-class="note" class="note"><g data-class="notehead" class="notehead"><use href="#E0A4-x5a60y8" transform="translate(3180, 720) scale(0.72, 0.72)"/></g><g data-id="xvhs7cw" data-class="stem" class="stem"><path d="M3189 748 L3189 1287" stroke-width="18"/></g></g></g><g data-id="x1f21kqp" data-class="note" class="note"><g data-class="notehead" class="notehead"><use href="#E0A4-x5a60y8" transform="translate(3496, 540) scale(0.54, 0.54)"/></g><g data-id="ydg00wa" data-class="stem" class="stem"><path d="M3656 519 L3656 158" stroke-width="18"/><path d="M3589 426 L3790 225" stroke-width="21"/><g data-id="zffqm8a" data-class="flag" class="flag"><use href="#E240-x5a60y8" transform="translate(3647, 158) scale(0.54, 0.54)"/></g></g></g><g data-id="j17k91ta" data-class="beam" class="beam"><polygon stroke-opacity="1" fill-opacity="1" points="3867,1350 4335,1395 4335,1305 3867,1260"/><g data-id="ypnvbew" data-class="note" class="note"><g data-class="notehead" class="notehead"><use href="#E0A4-x5a60y8" transform="translate(3867, 630) scale(0.72, 0.72)"/></g><g data-id="a2d36jn" data-class="stem" class="stem"><path d="M3876 658 L3876 1332" stroke-width="18"/></g><g data-id="m1lxu0k7" data-class="accid" class="accid"/></g><g data-id="zb4k45w" data-class="note" class="note"><g data-class="notehead" class="notehead"><use href="#E0A4-x5a60y8" transform="translate(4317, 720) scale(0.72, 0.72)"/></g><g data-id="b1ddhcyy" data-class="stem" class="stem"><path d="M4326 748 L4326 1377" stroke-width="18"/></g></g></g><g data-id="qll1f5i" data-class="rest" class="rest"><use href="#E4E6-x5a60y8" transform="translate(4767, 900) scale(0.72, 0.72)"/></g></g></g><g data-id="g1egyhmc" data-class="barLine" class="barLine"><path d="M5217 540 L5217 1260" stroke-width="27"/></g></g><g data-id="h148c3nf" data-class="measure" class="measure"><g data-id="f1j4nisx" data-class="staff" class="staff"><path d="M5230 540 L8858 540" stroke-width="13"/><path d="M5230 720 L8858 720" stroke-width="13"/><path d="M5230 900 L8858 900" stroke-width="13"/><path d="M5230 1080 L8858 1080" stroke-width="13"/><path d="M5230 1260 L8858 1260" stroke-width="13"/><g data-id="g1hscgu3" data-class="layer" class="layer"><g data-id="k1xylgrp" data-class="beam" class="beam"><polygon stroke-opacity="1" fill-opacity="1" points="5618,540 7034,540 7034,630 5618,630"/><polygon stroke-opacity="1" fill-opacity="1" points="6077,675 6393,675 6393,765 6077,765"/><polygon stroke-opacity="1" fill-opacity="1" points="6393,675 6709,675 6709,765 6393,765"/><polygon stroke-opacity="1" fill-opacity="1" points="6709,675 7034,675 7034,765 6709,765"/><g data-id="a5m90vp" data-class="note" class="note"><g data-class="notehead" class="notehead"><use href="#E0A4-x5a60y8" transform="translate(5410, 1170) scale(0.72, 0.72)"/></g><g data-id="c19uzzwm" data-class="stem" class="stem"><path d="M5627 1142 L5627 558" stroke-width="18"/></g></g><g data-id="b1e91xvn" data-class="note" class="note"><g data-class="notehead" class="notehead"><use href="#E0A4-x5a60y8" transform="translate(5860, 1170) scale(0.72, 0.72)"/></g><g data-id="dlt87y2" data-class="stem" class="stem"><path d="M6077 1142 L6077 558" stroke-width="18"/></g></g><g data-id="co8b58c" data-class="note" class="note"><g data-class="notehead" class="notehead"><use href="#E0A4-x5a60y8" transform="translate(6176, 1170) scale(0.72, 0.72)"/></g><g data-id="ejazapv" data-class="stem" class="stem"><path d="M6393 1142 L6393 558" stroke-width="18"/></g></g><g data-id="d1qp8knk" data-class="note" class="note"><g data-class="notehead" class="notehead"><use href="#E0A4-x5a60y8" transform="translate(6492, 1170) scale(0.72, 0.72)"/></g><g data-id="f3xogs" data-class="stem" class="stem"><path d="M6709 1142 L6709 558" stroke-width="18"/></g></g><g data-id="e1q2eep8" data-class="note" class="note"><g data-class="notehead" class="notehead"><use href="#E0A4-x5a60y8" transform="translate(6808, 1170) scale(0.72, 0.72)"/></g><g data-id="gcyada4" data-class="stem" class="stem"><path d="M7025 1142 L7025 558" stroke-width="18"/></g></g></g><g data-id="f1vk94c6" data-class="note" class="note"><g data-class="notehead" class="notehead"><use href="#E0A4-x5a60y8" transform="translate(7124, 990) scale(0.54, 0.54)"/></g><g data-id="h1nu1bca" data-class="stem" class="stem"><path d="M7284 969 L7284 518" stroke-width="18"/><path d="M7217 786 L7418 585" stroke-width="21"/><g data-id="i1k2prs9" data-class="flag" class="flag"><use href="#E240-x5a60y8" transform="translate(7275, 518) scale(0.54, 0.54)"/></g></g></g><g data-id="logfk" data-class="beam" class="beam"><polygon stroke-opacity="1" fill-opacity="1" points="7703,405 8171,450 8171,540 7703,495"/><g data-id="g13n4v5q" data-class="note" class="note"><g data-class="notehead" class="notehead"><use href="#E0A4-x5a60y8" transform="translate(7495, 1080) scale(0.72, 0.72)"/></g><g data-id="jo6g35n" data-class="stem" class="stem"><path d="M7712 1052 L7712 423" stroke-width="18"/></g></g><g data-id="h1nsh4ml" data-class="note" class="note"><g data-class="notehead" class="notehead"><use href="#E0A4-x5a60y8" transform="translate(7945, 1170) scale(0.72, 0.72)"/></g><g data-id="k69bb4e" data-class="stem" class="stem"><path d="M8162 1142 L8162 468" stroke-width="18"/></g></g></g><g data-id="rmmxu5k" data-class="rest" class="rest"><use href="#E4E6-x5a60y8" transform="translate(8395, 900) scale(0.72, 0.72)"/></g></g></g><g data-id="p1l9yuli" data-class="barLine" class="barLine"><path d="M8845 540 L8845 1260" stroke-width="27"/></g></g><g data-id="odvpbs4" data-class="systemMilestoneEnd" class="systemMilestoneEnd rrckbd8"/></g><g data-id="p1osnyv3" data-class="pageMilestoneEnd" class="pageMilestoneEnd pv3330n"/><g data-id="qqmbu8l" data-class="pageMilestoneEnd" class="pageMilestoneEnd o1n058lh"/></g></svg></svg>