<svg viewBox="0 0 560 84" version="1.1" xmlns="http://www.w3.org/2000/svg" xmlns:xlink="http://www.w3.org/1999/xlink" overflow="visible" id="h1u74zne"><desc>Engraved by Verovio 5.6.0-85e7620</desc><defs><g id="E050-h1u74zne"><path transform="scale(1,-1)" d="M441 -245c-23 -4 -48 -6 -76 -6c-59 0 -102 7 -130 20c-88 42 -150 93 -187 154c-26 44 -43 103 -48 176c0 6 -1 13 -1 19c0 54 15 111 45 170c29 57 65 106 110 148s96 85 153 127c-3 16 -8 46 -13 92c-4 43 -5 73 -5 89c0 117 16 172 69 257c34 54 64 82 89 82 c21 0 43 -30 69 -92s39 -115 41 -159v-15c0 -109 -21 -162 -67 -241c-13 -20 -63 -90 -98 -118c-13 -9 -25 -19 -37 -29l31 -181c8 1 18 2 28 2c58 0 102 -12 133 -35c59 -43 92 -104 98 -184c1 -7 1 -15 1 -22c0 -123 -87 -209 -181 -248c8 -57 17 -110 25 -162 c5 -31 6 -58 6 -80c0 -30 -5 -53 -14 -70c-35 -64 -88 -99 -158 -103c-5 0 -11 -1 -16 -1c-37 0 -72 10 -108 27c-50 24 -77 59 -80 105v11c0 29 7 55 20 76c18 28 45 42 79 44h6c49 0 93 -42 97 -87v-9c0 -51 -34 -86 -105 -106c17 -24 51 -36 102 -36c62 0 116 43 140 85 c9 16 13 41 13 74c0 20 -1 42 -5 67c-8 53 -18 106 -26 159zM461 939c-95 0 -135 -175 -135 -286c0 -24 2 -48 5 -71c50 39 92 82 127 128c40 53 60 100 60 140v8c-4 53 -22 81 -55 81h-2zM406 119l54 -326c73 25 110 78 110 161c0 7 0 15 -1 23c-7 95 -57 142 -151 142h-12 zM382 117c-72 -2 -128 -47 -128 -120v-7c2 -46 43 -99 75 -115c-3 -2 -7 -5 -10 -10c-70 33 -116 88 -123 172v11c0 68 44 126 88 159c23 17 49 29 78 36l-29 170c-21 -13 -52 -37 -92 -73c-50 -44 -86 -84 -109 -119c-45 -69 -67 -130 -67 -182v-13c5 -68 35 -127 93 -176 s125 -73 203 -73c25 0 50 3 75 9c-19 111 -36 221 -54 331z"/></g><g id="E260-h1u74zne"><path transform="scale(1,-1)" d="M20 110c32 16 54 27 93 27c26 0 35 -3 54 -13c13 -7 24 -20 27 -38l4 -25c0 -28 -16 -57 -45 -89c-23 -25 -39 -44 -65 -68l-88 -79v644h20v-359zM90 106c-32 0 -48 -10 -70 -29v-194c31 31 54 59 71 84c21 32 32 59 32 84c0 9 1 16 1 20c0 14 -3 21 -11 30l-8 3z"/></g><g id="E082-h1u74zne"><path transform="scale(1,-1)" d="M124 -185c-18 0 -55 -14 -65 -65h-36l-3 30c0 25 6 45 18 63c11 19 22 30 39 43l121 82l37 29c15 11 27 29 38 54c12 24 18 47 18 70c0 40 -19 88 -94 88c-25 0 -32 0 -50 -8c-14 -5 -23 -12 -26 -22c3 -9 7 -15 10 -18l24 -17c12 -7 17 -11 27 -21c5 -7 7 -16 7 -27 c0 -12 0 -57 -79 -74c-30 0 -76 26 -76 94c0 66 81 135 197 135c72 0 181 -32 181 -150c0 -53 -32 -95 -113 -133l-91 -41c-26 -11 -45 -23 -57 -37l49 7c84 0 115 -41 148 -41c20 0 33 20 39 61h35c0 -152 -68 -168 -114 -168c-17 0 -65 0 -79 7h10l-28 17 c-49 37 -69 40 -87 42z"/></g><g id="E084-h1u74zne"><path transform="scale(1,-1)" d="M20 -78c84 97 114 180 134 329h170c-13 -32 -82 -132 -99 -151l-84 -97c-33 -36 -59 -63 -80 -81h162v102l127 123v-225h57v-39h-57v-34c0 -43 19 -65 57 -65v-34h-244v36c48 0 60 26 60 70v27h-203v39z"/></g><g id="E4E5-h1u74zne"><path transform="scale(1,-1)" d="M107 292c-13 24 -30 49 -52 71c-1 1 0 2 0 3l-2 2c3 3 4 4 6 4c12 0 26 -7 40 -20s44 -40 89 -81c26 -24 28 -29 46 -47c4 -4 8 -9 10 -14c6 -8 8 -16 8 -27c0 -19 -12 -40 -36 -61c-28 -23 -49 -38 -61 -73c-4 -11 -7 -27 -10 -50c13 -43 34 -83 59 -121 c31 -47 59 -79 101 -129c-8 0 -26 7 -54 20l-62 29l-21 6l-23 1c-25 0 -45 -10 -60 -30l-4 -14l-1 -12c0 -33 20 -56 39 -78c8 -9 17 -18 26 -26c17 -15 27 -24 28 -30l-3 -3c-11 5 -19 10 -25 15c-9 3 -37 21 -45 26c-24 14 -45 32 -63 51c-19 21 -37 44 -37 71 c0 63 27 95 80 95c41 0 86 -18 136 -52c-19 26 -37 48 -55 66c-23 23 -48 44 -73 65c-28 23 -47 40 -58 53s-17 26 -18 39c75 64 113 125 113 183c0 27 -7 48 -18 68z"/></g><g id="E4E6-h1u74zne"><path transform="scale(1,-1)" d="M0 123c7 34 33 56 69 60c29 -3 43 -9 53 -29c4 -8 7 -15 10 -22c0 -21 -1 -25 -11 -35c-5 -8 -18 -14 -40 -20l12 -3l15 -1c44 0 97 26 122 56c10 11 18 26 24 42c7 1 15 2 22 3l-140 -424h-36l111 330c-10 -6 -27 -12 -53 -16l-52 -8h-10l-20 1c-1 0 -8 3 -21 6 c-37 9 -55 28 -55 60z"/></g><g id="E0A4-h1u74zne"><path transform="scale(1,-1)" d="M0 -39c0 68 73 172 200 172c66 0 114 -37 114 -95c0 -84 -106 -171 -218 -171c-64 0 -96 30 -96 94z"/></g><g id="E240-h1u74zne"><path transform="scale(1,-1)" d="M179 -646c15 29 29 55 46 102c18 49 30 108 30 138c0 105 -80 173 -168 200c-18 5 -47 9 -87 16v190h22c8 0 33 -61 71 -95c4 -3 -2 3 61 -56c62 -58 122 -137 122 -241c0 -38 -13 -106 -35 -163c-20 -51 -43 -99 -66 -132c-6 -5 -10 -7 -13 -7s-5 2 -5 5l4 10 c1 3 14 25 18 33z"/></g><g id="E242-h1u74zne"><path transform="scale(1,-1)" d="M206 -748c32 48 49 100 49 149c0 89 -55 168 -168 203c-18 5 -47 9 -87 16v190v190h22c8 0 33 -61 71 -95c4 -3 -2 3 61 -56c62 -58 122 -137 122 -241c0 -32 -7 -65 -17 -96c11 -29 17 -60 17 -94c0 -71 -32 -148 -67 -190c-6 -5 -10 -7 -13 -7s-5 2 -5 5l4 10 c1 3 6 8 11 16zM248 -463c4 18 7 38 7 57c0 105 -80 173 -168 200c-11 3 -27 6 -47 9c9 -17 23 -61 53 -88c4 -3 -2 3 61 -56c36 -33 71 -74 94 -122z"/></g><g id="E4E7-h1u74zne"><path transform="scale(1,-1)" d="M133 -111c0 -33 -21 -50 -52 -55c10 -3 18 -4 25 -4c40 0 69 24 90 47l66 197c-36 -18 -64 -25 -112 -25c-23 0 -38 3 -45 8c-37 7 -55 27 -55 59c8 35 30 54 68 58c45 -6 49 -13 64 -48c0 -3 1 -5 1 -7c0 -27 -25 -46 -52 -49c6 -4 15 -6 26 -6c32 2 62 14 88 29 c32 19 44 36 59 71l7 1l10 2h4c-72 -220 -143 -439 -215 -659h-37l108 324c-20 -13 -51 -20 -82 -20c-21 0 -35 4 -43 10c-37 6 -55 26 -55 58c8 35 31 56 68 60c43 -8 48 -13 64 -51z"/></g><g id="E241-h1u74zne"><path transform="scale(1,-1)" d="M179 646c-4 8 -17 30 -18 33l-4 10c0 3 2 5 5 5s7 -2 13 -7c23 -33 46 -81 66 -132c22 -57 35 -125 35 -163c0 -104 -60 -183 -122 -241c-63 -59 -57 -53 -61 -56c-38 -34 -63 -95 -71 -95h-22v190c40 7 69 11 87 16c88 27 168 95 168 200c0 30 -12 89 -30 138 c-17 47 -31 73 -46 102z"/></g><g id="E261-h1u74zne"><path transform="scale(1,-1)" d="M0 -188v539h18v-191l139 22v-533h-17v186zM18 -100l122 17v176l-122 -19v-174z"/></g></defs><style type="text/css">#h1u74zne g.page-margin {font-family:Times,serif;}#h1u74zne g.ending, #h1u74zne g.fing, #h1u74zne g.reh, #h1u74zne g.tempo {font-weight:bold;}#h1u74zne g.dir, #h1u74zne g.dynam, #h1u74zne g.mNum {font-style:italic;}#h1u74zne g.label {font-weight:normal;}#h1u74zne path {stroke:currentColor}</style><svg class="definition-scale" color="black" viewBox="0 0 14000 2100"><g class="page-margin" transform="translate(0, 150)"><g data-id="bcp29mr" data-class="mdiv" class="mdiv pageMilestone"/><g data-id="c1o5ty4a" data-class="score" class="score pageMilestone"/><g data-id="re7r0gz" data-class="system" class="system"><g data-id="enl314r" data-class="section" class="section systemMilestone"/><g data-id="i1brybbc" data-class="measure" class="measure"><g data-id="qls8rwh" data-class="staff" class="staff"><path d="M0 540 L3903 540" stroke-width="13"/><path d="M0 720 L3903 720" stroke-width="13"/><path d="M0 900 L3903 900" stroke-width="13"/><path d="M0 1080 L3903 1080" stroke-width="13"/><path d="M0 1260 L3903 1260" stroke-width="13"/><g data-id="w1sxwcei" data-class="clef" class="clef"><use href="#E050-h1u74zne" transform="translate(90, 1080) scale(0.72, 0.72)"/></g><g data-id="x1rb8k7k" data-class="keySig" class="keySig"><g data-id="y1hpm9z0" data-class="keyAccid" class="keyAccid"><use href="#E260-h1u74zne" transform="translate(735, 900) scale(0.72, 0.72)"/></g><g data-id="z81tk22" data-class="keyAccid" class="keyAccid"><use href="#E260-h1u74zne" transform="translate(915, 630) scale(0.72, 0.72)"/></g><g data-id="akk2zw1" data-class="keyAccid" class="keyAccid"><use href="#E260-h1u74zne" transform="translate(1095, 990) scale(0.72, 0.72)"/></g></g><g data-id="bo3wijr" data-class="meterSig" class="meterSig"><use href="#E082-h1u74zne" transform="translate(1403, 720) scale(0.72, 0.72)"/><use href="#E084-h1u74zne" transform="translate(1408, 1080) scale(0.72, 0.72)"/></g><g data-id="r1anomkb" data-class="layer" class="layer"><g data-id="b3aq1ow" data-class="rest" class="rest"><use href="#E4E5-h1u74zne" transform="translate(2002, 900) scale(0.72, 0.72)"/></g><g data-id="c9jkn9s" data-class="rest" class="rest"><use href="#E4E6-h1u74zne" transform="translate(2792, 900) scale(0.72, 0.72)"/></g><g data-id="e1t48x8a" data-class="note" class="note"><g data-class="notehead" class="notehead"><use href="#E0A4-h1u74zne" transform="translate(3307, 1080) scale(0.72, 0.72)"/></g><g data-id="ncvl7ir" data-class="stem" class="stem"><path d="M3524 1052 L3524 450" stroke-width="18"/><g data-id="o1ednkh8" data-class="flag" class="flag"><use href="#E240-h1u74zne" transform="translate(3515, 450) scale(0.72, 0.72)"/></g></g></g></g></g><g data-id="qc3obos" data-class="barLine" class="barLine"><path d="M3890 540 L3890 1260" stroke-width="27"/></g></g><g data-id="r16k3kqe" data-class="measure" class="measure"><g data-id="s1bgje2k" data-class="staff" class="staff"><path d="M3903 540 L6402 540" stroke-width="13"/><path d="M3903 720 L6402 720" stroke-width="13"/><path d="M3903 900 L6402 900" stroke-width="13"/><path d="M3903 1080 L6402 1080" stroke-width="13"/><path d="M3903 1260 L6402 1260" stroke-width="13"/><g data-id="t1ed1eps" data-class="layer" class="layer"><g data-id="fknkyxy" data-class="note" class="note"><g data-class="notehead" class="notehead"><use href="#E0A4-h1u74zne" transform="translate(4109, 1080) scale(0.72, 0.72)"/></g><g data-id="qr791uj" data-class="dots" class="dots"><ellipse cx="4583" cy="990" rx="36" ry="36" fill-opacity="1" stroke-opacity="1"/></g><g data-id="pgg4chu" data-class="stem" class="stem"><path d="M4326 1052 L4326 450" stroke-width="18"/><g data-id="r11beeiq" data-class="flag" class="flag"><use href="#E240-h1u74zne" transform="translate(4317, 450) scale(0.72, 0.72)"/></g></g></g><g data-id="gmh4ws2" data-class="note" class="note"><g data-class="notehead" class="notehead"><use href="#E0A4-h1u74zne" transform="translate(4773, 1080) scale(0.72, 0.72)"/></g><g data-id="s5rw6sb" data-class="stem" class="stem"><path d="M4990 1052 L4990 450" stroke-width="18"/><g data-id="t1p2y402" data-class="flag" class="flag"><use href="#E242-h1u74zne" transform="translate(4981, 450) scale(0.72, 0.72)"/></g></g></g><g data-id="h1wv74sd" data-class="note" class="note"><g data-class="notehead" class="notehead"><use href="#E0A4-h1u74zne" transform="translate(5238, 1170) scale(0.72, 0.72)"/></g><g data-id="uupomy0" data-class="stem" class="stem"><path d="M5455 1142 L5455 540" stroke-width="18"/><g data-id="v1xaonjd" data-class="flag" class="flag"><use href="#E240-h1u74zne" transform="translate(5446, 540) scale(0.72, 0.72)"/></g></g></g><g data-id="i107jb04" data-class="note" class="note"><g data-class="notehead" class="notehead"><use href="#E0A4-h1u74zne" transform="translate(5805, 1080) scale(0.72, 0.72)"/></g><g data-id="w1u6q4ck" data-class="stem" class="stem"><path d="M6022 1052 L6022 450" stroke-width="18"/><g data-id="x1gju0h5" data-class="flag" class="flag"><use href="#E240-h1u74zne" transform="translate(6013, 450) scale(0.72, 0.72)"/></g></g></g></g></g><g data-id="zv5lonm" data-class="barLine" class="barLine"><path d="M6389 540 L6389 1260" stroke-width="27"/></g></g><g data-id="a114so6z" data-class="measure" class="measure"><g data-id="u1g2lwo8" data-class="staff" class="staff"><path d="M6402 540 L9270 540" stroke-width="13"/><path d="M6402 720 L9270 720" stroke-width="13"/><path d="M6402 900 L9270 900" stroke-width="13"/><path d="M6402 1080 L9270 1080" stroke-width="13"/><path d="M6402 1260 L9270 1260" stroke-width="13"/><g data-id="v3j31tw" data-class="layer" class="layer"><g data-id="jpbzq9o" data-class="note" class="note"><g data-class="notehead" class="notehead"><use href="#E0A4-h1u74zne" transform="translate(6608, 990) scale(0.72, 0.72)"/></g><g data-id="z1l345cw" data-class="dots" class="dots"><ellipse cx="6924" cy="990" rx="36" ry="36" fill-opacity="1" stroke-opacity="1"/></g><g data-id="yr4m266" data-class="stem" class="stem"><path d="M6825 962 L6825 360" stroke-width="18"/><g data-id="a1jqarv6" data-class="flag" class="flag"><use href="#E240-h1u74zne" transform="translate(6816, 360) scale(0.72, 0.72)"/></g></g><g data-id="w1jzbrev" data-class="accid" class="accid"/></g><g data-id="khsn0l0" data-class="note" class="note"><g data-class="notehead" class="notehead"><use href="#E0A4-h1u74zne" transform="translate(7272, 990) scale(0.72, 0.72)"/></g><g data-id="b1pvrcoe" data-class="stem" class="stem"><path d="M7489 962 L7489 360" stroke-width="18"/><g data-id="c1ycjnrg" data-class="flag" class="flag"><use href="#E242-h1u74zne" transform="translate(7480, 360) scale(0.72, 0.72)"/></g></g><g data-id="xj9elyb" data-class="accid" class="accid"/></g><g data-id="lgz0r8v" data-class="note" class="note"><g data-class="notehead" class="notehead"><use href="#E0A4-h1u74zne" transform="translate(7737, 1080) scale(0.72, 0.72)"/></g><g data-id="dk3jean" data-class="stem" class="stem"><path d="M7954 1052 L7954 450" stroke-width="18"/><g data-id="evyqjib" data-class="flag" class="flag"><use href="#E240-h1u74zne" transform="translate(7945, 450) scale(0.72, 0.72)"/></g></g></g><g data-id="d1t1592k" data-class="rest" class="rest"><use href="#E4E7-h1u74zne" transform="translate(8304, 900) scale(0.72, 0.72)"/></g><g data-id="m11rfmt7" data-class="note" class="note"><g data-class="notehead" class="notehead"><use href="#E0A4-h1u74zne" transform="translate(8674, 1080) scale(0.72, 0.72)"/></g><g data-id="fn9owo7" data-class="stem" class="stem"><path d="M8891 1052 L8891 450" stroke-width="18"/><g data-id="g1lz8hz1" data-class="flag" class="flag"><use href="#E242-h1u74zne" transform="translate(8882, 450) scale(0.72, 0.72)"/></g></g></g></g></g><g data-id="i18ian9x" data-class="barLine" class="barLine"><path d="M9257 540 L9257 1260" stroke-width="27"/></g></g><g data-id="j16om3og" data-class="measure" class="measure"><g data-id="w1b6vhr2" data-class="staff" class="staff"><path d="M9270 540 L11912 540" stroke-width="13"/><path d="M9270 720 L11912 720" stroke-width="13"/><path d="M9270 900 L11912 900" stroke-width="13"/><path d="M9270 1080 L11912 1080" stroke-width="13"/><path d="M9270 1260 L11912 1260" stroke-width="13"/><g data-id="x1rxz6eh" data-class="layer" class="layer"><g data-id="n2m7rpk" data-class="note" class="note"><g data-class="notehead" class="notehead"><use href="#E0A4-h1u74zne" transform="translate(9476, 810) scale(0.72, 0.72)"/></g><g data-id="h2x50n7" data-class="stem" class="stem"><path d="M9485 838 L9485 1440" stroke-width="18"/><g data-id="i1vy4xep" data-class="flag" class="flag"><use href="#E241-h1u74zne" transform="translate(9476, 1440) scale(0.72, 0.72)"/></g></g></g><g data-id="o2ot2xt" data-class="note" class="note"><g data-class="notehead" class="notehead"><use href="#E0A4-h1u74zne" transform="translate(9991, 900) scale(0.72, 0.72)"/></g><g data-id="j5zfg5t" data-class="stem" class="stem"><path d="M10000 928 L10000 1500" stroke-width="18"/><g data-id="k205xmm" data-class="flag" class="flag"><use href="#E241-h1u74zne" transform="translate(9991, 1500) scale(0.72, 0.72)"/></g></g><g data-id="y13xvwb0" data-class="accid" class="accid"/></g><g data-id="puszwmf" data-class="note" class="note"><g data-class="notehead" class="notehead"><use href="#E0A4-h1u74zne" transform="translate(10534, 990) scale(0.72, 0.72)"/></g><g data-id="l1u3elzu" data-class="stem" class="stem"><path d="M10751 962 L10751 360" stroke-width="18"/><g data-id="mo35goo" data-class="flag" class="flag"><use href="#E240-h1u74zne" transform="translate(10742, 360) scale(0.72, 0.72)"/></g></g><g data-id="u15ygyrb" data-class="accid" class="accid"><use href="#E261-h1u74zne" transform="translate(10376, 990) scale(0.72, 0.72)"/></g></g><g data-id="qjhg14n" data-class="note" class="note"><g data-class="notehead" class="notehead"><use href="#E0A4-h1u74zne" transform="translate(11315, 990) scale(0.72, 0.72)"/></g><g data-id="n1h3rc6l" data-class="stem" class="stem"><path d="M11532 962 L11532 360" stroke-width="18"/><g data-id="o199275i" data-class="flag" class="flag"><use href="#E240-h1u74zne" transform="translate(11523, 360) scale(0.72, 0.72)"/></g></g><g data-id="v1hsl2vx" data-class="accid" class="accid"><use href="#E260-h1u74zne" transform="translate(11128, 990) scale(0.72, 0.72)"/></g></g></g></g><g data-id="r11i0jxn" data-class="barLine" class="barLine"><path d="M11899 540 L11899 1260" stroke-width="27"/></g></g><g data-id="s16d9wl9" data-class="measure" class="measure"><g data-id="yp65d30" data-class="staff" class="staff"><path d="M11912 540 L14003 540" stroke-width="13"/><path d="M11912 720 L14003 720" stroke-width="13"/><path d="M11912 900 L14003 900" stroke-width="13"/><path d="M11912 1080 L14003 1080" stroke-width="13"/><path d="M11912 1260 L14003 1260" stroke-width="13"/><g data-id="z971zvz" data-class="layer" class="layer"><g data-id="r8i47bh" data-class="note" class="note"><g data-class="notehead" class="notehead"><use href="#E0A4-h1u74zne" transform="translate(12118, 1080) scale(0.72, 0.72)"/></g><g data-id="pv0a9hh" data-class="stem" class="stem"><path d="M12335 1052 L12335 450" stroke-width="18"/><g data-id="q18n09iy" data-class="flag" class="flag"><use href="#E240-h1u74zne" transform="translate(12326, 450) scale(0.72, 0.72)"/></g></g></g><g data-id="syl0w0b" data-class="note" class="note"><g data-class="notehead" class="notehead"><use href="#E0A4-h1u74zne" transform="translate(12686, 900) scale(0.72, 0.72)"/></g><g data-id="r130at0t" data-class="stem" class="stem"><path d="M12695 928 L12695 1500" stroke-width="18"/><g data-id="s1fqu1wy" data-class="flag" class="flag"><use href="#E241-h1u74zne" transform="translate(12686, 1500) scale(0.72, 0.72)"/></g></g><g data-id="zlbuodk" data-class="accid" class="accid"/></g><g data-id="t1j75zqq" data-class="note" class="note"><g data-class="notehead" class="notehead"><use href="#E0A4-h1u74zne" transform="translate(13201, 1170) scale(0.72, 0.72)"/></g><g data-id="t1hhrkg2" data-class="stem" class="stem"><path d="M13418 1142 L13418 540" stroke-width="18"/></g></g></g></g><g data-id="a1hgwj5i" data-class="barLine" class="barLine"><path d="M13990 540 L13990 1260" stroke-width="27"/></g></g><g data-id="h1ffm7z8" data-class="systemMilestoneEnd" class="systemMilestoneEnd enl314r"/></g><g data-id="imiih7t" data-class="pageMilestoneEnd" class="pageMilestoneEnd c1o5ty4a"/><g data-id="j17mu0be" data-class="pageMilestoneEnd" class="pageMilestoneEnd bcp29mr"/></g></svg></svg>