<svg viewBox="0 0 560 84" version="1.1" xmlns="http://www.w3.org/2000/svg" xmlns:xlink="http://www.w3.org/1999/xlink" overflow="visible" id="f1a5o535"><desc>Engraved by Verovio 5.6.0-85e7620</desc><defs><g id="E050-f1a5o535"><path transform="scale(1,-1)" d="M441 -245c-23 -4 -48 -6 -76 -6c-59 0 -102 7 -130 20c-88 42 -150 93 -187 154c-26 44 -43 103 -48 176c0 6 -1 13 -1 19c0 54 15 111 45 170c29 57 65 106 110 148s96 85 153 127c-3 16 -8 46 -13 92c-4 43 -5 73 -5 89c0 117 16 172 69 257c34 54 64 82 89 82 c21 0 43 -30 69 -92s39 -115 41 -159v-15c0 -109 -21 -162 -67 -241c-13 -20 -63 -90 -98 -118c-13 -9 -25 -19 -37 -29l31 -181c8 1 18 2 28 2c58 0 102 -12 133 -35c59 -43 92 -104 98 -184c1 -7 1 -15 1 -22c0 -123 -87 -209 -181 -248c8 -57 17 -110 25 -162 c5 -31 6 -58 6 -80c0 -30 -5 -53 -14 -70c-35 -64 -88 -99 -158 -103c-5 0 -11 -1 -16 -1c-37 0 -72 10 -108 27c-50 24 -77 59 -80 105v11c0 29 7 55 20 76c18 28 45 42 79 44h6c49 0 93 -42 97 -87v-9c0 -51 -34 -86 -105 -106c17 -24 51 -36 102 -36c62 0 116 43 140 85 c9 16 13 41 13 74c0 20 -1 42 -5 67c-8 53 -18 106 -26 159zM461 939c-95 0 -135 -175 -135 -286c0 -24 2 -48 5 -71c50 39 92 82 127 128c40 53 60 100 60 140v8c-4 53 -22 81 -55 81h-2zM406 119l54 -326c73 25 110 78 110 161c0 7 0 15 -1 23c-7 95 -57 142 -151 142h-12 zM382 117c-72 -2 -128 -47 -128 -120v-7c2 -46 43 -99 75 -115c-3 -2 -7 -5 -10 -10c-70 33 -116 88 -123 172v11c0 68 44 126 88 159c23 17 49 29 78 36l-29 170c-21 -13 -52 -37 -92 -73c-50 -44 -86 -84 -109 -119c-45 -69 -67 -130 -67 -182v-13c5 -68 35 -127 93 -176 s125 -73 203 -73c25 0 50 3 75 9c-19 111 -36 221 -54 331z"/></g><g id="E082-f1a5o535"><path transform="scale(1,-1)" d="M124 -185c-18 0 -55 -14 -65 -65h-36l-3 30c0 25 6 45 18 63c11 19 22 30 39 43l121 82l37 29c15 11 27 29 38 54c12 24 18 47 18 70c0 40 -19 88 -94 88c-25 0 -32 0 -50 -8c-14 -5 -23 -12 -26 -22c3 -9 7 -15 10 -18l24 -17c12 -7 17 -11 27 -21c5 -7 7 -16 7 -27 c0 -12 0 -57 -79 -74c-30 0 -76 26 -76 94c0 66 81 135 197 135c72 0 181 -32 181 -150c0 -53 -32 -95 -113 -133l-91 -41c-26 -11 -45 -23 -57 -37l49 7c84 0 115 -41 148 -41c20 0 33 20 39 61h35c0 -152 -68 -168 -114 -168c-17 0 -65 0 -79 7h10l-28 17 c-49 37 -69 40 -87 42z"/></g><g id="E084-f1a5o535"><path transform="scale(1,-1)" d="M20 -78c84 97 114 180 134 329h170c-13 -32 -82 -132 -99 -151l-84 -97c-33 -36 -59 -63 -80 -81h162v102l127 123v-225h57v-39h-57v-34c0 -43 19 -65 57 -65v-34h-244v36c48 0 60 26 60 70v27h-203v39z"/></g><g id="E4E5-f1a5o535"><path transform="scale(1,-1)" d="M107 292c-13 24 -30 49 -52 71c-1 1 0 2 0 3l-2 2c3 3 4 4 6 4c12 0 26 -7 40 -20s44 -40 89 -81c26 -24 28 -29 46 -47c4 -4 8 -9 10 -14c6 -8 8 -16 8 -27c0 -19 -12 -40 -36 -61c-28 -23 -49 -38 -61 -73c-4 -11 -7 -27 -10 -50c13 -43 34 -83 59 -121 c31 -47 59 -79 101 -129c-8 0 -26 7 -54 20l-62 29l-21 6l-23 1c-25 0 -45 -10 -60 -30l-4 -14l-1 -12c0 -33 20 -56 39 -78c8 -9 17 -18 26 -26c17 -15 27 -24 28 -30l-3 -3c-11 5 -19 10 -25 15c-9 3 -37 21 -45 26c-24 14 -45 32 -63 51c-19 21 -37 44 -37 71 c0 63 27 95 80 95c41 0 86 -18 136 -52c-19 26 -37 48 -55 66c-23 23 -48 44 -73 65c-28 23 -47 40 -58 53s-17 26 -18 39c75 64 113 125 113 183c0 27 -7 48 -18 68z"/></g><g id="E4E7-f1a5o535"><path transform="scale(1,-1)" d="M133 -111c0 -33 -21 -50 -52 -55c10 -3 18 -4 25 -4c40 0 69 24 90 47l66 197c-36 -18 -64 -25 -112 -25c-23 0 -38 3 -45 8c-37 7 -55 27 -55 59c8 35 30 54 68 58c45 -6 49 -13 64 -48c0 -3 1 -5 1 -7c0 -27 -25 -46 -52 -49c6 -4 15 -6 26 -6c32 2 62 14 88 29 c32 19 44 36 59 71l7 1l10 2h4c-72 -220 -143 -439 -215 -659h-37l108 324c-20 -13 -51 -20 -82 -20c-21 0 -35 4 -43 10c-37 6 -55 26 -55 58c8 35 31 56 68 60c43 -8 48 -13 64 -51z"/></g><g id="E0A4-f1a5o535"><path transform="scale(1,-1)" d="M0 -39c0 68 73 172 200 172c66 0 114 -37 114 -95c0 -84 -106 -171 -218 -171c-64 0 -96 30 -96 94z"/></g><g id="E241-f1a5o535"><path transform="scale(1,-1)" d="M179 646c-4 8 -17 30 -18 33l-4 10c0 3 2 5 5 5s7 -2 13 -7c23 -33 46 -81 66 -132c22 -57 35 -125 35 -163c0 -104 -60 -183 -122 -241c-63 -59 -57 -53 -61 -56c-38 -34 -63 -95 -71 -95h-22v190c40 7 69 11 87 16c88 27 168 95 168 200c0 30 -12 89 -30 138 c-17 47 -31 73 -46 102z"/></g><g id="E4E6-f1a5o535"><path transform="scale(1,-1)" d="M0 123c7 34 33 56 69 60c29 -3 43 -9 53 -29c4 -8 7 -15 10 -22c0 -21 -1 -25 -11 -35c-5 -8 -18 -14 -40 -20l12 -3l15 -1c44 0 97 26 122 56c10 11 18 26 24 42c7 1 15 2 22 3l-140 -424h-36l111 330c-10 -6 -27 -12 -53 -16l-52 -8h-10l-20 1c-1 0 -8 3 -21 6 c-37 9 -55 28 -55 60z"/></g><g id="E4C0-f1a5o535"><path transform="scale(1,-1)" d="M0 0c0 0 40 320 300 320s300 -320 300 -320h-32s-38 227 -268 227s-268 -227 -268 -227h-32zM355 52c0 -30 -25 -55 -55 -55s-55 25 -55 55s25 55 55 55s55 -25 55 -55z"/></g></defs><style type="text/css">#f1a5o535 g.page-margin {font-family:Times,serif;}#f1a5o535 g.ending, #f1a5o535 g.fing, #f1a5o535 g.reh, #f1a5o535 g.tempo {font-weight:bold;}#f1a5o535 g.dir, #f1a5o535 g.dynam, #f1a5o535 g.mNum {font-style:italic;}#f1a5o535 g.label {font-weight:normal;}#f1a5o535 path {stroke:currentColor}</style><svg class="definition-scale" color="black" viewBox="0 0 14000 2100"><g class="page-margin" transform="translate(0, 150)"><g data-id="afvyxnx" data-class="mdiv" class="mdiv pageMilestone"/><g data-id="bbzn1u3" data-class="score" class="score pageMilestone"/><g data-id="g180fdk" data-class="system" class="system"><g data-id="d1fvt63g" data-class="section" class="section systemMilestone"/><g data-id="ge5c6ex" data-class="measure" class="measure"><g data-id="p1fw1gqu" data-class="staff" class="staff"><path d="M0 540 L3259 540" stroke-width="13"/><path d="M0 720 L3259 720" stroke-width="13"/><path d="M0 900 L3259 900" stroke-width="13"/><path d="M0 1080 L3259 1080" stroke-width="13"/><path d="M0 1260 L3259 1260" stroke-width="13"/><g data-id="o1v5253a" data-class="clef" class="clef"><use href="#E050-f1a5o535" transform="translate(90, 1080) scale(0.72, 0.72)"/></g><g data-id="pcd0vhq" data-class="keySig" class="keySig"/><g data-id="q2v4872" data-class="meterSig" class="meterSig"><use href="#E082-f1a5o535" transform="translate(721, 720) scale(0.72, 0.72)"/><use href="#E084-f1a5o535" transform="translate(726, 1080) scale(0.72, 0.72)"/></g><g data-class="ledgerLines" class="ledgerLines below"><g data-class="lineDash" class="lineDash" data-related="#k7vhfe0"><path d="M2254 1440 L2540 1440" stroke-width="22"/></g><g data-class="lineDash" class="lineDash" data-related="#lbn2ufv"><path d="M2570 1440 L2856 1440" stroke-width="22"/></g><g data-class="lineDash" class="lineDash" data-related="#k7vhfe0"><path d="M2254 1620 L2540 1620" stroke-width="22"/></g></g><g data-id="q1owa8w4" data-class="layer" class="layer"><g data-id="h106v1sp" data-class="rest" class="rest"><use href="#E4E5-f1a5o535" transform="translate(1294, 900) scale(0.72, 0.72)"/></g><g data-id="i1izsvvj" data-class="rest" class="rest"><use href="#E4E7-f1a5o535" transform="translate(1984, 900) scale(0.72, 0.72)"/></g><g data-id="wml2g41" data-class="beam" class="beam"><polygon stroke-opacity="1" fill-opacity="1" points="2492,855 3142,675 3142,765 2492,945"/><polygon stroke-opacity="1" fill-opacity="1" points="2492,990 2817,900 2817,990 2492,1080"/><polygon stroke-opacity="1" fill-opacity="1" points="2817,900 3142,810 3142,900 2817,990"/><g data-id="k7vhfe0" data-class="note" class="note"><g data-class="notehead" class="notehead"><use href="#E0A4-f1a5o535" transform="translate(2284, 1710) scale(0.72, 0.72)"/></g><g data-id="fffsys3" data-class="stem" class="stem"><path d="M2501 1682 L2501 873" stroke-width="18"/></g></g><g data-id="lbn2ufv" data-class="note" class="note"><g data-class="notehead" class="notehead"><use href="#E0A4-f1a5o535" transform="translate(2600, 1440) scale(0.72, 0.72)"/></g><g data-id="gq6ncb0" data-class="stem" class="stem"><path d="M2817 1412 L2817 783" stroke-width="18"/></g></g><g data-id="mmvbf5o" data-class="note" class="note"><g data-class="notehead" class="notehead"><use href="#E0A4-f1a5o535" transform="translate(2916, 1260) scale(0.72, 0.72)"/></g><g data-id="hpbcqik" data-class="stem" class="stem"><path d="M3133 1232 L3133 693" stroke-width="18"/></g></g></g></g></g><g data-id="ofqb9a2" data-class="barLine" class="barLine"><path d="M3246 540 L3246 1260" stroke-width="27"/></g></g><g data-id="p12zd4z6" data-class="measure" class="measure"><g data-id="rg9jnrh" data-class="staff" class="staff"><path d="M3259 540 L5626 540" stroke-width="13"/><path d="M3259 720 L5626 720" stroke-width="13"/><path d="M3259 900 L5626 900" stroke-width="13"/><path d="M3259 1080 L5626 1080" stroke-width="13"/><path d="M3259 1260 L5626 1260" stroke-width="13"/><g data-id="s69s3me" data-class="layer" class="layer"><g data-id="x1fka0gj" data-class="beam" class="beam"><polygon stroke-opacity="1" fill-opacity="1" points="3647,450 4245,540 4245,630 3647,540"/><polygon stroke-opacity="1" fill-opacity="1" points="4019,643 4245,675 4245,765 4019,733"/><g data-id="nojglf9" data-class="note" class="note"><g data-class="notehead" class="notehead"><use href="#E0A4-f1a5o535" transform="translate(3439, 1080) scale(0.72, 0.72)"/></g><g data-id="jvge603" data-class="dots" class="dots"><ellipse cx="3755" cy="990" rx="36" ry="36" fill-opacity="1" stroke-opacity="1"/></g><g data-id="ifa81bn" data-class="stem" class="stem"><path d="M3656 1052 L3656 468" stroke-width="18"/></g></g><g data-id="o14zby0j" data-class="note" class="note"><g data-class="notehead" class="notehead"><use href="#E0A4-f1a5o535" transform="translate(4019, 1170) scale(0.72, 0.72)"/></g><g data-id="k1h1rxhn" data-class="stem" class="stem"><path d="M4236 1142 L4236 558" stroke-width="18"/></g></g></g><g data-id="y1es5f94" data-class="beam" class="beam"><polygon stroke-opacity="1" fill-opacity="1" points="4543,360 5509,0 5509,90 4543,450"/><polygon stroke-opacity="1" fill-opacity="1" points="4543,495 4868,375 4868,465 4543,585"/><polygon stroke-opacity="1" fill-opacity="1" points="4868,375 5184,255 5184,345 4868,465"/><polygon stroke-opacity="1" fill-opacity="1" points="5184,255 5509,135 5509,225 5184,345"/><g data-id="p1ddsp8y" data-class="note" class="note"><g data-class="notehead" class="notehead"><use href="#E0A4-f1a5o535" transform="translate(4335, 1260) scale(0.72, 0.72)"/></g><g data-id="llu2ptc" data-class="stem" class="stem"><path d="M4552 1232 L4552 378" stroke-width="18"/></g></g><g data-id="q1wx53iy" data-class="note" class="note"><g data-class="notehead" class="notehead"><use href="#E0A4-f1a5o535" transform="translate(4651, 1080) scale(0.72, 0.72)"/></g><g data-id="m3cqkua" data-class="stem" class="stem"><path d="M4868 1052 L4868 258" stroke-width="18"/></g></g><g data-id="rkb0y4w" data-class="note" class="note"><g data-class="notehead" class="notehead"><use href="#E0A4-f1a5o535" transform="translate(4967, 810) scale(0.72, 0.72)"/></g><g data-id="n26l4ke" data-class="stem" class="stem"><path d="M5184 782 L5184 138" stroke-width="18"/></g></g><g data-id="shaesrz" data-class="note" class="note"><g data-class="notehead" class="notehead"><use href="#E0A4-f1a5o535" transform="translate(5283, 630) scale(0.72, 0.72)"/></g><g data-id="ocsq23h" data-class="stem" class="stem"><path d="M5500 602 L5500 18" stroke-width="18"/></g></g></g></g></g><g data-id="xkr1ah8" data-class="barLine" class="barLine"><path d="M5613 540 L5613 1260" stroke-width="27"/></g></g><g data-id="y1sceysq" data-class="measure" class="measure"><g data-id="thbpxf6" data-class="staff" class="staff"><path d="M5626 540 L7409 540" stroke-width="13"/><path d="M5626 720 L7409 720" stroke-width="13"/><path d="M5626 900 L7409 900" stroke-width="13"/><path d="M5626 1080 L7409 1080" stroke-width="13"/><path d="M5626 1260 L7409 1260" stroke-width="13"/><g data-id="u1f668eo" data-class="layer" class="layer"><g data-id="t1b975f" data-class="note" class="note"><g data-class="notehead" class="notehead"><use href="#E0A4-f1a5o535" transform="translate(5806, 450) scale(0.72, 0.72)"/></g><g data-id="p1maqwra" data-class="stem" class="stem"><path d="M5815 478 L5815 1080" stroke-width="18"/></g></g><g data-id="ustuu8w" data-class="note" class="note"><g data-class="notehead" class="notehead"><use href="#E0A4-f1a5o535" transform="translate(6496, 630) scale(0.72, 0.72)"/></g><g data-id="q1qhmiq2" data-class="stem" class="stem"><path d="M6505 658 L6505 1260" stroke-width="18"/><g data-id="r12qnis1" data-class="flag" class="flag"><use href="#E241-f1a5o535" transform="translate(6496, 1260) scale(0.72, 0.72)"/></g></g></g><g data-id="j10q0ygs" data-class="rest" class="rest"><use href="#E4E6-f1a5o535" transform="translate(6946, 900) scale(0.72, 0.72)"/></g></g></g><g data-id="v10qnx9u" data-class="fermata" class="fermata"><use href="#E4C0-f1a5o535" transform="translate(6843, 493) scale(0.72, 0.72)"/></g><g data-id="g1c7o3my" data-class="barLine" class="barLine"><path d="M7396 540 L7396 1260" stroke-width="27"/></g></g><g data-id="c1mc2cnh" data-class="systemMilestoneEnd" class="systemMilestoneEnd d1fvt63g"/></g><g data-id="d15o76fl" data-class="pageMilestoneEnd" class="pageMilestoneEnd bbzn1u3"/><g data-id="ebcdgdf" data-class="pageMilestoneEnd" class="pageMilestoneEnd afvyxnx"/></g></svg></svg>