<svg viewBox="0 0 560 84" version="1.1" xmlns="http://www.w3.org/2000/svg" xmlns:xlink="http://www.w3.org/1999/xlink" overflow="visible" id="v14etlfo"><desc>Engraved by Verovio 5.6.0-85e7620</desc><defs><g id="E062-v14etlfo"><path transform="scale(1,-1)" d="M582 -120c0 32 26 58 58 58s58 -26 58 -58s-26 -58 -58 -58s-58 26 -58 58zM582 120c0 32 26 58 58 58s58 -26 58 -58s-26 -58 -58 -58s-58 26 -58 58zM158 96c51 0 73 -14 88 -49l16 -39c0 -17 -2 -30 -7 -40c-3 -11 -10 -21 -19 -31c-17 -18 -49 -43 -84 -43 c-55 0 -77 13 -112 44c-24 21 -35 55 -35 100c0 46 14 81 32 112c30 52 71 79 137 93l36 6l26 2c154 0 235 -68 274 -182c11 -32 18 -68 18 -107c0 -103 -26 -182 -68 -250c-89 -145 -234 -230 -412 -288l-30 -5c-9 0 -14 3 -14 8c3 10 5 11 10 16c35 15 70 30 96 44l78 43 c96 57 162 136 197 258c9 33 17 60 22 100c3 22 5 35 6 39c-7 69 -16 115 -23 140s-4 22 -16 40c-8 12 -19 23 -31 34c-24 21 -62 44 -118 44c-48 0 -84 -8 -113 -28c-28 -19 -42 -44 -42 -73v-16c2 -5 3 -9 4 -11c24 22 52 39 84 39z"/></g><g id="E262-v14etlfo"><path transform="scale(1,-1)" d="M136 186v169h17v-164l44 14v-91l-44 -14v-165l44 12v-91l-44 -13v-155h-17v150l-76 -22v-155h-17v149l-43 -13v90l43 14v167l-43 -14v92l43 13v169h17v-163zM60 73v-167l76 22v168z"/></g><g id="E086-v14etlfo"><path transform="scale(1,-1)" d="M284 -91c0 37 -28 92 -67 92c-35 0 -65 -54 -65 -111c0 -52 22 -104 68 -104c47 0 64 68 64 123zM230 214c-36 0 -90 -33 -90 -184l2 -36c40 24 81 36 120 36c80 0 140 -48 140 -121c0 -99 -99 -159 -182 -159c-160 0 -200 173 -200 244c0 21 2 43 7 71l10 35 c26 85 73 115 98 126c41 19 74 24 103 24c93 0 142 -63 142 -105c0 -58 -52 -72 -73 -72c-33 0 -59 24 -65 35c-3 5 -6 14 -7 25l11 30c6 15 9 27 9 35c0 11 -9 16 -25 16z"/></g><g id="E088-v14etlfo"><path transform="scale(1,-1)" d="M195 -214c76 0 88 58 90 68c0 34 -35 60 -57 73l-52 29c-21 10 -32 17 -34 20c-39 -33 -58 -54 -62 -92c5 -23 23 -98 115 -98zM301 135c0 61 -72 76 -113 76c-40 0 -77 -17 -77 -51c3 -21 15 -38 26 -50c17 -15 33 -26 48 -34l65 -28c34 27 51 56 51 87zM176 -250 c-57 0 -166 26 -166 132c0 47 30 86 89 116c-33 15 -79 60 -79 119c0 79 85 132 178 132h18c5 0 21 1 28 -1c25 0 126 -30 126 -110c0 -37 -23 -76 -69 -116c43 -25 83 -71 83 -119c0 -101 -118 -153 -208 -153z"/></g><g id="E0A4-v14etlfo"><path transform="scale(1,-1)" d="M0 -39c0 68 73 172 200 172c66 0 114 -37 114 -95c0 -84 -106 -171 -218 -171c-64 0 -96 30 -96 94z"/></g><g id="E240-v14etlfo"><path transform="scale(1,-1)" d="M179 -646c15 29 29 55 46 102c18 49 30 108 30 138c0 105 -80 173 -168 200c-18 5 -47 9 -87 16v190h22c8 0 33 -61 71 -95c4 -3 -2 3 61 -56c62 -58 122 -137 122 -241c0 -38 -13 -106 -35 -163c-20 -51 -43 -99 -66 -132c-6 -5 -10 -7 -13 -7s-5 2 -5 5l4 10 c1 3 14 25 18 33z"/></g></defs><style type="text/css">#v14etlfo g.page-margin {font-family:Times,serif;}#v14etlfo g.ending, #v14etlfo g.fing, #v14etlfo g.reh, #v14etlfo g.tempo {font-weight:bold;}#v14etlfo g.dir, #v14etlfo g.dynam, #v14etlfo g.mNum {font-style:italic;}#v14etlfo g.label {font-weight:normal;}#v14etlfo path {stroke:currentColor}</style><svg class="definition-scale" color="black" viewBox="0 0 14000 2100"><g class="page-margin" transform="translate(0, 150)"><g data-id="ww7nmip" data-class="mdiv" class="mdiv pageMilestone"/><g data-id="x1hxwjdv" data-class="score" class="score pageMilestone"/><g data-id="rvcg5kn" data-class="system" class="system"><g data-id="zkx90v3" data-class="section" class="section systemMilestone"/><g data-id="w580x4j" data-class="measure" class="measure"><g data-id="lwew5e6" data-class="staff" class="staff"><path d="M0 540 L2514 540" stroke-width="13"/><path d="M0 720 L2514 720" stroke-width="13"/><path d="M0 900 L2514 900" stroke-width="13"/><path d="M0 1080 L2514 1080" stroke-width="13"/><path d="M0 1260 L2514 1260" stroke-width="13"/><g data-id="wouphq7" data-class="clef" class="clef"><use href="#E062-v14etlfo" transform="translate(88, 720) scale(0.72, 0.72)"/></g><g data-id="x1x9ce13" data-class="keySig" class="keySig"><g data-id="y14fpb0w" data-class="keyAccid" class="keyAccid"><use href="#E262-v14etlfo" transform="translate(769, 720) scale(0.72, 0.72)"/></g><g data-id="zwyi1jw" data-class="keyAccid" class="keyAccid"><use href="#E262-v14etlfo" transform="translate(947, 990) scale(0.72, 0.72)"/></g><g data-id="a6ynz1f" data-class="keyAccid" class="keyAccid"><use href="#E262-v14etlfo" transform="translate(1125, 630) scale(0.72, 0.72)"/></g></g><g data-id="b1pjixti" data-class="meterSig" class="meterSig"><use href="#E086-v14etlfo" transform="translate(1432, 720) scale(0.72, 0.72)"/><use href="#E088-v14etlfo" transform="translate(1439, 1080) scale(0.72, 0.72)"/></g><g data-id="m134x6o6" data-class="layer" class="layer"><g data-id="xu7re4n" data-class="note" class="note"><g data-class="notehead" class="notehead"><use href="#E0A4-v14etlfo" transform="translate(1991, 990) scale(0.72, 0.72)"/></g><g data-id="e1qwppvl" data-class="stem" class="stem"><path d="M2208 962 L2208 360" stroke-width="18"/><g data-id="fr9iobl" data-class="flag" class="flag"><use href="#E240-v14etlfo" transform="translate(2199, 360) scale(0.72, 0.72)"/></g></g><g data-id="mtvp10h" data-class="accid" class="accid"/></g></g></g><g data-id="e1qhq2qr" data-class="barLine" class="barLine"><path d="M2501 540 L2501 1260" stroke-width="27"/></g></g><g data-id="f1rqwivx" data-class="measure" class="measure"><g data-id="nwovkwf" data-class="staff" class="staff"><path d="M2514 540 L5407 540" stroke-width="13"/><path d="M2514 720 L5407 720" stroke-width="13"/><path d="M2514 900 L5407 900" stroke-width="13"/><path d="M2514 1080 L5407 1080" stroke-width="13"/><path d="M2514 1260 L5407 1260" stroke-width="13"/><g data-class="ledgerLines" class="ledgerLines above"><g data-class="lineDash" class="lineDash" data-related="#d167fx82"><path d="M4896 360 L5218 360" stroke-width="22"/></g></g><g data-id="o1bwtyqw" data-class="layer" class="layer"><g data-id="k14m63lj" data-class="beam" class="beam"><polygon stroke-opacity="1" fill-opacity="1" points="2694,1800 4962,1440 4962,1350 2694,1710"/><g data-id="y4gjxw4" data-class="note" class="note"><g data-class="notehead" class="notehead"><use href="#E0A4-v14etlfo" transform="translate(2694, 1350) scale(0.72, 0.72)"/></g><g data-id="gst0pf9" data-class="stem" class="stem"><path d="M2703 1378 L2703 1782" stroke-width="18"/></g><g data-id="n1splq9y" data-class="accid" class="accid"/></g><g data-id="z8ni92p" data-class="note" class="note"><g data-class="notehead" class="notehead"><use href="#E0A4-v14etlfo" transform="translate(3144, 990) scale(0.72, 0.72)"/></g><g data-id="h1vs3dno" data-class="stem" class="stem"><path d="M3153 1018 L3153 1710" stroke-width="18"/></g><g data-id="oipmll4" data-class="accid" class="accid"/></g><g data-id="a1j8r6t4" data-class="note" class="note"><g data-class="notehead" class="notehead"><use href="#E0A4-v14etlfo" transform="translate(3594, 540) scale(0.72, 0.72)"/></g><g data-id="i1k9a9y2" data-class="stem" class="stem"><path d="M3603 568 L3603 1638" stroke-width="18"/></g></g><g data-id="bwjdlnj" data-class="note" class="note"><g data-class="notehead" class="notehead"><use href="#E0A4-v14etlfo" transform="translate(4044, 990) scale(0.72, 0.72)"/></g><g data-id="j115gjn0" data-class="stem" class="stem"><path d="M4053 1018 L4053 1566" stroke-width="18"/></g><g data-id="pqk8aqz" data-class="accid" class="accid"/></g><g data-id="c1qr6zq9" data-class="note" class="note"><g data-class="notehead" class="notehead"><use href="#E0A4-v14etlfo" transform="translate(4494, 540) scale(0.72, 0.72)"/></g><g data-id="kjiq9kk" data-class="stem" class="stem"><path d="M4503 568 L4503 1494" stroke-width="18"/></g></g><g data-id="d167fx82" data-class="note" class="note"><g data-class="notehead" class="notehead"><use href="#E0A4-v14etlfo" transform="translate(4944, 360) scale(0.72, 0.72)"/></g><g data-id="lob6vp4" data-class="stem" class="stem"><path d="M4953 388 L4953 1422" stroke-width="18"/></g><g data-id="q1m2kc9k" data-class="accid" class="accid"/></g></g></g></g><g data-id="n1e4fmed" data-class="barLine" class="barLine"><path d="M5394 540 L5394 1260" stroke-width="27"/></g></g><g data-id="o1fjns4c" data-class="measure" class="measure"><g data-id="p19kl0kq" data-class="staff" class="staff"><path d="M5407 540 L8300 540" stroke-width="13"/><path d="M5407 720 L8300 720" stroke-width="13"/><path d="M5407 900 L8300 900" stroke-width="13"/><path d="M5407 1080 L8300 1080" stroke-width="13"/><path d="M5407 1260 L8300 1260" stroke-width="13"/><g data-class="ledgerLines" class="ledgerLines above"><g data-class="lineDash" class="lineDash" data-related="#j13x0225"><path d="M7789 360 L8111 360" stroke-width="22"/></g></g><g data-id="q1f8nrlq" data-class="layer" class="layer"><g data-id="lwa95k5" data-class="beam" class="beam"><polygon stroke-opacity="1" fill-opacity="1" points="5587,1800 7855,1440 7855,1350 5587,1710"/><g data-id="evw2f7b" data-class="note" class="note"><g data-class="notehead" class="notehead"><use href="#E0A4-v14etlfo" transform="translate(5587, 1350) scale(0.72, 0.72)"/></g><g data-id="m1p60s0f" data-class="stem" class="stem"><path d="M5596 1378 L5596 1782" stroke-width="18"/></g><g data-id="r4e46gf" data-class="accid" class="accid"/></g><g data-id="f1ck0ajj" data-class="note" class="note"><g data-class="notehead" class="notehead"><use href="#E0A4-v14etlfo" transform="translate(6037, 990) scale(0.72, 0.72)"/></g><g data-id="ngbtqjp" data-class="stem" class="stem"><path d="M6046 1018 L6046 1710" stroke-width="18"/></g><g data-id="smwpus" data-class="accid" class="accid"/></g><g data-id="g1i1sup7" data-class="note" class="note"><g data-class="notehead" class="notehead"><use href="#E0A4-v14etlfo" transform="translate(6487, 540) scale(0.72, 0.72)"/></g><g data-id="oqgp61m" data-class="stem" class="stem"><path d="M6496 568 L6496 1638" stroke-width="18"/></g></g><g data-id="h1hha1if" data-class="note" class="note"><g data-class="notehead" class="notehead"><use href="#E0A4-v14etlfo" transform="translate(6937, 990) scale(0.72, 0.72)"/></g><g data-id="p785ip2" data-class="stem" class="stem"><path d="M6946 1018 L6946 1566" stroke-width="18"/></g><g data-id="t13hr3h8" data-class="accid" class="accid"/></g><g data-id="iwfeoj2" data-class="note" class="note"><g data-class="notehead" class="notehead"><use href="#E0A4-v14etlfo" transform="translate(7387, 540) scale(0.72, 0.72)"/></g><g data-id="qlbz2tj" data-class="stem" class="stem"><path d="M7396 568 L7396 1494" stroke-width="18"/></g></g><g data-id="j13x0225" data-class="note" class="note"><g data-class="notehead" class="notehead"><use href="#E0A4-v14etlfo" transform="translate(7837, 360) scale(0.72, 0.72)"/></g><g data-id="r14pomi0" data-class="stem" class="stem"><path d="M7846 388 L7846 1422" stroke-width="18"/></g><g data-id="u1k290t7" data-class="accid" class="accid"/></g></g></g></g><g data-id="w169th1l" data-class="barLine" class="barLine"><path d="M8287 540 L8287 1260" stroke-width="27"/></g></g><g data-id="yitjbq7" data-class="systemMilestoneEnd" class="systemMilestoneEnd zkx90v3"/></g><g data-id="zlcgkvf" data-class="pageMilestoneEnd" class="pageMilestoneEnd x1hxwjdv"/><g data-id="a1jpqm5a" data-class="pageMilestoneEnd" class="pageMilestoneEnd ww7nmip"/></g></svg></svg>