<svg viewBox="0 0 560 84" version="1.1" xmlns="http://www.w3.org/2000/svg" xmlns:xlink="http://www.w3.org/1999/xlink" overflow="visible" id="mdf9xx6"><desc>Engraved by Verovio 5.6.0-85e7620</desc><defs><g id="E050-mdf9xx6"><path transform="scale(1,-1)" d="M441 -245c-23 -4 -48 -6 -76 -6c-59 0 -102 7 -130 20c-88 42 -150 93 -187 154c-26 44 -43 103 -48 176c0 6 -1 13 -1 19c0 54 15 111 45 170c29 57 65 106 110 148s96 85 153 127c-3 16 -8 46 -13 92c-4 43 -5 73 -5 89c0 117 16 172 69 257c34 54 64 82 89 82 c21 0 43 -30 69 -92s39 -115 41 -159v-15c0 -109 -21 -162 -67 -241c-13 -20 -63 -90 -98 -118c-13 -9 -25 -19 -37 -29l31 -181c8 1 18 2 28 2c58 0 102 -12 133 -35c59 -43 92 -104 98 -184c1 -7 1 -15 1 -22c0 -123 -87 -209 -181 -248c8 -57 17 -110 25 -162 c5 -31 6 -58 6 -80c0 -30 -5 -53 -14 -70c-35 -64 -88 -99 -158 -103c-5 0 -11 -1 -16 -1c-37 0 -72 10 -108 27c-50 24 -77 59 -80 105v11c0 29 7 55 20 76c18 28 45 42 79 44h6c49 0 93 -42 97 -87v-9c0 -51 -34 -86 -105 -106c17 -24 51 -36 102 -36c62 0 116 43 140 85 c9 16 13 41 13 74c0 20 -1 42 -5 67c-8 53 -18 106 -26 159zM461 939c-95 0 -135 -175 -135 -286c0 -24 2 -48 5 -71c50 39 92 82 127 128c40 53 60 100 60 140v8c-4 53 -22 81 -55 81h-2zM406 119l54 -326c73 25 110 78 110 161c0 7 0 15 -1 23c-7 95 -57 142 -151 142h-12 zM382 117c-72 -2 -128 -47 -128 -120v-7c2 -46 43 -99 75 -115c-3 -2 -7 -5 -10 -10c-70 33 -116 88 -123 172v11c0 68 44 126 88 159c23 17 49 29 78 36l-29 170c-21 -13 -52 -37 -92 -73c-50 -44 -86 -84 -109 -119c-45 -69 -67 -130 -67 -182v-13c5 -68 35 -127 93 -176 s125 -73 203 -73c25 0 50 3 75 9c-19 111 -36 221 -54 331z"/></g><g id="E08A-mdf9xx6"><path transform="scale(1,-1)" d="M340 179c-9 24 -56 41 -89 41c-46 0 -81 -28 -100 -58c-17 -28 -25 -78 -25 -150c0 -65 2 -111 8 -135c8 -31 18 -49 40 -67c20 -17 43 -25 70 -25c54 0 92 36 115 75c14 25 23 54 28 88h27c0 -63 -24 -105 -58 -141c-35 -38 -82 -56 -140 -56c-45 0 -83 13 -115 39 c-57 45 -101 130 -101 226c0 59 33 127 68 163c36 37 97 72 160 72c36 0 93 -21 121 -40c11 -8 23 -17 33 -30c19 -23 27 -48 27 -76c0 -51 -35 -88 -86 -88c-43 0 -76 27 -76 68c0 26 7 35 21 51c15 17 32 27 58 32c7 2 14 7 14 11z"/></g><g id="E4E6-mdf9xx6"><path transform="scale(1,-1)" d="M0 123c7 34 33 56 69 60c29 -3 43 -9 53 -29c4 -8 7 -15 10 -22c0 -21 -1 -25 -11 -35c-5 -8 -18 -14 -40 -20l12 -3l15 -1c44 0 97 26 122 56c10 11 18 26 24 42c7 1 15 2 22 3l-140 -424h-36l111 330c-10 -6 -27 -12 -53 -16l-52 -8h-10l-20 1c-1 0 -8 3 -21 6 c-37 9 -55 28 -55 60z"/></g><g id="E0A4-mdf9xx6"><path transform="scale(1,-1)" d="M0 -39c0 68 73 172 200 172c66 0 114 -37 114 -95c0 -84 -106 -171 -218 -171c-64 0 -96 30 -96 94z"/></g><g id="E262-mdf9xx6"><path transform="scale(1,-1)" d="M136 186v169h17v-164l44 14v-91l-44 -14v-165l44 12v-91l-44 -13v-155h-17v150l-76 -22v-155h-17v149l-43 -13v90l43 14v167l-43 -14v92l43 13v169h17v-163zM60 73v-167l76 22v168z"/></g></defs><style type="text/css">#mdf9xx6 g.page-margin {font-family:Times,serif;}#mdf9xx6 g.ending, #mdf9xx6 g.fing, #mdf9xx6 g.reh, #mdf9xx6 g.tempo {font-weight:bold;}#mdf9xx6 g.dir, #mdf9xx6 g.dynam, #mdf9xx6 g.mNum {font-style:italic;}#mdf9xx6 g.label {font-weight:normal;}#mdf9xx6 path {stroke:currentColor}</style><svg class="definition-scale" color="black" viewBox="0 0 14000 2100"><g class="page-margin" transform="translate(0, 150)"><g data-id="z1xly58t" data-class="mdiv" class="mdiv pageMilestone"/><g data-id="a1nuatyx" data-class="score" class="score pageMilestone"/><g data-id="w17jx4ct" data-class="system" class="system"><g data-id="ci3swhl" data-class="section" class="section systemMilestone"/><g data-id="nnf68et" data-class="measure" class="measure"><g data-id="orkppzj" data-class="staff" class="staff"><path d="M0 540 L4805 540" stroke-width="13"/><path d="M0 720 L4805 720" stroke-width="13"/><path d="M0 900 L4805 900" stroke-width="13"/><path d="M0 1080 L4805 1080" stroke-width="13"/><path d="M0 1260 L4805 1260" stroke-width="13"/><g data-id="ev7qoiw" data-class="clef" class="clef"><use href="#E050-mdf9xx6" transform="translate(90, 1080) scale(0.72, 0.72)"/></g><g data-id="f1bgu82k" data-class="keySig" class="keySig"/><g data-id="gvh4kvc" data-class="meterSig" class="meterSig"><use href="#E08A-mdf9xx6" transform="translate(735, 900) scale(0.72, 0.72)"/></g><g data-id="p1r0hebt" data-class="layer" class="layer"><g data-id="f188lejg" data-class="rest" class="rest"><use href="#E4E6-mdf9xx6" transform="translate(1303, 900) scale(0.72, 0.72)"/></g><g data-id="u1n1z644" data-class="beam" class="beam"><polygon stroke-opacity="1" fill-opacity="1" points="1961,675 2879,675 2879,765 1961,765"/><g data-id="h1uf8c0" data-class="note" class="note"><g data-class="notehead" class="notehead"><use href="#E0A4-mdf9xx6" transform="translate(1753, 1260) scale(0.72, 0.72)"/></g><g data-id="c1cfbqc6" data-class="stem" class="stem"><path d="M1970 1232 L1970 693" stroke-width="18"/></g></g><g data-id="ipf9cy5" data-class="note" class="note"><g data-class="notehead" class="notehead"><use href="#E0A4-mdf9xx6" transform="translate(2203, 1260) scale(0.72, 0.72)"/></g><g data-id="d1at4qpk" data-class="stem" class="stem"><path d="M2420 1232 L2420 693" stroke-width="18"/></g></g><g data-id="j1bpaeqr" data-class="note" class="note"><g data-class="notehead" class="notehead"><use href="#E0A4-mdf9xx6" transform="translate(2653, 1260) scale(0.72, 0.72)"/></g><g data-id="eydtfqw" data-class="stem" class="stem"><path d="M2870 1232 L2870 693" stroke-width="18"/></g></g></g><g data-id="v1bc1f5e" data-class="beam" class="beam"><polygon stroke-opacity="1" fill-opacity="1" points="3311,540 3779,495 3779,585 3311,630"/><g data-id="kn5pzbg" data-class="note" class="note"><g data-class="notehead" class="notehead"><use href="#E0A4-mdf9xx6" transform="translate(3103, 1260) scale(0.72, 0.72)"/></g><g data-id="f13q4xvh" data-class="stem" class="stem"><path d="M3320 1232 L3320 558" stroke-width="18"/></g></g><g data-id="l1qv2vik" data-class="note" class="note"><g data-class="notehead" class="notehead"><use href="#E0A4-mdf9xx6" transform="translate(3553, 1170) scale(0.72, 0.72)"/></g><g data-id="g1fysbaz" data-class="stem" class="stem"><path d="M3770 1142 L3770 513" stroke-width="18"/></g></g></g><g data-id="musbspq" data-class="note" class="note"><g data-class="notehead" class="notehead"><use href="#E0A4-mdf9xx6" transform="translate(4003, 1170) scale(0.72, 0.72)"/></g><g data-id="hktm7g9" data-class="stem" class="stem"><path d="M4220 1142 L4220 540" stroke-width="18"/></g></g></g></g><g data-id="vb88ol" data-class="barLine" class="barLine"><path d="M4693 540 L4693 1260" stroke-width="27"/><path d="M4792 540 L4792 1260" stroke-width="27"/></g></g><g data-id="w1o1hnsp" data-class="measure" class="measure"><g data-id="qqi1911" data-class="staff" class="staff"><path d="M4805 540 L8440 540" stroke-width="13"/><path d="M4805 720 L8440 720" stroke-width="13"/><path d="M4805 900 L8440 900" stroke-width="13"/><path d="M4805 1080 L8440 1080" stroke-width="13"/><path d="M4805 1260 L8440 1260" stroke-width="13"/><g data-id="r1ruqjnu" data-class="layer" class="layer"><g data-id="gacl0pj" data-class="rest" class="rest"><use href="#E4E6-mdf9xx6" transform="translate(4985, 900) scale(0.72, 0.72)"/></g><g data-id="wwx8olh" data-class="beam" class="beam"><polygon stroke-opacity="1" fill-opacity="1" points="5643,675 6561,675 6561,765 5643,765"/><g data-id="n1ig1k5c" data-class="note" class="note"><g data-class="notehead" class="notehead"><use href="#E0A4-mdf9xx6" transform="translate(5435, 1260) scale(0.72, 0.72)"/></g><g data-id="i260qmy" data-class="stem" class="stem"><path d="M5652 1232 L5652 693" stroke-width="18"/></g></g><g data-id="o1xn3ly8" data-class="note" class="note"><g data-class="notehead" class="notehead"><use href="#E0A4-mdf9xx6" transform="translate(5885, 1260) scale(0.72, 0.72)"/></g><g data-id="jxj9fcv" data-class="stem" class="stem"><path d="M6102 1232 L6102 693" stroke-width="18"/></g></g><g data-id="p1at9hu0" data-class="note" class="note"><g data-class="notehead" class="notehead"><use href="#E0A4-mdf9xx6" transform="translate(6335, 1260) scale(0.72, 0.72)"/></g><g data-id="kqcqt73" data-class="stem" class="stem"><path d="M6552 1232 L6552 693" stroke-width="18"/></g></g></g><g data-id="x186zl27" data-class="beam" class="beam"><polygon stroke-opacity="1" fill-opacity="1" points="6993,630 7513,675 7513,765 6993,720"/><g data-id="qomlseq" data-class="note" class="note"><g data-class="notehead" class="notehead"><use href="#E0A4-mdf9xx6" transform="translate(6785, 1260) scale(0.72, 0.72)"/></g><g data-id="le9vdj8" data-class="stem" class="stem"><path d="M7002 1232 L7002 648" stroke-width="18"/></g></g><g data-id="rosgvqp" data-class="note" class="note"><g data-class="notehead" class="notehead"><use href="#E0A4-mdf9xx6" transform="translate(7287, 1350) scale(0.72, 0.72)"/></g><g data-id="m1hkgrnm" data-class="stem" class="stem"><path d="M7504 1322 L7504 693" stroke-width="18"/></g><g data-id="t11p9ir8" data-class="accid" class="accid"><use href="#E262-mdf9xx6" transform="translate(7101, 1350) scale(0.72, 0.72)"/></g></g></g><g data-id="s1vr2lq8" data-class="note" class="note"><g data-class="notehead" class="notehead"><use href="#E0A4-mdf9xx6" transform="translate(7737, 1260) scale(0.72, 0.72)"/></g><g data-id="n198py04" data-class="stem" class="stem"><path d="M7954 1232 L7954 630" stroke-width="18"/></g></g></g></g><g data-id="e1e98amc" data-class="barLine" class="barLine"><path d="M8427 540 L8427 1260" stroke-width="27"/></g></g><g data-id="z1htv8ds" data-class="systemMilestoneEnd" class="systemMilestoneEnd ci3swhl"/></g><g data-id="a1pnmdy0" data-class="pageMilestoneEnd" class="pageMilestoneEnd a1nuatyx"/><g data-id="bfgiha8" data-class="pageMilestoneEnd" class="pageMilestoneEnd z1xly58t"/></g></svg></svg>