<svg viewBox="0 0 560 84" version="1.1" xmlns="http://www.w3.org/2000/svg" xmlns:xlink="http://www.w3.org/1999/xlink" overflow="visible" id="xhxvq1i"><desc>Engraved by Verovio 5.6.0-85e7620</desc><defs><g id="E050-xhxvq1i"><path transform="scale(1,-1)" d="M441 -245c-23 -4 -48 -6 -76 -6c-59 0 -102 7 -130 20c-88 42 -150 93 -187 154c-26 44 -43 103 -48 176c0 6 -1 13 -1 19c0 54 15 111 45 170c29 57 65 106 110 148s96 85 153 127c-3 16 -8 46 -13 92c-4 43 -5 73 -5 89c0 117 16 172 69 257c34 54 64 82 89 82 c21 0 43 -30 69 -92s39 -115 41 -159v-15c0 -109 -21 -162 -67 -241c-13 -20 -63 -90 -98 -118c-13 -9 -25 -19 -37 -29l31 -181c8 1 18 2 28 2c58 0 102 -12 133 -35c59 -43 92 -104 98 -184c1 -7 1 -15 1 -22c0 -123 -87 -209 -181 -248c8 -57 17 -110 25 -162 c5 -31 6 -58 6 -80c0 -30 -5 -53 -14 -70c-35 -64 -88 -99 -158 -103c-5 0 -11 -1 -16 -1c-37 0 -72 10 -108 27c-50 24 -77 59 -80 105v11c0 29 7 55 20 76c18 28 45 42 79 44h6c49 0 93 -42 97 -87v-9c0 -51 -34 -86 -105 -106c17 -24 51 -36 102 -36c62 0 116 43 140 85 c9 16 13 41 13 74c0 20 -1 42 -5 67c-8 53 -18 106 -26 159zM461 939c-95 0 -135 -175 -135 -286c0 -24 2 -48 5 -71c50 39 92 82 127 128c40 53 60 100 60 140v8c-4 53 -22 81 -55 81h-2zM406 119l54 -326c73 25 110 78 110 161c0 7 0 15 -1 23c-7 95 -57 142 -151 142h-12 zM382 117c-72 -2 -128 -47 -128 -120v-7c2 -46 43 -99 75 -115c-3 -2 -7 -5 -10 -10c-70 33 -116 88 -123 172v11c0 68 44 126 88 159c23 17 49 29 78 36l-29 170c-21 -13 -52 -37 -92 -73c-50 -44 -86 -84 -109 -119c-45 -69 -67 -130 -67 -182v-13c5 -68 35 -127 93 -176 s125 -73 203 -73c25 0 50 3 75 9c-19 111 -36 221 -54 331z"/></g><g id="E262-xhxvq1i"><path transform="scale(1,-1)" d="M136 186v169h17v-164l44 14v-91l-44 -14v-165l44 12v-91l-44 -13v-155h-17v150l-76 -22v-155h-17v149l-43 -13v90l43 14v167l-43 -14v92l43 13v169h17v-163zM60 73v-167l76 22v168z"/></g><g id="E08A-xhxvq1i"><path transform="scale(1,-1)" d="M340 179c-9 24 -56 41 -89 41c-46 0 -81 -28 -100 -58c-17 -28 -25 -78 -25 -150c0 -65 2 -111 8 -135c8 -31 18 -49 40 -67c20 -17 43 -25 70 -25c54 0 92 36 115 75c14 25 23 54 28 88h27c0 -63 -24 -105 -58 -141c-35 -38 -82 -56 -140 -56c-45 0 -83 13 -115 39 c-57 45 -101 130 -101 226c0 59 33 127 68 163c36 37 97 72 160 72c36 0 93 -21 121 -40c11 -8 23 -17 33 -30c19 -23 27 -48 27 -76c0 -51 -35 -88 -86 -88c-43 0 -76 27 -76 68c0 26 7 35 21 51c15 17 32 27 58 32c7 2 14 7 14 11z"/></g><g id="E4E2-xhxvq1i"><path transform="scale(1,-1)" d="M0 10v230c0 8 2 10 10 10h105c8 0 10 -2 10 -10v-230c0 -8 -2 -10 -10 -10h-105c-8 0 -10 2 -10 10z"/></g><g id="E082-xhxvq1i"><path transform="scale(1,-1)" d="M124 -185c-18 0 -55 -14 -65 -65h-36l-3 30c0 25 6 45 18 63c11 19 22 30 39 43l121 82l37 29c15 11 27 29 38 54c12 24 18 47 18 70c0 40 -19 88 -94 88c-25 0 -32 0 -50 -8c-14 -5 -23 -12 -26 -22c3 -9 7 -15 10 -18l24 -17c12 -7 17 -11 27 -21c5 -7 7 -16 7 -27 c0 -12 0 -57 -79 -74c-30 0 -76 26 -76 94c0 66 81 135 197 135c72 0 181 -32 181 -150c0 -53 -32 -95 -113 -133l-91 -41c-26 -11 -45 -23 -57 -37l49 7c84 0 115 -41 148 -41c20 0 33 20 39 61h35c0 -152 -68 -168 -114 -168c-17 0 -65 0 -79 7h10l-28 17 c-49 37 -69 40 -87 42z"/></g><g id="E4E4-xhxvq1i"><path transform="scale(1,-1)" d="M0 10v105c0 9 1 10 10 10h280c9 0 10 -1 10 -10v-105c0 -9 -1 -10 -10 -10h-280c-9 0 -10 1 -10 10z"/></g><g id="E0A4-xhxvq1i"><path transform="scale(1,-1)" d="M0 -39c0 68 73 172 200 172c66 0 114 -37 114 -95c0 -84 -106 -171 -218 -171c-64 0 -96 30 -96 94z"/></g><g id="E240-xhxvq1i"><path transform="scale(1,-1)" d="M179 -646c15 29 29 55 46 102c18 49 30 108 30 138c0 105 -80 173 -168 200c-18 5 -47 9 -87 16v190h22c8 0 33 -61 71 -95c4 -3 -2 3 61 -56c62 -58 122 -137 122 -241c0 -38 -13 -106 -35 -163c-20 -51 -43 -99 -66 -132c-6 -5 -10 -7 -13 -7s-5 2 -5 5l4 10 c1 3 14 25 18 33z"/></g><g id="E241-xhxvq1i"><path transform="scale(1,-1)" d="M179 646c-4 8 -17 30 -18 33l-4 10c0 3 2 5 5 5s7 -2 13 -7c23 -33 46 -81 66 -132c22 -57 35 -125 35 -163c0 -104 -60 -183 -122 -241c-63 -59 -57 -53 -61 -56c-38 -34 -63 -95 -71 -95h-22v190c40 7 69 11 87 16c88 27 168 95 168 200c0 30 -12 89 -30 138 c-17 47 -31 73 -46 102z"/></g></defs><style type="text/css">#xhxvq1i g.page-margin {font-family:Times,serif;}#xhxvq1i g.ending, #xhxvq1i g.fing, #xhxvq1i g.reh, #xhxvq1i g.tempo {font-weight:bold;}#xhxvq1i g.dir, #xhxvq1i g.dynam, #xhxvq1i g.mNum {font-style:italic;}#xhxvq1i g.label {font-weight:normal;}#xhxvq1i path {stroke:currentColor}</style><svg class="definition-scale" color="black" viewBox="0 0 14000 2100"><g class="page-margin" transform="translate(0, 150)"><g data-id="a7tpsju" data-class="mdiv" class="mdiv pageMilestone"/><g data-id="b10170nc" data-class="score" class="score pageMilestone"/><g data-id="hxwkgw" data-class="system" class="system"><g data-id="dzfy0r6" data-class="section" class="section systemMilestone"/><g data-id="yxpyltn" data-class="measure" class="measure"><g data-id="p1h3t1ym" data-class="staff" class="staff"><path d="M0 540 L3311 540" stroke-width="13"/><path d="M0 720 L3311 720" stroke-width="13"/><path d="M0 900 L3311 900" stroke-width="13"/><path d="M0 1080 L3311 1080" stroke-width="13"/><path d="M0 1260 L3311 1260" stroke-width="13"/><g data-id="dqrrkkj" data-class="clef" class="clef"><use href="#E050-xhxvq1i" transform="translate(90, 1080) scale(0.72, 0.72)"/></g><g data-id="e16ynwpj" data-class="keySig" class="keySig"><g data-id="fb1a1uy" data-class="keyAccid" class="keyAccid"><use href="#E262-xhxvq1i" transform="translate(735, 540) scale(0.72, 0.72)"/></g></g><g data-id="g1caecm1" data-class="meterSig" class="meterSig"><use href="#E08A-xhxvq1i" transform="translate(1056, 900) scale(0.72, 0.72)"/></g><g data-id="qtrha1k" data-class="layer" class="layer"><g data-id="a1xgej1y" data-class="multiRest" class="multiRest"><use href="#E4E2-xhxvq1i" transform="translate(2319, 900) scale(0.72, 0.72)"/><use href="#E082-xhxvq1i" transform="translate(2205, 270) scale(0.72, 0.72)"/></g></g></g><g data-id="g22d493" data-class="barLine" class="barLine"><path d="M3298 540 L3298 1260" stroke-width="27"/></g></g><g data-id="h1wmr67y" data-class="measure" class="measure"><g data-id="r1ucrp0e" data-class="staff" class="staff"><path d="M3311 540 L6201 540" stroke-width="13"/><path d="M3311 720 L6201 720" stroke-width="13"/><path d="M3311 900 L6201 900" stroke-width="13"/><path d="M3311 1080 L6201 1080" stroke-width="13"/><path d="M3311 1260 L6201 1260" stroke-width="13"/><g data-id="s123rncg" data-class="layer" class="layer"><g data-id="b1h7sy7x" data-class="rest" class="rest"><use href="#E4E4-xhxvq1i" transform="translate(3503, 900) scale(0.72, 0.72)"/><g data-class="ledgerLines" class="ledgerLines"/></g><g data-id="c7lenta" data-class="note" class="note"><g data-class="notehead" class="notehead"><use href="#E0A4-xhxvq1i" transform="translate(4663, 720) scale(0.72, 0.72)"/></g><g data-id="m1y6tsk0" data-class="stem" class="stem"><path d="M4672 748 L4672 1350" stroke-width="18"/></g></g><g data-id="dlw3hjk" data-class="note" class="note"><g data-class="notehead" class="notehead"><use href="#E0A4-xhxvq1i" transform="translate(5425, 1080) scale(0.72, 0.72)"/></g><g data-id="nlojr62" data-class="stem" class="stem"><path d="M5642 1052 L5642 450" stroke-width="18"/></g></g></g></g><g data-id="p1s2uvgf" data-class="barLine" class="barLine"><path d="M6188 540 L6188 1260" stroke-width="27"/></g></g><g data-id="q1uevbvi" data-class="measure" class="measure"><g data-id="t3vodte" data-class="staff" class="staff"><path d="M6201 540 L10276 540" stroke-width="13"/><path d="M6201 720 L10276 720" stroke-width="13"/><path d="M6201 900 L10276 900" stroke-width="13"/><path d="M6201 1080 L10276 1080" stroke-width="13"/><path d="M6201 1260 L10276 1260" stroke-width="13"/><g data-id="u1vgb83n" data-class="layer" class="layer"><g data-id="e1lpnfs6" data-class="note" class="note"><g data-class="notehead" class="notehead"><use href="#E0A4-xhxvq1i" transform="translate(6393, 990) scale(0.72, 0.72)"/></g><g data-id="ouu9gj3" data-class="stem" class="stem"><path d="M6610 962 L6610 360" stroke-width="18"/></g></g><g data-id="f1q2fbll" data-class="note" class="note"><g data-class="notehead" class="notehead"><use href="#E0A4-xhxvq1i" transform="translate(7156, 1350) scale(0.72, 0.72)"/></g><g data-id="p1smoe80" data-class="stem" class="stem"><path d="M7373 1322 L7373 720" stroke-width="18"/><g data-id="qdqkbdu" data-class="flag" class="flag"><use href="#E240-xhxvq1i" transform="translate(7364, 720) scale(0.72, 0.72)"/></g></g></g><g data-id="g6uwsd2" data-class="note" class="note"><g data-class="notehead" class="notehead"><use href="#E0A4-xhxvq1i" transform="translate(7653, 1350) scale(0.72, 0.72)"/></g><g data-id="r1n2kc2s" data-class="stem" class="stem"><path d="M7870 1322 L7870 720" stroke-width="18"/><g data-id="s1rdhzym" data-class="flag" class="flag"><use href="#E240-xhxvq1i" transform="translate(7861, 720) scale(0.72, 0.72)"/></g></g></g><g data-id="h1qye119" data-class="note" class="note"><g data-class="notehead" class="notehead"><use href="#E0A4-xhxvq1i" transform="translate(8181, 1260) scale(0.72, 0.72)"/></g><g data-id="t1obqsqz" data-class="stem" class="stem"><path d="M8398 1232 L8398 630" stroke-width="18"/><g data-id="unnsp5w" data-class="flag" class="flag"><use href="#E240-xhxvq1i" transform="translate(8389, 630) scale(0.72, 0.72)"/></g></g></g><g data-id="i1qh22vb" data-class="note" class="note"><g data-class="notehead" class="notehead"><use href="#E0A4-xhxvq1i" transform="translate(8710, 1170) scale(0.72, 0.72)"/></g><g data-id="v1s6j5hb" data-class="stem" class="stem"><path d="M8927 1142 L8927 540" stroke-width="18"/><g data-id="wahcpkf" data-class="flag" class="flag"><use href="#E240-xhxvq1i" transform="translate(8918, 540) scale(0.72, 0.72)"/></g></g><g data-id="yl9madl" data-class="accid" class="accid"/></g><g data-id="j1weftya" data-class="note" class="note"><g data-class="notehead" class="notehead"><use href="#E0A4-xhxvq1i" transform="translate(9238, 1080) scale(0.72, 0.72)"/></g><g data-id="xo90uyh" data-class="stem" class="stem"><path d="M9455 1052 L9455 450" stroke-width="18"/><g data-id="y149wlpr" data-class="flag" class="flag"><use href="#E240-xhxvq1i" transform="translate(9446, 450) scale(0.72, 0.72)"/></g></g></g><g data-id="k2xso3b" data-class="note" class="note"><g data-class="notehead" class="notehead"><use href="#E0A4-xhxvq1i" transform="translate(9766, 900) scale(0.72, 0.72)"/></g><g data-id="zcil3e" data-class="stem" class="stem"><path d="M9775 928 L9775 1500" stroke-width="18"/><g data-id="am99ei2" data-class="flag" class="flag"><use href="#E241-xhxvq1i" transform="translate(9766, 1500) scale(0.72, 0.72)"/></g></g></g></g></g><g data-id="yo1s931" data-class="barLine" class="barLine"><path d="M10263 540 L10263 1260" stroke-width="27"/></g></g><g data-id="zvlcglt" data-class="measure" class="measure"><g data-id="v16bno5g" data-class="staff" class="staff"><path d="M10276 540 L14002 540" stroke-width="13"/><path d="M10276 720 L14002 720" stroke-width="13"/><path d="M10276 900 L14002 900" stroke-width="13"/><path d="M10276 1080 L14002 1080" stroke-width="13"/><path d="M10276 1260 L14002 1260" stroke-width="13"/><g data-id="w1psefqd" data-class="layer" class="layer"><g data-id="l1kh1f8f" data-class="note" class="note"><g data-class="notehead" class="notehead"><use href="#E0A4-xhxvq1i" transform="translate(10468, 720) scale(0.72, 0.72)"/></g><g data-id="c1pb3uk4" data-class="dots" class="dots"><ellipse cx="10784" cy="630" rx="36" ry="36" fill-opacity="1" stroke-opacity="1"/></g><g data-id="b1ilnjgg" data-class="stem" class="stem"><path d="M10477 748 L10477 1350" stroke-width="18"/></g></g><g data-id="mt6ce9j" data-class="note" class="note"><g data-class="notehead" class="notehead"><use href="#E0A4-xhxvq1i" transform="translate(11441, 720) scale(0.72, 0.72)"/></g><g data-id="d1p7sdw0" data-class="stem" class="stem"><path d="M11450 748 L11450 1350" stroke-width="18"/><g data-id="e18egt69" data-class="flag" class="flag"><use href="#E241-xhxvq1i" transform="translate(11441, 1350) scale(0.72, 0.72)"/></g></g></g><g data-id="n3g4qjk" data-class="note" class="note"><g data-class="notehead" class="notehead"><use href="#E0A4-xhxvq1i" transform="translate(11938, 720) scale(0.72, 0.72)"/></g><g data-id="f1y14nkh" data-class="stem" class="stem"><path d="M11947 748 L11947 1350" stroke-width="18"/><g data-id="gawfal6" data-class="flag" class="flag"><use href="#E241-xhxvq1i" transform="translate(11938, 1350) scale(0.72, 0.72)"/></g></g></g><g data-id="olmg1dn" data-class="note" class="note"><g data-class="notehead" class="notehead"><use href="#E0A4-xhxvq1i" transform="translate(12435, 1080) scale(0.72, 0.72)"/></g><g data-id="hrwd7gf" data-class="stem" class="stem"><path d="M12652 1052 L12652 450" stroke-width="18"/><g data-id="ikvv27d" data-class="flag" class="flag"><use href="#E240-xhxvq1i" transform="translate(12643, 450) scale(0.72, 0.72)"/></g></g></g><g data-id="p1dzvjc1" data-class="note" class="note"><g data-class="notehead" class="notehead"><use href="#E0A4-xhxvq1i" transform="translate(12963, 990) scale(0.72, 0.72)"/></g><g data-id="j1iva68u" data-class="stem" class="stem"><path d="M13180 962 L13180 360" stroke-width="18"/><g data-id="k1aki73n" data-class="flag" class="flag"><use href="#E240-xhxvq1i" transform="translate(13171, 360) scale(0.72, 0.72)"/></g></g></g><g data-id="q1g5r3ia" data-class="note" class="note"><g data-class="notehead" class="notehead"><use href="#E0A4-xhxvq1i" transform="translate(13492, 810) scale(0.72, 0.72)"/></g><g data-id="l1lp2n0w" data-class="stem" class="stem"><path d="M13501 838 L13501 1440" stroke-width="18"/><g data-id="m1jyc38v" data-class="flag" class="flag"><use href="#E241-xhxvq1i" transform="translate(13492, 1440) scale(0.72, 0.72)"/></g></g></g></g></g><g data-id="h75w2sn" data-class="barLine" class="barLine"><path d="M13989 540 L13989 1260" stroke-width="27"/></g></g></g></g></svg></svg>