<svg viewBox="0 0 560 84" version="1.1" xmlns="http://www.w3.org/2000/svg" xmlns:xlink="http://www.w3.org/1999/xlink" overflow="visible" id="p1ulge38"><desc>Engraved by Verovio 5.6.0-85e7620</desc><defs><g id="E050-p1ulge38"><path transform="scale(1,-1)" d="M441 -245c-23 -4 -48 -6 -76 -6c-59 0 -102 7 -130 20c-88 42 -150 93 -187 154c-26 44 -43 103 -48 176c0 6 -1 13 -1 19c0 54 15 111 45 170c29 57 65 106 110 148s96 85 153 127c-3 16 -8 46 -13 92c-4 43 -5 73 -5 89c0 117 16 172 69 257c34 54 64 82 89 82 c21 0 43 -30 69 -92s39 -115 41 -159v-15c0 -109 -21 -162 -67 -241c-13 -20 -63 -90 -98 -118c-13 -9 -25 -19 -37 -29l31 -181c8 1 18 2 28 2c58 0 102 -12 133 -35c59 -43 92 -104 98 -184c1 -7 1 -15 1 -22c0 -123 -87 -209 -181 -248c8 -57 17 -110 25 -162 c5 -31 6 -58 6 -80c0 -30 -5 -53 -14 -70c-35 -64 -88 -99 -158 -103c-5 0 -11 -1 -16 -1c-37 0 -72 10 -108 27c-50 24 -77 59 -80 105v11c0 29 7 55 20 76c18 28 45 42 79 44h6c49 0 93 -42 97 -87v-9c0 -51 -34 -86 -105 -106c17 -24 51 -36 102 -36c62 0 116 43 140 85 c9 16 13 41 13 74c0 20 -1 42 -5 67c-8 53 -18 106 -26 159zM461 939c-95 0 -135 -175 -135 -286c0 -24 2 -48 5 -71c50 39 92 82 127 128c40 53 60 100 60 140v8c-4 53 -22 81 -55 81h-2zM406 119l54 -326c73 25 110 78 110 161c0 7 0 15 -1 23c-7 95 -57 142 -151 142h-12 zM382 117c-72 -2 -128 -47 -128 -120v-7c2 -46 43 -99 75 -115c-3 -2 -7 -5 -10 -10c-70 33 -116 88 -123 172v11c0 68 44 126 88 159c23 17 49 29 78 36l-29 170c-21 -13 -52 -37 -92 -73c-50 -44 -86 -84 -109 -119c-45 -69 -67 -130 -67 -182v-13c5 -68 35 -127 93 -176 s125 -73 203 -73c25 0 50 3 75 9c-19 111 -36 221 -54 331z"/></g><g id="E260-p1ulge38"><path transform="scale(1,-1)" d="M20 110c32 16 54 27 93 27c26 0 35 -3 54 -13c13 -7 24 -20 27 -38l4 -25c0 -28 -16 -57 -45 -89c-23 -25 -39 -44 -65 -68l-88 -79v644h20v-359zM90 106c-32 0 -48 -10 -70 -29v-194c31 31 54 59 71 84c21 32 32 59 32 84c0 9 1 16 1 20c0 14 -3 21 -11 30l-8 3z"/></g><g id="E083-p1ulge38"><path transform="scale(1,-1)" d="M208 250c97 0 177 -52 177 -116c0 -69 -40 -111 -118 -125c56 -5 125 -44 125 -116c0 -31 -10 -57 -31 -78c-19 -21 -45 -38 -78 -49l-50 -11c-15 -3 -36 -7 -55 -7c-50 0 -86 16 -113 38c-16 10 -23 18 -34 34c-7 13 -11 25 -11 38c0 43 27 83 68 83l3 -2 c61 0 75 -42 75 -70c0 -19 -24 -42 -26 -57c7 -17 20 -25 37 -25c44 0 94 29 94 78c0 75 -34 125 -138 125v36c84 0 131 22 131 98c0 54 -37 88 -87 88c-26 0 -43 -7 -51 -22c15 -22 44 -16 44 -70c0 -37 -37 -62 -71 -62c-22 0 -69 15 -69 76c0 79 101 116 178 116z"/></g><g id="E084-p1ulge38"><path transform="scale(1,-1)" d="M20 -78c84 97 114 180 134 329h170c-13 -32 -82 -132 -99 -151l-84 -97c-33 -36 -59 -63 -80 -81h162v102l127 123v-225h57v-39h-57v-34c0 -43 19 -65 57 -65v-34h-244v36c48 0 60 26 60 70v27h-203v39z"/></g><g id="E4E6-p1ulge38"><path transform="scale(1,-1)" d="M0 123c7 34 33 56 69 60c29 -3 43 -9 53 -29c4 -8 7 -15 10 -22c0 -21 -1 -25 -11 -35c-5 -8 -18 -14 -40 -20l12 -3l15 -1c44 0 97 26 122 56c10 11 18 26 24 42c7 1 15 2 22 3l-140 -424h-36l111 330c-10 -6 -27 -12 -53 -16l-52 -8h-10l-20 1c-1 0 -8 3 -21 6 c-37 9 -55 28 -55 60z"/></g><g id="E0A4-p1ulge38"><path transform="scale(1,-1)" d="M0 -39c0 68 73 172 200 172c66 0 114 -37 114 -95c0 -84 -106 -171 -218 -171c-64 0 -96 30 -96 94z"/></g><g id="E241-p1ulge38"><path transform="scale(1,-1)" d="M179 646c-4 8 -17 30 -18 33l-4 10c0 3 2 5 5 5s7 -2 13 -7c23 -33 46 -81 66 -132c22 -57 35 -125 35 -163c0 -104 -60 -183 -122 -241c-63 -59 -57 -53 -61 -56c-38 -34 -63 -95 -71 -95h-22v190c40 7 69 11 87 16c88 27 168 95 168 200c0 30 -12 89 -30 138 c-17 47 -31 73 -46 102z"/></g><g id="E0A3-p1ulge38"><path transform="scale(1,-1)" d="M278 64c0 22 -17 39 -43 39c-12 0 -26 -3 -41 -10c-85 -43 -165 -94 -165 -156c5 -25 15 -32 49 -32c67 11 200 95 200 159zM0 -36c0 68 73 174 200 174c66 0 114 -39 114 -97c0 -84 -106 -173 -218 -173c-64 0 -96 32 -96 96z"/></g></defs><style type="text/css">#p1ulge38 g.page-margin {font-family:Times,serif;}#p1ulge38 g.ending, #p1ulge38 g.fing, #p1ulge38 g.reh, #p1ulge38 g.tempo {font-weight:bold;}#p1ulge38 g.dir, #p1ulge38 g.dynam, #p1ulge38 g.mNum {font-style:italic;}#p1ulge38 g.label {font-weight:normal;}#p1ulge38 path {stroke:currentColor}</style><svg class="definition-scale" color="black" viewBox="0 0 14000 2100"><g class="page-margin" transform="translate(0, 150)"><g data-id="s18ytpl5" data-class="mdiv" class="mdiv pageMilestone"/><g data-id="t107dut1" data-class="score" class="score pageMilestone"/><g data-id="u1vujocv" data-class="system" class="system"><g data-id="v1e9yfkv" data-class="section" class="section systemMilestone"/><g data-id="q15ip54h" data-class="measure" class="measure"><g data-id="h1rypkh2" data-class="staff" class="staff"><path d="M0 540 L5153 540" stroke-width="13"/><path d="M0 720 L5153 720" stroke-width="13"/><path d="M0 900 L5153 900" stroke-width="13"/><path d="M0 1080 L5153 1080" stroke-width="13"/><path d="M0 1260 L5153 1260" stroke-width="13"/><g data-id="u1ckoqem" data-class="clef" class="clef"><use href="#E050-p1ulge38" transform="translate(90, 1080) scale(0.72, 0.72)"/></g><g data-id="v1ubhexr" data-class="keySig" class="keySig"><g data-id="wpq0bnv" data-class="keyAccid" class="keyAccid"><use href="#E260-p1ulge38" transform="translate(735, 900) scale(0.72, 0.72)"/></g><g data-id="xawmxho" data-class="keyAccid" class="keyAccid"><use href="#E260-p1ulge38" transform="translate(915, 630) scale(0.72, 0.72)"/></g></g><g data-id="y16ir2nr" data-class="meterSig" class="meterSig"><use href="#E083-p1ulge38" transform="translate(1229, 720) scale(0.72, 0.72)"/><use href="#E084-p1ulge38" transform="translate(1223, 1080) scale(0.72, 0.72)"/></g><g data-id="i1hhp4d3" data-class="layer" class="layer"><g data-id="j1etsmxg" data-class="rest" class="rest"><use href="#E4E6-p1ulge38" transform="translate(1797, 900) scale(0.72, 0.72)"/></g><g data-id="g1jh6bqw" data-class="beam" class="beam"><polygon stroke-opacity="1" fill-opacity="1" points="2354,1665 4601,1305 4601,1215 2354,1575"/><g data-id="kdlsfl3" data-class="note" class="note"><g data-class="notehead" class="notehead"><use href="#E0A4-p1ulge38" transform="translate(2354, 1170) scale(0.72, 0.72)"/></g><g data-id="d11f4mai" data-class="stem" class="stem"><path d="M2363 1198 L2363 1647" stroke-width="18"/></g></g><g data-id="l1kp7cl7" data-class="note" class="note"><g data-class="notehead" class="notehead"><use href="#E0A4-p1ulge38" transform="translate(2912, 900) scale(0.72, 0.72)"/></g><g data-id="ef7cf4j" data-class="stem" class="stem"><path d="M2921 928 L2921 1556" stroke-width="18"/></g><g data-id="k13gfxo4" data-class="accid" class="accid"/></g><g data-id="m12je9i5" data-class="note" class="note"><g data-class="notehead" class="notehead"><use href="#E0A4-p1ulge38" transform="translate(3469, 720) scale(0.72, 0.72)"/></g><g data-id="f1w32w3w" data-class="stem" class="stem"><path d="M3478 748 L3478 1466" stroke-width="18"/></g></g><g data-id="n172gvlh" data-class="note" class="note"><g data-class="notehead" class="notehead"><use href="#E0A4-p1ulge38" transform="translate(4026, 540) scale(0.72, 0.72)"/></g><g data-id="gdr7zg2" data-class="stem" class="stem"><path d="M4035 568 L4035 1376" stroke-width="18"/></g></g><g data-id="o1rg0zfn" data-class="note" class="note"><g data-class="notehead" class="notehead"><use href="#E0A4-p1ulge38" transform="translate(4583, 720) scale(0.72, 0.72)"/></g><g data-id="h68k3u3" data-class="stem" class="stem"><path d="M4592 748 L4592 1287" stroke-width="18"/></g></g></g></g></g><g data-id="y11l9ji1" data-class="barLine" class="barLine"><path d="M5140 540 L5140 1260" stroke-width="27"/></g></g><g data-id="zhhlkmt" data-class="measure" class="measure"><g data-id="j1q308ab" data-class="staff" class="staff"><path d="M5153 540 L8094 540" stroke-width="13"/><path d="M5153 720 L8094 720" stroke-width="13"/><path d="M5153 900 L8094 900" stroke-width="13"/><path d="M5153 1080 L8094 1080" stroke-width="13"/><path d="M5153 1260 L8094 1260" stroke-width="13"/><g data-id="k7sno87" data-class="layer" class="layer"><g data-id="hpzq72t" data-class="beam" class="beam"><polygon stroke-opacity="1" fill-opacity="1" points="5345,1440 6081,1260 6081,1170 5345,1350"/><polygon stroke-opacity="1" fill-opacity="1" points="5855,1177 6081,1125 6081,1035 5855,1087"/><g data-id="pizfli3" data-class="note" class="note"><g data-class="notehead" class="notehead"><use href="#E0A4-p1ulge38" transform="translate(5345, 810) scale(0.72, 0.72)"/></g><g data-id="j1ur4o16" data-class="dots" class="dots"><ellipse cx="5661" cy="810" rx="36" ry="36" fill-opacity="1" stroke-opacity="1"/></g><g data-id="iojd8ax" data-class="stem" class="stem"><path d="M5354 838 L5354 1422" stroke-width="18"/></g></g><g data-id="q9cahc" data-class="note" class="note"><g data-class="notehead" class="notehead"><use href="#E0A4-p1ulge38" transform="translate(6063, 630) scale(0.72, 0.72)"/></g><g data-id="k15ai9a1" data-class="stem" class="stem"><path d="M6072 658 L6072 1242" stroke-width="18"/></g><g data-id="libbamz" data-class="accid" class="accid"/></g></g><g data-id="rsjryv6" data-class="note" class="note"><g data-class="notehead" class="notehead"><use href="#E0A4-p1ulge38" transform="translate(6434, 720) scale(0.72, 0.72)"/></g><g data-id="m1mo3cwf" data-class="dots" class="dots"><ellipse cx="6750" cy="630" rx="36" ry="36" fill-opacity="1" stroke-opacity="1"/></g><g data-id="l1e8evkx" data-class="stem" class="stem"><path d="M6443 748 L6443 1350" stroke-width="18"/></g></g><g data-id="s1cklplq" data-class="note" class="note"><g data-class="notehead" class="notehead"><use href="#E0A4-p1ulge38" transform="translate(7524, 900) scale(0.72, 0.72)"/></g><g data-id="niw1hy9" data-class="stem" class="stem"><path d="M7533 928 L7533 1500" stroke-width="18"/><g data-id="o1q4wrn7" data-class="flag" class="flag"><use href="#E241-p1ulge38" transform="translate(7524, 1500) scale(0.72, 0.72)"/></g></g><g data-id="mpflnuc" data-class="accid" class="accid"/></g></g></g><g data-id="h144pinn" data-class="barLine" class="barLine"><path d="M8081 540 L8081 1260" stroke-width="27"/></g></g><g data-id="i11gstby" data-class="measure" class="measure"><g data-id="l1yfvzxe" data-class="staff" class="staff"><path d="M8094 540 L11642 540" stroke-width="13"/><path d="M8094 720 L11642 720" stroke-width="13"/><path d="M8094 900 L11642 900" stroke-width="13"/><path d="M8094 1080 L11642 1080" stroke-width="13"/><path d="M8094 1260 L11642 1260" stroke-width="13"/><g data-id="mkorivj" data-class="layer" class="layer"><g data-id="ii33kq8" data-class="beam" class="beam"><polygon stroke-opacity="1" fill-opacity="1" points="8286,1620 11090,1620 11090,1530 8286,1530"/><g data-id="t1grns7j" data-class="note" class="note"><g data-class="notehead" class="notehead"><use href="#E0A4-p1ulge38" transform="translate(8286, 810) scale(0.72, 0.72)"/></g><g data-id="pb8q823" data-class="stem" class="stem"><path d="M8295 838 L8295 1602" stroke-width="18"/></g></g><g data-id="uwntv6h" data-class="note" class="note"><g data-class="notehead" class="notehead"><use href="#E0A4-p1ulge38" transform="translate(8843, 630) scale(0.72, 0.72)"/></g><g data-id="q1cnaes0" data-class="stem" class="stem"><path d="M8852 658 L8852 1602" stroke-width="18"/></g><g data-id="n1x610ul" data-class="accid" class="accid"/></g><g data-id="v1k09cmq" data-class="note" class="note"><g data-class="notehead" class="notehead"><use href="#E0A4-p1ulge38" transform="translate(9401, 720) scale(0.72, 0.72)"/></g><g data-id="r15eweoc" data-class="stem" class="stem"><path d="M9410 748 L9410 1602" stroke-width="18"/></g></g><g data-id="w15wo7mu" data-class="note" class="note"><g data-class="notehead" class="notehead"><use href="#E0A4-p1ulge38" transform="translate(9958, 900) scale(0.72, 0.72)"/></g><g data-id="sw6hxoa" data-class="stem" class="stem"><path d="M9967 928 L9967 1602" stroke-width="18"/></g><g data-id="ol3l2ft" data-class="accid" class="accid"/></g><g data-id="xumk18j" data-class="note" class="note"><g data-class="notehead" class="notehead"><use href="#E0A4-p1ulge38" transform="translate(10515, 1080) scale(0.72, 0.72)"/></g><g data-id="t1jsec4w" data-class="stem" class="stem"><path d="M10524 1108 L10524 1602" stroke-width="18"/></g></g><g data-id="y60mvps" data-class="note" class="note"><g data-class="notehead" class="notehead"><use href="#E0A4-p1ulge38" transform="translate(11072, 990) scale(0.72, 0.72)"/></g><g data-id="uz94nk8" data-class="stem" class="stem"><path d="M11081 1018 L11081 1602" stroke-width="18"/></g></g></g></g></g><g data-id="qtzxxn" data-class="barLine" class="barLine"><path d="M11629 540 L11629 1260" stroke-width="27"/></g></g><g data-id="r1nxvwub" data-class="measure" class="measure"><g data-id="n1yb1kym" data-class="staff" class="staff"><path d="M11642 540 L14001 540" stroke-width="13"/><path d="M11642 720 L14001 720" stroke-width="13"/><path d="M11642 900 L14001 900" stroke-width="13"/><path d="M11642 1080 L14001 1080" stroke-width="13"/><path d="M11642 1260 L14001 1260" stroke-width="13"/><g data-id="o50tkio" data-class="layer" class="layer"><g data-id="z126fb0k" data-class="note" class="note"><g data-class="notehead" class="notehead"><use href="#E0A4-p1ulge38" transform="translate(11834, 990) scale(0.72, 0.72)"/></g><g data-id="vtmuuj6" data-class="stem" class="stem"><path d="M12051 962 L12051 360" stroke-width="18"/></g></g><g data-id="a1jzzx7a" data-class="note" class="note"><g data-class="notehead" class="notehead"><use href="#E0A3-p1ulge38" transform="translate(12689, 900) scale(0.72, 0.72)"/></g><g data-id="whpun" data-class="stem" class="stem"><path d="M12698 925 L12698 1500" stroke-width="18"/></g><g data-id="p1ftzan" data-class="accid" class="accid"/></g></g></g><g data-id="z1u9hzuz" data-class="barLine" class="barLine"><path d="M13988 540 L13988 1260" stroke-width="27"/></g></g></g></g></svg></svg>