<svg viewBox="0 0 560 84" version="1.1" xmlns="http://www.w3.org/2000/svg" xmlns:xlink="http://www.w3.org/1999/xlink" overflow="visible" id="akjyac9"><desc>Engraved by Verovio 5.6.0-85e7620</desc><defs><g id="E050-akjyac9"><path transform="scale(1,-1)" d="M441 -245c-23 -4 -48 -6 -76 -6c-59 0 -102 7 -130 20c-88 42 -150 93 -187 154c-26 44 -43 103 -48 176c0 6 -1 13 -1 19c0 54 15 111 45 170c29 57 65 106 110 148s96 85 153 127c-3 16 -8 46 -13 92c-4 43 -5 73 -5 89c0 117 16 172 69 257c34 54 64 82 89 82 c21 0 43 -30 69 -92s39 -115 41 -159v-15c0 -109 -21 -162 -67 -241c-13 -20 -63 -90 -98 -118c-13 -9 -25 -19 -37 -29l31 -181c8 1 18 2 28 2c58 0 102 -12 133 -35c59 -43 92 -104 98 -184c1 -7 1 -15 1 -22c0 -123 -87 -209 -181 -248c8 -57 17 -110 25 -162 c5 -31 6 -58 6 -80c0 -30 -5 -53 -14 -70c-35 -64 -88 -99 -158 -103c-5 0 -11 -1 -16 -1c-37 0 -72 10 -108 27c-50 24 -77 59 -80 105v11c0 29 7 55 20 76c18 28 45 42 79 44h6c49 0 93 -42 97 -87v-9c0 -51 -34 -86 -105 -106c17 -24 51 -36 102 -36c62 0 116 43 140 85 c9 16 13 41 13 74c0 20 -1 42 -5 67c-8 53 -18 106 -26 159zM461 939c-95 0 -135 -175 -135 -286c0 -24 2 -48 5 -71c50 39 92 82 127 128c40 53 60 100 60 140v8c-4 53 -22 81 -55 81h-2zM406 119l54 -326c73 25 110 78 110 161c0 7 0 15 -1 23c-7 95 -57 142 -151 142h-12 zM382 117c-72 -2 -128 -47 -128 -120v-7c2 -46 43 -99 75 -115c-3 -2 -7 -5 -10 -10c-70 33 -116 88 -123 172v11c0 68 44 126 88 159c23 17 49 29 78 36l-29 170c-21 -13 -52 -37 -92 -73c-50 -44 -86 -84 -109 -119c-45 -69 -67 -130 -67 -182v-13c5 -68 35 -127 93 -176 s125 -73 203 -73c25 0 50 3 75 9c-19 111 -36 221 -54 331z"/></g><g id="E262-akjyac9"><path transform="scale(1,-1)" d="M136 186v169h17v-164l44 14v-91l-44 -14v-165l44 12v-91l-44 -13v-155h-17v150l-76 -22v-155h-17v149l-43 -13v90l43 14v167l-43 -14v92l43 13v169h17v-163zM60 73v-167l76 22v168z"/></g><g id="E08A-akjyac9"><path transform="scale(1,-1)" d="M340 179c-9 24 -56 41 -89 41c-46 0 -81 -28 -100 -58c-17 -28 -25 -78 -25 -150c0 -65 2 -111 8 -135c8 -31 18 -49 40 -67c20 -17 43 -25 70 -25c54 0 92 36 115 75c14 25 23 54 28 88h27c0 -63 -24 -105 -58 -141c-35 -38 -82 -56 -140 -56c-45 0 -83 13 -115 39 c-57 45 -101 130 -101 226c0 59 33 127 68 163c36 37 97 72 160 72c36 0 93 -21 121 -40c11 -8 23 -17 33 -30c19 -23 27 -48 27 -76c0 -51 -35 -88 -86 -88c-43 0 -76 27 -76 68c0 26 7 35 21 51c15 17 32 27 58 32c7 2 14 7 14 11z"/></g><g id="E4E7-akjyac9"><path transform="scale(1,-1)" d="M133 -111c0 -33 -21 -50 -52 -55c10 -3 18 -4 25 -4c40 0 69 24 90 47l66 197c-36 -18 -64 -25 -112 -25c-23 0 -38 3 -45 8c-37 7 -55 27 -55 59c8 35 30 54 68 58c45 -6 49 -13 64 -48c0 -3 1 -5 1 -7c0 -27 -25 -46 -52 -49c6 -4 15 -6 26 -6c32 2 62 14 88 29 c32 19 44 36 59 71l7 1l10 2h4c-72 -220 -143 -439 -215 -659h-37l108 324c-20 -13 -51 -20 -82 -20c-21 0 -35 4 -43 10c-37 6 -55 26 -55 58c8 35 31 56 68 60c43 -8 48 -13 64 -51z"/></g><g id="E0A4-akjyac9"><path transform="scale(1,-1)" d="M0 -39c0 68 73 172 200 172c66 0 114 -37 114 -95c0 -84 -106 -171 -218 -171c-64 0 -96 30 -96 94z"/></g><g id="E261-akjyac9"><path transform="scale(1,-1)" d="M0 -188v539h18v-191l139 22v-533h-17v186zM18 -100l122 17v176l-122 -19v-174z"/></g></defs><style type="text/css">#akjyac9 g.page-margin {font-family:Times,serif;}#akjyac9 g.ending, #akjyac9 g.fing, #akjyac9 g.reh, #akjyac9 g.tempo {font-weight:bold;}#akjyac9 g.dir, #akjyac9 g.dynam, #akjyac9 g.mNum {font-style:italic;}#akjyac9 g.label {font-weight:normal;}#akjyac9 path {stroke:currentColor}</style><svg class="definition-scale" color="black" viewBox="0 0 14000 2100"><g class="page-margin" transform="translate(0, 150)"><g data-id="r1a3a65z" data-class="mdiv" class="mdiv pageMilestone"/><g data-id="srljqq3" data-class="score" class="score pageMilestone"/><g data-id="v1u77ca8" data-class="system" class="system"><g data-id="u15qlknk" data-class="section" class="section systemMilestone"/><g data-id="bwjix06" data-class="measure" class="measure"><g data-id="g1khp7f9" data-class="staff" class="staff"><path d="M0 540 L4708 540" stroke-width="13"/><path d="M0 720 L4708 720" stroke-width="13"/><path d="M0 900 L4708 900" stroke-width="13"/><path d="M0 1080 L4708 1080" stroke-width="13"/><path d="M0 1260 L4708 1260" stroke-width="13"/><g data-id="b1e9g7zl" data-class="clef" class="clef"><use href="#E050-akjyac9" transform="translate(90, 1080) scale(0.72, 0.72)"/></g><g data-id="c19ibsh3" data-class="keySig" class="keySig"><g data-id="d1qxzecv" data-class="keyAccid" class="keyAccid"><use href="#E262-akjyac9" transform="translate(735, 540) scale(0.72, 0.72)"/></g><g data-id="e4nnfjp" data-class="keyAccid" class="keyAccid"><use href="#E262-akjyac9" transform="translate(913, 810) scale(0.72, 0.72)"/></g></g><g data-id="f12lk9h" data-class="meterSig" class="meterSig"><use href="#E08A-akjyac9" transform="translate(1234, 900) scale(0.72, 0.72)"/></g><g data-id="he65vbe" data-class="layer" class="layer"><g data-id="cdg68ll" data-class="rest" class="rest"><use href="#E4E7-akjyac9" transform="translate(1802, 900) scale(0.72, 0.72)"/></g><g data-id="d2mprhk" data-class="beam" class="beam"><polygon stroke-opacity="1" fill-opacity="1" points="2125,1260 2961,1260 2961,1170 2125,1170"/><polygon stroke-opacity="1" fill-opacity="1" points="2125,1125 2636,1125 2636,1035 2125,1035"/><polygon stroke-opacity="1" fill-opacity="1" points="2636,1125 2961,1125 2961,1035 2636,1035"/><g data-id="d1dmusnw" data-class="note" class="note"><g data-class="notehead" class="notehead"><use href="#E0A4-akjyac9" transform="translate(2125, 540) scale(0.72, 0.72)"/></g><g data-id="y1s6upr4" data-class="stem" class="stem"><path d="M2134 568 L2134 1242" stroke-width="18"/></g><g data-id="ja0whdu" data-class="accid" class="accid"/></g><g data-id="e11zg9w5" data-class="note" class="note"><g data-class="notehead" class="notehead"><use href="#E0A4-akjyac9" transform="translate(2627, 630) scale(0.72, 0.72)"/></g><g data-id="z11gtpwx" data-class="stem" class="stem"><path d="M2636 658 L2636 1242" stroke-width="18"/></g><g data-id="xwoobsk" data-class="accid" class="accid"><use href="#E262-akjyac9" transform="translate(2441, 630) scale(0.72, 0.72)"/></g></g><g data-id="f33pxjl" data-class="note" class="note"><g data-class="notehead" class="notehead"><use href="#E0A4-akjyac9" transform="translate(2943, 540) scale(0.72, 0.72)"/></g><g data-id="a1fsf76u" data-class="stem" class="stem"><path d="M2952 568 L2952 1242" stroke-width="18"/></g><g data-id="k1sgeg2q" data-class="accid" class="accid"/></g></g><g data-id="ekoygns" data-class="beam" class="beam"><polygon stroke-opacity="1" fill-opacity="1" points="3259,1575 4383,1575 4383,1485 3259,1485"/><polygon stroke-opacity="1" fill-opacity="1" points="3259,1440 3584,1440 3584,1350 3259,1350"/><polygon stroke-opacity="1" fill-opacity="1" points="3584,1440 4058,1440 4058,1350 3584,1350"/><polygon stroke-opacity="1" fill-opacity="1" points="4058,1440 4383,1440 4383,1350 4058,1350"/><g data-id="g1v4nzfl" data-class="note" class="note"><g data-class="notehead" class="notehead"><use href="#E0A4-akjyac9" transform="translate(3259, 810) scale(0.72, 0.72)"/></g><g data-id="b10s6kmc" data-class="stem" class="stem"><path d="M3268 838 L3268 1557" stroke-width="18"/></g><g data-id="ld4kr99" data-class="accid" class="accid"/></g><g data-id="hmxq1ww" data-class="note" class="note"><g data-class="notehead" class="notehead"><use href="#E0A4-akjyac9" transform="translate(3575, 720) scale(0.72, 0.72)"/></g><g data-id="c13wny" data-class="stem" class="stem"><path d="M3584 748 L3584 1557" stroke-width="18"/></g></g><g data-id="iatau9g" data-class="note" class="note"><g data-class="notehead" class="notehead"><use href="#E0A4-akjyac9" transform="translate(4049, 990) scale(0.72, 0.72)"/></g><g data-id="d1hprw48" data-class="stem" class="stem"><path d="M4058 1018 L4058 1557" stroke-width="18"/></g><g data-id="y1m5xz6e" data-class="accid" class="accid"><use href="#E262-akjyac9" transform="translate(3863, 990) scale(0.72, 0.72)"/></g></g><g data-id="j1hwfmrq" data-class="note" class="note"><g data-class="notehead" class="notehead"><use href="#E0A4-akjyac9" transform="translate(4365, 900) scale(0.72, 0.72)"/></g><g data-id="e981gxm" data-class="stem" class="stem"><path d="M4374 928 L4374 1557" stroke-width="18"/></g></g></g></g></g><g data-id="je33r79" data-class="barLine" class="barLine"><path d="M4695 540 L4695 1260" stroke-width="27"/></g></g><g data-id="k1s4tmnm" data-class="measure" class="measure"><g data-id="i1bkhsyn" data-class="staff" class="staff"><path d="M4708 540 L7813 540" stroke-width="13"/><path d="M4708 720 L7813 720" stroke-width="13"/><path d="M4708 900 L7813 900" stroke-width="13"/><path d="M4708 1080 L7813 1080" stroke-width="13"/><path d="M4708 1260 L7813 1260" stroke-width="13"/><g data-class="ledgerLines" class="ledgerLines above"><g data-class="lineDash" class="lineDash" data-related="#k17k8l76"><path d="M5024 360 L5346 360" stroke-width="22"/></g></g><g data-id="j1go5j6r" data-class="layer" class="layer"><g data-id="ftc82ta" data-class="beam" class="beam"><polygon stroke-opacity="1" fill-opacity="1" points="5072,1080 6038,1260 6038,1170 5072,990"/><polygon stroke-opacity="1" fill-opacity="1" points="5072,945 5397,1005 5397,915 5072,855"/><polygon stroke-opacity="1" fill-opacity="1" points="5397,1005 5713,1065 5713,975 5397,915"/><polygon stroke-opacity="1" fill-opacity="1" points="5713,1065 6038,1125 6038,1035 5713,975"/><g data-id="k17k8l76" data-class="note" class="note"><g data-class="notehead" class="notehead"><use href="#E0A4-akjyac9" transform="translate(5072, 360) scale(0.72, 0.72)"/></g><g data-id="fekf6rm" data-class="stem" class="stem"><path d="M5081 388 L5081 1062" stroke-width="18"/></g><g data-id="z7g12ka" data-class="accid" class="accid"><use href="#E261-akjyac9" transform="translate(4888, 360) scale(0.72, 0.72)"/></g></g><g data-id="lx3mjfe" data-class="note" class="note"><g data-class="notehead" class="notehead"><use href="#E0A4-akjyac9" transform="translate(5388, 450) scale(0.72, 0.72)"/></g><g data-id="g1w9cz3q" data-class="stem" class="stem"><path d="M5397 478 L5397 1122" stroke-width="18"/></g></g><g data-id="m19ca6w9" data-class="note" class="note"><g data-class="notehead" class="notehead"><use href="#E0A4-akjyac9" transform="translate(5704, 540) scale(0.72, 0.72)"/></g><g data-id="h141ym9n" data-class="stem" class="stem"><path d="M5713 568 L5713 1182" stroke-width="18"/></g><g data-id="md0ic6v" data-class="accid" class="accid"/></g><g data-id="n866zxe" data-class="note" class="note"><g data-class="notehead" class="notehead"><use href="#E0A4-akjyac9" transform="translate(6020, 630) scale(0.72, 0.72)"/></g><g data-id="ibdiegl" data-class="stem" class="stem"><path d="M6029 658 L6029 1242" stroke-width="18"/></g></g></g><g data-id="g1ljwbo0" data-class="beam" class="beam"><polygon stroke-opacity="1" fill-opacity="1" points="6336,1125 7488,1305 7488,1215 6336,1035"/><polygon stroke-opacity="1" fill-opacity="1" points="6336,990 6661,1040 6661,950 6336,900"/><polygon stroke-opacity="1" fill-opacity="1" points="6661,1040 6977,1090 6977,1000 6661,950"/><polygon stroke-opacity="1" fill-opacity="1" points="6977,1090 7488,1170 7488,1080 6977,1000"/><g data-id="olzl9bq" data-class="note" class="note"><g data-class="notehead" class="notehead"><use href="#E0A4-akjyac9" transform="translate(6336, 450) scale(0.72, 0.72)"/></g><g data-id="jqs7gvr" data-class="stem" class="stem"><path d="M6345 478 L6345 1107" stroke-width="18"/></g></g><g data-id="pu5syf2" data-class="note" class="note"><g data-class="notehead" class="notehead"><use href="#E0A4-akjyac9" transform="translate(6652, 540) scale(0.72, 0.72)"/></g><g data-id="k1mfmqli" data-class="stem" class="stem"><path d="M6661 568 L6661 1157" stroke-width="18"/></g><g data-id="n1x2lkue" data-class="accid" class="accid"/></g><g data-id="qghlpd3" data-class="note" class="note"><g data-class="notehead" class="notehead"><use href="#E0A4-akjyac9" transform="translate(6968, 630) scale(0.72, 0.72)"/></g><g data-id="l130d0kv" data-class="stem" class="stem"><path d="M6977 658 L6977 1207" stroke-width="18"/></g></g><g data-id="rza5wrk" data-class="note" class="note"><g data-class="notehead" class="notehead"><use href="#E0A4-akjyac9" transform="translate(7470, 720) scale(0.72, 0.72)"/></g><g data-id="m1ne7spk" data-class="stem" class="stem"><path d="M7479 748 L7479 1287" stroke-width="18"/></g><g data-id="ajhftwp" data-class="accid" class="accid"><use href="#E262-akjyac9" transform="translate(7284, 720) scale(0.72, 0.72)"/></g></g></g></g></g><g data-id="s1yzkg7f" data-class="barLine" class="barLine"><path d="M7800 540 L7800 1260" stroke-width="27"/></g></g><g data-id="t17x7dof" data-class="measure" class="measure"><g data-id="klz4ml4" data-class="staff" class="staff"><path d="M7813 540 L10204 540" stroke-width="13"/><path d="M7813 720 L10204 720" stroke-width="13"/><path d="M7813 900 L10204 900" stroke-width="13"/><path d="M7813 1080 L10204 1080" stroke-width="13"/><path d="M7813 1260 L10204 1260" stroke-width="13"/><g data-id="l7jmlou" data-class="layer" class="layer"><g data-id="h1nvcmvx" data-class="beam" class="beam"><polygon stroke-opacity="1" fill-opacity="1" points="7993,1440 8963,1440 8963,1350 7993,1350"/><polygon stroke-opacity="1" fill-opacity="1" points="8452,1305 8963,1305 8963,1215 8452,1215"/><g data-id="spzgviw" data-class="note" class="note"><g data-class="notehead" class="notehead"><use href="#E0A4-akjyac9" transform="translate(7993, 630) scale(0.72, 0.72)"/></g><g data-id="n1mkb1bg" data-class="stem" class="stem"><path d="M8002 658 L8002 1422" stroke-width="18"/></g></g><g data-id="t11h5ahw" data-class="note" class="note"><g data-class="notehead" class="notehead"><use href="#E0A4-akjyac9" transform="translate(8443, 810) scale(0.72, 0.72)"/></g><g data-id="o1qudqd0" data-class="stem" class="stem"><path d="M8452 838 L8452 1422" stroke-width="18"/></g><g data-id="o6b49nx" data-class="accid" class="accid"/></g><g data-id="umpq26o" data-class="note" class="note"><g data-class="notehead" class="notehead"><use href="#E0A4-akjyac9" transform="translate(8945, 630) scale(0.72, 0.72)"/></g><g data-id="p15i0osp" data-class="stem" class="stem"><path d="M8954 658 L8954 1422" stroke-width="18"/></g><g data-id="bgmfni" data-class="accid" class="accid"><use href="#E262-akjyac9" transform="translate(8759, 630) scale(0.72, 0.72)"/></g></g></g><g data-id="i1ossxrh" data-class="beam" class="beam"><polygon stroke-opacity="1" fill-opacity="1" points="9261,1170 9879,1260 9879,1170 9261,1080"/><polygon stroke-opacity="1" fill-opacity="1" points="9653,1093 9879,1125 9879,1035 9653,1003"/><g data-id="vwysb5k" data-class="note" class="note"><g data-class="notehead" class="notehead"><use href="#E0A4-akjyac9" transform="translate(9261, 540) scale(0.72, 0.72)"/></g><g data-id="ruurx4o" data-class="dots" class="dots"><ellipse cx="9577" cy="450" rx="36" ry="36" fill-opacity="1" stroke-opacity="1"/></g><g data-id="q1vfpi5w" data-class="stem" class="stem"><path d="M9270 568 L9270 1152" stroke-width="18"/></g><g data-id="pi583mc" data-class="accid" class="accid"/></g><g data-id="w1aseo4j" data-class="note" class="note"><g data-class="notehead" class="notehead"><use href="#E0A4-akjyac9" transform="translate(9861, 630) scale(0.72, 0.72)"/></g><g data-id="s1ha7ed9" data-class="stem" class="stem"><path d="M9870 658 L9870 1242" stroke-width="18"/></g><g data-id="c1v44njk" data-class="accid" class="accid"><use href="#E261-akjyac9" transform="translate(9703, 630) scale(0.72, 0.72)"/></g></g></g></g></g><g data-id="bppmktw" data-class="barLine" class="barLine"><path d="M10191 540 L10191 1260" stroke-width="27"/></g></g><g data-id="t1x6ja7b" data-class="systemMilestoneEnd" class="systemMilestoneEnd u15qlknk"/></g><g data-id="u1bu76xr" data-class="pageMilestoneEnd" class="pageMilestoneEnd srljqq3"/><g data-id="vziacqc" data-class="pageMilestoneEnd" class="pageMilestoneEnd r1a3a65z"/></g></svg></svg>