<svg viewBox="0 0 560 84" version="1.1" xmlns="http://www.w3.org/2000/svg" xmlns:xlink="http://www.w3.org/1999/xlink" overflow="visible" id="hso9sh4"><desc>Engraved by Verovio 5.6.0-85e7620</desc><defs><g id="E050-hso9sh4"><path transform="scale(1,-1)" d="M441 -245c-23 -4 -48 -6 -76 -6c-59 0 -102 7 -130 20c-88 42 -150 93 -187 154c-26 44 -43 103 -48 176c0 6 -1 13 -1 19c0 54 15 111 45 170c29 57 65 106 110 148s96 85 153 127c-3 16 -8 46 -13 92c-4 43 -5 73 -5 89c0 117 16 172 69 257c34 54 64 82 89 82 c21 0 43 -30 69 -92s39 -115 41 -159v-15c0 -109 -21 -162 -67 -241c-13 -20 -63 -90 -98 -118c-13 -9 -25 -19 -37 -29l31 -181c8 1 18 2 28 2c58 0 102 -12 133 -35c59 -43 92 -104 98 -184c1 -7 1 -15 1 -22c0 -123 -87 -209 -181 -248c8 -57 17 -110 25 -162 c5 -31 6 -58 6 -80c0 -30 -5 -53 -14 -70c-35 -64 -88 -99 -158 -103c-5 0 -11 -1 -16 -1c-37 0 -72 10 -108 27c-50 24 -77 59 -80 105v11c0 29 7 55 20 76c18 28 45 42 79 44h6c49 0 93 -42 97 -87v-9c0 -51 -34 -86 -105 -106c17 -24 51 -36 102 -36c62 0 116 43 140 85 c9 16 13 41 13 74c0 20 -1 42 -5 67c-8 53 -18 106 -26 159zM461 939c-95 0 -135 -175 -135 -286c0 -24 2 -48 5 -71c50 39 92 82 127 128c40 53 60 100 60 140v8c-4 53 -22 81 -55 81h-2zM406 119l54 -326c73 25 110 78 110 161c0 7 0 15 -1 23c-7 95 -57 142 -151 142h-12 zM382 117c-72 -2 -128 -47 -128 -120v-7c2 -46 43 -99 75 -115c-3 -2 -7 -5 -10 -10c-70 33 -116 88 -123 172v11c0 68 44 126 88 159c23 17 49 29 78 36l-29 170c-21 -13 -52 -37 -92 -73c-50 -44 -86 -84 -109 -119c-45 -69 -67 -130 -67 -182v-13c5 -68 35 -127 93 -176 s125 -73 203 -73c25 0 50 3 75 9c-19 111 -36 221 -54 331z"/></g><g id="E262-hso9sh4"><path transform="scale(1,-1)" d="M136 186v169h17v-164l44 14v-91l-44 -14v-165l44 12v-91l-44 -13v-155h-17v150l-76 -22v-155h-17v149l-43 -13v90l43 14v167l-43 -14v92l43 13v169h17v-163zM60 73v-167l76 22v168z"/></g><g id="E08A-hso9sh4"><path transform="scale(1,-1)" d="M340 179c-9 24 -56 41 -89 41c-46 0 -81 -28 -100 -58c-17 -28 -25 -78 -25 -150c0 -65 2 -111 8 -135c8 -31 18 -49 40 -67c20 -17 43 -25 70 -25c54 0 92 36 115 75c14 25 23 54 28 88h27c0 -63 -24 -105 -58 -141c-35 -38 -82 -56 -140 -56c-45 0 -83 13 -115 39 c-57 45 -101 130 -101 226c0 59 33 127 68 163c36 37 97 72 160 72c36 0 93 -21 121 -40c11 -8 23 -17 33 -30c19 -23 27 -48 27 -76c0 -51 -35 -88 -86 -88c-43 0 -76 27 -76 68c0 26 7 35 21 51c15 17 32 27 58 32c7 2 14 7 14 11z"/></g><g id="E0A4-hso9sh4"><path transform="scale(1,-1)" d="M0 -39c0 68 73 172 200 172c66 0 114 -37 114 -95c0 -84 -106 -171 -218 -171c-64 0 -96 30 -96 94z"/></g></defs><style type="text/css">#hso9sh4 g.page-margin {font-family:Times,serif;}#hso9sh4 g.ending, #hso9sh4 g.fing, #hso9sh4 g.reh, #hso9sh4 g.tempo {font-weight:bold;}#hso9sh4 g.dir, #hso9sh4 g.dynam, #hso9sh4 g.mNum {font-style:italic;}#hso9sh4 g.label {font-weight:normal;}#hso9sh4 path {stroke:currentColor}</style><svg class="definition-scale" color="black" viewBox="0 0 14000 2100"><g class="page-margin" transform="translate(0, 150)"><g data-id="f88by0f" data-class="mdiv" class="mdiv pageMilestone"/><g data-id="g17s0nth" data-class="score" class="score pageMilestone"/><g data-id="i12h593t" data-class="system" class="system"><g data-id="i11c1t8l" data-class="section" class="section systemMilestone"/><g data-id="imi278n" data-class="measure" class="measure"><g data-id="u1f5rhfx" data-class="staff" class="staff"><path d="M0 540 L4596 540" stroke-width="13"/><path d="M0 720 L4596 720" stroke-width="13"/><path d="M0 900 L4596 900" stroke-width="13"/><path d="M0 1080 L4596 1080" stroke-width="13"/><path d="M0 1260 L4596 1260" stroke-width="13"/><g data-id="m1h6dt5z" data-class="clef" class="clef"><use href="#E050-hso9sh4" transform="translate(90, 1080) scale(0.72, 0.72)"/></g><g data-id="nx12c4g" data-class="keySig" class="keySig"><g data-id="o5j19ww" data-class="keyAccid" class="keyAccid"><use href="#E262-hso9sh4" transform="translate(735, 540) scale(0.72, 0.72)"/></g><g data-id="p1uj3rjz" data-class="keyAccid" class="keyAccid"><use href="#E262-hso9sh4" transform="translate(913, 810) scale(0.72, 0.72)"/></g><g data-id="q1qhacn0" data-class="keyAccid" class="keyAccid"><use href="#E262-hso9sh4" transform="translate(1091, 450) scale(0.72, 0.72)"/></g><g data-id="r1uqpfcp" data-class="keyAccid" class="keyAccid"><use href="#E262-hso9sh4" transform="translate(1269, 720) scale(0.72, 0.72)"/></g></g><g data-id="s1k00vp4" data-class="meterSig" class="meterSig"><use href="#E08A-hso9sh4" transform="translate(1590, 900) scale(0.72, 0.72)"/></g><g data-id="vuyib3o" data-class="layer" class="layer"><g data-id="zo9dy6e" data-class="beam" class="beam"><polygon stroke-opacity="1" fill-opacity="1" points="2366,360 4596,360 4596,450 2366,450"/><polygon stroke-opacity="1" fill-opacity="1" points="2366,495 2691,495 2691,585 2366,585"/><polygon stroke-opacity="1" fill-opacity="1" points="2691,495 3007,495 3007,585 2691,585"/><polygon stroke-opacity="1" fill-opacity="1" points="3007,495 3323,495 3323,585 3007,585"/><polygon stroke-opacity="1" fill-opacity="1" points="3323,495 3639,495 3639,585 3323,585"/><polygon stroke-opacity="1" fill-opacity="1" points="3639,495 3955,495 3955,585 3639,585"/><polygon stroke-opacity="1" fill-opacity="1" points="3955,495 4271,495 4271,585 3955,585"/><polygon stroke-opacity="1" fill-opacity="1" points="4271,495 4596,495 4596,585 4271,585"/><polygon stroke-opacity="1" fill-opacity="1" points="2366,630 2691,630 2691,720 2366,720"/><polygon stroke-opacity="1" fill-opacity="1" points="2691,630 3007,630 3007,720 2691,720"/><polygon stroke-opacity="1" fill-opacity="1" points="3007,630 3323,630 3323,720 3007,720"/><polygon stroke-opacity="1" fill-opacity="1" points="3323,630 3639,630 3639,720 3323,720"/><polygon stroke-opacity="1" fill-opacity="1" points="3639,630 3955,630 3955,720 3639,720"/><polygon stroke-opacity="1" fill-opacity="1" points="3955,630 4271,630 4271,720 3955,720"/><polygon stroke-opacity="1" fill-opacity="1" points="4271,630 4596,630 4596,720 4271,720"/><g data-id="re55tg" data-class="note" class="note"><g data-class="notehead" class="notehead"><use href="#E0A4-hso9sh4" transform="translate(2158, 1080) scale(0.72, 0.72)"/></g><g data-id="k1snat7j" data-class="stem" class="stem"><path d="M2375 1052 L2375 378" stroke-width="18"/></g><g data-id="a1bmqy0l" data-class="accid" class="accid"/></g><g data-id="srevklh" data-class="note" class="note"><g data-class="notehead" class="notehead"><use href="#E0A4-hso9sh4" transform="translate(2474, 1260) scale(0.72, 0.72)"/></g><g data-id="l1k0c4ql" data-class="stem" class="stem"><path d="M2691 1232 L2691 378" stroke-width="18"/></g></g><g data-id="t1w6mdsp" data-class="note" class="note"><g data-class="notehead" class="notehead"><use href="#E0A4-hso9sh4" transform="translate(2790, 1080) scale(0.72, 0.72)"/></g><g data-id="mfw4bmg" data-class="stem" class="stem"><path d="M3007 1052 L3007 378" stroke-width="18"/></g><g data-id="b1wfxtab" data-class="accid" class="accid"/></g><g data-id="uxeqy3j" data-class="note" class="note"><g data-class="notehead" class="notehead"><use href="#E0A4-hso9sh4" transform="translate(3106, 1260) scale(0.72, 0.72)"/></g><g data-id="n2ojgix" data-class="stem" class="stem"><path d="M3323 1232 L3323 378" stroke-width="18"/></g></g><g data-id="vy0bc22" data-class="note" class="note"><g data-class="notehead" class="notehead"><use href="#E0A4-hso9sh4" transform="translate(3422, 1080) scale(0.72, 0.72)"/></g><g data-id="oiycaw8" data-class="stem" class="stem"><path d="M3639 1052 L3639 378" stroke-width="18"/></g><g data-id="c9na9fj" data-class="accid" class="accid"/></g><g data-id="w19h91ok" data-class="note" class="note"><g data-class="notehead" class="notehead"><use href="#E0A4-hso9sh4" transform="translate(3738, 1260) scale(0.72, 0.72)"/></g><g data-id="p1wxd20g" data-class="stem" class="stem"><path d="M3955 1232 L3955 378" stroke-width="18"/></g></g><g data-id="xa63ykc" data-class="note" class="note"><g data-class="notehead" class="notehead"><use href="#E0A4-hso9sh4" transform="translate(4054, 1080) scale(0.72, 0.72)"/></g><g data-id="qf570no" data-class="stem" class="stem"><path d="M4271 1052 L4271 378" stroke-width="18"/></g><g data-id="dt7wclx" data-class="accid" class="accid"/></g><g data-id="y1pui817" data-class="note" class="note"><g data-class="notehead" class="notehead"><use href="#E0A4-hso9sh4" transform="translate(4370, 1260) scale(0.72, 0.72)"/></g><g data-id="rtqevak" data-class="stem" class="stem"><path d="M4587 1232 L4587 378" stroke-width="18"/></g></g></g></g></g><g data-id="q1ipsp1j" data-class="barLine" class="barLine"/></g><g data-id="d150aq19" data-class="systemMilestoneEnd" class="systemMilestoneEnd i11c1t8l"/></g><g data-id="epclb85" data-class="pageMilestoneEnd" class="pageMilestoneEnd g17s0nth"/><g data-id="f1xl14x1" data-class="pageMilestoneEnd" class="pageMilestoneEnd f88by0f"/></g></svg></svg>