<svg viewBox="0 0 560 84" version="1.1" xmlns="http://www.w3.org/2000/svg" xmlns:xlink="http://www.w3.org/1999/xlink" overflow="visible" id="jywcccj"><desc>Engraved by Verovio 5.6.0-85e7620</desc><defs><g id="E050-jywcccj"><path transform="scale(1,-1)" d="M441 -245c-23 -4 -48 -6 -76 -6c-59 0 -102 7 -130 20c-88 42 -150 93 -187 154c-26 44 -43 103 -48 176c0 6 -1 13 -1 19c0 54 15 111 45 170c29 57 65 106 110 148s96 85 153 127c-3 16 -8 46 -13 92c-4 43 -5 73 -5 89c0 117 16 172 69 257c34 54 64 82 89 82 c21 0 43 -30 69 -92s39 -115 41 -159v-15c0 -109 -21 -162 -67 -241c-13 -20 -63 -90 -98 -118c-13 -9 -25 -19 -37 -29l31 -181c8 1 18 2 28 2c58 0 102 -12 133 -35c59 -43 92 -104 98 -184c1 -7 1 -15 1 -22c0 -123 -87 -209 -181 -248c8 -57 17 -110 25 -162 c5 -31 6 -58 6 -80c0 -30 -5 -53 -14 -70c-35 -64 -88 -99 -158 -103c-5 0 -11 -1 -16 -1c-37 0 -72 10 -108 27c-50 24 -77 59 -80 105v11c0 29 7 55 20 76c18 28 45 42 79 44h6c49 0 93 -42 97 -87v-9c0 -51 -34 -86 -105 -106c17 -24 51 -36 102 -36c62 0 116 43 140 85 c9 16 13 41 13 74c0 20 -1 42 -5 67c-8 53 -18 106 -26 159zM461 939c-95 0 -135 -175 -135 -286c0 -24 2 -48 5 -71c50 39 92 82 127 128c40 53 60 100 60 140v8c-4 53 -22 81 -55 81h-2zM406 119l54 -326c73 25 110 78 110 161c0 7 0 15 -1 23c-7 95 -57 142 -151 142h-12 zM382 117c-72 -2 -128 -47 -128 -120v-7c2 -46 43 -99 75 -115c-3 -2 -7 -5 -10 -10c-70 33 -116 88 -123 172v11c0 68 44 126 88 159c23 17 49 29 78 36l-29 170c-21 -13 -52 -37 -92 -73c-50 -44 -86 -84 -109 -119c-45 -69 -67 -130 -67 -182v-13c5 -68 35 -127 93 -176 s125 -73 203 -73c25 0 50 3 75 9c-19 111 -36 221 -54 331z"/></g><g id="E260-jywcccj"><path transform="scale(1,-1)" d="M20 110c32 16 54 27 93 27c26 0 35 -3 54 -13c13 -7 24 -20 27 -38l4 -25c0 -28 -16 -57 -45 -89c-23 -25 -39 -44 -65 -68l-88 -79v644h20v-359zM90 106c-32 0 -48 -10 -70 -29v-194c31 31 54 59 71 84c21 32 32 59 32 84c0 9 1 16 1 20c0 14 -3 21 -11 30l-8 3z"/></g><g id="E08A-jywcccj"><path transform="scale(1,-1)" d="M340 179c-9 24 -56 41 -89 41c-46 0 -81 -28 -100 -58c-17 -28 -25 -78 -25 -150c0 -65 2 -111 8 -135c8 -31 18 -49 40 -67c20 -17 43 -25 70 -25c54 0 92 36 115 75c14 25 23 54 28 88h27c0 -63 -24 -105 -58 -141c-35 -38 -82 -56 -140 -56c-45 0 -83 13 -115 39 c-57 45 -101 130 -101 226c0 59 33 127 68 163c36 37 97 72 160 72c36 0 93 -21 121 -40c11 -8 23 -17 33 -30c19 -23 27 -48 27 -76c0 -51 -35 -88 -86 -88c-43 0 -76 27 -76 68c0 26 7 35 21 51c15 17 32 27 58 32c7 2 14 7 14 11z"/></g><g id="E0A4-jywcccj"><path transform="scale(1,-1)" d="M0 -39c0 68 73 172 200 172c66 0 114 -37 114 -95c0 -84 -106 -171 -218 -171c-64 0 -96 30 -96 94z"/></g><g id="E240-jywcccj"><path transform="scale(1,-1)" d="M179 -646c15 29 29 55 46 102c18 49 30 108 30 138c0 105 -80 173 -168 200c-18 5 -47 9 -87 16v190h22c8 0 33 -61 71 -95c4 -3 -2 3 61 -56c62 -58 122 -137 122 -241c0 -38 -13 -106 -35 -163c-20 -51 -43 -99 -66 -132c-6 -5 -10 -7 -13 -7s-5 2 -5 5l4 10 c1 3 14 25 18 33z"/></g><g id="E241-jywcccj"><path transform="scale(1,-1)" d="M179 646c-4 8 -17 30 -18 33l-4 10c0 3 2 5 5 5s7 -2 13 -7c23 -33 46 -81 66 -132c22 -57 35 -125 35 -163c0 -104 -60 -183 -122 -241c-63 -59 -57 -53 -61 -56c-38 -34 -63 -95 -71 -95h-22v190c40 7 69 11 87 16c88 27 168 95 168 200c0 30 -12 89 -30 138 c-17 47 -31 73 -46 102z"/></g><g id="E4E4-jywcccj"><path transform="scale(1,-1)" d="M0 10v105c0 9 1 10 10 10h280c9 0 10 -1 10 -10v-105c0 -9 -1 -10 -10 -10h-280c-9 0 -10 1 -10 10z"/></g><g id="E0A3-jywcccj"><path transform="scale(1,-1)" d="M278 64c0 22 -17 39 -43 39c-12 0 -26 -3 -41 -10c-85 -43 -165 -94 -165 -156c5 -25 15 -32 49 -32c67 11 200 95 200 159zM0 -36c0 68 73 174 200 174c66 0 114 -39 114 -97c0 -84 -106 -173 -218 -173c-64 0 -96 32 -96 96z"/></g></defs><style type="text/css">#jywcccj g.page-margin {font-family:Times,serif;}#jywcccj g.ending, #jywcccj g.fing, #jywcccj g.reh, #jywcccj g.tempo {font-weight:bold;}#jywcccj g.dir, #jywcccj g.dynam, #jywcccj g.mNum {font-style:italic;}#jywcccj g.label {font-weight:normal;}#jywcccj path {stroke:currentColor}</style><svg class="definition-scale" color="black" viewBox="0 0 14000 2100"><g class="page-margin" transform="translate(0, 150)"><g data-id="g1xqihxm" data-class="mdiv" class="mdiv pageMilestone"/><g data-id="hyg6h5r" data-class="score" class="score pageMilestone"/><g data-id="pebfgie" data-class="system" class="system"><g data-id="j13a24ms" data-class="section" class="section systemMilestone"/><g data-id="k1b260xl" data-class="measure" class="measure"><g data-id="v1obqiy9" data-class="staff" class="staff"><path d="M0 540 L3741 540" stroke-width="13"/><path d="M0 720 L3741 720" stroke-width="13"/><path d="M0 900 L3741 900" stroke-width="13"/><path d="M0 1080 L3741 1080" stroke-width="13"/><path d="M0 1260 L3741 1260" stroke-width="13"/><g data-id="tdt02dq" data-class="clef" class="clef"><use href="#E050-jywcccj" transform="translate(90, 1080) scale(0.72, 0.72)"/></g><g data-id="u1p7upt6" data-class="keySig" class="keySig"><g data-id="v1fzbr0o" data-class="keyAccid" class="keyAccid"><use href="#E260-jywcccj" transform="translate(735, 900) scale(0.72, 0.72)"/></g><g data-id="w1yc236v" data-class="keyAccid" class="keyAccid"><use href="#E260-jywcccj" transform="translate(915, 630) scale(0.72, 0.72)"/></g><g data-id="x7odvr0" data-class="keyAccid" class="keyAccid"><use href="#E260-jywcccj" transform="translate(1095, 990) scale(0.72, 0.72)"/></g></g><g data-id="y1dcfn23" data-class="meterSig" class="meterSig"><use href="#E08A-jywcccj" transform="translate(1417, 900) scale(0.72, 0.72)"/></g><g data-id="wp9yn7o" data-class="layer" class="layer"><g data-id="g66au0x" data-class="note" class="note"><g data-class="notehead" class="notehead"><use href="#E0A4-jywcccj" transform="translate(2000, 1260) scale(0.72, 0.72)"/></g><g data-id="s8f2hnj" data-class="stem" class="stem"><path d="M2217 1232 L2217 630" stroke-width="18"/><g data-id="t13duz9h" data-class="flag" class="flag"><use href="#E240-jywcccj" transform="translate(2208, 630) scale(0.72, 0.72)"/></g></g><g data-id="w7cuyrl" data-class="accid" class="accid"/></g><g data-id="h1ajwcqg" data-class="note" class="note"><g data-class="notehead" class="notehead"><use href="#E0A4-jywcccj" transform="translate(2576, 1080) scale(0.72, 0.72)"/></g><g data-id="uvthiol" data-class="stem" class="stem"><path d="M2793 1052 L2793 450" stroke-width="18"/><g data-id="v1aqj043" data-class="flag" class="flag"><use href="#E240-jywcccj" transform="translate(2784, 450) scale(0.72, 0.72)"/></g></g></g><g data-id="i1qug71s" data-class="note" class="note"><g data-class="notehead" class="notehead"><use href="#E0A4-jywcccj" transform="translate(3152, 990) scale(0.72, 0.72)"/></g><g data-id="w1faw25c" data-class="stem" class="stem"><path d="M3369 962 L3369 360" stroke-width="18"/><g data-id="x1glgsdc" data-class="flag" class="flag"><use href="#E240-jywcccj" transform="translate(3360, 360) scale(0.72, 0.72)"/></g></g><g data-id="xmjdmmz" data-class="accid" class="accid"/></g></g></g><g data-id="sf3lls4" data-class="barLine" class="barLine"><path d="M3728 540 L3728 1260" stroke-width="27"/></g></g><g data-id="t1tp0cdg" data-class="measure" class="measure"><g data-id="x368ox6" data-class="staff" class="staff"><path d="M3741 540 L7357 540" stroke-width="13"/><path d="M3741 720 L7357 720" stroke-width="13"/><path d="M3741 900 L7357 900" stroke-width="13"/><path d="M3741 1080 L7357 1080" stroke-width="13"/><path d="M3741 1260 L7357 1260" stroke-width="13"/><g data-id="y184x31s" data-class="layer" class="layer"><g data-id="j1e1h0rg" data-class="note" class="note"><g data-class="notehead" class="notehead"><use href="#E0A4-jywcccj" transform="translate(3936, 900) scale(0.72, 0.72)"/></g><g data-id="z1hhu4if" data-class="dots" class="dots"><ellipse cx="4252" cy="810" rx="36" ry="36" fill-opacity="1" stroke-opacity="1"/></g><g data-id="y44e9ag" data-class="stem" class="stem"><path d="M3945 928 L3945 1500" stroke-width="18"/></g><g data-id="y16b42tx" data-class="accid" class="accid"/></g><g data-id="k6xxbpk" data-class="note" class="note"><g data-class="notehead" class="notehead"><use href="#E0A4-jywcccj" transform="translate(5064, 900) scale(0.72, 0.72)"/></g><g data-id="a1hu7l5y" data-class="stem" class="stem"><path d="M5073 928 L5073 1500" stroke-width="18"/><g data-id="bapqlds" data-class="flag" class="flag"><use href="#E241-jywcccj" transform="translate(5064, 1500) scale(0.72, 0.72)"/></g></g><g data-id="zifaolr" data-class="accid" class="accid"/></g><g data-id="l2knwz5" data-class="note" class="note"><g data-class="notehead" class="notehead"><use href="#E0A4-jywcccj" transform="translate(5640, 630) scale(0.72, 0.72)"/></g><g data-id="d1xzvm1w" data-class="dots" class="dots"><ellipse cx="5956" cy="630" rx="36" ry="36" fill-opacity="1" stroke-opacity="1"/></g><g data-id="c1xx39sv" data-class="stem" class="stem"><path d="M5649 658 L5649 1260" stroke-width="18"/></g><g data-id="aqclpnc" data-class="accid" class="accid"/></g><g data-id="mii4v97" data-class="note" class="note"><g data-class="notehead" class="notehead"><use href="#E0A4-jywcccj" transform="translate(6768, 540) scale(0.72, 0.72)"/></g><g data-id="evornxu" data-class="stem" class="stem"><path d="M6777 568 L6777 1170" stroke-width="18"/><g data-id="f1q05se5" data-class="flag" class="flag"><use href="#E241-jywcccj" transform="translate(6768, 1170) scale(0.72, 0.72)"/></g></g></g></g></g><g data-id="bedhcb9" data-class="barLine" class="barLine"><path d="M7344 540 L7344 1260" stroke-width="27"/></g></g><g data-id="ci83c02" data-class="measure" class="measure"><g data-id="zo043ss" data-class="staff" class="staff"><path d="M7357 540 L10680 540" stroke-width="13"/><path d="M7357 720 L10680 720" stroke-width="13"/><path d="M7357 900 L10680 900" stroke-width="13"/><path d="M7357 1080 L10680 1080" stroke-width="13"/><path d="M7357 1260 L10680 1260" stroke-width="13"/><g data-id="alhq4ax" data-class="layer" class="layer"><g data-id="n5bpl9f" data-class="note" class="note"><g data-class="notehead" class="notehead"><use href="#E0A4-jywcccj" transform="translate(7552, 630) scale(0.72, 0.72)"/></g><g data-id="gx1j5sr" data-class="stem" class="stem"><path d="M7561 658 L7561 1260" stroke-width="18"/></g><g data-id="b1kjew5f" data-class="accid" class="accid"/></g><g data-id="oo7rpdv" data-class="note" class="note"><g data-class="notehead" class="notehead"><use href="#E0A4-jywcccj" transform="translate(8437, 720) scale(0.72, 0.72)"/></g><g data-id="h1a8wemw" data-class="stem" class="stem"><path d="M8446 748 L8446 1350" stroke-width="18"/></g></g><g data-id="d1ow634e" data-class="rest" class="rest"><use href="#E4E4-jywcccj" transform="translate(9321, 900) scale(0.72, 0.72)"/><g data-class="ledgerLines" class="ledgerLines"/></g></g></g><g data-id="k1ytlnlm" data-class="barLine" class="barLine"><path d="M10667 540 L10667 1260" stroke-width="27"/></g></g><g data-id="ljdm0y2" data-class="measure" class="measure"><g data-id="bpt1ylf" data-class="staff" class="staff"><path d="M10680 540 L14003 540" stroke-width="13"/><path d="M10680 720 L14003 720" stroke-width="13"/><path d="M10680 900 L14003 900" stroke-width="13"/><path d="M10680 1080 L14003 1080" stroke-width="13"/><path d="M10680 1260 L14003 1260" stroke-width="13"/><g data-id="cj1ozwk" data-class="layer" class="layer"><g data-id="pv6nq0i" data-class="note" class="note"><g data-class="notehead" class="notehead"><use href="#E0A3-jywcccj" transform="translate(10875, 1170) scale(0.72, 0.72)"/></g><g data-id="is5lle3" data-class="stem" class="stem"><path d="M11092 1142 L11092 540" stroke-width="18"/></g></g><g data-id="q3tsk3m" data-class="note" class="note"><g data-class="notehead" class="notehead"><use href="#E0A4-jywcccj" transform="translate(12221, 1080) scale(0.72, 0.72)"/></g><g data-id="jiu7uoh" data-class="stem" class="stem"><path d="M12438 1052 L12438 450" stroke-width="18"/></g></g><g data-id="r11ozhyq" data-class="note" class="note"><g data-class="notehead" class="notehead"><use href="#E0A4-jywcccj" transform="translate(13105, 990) scale(0.72, 0.72)"/></g><g data-id="k16hxmd8" data-class="stem" class="stem"><path d="M13322 962 L13322 360" stroke-width="18"/></g><g data-id="ciozp9l" data-class="accid" class="accid"/></g></g></g><g data-id="t1yogs0s" data-class="barLine" class="barLine"><path d="M13990 540 L13990 1260" stroke-width="27"/></g></g></g></g></svg></svg>