<svg viewBox="0 0 560 84" version="1.1" xmlns="http://www.w3.org/2000/svg" xmlns:xlink="http://www.w3.org/1999/xlink" overflow="visible" id="t6kph5e"><desc>Engraved by Verovio 5.6.0-85e7620</desc><defs><g id="E050-t6kph5e"><path transform="scale(1,-1)" d="M441 -245c-23 -4 -48 -6 -76 -6c-59 0 -102 7 -130 20c-88 42 -150 93 -187 154c-26 44 -43 103 -48 176c0 6 -1 13 -1 19c0 54 15 111 45 170c29 57 65 106 110 148s96 85 153 127c-3 16 -8 46 -13 92c-4 43 -5 73 -5 89c0 117 16 172 69 257c34 54 64 82 89 82 c21 0 43 -30 69 -92s39 -115 41 -159v-15c0 -109 -21 -162 -67 -241c-13 -20 -63 -90 -98 -118c-13 -9 -25 -19 -37 -29l31 -181c8 1 18 2 28 2c58 0 102 -12 133 -35c59 -43 92 -104 98 -184c1 -7 1 -15 1 -22c0 -123 -87 -209 -181 -248c8 -57 17 -110 25 -162 c5 -31 6 -58 6 -80c0 -30 -5 -53 -14 -70c-35 -64 -88 -99 -158 -103c-5 0 -11 -1 -16 -1c-37 0 -72 10 -108 27c-50 24 -77 59 -80 105v11c0 29 7 55 20 76c18 28 45 42 79 44h6c49 0 93 -42 97 -87v-9c0 -51 -34 -86 -105 -106c17 -24 51 -36 102 -36c62 0 116 43 140 85 c9 16 13 41 13 74c0 20 -1 42 -5 67c-8 53 -18 106 -26 159zM461 939c-95 0 -135 -175 -135 -286c0 -24 2 -48 5 -71c50 39 92 82 127 128c40 53 60 100 60 140v8c-4 53 -22 81 -55 81h-2zM406 119l54 -326c73 25 110 78 110 161c0 7 0 15 -1 23c-7 95 -57 142 -151 142h-12 zM382 117c-72 -2 -128 -47 -128 -120v-7c2 -46 43 -99 75 -115c-3 -2 -7 -5 -10 -10c-70 33 -116 88 -123 172v11c0 68 44 126 88 159c23 17 49 29 78 36l-29 170c-21 -13 -52 -37 -92 -73c-50 -44 -86 -84 -109 -119c-45 -69 -67 -130 -67 -182v-13c5 -68 35 -127 93 -176 s125 -73 203 -73c25 0 50 3 75 9c-19 111 -36 221 -54 331z"/></g><g id="E260-t6kph5e"><path transform="scale(1,-1)" d="M20 110c32 16 54 27 93 27c26 0 35 -3 54 -13c13 -7 24 -20 27 -38l4 -25c0 -28 -16 -57 -45 -89c-23 -25 -39 -44 -65 -68l-88 -79v644h20v-359zM90 106c-32 0 -48 -10 -70 -29v-194c31 31 54 59 71 84c21 32 32 59 32 84c0 9 1 16 1 20c0 14 -3 21 -11 30l-8 3z"/></g><g id="E083-t6kph5e"><path transform="scale(1,-1)" d="M208 250c97 0 177 -52 177 -116c0 -69 -40 -111 -118 -125c56 -5 125 -44 125 -116c0 -31 -10 -57 -31 -78c-19 -21 -45 -38 -78 -49l-50 -11c-15 -3 -36 -7 -55 -7c-50 0 -86 16 -113 38c-16 10 -23 18 -34 34c-7 13 -11 25 -11 38c0 43 27 83 68 83l3 -2 c61 0 75 -42 75 -70c0 -19 -24 -42 -26 -57c7 -17 20 -25 37 -25c44 0 94 29 94 78c0 75 -34 125 -138 125v36c84 0 131 22 131 98c0 54 -37 88 -87 88c-26 0 -43 -7 -51 -22c15 -22 44 -16 44 -70c0 -37 -37 -62 -71 -62c-22 0 -69 15 -69 76c0 79 101 116 178 116z"/></g><g id="E084-t6kph5e"><path transform="scale(1,-1)" d="M20 -78c84 97 114 180 134 329h170c-13 -32 -82 -132 -99 -151l-84 -97c-33 -36 -59 -63 -80 -81h162v102l127 123v-225h57v-39h-57v-34c0 -43 19 -65 57 -65v-34h-244v36c48 0 60 26 60 70v27h-203v39z"/></g><g id="E0A4-t6kph5e"><path transform="scale(1,-1)" d="M0 -39c0 68 73 172 200 172c66 0 114 -37 114 -95c0 -84 -106 -171 -218 -171c-64 0 -96 30 -96 94z"/></g><g id="E241-t6kph5e"><path transform="scale(1,-1)" d="M179 646c-4 8 -17 30 -18 33l-4 10c0 3 2 5 5 5s7 -2 13 -7c23 -33 46 -81 66 -132c22 -57 35 -125 35 -163c0 -104 -60 -183 -122 -241c-63 -59 -57 -53 -61 -56c-38 -34 -63 -95 -71 -95h-22v190c40 7 69 11 87 16c88 27 168 95 168 200c0 30 -12 89 -30 138 c-17 47 -31 73 -46 102z"/></g><g id="E243-t6kph5e"><path transform="scale(1,-1)" d="M216 730c-5 8 -10 13 -11 16l-4 10c0 3 2 5 5 5s7 -2 13 -7c35 -42 57 -101 57 -172c0 -34 -6 -65 -17 -94c10 -31 17 -64 17 -96c0 -104 -60 -183 -122 -241c-63 -59 -57 -53 -61 -56c-38 -34 -63 -95 -71 -95h-22v190v190c40 7 69 11 87 16c116 36 175 111 175 197 c0 44 -15 91 -46 137zM248 463c-23 -48 -58 -89 -94 -122c-63 -59 -57 -53 -61 -56c-30 -27 -44 -71 -53 -88c20 3 36 6 47 9c88 27 168 95 168 200c0 19 -3 39 -7 57z"/></g><g id="E0A3-t6kph5e"><path transform="scale(1,-1)" d="M278 64c0 22 -17 39 -43 39c-12 0 -26 -3 -41 -10c-85 -43 -165 -94 -165 -156c5 -25 15 -32 49 -32c67 11 200 95 200 159zM0 -36c0 68 73 174 200 174c66 0 114 -39 114 -97c0 -84 -106 -173 -218 -173c-64 0 -96 32 -96 96z"/></g><g id="E240-t6kph5e"><path transform="scale(1,-1)" d="M179 -646c15 29 29 55 46 102c18 49 30 108 30 138c0 105 -80 173 -168 200c-18 5 -47 9 -87 16v190h22c8 0 33 -61 71 -95c4 -3 -2 3 61 -56c62 -58 122 -137 122 -241c0 -38 -13 -106 -35 -163c-20 -51 -43 -99 -66 -132c-6 -5 -10 -7 -13 -7s-5 2 -5 5l4 10 c1 3 14 25 18 33z"/></g><g id="E4E5-t6kph5e"><path transform="scale(1,-1)" d="M107 292c-13 24 -30 49 -52 71c-1 1 0 2 0 3l-2 2c3 3 4 4 6 4c12 0 26 -7 40 -20s44 -40 89 -81c26 -24 28 -29 46 -47c4 -4 8 -9 10 -14c6 -8 8 -16 8 -27c0 -19 -12 -40 -36 -61c-28 -23 -49 -38 -61 -73c-4 -11 -7 -27 -10 -50c13 -43 34 -83 59 -121 c31 -47 59 -79 101 -129c-8 0 -26 7 -54 20l-62 29l-21 6l-23 1c-25 0 -45 -10 -60 -30l-4 -14l-1 -12c0 -33 20 -56 39 -78c8 -9 17 -18 26 -26c17 -15 27 -24 28 -30l-3 -3c-11 5 -19 10 -25 15c-9 3 -37 21 -45 26c-24 14 -45 32 -63 51c-19 21 -37 44 -37 71 c0 63 27 95 80 95c41 0 86 -18 136 -52c-19 26 -37 48 -55 66c-23 23 -48 44 -73 65c-28 23 -47 40 -58 53s-17 26 -18 39c75 64 113 125 113 183c0 27 -7 48 -18 68z"/></g></defs><style type="text/css">#t6kph5e g.page-margin {font-family:Times,serif;}#t6kph5e g.ending, #t6kph5e g.fing, #t6kph5e g.reh, #t6kph5e g.tempo {font-weight:bold;}#t6kph5e g.dir, #t6kph5e g.dynam, #t6kph5e g.mNum {font-style:italic;}#t6kph5e g.label {font-weight:normal;}#t6kph5e path {stroke:currentColor}</style><svg class="definition-scale" color="black" viewBox="0 0 14000 2100"><g class="page-margin" transform="translate(0, 150)"><g data-id="e19qfu3d" data-class="mdiv" class="mdiv pageMilestone"/><g data-id="f1tko8z2" data-class="score" class="score pageMilestone"/><g data-id="c1xonam1" data-class="system" class="system"><g data-id="h1hdatpo" data-class="section" class="section systemMilestone"/><g data-id="u1b294vr" data-class="measure" class="measure"><g data-id="tpz7zh" data-class="staff" class="staff"><path d="M0 540 L4403 540" stroke-width="13"/><path d="M0 720 L4403 720" stroke-width="13"/><path d="M0 900 L4403 900" stroke-width="13"/><path d="M0 1080 L4403 1080" stroke-width="13"/><path d="M0 1260 L4403 1260" stroke-width="13"/><g data-id="km7m58c" data-class="clef" class="clef"><use href="#E050-t6kph5e" transform="translate(90, 1080) scale(0.72, 0.72)"/></g><g data-id="l1mltu7r" data-class="keySig" class="keySig"><g data-id="m100ibyn" data-class="keyAccid" class="keyAccid"><use href="#E260-t6kph5e" transform="translate(735, 900) scale(0.72, 0.72)"/></g><g data-id="nyozwvu" data-class="keyAccid" class="keyAccid"><use href="#E260-t6kph5e" transform="translate(915, 630) scale(0.72, 0.72)"/></g><g data-id="o1ig3tgp" data-class="keyAccid" class="keyAccid"><use href="#E260-t6kph5e" transform="translate(1095, 990) scale(0.72, 0.72)"/></g><g data-id="p116pflb" data-class="keyAccid" class="keyAccid"><use href="#E260-t6kph5e" transform="translate(1275, 720) scale(0.72, 0.72)"/></g></g><g data-id="q1y7v5vj" data-class="meterSig" class="meterSig"><use href="#E083-t6kph5e" transform="translate(1589, 720) scale(0.72, 0.72)"/><use href="#E084-t6kph5e" transform="translate(1583, 1080) scale(0.72, 0.72)"/></g><g data-id="uy95f5z" data-class="layer" class="layer"><g data-id="xt80i5" data-class="note" class="note"><g data-class="notehead" class="notehead"><use href="#E0A4-t6kph5e" transform="translate(2154, 810) scale(0.72, 0.72)"/></g><g data-id="u1vdsk4f" data-class="dots" class="dots"><ellipse cx="2470" cy="810" rx="36" ry="36" fill-opacity="1" stroke-opacity="1"/></g><g data-id="t17pij9x" data-class="stem" class="stem"><path d="M2163 838 L2163 1440" stroke-width="18"/></g></g><g data-id="y1sj92z3" data-class="note" class="note"><g data-class="notehead" class="notehead"><use href="#E0A4-t6kph5e" transform="translate(3036, 810) scale(0.72, 0.72)"/></g><g data-id="v1z0qptd" data-class="stem" class="stem"><path d="M3045 838 L3045 1440" stroke-width="18"/><g data-id="w5bb08l" data-class="flag" class="flag"><use href="#E241-t6kph5e" transform="translate(3036, 1440) scale(0.72, 0.72)"/></g></g></g><g data-id="zxxuhnp" data-class="note" class="note"><g data-class="notehead" class="notehead"><use href="#E0A4-t6kph5e" transform="translate(3488, 810) scale(0.72, 0.72)"/></g><g data-id="x1lt7k1n" data-class="stem" class="stem"><path d="M3497 838 L3497 1440" stroke-width="18"/><g data-id="y1udxvlh" data-class="flag" class="flag"><use href="#E241-t6kph5e" transform="translate(3488, 1440) scale(0.72, 0.72)"/></g></g></g><g data-id="a14nlk6u" data-class="note" class="note"><g data-class="notehead" class="notehead"><use href="#E0A4-t6kph5e" transform="translate(3939, 810) scale(0.72, 0.72)"/></g><g data-id="z1maha99" data-class="stem" class="stem"><path d="M3948 838 L3948 1440" stroke-width="18"/><g data-id="a19vl6pr" data-class="flag" class="flag"><use href="#E241-t6kph5e" transform="translate(3939, 1440) scale(0.72, 0.72)"/></g></g></g></g></g><g data-id="cjixdig" data-class="barLine" class="barLine"><path d="M4390 540 L4390 1260" stroke-width="27"/></g></g><g data-id="d1dncumd" data-class="measure" class="measure"><g data-id="v1n3z514" data-class="staff" class="staff"><path d="M4403 540 L6571 540" stroke-width="13"/><path d="M4403 720 L6571 720" stroke-width="13"/><path d="M4403 900 L6571 900" stroke-width="13"/><path d="M4403 1080 L6571 1080" stroke-width="13"/><path d="M4403 1260 L6571 1260" stroke-width="13"/><g data-id="wyvgjdy" data-class="layer" class="layer"><g data-id="b3zify" data-class="note" class="note"><g data-class="notehead" class="notehead"><use href="#E0A4-t6kph5e" transform="translate(4592, 630) scale(0.72, 0.72)"/></g><g data-id="c1okd1lm" data-class="dots" class="dots"><ellipse cx="4908" cy="630" rx="36" ry="36" fill-opacity="1" stroke-opacity="1"/></g><g data-id="b1ff76oh" data-class="stem" class="stem"><path d="M4601 658 L4601 1260" stroke-width="18"/><g data-id="d1w57p5v" data-class="flag" class="flag"><use href="#E241-t6kph5e" transform="translate(4592, 1260) scale(0.72, 0.72)"/></g></g><g data-id="t11oeahd" data-class="accid" class="accid"/></g><g data-id="ck1ya95" data-class="note" class="note"><g data-class="notehead" class="notehead"><use href="#E0A4-t6kph5e" transform="translate(5174, 720) scale(0.72, 0.72)"/></g><g data-id="exvue7j" data-class="stem" class="stem"><path d="M5183 748 L5183 1350" stroke-width="18"/><g data-id="f1uinhf8" data-class="flag" class="flag"><use href="#E243-t6kph5e" transform="translate(5174, 1350) scale(0.72, 0.72)"/></g></g><g data-id="u1yluonb" data-class="accid" class="accid"/></g><g data-id="d3jv8z4" data-class="note" class="note"><g data-class="notehead" class="notehead"><use href="#E0A3-t6kph5e" transform="translate(5505, 810) scale(0.72, 0.72)"/></g><g data-id="g1atmagn" data-class="stem" class="stem"><path d="M5514 835 L5514 1440" stroke-width="18"/></g></g></g></g><g data-id="l1jqrcin" data-class="barLine" class="barLine"><path d="M6558 540 L6558 1260" stroke-width="27"/></g></g><g data-id="mcv1tus" data-class="measure" class="measure"><g data-id="xen52mw" data-class="staff" class="staff"><path d="M6571 540 L9077 540" stroke-width="13"/><path d="M6571 720 L9077 720" stroke-width="13"/><path d="M6571 900 L9077 900" stroke-width="13"/><path d="M6571 1080 L9077 1080" stroke-width="13"/><path d="M6571 1260 L9077 1260" stroke-width="13"/><g data-id="y1vt1ex1" data-class="layer" class="layer"><g data-id="ev60v35" data-class="note" class="note"><g data-class="notehead" class="notehead"><use href="#E0A4-t6kph5e" transform="translate(6760, 990) scale(0.72, 0.72)"/></g><g data-id="iqrb25c" data-class="dots" class="dots"><ellipse cx="7076" cy="990" rx="36" ry="36" fill-opacity="1" stroke-opacity="1"/></g><g data-id="hjfakxh" data-class="stem" class="stem"><path d="M6977 962 L6977 360" stroke-width="18"/></g><g data-id="v1shn2j" data-class="accid" class="accid"/></g><g data-id="f1bn0xjb" data-class="note" class="note"><g data-class="notehead" class="notehead"><use href="#E0A4-t6kph5e" transform="translate(7642, 990) scale(0.72, 0.72)"/></g><g data-id="jd4fg6b" data-class="stem" class="stem"><path d="M7859 962 L7859 360" stroke-width="18"/><g data-id="k125svx" data-class="flag" class="flag"><use href="#E240-t6kph5e" transform="translate(7850, 360) scale(0.72, 0.72)"/></g></g><g data-id="wmenybt" data-class="accid" class="accid"/></g><g data-id="gg2btef" data-class="note" class="note"><g data-class="notehead" class="notehead"><use href="#E0A4-t6kph5e" transform="translate(8162, 900) scale(0.72, 0.72)"/></g><g data-id="l147too3" data-class="stem" class="stem"><path d="M8171 928 L8171 1500" stroke-width="18"/><g data-id="m6jdzrt" data-class="flag" class="flag"><use href="#E241-t6kph5e" transform="translate(8162, 1500) scale(0.72, 0.72)"/></g></g><g data-id="x1cbntux" data-class="accid" class="accid"/></g><g data-id="hnsm2" data-class="note" class="note"><g data-class="notehead" class="notehead"><use href="#E0A4-t6kph5e" transform="translate(8613, 900) scale(0.72, 0.72)"/></g><g data-id="n1havcz9" data-class="stem" class="stem"><path d="M8622 928 L8622 1500" stroke-width="18"/><g data-id="o1ddtmkb" data-class="flag" class="flag"><use href="#E241-t6kph5e" transform="translate(8613, 1500) scale(0.72, 0.72)"/></g></g><g data-id="yxvbrit" data-class="accid" class="accid"/></g></g></g><g data-id="uk1fuy5" data-class="barLine" class="barLine"><path d="M9064 540 L9064 1260" stroke-width="27"/></g></g><g data-id="v1gf8lhv" data-class="measure" class="measure"><g data-id="zb7a8bs" data-class="staff" class="staff"><path d="M9077 540 L11565 540" stroke-width="13"/><path d="M9077 720 L11565 720" stroke-width="13"/><path d="M9077 900 L11565 900" stroke-width="13"/><path d="M9077 1080 L11565 1080" stroke-width="13"/><path d="M9077 1260 L11565 1260" stroke-width="13"/><g data-id="a17rdf1w" data-class="layer" class="layer"><g data-id="sh0udwf" data-class="beam" class="beam"><polygon stroke-opacity="1" fill-opacity="1" points="9266,1485 9735,1440 9735,1350 9266,1395"/><g data-id="i1evufo9" data-class="note" class="note"><g data-class="notehead" class="notehead"><use href="#E0A4-t6kph5e" transform="translate(9266, 810) scale(0.72, 0.72)"/></g><g data-id="p82q615" data-class="stem" class="stem"><path d="M9275 838 L9275 1467" stroke-width="18"/></g></g><g data-id="j1lb1kvq" data-class="note" class="note"><g data-class="notehead" class="notehead"><use href="#E0A4-t6kph5e" transform="translate(9717, 630) scale(0.72, 0.72)"/></g><g data-id="q1j8cxhm" data-class="stem" class="stem"><path d="M9726 658 L9726 1422" stroke-width="18"/></g><g data-id="zw74q6a" data-class="accid" class="accid"/></g></g><g data-id="k1sgndyr" data-class="note" class="note"><g data-class="notehead" class="notehead"><use href="#E0A4-t6kph5e" transform="translate(10168, 900) scale(0.72, 0.72)"/></g><g data-id="rka4zzf" data-class="stem" class="stem"><path d="M10177 928 L10177 1500" stroke-width="18"/></g><g data-id="a1287eq" data-class="accid" class="accid"/></g><g data-id="w19ql8y4" data-class="rest" class="rest"><use href="#E4E5-t6kph5e" transform="translate(10860, 900) scale(0.72, 0.72)"/></g></g></g><g data-id="d1fro71s" data-class="barLine" class="barLine"><path d="M11552 540 L11552 1260" stroke-width="27"/></g></g><g data-id="eevgmx" data-class="measure" class="measure"><g data-id="b301uxe" data-class="staff" class="staff"><path d="M11565 540 L14003 540" stroke-width="13"/><path d="M11565 720 L14003 720" stroke-width="13"/><path d="M11565 900 L14003 900" stroke-width="13"/><path d="M11565 1080 L14003 1080" stroke-width="13"/><path d="M11565 1260 L14003 1260" stroke-width="13"/><g data-id="cwo6bzg" data-class="layer" class="layer"><g data-id="lpdykvr" data-class="note" class="note"><g data-class="notehead" class="notehead"><use href="#E0A4-t6kph5e" transform="translate(11754, 810) scale(0.72, 0.72)"/></g><g data-id="t1jdbyo2" data-class="dots" class="dots"><ellipse cx="12070" cy="810" rx="36" ry="36" fill-opacity="1" stroke-opacity="1"/></g><g data-id="s1pdwx15" data-class="stem" class="stem"><path d="M11763 838 L11763 1440" stroke-width="18"/></g></g><g data-id="m11alqo7" data-class="note" class="note"><g data-class="notehead" class="notehead"><use href="#E0A4-t6kph5e" transform="translate(12636, 810) scale(0.72, 0.72)"/></g><g data-id="uwn5ryw" data-class="stem" class="stem"><path d="M12645 838 L12645 1440" stroke-width="18"/><g data-id="v1bu6hq0" data-class="flag" class="flag"><use href="#E241-t6kph5e" transform="translate(12636, 1440) scale(0.72, 0.72)"/></g></g></g><g data-id="n1soczm1" data-class="note" class="note"><g data-class="notehead" class="notehead"><use href="#E0A4-t6kph5e" transform="translate(13088, 810) scale(0.72, 0.72)"/></g><g data-id="wwxskhz" data-class="stem" class="stem"><path d="M13097 838 L13097 1440" stroke-width="18"/><g data-id="xk5g6c1" data-class="flag" class="flag"><use href="#E241-t6kph5e" transform="translate(13088, 1440) scale(0.72, 0.72)"/></g></g></g><g data-id="owp8zqs" data-class="note" class="note"><g data-class="notehead" class="notehead"><use href="#E0A4-t6kph5e" transform="translate(13539, 810) scale(0.72, 0.72)"/></g><g data-id="yiylux4" data-class="stem" class="stem"><path d="M13548 838 L13548 1440" stroke-width="18"/><g data-id="zwx8lr2" data-class="flag" class="flag"><use href="#E241-t6kph5e" transform="translate(13539, 1440) scale(0.72, 0.72)"/></g></g></g></g></g><g data-id="mixuvm2" data-class="barLine" class="barLine"><path d="M13990 540 L13990 1260" stroke-width="27"/></g></g></g></g></svg></svg>