<svg viewBox="0 0 560 84" version="1.1" xmlns="http://www.w3.org/2000/svg" xmlns:xlink="http://www.w3.org/1999/xlink" overflow="visible" id="j3rsuf9"><desc>Engraved by Verovio 5.6.0-85e7620</desc><defs><g id="E050-j3rsuf9"><path transform="scale(1,-1)" d="M441 -245c-23 -4 -48 -6 -76 -6c-59 0 -102 7 -130 20c-88 42 -150 93 -187 154c-26 44 -43 103 -48 176c0 6 -1 13 -1 19c0 54 15 111 45 170c29 57 65 106 110 148s96 85 153 127c-3 16 -8 46 -13 92c-4 43 -5 73 -5 89c0 117 16 172 69 257c34 54 64 82 89 82 c21 0 43 -30 69 -92s39 -115 41 -159v-15c0 -109 -21 -162 -67 -241c-13 -20 -63 -90 -98 -118c-13 -9 -25 -19 -37 -29l31 -181c8 1 18 2 28 2c58 0 102 -12 133 -35c59 -43 92 -104 98 -184c1 -7 1 -15 1 -22c0 -123 -87 -209 -181 -248c8 -57 17 -110 25 -162 c5 -31 6 -58 6 -80c0 -30 -5 -53 -14 -70c-35 -64 -88 -99 -158 -103c-5 0 -11 -1 -16 -1c-37 0 -72 10 -108 27c-50 24 -77 59 -80 105v11c0 29 7 55 20 76c18 28 45 42 79 44h6c49 0 93 -42 97 -87v-9c0 -51 -34 -86 -105 -106c17 -24 51 -36 102 -36c62 0 116 43 140 85 c9 16 13 41 13 74c0 20 -1 42 -5 67c-8 53 -18 106 -26 159zM461 939c-95 0 -135 -175 -135 -286c0 -24 2 -48 5 -71c50 39 92 82 127 128c40 53 60 100 60 140v8c-4 53 -22 81 -55 81h-2zM406 119l54 -326c73 25 110 78 110 161c0 7 0 15 -1 23c-7 95 -57 142 -151 142h-12 zM382 117c-72 -2 -128 -47 -128 -120v-7c2 -46 43 -99 75 -115c-3 -2 -7 -5 -10 -10c-70 33 -116 88 -123 172v11c0 68 44 126 88 159c23 17 49 29 78 36l-29 170c-21 -13 -52 -37 -92 -73c-50 -44 -86 -84 -109 -119c-45 -69 -67 -130 -67 -182v-13c5 -68 35 -127 93 -176 s125 -73 203 -73c25 0 50 3 75 9c-19 111 -36 221 -54 331z"/></g><g id="E262-j3rsuf9"><path transform="scale(1,-1)" d="M136 186v169h17v-164l44 14v-91l-44 -14v-165l44 12v-91l-44 -13v-155h-17v150l-76 -22v-155h-17v149l-43 -13v90l43 14v167l-43 -14v92l43 13v169h17v-163zM60 73v-167l76 22v168z"/></g><g id="E083-j3rsuf9"><path transform="scale(1,-1)" d="M208 250c97 0 177 -52 177 -116c0 -69 -40 -111 -118 -125c56 -5 125 -44 125 -116c0 -31 -10 -57 -31 -78c-19 -21 -45 -38 -78 -49l-50 -11c-15 -3 -36 -7 -55 -7c-50 0 -86 16 -113 38c-16 10 -23 18 -34 34c-7 13 -11 25 -11 38c0 43 27 83 68 83l3 -2 c61 0 75 -42 75 -70c0 -19 -24 -42 -26 -57c7 -17 20 -25 37 -25c44 0 94 29 94 78c0 75 -34 125 -138 125v36c84 0 131 22 131 98c0 54 -37 88 -87 88c-26 0 -43 -7 -51 -22c15 -22 44 -16 44 -70c0 -37 -37 -62 -71 -62c-22 0 -69 15 -69 76c0 79 101 116 178 116z"/></g><g id="E084-j3rsuf9"><path transform="scale(1,-1)" d="M20 -78c84 97 114 180 134 329h170c-13 -32 -82 -132 -99 -151l-84 -97c-33 -36 -59 -63 -80 -81h162v102l127 123v-225h57v-39h-57v-34c0 -43 19 -65 57 -65v-34h-244v36c48 0 60 26 60 70v27h-203v39z"/></g><g id="E0A4-j3rsuf9"><path transform="scale(1,-1)" d="M0 -39c0 68 73 172 200 172c66 0 114 -37 114 -95c0 -84 -106 -171 -218 -171c-64 0 -96 30 -96 94z"/></g><g id="E241-j3rsuf9"><path transform="scale(1,-1)" d="M179 646c-4 8 -17 30 -18 33l-4 10c0 3 2 5 5 5s7 -2 13 -7c23 -33 46 -81 66 -132c22 -57 35 -125 35 -163c0 -104 -60 -183 -122 -241c-63 -59 -57 -53 -61 -56c-38 -34 -63 -95 -71 -95h-22v190c40 7 69 11 87 16c88 27 168 95 168 200c0 30 -12 89 -30 138 c-17 47 -31 73 -46 102z"/></g><g id="E242-j3rsuf9"><path transform="scale(1,-1)" d="M206 -748c32 48 49 100 49 149c0 89 -55 168 -168 203c-18 5 -47 9 -87 16v190v190h22c8 0 33 -61 71 -95c4 -3 -2 3 61 -56c62 -58 122 -137 122 -241c0 -32 -7 -65 -17 -96c11 -29 17 -60 17 -94c0 -71 -32 -148 -67 -190c-6 -5 -10 -7 -13 -7s-5 2 -5 5l4 10 c1 3 6 8 11 16zM248 -463c4 18 7 38 7 57c0 105 -80 173 -168 200c-11 3 -27 6 -47 9c9 -17 23 -61 53 -88c4 -3 -2 3 61 -56c36 -33 71 -74 94 -122z"/></g><g id="E240-j3rsuf9"><path transform="scale(1,-1)" d="M179 -646c15 29 29 55 46 102c18 49 30 108 30 138c0 105 -80 173 -168 200c-18 5 -47 9 -87 16v190h22c8 0 33 -61 71 -95c4 -3 -2 3 61 -56c62 -58 122 -137 122 -241c0 -38 -13 -106 -35 -163c-20 -51 -43 -99 -66 -132c-6 -5 -10 -7 -13 -7s-5 2 -5 5l4 10 c1 3 14 25 18 33z"/></g><g id="E243-j3rsuf9"><path transform="scale(1,-1)" d="M216 730c-5 8 -10 13 -11 16l-4 10c0 3 2 5 5 5s7 -2 13 -7c35 -42 57 -101 57 -172c0 -34 -6 -65 -17 -94c10 -31 17 -64 17 -96c0 -104 -60 -183 -122 -241c-63 -59 -57 -53 -61 -56c-38 -34 -63 -95 -71 -95h-22v190v190c40 7 69 11 87 16c116 36 175 111 175 197 c0 44 -15 91 -46 137zM248 463c-23 -48 -58 -89 -94 -122c-63 -59 -57 -53 -61 -56c-30 -27 -44 -71 -53 -88c20 3 36 6 47 9c88 27 168 95 168 200c0 19 -3 39 -7 57z"/></g></defs><style type="text/css">#j3rsuf9 g.page-margin {font-family:Times,serif;}#j3rsuf9 g.ending, #j3rsuf9 g.fing, #j3rsuf9 g.reh, #j3rsuf9 g.tempo {font-weight:bold;}#j3rsuf9 g.dir, #j3rsuf9 g.dynam, #j3rsuf9 g.mNum {font-style:italic;}#j3rsuf9 g.label {font-weight:normal;}#j3rsuf9 path {stroke:currentColor}</style><svg class="definition-scale" color="black" viewBox="0 0 14000 2100"><g class="page-margin" transform="translate(0, 150)"><g data-id="m13wkwx3" data-class="mdiv" class="mdiv pageMilestone"/><g data-id="n1icnhoc" data-class="score" class="score pageMilestone"/><g data-id="i9yoamd" data-class="system" class="system"><g data-id="p6agl0d" data-class="section" class="section systemMilestone"/><g data-id="k1q25m4f" data-class="measure" class="measure"><g data-id="b13ovgf7" data-class="staff" class="staff"><path d="M0 540 L3609 540" stroke-width="13"/><path d="M0 720 L3609 720" stroke-width="13"/><path d="M0 900 L3609 900" stroke-width="13"/><path d="M0 1080 L3609 1080" stroke-width="13"/><path d="M0 1260 L3609 1260" stroke-width="13"/><g data-id="p1xrq236" data-class="clef" class="clef"><use href="#E050-j3rsuf9" transform="translate(90, 1080) scale(0.72, 0.72)"/></g><g data-id="q1v5o9cu" data-class="keySig" class="keySig"><g data-id="ry49qkr" data-class="keyAccid" class="keyAccid"><use href="#E262-j3rsuf9" transform="translate(735, 540) scale(0.72, 0.72)"/></g></g><g data-id="sfcra2l" data-class="meterSig" class="meterSig"><use href="#E083-j3rsuf9" transform="translate(1048, 720) scale(0.72, 0.72)"/><use href="#E084-j3rsuf9" transform="translate(1042, 1080) scale(0.72, 0.72)"/></g><g data-id="c1pi1s0f" data-class="layer" class="layer"><g data-id="u13xhvxg" data-class="note" class="note"><g data-class="notehead" class="notehead"><use href="#E0A4-j3rsuf9" transform="translate(1604, 810) scale(0.72, 0.72)"/></g><g data-id="vgykzpp" data-class="dots" class="dots"><ellipse cx="1920" cy="810" rx="36" ry="36" fill-opacity="1" stroke-opacity="1"/></g><g data-id="uogen7y" data-class="stem" class="stem"><path d="M1613 838 L1613 1440" stroke-width="18"/><g data-id="w1ypl8c2" data-class="flag" class="flag"><use href="#E241-j3rsuf9" transform="translate(1604, 1440) scale(0.72, 0.72)"/></g></g></g><g data-id="v4spjdd" data-class="note" class="note"><g data-class="notehead" class="notehead"><use href="#E0A4-j3rsuf9" transform="translate(2184, 990) scale(0.72, 0.72)"/></g><g data-id="xx7bveg" data-class="stem" class="stem"><path d="M2401 962 L2401 360" stroke-width="18"/><g data-id="y111pu0l" data-class="flag" class="flag"><use href="#E242-j3rsuf9" transform="translate(2392, 360) scale(0.72, 0.72)"/></g></g></g><g data-id="w19zomnh" data-class="note" class="note"><g data-class="notehead" class="notehead"><use href="#E0A4-j3rsuf9" transform="translate(2590, 1170) scale(0.72, 0.72)"/></g><g data-id="zrrb7uw" data-class="stem" class="stem"><path d="M2807 1142 L2807 540" stroke-width="18"/><g data-id="a4ybnit" data-class="flag" class="flag"><use href="#E240-j3rsuf9" transform="translate(2798, 540) scale(0.72, 0.72)"/></g></g><g data-id="j1hmubuh" data-class="accid" class="accid"/></g><g data-id="x1qnn8v9" data-class="note" class="note"><g data-class="notehead" class="notehead"><use href="#E0A4-j3rsuf9" transform="translate(3086, 1080) scale(0.72, 0.72)"/></g><g data-id="b9c4tpz" data-class="stem" class="stem"><path d="M3303 1052 L3303 450" stroke-width="18"/><g data-id="cfm0lu5" data-class="flag" class="flag"><use href="#E240-j3rsuf9" transform="translate(3294, 450) scale(0.72, 0.72)"/></g></g></g></g></g><g data-id="s1el4zcu" data-class="barLine" class="barLine"><path d="M3596 540 L3596 1260" stroke-width="27"/></g></g><g data-id="t432es6" data-class="measure" class="measure"><g data-id="d1k246u2" data-class="staff" class="staff"><path d="M3609 540 L5648 540" stroke-width="13"/><path d="M3609 720 L5648 720" stroke-width="13"/><path d="M3609 900 L5648 900" stroke-width="13"/><path d="M3609 1080 L5648 1080" stroke-width="13"/><path d="M3609 1260 L5648 1260" stroke-width="13"/><g data-id="e5d0mg0" data-class="layer" class="layer"><g data-id="y8yyw9v" data-class="note" class="note"><g data-class="notehead" class="notehead"><use href="#E0A4-j3rsuf9" transform="translate(3789, 990) scale(0.72, 0.72)"/></g><g data-id="d1q7h2of" data-class="stem" class="stem"><path d="M4006 962 L4006 360" stroke-width="18"/><g data-id="e4cbphx" data-class="flag" class="flag"><use href="#E240-j3rsuf9" transform="translate(3997, 360) scale(0.72, 0.72)"/></g></g></g><g data-id="z1neoyzr" data-class="note" class="note"><g data-class="notehead" class="notehead"><use href="#E0A4-j3rsuf9" transform="translate(4285, 900) scale(0.72, 0.72)"/></g><g data-id="f1f40ggo" data-class="stem" class="stem"><path d="M4294 928 L4294 1500" stroke-width="18"/><g data-id="g7h9dr2" data-class="flag" class="flag"><use href="#E241-j3rsuf9" transform="translate(4285, 1500) scale(0.72, 0.72)"/></g></g></g><g data-id="a104q1pj" data-class="note" class="note"><g data-class="notehead" class="notehead"><use href="#E0A4-j3rsuf9" transform="translate(4735, 810) scale(0.72, 0.72)"/></g><g data-id="h1m1l09v" data-class="stem" class="stem"><path d="M4744 838 L4744 1440" stroke-width="18"/><g data-id="im359em" data-class="flag" class="flag"><use href="#E241-j3rsuf9" transform="translate(4735, 1440) scale(0.72, 0.72)"/></g></g></g><g data-id="b1q7akvr" data-class="note" class="note"><g data-class="notehead" class="notehead"><use href="#E0A4-j3rsuf9" transform="translate(5185, 720) scale(0.72, 0.72)"/></g><g data-id="jb5kf3z" data-class="stem" class="stem"><path d="M5194 748 L5194 1350" stroke-width="18"/><g data-id="k17xwdfh" data-class="flag" class="flag"><use href="#E241-j3rsuf9" transform="translate(5185, 1350) scale(0.72, 0.72)"/></g></g></g></g></g><g data-id="be6pgfy" data-class="barLine" class="barLine"><path d="M5635 540 L5635 1260" stroke-width="27"/></g></g><g data-id="cvp76av" data-class="measure" class="measure"><g data-id="f1mbu4uc" data-class="staff" class="staff"><path d="M5648 540 L7651 540" stroke-width="13"/><path d="M5648 720 L7651 720" stroke-width="13"/><path d="M5648 900 L7651 900" stroke-width="13"/><path d="M5648 1080 L7651 1080" stroke-width="13"/><path d="M5648 1260 L7651 1260" stroke-width="13"/><g data-id="g1mjm3ek" data-class="layer" class="layer"><g data-id="c9mu9nz" data-class="note" class="note"><g data-class="notehead" class="notehead"><use href="#E0A4-j3rsuf9" transform="translate(5828, 810) scale(0.72, 0.72)"/></g><g data-id="l1wgz31h" data-class="stem" class="stem"><path d="M5837 838 L5837 1440" stroke-width="18"/><g data-id="m1nfiz8t" data-class="flag" class="flag"><use href="#E241-j3rsuf9" transform="translate(5828, 1440) scale(0.72, 0.72)"/></g></g></g><g data-id="d2ozgxn" data-class="note" class="note"><g data-class="notehead" class="notehead"><use href="#E0A4-j3rsuf9" transform="translate(6278, 540) scale(0.72, 0.72)"/></g><g data-id="nbtajo7" data-class="stem" class="stem"><path d="M6287 568 L6287 1170" stroke-width="18"/><g data-id="o188c90q" data-class="flag" class="flag"><use href="#E241-j3rsuf9" transform="translate(6278, 1170) scale(0.72, 0.72)"/></g></g><g data-id="k1ay450g" data-class="accid" class="accid"/></g><g data-id="e2vew0" data-class="note" class="note"><g data-class="notehead" class="notehead"><use href="#E0A4-j3rsuf9" transform="translate(6728, 630) scale(0.72, 0.72)"/></g><g data-id="qt13msx" data-class="dots" class="dots"><ellipse cx="7044" cy="630" rx="36" ry="36" fill-opacity="1" stroke-opacity="1"/></g><g data-id="p119du2j" data-class="stem" class="stem"><path d="M6737 658 L6737 1260" stroke-width="18"/><g data-id="r1p1x7ix" data-class="flag" class="flag"><use href="#E241-j3rsuf9" transform="translate(6728, 1260) scale(0.72, 0.72)"/></g></g></g><g data-id="f1hzi9mi" data-class="note" class="note"><g data-class="notehead" class="notehead"><use href="#E0A4-j3rsuf9" transform="translate(7308, 720) scale(0.72, 0.72)"/></g><g data-id="supz2uk" data-class="stem" class="stem"><path d="M7317 748 L7317 1350" stroke-width="18"/><g data-id="t1jhuumo" data-class="flag" class="flag"><use href="#E243-j3rsuf9" transform="translate(7308, 1350) scale(0.72, 0.72)"/></g></g></g></g></g><g data-id="k196kyu2" data-class="barLine" class="barLine"><path d="M7638 540 L7638 1260" stroke-width="27"/></g></g><g data-id="lqybou3" data-class="measure" class="measure"><g data-id="h1jw4x8d" data-class="staff" class="staff"><path d="M7651 540 L9434 540" stroke-width="13"/><path d="M7651 720 L9434 720" stroke-width="13"/><path d="M7651 900 L9434 900" stroke-width="13"/><path d="M7651 1080 L9434 1080" stroke-width="13"/><path d="M7651 1260 L9434 1260" stroke-width="13"/><g data-id="i1vezzsz" data-class="layer" class="layer"><g data-id="g1sgnn6s" data-class="note" class="note"><g data-class="notehead" class="notehead"><use href="#E0A4-j3rsuf9" transform="translate(7831, 810) scale(0.72, 0.72)"/></g><g data-id="u19a1i5h" data-class="stem" class="stem"><path d="M7840 838 L7840 1440" stroke-width="18"/><g data-id="v1g3qsim" data-class="flag" class="flag"><use href="#E241-j3rsuf9" transform="translate(7831, 1440) scale(0.72, 0.72)"/></g></g></g><g data-id="h1wc8wce" data-class="note" class="note"><g data-class="notehead" class="notehead"><use href="#E0A4-j3rsuf9" transform="translate(8281, 900) scale(0.72, 0.72)"/></g><g data-id="wwj8xvu" data-class="stem" class="stem"><path d="M8290 928 L8290 1500" stroke-width="18"/><g data-id="x1ug36rm" data-class="flag" class="flag"><use href="#E241-j3rsuf9" transform="translate(8281, 1500) scale(0.72, 0.72)"/></g></g></g><g data-id="ibb7lp" data-class="note" class="note"><g data-class="notehead" class="notehead"><use href="#E0A4-j3rsuf9" transform="translate(8731, 1080) scale(0.72, 0.72)"/></g><g data-id="ynotiy6" data-class="stem" class="stem"><path d="M8948 1052 L8948 450" stroke-width="18"/></g></g></g></g><g data-id="t1j3cuth" data-class="barLine" class="barLine"><path d="M9421 540 L9421 1260" stroke-width="27"/></g></g><g data-id="q1w5xb4c" data-class="systemMilestoneEnd" class="systemMilestoneEnd p6agl0d"/></g><g data-id="r1dv8r4e" data-class="pageMilestoneEnd" class="pageMilestoneEnd n1icnhoc"/><g data-id="s3z6iqv" data-class="pageMilestoneEnd" class="pageMilestoneEnd m13wkwx3"/></g></svg></svg>