<svg viewBox="0 0 560 84" version="1.1" xmlns="http://www.w3.org/2000/svg" xmlns:xlink="http://www.w3.org/1999/xlink" overflow="visible" id="p9bjbfw"><desc>Engraved by Verovio 5.6.0-85e7620</desc><defs><g id="E050-p9bjbfw"><path transform="scale(1,-1)" d="M441 -245c-23 -4 -48 -6 -76 -6c-59 0 -102 7 -130 20c-88 42 -150 93 -187 154c-26 44 -43 103 -48 176c0 6 -1 13 -1 19c0 54 15 111 45 170c29 57 65 106 110 148s96 85 153 127c-3 16 -8 46 -13 92c-4 43 -5 73 -5 89c0 117 16 172 69 257c34 54 64 82 89 82 c21 0 43 -30 69 -92s39 -115 41 -159v-15c0 -109 -21 -162 -67 -241c-13 -20 -63 -90 -98 -118c-13 -9 -25 -19 -37 -29l31 -181c8 1 18 2 28 2c58 0 102 -12 133 -35c59 -43 92 -104 98 -184c1 -7 1 -15 1 -22c0 -123 -87 -209 -181 -248c8 -57 17 -110 25 -162 c5 -31 6 -58 6 -80c0 -30 -5 -53 -14 -70c-35 -64 -88 -99 -158 -103c-5 0 -11 -1 -16 -1c-37 0 -72 10 -108 27c-50 24 -77 59 -80 105v11c0 29 7 55 20 76c18 28 45 42 79 44h6c49 0 93 -42 97 -87v-9c0 -51 -34 -86 -105 -106c17 -24 51 -36 102 -36c62 0 116 43 140 85 c9 16 13 41 13 74c0 20 -1 42 -5 67c-8 53 -18 106 -26 159zM461 939c-95 0 -135 -175 -135 -286c0 -24 2 -48 5 -71c50 39 92 82 127 128c40 53 60 100 60 140v8c-4 53 -22 81 -55 81h-2zM406 119l54 -326c73 25 110 78 110 161c0 7 0 15 -1 23c-7 95 -57 142 -151 142h-12 zM382 117c-72 -2 -128 -47 -128 -120v-7c2 -46 43 -99 75 -115c-3 -2 -7 -5 -10 -10c-70 33 -116 88 -123 172v11c0 68 44 126 88 159c23 17 49 29 78 36l-29 170c-21 -13 -52 -37 -92 -73c-50 -44 -86 -84 -109 -119c-45 -69 -67 -130 -67 -182v-13c5 -68 35 -127 93 -176 s125 -73 203 -73c25 0 50 3 75 9c-19 111 -36 221 -54 331z"/></g><g id="E260-p9bjbfw"><path transform="scale(1,-1)" d="M20 110c32 16 54 27 93 27c26 0 35 -3 54 -13c13 -7 24 -20 27 -38l4 -25c0 -28 -16 -57 -45 -89c-23 -25 -39 -44 -65 -68l-88 -79v644h20v-359zM90 106c-32 0 -48 -10 -70 -29v-194c31 31 54 59 71 84c21 32 32 59 32 84c0 9 1 16 1 20c0 14 -3 21 -11 30l-8 3z"/></g><g id="E08A-p9bjbfw"><path transform="scale(1,-1)" d="M340 179c-9 24 -56 41 -89 41c-46 0 -81 -28 -100 -58c-17 -28 -25 -78 -25 -150c0 -65 2 -111 8 -135c8 -31 18 -49 40 -67c20 -17 43 -25 70 -25c54 0 92 36 115 75c14 25 23 54 28 88h27c0 -63 -24 -105 -58 -141c-35 -38 -82 -56 -140 -56c-45 0 -83 13 -115 39 c-57 45 -101 130 -101 226c0 59 33 127 68 163c36 37 97 72 160 72c36 0 93 -21 121 -40c11 -8 23 -17 33 -30c19 -23 27 -48 27 -76c0 -51 -35 -88 -86 -88c-43 0 -76 27 -76 68c0 26 7 35 21 51c15 17 32 27 58 32c7 2 14 7 14 11z"/></g><g id="E0A4-p9bjbfw"><path transform="scale(1,-1)" d="M0 -39c0 68 73 172 200 172c66 0 114 -37 114 -95c0 -84 -106 -171 -218 -171c-64 0 -96 30 -96 94z"/></g><g id="E240-p9bjbfw"><path transform="scale(1,-1)" d="M179 -646c15 29 29 55 46 102c18 49 30 108 30 138c0 105 -80 173 -168 200c-18 5 -47 9 -87 16v190h22c8 0 33 -61 71 -95c4 -3 -2 3 61 -56c62 -58 122 -137 122 -241c0 -38 -13 -106 -35 -163c-20 -51 -43 -99 -66 -132c-6 -5 -10 -7 -13 -7s-5 2 -5 5l4 10 c1 3 14 25 18 33z"/></g><g id="E242-p9bjbfw"><path transform="scale(1,-1)" d="M206 -748c32 48 49 100 49 149c0 89 -55 168 -168 203c-18 5 -47 9 -87 16v190v190h22c8 0 33 -61 71 -95c4 -3 -2 3 61 -56c62 -58 122 -137 122 -241c0 -32 -7 -65 -17 -96c11 -29 17 -60 17 -94c0 -71 -32 -148 -67 -190c-6 -5 -10 -7 -13 -7s-5 2 -5 5l4 10 c1 3 6 8 11 16zM248 -463c4 18 7 38 7 57c0 105 -80 173 -168 200c-11 3 -27 6 -47 9c9 -17 23 -61 53 -88c4 -3 -2 3 61 -56c36 -33 71 -74 94 -122z"/></g><g id="E243-p9bjbfw"><path transform="scale(1,-1)" d="M216 730c-5 8 -10 13 -11 16l-4 10c0 3 2 5 5 5s7 -2 13 -7c35 -42 57 -101 57 -172c0 -34 -6 -65 -17 -94c10 -31 17 -64 17 -96c0 -104 -60 -183 -122 -241c-63 -59 -57 -53 -61 -56c-38 -34 -63 -95 -71 -95h-22v190v190c40 7 69 11 87 16c116 36 175 111 175 197 c0 44 -15 91 -46 137zM248 463c-23 -48 -58 -89 -94 -122c-63 -59 -57 -53 -61 -56c-30 -27 -44 -71 -53 -88c20 3 36 6 47 9c88 27 168 95 168 200c0 19 -3 39 -7 57z"/></g><g id="E0A3-p9bjbfw"><path transform="scale(1,-1)" d="M278 64c0 22 -17 39 -43 39c-12 0 -26 -3 -41 -10c-85 -43 -165 -94 -165 -156c5 -25 15 -32 49 -32c67 11 200 95 200 159zM0 -36c0 68 73 174 200 174c66 0 114 -39 114 -97c0 -84 -106 -173 -218 -173c-64 0 -96 32 -96 96z"/></g><g id="E241-p9bjbfw"><path transform="scale(1,-1)" d="M179 646c-4 8 -17 30 -18 33l-4 10c0 3 2 5 5 5s7 -2 13 -7c23 -33 46 -81 66 -132c22 -57 35 -125 35 -163c0 -104 -60 -183 -122 -241c-63 -59 -57 -53 -61 -56c-38 -34 -63 -95 -71 -95h-22v190c40 7 69 11 87 16c88 27 168 95 168 200c0 30 -12 89 -30 138 c-17 47 -31 73 -46 102z"/></g></defs><style type="text/css">#p9bjbfw g.page-margin {font-family:Times,serif;}#p9bjbfw g.ending, #p9bjbfw g.fing, #p9bjbfw g.reh, #p9bjbfw g.tempo {font-weight:bold;}#p9bjbfw g.dir, #p9bjbfw g.dynam, #p9bjbfw g.mNum {font-style:italic;}#p9bjbfw g.label {font-weight:normal;}#p9bjbfw path {stroke:currentColor}</style><svg class="definition-scale" color="black" viewBox="0 0 14000 2100"><g class="page-margin" transform="translate(0, 150)"><g data-id="jo7y7yh" data-class="mdiv" class="mdiv pageMilestone"/><g data-id="k1qkno74" data-class="score" class="score pageMilestone"/><g data-id="sa04fdj" data-class="system" class="system"><g data-id="m1196u81" data-class="section" class="section systemMilestone"/><g data-id="qji991l" data-class="measure" class="measure"><g data-id="yl8tl95" data-class="staff" class="staff"><path d="M0 540 L3994 540" stroke-width="13"/><path d="M0 720 L3994 720" stroke-width="13"/><path d="M0 900 L3994 900" stroke-width="13"/><path d="M0 1080 L3994 1080" stroke-width="13"/><path d="M0 1260 L3994 1260" stroke-width="13"/><g data-id="o1dzuyub" data-class="clef" class="clef"><use href="#E050-p9bjbfw" transform="translate(90, 1080) scale(0.72, 0.72)"/></g><g data-id="p1p6uzo" data-class="keySig" class="keySig"><g data-id="q1vlqyfs" data-class="keyAccid" class="keyAccid"><use href="#E260-p9bjbfw" transform="translate(735, 900) scale(0.72, 0.72)"/></g></g><g data-id="r1tg3dl2" data-class="meterSig" class="meterSig"><use href="#E08A-p9bjbfw" transform="translate(1057, 900) scale(0.72, 0.72)"/></g><g data-id="z14mzw07" data-class="layer" class="layer"><g data-id="jsin9sv" data-class="note" class="note"><g data-class="notehead" class="notehead"><use href="#E0A4-p9bjbfw" transform="translate(1640, 1170) scale(0.72, 0.72)"/></g><g data-id="uyxqhsl" data-class="dots" class="dots"><ellipse cx="1956" cy="1170" rx="36" ry="36" fill-opacity="1" stroke-opacity="1"/></g><g data-id="tfakzny" data-class="stem" class="stem"><path d="M1857 1142 L1857 540" stroke-width="18"/><g data-id="v1vpkciw" data-class="flag" class="flag"><use href="#E240-p9bjbfw" transform="translate(1848, 540) scale(0.72, 0.72)"/></g></g></g><g data-id="k1y0x6on" data-class="note" class="note"><g data-class="notehead" class="notehead"><use href="#E0A4-p9bjbfw" transform="translate(2368, 990) scale(0.72, 0.72)"/></g><g data-id="w165cw7b" data-class="stem" class="stem"><path d="M2585 962 L2585 360" stroke-width="18"/><g data-id="x6l9nul" data-class="flag" class="flag"><use href="#E242-p9bjbfw" transform="translate(2576, 360) scale(0.72, 0.72)"/></g></g></g><g data-id="loqb50k" data-class="note" class="note"><g data-class="notehead" class="notehead"><use href="#E0A4-p9bjbfw" transform="translate(2876, 990) scale(0.72, 0.72)"/></g><g data-id="z12ofw4r" data-class="dots" class="dots"><ellipse cx="3192" cy="990" rx="36" ry="36" fill-opacity="1" stroke-opacity="1"/></g><g data-id="y177wmbi" data-class="stem" class="stem"><path d="M3093 962 L3093 360" stroke-width="18"/><g data-id="a1vgy4f2" data-class="flag" class="flag"><use href="#E240-p9bjbfw" transform="translate(3084, 360) scale(0.72, 0.72)"/></g></g></g><g data-id="m12yaece" data-class="note" class="note"><g data-class="notehead" class="notehead"><use href="#E0A4-p9bjbfw" transform="translate(3605, 810) scale(0.72, 0.72)"/></g><g data-id="b1vnqt3f" data-class="stem" class="stem"><path d="M3614 838 L3614 1440" stroke-width="18"/><g data-id="c1s2w7hj" data-class="flag" class="flag"><use href="#E243-p9bjbfw" transform="translate(3605, 1440) scale(0.72, 0.72)"/></g></g></g></g></g><g data-id="y8rw34j" data-class="barLine" class="barLine"><path d="M3981 540 L3981 1260" stroke-width="27"/></g></g><g data-id="z1y7flv0" data-class="measure" class="measure"><g data-id="a7uuo4m" data-class="staff" class="staff"><path d="M3994 540 L7731 540" stroke-width="13"/><path d="M3994 720 L7731 720" stroke-width="13"/><path d="M3994 900 L7731 900" stroke-width="13"/><path d="M3994 1080 L7731 1080" stroke-width="13"/><path d="M3994 1260 L7731 1260" stroke-width="13"/><g data-id="byzdfx0" data-class="layer" class="layer"><g data-id="n1yi7hjy" data-class="note" class="note"><g data-class="notehead" class="notehead"><use href="#E0A3-p9bjbfw" transform="translate(4189, 810) scale(0.72, 0.72)"/></g><g data-id="d1ydg2nu" data-class="stem" class="stem"><path d="M4198 835 L4198 1440" stroke-width="18"/></g></g><g data-id="o1bg1jwi" data-class="note" class="note"><g data-class="notehead" class="notehead"><use href="#E0A4-p9bjbfw" transform="translate(5508, 990) scale(0.72, 0.72)"/></g><g data-id="f19cig83" data-class="dots" class="dots"><ellipse cx="5824" cy="990" rx="36" ry="36" fill-opacity="1" stroke-opacity="1"/></g><g data-id="e3v8s38" data-class="stem" class="stem"><path d="M5725 962 L5725 360" stroke-width="18"/><g data-id="g1pbm8e1" data-class="flag" class="flag"><use href="#E240-p9bjbfw" transform="translate(5716, 360) scale(0.72, 0.72)"/></g></g></g><g data-id="p1a8lpx2" data-class="note" class="note"><g data-class="notehead" class="notehead"><use href="#E0A4-p9bjbfw" transform="translate(6237, 810) scale(0.72, 0.72)"/></g><g data-id="h56tmbk" data-class="stem" class="stem"><path d="M6246 838 L6246 1440" stroke-width="18"/><g data-id="i1bx3r02" data-class="flag" class="flag"><use href="#E243-p9bjbfw" transform="translate(6237, 1440) scale(0.72, 0.72)"/></g></g></g><g data-id="q1ndw1fv" data-class="note" class="note"><g data-class="notehead" class="notehead"><use href="#E0A4-p9bjbfw" transform="translate(6613, 810) scale(0.72, 0.72)"/></g><g data-id="k1twkp0f" data-class="dots" class="dots"><ellipse cx="6929" cy="810" rx="36" ry="36" fill-opacity="1" stroke-opacity="1"/></g><g data-id="jn2qdhf" data-class="stem" class="stem"><path d="M6622 838 L6622 1440" stroke-width="18"/><g data-id="l1t2zzyy" data-class="flag" class="flag"><use href="#E241-p9bjbfw" transform="translate(6613, 1440) scale(0.72, 0.72)"/></g></g></g><g data-id="r17n3v9m" data-class="note" class="note"><g data-class="notehead" class="notehead"><use href="#E0A4-p9bjbfw" transform="translate(7342, 540) scale(0.72, 0.72)"/></g><g data-id="m15nlios" data-class="stem" class="stem"><path d="M7351 568 L7351 1170" stroke-width="18"/><g data-id="nocr9hp" data-class="flag" class="flag"><use href="#E243-p9bjbfw" transform="translate(7342, 1170) scale(0.72, 0.72)"/></g></g></g></g></g><g data-id="h1jebsax" data-class="barLine" class="barLine"><path d="M7718 540 L7718 1260" stroke-width="27"/></g></g><g data-id="izvg56r" data-class="measure" class="measure"><g data-id="c1xypeed" data-class="staff" class="staff"><path d="M7731 540 L10991 540" stroke-width="13"/><path d="M7731 720 L10991 720" stroke-width="13"/><path d="M7731 900 L10991 900" stroke-width="13"/><path d="M7731 1080 L10991 1080" stroke-width="13"/><path d="M7731 1260 L10991 1260" stroke-width="13"/><g data-id="d4of57a" data-class="layer" class="layer"><g data-id="s84n0a8" data-class="note" class="note"><g data-class="notehead" class="notehead"><use href="#E0A3-p9bjbfw" transform="translate(7926, 540) scale(0.72, 0.72)"/></g><g data-id="o1ys1mtn" data-class="stem" class="stem"><path d="M7935 565 L7935 1170" stroke-width="18"/></g></g><g data-id="t9t7qe0" data-class="note" class="note"><g data-class="notehead" class="notehead"><use href="#E0A4-p9bjbfw" transform="translate(9245, 630) scale(0.72, 0.72)"/></g><g data-id="p1bgbu6x" data-class="stem" class="stem"><path d="M9254 658 L9254 1260" stroke-width="18"/></g></g><g data-id="u176jqqr" data-class="note" class="note"><g data-class="notehead" class="notehead"><use href="#E0A4-p9bjbfw" transform="translate(10112, 720) scale(0.72, 0.72)"/></g><g data-id="q1m3j93c" data-class="stem" class="stem"><path d="M10121 748 L10121 1350" stroke-width="18"/></g></g></g></g><g data-id="q4ed8ps" data-class="barLine" class="barLine"><path d="M10978 540 L10978 1260" stroke-width="27"/></g></g><g data-id="r17fqiha" data-class="measure" class="measure"><g data-id="ehs9mjo" data-class="staff" class="staff"><path d="M10991 540 L14001 540" stroke-width="13"/><path d="M10991 720 L14001 720" stroke-width="13"/><path d="M10991 900 L14001 900" stroke-width="13"/><path d="M10991 1080 L14001 1080" stroke-width="13"/><path d="M10991 1260 L14001 1260" stroke-width="13"/><g data-id="f1kyapcc" data-class="layer" class="layer"><g data-id="v13kw4re" data-class="note" class="note"><g data-class="notehead" class="notehead"><use href="#E0A4-p9bjbfw" transform="translate(11186, 810) scale(0.72, 0.72)"/></g><g data-id="s9m0tm2" data-class="dots" class="dots"><ellipse cx="11502" cy="810" rx="36" ry="36" fill-opacity="1" stroke-opacity="1"/></g><g data-id="rtwqudf" data-class="stem" class="stem"><path d="M11195 838 L11195 1440" stroke-width="18"/></g></g><g data-id="wpsq0n8" data-class="note" class="note"><g data-class="notehead" class="notehead"><use href="#E0A4-p9bjbfw" transform="translate(12292, 810) scale(0.72, 0.72)"/></g><g data-id="t1bqijpa" data-class="stem" class="stem"><path d="M12301 838 L12301 1440" stroke-width="18"/><g data-id="u1aauzfh" data-class="flag" class="flag"><use href="#E241-p9bjbfw" transform="translate(12292, 1440) scale(0.72, 0.72)"/></g></g></g><g data-id="xh4jyvz" data-class="note" class="note"><g data-class="notehead" class="notehead"><use href="#E0A4-p9bjbfw" transform="translate(12857, 720) scale(0.72, 0.72)"/></g><g data-id="v1hpjcd4" data-class="stem" class="stem"><path d="M12866 748 L12866 1350" stroke-width="18"/><g data-id="wx6f3a6" data-class="flag" class="flag"><use href="#E241-p9bjbfw" transform="translate(12857, 1350) scale(0.72, 0.72)"/></g></g></g><g data-id="y14mrpjk" data-class="note" class="note"><g data-class="notehead" class="notehead"><use href="#E0A4-p9bjbfw" transform="translate(13423, 810) scale(0.72, 0.72)"/></g><g data-id="xyj35c4" data-class="stem" class="stem"><path d="M13432 838 L13432 1440" stroke-width="18"/><g data-id="yppzc8v" data-class="flag" class="flag"><use href="#E241-p9bjbfw" transform="translate(13423, 1440) scale(0.72, 0.72)"/></g></g></g></g></g><g data-id="zd4n1bg" data-class="barLine" class="barLine"><path d="M13988 540 L13988 1260" stroke-width="27"/></g></g></g></g></svg></svg>