<svg viewBox="0 0 560 84" version="1.1" xmlns="http://www.w3.org/2000/svg" xmlns:xlink="http://www.w3.org/1999/xlink" overflow="visible" id="r18j7dz3"><desc>Engraved by Verovio 5.6.0-85e7620</desc><defs><g id="E050-r18j7dz3"><path transform="scale(1,-1)" d="M441 -245c-23 -4 -48 -6 -76 -6c-59 0 -102 7 -130 20c-88 42 -150 93 -187 154c-26 44 -43 103 -48 176c0 6 -1 13 -1 19c0 54 15 111 45 170c29 57 65 106 110 148s96 85 153 127c-3 16 -8 46 -13 92c-4 43 -5 73 -5 89c0 117 16 172 69 257c34 54 64 82 89 82 c21 0 43 -30 69 -92s39 -115 41 -159v-15c0 -109 -21 -162 -67 -241c-13 -20 -63 -90 -98 -118c-13 -9 -25 -19 -37 -29l31 -181c8 1 18 2 28 2c58 0 102 -12 133 -35c59 -43 92 -104 98 -184c1 -7 1 -15 1 -22c0 -123 -87 -209 -181 -248c8 -57 17 -110 25 -162 c5 -31 6 -58 6 -80c0 -30 -5 -53 -14 -70c-35 -64 -88 -99 -158 -103c-5 0 -11 -1 -16 -1c-37 0 -72 10 -108 27c-50 24 -77 59 -80 105v11c0 29 7 55 20 76c18 28 45 42 79 44h6c49 0 93 -42 97 -87v-9c0 -51 -34 -86 -105 -106c17 -24 51 -36 102 -36c62 0 116 43 140 85 c9 16 13 41 13 74c0 20 -1 42 -5 67c-8 53 -18 106 -26 159zM461 939c-95 0 -135 -175 -135 -286c0 -24 2 -48 5 -71c50 39 92 82 127 128c40 53 60 100 60 140v8c-4 53 -22 81 -55 81h-2zM406 119l54 -326c73 25 110 78 110 161c0 7 0 15 -1 23c-7 95 -57 142 -151 142h-12 zM382 117c-72 -2 -128 -47 -128 -120v-7c2 -46 43 -99 75 -115c-3 -2 -7 -5 -10 -10c-70 33 -116 88 -123 172v11c0 68 44 126 88 159c23 17 49 29 78 36l-29 170c-21 -13 -52 -37 -92 -73c-50 -44 -86 -84 -109 -119c-45 -69 -67 -130 -67 -182v-13c5 -68 35 -127 93 -176 s125 -73 203 -73c25 0 50 3 75 9c-19 111 -36 221 -54 331z"/></g><g id="E262-r18j7dz3"><path transform="scale(1,-1)" d="M136 186v169h17v-164l44 14v-91l-44 -14v-165l44 12v-91l-44 -13v-155h-17v150l-76 -22v-155h-17v149l-43 -13v90l43 14v167l-43 -14v92l43 13v169h17v-163zM60 73v-167l76 22v168z"/></g><g id="E08A-r18j7dz3"><path transform="scale(1,-1)" d="M340 179c-9 24 -56 41 -89 41c-46 0 -81 -28 -100 -58c-17 -28 -25 -78 -25 -150c0 -65 2 -111 8 -135c8 -31 18 -49 40 -67c20 -17 43 -25 70 -25c54 0 92 36 115 75c14 25 23 54 28 88h27c0 -63 -24 -105 -58 -141c-35 -38 -82 -56 -140 -56c-45 0 -83 13 -115 39 c-57 45 -101 130 -101 226c0 59 33 127 68 163c36 37 97 72 160 72c36 0 93 -21 121 -40c11 -8 23 -17 33 -30c19 -23 27 -48 27 -76c0 -51 -35 -88 -86 -88c-43 0 -76 27 -76 68c0 26 7 35 21 51c15 17 32 27 58 32c7 2 14 7 14 11z"/></g><g id="E0A3-r18j7dz3"><path transform="scale(1,-1)" d="M278 64c0 22 -17 39 -43 39c-12 0 -26 -3 -41 -10c-85 -43 -165 -94 -165 -156c5 -25 15 -32 49 -32c67 11 200 95 200 159zM0 -36c0 68 73 174 200 174c66 0 114 -39 114 -97c0 -84 -106 -173 -218 -173c-64 0 -96 32 -96 96z"/></g><g id="E0A4-r18j7dz3"><path transform="scale(1,-1)" d="M0 -39c0 68 73 172 200 172c66 0 114 -37 114 -95c0 -84 -106 -171 -218 -171c-64 0 -96 30 -96 94z"/></g><g id="E0A2-r18j7dz3"><path transform="scale(1,-1)" d="M198 133c102 0 207 -45 207 -133c0 -92 -118 -133 -227 -133c-101 0 -178 46 -178 133c0 88 93 133 198 133zM293 -21c0 14 -3 29 -8 44c-7 20 -18 38 -33 54c-20 21 -43 31 -68 31l-20 -2c-15 -5 -27 -14 -36 -28c-4 -9 -6 -17 -8 -24s-3 -16 -3 -27c0 -15 3 -34 9 -57 s18 -41 34 -55c15 -15 36 -23 62 -23c4 0 10 1 18 2c19 5 32 15 40 30s13 34 13 55z"/></g></defs><style type="text/css">#r18j7dz3 g.page-margin {font-family:Times,serif;}#r18j7dz3 g.ending, #r18j7dz3 g.fing, #r18j7dz3 g.reh, #r18j7dz3 g.tempo {font-weight:bold;}#r18j7dz3 g.dir, #r18j7dz3 g.dynam, #r18j7dz3 g.mNum {font-style:italic;}#r18j7dz3 g.label {font-weight:normal;}#r18j7dz3 path {stroke:currentColor}</style><svg class="definition-scale" color="black" viewBox="0 0 14000 2100"><g class="page-margin" transform="translate(0, 150)"><g data-id="x16ytegf" data-class="mdiv" class="mdiv pageMilestone"/><g data-id="y1g06e2m" data-class="score" class="score pageMilestone"/><g data-id="c15tokuf" data-class="system" class="system"><g data-id="aua8xg3" data-class="section" class="section systemMilestone"/><g data-id="s1c9fq0z" data-class="measure" class="measure"><g data-id="mu4jikl" data-class="staff" class="staff"><path d="M0 540 L4280 540" stroke-width="13"/><path d="M0 720 L4280 720" stroke-width="13"/><path d="M0 900 L4280 900" stroke-width="13"/><path d="M0 1080 L4280 1080" stroke-width="13"/><path d="M0 1260 L4280 1260" stroke-width="13"/><g data-id="g1fv13zs" data-class="clef" class="clef"><use href="#E050-r18j7dz3" transform="translate(90, 1080) scale(0.72, 0.72)"/></g><g data-id="hzb0qls" data-class="keySig" class="keySig"><g data-id="inmf8z3" data-class="keyAccid" class="keyAccid"><use href="#E262-r18j7dz3" transform="translate(735, 540) scale(0.72, 0.72)"/></g><g data-id="jtd8zrg" data-class="keyAccid" class="keyAccid"><use href="#E262-r18j7dz3" transform="translate(913, 810) scale(0.72, 0.72)"/></g><g data-id="kahdeys" data-class="keyAccid" class="keyAccid"><use href="#E262-r18j7dz3" transform="translate(1091, 450) scale(0.72, 0.72)"/></g></g><g data-id="l16mo852" data-class="meterSig" class="meterSig"><use href="#E08A-r18j7dz3" transform="translate(1412, 900) scale(0.72, 0.72)"/></g><g data-id="n6k8s88" data-class="layer" class="layer"><g data-id="v80m9l7" data-class="note" class="note"><g data-class="notehead" class="notehead"><use href="#E0A3-r18j7dz3" transform="translate(1991, 1260) scale(0.72, 0.72)"/></g><g data-id="r1vevhgz" data-class="stem" class="stem"><path d="M2208 1232 L2208 630" stroke-width="18"/></g></g><g data-id="wcsge7s" data-class="note" class="note"><g data-class="notehead" class="notehead"><use href="#E0A3-r18j7dz3" transform="translate(3129, 990) scale(0.72, 0.72)"/></g><g data-id="snmnoh7" data-class="stem" class="stem"><path d="M3346 962 L3346 360" stroke-width="18"/></g></g></g></g><g data-id="a1ix8vck" data-class="barLine" class="barLine"><path d="M4267 540 L4267 1260" stroke-width="27"/></g></g><g data-id="b1deuxfs" data-class="measure" class="measure"><g data-id="o1c4whv1" data-class="staff" class="staff"><path d="M4280 540 L7116 540" stroke-width="13"/><path d="M4280 720 L7116 720" stroke-width="13"/><path d="M4280 900 L7116 900" stroke-width="13"/><path d="M4280 1080 L7116 1080" stroke-width="13"/><path d="M4280 1260 L7116 1260" stroke-width="13"/><g data-id="pkszpuc" data-class="layer" class="layer"><g data-id="xgeovsq" data-class="note" class="note"><g data-class="notehead" class="notehead"><use href="#E0A3-r18j7dz3" transform="translate(4471, 990) scale(0.72, 0.72)"/></g><g data-id="t43usc7" data-class="stem" class="stem"><path d="M4688 962 L4688 360" stroke-width="18"/></g></g><g data-id="y1w47uig" data-class="note" class="note"><g data-class="notehead" class="notehead"><use href="#E0A4-r18j7dz3" transform="translate(5609, 1080) scale(0.72, 0.72)"/></g><g data-id="ucfw8ru" data-class="stem" class="stem"><path d="M5826 1052 L5826 450" stroke-width="18"/></g><g data-id="qfw63wk" data-class="accid" class="accid"/></g><g data-id="z19ln6h4" data-class="note" class="note"><g data-class="notehead" class="notehead"><use href="#E0A4-r18j7dz3" transform="translate(6356, 990) scale(0.72, 0.72)"/></g><g data-id="v1n2hxe0" data-class="stem" class="stem"><path d="M6573 962 L6573 360" stroke-width="18"/></g></g></g></g><g data-id="j1cub4og" data-class="barLine" class="barLine"><path d="M7103 540 L7103 1260" stroke-width="27"/></g></g><g data-id="kxm5bcu" data-class="measure" class="measure"><g data-id="q1rkq0i1" data-class="staff" class="staff"><path d="M7116 540 L9596 540" stroke-width="13"/><path d="M7116 720 L9596 720" stroke-width="13"/><path d="M7116 900 L9596 900" stroke-width="13"/><path d="M7116 1080 L9596 1080" stroke-width="13"/><path d="M7116 1260 L9596 1260" stroke-width="13"/><g data-id="rktzclh" data-class="layer" class="layer"><g data-id="ajt5zp7" data-class="note" class="note"><g data-class="notehead" class="notehead"><use href="#E0A3-r18j7dz3" transform="translate(7307, 900) scale(0.72, 0.72)"/></g><g data-id="wzm0d4f" data-class="stem" class="stem"><path d="M7316 925 L7316 1500" stroke-width="18"/></g></g><g data-id="bsa4g1n" data-class="note" class="note"><g data-class="notehead" class="notehead"><use href="#E0A3-r18j7dz3" transform="translate(8445, 990) scale(0.72, 0.72)"/></g><g data-id="xpc4v08" data-class="stem" class="stem"><path d="M8662 962 L8662 360" stroke-width="18"/></g></g></g></g><g data-id="s1ad7ruz" data-class="barLine" class="barLine"><path d="M9583 540 L9583 1260" stroke-width="27"/></g></g><g data-id="t1n7220d" data-class="measure" class="measure"><g data-id="s1td8up1" data-class="staff" class="staff"><path d="M9596 540 L11523 540" stroke-width="13"/><path d="M9596 720 L11523 720" stroke-width="13"/><path d="M9596 900 L11523 900" stroke-width="13"/><path d="M9596 1080 L11523 1080" stroke-width="13"/><path d="M9596 1260 L11523 1260" stroke-width="13"/><g data-id="t114fo75" data-class="layer" class="layer"><g data-id="c8imfhu" data-class="note" class="note"><g data-class="notehead" class="notehead"><use href="#E0A2-r18j7dz3" transform="translate(9787, 720) scale(0.72, 0.72)"/></g></g></g></g><g data-id="ncbgrdf" data-class="tie" class="tie"><path d="M10122,675 C10504,522 11283,522 11669,675 C11275,570 10512,570 10122,675" stroke-linecap="round" stroke-linejoin="round" stroke-width="9"/></g><g data-id="b51f4rr" data-class="barLine" class="barLine"><path d="M11510 540 L11510 1260" stroke-width="27"/></g></g><g data-id="cmqc739" data-class="measure" class="measure"><g data-id="uw170xq" data-class="staff" class="staff"><path d="M11523 540 L14003 540" stroke-width="13"/><path d="M11523 720 L14003 720" stroke-width="13"/><path d="M11523 900 L14003 900" stroke-width="13"/><path d="M11523 1080 L14003 1080" stroke-width="13"/><path d="M11523 1260 L14003 1260" stroke-width="13"/><g data-id="vzcu2wi" data-class="layer" class="layer"><g data-id="d1w75soo" data-class="note" class="note"><g data-class="notehead" class="notehead"><use href="#E0A3-r18j7dz3" transform="translate(11714, 720) scale(0.72, 0.72)"/></g><g data-id="z1n2j92y" data-class="stem" class="stem"><path d="M11723 745 L11723 1350" stroke-width="18"/></g></g><g data-id="e17h0qd" data-class="note" class="note"><g data-class="notehead" class="notehead"><use href="#E0A3-r18j7dz3" transform="translate(12852, 810) scale(0.72, 0.72)"/></g><g data-id="agp8xdk" data-class="stem" class="stem"><path d="M12861 835 L12861 1440" stroke-width="18"/></g><g data-id="r7rcxf7" data-class="accid" class="accid"/></g></g></g><g data-id="o7837h4" data-class="tie" class="tie"><path d="M13123,765 C13318,612 13735,612 13932,765 C13721,659 13332,659 13123,765" stroke-linecap="round" stroke-linejoin="round" stroke-width="9"/></g><g data-id="knpf2vz" data-class="barLine" class="barLine"><path d="M13990 540 L13990 1260" stroke-width="27"/></g></g></g></g></svg></svg>