<svg viewBox="0 0 560 84" version="1.1" xmlns="http://www.w3.org/2000/svg" xmlns:xlink="http://www.w3.org/1999/xlink" overflow="visible" id="zufsim1"><desc>Engraved by Verovio 5.6.0-85e7620</desc><defs><g id="E050-zufsim1"><path transform="scale(1,-1)" d="M441 -245c-23 -4 -48 -6 -76 -6c-59 0 -102 7 -130 20c-88 42 -150 93 -187 154c-26 44 -43 103 -48 176c0 6 -1 13 -1 19c0 54 15 111 45 170c29 57 65 106 110 148s96 85 153 127c-3 16 -8 46 -13 92c-4 43 -5 73 -5 89c0 117 16 172 69 257c34 54 64 82 89 82 c21 0 43 -30 69 -92s39 -115 41 -159v-15c0 -109 -21 -162 -67 -241c-13 -20 -63 -90 -98 -118c-13 -9 -25 -19 -37 -29l31 -181c8 1 18 2 28 2c58 0 102 -12 133 -35c59 -43 92 -104 98 -184c1 -7 1 -15 1 -22c0 -123 -87 -209 -181 -248c8 -57 17 -110 25 -162 c5 -31 6 -58 6 -80c0 -30 -5 -53 -14 -70c-35 -64 -88 -99 -158 -103c-5 0 -11 -1 -16 -1c-37 0 -72 10 -108 27c-50 24 -77 59 -80 105v11c0 29 7 55 20 76c18 28 45 42 79 44h6c49 0 93 -42 97 -87v-9c0 -51 -34 -86 -105 -106c17 -24 51 -36 102 -36c62 0 116 43 140 85 c9 16 13 41 13 74c0 20 -1 42 -5 67c-8 53 -18 106 -26 159zM461 939c-95 0 -135 -175 -135 -286c0 -24 2 -48 5 -71c50 39 92 82 127 128c40 53 60 100 60 140v8c-4 53 -22 81 -55 81h-2zM406 119l54 -326c73 25 110 78 110 161c0 7 0 15 -1 23c-7 95 -57 142 -151 142h-12 zM382 117c-72 -2 -128 -47 -128 -120v-7c2 -46 43 -99 75 -115c-3 -2 -7 -5 -10 -10c-70 33 -116 88 -123 172v11c0 68 44 126 88 159c23 17 49 29 78 36l-29 170c-21 -13 -52 -37 -92 -73c-50 -44 -86 -84 -109 -119c-45 -69 -67 -130 -67 -182v-13c5 -68 35 -127 93 -176 s125 -73 203 -73c25 0 50 3 75 9c-19 111 -36 221 -54 331z"/></g><g id="E262-zufsim1"><path transform="scale(1,-1)" d="M136 186v169h17v-164l44 14v-91l-44 -14v-165l44 12v-91l-44 -13v-155h-17v150l-76 -22v-155h-17v149l-43 -13v90l43 14v167l-43 -14v92l43 13v169h17v-163zM60 73v-167l76 22v168z"/></g><g id="E086-zufsim1"><path transform="scale(1,-1)" d="M284 -91c0 37 -28 92 -67 92c-35 0 -65 -54 -65 -111c0 -52 22 -104 68 -104c47 0 64 68 64 123zM230 214c-36 0 -90 -33 -90 -184l2 -36c40 24 81 36 120 36c80 0 140 -48 140 -121c0 -99 -99 -159 -182 -159c-160 0 -200 173 -200 244c0 21 2 43 7 71l10 35 c26 85 73 115 98 126c41 19 74 24 103 24c93 0 142 -63 142 -105c0 -58 -52 -72 -73 -72c-33 0 -59 24 -65 35c-3 5 -6 14 -7 25l11 30c6 15 9 27 9 35c0 11 -9 16 -25 16z"/></g><g id="E088-zufsim1"><path transform="scale(1,-1)" d="M195 -214c76 0 88 58 90 68c0 34 -35 60 -57 73l-52 29c-21 10 -32 17 -34 20c-39 -33 -58 -54 -62 -92c5 -23 23 -98 115 -98zM301 135c0 61 -72 76 -113 76c-40 0 -77 -17 -77 -51c3 -21 15 -38 26 -50c17 -15 33 -26 48 -34l65 -28c34 27 51 56 51 87zM176 -250 c-57 0 -166 26 -166 132c0 47 30 86 89 116c-33 15 -79 60 -79 119c0 79 85 132 178 132h18c5 0 21 1 28 -1c25 0 126 -30 126 -110c0 -37 -23 -76 -69 -116c43 -25 83 -71 83 -119c0 -101 -118 -153 -208 -153z"/></g><g id="E4E3-zufsim1"><path transform="scale(1,-1)" d="M0 -115v105c0 9 1 10 10 10h280c9 0 10 -1 10 -10v-105c0 -9 -1 -10 -10 -10h-280c-9 0 -10 1 -10 10z"/></g><g id="E0A4-zufsim1"><path transform="scale(1,-1)" d="M0 -39c0 68 73 172 200 172c66 0 114 -37 114 -95c0 -84 -106 -171 -218 -171c-64 0 -96 30 -96 94z"/></g><g id="E261-zufsim1"><path transform="scale(1,-1)" d="M0 -188v539h18v-191l139 22v-533h-17v186zM18 -100l122 17v176l-122 -19v-174z"/></g></defs><style type="text/css">#zufsim1 g.page-margin {font-family:Times,serif;}#zufsim1 g.ending, #zufsim1 g.fing, #zufsim1 g.reh, #zufsim1 g.tempo {font-weight:bold;}#zufsim1 g.dir, #zufsim1 g.dynam, #zufsim1 g.mNum {font-style:italic;}#zufsim1 g.label {font-weight:normal;}#zufsim1 path {stroke:currentColor}</style><svg class="definition-scale" color="black" viewBox="0 0 14000 2100"><g class="page-margin" transform="translate(0, 150)"><g data-id="y1et1yl4" data-class="mdiv" class="mdiv pageMilestone"/><g data-id="z1jfwdgy" data-class="score" class="score pageMilestone"/><g data-id="rrhmefk" data-class="system" class="system"><g data-id="b1vgnsla" data-class="section" class="section systemMilestone"/><g data-id="ak4n9cm" data-class="measure" class="measure"><g data-id="n13h2j49" data-class="staff" class="staff"><path d="M0 540 L2864 540" stroke-width="13"/><path d="M0 720 L2864 720" stroke-width="13"/><path d="M0 900 L2864 900" stroke-width="13"/><path d="M0 1080 L2864 1080" stroke-width="13"/><path d="M0 1260 L2864 1260" stroke-width="13"/><g data-id="yjxdcn3" data-class="clef" class="clef"><use href="#E050-zufsim1" transform="translate(90, 1080) scale(0.72, 0.72)"/></g><g data-id="z14udgc8" data-class="keySig" class="keySig"><g data-id="agt8dfh" data-class="keyAccid" class="keyAccid"><use href="#E262-zufsim1" transform="translate(735, 540) scale(0.72, 0.72)"/></g></g><g data-id="bjgppol" data-class="meterSig" class="meterSig"><use href="#E086-zufsim1" transform="translate(1042, 720) scale(0.72, 0.72)"/><use href="#E088-zufsim1" transform="translate(1049, 1080) scale(0.72, 0.72)"/></g><g data-id="o1kw6792" data-class="layer" class="layer"><g data-id="blcsiji" data-class="mRest" class="mRest"><use href="#E4E3-zufsim1" transform="translate(2021, 720) scale(0.72, 0.72)"/></g></g></g><g data-id="ihxqlxj" data-class="barLine" class="barLine"><path d="M2851 540 L2851 1260" stroke-width="27"/></g></g><g data-id="j1h2b5ks" data-class="measure" class="measure"><g data-id="ponm3mk" data-class="staff" class="staff"><path d="M2864 540 L4307 540" stroke-width="13"/><path d="M2864 720 L4307 720" stroke-width="13"/><path d="M2864 900 L4307 900" stroke-width="13"/><path d="M2864 1080 L4307 1080" stroke-width="13"/><path d="M2864 1260 L4307 1260" stroke-width="13"/><g data-id="q1897djq" data-class="layer" class="layer"><g data-id="clwx9cy" data-class="mRest" class="mRest"><use href="#E4E3-zufsim1" transform="translate(3464, 720) scale(0.72, 0.72)"/></g></g></g><g data-id="r3gl5wb" data-class="barLine" class="barLine"><path d="M4294 540 L4294 1260" stroke-width="27"/></g></g><g data-id="srwzb3w" data-class="measure" class="measure"><g data-id="r1i2nb7p" data-class="staff" class="staff"><path d="M4307 540 L9394 540" stroke-width="13"/><path d="M4307 720 L9394 720" stroke-width="13"/><path d="M4307 900 L9394 900" stroke-width="13"/><path d="M4307 1080 L9394 1080" stroke-width="13"/><path d="M4307 1260 L9394 1260" stroke-width="13"/><g data-id="sigwaeb" data-class="layer" class="layer"><g data-id="v1b4pqow" data-class="beam" class="beam"><polygon stroke-opacity="1" fill-opacity="1" points="4695,540 6823,360 6823,450 4695,630"/><polygon stroke-opacity="1" fill-opacity="1" points="4695,675 5178,635 5178,725 4695,765"/><polygon stroke-opacity="1" fill-opacity="1" points="5178,635 5680,592 5680,682 5178,725"/><polygon stroke-opacity="1" fill-opacity="1" points="5680,592 5996,565 5996,655 5680,682"/><polygon stroke-opacity="1" fill-opacity="1" points="5996,565 6498,522 6498,612 5996,655"/><polygon stroke-opacity="1" fill-opacity="1" points="6498,522 6823,495 6823,585 6498,612"/><g data-id="d1omzvwf" data-class="note" class="note"><g data-class="notehead" class="notehead"><use href="#E0A4-zufsim1" transform="translate(4487, 1260) scale(0.72, 0.72)"/></g><g data-id="e1tc4yeq" data-class="stem" class="stem"><path d="M4704 1232 L4704 558" stroke-width="18"/></g></g><g data-id="euc7jhf" data-class="note" class="note"><g data-class="notehead" class="notehead"><use href="#E0A4-zufsim1" transform="translate(4961, 1170) scale(0.72, 0.72)"/></g><g data-id="f1taqpzc" data-class="stem" class="stem"><path d="M5178 1142 L5178 518" stroke-width="18"/></g><g data-id="p8x0xe7" data-class="accid" class="accid"><use href="#E261-zufsim1" transform="translate(4803, 1170) scale(0.72, 0.72)"/></g></g><g data-id="fgjetqt" data-class="note" class="note"><g data-class="notehead" class="notehead"><use href="#E0A4-zufsim1" transform="translate(5463, 1170) scale(0.72, 0.72)"/></g><g data-id="gm1q01a" data-class="stem" class="stem"><path d="M5680 1142 L5680 475" stroke-width="18"/></g><g data-id="q18dunqk" data-class="accid" class="accid"><use href="#E262-zufsim1" transform="translate(5277, 1170) scale(0.72, 0.72)"/></g></g><g data-id="gtoi5xt" data-class="note" class="note"><g data-class="notehead" class="notehead"><use href="#E0A4-zufsim1" transform="translate(5779, 1080) scale(0.72, 0.72)"/></g><g data-id="hrhpscc" data-class="stem" class="stem"><path d="M5996 1052 L5996 448" stroke-width="18"/></g></g><g data-id="h11kqelw" data-class="note" class="note"><g data-class="notehead" class="notehead"><use href="#E0A4-zufsim1" transform="translate(6281, 1080) scale(0.72, 0.72)"/></g><g data-id="i1w73ins" data-class="stem" class="stem"><path d="M6498 1052 L6498 405" stroke-width="18"/></g><g data-id="rtiagl2" data-class="accid" class="accid"><use href="#E262-zufsim1" transform="translate(6095, 1080) scale(0.72, 0.72)"/></g></g><g data-id="ia3swfx" data-class="note" class="note"><g data-class="notehead" class="notehead"><use href="#E0A4-zufsim1" transform="translate(6597, 990) scale(0.72, 0.72)"/></g><g data-id="j9cwn2a" data-class="stem" class="stem"><path d="M6814 962 L6814 378" stroke-width="18"/></g></g></g><g data-id="wm43rmg" data-class="beam" class="beam"><polygon stroke-opacity="1" fill-opacity="1" points="7099,1620 9069,1440 9069,1350 7099,1530"/><polygon stroke-opacity="1" fill-opacity="1" points="7099,1485 7424,1455 7424,1365 7099,1395"/><polygon stroke-opacity="1" fill-opacity="1" points="7424,1455 7740,1426 7740,1336 7424,1365"/><polygon stroke-opacity="1" fill-opacity="1" points="7740,1426 8242,1380 8242,1290 7740,1336"/><polygon stroke-opacity="1" fill-opacity="1" points="8242,1380 8558,1351 8558,1261 8242,1290"/><polygon stroke-opacity="1" fill-opacity="1" points="8558,1351 9069,1305 9069,1215 8558,1261"/><g data-id="jvplzhq" data-class="note" class="note"><g data-class="notehead" class="notehead"><use href="#E0A4-zufsim1" transform="translate(7099, 990) scale(0.72, 0.72)"/></g><g data-id="k1bzobyh" data-class="stem" class="stem"><path d="M7108 1018 L7108 1602" stroke-width="18"/></g><g data-id="s18c4rwg" data-class="accid" class="accid"><use href="#E262-zufsim1" transform="translate(6913, 990) scale(0.72, 0.72)"/></g></g><g data-id="ktg76mp" data-class="note" class="note"><g data-class="notehead" class="notehead"><use href="#E0A4-zufsim1" transform="translate(7415, 900) scale(0.72, 0.72)"/></g><g data-id="lrcovtv" data-class="stem" class="stem"><path d="M7424 928 L7424 1572" stroke-width="18"/></g></g><g data-id="lyj7gkd" data-class="note" class="note"><g data-class="notehead" class="notehead"><use href="#E0A4-zufsim1" transform="translate(7731, 810) scale(0.72, 0.72)"/></g><g data-id="m1qvcrqf" data-class="stem" class="stem"><path d="M7740 838 L7740 1543" stroke-width="18"/></g></g><g data-id="m1dzyock" data-class="note" class="note"><g data-class="notehead" class="notehead"><use href="#E0A4-zufsim1" transform="translate(8233, 810) scale(0.72, 0.72)"/></g><g data-id="nbccilz" data-class="stem" class="stem"><path d="M8242 838 L8242 1497" stroke-width="18"/></g><g data-id="tzih0rf" data-class="accid" class="accid"><use href="#E262-zufsim1" transform="translate(8047, 810) scale(0.72, 0.72)"/></g></g><g data-id="nzih750" data-class="note" class="note"><g data-class="notehead" class="notehead"><use href="#E0A4-zufsim1" transform="translate(8549, 720) scale(0.72, 0.72)"/></g><g data-id="o19jd1cv" data-class="stem" class="stem"><path d="M8558 748 L8558 1468" stroke-width="18"/></g></g><g data-id="o5mhmt7" data-class="note" class="note"><g data-class="notehead" class="notehead"><use href="#E0A4-zufsim1" transform="translate(9051, 720) scale(0.72, 0.72)"/></g><g data-id="p1ei466t" data-class="stem" class="stem"><path d="M9060 748 L9060 1422" stroke-width="18"/></g><g data-id="u1xdxa7u" data-class="accid" class="accid"><use href="#E262-zufsim1" transform="translate(8865, 720) scale(0.72, 0.72)"/></g></g></g></g></g><g data-id="a1kmax1e" data-class="barLine" class="barLine"><path d="M9381 540 L9381 1260" stroke-width="27"/></g></g><g data-id="a1qs21m2" data-class="systemMilestoneEnd" class="systemMilestoneEnd b1vgnsla"/></g><g data-id="b11ydtyi" data-class="pageMilestoneEnd" class="pageMilestoneEnd z1jfwdgy"/><g data-id="c1octv6o" data-class="pageMilestoneEnd" class="pageMilestoneEnd y1et1yl4"/></g></svg></svg>