<svg viewBox="0 0 560 84" version="1.1" xmlns="http://www.w3.org/2000/svg" xmlns:xlink="http://www.w3.org/1999/xlink" overflow="visible" id="r114i88"><desc>Engraved by Verovio 5.6.0-85e7620</desc><defs><g id="E050-r114i88"><path transform="scale(1,-1)" d="M441 -245c-23 -4 -48 -6 -76 -6c-59 0 -102 7 -130 20c-88 42 -150 93 -187 154c-26 44 -43 103 -48 176c0 6 -1 13 -1 19c0 54 15 111 45 170c29 57 65 106 110 148s96 85 153 127c-3 16 -8 46 -13 92c-4 43 -5 73 -5 89c0 117 16 172 69 257c34 54 64 82 89 82 c21 0 43 -30 69 -92s39 -115 41 -159v-15c0 -109 -21 -162 -67 -241c-13 -20 -63 -90 -98 -118c-13 -9 -25 -19 -37 -29l31 -181c8 1 18 2 28 2c58 0 102 -12 133 -35c59 -43 92 -104 98 -184c1 -7 1 -15 1 -22c0 -123 -87 -209 -181 -248c8 -57 17 -110 25 -162 c5 -31 6 -58 6 -80c0 -30 -5 -53 -14 -70c-35 -64 -88 -99 -158 -103c-5 0 -11 -1 -16 -1c-37 0 -72 10 -108 27c-50 24 -77 59 -80 105v11c0 29 7 55 20 76c18 28 45 42 79 44h6c49 0 93 -42 97 -87v-9c0 -51 -34 -86 -105 -106c17 -24 51 -36 102 -36c62 0 116 43 140 85 c9 16 13 41 13 74c0 20 -1 42 -5 67c-8 53 -18 106 -26 159zM461 939c-95 0 -135 -175 -135 -286c0 -24 2 -48 5 -71c50 39 92 82 127 128c40 53 60 100 60 140v8c-4 53 -22 81 -55 81h-2zM406 119l54 -326c73 25 110 78 110 161c0 7 0 15 -1 23c-7 95 -57 142 -151 142h-12 zM382 117c-72 -2 -128 -47 -128 -120v-7c2 -46 43 -99 75 -115c-3 -2 -7 -5 -10 -10c-70 33 -116 88 -123 172v11c0 68 44 126 88 159c23 17 49 29 78 36l-29 170c-21 -13 -52 -37 -92 -73c-50 -44 -86 -84 -109 -119c-45 -69 -67 -130 -67 -182v-13c5 -68 35 -127 93 -176 s125 -73 203 -73c25 0 50 3 75 9c-19 111 -36 221 -54 331z"/></g><g id="E260-r114i88"><path transform="scale(1,-1)" d="M20 110c32 16 54 27 93 27c26 0 35 -3 54 -13c13 -7 24 -20 27 -38l4 -25c0 -28 -16 -57 -45 -89c-23 -25 -39 -44 -65 -68l-88 -79v644h20v-359zM90 106c-32 0 -48 -10 -70 -29v-194c31 31 54 59 71 84c21 32 32 59 32 84c0 9 1 16 1 20c0 14 -3 21 -11 30l-8 3z"/></g><g id="E08A-r114i88"><path transform="scale(1,-1)" d="M340 179c-9 24 -56 41 -89 41c-46 0 -81 -28 -100 -58c-17 -28 -25 -78 -25 -150c0 -65 2 -111 8 -135c8 -31 18 -49 40 -67c20 -17 43 -25 70 -25c54 0 92 36 115 75c14 25 23 54 28 88h27c0 -63 -24 -105 -58 -141c-35 -38 -82 -56 -140 -56c-45 0 -83 13 -115 39 c-57 45 -101 130 -101 226c0 59 33 127 68 163c36 37 97 72 160 72c36 0 93 -21 121 -40c11 -8 23 -17 33 -30c19 -23 27 -48 27 -76c0 -51 -35 -88 -86 -88c-43 0 -76 27 -76 68c0 26 7 35 21 51c15 17 32 27 58 32c7 2 14 7 14 11z"/></g><g id="E0A4-r114i88"><path transform="scale(1,-1)" d="M0 -39c0 68 73 172 200 172c66 0 114 -37 114 -95c0 -84 -106 -171 -218 -171c-64 0 -96 30 -96 94z"/></g><g id="E241-r114i88"><path transform="scale(1,-1)" d="M179 646c-4 8 -17 30 -18 33l-4 10c0 3 2 5 5 5s7 -2 13 -7c23 -33 46 -81 66 -132c22 -57 35 -125 35 -163c0 -104 -60 -183 -122 -241c-63 -59 -57 -53 -61 -56c-38 -34 -63 -95 -71 -95h-22v190c40 7 69 11 87 16c88 27 168 95 168 200c0 30 -12 89 -30 138 c-17 47 -31 73 -46 102z"/></g><g id="E240-r114i88"><path transform="scale(1,-1)" d="M179 -646c15 29 29 55 46 102c18 49 30 108 30 138c0 105 -80 173 -168 200c-18 5 -47 9 -87 16v190h22c8 0 33 -61 71 -95c4 -3 -2 3 61 -56c62 -58 122 -137 122 -241c0 -38 -13 -106 -35 -163c-20 -51 -43 -99 -66 -132c-6 -5 -10 -7 -13 -7s-5 2 -5 5l4 10 c1 3 14 25 18 33z"/></g></defs><style type="text/css">#r114i88 g.page-margin {font-family:Times,serif;}#r114i88 g.ending, #r114i88 g.fing, #r114i88 g.reh, #r114i88 g.tempo {font-weight:bold;}#r114i88 g.dir, #r114i88 g.dynam, #r114i88 g.mNum {font-style:italic;}#r114i88 g.label {font-weight:normal;}#r114i88 path {stroke:currentColor}</style><svg class="definition-scale" color="black" viewBox="0 0 14000 2100"><g class="page-margin" transform="translate(0, 150)"><g data-id="d1j9bqcv" data-class="mdiv" class="mdiv pageMilestone"/><g data-id="e13n850i" data-class="score" class="score pageMilestone"/><g data-id="d1q6sylz" data-class="system" class="system"><g data-id="gnxv6gx" data-class="section" class="section systemMilestone"/><g data-id="s13en1by" data-class="measure" class="measure"><g data-id="sfpb6j9" data-class="staff" class="staff"><path d="M0 540 L3354 540" stroke-width="13"/><path d="M0 720 L3354 720" stroke-width="13"/><path d="M0 900 L3354 900" stroke-width="13"/><path d="M0 1080 L3354 1080" stroke-width="13"/><path d="M0 1260 L3354 1260" stroke-width="13"/><g data-id="z15b8664" data-class="clef" class="clef"><use href="#E050-r114i88" transform="translate(90, 1080) scale(0.72, 0.72)"/></g><g data-id="a1sf8ial" data-class="keySig" class="keySig"><g data-id="bdppf80" data-class="keyAccid" class="keyAccid"><use href="#E260-r114i88" transform="translate(735, 900) scale(0.72, 0.72)"/></g></g><g data-id="cywcqgj" data-class="meterSig" class="meterSig"><use href="#E08A-r114i88" transform="translate(1057, 900) scale(0.72, 0.72)"/></g><g data-id="t1h1kr6x" data-class="layer" class="layer"><g data-id="l15hsxaq" data-class="note" class="note"><g data-class="notehead" class="notehead"><use href="#E0A4-r114i88" transform="translate(1637, 1170) scale(0.72, 0.72)"/></g><g data-id="n1244ykc" data-class="stem" class="stem"><path d="M1854 1142 L1854 540" stroke-width="18"/></g></g><g data-id="mtknvc7" data-class="note" class="note"><g data-class="notehead" class="notehead"><use href="#E0A4-r114i88" transform="translate(2489, 990) scale(0.72, 0.72)"/></g><g data-id="op2wuu9" data-class="stem" class="stem"><path d="M2706 962 L2706 360" stroke-width="18"/></g></g></g></g><g data-id="ak15wxx" data-class="barLine" class="barLine"><path d="M3341 540 L3341 1260" stroke-width="27"/></g></g><g data-id="b1r37fdb" data-class="measure" class="measure"><g data-id="u1lqmzm3" data-class="staff" class="staff"><path d="M3354 540 L6841 540" stroke-width="13"/><path d="M3354 720 L6841 720" stroke-width="13"/><path d="M3354 900 L6841 900" stroke-width="13"/><path d="M3354 1080 L6841 1080" stroke-width="13"/><path d="M3354 1260 L6841 1260" stroke-width="13"/><g data-id="v19lsfri" data-class="layer" class="layer"><g data-id="njjdmkb" data-class="note" class="note"><g data-class="notehead" class="notehead"><use href="#E0A4-r114i88" transform="translate(3546, 810) scale(0.72, 0.72)"/></g><g data-id="q75g1ng" data-class="dots" class="dots"><ellipse cx="3862" cy="810" rx="36" ry="36" fill-opacity="1" stroke-opacity="1"/></g><g data-id="p9x9f89" data-class="stem" class="stem"><path d="M3555 838 L3555 1440" stroke-width="18"/></g></g><g data-id="o158aga6" data-class="note" class="note"><g data-class="notehead" class="notehead"><use href="#E0A4-r114i88" transform="translate(4632, 810) scale(0.72, 0.72)"/></g><g data-id="r5gdfz3" data-class="stem" class="stem"><path d="M4641 838 L4641 1440" stroke-width="18"/><g data-id="s3k7wsd" data-class="flag" class="flag"><use href="#E241-r114i88" transform="translate(4632, 1440) scale(0.72, 0.72)"/></g></g></g><g data-id="phfdfkx" data-class="note" class="note"><g data-class="notehead" class="notehead"><use href="#E0A4-r114i88" transform="translate(5187, 720) scale(0.72, 0.72)"/></g><g data-id="uk20f9o" data-class="dots" class="dots"><ellipse cx="5503" cy="630" rx="36" ry="36" fill-opacity="1" stroke-opacity="1"/></g><g data-id="t146pfgz" data-class="stem" class="stem"><path d="M5196 748 L5196 1350" stroke-width="18"/></g></g><g data-id="qr7dyan" data-class="note" class="note"><g data-class="notehead" class="notehead"><use href="#E0A4-r114i88" transform="translate(6273, 720) scale(0.72, 0.72)"/></g><g data-id="vhu1ort" data-class="stem" class="stem"><path d="M6282 748 L6282 1350" stroke-width="18"/><g data-id="wtvgb7e" data-class="flag" class="flag"><use href="#E241-r114i88" transform="translate(6273, 1350) scale(0.72, 0.72)"/></g></g></g></g></g><g data-id="jx7m042" data-class="barLine" class="barLine"><path d="M6828 540 L6828 1260" stroke-width="27"/></g></g><g data-id="kstngim" data-class="measure" class="measure"><g data-id="w1sda1tm" data-class="staff" class="staff"><path d="M6841 540 L10453 540" stroke-width="13"/><path d="M6841 720 L10453 720" stroke-width="13"/><path d="M6841 900 L10453 900" stroke-width="13"/><path d="M6841 1080 L10453 1080" stroke-width="13"/><path d="M6841 1260 L10453 1260" stroke-width="13"/><g data-id="x7f8lr9" data-class="layer" class="layer"><g data-id="r1dppslw" data-class="note" class="note"><g data-class="notehead" class="notehead"><use href="#E0A4-r114i88" transform="translate(7033, 720) scale(0.72, 0.72)"/></g><g data-id="xonduy8" data-class="stem" class="stem"><path d="M7042 748 L7042 1350" stroke-width="18"/></g></g><g data-id="s10vqisy" data-class="note" class="note"><g data-class="notehead" class="notehead"><use href="#E0A4-r114i88" transform="translate(7885, 810) scale(0.72, 0.72)"/></g><g data-id="y169v3hu" data-class="stem" class="stem"><path d="M7894 838 L7894 1440" stroke-width="18"/></g></g><g data-id="tsvb2zn" data-class="note" class="note"><g data-class="notehead" class="notehead"><use href="#E0A4-r114i88" transform="translate(8737, 1170) scale(0.72, 0.72)"/></g><g data-id="z6v3llg" data-class="stem" class="stem"><path d="M8954 1142 L8954 540" stroke-width="18"/></g></g><g data-id="ucwm3pv" data-class="note" class="note"><g data-class="notehead" class="notehead"><use href="#E0A4-r114i88" transform="translate(9588, 990) scale(0.72, 0.72)"/></g><g data-id="alizrfs" data-class="stem" class="stem"><path d="M9805 962 L9805 360" stroke-width="18"/></g></g></g></g><g data-id="s9mq5wo" data-class="barLine" class="barLine"><path d="M10440 540 L10440 1260" stroke-width="27"/></g></g><g data-id="t1fbohjf" data-class="measure" class="measure"><g data-id="ybd7o1o" data-class="staff" class="staff"><path d="M10453 540 L14002 540" stroke-width="13"/><path d="M10453 720 L14002 720" stroke-width="13"/><path d="M10453 900 L14002 900" stroke-width="13"/><path d="M10453 1080 L14002 1080" stroke-width="13"/><path d="M10453 1260 L14002 1260" stroke-width="13"/><g data-id="z14qctie" data-class="layer" class="layer"><g data-id="v10jydqc" data-class="note" class="note"><g data-class="notehead" class="notehead"><use href="#E0A4-r114i88" transform="translate(10645, 810) scale(0.72, 0.72)"/></g><g data-id="c1pihyg8" data-class="dots" class="dots"><ellipse cx="10961" cy="810" rx="36" ry="36" fill-opacity="1" stroke-opacity="1"/></g><g data-id="btcvu5l" data-class="stem" class="stem"><path d="M10654 838 L10654 1440" stroke-width="18"/></g></g><g data-id="w4cb5uz" data-class="note" class="note"><g data-class="notehead" class="notehead"><use href="#E0A4-r114i88" transform="translate(11731, 990) scale(0.72, 0.72)"/></g><g data-id="d1cq6kbh" data-class="stem" class="stem"><path d="M11948 962 L11948 360" stroke-width="18"/><g data-id="e3fe9h1" data-class="flag" class="flag"><use href="#E240-r114i88" transform="translate(11939, 360) scale(0.72, 0.72)"/></g></g></g><g data-id="x1cqzwt6" data-class="note" class="note"><g data-class="notehead" class="notehead"><use href="#E0A4-r114i88" transform="translate(12286, 990) scale(0.72, 0.72)"/></g><g data-id="f1yt32c5" data-class="stem" class="stem"><path d="M12503 962 L12503 360" stroke-width="18"/></g></g><g data-id="ytp0j47" data-class="note" class="note"><g data-class="notehead" class="notehead"><use href="#E0A4-r114i88" transform="translate(13138, 1170) scale(0.72, 0.72)"/></g><g data-id="g9a8k3y" data-class="stem" class="stem"><path d="M13355 1142 L13355 540" stroke-width="18"/></g></g></g></g><g data-id="b1vvj2be" data-class="barLine" class="barLine"><path d="M13989 540 L13989 1260" stroke-width="27"/></g></g></g></g></svg></svg>