<svg viewBox="0 0 560 84" version="1.1" xmlns="http://www.w3.org/2000/svg" xmlns:xlink="http://www.w3.org/1999/xlink" overflow="visible" id="x1vhfrto"><desc>Engraved by Verovio 5.6.0-85e7620</desc><defs><g id="E050-x1vhfrto"><path transform="scale(1,-1)" d="M441 -245c-23 -4 -48 -6 -76 -6c-59 0 -102 7 -130 20c-88 42 -150 93 -187 154c-26 44 -43 103 -48 176c0 6 -1 13 -1 19c0 54 15 111 45 170c29 57 65 106 110 148s96 85 153 127c-3 16 -8 46 -13 92c-4 43 -5 73 -5 89c0 117 16 172 69 257c34 54 64 82 89 82 c21 0 43 -30 69 -92s39 -115 41 -159v-15c0 -109 -21 -162 -67 -241c-13 -20 -63 -90 -98 -118c-13 -9 -25 -19 -37 -29l31 -181c8 1 18 2 28 2c58 0 102 -12 133 -35c59 -43 92 -104 98 -184c1 -7 1 -15 1 -22c0 -123 -87 -209 -181 -248c8 -57 17 -110 25 -162 c5 -31 6 -58 6 -80c0 -30 -5 -53 -14 -70c-35 -64 -88 -99 -158 -103c-5 0 -11 -1 -16 -1c-37 0 -72 10 -108 27c-50 24 -77 59 -80 105v11c0 29 7 55 20 76c18 28 45 42 79 44h6c49 0 93 -42 97 -87v-9c0 -51 -34 -86 -105 -106c17 -24 51 -36 102 -36c62 0 116 43 140 85 c9 16 13 41 13 74c0 20 -1 42 -5 67c-8 53 -18 106 -26 159zM461 939c-95 0 -135 -175 -135 -286c0 -24 2 -48 5 -71c50 39 92 82 127 128c40 53 60 100 60 140v8c-4 53 -22 81 -55 81h-2zM406 119l54 -326c73 25 110 78 110 161c0 7 0 15 -1 23c-7 95 -57 142 -151 142h-12 zM382 117c-72 -2 -128 -47 -128 -120v-7c2 -46 43 -99 75 -115c-3 -2 -7 -5 -10 -10c-70 33 -116 88 -123 172v11c0 68 44 126 88 159c23 17 49 29 78 36l-29 170c-21 -13 -52 -37 -92 -73c-50 -44 -86 -84 -109 -119c-45 -69 -67 -130 -67 -182v-13c5 -68 35 -127 93 -176 s125 -73 203 -73c25 0 50 3 75 9c-19 111 -36 221 -54 331z"/></g><g id="E260-x1vhfrto"><path transform="scale(1,-1)" d="M20 110c32 16 54 27 93 27c26 0 35 -3 54 -13c13 -7 24 -20 27 -38l4 -25c0 -28 -16 -57 -45 -89c-23 -25 -39 -44 -65 -68l-88 -79v644h20v-359zM90 106c-32 0 -48 -10 -70 -29v-194c31 31 54 59 71 84c21 32 32 59 32 84c0 9 1 16 1 20c0 14 -3 21 -11 30l-8 3z"/></g><g id="E08A-x1vhfrto"><path transform="scale(1,-1)" d="M340 179c-9 24 -56 41 -89 41c-46 0 -81 -28 -100 -58c-17 -28 -25 -78 -25 -150c0 -65 2 -111 8 -135c8 -31 18 -49 40 -67c20 -17 43 -25 70 -25c54 0 92 36 115 75c14 25 23 54 28 88h27c0 -63 -24 -105 -58 -141c-35 -38 -82 -56 -140 -56c-45 0 -83 13 -115 39 c-57 45 -101 130 -101 226c0 59 33 127 68 163c36 37 97 72 160 72c36 0 93 -21 121 -40c11 -8 23 -17 33 -30c19 -23 27 -48 27 -76c0 -51 -35 -88 -86 -88c-43 0 -76 27 -76 68c0 26 7 35 21 51c15 17 32 27 58 32c7 2 14 7 14 11z"/></g><g id="E0A3-x1vhfrto"><path transform="scale(1,-1)" d="M278 64c0 22 -17 39 -43 39c-12 0 -26 -3 -41 -10c-85 -43 -165 -94 -165 -156c5 -25 15 -32 49 -32c67 11 200 95 200 159zM0 -36c0 68 73 174 200 174c66 0 114 -39 114 -97c0 -84 -106 -173 -218 -173c-64 0 -96 32 -96 96z"/></g><g id="E0A2-x1vhfrto"><path transform="scale(1,-1)" d="M198 133c102 0 207 -45 207 -133c0 -92 -118 -133 -227 -133c-101 0 -178 46 -178 133c0 88 93 133 198 133zM293 -21c0 14 -3 29 -8 44c-7 20 -18 38 -33 54c-20 21 -43 31 -68 31l-20 -2c-15 -5 -27 -14 -36 -28c-4 -9 -6 -17 -8 -24s-3 -16 -3 -27c0 -15 3 -34 9 -57 s18 -41 34 -55c15 -15 36 -23 62 -23c4 0 10 1 18 2c19 5 32 15 40 30s13 34 13 55z"/></g><g id="E4C0-x1vhfrto"><path transform="scale(1,-1)" d="M0 0c0 0 40 320 300 320s300 -320 300 -320h-32s-38 227 -268 227s-268 -227 -268 -227h-32zM355 52c0 -30 -25 -55 -55 -55s-55 25 -55 55s25 55 55 55s55 -25 55 -55z"/></g></defs><style type="text/css">#x1vhfrto g.page-margin {font-family:Times,serif;}#x1vhfrto g.ending, #x1vhfrto g.fing, #x1vhfrto g.reh, #x1vhfrto g.tempo {font-weight:bold;}#x1vhfrto g.dir, #x1vhfrto g.dynam, #x1vhfrto g.mNum {font-style:italic;}#x1vhfrto g.label {font-weight:normal;}#x1vhfrto path {stroke:currentColor}</style><svg class="definition-scale" color="black" viewBox="0 0 14000 2100"><g class="page-margin" transform="translate(0, 150)"><g data-id="o1eub4cx" data-class="mdiv" class="mdiv pageMilestone"/><g data-id="p1y6io8g" data-class="score" class="score pageMilestone"/><g data-id="chks9hh" data-class="system" class="system"><g data-id="r1cfmqbh" data-class="section" class="section systemMilestone"/><g data-id="y89hcwv" data-class="measure" class="measure"><g data-id="duno0s1" data-class="staff" class="staff"><path d="M0 540 L4359 540" stroke-width="13"/><path d="M0 720 L4359 720" stroke-width="13"/><path d="M0 900 L4359 900" stroke-width="13"/><path d="M0 1080 L4359 1080" stroke-width="13"/><path d="M0 1260 L4359 1260" stroke-width="13"/><g data-id="g1p4sxto" data-class="clef" class="clef"><use href="#E050-x1vhfrto" transform="translate(90, 1080) scale(0.72, 0.72)"/></g><g data-id="hicj6r4" data-class="keySig" class="keySig"><g data-id="i17bptma" data-class="keyAccid" class="keyAccid"><use href="#E260-x1vhfrto" transform="translate(735, 900) scale(0.72, 0.72)"/></g><g data-id="j1btw1or" data-class="keyAccid" class="keyAccid"><use href="#E260-x1vhfrto" transform="translate(915, 630) scale(0.72, 0.72)"/></g><g data-id="kk57xff" data-class="keyAccid" class="keyAccid"><use href="#E260-x1vhfrto" transform="translate(1095, 990) scale(0.72, 0.72)"/></g></g><g data-id="lobu00f" data-class="meterSig" class="meterSig"><use href="#E08A-x1vhfrto" transform="translate(1417, 900) scale(0.72, 0.72)"/></g><g data-id="e1nqpsq3" data-class="layer" class="layer"><g data-id="sm8aem6" data-class="note" class="note"><g data-class="notehead" class="notehead"><use href="#E0A3-x1vhfrto" transform="translate(1996, 1080) scale(0.72, 0.72)"/></g><g data-id="g8973lp" data-class="stem" class="stem"><path d="M2213 1052 L2213 450" stroke-width="18"/></g></g><g data-id="t1rbn91h" data-class="note" class="note"><g data-class="notehead" class="notehead"><use href="#E0A3-x1vhfrto" transform="translate(3171, 1080) scale(0.72, 0.72)"/></g><g data-id="h2v7uwf" data-class="stem" class="stem"><path d="M3388 1052 L3388 450" stroke-width="18"/></g></g></g></g><g data-id="gcmd738" data-class="barLine" class="barLine"><path d="M4346 540 L4346 1260" stroke-width="27"/></g></g><g data-id="h1hrqecw" data-class="measure" class="measure"><g data-id="fejl1hj" data-class="staff" class="staff"><path d="M4359 540 L6913 540" stroke-width="13"/><path d="M4359 720 L6913 720" stroke-width="13"/><path d="M4359 900 L6913 900" stroke-width="13"/><path d="M4359 1080 L6913 1080" stroke-width="13"/><path d="M4359 1260 L6913 1260" stroke-width="13"/><g data-id="g1ng5cvv" data-class="layer" class="layer"><g data-id="u14bp25s" data-class="note" class="note"><g data-class="notehead" class="notehead"><use href="#E0A3-x1vhfrto" transform="translate(4550, 810) scale(0.72, 0.72)"/></g><g data-id="iz5am9w" data-class="stem" class="stem"><path d="M4559 835 L4559 1440" stroke-width="18"/></g></g><g data-id="v5z7b0s" data-class="note" class="note"><g data-class="notehead" class="notehead"><use href="#E0A3-x1vhfrto" transform="translate(5725, 720) scale(0.72, 0.72)"/></g><g data-id="j1ncyylc" data-class="stem" class="stem"><path d="M5734 745 L5734 1350" stroke-width="18"/></g></g></g></g><g data-id="p1aizq75" data-class="barLine" class="barLine"><path d="M6900 540 L6900 1260" stroke-width="27"/></g></g><g data-id="q15hozun" data-class="measure" class="measure"><g data-id="h2u2alv" data-class="staff" class="staff"><path d="M6913 540 L9467 540" stroke-width="13"/><path d="M6913 720 L9467 720" stroke-width="13"/><path d="M6913 900 L9467 900" stroke-width="13"/><path d="M6913 1080 L9467 1080" stroke-width="13"/><path d="M6913 1260 L9467 1260" stroke-width="13"/><g data-id="i59dyyf" data-class="layer" class="layer"><g data-id="w1157w7" data-class="note" class="note"><g data-class="notehead" class="notehead"><use href="#E0A3-x1vhfrto" transform="translate(7104, 630) scale(0.72, 0.72)"/></g><g data-id="k1qfz68q" data-class="stem" class="stem"><path d="M7113 655 L7113 1260" stroke-width="18"/></g><g data-id="jhqqa9q" data-class="accid" class="accid"/></g><g data-id="xkw9akn" data-class="note" class="note"><g data-class="notehead" class="notehead"><use href="#E0A3-x1vhfrto" transform="translate(8279, 630) scale(0.72, 0.72)"/></g><g data-id="l1mebbf5" data-class="stem" class="stem"><path d="M8288 655 L8288 1260" stroke-width="18"/></g><g data-id="k1xyaepo" data-class="accid" class="accid"/></g></g></g><g data-id="yvoegg8" data-class="barLine" class="barLine"><path d="M9454 540 L9454 1260" stroke-width="27"/></g></g><g data-id="z1rn7xr0" data-class="measure" class="measure"><g data-id="j1lqbtf8" data-class="staff" class="staff"><path d="M9467 540 L11450 540" stroke-width="13"/><path d="M9467 720 L11450 720" stroke-width="13"/><path d="M9467 900 L11450 900" stroke-width="13"/><path d="M9467 1080 L11450 1080" stroke-width="13"/><path d="M9467 1260 L11450 1260" stroke-width="13"/><g data-id="kpd4yjb" data-class="layer" class="layer"><g data-id="y1j982zu" data-class="note" class="note"><g data-class="notehead" class="notehead"><use href="#E0A2-x1vhfrto" transform="translate(9658, 720) scale(0.72, 0.72)"/></g></g></g></g><g data-id="h1w9isbz" data-class="fermata" class="fermata"><use href="#E4C0-x1vhfrto" transform="translate(9587, 493) scale(0.72, 0.72)"/></g><g data-id="hw22uxp" data-class="barLine" class="barLine"><path d="M11437 540 L11437 1260" stroke-width="27"/></g></g><g data-id="i1m7cgvq" data-class="measure" class="measure"><g data-id="l1jbmg20" data-class="staff" class="staff"><path d="M11450 540 L14004 540" stroke-width="13"/><path d="M11450 720 L14004 720" stroke-width="13"/><path d="M11450 900 L14004 900" stroke-width="13"/><path d="M11450 1080 L14004 1080" stroke-width="13"/><path d="M11450 1260 L14004 1260" stroke-width="13"/><g data-id="m1pmioo6" data-class="layer" class="layer"><g data-id="z5lm626" data-class="note" class="note"><g data-class="notehead" class="notehead"><use href="#E0A3-x1vhfrto" transform="translate(11641, 720) scale(0.72, 0.72)"/></g><g data-id="n1j5g9kk" data-class="stem" class="stem"><path d="M11650 745 L11650 1350" stroke-width="18"/></g></g><g data-id="a16gj0cv" data-class="note" class="note"><g data-class="notehead" class="notehead"><use href="#E0A3-x1vhfrto" transform="translate(12816, 630) scale(0.72, 0.72)"/></g><g data-id="od9lf86" data-class="stem" class="stem"><path d="M12825 655 L12825 1260" stroke-width="18"/></g><g data-id="lhxb7ya" data-class="accid" class="accid"/></g></g></g><g data-id="qron6sa" data-class="barLine" class="barLine"><path d="M13991 540 L13991 1260" stroke-width="27"/></g></g></g></g></svg></svg>