<svg viewBox="0 0 560 84" version="1.1" xmlns="http://www.w3.org/2000/svg" xmlns:xlink="http://www.w3.org/1999/xlink" overflow="visible" id="j1kcnbaf"><desc>Engraved by Verovio 5.6.0-85e7620</desc><defs><g id="E050-j1kcnbaf"><path transform="scale(1,-1)" d="M441 -245c-23 -4 -48 -6 -76 -6c-59 0 -102 7 -130 20c-88 42 -150 93 -187 154c-26 44 -43 103 -48 176c0 6 -1 13 -1 19c0 54 15 111 45 170c29 57 65 106 110 148s96 85 153 127c-3 16 -8 46 -13 92c-4 43 -5 73 -5 89c0 117 16 172 69 257c34 54 64 82 89 82 c21 0 43 -30 69 -92s39 -115 41 -159v-15c0 -109 -21 -162 -67 -241c-13 -20 -63 -90 -98 -118c-13 -9 -25 -19 -37 -29l31 -181c8 1 18 2 28 2c58 0 102 -12 133 -35c59 -43 92 -104 98 -184c1 -7 1 -15 1 -22c0 -123 -87 -209 -181 -248c8 -57 17 -110 25 -162 c5 -31 6 -58 6 -80c0 -30 -5 -53 -14 -70c-35 -64 -88 -99 -158 -103c-5 0 -11 -1 -16 -1c-37 0 -72 10 -108 27c-50 24 -77 59 -80 105v11c0 29 7 55 20 76c18 28 45 42 79 44h6c49 0 93 -42 97 -87v-9c0 -51 -34 -86 -105 -106c17 -24 51 -36 102 -36c62 0 116 43 140 85 c9 16 13 41 13 74c0 20 -1 42 -5 67c-8 53 -18 106 -26 159zM461 939c-95 0 -135 -175 -135 -286c0 -24 2 -48 5 -71c50 39 92 82 127 128c40 53 60 100 60 140v8c-4 53 -22 81 -55 81h-2zM406 119l54 -326c73 25 110 78 110 161c0 7 0 15 -1 23c-7 95 -57 142 -151 142h-12 zM382 117c-72 -2 -128 -47 -128 -120v-7c2 -46 43 -99 75 -115c-3 -2 -7 -5 -10 -10c-70 33 -116 88 -123 172v11c0 68 44 126 88 159c23 17 49 29 78 36l-29 170c-21 -13 -52 -37 -92 -73c-50 -44 -86 -84 -109 -119c-45 -69 -67 -130 -67 -182v-13c5 -68 35 -127 93 -176 s125 -73 203 -73c25 0 50 3 75 9c-19 111 -36 221 -54 331z"/></g><g id="E260-j1kcnbaf"><path transform="scale(1,-1)" d="M20 110c32 16 54 27 93 27c26 0 35 -3 54 -13c13 -7 24 -20 27 -38l4 -25c0 -28 -16 -57 -45 -89c-23 -25 -39 -44 -65 -68l-88 -79v644h20v-359zM90 106c-32 0 -48 -10 -70 -29v-194c31 31 54 59 71 84c21 32 32 59 32 84c0 9 1 16 1 20c0 14 -3 21 -11 30l-8 3z"/></g><g id="E08A-j1kcnbaf"><path transform="scale(1,-1)" d="M340 179c-9 24 -56 41 -89 41c-46 0 -81 -28 -100 -58c-17 -28 -25 -78 -25 -150c0 -65 2 -111 8 -135c8 -31 18 -49 40 -67c20 -17 43 -25 70 -25c54 0 92 36 115 75c14 25 23 54 28 88h27c0 -63 -24 -105 -58 -141c-35 -38 -82 -56 -140 -56c-45 0 -83 13 -115 39 c-57 45 -101 130 -101 226c0 59 33 127 68 163c36 37 97 72 160 72c36 0 93 -21 121 -40c11 -8 23 -17 33 -30c19 -23 27 -48 27 -76c0 -51 -35 -88 -86 -88c-43 0 -76 27 -76 68c0 26 7 35 21 51c15 17 32 27 58 32c7 2 14 7 14 11z"/></g><g id="E0A4-j1kcnbaf"><path transform="scale(1,-1)" d="M0 -39c0 68 73 172 200 172c66 0 114 -37 114 -95c0 -84 -106 -171 -218 -171c-64 0 -96 30 -96 94z"/></g><g id="E240-j1kcnbaf"><path transform="scale(1,-1)" d="M179 -646c15 29 29 55 46 102c18 49 30 108 30 138c0 105 -80 173 -168 200c-18 5 -47 9 -87 16v190h22c8 0 33 -61 71 -95c4 -3 -2 3 61 -56c62 -58 122 -137 122 -241c0 -38 -13 -106 -35 -163c-20 -51 -43 -99 -66 -132c-6 -5 -10 -7 -13 -7s-5 2 -5 5l4 10 c1 3 14 25 18 33z"/></g><g id="E0A3-j1kcnbaf"><path transform="scale(1,-1)" d="M278 64c0 22 -17 39 -43 39c-12 0 -26 -3 -41 -10c-85 -43 -165 -94 -165 -156c5 -25 15 -32 49 -32c67 11 200 95 200 159zM0 -36c0 68 73 174 200 174c66 0 114 -39 114 -97c0 -84 -106 -173 -218 -173c-64 0 -96 32 -96 96z"/></g><g id="E242-j1kcnbaf"><path transform="scale(1,-1)" d="M206 -748c32 48 49 100 49 149c0 89 -55 168 -168 203c-18 5 -47 9 -87 16v190v190h22c8 0 33 -61 71 -95c4 -3 -2 3 61 -56c62 -58 122 -137 122 -241c0 -32 -7 -65 -17 -96c11 -29 17 -60 17 -94c0 -71 -32 -148 -67 -190c-6 -5 -10 -7 -13 -7s-5 2 -5 5l4 10 c1 3 6 8 11 16zM248 -463c4 18 7 38 7 57c0 105 -80 173 -168 200c-11 3 -27 6 -47 9c9 -17 23 -61 53 -88c4 -3 -2 3 61 -56c36 -33 71 -74 94 -122z"/></g><g id="E4E3-j1kcnbaf"><path transform="scale(1,-1)" d="M0 -115v105c0 9 1 10 10 10h280c9 0 10 -1 10 -10v-105c0 -9 -1 -10 -10 -10h-280c-9 0 -10 1 -10 10z"/></g><g id="E4E5-j1kcnbaf"><path transform="scale(1,-1)" d="M107 292c-13 24 -30 49 -52 71c-1 1 0 2 0 3l-2 2c3 3 4 4 6 4c12 0 26 -7 40 -20s44 -40 89 -81c26 -24 28 -29 46 -47c4 -4 8 -9 10 -14c6 -8 8 -16 8 -27c0 -19 -12 -40 -36 -61c-28 -23 -49 -38 -61 -73c-4 -11 -7 -27 -10 -50c13 -43 34 -83 59 -121 c31 -47 59 -79 101 -129c-8 0 -26 7 -54 20l-62 29l-21 6l-23 1c-25 0 -45 -10 -60 -30l-4 -14l-1 -12c0 -33 20 -56 39 -78c8 -9 17 -18 26 -26c17 -15 27 -24 28 -30l-3 -3c-11 5 -19 10 -25 15c-9 3 -37 21 -45 26c-24 14 -45 32 -63 51c-19 21 -37 44 -37 71 c0 63 27 95 80 95c41 0 86 -18 136 -52c-19 26 -37 48 -55 66c-23 23 -48 44 -73 65c-28 23 -47 40 -58 53s-17 26 -18 39c75 64 113 125 113 183c0 27 -7 48 -18 68z"/></g></defs><style type="text/css">#j1kcnbaf g.page-margin {font-family:Times,serif;}#j1kcnbaf g.ending, #j1kcnbaf g.fing, #j1kcnbaf g.reh, #j1kcnbaf g.tempo {font-weight:bold;}#j1kcnbaf g.dir, #j1kcnbaf g.dynam, #j1kcnbaf g.mNum {font-style:italic;}#j1kcnbaf g.label {font-weight:normal;}#j1kcnbaf path {stroke:currentColor}</style><svg class="definition-scale" color="black" viewBox="0 0 14000 2100"><g class="page-margin" transform="translate(0, 150)"><g data-id="shb8gtd" data-class="mdiv" class="mdiv pageMilestone"/><g data-id="t1qwhgzq" data-class="score" class="score pageMilestone"/><g data-id="y1y291u8" data-class="system" class="system"><g data-id="v1hesard" data-class="section" class="section systemMilestone"/><g data-id="k1mn6scr" data-class="measure" class="measure"><g data-id="hi6e9vo" data-class="staff" class="staff"><path d="M0 540 L2395 540" stroke-width="13"/><path d="M0 720 L2395 720" stroke-width="13"/><path d="M0 900 L2395 900" stroke-width="13"/><path d="M0 1080 L2395 1080" stroke-width="13"/><path d="M0 1260 L2395 1260" stroke-width="13"/><g data-id="e1c342ah" data-class="clef" class="clef"><use href="#E050-j1kcnbaf" transform="translate(90, 1080) scale(0.72, 0.72)"/></g><g data-id="fx51r6h" data-class="keySig" class="keySig"><g data-id="gd17d0f" data-class="keyAccid" class="keyAccid"><use href="#E260-j1kcnbaf" transform="translate(735, 900) scale(0.72, 0.72)"/></g><g data-id="hx7dn9l" data-class="keyAccid" class="keyAccid"><use href="#E260-j1kcnbaf" transform="translate(915, 630) scale(0.72, 0.72)"/></g></g><g data-id="i1f6jx8r" data-class="meterSig" class="meterSig"><use href="#E08A-j1kcnbaf" transform="translate(1237, 900) scale(0.72, 0.72)"/></g><g data-id="ivh6qcy" data-class="layer" class="layer"><g data-id="f1dzrve3" data-class="note" class="note"><g data-class="notehead" class="notehead"><use href="#E0A4-j1kcnbaf" transform="translate(1823, 1080) scale(0.72, 0.72)"/></g><g data-id="d1yzgpux" data-class="stem" class="stem"><path d="M2040 1052 L2040 450" stroke-width="18"/><g data-id="e1lhxgb5" data-class="flag" class="flag"><use href="#E240-j1kcnbaf" transform="translate(2031, 450) scale(0.72, 0.72)"/></g></g></g></g></g><g data-id="s73r9yn" data-class="barLine" class="barLine"><path d="M2382 540 L2382 1260" stroke-width="27"/></g></g><g data-id="t115t3xl" data-class="measure" class="measure"><g data-id="jix8ptn" data-class="staff" class="staff"><path d="M2395 540 L5708 540" stroke-width="13"/><path d="M2395 720 L5708 720" stroke-width="13"/><path d="M2395 900 L5708 900" stroke-width="13"/><path d="M2395 1080 L5708 1080" stroke-width="13"/><path d="M2395 1260 L5708 1260" stroke-width="13"/><g data-id="k7ahs59" data-class="layer" class="layer"><g data-id="g3wr5ud" data-class="note" class="note"><g data-class="notehead" class="notehead"><use href="#E0A3-j1kcnbaf" transform="translate(2593, 1080) scale(0.72, 0.72)"/></g><g data-id="ftb17rn" data-class="stem" class="stem"><path d="M2810 1052 L2810 450" stroke-width="18"/></g></g><g data-id="h1825mgh" data-class="note" class="note"><g data-class="notehead" class="notehead"><use href="#E0A4-j1kcnbaf" transform="translate(3744, 1080) scale(0.72, 0.72)"/></g><g data-id="gqrfy88" data-class="stem" class="stem"><path d="M3961 1052 L3961 450" stroke-width="18"/></g></g><g data-id="i1xwq87c" data-class="note" class="note"><g data-class="notehead" class="notehead"><use href="#E0A4-j1kcnbaf" transform="translate(4500, 1080) scale(0.72, 0.72)"/></g><g data-id="ilsamo1" data-class="dots" class="dots"><ellipse cx="4974" cy="990" rx="36" ry="36" fill-opacity="1" stroke-opacity="1"/></g><g data-id="h1b44a0w" data-class="stem" class="stem"><path d="M4717 1052 L4717 450" stroke-width="18"/><g data-id="jgjrepm" data-class="flag" class="flag"><use href="#E240-j1kcnbaf" transform="translate(4708, 450) scale(0.72, 0.72)"/></g></g></g><g data-id="j1vxtnmt" data-class="note" class="note"><g data-class="notehead" class="notehead"><use href="#E0A4-j1kcnbaf" transform="translate(5136, 1080) scale(0.72, 0.72)"/></g><g data-id="k3vg69o" data-class="stem" class="stem"><path d="M5353 1052 L5353 450" stroke-width="18"/><g data-id="lsq3j19" data-class="flag" class="flag"><use href="#E242-j1kcnbaf" transform="translate(5344, 450) scale(0.72, 0.72)"/></g></g></g></g></g><g data-id="bd393tf" data-class="barLine" class="barLine"><path d="M5695 540 L5695 1260" stroke-width="27"/></g></g><g data-id="csumyt6" data-class="measure" class="measure"><g data-id="l1ex0g2z" data-class="staff" class="staff"><path d="M5708 540 L8221 540" stroke-width="13"/><path d="M5708 720 L8221 720" stroke-width="13"/><path d="M5708 900 L8221 900" stroke-width="13"/><path d="M5708 1080 L8221 1080" stroke-width="13"/><path d="M5708 1260 L8221 1260" stroke-width="13"/><g data-id="m3t1695" data-class="layer" class="layer"><g data-id="krpbacw" data-class="note" class="note"><g data-class="notehead" class="notehead"><use href="#E0A3-j1kcnbaf" transform="translate(5906, 720) scale(0.72, 0.72)"/></g><g data-id="m3lrcll" data-class="stem" class="stem"><path d="M5915 745 L5915 1350" stroke-width="18"/></g></g><g data-id="ls52l00" data-class="note" class="note"><g data-class="notehead" class="notehead"><use href="#E0A3-j1kcnbaf" transform="translate(7057, 720) scale(0.72, 0.72)"/></g><g data-id="n1ghounx" data-class="stem" class="stem"><path d="M7066 745 L7066 1350" stroke-width="18"/></g></g></g></g><g data-id="kf5pi5n" data-class="barLine" class="barLine"><path d="M8208 540 L8208 1260" stroke-width="27"/></g></g><g data-id="lq6dgt5" data-class="measure" class="measure"><g data-id="n1rt96y2" data-class="staff" class="staff"><path d="M8221 540 L10076 540" stroke-width="13"/><path d="M8221 720 L10076 720" stroke-width="13"/><path d="M8221 900 L10076 900" stroke-width="13"/><path d="M8221 1080 L10076 1080" stroke-width="13"/><path d="M8221 1260 L10076 1260" stroke-width="13"/><g data-id="oxkr7wq" data-class="layer" class="layer"><g data-id="d11fhlj6" data-class="mRest" class="mRest"><use href="#E4E3-j1kcnbaf" transform="translate(9027, 720) scale(0.72, 0.72)"/></g></g></g><g data-id="t1w3sqhs" data-class="barLine" class="barLine"><path d="M10063 540 L10063 1260" stroke-width="27"/></g></g><g data-id="u526xz3" data-class="measure" class="measure"><g data-id="p1j24ybu" data-class="staff" class="staff"><path d="M10076 540 L14004 540" stroke-width="13"/><path d="M10076 720 L14004 720" stroke-width="13"/><path d="M10076 900 L14004 900" stroke-width="13"/><path d="M10076 1080 L14004 1080" stroke-width="13"/><path d="M10076 1260 L14004 1260" stroke-width="13"/><g data-id="q1oqmcyt" data-class="layer" class="layer"><g data-id="e1mmuzx1" data-class="rest" class="rest"><use href="#E4E5-j1kcnbaf" transform="translate(10274, 900) scale(0.72, 0.72)"/></g><g data-id="my4yx5a" data-class="note" class="note"><g data-class="notehead" class="notehead"><use href="#E0A4-j1kcnbaf" transform="translate(11030, 1080) scale(0.72, 0.72)"/></g><g data-id="o1nzkyl3" data-class="stem" class="stem"><path d="M11247 1052 L11247 450" stroke-width="18"/></g></g><g data-id="nh0ywel" data-class="note" class="note"><g data-class="notehead" class="notehead"><use href="#E0A4-j1kcnbaf" transform="translate(11786, 1080) scale(0.72, 0.72)"/></g><g data-id="q1o0o78x" data-class="dots" class="dots"><ellipse cx="12260" cy="990" rx="36" ry="36" fill-opacity="1" stroke-opacity="1"/></g><g data-id="p12wwm4z" data-class="stem" class="stem"><path d="M12003 1052 L12003 450" stroke-width="18"/><g data-id="r1od4b6a" data-class="flag" class="flag"><use href="#E240-j1kcnbaf" transform="translate(11994, 450) scale(0.72, 0.72)"/></g></g></g><g data-id="o1gh0bhu" data-class="note" class="note"><g data-class="notehead" class="notehead"><use href="#E0A4-j1kcnbaf" transform="translate(12422, 1080) scale(0.72, 0.72)"/></g><g data-id="swjpfzr" data-class="stem" class="stem"><path d="M12639 1052 L12639 450" stroke-width="18"/><g data-id="tdzubaa" data-class="flag" class="flag"><use href="#E242-j1kcnbaf" transform="translate(12630, 450) scale(0.72, 0.72)"/></g></g></g><g data-id="p2guc8d" data-class="note" class="note"><g data-class="notehead" class="notehead"><use href="#E0A4-j1kcnbaf" transform="translate(12938, 1080) scale(0.72, 0.72)"/></g><g data-id="u5mq366" data-class="stem" class="stem"><path d="M13155 1052 L13155 450" stroke-width="18"/><g data-id="vo3u0af" data-class="flag" class="flag"><use href="#E240-j1kcnbaf" transform="translate(13146, 450) scale(0.72, 0.72)"/></g></g></g><g data-id="q16mdzp6" data-class="note" class="note"><g data-class="notehead" class="notehead"><use href="#E0A4-j1kcnbaf" transform="translate(13432, 1080) scale(0.72, 0.72)"/></g><g data-id="wl34kge" data-class="stem" class="stem"><path d="M13649 1052 L13649 450" stroke-width="18"/><g data-id="x1u2fotr" data-class="flag" class="flag"><use href="#E240-j1kcnbaf" transform="translate(13640, 450) scale(0.72, 0.72)"/></g></g></g></g></g><g data-id="c35xeds" data-class="barLine" class="barLine"><path d="M13991 540 L13991 1260" stroke-width="27"/></g></g><g data-id="yr4gz3j" data-class="systemMilestoneEnd" class="systemMilestoneEnd v1hesard"/></g><g data-id="zd5tnr" data-class="pageMilestoneEnd" class="pageMilestoneEnd t1qwhgzq"/><g data-id="ahawm8g" data-class="pageMilestoneEnd" class="pageMilestoneEnd shb8gtd"/></g></svg></svg>