<svg viewBox="0 0 560 84" version="1.1" xmlns="http://www.w3.org/2000/svg" xmlns:xlink="http://www.w3.org/1999/xlink" overflow="visible" id="qx0c2jz"><desc>Engraved by Verovio 5.6.0-85e7620</desc><defs><g id="E050-qx0c2jz"><path transform="scale(1,-1)" d="M441 -245c-23 -4 -48 -6 -76 -6c-59 0 -102 7 -130 20c-88 42 -150 93 -187 154c-26 44 -43 103 -48 176c0 6 -1 13 -1 19c0 54 15 111 45 170c29 57 65 106 110 148s96 85 153 127c-3 16 -8 46 -13 92c-4 43 -5 73 -5 89c0 117 16 172 69 257c34 54 64 82 89 82 c21 0 43 -30 69 -92s39 -115 41 -159v-15c0 -109 -21 -162 -67 -241c-13 -20 -63 -90 -98 -118c-13 -9 -25 -19 -37 -29l31 -181c8 1 18 2 28 2c58 0 102 -12 133 -35c59 -43 92 -104 98 -184c1 -7 1 -15 1 -22c0 -123 -87 -209 -181 -248c8 -57 17 -110 25 -162 c5 -31 6 -58 6 -80c0 -30 -5 -53 -14 -70c-35 -64 -88 -99 -158 -103c-5 0 -11 -1 -16 -1c-37 0 -72 10 -108 27c-50 24 -77 59 -80 105v11c0 29 7 55 20 76c18 28 45 42 79 44h6c49 0 93 -42 97 -87v-9c0 -51 -34 -86 -105 -106c17 -24 51 -36 102 -36c62 0 116 43 140 85 c9 16 13 41 13 74c0 20 -1 42 -5 67c-8 53 -18 106 -26 159zM461 939c-95 0 -135 -175 -135 -286c0 -24 2 -48 5 -71c50 39 92 82 127 128c40 53 60 100 60 140v8c-4 53 -22 81 -55 81h-2zM406 119l54 -326c73 25 110 78 110 161c0 7 0 15 -1 23c-7 95 -57 142 -151 142h-12 zM382 117c-72 -2 -128 -47 -128 -120v-7c2 -46 43 -99 75 -115c-3 -2 -7 -5 -10 -10c-70 33 -116 88 -123 172v11c0 68 44 126 88 159c23 17 49 29 78 36l-29 170c-21 -13 -52 -37 -92 -73c-50 -44 -86 -84 -109 -119c-45 -69 -67 -130 -67 -182v-13c5 -68 35 -127 93 -176 s125 -73 203 -73c25 0 50 3 75 9c-19 111 -36 221 -54 331z"/></g><g id="E260-qx0c2jz"><path transform="scale(1,-1)" d="M20 110c32 16 54 27 93 27c26 0 35 -3 54 -13c13 -7 24 -20 27 -38l4 -25c0 -28 -16 -57 -45 -89c-23 -25 -39 -44 -65 -68l-88 -79v644h20v-359zM90 106c-32 0 -48 -10 -70 -29v-194c31 31 54 59 71 84c21 32 32 59 32 84c0 9 1 16 1 20c0 14 -3 21 -11 30l-8 3z"/></g><g id="E08A-qx0c2jz"><path transform="scale(1,-1)" d="M340 179c-9 24 -56 41 -89 41c-46 0 -81 -28 -100 -58c-17 -28 -25 -78 -25 -150c0 -65 2 -111 8 -135c8 -31 18 -49 40 -67c20 -17 43 -25 70 -25c54 0 92 36 115 75c14 25 23 54 28 88h27c0 -63 -24 -105 -58 -141c-35 -38 -82 -56 -140 -56c-45 0 -83 13 -115 39 c-57 45 -101 130 -101 226c0 59 33 127 68 163c36 37 97 72 160 72c36 0 93 -21 121 -40c11 -8 23 -17 33 -30c19 -23 27 -48 27 -76c0 -51 -35 -88 -86 -88c-43 0 -76 27 -76 68c0 26 7 35 21 51c15 17 32 27 58 32c7 2 14 7 14 11z"/></g><g id="E0A3-qx0c2jz"><path transform="scale(1,-1)" d="M278 64c0 22 -17 39 -43 39c-12 0 -26 -3 -41 -10c-85 -43 -165 -94 -165 -156c5 -25 15 -32 49 -32c67 11 200 95 200 159zM0 -36c0 68 73 174 200 174c66 0 114 -39 114 -97c0 -84 -106 -173 -218 -173c-64 0 -96 32 -96 96z"/></g><g id="E0A4-qx0c2jz"><path transform="scale(1,-1)" d="M0 -39c0 68 73 172 200 172c66 0 114 -37 114 -95c0 -84 -106 -171 -218 -171c-64 0 -96 30 -96 94z"/></g><g id="E4C0-qx0c2jz"><path transform="scale(1,-1)" d="M0 0c0 0 40 320 300 320s300 -320 300 -320h-32s-38 227 -268 227s-268 -227 -268 -227h-32zM355 52c0 -30 -25 -55 -55 -55s-55 25 -55 55s25 55 55 55s55 -25 55 -55z"/></g></defs><style type="text/css">#qx0c2jz g.page-margin {font-family:Times,serif;}#qx0c2jz g.ending, #qx0c2jz g.fing, #qx0c2jz g.reh, #qx0c2jz g.tempo {font-weight:bold;}#qx0c2jz g.dir, #qx0c2jz g.dynam, #qx0c2jz g.mNum {font-style:italic;}#qx0c2jz g.label {font-weight:normal;}#qx0c2jz path {stroke:currentColor}</style><svg class="definition-scale" color="black" viewBox="0 0 14000 2100"><g class="page-margin" transform="translate(0, 150)"><g data-id="b11he8ya" data-class="mdiv" class="mdiv pageMilestone"/><g data-id="cu5slzl" data-class="score" class="score pageMilestone"/><g data-id="u1grmghv" data-class="system" class="system"><g data-id="e1le45mh" data-class="section" class="section systemMilestone"/><g data-id="ryqu55e" data-class="measure" class="measure"><g data-id="q3y5rzm" data-class="staff" class="staff"><path d="M0 540 L3834 540" stroke-width="13"/><path d="M0 720 L3834 720" stroke-width="13"/><path d="M0 900 L3834 900" stroke-width="13"/><path d="M0 1080 L3834 1080" stroke-width="13"/><path d="M0 1260 L3834 1260" stroke-width="13"/><g data-id="q36kp7p" data-class="clef" class="clef"><use href="#E050-qx0c2jz" transform="translate(90, 1080) scale(0.72, 0.72)"/></g><g data-id="rk07r3o" data-class="keySig" class="keySig"><g data-id="sn7pnua" data-class="keyAccid" class="keyAccid"><use href="#E260-qx0c2jz" transform="translate(735, 900) scale(0.72, 0.72)"/></g></g><g data-id="t15snuih" data-class="meterSig" class="meterSig"><use href="#E08A-qx0c2jz" transform="translate(1057, 900) scale(0.72, 0.72)"/></g><g data-id="r1mdqrea" data-class="layer" class="layer"><g data-id="dvj7oqm" data-class="note" class="note"><g data-class="notehead" class="notehead"><use href="#E0A3-qx0c2jz" transform="translate(1635, 1350) scale(0.72, 0.72)"/></g><g data-id="p1wazpe5" data-class="stem" class="stem"><path d="M1852 1322 L1852 720" stroke-width="18"/></g></g><g data-id="e1ob7sdu" data-class="note" class="note"><g data-class="notehead" class="notehead"><use href="#E0A3-qx0c2jz" transform="translate(2728, 1170) scale(0.72, 0.72)"/></g><g data-id="q7a113w" data-class="stem" class="stem"><path d="M2945 1142 L2945 540" stroke-width="18"/></g></g></g></g><g data-id="z1bjygws" data-class="barLine" class="barLine"><path d="M3821 540 L3821 1260" stroke-width="27"/></g></g><g data-id="a1e1q6xc" data-class="measure" class="measure"><g data-id="sxftenc" data-class="staff" class="staff"><path d="M3834 540 L6223 540" stroke-width="13"/><path d="M3834 720 L6223 720" stroke-width="13"/><path d="M3834 900 L6223 900" stroke-width="13"/><path d="M3834 1080 L6223 1080" stroke-width="13"/><path d="M3834 1260 L6223 1260" stroke-width="13"/><g data-id="t1e6s48a" data-class="layer" class="layer"><g data-id="f1jtxrlc" data-class="note" class="note"><g data-class="notehead" class="notehead"><use href="#E0A3-qx0c2jz" transform="translate(4024, 990) scale(0.72, 0.72)"/></g><g data-id="r7e0ng1" data-class="stem" class="stem"><path d="M4241 962 L4241 360" stroke-width="18"/></g></g><g data-id="g3rj3ty" data-class="note" class="note"><g data-class="notehead" class="notehead"><use href="#E0A3-qx0c2jz" transform="translate(5117, 900) scale(0.72, 0.72)"/></g><g data-id="s8gxin5" data-class="stem" class="stem"><path d="M5126 925 L5126 1500" stroke-width="18"/></g><g data-id="yjc5orm" data-class="accid" class="accid"/></g></g></g><g data-id="iqc5b4y" data-class="barLine" class="barLine"><path d="M6210 540 L6210 1260" stroke-width="27"/></g></g><g data-id="j1hsgy8f" data-class="measure" class="measure"><g data-id="u1ib0y8t" data-class="staff" class="staff"><path d="M6223 540 L8612 540" stroke-width="13"/><path d="M6223 720 L8612 720" stroke-width="13"/><path d="M6223 900 L8612 900" stroke-width="13"/><path d="M6223 1080 L8612 1080" stroke-width="13"/><path d="M6223 1260 L8612 1260" stroke-width="13"/><g data-id="vsgyu3k" data-class="layer" class="layer"><g data-id="hmxp9ug" data-class="note" class="note"><g data-class="notehead" class="notehead"><use href="#E0A3-qx0c2jz" transform="translate(6413, 720) scale(0.72, 0.72)"/></g><g data-id="tc613y" data-class="stem" class="stem"><path d="M6422 745 L6422 1350" stroke-width="18"/></g></g><g data-id="itkmnkc" data-class="note" class="note"><g data-class="notehead" class="notehead"><use href="#E0A3-qx0c2jz" transform="translate(7506, 630) scale(0.72, 0.72)"/></g><g data-id="u113ft00" data-class="stem" class="stem"><path d="M7515 655 L7515 1260" stroke-width="18"/></g></g></g></g><g data-id="rwk2927" data-class="barLine" class="barLine"><path d="M8599 540 L8599 1260" stroke-width="27"/></g></g><g data-id="suac4om" data-class="measure" class="measure"><g data-id="whh3rkt" data-class="staff" class="staff"><path d="M8612 540 L10928 540" stroke-width="13"/><path d="M8612 720 L10928 720" stroke-width="13"/><path d="M8612 900 L10928 900" stroke-width="13"/><path d="M8612 1080 L10928 1080" stroke-width="13"/><path d="M8612 1260 L10928 1260" stroke-width="13"/><g data-id="x18bh7fr" data-class="layer" class="layer"><g data-id="j161keat" data-class="note" class="note"><g data-class="notehead" class="notehead"><use href="#E0A3-qx0c2jz" transform="translate(8802, 630) scale(0.72, 0.72)"/></g><g data-id="wxxtix8" data-class="dots" class="dots"><ellipse cx="9118" cy="630" rx="36" ry="36" fill-opacity="1" stroke-opacity="1"/></g><g data-id="v17dk0jy" data-class="stem" class="stem"><path d="M8811 655 L8811 1260" stroke-width="18"/></g></g><g data-id="k1fx3l0b" data-class="note" class="note"><g data-class="notehead" class="notehead"><use href="#E0A4-qx0c2jz" transform="translate(10197, 630) scale(0.72, 0.72)"/></g><g data-id="x1o06m98" data-class="stem" class="stem"><path d="M10206 658 L10206 1260" stroke-width="18"/></g></g></g></g><g data-id="w19wk0rh" data-class="fermata" class="fermata"><use href="#E4C0-qx0c2jz" transform="translate(8699, 484) scale(0.72, 0.72)"/></g><g data-id="a2u13yl" data-class="barLine" class="barLine"><path d="M10915 540 L10915 1260" stroke-width="27"/></g></g><g data-id="b1tyqxkr" data-class="measure" class="measure"><g data-id="y1384rd1" data-class="staff" class="staff"><path d="M10928 540 L14001 540" stroke-width="13"/><path d="M10928 720 L14001 720" stroke-width="13"/><path d="M10928 900 L14001 900" stroke-width="13"/><path d="M10928 1080 L14001 1080" stroke-width="13"/><path d="M10928 1260 L14001 1260" stroke-width="13"/><g data-id="z1dbew1b" data-class="layer" class="layer"><g data-id="l1tiraab" data-class="note" class="note"><g data-class="notehead" class="notehead"><use href="#E0A4-qx0c2jz" transform="translate(11118, 450) scale(0.72, 0.72)"/></g><g data-id="y1jcfszc" data-class="stem" class="stem"><path d="M11127 478 L11127 1080" stroke-width="18"/></g></g><g data-id="m1oeo9fy" data-class="note" class="note"><g data-class="notehead" class="notehead"><use href="#E0A4-qx0c2jz" transform="translate(11836, 540) scale(0.72, 0.72)"/></g><g data-id="z1eyw7l9" data-class="stem" class="stem"><path d="M11845 568 L11845 1170" stroke-width="18"/></g></g><g data-id="n268yr6" data-class="note" class="note"><g data-class="notehead" class="notehead"><use href="#E0A4-qx0c2jz" transform="translate(12553, 630) scale(0.72, 0.72)"/></g><g data-id="apichx7" data-class="stem" class="stem"><path d="M12562 658 L12562 1260" stroke-width="18"/></g></g><g data-id="obvldu5" data-class="note" class="note"><g data-class="notehead" class="notehead"><use href="#E0A4-qx0c2jz" transform="translate(13271, 720) scale(0.72, 0.72)"/></g><g data-id="b19hplip" data-class="stem" class="stem"><path d="M13280 748 L13280 1350" stroke-width="18"/></g></g></g></g><g data-id="j1drt652" data-class="barLine" class="barLine"><path d="M13988 540 L13988 1260" stroke-width="27"/></g></g></g></g></svg></svg>