<svg viewBox="0 0 560 84" version="1.1" xmlns="http://www.w3.org/2000/svg" xmlns:xlink="http://www.w3.org/1999/xlink" overflow="visible" id="dz9lniz"><desc>Engraved by Verovio 5.6.0-85e7620</desc><defs><g id="E052-dz9lniz"><path transform="scale(1,-1)" d="M382 117c-72 -2 -128 -47 -128 -120v-7c2 -46 43 -99 75 -115c-3 -2 -7 -5 -10 -10c-70 33 -116 88 -123 172v11c0 68 44 126 88 159c23 17 49 29 78 36l-29 170c-21 -13 -52 -37 -92 -73c-50 -44 -86 -84 -109 -119c-45 -69 -67 -130 -67 -182v-13 c5 -68 35 -127 93 -176s125 -73 203 -73c25 0 50 3 75 9c-19 111 -36 221 -54 331zM406 119l54 -326c73 25 110 78 110 161c0 7 0 15 -1 23c-7 95 -57 142 -151 142h-12zM461 939c-95 0 -135 -175 -135 -286c0 -24 2 -48 5 -71c50 39 92 82 127 128c40 53 60 100 60 140v8 c-4 53 -22 81 -55 81h-2zM441 -245c-23 -4 -48 -6 -76 -6c-59 0 -102 7 -130 20c-88 42 -150 93 -187 154c-26 44 -43 103 -48 176c0 6 -1 13 -1 19c0 54 15 111 45 170c29 57 65 106 110 148s96 85 153 127c-3 16 -8 46 -13 92c-4 43 -5 73 -5 89c0 117 16 172 69 257 c34 54 64 82 89 82c21 0 43 -30 69 -92s39 -115 41 -159v-15c0 -109 -21 -162 -67 -241c-13 -20 -63 -90 -98 -118c-13 -9 -25 -19 -37 -29l31 -181c8 1 18 2 28 2c58 0 102 -12 133 -35c59 -43 92 -104 98 -184c1 -7 1 -15 1 -22c0 -123 -87 -209 -181 -248 c8 -57 17 -110 25 -162c5 -31 6 -58 6 -80c0 -30 -5 -53 -14 -70c-25 -46 -59 -77 -102 -92c21 -1 85 -13 85 -60c0 -35 -22 -43 -31 -50c-6 -5 -8 -10 -8 -16s0 -11 4 -16c6 -11 9 -22 9 -34c0 -27 -18 -53 -46 -65c-11 -4 -27 -6 -41 -6c-34 0 -82 21 -90 58 c-1 5 -2 8 -2 12c0 28 25 57 51 66c4 1 6 2 6 5c0 2 -1 3 -2 3c-11 13 -16 27 -16 41c0 21 11 40 30 51h-5c-5 0 -11 -1 -16 -1c-37 0 -72 10 -108 27c-50 24 -77 59 -80 105v11c0 29 7 55 20 76c18 28 45 42 79 44h6c49 0 93 -42 97 -87v-9c0 -51 -34 -86 -105 -106 c17 -24 51 -36 102 -36c62 0 116 43 140 85c9 16 13 41 13 74c0 20 -1 42 -5 67c-8 53 -18 106 -26 159zM315 -781c-3 -2 -6 -5 -7 -8c-6 -8 -10 -19 -10 -30c0 -2 0 -4 1 -7c7 -32 34 -52 53 -52c20 0 37 20 37 36c0 5 -2 9 -4 14c-5 13 -14 24 -25 34c-6 5 -11 10 -17 14 c-4 2 -9 6 -14 6c-6 0 -11 -3 -14 -7zM349 -685c0 -14 10 -25 18 -34c8 -8 16 -18 26 -25c5 -2 10 -4 13 -4c17 0 22 30 23 48c0 9 -3 20 -9 26c-8 9 -23 14 -40 14c-15 -1 -29 -8 -31 -25z"/></g><g id="E262-dz9lniz"><path transform="scale(1,-1)" d="M136 186v169h17v-164l44 14v-91l-44 -14v-165l44 12v-91l-44 -13v-155h-17v150l-76 -22v-155h-17v149l-43 -13v90l43 14v167l-43 -14v92l43 13v169h17v-163zM60 73v-167l76 22v168z"/></g><g id="E08A-dz9lniz"><path transform="scale(1,-1)" d="M340 179c-9 24 -56 41 -89 41c-46 0 -81 -28 -100 -58c-17 -28 -25 -78 -25 -150c0 -65 2 -111 8 -135c8 -31 18 -49 40 -67c20 -17 43 -25 70 -25c54 0 92 36 115 75c14 25 23 54 28 88h27c0 -63 -24 -105 -58 -141c-35 -38 -82 -56 -140 -56c-45 0 -83 13 -115 39 c-57 45 -101 130 -101 226c0 59 33 127 68 163c36 37 97 72 160 72c36 0 93 -21 121 -40c11 -8 23 -17 33 -30c19 -23 27 -48 27 -76c0 -51 -35 -88 -86 -88c-43 0 -76 27 -76 68c0 26 7 35 21 51c15 17 32 27 58 32c7 2 14 7 14 11z"/></g><g id="E0A4-dz9lniz"><path transform="scale(1,-1)" d="M0 -39c0 68 73 172 200 172c66 0 114 -37 114 -95c0 -84 -106 -171 -218 -171c-64 0 -96 30 -96 94z"/></g><g id="E0A3-dz9lniz"><path transform="scale(1,-1)" d="M278 64c0 22 -17 39 -43 39c-12 0 -26 -3 -41 -10c-85 -43 -165 -94 -165 -156c5 -25 15 -32 49 -32c67 11 200 95 200 159zM0 -36c0 68 73 174 200 174c66 0 114 -39 114 -97c0 -84 -106 -173 -218 -173c-64 0 -96 32 -96 96z"/></g><g id="E0A2-dz9lniz"><path transform="scale(1,-1)" d="M198 133c102 0 207 -45 207 -133c0 -92 -118 -133 -227 -133c-101 0 -178 46 -178 133c0 88 93 133 198 133zM293 -21c0 14 -3 29 -8 44c-7 20 -18 38 -33 54c-20 21 -43 31 -68 31l-20 -2c-15 -5 -27 -14 -36 -28c-4 -9 -6 -17 -8 -24s-3 -16 -3 -27c0 -15 3 -34 9 -57 s18 -41 34 -55c15 -15 36 -23 62 -23c4 0 10 1 18 2c19 5 32 15 40 30s13 34 13 55z"/></g><g id="E4E5-dz9lniz"><path transform="scale(1,-1)" d="M107 292c-13 24 -30 49 -52 71c-1 1 0 2 0 3l-2 2c3 3 4 4 6 4c12 0 26 -7 40 -20s44 -40 89 -81c26 -24 28 -29 46 -47c4 -4 8 -9 10 -14c6 -8 8 -16 8 -27c0 -19 -12 -40 -36 -61c-28 -23 -49 -38 -61 -73c-4 -11 -7 -27 -10 -50c13 -43 34 -83 59 -121 c31 -47 59 -79 101 -129c-8 0 -26 7 -54 20l-62 29l-21 6l-23 1c-25 0 -45 -10 -60 -30l-4 -14l-1 -12c0 -33 20 -56 39 -78c8 -9 17 -18 26 -26c17 -15 27 -24 28 -30l-3 -3c-11 5 -19 10 -25 15c-9 3 -37 21 -45 26c-24 14 -45 32 -63 51c-19 21 -37 44 -37 71 c0 63 27 95 80 95c41 0 86 -18 136 -52c-19 26 -37 48 -55 66c-23 23 -48 44 -73 65c-28 23 -47 40 -58 53s-17 26 -18 39c75 64 113 125 113 183c0 27 -7 48 -18 68z"/></g></defs><style type="text/css">#dz9lniz g.page-margin {font-family:Times,serif;}#dz9lniz g.ending, #dz9lniz g.fing, #dz9lniz g.reh, #dz9lniz g.tempo {font-weight:bold;}#dz9lniz g.dir, #dz9lniz g.dynam, #dz9lniz g.mNum {font-style:italic;}#dz9lniz g.label {font-weight:normal;}#dz9lniz path {stroke:currentColor}</style><svg class="definition-scale" color="black" viewBox="0 0 14000 2100"><g class="page-margin" transform="translate(0, 150)"><g data-id="m1gcla8x" data-class="mdiv" class="mdiv pageMilestone"/><g data-id="n2n4x7a" data-class="score" class="score pageMilestone"/><g data-id="l97lldp" data-class="system" class="system"><g data-id="p1apttwb" data-class="section" class="section systemMilestone"/><g data-id="e1f3j2kw" data-class="measure" class="measure"><g data-id="b5jye60" data-class="staff" class="staff"><path d="M0 540 L2675 540" stroke-width="13"/><path d="M0 720 L2675 720" stroke-width="13"/><path d="M0 900 L2675 900" stroke-width="13"/><path d="M0 1080 L2675 1080" stroke-width="13"/><path d="M0 1260 L2675 1260" stroke-width="13"/><g data-id="l1he4kbg" data-class="clef" class="clef"><use href="#E052-dz9lniz" transform="translate(90, 1080) scale(0.72, 0.72)"/></g><g data-id="m1nu9v83" data-class="keySig" class="keySig"><g data-id="n10ol51z" data-class="keyAccid" class="keyAccid"><use href="#E262-dz9lniz" transform="translate(735, 540) scale(0.72, 0.72)"/></g><g data-id="od7t9dy" data-class="keyAccid" class="keyAccid"><use href="#E262-dz9lniz" transform="translate(913, 810) scale(0.72, 0.72)"/></g></g><g data-id="p1jlr96j" data-class="meterSig" class="meterSig"><use href="#E08A-dz9lniz" transform="translate(1234, 900) scale(0.72, 0.72)"/></g><g data-id="c1u4reor" data-class="layer" class="layer"><g data-id="r1je2ycv" data-class="note" class="note"><g data-class="notehead" class="notehead"><use href="#E0A4-dz9lniz" transform="translate(1814, 990) scale(0.72, 0.72)"/></g><g data-id="bndgvnv" data-class="stem" class="stem"><path d="M2031 962 L2031 360" stroke-width="18"/></g></g></g></g><g data-id="m1cohigi" data-class="barLine" class="barLine"><path d="M2662 540 L2662 1260" stroke-width="27"/></g></g><g data-id="n1h9rj78" data-class="measure" class="measure"><g data-id="d1rv5dyq" data-class="staff" class="staff"><path d="M2675 540 L5462 540" stroke-width="13"/><path d="M2675 720 L5462 720" stroke-width="13"/><path d="M2675 900 L5462 900" stroke-width="13"/><path d="M2675 1080 L5462 1080" stroke-width="13"/><path d="M2675 1260 L5462 1260" stroke-width="13"/><g data-id="e1f2osnr" data-class="layer" class="layer"><g data-id="slj0g98" data-class="note" class="note"><g data-class="notehead" class="notehead"><use href="#E0A3-dz9lniz" transform="translate(2867, 720) scale(0.72, 0.72)"/></g><g data-id="c1w4byi3" data-class="stem" class="stem"><path d="M2876 745 L2876 1350" stroke-width="18"/></g></g><g data-id="t18wjmrq" data-class="note" class="note"><g data-class="notehead" class="notehead"><use href="#E0A3-dz9lniz" transform="translate(4158, 630) scale(0.72, 0.72)"/></g><g data-id="d3mx3ry" data-class="stem" class="stem"><path d="M4167 655 L4167 1260" stroke-width="18"/></g></g></g></g><g data-id="vcjpamn" data-class="barLine" class="barLine"><path d="M5449 540 L5449 1260" stroke-width="27"/></g></g><g data-id="w1n1erp3" data-class="measure" class="measure"><g data-id="f1bevk8n" data-class="staff" class="staff"><path d="M5462 540 L8653 540" stroke-width="13"/><path d="M5462 720 L8653 720" stroke-width="13"/><path d="M5462 900 L8653 900" stroke-width="13"/><path d="M5462 1080 L8653 1080" stroke-width="13"/><path d="M5462 1260 L8653 1260" stroke-width="13"/><g data-id="g1yot7no" data-class="layer" class="layer"><g data-id="usckxvn" data-class="note" class="note"><g data-class="notehead" class="notehead"><use href="#E0A3-dz9lniz" transform="translate(5654, 540) scale(0.72, 0.72)"/></g><g data-id="e1071ybi" data-class="stem" class="stem"><path d="M5663 565 L5663 1170" stroke-width="18"/></g><g data-id="g1vp16x5" data-class="accid" class="accid"/></g><g data-id="v1ejtnw0" data-class="note" class="note"><g data-class="notehead" class="notehead"><use href="#E0A4-dz9lniz" transform="translate(6945, 630) scale(0.72, 0.72)"/></g><g data-id="f1fal37p" data-class="stem" class="stem"><path d="M6954 658 L6954 1260" stroke-width="18"/></g></g><g data-id="wwqjvtu" data-class="note" class="note"><g data-class="notehead" class="notehead"><use href="#E0A4-dz9lniz" transform="translate(7792, 540) scale(0.72, 0.72)"/></g><g data-id="gqb2zfb" data-class="stem" class="stem"><path d="M7801 568 L7801 1170" stroke-width="18"/></g><g data-id="h1l00l1d" data-class="accid" class="accid"/></g></g></g><g data-id="eyfwqq2" data-class="barLine" class="barLine"><path d="M8640 540 L8640 1260" stroke-width="27"/></g></g><g data-id="f1tf1ki6" data-class="measure" class="measure"><g data-id="hmwesbd" data-class="staff" class="staff"><path d="M8653 540 L10813 540" stroke-width="13"/><path d="M8653 720 L10813 720" stroke-width="13"/><path d="M8653 900 L10813 900" stroke-width="13"/><path d="M8653 1080 L10813 1080" stroke-width="13"/><path d="M8653 1260 L10813 1260" stroke-width="13"/><g data-id="i7pj0ly" data-class="layer" class="layer"><g data-id="x16nh922" data-class="note" class="note"><g data-class="notehead" class="notehead"><use href="#E0A2-dz9lniz" transform="translate(8845, 450) scale(0.72, 0.72)"/></g></g></g></g><g data-id="ns58lr0" data-class="barLine" class="barLine"><path d="M10800 540 L10800 1260" stroke-width="27"/></g></g><g data-id="o14g9f69" data-class="measure" class="measure"><g data-id="j1gnsrgm" data-class="staff" class="staff"><path d="M10813 540 L14004 540" stroke-width="13"/><path d="M10813 720 L14004 720" stroke-width="13"/><path d="M10813 900 L14004 900" stroke-width="13"/><path d="M10813 1080 L14004 1080" stroke-width="13"/><path d="M10813 1260 L14004 1260" stroke-width="13"/><g data-id="k1jvzbbq" data-class="layer" class="layer"><g data-id="y1bhy4wo" data-class="note" class="note"><g data-class="notehead" class="notehead"><use href="#E0A3-dz9lniz" transform="translate(11005, 540) scale(0.72, 0.72)"/></g><g data-id="i1y2gka8" data-class="stem" class="stem"><path d="M11014 565 L11014 1170" stroke-width="18"/></g><g data-id="i1dry8hy" data-class="accid" class="accid"/></g><g data-id="p1nawl1u" data-class="rest" class="rest"><use href="#E4E5-dz9lniz" transform="translate(12296, 900) scale(0.72, 0.72)"/></g><g data-id="zf821g" data-class="note" class="note"><g data-class="notehead" class="notehead"><use href="#E0A4-dz9lniz" transform="translate(13143, 630) scale(0.72, 0.72)"/></g><g data-id="j1ijj0ek" data-class="stem" class="stem"><path d="M13152 658 L13152 1260" stroke-width="18"/></g></g></g></g><g data-id="w1un8yjo" data-class="barLine" class="barLine"><path d="M13991 540 L13991 1260" stroke-width="27"/></g></g></g></g></svg></svg>