<svg viewBox="0 0 560 84" version="1.1" xmlns="http://www.w3.org/2000/svg" xmlns:xlink="http://www.w3.org/1999/xlink" overflow="visible" id="k98lyvw"><desc>Engraved by Verovio 5.6.0-85e7620</desc><defs><g id="E062-k98lyvw"><path transform="scale(1,-1)" d="M582 -120c0 32 26 58 58 58s58 -26 58 -58s-26 -58 -58 -58s-58 26 -58 58zM582 120c0 32 26 58 58 58s58 -26 58 -58s-26 -58 -58 -58s-58 26 -58 58zM158 96c51 0 73 -14 88 -49l16 -39c0 -17 -2 -30 -7 -40c-3 -11 -10 -21 -19 -31c-17 -18 -49 -43 -84 -43 c-55 0 -77 13 -112 44c-24 21 -35 55 -35 100c0 46 14 81 32 112c30 52 71 79 137 93l36 6l26 2c154 0 235 -68 274 -182c11 -32 18 -68 18 -107c0 -103 -26 -182 -68 -250c-89 -145 -234 -230 -412 -288l-30 -5c-9 0 -14 3 -14 8c3 10 5 11 10 16c35 15 70 30 96 44l78 43 c96 57 162 136 197 258c9 33 17 60 22 100c3 22 5 35 6 39c-7 69 -16 115 -23 140s-4 22 -16 40c-8 12 -19 23 -31 34c-24 21 -62 44 -118 44c-48 0 -84 -8 -113 -28c-28 -19 -42 -44 -42 -73v-16c2 -5 3 -9 4 -11c24 22 52 39 84 39z"/></g><g id="E08A-k98lyvw"><path transform="scale(1,-1)" d="M340 179c-9 24 -56 41 -89 41c-46 0 -81 -28 -100 -58c-17 -28 -25 -78 -25 -150c0 -65 2 -111 8 -135c8 -31 18 -49 40 -67c20 -17 43 -25 70 -25c54 0 92 36 115 75c14 25 23 54 28 88h27c0 -63 -24 -105 -58 -141c-35 -38 -82 -56 -140 -56c-45 0 -83 13 -115 39 c-57 45 -101 130 -101 226c0 59 33 127 68 163c36 37 97 72 160 72c36 0 93 -21 121 -40c11 -8 23 -17 33 -30c19 -23 27 -48 27 -76c0 -51 -35 -88 -86 -88c-43 0 -76 27 -76 68c0 26 7 35 21 51c15 17 32 27 58 32c7 2 14 7 14 11z"/></g><g id="E0A4-k98lyvw"><path transform="scale(1,-1)" d="M0 -39c0 68 73 172 200 172c66 0 114 -37 114 -95c0 -84 -106 -171 -218 -171c-64 0 -96 30 -96 94z"/></g><g id="E4E6-k98lyvw"><path transform="scale(1,-1)" d="M0 123c7 34 33 56 69 60c29 -3 43 -9 53 -29c4 -8 7 -15 10 -22c0 -21 -1 -25 -11 -35c-5 -8 -18 -14 -40 -20l12 -3l15 -1c44 0 97 26 122 56c10 11 18 26 24 42c7 1 15 2 22 3l-140 -424h-36l111 330c-10 -6 -27 -12 -53 -16l-52 -8h-10l-20 1c-1 0 -8 3 -21 6 c-37 9 -55 28 -55 60z"/></g><g id="E4E5-k98lyvw"><path transform="scale(1,-1)" d="M107 292c-13 24 -30 49 -52 71c-1 1 0 2 0 3l-2 2c3 3 4 4 6 4c12 0 26 -7 40 -20s44 -40 89 -81c26 -24 28 -29 46 -47c4 -4 8 -9 10 -14c6 -8 8 -16 8 -27c0 -19 -12 -40 -36 -61c-28 -23 -49 -38 -61 -73c-4 -11 -7 -27 -10 -50c13 -43 34 -83 59 -121 c31 -47 59 -79 101 -129c-8 0 -26 7 -54 20l-62 29l-21 6l-23 1c-25 0 -45 -10 -60 -30l-4 -14l-1 -12c0 -33 20 -56 39 -78c8 -9 17 -18 26 -26c17 -15 27 -24 28 -30l-3 -3c-11 5 -19 10 -25 15c-9 3 -37 21 -45 26c-24 14 -45 32 -63 51c-19 21 -37 44 -37 71 c0 63 27 95 80 95c41 0 86 -18 136 -52c-19 26 -37 48 -55 66c-23 23 -48 44 -73 65c-28 23 -47 40 -58 53s-17 26 -18 39c75 64 113 125 113 183c0 27 -7 48 -18 68z"/></g></defs><style type="text/css">#k98lyvw g.page-margin {font-family:Times,serif;}#k98lyvw g.ending, #k98lyvw g.fing, #k98lyvw g.reh, #k98lyvw g.tempo {font-weight:bold;}#k98lyvw g.dir, #k98lyvw g.dynam, #k98lyvw g.mNum {font-style:italic;}#k98lyvw g.label {font-weight:normal;}#k98lyvw path {stroke:currentColor}</style><svg class="definition-scale" color="black" viewBox="0 0 14000 2100"><g class="page-margin" transform="translate(0, 150)"><g data-id="dxf47x7" data-class="mdiv" class="mdiv pageMilestone"/><g data-id="esg6mwu" data-class="score" class="score pageMilestone"/><g data-id="d19z3mq3" data-class="system" class="system"><g data-id="g7aacd" data-class="section" class="section systemMilestone"/><g data-id="l1rfc7b1" data-class="measure" class="measure"><g data-id="sevh042" data-class="staff" class="staff"><path d="M0 540 L5351 540" stroke-width="13"/><path d="M0 720 L5351 720" stroke-width="13"/><path d="M0 900 L5351 900" stroke-width="13"/><path d="M0 1080 L5351 1080" stroke-width="13"/><path d="M0 1260 L5351 1260" stroke-width="13"/><g data-id="v1mm7dca" data-class="clef" class="clef"><use href="#E062-k98lyvw" transform="translate(88, 720) scale(0.72, 0.72)"/></g><g data-id="wy8krbr" data-class="keySig" class="keySig"/><g data-id="x1srni7m" data-class="meterSig" class="meterSig"><use href="#E08A-k98lyvw" transform="translate(769, 900) scale(0.72, 0.72)"/></g><g data-class="ledgerLines" class="ledgerLines above"><g data-class="lineDash" class="lineDash" data-related="#ync44n5"><path d="M1865 360 L2187 360" stroke-width="22"/></g></g><g data-id="te2wdp5" data-class="layer" class="layer"><g data-id="w1bo6lm" data-class="beam" class="beam"><polygon stroke-opacity="1" fill-opacity="1" points="1349,1665 3060,1305 3060,1215 1349,1575"/><g data-id="x8q53p7" data-class="note" class="note"><g data-class="notehead" class="notehead"><use href="#E0A4-k98lyvw" transform="translate(1349, 1170) scale(0.72, 0.72)"/></g><g data-id="k1winzqb" data-class="stem" class="stem"><path d="M1358 1198 L1358 1647" stroke-width="18"/></g></g><g data-id="ync44n5" data-class="note" class="note"><g data-class="notehead" class="notehead"><use href="#E0A4-k98lyvw" transform="translate(1913, 360) scale(0.72, 0.72)"/></g><g data-id="l9cdhlf" data-class="stem" class="stem"><path d="M1922 388 L1922 1527" stroke-width="18"/></g></g><g data-id="zqzkrn7" data-class="note" class="note"><g data-class="notehead" class="notehead"><use href="#E0A4-k98lyvw" transform="translate(2477, 450) scale(0.72, 0.72)"/></g><g data-id="m1pof2m1" data-class="stem" class="stem"><path d="M2486 478 L2486 1407" stroke-width="18"/></g></g><g data-id="a1r2jmzo" data-class="note" class="note"><g data-class="notehead" class="notehead"><use href="#E0A4-k98lyvw" transform="translate(3042, 540) scale(0.72, 0.72)"/></g><g data-id="nrpfp0l" data-class="stem" class="stem"><path d="M3051 568 L3051 1287" stroke-width="18"/></g></g></g><g data-id="by3fo2v" data-class="note" class="note"><g data-class="notehead" class="notehead"><use href="#E0A4-k98lyvw" transform="translate(3606, 450) scale(0.72, 0.72)"/></g><g data-id="o1w9niqj" data-class="stem" class="stem"><path d="M3615 478 L3615 1080" stroke-width="18"/></g></g><g data-id="cwqcshq" data-class="note" class="note"><g data-class="notehead" class="notehead"><use href="#E0A4-k98lyvw" transform="translate(4472, 810) scale(0.72, 0.72)"/></g><g data-id="pqehafq" data-class="stem" class="stem"><path d="M4481 838 L4481 1440" stroke-width="18"/></g></g></g></g><g data-id="t1khibvf" data-class="barLine" class="barLine"><path d="M5338 540 L5338 1260" stroke-width="27"/></g></g><g data-id="u1tqtge2" data-class="measure" class="measure"><g data-id="us5e6mg" data-class="staff" class="staff"><path d="M5351 540 L9545 540" stroke-width="13"/><path d="M5351 720 L9545 720" stroke-width="13"/><path d="M5351 900 L9545 900" stroke-width="13"/><path d="M5351 1080 L9545 1080" stroke-width="13"/><path d="M5351 1260 L9545 1260" stroke-width="13"/><g data-class="ledgerLines" class="ledgerLines above"><g data-class="lineDash" class="lineDash" data-related="#d1c4br0k"><path d="M6059 360 L6381 360" stroke-width="22"/></g></g><g data-id="vc8yaek" data-class="layer" class="layer"><g data-id="vcn2ntw" data-class="rest" class="rest"><use href="#E4E6-k98lyvw" transform="translate(5543, 900) scale(0.72, 0.72)"/></g><g data-id="x130ybmp" data-class="beam" class="beam"><polygon stroke-opacity="1" fill-opacity="1" points="6107,945 7254,1125 7254,1035 6107,855"/><g data-id="d1c4br0k" data-class="note" class="note"><g data-class="notehead" class="notehead"><use href="#E0A4-k98lyvw" transform="translate(6107, 360) scale(0.72, 0.72)"/></g><g data-id="qxy5j9o" data-class="stem" class="stem"><path d="M6116 388 L6116 927" stroke-width="18"/></g></g><g data-id="e1b852zu" data-class="note" class="note"><g data-class="notehead" class="notehead"><use href="#E0A4-k98lyvw" transform="translate(6671, 450) scale(0.72, 0.72)"/></g><g data-id="r1htw2e4" data-class="stem" class="stem"><path d="M6680 478 L6680 1016" stroke-width="18"/></g></g><g data-id="f1rs0ipp" data-class="note" class="note"><g data-class="notehead" class="notehead"><use href="#E0A4-k98lyvw" transform="translate(7236, 540) scale(0.72, 0.72)"/></g><g data-id="segsngy" data-class="stem" class="stem"><path d="M7245 568 L7245 1107" stroke-width="18"/></g></g></g><g data-id="g8kclx3" data-class="note" class="note"><g data-class="notehead" class="notehead"><use href="#E0A4-k98lyvw" transform="translate(7800, 450) scale(0.72, 0.72)"/></g><g data-id="t1h9znfn" data-class="stem" class="stem"><path d="M7809 478 L7809 1080" stroke-width="18"/></g></g><g data-id="h1u47sv6" data-class="note" class="note"><g data-class="notehead" class="notehead"><use href="#E0A4-k98lyvw" transform="translate(8666, 810) scale(0.72, 0.72)"/></g><g data-id="uc7omsy" data-class="stem" class="stem"><path d="M8675 838 L8675 1440" stroke-width="18"/></g></g></g></g><g data-id="c1weq53v" data-class="barLine" class="barLine"><path d="M9532 540 L9532 1260" stroke-width="27"/></g></g><g data-id="drwpe27" data-class="measure" class="measure"><g data-id="w1b0x3v6" data-class="staff" class="staff"><path d="M9545 540 L14001 540" stroke-width="13"/><path d="M9545 720 L14001 720" stroke-width="13"/><path d="M9545 900 L14001 900" stroke-width="13"/><path d="M9545 1080 L14001 1080" stroke-width="13"/><path d="M9545 1260 L14001 1260" stroke-width="13"/><g data-class="ledgerLines" class="ledgerLines above"><g data-class="lineDash" class="lineDash" data-related="#i142tw0c"><path d="M10555 360 L10877 360" stroke-width="22"/></g><g data-class="lineDash" class="lineDash" data-related="#kjfmmlm"><path d="M11683 360 L12005 360" stroke-width="22"/></g><g data-class="lineDash" class="lineDash" data-related="#mx6s6vt"><path d="M12812 360 L13134 360" stroke-width="22"/></g><g data-class="lineDash" class="lineDash" data-related="#i142tw0c"><path d="M10555 180 L10877 180" stroke-width="22"/></g><g data-class="lineDash" class="lineDash" data-related="#mx6s6vt"><path d="M12812 180 L13134 180" stroke-width="22"/></g></g><g data-id="x1yw2dzm" data-class="layer" class="layer"><g data-id="wpbgq4g" data-class="rest" class="rest"><use href="#E4E5-k98lyvw" transform="translate(9737, 900) scale(0.72, 0.72)"/></g><g data-id="y10090is" data-class="beam" class="beam"><polygon stroke-opacity="1" fill-opacity="1" points="10603,900 11185,1080 11185,990 10603,810"/><g data-id="i142tw0c" data-class="note" class="note"><g data-class="notehead" class="notehead"><use href="#E0A4-k98lyvw" transform="translate(10603, 180) scale(0.72, 0.72)"/></g><g data-id="v10tf526" data-class="stem" class="stem"><path d="M10612 208 L10612 882" stroke-width="18"/></g></g><g data-id="jirc4l7" data-class="note" class="note"><g data-class="notehead" class="notehead"><use href="#E0A4-k98lyvw" transform="translate(11167, 450) scale(0.72, 0.72)"/></g><g data-id="w6juzno" data-class="stem" class="stem"><path d="M11176 478 L11176 1062" stroke-width="18"/></g></g></g><g data-id="z1vr6i6o" data-class="beam" class="beam"><polygon stroke-opacity="1" fill-opacity="1" points="11731,1125 13442,1125 13442,1035 11731,1035"/><g data-id="kjfmmlm" data-class="note" class="note"><g data-class="notehead" class="notehead"><use href="#E0A4-k98lyvw" transform="translate(11731, 360) scale(0.72, 0.72)"/></g><g data-id="x1ofjehi" data-class="stem" class="stem"><path d="M11740 388 L11740 1107" stroke-width="18"/></g></g><g data-id="l116bmu1" data-class="note" class="note"><g data-class="notehead" class="notehead"><use href="#E0A4-k98lyvw" transform="translate(12296, 540) scale(0.72, 0.72)"/></g><g data-id="y1o7p0b2" data-class="stem" class="stem"><path d="M12305 568 L12305 1107" stroke-width="18"/></g></g><g data-id="mx6s6vt" data-class="note" class="note"><g data-class="notehead" class="notehead"><use href="#E0A4-k98lyvw" transform="translate(12860, 180) scale(0.72, 0.72)"/></g><g data-id="z1kei19c" data-class="stem" class="stem"><path d="M12869 208 L12869 1107" stroke-width="18"/></g></g><g data-id="nxsd5lo" data-class="note" class="note"><g data-class="notehead" class="notehead"><use href="#E0A4-k98lyvw" transform="translate(13424, 450) scale(0.72, 0.72)"/></g><g data-id="a5x4qni" data-class="stem" class="stem"><path d="M13433 478 L13433 1107" stroke-width="18"/></g></g></g></g></g><g data-id="lrliv1p" data-class="barLine" class="barLine"><path d="M13988 540 L13988 1260" stroke-width="27"/></g></g></g></g></svg></svg>