<svg viewBox="0 0 560 88" version="1.1" xmlns="http://www.w3.org/2000/svg" xmlns:xlink="http://www.w3.org/1999/xlink" overflow="visible" id="i2v18q2"><desc>Engraved by Verovio 5.6.0-85e7620</desc><defs><g id="E050-i2v18q2"><path transform="scale(1,-1)" d="M441 -245c-23 -4 -48 -6 -76 -6c-59 0 -102 7 -130 20c-88 42 -150 93 -187 154c-26 44 -43 103 -48 176c0 6 -1 13 -1 19c0 54 15 111 45 170c29 57 65 106 110 148s96 85 153 127c-3 16 -8 46 -13 92c-4 43 -5 73 -5 89c0 117 16 172 69 257c34 54 64 82 89 82 c21 0 43 -30 69 -92s39 -115 41 -159v-15c0 -109 -21 -162 -67 -241c-13 -20 -63 -90 -98 -118c-13 -9 -25 -19 -37 -29l31 -181c8 1 18 2 28 2c58 0 102 -12 133 -35c59 -43 92 -104 98 -184c1 -7 1 -15 1 -22c0 -123 -87 -209 -181 -248c8 -57 17 -110 25 -162 c5 -31 6 -58 6 -80c0 -30 -5 -53 -14 -70c-35 -64 -88 -99 -158 -103c-5 0 -11 -1 -16 -1c-37 0 -72 10 -108 27c-50 24 -77 59 -80 105v11c0 29 7 55 20 76c18 28 45 42 79 44h6c49 0 93 -42 97 -87v-9c0 -51 -34 -86 -105 -106c17 -24 51 -36 102 -36c62 0 116 43 140 85 c9 16 13 41 13 74c0 20 -1 42 -5 67c-8 53 -18 106 -26 159zM461 939c-95 0 -135 -175 -135 -286c0 -24 2 -48 5 -71c50 39 92 82 127 128c40 53 60 100 60 140v8c-4 53 -22 81 -55 81h-2zM406 119l54 -326c73 25 110 78 110 161c0 7 0 15 -1 23c-7 95 -57 142 -151 142h-12 zM382 117c-72 -2 -128 -47 -128 -120v-7c2 -46 43 -99 75 -115c-3 -2 -7 -5 -10 -10c-70 33 -116 88 -123 172v11c0 68 44 126 88 159c23 17 49 29 78 36l-29 170c-21 -13 -52 -37 -92 -73c-50 -44 -86 -84 -109 -119c-45 -69 -67 -130 -67 -182v-13c5 -68 35 -127 93 -176 s125 -73 203 -73c25 0 50 3 75 9c-19 111 -36 221 -54 331z"/></g><g id="E260-i2v18q2"><path transform="scale(1,-1)" d="M20 110c32 16 54 27 93 27c26 0 35 -3 54 -13c13 -7 24 -20 27 -38l4 -25c0 -28 -16 -57 -45 -89c-23 -25 -39 -44 -65 -68l-88 -79v644h20v-359zM90 106c-32 0 -48 -10 -70 -29v-194c31 31 54 59 71 84c21 32 32 59 32 84c0 9 1 16 1 20c0 14 -3 21 -11 30l-8 3z"/></g><g id="E082-i2v18q2"><path transform="scale(1,-1)" d="M124 -185c-18 0 -55 -14 -65 -65h-36l-3 30c0 25 6 45 18 63c11 19 22 30 39 43l121 82l37 29c15 11 27 29 38 54c12 24 18 47 18 70c0 40 -19 88 -94 88c-25 0 -32 0 -50 -8c-14 -5 -23 -12 -26 -22c3 -9 7 -15 10 -18l24 -17c12 -7 17 -11 27 -21c5 -7 7 -16 7 -27 c0 -12 0 -57 -79 -74c-30 0 -76 26 -76 94c0 66 81 135 197 135c72 0 181 -32 181 -150c0 -53 -32 -95 -113 -133l-91 -41c-26 -11 -45 -23 -57 -37l49 7c84 0 115 -41 148 -41c20 0 33 20 39 61h35c0 -152 -68 -168 -114 -168c-17 0 -65 0 -79 7h10l-28 17 c-49 37 -69 40 -87 42z"/></g><g id="E084-i2v18q2"><path transform="scale(1,-1)" d="M20 -78c84 97 114 180 134 329h170c-13 -32 -82 -132 -99 -151l-84 -97c-33 -36 -59 -63 -80 -81h162v102l127 123v-225h57v-39h-57v-34c0 -43 19 -65 57 -65v-34h-244v36c48 0 60 26 60 70v27h-203v39z"/></g><g id="E4E7-i2v18q2"><path transform="scale(1,-1)" d="M133 -111c0 -33 -21 -50 -52 -55c10 -3 18 -4 25 -4c40 0 69 24 90 47l66 197c-36 -18 -64 -25 -112 -25c-23 0 -38 3 -45 8c-37 7 -55 27 -55 59c8 35 30 54 68 58c45 -6 49 -13 64 -48c0 -3 1 -5 1 -7c0 -27 -25 -46 -52 -49c6 -4 15 -6 26 -6c32 2 62 14 88 29 c32 19 44 36 59 71l7 1l10 2h4c-72 -220 -143 -439 -215 -659h-37l108 324c-20 -13 -51 -20 -82 -20c-21 0 -35 4 -43 10c-37 6 -55 26 -55 58c8 35 31 56 68 60c43 -8 48 -13 64 -51z"/></g><g id="E0A4-i2v18q2"><path transform="scale(1,-1)" d="M0 -39c0 68 73 172 200 172c66 0 114 -37 114 -95c0 -84 -106 -171 -218 -171c-64 0 -96 30 -96 94z"/></g><g id="E262-i2v18q2"><path transform="scale(1,-1)" d="M136 186v169h17v-164l44 14v-91l-44 -14v-165l44 12v-91l-44 -13v-155h-17v150l-76 -22v-155h-17v149l-43 -13v90l43 14v167l-43 -14v92l43 13v169h17v-163zM60 73v-167l76 22v168z"/></g></defs><style type="text/css">#i2v18q2 g.page-margin {font-family:Times,serif;}#i2v18q2 g.ending, #i2v18q2 g.fing, #i2v18q2 g.reh, #i2v18q2 g.tempo {font-weight:bold;}#i2v18q2 g.dir, #i2v18q2 g.dynam, #i2v18q2 g.mNum {font-style:italic;}#i2v18q2 g.label {font-weight:normal;}#i2v18q2 path {stroke:currentColor}</style><svg class="definition-scale" color="black" viewBox="0 0 14000 2190"><g class="page-margin" transform="translate(0, 150)"><g data-id="oza1orm" data-class="mdiv" class="mdiv pageMilestone"/><g data-id="p1d1gd57" data-class="score" class="score pageMilestone"/><g data-id="m1vh4rmw" data-class="system" class="system"><g data-id="r1psptbg" data-class="section" class="section systemMilestone"/><g data-id="j1hntw84" data-class="measure" class="measure"><g data-id="d1mrt2n7" data-class="staff" class="staff"><path d="M0 540 L4762 540" stroke-width="13"/><path d="M0 720 L4762 720" stroke-width="13"/><path d="M0 900 L4762 900" stroke-width="13"/><path d="M0 1080 L4762 1080" stroke-width="13"/><path d="M0 1260 L4762 1260" stroke-width="13"/><g data-id="t7k1d8h" data-class="clef" class="clef"><use href="#E050-i2v18q2" transform="translate(90, 1080) scale(0.72, 0.72)"/></g><g data-id="u1nwdnrf" data-class="keySig" class="keySig"><g data-id="v1h2e9iw" data-class="keyAccid" class="keyAccid"><use href="#E260-i2v18q2" transform="translate(735, 900) scale(0.72, 0.72)"/></g></g><g data-id="w12mgd85" data-class="meterSig" class="meterSig"><use href="#E082-i2v18q2" transform="translate(1043, 720) scale(0.72, 0.72)"/><use href="#E084-i2v18q2" transform="translate(1048, 1080) scale(0.72, 0.72)"/></g><g data-class="ledgerLines" class="ledgerLines below"><g data-class="lineDash" class="lineDash" data-related="#auel6en"><path d="M1921 1440 L2243 1440" stroke-width="22"/></g><g data-class="lineDash" class="lineDash" data-related="#duhwo0k"><path d="M3535 1440 L3857 1440" stroke-width="22"/></g><g data-class="lineDash" class="lineDash" data-related="#auel6en"><path d="M1921 1620 L2243 1620" stroke-width="22"/></g><g data-class="lineDash" class="lineDash" data-related="#auel6en"><path d="M1921 1800 L2243 1800" stroke-width="22"/></g></g><g data-id="e6m0f52" data-class="layer" class="layer"><g data-id="t1uvzfi1" data-class="rest" class="rest"><use href="#E4E7-i2v18q2" transform="translate(1636, 900) scale(0.72, 0.72)"/></g><g data-id="betrwmr" data-class="beam" class="beam"><polygon stroke-opacity="1" fill-opacity="1" points="2177,540 2896,540 2896,630 2177,630"/><polygon stroke-opacity="1" fill-opacity="1" points="2177,675 2536,675 2536,765 2177,765"/><polygon stroke-opacity="1" fill-opacity="1" points="2536,675 2896,675 2896,765 2536,765"/><g data-id="auel6en" data-class="note" class="note"><g data-class="notehead" class="notehead"><use href="#E0A4-i2v18q2" transform="translate(1969, 1800) scale(0.72, 0.72)"/></g><g data-id="w1kfevb4" data-class="stem" class="stem"><path d="M2186 1772 L2186 558" stroke-width="18"/></g></g><g data-id="b1b4hb6c" data-class="note" class="note"><g data-class="notehead" class="notehead"><use href="#E0A4-i2v18q2" transform="translate(2319, 1170) scale(0.72, 0.72)"/></g><g data-id="xdrtifm" data-class="stem" class="stem"><path d="M2536 1142 L2536 558" stroke-width="18"/></g></g><g data-id="c13c6y2b" data-class="note" class="note"><g data-class="notehead" class="notehead"><use href="#E0A4-i2v18q2" transform="translate(2670, 1170) scale(0.72, 0.72)"/></g><g data-id="yupws6m" data-class="stem" class="stem"><path d="M2887 1142 L2887 558" stroke-width="18"/></g></g></g><g data-id="u22k2yy" data-class="rest" class="rest"><use href="#E4E7-i2v18q2" transform="translate(3020, 900) scale(0.72, 0.72)"/></g><g data-id="cfnr3uc" data-class="beam" class="beam"><polygon stroke-opacity="1" fill-opacity="1" points="3791,315 4510,315 4510,405 3791,405"/><polygon stroke-opacity="1" fill-opacity="1" points="3791,450 4150,450 4150,540 3791,540"/><polygon stroke-opacity="1" fill-opacity="1" points="4150,450 4510,450 4510,540 4150,540"/><g data-id="duhwo0k" data-class="note" class="note"><g data-class="notehead" class="notehead"><use href="#E0A4-i2v18q2" transform="translate(3583, 1440) scale(0.72, 0.72)"/></g><g data-id="z1yseffa" data-class="stem" class="stem"><path d="M3800 1412 L3800 333" stroke-width="18"/></g><g data-id="z1fn9god" data-class="accid" class="accid"><use href="#E262-i2v18q2" transform="translate(3371, 1440) scale(0.72, 0.72)"/></g></g><g data-id="ea76xdy" data-class="note" class="note"><g data-class="notehead" class="notehead"><use href="#E0A4-i2v18q2" transform="translate(3933, 900) scale(0.72, 0.72)"/></g><g data-id="a1e5fkpr" data-class="stem" class="stem"><path d="M4150 872 L4150 333" stroke-width="18"/></g><g data-id="ji8u6qw" data-class="accid" class="accid"/></g><g data-id="ffy0uwr" data-class="note" class="note"><g data-class="notehead" class="notehead"><use href="#E0A4-i2v18q2" transform="translate(4284, 900) scale(0.72, 0.72)"/></g><g data-id="b1psxxzd" data-class="stem" class="stem"><path d="M4501 872 L4501 333" stroke-width="18"/></g><g data-id="k1ngf120" data-class="accid" class="accid"/></g></g></g></g><g data-id="rr8da1c" data-class="barLine" class="barLine"><path d="M4650 540 L4650 1260" stroke-width="27"/><path d="M4749 540 L4749 1260" stroke-width="27"/></g></g><g data-id="s6qb5hc" data-class="measure" class="measure"><g data-id="fc99n4e" data-class="staff" class="staff"><path d="M4762 540 L7759 540" stroke-width="13"/><path d="M4762 720 L7759 720" stroke-width="13"/><path d="M4762 900 L7759 900" stroke-width="13"/><path d="M4762 1080 L7759 1080" stroke-width="13"/><path d="M4762 1260 L7759 1260" stroke-width="13"/><g data-class="ledgerLines" class="ledgerLines below"><g data-class="lineDash" class="lineDash" data-related="#g5z7gtk"><path d="M5247 1440 L5569 1440" stroke-width="22"/></g><g data-class="lineDash" class="lineDash" data-related="#g5z7gtk"><path d="M5247 1620 L5569 1620" stroke-width="22"/></g></g><g data-id="g1tww0qi" data-class="layer" class="layer"><g data-id="v1litt1i" data-class="rest" class="rest"><use href="#E4E7-i2v18q2" transform="translate(4962, 900) scale(0.72, 0.72)"/></g><g data-id="d1ymsqod" data-class="beam" class="beam"><polygon stroke-opacity="1" fill-opacity="1" points="5503,495 6222,495 6222,585 5503,585"/><polygon stroke-opacity="1" fill-opacity="1" points="5503,630 5862,630 5862,720 5503,720"/><polygon stroke-opacity="1" fill-opacity="1" points="5862,630 6222,630 6222,720 5862,720"/><g data-id="g5z7gtk" data-class="note" class="note"><g data-class="notehead" class="notehead"><use href="#E0A4-i2v18q2" transform="translate(5295, 1710) scale(0.72, 0.72)"/></g><g data-id="c1cmcq8b" data-class="stem" class="stem"><path d="M5512 1682 L5512 513" stroke-width="18"/></g></g><g data-id="h3ljcv7" data-class="note" class="note"><g data-class="notehead" class="notehead"><use href="#E0A4-i2v18q2" transform="translate(5645, 1080) scale(0.72, 0.72)"/></g><g data-id="d1aui7nz" data-class="stem" class="stem"><path d="M5862 1052 L5862 513" stroke-width="18"/></g></g><g data-id="i1is1lcu" data-class="note" class="note"><g data-class="notehead" class="notehead"><use href="#E0A4-i2v18q2" transform="translate(5996, 1080) scale(0.72, 0.72)"/></g><g data-id="e56jq5u" data-class="stem" class="stem"><path d="M6213 1052 L6213 513" stroke-width="18"/></g></g></g><g data-id="w1uutcy" data-class="rest" class="rest"><use href="#E4E7-i2v18q2" transform="translate(6346, 900) scale(0.72, 0.72)"/></g><g data-id="eux3nqd" data-class="beam" class="beam"><polygon stroke-opacity="1" fill-opacity="1" points="6887,225 7606,225 7606,315 6887,315"/><polygon stroke-opacity="1" fill-opacity="1" points="6887,360 7246,360 7246,450 6887,450"/><polygon stroke-opacity="1" fill-opacity="1" points="7246,360 7606,360 7606,450 7246,450"/><g data-id="jxejcbm" data-class="note" class="note"><g data-class="notehead" class="notehead"><use href="#E0A4-i2v18q2" transform="translate(6679, 1350) scale(0.72, 0.72)"/></g><g data-id="f2dnsob" data-class="stem" class="stem"><path d="M6896 1322 L6896 243" stroke-width="18"/></g></g><g data-id="k95wd2f" data-class="note" class="note"><g data-class="notehead" class="notehead"><use href="#E0A4-i2v18q2" transform="translate(7029, 810) scale(0.72, 0.72)"/></g><g data-id="g1s72fro" data-class="stem" class="stem"><path d="M7246 782 L7246 243" stroke-width="18"/></g></g><g data-id="lnb8grx" data-class="note" class="note"><g data-class="notehead" class="notehead"><use href="#E0A4-i2v18q2" transform="translate(7380, 810) scale(0.72, 0.72)"/></g><g data-id="h18oadkf" data-class="stem" class="stem"><path d="M7597 782 L7597 243" stroke-width="18"/></g></g></g></g></g><g data-id="ateryf4" data-class="barLine" class="barLine"><path d="M7746 540 L7746 1260" stroke-width="27"/></g></g><g data-id="b1slsdiv" data-class="measure" class="measure"><g data-id="h1lrtkvc" data-class="staff" class="staff"><path d="M7759 540 L10756 540" stroke-width="13"/><path d="M7759 720 L10756 720" stroke-width="13"/><path d="M7759 900 L10756 900" stroke-width="13"/><path d="M7759 1080 L10756 1080" stroke-width="13"/><path d="M7759 1260 L10756 1260" stroke-width="13"/><g data-class="ledgerLines" class="ledgerLines below"><g data-class="lineDash" class="lineDash" data-related="#m1le3gxi"><path d="M8244 1440 L8566 1440" stroke-width="22"/></g></g><g data-id="i1qvfowi" data-class="layer" class="layer"><g data-id="xem5ost" data-class="rest" class="rest"><use href="#E4E7-i2v18q2" transform="translate(7959, 900) scale(0.72, 0.72)"/></g><g data-id="fe28fsv" data-class="beam" class="beam"><polygon stroke-opacity="1" fill-opacity="1" points="8500,360 9219,360 9219,450 8500,450"/><polygon stroke-opacity="1" fill-opacity="1" points="8500,495 8859,495 8859,585 8500,585"/><polygon stroke-opacity="1" fill-opacity="1" points="8859,495 9219,495 9219,585 8859,585"/><g data-id="m1le3gxi" data-class="note" class="note"><g data-class="notehead" class="notehead"><use href="#E0A4-i2v18q2" transform="translate(8292, 1440) scale(0.72, 0.72)"/></g><g data-id="i1kyxina" data-class="stem" class="stem"><path d="M8509 1412 L8509 378" stroke-width="18"/></g></g><g data-id="n54p2nu" data-class="note" class="note"><g data-class="notehead" class="notehead"><use href="#E0A4-i2v18q2" transform="translate(8642, 990) scale(0.72, 0.72)"/></g><g data-id="jxavufk" data-class="stem" class="stem"><path d="M8859 962 L8859 378" stroke-width="18"/></g></g><g data-id="o5a9p04" data-class="note" class="note"><g data-class="notehead" class="notehead"><use href="#E0A4-i2v18q2" transform="translate(8993, 990) scale(0.72, 0.72)"/></g><g data-id="k1mi7s11" data-class="stem" class="stem"><path d="M9210 962 L9210 378" stroke-width="18"/></g></g></g><g data-id="yf7c8y5" data-class="rest" class="rest"><use href="#E4E7-i2v18q2" transform="translate(9343, 900) scale(0.72, 0.72)"/></g><g data-id="g1r8qzds" data-class="beam" class="beam"><polygon stroke-opacity="1" fill-opacity="1" points="9884,135 10603,135 10603,225 9884,225"/><polygon stroke-opacity="1" fill-opacity="1" points="9884,270 10243,270 10243,360 9884,360"/><polygon stroke-opacity="1" fill-opacity="1" points="10243,270 10603,270 10603,360 10243,360"/><g data-id="pp5wkr2" data-class="note" class="note"><g data-class="notehead" class="notehead"><use href="#E0A4-i2v18q2" transform="translate(9676, 1350) scale(0.72, 0.72)"/></g><g data-id="l7hitdo" data-class="stem" class="stem"><path d="M9893 1322 L9893 153" stroke-width="18"/></g></g><g data-id="q2ycdvx" data-class="note" class="note"><g data-class="notehead" class="notehead"><use href="#E0A4-i2v18q2" transform="translate(10026, 720) scale(0.72, 0.72)"/></g><g data-id="m1n98mfk" data-class="stem" class="stem"><path d="M10243 692 L10243 153" stroke-width="18"/></g></g><g data-id="r1c9g0tc" data-class="note" class="note"><g data-class="notehead" class="notehead"><use href="#E0A4-i2v18q2" transform="translate(10377, 720) scale(0.72, 0.72)"/></g><g data-id="n14nbwc4" data-class="stem" class="stem"><path d="M10594 692 L10594 153" stroke-width="18"/></g></g></g></g></g><g data-id="j1jhucm1" data-class="barLine" class="barLine"><path d="M10743 540 L10743 1260" stroke-width="27"/></g></g><g data-id="ka284qv" data-class="measure" class="measure"><g data-id="j4a5lmu" data-class="staff" class="staff"><path d="M10756 540 L14003 540" stroke-width="13"/><path d="M10756 720 L14003 720" stroke-width="13"/><path d="M10756 900 L14003 900" stroke-width="13"/><path d="M10756 1080 L14003 1080" stroke-width="13"/><path d="M10756 1260 L14003 1260" stroke-width="13"/><g data-id="kez2czd" data-class="layer" class="layer"><g data-id="z8qygz9" data-class="rest" class="rest"><use href="#E4E7-i2v18q2" transform="translate(10956, 900) scale(0.72, 0.72)"/></g><g data-id="h1uzeibj" data-class="beam" class="beam"><polygon stroke-opacity="1" fill-opacity="1" points="11521,1440 12240,1260 12240,1170 11521,1350"/><polygon stroke-opacity="1" fill-opacity="1" points="11521,1305 11880,1215 11880,1125 11521,1215"/><polygon stroke-opacity="1" fill-opacity="1" points="11880,1215 12240,1125 12240,1035 11880,1125"/><g data-id="s3bzr6c" data-class="note" class="note"><g data-class="notehead" class="notehead"><use href="#E0A4-i2v18q2" transform="translate(11521, 810) scale(0.72, 0.72)"/></g><g data-id="or5wi56" data-class="stem" class="stem"><path d="M11530 838 L11530 1422" stroke-width="18"/></g><g data-id="a13yb9q5" data-class="accid" class="accid"><use href="#E262-i2v18q2" transform="translate(11335, 810) scale(0.72, 0.72)"/></g></g><g data-id="tv2rlmo" data-class="note" class="note"><g data-class="notehead" class="notehead"><use href="#E0A4-i2v18q2" transform="translate(11871, 450) scale(0.72, 0.72)"/></g><g data-id="p251q02" data-class="stem" class="stem"><path d="M11880 478 L11880 1332" stroke-width="18"/></g></g><g data-id="unbwgn" data-class="note" class="note"><g data-class="notehead" class="notehead"><use href="#E0A4-i2v18q2" transform="translate(12222, 630) scale(0.72, 0.72)"/></g><g data-id="q141wsso" data-class="stem" class="stem"><path d="M12231 658 L12231 1242" stroke-width="18"/></g></g></g><g data-id="i17ydiqj" data-class="beam" class="beam"><polygon stroke-opacity="1" fill-opacity="1" points="12572,1530 13642,1575 13642,1485 12572,1440"/><polygon stroke-opacity="1" fill-opacity="1" points="12572,1395 12932,1410 12932,1320 12572,1305"/><polygon stroke-opacity="1" fill-opacity="1" points="12932,1410 13282,1424 13282,1334 12932,1320"/><polygon stroke-opacity="1" fill-opacity="1" points="13282,1424 13642,1440 13642,1350 13282,1334"/><g data-id="v1tgj56p" data-class="note" class="note"><g data-class="notehead" class="notehead"><use href="#E0A4-i2v18q2" transform="translate(12572, 720) scale(0.72, 0.72)"/></g><g data-id="rxqdcxr" data-class="stem" class="stem"><path d="M12581 748 L12581 1512" stroke-width="18"/></g></g><g data-id="wbt7o6k" data-class="note" class="note"><g data-class="notehead" class="notehead"><use href="#E0A4-i2v18q2" transform="translate(12923, 810) scale(0.72, 0.72)"/></g><g data-id="s11wrs53" data-class="stem" class="stem"><path d="M12932 838 L12932 1527" stroke-width="18"/></g><g data-id="l194lqzb" data-class="accid" class="accid"/></g><g data-id="x1rxollv" data-class="note" class="note"><g data-class="notehead" class="notehead"><use href="#E0A4-i2v18q2" transform="translate(13273, 630) scale(0.72, 0.72)"/></g><g data-id="tkq828a" data-class="stem" class="stem"><path d="M13282 658 L13282 1541" stroke-width="18"/></g></g><g data-id="yiledc2" data-class="note" class="note"><g data-class="notehead" class="notehead"><use href="#E0A4-i2v18q2" transform="translate(13624, 900) scale(0.72, 0.72)"/></g><g data-id="usk520n" data-class="stem" class="stem"><path d="M13633 928 L13633 1557" stroke-width="18"/></g><g data-id="m1cm4kg2" data-class="accid" class="accid"/></g></g></g></g><g data-id="s18m933n" data-class="barLine" class="barLine"><path d="M13990 540 L13990 1260" stroke-width="27"/></g></g><g data-id="sf1goq6" data-class="systemMilestoneEnd" class="systemMilestoneEnd r1psptbg"/></g><g data-id="t1xz26zw" data-class="pageMilestoneEnd" class="pageMilestoneEnd p1d1gd57"/><g data-id="u1ps80cn" data-class="pageMilestoneEnd" class="pageMilestoneEnd oza1orm"/></g></svg></svg>