<svg viewBox="0 0 560 84" version="1.1" xmlns="http://www.w3.org/2000/svg" xmlns:xlink="http://www.w3.org/1999/xlink" overflow="visible" id="h11o357p"><desc>Engraved by Verovio 5.6.0-85e7620</desc><defs><g id="E050-h11o357p"><path transform="scale(1,-1)" d="M441 -245c-23 -4 -48 -6 -76 -6c-59 0 -102 7 -130 20c-88 42 -150 93 -187 154c-26 44 -43 103 -48 176c0 6 -1 13 -1 19c0 54 15 111 45 170c29 57 65 106 110 148s96 85 153 127c-3 16 -8 46 -13 92c-4 43 -5 73 -5 89c0 117 16 172 69 257c34 54 64 82 89 82 c21 0 43 -30 69 -92s39 -115 41 -159v-15c0 -109 -21 -162 -67 -241c-13 -20 -63 -90 -98 -118c-13 -9 -25 -19 -37 -29l31 -181c8 1 18 2 28 2c58 0 102 -12 133 -35c59 -43 92 -104 98 -184c1 -7 1 -15 1 -22c0 -123 -87 -209 -181 -248c8 -57 17 -110 25 -162 c5 -31 6 -58 6 -80c0 -30 -5 -53 -14 -70c-35 -64 -88 -99 -158 -103c-5 0 -11 -1 -16 -1c-37 0 -72 10 -108 27c-50 24 -77 59 -80 105v11c0 29 7 55 20 76c18 28 45 42 79 44h6c49 0 93 -42 97 -87v-9c0 -51 -34 -86 -105 -106c17 -24 51 -36 102 -36c62 0 116 43 140 85 c9 16 13 41 13 74c0 20 -1 42 -5 67c-8 53 -18 106 -26 159zM461 939c-95 0 -135 -175 -135 -286c0 -24 2 -48 5 -71c50 39 92 82 127 128c40 53 60 100 60 140v8c-4 53 -22 81 -55 81h-2zM406 119l54 -326c73 25 110 78 110 161c0 7 0 15 -1 23c-7 95 -57 142 -151 142h-12 zM382 117c-72 -2 -128 -47 -128 -120v-7c2 -46 43 -99 75 -115c-3 -2 -7 -5 -10 -10c-70 33 -116 88 -123 172v11c0 68 44 126 88 159c23 17 49 29 78 36l-29 170c-21 -13 -52 -37 -92 -73c-50 -44 -86 -84 -109 -119c-45 -69 -67 -130 -67 -182v-13c5 -68 35 -127 93 -176 s125 -73 203 -73c25 0 50 3 75 9c-19 111 -36 221 -54 331z"/></g><g id="E262-h11o357p"><path transform="scale(1,-1)" d="M136 186v169h17v-164l44 14v-91l-44 -14v-165l44 12v-91l-44 -13v-155h-17v150l-76 -22v-155h-17v149l-43 -13v90l43 14v167l-43 -14v92l43 13v169h17v-163zM60 73v-167l76 22v168z"/></g><g id="E086-h11o357p"><path transform="scale(1,-1)" d="M284 -91c0 37 -28 92 -67 92c-35 0 -65 -54 -65 -111c0 -52 22 -104 68 -104c47 0 64 68 64 123zM230 214c-36 0 -90 -33 -90 -184l2 -36c40 24 81 36 120 36c80 0 140 -48 140 -121c0 -99 -99 -159 -182 -159c-160 0 -200 173 -200 244c0 21 2 43 7 71l10 35 c26 85 73 115 98 126c41 19 74 24 103 24c93 0 142 -63 142 -105c0 -58 -52 -72 -73 -72c-33 0 -59 24 -65 35c-3 5 -6 14 -7 25l11 30c6 15 9 27 9 35c0 11 -9 16 -25 16z"/></g><g id="E088-h11o357p"><path transform="scale(1,-1)" d="M195 -214c76 0 88 58 90 68c0 34 -35 60 -57 73l-52 29c-21 10 -32 17 -34 20c-39 -33 -58 -54 -62 -92c5 -23 23 -98 115 -98zM301 135c0 61 -72 76 -113 76c-40 0 -77 -17 -77 -51c3 -21 15 -38 26 -50c17 -15 33 -26 48 -34l65 -28c34 27 51 56 51 87zM176 -250 c-57 0 -166 26 -166 132c0 47 30 86 89 116c-33 15 -79 60 -79 119c0 79 85 132 178 132h18c5 0 21 1 28 -1c25 0 126 -30 126 -110c0 -37 -23 -76 -69 -116c43 -25 83 -71 83 -119c0 -101 -118 -153 -208 -153z"/></g><g id="E4E6-h11o357p"><path transform="scale(1,-1)" d="M0 123c7 34 33 56 69 60c29 -3 43 -9 53 -29c4 -8 7 -15 10 -22c0 -21 -1 -25 -11 -35c-5 -8 -18 -14 -40 -20l12 -3l15 -1c44 0 97 26 122 56c10 11 18 26 24 42c7 1 15 2 22 3l-140 -424h-36l111 330c-10 -6 -27 -12 -53 -16l-52 -8h-10l-20 1c-1 0 -8 3 -21 6 c-37 9 -55 28 -55 60z"/></g><g id="E0A4-h11o357p"><path transform="scale(1,-1)" d="M0 -39c0 68 73 172 200 172c66 0 114 -37 114 -95c0 -84 -106 -171 -218 -171c-64 0 -96 30 -96 94z"/></g></defs><style type="text/css">#h11o357p g.page-margin {font-family:Times,serif;}#h11o357p g.ending, #h11o357p g.fing, #h11o357p g.reh, #h11o357p g.tempo {font-weight:bold;}#h11o357p g.dir, #h11o357p g.dynam, #h11o357p g.mNum {font-style:italic;}#h11o357p g.label {font-weight:normal;}#h11o357p path {stroke:currentColor}</style><svg class="definition-scale" color="black" viewBox="0 0 14000 2100"><g class="page-margin" transform="translate(0, 150)"><g data-id="v1mkj6um" data-class="mdiv" class="mdiv pageMilestone"/><g data-id="wiax229" data-class="score" class="score pageMilestone"/><g data-id="c1ewhhxz" data-class="system" class="system"><g data-id="y1k01o2" data-class="section" class="section systemMilestone"/><g data-id="i1tkt1td" data-class="measure" class="measure"><g data-id="k184jj05" data-class="staff" class="staff"><path d="M0 540 L4670 540" stroke-width="13"/><path d="M0 720 L4670 720" stroke-width="13"/><path d="M0 900 L4670 900" stroke-width="13"/><path d="M0 1080 L4670 1080" stroke-width="13"/><path d="M0 1260 L4670 1260" stroke-width="13"/><g data-id="h11sxxz9" data-class="clef" class="clef"><use href="#E050-h11o357p" transform="translate(90, 1080) scale(0.72, 0.72)"/></g><g data-id="i1m53gzn" data-class="keySig" class="keySig"><g data-id="j1dfqkrg" data-class="keyAccid" class="keyAccid"><use href="#E262-h11o357p" transform="translate(735, 540) scale(0.72, 0.72)"/></g><g data-id="k1mzrfqi" data-class="keyAccid" class="keyAccid"><use href="#E262-h11o357p" transform="translate(913, 810) scale(0.72, 0.72)"/></g><g data-id="l1u4r0vl" data-class="keyAccid" class="keyAccid"><use href="#E262-h11o357p" transform="translate(1091, 450) scale(0.72, 0.72)"/></g></g><g data-id="mplq4e8" data-class="meterSig" class="meterSig"><use href="#E086-h11o357p" transform="translate(1398, 720) scale(0.72, 0.72)"/><use href="#E088-h11o357p" transform="translate(1405, 1080) scale(0.72, 0.72)"/></g><g data-class="ledgerLines" class="ledgerLines below"><g data-class="lineDash" class="lineDash" data-related="#c4j7l3u"><path d="M2359 1440 L2681 1440" stroke-width="22"/></g><g data-class="lineDash" class="lineDash" data-related="#dzjgxh5"><path d="M2809 1440 L3131 1440" stroke-width="22"/></g><g data-class="lineDash" class="lineDash" data-related="#f1o6e06x"><path d="M3709 1440 L4031 1440" stroke-width="22"/></g><g data-class="lineDash" class="lineDash" data-related="#c4j7l3u"><path d="M2359 1620 L2681 1620" stroke-width="22"/></g></g><g data-id="l1autf34" data-class="layer" class="layer"><g data-id="a1qxn51r" data-class="rest" class="rest"><use href="#E4E6-h11o357p" transform="translate(1957, 900) scale(0.72, 0.72)"/></g><g data-id="muie778" data-class="beam" class="beam"><polygon stroke-opacity="1" fill-opacity="1" points="2615,855 3083,810 3083,900 2615,945"/><g data-id="c4j7l3u" data-class="note" class="note"><g data-class="notehead" class="notehead"><use href="#E0A4-h11o357p" transform="translate(2407, 1620) scale(0.72, 0.72)"/></g><g data-id="bwo2uyy" data-class="stem" class="stem"><path d="M2624 1592 L2624 873" stroke-width="18"/></g></g><g data-id="dzjgxh5" data-class="note" class="note"><g data-class="notehead" class="notehead"><use href="#E0A4-h11o357p" transform="translate(2857, 1440) scale(0.72, 0.72)"/></g><g data-id="c106h5lh" data-class="stem" class="stem"><path d="M3074 1412 L3074 828" stroke-width="18"/></g><g data-id="q1q6rgkd" data-class="accid" class="accid"/></g></g><g data-id="n1deyasy" data-class="beam" class="beam"><polygon stroke-opacity="1" fill-opacity="1" points="3515,360 4433,360 4433,450 3515,450"/><g data-id="en38rda" data-class="note" class="note"><g data-class="notehead" class="notehead"><use href="#E0A4-h11o357p" transform="translate(3307, 990) scale(0.72, 0.72)"/></g><g data-id="dvppn8" data-class="stem" class="stem"><path d="M3524 962 L3524 378" stroke-width="18"/></g></g><g data-id="f1o6e06x" data-class="note" class="note"><g data-class="notehead" class="notehead"><use href="#E0A4-h11o357p" transform="translate(3757, 1440) scale(0.72, 0.72)"/></g><g data-id="ee46lnj" data-class="stem" class="stem"><path d="M3974 1412 L3974 378" stroke-width="18"/></g><g data-id="r18exqo7" data-class="accid" class="accid"/></g><g data-id="g1mb6kv7" data-class="note" class="note"><g data-class="notehead" class="notehead"><use href="#E0A4-h11o357p" transform="translate(4207, 990) scale(0.72, 0.72)"/></g><g data-id="f186xzo7" data-class="stem" class="stem"><path d="M4424 962 L4424 378" stroke-width="18"/></g></g></g></g></g><g data-id="qd2y7c7" data-class="barLine" class="barLine"><path d="M4657 540 L4657 1260" stroke-width="27"/></g></g><g data-id="rk810zs" data-class="measure" class="measure"><g data-id="m1dxb0li" data-class="staff" class="staff"><path d="M4670 540 L7563 540" stroke-width="13"/><path d="M4670 720 L7563 720" stroke-width="13"/><path d="M4670 900 L7563 900" stroke-width="13"/><path d="M4670 1080 L7563 1080" stroke-width="13"/><path d="M4670 1260 L7563 1260" stroke-width="13"/><g data-class="ledgerLines" class="ledgerLines below"><g data-class="lineDash" class="lineDash" data-related="#h1akqx01"><path d="M5252 1440 L5574 1440" stroke-width="22"/></g><g data-class="lineDash" class="lineDash" data-related="#i1xkmc1x"><path d="M5702 1440 L6024 1440" stroke-width="22"/></g><g data-class="lineDash" class="lineDash" data-related="#kdtjhfe"><path d="M6602 1440 L6924 1440" stroke-width="22"/></g><g data-class="lineDash" class="lineDash" data-related="#h1akqx01"><path d="M5252 1620 L5574 1620" stroke-width="22"/></g></g><g data-id="npem0lc" data-class="layer" class="layer"><g data-id="b12baqjn" data-class="rest" class="rest"><use href="#E4E6-h11o357p" transform="translate(4850, 900) scale(0.72, 0.72)"/></g><g data-id="o1a6u51h" data-class="beam" class="beam"><polygon stroke-opacity="1" fill-opacity="1" points="5508,855 5976,810 5976,900 5508,945"/><g data-id="h1akqx01" data-class="note" class="note"><g data-class="notehead" class="notehead"><use href="#E0A4-h11o357p" transform="translate(5300, 1620) scale(0.72, 0.72)"/></g><g data-id="g16yj9sd" data-class="stem" class="stem"><path d="M5517 1592 L5517 873" stroke-width="18"/></g></g><g data-id="i1xkmc1x" data-class="note" class="note"><g data-class="notehead" class="notehead"><use href="#E0A4-h11o357p" transform="translate(5750, 1440) scale(0.72, 0.72)"/></g><g data-id="h1q8ccuo" data-class="stem" class="stem"><path d="M5967 1412 L5967 828" stroke-width="18"/></g><g data-id="s1qaeu8o" data-class="accid" class="accid"/></g></g><g data-id="pv2lpg7" data-class="beam" class="beam"><polygon stroke-opacity="1" fill-opacity="1" points="6408,360 7326,360 7326,450 6408,450"/><g data-id="j1bwde18" data-class="note" class="note"><g data-class="notehead" class="notehead"><use href="#E0A4-h11o357p" transform="translate(6200, 990) scale(0.72, 0.72)"/></g><g data-id="i9l4s4j" data-class="stem" class="stem"><path d="M6417 962 L6417 378" stroke-width="18"/></g></g><g data-id="kdtjhfe" data-class="note" class="note"><g data-class="notehead" class="notehead"><use href="#E0A4-h11o357p" transform="translate(6650, 1440) scale(0.72, 0.72)"/></g><g data-id="jvk7fk9" data-class="stem" class="stem"><path d="M6867 1412 L6867 378" stroke-width="18"/></g><g data-id="t1bfbkkc" data-class="accid" class="accid"/></g><g data-id="lowjm7o" data-class="note" class="note"><g data-class="notehead" class="notehead"><use href="#E0A4-h11o357p" transform="translate(7100, 990) scale(0.72, 0.72)"/></g><g data-id="k16dje9s" data-class="stem" class="stem"><path d="M7317 962 L7317 378" stroke-width="18"/></g></g></g></g></g><g data-id="z1q97g6e" data-class="barLine" class="barLine"><path d="M7550 540 L7550 1260" stroke-width="27"/></g></g><g data-id="v1qts2zl" data-class="systemMilestoneEnd" class="systemMilestoneEnd y1k01o2"/></g><g data-id="wqnub10" data-class="pageMilestoneEnd" class="pageMilestoneEnd wiax229"/><g data-id="xpbrcqv" data-class="pageMilestoneEnd" class="pageMilestoneEnd v1mkj6um"/></g></svg></svg>