<svg viewBox="0 0 560 84" version="1.1" xmlns="http://www.w3.org/2000/svg" xmlns:xlink="http://www.w3.org/1999/xlink" overflow="visible" id="m10vmdvv"><desc>Engraved by Verovio 5.6.0-85e7620</desc><defs><g id="E050-m10vmdvv"><path transform="scale(1,-1)" d="M441 -245c-23 -4 -48 -6 -76 -6c-59 0 -102 7 -130 20c-88 42 -150 93 -187 154c-26 44 -43 103 -48 176c0 6 -1 13 -1 19c0 54 15 111 45 170c29 57 65 106 110 148s96 85 153 127c-3 16 -8 46 -13 92c-4 43 -5 73 -5 89c0 117 16 172 69 257c34 54 64 82 89 82 c21 0 43 -30 69 -92s39 -115 41 -159v-15c0 -109 -21 -162 -67 -241c-13 -20 -63 -90 -98 -118c-13 -9 -25 -19 -37 -29l31 -181c8 1 18 2 28 2c58 0 102 -12 133 -35c59 -43 92 -104 98 -184c1 -7 1 -15 1 -22c0 -123 -87 -209 -181 -248c8 -57 17 -110 25 -162 c5 -31 6 -58 6 -80c0 -30 -5 -53 -14 -70c-35 -64 -88 -99 -158 -103c-5 0 -11 -1 -16 -1c-37 0 -72 10 -108 27c-50 24 -77 59 -80 105v11c0 29 7 55 20 76c18 28 45 42 79 44h6c49 0 93 -42 97 -87v-9c0 -51 -34 -86 -105 -106c17 -24 51 -36 102 -36c62 0 116 43 140 85 c9 16 13 41 13 74c0 20 -1 42 -5 67c-8 53 -18 106 -26 159zM461 939c-95 0 -135 -175 -135 -286c0 -24 2 -48 5 -71c50 39 92 82 127 128c40 53 60 100 60 140v8c-4 53 -22 81 -55 81h-2zM406 119l54 -326c73 25 110 78 110 161c0 7 0 15 -1 23c-7 95 -57 142 -151 142h-12 zM382 117c-72 -2 -128 -47 -128 -120v-7c2 -46 43 -99 75 -115c-3 -2 -7 -5 -10 -10c-70 33 -116 88 -123 172v11c0 68 44 126 88 159c23 17 49 29 78 36l-29 170c-21 -13 -52 -37 -92 -73c-50 -44 -86 -84 -109 -119c-45 -69 -67 -130 -67 -182v-13c5 -68 35 -127 93 -176 s125 -73 203 -73c25 0 50 3 75 9c-19 111 -36 221 -54 331z"/></g><g id="E262-m10vmdvv"><path transform="scale(1,-1)" d="M136 186v169h17v-164l44 14v-91l-44 -14v-165l44 12v-91l-44 -13v-155h-17v150l-76 -22v-155h-17v149l-43 -13v90l43 14v167l-43 -14v92l43 13v169h17v-163zM60 73v-167l76 22v168z"/></g><g id="E089-m10vmdvv"><path transform="scale(1,-1)" d="M139 107c0 -51 22 -104 66 -104c38 0 64 48 64 110c0 50 -31 100 -64 100c-40 0 -66 -56 -66 -106zM114 -74c40 0 72 -27 72 -65c0 -8 -3 -19 -9 -34l-7 -16l-5 -15c2 -8 12 -12 31 -12c56 0 84 73 84 219c-32 -24 -71 -36 -119 -36c-29 0 -56 6 -79 20 c-51 26 -57 78 -62 108c0 64 56 155 188 155c158 0 197 -151 197 -237c0 -145 -92 -263 -207 -263c-109 0 -155 68 -155 101c0 46 33 75 71 75z"/></g><g id="E088-m10vmdvv"><path transform="scale(1,-1)" d="M195 -214c76 0 88 58 90 68c0 34 -35 60 -57 73l-52 29c-21 10 -32 17 -34 20c-39 -33 -58 -54 -62 -92c5 -23 23 -98 115 -98zM301 135c0 61 -72 76 -113 76c-40 0 -77 -17 -77 -51c3 -21 15 -38 26 -50c17 -15 33 -26 48 -34l65 -28c34 27 51 56 51 87zM176 -250 c-57 0 -166 26 -166 132c0 47 30 86 89 116c-33 15 -79 60 -79 119c0 79 85 132 178 132h18c5 0 21 1 28 -1c25 0 126 -30 126 -110c0 -37 -23 -76 -69 -116c43 -25 83 -71 83 -119c0 -101 -118 -153 -208 -153z"/></g><g id="E4E6-m10vmdvv"><path transform="scale(1,-1)" d="M0 123c7 34 33 56 69 60c29 -3 43 -9 53 -29c4 -8 7 -15 10 -22c0 -21 -1 -25 -11 -35c-5 -8 -18 -14 -40 -20l12 -3l15 -1c44 0 97 26 122 56c10 11 18 26 24 42c7 1 15 2 22 3l-140 -424h-36l111 330c-10 -6 -27 -12 -53 -16l-52 -8h-10l-20 1c-1 0 -8 3 -21 6 c-37 9 -55 28 -55 60z"/></g><g id="E0A4-m10vmdvv"><path transform="scale(1,-1)" d="M0 -39c0 68 73 172 200 172c66 0 114 -37 114 -95c0 -84 -106 -171 -218 -171c-64 0 -96 30 -96 94z"/></g></defs><style type="text/css">#m10vmdvv g.page-margin {font-family:Times,serif;}#m10vmdvv g.ending, #m10vmdvv g.fing, #m10vmdvv g.reh, #m10vmdvv g.tempo {font-weight:bold;}#m10vmdvv g.dir, #m10vmdvv g.dynam, #m10vmdvv g.mNum {font-style:italic;}#m10vmdvv g.label {font-weight:normal;}#m10vmdvv path {stroke:currentColor}</style><svg class="definition-scale" color="black" viewBox="0 0 14000 2100"><g class="page-margin" transform="translate(0, 150)"><g data-id="h1a5hvxl" data-class="mdiv" class="mdiv pageMilestone"/><g data-id="i1np8bmh" data-class="score" class="score pageMilestone"/><g data-id="h1ylh11" data-class="system" class="system"><g data-id="kgpsux9" data-class="section" class="section systemMilestone"/><g data-id="n14zq5xz" data-class="measure" class="measure"><g data-id="wt89dk2" data-class="staff" class="staff"><path d="M0 540 L7979 540" stroke-width="13"/><path d="M0 720 L7979 720" stroke-width="13"/><path d="M0 900 L7979 900" stroke-width="13"/><path d="M0 1080 L7979 1080" stroke-width="13"/><path d="M0 1260 L7979 1260" stroke-width="13"/><g data-id="pyxyrgf" data-class="clef" class="clef"><use href="#E050-m10vmdvv" transform="translate(90, 1080) scale(0.72, 0.72)"/></g><g data-id="qr31dyl" data-class="keySig" class="keySig"><g data-id="r1du7asn" data-class="keyAccid" class="keyAccid"><use href="#E262-m10vmdvv" transform="translate(735, 540) scale(0.72, 0.72)"/></g><g data-id="s7nyvqq" data-class="keyAccid" class="keyAccid"><use href="#E262-m10vmdvv" transform="translate(913, 810) scale(0.72, 0.72)"/></g><g data-id="t1haqv25" data-class="keyAccid" class="keyAccid"><use href="#E262-m10vmdvv" transform="translate(1091, 450) scale(0.72, 0.72)"/></g><g data-id="u4nvvv7" data-class="keyAccid" class="keyAccid"><use href="#E262-m10vmdvv" transform="translate(1269, 720) scale(0.72, 0.72)"/></g></g><g data-id="v1agsnjc" data-class="meterSig" class="meterSig"><use href="#E089-m10vmdvv" transform="translate(1576, 720) scale(0.72, 0.72)"/><use href="#E088-m10vmdvv" transform="translate(1584, 1080) scale(0.72, 0.72)"/></g><g data-id="x9dcizs" data-class="layer" class="layer"><g data-id="gmglthm" data-class="rest" class="rest"><use href="#E4E6-m10vmdvv" transform="translate(2149, 900) scale(0.72, 0.72)"/></g><g data-id="x1c1cwr0" data-class="beam" class="beam"><polygon stroke-opacity="1" fill-opacity="1" points="3003,495 3668,495 3668,585 3003,585"/><g data-id="m3bm1s4" data-class="note" class="note"><g data-class="notehead" class="notehead"><use href="#E0A4-m10vmdvv" transform="translate(2795, 1080) scale(0.72, 0.72)"/></g><g data-id="u1e7qbq7" data-class="stem" class="stem"><path d="M3012 1052 L3012 513" stroke-width="18"/></g><g data-id="j10k9c8i" data-class="accid" class="accid"/></g><g data-id="n19q462v" data-class="note" class="note"><g data-class="notehead" class="notehead"><use href="#E0A4-m10vmdvv" transform="translate(3442, 1080) scale(0.72, 0.72)"/></g><g data-id="vn6qtgi" data-class="stem" class="stem"><path d="M3659 1052 L3659 513" stroke-width="18"/></g><g data-id="klnccon" data-class="accid" class="accid"/></g></g><g data-id="yxxg3c2" data-class="beam" class="beam"><polygon stroke-opacity="1" fill-opacity="1" points="4296,495 5607,495 5607,585 4296,585"/><g data-id="ot6yh0q" data-class="note" class="note"><g data-class="notehead" class="notehead"><use href="#E0A4-m10vmdvv" transform="translate(4088, 1080) scale(0.72, 0.72)"/></g><g data-id="wm3swbz" data-class="stem" class="stem"><path d="M4305 1052 L4305 513" stroke-width="18"/></g><g data-id="l598q5k" data-class="accid" class="accid"/></g><g data-id="pgojjcr" data-class="note" class="note"><g data-class="notehead" class="notehead"><use href="#E0A4-m10vmdvv" transform="translate(4734, 1080) scale(0.72, 0.72)"/></g><g data-id="x1nigdps" data-class="stem" class="stem"><path d="M4951 1052 L4951 513" stroke-width="18"/></g><g data-id="m1lxpwwz" data-class="accid" class="accid"/></g><g data-id="q8ns7bx" data-class="note" class="note"><g data-class="notehead" class="notehead"><use href="#E0A4-m10vmdvv" transform="translate(5381, 1080) scale(0.72, 0.72)"/></g><g data-id="y128mi7m" data-class="stem" class="stem"><path d="M5598 1052 L5598 513" stroke-width="18"/></g><g data-id="ncod4yb" data-class="accid" class="accid"/></g></g><g data-id="z18c0rru" data-class="beam" class="beam"><polygon stroke-opacity="1" fill-opacity="1" points="6235,495 7546,495 7546,585 6235,585"/><g data-id="rmmubsa" data-class="note" class="note"><g data-class="notehead" class="notehead"><use href="#E0A4-m10vmdvv" transform="translate(6027, 1080) scale(0.72, 0.72)"/></g><g data-id="zf1v6em" data-class="stem" class="stem"><path d="M6244 1052 L6244 513" stroke-width="18"/></g><g data-id="o989wbj" data-class="accid" class="accid"/></g><g data-id="seyct2j" data-class="note" class="note"><g data-class="notehead" class="notehead"><use href="#E0A4-m10vmdvv" transform="translate(6673, 1080) scale(0.72, 0.72)"/></g><g data-id="a115buxg" data-class="stem" class="stem"><path d="M6890 1052 L6890 513" stroke-width="18"/></g><g data-id="p102tpcz" data-class="accid" class="accid"/></g><g data-id="txor4ov" data-class="note" class="note"><g data-class="notehead" class="notehead"><use href="#E0A4-m10vmdvv" transform="translate(7320, 1080) scale(0.72, 0.72)"/></g><g data-id="b8ll0m8" data-class="stem" class="stem"><path d="M7537 1052 L7537 513" stroke-width="18"/></g><g data-id="q1nznua3" data-class="accid" class="accid"/></g></g></g></g><g data-id="va19gd0" data-class="barLine" class="barLine"><path d="M7966 540 L7966 1260" stroke-width="27"/></g></g><g data-id="wzd4ogc" data-class="measure" class="measure"><g data-id="y1ednnnb" data-class="staff" class="staff"><path d="M7979 540 L14001 540" stroke-width="13"/><path d="M7979 720 L14001 720" stroke-width="13"/><path d="M7979 900 L14001 900" stroke-width="13"/><path d="M7979 1080 L14001 1080" stroke-width="13"/><path d="M7979 1260 L14001 1260" stroke-width="13"/><g data-id="z193bgmc" data-class="layer" class="layer"><g data-id="ha93qfc" data-class="rest" class="rest"><use href="#E4E6-m10vmdvv" transform="translate(8171, 900) scale(0.72, 0.72)"/></g><g data-id="a1y891nw" data-class="beam" class="beam"><polygon stroke-opacity="1" fill-opacity="1" points="9025,495 9690,495 9690,585 9025,585"/><g data-id="u1qa434y" data-class="note" class="note"><g data-class="notehead" class="notehead"><use href="#E0A4-m10vmdvv" transform="translate(8817, 1080) scale(0.72, 0.72)"/></g><g data-id="czktadx" data-class="stem" class="stem"><path d="M9034 1052 L9034 513" stroke-width="18"/></g><g data-id="rq66k8y" data-class="accid" class="accid"/></g><g data-id="v1pu23rr" data-class="note" class="note"><g data-class="notehead" class="notehead"><use href="#E0A4-m10vmdvv" transform="translate(9464, 1080) scale(0.72, 0.72)"/></g><g data-id="dokqp86" data-class="stem" class="stem"><path d="M9681 1052 L9681 513" stroke-width="18"/></g><g data-id="s1ut78cb" data-class="accid" class="accid"/></g></g><g data-id="bm344nl" data-class="beam" class="beam"><polygon stroke-opacity="1" fill-opacity="1" points="10318,450 11629,630 11629,720 10318,540"/><g data-id="w1clmzv6" data-class="note" class="note"><g data-class="notehead" class="notehead"><use href="#E0A4-m10vmdvv" transform="translate(10110, 1080) scale(0.72, 0.72)"/></g><g data-id="e188zh61" data-class="stem" class="stem"><path d="M10327 1052 L10327 468" stroke-width="18"/></g><g data-id="thas9gq" data-class="accid" class="accid"/></g><g data-id="x8ae6ya" data-class="note" class="note"><g data-class="notehead" class="notehead"><use href="#E0A4-m10vmdvv" transform="translate(10756, 1260) scale(0.72, 0.72)"/></g><g data-id="f4kdhg1" data-class="stem" class="stem"><path d="M10973 1232 L10973 558" stroke-width="18"/></g></g><g data-id="ypfo9dt" data-class="note" class="note"><g data-class="notehead" class="notehead"><use href="#E0A4-m10vmdvv" transform="translate(11403, 1260) scale(0.72, 0.72)"/></g><g data-id="giyf4ir" data-class="stem" class="stem"><path d="M11620 1232 L11620 648" stroke-width="18"/></g></g></g><g data-id="cgim1vs" data-class="beam" class="beam"><polygon stroke-opacity="1" fill-opacity="1" points="12257,675 13568,675 13568,765 12257,765"/><g data-id="z1mkq95a" data-class="note" class="note"><g data-class="notehead" class="notehead"><use href="#E0A4-m10vmdvv" transform="translate(12049, 1260) scale(0.72, 0.72)"/></g><g data-id="h1s2zsgf" data-class="stem" class="stem"><path d="M12266 1232 L12266 693" stroke-width="18"/></g></g><g data-id="axa0f5" data-class="note" class="note"><g data-class="notehead" class="notehead"><use href="#E0A4-m10vmdvv" transform="translate(12695, 1260) scale(0.72, 0.72)"/></g><g data-id="i2giu5t" data-class="stem" class="stem"><path d="M12912 1232 L12912 693" stroke-width="18"/></g></g><g data-id="b1mr6pzq" data-class="note" class="note"><g data-class="notehead" class="notehead"><use href="#E0A4-m10vmdvv" transform="translate(13342, 1260) scale(0.72, 0.72)"/></g><g data-id="jyptrtc" data-class="stem" class="stem"><path d="M13559 1232 L13559 693" stroke-width="18"/></g></g></g></g></g><g data-id="e1ss1tk8" data-class="barLine" class="barLine"><path d="M13988 540 L13988 1260" stroke-width="27"/></g></g></g></g></svg></svg>