<svg viewBox="0 0 560 84" version="1.1" xmlns="http://www.w3.org/2000/svg" xmlns:xlink="http://www.w3.org/1999/xlink" overflow="visible" id="bzwfoxa"><desc>Engraved by Verovio 5.6.0-85e7620</desc><defs><g id="E050-bzwfoxa"><path transform="scale(1,-1)" d="M441 -245c-23 -4 -48 -6 -76 -6c-59 0 -102 7 -130 20c-88 42 -150 93 -187 154c-26 44 -43 103 -48 176c0 6 -1 13 -1 19c0 54 15 111 45 170c29 57 65 106 110 148s96 85 153 127c-3 16 -8 46 -13 92c-4 43 -5 73 -5 89c0 117 16 172 69 257c34 54 64 82 89 82 c21 0 43 -30 69 -92s39 -115 41 -159v-15c0 -109 -21 -162 -67 -241c-13 -20 -63 -90 -98 -118c-13 -9 -25 -19 -37 -29l31 -181c8 1 18 2 28 2c58 0 102 -12 133 -35c59 -43 92 -104 98 -184c1 -7 1 -15 1 -22c0 -123 -87 -209 -181 -248c8 -57 17 -110 25 -162 c5 -31 6 -58 6 -80c0 -30 -5 -53 -14 -70c-35 -64 -88 -99 -158 -103c-5 0 -11 -1 -16 -1c-37 0 -72 10 -108 27c-50 24 -77 59 -80 105v11c0 29 7 55 20 76c18 28 45 42 79 44h6c49 0 93 -42 97 -87v-9c0 -51 -34 -86 -105 -106c17 -24 51 -36 102 -36c62 0 116 43 140 85 c9 16 13 41 13 74c0 20 -1 42 -5 67c-8 53 -18 106 -26 159zM461 939c-95 0 -135 -175 -135 -286c0 -24 2 -48 5 -71c50 39 92 82 127 128c40 53 60 100 60 140v8c-4 53 -22 81 -55 81h-2zM406 119l54 -326c73 25 110 78 110 161c0 7 0 15 -1 23c-7 95 -57 142 -151 142h-12 zM382 117c-72 -2 -128 -47 -128 -120v-7c2 -46 43 -99 75 -115c-3 -2 -7 -5 -10 -10c-70 33 -116 88 -123 172v11c0 68 44 126 88 159c23 17 49 29 78 36l-29 170c-21 -13 -52 -37 -92 -73c-50 -44 -86 -84 -109 -119c-45 -69 -67 -130 -67 -182v-13c5 -68 35 -127 93 -176 s125 -73 203 -73c25 0 50 3 75 9c-19 111 -36 221 -54 331z"/></g><g id="E262-bzwfoxa"><path transform="scale(1,-1)" d="M136 186v169h17v-164l44 14v-91l-44 -14v-165l44 12v-91l-44 -13v-155h-17v150l-76 -22v-155h-17v149l-43 -13v90l43 14v167l-43 -14v92l43 13v169h17v-163zM60 73v-167l76 22v168z"/></g><g id="E08A-bzwfoxa"><path transform="scale(1,-1)" d="M340 179c-9 24 -56 41 -89 41c-46 0 -81 -28 -100 -58c-17 -28 -25 -78 -25 -150c0 -65 2 -111 8 -135c8 -31 18 -49 40 -67c20 -17 43 -25 70 -25c54 0 92 36 115 75c14 25 23 54 28 88h27c0 -63 -24 -105 -58 -141c-35 -38 -82 -56 -140 -56c-45 0 -83 13 -115 39 c-57 45 -101 130 -101 226c0 59 33 127 68 163c36 37 97 72 160 72c36 0 93 -21 121 -40c11 -8 23 -17 33 -30c19 -23 27 -48 27 -76c0 -51 -35 -88 -86 -88c-43 0 -76 27 -76 68c0 26 7 35 21 51c15 17 32 27 58 32c7 2 14 7 14 11z"/></g><g id="E4E7-bzwfoxa"><path transform="scale(1,-1)" d="M133 -111c0 -33 -21 -50 -52 -55c10 -3 18 -4 25 -4c40 0 69 24 90 47l66 197c-36 -18 -64 -25 -112 -25c-23 0 -38 3 -45 8c-37 7 -55 27 -55 59c8 35 30 54 68 58c45 -6 49 -13 64 -48c0 -3 1 -5 1 -7c0 -27 -25 -46 -52 -49c6 -4 15 -6 26 -6c32 2 62 14 88 29 c32 19 44 36 59 71l7 1l10 2h4c-72 -220 -143 -439 -215 -659h-37l108 324c-20 -13 -51 -20 -82 -20c-21 0 -35 4 -43 10c-37 6 -55 26 -55 58c8 35 31 56 68 60c43 -8 48 -13 64 -51z"/></g><g id="E0A4-bzwfoxa"><path transform="scale(1,-1)" d="M0 -39c0 68 73 172 200 172c66 0 114 -37 114 -95c0 -84 -106 -171 -218 -171c-64 0 -96 30 -96 94z"/></g></defs><style type="text/css">#bzwfoxa g.page-margin {font-family:Times,serif;}#bzwfoxa g.ending, #bzwfoxa g.fing, #bzwfoxa g.reh, #bzwfoxa g.tempo {font-weight:bold;}#bzwfoxa g.dir, #bzwfoxa g.dynam, #bzwfoxa g.mNum {font-style:italic;}#bzwfoxa g.label {font-weight:normal;}#bzwfoxa path {stroke:currentColor}</style><svg class="definition-scale" color="black" viewBox="0 0 14000 2100"><g class="page-margin" transform="translate(0, 150)"><g data-id="l1dwioby" data-class="mdiv" class="mdiv pageMilestone"/><g data-id="m1fiocr" data-class="score" class="score pageMilestone"/><g data-id="j5m9d3j" data-class="system" class="system"><g data-id="oe9b95d" data-class="section" class="section systemMilestone"/><g data-id="ccv61gk" data-class="measure" class="measure"><g data-id="a1r7nr4l" data-class="staff" class="staff"><path d="M0 540 L6513 540" stroke-width="13"/><path d="M0 720 L6513 720" stroke-width="13"/><path d="M0 900 L6513 900" stroke-width="13"/><path d="M0 1080 L6513 1080" stroke-width="13"/><path d="M0 1260 L6513 1260" stroke-width="13"/><g data-id="n1mlqao9" data-class="clef" class="clef"><use href="#E050-bzwfoxa" transform="translate(90, 1080) scale(0.72, 0.72)"/></g><g data-id="o1o9na4l" data-class="keySig" class="keySig"><g data-id="psqxous" data-class="keyAccid" class="keyAccid"><use href="#E262-bzwfoxa" transform="translate(735, 540) scale(0.72, 0.72)"/></g><g data-id="qypp54b" data-class="keyAccid" class="keyAccid"><use href="#E262-bzwfoxa" transform="translate(913, 810) scale(0.72, 0.72)"/></g><g data-id="rirrmct" data-class="keyAccid" class="keyAccid"><use href="#E262-bzwfoxa" transform="translate(1091, 450) scale(0.72, 0.72)"/></g><g data-id="sr6waq4" data-class="keyAccid" class="keyAccid"><use href="#E262-bzwfoxa" transform="translate(1269, 720) scale(0.72, 0.72)"/></g></g><g data-id="t14x3am5" data-class="meterSig" class="meterSig"><use href="#E08A-bzwfoxa" transform="translate(1590, 900) scale(0.72, 0.72)"/></g><g data-id="byspczj" data-class="layer" class="layer"><g data-id="uinoabl" data-class="rest" class="rest"><use href="#E4E7-bzwfoxa" transform="translate(2158, 900) scale(0.72, 0.72)"/></g><g data-id="q1kqgf80" data-class="beam" class="beam"><polygon stroke-opacity="1" fill-opacity="1" points="2689,495 3339,495 3339,585 2689,585"/><polygon stroke-opacity="1" fill-opacity="1" points="2689,630 3014,630 3014,720 2689,720"/><polygon stroke-opacity="1" fill-opacity="1" points="3014,630 3339,630 3339,720 3014,720"/><g data-id="xvi90g" data-class="note" class="note"><g data-class="notehead" class="notehead"><use href="#E0A4-bzwfoxa" transform="translate(2481, 1080) scale(0.72, 0.72)"/></g><g data-id="s1hzyvgx" data-class="stem" class="stem"><path d="M2698 1052 L2698 513" stroke-width="18"/></g><g data-id="x1u77geh" data-class="accid" class="accid"/></g><g data-id="y1882wv7" data-class="note" class="note"><g data-class="notehead" class="notehead"><use href="#E0A4-bzwfoxa" transform="translate(2797, 1080) scale(0.72, 0.72)"/></g><g data-id="t1x1vrnu" data-class="stem" class="stem"><path d="M3014 1052 L3014 513" stroke-width="18"/></g><g data-id="y2q855x" data-class="accid" class="accid"/></g><g data-id="zqpfws8" data-class="note" class="note"><g data-class="notehead" class="notehead"><use href="#E0A4-bzwfoxa" transform="translate(3113, 1080) scale(0.72, 0.72)"/></g><g data-id="u9gujt" data-class="stem" class="stem"><path d="M3330 1052 L3330 513" stroke-width="18"/></g><g data-id="zjofsjn" data-class="accid" class="accid"/></g></g><g data-id="rj32g9m" data-class="beam" class="beam"><polygon stroke-opacity="1" fill-opacity="1" points="3637,315 4105,360 4105,450 3637,405"/><g data-id="a18o7wfj" data-class="note" class="note"><g data-class="notehead" class="notehead"><use href="#E0A4-bzwfoxa" transform="translate(3429, 990) scale(0.72, 0.72)"/></g><g data-id="v1ouwqaa" data-class="stem" class="stem"><path d="M3646 962 L3646 333" stroke-width="18"/></g></g><g data-id="bemqcs3" data-class="note" class="note"><g data-class="notehead" class="notehead"><use href="#E0A4-bzwfoxa" transform="translate(3879, 1080) scale(0.72, 0.72)"/></g><g data-id="w3plulu" data-class="stem" class="stem"><path d="M4096 1052 L4096 378" stroke-width="18"/></g><g data-id="anfd4j9" data-class="accid" class="accid"/></g></g><g data-id="vp0skon" data-class="rest" class="rest"><use href="#E4E7-bzwfoxa" transform="translate(4329, 900) scale(0.72, 0.72)"/></g><g data-id="s1658k6p" data-class="beam" class="beam"><polygon stroke-opacity="1" fill-opacity="1" points="4860,495 5510,495 5510,585 4860,585"/><polygon stroke-opacity="1" fill-opacity="1" points="4860,630 5185,630 5185,720 4860,720"/><polygon stroke-opacity="1" fill-opacity="1" points="5185,630 5510,630 5510,720 5185,720"/><g data-id="c11l6kvq" data-class="note" class="note"><g data-class="notehead" class="notehead"><use href="#E0A4-bzwfoxa" transform="translate(4652, 1080) scale(0.72, 0.72)"/></g><g data-id="x199cur8" data-class="stem" class="stem"><path d="M4869 1052 L4869 513" stroke-width="18"/></g><g data-id="b16t867y" data-class="accid" class="accid"/></g><g data-id="dpu09al" data-class="note" class="note"><g data-class="notehead" class="notehead"><use href="#E0A4-bzwfoxa" transform="translate(4968, 1080) scale(0.72, 0.72)"/></g><g data-id="y1t0qw8r" data-class="stem" class="stem"><path d="M5185 1052 L5185 513" stroke-width="18"/></g><g data-id="c1vw1m5o" data-class="accid" class="accid"/></g><g data-id="e1m8a0lg" data-class="note" class="note"><g data-class="notehead" class="notehead"><use href="#E0A4-bzwfoxa" transform="translate(5284, 1080) scale(0.72, 0.72)"/></g><g data-id="ztlgbca" data-class="stem" class="stem"><path d="M5501 1052 L5501 513" stroke-width="18"/></g><g data-id="d1agq9it" data-class="accid" class="accid"/></g></g><g data-id="t1hqtgjz" data-class="beam" class="beam"><polygon stroke-opacity="1" fill-opacity="1" points="5808,315 6276,360 6276,450 5808,405"/><g data-id="fbekk5e" data-class="note" class="note"><g data-class="notehead" class="notehead"><use href="#E0A4-bzwfoxa" transform="translate(5600, 900) scale(0.72, 0.72)"/></g><g data-id="afmyuu3" data-class="stem" class="stem"><path d="M5817 872 L5817 333" stroke-width="18"/></g></g><g data-id="g1jxdsi7" data-class="note" class="note"><g data-class="notehead" class="notehead"><use href="#E0A4-bzwfoxa" transform="translate(6050, 990) scale(0.72, 0.72)"/></g><g data-id="b1giuf9h" data-class="stem" class="stem"><path d="M6267 962 L6267 378" stroke-width="18"/></g></g></g></g></g><g data-id="k1423pkn" data-class="barLine" class="barLine"><path d="M6500 540 L6500 1260" stroke-width="27"/></g></g><g data-id="lm3uug" data-class="measure" class="measure"><g data-id="c5ubzlr" data-class="staff" class="staff"><path d="M6513 540 L10677 540" stroke-width="13"/><path d="M6513 720 L10677 720" stroke-width="13"/><path d="M6513 900 L10677 900" stroke-width="13"/><path d="M6513 1080 L10677 1080" stroke-width="13"/><path d="M6513 1260 L10677 1260" stroke-width="13"/><g data-id="d2fotlw" data-class="layer" class="layer"><g data-id="w10xvtg" data-class="rest" class="rest"><use href="#E4E7-bzwfoxa" transform="translate(6693, 900) scale(0.72, 0.72)"/></g><g data-id="u88n6g" data-class="beam" class="beam"><polygon stroke-opacity="1" fill-opacity="1" points="7224,495 7874,495 7874,585 7224,585"/><polygon stroke-opacity="1" fill-opacity="1" points="7224,630 7549,630 7549,720 7224,720"/><polygon stroke-opacity="1" fill-opacity="1" points="7549,630 7874,630 7874,720 7549,720"/><g data-id="h186vl6d" data-class="note" class="note"><g data-class="notehead" class="notehead"><use href="#E0A4-bzwfoxa" transform="translate(7016, 1080) scale(0.72, 0.72)"/></g><g data-id="c14aajc0" data-class="stem" class="stem"><path d="M7233 1052 L7233 513" stroke-width="18"/></g><g data-id="e849tau" data-class="accid" class="accid"/></g><g data-id="i1htx4fw" data-class="note" class="note"><g data-class="notehead" class="notehead"><use href="#E0A4-bzwfoxa" transform="translate(7332, 1080) scale(0.72, 0.72)"/></g><g data-id="d1pd332l" data-class="stem" class="stem"><path d="M7549 1052 L7549 513" stroke-width="18"/></g><g data-id="fkubvea" data-class="accid" class="accid"/></g><g data-id="jf9rpj8" data-class="note" class="note"><g data-class="notehead" class="notehead"><use href="#E0A4-bzwfoxa" transform="translate(7648, 1080) scale(0.72, 0.72)"/></g><g data-id="e1eqhxo6" data-class="stem" class="stem"><path d="M7865 1052 L7865 513" stroke-width="18"/></g><g data-id="g1wxsipy" data-class="accid" class="accid"/></g></g><g data-id="v1nedz4u" data-class="beam" class="beam"><polygon stroke-opacity="1" fill-opacity="1" points="7964,1260 8432,1305 8432,1215 7964,1170"/><g data-id="k1qwd9s4" data-class="note" class="note"><g data-class="notehead" class="notehead"><use href="#E0A4-bzwfoxa" transform="translate(7964, 540) scale(0.72, 0.72)"/></g><g data-id="f1ac6jr2" data-class="stem" class="stem"><path d="M7973 568 L7973 1242" stroke-width="18"/></g><g data-id="hjqnnyx" data-class="accid" class="accid"/></g><g data-id="l9voh58" data-class="note" class="note"><g data-class="notehead" class="notehead"><use href="#E0A4-bzwfoxa" transform="translate(8414, 630) scale(0.72, 0.72)"/></g><g data-id="g19qk533" data-class="stem" class="stem"><path d="M8423 658 L8423 1287" stroke-width="18"/></g></g></g><g data-id="winy1l4" data-class="beam" class="beam"><polygon stroke-opacity="1" fill-opacity="1" points="8864,1350 10232,1530 10232,1440 8864,1260"/><g data-id="mg8yn1b" data-class="note" class="note"><g data-class="notehead" class="notehead"><use href="#E0A4-bzwfoxa" transform="translate(8864, 720) scale(0.72, 0.72)"/></g><g data-id="hx4kw5l" data-class="stem" class="stem"><path d="M8873 748 L8873 1332" stroke-width="18"/></g><g data-id="i1q8v1to" data-class="accid" class="accid"/></g><g data-id="n5n0pxm" data-class="note" class="note"><g data-class="notehead" class="notehead"><use href="#E0A4-bzwfoxa" transform="translate(9314, 810) scale(0.72, 0.72)"/></g><g data-id="iqjoxg7" data-class="stem" class="stem"><path d="M9323 838 L9323 1392" stroke-width="18"/></g><g data-id="j1bcc17x" data-class="accid" class="accid"/></g><g data-id="ow8c9as" data-class="note" class="note"><g data-class="notehead" class="notehead"><use href="#E0A4-bzwfoxa" transform="translate(9764, 900) scale(0.72, 0.72)"/></g><g data-id="jd6k740" data-class="stem" class="stem"><path d="M9773 928 L9773 1452" stroke-width="18"/></g></g><g data-id="p1wpb4tm" data-class="note" class="note"><g data-class="notehead" class="notehead"><use href="#E0A4-bzwfoxa" transform="translate(10214, 990) scale(0.72, 0.72)"/></g><g data-id="kp2ly7t" data-class="stem" class="stem"><path d="M10223 1018 L10223 1512" stroke-width="18"/></g></g></g></g></g><g data-id="th4gq4c" data-class="barLine" class="barLine"><path d="M10664 540 L10664 1260" stroke-width="27"/></g></g><g data-id="l143jl5b" data-class="systemMilestoneEnd" class="systemMilestoneEnd oe9b95d"/></g><g data-id="mjm3oks" data-class="pageMilestoneEnd" class="pageMilestoneEnd m1fiocr"/><g data-id="n1kwfci1" data-class="pageMilestoneEnd" class="pageMilestoneEnd l1dwioby"/></g></svg></svg>