<svg viewBox="0 0 560 84" version="1.1" xmlns="http://www.w3.org/2000/svg" xmlns:xlink="http://www.w3.org/1999/xlink" overflow="visible" id="cgpxius"><desc>Engraved by Verovio 5.6.0-85e7620</desc><defs><g id="E050-cgpxius"><path transform="scale(1,-1)" d="M441 -245c-23 -4 -48 -6 -76 -6c-59 0 -102 7 -130 20c-88 42 -150 93 -187 154c-26 44 -43 103 -48 176c0 6 -1 13 -1 19c0 54 15 111 45 170c29 57 65 106 110 148s96 85 153 127c-3 16 -8 46 -13 92c-4 43 -5 73 -5 89c0 117 16 172 69 257c34 54 64 82 89 82 c21 0 43 -30 69 -92s39 -115 41 -159v-15c0 -109 -21 -162 -67 -241c-13 -20 -63 -90 -98 -118c-13 -9 -25 -19 -37 -29l31 -181c8 1 18 2 28 2c58 0 102 -12 133 -35c59 -43 92 -104 98 -184c1 -7 1 -15 1 -22c0 -123 -87 -209 -181 -248c8 -57 17 -110 25 -162 c5 -31 6 -58 6 -80c0 -30 -5 -53 -14 -70c-35 -64 -88 -99 -158 -103c-5 0 -11 -1 -16 -1c-37 0 -72 10 -108 27c-50 24 -77 59 -80 105v11c0 29 7 55 20 76c18 28 45 42 79 44h6c49 0 93 -42 97 -87v-9c0 -51 -34 -86 -105 -106c17 -24 51 -36 102 -36c62 0 116 43 140 85 c9 16 13 41 13 74c0 20 -1 42 -5 67c-8 53 -18 106 -26 159zM461 939c-95 0 -135 -175 -135 -286c0 -24 2 -48 5 -71c50 39 92 82 127 128c40 53 60 100 60 140v8c-4 53 -22 81 -55 81h-2zM406 119l54 -326c73 25 110 78 110 161c0 7 0 15 -1 23c-7 95 -57 142 -151 142h-12 zM382 117c-72 -2 -128 -47 -128 -120v-7c2 -46 43 -99 75 -115c-3 -2 -7 -5 -10 -10c-70 33 -116 88 -123 172v11c0 68 44 126 88 159c23 17 49 29 78 36l-29 170c-21 -13 -52 -37 -92 -73c-50 -44 -86 -84 -109 -119c-45 -69 -67 -130 -67 -182v-13c5 -68 35 -127 93 -176 s125 -73 203 -73c25 0 50 3 75 9c-19 111 -36 221 -54 331z"/></g><g id="E083-cgpxius"><path transform="scale(1,-1)" d="M208 250c97 0 177 -52 177 -116c0 -69 -40 -111 -118 -125c56 -5 125 -44 125 -116c0 -31 -10 -57 -31 -78c-19 -21 -45 -38 -78 -49l-50 -11c-15 -3 -36 -7 -55 -7c-50 0 -86 16 -113 38c-16 10 -23 18 -34 34c-7 13 -11 25 -11 38c0 43 27 83 68 83l3 -2 c61 0 75 -42 75 -70c0 -19 -24 -42 -26 -57c7 -17 20 -25 37 -25c44 0 94 29 94 78c0 75 -34 125 -138 125v36c84 0 131 22 131 98c0 54 -37 88 -87 88c-26 0 -43 -7 -51 -22c15 -22 44 -16 44 -70c0 -37 -37 -62 -71 -62c-22 0 -69 15 -69 76c0 79 101 116 178 116z"/></g><g id="E084-cgpxius"><path transform="scale(1,-1)" d="M20 -78c84 97 114 180 134 329h170c-13 -32 -82 -132 -99 -151l-84 -97c-33 -36 -59 -63 -80 -81h162v102l127 123v-225h57v-39h-57v-34c0 -43 19 -65 57 -65v-34h-244v36c48 0 60 26 60 70v27h-203v39z"/></g><g id="E0A4-cgpxius"><path transform="scale(1,-1)" d="M0 -39c0 68 73 172 200 172c66 0 114 -37 114 -95c0 -84 -106 -171 -218 -171c-64 0 -96 30 -96 94z"/></g><g id="E240-cgpxius"><path transform="scale(1,-1)" d="M179 -646c15 29 29 55 46 102c18 49 30 108 30 138c0 105 -80 173 -168 200c-18 5 -47 9 -87 16v190h22c8 0 33 -61 71 -95c4 -3 -2 3 61 -56c62 -58 122 -137 122 -241c0 -38 -13 -106 -35 -163c-20 -51 -43 -99 -66 -132c-6 -5 -10 -7 -13 -7s-5 2 -5 5l4 10 c1 3 14 25 18 33z"/></g><g id="E044-cgpxius"><path transform="scale(1,-1)" d="M0 0c0 28 22 50 50 50s50 -22 50 -50s-22 -50 -50 -50s-50 22 -50 50z"/></g><g id="E262-cgpxius"><path transform="scale(1,-1)" d="M136 186v169h17v-164l44 14v-91l-44 -14v-165l44 12v-91l-44 -13v-155h-17v150l-76 -22v-155h-17v149l-43 -13v90l43 14v167l-43 -14v92l43 13v169h17v-163zM60 73v-167l76 22v168z"/></g><g id="E0A3-cgpxius"><path transform="scale(1,-1)" d="M278 64c0 22 -17 39 -43 39c-12 0 -26 -3 -41 -10c-85 -43 -165 -94 -165 -156c5 -25 15 -32 49 -32c67 11 200 95 200 159zM0 -36c0 68 73 174 200 174c66 0 114 -39 114 -97c0 -84 -106 -173 -218 -173c-64 0 -96 32 -96 96z"/></g><g id="E241-cgpxius"><path transform="scale(1,-1)" d="M179 646c-4 8 -17 30 -18 33l-4 10c0 3 2 5 5 5s7 -2 13 -7c23 -33 46 -81 66 -132c22 -57 35 -125 35 -163c0 -104 -60 -183 -122 -241c-63 -59 -57 -53 -61 -56c-38 -34 -63 -95 -71 -95h-22v190c40 7 69 11 87 16c88 27 168 95 168 200c0 30 -12 89 -30 138 c-17 47 -31 73 -46 102z"/></g><g id="E4E6-cgpxius"><path transform="scale(1,-1)" d="M0 123c7 34 33 56 69 60c29 -3 43 -9 53 -29c4 -8 7 -15 10 -22c0 -21 -1 -25 -11 -35c-5 -8 -18 -14 -40 -20l12 -3l15 -1c44 0 97 26 122 56c10 11 18 26 24 42c7 1 15 2 22 3l-140 -424h-36l111 330c-10 -6 -27 -12 -53 -16l-52 -8h-10l-20 1c-1 0 -8 3 -21 6 c-37 9 -55 28 -55 60z"/></g></defs><style type="text/css">#cgpxius g.page-margin {font-family:Times,serif;}#cgpxius g.ending, #cgpxius g.fing, #cgpxius g.reh, #cgpxius g.tempo {font-weight:bold;}#cgpxius g.dir, #cgpxius g.dynam, #cgpxius g.mNum {font-style:italic;}#cgpxius g.label {font-weight:normal;}#cgpxius path {stroke:currentColor}</style><svg class="definition-scale" color="black" viewBox="0 0 14000 2100"><g class="page-margin" transform="translate(0, 150)"><g data-id="dvdxsr4" data-class="mdiv" class="mdiv pageMilestone"/><g data-id="e1cp3s5m" data-class="score" class="score pageMilestone"/><g data-id="txfxhbc" data-class="system" class="system"><g data-id="g1fp5zmc" data-class="section" class="section systemMilestone"/><g data-id="d13p4jkc" data-class="measure" class="measure"><g data-id="s1lkbmd4" data-class="staff" class="staff"><path d="M0 540 L3165 540" stroke-width="13"/><path d="M0 720 L3165 720" stroke-width="13"/><path d="M0 900 L3165 900" stroke-width="13"/><path d="M0 1080 L3165 1080" stroke-width="13"/><path d="M0 1260 L3165 1260" stroke-width="13"/><g data-id="l1wrz2ix" data-class="clef" class="clef"><use href="#E050-cgpxius" transform="translate(90, 1080) scale(0.72, 0.72)"/></g><g data-id="mw6hu43" data-class="keySig" class="keySig"/><g data-id="n1pr013a" data-class="meterSig" class="meterSig"><use href="#E083-cgpxius" transform="translate(727, 720) scale(0.72, 0.72)"/><use href="#E084-cgpxius" transform="translate(721, 1080) scale(0.72, 0.72)"/></g><g data-class="ledgerLines" class="ledgerLines below"><g data-class="lineDash" class="lineDash" data-related="#z1a8y12y"><path d="M1756 1440 L2078 1440" stroke-width="22"/></g></g><g data-id="t16ha8f8" data-class="layer" class="layer"><g data-id="y1wg4m8c" data-class="note" class="note"><g data-class="notehead" class="notehead"><use href="#E0A4-cgpxius" transform="translate(1297, 1260) scale(0.72, 0.72)"/></g><g data-id="s1yqbn4o" data-class="stem" class="stem"><path d="M1514 1232 L1514 630" stroke-width="18"/><g data-id="toow7h4" data-class="flag" class="flag"><use href="#E240-cgpxius" transform="translate(1505, 630) scale(0.72, 0.72)"/></g></g></g><g data-id="z1a8y12y" data-class="note" class="note"><g data-class="notehead" class="notehead"><use href="#E0A4-cgpxius" transform="translate(1804, 1440) scale(0.72, 0.72)"/></g><g data-id="u1q2kxo7" data-class="stem" class="stem"><path d="M2021 1412 L2021 810" stroke-width="18"/><g data-id="v1gmij4g" data-class="flag" class="flag"><use href="#E240-cgpxius" transform="translate(2012, 810) scale(0.72, 0.72)"/></g></g></g><g data-id="a1b01zbi" data-class="note" class="note"><g data-class="notehead" class="notehead"><use href="#E0A4-cgpxius" transform="translate(2336, 1350) scale(0.72, 0.72)"/></g><g data-id="wr2dfr4" data-class="stem" class="stem"><path d="M2553 1322 L2553 720" stroke-width="18"/><g data-id="xsbl8au" data-class="flag" class="flag"><use href="#E240-cgpxius" transform="translate(2544, 720) scale(0.72, 0.72)"/></g></g></g></g></g><g data-id="l1nyygbk" data-class="barLine" class="barLine"><path d="M2917 540 L2917 1260" stroke-width="90"/><path d="M3047 540 L3047 1260" stroke-width="27"/><use href="#E044-cgpxius" transform="translate(3093, 810) scale(0.72, 0.72)"/><use href="#E044-cgpxius" transform="translate(3093, 990) scale(0.72, 0.72)"/></g></g><g data-id="mdjorh9" data-class="measure" class="measure"><g data-id="u1etzspa" data-class="staff" class="staff"><path d="M3165 540 L6147 540" stroke-width="13"/><path d="M3165 720 L6147 720" stroke-width="13"/><path d="M3165 900 L6147 900" stroke-width="13"/><path d="M3165 1080 L6147 1080" stroke-width="13"/><path d="M3165 1260 L6147 1260" stroke-width="13"/><g data-id="v14ksy4s" data-class="layer" class="layer"><g data-id="bqpuzj6" data-class="note" class="note"><g data-class="notehead" class="notehead"><use href="#E0A4-cgpxius" transform="translate(3359, 1260) scale(0.72, 0.72)"/></g><g data-id="z1n1p1ou" data-class="dots" class="dots"><ellipse cx="3675" cy="1170" rx="36" ry="36" fill-opacity="1" stroke-opacity="1"/></g><g data-id="ynlv8iu" data-class="stem" class="stem"><path d="M3576 1232 L3576 630" stroke-width="18"/></g></g><g data-id="cqhnyps" data-class="note" class="note"><g data-class="notehead" class="notehead"><use href="#E0A4-cgpxius" transform="translate(4352, 990) scale(0.72, 0.72)"/></g><g data-id="anyyqo2" data-class="stem" class="stem"><path d="M4569 962 L4569 360" stroke-width="18"/><g data-id="b1r2s90r" data-class="flag" class="flag"><use href="#E240-cgpxius" transform="translate(4560, 360) scale(0.72, 0.72)"/></g></g></g><g data-id="d11ja6c1" data-class="note" class="note"><g data-class="notehead" class="notehead"><use href="#E0A4-cgpxius" transform="translate(5054, 1080) scale(0.72, 0.72)"/></g><g data-id="c1vtmygh" data-class="stem" class="stem"><path d="M5271 1052 L5271 450" stroke-width="18"/><g data-id="dgyj314" data-class="flag" class="flag"><use href="#E240-cgpxius" transform="translate(5262, 450) scale(0.72, 0.72)"/></g></g><g data-id="bukofi0" data-class="accid" class="accid"><use href="#E262-cgpxius" transform="translate(4868, 1080) scale(0.72, 0.72)"/></g></g><g data-id="e1o5iqz3" data-class="note" class="note"><g data-class="notehead" class="notehead"><use href="#E0A4-cgpxius" transform="translate(5586, 990) scale(0.72, 0.72)"/></g><g data-id="eoaz8aj" data-class="stem" class="stem"><path d="M5803 962 L5803 360" stroke-width="18"/><g data-id="f120mlv" data-class="flag" class="flag"><use href="#E240-cgpxius" transform="translate(5794, 360) scale(0.72, 0.72)"/></g></g></g></g></g><g data-id="uay76o4" data-class="barLine" class="barLine"><path d="M6134 540 L6134 1260" stroke-width="27"/></g></g><g data-id="v1fyetpx" data-class="measure" class="measure"><g data-id="wjac86e" data-class="staff" class="staff"><path d="M6147 540 L8318 540" stroke-width="13"/><path d="M6147 720 L8318 720" stroke-width="13"/><path d="M6147 900 L8318 900" stroke-width="13"/><path d="M6147 1080 L8318 1080" stroke-width="13"/><path d="M6147 1260 L8318 1260" stroke-width="13"/><g data-id="x19ywpvq" data-class="layer" class="layer"><g data-id="f1e1t226" data-class="note" class="note"><g data-class="notehead" class="notehead"><use href="#E0A3-cgpxius" transform="translate(6341, 1260) scale(0.72, 0.72)"/></g><g data-id="g16nr7d1" data-class="stem" class="stem"><path d="M6558 1232 L6558 630" stroke-width="18"/></g></g><g data-id="g1an6iu8" data-class="note" class="note"><g data-class="notehead" class="notehead"><use href="#E0A4-cgpxius" transform="translate(7526, 1080) scale(0.72, 0.72)"/></g><g data-id="h5qz4vu" data-class="stem" class="stem"><path d="M7743 1052 L7743 450" stroke-width="18"/></g></g></g></g><g data-id="d29p0v7" data-class="barLine" class="barLine"><path d="M8305 540 L8305 1260" stroke-width="27"/></g></g><g data-id="e1n9jhsc" data-class="measure" class="measure"><g data-id="y3g8idr" data-class="staff" class="staff"><path d="M8318 540 L11595 540" stroke-width="13"/><path d="M8318 720 L11595 720" stroke-width="13"/><path d="M8318 900 L11595 900" stroke-width="13"/><path d="M8318 1080 L11595 1080" stroke-width="13"/><path d="M8318 1260 L11595 1260" stroke-width="13"/><g data-id="z1iav4tl" data-class="layer" class="layer"><g data-id="h18h2jvo" data-class="note" class="note"><g data-class="notehead" class="notehead"><use href="#E0A4-cgpxius" transform="translate(8512, 1080) scale(0.72, 0.72)"/></g><g data-id="i1k60pvv" data-class="stem" class="stem"><path d="M8729 1052 L8729 450" stroke-width="18"/><g data-id="jnxrec2" data-class="flag" class="flag"><use href="#E240-cgpxius" transform="translate(8720, 450) scale(0.72, 0.72)"/></g></g></g><g data-id="i17jmq8a" data-class="note" class="note"><g data-class="notehead" class="notehead"><use href="#E0A4-cgpxius" transform="translate(9044, 630) scale(0.72, 0.72)"/></g><g data-id="k1kjvvgp" data-class="stem" class="stem"><path d="M9053 658 L9053 1260" stroke-width="18"/><g data-id="lnqnsrs" data-class="flag" class="flag"><use href="#E241-cgpxius" transform="translate(9044, 1260) scale(0.72, 0.72)"/></g></g></g><g data-id="j3p3674" data-class="note" class="note"><g data-class="notehead" class="notehead"><use href="#E0A4-cgpxius" transform="translate(9551, 720) scale(0.72, 0.72)"/></g><g data-id="m18cij77" data-class="stem" class="stem"><path d="M9560 748 L9560 1350" stroke-width="18"/><g data-id="n1uiiwhk" data-class="flag" class="flag"><use href="#E241-cgpxius" transform="translate(9551, 1350) scale(0.72, 0.72)"/></g></g></g><g data-id="k1cj66bz" data-class="note" class="note"><g data-class="notehead" class="notehead"><use href="#E0A4-cgpxius" transform="translate(10059, 810) scale(0.72, 0.72)"/></g><g data-id="o14w0ck3" data-class="stem" class="stem"><path d="M10068 838 L10068 1440" stroke-width="18"/><g data-id="p7k0d8d" data-class="flag" class="flag"><use href="#E241-cgpxius" transform="translate(10059, 1440) scale(0.72, 0.72)"/></g></g></g><g data-id="l1f7ro1u" data-class="note" class="note"><g data-class="notehead" class="notehead"><use href="#E0A4-cgpxius" transform="translate(10567, 900) scale(0.72, 0.72)"/></g><g data-id="q11h6qua" data-class="stem" class="stem"><path d="M10576 928 L10576 1500" stroke-width="18"/><g data-id="r74li9f" data-class="flag" class="flag"><use href="#E241-cgpxius" transform="translate(10567, 1500) scale(0.72, 0.72)"/></g></g></g><g data-id="m17oyg7m" data-class="note" class="note"><g data-class="notehead" class="notehead"><use href="#E0A4-cgpxius" transform="translate(11074, 720) scale(0.72, 0.72)"/></g><g data-id="s5gccl3" data-class="stem" class="stem"><path d="M11083 748 L11083 1350" stroke-width="18"/><g data-id="t1820dlm" data-class="flag" class="flag"><use href="#E241-cgpxius" transform="translate(11074, 1350) scale(0.72, 0.72)"/></g></g></g></g></g><g data-id="m1g7ccau" data-class="barLine" class="barLine"><path d="M11582 540 L11582 1260" stroke-width="27"/></g></g><g data-id="n1kukfm3" data-class="measure" class="measure"><g data-id="awnyikc" data-class="staff" class="staff"><path d="M11595 540 L14003 540" stroke-width="13"/><path d="M11595 720 L14003 720" stroke-width="13"/><path d="M11595 900 L14003 900" stroke-width="13"/><path d="M11595 1080 L14003 1080" stroke-width="13"/><path d="M11595 1260 L14003 1260" stroke-width="13"/><g data-id="bk4ewwb" data-class="layer" class="layer"><g data-id="n1eppr3y" data-class="note" class="note"><g data-class="notehead" class="notehead"><use href="#E0A3-cgpxius" transform="translate(11789, 1080) scale(0.72, 0.72)"/></g><g data-id="u1p8cmsl" data-class="stem" class="stem"><path d="M12006 1052 L12006 450" stroke-width="18"/></g></g><g data-id="x1ao6v8e" data-class="rest" class="rest"><use href="#E4E6-cgpxius" transform="translate(12974, 900) scale(0.72, 0.72)"/></g><g data-id="o1fryo3p" data-class="note" class="note"><g data-class="notehead" class="notehead"><use href="#E0A4-cgpxius" transform="translate(13482, 810) scale(0.72, 0.72)"/></g><g data-id="v2hlyai" data-class="stem" class="stem"><path d="M13491 838 L13491 1440" stroke-width="18"/><g data-id="w1598zhg" data-class="flag" class="flag"><use href="#E241-cgpxius" transform="translate(13482, 1440) scale(0.72, 0.72)"/></g></g></g></g></g><g data-id="v1nymw3a" data-class="barLine" class="barLine"><path d="M13990 540 L13990 1260" stroke-width="27"/></g></g></g></g></svg></svg>