<svg viewBox="0 0 560 84" version="1.1" xmlns="http://www.w3.org/2000/svg" xmlns:xlink="http://www.w3.org/1999/xlink" overflow="visible" id="x1yqi2af"><desc>Engraved by Verovio 5.6.0-85e7620</desc><defs><g id="E050-x1yqi2af"><path transform="scale(1,-1)" d="M441 -245c-23 -4 -48 -6 -76 -6c-59 0 -102 7 -130 20c-88 42 -150 93 -187 154c-26 44 -43 103 -48 176c0 6 -1 13 -1 19c0 54 15 111 45 170c29 57 65 106 110 148s96 85 153 127c-3 16 -8 46 -13 92c-4 43 -5 73 -5 89c0 117 16 172 69 257c34 54 64 82 89 82 c21 0 43 -30 69 -92s39 -115 41 -159v-15c0 -109 -21 -162 -67 -241c-13 -20 -63 -90 -98 -118c-13 -9 -25 -19 -37 -29l31 -181c8 1 18 2 28 2c58 0 102 -12 133 -35c59 -43 92 -104 98 -184c1 -7 1 -15 1 -22c0 -123 -87 -209 -181 -248c8 -57 17 -110 25 -162 c5 -31 6 -58 6 -80c0 -30 -5 -53 -14 -70c-35 -64 -88 -99 -158 -103c-5 0 -11 -1 -16 -1c-37 0 -72 10 -108 27c-50 24 -77 59 -80 105v11c0 29 7 55 20 76c18 28 45 42 79 44h6c49 0 93 -42 97 -87v-9c0 -51 -34 -86 -105 -106c17 -24 51 -36 102 -36c62 0 116 43 140 85 c9 16 13 41 13 74c0 20 -1 42 -5 67c-8 53 -18 106 -26 159zM461 939c-95 0 -135 -175 -135 -286c0 -24 2 -48 5 -71c50 39 92 82 127 128c40 53 60 100 60 140v8c-4 53 -22 81 -55 81h-2zM406 119l54 -326c73 25 110 78 110 161c0 7 0 15 -1 23c-7 95 -57 142 -151 142h-12 zM382 117c-72 -2 -128 -47 -128 -120v-7c2 -46 43 -99 75 -115c-3 -2 -7 -5 -10 -10c-70 33 -116 88 -123 172v11c0 68 44 126 88 159c23 17 49 29 78 36l-29 170c-21 -13 -52 -37 -92 -73c-50 -44 -86 -84 -109 -119c-45 -69 -67 -130 -67 -182v-13c5 -68 35 -127 93 -176 s125 -73 203 -73c25 0 50 3 75 9c-19 111 -36 221 -54 331z"/></g><g id="E260-x1yqi2af"><path transform="scale(1,-1)" d="M20 110c32 16 54 27 93 27c26 0 35 -3 54 -13c13 -7 24 -20 27 -38l4 -25c0 -28 -16 -57 -45 -89c-23 -25 -39 -44 -65 -68l-88 -79v644h20v-359zM90 106c-32 0 -48 -10 -70 -29v-194c31 31 54 59 71 84c21 32 32 59 32 84c0 9 1 16 1 20c0 14 -3 21 -11 30l-8 3z"/></g><g id="E08B-x1yqi2af"><path transform="scale(1,-1)" d="M188 200c-42 -22 -63 -69 -63 -141v-119c0 -39 7 -70 19 -94s26 -40 44 -48v402zM0 -0c0 127 80 220 186 246v72h32l-6 -72c33 0 71 0 101 -11c54 -20 102 -65 102 -135c0 -16 -4 -30 -13 -43s-20 -24 -32 -29l-20 -8l-23 -3c-22 2 -41 8 -55 21s-21 31 -26 51 c0 38 45 80 79 80c12 0 19 3 19 10c0 6 -6 12 -15 18c-19 13 -47 24 -79 24c-10 0 -20 -1 -32 -5v-431c15 -3 12 -4 30 -4c57 0 100 51 121 93l17 39c3 13 5 25 5 35h26c-6 -70 -28 -121 -66 -152s-82 -47 -133 -47v-68h-30v72c-57 10 -122 54 -153 109c-7 12 -13 26 -19 42 c-11 29 -16 61 -16 96z"/></g><g id="E0A2-x1yqi2af"><path transform="scale(1,-1)" d="M198 133c102 0 207 -45 207 -133c0 -92 -118 -133 -227 -133c-101 0 -178 46 -178 133c0 88 93 133 198 133zM293 -21c0 14 -3 29 -8 44c-7 20 -18 38 -33 54c-20 21 -43 31 -68 31l-20 -2c-15 -5 -27 -14 -36 -28c-4 -9 -6 -17 -8 -24s-3 -16 -3 -27c0 -15 3 -34 9 -57 s18 -41 34 -55c15 -15 36 -23 62 -23c4 0 10 1 18 2c19 5 32 15 40 30s13 34 13 55z"/></g><g id="E0A3-x1yqi2af"><path transform="scale(1,-1)" d="M278 64c0 22 -17 39 -43 39c-12 0 -26 -3 -41 -10c-85 -43 -165 -94 -165 -156c5 -25 15 -32 49 -32c67 11 200 95 200 159zM0 -36c0 68 73 174 200 174c66 0 114 -39 114 -97c0 -84 -106 -173 -218 -173c-64 0 -96 32 -96 96z"/></g><g id="E4C0-x1yqi2af"><path transform="scale(1,-1)" d="M0 0c0 0 40 320 300 320s300 -320 300 -320h-32s-38 227 -268 227s-268 -227 -268 -227h-32zM355 52c0 -30 -25 -55 -55 -55s-55 25 -55 55s25 55 55 55s55 -25 55 -55z"/></g></defs><style type="text/css">#x1yqi2af g.page-margin {font-family:Times,serif;}#x1yqi2af g.ending, #x1yqi2af g.fing, #x1yqi2af g.reh, #x1yqi2af g.tempo {font-weight:bold;}#x1yqi2af g.dir, #x1yqi2af g.dynam, #x1yqi2af g.mNum {font-style:italic;}#x1yqi2af g.label {font-weight:normal;}#x1yqi2af path {stroke:currentColor}</style><svg class="definition-scale" color="black" viewBox="0 0 14000 2100"><g class="page-margin" transform="translate(0, 150)"><g data-id="bqcfvz3" data-class="mdiv" class="mdiv pageMilestone"/><g data-id="c7r96ti" data-class="score" class="score pageMilestone"/><g data-id="c1n8cb23" data-class="system" class="system"><g data-id="e5w0ko8" data-class="section" class="section systemMilestone"/><g data-id="yh0v783" data-class="measure" class="measure"><g data-id="qj198tx" data-class="staff" class="staff"><path d="M0 540 L3410 540" stroke-width="13"/><path d="M0 720 L3410 720" stroke-width="13"/><path d="M0 900 L3410 900" stroke-width="13"/><path d="M0 1080 L3410 1080" stroke-width="13"/><path d="M0 1260 L3410 1260" stroke-width="13"/><g data-id="i6uwy0" data-class="clef" class="clef"><use href="#E050-x1yqi2af" transform="translate(90, 1080) scale(0.72, 0.72)"/></g><g data-id="jyw71m" data-class="keySig" class="keySig"><g data-id="kfrbrmx" data-class="keyAccid" class="keyAccid"><use href="#E260-x1yqi2af" transform="translate(735, 900) scale(0.72, 0.72)"/></g><g data-id="l1quu5ym" data-class="keyAccid" class="keyAccid"><use href="#E260-x1yqi2af" transform="translate(915, 630) scale(0.72, 0.72)"/></g></g><g data-id="m1jfun70" data-class="meterSig" class="meterSig"><use href="#E08B-x1yqi2af" transform="translate(1237, 900) scale(0.72, 0.72)"/></g><g data-id="r3sbm0k" data-class="layer" class="layer"><g data-id="r1b3aq5o" data-class="note" class="note"><g data-class="notehead" class="notehead"><use href="#E0A2-x1yqi2af" transform="translate(1807, 900) scale(0.72, 0.72)"/></g><g data-id="z1el4roy" data-class="accid" class="accid"/></g></g></g><g data-id="g118fj0g" data-class="barLine" class="barLine"><path d="M3397 540 L3397 1260" stroke-width="27"/></g></g><g data-id="h1bi5fxe" data-class="measure" class="measure"><g data-id="s1hpkdju" data-class="staff" class="staff"><path d="M3410 540 L5193 540" stroke-width="13"/><path d="M3410 720 L5193 720" stroke-width="13"/><path d="M3410 900 L5193 900" stroke-width="13"/><path d="M3410 1080 L5193 1080" stroke-width="13"/><path d="M3410 1260 L5193 1260" stroke-width="13"/><g data-id="t1io69id" data-class="layer" class="layer"><g data-id="s1k89bxg" data-class="note" class="note"><g data-class="notehead" class="notehead"><use href="#E0A2-x1yqi2af" transform="translate(3590, 990) scale(0.72, 0.72)"/></g></g></g></g><g data-id="pdfipqe" data-class="barLine" class="barLine"><path d="M5180 540 L5180 1260" stroke-width="27"/></g></g><g data-id="q1lasddm" data-class="measure" class="measure"><g data-id="u15dp8wz" data-class="staff" class="staff"><path d="M5193 540 L6976 540" stroke-width="13"/><path d="M5193 720 L6976 720" stroke-width="13"/><path d="M5193 900 L6976 900" stroke-width="13"/><path d="M5193 1080 L6976 1080" stroke-width="13"/><path d="M5193 1260 L6976 1260" stroke-width="13"/><g data-id="v2x5bys" data-class="layer" class="layer"><g data-id="tfo6nhq" data-class="note" class="note"><g data-class="notehead" class="notehead"><use href="#E0A2-x1yqi2af" transform="translate(5373, 1080) scale(0.72, 0.72)"/></g></g></g></g><g data-id="y1s1s1gj" data-class="tie" class="tie"><path d="M5708,1125 C6062,1230 6753,1230 7111,1125 C6762,1278 6053,1278 5708,1125" stroke-linecap="round" stroke-linejoin="round" stroke-width="9"/></g><g data-id="y82libp" data-class="barLine" class="barLine"><path d="M6963 540 L6963 1260" stroke-width="27"/></g></g><g data-id="z1iff81k" data-class="measure" class="measure"><g data-id="wsxxzbe" data-class="staff" class="staff"><path d="M6976 540 L9269 540" stroke-width="13"/><path d="M6976 720 L9269 720" stroke-width="13"/><path d="M6976 900 L9269 900" stroke-width="13"/><path d="M6976 1080 L9269 1080" stroke-width="13"/><path d="M6976 1260 L9269 1260" stroke-width="13"/><g data-id="x1gueemf" data-class="layer" class="layer"><g data-id="u1irudq2" data-class="note" class="note"><g data-class="notehead" class="notehead"><use href="#E0A3-x1yqi2af" transform="translate(7156, 1080) scale(0.72, 0.72)"/></g><g data-id="p1lz0drt" data-class="stem" class="stem"><path d="M7373 1052 L7373 450" stroke-width="18"/></g></g><g data-id="vbiwof7" data-class="note" class="note"><g data-class="notehead" class="notehead"><use href="#E0A3-x1yqi2af" transform="translate(8206, 1080) scale(0.72, 0.72)"/></g><g data-id="q1q36g6h" data-class="stem" class="stem"><path d="M8423 1052 L8423 450" stroke-width="18"/></g></g></g></g><g data-id="h1x4f4s7" data-class="barLine" class="barLine"><path d="M9256 540 L9256 1260" stroke-width="27"/></g></g><g data-id="ierx4xz" data-class="measure" class="measure"><g data-id="y9k0wms" data-class="staff" class="staff"><path d="M9269 540 L11052 540" stroke-width="13"/><path d="M9269 720 L11052 720" stroke-width="13"/><path d="M9269 900 L11052 900" stroke-width="13"/><path d="M9269 1080 L11052 1080" stroke-width="13"/><path d="M9269 1260 L11052 1260" stroke-width="13"/><g data-id="z1xaicaf" data-class="layer" class="layer"><g data-id="wgiy9f7" data-class="note" class="note"><g data-class="notehead" class="notehead"><use href="#E0A2-x1yqi2af" transform="translate(9449, 1170) scale(0.72, 0.72)"/></g></g></g></g><g data-id="x1cupigs" data-class="fermata" class="fermata"><use href="#E4C0-x1yqi2af" transform="translate(9378, 493) scale(0.72, 0.72)"/></g><g data-id="qgm5y0e" data-class="barLine" class="barLine"><path d="M11039 540 L11039 1260" stroke-width="27"/></g></g><g data-id="hrva8iq" data-class="systemMilestoneEnd" class="systemMilestoneEnd e5w0ko8"/></g><g data-id="i1flq4no" data-class="pageMilestoneEnd" class="pageMilestoneEnd c7r96ti"/><g data-id="ji5tzy0" data-class="pageMilestoneEnd" class="pageMilestoneEnd bqcfvz3"/></g></svg></svg>