<svg viewBox="0 0 560 84" version="1.1" xmlns="http://www.w3.org/2000/svg" xmlns:xlink="http://www.w3.org/1999/xlink" overflow="visible" id="z1jkwjuq"><desc>Engraved by Verovio 5.6.0-85e7620</desc><defs><g id="E050-z1jkwjuq"><path transform="scale(1,-1)" d="M441 -245c-23 -4 -48 -6 -76 -6c-59 0 -102 7 -130 20c-88 42 -150 93 -187 154c-26 44 -43 103 -48 176c0 6 -1 13 -1 19c0 54 15 111 45 170c29 57 65 106 110 148s96 85 153 127c-3 16 -8 46 -13 92c-4 43 -5 73 -5 89c0 117 16 172 69 257c34 54 64 82 89 82 c21 0 43 -30 69 -92s39 -115 41 -159v-15c0 -109 -21 -162 -67 -241c-13 -20 -63 -90 -98 -118c-13 -9 -25 -19 -37 -29l31 -181c8 1 18 2 28 2c58 0 102 -12 133 -35c59 -43 92 -104 98 -184c1 -7 1 -15 1 -22c0 -123 -87 -209 -181 -248c8 -57 17 -110 25 -162 c5 -31 6 -58 6 -80c0 -30 -5 -53 -14 -70c-35 -64 -88 -99 -158 -103c-5 0 -11 -1 -16 -1c-37 0 -72 10 -108 27c-50 24 -77 59 -80 105v11c0 29 7 55 20 76c18 28 45 42 79 44h6c49 0 93 -42 97 -87v-9c0 -51 -34 -86 -105 -106c17 -24 51 -36 102 -36c62 0 116 43 140 85 c9 16 13 41 13 74c0 20 -1 42 -5 67c-8 53 -18 106 -26 159zM461 939c-95 0 -135 -175 -135 -286c0 -24 2 -48 5 -71c50 39 92 82 127 128c40 53 60 100 60 140v8c-4 53 -22 81 -55 81h-2zM406 119l54 -326c73 25 110 78 110 161c0 7 0 15 -1 23c-7 95 -57 142 -151 142h-12 zM382 117c-72 -2 -128 -47 -128 -120v-7c2 -46 43 -99 75 -115c-3 -2 -7 -5 -10 -10c-70 33 -116 88 -123 172v11c0 68 44 126 88 159c23 17 49 29 78 36l-29 170c-21 -13 -52 -37 -92 -73c-50 -44 -86 -84 -109 -119c-45 -69 -67 -130 -67 -182v-13c5 -68 35 -127 93 -176 s125 -73 203 -73c25 0 50 3 75 9c-19 111 -36 221 -54 331z"/></g><g id="E262-z1jkwjuq"><path transform="scale(1,-1)" d="M136 186v169h17v-164l44 14v-91l-44 -14v-165l44 12v-91l-44 -13v-155h-17v150l-76 -22v-155h-17v149l-43 -13v90l43 14v167l-43 -14v92l43 13v169h17v-163zM60 73v-167l76 22v168z"/></g><g id="E081-z1jkwjuq"><path transform="scale(1,-1)" d="M68 -250v36c23 0 40 6 49 18c8 14 12 33 12 57v250l-82 -129l-27 13l107 255h128v-394c0 -24 5 -42 14 -53s25 -17 47 -17v-36h-248z"/></g><g id="E082-z1jkwjuq"><path transform="scale(1,-1)" d="M124 -185c-18 0 -55 -14 -65 -65h-36l-3 30c0 25 6 45 18 63c11 19 22 30 39 43l121 82l37 29c15 11 27 29 38 54c12 24 18 47 18 70c0 40 -19 88 -94 88c-25 0 -32 0 -50 -8c-14 -5 -23 -12 -26 -22c3 -9 7 -15 10 -18l24 -17c12 -7 17 -11 27 -21c5 -7 7 -16 7 -27 c0 -12 0 -57 -79 -74c-30 0 -76 26 -76 94c0 66 81 135 197 135c72 0 181 -32 181 -150c0 -53 -32 -95 -113 -133l-91 -41c-26 -11 -45 -23 -57 -37l49 7c84 0 115 -41 148 -41c20 0 33 20 39 61h35c0 -152 -68 -168 -114 -168c-17 0 -65 0 -79 7h10l-28 17 c-49 37 -69 40 -87 42z"/></g><g id="E086-z1jkwjuq"><path transform="scale(1,-1)" d="M284 -91c0 37 -28 92 -67 92c-35 0 -65 -54 -65 -111c0 -52 22 -104 68 -104c47 0 64 68 64 123zM230 214c-36 0 -90 -33 -90 -184l2 -36c40 24 81 36 120 36c80 0 140 -48 140 -121c0 -99 -99 -159 -182 -159c-160 0 -200 173 -200 244c0 21 2 43 7 71l10 35 c26 85 73 115 98 126c41 19 74 24 103 24c93 0 142 -63 142 -105c0 -58 -52 -72 -73 -72c-33 0 -59 24 -65 35c-3 5 -6 14 -7 25l11 30c6 15 9 27 9 35c0 11 -9 16 -25 16z"/></g><g id="E0A4-z1jkwjuq"><path transform="scale(1,-1)" d="M0 -39c0 68 73 172 200 172c66 0 114 -37 114 -95c0 -84 -106 -171 -218 -171c-64 0 -96 30 -96 94z"/></g><g id="E241-z1jkwjuq"><path transform="scale(1,-1)" d="M179 646c-4 8 -17 30 -18 33l-4 10c0 3 2 5 5 5s7 -2 13 -7c23 -33 46 -81 66 -132c22 -57 35 -125 35 -163c0 -104 -60 -183 -122 -241c-63 -59 -57 -53 -61 -56c-38 -34 -63 -95 -71 -95h-22v190c40 7 69 11 87 16c88 27 168 95 168 200c0 30 -12 89 -30 138 c-17 47 -31 73 -46 102z"/></g><g id="E242-z1jkwjuq"><path transform="scale(1,-1)" d="M206 -748c32 48 49 100 49 149c0 89 -55 168 -168 203c-18 5 -47 9 -87 16v190v190h22c8 0 33 -61 71 -95c4 -3 -2 3 61 -56c62 -58 122 -137 122 -241c0 -32 -7 -65 -17 -96c11 -29 17 -60 17 -94c0 -71 -32 -148 -67 -190c-6 -5 -10 -7 -13 -7s-5 2 -5 5l4 10 c1 3 6 8 11 16zM248 -463c4 18 7 38 7 57c0 105 -80 173 -168 200c-11 3 -27 6 -47 9c9 -17 23 -61 53 -88c4 -3 -2 3 61 -56c36 -33 71 -74 94 -122z"/></g><g id="E4E7-z1jkwjuq"><path transform="scale(1,-1)" d="M133 -111c0 -33 -21 -50 -52 -55c10 -3 18 -4 25 -4c40 0 69 24 90 47l66 197c-36 -18 -64 -25 -112 -25c-23 0 -38 3 -45 8c-37 7 -55 27 -55 59c8 35 30 54 68 58c45 -6 49 -13 64 -48c0 -3 1 -5 1 -7c0 -27 -25 -46 -52 -49c6 -4 15 -6 26 -6c32 2 62 14 88 29 c32 19 44 36 59 71l7 1l10 2h4c-72 -220 -143 -439 -215 -659h-37l108 324c-20 -13 -51 -20 -82 -20c-21 0 -35 4 -43 10c-37 6 -55 26 -55 58c8 35 31 56 68 60c43 -8 48 -13 64 -51z"/></g><g id="E044-z1jkwjuq"><path transform="scale(1,-1)" d="M0 0c0 28 22 50 50 50s50 -22 50 -50s-22 -50 -50 -50s-50 22 -50 50z"/></g></defs><style type="text/css">#z1jkwjuq g.page-margin {font-family:Times,serif;}#z1jkwjuq g.ending, #z1jkwjuq g.fing, #z1jkwjuq g.reh, #z1jkwjuq g.tempo {font-weight:bold;}#z1jkwjuq g.dir, #z1jkwjuq g.dynam, #z1jkwjuq g.mNum {font-style:italic;}#z1jkwjuq g.label {font-weight:normal;}#z1jkwjuq path {stroke:currentColor}</style><svg class="definition-scale" color="black" viewBox="0 0 14000 2100"><g class="page-margin" transform="translate(0, 150)"><g data-id="r18x2ld" data-class="mdiv" class="mdiv pageMilestone"/><g data-id="sqe83qg" data-class="score" class="score pageMilestone"/><g data-id="v8ez045" data-class="system" class="system"><g data-id="uzwdft9" data-class="section" class="section systemMilestone"/><g data-id="agiwsre" data-class="measure" class="measure"><g data-id="gzc3d3q" data-class="staff" class="staff"><path d="M0 540 L5019 540" stroke-width="13"/><path d="M0 720 L5019 720" stroke-width="13"/><path d="M0 900 L5019 900" stroke-width="13"/><path d="M0 1080 L5019 1080" stroke-width="13"/><path d="M0 1260 L5019 1260" stroke-width="13"/><g data-id="cay0j1l" data-class="clef" class="clef"><use href="#E050-z1jkwjuq" transform="translate(90, 1080) scale(0.72, 0.72)"/></g><g data-id="dp4ys3k" data-class="keySig" class="keySig"><g data-id="e1mbfefk" data-class="keyAccid" class="keyAccid"><use href="#E262-z1jkwjuq" transform="translate(735, 540) scale(0.72, 0.72)"/></g></g><g data-id="f1b51o8z" data-class="meterSig" class="meterSig"><use href="#E081-z1jkwjuq" transform="translate(1042, 720) scale(0.72, 0.72)"/><use href="#E082-z1jkwjuq" transform="translate(1283, 720) scale(0.72, 0.72)"/><use href="#E081-z1jkwjuq" transform="translate(1049, 1080) scale(0.72, 0.72)"/><use href="#E086-z1jkwjuq" transform="translate(1290, 1080) scale(0.72, 0.72)"/></g><g data-id="hc8rr1" data-class="layer" class="layer"><g data-id="v1a2zak5" data-class="note" class="note"><g data-class="notehead" class="notehead"><use href="#E0A4-z1jkwjuq" transform="translate(1856, 900) scale(0.72, 0.72)"/></g><g data-id="w1dtx1j" data-class="dots" class="dots"><ellipse cx="2172" cy="810" rx="36" ry="36" fill-opacity="1" stroke-opacity="1"/></g><g data-id="vfi5d0t" data-class="stem" class="stem"><path d="M1865 928 L1865 1500" stroke-width="18"/><g data-id="x1kkgyaq" data-class="flag" class="flag"><use href="#E241-z1jkwjuq" transform="translate(1856, 1500) scale(0.72, 0.72)"/></g></g></g><g data-id="wxdh44y" data-class="note" class="note"><g data-class="notehead" class="notehead"><use href="#E0A4-z1jkwjuq" transform="translate(2478, 900) scale(0.72, 0.72)"/></g><g data-id="yqd5vuq" data-class="stem" class="stem"><path d="M2487 928 L2487 1500" stroke-width="18"/><g data-id="z1n9n0t9" data-class="flag" class="flag"><use href="#E241-z1jkwjuq" transform="translate(2478, 1500) scale(0.72, 0.72)"/></g></g></g><g data-id="x1x465y3" data-class="note" class="note"><g data-class="notehead" class="notehead"><use href="#E0A4-z1jkwjuq" transform="translate(2928, 990) scale(0.72, 0.72)"/></g><g data-id="a1d0mxoy" data-class="stem" class="stem"><path d="M3145 962 L3145 360" stroke-width="18"/><g data-id="bnskug" data-class="flag" class="flag"><use href="#E242-z1jkwjuq" transform="translate(3136, 360) scale(0.72, 0.72)"/></g></g></g><g data-id="y1a9wi6a" data-class="note" class="note"><g data-class="notehead" class="notehead"><use href="#E0A4-z1jkwjuq" transform="translate(3424, 900) scale(0.72, 0.72)"/></g><g data-id="d12situx" data-class="dots" class="dots"><ellipse cx="3740" cy="810" rx="36" ry="36" fill-opacity="1" stroke-opacity="1"/></g><g data-id="cfifecp" data-class="stem" class="stem"><path d="M3433 928 L3433 1500" stroke-width="18"/><g data-id="ejhjpgi" data-class="flag" class="flag"><use href="#E241-z1jkwjuq" transform="translate(3424, 1500) scale(0.72, 0.72)"/></g></g></g><g data-id="zzl1xfb" data-class="note" class="note"><g data-class="notehead" class="notehead"><use href="#E0A4-z1jkwjuq" transform="translate(4046, 900) scale(0.72, 0.72)"/></g><g data-id="f4562ds" data-class="stem" class="stem"><path d="M4055 928 L4055 1500" stroke-width="18"/><g data-id="geyt84" data-class="flag" class="flag"><use href="#E241-z1jkwjuq" transform="translate(4046, 1500) scale(0.72, 0.72)"/></g></g></g><g data-id="a1omo5uj" data-class="note" class="note"><g data-class="notehead" class="notehead"><use href="#E0A4-z1jkwjuq" transform="translate(4496, 990) scale(0.72, 0.72)"/></g><g data-id="h1rrkrzt" data-class="stem" class="stem"><path d="M4713 962 L4713 360" stroke-width="18"/><g data-id="ihuwez2" data-class="flag" class="flag"><use href="#E242-z1jkwjuq" transform="translate(4704, 360) scale(0.72, 0.72)"/></g></g></g></g></g><g data-id="ooebg2h" data-class="tie" class="tie"><path d="M2127,698 C2189,545 2368,545 2433,698 C2341,592 2216,592 2127,698" stroke-linecap="round" stroke-linejoin="round" stroke-width="9"/></g><g data-id="px6fp19" data-class="tie" class="tie"><path d="M3695,698 C3757,545 3936,545 4001,698 C3909,592 3784,592 3695,698" stroke-linecap="round" stroke-linejoin="round" stroke-width="9"/></g><g data-id="i111fopp" data-class="barLine" class="barLine"><path d="M5006 540 L5006 1260" stroke-width="27"/></g></g><g data-id="j1lvnvpm" data-class="measure" class="measure"><g data-id="immg0k2" data-class="staff" class="staff"><path d="M5019 540 L9305 540" stroke-width="13"/><path d="M5019 720 L9305 720" stroke-width="13"/><path d="M5019 900 L9305 900" stroke-width="13"/><path d="M5019 1080 L9305 1080" stroke-width="13"/><path d="M5019 1260 L9305 1260" stroke-width="13"/><g data-id="j1h1rpv8" data-class="layer" class="layer"><g data-id="k1gs6q61" data-class="beam" class="beam"><polygon stroke-opacity="1" fill-opacity="1" points="5407,270 6057,450 6057,540 5407,360"/><polygon stroke-opacity="1" fill-opacity="1" points="5407,405 5732,495 5732,585 5407,495"/><polygon stroke-opacity="1" fill-opacity="1" points="5732,495 6057,585 6057,675 5732,585"/><g data-id="bm0axvl" data-class="note" class="note"><g data-class="notehead" class="notehead"><use href="#E0A4-z1jkwjuq" transform="translate(5199, 900) scale(0.72, 0.72)"/></g><g data-id="je1q00r" data-class="stem" class="stem"><path d="M5416 872 L5416 288" stroke-width="18"/></g></g><g data-id="ceh8cch" data-class="note" class="note"><g data-class="notehead" class="notehead"><use href="#E0A4-z1jkwjuq" transform="translate(5515, 1350) scale(0.72, 0.72)"/></g><g data-id="kztp4v4" data-class="stem" class="stem"><path d="M5732 1322 L5732 378" stroke-width="18"/></g></g><g data-id="dqxxn9v" data-class="note" class="note"><g data-class="notehead" class="notehead"><use href="#E0A4-z1jkwjuq" transform="translate(5831, 1080) scale(0.72, 0.72)"/></g><g data-id="lk9rtk0" data-class="stem" class="stem"><path d="M6048 1052 L6048 468" stroke-width="18"/></g></g></g><g data-id="swrwuv2" data-class="rest" class="rest"><use href="#E4E7-z1jkwjuq" transform="translate(6147, 900) scale(0.72, 0.72)"/></g><g data-id="l82716f" data-class="beam" class="beam"><polygon stroke-opacity="1" fill-opacity="1" points="6678,45 7012,90 7012,180 6678,135"/><polygon stroke-opacity="1" fill-opacity="1" points="6678,180 7012,225 7012,315 6678,270"/><g data-id="e16gei3m" data-class="note" class="note"><g data-class="notehead" class="notehead"><use href="#E0A4-z1jkwjuq" transform="translate(6470, 720) scale(0.72, 0.72)"/></g><g data-id="m1n85044" data-class="stem" class="stem"><path d="M6687 692 L6687 63" stroke-width="18"/></g></g><g data-id="fty0502" data-class="note" class="note"><g data-class="notehead" class="notehead"><use href="#E0A4-z1jkwjuq" transform="translate(6786, 1350) scale(0.72, 0.72)"/></g><g data-id="nwswztt" data-class="stem" class="stem"><path d="M7003 1322 L7003 108" stroke-width="18"/></g></g></g><g data-id="t1gbm6tw" data-class="rest" class="rest"><use href="#E4E7-z1jkwjuq" transform="translate(7102, 900) scale(0.72, 0.72)"/></g><g data-id="my42515" data-class="beam" class="beam"><polygon stroke-opacity="1" fill-opacity="1" points="7633,135 7967,180 7967,270 7633,225"/><polygon stroke-opacity="1" fill-opacity="1" points="7633,270 7967,315 7967,405 7633,360"/><g data-id="gqnq8os" data-class="note" class="note"><g data-class="notehead" class="notehead"><use href="#E0A4-z1jkwjuq" transform="translate(7425, 810) scale(0.72, 0.72)"/></g><g data-id="o109ysm8" data-class="stem" class="stem"><path d="M7642 782 L7642 153" stroke-width="18"/></g></g><g data-id="h15dzr56" data-class="note" class="note"><g data-class="notehead" class="notehead"><use href="#E0A4-z1jkwjuq" transform="translate(7741, 1260) scale(0.72, 0.72)"/></g><g data-id="p1orlips" data-class="stem" class="stem"><path d="M7958 1232 L7958 198" stroke-width="18"/></g></g></g><g data-id="uuxr3ew" data-class="rest" class="rest"><use href="#E4E7-z1jkwjuq" transform="translate(8057, 900) scale(0.72, 0.72)"/></g><g data-id="n1gy71fi" data-class="beam" class="beam"><polygon stroke-opacity="1" fill-opacity="1" points="8588,315 8922,360 8922,450 8588,405"/><polygon stroke-opacity="1" fill-opacity="1" points="8588,450 8922,495 8922,585 8588,540"/><g data-id="i3f0wwm" data-class="note" class="note"><g data-class="notehead" class="notehead"><use href="#E0A4-z1jkwjuq" transform="translate(8380, 990) scale(0.72, 0.72)"/></g><g data-id="q4xndr5" data-class="stem" class="stem"><path d="M8597 962 L8597 333" stroke-width="18"/></g></g><g data-id="j1ss9x14" data-class="note" class="note"><g data-class="notehead" class="notehead"><use href="#E0A4-z1jkwjuq" transform="translate(8696, 1350) scale(0.72, 0.72)"/></g><g data-id="r156mxcp" data-class="stem" class="stem"><path d="M8913 1322 L8913 378" stroke-width="18"/></g></g></g></g></g><g data-id="rmc19eo" data-class="barLine" class="barLine"><path d="M9057 540 L9057 1260" stroke-width="90"/><path d="M9187 540 L9187 1260" stroke-width="27"/><use href="#E044-z1jkwjuq" transform="translate(9233, 810) scale(0.72, 0.72)"/><use href="#E044-z1jkwjuq" transform="translate(9233, 990) scale(0.72, 0.72)"/></g></g><g data-id="r1c4yyqw" data-class="systemMilestoneEnd" class="systemMilestoneEnd uzwdft9"/></g><g data-id="s12ovbat" data-class="pageMilestoneEnd" class="pageMilestoneEnd sqe83qg"/><g data-id="twxckks" data-class="pageMilestoneEnd" class="pageMilestoneEnd r18x2ld"/></g></svg></svg>