<svg viewBox="0 0 560 84" version="1.1" xmlns="http://www.w3.org/2000/svg" xmlns:xlink="http://www.w3.org/1999/xlink" overflow="visible" id="wp7eoav"><desc>Engraved by Verovio 5.6.0-85e7620</desc><defs><g id="E050-wp7eoav"><path transform="scale(1,-1)" d="M441 -245c-23 -4 -48 -6 -76 -6c-59 0 -102 7 -130 20c-88 42 -150 93 -187 154c-26 44 -43 103 -48 176c0 6 -1 13 -1 19c0 54 15 111 45 170c29 57 65 106 110 148s96 85 153 127c-3 16 -8 46 -13 92c-4 43 -5 73 -5 89c0 117 16 172 69 257c34 54 64 82 89 82 c21 0 43 -30 69 -92s39 -115 41 -159v-15c0 -109 -21 -162 -67 -241c-13 -20 -63 -90 -98 -118c-13 -9 -25 -19 -37 -29l31 -181c8 1 18 2 28 2c58 0 102 -12 133 -35c59 -43 92 -104 98 -184c1 -7 1 -15 1 -22c0 -123 -87 -209 -181 -248c8 -57 17 -110 25 -162 c5 -31 6 -58 6 -80c0 -30 -5 -53 -14 -70c-35 -64 -88 -99 -158 -103c-5 0 -11 -1 -16 -1c-37 0 -72 10 -108 27c-50 24 -77 59 -80 105v11c0 29 7 55 20 76c18 28 45 42 79 44h6c49 0 93 -42 97 -87v-9c0 -51 -34 -86 -105 -106c17 -24 51 -36 102 -36c62 0 116 43 140 85 c9 16 13 41 13 74c0 20 -1 42 -5 67c-8 53 -18 106 -26 159zM461 939c-95 0 -135 -175 -135 -286c0 -24 2 -48 5 -71c50 39 92 82 127 128c40 53 60 100 60 140v8c-4 53 -22 81 -55 81h-2zM406 119l54 -326c73 25 110 78 110 161c0 7 0 15 -1 23c-7 95 -57 142 -151 142h-12 zM382 117c-72 -2 -128 -47 -128 -120v-7c2 -46 43 -99 75 -115c-3 -2 -7 -5 -10 -10c-70 33 -116 88 -123 172v11c0 68 44 126 88 159c23 17 49 29 78 36l-29 170c-21 -13 -52 -37 -92 -73c-50 -44 -86 -84 -109 -119c-45 -69 -67 -130 -67 -182v-13c5 -68 35 -127 93 -176 s125 -73 203 -73c25 0 50 3 75 9c-19 111 -36 221 -54 331z"/></g><g id="E262-wp7eoav"><path transform="scale(1,-1)" d="M136 186v169h17v-164l44 14v-91l-44 -14v-165l44 12v-91l-44 -13v-155h-17v150l-76 -22v-155h-17v149l-43 -13v90l43 14v167l-43 -14v92l43 13v169h17v-163zM60 73v-167l76 22v168z"/></g><g id="E08A-wp7eoav"><path transform="scale(1,-1)" d="M340 179c-9 24 -56 41 -89 41c-46 0 -81 -28 -100 -58c-17 -28 -25 -78 -25 -150c0 -65 2 -111 8 -135c8 -31 18 -49 40 -67c20 -17 43 -25 70 -25c54 0 92 36 115 75c14 25 23 54 28 88h27c0 -63 -24 -105 -58 -141c-35 -38 -82 -56 -140 -56c-45 0 -83 13 -115 39 c-57 45 -101 130 -101 226c0 59 33 127 68 163c36 37 97 72 160 72c36 0 93 -21 121 -40c11 -8 23 -17 33 -30c19 -23 27 -48 27 -76c0 -51 -35 -88 -86 -88c-43 0 -76 27 -76 68c0 26 7 35 21 51c15 17 32 27 58 32c7 2 14 7 14 11z"/></g><g id="E0A4-wp7eoav"><path transform="scale(1,-1)" d="M0 -39c0 68 73 172 200 172c66 0 114 -37 114 -95c0 -84 -106 -171 -218 -171c-64 0 -96 30 -96 94z"/></g></defs><style type="text/css">#wp7eoav g.page-margin {font-family:Times,serif;}#wp7eoav g.ending, #wp7eoav g.fing, #wp7eoav g.reh, #wp7eoav g.tempo {font-weight:bold;}#wp7eoav g.dir, #wp7eoav g.dynam, #wp7eoav g.mNum {font-style:italic;}#wp7eoav g.label {font-weight:normal;}#wp7eoav path {stroke:currentColor}</style><svg class="definition-scale" color="black" viewBox="0 0 14000 2100"><g class="page-margin" transform="translate(0, 150)"><g data-id="w8idfvs" data-class="mdiv" class="mdiv pageMilestone"/><g data-id="x1yoj373" data-class="score" class="score pageMilestone"/><g data-id="tf85206" data-class="system" class="system"><g data-id="z1a61ei1" data-class="section" class="section systemMilestone"/><g data-id="x1t4xf34" data-class="measure" class="measure"><g data-id="l8wiwkj" data-class="staff" class="staff"><path d="M0 540 L8292 540" stroke-width="13"/><path d="M0 720 L8292 720" stroke-width="13"/><path d="M0 900 L8292 900" stroke-width="13"/><path d="M0 1080 L8292 1080" stroke-width="13"/><path d="M0 1260 L8292 1260" stroke-width="13"/><g data-id="wj3z6hq" data-class="clef" class="clef"><use href="#E050-wp7eoav" transform="translate(90, 1080) scale(0.72, 0.72)"/></g><g data-id="x1c4vs0c" data-class="keySig" class="keySig"><g data-id="y1b7bjx0" data-class="keyAccid" class="keyAccid"><use href="#E262-wp7eoav" transform="translate(735, 540) scale(0.72, 0.72)"/></g><g data-id="z11qvf8l" data-class="keyAccid" class="keyAccid"><use href="#E262-wp7eoav" transform="translate(913, 810) scale(0.72, 0.72)"/></g><g data-id="a9roaa6" data-class="keyAccid" class="keyAccid"><use href="#E262-wp7eoav" transform="translate(1091, 450) scale(0.72, 0.72)"/></g></g><g data-id="b1ikymxt" data-class="meterSig" class="meterSig"><use href="#E08A-wp7eoav" transform="translate(1412, 900) scale(0.72, 0.72)"/></g><g data-class="ledgerLines" class="ledgerLines below"><g data-class="lineDash" class="lineDash" data-related="#g1gv7xqo"><path d="M2736 1440 L3058 1440" stroke-width="22"/></g><g data-class="lineDash" class="lineDash" data-related="#o17ra3gm"><path d="M5876 1440 L6198 1440" stroke-width="22"/></g></g><g data-id="m1rwfdu7" data-class="layer" class="layer"><g data-id="o16igjc8" data-class="beam" class="beam"><polygon stroke-opacity="1" fill-opacity="1" points="2207,360 3403,540 3403,630 2207,450"/><polygon stroke-opacity="1" fill-opacity="1" points="2207,495 2609,556 2609,646 2207,585"/><polygon stroke-opacity="1" fill-opacity="1" points="2609,556 3001,615 3001,705 2609,646"/><polygon stroke-opacity="1" fill-opacity="1" points="3001,615 3403,675 3403,765 3001,705"/><g data-id="ecjm0by" data-class="note" class="note"><g data-class="notehead" class="notehead"><use href="#E0A4-wp7eoav" transform="translate(1999, 990) scale(0.72, 0.72)"/></g><g data-id="q1018m0n" data-class="stem" class="stem"><path d="M2216 962 L2216 378" stroke-width="18"/></g></g><g data-id="f1h10w8g" data-class="note" class="note"><g data-class="notehead" class="notehead"><use href="#E0A4-wp7eoav" transform="translate(2392, 1260) scale(0.72, 0.72)"/></g><g data-id="rxfoajd" data-class="stem" class="stem"><path d="M2609 1232 L2609 439" stroke-width="18"/></g></g><g data-id="g1gv7xqo" data-class="note" class="note"><g data-class="notehead" class="notehead"><use href="#E0A4-wp7eoav" transform="translate(2784, 1440) scale(0.72, 0.72)"/></g><g data-id="sytrx9e" data-class="stem" class="stem"><path d="M3001 1412 L3001 498" stroke-width="18"/></g><g data-id="b1y6aseq" data-class="accid" class="accid"/></g><g data-id="h1jti5qs" data-class="note" class="note"><g data-class="notehead" class="notehead"><use href="#E0A4-wp7eoav" transform="translate(3177, 1260) scale(0.72, 0.72)"/></g><g data-id="t1efmhkw" data-class="stem" class="stem"><path d="M3394 1232 L3394 558" stroke-width="18"/></g></g></g><g data-id="p1f43fkw" data-class="beam" class="beam"><polygon stroke-opacity="1" fill-opacity="1" points="3777,315 4973,315 4973,405 3777,405"/><polygon stroke-opacity="1" fill-opacity="1" points="3777,450 4179,450 4179,540 3777,540"/><polygon stroke-opacity="1" fill-opacity="1" points="4179,450 4571,450 4571,540 4179,540"/><polygon stroke-opacity="1" fill-opacity="1" points="4571,450 4973,450 4973,540 4571,540"/><g data-id="i35gar1" data-class="note" class="note"><g data-class="notehead" class="notehead"><use href="#E0A4-wp7eoav" transform="translate(3569, 990) scale(0.72, 0.72)"/></g><g data-id="u1inqyv1" data-class="stem" class="stem"><path d="M3786 962 L3786 333" stroke-width="18"/></g></g><g data-id="jgjnj32" data-class="note" class="note"><g data-class="notehead" class="notehead"><use href="#E0A4-wp7eoav" transform="translate(3962, 1260) scale(0.72, 0.72)"/></g><g data-id="vmbe00m" data-class="stem" class="stem"><path d="M4179 1232 L4179 333" stroke-width="18"/></g></g><g data-id="krawa72" data-class="note" class="note"><g data-class="notehead" class="notehead"><use href="#E0A4-wp7eoav" transform="translate(4354, 900) scale(0.72, 0.72)"/></g><g data-id="w4yuy5c" data-class="stem" class="stem"><path d="M4571 872 L4571 333" stroke-width="18"/></g></g><g data-id="l8vxof2" data-class="note" class="note"><g data-class="notehead" class="notehead"><use href="#E0A4-wp7eoav" transform="translate(4747, 1260) scale(0.72, 0.72)"/></g><g data-id="x1dc3rsi" data-class="stem" class="stem"><path d="M4964 1232 L4964 333" stroke-width="18"/></g></g></g><g data-id="q1qlp1w" data-class="beam" class="beam"><polygon stroke-opacity="1" fill-opacity="1" points="5347,180 6543,540 6543,630 5347,270"/><polygon stroke-opacity="1" fill-opacity="1" points="5347,315 5749,436 5749,526 5347,405"/><polygon stroke-opacity="1" fill-opacity="1" points="5749,436 6141,555 6141,645 5749,526"/><polygon stroke-opacity="1" fill-opacity="1" points="6141,555 6543,675 6543,765 6141,645"/><g data-id="m1m02i8r" data-class="note" class="note"><g data-class="notehead" class="notehead"><use href="#E0A4-wp7eoav" transform="translate(5139, 810) scale(0.72, 0.72)"/></g><g data-id="y1yxgons" data-class="stem" class="stem"><path d="M5356 782 L5356 198" stroke-width="18"/></g><g data-id="cjvyu0y" data-class="accid" class="accid"/></g><g data-id="n130g8pb" data-class="note" class="note"><g data-class="notehead" class="notehead"><use href="#E0A4-wp7eoav" transform="translate(5532, 1260) scale(0.72, 0.72)"/></g><g data-id="z1d8f24x" data-class="stem" class="stem"><path d="M5749 1232 L5749 319" stroke-width="18"/></g></g><g data-id="o17ra3gm" data-class="note" class="note"><g data-class="notehead" class="notehead"><use href="#E0A4-wp7eoav" transform="translate(5924, 1440) scale(0.72, 0.72)"/></g><g data-id="awjal4d" data-class="stem" class="stem"><path d="M6141 1412 L6141 438" stroke-width="18"/></g><g data-id="diaepq4" data-class="accid" class="accid"/></g><g data-id="pnmkthz" data-class="note" class="note"><g data-class="notehead" class="notehead"><use href="#E0A4-wp7eoav" transform="translate(6317, 1260) scale(0.72, 0.72)"/></g><g data-id="bgpm2gh" data-class="stem" class="stem"><path d="M6534 1232 L6534 558" stroke-width="18"/></g></g></g><g data-id="r1af1tml" data-class="beam" class="beam"><polygon stroke-opacity="1" fill-opacity="1" points="6709,1575 7904,1575 7904,1485 6709,1485"/><polygon stroke-opacity="1" fill-opacity="1" points="6709,1440 7110,1440 7110,1350 6709,1350"/><polygon stroke-opacity="1" fill-opacity="1" points="7110,1440 7503,1440 7503,1350 7110,1350"/><polygon stroke-opacity="1" fill-opacity="1" points="7503,1440 7904,1440 7904,1350 7503,1350"/><g data-id="q27mtov" data-class="note" class="note"><g data-class="notehead" class="notehead"><use href="#E0A4-wp7eoav" transform="translate(6709, 810) scale(0.72, 0.72)"/></g><g data-id="c1i6s86r" data-class="stem" class="stem"><path d="M6718 838 L6718 1557" stroke-width="18"/></g><g data-id="e92hnz2" data-class="accid" class="accid"/></g><g data-id="r8rqbut" data-class="note" class="note"><g data-class="notehead" class="notehead"><use href="#E0A4-wp7eoav" transform="translate(7101, 990) scale(0.72, 0.72)"/></g><g data-id="d1ive901" data-class="stem" class="stem"><path d="M7110 1018 L7110 1557" stroke-width="18"/></g></g><g data-id="s1rbvo7b" data-class="note" class="note"><g data-class="notehead" class="notehead"><use href="#E0A4-wp7eoav" transform="translate(7494, 720) scale(0.72, 0.72)"/></g><g data-id="e1k7dzg9" data-class="stem" class="stem"><path d="M7503 748 L7503 1557" stroke-width="18"/></g></g><g data-id="tb0xgeo" data-class="note" class="note"><g data-class="notehead" class="notehead"><use href="#E0A4-wp7eoav" transform="translate(7886, 990) scale(0.72, 0.72)"/></g><g data-id="fya1h3j" data-class="stem" class="stem"><path d="M7895 1018 L7895 1557" stroke-width="18"/></g></g></g></g></g><g data-id="f13q0uwl" data-class="barLine" class="barLine"><path d="M8279 540 L8279 1260" stroke-width="27"/></g></g><g data-id="g1spldhn" data-class="measure" class="measure"><g data-id="n17vszmo" data-class="staff" class="staff"><path d="M8292 540 L14001 540" stroke-width="13"/><path d="M8292 720 L14001 720" stroke-width="13"/><path d="M8292 900 L14001 900" stroke-width="13"/><path d="M8292 1080 L14001 1080" stroke-width="13"/><path d="M8292 1260 L14001 1260" stroke-width="13"/><g data-class="ledgerLines" class="ledgerLines above"><g data-class="lineDash" class="lineDash" data-related="#c13wu57r"><path d="M11583 360 L11905 360" stroke-width="22"/></g><g data-class="lineDash" class="lineDash" data-related="#dnuqe0z"><path d="M12172 360 L12494 360" stroke-width="22"/></g></g><g data-id="o17szqsu" data-class="layer" class="layer"><g data-id="s1l3zf90" data-class="beam" class="beam"><polygon stroke-opacity="1" fill-opacity="1" points="8491,1575 9687,1575 9687,1485 8491,1485"/><polygon stroke-opacity="1" fill-opacity="1" points="8491,1440 8893,1440 8893,1350 8491,1350"/><polygon stroke-opacity="1" fill-opacity="1" points="8893,1440 9285,1440 9285,1350 8893,1350"/><polygon stroke-opacity="1" fill-opacity="1" points="9285,1440 9687,1440 9687,1350 9285,1350"/><g data-id="ukvivoq" data-class="note" class="note"><g data-class="notehead" class="notehead"><use href="#E0A4-wp7eoav" transform="translate(8491, 630) scale(0.72, 0.72)"/></g><g data-id="g1w5mzvb" data-class="stem" class="stem"><path d="M8500 658 L8500 1557" stroke-width="18"/></g></g><g data-id="vlubr4c" data-class="note" class="note"><g data-class="notehead" class="notehead"><use href="#E0A4-wp7eoav" transform="translate(8884, 990) scale(0.72, 0.72)"/></g><g data-id="h1lx8wf" data-class="stem" class="stem"><path d="M8893 1018 L8893 1557" stroke-width="18"/></g></g><g data-id="w17lkyy1" data-class="note" class="note"><g data-class="notehead" class="notehead"><use href="#E0A4-wp7eoav" transform="translate(9276, 630) scale(0.72, 0.72)"/></g><g data-id="i1ha8tfa" data-class="stem" class="stem"><path d="M9285 658 L9285 1557" stroke-width="18"/></g></g><g data-id="x1mq7wle" data-class="note" class="note"><g data-class="notehead" class="notehead"><use href="#E0A4-wp7eoav" transform="translate(9669, 990) scale(0.72, 0.72)"/></g><g data-id="jz04th0" data-class="stem" class="stem"><path d="M9678 1018 L9678 1557" stroke-width="18"/></g></g></g><g data-id="tlhmu82" data-class="beam" class="beam"><polygon stroke-opacity="1" fill-opacity="1" points="10061,1575 11257,1575 11257,1485 10061,1485"/><polygon stroke-opacity="1" fill-opacity="1" points="10061,1440 10463,1440 10463,1350 10061,1350"/><polygon stroke-opacity="1" fill-opacity="1" points="10463,1440 10855,1440 10855,1350 10463,1350"/><polygon stroke-opacity="1" fill-opacity="1" points="10855,1440 11257,1440 11257,1350 10855,1350"/><g data-id="y12bpbgc" data-class="note" class="note"><g data-class="notehead" class="notehead"><use href="#E0A4-wp7eoav" transform="translate(10061, 540) scale(0.72, 0.72)"/></g><g data-id="kxzkcaa" data-class="stem" class="stem"><path d="M10070 568 L10070 1557" stroke-width="18"/></g><g data-id="f15i26r" data-class="accid" class="accid"/></g><g data-id="z903jrz" data-class="note" class="note"><g data-class="notehead" class="notehead"><use href="#E0A4-wp7eoav" transform="translate(10454, 990) scale(0.72, 0.72)"/></g><g data-id="l1wmrqou" data-class="stem" class="stem"><path d="M10463 1018 L10463 1557" stroke-width="18"/></g></g><g data-id="a1je0qq2" data-class="note" class="note"><g data-class="notehead" class="notehead"><use href="#E0A4-wp7eoav" transform="translate(10846, 450) scale(0.72, 0.72)"/></g><g data-id="m1t1osgj" data-class="stem" class="stem"><path d="M10855 478 L10855 1557" stroke-width="18"/></g><g data-id="g15s636g" data-class="accid" class="accid"/></g><g data-id="b1j61b6g" data-class="note" class="note"><g data-class="notehead" class="notehead"><use href="#E0A4-wp7eoav" transform="translate(11239, 990) scale(0.72, 0.72)"/></g><g data-id="nh9a5kx" data-class="stem" class="stem"><path d="M11248 1018 L11248 1557" stroke-width="18"/></g></g></g><g data-id="u1p1mwe5" data-class="beam" class="beam"><polygon stroke-opacity="1" fill-opacity="1" points="11631,945 13417,1125 13417,1035 11631,855"/><g data-id="c13wu57r" data-class="note" class="note"><g data-class="notehead" class="notehead"><use href="#E0A4-wp7eoav" transform="translate(11631, 270) scale(0.72, 0.72)"/></g><g data-id="o15tp2j" data-class="stem" class="stem"><path d="M11640 298 L11640 927" stroke-width="18"/></g></g><g data-id="dnuqe0z" data-class="note" class="note"><g data-class="notehead" class="notehead"><use href="#E0A4-wp7eoav" transform="translate(12220, 360) scale(0.72, 0.72)"/></g><g data-id="phr5tx" data-class="stem" class="stem"><path d="M12229 388 L12229 986" stroke-width="18"/></g></g><g data-id="e11n07cj" data-class="note" class="note"><g data-class="notehead" class="notehead"><use href="#E0A4-wp7eoav" transform="translate(12810, 450) scale(0.72, 0.72)"/></g><g data-id="q12fhjyc" data-class="stem" class="stem"><path d="M12819 478 L12819 1047" stroke-width="18"/></g><g data-id="h1mnz24z" data-class="accid" class="accid"/></g><g data-id="f1ubl9et" data-class="note" class="note"><g data-class="notehead" class="notehead"><use href="#E0A4-wp7eoav" transform="translate(13399, 540) scale(0.72, 0.72)"/></g><g data-id="ri409cw" data-class="stem" class="stem"><path d="M13408 568 L13408 1107" stroke-width="18"/></g><g data-id="i1j2iger" data-class="accid" class="accid"/></g></g></g></g><g data-id="o102liqt" data-class="barLine" class="barLine"><path d="M13988 540 L13988 1260" stroke-width="27"/></g></g></g></g></svg></svg>