<svg viewBox="0 0 560 84" version="1.1" xmlns="http://www.w3.org/2000/svg" xmlns:xlink="http://www.w3.org/1999/xlink" overflow="visible" id="rj8atvs"><desc>Engraved by Verovio 5.6.0-85e7620</desc><defs><g id="E050-rj8atvs"><path transform="scale(1,-1)" d="M441 -245c-23 -4 -48 -6 -76 -6c-59 0 -102 7 -130 20c-88 42 -150 93 -187 154c-26 44 -43 103 -48 176c0 6 -1 13 -1 19c0 54 15 111 45 170c29 57 65 106 110 148s96 85 153 127c-3 16 -8 46 -13 92c-4 43 -5 73 -5 89c0 117 16 172 69 257c34 54 64 82 89 82 c21 0 43 -30 69 -92s39 -115 41 -159v-15c0 -109 -21 -162 -67 -241c-13 -20 -63 -90 -98 -118c-13 -9 -25 -19 -37 -29l31 -181c8 1 18 2 28 2c58 0 102 -12 133 -35c59 -43 92 -104 98 -184c1 -7 1 -15 1 -22c0 -123 -87 -209 -181 -248c8 -57 17 -110 25 -162 c5 -31 6 -58 6 -80c0 -30 -5 -53 -14 -70c-35 -64 -88 -99 -158 -103c-5 0 -11 -1 -16 -1c-37 0 -72 10 -108 27c-50 24 -77 59 -80 105v11c0 29 7 55 20 76c18 28 45 42 79 44h6c49 0 93 -42 97 -87v-9c0 -51 -34 -86 -105 -106c17 -24 51 -36 102 -36c62 0 116 43 140 85 c9 16 13 41 13 74c0 20 -1 42 -5 67c-8 53 -18 106 -26 159zM461 939c-95 0 -135 -175 -135 -286c0 -24 2 -48 5 -71c50 39 92 82 127 128c40 53 60 100 60 140v8c-4 53 -22 81 -55 81h-2zM406 119l54 -326c73 25 110 78 110 161c0 7 0 15 -1 23c-7 95 -57 142 -151 142h-12 zM382 117c-72 -2 -128 -47 -128 -120v-7c2 -46 43 -99 75 -115c-3 -2 -7 -5 -10 -10c-70 33 -116 88 -123 172v11c0 68 44 126 88 159c23 17 49 29 78 36l-29 170c-21 -13 -52 -37 -92 -73c-50 -44 -86 -84 -109 -119c-45 -69 -67 -130 -67 -182v-13c5 -68 35 -127 93 -176 s125 -73 203 -73c25 0 50 3 75 9c-19 111 -36 221 -54 331z"/></g><g id="E260-rj8atvs"><path transform="scale(1,-1)" d="M20 110c32 16 54 27 93 27c26 0 35 -3 54 -13c13 -7 24 -20 27 -38l4 -25c0 -28 -16 -57 -45 -89c-23 -25 -39 -44 -65 -68l-88 -79v644h20v-359zM90 106c-32 0 -48 -10 -70 -29v-194c31 31 54 59 71 84c21 32 32 59 32 84c0 9 1 16 1 20c0 14 -3 21 -11 30l-8 3z"/></g><g id="E08A-rj8atvs"><path transform="scale(1,-1)" d="M340 179c-9 24 -56 41 -89 41c-46 0 -81 -28 -100 -58c-17 -28 -25 -78 -25 -150c0 -65 2 -111 8 -135c8 -31 18 -49 40 -67c20 -17 43 -25 70 -25c54 0 92 36 115 75c14 25 23 54 28 88h27c0 -63 -24 -105 -58 -141c-35 -38 -82 -56 -140 -56c-45 0 -83 13 -115 39 c-57 45 -101 130 -101 226c0 59 33 127 68 163c36 37 97 72 160 72c36 0 93 -21 121 -40c11 -8 23 -17 33 -30c19 -23 27 -48 27 -76c0 -51 -35 -88 -86 -88c-43 0 -76 27 -76 68c0 26 7 35 21 51c15 17 32 27 58 32c7 2 14 7 14 11z"/></g><g id="E4E2-rj8atvs"><path transform="scale(1,-1)" d="M0 10v230c0 8 2 10 10 10h105c8 0 10 -2 10 -10v-230c0 -8 -2 -10 -10 -10h-105c-8 0 -10 2 -10 10z"/></g><g id="E4E3-rj8atvs"><path transform="scale(1,-1)" d="M0 -115v105c0 9 1 10 10 10h280c9 0 10 -1 10 -10v-105c0 -9 -1 -10 -10 -10h-280c-9 0 -10 1 -10 10z"/></g><g id="E083-rj8atvs"><path transform="scale(1,-1)" d="M208 250c97 0 177 -52 177 -116c0 -69 -40 -111 -118 -125c56 -5 125 -44 125 -116c0 -31 -10 -57 -31 -78c-19 -21 -45 -38 -78 -49l-50 -11c-15 -3 -36 -7 -55 -7c-50 0 -86 16 -113 38c-16 10 -23 18 -34 34c-7 13 -11 25 -11 38c0 43 27 83 68 83l3 -2 c61 0 75 -42 75 -70c0 -19 -24 -42 -26 -57c7 -17 20 -25 37 -25c44 0 94 29 94 78c0 75 -34 125 -138 125v36c84 0 131 22 131 98c0 54 -37 88 -87 88c-26 0 -43 -7 -51 -22c15 -22 44 -16 44 -70c0 -37 -37 -62 -71 -62c-22 0 -69 15 -69 76c0 79 101 116 178 116z"/></g><g id="E044-rj8atvs"><path transform="scale(1,-1)" d="M0 0c0 28 22 50 50 50s50 -22 50 -50s-22 -50 -50 -50s-50 22 -50 50z"/></g><g id="E4E6-rj8atvs"><path transform="scale(1,-1)" d="M0 123c7 34 33 56 69 60c29 -3 43 -9 53 -29c4 -8 7 -15 10 -22c0 -21 -1 -25 -11 -35c-5 -8 -18 -14 -40 -20l12 -3l15 -1c44 0 97 26 122 56c10 11 18 26 24 42c7 1 15 2 22 3l-140 -424h-36l111 330c-10 -6 -27 -12 -53 -16l-52 -8h-10l-20 1c-1 0 -8 3 -21 6 c-37 9 -55 28 -55 60z"/></g><g id="E0A4-rj8atvs"><path transform="scale(1,-1)" d="M0 -39c0 68 73 172 200 172c66 0 114 -37 114 -95c0 -84 -106 -171 -218 -171c-64 0 -96 30 -96 94z"/></g><g id="E241-rj8atvs"><path transform="scale(1,-1)" d="M179 646c-4 8 -17 30 -18 33l-4 10c0 3 2 5 5 5s7 -2 13 -7c23 -33 46 -81 66 -132c22 -57 35 -125 35 -163c0 -104 -60 -183 -122 -241c-63 -59 -57 -53 -61 -56c-38 -34 -63 -95 -71 -95h-22v190c40 7 69 11 87 16c88 27 168 95 168 200c0 30 -12 89 -30 138 c-17 47 -31 73 -46 102z"/></g><g id="E240-rj8atvs"><path transform="scale(1,-1)" d="M179 -646c15 29 29 55 46 102c18 49 30 108 30 138c0 105 -80 173 -168 200c-18 5 -47 9 -87 16v190h22c8 0 33 -61 71 -95c4 -3 -2 3 61 -56c62 -58 122 -137 122 -241c0 -38 -13 -106 -35 -163c-20 -51 -43 -99 -66 -132c-6 -5 -10 -7 -13 -7s-5 2 -5 5l4 10 c1 3 14 25 18 33z"/></g><g id="E0A3-rj8atvs"><path transform="scale(1,-1)" d="M278 64c0 22 -17 39 -43 39c-12 0 -26 -3 -41 -10c-85 -43 -165 -94 -165 -156c5 -25 15 -32 49 -32c67 11 200 95 200 159zM0 -36c0 68 73 174 200 174c66 0 114 -39 114 -97c0 -84 -106 -173 -218 -173c-64 0 -96 32 -96 96z"/></g></defs><style type="text/css">#rj8atvs g.page-margin {font-family:Times,serif;}#rj8atvs g.ending, #rj8atvs g.fing, #rj8atvs g.reh, #rj8atvs g.tempo {font-weight:bold;}#rj8atvs g.dir, #rj8atvs g.dynam, #rj8atvs g.mNum {font-style:italic;}#rj8atvs g.label {font-weight:normal;}#rj8atvs path {stroke:currentColor}</style><svg class="definition-scale" color="black" viewBox="0 0 14000 2100"><g class="page-margin" transform="translate(0, 150)"><g data-id="g1yw1mae" data-class="mdiv" class="mdiv pageMilestone"/><g data-id="h36p20v" data-class="score" class="score pageMilestone"/><g data-id="p1ub9g3e" data-class="system" class="system"><g data-id="j1ntc2xx" data-class="section" class="section systemMilestone"/><g data-id="suetmoi" data-class="measure" class="measure"><g data-id="v17garka" data-class="staff" class="staff"><path d="M0 540 L3616 540" stroke-width="13"/><path d="M0 720 L3616 720" stroke-width="13"/><path d="M0 900 L3616 900" stroke-width="13"/><path d="M0 1080 L3616 1080" stroke-width="13"/><path d="M0 1260 L3616 1260" stroke-width="13"/><g data-id="lwidq66" data-class="clef" class="clef"><use href="#E050-rj8atvs" transform="translate(90, 1080) scale(0.72, 0.72)"/></g><g data-id="mc7qirs" data-class="keySig" class="keySig"><g data-id="n1yx9jxz" data-class="keyAccid" class="keyAccid"><use href="#E260-rj8atvs" transform="translate(735, 900) scale(0.72, 0.72)"/></g></g><g data-id="o1pq8ysp" data-class="meterSig" class="meterSig"><use href="#E08A-rj8atvs" transform="translate(1057, 900) scale(0.72, 0.72)"/></g><g data-id="w17kvn6p" data-class="layer" class="layer"><g data-id="lo9tr1w" data-class="multiRest" class="multiRest"><use href="#E4E2-rj8atvs" transform="translate(2186, 900) scale(0.72, 0.72)"/><use href="#E4E3-rj8atvs" transform="translate(2366, 720) scale(0.72, 0.72)"/><use href="#E083-rj8atvs" transform="translate(2236, 270) scale(0.72, 0.72)"/></g></g></g><g data-id="anmrdv4" data-class="barLine" class="barLine"><path d="M3368 540 L3368 1260" stroke-width="90"/><path d="M3498 540 L3498 1260" stroke-width="27"/><use href="#E044-rj8atvs" transform="translate(3544, 810) scale(0.72, 0.72)"/><use href="#E044-rj8atvs" transform="translate(3544, 990) scale(0.72, 0.72)"/></g></g><g data-id="bzp96b3" data-class="measure" class="measure"><g data-id="xwe7pea" data-class="staff" class="staff"><path d="M3616 540 L7965 540" stroke-width="13"/><path d="M3616 720 L7965 720" stroke-width="13"/><path d="M3616 900 L7965 900" stroke-width="13"/><path d="M3616 1080 L7965 1080" stroke-width="13"/><path d="M3616 1260 L7965 1260" stroke-width="13"/><g data-id="y1k8pkzn" data-class="layer" class="layer"><g data-id="m1x415jx" data-class="rest" class="rest"><use href="#E4E6-rj8atvs" transform="translate(3808, 900) scale(0.72, 0.72)"/></g><g data-id="naxt6e4" data-class="note" class="note"><g data-class="notehead" class="notehead"><use href="#E0A4-rj8atvs" transform="translate(4324, 810) scale(0.72, 0.72)"/></g><g data-id="qzwhzpk" data-class="stem" class="stem"><path d="M4333 838 L4333 1440" stroke-width="18"/><g data-id="r1o19rgw" data-class="flag" class="flag"><use href="#E241-rj8atvs" transform="translate(4324, 1440) scale(0.72, 0.72)"/></g></g></g><g data-id="o1d0ln9b" data-class="note" class="note"><g data-class="notehead" class="notehead"><use href="#E0A4-rj8atvs" transform="translate(4841, 990) scale(0.72, 0.72)"/></g><g data-id="s1xzio98" data-class="stem" class="stem"><path d="M5058 962 L5058 360" stroke-width="18"/><g data-id="t1sktycm" data-class="flag" class="flag"><use href="#E240-rj8atvs" transform="translate(5049, 360) scale(0.72, 0.72)"/></g></g></g><g data-id="pn7chhg" data-class="note" class="note"><g data-class="notehead" class="notehead"><use href="#E0A4-rj8atvs" transform="translate(5368, 900) scale(0.72, 0.72)"/></g><g data-id="u1sbsb3d" data-class="stem" class="stem"><path d="M5377 928 L5377 1500" stroke-width="18"/><g data-id="v1spe9j9" data-class="flag" class="flag"><use href="#E241-rj8atvs" transform="translate(5368, 1500) scale(0.72, 0.72)"/></g></g><g data-id="erfrzqq" data-class="accid" class="accid"/></g><g data-id="q1yi3a7e" data-class="note" class="note"><g data-class="notehead" class="notehead"><use href="#E0A4-rj8atvs" transform="translate(5885, 810) scale(0.72, 0.72)"/></g><g data-id="wpf596f" data-class="stem" class="stem"><path d="M5894 838 L5894 1440" stroke-width="18"/><g data-id="x1sffdjn" data-class="flag" class="flag"><use href="#E241-rj8atvs" transform="translate(5885, 1440) scale(0.72, 0.72)"/></g></g></g><g data-id="r1cri081" data-class="note" class="note"><g data-class="notehead" class="notehead"><use href="#E0A4-rj8atvs" transform="translate(6402, 720) scale(0.72, 0.72)"/></g><g data-id="yzuh429" data-class="stem" class="stem"><path d="M6411 748 L6411 1350" stroke-width="18"/><g data-id="zjo285m" data-class="flag" class="flag"><use href="#E241-rj8atvs" transform="translate(6402, 1350) scale(0.72, 0.72)"/></g></g></g><g data-id="s1iazlas" data-class="note" class="note"><g data-class="notehead" class="notehead"><use href="#E0A4-rj8atvs" transform="translate(6919, 540) scale(0.72, 0.72)"/></g><g data-id="a8pw7eb" data-class="stem" class="stem"><path d="M6928 568 L6928 1170" stroke-width="18"/><g data-id="b1msgekv" data-class="flag" class="flag"><use href="#E241-rj8atvs" transform="translate(6919, 1170) scale(0.72, 0.72)"/></g></g></g><g data-id="tcgcu6e" data-class="note" class="note"><g data-class="notehead" class="notehead"><use href="#E0A4-rj8atvs" transform="translate(7436, 720) scale(0.72, 0.72)"/></g><g data-id="c1fij0p8" data-class="stem" class="stem"><path d="M7445 748 L7445 1350" stroke-width="18"/><g data-id="dtjx7yw" data-class="flag" class="flag"><use href="#E241-rj8atvs" transform="translate(7436, 1350) scale(0.72, 0.72)"/></g></g></g></g></g><g data-id="jeeiv8g" data-class="barLine" class="barLine"><path d="M7952 540 L7952 1260" stroke-width="27"/></g></g><g data-id="kg8ui7m" data-class="measure" class="measure"><g data-id="z1n8bi29" data-class="staff" class="staff"><path d="M7965 540 L10742 540" stroke-width="13"/><path d="M7965 720 L10742 720" stroke-width="13"/><path d="M7965 900 L10742 900" stroke-width="13"/><path d="M7965 1080 L10742 1080" stroke-width="13"/><path d="M7965 1260 L10742 1260" stroke-width="13"/><g data-id="a19zsozv" data-class="layer" class="layer"><g data-id="u1cb1loq" data-class="note" class="note"><g data-class="notehead" class="notehead"><use href="#E0A3-rj8atvs" transform="translate(8157, 810) scale(0.72, 0.72)"/></g><g data-id="f36yu9r" data-class="dots" class="dots"><ellipse cx="8473" cy="810" rx="36" ry="36" fill-opacity="1" stroke-opacity="1"/></g><g data-id="eyal392" data-class="stem" class="stem"><path d="M8166 835 L8166 1440" stroke-width="18"/></g></g><g data-id="v1evbylu" data-class="note" class="note"><g data-class="notehead" class="notehead"><use href="#E0A4-rj8atvs" transform="translate(9696, 810) scale(0.72, 0.72)"/></g><g data-id="g1w9fim7" data-class="stem" class="stem"><path d="M9705 838 L9705 1440" stroke-width="18"/><g data-id="h1ggsnm" data-class="flag" class="flag"><use href="#E241-rj8atvs" transform="translate(9696, 1440) scale(0.72, 0.72)"/></g></g></g><g data-id="wzm80bz" data-class="note" class="note"><g data-class="notehead" class="notehead"><use href="#E0A4-rj8atvs" transform="translate(10213, 810) scale(0.72, 0.72)"/></g><g data-id="ip3zpad" data-class="stem" class="stem"><path d="M10222 838 L10222 1440" stroke-width="18"/><g data-id="j1drm93q" data-class="flag" class="flag"><use href="#E241-rj8atvs" transform="translate(10213, 1440) scale(0.72, 0.72)"/></g></g></g></g></g><g data-id="d15b7tzx" data-class="tie" class="tie"><path d="M8428,698 C8728,545 9347,545 9651,698 C9338,593 8738,593 8428,698" stroke-linecap="round" stroke-linejoin="round" stroke-width="9"/></g><g data-id="s1qnvhj2" data-class="barLine" class="barLine"><path d="M10729 540 L10729 1260" stroke-width="27"/></g></g><g data-id="t1xwl3ru" data-class="measure" class="measure"><g data-id="b1hnwfw9" data-class="staff" class="staff"><path d="M10742 540 L14001 540" stroke-width="13"/><path d="M10742 720 L14001 720" stroke-width="13"/><path d="M10742 900 L14001 900" stroke-width="13"/><path d="M10742 1080 L14001 1080" stroke-width="13"/><path d="M10742 1260 L14001 1260" stroke-width="13"/><g data-id="c16fyxti" data-class="layer" class="layer"><g data-id="xcxz1ek" data-class="note" class="note"><g data-class="notehead" class="notehead"><use href="#E0A4-rj8atvs" transform="translate(10934, 810) scale(0.72, 0.72)"/></g><g data-id="lygsk90" data-class="dots" class="dots"><ellipse cx="11250" cy="810" rx="36" ry="36" fill-opacity="1" stroke-opacity="1"/></g><g data-id="klyqv1p" data-class="stem" class="stem"><path d="M10943 838 L10943 1440" stroke-width="18"/></g></g><g data-id="yly4i3q" data-class="note" class="note"><g data-class="notehead" class="notehead"><use href="#E0A4-rj8atvs" transform="translate(11944, 810) scale(0.72, 0.72)"/></g><g data-id="m1lqo7uk" data-class="stem" class="stem"><path d="M11953 838 L11953 1440" stroke-width="18"/><g data-id="n18meen0" data-class="flag" class="flag"><use href="#E241-rj8atvs" transform="translate(11944, 1440) scale(0.72, 0.72)"/></g></g></g><g data-id="zt247n9" data-class="note" class="note"><g data-class="notehead" class="notehead"><use href="#E0A4-rj8atvs" transform="translate(12461, 720) scale(0.72, 0.72)"/></g><g data-id="p1rwwqoy" data-class="dots" class="dots"><ellipse cx="12777" cy="630" rx="36" ry="36" fill-opacity="1" stroke-opacity="1"/></g><g data-id="od30v7y" data-class="stem" class="stem"><path d="M12470 748 L12470 1350" stroke-width="18"/></g></g><g data-id="a1hqp02" data-class="note" class="note"><g data-class="notehead" class="notehead"><use href="#E0A4-rj8atvs" transform="translate(13471, 630) scale(0.72, 0.72)"/></g><g data-id="q1h2cbjn" data-class="stem" class="stem"><path d="M13480 658 L13480 1260" stroke-width="18"/><g data-id="r1oc9lbw" data-class="flag" class="flag"><use href="#E241-rj8atvs" transform="translate(13471, 1260) scale(0.72, 0.72)"/></g></g></g></g></g><g data-id="b1wqgrmx" data-class="barLine" class="barLine"><path d="M13988 540 L13988 1260" stroke-width="27"/></g></g></g></g></svg></svg>