<svg viewBox="0 0 560 84" version="1.1" xmlns="http://www.w3.org/2000/svg" xmlns:xlink="http://www.w3.org/1999/xlink" overflow="visible" id="llc6dv0"><desc>Engraved by Verovio 5.6.0-85e7620</desc><defs><g id="E050-llc6dv0"><path transform="scale(1,-1)" d="M441 -245c-23 -4 -48 -6 -76 -6c-59 0 -102 7 -130 20c-88 42 -150 93 -187 154c-26 44 -43 103 -48 176c0 6 -1 13 -1 19c0 54 15 111 45 170c29 57 65 106 110 148s96 85 153 127c-3 16 -8 46 -13 92c-4 43 -5 73 -5 89c0 117 16 172 69 257c34 54 64 82 89 82 c21 0 43 -30 69 -92s39 -115 41 -159v-15c0 -109 -21 -162 -67 -241c-13 -20 -63 -90 -98 -118c-13 -9 -25 -19 -37 -29l31 -181c8 1 18 2 28 2c58 0 102 -12 133 -35c59 -43 92 -104 98 -184c1 -7 1 -15 1 -22c0 -123 -87 -209 -181 -248c8 -57 17 -110 25 -162 c5 -31 6 -58 6 -80c0 -30 -5 -53 -14 -70c-35 -64 -88 -99 -158 -103c-5 0 -11 -1 -16 -1c-37 0 -72 10 -108 27c-50 24 -77 59 -80 105v11c0 29 7 55 20 76c18 28 45 42 79 44h6c49 0 93 -42 97 -87v-9c0 -51 -34 -86 -105 -106c17 -24 51 -36 102 -36c62 0 116 43 140 85 c9 16 13 41 13 74c0 20 -1 42 -5 67c-8 53 -18 106 -26 159zM461 939c-95 0 -135 -175 -135 -286c0 -24 2 -48 5 -71c50 39 92 82 127 128c40 53 60 100 60 140v8c-4 53 -22 81 -55 81h-2zM406 119l54 -326c73 25 110 78 110 161c0 7 0 15 -1 23c-7 95 -57 142 -151 142h-12 zM382 117c-72 -2 -128 -47 -128 -120v-7c2 -46 43 -99 75 -115c-3 -2 -7 -5 -10 -10c-70 33 -116 88 -123 172v11c0 68 44 126 88 159c23 17 49 29 78 36l-29 170c-21 -13 -52 -37 -92 -73c-50 -44 -86 -84 -109 -119c-45 -69 -67 -130 -67 -182v-13c5 -68 35 -127 93 -176 s125 -73 203 -73c25 0 50 3 75 9c-19 111 -36 221 -54 331z"/></g><g id="E262-llc6dv0"><path transform="scale(1,-1)" d="M136 186v169h17v-164l44 14v-91l-44 -14v-165l44 12v-91l-44 -13v-155h-17v150l-76 -22v-155h-17v149l-43 -13v90l43 14v167l-43 -14v92l43 13v169h17v-163zM60 73v-167l76 22v168z"/></g><g id="E08A-llc6dv0"><path transform="scale(1,-1)" d="M340 179c-9 24 -56 41 -89 41c-46 0 -81 -28 -100 -58c-17 -28 -25 -78 -25 -150c0 -65 2 -111 8 -135c8 -31 18 -49 40 -67c20 -17 43 -25 70 -25c54 0 92 36 115 75c14 25 23 54 28 88h27c0 -63 -24 -105 -58 -141c-35 -38 -82 -56 -140 -56c-45 0 -83 13 -115 39 c-57 45 -101 130 -101 226c0 59 33 127 68 163c36 37 97 72 160 72c36 0 93 -21 121 -40c11 -8 23 -17 33 -30c19 -23 27 -48 27 -76c0 -51 -35 -88 -86 -88c-43 0 -76 27 -76 68c0 26 7 35 21 51c15 17 32 27 58 32c7 2 14 7 14 11z"/></g><g id="E4E4-llc6dv0"><path transform="scale(1,-1)" d="M0 10v105c0 9 1 10 10 10h280c9 0 10 -1 10 -10v-105c0 -9 -1 -10 -10 -10h-280c-9 0 -10 1 -10 10z"/></g><g id="E0A4-llc6dv0"><path transform="scale(1,-1)" d="M0 -39c0 68 73 172 200 172c66 0 114 -37 114 -95c0 -84 -106 -171 -218 -171c-64 0 -96 30 -96 94z"/></g><g id="E241-llc6dv0"><path transform="scale(1,-1)" d="M179 646c-4 8 -17 30 -18 33l-4 10c0 3 2 5 5 5s7 -2 13 -7c23 -33 46 -81 66 -132c22 -57 35 -125 35 -163c0 -104 -60 -183 -122 -241c-63 -59 -57 -53 -61 -56c-38 -34 -63 -95 -71 -95h-22v190c40 7 69 11 87 16c88 27 168 95 168 200c0 30 -12 89 -30 138 c-17 47 -31 73 -46 102z"/></g><g id="E4E6-llc6dv0"><path transform="scale(1,-1)" d="M0 123c7 34 33 56 69 60c29 -3 43 -9 53 -29c4 -8 7 -15 10 -22c0 -21 -1 -25 -11 -35c-5 -8 -18 -14 -40 -20l12 -3l15 -1c44 0 97 26 122 56c10 11 18 26 24 42c7 1 15 2 22 3l-140 -424h-36l111 330c-10 -6 -27 -12 -53 -16l-52 -8h-10l-20 1c-1 0 -8 3 -21 6 c-37 9 -55 28 -55 60z"/></g></defs><style type="text/css">#llc6dv0 g.page-margin {font-family:Times,serif;}#llc6dv0 g.ending, #llc6dv0 g.fing, #llc6dv0 g.reh, #llc6dv0 g.tempo {font-weight:bold;}#llc6dv0 g.dir, #llc6dv0 g.dynam, #llc6dv0 g.mNum {font-style:italic;}#llc6dv0 g.label {font-weight:normal;}#llc6dv0 path {stroke:currentColor}</style><svg class="definition-scale" color="black" viewBox="0 0 14000 2100"><g class="page-margin" transform="translate(0, 150)"><g data-id="e1yjkt7t" data-class="mdiv" class="mdiv pageMilestone"/><g data-id="f1yggezj" data-class="score" class="score pageMilestone"/><g data-id="u3x7y1t" data-class="system" class="system"><g data-id="h1y8n34g" data-class="section" class="section systemMilestone"/><g data-id="moghzeh" data-class="measure" class="measure"><g data-id="t4m7d49" data-class="staff" class="staff"><path d="M0 540 L4182 540" stroke-width="13"/><path d="M0 720 L4182 720" stroke-width="13"/><path d="M0 900 L4182 900" stroke-width="13"/><path d="M0 1080 L4182 1080" stroke-width="13"/><path d="M0 1260 L4182 1260" stroke-width="13"/><g data-id="qtchqop" data-class="clef" class="clef"><use href="#E050-llc6dv0" transform="translate(90, 1080) scale(0.72, 0.72)"/></g><g data-id="r1qm4gog" data-class="keySig" class="keySig"><g data-id="s1465dob" data-class="keyAccid" class="keyAccid"><use href="#E262-llc6dv0" transform="translate(735, 540) scale(0.72, 0.72)"/></g></g><g data-id="tapyjnb" data-class="meterSig" class="meterSig"><use href="#E08A-llc6dv0" transform="translate(1056, 900) scale(0.72, 0.72)"/></g><g data-id="uf3lo3a" data-class="layer" class="layer"><g data-id="f1e5tflt" data-class="rest" class="rest"><use href="#E4E4-llc6dv0" transform="translate(1634, 900) scale(0.72, 0.72)"/><g data-class="ledgerLines" class="ledgerLines"/></g><g data-id="i1fo58vg" data-class="note" class="note"><g data-class="notehead" class="notehead"><use href="#E0A4-llc6dv0" transform="translate(2753, 900) scale(0.72, 0.72)"/></g><g data-id="p1sus2bu" data-class="dots" class="dots"><ellipse cx="3069" cy="810" rx="36" ry="36" fill-opacity="1" stroke-opacity="1"/></g><g data-id="o10jf65g" data-class="stem" class="stem"><path d="M2762 928 L2762 1500" stroke-width="18"/></g></g><g data-id="j1lqbmdu" data-class="note" class="note"><g data-class="notehead" class="notehead"><use href="#E0A4-llc6dv0" transform="translate(3690, 900) scale(0.72, 0.72)"/></g><g data-id="qa1t8uj" data-class="stem" class="stem"><path d="M3699 928 L3699 1500" stroke-width="18"/><g data-id="r1pqqvgn" data-class="flag" class="flag"><use href="#E241-llc6dv0" transform="translate(3690, 1500) scale(0.72, 0.72)"/></g></g></g></g></g><g data-id="um3zqo6" data-class="barLine" class="barLine"><path d="M4169 540 L4169 1260" stroke-width="27"/></g></g><g data-id="v1vutn4g" data-class="measure" class="measure"><g data-id="v1tr4rvo" data-class="staff" class="staff"><path d="M4182 540 L7494 540" stroke-width="13"/><path d="M4182 720 L7494 720" stroke-width="13"/><path d="M4182 900 L7494 900" stroke-width="13"/><path d="M4182 1080 L7494 1080" stroke-width="13"/><path d="M4182 1260 L7494 1260" stroke-width="13"/><g data-id="w19kyb7z" data-class="layer" class="layer"><g data-id="k1xlgha8" data-class="note" class="note"><g data-class="notehead" class="notehead"><use href="#E0A4-llc6dv0" transform="translate(4372, 810) scale(0.72, 0.72)"/></g><g data-id="tno0bwm" data-class="dots" class="dots"><ellipse cx="4688" cy="810" rx="36" ry="36" fill-opacity="1" stroke-opacity="1"/></g><g data-id="sbxoe02" data-class="stem" class="stem"><path d="M4381 838 L4381 1440" stroke-width="18"/></g></g><g data-id="lf6l7as" data-class="note" class="note"><g data-class="notehead" class="notehead"><use href="#E0A4-llc6dv0" transform="translate(5310, 810) scale(0.72, 0.72)"/></g><g data-id="u11rladd" data-class="stem" class="stem"><path d="M5319 838 L5319 1440" stroke-width="18"/><g data-id="v1j5i3rh" data-class="flag" class="flag"><use href="#E241-llc6dv0" transform="translate(5310, 1440) scale(0.72, 0.72)"/></g></g></g><g data-id="m1y34txm" data-class="note" class="note"><g data-class="notehead" class="notehead"><use href="#E0A4-llc6dv0" transform="translate(5788, 810) scale(0.72, 0.72)"/></g><g data-id="w19454p0" data-class="stem" class="stem"><path d="M5797 838 L5797 1440" stroke-width="18"/><g data-id="x8cxo0k" data-class="flag" class="flag"><use href="#E241-llc6dv0" transform="translate(5788, 1440) scale(0.72, 0.72)"/></g></g></g><g data-id="n1nl0vn3" data-class="note" class="note"><g data-class="notehead" class="notehead"><use href="#E0A4-llc6dv0" transform="translate(6267, 630) scale(0.72, 0.72)"/></g><g data-id="yw32w85" data-class="stem" class="stem"><path d="M6276 658 L6276 1260" stroke-width="18"/></g></g><g data-id="o1qkg2ku" data-class="note" class="note"><g data-class="notehead" class="notehead"><use href="#E0A4-llc6dv0" transform="translate(7002, 810) scale(0.72, 0.72)"/></g><g data-id="ztbj2g2" data-class="stem" class="stem"><path d="M7011 838 L7011 1440" stroke-width="18"/><g data-id="a1qmfrvv" data-class="flag" class="flag"><use href="#E241-llc6dv0" transform="translate(7002, 1440) scale(0.72, 0.72)"/></g></g></g></g></g><g data-id="d1tjmyzh" data-class="barLine" class="barLine"><path d="M7481 540 L7481 1260" stroke-width="27"/></g></g><g data-id="e1890um" data-class="measure" class="measure"><g data-id="x1ec2ymx" data-class="staff" class="staff"><path d="M7494 540 L10859 540" stroke-width="13"/><path d="M7494 720 L10859 720" stroke-width="13"/><path d="M7494 900 L10859 900" stroke-width="13"/><path d="M7494 1080 L10859 1080" stroke-width="13"/><path d="M7494 1260 L10859 1260" stroke-width="13"/><g data-id="yjxn526" data-class="layer" class="layer"><g data-id="p1tse23s" data-class="note" class="note"><g data-class="notehead" class="notehead"><use href="#E0A4-llc6dv0" transform="translate(7684, 810) scale(0.72, 0.72)"/></g><g data-id="b1p6lcxl" data-class="stem" class="stem"><path d="M7693 838 L7693 1440" stroke-width="18"/></g></g><g data-id="q1fckk1o" data-class="note" class="note"><g data-class="notehead" class="notehead"><use href="#E0A4-llc6dv0" transform="translate(8419, 900) scale(0.72, 0.72)"/></g><g data-id="c1s36hum" data-class="stem" class="stem"><path d="M8428 928 L8428 1500" stroke-width="18"/><g data-id="d1nab9xc" data-class="flag" class="flag"><use href="#E241-llc6dv0" transform="translate(8419, 1500) scale(0.72, 0.72)"/></g></g></g><g data-id="gbe7dfj" data-class="rest" class="rest"><use href="#E4E6-llc6dv0" transform="translate(8898, 900) scale(0.72, 0.72)"/></g><g data-id="r2pwtdl" data-class="note" class="note"><g data-class="notehead" class="notehead"><use href="#E0A4-llc6dv0" transform="translate(9377, 450) scale(0.72, 0.72)"/></g><g data-id="ew96hes" data-class="stem" class="stem"><path d="M9386 478 L9386 1080" stroke-width="18"/></g></g><g data-id="s1f5zb44" data-class="note" class="note"><g data-class="notehead" class="notehead"><use href="#E0A4-llc6dv0" transform="translate(10111, 720) scale(0.72, 0.72)"/></g><g data-id="f15uwbv5" data-class="stem" class="stem"><path d="M10120 748 L10120 1350" stroke-width="18"/></g><g data-id="b2vf87k" data-class="accid" class="accid"><use href="#E262-llc6dv0" transform="translate(9925, 720) scale(0.72, 0.72)"/></g></g></g></g><g data-id="mjt14pp" data-class="barLine" class="barLine"><path d="M10846 540 L10846 1260" stroke-width="27"/></g></g><g data-id="nlwwp9n" data-class="measure" class="measure"><g data-id="zxgvg7q" data-class="staff" class="staff"><path d="M10859 540 L14002 540" stroke-width="13"/><path d="M10859 720 L14002 720" stroke-width="13"/><path d="M10859 900 L14002 900" stroke-width="13"/><path d="M10859 1080 L14002 1080" stroke-width="13"/><path d="M10859 1260 L14002 1260" stroke-width="13"/><g data-id="ai1o7pn" data-class="layer" class="layer"><g data-id="tc9dj8a" data-class="note" class="note"><g data-class="notehead" class="notehead"><use href="#E0A4-llc6dv0" transform="translate(11049, 630) scale(0.72, 0.72)"/></g><g data-id="g1ut7sny" data-class="stem" class="stem"><path d="M11058 658 L11058 1260" stroke-width="18"/></g></g><g data-id="ulqxy7" data-class="note" class="note"><g data-class="notehead" class="notehead"><use href="#E0A4-llc6dv0" transform="translate(11784, 810) scale(0.72, 0.72)"/></g><g data-id="h1obd2dm" data-class="stem" class="stem"><path d="M11793 838 L11793 1440" stroke-width="18"/></g></g><g data-id="v1j67as2" data-class="note" class="note"><g data-class="notehead" class="notehead"><use href="#E0A4-llc6dv0" transform="translate(12519, 900) scale(0.72, 0.72)"/></g><g data-id="i17cc6e9" data-class="stem" class="stem"><path d="M12528 928 L12528 1500" stroke-width="18"/></g></g><g data-id="w1wq52i5" data-class="note" class="note"><g data-class="notehead" class="notehead"><use href="#E0A4-llc6dv0" transform="translate(13254, 1170) scale(0.72, 0.72)"/></g><g data-id="jp8zy2o" data-class="stem" class="stem"><path d="M13471 1142 L13471 540" stroke-width="18"/></g><g data-id="c1v5fab7" data-class="accid" class="accid"/></g></g></g><g data-id="vprz1io" data-class="barLine" class="barLine"><path d="M13989 540 L13989 1260" stroke-width="27"/></g></g></g></g></svg></svg>