<svg viewBox="0 0 560 84" version="1.1" xmlns="http://www.w3.org/2000/svg" xmlns:xlink="http://www.w3.org/1999/xlink" overflow="visible" id="y6ira29"><desc>Engraved by Verovio 5.6.0-85e7620</desc><defs><g id="E050-y6ira29"><path transform="scale(1,-1)" d="M441 -245c-23 -4 -48 -6 -76 -6c-59 0 -102 7 -130 20c-88 42 -150 93 -187 154c-26 44 -43 103 -48 176c0 6 -1 13 -1 19c0 54 15 111 45 170c29 57 65 106 110 148s96 85 153 127c-3 16 -8 46 -13 92c-4 43 -5 73 -5 89c0 117 16 172 69 257c34 54 64 82 89 82 c21 0 43 -30 69 -92s39 -115 41 -159v-15c0 -109 -21 -162 -67 -241c-13 -20 -63 -90 -98 -118c-13 -9 -25 -19 -37 -29l31 -181c8 1 18 2 28 2c58 0 102 -12 133 -35c59 -43 92 -104 98 -184c1 -7 1 -15 1 -22c0 -123 -87 -209 -181 -248c8 -57 17 -110 25 -162 c5 -31 6 -58 6 -80c0 -30 -5 -53 -14 -70c-35 -64 -88 -99 -158 -103c-5 0 -11 -1 -16 -1c-37 0 -72 10 -108 27c-50 24 -77 59 -80 105v11c0 29 7 55 20 76c18 28 45 42 79 44h6c49 0 93 -42 97 -87v-9c0 -51 -34 -86 -105 -106c17 -24 51 -36 102 -36c62 0 116 43 140 85 c9 16 13 41 13 74c0 20 -1 42 -5 67c-8 53 -18 106 -26 159zM461 939c-95 0 -135 -175 -135 -286c0 -24 2 -48 5 -71c50 39 92 82 127 128c40 53 60 100 60 140v8c-4 53 -22 81 -55 81h-2zM406 119l54 -326c73 25 110 78 110 161c0 7 0 15 -1 23c-7 95 -57 142 -151 142h-12 zM382 117c-72 -2 -128 -47 -128 -120v-7c2 -46 43 -99 75 -115c-3 -2 -7 -5 -10 -10c-70 33 -116 88 -123 172v11c0 68 44 126 88 159c23 17 49 29 78 36l-29 170c-21 -13 -52 -37 -92 -73c-50 -44 -86 -84 -109 -119c-45 -69 -67 -130 -67 -182v-13c5 -68 35 -127 93 -176 s125 -73 203 -73c25 0 50 3 75 9c-19 111 -36 221 -54 331z"/></g><g id="E262-y6ira29"><path transform="scale(1,-1)" d="M136 186v169h17v-164l44 14v-91l-44 -14v-165l44 12v-91l-44 -13v-155h-17v150l-76 -22v-155h-17v149l-43 -13v90l43 14v167l-43 -14v92l43 13v169h17v-163zM60 73v-167l76 22v168z"/></g><g id="E083-y6ira29"><path transform="scale(1,-1)" d="M208 250c97 0 177 -52 177 -116c0 -69 -40 -111 -118 -125c56 -5 125 -44 125 -116c0 -31 -10 -57 -31 -78c-19 -21 -45 -38 -78 -49l-50 -11c-15 -3 -36 -7 -55 -7c-50 0 -86 16 -113 38c-16 10 -23 18 -34 34c-7 13 -11 25 -11 38c0 43 27 83 68 83l3 -2 c61 0 75 -42 75 -70c0 -19 -24 -42 -26 -57c7 -17 20 -25 37 -25c44 0 94 29 94 78c0 75 -34 125 -138 125v36c84 0 131 22 131 98c0 54 -37 88 -87 88c-26 0 -43 -7 -51 -22c15 -22 44 -16 44 -70c0 -37 -37 -62 -71 -62c-22 0 -69 15 -69 76c0 79 101 116 178 116z"/></g><g id="E088-y6ira29"><path transform="scale(1,-1)" d="M195 -214c76 0 88 58 90 68c0 34 -35 60 -57 73l-52 29c-21 10 -32 17 -34 20c-39 -33 -58 -54 -62 -92c5 -23 23 -98 115 -98zM301 135c0 61 -72 76 -113 76c-40 0 -77 -17 -77 -51c3 -21 15 -38 26 -50c17 -15 33 -26 48 -34l65 -28c34 27 51 56 51 87zM176 -250 c-57 0 -166 26 -166 132c0 47 30 86 89 116c-33 15 -79 60 -79 119c0 79 85 132 178 132h18c5 0 21 1 28 -1c25 0 126 -30 126 -110c0 -37 -23 -76 -69 -116c43 -25 83 -71 83 -119c0 -101 -118 -153 -208 -153z"/></g><g id="E4E7-y6ira29"><path transform="scale(1,-1)" d="M133 -111c0 -33 -21 -50 -52 -55c10 -3 18 -4 25 -4c40 0 69 24 90 47l66 197c-36 -18 -64 -25 -112 -25c-23 0 -38 3 -45 8c-37 7 -55 27 -55 59c8 35 30 54 68 58c45 -6 49 -13 64 -48c0 -3 1 -5 1 -7c0 -27 -25 -46 -52 -49c6 -4 15 -6 26 -6c32 2 62 14 88 29 c32 19 44 36 59 71l7 1l10 2h4c-72 -220 -143 -439 -215 -659h-37l108 324c-20 -13 -51 -20 -82 -20c-21 0 -35 4 -43 10c-37 6 -55 26 -55 58c8 35 31 56 68 60c43 -8 48 -13 64 -51z"/></g><g id="E0A4-y6ira29"><path transform="scale(1,-1)" d="M0 -39c0 68 73 172 200 172c66 0 114 -37 114 -95c0 -84 -106 -171 -218 -171c-64 0 -96 30 -96 94z"/></g><g id="E242-y6ira29"><path transform="scale(1,-1)" d="M206 -748c32 48 49 100 49 149c0 89 -55 168 -168 203c-18 5 -47 9 -87 16v190v190h22c8 0 33 -61 71 -95c4 -3 -2 3 61 -56c62 -58 122 -137 122 -241c0 -32 -7 -65 -17 -96c11 -29 17 -60 17 -94c0 -71 -32 -148 -67 -190c-6 -5 -10 -7 -13 -7s-5 2 -5 5l4 10 c1 3 6 8 11 16zM248 -463c4 18 7 38 7 57c0 105 -80 173 -168 200c-11 3 -27 6 -47 9c9 -17 23 -61 53 -88c4 -3 -2 3 61 -56c36 -33 71 -74 94 -122z"/></g></defs><style type="text/css">#y6ira29 g.page-margin {font-family:Times,serif;}#y6ira29 g.ending, #y6ira29 g.fing, #y6ira29 g.reh, #y6ira29 g.tempo {font-weight:bold;}#y6ira29 g.dir, #y6ira29 g.dynam, #y6ira29 g.mNum {font-style:italic;}#y6ira29 g.label {font-weight:normal;}#y6ira29 path {stroke:currentColor}</style><svg class="definition-scale" color="black" viewBox="0 0 14000 2100"><g class="page-margin" transform="translate(0, 150)"><g data-id="t1lygru5" data-class="mdiv" class="mdiv pageMilestone"/><g data-id="u1jxg9ew" data-class="score" class="score pageMilestone"/><g data-id="y8ov5n7" data-class="system" class="system"><g data-id="w1gi4rgu" data-class="section" class="section systemMilestone"/><g data-id="zjmhnaj" data-class="measure" class="measure"><g data-id="idryy1s" data-class="staff" class="staff"><path d="M0 540 L3840 540" stroke-width="13"/><path d="M0 720 L3840 720" stroke-width="13"/><path d="M0 900 L3840 900" stroke-width="13"/><path d="M0 1080 L3840 1080" stroke-width="13"/><path d="M0 1260 L3840 1260" stroke-width="13"/><g data-id="c15ewmtj" data-class="clef" class="clef"><use href="#E050-y6ira29" transform="translate(90, 1080) scale(0.72, 0.72)"/></g><g data-id="d1ftx3i5" data-class="keySig" class="keySig"><g data-id="e1609fdr" data-class="keyAccid" class="keyAccid"><use href="#E262-y6ira29" transform="translate(735, 540) scale(0.72, 0.72)"/></g><g data-id="fua7h29" data-class="keyAccid" class="keyAccid"><use href="#E262-y6ira29" transform="translate(913, 810) scale(0.72, 0.72)"/></g><g data-id="g8gtyix" data-class="keyAccid" class="keyAccid"><use href="#E262-y6ira29" transform="translate(1091, 450) scale(0.72, 0.72)"/></g><g data-id="h1kjpee4" data-class="keyAccid" class="keyAccid"><use href="#E262-y6ira29" transform="translate(1269, 720) scale(0.72, 0.72)"/></g></g><g data-id="ixcm5ad" data-class="meterSig" class="meterSig"><use href="#E083-y6ira29" transform="translate(1580, 720) scale(0.72, 0.72)"/><use href="#E088-y6ira29" transform="translate(1583, 1080) scale(0.72, 0.72)"/></g><g data-class="ledgerLines" class="ledgerLines below"><g data-class="lineDash" class="lineDash" data-related="#d1ir3vpj"><path d="M2383 1440 L2705 1440" stroke-width="22"/></g><g data-class="lineDash" class="lineDash" data-related="#d1ir3vpj"><path d="M2383 1620 L2705 1620" stroke-width="22"/></g></g><g data-id="j15d7088" data-class="layer" class="layer"><g data-id="a45f5cz" data-class="rest" class="rest"><use href="#E4E7-y6ira29" transform="translate(2131, 900) scale(0.72, 0.72)"/></g><g data-id="d1ir3vpj" data-class="note" class="note"><g data-class="notehead" class="notehead"><use href="#E0A4-y6ira29" transform="translate(2431, 1710) scale(0.72, 0.72)"/></g><g data-id="c6h2n2d" data-class="stem" class="stem"><path d="M2648 1682 L2648 810" stroke-width="18"/><g data-id="d168sbt4" data-class="flag" class="flag"><use href="#E242-y6ira29" transform="translate(2639, 810) scale(0.72, 0.72)"/></g></g><g data-id="p1tezbig" data-class="accid" class="accid"/></g><g data-id="m13mxmia" data-class="beam" class="beam"><polygon stroke-opacity="1" fill-opacity="1" points="3135,495 3603,495 3603,585 3135,585"/><g data-id="e2x1n0h" data-class="note" class="note"><g data-class="notehead" class="notehead"><use href="#E0A4-y6ira29" transform="translate(2927, 1080) scale(0.72, 0.72)"/></g><g data-id="e180kdsl" data-class="stem" class="stem"><path d="M3144 1052 L3144 513" stroke-width="18"/></g><g data-id="q1tmxeiz" data-class="accid" class="accid"/></g><g data-id="ff6zfin" data-class="note" class="note"><g data-class="notehead" class="notehead"><use href="#E0A4-y6ira29" transform="translate(3377, 1080) scale(0.72, 0.72)"/></g><g data-id="f1i5u3qm" data-class="stem" class="stem"><path d="M3594 1052 L3594 513" stroke-width="18"/></g><g data-id="r1q6wd6e" data-class="accid" class="accid"/></g></g></g></g><g data-id="hp6r0wl" data-class="barLine" class="barLine"><path d="M3827 540 L3827 1260" stroke-width="27"/></g></g><g data-id="i1ar3jju" data-class="measure" class="measure"><g data-id="k1khv985" data-class="staff" class="staff"><path d="M3840 540 L5729 540" stroke-width="13"/><path d="M3840 720 L5729 720" stroke-width="13"/><path d="M3840 900 L5729 900" stroke-width="13"/><path d="M3840 1080 L5729 1080" stroke-width="13"/><path d="M3840 1260 L5729 1260" stroke-width="13"/><g data-class="ledgerLines" class="ledgerLines below"><g data-class="lineDash" class="lineDash" data-related="#g13yye2c"><path d="M4272 1440 L4594 1440" stroke-width="22"/></g></g><g data-id="l2qa9wf" data-class="layer" class="layer"><g data-id="b1xni8rz" data-class="rest" class="rest"><use href="#E4E7-y6ira29" transform="translate(4020, 900) scale(0.72, 0.72)"/></g><g data-id="g13yye2c" data-class="note" class="note"><g data-class="notehead" class="notehead"><use href="#E0A4-y6ira29" transform="translate(4320, 1530) scale(0.72, 0.72)"/></g><g data-id="g3y462y" data-class="stem" class="stem"><path d="M4537 1502 L4537 810" stroke-width="18"/><g data-id="h1dfc7qf" data-class="flag" class="flag"><use href="#E242-y6ira29" transform="translate(4528, 810) scale(0.72, 0.72)"/></g></g></g><g data-id="nykqzkj" data-class="beam" class="beam"><polygon stroke-opacity="1" fill-opacity="1" points="5024,675 5492,675 5492,765 5024,765"/><g data-id="h1g5mqrg" data-class="note" class="note"><g data-class="notehead" class="notehead"><use href="#E0A4-y6ira29" transform="translate(4816, 1260) scale(0.72, 0.72)"/></g><g data-id="ir9mzyj" data-class="stem" class="stem"><path d="M5033 1232 L5033 693" stroke-width="18"/></g></g><g data-id="i9pqzta" data-class="note" class="note"><g data-class="notehead" class="notehead"><use href="#E0A4-y6ira29" transform="translate(5266, 1260) scale(0.72, 0.72)"/></g><g data-id="j1yqazg3" data-class="stem" class="stem"><path d="M5483 1232 L5483 693" stroke-width="18"/></g></g></g></g></g><g data-id="qrarlpn" data-class="barLine" class="barLine"><path d="M5716 540 L5716 1260" stroke-width="27"/></g></g><g data-id="r1gk6zv9" data-class="measure" class="measure"><g data-id="m6whli" data-class="staff" class="staff"><path d="M5729 540 L7618 540" stroke-width="13"/><path d="M5729 720 L7618 720" stroke-width="13"/><path d="M5729 900 L7618 900" stroke-width="13"/><path d="M5729 1080 L7618 1080" stroke-width="13"/><path d="M5729 1260 L7618 1260" stroke-width="13"/><g data-class="ledgerLines" class="ledgerLines below"><g data-class="lineDash" class="lineDash" data-related="#j1nej1oo"><path d="M6161 1440 L6483 1440" stroke-width="22"/></g></g><g data-id="nlrnfmy" data-class="layer" class="layer"><g data-id="cg3pq4a" data-class="rest" class="rest"><use href="#E4E7-y6ira29" transform="translate(5909, 900) scale(0.72, 0.72)"/></g><g data-id="j1nej1oo" data-class="note" class="note"><g data-class="notehead" class="notehead"><use href="#E0A4-y6ira29" transform="translate(6209, 1530) scale(0.72, 0.72)"/></g><g data-id="k32y8nw" data-class="stem" class="stem"><path d="M6426 1502 L6426 810" stroke-width="18"/><g data-id="l19yt9he" data-class="flag" class="flag"><use href="#E242-y6ira29" transform="translate(6417, 810) scale(0.72, 0.72)"/></g></g></g><g data-id="o1ezfno1" data-class="beam" class="beam"><polygon stroke-opacity="1" fill-opacity="1" points="6913,360 7381,360 7381,450 6913,450"/><g data-id="k1binka8" data-class="note" class="note"><g data-class="notehead" class="notehead"><use href="#E0A4-y6ira29" transform="translate(6705, 990) scale(0.72, 0.72)"/></g><g data-id="mtltist" data-class="stem" class="stem"><path d="M6922 962 L6922 378" stroke-width="18"/></g></g><g data-id="leptkf9" data-class="note" class="note"><g data-class="notehead" class="notehead"><use href="#E0A4-y6ira29" transform="translate(7155, 990) scale(0.72, 0.72)"/></g><g data-id="nebwrd5" data-class="stem" class="stem"><path d="M7372 962 L7372 378" stroke-width="18"/></g></g></g></g></g><g data-id="z1iassci" data-class="barLine" class="barLine"><path d="M7605 540 L7605 1260" stroke-width="27"/></g></g><g data-id="v14ezthi" data-class="systemMilestoneEnd" class="systemMilestoneEnd w1gi4rgu"/></g><g data-id="wzfk8nn" data-class="pageMilestoneEnd" class="pageMilestoneEnd u1jxg9ew"/><g data-id="x1obdpg3" data-class="pageMilestoneEnd" class="pageMilestoneEnd t1lygru5"/></g></svg></svg>