<svg viewBox="0 0 560 84" version="1.1" xmlns="http://www.w3.org/2000/svg" xmlns:xlink="http://www.w3.org/1999/xlink" overflow="visible" id="n1eeevv9"><desc>Engraved by Verovio 5.6.0-85e7620</desc><defs><g id="E050-n1eeevv9"><path transform="scale(1,-1)" d="M441 -245c-23 -4 -48 -6 -76 -6c-59 0 -102 7 -130 20c-88 42 -150 93 -187 154c-26 44 -43 103 -48 176c0 6 -1 13 -1 19c0 54 15 111 45 170c29 57 65 106 110 148s96 85 153 127c-3 16 -8 46 -13 92c-4 43 -5 73 -5 89c0 117 16 172 69 257c34 54 64 82 89 82 c21 0 43 -30 69 -92s39 -115 41 -159v-15c0 -109 -21 -162 -67 -241c-13 -20 -63 -90 -98 -118c-13 -9 -25 -19 -37 -29l31 -181c8 1 18 2 28 2c58 0 102 -12 133 -35c59 -43 92 -104 98 -184c1 -7 1 -15 1 -22c0 -123 -87 -209 -181 -248c8 -57 17 -110 25 -162 c5 -31 6 -58 6 -80c0 -30 -5 -53 -14 -70c-35 -64 -88 -99 -158 -103c-5 0 -11 -1 -16 -1c-37 0 -72 10 -108 27c-50 24 -77 59 -80 105v11c0 29 7 55 20 76c18 28 45 42 79 44h6c49 0 93 -42 97 -87v-9c0 -51 -34 -86 -105 -106c17 -24 51 -36 102 -36c62 0 116 43 140 85 c9 16 13 41 13 74c0 20 -1 42 -5 67c-8 53 -18 106 -26 159zM461 939c-95 0 -135 -175 -135 -286c0 -24 2 -48 5 -71c50 39 92 82 127 128c40 53 60 100 60 140v8c-4 53 -22 81 -55 81h-2zM406 119l54 -326c73 25 110 78 110 161c0 7 0 15 -1 23c-7 95 -57 142 -151 142h-12 zM382 117c-72 -2 -128 -47 -128 -120v-7c2 -46 43 -99 75 -115c-3 -2 -7 -5 -10 -10c-70 33 -116 88 -123 172v11c0 68 44 126 88 159c23 17 49 29 78 36l-29 170c-21 -13 -52 -37 -92 -73c-50 -44 -86 -84 -109 -119c-45 -69 -67 -130 -67 -182v-13c5 -68 35 -127 93 -176 s125 -73 203 -73c25 0 50 3 75 9c-19 111 -36 221 -54 331z"/></g><g id="E262-n1eeevv9"><path transform="scale(1,-1)" d="M136 186v169h17v-164l44 14v-91l-44 -14v-165l44 12v-91l-44 -13v-155h-17v150l-76 -22v-155h-17v149l-43 -13v90l43 14v167l-43 -14v92l43 13v169h17v-163zM60 73v-167l76 22v168z"/></g><g id="E082-n1eeevv9"><path transform="scale(1,-1)" d="M124 -185c-18 0 -55 -14 -65 -65h-36l-3 30c0 25 6 45 18 63c11 19 22 30 39 43l121 82l37 29c15 11 27 29 38 54c12 24 18 47 18 70c0 40 -19 88 -94 88c-25 0 -32 0 -50 -8c-14 -5 -23 -12 -26 -22c3 -9 7 -15 10 -18l24 -17c12 -7 17 -11 27 -21c5 -7 7 -16 7 -27 c0 -12 0 -57 -79 -74c-30 0 -76 26 -76 94c0 66 81 135 197 135c72 0 181 -32 181 -150c0 -53 -32 -95 -113 -133l-91 -41c-26 -11 -45 -23 -57 -37l49 7c84 0 115 -41 148 -41c20 0 33 20 39 61h35c0 -152 -68 -168 -114 -168c-17 0 -65 0 -79 7h10l-28 17 c-49 37 -69 40 -87 42z"/></g><g id="E084-n1eeevv9"><path transform="scale(1,-1)" d="M20 -78c84 97 114 180 134 329h170c-13 -32 -82 -132 -99 -151l-84 -97c-33 -36 -59 -63 -80 -81h162v102l127 123v-225h57v-39h-57v-34c0 -43 19 -65 57 -65v-34h-244v36c48 0 60 26 60 70v27h-203v39z"/></g><g id="E0A4-n1eeevv9"><path transform="scale(1,-1)" d="M0 -39c0 68 73 172 200 172c66 0 114 -37 114 -95c0 -84 -106 -171 -218 -171c-64 0 -96 30 -96 94z"/></g><g id="E241-n1eeevv9"><path transform="scale(1,-1)" d="M179 646c-4 8 -17 30 -18 33l-4 10c0 3 2 5 5 5s7 -2 13 -7c23 -33 46 -81 66 -132c22 -57 35 -125 35 -163c0 -104 -60 -183 -122 -241c-63 -59 -57 -53 -61 -56c-38 -34 -63 -95 -71 -95h-22v190c40 7 69 11 87 16c88 27 168 95 168 200c0 30 -12 89 -30 138 c-17 47 -31 73 -46 102z"/></g></defs><style type="text/css">#n1eeevv9 g.page-margin {font-family:Times,serif;}#n1eeevv9 g.ending, #n1eeevv9 g.fing, #n1eeevv9 g.reh, #n1eeevv9 g.tempo {font-weight:bold;}#n1eeevv9 g.dir, #n1eeevv9 g.dynam, #n1eeevv9 g.mNum {font-style:italic;}#n1eeevv9 g.label {font-weight:normal;}#n1eeevv9 path {stroke:currentColor}</style><svg class="definition-scale" color="black" viewBox="0 0 14000 2100"><g class="page-margin" transform="translate(0, 150)"><g data-id="ms4ss20" data-class="mdiv" class="mdiv pageMilestone"/><g data-id="nmg7nmf" data-class="score" class="score pageMilestone"/><g data-id="psxv2w" data-class="system" class="system"><g data-id="pezsia8" data-class="section" class="section systemMilestone"/><g data-id="o1xot9d1" data-class="measure" class="measure"><g data-id="b4h0bgz" data-class="staff" class="staff"><path d="M0 540 L4681 540" stroke-width="13"/><path d="M0 720 L4681 720" stroke-width="13"/><path d="M0 900 L4681 900" stroke-width="13"/><path d="M0 1080 L4681 1080" stroke-width="13"/><path d="M0 1260 L4681 1260" stroke-width="13"/><g data-id="u4p50dz" data-class="clef" class="clef"><use href="#E050-n1eeevv9" transform="translate(90, 1080) scale(0.72, 0.72)"/></g><g data-id="vw8c1wy" data-class="keySig" class="keySig"><g data-id="w1fnuqsc" data-class="keyAccid" class="keyAccid"><use href="#E262-n1eeevv9" transform="translate(735, 540) scale(0.72, 0.72)"/></g><g data-id="x1opuzul" data-class="keyAccid" class="keyAccid"><use href="#E262-n1eeevv9" transform="translate(913, 810) scale(0.72, 0.72)"/></g><g data-id="ybvtmdf" data-class="keyAccid" class="keyAccid"><use href="#E262-n1eeevv9" transform="translate(1091, 450) scale(0.72, 0.72)"/></g></g><g data-id="z1ase2da" data-class="meterSig" class="meterSig"><use href="#E082-n1eeevv9" transform="translate(1398, 720) scale(0.72, 0.72)"/><use href="#E084-n1eeevv9" transform="translate(1403, 1080) scale(0.72, 0.72)"/></g><g data-id="cqyt52y" data-class="layer" class="layer"><g data-id="hnjimde" data-class="note" class="note"><g data-class="notehead" class="notehead"><use href="#E0A4-n1eeevv9" transform="translate(2013, 810) scale(0.72, 0.72)"/></g><g data-id="y78inxu" data-class="stem" class="stem"><path d="M2022 838 L2022 1440" stroke-width="18"/></g><g data-id="hzx7e1q" data-class="accid" class="accid"/></g><g data-id="c19ud13d" data-class="beam" class="beam"><polygon stroke-opacity="1" fill-opacity="1" points="2864,1485 4279,1440 4279,1350 2864,1395"/><polygon stroke-opacity="1" fill-opacity="1" points="2864,1350 3262,1337 3262,1247 2864,1260"/><polygon stroke-opacity="1" fill-opacity="1" points="3262,1337 3881,1317 3881,1227 3262,1247"/><polygon stroke-opacity="1" fill-opacity="1" points="3881,1317 4279,1305 4279,1215 3881,1227"/><g data-id="i1ek42ka" data-class="note" class="note"><g data-class="notehead" class="notehead"><use href="#E0A4-n1eeevv9" transform="translate(2864, 810) scale(0.72, 0.72)"/></g><g data-id="zvrvyqs" data-class="stem" class="stem"><path d="M2873 838 L2873 1467" stroke-width="18"/></g><g data-id="i103xf5x" data-class="accid" class="accid"/></g><g data-id="jact36r" data-class="note" class="note"><g data-class="notehead" class="notehead"><use href="#E0A4-n1eeevv9" transform="translate(3253, 720) scale(0.72, 0.72)"/></g><g data-id="ary4s0t" data-class="stem" class="stem"><path d="M3262 748 L3262 1454" stroke-width="18"/></g></g><g data-id="k1yo20go" data-class="note" class="note"><g data-class="notehead" class="notehead"><use href="#E0A4-n1eeevv9" transform="translate(3872, 720) scale(0.72, 0.72)"/></g><g data-id="b1gj0l5b" data-class="stem" class="stem"><path d="M3881 748 L3881 1434" stroke-width="18"/></g><g data-id="zx7sz0k" data-class="accid" class="accid"><use href="#E262-n1eeevv9" transform="translate(3686, 720) scale(0.72, 0.72)"/></g></g><g data-id="lvkv748" data-class="note" class="note"><g data-class="notehead" class="notehead"><use href="#E0A4-n1eeevv9" transform="translate(4261, 630) scale(0.72, 0.72)"/></g><g data-id="c16pujvx" data-class="stem" class="stem"><path d="M4270 658 L4270 1422" stroke-width="18"/></g></g></g></g></g><g data-id="f1a0arkk" data-class="tie" class="tie"><path d="M2284,765 C2407,611 2692,611 2819,765 C2673,660 2426,660 2284,765" stroke-linecap="round" stroke-linejoin="round" stroke-width="9"/></g><g data-id="w183vy15" data-class="barLine" class="barLine"><path d="M4668 540 L4668 1260" stroke-width="27"/></g></g><g data-id="x1nfj7x5" data-class="measure" class="measure"><g data-id="d15of3oa" data-class="staff" class="staff"><path d="M4681 540 L7135 540" stroke-width="13"/><path d="M4681 720 L7135 720" stroke-width="13"/><path d="M4681 900 L7135 900" stroke-width="13"/><path d="M4681 1080 L7135 1080" stroke-width="13"/><path d="M4681 1260 L7135 1260" stroke-width="13"/><g data-class="ledgerLines" class="ledgerLines above"><g data-class="lineDash" class="lineDash" data-related="#m1o6eebg"><path d="M4855 360 L5177 360" stroke-width="22"/></g></g><g data-id="ex05cm" data-class="layer" class="layer"><g data-id="dcfo6nf" data-class="beam" class="beam"><polygon stroke-opacity="1" fill-opacity="1" points="4903,1080 6585,1440 6585,1350 4903,990"/><g data-id="m1o6eebg" data-class="note" class="note"><g data-class="notehead" class="notehead"><use href="#E0A4-n1eeevv9" transform="translate(4903, 360) scale(0.72, 0.72)"/></g><g data-id="dlr8xja" data-class="stem" class="stem"><path d="M4912 388 L4912 1062" stroke-width="18"/></g></g><g data-id="n1e3i2h1" data-class="note" class="note"><g data-class="notehead" class="notehead"><use href="#E0A4-n1eeevv9" transform="translate(5458, 630) scale(0.72, 0.72)"/></g><g data-id="e1mh910b" data-class="stem" class="stem"><path d="M5467 658 L5467 1182" stroke-width="18"/></g></g><g data-id="owlroyl" data-class="note" class="note"><g data-class="notehead" class="notehead"><use href="#E0A4-n1eeevv9" transform="translate(6012, 720) scale(0.72, 0.72)"/></g><g data-id="f1pkcuyf" data-class="stem" class="stem"><path d="M6021 748 L6021 1301" stroke-width="18"/></g></g><g data-id="pljtpos" data-class="note" class="note"><g data-class="notehead" class="notehead"><use href="#E0A4-n1eeevv9" transform="translate(6567, 810) scale(0.72, 0.72)"/></g><g data-id="gnq2k65" data-class="stem" class="stem"><path d="M6576 838 L6576 1422" stroke-width="18"/></g><g data-id="j1e5di46" data-class="accid" class="accid"/></g></g></g></g><g data-id="f1tq0ptf" data-class="barLine" class="barLine"><path d="M7122 540 L7122 1260" stroke-width="27"/></g></g><g data-id="g1p6t69p" data-class="measure" class="measure"><g data-id="frgr70r" data-class="staff" class="staff"><path d="M7135 540 L9009 540" stroke-width="13"/><path d="M7135 720 L9009 720" stroke-width="13"/><path d="M7135 900 L9009 900" stroke-width="13"/><path d="M7135 1080 L9009 1080" stroke-width="13"/><path d="M7135 1260 L9009 1260" stroke-width="13"/><g data-id="gee0v07" data-class="layer" class="layer"><g data-id="qtlcax3" data-class="note" class="note"><g data-class="notehead" class="notehead"><use href="#E0A4-n1eeevv9" transform="translate(7357, 900) scale(0.72, 0.72)"/></g><g data-id="i13g3365" data-class="dots" class="dots"><ellipse cx="7673" cy="810" rx="36" ry="36" fill-opacity="1" stroke-opacity="1"/></g><g data-id="hier9s0" data-class="stem" class="stem"><path d="M7366 928 L7366 1500" stroke-width="18"/></g></g><g data-id="rcofuo0" data-class="note" class="note"><g data-class="notehead" class="notehead"><use href="#E0A4-n1eeevv9" transform="translate(8442, 720) scale(0.72, 0.72)"/></g><g data-id="jd5sr6m" data-class="stem" class="stem"><path d="M8451 748 L8451 1350" stroke-width="18"/><g data-id="k1cpecn2" data-class="flag" class="flag"><use href="#E241-n1eeevv9" transform="translate(8442, 1350) scale(0.72, 0.72)"/></g></g></g></g></g><g data-id="o6uiocf" data-class="barLine" class="barLine"><path d="M8996 540 L8996 1260" stroke-width="27"/></g></g><g data-id="p8gdc2a" data-class="measure" class="measure"><g data-id="hr74p4k" data-class="staff" class="staff"><path d="M9009 540 L10883 540" stroke-width="13"/><path d="M9009 720 L10883 720" stroke-width="13"/><path d="M9009 900 L10883 900" stroke-width="13"/><path d="M9009 1080 L10883 1080" stroke-width="13"/><path d="M9009 1260 L10883 1260" stroke-width="13"/><g data-id="iar8jvk" data-class="layer" class="layer"><g data-id="svgpq5y" data-class="note" class="note"><g data-class="notehead" class="notehead"><use href="#E0A4-n1eeevv9" transform="translate(9231, 540) scale(0.72, 0.72)"/></g><g data-id="m6wlfng" data-class="dots" class="dots"><ellipse cx="9547" cy="450" rx="36" ry="36" fill-opacity="1" stroke-opacity="1"/></g><g data-id="l1v6rgva" data-class="stem" class="stem"><path d="M9240 568 L9240 1170" stroke-width="18"/></g><g data-id="k24r64g" data-class="accid" class="accid"/></g><g data-id="twigrds" data-class="note" class="note"><g data-class="notehead" class="notehead"><use href="#E0A4-n1eeevv9" transform="translate(10316, 720) scale(0.72, 0.72)"/></g><g data-id="n1fga0rl" data-class="stem" class="stem"><path d="M10325 748 L10325 1350" stroke-width="18"/><g data-id="o1nydvz1" data-class="flag" class="flag"><use href="#E241-n1eeevv9" transform="translate(10316, 1350) scale(0.72, 0.72)"/></g></g></g></g></g><g data-id="x9wgacs" data-class="barLine" class="barLine"><path d="M10870 540 L10870 1260" stroke-width="27"/></g></g><g data-id="y1xayf2a" data-class="measure" class="measure"><g data-id="j19ju2pp" data-class="staff" class="staff"><path d="M10883 540 L14002 540" stroke-width="13"/><path d="M10883 720 L14002 720" stroke-width="13"/><path d="M10883 900 L14002 900" stroke-width="13"/><path d="M10883 1080 L14002 1080" stroke-width="13"/><path d="M10883 1260 L14002 1260" stroke-width="13"/><g data-id="kl4qpgx" data-class="layer" class="layer"><g data-id="u1x9qko2" data-class="note" class="note"><g data-class="notehead" class="notehead"><use href="#E0A4-n1eeevv9" transform="translate(11105, 900) scale(0.72, 0.72)"/></g><g data-id="p2tcx3r" data-class="stem" class="stem"><path d="M11114 928 L11114 1500" stroke-width="18"/></g></g><g data-id="ec0jq4g" data-class="beam" class="beam"><polygon stroke-opacity="1" fill-opacity="1" points="12164,315 13808,315 13808,405 12164,405"/><polygon stroke-opacity="1" fill-opacity="1" points="12164,450 12791,450 12791,540 12164,540"/><polygon stroke-opacity="1" fill-opacity="1" points="12791,450 13181,450 13181,540 12791,540"/><polygon stroke-opacity="1" fill-opacity="1" points="13181,450 13808,450 13808,540 13181,540"/><g data-id="vsbm4le" data-class="note" class="note"><g data-class="notehead" class="notehead"><use href="#E0A4-n1eeevv9" transform="translate(11956, 900) scale(0.72, 0.72)"/></g><g data-id="qbet48l" data-class="stem" class="stem"><path d="M12173 872 L12173 333" stroke-width="18"/></g></g><g data-id="w4lz3kj" data-class="note" class="note"><g data-class="notehead" class="notehead"><use href="#E0A4-n1eeevv9" transform="translate(12574, 990) scale(0.72, 0.72)"/></g><g data-id="ruvhsa" data-class="stem" class="stem"><path d="M12791 962 L12791 333" stroke-width="18"/></g><g data-id="a2cbftj" data-class="accid" class="accid"><use href="#E262-n1eeevv9" transform="translate(12388, 990) scale(0.72, 0.72)"/></g></g><g data-id="x14ipjvl" data-class="note" class="note"><g data-class="notehead" class="notehead"><use href="#E0A4-n1eeevv9" transform="translate(12964, 900) scale(0.72, 0.72)"/></g><g data-id="s18e8j7v" data-class="stem" class="stem"><path d="M13181 872 L13181 333" stroke-width="18"/></g></g><g data-id="y8ano95" data-class="note" class="note"><g data-class="notehead" class="notehead"><use href="#E0A4-n1eeevv9" transform="translate(13582, 900) scale(0.72, 0.72)"/></g><g data-id="t5sorl1" data-class="stem" class="stem"><path d="M13799 872 L13799 333" stroke-width="18"/></g><g data-id="b26ql4n" data-class="accid" class="accid"><use href="#E262-n1eeevv9" transform="translate(13396, 900) scale(0.72, 0.72)"/></g></g></g></g></g><g data-id="g1fkonci" data-class="tie" class="tie"><path d="M11376,855 C11499,700 11784,700 11911,855 C11765,749 11518,749 11376,855" stroke-linecap="round" stroke-linejoin="round" stroke-width="9"/></g><g data-id="g1qsmipt" data-class="barLine" class="barLine"><path d="M13989 540 L13989 1260" stroke-width="27"/></g></g><g data-id="s1d4gfr7" data-class="systemMilestoneEnd" class="systemMilestoneEnd pezsia8"/></g><g data-id="tvvhn5u" data-class="pageMilestoneEnd" class="pageMilestoneEnd nmg7nmf"/><g data-id="u1hm2s6k" data-class="pageMilestoneEnd" class="pageMilestoneEnd ms4ss20"/></g></svg></svg>