<svg viewBox="0 0 560 84" version="1.1" xmlns="http://www.w3.org/2000/svg" xmlns:xlink="http://www.w3.org/1999/xlink" overflow="visible" id="qvfo0se"><desc>Engraved by Verovio 5.6.0-85e7620</desc><defs><g id="E050-qvfo0se"><path transform="scale(1,-1)" d="M441 -245c-23 -4 -48 -6 -76 -6c-59 0 -102 7 -130 20c-88 42 -150 93 -187 154c-26 44 -43 103 -48 176c0 6 -1 13 -1 19c0 54 15 111 45 170c29 57 65 106 110 148s96 85 153 127c-3 16 -8 46 -13 92c-4 43 -5 73 -5 89c0 117 16 172 69 257c34 54 64 82 89 82 c21 0 43 -30 69 -92s39 -115 41 -159v-15c0 -109 -21 -162 -67 -241c-13 -20 -63 -90 -98 -118c-13 -9 -25 -19 -37 -29l31 -181c8 1 18 2 28 2c58 0 102 -12 133 -35c59 -43 92 -104 98 -184c1 -7 1 -15 1 -22c0 -123 -87 -209 -181 -248c8 -57 17 -110 25 -162 c5 -31 6 -58 6 -80c0 -30 -5 -53 -14 -70c-35 -64 -88 -99 -158 -103c-5 0 -11 -1 -16 -1c-37 0 -72 10 -108 27c-50 24 -77 59 -80 105v11c0 29 7 55 20 76c18 28 45 42 79 44h6c49 0 93 -42 97 -87v-9c0 -51 -34 -86 -105 -106c17 -24 51 -36 102 -36c62 0 116 43 140 85 c9 16 13 41 13 74c0 20 -1 42 -5 67c-8 53 -18 106 -26 159zM461 939c-95 0 -135 -175 -135 -286c0 -24 2 -48 5 -71c50 39 92 82 127 128c40 53 60 100 60 140v8c-4 53 -22 81 -55 81h-2zM406 119l54 -326c73 25 110 78 110 161c0 7 0 15 -1 23c-7 95 -57 142 -151 142h-12 zM382 117c-72 -2 -128 -47 -128 -120v-7c2 -46 43 -99 75 -115c-3 -2 -7 -5 -10 -10c-70 33 -116 88 -123 172v11c0 68 44 126 88 159c23 17 49 29 78 36l-29 170c-21 -13 -52 -37 -92 -73c-50 -44 -86 -84 -109 -119c-45 -69 -67 -130 -67 -182v-13c5 -68 35 -127 93 -176 s125 -73 203 -73c25 0 50 3 75 9c-19 111 -36 221 -54 331z"/></g><g id="E262-qvfo0se"><path transform="scale(1,-1)" d="M136 186v169h17v-164l44 14v-91l-44 -14v-165l44 12v-91l-44 -13v-155h-17v150l-76 -22v-155h-17v149l-43 -13v90l43 14v167l-43 -14v92l43 13v169h17v-163zM60 73v-167l76 22v168z"/></g><g id="E083-qvfo0se"><path transform="scale(1,-1)" d="M208 250c97 0 177 -52 177 -116c0 -69 -40 -111 -118 -125c56 -5 125 -44 125 -116c0 -31 -10 -57 -31 -78c-19 -21 -45 -38 -78 -49l-50 -11c-15 -3 -36 -7 -55 -7c-50 0 -86 16 -113 38c-16 10 -23 18 -34 34c-7 13 -11 25 -11 38c0 43 27 83 68 83l3 -2 c61 0 75 -42 75 -70c0 -19 -24 -42 -26 -57c7 -17 20 -25 37 -25c44 0 94 29 94 78c0 75 -34 125 -138 125v36c84 0 131 22 131 98c0 54 -37 88 -87 88c-26 0 -43 -7 -51 -22c15 -22 44 -16 44 -70c0 -37 -37 -62 -71 -62c-22 0 -69 15 -69 76c0 79 101 116 178 116z"/></g><g id="E084-qvfo0se"><path transform="scale(1,-1)" d="M20 -78c84 97 114 180 134 329h170c-13 -32 -82 -132 -99 -151l-84 -97c-33 -36 -59 -63 -80 -81h162v102l127 123v-225h57v-39h-57v-34c0 -43 19 -65 57 -65v-34h-244v36c48 0 60 26 60 70v27h-203v39z"/></g><g id="E4E5-qvfo0se"><path transform="scale(1,-1)" d="M107 292c-13 24 -30 49 -52 71c-1 1 0 2 0 3l-2 2c3 3 4 4 6 4c12 0 26 -7 40 -20s44 -40 89 -81c26 -24 28 -29 46 -47c4 -4 8 -9 10 -14c6 -8 8 -16 8 -27c0 -19 -12 -40 -36 -61c-28 -23 -49 -38 -61 -73c-4 -11 -7 -27 -10 -50c13 -43 34 -83 59 -121 c31 -47 59 -79 101 -129c-8 0 -26 7 -54 20l-62 29l-21 6l-23 1c-25 0 -45 -10 -60 -30l-4 -14l-1 -12c0 -33 20 -56 39 -78c8 -9 17 -18 26 -26c17 -15 27 -24 28 -30l-3 -3c-11 5 -19 10 -25 15c-9 3 -37 21 -45 26c-24 14 -45 32 -63 51c-19 21 -37 44 -37 71 c0 63 27 95 80 95c41 0 86 -18 136 -52c-19 26 -37 48 -55 66c-23 23 -48 44 -73 65c-28 23 -47 40 -58 53s-17 26 -18 39c75 64 113 125 113 183c0 27 -7 48 -18 68z"/></g><g id="E0A4-qvfo0se"><path transform="scale(1,-1)" d="M0 -39c0 68 73 172 200 172c66 0 114 -37 114 -95c0 -84 -106 -171 -218 -171c-64 0 -96 30 -96 94z"/></g></defs><style type="text/css">#qvfo0se g.page-margin {font-family:Times,serif;}#qvfo0se g.ending, #qvfo0se g.fing, #qvfo0se g.reh, #qvfo0se g.tempo {font-weight:bold;}#qvfo0se g.dir, #qvfo0se g.dynam, #qvfo0se g.mNum {font-style:italic;}#qvfo0se g.label {font-weight:normal;}#qvfo0se path {stroke:currentColor}</style><svg class="definition-scale" color="black" viewBox="0 0 14000 2100"><g class="page-margin" transform="translate(0, 150)"><g data-id="hy6gsbx" data-class="mdiv" class="mdiv pageMilestone"/><g data-id="i13mwgoc" data-class="score" class="score pageMilestone"/><g data-id="ako0r4r" data-class="system" class="system"><g data-id="k1d2pjqs" data-class="section" class="section systemMilestone"/><g data-id="r192ux1g" data-class="measure" class="measure"><g data-id="wrkqcyr" data-class="staff" class="staff"><path d="M0 540 L4453 540" stroke-width="13"/><path d="M0 720 L4453 720" stroke-width="13"/><path d="M0 900 L4453 900" stroke-width="13"/><path d="M0 1080 L4453 1080" stroke-width="13"/><path d="M0 1260 L4453 1260" stroke-width="13"/><g data-id="g18zlp5q" data-class="clef" class="clef"><use href="#E050-qvfo0se" transform="translate(90, 1080) scale(0.72, 0.72)"/></g><g data-id="h1914cww" data-class="keySig" class="keySig"><g data-id="i1tlocww" data-class="keyAccid" class="keyAccid"><use href="#E262-qvfo0se" transform="translate(735, 540) scale(0.72, 0.72)"/></g><g data-id="j1g0u9og" data-class="keyAccid" class="keyAccid"><use href="#E262-qvfo0se" transform="translate(913, 810) scale(0.72, 0.72)"/></g></g><g data-id="kn9l8ki" data-class="meterSig" class="meterSig"><use href="#E083-qvfo0se" transform="translate(1226, 720) scale(0.72, 0.72)"/><use href="#E084-qvfo0se" transform="translate(1220, 1080) scale(0.72, 0.72)"/></g><g data-id="xnzxast" data-class="layer" class="layer"><g data-id="jug5hr0" data-class="rest" class="rest"><use href="#E4E5-qvfo0se" transform="translate(1782, 900) scale(0.72, 0.72)"/></g><g data-id="kzltk9h" data-class="rest" class="rest"><use href="#E4E5-qvfo0se" transform="translate(2472, 900) scale(0.72, 0.72)"/></g><g data-id="x10344pa" data-class="beam" class="beam"><polygon stroke-opacity="1" fill-opacity="1" points="3162,1575 4128,1575 4128,1485 3162,1485"/><polygon stroke-opacity="1" fill-opacity="1" points="3162,1440 3487,1440 3487,1350 3162,1350"/><polygon stroke-opacity="1" fill-opacity="1" points="3487,1440 3803,1440 3803,1350 3487,1350"/><polygon stroke-opacity="1" fill-opacity="1" points="3803,1440 4128,1440 4128,1350 3803,1350"/><g data-id="l1fcohcn" data-class="note" class="note"><g data-class="notehead" class="notehead"><use href="#E0A4-qvfo0se" transform="translate(3162, 990) scale(0.72, 0.72)"/></g><g data-id="m1yoexbx" data-class="stem" class="stem"><path d="M3171 1018 L3171 1557" stroke-width="18"/></g><g data-id="vjem512" data-class="accid" class="accid"><use href="#E262-qvfo0se" transform="translate(2976, 990) scale(0.72, 0.72)"/></g></g><g data-id="mwnnalt" data-class="note" class="note"><g data-class="notehead" class="notehead"><use href="#E0A4-qvfo0se" transform="translate(3478, 810) scale(0.72, 0.72)"/></g><g data-id="n1w4yv64" data-class="stem" class="stem"><path d="M3487 838 L3487 1557" stroke-width="18"/></g><g data-id="z1pcj5ut" data-class="accid" class="accid"/></g><g data-id="no0s2nk" data-class="note" class="note"><g data-class="notehead" class="notehead"><use href="#E0A4-qvfo0se" transform="translate(3794, 990) scale(0.72, 0.72)"/></g><g data-id="o1imeyck" data-class="stem" class="stem"><path d="M3803 1018 L3803 1557" stroke-width="18"/></g><g data-id="a3yjsot" data-class="accid" class="accid"/></g><g data-id="ot30dwd" data-class="note" class="note"><g data-class="notehead" class="notehead"><use href="#E0A4-qvfo0se" transform="translate(4110, 810) scale(0.72, 0.72)"/></g><g data-id="p1if0r9y" data-class="stem" class="stem"><path d="M4119 838 L4119 1557" stroke-width="18"/></g><g data-id="bdbw7yt" data-class="accid" class="accid"/></g></g></g></g><g data-id="zpd6x8v" data-class="barLine" class="barLine"><path d="M4440 540 L4440 1260" stroke-width="27"/></g></g><g data-id="alodafz" data-class="measure" class="measure"><g data-id="y12t8ss6" data-class="staff" class="staff"><path d="M4453 540 L7304 540" stroke-width="13"/><path d="M4453 720 L7304 720" stroke-width="13"/><path d="M4453 900 L7304 900" stroke-width="13"/><path d="M4453 1080 L7304 1080" stroke-width="13"/><path d="M4453 1260 L7304 1260" stroke-width="13"/><g data-id="z1iwus9z" data-class="layer" class="layer"><g data-id="p16awcqr" data-class="note" class="note"><g data-class="notehead" class="notehead"><use href="#E0A4-qvfo0se" transform="translate(4633, 1170) scale(0.72, 0.72)"/></g><g data-id="q162y3jg" data-class="stem" class="stem"><path d="M4850 1142 L4850 540" stroke-width="18"/></g><g data-id="cdlwtpm" data-class="accid" class="accid"/></g><g data-id="qqdkdwt" data-class="note" class="note"><g data-class="notehead" class="notehead"><use href="#E0A4-qvfo0se" transform="translate(5323, 900) scale(0.72, 0.72)"/></g><g data-id="rca8oa5" data-class="stem" class="stem"><path d="M5332 928 L5332 1500" stroke-width="18"/></g></g><g data-id="y6r8wuw" data-class="beam" class="beam"><polygon stroke-opacity="1" fill-opacity="1" points="6013,1575 6979,1575 6979,1485 6013,1485"/><polygon stroke-opacity="1" fill-opacity="1" points="6013,1440 6338,1440 6338,1350 6013,1350"/><polygon stroke-opacity="1" fill-opacity="1" points="6338,1440 6654,1440 6654,1350 6338,1350"/><polygon stroke-opacity="1" fill-opacity="1" points="6654,1440 6979,1440 6979,1350 6654,1350"/><g data-id="r1cv1rxq" data-class="note" class="note"><g data-class="notehead" class="notehead"><use href="#E0A4-qvfo0se" transform="translate(6013, 990) scale(0.72, 0.72)"/></g><g data-id="s1kw0xp" data-class="stem" class="stem"><path d="M6022 1018 L6022 1557" stroke-width="18"/></g><g data-id="wapoghp" data-class="accid" class="accid"><use href="#E262-qvfo0se" transform="translate(5827, 990) scale(0.72, 0.72)"/></g></g><g data-id="sdtpyrb" data-class="note" class="note"><g data-class="notehead" class="notehead"><use href="#E0A4-qvfo0se" transform="translate(6329, 810) scale(0.72, 0.72)"/></g><g data-id="t1kdxqj3" data-class="stem" class="stem"><path d="M6338 838 L6338 1557" stroke-width="18"/></g><g data-id="dv0g2is" data-class="accid" class="accid"/></g><g data-id="t1gd0mud" data-class="note" class="note"><g data-class="notehead" class="notehead"><use href="#E0A4-qvfo0se" transform="translate(6645, 990) scale(0.72, 0.72)"/></g><g data-id="u756r9i" data-class="stem" class="stem"><path d="M6654 1018 L6654 1557" stroke-width="18"/></g><g data-id="e1sby4yl" data-class="accid" class="accid"/></g><g data-id="u1apsjk2" data-class="note" class="note"><g data-class="notehead" class="notehead"><use href="#E0A4-qvfo0se" transform="translate(6961, 810) scale(0.72, 0.72)"/></g><g data-id="vh4cnct" data-class="stem" class="stem"><path d="M6970 838 L6970 1557" stroke-width="18"/></g><g data-id="f18noesk" data-class="accid" class="accid"/></g></g></g></g><g data-id="ijk9zpx" data-class="barLine" class="barLine"><path d="M7291 540 L7291 1260" stroke-width="27"/></g></g><g data-id="h1k8epe9" data-class="systemMilestoneEnd" class="systemMilestoneEnd k1d2pjqs"/></g><g data-id="i1bmlnfe" data-class="pageMilestoneEnd" class="pageMilestoneEnd i13mwgoc"/><g data-id="j3wjmp2" data-class="pageMilestoneEnd" class="pageMilestoneEnd hy6gsbx"/></g></svg></svg>