<svg viewBox="0 0 560 84" version="1.1" xmlns="http://www.w3.org/2000/svg" xmlns:xlink="http://www.w3.org/1999/xlink" overflow="visible" id="azzzi5l"><desc>Engraved by Verovio 5.6.0-85e7620</desc><defs><g id="E050-azzzi5l"><path transform="scale(1,-1)" d="M441 -245c-23 -4 -48 -6 -76 -6c-59 0 -102 7 -130 20c-88 42 -150 93 -187 154c-26 44 -43 103 -48 176c0 6 -1 13 -1 19c0 54 15 111 45 170c29 57 65 106 110 148s96 85 153 127c-3 16 -8 46 -13 92c-4 43 -5 73 -5 89c0 117 16 172 69 257c34 54 64 82 89 82 c21 0 43 -30 69 -92s39 -115 41 -159v-15c0 -109 -21 -162 -67 -241c-13 -20 -63 -90 -98 -118c-13 -9 -25 -19 -37 -29l31 -181c8 1 18 2 28 2c58 0 102 -12 133 -35c59 -43 92 -104 98 -184c1 -7 1 -15 1 -22c0 -123 -87 -209 -181 -248c8 -57 17 -110 25 -162 c5 -31 6 -58 6 -80c0 -30 -5 -53 -14 -70c-35 -64 -88 -99 -158 -103c-5 0 -11 -1 -16 -1c-37 0 -72 10 -108 27c-50 24 -77 59 -80 105v11c0 29 7 55 20 76c18 28 45 42 79 44h6c49 0 93 -42 97 -87v-9c0 -51 -34 -86 -105 -106c17 -24 51 -36 102 -36c62 0 116 43 140 85 c9 16 13 41 13 74c0 20 -1 42 -5 67c-8 53 -18 106 -26 159zM461 939c-95 0 -135 -175 -135 -286c0 -24 2 -48 5 -71c50 39 92 82 127 128c40 53 60 100 60 140v8c-4 53 -22 81 -55 81h-2zM406 119l54 -326c73 25 110 78 110 161c0 7 0 15 -1 23c-7 95 -57 142 -151 142h-12 zM382 117c-72 -2 -128 -47 -128 -120v-7c2 -46 43 -99 75 -115c-3 -2 -7 -5 -10 -10c-70 33 -116 88 -123 172v11c0 68 44 126 88 159c23 17 49 29 78 36l-29 170c-21 -13 -52 -37 -92 -73c-50 -44 -86 -84 -109 -119c-45 -69 -67 -130 -67 -182v-13c5 -68 35 -127 93 -176 s125 -73 203 -73c25 0 50 3 75 9c-19 111 -36 221 -54 331z"/></g><g id="E260-azzzi5l"><path transform="scale(1,-1)" d="M20 110c32 16 54 27 93 27c26 0 35 -3 54 -13c13 -7 24 -20 27 -38l4 -25c0 -28 -16 -57 -45 -89c-23 -25 -39 -44 -65 -68l-88 -79v644h20v-359zM90 106c-32 0 -48 -10 -70 -29v-194c31 31 54 59 71 84c21 32 32 59 32 84c0 9 1 16 1 20c0 14 -3 21 -11 30l-8 3z"/></g><g id="E086-azzzi5l"><path transform="scale(1,-1)" d="M284 -91c0 37 -28 92 -67 92c-35 0 -65 -54 -65 -111c0 -52 22 -104 68 -104c47 0 64 68 64 123zM230 214c-36 0 -90 -33 -90 -184l2 -36c40 24 81 36 120 36c80 0 140 -48 140 -121c0 -99 -99 -159 -182 -159c-160 0 -200 173 -200 244c0 21 2 43 7 71l10 35 c26 85 73 115 98 126c41 19 74 24 103 24c93 0 142 -63 142 -105c0 -58 -52 -72 -73 -72c-33 0 -59 24 -65 35c-3 5 -6 14 -7 25l11 30c6 15 9 27 9 35c0 11 -9 16 -25 16z"/></g><g id="E084-azzzi5l"><path transform="scale(1,-1)" d="M20 -78c84 97 114 180 134 329h170c-13 -32 -82 -132 -99 -151l-84 -97c-33 -36 -59 -63 -80 -81h162v102l127 123v-225h57v-39h-57v-34c0 -43 19 -65 57 -65v-34h-244v36c48 0 60 26 60 70v27h-203v39z"/></g><g id="E4E5-azzzi5l"><path transform="scale(1,-1)" d="M107 292c-13 24 -30 49 -52 71c-1 1 0 2 0 3l-2 2c3 3 4 4 6 4c12 0 26 -7 40 -20s44 -40 89 -81c26 -24 28 -29 46 -47c4 -4 8 -9 10 -14c6 -8 8 -16 8 -27c0 -19 -12 -40 -36 -61c-28 -23 -49 -38 -61 -73c-4 -11 -7 -27 -10 -50c13 -43 34 -83 59 -121 c31 -47 59 -79 101 -129c-8 0 -26 7 -54 20l-62 29l-21 6l-23 1c-25 0 -45 -10 -60 -30l-4 -14l-1 -12c0 -33 20 -56 39 -78c8 -9 17 -18 26 -26c17 -15 27 -24 28 -30l-3 -3c-11 5 -19 10 -25 15c-9 3 -37 21 -45 26c-24 14 -45 32 -63 51c-19 21 -37 44 -37 71 c0 63 27 95 80 95c41 0 86 -18 136 -52c-19 26 -37 48 -55 66c-23 23 -48 44 -73 65c-28 23 -47 40 -58 53s-17 26 -18 39c75 64 113 125 113 183c0 27 -7 48 -18 68z"/></g><g id="E0A4-azzzi5l"><path transform="scale(1,-1)" d="M0 -39c0 68 73 172 200 172c66 0 114 -37 114 -95c0 -84 -106 -171 -218 -171c-64 0 -96 30 -96 94z"/></g></defs><style type="text/css">#azzzi5l g.page-margin {font-family:Times,serif;}#azzzi5l g.ending, #azzzi5l g.fing, #azzzi5l g.reh, #azzzi5l g.tempo {font-weight:bold;}#azzzi5l g.dir, #azzzi5l g.dynam, #azzzi5l g.mNum {font-style:italic;}#azzzi5l g.label {font-weight:normal;}#azzzi5l path {stroke:currentColor}</style><svg class="definition-scale" color="black" viewBox="0 0 14000 2100"><g class="page-margin" transform="translate(0, 150)"><g data-id="gff4dlk" data-class="mdiv" class="mdiv pageMilestone"/><g data-id="h182avtp" data-class="score" class="score pageMilestone"/><g data-id="galhsya" data-class="system" class="system"><g data-id="jzh916b" data-class="section" class="section systemMilestone"/><g data-id="b1xhu2p5" data-class="measure" class="measure"><g data-id="vsdhazd" data-class="staff" class="staff"><path d="M0 540 L7713 540" stroke-width="13"/><path d="M0 720 L7713 720" stroke-width="13"/><path d="M0 900 L7713 900" stroke-width="13"/><path d="M0 1080 L7713 1080" stroke-width="13"/><path d="M0 1260 L7713 1260" stroke-width="13"/><g data-id="cchtvb4" data-class="clef" class="clef"><use href="#E050-azzzi5l" transform="translate(90, 1080) scale(0.72, 0.72)"/></g><g data-id="d13245so" data-class="keySig" class="keySig"><g data-id="e7mrr87" data-class="keyAccid" class="keyAccid"><use href="#E260-azzzi5l" transform="translate(735, 900) scale(0.72, 0.72)"/></g></g><g data-id="f14vu0m1" data-class="meterSig" class="meterSig"><use href="#E086-azzzi5l" transform="translate(1045, 720) scale(0.72, 0.72)"/><use href="#E084-azzzi5l" transform="translate(1043, 1080) scale(0.72, 0.72)"/></g><g data-class="ledgerLines" class="ledgerLines below"><g data-class="lineDash" class="lineDash" data-related="#b3sl46y"><path d="M2583 1440 L2905 1440" stroke-width="22"/></g><g data-class="lineDash" class="lineDash" data-related="#c1rtuw3v"><path d="M3597 1440 L3919 1440" stroke-width="22"/></g><g data-class="lineDash" class="lineDash" data-related="#d13b99fi"><path d="M5624 1440 L5946 1440" stroke-width="22"/></g><g data-class="lineDash" class="lineDash" data-related="#ezexigd"><path d="M6638 1440 L6960 1440" stroke-width="22"/></g></g><g data-id="wc24814" data-class="layer" class="layer"><g data-id="ugqtmf9" data-class="rest" class="rest"><use href="#E4E5-azzzi5l" transform="translate(1617, 900) scale(0.72, 0.72)"/></g><g data-id="b3sl46y" data-class="note" class="note"><g data-class="notehead" class="notehead"><use href="#E0A4-azzzi5l" transform="translate(2631, 1440) scale(0.72, 0.72)"/></g><g data-id="q5x1mfm" data-class="stem" class="stem"><path d="M2848 1412 L2848 810" stroke-width="18"/></g></g><g data-id="c1rtuw3v" data-class="note" class="note"><g data-class="notehead" class="notehead"><use href="#E0A4-azzzi5l" transform="translate(3645, 1440) scale(0.72, 0.72)"/></g><g data-id="r1fxig55" data-class="stem" class="stem"><path d="M3862 1412 L3862 810" stroke-width="18"/></g></g><g data-id="v18427k6" data-class="rest" class="rest"><use href="#E4E5-azzzi5l" transform="translate(4659, 900) scale(0.72, 0.72)"/></g><g data-id="d13b99fi" data-class="note" class="note"><g data-class="notehead" class="notehead"><use href="#E0A4-azzzi5l" transform="translate(5672, 1440) scale(0.72, 0.72)"/></g><g data-id="s1ta00v" data-class="stem" class="stem"><path d="M5889 1412 L5889 810" stroke-width="18"/></g></g><g data-id="ezexigd" data-class="note" class="note"><g data-class="notehead" class="notehead"><use href="#E0A4-azzzi5l" transform="translate(6686, 1440) scale(0.72, 0.72)"/></g><g data-id="tmev7yg" data-class="stem" class="stem"><path d="M6903 1412 L6903 810" stroke-width="18"/></g></g></g></g><g data-id="yd1xobt" data-class="tie" class="tie"><path d="M2902,1485 C3084,1590 3415,1590 3600,1485 C3432,1639 3067,1639 2902,1485" stroke-linecap="round" stroke-linejoin="round" stroke-width="9"/></g><g data-id="zzm0cef" data-class="tie" class="tie"><path d="M5943,1485 C6125,1590 6456,1590 6641,1485 C6473,1639 6108,1639 5943,1485" stroke-linecap="round" stroke-linejoin="round" stroke-width="9"/></g><g data-id="j15ez2pi" data-class="barLine" class="barLine"><path d="M7700 540 L7700 1260" stroke-width="27"/></g></g><g data-id="klpeuxr" data-class="measure" class="measure"><g data-id="x1js05yq" data-class="staff" class="staff"><path d="M7713 540 L14001 540" stroke-width="13"/><path d="M7713 720 L14001 720" stroke-width="13"/><path d="M7713 900 L14001 900" stroke-width="13"/><path d="M7713 1080 L14001 1080" stroke-width="13"/><path d="M7713 1260 L14001 1260" stroke-width="13"/><g data-class="ledgerLines" class="ledgerLines below"><g data-class="lineDash" class="lineDash" data-related="#f9x6fnu"><path d="M8871 1440 L9193 1440" stroke-width="22"/></g><g data-class="lineDash" class="lineDash" data-related="#gk999cd"><path d="M9885 1440 L10207 1440" stroke-width="22"/></g></g><g data-id="y1szb00j" data-class="layer" class="layer"><g data-id="w7r8kex" data-class="rest" class="rest"><use href="#E4E5-azzzi5l" transform="translate(7905, 900) scale(0.72, 0.72)"/></g><g data-id="f9x6fnu" data-class="note" class="note"><g data-class="notehead" class="notehead"><use href="#E0A4-azzzi5l" transform="translate(8919, 1440) scale(0.72, 0.72)"/></g><g data-id="ukqwcke" data-class="stem" class="stem"><path d="M9136 1412 L9136 810" stroke-width="18"/></g></g><g data-id="gk999cd" data-class="note" class="note"><g data-class="notehead" class="notehead"><use href="#E0A4-azzzi5l" transform="translate(9933, 1440) scale(0.72, 0.72)"/></g><g data-id="v1fdmi66" data-class="stem" class="stem"><path d="M10150 1412 L10150 810" stroke-width="18"/></g></g><g data-id="x1xyehx" data-class="rest" class="rest"><use href="#E4E5-azzzi5l" transform="translate(10947, 900) scale(0.72, 0.72)"/></g><g data-id="h12t92r4" data-class="note" class="note"><g data-class="notehead" class="notehead"><use href="#E0A4-azzzi5l" transform="translate(11960, 1350) scale(0.72, 0.72)"/></g><g data-id="w1i7uibe" data-class="stem" class="stem"><path d="M12177 1322 L12177 720" stroke-width="18"/></g></g><g data-id="i171vz6h" data-class="note" class="note"><g data-class="notehead" class="notehead"><use href="#E0A4-azzzi5l" transform="translate(12974, 1350) scale(0.72, 0.72)"/></g><g data-id="xn5fmvu" data-class="stem" class="stem"><path d="M13191 1322 L13191 720" stroke-width="18"/></g></g></g></g><g data-id="aruxbbw" data-class="tie" class="tie"><path d="M9190,1485 C9372,1590 9703,1590 9888,1485 C9720,1639 9355,1639 9190,1485" stroke-linecap="round" stroke-linejoin="round" stroke-width="9"/></g><g data-id="b129j1ry" data-class="tie" class="tie"><path d="M12231,1395 C12413,1500 12744,1500 12929,1395 C12761,1549 12396,1549 12231,1395" stroke-linecap="round" stroke-linejoin="round" stroke-width="9"/></g><g data-id="s102zh25" data-class="barLine" class="barLine"><path d="M13988 540 L13988 1260" stroke-width="27"/></g></g></g></g></svg></svg>