<svg viewBox="0 0 560 84" version="1.1" xmlns="http://www.w3.org/2000/svg" xmlns:xlink="http://www.w3.org/1999/xlink" overflow="visible" id="j1sc5l8e"><desc>Engraved by Verovio 5.6.0-85e7620</desc><defs><g id="E050-j1sc5l8e"><path transform="scale(1,-1)" d="M441 -245c-23 -4 -48 -6 -76 -6c-59 0 -102 7 -130 20c-88 42 -150 93 -187 154c-26 44 -43 103 -48 176c0 6 -1 13 -1 19c0 54 15 111 45 170c29 57 65 106 110 148s96 85 153 127c-3 16 -8 46 -13 92c-4 43 -5 73 -5 89c0 117 16 172 69 257c34 54 64 82 89 82 c21 0 43 -30 69 -92s39 -115 41 -159v-15c0 -109 -21 -162 -67 -241c-13 -20 -63 -90 -98 -118c-13 -9 -25 -19 -37 -29l31 -181c8 1 18 2 28 2c58 0 102 -12 133 -35c59 -43 92 -104 98 -184c1 -7 1 -15 1 -22c0 -123 -87 -209 -181 -248c8 -57 17 -110 25 -162 c5 -31 6 -58 6 -80c0 -30 -5 -53 -14 -70c-35 -64 -88 -99 -158 -103c-5 0 -11 -1 -16 -1c-37 0 -72 10 -108 27c-50 24 -77 59 -80 105v11c0 29 7 55 20 76c18 28 45 42 79 44h6c49 0 93 -42 97 -87v-9c0 -51 -34 -86 -105 -106c17 -24 51 -36 102 -36c62 0 116 43 140 85 c9 16 13 41 13 74c0 20 -1 42 -5 67c-8 53 -18 106 -26 159zM461 939c-95 0 -135 -175 -135 -286c0 -24 2 -48 5 -71c50 39 92 82 127 128c40 53 60 100 60 140v8c-4 53 -22 81 -55 81h-2zM406 119l54 -326c73 25 110 78 110 161c0 7 0 15 -1 23c-7 95 -57 142 -151 142h-12 zM382 117c-72 -2 -128 -47 -128 -120v-7c2 -46 43 -99 75 -115c-3 -2 -7 -5 -10 -10c-70 33 -116 88 -123 172v11c0 68 44 126 88 159c23 17 49 29 78 36l-29 170c-21 -13 -52 -37 -92 -73c-50 -44 -86 -84 -109 -119c-45 -69 -67 -130 -67 -182v-13c5 -68 35 -127 93 -176 s125 -73 203 -73c25 0 50 3 75 9c-19 111 -36 221 -54 331z"/></g><g id="E260-j1sc5l8e"><path transform="scale(1,-1)" d="M20 110c32 16 54 27 93 27c26 0 35 -3 54 -13c13 -7 24 -20 27 -38l4 -25c0 -28 -16 -57 -45 -89c-23 -25 -39 -44 -65 -68l-88 -79v644h20v-359zM90 106c-32 0 -48 -10 -70 -29v-194c31 31 54 59 71 84c21 32 32 59 32 84c0 9 1 16 1 20c0 14 -3 21 -11 30l-8 3z"/></g><g id="E08A-j1sc5l8e"><path transform="scale(1,-1)" d="M340 179c-9 24 -56 41 -89 41c-46 0 -81 -28 -100 -58c-17 -28 -25 -78 -25 -150c0 -65 2 -111 8 -135c8 -31 18 -49 40 -67c20 -17 43 -25 70 -25c54 0 92 36 115 75c14 25 23 54 28 88h27c0 -63 -24 -105 -58 -141c-35 -38 -82 -56 -140 -56c-45 0 -83 13 -115 39 c-57 45 -101 130 -101 226c0 59 33 127 68 163c36 37 97 72 160 72c36 0 93 -21 121 -40c11 -8 23 -17 33 -30c19 -23 27 -48 27 -76c0 -51 -35 -88 -86 -88c-43 0 -76 27 -76 68c0 26 7 35 21 51c15 17 32 27 58 32c7 2 14 7 14 11z"/></g><g id="E0A3-j1sc5l8e"><path transform="scale(1,-1)" d="M278 64c0 22 -17 39 -43 39c-12 0 -26 -3 -41 -10c-85 -43 -165 -94 -165 -156c5 -25 15 -32 49 -32c67 11 200 95 200 159zM0 -36c0 68 73 174 200 174c66 0 114 -39 114 -97c0 -84 -106 -173 -218 -173c-64 0 -96 32 -96 96z"/></g><g id="E4C0-j1sc5l8e"><path transform="scale(1,-1)" d="M0 0c0 0 40 320 300 320s300 -320 300 -320h-32s-38 227 -268 227s-268 -227 -268 -227h-32zM355 52c0 -30 -25 -55 -55 -55s-55 25 -55 55s25 55 55 55s55 -25 55 -55z"/></g></defs><style type="text/css">#j1sc5l8e g.page-margin {font-family:Times,serif;}#j1sc5l8e g.ending, #j1sc5l8e g.fing, #j1sc5l8e g.reh, #j1sc5l8e g.tempo {font-weight:bold;}#j1sc5l8e g.dir, #j1sc5l8e g.dynam, #j1sc5l8e g.mNum {font-style:italic;}#j1sc5l8e g.label {font-weight:normal;}#j1sc5l8e path {stroke:currentColor}</style><svg class="definition-scale" color="black" viewBox="0 0 14000 2100"><g class="page-margin" transform="translate(0, 150)"><g data-id="n1rjabej" data-class="mdiv" class="mdiv pageMilestone"/><g data-id="o1ef79mh" data-class="score" class="score pageMilestone"/><g data-id="g1u5mhpr" data-class="system" class="system"><g data-id="qyo8uf6" data-class="section" class="section systemMilestone"/><g data-id="k1xxihud" data-class="measure" class="measure"><g data-id="ctpwftt" data-class="staff" class="staff"><path d="M0 540 L2688 540" stroke-width="13"/><path d="M0 720 L2688 720" stroke-width="13"/><path d="M0 900 L2688 900" stroke-width="13"/><path d="M0 1080 L2688 1080" stroke-width="13"/><path d="M0 1260 L2688 1260" stroke-width="13"/><g data-id="nbqlycj" data-class="clef" class="clef"><use href="#E050-j1sc5l8e" transform="translate(90, 1080) scale(0.72, 0.72)"/></g><g data-id="o73t953" data-class="keySig" class="keySig"><g data-id="ptn1gc1" data-class="keyAccid" class="keyAccid"><use href="#E260-j1sc5l8e" transform="translate(735, 900) scale(0.72, 0.72)"/></g></g><g data-id="q5l8ev5" data-class="meterSig" class="meterSig"><use href="#E08A-j1sc5l8e" transform="translate(1057, 900) scale(0.72, 0.72)"/></g><g data-id="d1clpsta" data-class="layer" class="layer"><g data-id="dc6iwk3" data-class="note" class="note"><g data-class="notehead" class="notehead"><use href="#E0A3-j1sc5l8e" transform="translate(1625, 990) scale(0.72, 0.72)"/></g><g data-id="x7mvw9d" data-class="stem" class="stem"><path d="M1842 962 L1842 360" stroke-width="18"/></g></g></g></g><g data-id="sd8q7tr" data-class="barLine" class="barLine"><path d="M2675 540 L2675 1260" stroke-width="27"/></g></g><g data-id="t8z9jcg" data-class="measure" class="measure"><g data-id="egl0thz" data-class="staff" class="staff"><path d="M2688 540 L4981 540" stroke-width="13"/><path d="M2688 720 L4981 720" stroke-width="13"/><path d="M2688 900 L4981 900" stroke-width="13"/><path d="M2688 1080 L4981 1080" stroke-width="13"/><path d="M2688 1260 L4981 1260" stroke-width="13"/><g data-id="fdyqdp7" data-class="layer" class="layer"><g data-id="eegnil9" data-class="note" class="note"><g data-class="notehead" class="notehead"><use href="#E0A3-j1sc5l8e" transform="translate(2868, 990) scale(0.72, 0.72)"/></g><g data-id="y1m7z45f" data-class="stem" class="stem"><path d="M3085 962 L3085 360" stroke-width="18"/></g></g><g data-id="fei37ho" data-class="note" class="note"><g data-class="notehead" class="notehead"><use href="#E0A3-j1sc5l8e" transform="translate(3918, 1170) scale(0.72, 0.72)"/></g><g data-id="z1rsk841" data-class="stem" class="stem"><path d="M4135 1142 L4135 540" stroke-width="18"/></g></g></g></g><g data-id="b1gqbbe0" data-class="barLine" class="barLine"><path d="M4968 540 L4968 1260" stroke-width="27"/></g></g><g data-id="ce4idl0" data-class="measure" class="measure"><g data-id="g1d8o5wc" data-class="staff" class="staff"><path d="M4981 540 L7274 540" stroke-width="13"/><path d="M4981 720 L7274 720" stroke-width="13"/><path d="M4981 900 L7274 900" stroke-width="13"/><path d="M4981 1080 L7274 1080" stroke-width="13"/><path d="M4981 1260 L7274 1260" stroke-width="13"/><g data-id="hqd3zr6" data-class="layer" class="layer"><g data-id="g1gj7br6" data-class="note" class="note"><g data-class="notehead" class="notehead"><use href="#E0A3-j1sc5l8e" transform="translate(5161, 1080) scale(0.72, 0.72)"/></g><g data-id="afous00" data-class="stem" class="stem"><path d="M5378 1052 L5378 450" stroke-width="18"/></g></g><g data-id="h1muookd" data-class="note" class="note"><g data-class="notehead" class="notehead"><use href="#E0A3-j1sc5l8e" transform="translate(6211, 990) scale(0.72, 0.72)"/></g><g data-id="brn0w6v" data-class="stem" class="stem"><path d="M6428 962 L6428 360" stroke-width="18"/></g></g></g></g><g data-id="k150fyzy" data-class="barLine" class="barLine"><path d="M7261 540 L7261 1260" stroke-width="27"/></g></g><g data-id="l1u3dfl" data-class="measure" class="measure"><g data-id="i1laj5c0" data-class="staff" class="staff"><path d="M7274 540 L9567 540" stroke-width="13"/><path d="M7274 720 L9567 720" stroke-width="13"/><path d="M7274 900 L9567 900" stroke-width="13"/><path d="M7274 1080 L9567 1080" stroke-width="13"/><path d="M7274 1260 L9567 1260" stroke-width="13"/><g data-id="j1ywj3jn" data-class="layer" class="layer"><g data-id="i13jqva1" data-class="note" class="note"><g data-class="notehead" class="notehead"><use href="#E0A3-j1sc5l8e" transform="translate(7454, 1170) scale(0.72, 0.72)"/></g><g data-id="c1mcbew9" data-class="stem" class="stem"><path d="M7671 1142 L7671 540" stroke-width="18"/></g></g><g data-id="jyh1r6n" data-class="note" class="note"><g data-class="notehead" class="notehead"><use href="#E0A3-j1sc5l8e" transform="translate(8504, 1260) scale(0.72, 0.72)"/></g><g data-id="d2o86na" data-class="stem" class="stem"><path d="M8721 1232 L8721 630" stroke-width="18"/></g></g></g></g><g data-id="t5ls580" data-class="barLine" class="barLine"><path d="M9554 540 L9554 1260" stroke-width="27"/></g></g><g data-id="u1khwica" data-class="measure" class="measure"><g data-id="klop37a" data-class="staff" class="staff"><path d="M9567 540 L10797 540" stroke-width="13"/><path d="M9567 720 L10797 720" stroke-width="13"/><path d="M9567 900 L10797 900" stroke-width="13"/><path d="M9567 1080 L10797 1080" stroke-width="13"/><path d="M9567 1260 L10797 1260" stroke-width="13"/><g data-id="lvnam6a" data-class="layer" class="layer"><g data-id="k51nl69" data-class="note" class="note"><g data-class="notehead" class="notehead"><use href="#E0A3-j1sc5l8e" transform="translate(9747, 1350) scale(0.72, 0.72)"/></g><g data-id="e1ianbnh" data-class="stem" class="stem"><path d="M9964 1322 L9964 720" stroke-width="18"/></g></g></g></g><g data-id="l13dyhu4" data-class="fermata" class="fermata"><use href="#E4C0-j1sc5l8e" transform="translate(9644, 493) scale(0.72, 0.72)"/></g><g data-id="c1beww2" data-class="barLine" class="barLine"/></g><g data-id="tmmke7b" data-class="systemMilestoneEnd" class="systemMilestoneEnd qyo8uf6"/></g><g data-id="udm8b00" data-class="pageMilestoneEnd" class="pageMilestoneEnd o1ef79mh"/><g data-id="v1umgeok" data-class="pageMilestoneEnd" class="pageMilestoneEnd n1rjabej"/></g></svg></svg>