<svg viewBox="0 0 560 84" version="1.1" xmlns="http://www.w3.org/2000/svg" xmlns:xlink="http://www.w3.org/1999/xlink" overflow="visible" id="nzgk6xt"><desc>Engraved by Verovio 5.6.0-85e7620</desc><defs><g id="E052-nzgk6xt"><path transform="scale(1,-1)" d="M382 117c-72 -2 -128 -47 -128 -120v-7c2 -46 43 -99 75 -115c-3 -2 -7 -5 -10 -10c-70 33 -116 88 -123 172v11c0 68 44 126 88 159c23 17 49 29 78 36l-29 170c-21 -13 -52 -37 -92 -73c-50 -44 -86 -84 -109 -119c-45 -69 -67 -130 -67 -182v-13 c5 -68 35 -127 93 -176s125 -73 203 -73c25 0 50 3 75 9c-19 111 -36 221 -54 331zM406 119l54 -326c73 25 110 78 110 161c0 7 0 15 -1 23c-7 95 -57 142 -151 142h-12zM461 939c-95 0 -135 -175 -135 -286c0 -24 2 -48 5 -71c50 39 92 82 127 128c40 53 60 100 60 140v8 c-4 53 -22 81 -55 81h-2zM441 -245c-23 -4 -48 -6 -76 -6c-59 0 -102 7 -130 20c-88 42 -150 93 -187 154c-26 44 -43 103 -48 176c0 6 -1 13 -1 19c0 54 15 111 45 170c29 57 65 106 110 148s96 85 153 127c-3 16 -8 46 -13 92c-4 43 -5 73 -5 89c0 117 16 172 69 257 c34 54 64 82 89 82c21 0 43 -30 69 -92s39 -115 41 -159v-15c0 -109 -21 -162 -67 -241c-13 -20 -63 -90 -98 -118c-13 -9 -25 -19 -37 -29l31 -181c8 1 18 2 28 2c58 0 102 -12 133 -35c59 -43 92 -104 98 -184c1 -7 1 -15 1 -22c0 -123 -87 -209 -181 -248 c8 -57 17 -110 25 -162c5 -31 6 -58 6 -80c0 -30 -5 -53 -14 -70c-25 -46 -59 -77 -102 -92c21 -1 85 -13 85 -60c0 -35 -22 -43 -31 -50c-6 -5 -8 -10 -8 -16s0 -11 4 -16c6 -11 9 -22 9 -34c0 -27 -18 -53 -46 -65c-11 -4 -27 -6 -41 -6c-34 0 -82 21 -90 58 c-1 5 -2 8 -2 12c0 28 25 57 51 66c4 1 6 2 6 5c0 2 -1 3 -2 3c-11 13 -16 27 -16 41c0 21 11 40 30 51h-5c-5 0 -11 -1 -16 -1c-37 0 -72 10 -108 27c-50 24 -77 59 -80 105v11c0 29 7 55 20 76c18 28 45 42 79 44h6c49 0 93 -42 97 -87v-9c0 -51 -34 -86 -105 -106 c17 -24 51 -36 102 -36c62 0 116 43 140 85c9 16 13 41 13 74c0 20 -1 42 -5 67c-8 53 -18 106 -26 159zM315 -781c-3 -2 -6 -5 -7 -8c-6 -8 -10 -19 -10 -30c0 -2 0 -4 1 -7c7 -32 34 -52 53 -52c20 0 37 20 37 36c0 5 -2 9 -4 14c-5 13 -14 24 -25 34c-6 5 -11 10 -17 14 c-4 2 -9 6 -14 6c-6 0 -11 -3 -14 -7zM349 -685c0 -14 10 -25 18 -34c8 -8 16 -18 26 -25c5 -2 10 -4 13 -4c17 0 22 30 23 48c0 9 -3 20 -9 26c-8 9 -23 14 -40 14c-15 -1 -29 -8 -31 -25z"/></g><g id="E262-nzgk6xt"><path transform="scale(1,-1)" d="M136 186v169h17v-164l44 14v-91l-44 -14v-165l44 12v-91l-44 -13v-155h-17v150l-76 -22v-155h-17v149l-43 -13v90l43 14v167l-43 -14v92l43 13v169h17v-163zM60 73v-167l76 22v168z"/></g><g id="E086-nzgk6xt"><path transform="scale(1,-1)" d="M284 -91c0 37 -28 92 -67 92c-35 0 -65 -54 -65 -111c0 -52 22 -104 68 -104c47 0 64 68 64 123zM230 214c-36 0 -90 -33 -90 -184l2 -36c40 24 81 36 120 36c80 0 140 -48 140 -121c0 -99 -99 -159 -182 -159c-160 0 -200 173 -200 244c0 21 2 43 7 71l10 35 c26 85 73 115 98 126c41 19 74 24 103 24c93 0 142 -63 142 -105c0 -58 -52 -72 -73 -72c-33 0 -59 24 -65 35c-3 5 -6 14 -7 25l11 30c6 15 9 27 9 35c0 11 -9 16 -25 16z"/></g><g id="E088-nzgk6xt"><path transform="scale(1,-1)" d="M195 -214c76 0 88 58 90 68c0 34 -35 60 -57 73l-52 29c-21 10 -32 17 -34 20c-39 -33 -58 -54 -62 -92c5 -23 23 -98 115 -98zM301 135c0 61 -72 76 -113 76c-40 0 -77 -17 -77 -51c3 -21 15 -38 26 -50c17 -15 33 -26 48 -34l65 -28c34 27 51 56 51 87zM176 -250 c-57 0 -166 26 -166 132c0 47 30 86 89 116c-33 15 -79 60 -79 119c0 79 85 132 178 132h18c5 0 21 1 28 -1c25 0 126 -30 126 -110c0 -37 -23 -76 -69 -116c43 -25 83 -71 83 -119c0 -101 -118 -153 -208 -153z"/></g><g id="E0A3-nzgk6xt"><path transform="scale(1,-1)" d="M278 64c0 22 -17 39 -43 39c-12 0 -26 -3 -41 -10c-85 -43 -165 -94 -165 -156c5 -25 15 -32 49 -32c67 11 200 95 200 159zM0 -36c0 68 73 174 200 174c66 0 114 -39 114 -97c0 -84 -106 -173 -218 -173c-64 0 -96 32 -96 96z"/></g><g id="E4C0-nzgk6xt"><path transform="scale(1,-1)" d="M0 0c0 0 40 320 300 320s300 -320 300 -320h-32s-38 227 -268 227s-268 -227 -268 -227h-32zM355 52c0 -30 -25 -55 -55 -55s-55 25 -55 55s25 55 55 55s55 -25 55 -55z"/></g><g id="E07A-nzgk6xt"><path transform="scale(1,-1)" d="M343 -190c-18 -3 -37 -5 -59 -5c-46 0 -79 6 -101 16c-68 33 -117 72 -146 119c-20 34 -33 80 -37 137c0 5 -1 10 -1 15c0 42 12 86 35 132c23 44 51 82 86 115s75 65 119 98c-2 12 -7 36 -11 72c-3 33 -3 57 -3 69c0 91 12 134 53 200c26 42 50 63 69 63 c16 0 34 -23 54 -71s30 -90 32 -124v-11c0 -85 -16 -126 -52 -187c-10 -16 -49 -70 -76 -92c-10 -7 -20 -15 -29 -23l24 -140c6 1 14 1 22 1c45 0 79 -9 103 -27c46 -33 71 -81 76 -143c1 -5 1 -12 1 -17c0 -96 -68 -163 -141 -193c6 -44 14 -86 20 -126c4 -24 4 -45 4 -62 c0 -23 -3 -41 -10 -54c-27 -50 -69 -77 -123 -80c-4 0 -9 -1 -13 -1c-29 0 -56 8 -84 21c-39 19 -60 46 -62 82v8c0 23 6 43 16 59c14 22 35 32 61 34h5c38 0 72 -32 75 -67v-7c0 -40 -26 -67 -81 -83c13 -19 39 -28 79 -28c48 0 90 34 109 67c7 12 10 31 10 57 c0 16 -1 33 -4 52c-6 41 -14 83 -20 124zM358 730c-74 0 -105 -137 -105 -223c0 -19 2 -37 4 -55c39 30 72 64 99 100c31 41 46 77 46 108v7c-3 41 -16 63 -42 63h-2zM315 92l42 -253c57 19 86 61 86 125c0 5 0 12 -1 18c-5 74 -44 110 -117 110h-10zM297 91 c-56 -2 -100 -36 -100 -93v-6c2 -36 34 -77 59 -89c-2 -2 -6 -4 -8 -8c-54 26 -91 69 -96 134v8c0 53 35 98 69 124c18 13 37 23 60 28l-22 132c-16 -10 -41 -29 -72 -57c-39 -34 -66 -65 -84 -92c-35 -54 -52 -102 -52 -142v-10c4 -53 27 -99 72 -137s96 -56 157 -56 c19 0 40 2 59 7c-15 86 -28 172 -42 257z"/></g><g id="E0A4-nzgk6xt"><path transform="scale(1,-1)" d="M0 -39c0 68 73 172 200 172c66 0 114 -37 114 -95c0 -84 -106 -171 -218 -171c-64 0 -96 30 -96 94z"/></g><g id="E240-nzgk6xt"><path transform="scale(1,-1)" d="M179 -646c15 29 29 55 46 102c18 49 30 108 30 138c0 105 -80 173 -168 200c-18 5 -47 9 -87 16v190h22c8 0 33 -61 71 -95c4 -3 -2 3 61 -56c62 -58 122 -137 122 -241c0 -38 -13 -106 -35 -163c-20 -51 -43 -99 -66 -132c-6 -5 -10 -7 -13 -7s-5 2 -5 5l4 10 c1 3 14 25 18 33z"/></g></defs><style type="text/css">#nzgk6xt g.page-margin {font-family:Times,serif;}#nzgk6xt g.ending, #nzgk6xt g.fing, #nzgk6xt g.reh, #nzgk6xt g.tempo {font-weight:bold;}#nzgk6xt g.dir, #nzgk6xt g.dynam, #nzgk6xt g.mNum {font-style:italic;}#nzgk6xt g.label {font-weight:normal;}#nzgk6xt path {stroke:currentColor}</style><svg class="definition-scale" color="black" viewBox="0 0 14000 2100"><g class="page-margin" transform="translate(0, 150)"><g data-id="u1uoo1h3" data-class="mdiv" class="mdiv pageMilestone"/><g data-id="vkzbc0u" data-class="score" class="score pageMilestone"/><g data-id="b165wuhr" data-class="system" class="system"><g data-id="xz83r4c" data-class="section" class="section systemMilestone"/><g data-id="o1b2r4xs" data-class="measure" class="measure"><g data-id="j1gbzx5c" data-class="staff" class="staff"><path d="M0 540 L3320 540" stroke-width="13"/><path d="M0 720 L3320 720" stroke-width="13"/><path d="M0 900 L3320 900" stroke-width="13"/><path d="M0 1080 L3320 1080" stroke-width="13"/><path d="M0 1260 L3320 1260" stroke-width="13"/><g data-id="s1e1tox0" data-class="clef" class="clef"><use href="#E052-nzgk6xt" transform="translate(90, 1080) scale(0.72, 0.72)"/></g><g data-id="t1g7y2ot" data-class="keySig" class="keySig"><g data-id="u1o19fq7" data-class="keyAccid" class="keyAccid"><use href="#E262-nzgk6xt" transform="translate(735, 540) scale(0.72, 0.72)"/></g><g data-id="v5k2hot" data-class="keyAccid" class="keyAccid"><use href="#E262-nzgk6xt" transform="translate(913, 810) scale(0.72, 0.72)"/></g><g data-id="w1djuj6z" data-class="keyAccid" class="keyAccid"><use href="#E262-nzgk6xt" transform="translate(1091, 450) scale(0.72, 0.72)"/></g></g><g data-id="xwvgibp" data-class="meterSig" class="meterSig"><use href="#E086-nzgk6xt" transform="translate(1398, 720) scale(0.72, 0.72)"/><use href="#E088-nzgk6xt" transform="translate(1405, 1080) scale(0.72, 0.72)"/></g><g data-id="kh5e7f0" data-class="layer" class="layer"><g data-id="v3guh53" data-class="note" class="note"><g data-class="notehead" class="notehead"><use href="#E0A3-nzgk6xt" transform="translate(1965, 810) scale(0.72, 0.72)"/></g><g data-id="p5lysx4" data-class="dots" class="dots"><ellipse cx="2281" cy="810" rx="36" ry="36" fill-opacity="1" stroke-opacity="1"/></g><g data-id="oq06xoe" data-class="stem" class="stem"><path d="M1974 835 L1974 1440" stroke-width="18"/></g><g data-id="n1lffuoy" data-class="accid" class="accid"/></g></g></g><g data-id="w1eiw0gr" data-class="barLine" class="barLine"><path d="M3307 540 L3307 1260" stroke-width="27"/></g></g><g data-id="z1vf21c3" data-class="measure" class="measure"><g data-id="l1rxfuhm" data-class="staff" class="staff"><path d="M3320 540 L4863 540" stroke-width="13"/><path d="M3320 720 L4863 720" stroke-width="13"/><path d="M3320 900 L4863 900" stroke-width="13"/><path d="M3320 1080 L4863 1080" stroke-width="13"/><path d="M3320 1260 L4863 1260" stroke-width="13"/><g data-id="mswb3ww" data-class="layer" class="layer"><g data-id="w1irp1ga" data-class="note" class="note"><g data-class="notehead" class="notehead"><use href="#E0A3-nzgk6xt" transform="translate(3508, 630) scale(0.72, 0.72)"/></g><g data-id="r675gsu" data-class="dots" class="dots"><ellipse cx="3824" cy="630" rx="36" ry="36" fill-opacity="1" stroke-opacity="1"/></g><g data-id="q1opnppr" data-class="stem" class="stem"><path d="M3517 655 L3517 1260" stroke-width="18"/></g></g></g></g><g data-id="h1w3jrmm" data-class="barLine" class="barLine"><path d="M4850 540 L4850 1260" stroke-width="27"/></g></g><g data-id="ik0uoew" data-class="measure" class="measure"><g data-id="n13tmexs" data-class="staff" class="staff"><path d="M4863 540 L6406 540" stroke-width="13"/><path d="M4863 720 L6406 720" stroke-width="13"/><path d="M4863 900 L6406 900" stroke-width="13"/><path d="M4863 1080 L6406 1080" stroke-width="13"/><path d="M4863 1260 L6406 1260" stroke-width="13"/><g data-id="o118my0m" data-class="layer" class="layer"><g data-id="xfmpgc3" data-class="note" class="note"><g data-class="notehead" class="notehead"><use href="#E0A3-nzgk6xt" transform="translate(5051, 810) scale(0.72, 0.72)"/></g><g data-id="tjcxmwo" data-class="dots" class="dots"><ellipse cx="5367" cy="810" rx="36" ry="36" fill-opacity="1" stroke-opacity="1"/></g><g data-id="sl54z4i" data-class="stem" class="stem"><path d="M5060 835 L5060 1440" stroke-width="18"/></g><g data-id="odsdnsz" data-class="accid" class="accid"/></g></g></g><g data-id="l1wfwd6s" data-class="fermata" class="fermata"><use href="#E4C0-nzgk6xt" transform="translate(4948, 493) scale(0.72, 0.72)"/></g><g data-id="qq6tc8k" data-class="barLine" class="barLine"><path d="M6393 540 L6393 1260" stroke-width="27"/></g></g><g data-id="r17cnnul" data-class="measure" class="measure"><g data-id="puwm534" data-class="staff" class="staff"><path d="M6406 540 L9669 540" stroke-width="13"/><path d="M6406 720 L9669 720" stroke-width="13"/><path d="M6406 900 L9669 900" stroke-width="13"/><path d="M6406 1080 L9669 1080" stroke-width="13"/><path d="M6406 1260 L9669 1260" stroke-width="13"/><g data-id="q1rntmgk" data-class="layer" class="layer"><g data-id="x1b988q8" data-class="clef" class="clef"><use href="#E07A-nzgk6xt" transform="translate(6520, 1080) scale(0.72, 0.72)"/></g><g data-id="y3zvn72" data-class="note" class="note"><g data-class="notehead" class="notehead"><use href="#E0A3-nzgk6xt" transform="translate(6972, 990) scale(0.72, 0.72)"/></g><g data-id="vg2p8xk" data-class="dots" class="dots"><ellipse cx="7288" cy="990" rx="36" ry="36" fill-opacity="1" stroke-opacity="1"/></g><g data-id="u1olffbq" data-class="stem" class="stem"><path d="M7189 962 L7189 360" stroke-width="18"/></g></g><g data-id="zobuw48" data-class="note" class="note"><g data-class="notehead" class="notehead"><use href="#E0A3-nzgk6xt" transform="translate(8314, 900) scale(0.72, 0.72)"/></g><g data-id="x1i65rnf" data-class="dots" class="dots"><ellipse cx="8630" cy="810" rx="36" ry="36" fill-opacity="1" stroke-opacity="1"/></g><g data-id="w15im5ah" data-class="stem" class="stem"><path d="M8323 925 L8323 1500" stroke-width="18"/></g></g></g></g><g data-id="z12w67uj" data-class="barLine" class="barLine"><path d="M9656 540 L9656 1260" stroke-width="27"/></g></g><g data-id="ateuk6h" data-class="measure" class="measure"><g data-id="r1jk2vxk" data-class="staff" class="staff"><path d="M9669 540 L11212 540" stroke-width="13"/><path d="M9669 720 L11212 720" stroke-width="13"/><path d="M9669 900 L11212 900" stroke-width="13"/><path d="M9669 1080 L11212 1080" stroke-width="13"/><path d="M9669 1260 L11212 1260" stroke-width="13"/><g data-id="s10cqj61" data-class="layer" class="layer"><g data-id="afbj5qf" data-class="note" class="note"><g data-class="notehead" class="notehead"><use href="#E0A3-nzgk6xt" transform="translate(9857, 810) scale(0.72, 0.72)"/></g><g data-id="zd24v5d" data-class="dots" class="dots"><ellipse cx="10173" cy="810" rx="36" ry="36" fill-opacity="1" stroke-opacity="1"/></g><g data-id="y22gar0" data-class="stem" class="stem"><path d="M9866 835 L9866 1440" stroke-width="18"/></g><g data-id="p1cz9lkj" data-class="accid" class="accid"/></g></g></g><g data-id="mgfpkfr" data-class="fermata" class="fermata"><use href="#E4C0-nzgk6xt" transform="translate(9754, 493) scale(0.72, 0.72)"/></g><g data-id="i1e893ny" data-class="barLine" class="barLine"><path d="M11199 540 L11199 1260" stroke-width="27"/></g></g><g data-id="jgabb4p" data-class="measure" class="measure"><g data-id="t13f6zs0" data-class="staff" class="staff"><path d="M11212 540 L14003 540" stroke-width="13"/><path d="M11212 720 L14003 720" stroke-width="13"/><path d="M11212 900 L14003 900" stroke-width="13"/><path d="M11212 1080 L14003 1080" stroke-width="13"/><path d="M11212 1260 L14003 1260" stroke-width="13"/><g data-id="u12aa72t" data-class="layer" class="layer"><g data-id="y11c8a7o" data-class="clef" class="clef"><use href="#E052-nzgk6xt" transform="translate(11331, 1080) scale(0.72, 0.72)"/></g><g data-id="b122oa4g" data-class="note" class="note"><g data-class="notehead" class="notehead"><use href="#E0A4-nzgk6xt" transform="translate(11886, 1260) scale(0.72, 0.72)"/></g><g data-id="b1i1sa0w" data-class="dots" class="dots"><ellipse cx="12202" cy="1170" rx="36" ry="36" fill-opacity="1" stroke-opacity="1"/></g><g data-id="a3tocde" data-class="stem" class="stem"><path d="M12103 1232 L12103 630" stroke-width="18"/></g></g><g data-id="c5ccj1q" data-class="note" class="note"><g data-class="notehead" class="notehead"><use href="#E0A4-nzgk6xt" transform="translate(12767, 1170) scale(0.72, 0.72)"/></g><g data-id="c1glsg3h" data-class="stem" class="stem"><path d="M12984 1142 L12984 540" stroke-width="18"/></g><g data-id="q8out5c" data-class="accid" class="accid"/></g><g data-id="d148tlqb" data-class="note" class="note"><g data-class="notehead" class="notehead"><use href="#E0A4-nzgk6xt" transform="translate(13457, 1170) scale(0.72, 0.72)"/></g><g data-id="d1vgguj0" data-class="stem" class="stem"><path d="M13674 1142 L13674 540" stroke-width="18"/><g data-id="e26nm96" data-class="flag" class="flag"><use href="#E240-nzgk6xt" transform="translate(13665, 540) scale(0.72, 0.72)"/></g></g><g data-id="r7wqcnf" data-class="accid" class="accid"/></g></g></g><g data-id="rgorwlb" data-class="barLine" class="barLine"><path d="M13990 540 L13990 1260" stroke-width="27"/></g></g></g></g></svg></svg>