<svg viewBox="0 0 560 84" version="1.1" xmlns="http://www.w3.org/2000/svg" xmlns:xlink="http://www.w3.org/1999/xlink" overflow="visible" id="a6dalq5"><desc>Engraved by Verovio 5.6.0-85e7620</desc><defs><g id="E050-a6dalq5"><path transform="scale(1,-1)" d="M441 -245c-23 -4 -48 -6 -76 -6c-59 0 -102 7 -130 20c-88 42 -150 93 -187 154c-26 44 -43 103 -48 176c0 6 -1 13 -1 19c0 54 15 111 45 170c29 57 65 106 110 148s96 85 153 127c-3 16 -8 46 -13 92c-4 43 -5 73 -5 89c0 117 16 172 69 257c34 54 64 82 89 82 c21 0 43 -30 69 -92s39 -115 41 -159v-15c0 -109 -21 -162 -67 -241c-13 -20 -63 -90 -98 -118c-13 -9 -25 -19 -37 -29l31 -181c8 1 18 2 28 2c58 0 102 -12 133 -35c59 -43 92 -104 98 -184c1 -7 1 -15 1 -22c0 -123 -87 -209 -181 -248c8 -57 17 -110 25 -162 c5 -31 6 -58 6 -80c0 -30 -5 -53 -14 -70c-35 -64 -88 -99 -158 -103c-5 0 -11 -1 -16 -1c-37 0 -72 10 -108 27c-50 24 -77 59 -80 105v11c0 29 7 55 20 76c18 28 45 42 79 44h6c49 0 93 -42 97 -87v-9c0 -51 -34 -86 -105 -106c17 -24 51 -36 102 -36c62 0 116 43 140 85 c9 16 13 41 13 74c0 20 -1 42 -5 67c-8 53 -18 106 -26 159zM461 939c-95 0 -135 -175 -135 -286c0 -24 2 -48 5 -71c50 39 92 82 127 128c40 53 60 100 60 140v8c-4 53 -22 81 -55 81h-2zM406 119l54 -326c73 25 110 78 110 161c0 7 0 15 -1 23c-7 95 -57 142 -151 142h-12 zM382 117c-72 -2 -128 -47 -128 -120v-7c2 -46 43 -99 75 -115c-3 -2 -7 -5 -10 -10c-70 33 -116 88 -123 172v11c0 68 44 126 88 159c23 17 49 29 78 36l-29 170c-21 -13 -52 -37 -92 -73c-50 -44 -86 -84 -109 -119c-45 -69 -67 -130 -67 -182v-13c5 -68 35 -127 93 -176 s125 -73 203 -73c25 0 50 3 75 9c-19 111 -36 221 -54 331z"/></g><g id="E262-a6dalq5"><path transform="scale(1,-1)" d="M136 186v169h17v-164l44 14v-91l-44 -14v-165l44 12v-91l-44 -13v-155h-17v150l-76 -22v-155h-17v149l-43 -13v90l43 14v167l-43 -14v92l43 13v169h17v-163zM60 73v-167l76 22v168z"/></g><g id="E082-a6dalq5"><path transform="scale(1,-1)" d="M124 -185c-18 0 -55 -14 -65 -65h-36l-3 30c0 25 6 45 18 63c11 19 22 30 39 43l121 82l37 29c15 11 27 29 38 54c12 24 18 47 18 70c0 40 -19 88 -94 88c-25 0 -32 0 -50 -8c-14 -5 -23 -12 -26 -22c3 -9 7 -15 10 -18l24 -17c12 -7 17 -11 27 -21c5 -7 7 -16 7 -27 c0 -12 0 -57 -79 -74c-30 0 -76 26 -76 94c0 66 81 135 197 135c72 0 181 -32 181 -150c0 -53 -32 -95 -113 -133l-91 -41c-26 -11 -45 -23 -57 -37l49 7c84 0 115 -41 148 -41c20 0 33 20 39 61h35c0 -152 -68 -168 -114 -168c-17 0 -65 0 -79 7h10l-28 17 c-49 37 -69 40 -87 42z"/></g><g id="E084-a6dalq5"><path transform="scale(1,-1)" d="M20 -78c84 97 114 180 134 329h170c-13 -32 -82 -132 -99 -151l-84 -97c-33 -36 -59 -63 -80 -81h162v102l127 123v-225h57v-39h-57v-34c0 -43 19 -65 57 -65v-34h-244v36c48 0 60 26 60 70v27h-203v39z"/></g><g id="E0A4-a6dalq5"><path transform="scale(1,-1)" d="M0 -39c0 68 73 172 200 172c66 0 114 -37 114 -95c0 -84 -106 -171 -218 -171c-64 0 -96 30 -96 94z"/></g></defs><style type="text/css">#a6dalq5 g.page-margin {font-family:Times,serif;}#a6dalq5 g.ending, #a6dalq5 g.fing, #a6dalq5 g.reh, #a6dalq5 g.tempo {font-weight:bold;}#a6dalq5 g.dir, #a6dalq5 g.dynam, #a6dalq5 g.mNum {font-style:italic;}#a6dalq5 g.label {font-weight:normal;}#a6dalq5 path {stroke:currentColor}</style><svg class="definition-scale" color="black" viewBox="0 0 14000 2100"><g class="page-margin" transform="translate(0, 150)"><g data-id="u79c3vv" data-class="mdiv" class="mdiv pageMilestone"/><g data-id="v1rpl0qe" data-class="score" class="score pageMilestone"/><g data-id="g1yhodm3" data-class="system" class="system"><g data-id="x12gl5ky" data-class="section" class="section systemMilestone"/><g data-id="b1oehleg" data-class="measure" class="measure"><g data-id="j20lhyu" data-class="staff" class="staff"><path d="M0 540 L3746 540" stroke-width="13"/><path d="M0 720 L3746 720" stroke-width="13"/><path d="M0 900 L3746 900" stroke-width="13"/><path d="M0 1080 L3746 1080" stroke-width="13"/><path d="M0 1260 L3746 1260" stroke-width="13"/><g data-id="n1jrthvx" data-class="clef" class="clef"><use href="#E050-a6dalq5" transform="translate(90, 1080) scale(0.72, 0.72)"/></g><g data-id="o12tk8c2" data-class="keySig" class="keySig"><g data-id="pcyrm18" data-class="keyAccid" class="keyAccid"><use href="#E262-a6dalq5" transform="translate(735, 540) scale(0.72, 0.72)"/></g></g><g data-id="q151lkec" data-class="meterSig" class="meterSig"><use href="#E082-a6dalq5" transform="translate(1042, 720) scale(0.72, 0.72)"/><use href="#E084-a6dalq5" transform="translate(1047, 1080) scale(0.72, 0.72)"/></g><g data-class="ledgerLines" class="ledgerLines above"><g data-class="lineDash" class="lineDash" data-related="#c1p0nl96"><path d="M1567 360 L1889 360" stroke-width="22"/></g><g data-class="lineDash" class="lineDash" data-related="#d11q4r1l"><path d="M2017 360 L2339 360" stroke-width="22"/></g><g data-class="lineDash" class="lineDash" data-related="#e1lddgd5"><path d="M2477 360 L2763 360" stroke-width="22"/></g><g data-class="lineDash" class="lineDash" data-related="#f1wmxlx"><path d="M2793 360 L3079 360" stroke-width="22"/></g><g data-class="lineDash" class="lineDash" data-related="#g1la4o72"><path d="M3355 360 L3677 360" stroke-width="22"/></g></g><g data-id="k12mmvgo" data-class="layer" class="layer"><g data-id="n1m702yb" data-class="beam" class="beam"><polygon stroke-opacity="1" fill-opacity="1" points="1615,1080 2525,1080 2525,990 1615,990"/><polygon stroke-opacity="1" fill-opacity="1" points="2074,945 2525,945 2525,855 2074,855"/><polygon stroke-opacity="1" fill-opacity="1" points="2299,810 2525,810 2525,720 2299,720"/><g data-id="c1p0nl96" data-class="note" class="note"><g data-class="notehead" class="notehead"><use href="#E0A4-a6dalq5" transform="translate(1615, 270) scale(0.72, 0.72)"/></g><g data-id="ay0pxi2" data-class="stem" class="stem"><path d="M1624 298 L1624 1062" stroke-width="18"/></g></g><g data-id="d11q4r1l" data-class="note" class="note"><g data-class="notehead" class="notehead"><use href="#E0A4-a6dalq5" transform="translate(2065, 270) scale(0.72, 0.72)"/></g><g data-id="c1dlxbf4" data-class="dots" class="dots"><ellipse cx="2381" cy="270" rx="36" ry="36" fill-opacity="1" stroke-opacity="1"/></g><g data-id="blsn5l5" data-class="stem" class="stem"><path d="M2074 298 L2074 1062" stroke-width="18"/></g></g><g data-id="e1lddgd5" data-class="note" class="note"><g data-class="notehead" class="notehead"><use href="#E0A4-a6dalq5" transform="translate(2507, 270) scale(0.72, 0.72)"/></g><g data-id="dh8rztq" data-class="stem" class="stem"><path d="M2516 298 L2516 1062" stroke-width="18"/></g></g></g><g data-id="obona64" data-class="beam" class="beam"><polygon stroke-opacity="1" fill-opacity="1" points="2823,900 3421,990 3421,900 2823,810"/><polygon stroke-opacity="1" fill-opacity="1" points="3195,822 3421,855 3421,765 3195,732"/><g data-id="f1wmxlx" data-class="note" class="note"><g data-class="notehead" class="notehead"><use href="#E0A4-a6dalq5" transform="translate(2823, 270) scale(0.72, 0.72)"/></g><g data-id="f1bmodqa" data-class="dots" class="dots"><ellipse cx="3139" cy="270" rx="36" ry="36" fill-opacity="1" stroke-opacity="1"/></g><g data-id="e1plyr28" data-class="stem" class="stem"><path d="M2832 298 L2832 882" stroke-width="18"/></g></g><g data-id="g1la4o72" data-class="note" class="note"><g data-class="notehead" class="notehead"><use href="#E0A4-a6dalq5" transform="translate(3403, 360) scale(0.72, 0.72)"/></g><g data-id="gwcfa5q" data-class="stem" class="stem"><path d="M3412 388 L3412 972" stroke-width="18"/></g></g></g></g></g><g data-id="j15r24xv" data-class="barLine" class="barLine"><path d="M3733 540 L3733 1260" stroke-width="27"/></g></g><g data-id="kgsyc31" data-class="measure" class="measure"><g data-id="lrxxbwi" data-class="staff" class="staff"><path d="M3746 540 L5787 540" stroke-width="13"/><path d="M3746 720 L5787 720" stroke-width="13"/><path d="M3746 900 L5787 900" stroke-width="13"/><path d="M3746 1080 L5787 1080" stroke-width="13"/><path d="M3746 1260 L5787 1260" stroke-width="13"/><g data-id="m1w8tg84" data-class="layer" class="layer"><g data-id="pjg5hny" data-class="beam" class="beam"><polygon stroke-opacity="1" fill-opacity="1" points="3926,1080 4524,1170 4524,1080 3926,990"/><polygon stroke-opacity="1" fill-opacity="1" points="4298,1002 4524,1035 4524,945 4298,912"/><g data-id="h1flg9xt" data-class="note" class="note"><g data-class="notehead" class="notehead"><use href="#E0A4-a6dalq5" transform="translate(3926, 450) scale(0.72, 0.72)"/></g><g data-id="iyp7r71" data-class="dots" class="dots"><ellipse cx="4242" cy="450" rx="36" ry="36" fill-opacity="1" stroke-opacity="1"/></g><g data-id="h1gaeswh" data-class="stem" class="stem"><path d="M3935 478 L3935 1062" stroke-width="18"/></g></g><g data-id="i1yfozz" data-class="note" class="note"><g data-class="notehead" class="notehead"><use href="#E0A4-a6dalq5" transform="translate(4506, 540) scale(0.72, 0.72)"/></g><g data-id="j5jwo8a" data-class="stem" class="stem"><path d="M4515 568 L4515 1152" stroke-width="18"/></g><g data-id="r1vok6ob" data-class="accid" class="accid"/></g></g><g data-id="q110vafa" data-class="beam" class="beam"><polygon stroke-opacity="1" fill-opacity="1" points="4822,1350 5342,1395 5342,1305 4822,1260"/><g data-id="j1i1bbi1" data-class="note" class="note"><g data-class="notehead" class="notehead"><use href="#E0A4-a6dalq5" transform="translate(4822, 630) scale(0.72, 0.72)"/></g><g data-id="kj0941q" data-class="stem" class="stem"><path d="M4831 658 L4831 1332" stroke-width="18"/></g></g><g data-id="kd6bu8y" data-class="note" class="note"><g data-class="notehead" class="notehead"><use href="#E0A4-a6dalq5" transform="translate(5324, 720) scale(0.72, 0.72)"/></g><g data-id="l13tn7te" data-class="stem" class="stem"><path d="M5333 748 L5333 1377" stroke-width="18"/></g><g data-id="m12g9bzy" data-class="accid" class="accid"><use href="#E262-a6dalq5" transform="translate(5138, 720) scale(0.72, 0.72)"/></g></g></g></g></g><g data-id="s13yckyz" data-class="barLine" class="barLine"><path d="M5774 540 L5774 1260" stroke-width="27"/></g></g><g data-id="todufdd" data-class="measure" class="measure"><g data-id="n16e62gr" data-class="staff" class="staff"><path d="M5787 540 L6657 540" stroke-width="13"/><path d="M5787 720 L6657 720" stroke-width="13"/><path d="M5787 900 L6657 900" stroke-width="13"/><path d="M5787 1080 L6657 1080" stroke-width="13"/><path d="M5787 1260 L6657 1260" stroke-width="13"/><g data-id="o8aapj7" data-class="layer" class="layer"><g data-id="l1sjg26k" data-class="note" class="note"><g data-class="notehead" class="notehead"><use href="#E0A4-a6dalq5" transform="translate(5967, 540) scale(0.72, 0.72)"/></g><g data-id="mf8huyq" data-class="stem" class="stem"><path d="M5976 568 L5976 1170" stroke-width="18"/></g><g data-id="s9bz8r3" data-class="accid" class="accid"/></g></g></g><g data-id="b1tqoz1n" data-class="barLine" class="barLine"/></g><g data-id="w1kk9tq6" data-class="systemMilestoneEnd" class="systemMilestoneEnd x12gl5ky"/></g><g data-id="xj2fira" data-class="pageMilestoneEnd" class="pageMilestoneEnd v1rpl0qe"/><g data-id="ygrnabr" data-class="pageMilestoneEnd" class="pageMilestoneEnd u79c3vv"/></g></svg></svg>