<svg viewBox="0 0 560 84" version="1.1" xmlns="http://www.w3.org/2000/svg" xmlns:xlink="http://www.w3.org/1999/xlink" overflow="visible" id="p1sijxt"><desc>Engraved by Verovio 5.6.0-85e7620</desc><defs><g id="E050-p1sijxt"><path transform="scale(1,-1)" d="M441 -245c-23 -4 -48 -6 -76 -6c-59 0 -102 7 -130 20c-88 42 -150 93 -187 154c-26 44 -43 103 -48 176c0 6 -1 13 -1 19c0 54 15 111 45 170c29 57 65 106 110 148s96 85 153 127c-3 16 -8 46 -13 92c-4 43 -5 73 -5 89c0 117 16 172 69 257c34 54 64 82 89 82 c21 0 43 -30 69 -92s39 -115 41 -159v-15c0 -109 -21 -162 -67 -241c-13 -20 -63 -90 -98 -118c-13 -9 -25 -19 -37 -29l31 -181c8 1 18 2 28 2c58 0 102 -12 133 -35c59 -43 92 -104 98 -184c1 -7 1 -15 1 -22c0 -123 -87 -209 -181 -248c8 -57 17 -110 25 -162 c5 -31 6 -58 6 -80c0 -30 -5 -53 -14 -70c-35 -64 -88 -99 -158 -103c-5 0 -11 -1 -16 -1c-37 0 -72 10 -108 27c-50 24 -77 59 -80 105v11c0 29 7 55 20 76c18 28 45 42 79 44h6c49 0 93 -42 97 -87v-9c0 -51 -34 -86 -105 -106c17 -24 51 -36 102 -36c62 0 116 43 140 85 c9 16 13 41 13 74c0 20 -1 42 -5 67c-8 53 -18 106 -26 159zM461 939c-95 0 -135 -175 -135 -286c0 -24 2 -48 5 -71c50 39 92 82 127 128c40 53 60 100 60 140v8c-4 53 -22 81 -55 81h-2zM406 119l54 -326c73 25 110 78 110 161c0 7 0 15 -1 23c-7 95 -57 142 -151 142h-12 zM382 117c-72 -2 -128 -47 -128 -120v-7c2 -46 43 -99 75 -115c-3 -2 -7 -5 -10 -10c-70 33 -116 88 -123 172v11c0 68 44 126 88 159c23 17 49 29 78 36l-29 170c-21 -13 -52 -37 -92 -73c-50 -44 -86 -84 -109 -119c-45 -69 -67 -130 -67 -182v-13c5 -68 35 -127 93 -176 s125 -73 203 -73c25 0 50 3 75 9c-19 111 -36 221 -54 331z"/></g><g id="E262-p1sijxt"><path transform="scale(1,-1)" d="M136 186v169h17v-164l44 14v-91l-44 -14v-165l44 12v-91l-44 -13v-155h-17v150l-76 -22v-155h-17v149l-43 -13v90l43 14v167l-43 -14v92l43 13v169h17v-163zM60 73v-167l76 22v168z"/></g><g id="E08A-p1sijxt"><path transform="scale(1,-1)" d="M340 179c-9 24 -56 41 -89 41c-46 0 -81 -28 -100 -58c-17 -28 -25 -78 -25 -150c0 -65 2 -111 8 -135c8 -31 18 -49 40 -67c20 -17 43 -25 70 -25c54 0 92 36 115 75c14 25 23 54 28 88h27c0 -63 -24 -105 -58 -141c-35 -38 -82 -56 -140 -56c-45 0 -83 13 -115 39 c-57 45 -101 130 -101 226c0 59 33 127 68 163c36 37 97 72 160 72c36 0 93 -21 121 -40c11 -8 23 -17 33 -30c19 -23 27 -48 27 -76c0 -51 -35 -88 -86 -88c-43 0 -76 27 -76 68c0 26 7 35 21 51c15 17 32 27 58 32c7 2 14 7 14 11z"/></g><g id="E4E6-p1sijxt"><path transform="scale(1,-1)" d="M0 123c7 34 33 56 69 60c29 -3 43 -9 53 -29c4 -8 7 -15 10 -22c0 -21 -1 -25 -11 -35c-5 -8 -18 -14 -40 -20l12 -3l15 -1c44 0 97 26 122 56c10 11 18 26 24 42c7 1 15 2 22 3l-140 -424h-36l111 330c-10 -6 -27 -12 -53 -16l-52 -8h-10l-20 1c-1 0 -8 3 -21 6 c-37 9 -55 28 -55 60z"/></g><g id="E0A4-p1sijxt"><path transform="scale(1,-1)" d="M0 -39c0 68 73 172 200 172c66 0 114 -37 114 -95c0 -84 -106 -171 -218 -171c-64 0 -96 30 -96 94z"/></g><g id="E241-p1sijxt"><path transform="scale(1,-1)" d="M179 646c-4 8 -17 30 -18 33l-4 10c0 3 2 5 5 5s7 -2 13 -7c23 -33 46 -81 66 -132c22 -57 35 -125 35 -163c0 -104 -60 -183 -122 -241c-63 -59 -57 -53 -61 -56c-38 -34 -63 -95 -71 -95h-22v190c40 7 69 11 87 16c88 27 168 95 168 200c0 30 -12 89 -30 138 c-17 47 -31 73 -46 102z"/></g><g id="E240-p1sijxt"><path transform="scale(1,-1)" d="M179 -646c15 29 29 55 46 102c18 49 30 108 30 138c0 105 -80 173 -168 200c-18 5 -47 9 -87 16v190h22c8 0 33 -61 71 -95c4 -3 -2 3 61 -56c62 -58 122 -137 122 -241c0 -38 -13 -106 -35 -163c-20 -51 -43 -99 -66 -132c-6 -5 -10 -7 -13 -7s-5 2 -5 5l4 10 c1 3 14 25 18 33z"/></g></defs><style type="text/css">#p1sijxt g.page-margin {font-family:Times,serif;}#p1sijxt g.ending, #p1sijxt g.fing, #p1sijxt g.reh, #p1sijxt g.tempo {font-weight:bold;}#p1sijxt g.dir, #p1sijxt g.dynam, #p1sijxt g.mNum {font-style:italic;}#p1sijxt g.label {font-weight:normal;}#p1sijxt path {stroke:currentColor}</style><svg class="definition-scale" color="black" viewBox="0 0 14000 2100"><g class="page-margin" transform="translate(0, 150)"><g data-id="i1roiji3" data-class="mdiv" class="mdiv pageMilestone"/><g data-id="j11c0zn9" data-class="score" class="score pageMilestone"/><g data-id="o2jgrpg" data-class="system" class="system"><g data-id="l1bchhdf" data-class="section" class="section systemMilestone"/><g data-id="q12a16em" data-class="measure" class="measure"><g data-id="xktua11" data-class="staff" class="staff"><path d="M0 540 L3137 540" stroke-width="13"/><path d="M0 720 L3137 720" stroke-width="13"/><path d="M0 900 L3137 900" stroke-width="13"/><path d="M0 1080 L3137 1080" stroke-width="13"/><path d="M0 1260 L3137 1260" stroke-width="13"/><g data-id="o1khelli" data-class="clef" class="clef"><use href="#E050-p1sijxt" transform="translate(90, 1080) scale(0.72, 0.72)"/></g><g data-id="p7p9eno" data-class="keySig" class="keySig"><g data-id="q1kr5pi1" data-class="keyAccid" class="keyAccid"><use href="#E262-p1sijxt" transform="translate(735, 540) scale(0.72, 0.72)"/></g><g data-id="r246ax6" data-class="keyAccid" class="keyAccid"><use href="#E262-p1sijxt" transform="translate(913, 810) scale(0.72, 0.72)"/></g></g><g data-id="s5zr7p0" data-class="meterSig" class="meterSig"><use href="#E08A-p1sijxt" transform="translate(1234, 900) scale(0.72, 0.72)"/></g><g data-id="yeol474" data-class="layer" class="layer"><g data-id="j146660a" data-class="rest" class="rest"><use href="#E4E6-p1sijxt" transform="translate(1819, 900) scale(0.72, 0.72)"/></g><g data-id="yb8myn0" data-class="note" class="note"><g data-class="notehead" class="notehead"><use href="#E0A4-p1sijxt" transform="translate(2472, 540) scale(0.72, 0.72)"/></g><g data-id="tss7rfb" data-class="stem" class="stem"><path d="M2481 568 L2481 1170" stroke-width="18"/><g data-id="u1x8qtb7" data-class="flag" class="flag"><use href="#E241-p1sijxt" transform="translate(2472, 1170) scale(0.72, 0.72)"/></g></g><g data-id="w1d7wg6y" data-class="accid" class="accid"/></g></g></g><g data-id="y1uvs0q4" data-class="barLine" class="barLine"><path d="M3124 540 L3124 1260" stroke-width="27"/></g></g><g data-id="zaskq8g" data-class="measure" class="measure"><g data-id="z1npkhdg" data-class="staff" class="staff"><path d="M3137 540 L8569 540" stroke-width="13"/><path d="M3137 720 L8569 720" stroke-width="13"/><path d="M3137 900 L8569 900" stroke-width="13"/><path d="M3137 1080 L8569 1080" stroke-width="13"/><path d="M3137 1260 L8569 1260" stroke-width="13"/><g data-id="av0qjwk" data-class="layer" class="layer"><g data-id="ktpwdc6" data-class="rest" class="rest"><use href="#E4E6-p1sijxt" transform="translate(3334, 900) scale(0.72, 0.72)"/></g><g data-id="zo4tobw" data-class="note" class="note"><g data-class="notehead" class="notehead"><use href="#E0A4-p1sijxt" transform="translate(3987, 720) scale(0.72, 0.72)"/></g><g data-id="vdmhzvz" data-class="stem" class="stem"><path d="M3996 748 L3996 1350" stroke-width="18"/><g data-id="w1dpd6gh" data-class="flag" class="flag"><use href="#E241-p1sijxt" transform="translate(3987, 1350) scale(0.72, 0.72)"/></g></g></g><g data-id="lp36tpz" data-class="rest" class="rest"><use href="#E4E6-p1sijxt" transform="translate(4639, 900) scale(0.72, 0.72)"/></g><g data-id="at3aj1v" data-class="note" class="note"><g data-class="notehead" class="notehead"><use href="#E0A4-p1sijxt" transform="translate(5292, 810) scale(0.72, 0.72)"/></g><g data-id="xesbdy2" data-class="stem" class="stem"><path d="M5301 838 L5301 1440" stroke-width="18"/><g data-id="yny5cbc" data-class="flag" class="flag"><use href="#E241-p1sijxt" transform="translate(5292, 1440) scale(0.72, 0.72)"/></g></g><g data-id="xkzxy3l" data-class="accid" class="accid"/></g><g data-id="mqkyc6m" data-class="rest" class="rest"><use href="#E4E6-p1sijxt" transform="translate(5945, 900) scale(0.72, 0.72)"/></g><g data-id="bj7goaz" data-class="note" class="note"><g data-class="notehead" class="notehead"><use href="#E0A4-p1sijxt" transform="translate(6598, 630) scale(0.72, 0.72)"/></g><g data-id="zdaizye" data-class="stem" class="stem"><path d="M6607 658 L6607 1260" stroke-width="18"/><g data-id="a4b8jo2" data-class="flag" class="flag"><use href="#E241-p1sijxt" transform="translate(6598, 1260) scale(0.72, 0.72)"/></g></g></g><g data-id="n16dp70h" data-class="rest" class="rest"><use href="#E4E6-p1sijxt" transform="translate(7250, 900) scale(0.72, 0.72)"/></g><g data-id="ckmq96m" data-class="note" class="note"><g data-class="notehead" class="notehead"><use href="#E0A4-p1sijxt" transform="translate(7903, 810) scale(0.72, 0.72)"/></g><g data-id="b14bu84g" data-class="stem" class="stem"><path d="M7912 838 L7912 1440" stroke-width="18"/><g data-id="c14jblda" data-class="flag" class="flag"><use href="#E241-p1sijxt" transform="translate(7903, 1440) scale(0.72, 0.72)"/></g></g><g data-id="y1rinijb" data-class="accid" class="accid"/></g></g></g><g data-id="h1aqyjy7" data-class="barLine" class="barLine"><path d="M8556 540 L8556 1260" stroke-width="27"/></g></g><g data-id="i14mrjkl" data-class="measure" class="measure"><g data-id="b2tzb14" data-class="staff" class="staff"><path d="M8569 540 L14001 540" stroke-width="13"/><path d="M8569 720 L14001 720" stroke-width="13"/><path d="M8569 900 L14001 900" stroke-width="13"/><path d="M8569 1080 L14001 1080" stroke-width="13"/><path d="M8569 1260 L14001 1260" stroke-width="13"/><g data-id="cliauk1" data-class="layer" class="layer"><g data-id="o5nlzhu" data-class="rest" class="rest"><use href="#E4E6-p1sijxt" transform="translate(8766, 900) scale(0.72, 0.72)"/></g><g data-id="dc71kkl" data-class="note" class="note"><g data-class="notehead" class="notehead"><use href="#E0A4-p1sijxt" transform="translate(9419, 990) scale(0.72, 0.72)"/></g><g data-id="dxkyfag" data-class="stem" class="stem"><path d="M9636 962 L9636 360" stroke-width="18"/><g data-id="e8zo63c" data-class="flag" class="flag"><use href="#E240-p1sijxt" transform="translate(9627, 360) scale(0.72, 0.72)"/></g></g><g data-id="r2jz199" data-class="accid" class="accid"><use href="#E262-p1sijxt" transform="translate(9233, 990) scale(0.72, 0.72)"/></g></g><g data-id="p1g2e6v7" data-class="rest" class="rest"><use href="#E4E6-p1sijxt" transform="translate(10071, 900) scale(0.72, 0.72)"/></g><g data-id="e1r7x2x3" data-class="note" class="note"><g data-class="notehead" class="notehead"><use href="#E0A4-p1sijxt" transform="translate(10724, 810) scale(0.72, 0.72)"/></g><g data-id="f6liyqc" data-class="stem" class="stem"><path d="M10733 838 L10733 1440" stroke-width="18"/><g data-id="g1pyipuh" data-class="flag" class="flag"><use href="#E241-p1sijxt" transform="translate(10724, 1440) scale(0.72, 0.72)"/></g></g><g data-id="z1bktfz6" data-class="accid" class="accid"/></g><g data-id="q16q7tar" data-class="rest" class="rest"><use href="#E4E6-p1sijxt" transform="translate(11377, 900) scale(0.72, 0.72)"/></g><g data-id="f1077e6c" data-class="note" class="note"><g data-class="notehead" class="notehead"><use href="#E0A4-p1sijxt" transform="translate(12030, 1170) scale(0.72, 0.72)"/></g><g data-id="hv3xkvs" data-class="stem" class="stem"><path d="M12247 1142 L12247 540" stroke-width="18"/><g data-id="i19iwdea" data-class="flag" class="flag"><use href="#E240-p1sijxt" transform="translate(12238, 540) scale(0.72, 0.72)"/></g></g><g data-id="a1fcqe3l" data-class="accid" class="accid"/></g><g data-id="rkxnq8b" data-class="rest" class="rest"><use href="#E4E6-p1sijxt" transform="translate(12682, 900) scale(0.72, 0.72)"/></g><g data-id="gkp5pnq" data-class="note" class="note"><g data-class="notehead" class="notehead"><use href="#E0A4-p1sijxt" transform="translate(13335, 1260) scale(0.72, 0.72)"/></g><g data-id="j1lud8zd" data-class="stem" class="stem"><path d="M13552 1232 L13552 630" stroke-width="18"/><g data-id="k1fkddnq" data-class="flag" class="flag"><use href="#E240-p1sijxt" transform="translate(13543, 630) scale(0.72, 0.72)"/></g></g></g></g></g><g data-id="q1snpo4l" data-class="barLine" class="barLine"><path d="M13988 540 L13988 1260" stroke-width="27"/></g></g></g></g></svg></svg>