<svg viewBox="0 0 560 84" version="1.1" xmlns="http://www.w3.org/2000/svg" xmlns:xlink="http://www.w3.org/1999/xlink" overflow="visible" id="s104ieob"><desc>Engraved by Verovio 5.6.0-85e7620</desc><defs><g id="E050-s104ieob"><path transform="scale(1,-1)" d="M441 -245c-23 -4 -48 -6 -76 -6c-59 0 -102 7 -130 20c-88 42 -150 93 -187 154c-26 44 -43 103 -48 176c0 6 -1 13 -1 19c0 54 15 111 45 170c29 57 65 106 110 148s96 85 153 127c-3 16 -8 46 -13 92c-4 43 -5 73 -5 89c0 117 16 172 69 257c34 54 64 82 89 82 c21 0 43 -30 69 -92s39 -115 41 -159v-15c0 -109 -21 -162 -67 -241c-13 -20 -63 -90 -98 -118c-13 -9 -25 -19 -37 -29l31 -181c8 1 18 2 28 2c58 0 102 -12 133 -35c59 -43 92 -104 98 -184c1 -7 1 -15 1 -22c0 -123 -87 -209 -181 -248c8 -57 17 -110 25 -162 c5 -31 6 -58 6 -80c0 -30 -5 -53 -14 -70c-35 -64 -88 -99 -158 -103c-5 0 -11 -1 -16 -1c-37 0 -72 10 -108 27c-50 24 -77 59 -80 105v11c0 29 7 55 20 76c18 28 45 42 79 44h6c49 0 93 -42 97 -87v-9c0 -51 -34 -86 -105 -106c17 -24 51 -36 102 -36c62 0 116 43 140 85 c9 16 13 41 13 74c0 20 -1 42 -5 67c-8 53 -18 106 -26 159zM461 939c-95 0 -135 -175 -135 -286c0 -24 2 -48 5 -71c50 39 92 82 127 128c40 53 60 100 60 140v8c-4 53 -22 81 -55 81h-2zM406 119l54 -326c73 25 110 78 110 161c0 7 0 15 -1 23c-7 95 -57 142 -151 142h-12 zM382 117c-72 -2 -128 -47 -128 -120v-7c2 -46 43 -99 75 -115c-3 -2 -7 -5 -10 -10c-70 33 -116 88 -123 172v11c0 68 44 126 88 159c23 17 49 29 78 36l-29 170c-21 -13 -52 -37 -92 -73c-50 -44 -86 -84 -109 -119c-45 -69 -67 -130 -67 -182v-13c5 -68 35 -127 93 -176 s125 -73 203 -73c25 0 50 3 75 9c-19 111 -36 221 -54 331z"/></g><g id="E262-s104ieob"><path transform="scale(1,-1)" d="M136 186v169h17v-164l44 14v-91l-44 -14v-165l44 12v-91l-44 -13v-155h-17v150l-76 -22v-155h-17v149l-43 -13v90l43 14v167l-43 -14v92l43 13v169h17v-163zM60 73v-167l76 22v168z"/></g><g id="E086-s104ieob"><path transform="scale(1,-1)" d="M284 -91c0 37 -28 92 -67 92c-35 0 -65 -54 -65 -111c0 -52 22 -104 68 -104c47 0 64 68 64 123zM230 214c-36 0 -90 -33 -90 -184l2 -36c40 24 81 36 120 36c80 0 140 -48 140 -121c0 -99 -99 -159 -182 -159c-160 0 -200 173 -200 244c0 21 2 43 7 71l10 35 c26 85 73 115 98 126c41 19 74 24 103 24c93 0 142 -63 142 -105c0 -58 -52 -72 -73 -72c-33 0 -59 24 -65 35c-3 5 -6 14 -7 25l11 30c6 15 9 27 9 35c0 11 -9 16 -25 16z"/></g><g id="E088-s104ieob"><path transform="scale(1,-1)" d="M195 -214c76 0 88 58 90 68c0 34 -35 60 -57 73l-52 29c-21 10 -32 17 -34 20c-39 -33 -58 -54 -62 -92c5 -23 23 -98 115 -98zM301 135c0 61 -72 76 -113 76c-40 0 -77 -17 -77 -51c3 -21 15 -38 26 -50c17 -15 33 -26 48 -34l65 -28c34 27 51 56 51 87zM176 -250 c-57 0 -166 26 -166 132c0 47 30 86 89 116c-33 15 -79 60 -79 119c0 79 85 132 178 132h18c5 0 21 1 28 -1c25 0 126 -30 126 -110c0 -37 -23 -76 -69 -116c43 -25 83 -71 83 -119c0 -101 -118 -153 -208 -153z"/></g><g id="E0A4-s104ieob"><path transform="scale(1,-1)" d="M0 -39c0 68 73 172 200 172c66 0 114 -37 114 -95c0 -84 -106 -171 -218 -171c-64 0 -96 30 -96 94z"/></g><g id="E240-s104ieob"><path transform="scale(1,-1)" d="M179 -646c15 29 29 55 46 102c18 49 30 108 30 138c0 105 -80 173 -168 200c-18 5 -47 9 -87 16v190h22c8 0 33 -61 71 -95c4 -3 -2 3 61 -56c62 -58 122 -137 122 -241c0 -38 -13 -106 -35 -163c-20 -51 -43 -99 -66 -132c-6 -5 -10 -7 -13 -7s-5 2 -5 5l4 10 c1 3 14 25 18 33z"/></g><g id="E261-s104ieob"><path transform="scale(1,-1)" d="M0 -188v539h18v-191l139 22v-533h-17v186zM18 -100l122 17v176l-122 -19v-174z"/></g><g id="E4E6-s104ieob"><path transform="scale(1,-1)" d="M0 123c7 34 33 56 69 60c29 -3 43 -9 53 -29c4 -8 7 -15 10 -22c0 -21 -1 -25 -11 -35c-5 -8 -18 -14 -40 -20l12 -3l15 -1c44 0 97 26 122 56c10 11 18 26 24 42c7 1 15 2 22 3l-140 -424h-36l111 330c-10 -6 -27 -12 -53 -16l-52 -8h-10l-20 1c-1 0 -8 3 -21 6 c-37 9 -55 28 -55 60z"/></g><g id="E241-s104ieob"><path transform="scale(1,-1)" d="M179 646c-4 8 -17 30 -18 33l-4 10c0 3 2 5 5 5s7 -2 13 -7c23 -33 46 -81 66 -132c22 -57 35 -125 35 -163c0 -104 -60 -183 -122 -241c-63 -59 -57 -53 -61 -56c-38 -34 -63 -95 -71 -95h-22v190c40 7 69 11 87 16c88 27 168 95 168 200c0 30 -12 89 -30 138 c-17 47 -31 73 -46 102z"/></g><g id="E4E5-s104ieob"><path transform="scale(1,-1)" d="M107 292c-13 24 -30 49 -52 71c-1 1 0 2 0 3l-2 2c3 3 4 4 6 4c12 0 26 -7 40 -20s44 -40 89 -81c26 -24 28 -29 46 -47c4 -4 8 -9 10 -14c6 -8 8 -16 8 -27c0 -19 -12 -40 -36 -61c-28 -23 -49 -38 -61 -73c-4 -11 -7 -27 -10 -50c13 -43 34 -83 59 -121 c31 -47 59 -79 101 -129c-8 0 -26 7 -54 20l-62 29l-21 6l-23 1c-25 0 -45 -10 -60 -30l-4 -14l-1 -12c0 -33 20 -56 39 -78c8 -9 17 -18 26 -26c17 -15 27 -24 28 -30l-3 -3c-11 5 -19 10 -25 15c-9 3 -37 21 -45 26c-24 14 -45 32 -63 51c-19 21 -37 44 -37 71 c0 63 27 95 80 95c41 0 86 -18 136 -52c-19 26 -37 48 -55 66c-23 23 -48 44 -73 65c-28 23 -47 40 -58 53s-17 26 -18 39c75 64 113 125 113 183c0 27 -7 48 -18 68z"/></g></defs><style type="text/css">#s104ieob g.page-margin {font-family:Times,serif;}#s104ieob g.ending, #s104ieob g.fing, #s104ieob g.reh, #s104ieob g.tempo {font-weight:bold;}#s104ieob g.dir, #s104ieob g.dynam, #s104ieob g.mNum {font-style:italic;}#s104ieob g.label {font-weight:normal;}#s104ieob path {stroke:currentColor}</style><svg class="definition-scale" color="black" viewBox="0 0 14000 2100"><g class="page-margin" transform="translate(0, 150)"><g data-id="y12g4l7v" data-class="mdiv" class="mdiv pageMilestone"/><g data-id="z3mksb7" data-class="score" class="score pageMilestone"/><g data-id="x1ehtngx" data-class="system" class="system"><g data-id="b14qq679" data-class="section" class="section systemMilestone"/><g data-id="tk84ldo" data-class="measure" class="measure"><g data-id="n2pp0pg" data-class="staff" class="staff"><path d="M0 540 L5098 540" stroke-width="13"/><path d="M0 720 L5098 720" stroke-width="13"/><path d="M0 900 L5098 900" stroke-width="13"/><path d="M0 1080 L5098 1080" stroke-width="13"/><path d="M0 1260 L5098 1260" stroke-width="13"/><g data-id="b17rtatj" data-class="clef" class="clef"><use href="#E050-s104ieob" transform="translate(90, 1080) scale(0.72, 0.72)"/></g><g data-id="c1clan02" data-class="keySig" class="keySig"><g data-id="d1ut0wrm" data-class="keyAccid" class="keyAccid"><use href="#E262-s104ieob" transform="translate(735, 540) scale(0.72, 0.72)"/></g><g data-id="e11l8r3l" data-class="keyAccid" class="keyAccid"><use href="#E262-s104ieob" transform="translate(913, 810) scale(0.72, 0.72)"/></g><g data-id="f10seszc" data-class="keyAccid" class="keyAccid"><use href="#E262-s104ieob" transform="translate(1091, 450) scale(0.72, 0.72)"/></g><g data-id="gpp0ag1" data-class="keyAccid" class="keyAccid"><use href="#E262-s104ieob" transform="translate(1269, 720) scale(0.72, 0.72)"/></g></g><g data-id="h1f2lcsr" data-class="meterSig" class="meterSig"><use href="#E086-s104ieob" transform="translate(1576, 720) scale(0.72, 0.72)"/><use href="#E088-s104ieob" transform="translate(1583, 1080) scale(0.72, 0.72)"/></g><g data-id="o17lzjxd" data-class="layer" class="layer"><g data-id="p1w5pgx9" data-class="note" class="note"><g data-class="notehead" class="notehead"><use href="#E0A4-s104ieob" transform="translate(2293, 1080) scale(0.72, 0.72)"/></g><g data-id="jchocxn" data-class="stem" class="stem"><path d="M2510 1052 L2510 450" stroke-width="18"/><g data-id="k2ayx52" data-class="flag" class="flag"><use href="#E240-s104ieob" transform="translate(2501, 450) scale(0.72, 0.72)"/></g></g><g data-id="v1kqr0oz" data-class="accid" class="accid"><use href="#E261-s104ieob" transform="translate(2135, 1080) scale(0.72, 0.72)"/></g></g><g data-id="dem2frd" data-class="rest" class="rest"><use href="#E4E6-s104ieob" transform="translate(2789, 900) scale(0.72, 0.72)"/></g><g data-id="e1f09ftt" data-class="rest" class="rest"><use href="#E4E6-s104ieob" transform="translate(3239, 900) scale(0.72, 0.72)"/></g><g data-id="qz9c6xg" data-class="note" class="note"><g data-class="notehead" class="notehead"><use href="#E0A4-s104ieob" transform="translate(3689, 990) scale(0.72, 0.72)"/></g><g data-id="lteohva" data-class="stem" class="stem"><path d="M3906 962 L3906 360" stroke-width="18"/><g data-id="m1dvm2ke" data-class="flag" class="flag"><use href="#E240-s104ieob" transform="translate(3897, 360) scale(0.72, 0.72)"/></g></g></g><g data-id="f1ce5j1t" data-class="rest" class="rest"><use href="#E4E6-s104ieob" transform="translate(4185, 900) scale(0.72, 0.72)"/></g><g data-id="gko5trm" data-class="rest" class="rest"><use href="#E4E6-s104ieob" transform="translate(4635, 900) scale(0.72, 0.72)"/></g></g></g><g data-id="b54zi6e" data-class="barLine" class="barLine"><path d="M5085 540 L5085 1260" stroke-width="27"/></g></g><g data-id="c1cd3kjf" data-class="measure" class="measure"><g data-id="p1n6z5v9" data-class="staff" class="staff"><path d="M5098 540 L7781 540" stroke-width="13"/><path d="M5098 720 L7781 720" stroke-width="13"/><path d="M5098 900 L7781 900" stroke-width="13"/><path d="M5098 1080 L7781 1080" stroke-width="13"/><path d="M5098 1260 L7781 1260" stroke-width="13"/><g data-id="qn1c4ub" data-class="layer" class="layer"><g data-id="r1oc24nf" data-class="note" class="note"><g data-class="notehead" class="notehead"><use href="#E0A4-s104ieob" transform="translate(5278, 900) scale(0.72, 0.72)"/></g><g data-id="n1218s56" data-class="stem" class="stem"><path d="M5287 928 L5287 1500" stroke-width="18"/><g data-id="o19qalsh" data-class="flag" class="flag"><use href="#E241-s104ieob" transform="translate(5278, 1500) scale(0.72, 0.72)"/></g></g></g><g data-id="hfz1eda" data-class="rest" class="rest"><use href="#E4E6-s104ieob" transform="translate(5728, 900) scale(0.72, 0.72)"/></g><g data-id="i14n659n" data-class="rest" class="rest"><use href="#E4E6-s104ieob" transform="translate(6178, 900) scale(0.72, 0.72)"/></g><g data-id="j1cxf0o8" data-class="rest" class="rest"><use href="#E4E5-s104ieob" transform="translate(6628, 900) scale(0.72, 0.72)"/></g><g data-id="k68il3u" data-class="rest" class="rest"><use href="#E4E6-s104ieob" transform="translate(7318, 900) scale(0.72, 0.72)"/></g></g></g><g data-id="k1v1e4zw" data-class="barLine" class="barLine"><path d="M7768 540 L7768 1260" stroke-width="27"/></g></g><g data-id="lfg5rd3" data-class="measure" class="measure"><g data-id="r1vaaw69" data-class="staff" class="staff"><path d="M7781 540 L10674 540" stroke-width="13"/><path d="M7781 720 L10674 720" stroke-width="13"/><path d="M7781 900 L10674 900" stroke-width="13"/><path d="M7781 1080 L10674 1080" stroke-width="13"/><path d="M7781 1260 L10674 1260" stroke-width="13"/><g data-id="sflzlxe" data-class="layer" class="layer"><g data-id="s1ks49l7" data-class="note" class="note"><g data-class="notehead" class="notehead"><use href="#E0A4-s104ieob" transform="translate(7961, 900) scale(0.72, 0.72)"/></g><g data-id="p1gvb1tn" data-class="stem" class="stem"><path d="M7970 928 L7970 1500" stroke-width="18"/><g data-id="q1tefcfn" data-class="flag" class="flag"><use href="#E241-s104ieob" transform="translate(7961, 1500) scale(0.72, 0.72)"/></g></g></g><g data-id="l17iyout" data-class="rest" class="rest"><use href="#E4E6-s104ieob" transform="translate(8411, 900) scale(0.72, 0.72)"/></g><g data-id="mle6rvq" data-class="rest" class="rest"><use href="#E4E6-s104ieob" transform="translate(8861, 900) scale(0.72, 0.72)"/></g><g data-id="t1brzrcn" data-class="note" class="note"><g data-class="notehead" class="notehead"><use href="#E0A4-s104ieob" transform="translate(9311, 810) scale(0.72, 0.72)"/></g><g data-id="r1irsbeu" data-class="stem" class="stem"><path d="M9320 838 L9320 1440" stroke-width="18"/><g data-id="s6jl9dm" data-class="flag" class="flag"><use href="#E241-s104ieob" transform="translate(9311, 1440) scale(0.72, 0.72)"/></g></g><g data-id="w142izqi" data-class="accid" class="accid"><use href="#E261-s104ieob" transform="translate(9153, 810) scale(0.72, 0.72)"/></g></g><g data-id="nvvy3d9" data-class="rest" class="rest"><use href="#E4E6-s104ieob" transform="translate(9761, 900) scale(0.72, 0.72)"/></g><g data-id="o1hpak45" data-class="rest" class="rest"><use href="#E4E6-s104ieob" transform="translate(10211, 900) scale(0.72, 0.72)"/></g></g></g><g data-id="t1l2sb1y" data-class="barLine" class="barLine"><path d="M10661 540 L10661 1260" stroke-width="27"/></g></g><g data-id="u1cbzgb2" data-class="measure" class="measure"><g data-id="t13ik653" data-class="staff" class="staff"><path d="M10674 540 L11304 540" stroke-width="13"/><path d="M10674 720 L11304 720" stroke-width="13"/><path d="M10674 900 L11304 900" stroke-width="13"/><path d="M10674 1080 L11304 1080" stroke-width="13"/><path d="M10674 1260 L11304 1260" stroke-width="13"/><g data-id="u1fj5xjg" data-class="layer" class="layer"><g data-id="u1rz15r4" data-class="note" class="note"><g data-class="notehead" class="notehead"><use href="#E0A4-s104ieob" transform="translate(10854, 630) scale(0.72, 0.72)"/></g><g data-id="t1xy5gke" data-class="stem" class="stem"><path d="M10863 658 L10863 1260" stroke-width="18"/><g data-id="uk97biw" data-class="flag" class="flag"><use href="#E241-s104ieob" transform="translate(10854, 1260) scale(0.72, 0.72)"/></g></g></g></g></g><g data-id="c17o5vhm" data-class="barLine" class="barLine"/></g><g data-id="c6n6p0u" data-class="systemMilestoneEnd" class="systemMilestoneEnd b14qq679"/></g><g data-id="duvlqq0" data-class="pageMilestoneEnd" class="pageMilestoneEnd z3mksb7"/><g data-id="en1ofmx" data-class="pageMilestoneEnd" class="pageMilestoneEnd y12g4l7v"/></g></svg></svg>