<svg viewBox="0 0 560 84" version="1.1" xmlns="http://www.w3.org/2000/svg" xmlns:xlink="http://www.w3.org/1999/xlink" overflow="visible" id="r16hkl9v"><desc>Engraved by Verovio 5.6.0-85e7620</desc><defs><g id="E062-r16hkl9v"><path transform="scale(1,-1)" d="M582 -120c0 32 26 58 58 58s58 -26 58 -58s-26 -58 -58 -58s-58 26 -58 58zM582 120c0 32 26 58 58 58s58 -26 58 -58s-26 -58 -58 -58s-58 26 -58 58zM158 96c51 0 73 -14 88 -49l16 -39c0 -17 -2 -30 -7 -40c-3 -11 -10 -21 -19 -31c-17 -18 -49 -43 -84 -43 c-55 0 -77 13 -112 44c-24 21 -35 55 -35 100c0 46 14 81 32 112c30 52 71 79 137 93l36 6l26 2c154 0 235 -68 274 -182c11 -32 18 -68 18 -107c0 -103 -26 -182 -68 -250c-89 -145 -234 -230 -412 -288l-30 -5c-9 0 -14 3 -14 8c3 10 5 11 10 16c35 15 70 30 96 44l78 43 c96 57 162 136 197 258c9 33 17 60 22 100c3 22 5 35 6 39c-7 69 -16 115 -23 140s-4 22 -16 40c-8 12 -19 23 -31 34c-24 21 -62 44 -118 44c-48 0 -84 -8 -113 -28c-28 -19 -42 -44 -42 -73v-16c2 -5 3 -9 4 -11c24 22 52 39 84 39z"/></g><g id="E260-r16hkl9v"><path transform="scale(1,-1)" d="M20 110c32 16 54 27 93 27c26 0 35 -3 54 -13c13 -7 24 -20 27 -38l4 -25c0 -28 -16 -57 -45 -89c-23 -25 -39 -44 -65 -68l-88 -79v644h20v-359zM90 106c-32 0 -48 -10 -70 -29v-194c31 31 54 59 71 84c21 32 32 59 32 84c0 9 1 16 1 20c0 14 -3 21 -11 30l-8 3z"/></g><g id="E08A-r16hkl9v"><path transform="scale(1,-1)" d="M340 179c-9 24 -56 41 -89 41c-46 0 -81 -28 -100 -58c-17 -28 -25 -78 -25 -150c0 -65 2 -111 8 -135c8 -31 18 -49 40 -67c20 -17 43 -25 70 -25c54 0 92 36 115 75c14 25 23 54 28 88h27c0 -63 -24 -105 -58 -141c-35 -38 -82 -56 -140 -56c-45 0 -83 13 -115 39 c-57 45 -101 130 -101 226c0 59 33 127 68 163c36 37 97 72 160 72c36 0 93 -21 121 -40c11 -8 23 -17 33 -30c19 -23 27 -48 27 -76c0 -51 -35 -88 -86 -88c-43 0 -76 27 -76 68c0 26 7 35 21 51c15 17 32 27 58 32c7 2 14 7 14 11z"/></g><g id="E0A4-r16hkl9v"><path transform="scale(1,-1)" d="M0 -39c0 68 73 172 200 172c66 0 114 -37 114 -95c0 -84 -106 -171 -218 -171c-64 0 -96 30 -96 94z"/></g><g id="E0A3-r16hkl9v"><path transform="scale(1,-1)" d="M278 64c0 22 -17 39 -43 39c-12 0 -26 -3 -41 -10c-85 -43 -165 -94 -165 -156c5 -25 15 -32 49 -32c67 11 200 95 200 159zM0 -36c0 68 73 174 200 174c66 0 114 -39 114 -97c0 -84 -106 -173 -218 -173c-64 0 -96 32 -96 96z"/></g></defs><style type="text/css">#r16hkl9v g.page-margin {font-family:Times,serif;}#r16hkl9v g.ending, #r16hkl9v g.fing, #r16hkl9v g.reh, #r16hkl9v g.tempo {font-weight:bold;}#r16hkl9v g.dir, #r16hkl9v g.dynam, #r16hkl9v g.mNum {font-style:italic;}#r16hkl9v g.label {font-weight:normal;}#r16hkl9v path {stroke:currentColor}</style><svg class="definition-scale" color="black" viewBox="0 0 14000 2100"><g class="page-margin" transform="translate(0, 150)"><g data-id="c1wm1gap" data-class="mdiv" class="mdiv pageMilestone"/><g data-id="disdlfv" data-class="score" class="score pageMilestone"/><g data-id="u14hr7ur" data-class="system" class="system"><g data-id="f1hnf7rv" data-class="section" class="section systemMilestone"/><g data-id="stt5b96" data-class="measure" class="measure"><g data-id="rfwueui" data-class="staff" class="staff"><path d="M0 540 L5024 540" stroke-width="13"/><path d="M0 720 L5024 720" stroke-width="13"/><path d="M0 900 L5024 900" stroke-width="13"/><path d="M0 1080 L5024 1080" stroke-width="13"/><path d="M0 1260 L5024 1260" stroke-width="13"/><g data-id="a15tr402" data-class="clef" class="clef"><use href="#E062-r16hkl9v" transform="translate(88, 720) scale(0.72, 0.72)"/></g><g data-id="bjmnwtg" data-class="keySig" class="keySig"><g data-id="cek1tmx" data-class="keyAccid" class="keyAccid"><use href="#E260-r16hkl9v" transform="translate(769, 1080) scale(0.72, 0.72)"/></g><g data-id="d1c8v165" data-class="keyAccid" class="keyAccid"><use href="#E260-r16hkl9v" transform="translate(949, 810) scale(0.72, 0.72)"/></g></g><g data-id="ek4i326" data-class="meterSig" class="meterSig"><use href="#E08A-r16hkl9v" transform="translate(1271, 900) scale(0.72, 0.72)"/></g><g data-id="s1ivxxwe" data-class="layer" class="layer"><g data-id="k1329d70" data-class="note" class="note"><g data-class="notehead" class="notehead"><use href="#E0A4-r16hkl9v" transform="translate(1839, 720) scale(0.72, 0.72)"/></g><g data-id="hvcqwot" data-class="stem" class="stem"><path d="M1848 748 L1848 1350" stroke-width="18"/></g></g><g data-id="ursyc5r" data-class="beam" class="beam"><polygon stroke-opacity="1" fill-opacity="1" points="2529,1260 3127,1350 3127,1260 2529,1170"/><polygon stroke-opacity="1" fill-opacity="1" points="2901,1182 3127,1215 3127,1125 2901,1092"/><g data-id="lb29j4o" data-class="note" class="note"><g data-class="notehead" class="notehead"><use href="#E0A4-r16hkl9v" transform="translate(2529, 630) scale(0.72, 0.72)"/></g><g data-id="j54vddo" data-class="dots" class="dots"><ellipse cx="2845" cy="630" rx="36" ry="36" fill-opacity="1" stroke-opacity="1"/></g><g data-id="ifokvz4" data-class="stem" class="stem"><path d="M2538 658 L2538 1242" stroke-width="18"/></g></g><g data-id="m1kw98fh" data-class="note" class="note"><g data-class="notehead" class="notehead"><use href="#E0A4-r16hkl9v" transform="translate(3109, 720) scale(0.72, 0.72)"/></g><g data-id="k3fl3au" data-class="stem" class="stem"><path d="M3118 748 L3118 1332" stroke-width="18"/></g></g></g><g data-id="v3er5qq" data-class="beam" class="beam"><polygon stroke-opacity="1" fill-opacity="1" points="3425,1080 4023,1080 4023,990 3425,990"/><polygon stroke-opacity="1" fill-opacity="1" points="3797,945 4023,945 4023,855 3797,855"/><g data-id="nv8xp8" data-class="note" class="note"><g data-class="notehead" class="notehead"><use href="#E0A4-r16hkl9v" transform="translate(3425, 450) scale(0.72, 0.72)"/></g><g data-id="m1c9d9a2" data-class="dots" class="dots"><ellipse cx="3741" cy="450" rx="36" ry="36" fill-opacity="1" stroke-opacity="1"/></g><g data-id="l16rdbcn" data-class="stem" class="stem"><path d="M3434 478 L3434 1062" stroke-width="18"/></g><g data-id="x1nn974h" data-class="accid" class="accid"/></g><g data-id="o4aboow" data-class="note" class="note"><g data-class="notehead" class="notehead"><use href="#E0A4-r16hkl9v" transform="translate(4005, 450) scale(0.72, 0.72)"/></g><g data-id="n1dz6auv" data-class="stem" class="stem"><path d="M4014 478 L4014 1062" stroke-width="18"/></g><g data-id="y8s36oc" data-class="accid" class="accid"/></g></g><g data-id="pa16l51" data-class="note" class="note"><g data-class="notehead" class="notehead"><use href="#E0A4-r16hkl9v" transform="translate(4321, 450) scale(0.72, 0.72)"/></g><g data-id="o1to4b4z" data-class="stem" class="stem"><path d="M4330 478 L4330 1080" stroke-width="18"/></g><g data-id="zcyvf3p" data-class="accid" class="accid"/></g></g></g><g data-id="ab8ffv5" data-class="barLine" class="barLine"><path d="M5011 540 L5011 1260" stroke-width="27"/></g></g><g data-id="b17pylnn" data-class="measure" class="measure"><g data-id="tbeaawg" data-class="staff" class="staff"><path d="M5024 540 L7840 540" stroke-width="13"/><path d="M5024 720 L7840 720" stroke-width="13"/><path d="M5024 900 L7840 900" stroke-width="13"/><path d="M5024 1080 L7840 1080" stroke-width="13"/><path d="M5024 1260 L7840 1260" stroke-width="13"/><g data-class="ledgerLines" class="ledgerLines above"><g data-class="lineDash" class="lineDash" data-related="#q1iiv8vc"><path d="M5156 360 L5478 360" stroke-width="22"/></g><g data-class="lineDash" class="lineDash" data-related="#r1bo9ww5"><path d="M5846 360 L6168 360" stroke-width="22"/></g><g data-class="lineDash" class="lineDash" data-related="#s5bkyim"><path d="M6444 360 L6730 360" stroke-width="22"/></g><g data-class="lineDash" class="lineDash" data-related="#tg0ph1w"><path d="M6760 360 L7046 360" stroke-width="22"/></g><g data-class="lineDash" class="lineDash" data-related="#r1bo9ww5"><path d="M5846 180 L6168 180" stroke-width="22"/></g></g><g data-id="u13wbnd" data-class="layer" class="layer"><g data-id="q1iiv8vc" data-class="note" class="note"><g data-class="notehead" class="notehead"><use href="#E0A4-r16hkl9v" transform="translate(5204, 360) scale(0.72, 0.72)"/></g><g data-id="p8dioo9" data-class="stem" class="stem"><path d="M5213 388 L5213 990" stroke-width="18"/></g></g><g data-id="wk0fhnl" data-class="beam" class="beam"><polygon stroke-opacity="1" fill-opacity="1" points="5894,900 6492,1080 6492,990 5894,810"/><polygon stroke-opacity="1" fill-opacity="1" points="6266,880 6492,945 6492,855 6266,790"/><g data-id="r1bo9ww5" data-class="note" class="note"><g data-class="notehead" class="notehead"><use href="#E0A4-r16hkl9v" transform="translate(5894, 180) scale(0.72, 0.72)"/></g><g data-id="r18a851" data-class="dots" class="dots"><ellipse cx="6210" cy="90" rx="36" ry="36" fill-opacity="1" stroke-opacity="1"/></g><g data-id="qw657ot" data-class="stem" class="stem"><path d="M5903 208 L5903 882" stroke-width="18"/></g><g data-id="a1bndhx0" data-class="accid" class="accid"/></g><g data-id="s5bkyim" data-class="note" class="note"><g data-class="notehead" class="notehead"><use href="#E0A4-r16hkl9v" transform="translate(6474, 270) scale(0.72, 0.72)"/></g><g data-id="s1t4vuh0" data-class="stem" class="stem"><path d="M6483 298 L6483 1062" stroke-width="18"/></g></g></g><g data-id="tg0ph1w" data-class="note" class="note"><g data-class="notehead" class="notehead"><use href="#E0A3-r16hkl9v" transform="translate(6790, 270) scale(0.72, 0.72)"/></g><g data-id="t1hsnejy" data-class="stem" class="stem"><path d="M6799 295 L6799 900" stroke-width="18"/></g></g></g></g><g data-id="j1wy851u" data-class="barLine" class="barLine"/></g><g data-id="c19tv2vy" data-class="systemMilestoneEnd" class="systemMilestoneEnd f1hnf7rv"/></g><g data-id="dwgqqd7" data-class="pageMilestoneEnd" class="pageMilestoneEnd disdlfv"/><g data-id="e1omvlut" data-class="pageMilestoneEnd" class="pageMilestoneEnd c1wm1gap"/></g></svg></svg>