<svg viewBox="0 0 560 84" version="1.1" xmlns="http://www.w3.org/2000/svg" xmlns:xlink="http://www.w3.org/1999/xlink" overflow="visible" id="y1vdd18w"><desc>Engraved by Verovio 5.6.0-85e7620</desc><defs><g id="E050-y1vdd18w"><path transform="scale(1,-1)" d="M441 -245c-23 -4 -48 -6 -76 -6c-59 0 -102 7 -130 20c-88 42 -150 93 -187 154c-26 44 -43 103 -48 176c0 6 -1 13 -1 19c0 54 15 111 45 170c29 57 65 106 110 148s96 85 153 127c-3 16 -8 46 -13 92c-4 43 -5 73 -5 89c0 117 16 172 69 257c34 54 64 82 89 82 c21 0 43 -30 69 -92s39 -115 41 -159v-15c0 -109 -21 -162 -67 -241c-13 -20 -63 -90 -98 -118c-13 -9 -25 -19 -37 -29l31 -181c8 1 18 2 28 2c58 0 102 -12 133 -35c59 -43 92 -104 98 -184c1 -7 1 -15 1 -22c0 -123 -87 -209 -181 -248c8 -57 17 -110 25 -162 c5 -31 6 -58 6 -80c0 -30 -5 -53 -14 -70c-35 -64 -88 -99 -158 -103c-5 0 -11 -1 -16 -1c-37 0 -72 10 -108 27c-50 24 -77 59 -80 105v11c0 29 7 55 20 76c18 28 45 42 79 44h6c49 0 93 -42 97 -87v-9c0 -51 -34 -86 -105 -106c17 -24 51 -36 102 -36c62 0 116 43 140 85 c9 16 13 41 13 74c0 20 -1 42 -5 67c-8 53 -18 106 -26 159zM461 939c-95 0 -135 -175 -135 -286c0 -24 2 -48 5 -71c50 39 92 82 127 128c40 53 60 100 60 140v8c-4 53 -22 81 -55 81h-2zM406 119l54 -326c73 25 110 78 110 161c0 7 0 15 -1 23c-7 95 -57 142 -151 142h-12 zM382 117c-72 -2 -128 -47 -128 -120v-7c2 -46 43 -99 75 -115c-3 -2 -7 -5 -10 -10c-70 33 -116 88 -123 172v11c0 68 44 126 88 159c23 17 49 29 78 36l-29 170c-21 -13 -52 -37 -92 -73c-50 -44 -86 -84 -109 -119c-45 -69 -67 -130 -67 -182v-13c5 -68 35 -127 93 -176 s125 -73 203 -73c25 0 50 3 75 9c-19 111 -36 221 -54 331z"/></g><g id="E260-y1vdd18w"><path transform="scale(1,-1)" d="M20 110c32 16 54 27 93 27c26 0 35 -3 54 -13c13 -7 24 -20 27 -38l4 -25c0 -28 -16 -57 -45 -89c-23 -25 -39 -44 -65 -68l-88 -79v644h20v-359zM90 106c-32 0 -48 -10 -70 -29v-194c31 31 54 59 71 84c21 32 32 59 32 84c0 9 1 16 1 20c0 14 -3 21 -11 30l-8 3z"/></g><g id="E08A-y1vdd18w"><path transform="scale(1,-1)" d="M340 179c-9 24 -56 41 -89 41c-46 0 -81 -28 -100 -58c-17 -28 -25 -78 -25 -150c0 -65 2 -111 8 -135c8 -31 18 -49 40 -67c20 -17 43 -25 70 -25c54 0 92 36 115 75c14 25 23 54 28 88h27c0 -63 -24 -105 -58 -141c-35 -38 -82 -56 -140 -56c-45 0 -83 13 -115 39 c-57 45 -101 130 -101 226c0 59 33 127 68 163c36 37 97 72 160 72c36 0 93 -21 121 -40c11 -8 23 -17 33 -30c19 -23 27 -48 27 -76c0 -51 -35 -88 -86 -88c-43 0 -76 27 -76 68c0 26 7 35 21 51c15 17 32 27 58 32c7 2 14 7 14 11z"/></g><g id="E0A4-y1vdd18w"><path transform="scale(1,-1)" d="M0 -39c0 68 73 172 200 172c66 0 114 -37 114 -95c0 -84 -106 -171 -218 -171c-64 0 -96 30 -96 94z"/></g></defs><style type="text/css">#y1vdd18w g.page-margin {font-family:Times,serif;}#y1vdd18w g.ending, #y1vdd18w g.fing, #y1vdd18w g.reh, #y1vdd18w g.tempo {font-weight:bold;}#y1vdd18w g.dir, #y1vdd18w g.dynam, #y1vdd18w g.mNum {font-style:italic;}#y1vdd18w g.label {font-weight:normal;}#y1vdd18w path {stroke:currentColor}</style><svg class="definition-scale" color="black" viewBox="0 0 14000 2100"><g class="page-margin" transform="translate(0, 150)"><g data-id="ha88770" data-class="mdiv" class="mdiv pageMilestone"/><g data-id="iuq8441" data-class="score" class="score pageMilestone"/><g data-id="uuu4d7y" data-class="system" class="system"><g data-id="k14s5dws" data-class="section" class="section systemMilestone"/><g data-id="zzgvstd" data-class="measure" class="measure"><g data-id="wseurb9" data-class="staff" class="staff"><path d="M0 540 L6142 540" stroke-width="13"/><path d="M0 720 L6142 720" stroke-width="13"/><path d="M0 900 L6142 900" stroke-width="13"/><path d="M0 1080 L6142 1080" stroke-width="13"/><path d="M0 1260 L6142 1260" stroke-width="13"/><g data-id="aoahtn3" data-class="clef" class="clef"><use href="#E050-y1vdd18w" transform="translate(90, 1080) scale(0.72, 0.72)"/></g><g data-id="b1as6xua" data-class="keySig" class="keySig"><g data-id="c1y2v9jn" data-class="keyAccid" class="keyAccid"><use href="#E260-y1vdd18w" transform="translate(735, 900) scale(0.72, 0.72)"/></g><g data-id="dlpkqsf" data-class="keyAccid" class="keyAccid"><use href="#E260-y1vdd18w" transform="translate(915, 630) scale(0.72, 0.72)"/></g></g><g data-id="e105lb9k" data-class="meterSig" class="meterSig"><use href="#E08A-y1vdd18w" transform="translate(1237, 900) scale(0.72, 0.72)"/></g><g data-class="ledgerLines" class="ledgerLines below"><g data-class="lineDash" class="lineDash" data-related="#s1jl63qh"><path d="M2091 1440 L2377 1440" stroke-width="22"/></g><g data-class="lineDash" class="lineDash" data-related="#ti7ss0r"><path d="M2407 1440 L2693 1440" stroke-width="22"/></g></g><g data-id="x1fsjt21" data-class="layer" class="layer"><g data-id="r36aoyu" data-class="beam" class="beam"><polygon stroke-opacity="1" fill-opacity="1" points="2013,720 2979,720 2979,810 2013,810"/><polygon stroke-opacity="1" fill-opacity="1" points="2013,855 2338,855 2338,945 2013,945"/><polygon stroke-opacity="1" fill-opacity="1" points="2338,855 2654,855 2654,945 2338,945"/><polygon stroke-opacity="1" fill-opacity="1" points="2654,855 2979,855 2979,945 2654,945"/><g data-id="reb8lak" data-class="note" class="note"><g data-class="notehead" class="notehead"><use href="#E0A4-y1vdd18w" transform="translate(1805, 1350) scale(0.72, 0.72)"/></g><g data-id="m1j48ggg" data-class="stem" class="stem"><path d="M2022 1322 L2022 738" stroke-width="18"/></g></g><g data-id="s1jl63qh" data-class="note" class="note"><g data-class="notehead" class="notehead"><use href="#E0A4-y1vdd18w" transform="translate(2121, 1530) scale(0.72, 0.72)"/></g><g data-id="njmkj2p" data-class="stem" class="stem"><path d="M2338 1502 L2338 738" stroke-width="18"/></g><g data-id="ykij42l" data-class="accid" class="accid"/></g><g data-id="ti7ss0r" data-class="note" class="note"><g data-class="notehead" class="notehead"><use href="#E0A4-y1vdd18w" transform="translate(2437, 1530) scale(0.72, 0.72)"/></g><g data-id="o1amddik" data-class="stem" class="stem"><path d="M2654 1502 L2654 738" stroke-width="18"/></g><g data-id="z1vj80dp" data-class="accid" class="accid"/></g><g data-id="ujvhoq2" data-class="note" class="note"><g data-class="notehead" class="notehead"><use href="#E0A4-y1vdd18w" transform="translate(2753, 1350) scale(0.72, 0.72)"/></g><g data-id="pafd3hf" data-class="stem" class="stem"><path d="M2970 1322 L2970 738" stroke-width="18"/></g></g></g><g data-id="s1v7os4t" data-class="beam" class="beam"><polygon stroke-opacity="1" fill-opacity="1" points="3277,495 4243,315 4243,405 3277,585"/><polygon stroke-opacity="1" fill-opacity="1" points="3277,630 3602,570 3602,660 3277,720"/><polygon stroke-opacity="1" fill-opacity="1" points="3602,570 3918,510 3918,600 3602,660"/><polygon stroke-opacity="1" fill-opacity="1" points="3918,510 4243,450 4243,540 3918,600"/><g data-id="v1582pj5" data-class="note" class="note"><g data-class="notehead" class="notehead"><use href="#E0A4-y1vdd18w" transform="translate(3069, 1350) scale(0.72, 0.72)"/></g><g data-id="qsgwsdk" data-class="stem" class="stem"><path d="M3286 1322 L3286 513" stroke-width="18"/></g></g><g data-id="w1092rsj" data-class="note" class="note"><g data-class="notehead" class="notehead"><use href="#E0A4-y1vdd18w" transform="translate(3385, 1080) scale(0.72, 0.72)"/></g><g data-id="r1kox5nm" data-class="stem" class="stem"><path d="M3602 1052 L3602 453" stroke-width="18"/></g></g><g data-id="xa8k0uy" data-class="note" class="note"><g data-class="notehead" class="notehead"><use href="#E0A4-y1vdd18w" transform="translate(3701, 1080) scale(0.72, 0.72)"/></g><g data-id="s415cg" data-class="stem" class="stem"><path d="M3918 1052 L3918 393" stroke-width="18"/></g></g><g data-id="ygdiacv" data-class="note" class="note"><g data-class="notehead" class="notehead"><use href="#E0A4-y1vdd18w" transform="translate(4017, 900) scale(0.72, 0.72)"/></g><g data-id="t1y1smnd" data-class="stem" class="stem"><path d="M4234 872 L4234 333" stroke-width="18"/></g><g data-id="az7mav4" data-class="accid" class="accid"/></g></g><g data-id="twiyqyf" data-class="beam" class="beam"><polygon stroke-opacity="1" fill-opacity="1" points="4541,315 5905,495 5905,585 4541,405"/><polygon stroke-opacity="1" fill-opacity="1" points="4904,499 5130,528 5130,618 4904,589"/><g data-id="z80ic2w" data-class="note" class="note"><g data-class="notehead" class="notehead"><use href="#E0A4-y1vdd18w" transform="translate(4333, 900) scale(0.72, 0.72)"/></g><g data-id="v1s0peg2" data-class="dots" class="dots"><ellipse cx="4649" cy="810" rx="36" ry="36" fill-opacity="1" stroke-opacity="1"/></g><g data-id="u1pg2dkc" data-class="stem" class="stem"><path d="M4550 872 L4550 333" stroke-width="18"/></g><g data-id="b1exlscn" data-class="accid" class="accid"/></g><g data-id="akittyy" data-class="note" class="note"><g data-class="notehead" class="notehead"><use href="#E0A4-y1vdd18w" transform="translate(4913, 990) scale(0.72, 0.72)"/></g><g data-id="wcihoiw" data-class="stem" class="stem"><path d="M5130 962 L5130 411" stroke-width="18"/></g></g><g data-id="b13y27du" data-class="note" class="note"><g data-class="notehead" class="notehead"><use href="#E0A4-y1vdd18w" transform="translate(5229, 1080) scale(0.72, 0.72)"/></g><g data-id="x6pfm8b" data-class="stem" class="stem"><path d="M5446 1052 L5446 453" stroke-width="18"/></g></g><g data-id="cd3pknv" data-class="note" class="note"><g data-class="notehead" class="notehead"><use href="#E0A4-y1vdd18w" transform="translate(5679, 1350) scale(0.72, 0.72)"/></g><g data-id="ykdpgci" data-class="stem" class="stem"><path d="M5896 1322 L5896 513" stroke-width="18"/></g></g></g></g></g><g data-id="hvmkii9" data-class="barLine" class="barLine"><path d="M6129 540 L6129 1260" stroke-width="27"/></g></g><g data-id="i1qgjgzy" data-class="measure" class="measure"><g data-id="yere09q" data-class="staff" class="staff"><path d="M6142 540 L11037 540" stroke-width="13"/><path d="M6142 720 L11037 720" stroke-width="13"/><path d="M6142 900 L11037 900" stroke-width="13"/><path d="M6142 1080 L11037 1080" stroke-width="13"/><path d="M6142 1260 L11037 1260" stroke-width="13"/><g data-id="zknxmsr" data-class="layer" class="layer"><g data-id="u1idq20b" data-class="beam" class="beam"><polygon stroke-opacity="1" fill-opacity="1" points="6530,495 7496,495 7496,585 6530,585"/><polygon stroke-opacity="1" fill-opacity="1" points="6530,630 6855,630 6855,720 6530,720"/><polygon stroke-opacity="1" fill-opacity="1" points="6855,630 7171,630 7171,720 6855,720"/><polygon stroke-opacity="1" fill-opacity="1" points="7171,630 7496,630 7496,720 7171,720"/><g data-id="d1xentoq" data-class="note" class="note"><g data-class="notehead" class="notehead"><use href="#E0A4-y1vdd18w" transform="translate(6322, 1080) scale(0.72, 0.72)"/></g><g data-id="z1681dlh" data-class="stem" class="stem"><path d="M6539 1052 L6539 513" stroke-width="18"/></g></g><g data-id="e4bjotl" data-class="note" class="note"><g data-class="notehead" class="notehead"><use href="#E0A4-y1vdd18w" transform="translate(6638, 1350) scale(0.72, 0.72)"/></g><g data-id="a1uk7trm" data-class="stem" class="stem"><path d="M6855 1322 L6855 513" stroke-width="18"/></g></g><g data-id="f142yuzx" data-class="note" class="note"><g data-class="notehead" class="notehead"><use href="#E0A4-y1vdd18w" transform="translate(6954, 1350) scale(0.72, 0.72)"/></g><g data-id="bni0lbm" data-class="stem" class="stem"><path d="M7171 1322 L7171 513" stroke-width="18"/></g></g><g data-id="gc0zxf7" data-class="note" class="note"><g data-class="notehead" class="notehead"><use href="#E0A4-y1vdd18w" transform="translate(7270, 1080) scale(0.72, 0.72)"/></g><g data-id="cedgond" data-class="stem" class="stem"><path d="M7487 1052 L7487 513" stroke-width="18"/></g></g></g><g data-id="vni3jpa" data-class="beam" class="beam"><polygon stroke-opacity="1" fill-opacity="1" points="7586,1710 8552,1530 8552,1440 7586,1620"/><polygon stroke-opacity="1" fill-opacity="1" points="7586,1575 7911,1515 7911,1425 7586,1485"/><polygon stroke-opacity="1" fill-opacity="1" points="7911,1515 8227,1455 8227,1365 7911,1425"/><polygon stroke-opacity="1" fill-opacity="1" points="8227,1455 8552,1395 8552,1305 8227,1365"/><g data-id="h18prci7" data-class="note" class="note"><g data-class="notehead" class="notehead"><use href="#E0A4-y1vdd18w" transform="translate(7586, 1080) scale(0.72, 0.72)"/></g><g data-id="d1lpyyte" data-class="stem" class="stem"><path d="M7595 1108 L7595 1692" stroke-width="18"/></g></g><g data-id="i1w6dwnr" data-class="note" class="note"><g data-class="notehead" class="notehead"><use href="#E0A4-y1vdd18w" transform="translate(7902, 900) scale(0.72, 0.72)"/></g><g data-id="e118kfbh" data-class="stem" class="stem"><path d="M7911 928 L7911 1632" stroke-width="18"/></g><g data-id="c1oyw7y4" data-class="accid" class="accid"/></g><g data-id="j9lfsir" data-class="note" class="note"><g data-class="notehead" class="notehead"><use href="#E0A4-y1vdd18w" transform="translate(8218, 900) scale(0.72, 0.72)"/></g><g data-id="fgrmzx7" data-class="stem" class="stem"><path d="M8227 928 L8227 1572" stroke-width="18"/></g><g data-id="dv1dn3y" data-class="accid" class="accid"/></g><g data-id="k1hyfcz3" data-class="note" class="note"><g data-class="notehead" class="notehead"><use href="#E0A4-y1vdd18w" transform="translate(8534, 720) scale(0.72, 0.72)"/></g><g data-id="g1o0nhk2" data-class="stem" class="stem"><path d="M8543 748 L8543 1512" stroke-width="18"/></g></g></g><g data-id="w1ez2ngb" data-class="beam" class="beam"><polygon stroke-opacity="1" fill-opacity="1" points="8850,1350 9448,1440 9448,1350 8850,1260"/><polygon stroke-opacity="1" fill-opacity="1" points="9222,1272 9448,1305 9448,1215 9222,1182"/><g data-id="lozxx5c" data-class="note" class="note"><g data-class="notehead" class="notehead"><use href="#E0A4-y1vdd18w" transform="translate(8850, 720) scale(0.72, 0.72)"/></g><g data-id="i1xyfed" data-class="dots" class="dots"><ellipse cx="9166" cy="630" rx="36" ry="36" fill-opacity="1" stroke-opacity="1"/></g><g data-id="h1r2kzma" data-class="stem" class="stem"><path d="M8859 748 L8859 1332" stroke-width="18"/></g></g><g data-id="mg11tez" data-class="note" class="note"><g data-class="notehead" class="notehead"><use href="#E0A4-y1vdd18w" transform="translate(9430, 810) scale(0.72, 0.72)"/></g><g data-id="j15844zd" data-class="stem" class="stem"><path d="M9439 838 L9439 1422" stroke-width="18"/></g></g></g><g data-id="x1uyckm" data-class="beam" class="beam"><polygon stroke-opacity="1" fill-opacity="1" points="9954,180 10920,135 10920,225 9954,270"/><polygon stroke-opacity="1" fill-opacity="1" points="9954,315 10279,300 10279,390 9954,405"/><polygon stroke-opacity="1" fill-opacity="1" points="10279,300 10595,285 10595,375 10279,390"/><polygon stroke-opacity="1" fill-opacity="1" points="10595,285 10920,270 10920,360 10595,375"/><g data-id="npx0awm" data-class="note" class="note"><g data-class="notehead" class="notehead"><use href="#E0A4-y1vdd18w" transform="translate(9746, 900) scale(0.72, 0.72)"/></g><g data-id="k1fjvg86" data-class="stem" class="stem"><path d="M9963 872 L9963 198" stroke-width="18"/></g><g data-id="e1n6982o" data-class="accid" class="accid"/></g><g data-id="o16a2f89" data-class="note" class="note"><g data-class="notehead" class="notehead"><use href="#E0A4-y1vdd18w" transform="translate(10062, 1080) scale(0.72, 0.72)"/></g><g data-id="lwsgap2" data-class="stem" class="stem"><path d="M10279 1052 L10279 183" stroke-width="18"/></g></g><g data-id="p19iq5h2" data-class="note" class="note"><g data-class="notehead" class="notehead"><use href="#E0A4-y1vdd18w" transform="translate(10378, 900) scale(0.72, 0.72)"/></g><g data-id="mksfrsi" data-class="stem" class="stem"><path d="M10595 872 L10595 168" stroke-width="18"/></g><g data-id="f12gu8wl" data-class="accid" class="accid"/></g><g data-id="q1e8gf77" data-class="note" class="note"><g data-class="notehead" class="notehead"><use href="#E0A4-y1vdd18w" transform="translate(10694, 810) scale(0.72, 0.72)"/></g><g data-id="n16k60kt" data-class="stem" class="stem"><path d="M10911 782 L10911 153" stroke-width="18"/></g></g></g></g></g><g data-id="q150kf9a" data-class="barLine" class="barLine"><path d="M11024 540 L11024 1260" stroke-width="27"/></g></g><g data-id="h1bif14m" data-class="systemMilestoneEnd" class="systemMilestoneEnd k14s5dws"/></g><g data-id="i1mf89ub" data-class="pageMilestoneEnd" class="pageMilestoneEnd iuq8441"/><g data-id="j1vpf48z" data-class="pageMilestoneEnd" class="pageMilestoneEnd ha88770"/></g></svg></svg>