<svg viewBox="0 0 560 84" version="1.1" xmlns="http://www.w3.org/2000/svg" xmlns:xlink="http://www.w3.org/1999/xlink" overflow="visible" id="r1ugfv5q"><desc>Engraved by Verovio 5.6.0-85e7620</desc><defs><g id="E050-r1ugfv5q"><path transform="scale(1,-1)" d="M441 -245c-23 -4 -48 -6 -76 -6c-59 0 -102 7 -130 20c-88 42 -150 93 -187 154c-26 44 -43 103 -48 176c0 6 -1 13 -1 19c0 54 15 111 45 170c29 57 65 106 110 148s96 85 153 127c-3 16 -8 46 -13 92c-4 43 -5 73 -5 89c0 117 16 172 69 257c34 54 64 82 89 82 c21 0 43 -30 69 -92s39 -115 41 -159v-15c0 -109 -21 -162 -67 -241c-13 -20 -63 -90 -98 -118c-13 -9 -25 -19 -37 -29l31 -181c8 1 18 2 28 2c58 0 102 -12 133 -35c59 -43 92 -104 98 -184c1 -7 1 -15 1 -22c0 -123 -87 -209 -181 -248c8 -57 17 -110 25 -162 c5 -31 6 -58 6 -80c0 -30 -5 -53 -14 -70c-35 -64 -88 -99 -158 -103c-5 0 -11 -1 -16 -1c-37 0 -72 10 -108 27c-50 24 -77 59 -80 105v11c0 29 7 55 20 76c18 28 45 42 79 44h6c49 0 93 -42 97 -87v-9c0 -51 -34 -86 -105 -106c17 -24 51 -36 102 -36c62 0 116 43 140 85 c9 16 13 41 13 74c0 20 -1 42 -5 67c-8 53 -18 106 -26 159zM461 939c-95 0 -135 -175 -135 -286c0 -24 2 -48 5 -71c50 39 92 82 127 128c40 53 60 100 60 140v8c-4 53 -22 81 -55 81h-2zM406 119l54 -326c73 25 110 78 110 161c0 7 0 15 -1 23c-7 95 -57 142 -151 142h-12 zM382 117c-72 -2 -128 -47 -128 -120v-7c2 -46 43 -99 75 -115c-3 -2 -7 -5 -10 -10c-70 33 -116 88 -123 172v11c0 68 44 126 88 159c23 17 49 29 78 36l-29 170c-21 -13 -52 -37 -92 -73c-50 -44 -86 -84 -109 -119c-45 -69 -67 -130 -67 -182v-13c5 -68 35 -127 93 -176 s125 -73 203 -73c25 0 50 3 75 9c-19 111 -36 221 -54 331z"/></g><g id="E083-r1ugfv5q"><path transform="scale(1,-1)" d="M208 250c97 0 177 -52 177 -116c0 -69 -40 -111 -118 -125c56 -5 125 -44 125 -116c0 -31 -10 -57 -31 -78c-19 -21 -45 -38 -78 -49l-50 -11c-15 -3 -36 -7 -55 -7c-50 0 -86 16 -113 38c-16 10 -23 18 -34 34c-7 13 -11 25 -11 38c0 43 27 83 68 83l3 -2 c61 0 75 -42 75 -70c0 -19 -24 -42 -26 -57c7 -17 20 -25 37 -25c44 0 94 29 94 78c0 75 -34 125 -138 125v36c84 0 131 22 131 98c0 54 -37 88 -87 88c-26 0 -43 -7 -51 -22c15 -22 44 -16 44 -70c0 -37 -37 -62 -71 -62c-22 0 -69 15 -69 76c0 79 101 116 178 116z"/></g><g id="E088-r1ugfv5q"><path transform="scale(1,-1)" d="M195 -214c76 0 88 58 90 68c0 34 -35 60 -57 73l-52 29c-21 10 -32 17 -34 20c-39 -33 -58 -54 -62 -92c5 -23 23 -98 115 -98zM301 135c0 61 -72 76 -113 76c-40 0 -77 -17 -77 -51c3 -21 15 -38 26 -50c17 -15 33 -26 48 -34l65 -28c34 27 51 56 51 87zM176 -250 c-57 0 -166 26 -166 132c0 47 30 86 89 116c-33 15 -79 60 -79 119c0 79 85 132 178 132h18c5 0 21 1 28 -1c25 0 126 -30 126 -110c0 -37 -23 -76 -69 -116c43 -25 83 -71 83 -119c0 -101 -118 -153 -208 -153z"/></g><g id="E0A4-r1ugfv5q"><path transform="scale(1,-1)" d="M0 -39c0 68 73 172 200 172c66 0 114 -37 114 -95c0 -84 -106 -171 -218 -171c-64 0 -96 30 -96 94z"/></g><g id="E241-r1ugfv5q"><path transform="scale(1,-1)" d="M179 646c-4 8 -17 30 -18 33l-4 10c0 3 2 5 5 5s7 -2 13 -7c23 -33 46 -81 66 -132c22 -57 35 -125 35 -163c0 -104 -60 -183 -122 -241c-63 -59 -57 -53 -61 -56c-38 -34 -63 -95 -71 -95h-22v190c40 7 69 11 87 16c88 27 168 95 168 200c0 30 -12 89 -30 138 c-17 47 -31 73 -46 102z"/></g><g id="E242-r1ugfv5q"><path transform="scale(1,-1)" d="M206 -748c32 48 49 100 49 149c0 89 -55 168 -168 203c-18 5 -47 9 -87 16v190v190h22c8 0 33 -61 71 -95c4 -3 -2 3 61 -56c62 -58 122 -137 122 -241c0 -32 -7 -65 -17 -96c11 -29 17 -60 17 -94c0 -71 -32 -148 -67 -190c-6 -5 -10 -7 -13 -7s-5 2 -5 5l4 10 c1 3 6 8 11 16zM248 -463c4 18 7 38 7 57c0 105 -80 173 -168 200c-11 3 -27 6 -47 9c9 -17 23 -61 53 -88c4 -3 -2 3 61 -56c36 -33 71 -74 94 -122z"/></g></defs><style type="text/css">#r1ugfv5q g.page-margin {font-family:Times,serif;}#r1ugfv5q g.ending, #r1ugfv5q g.fing, #r1ugfv5q g.reh, #r1ugfv5q g.tempo {font-weight:bold;}#r1ugfv5q g.dir, #r1ugfv5q g.dynam, #r1ugfv5q g.mNum {font-style:italic;}#r1ugfv5q g.label {font-weight:normal;}#r1ugfv5q path {stroke:currentColor}</style><svg class="definition-scale" color="black" viewBox="0 0 14000 2100"><g class="page-margin" transform="translate(0, 150)"><g data-id="f10vebyx" data-class="mdiv" class="mdiv pageMilestone"/><g data-id="g11xf827" data-class="score" class="score pageMilestone"/><g data-id="m17s4kaj" data-class="system" class="system"><g data-id="i3jqmuo" data-class="section" class="section systemMilestone"/><g data-id="s1y7iqoz" data-class="measure" class="measure"><g data-id="uumxren" data-class="staff" class="staff"><path d="M0 540 L1739 540" stroke-width="13"/><path d="M0 720 L1739 720" stroke-width="13"/><path d="M0 900 L1739 900" stroke-width="13"/><path d="M0 1080 L1739 1080" stroke-width="13"/><path d="M0 1260 L1739 1260" stroke-width="13"/><g data-id="uxti809" data-class="clef" class="clef"><use href="#E050-r1ugfv5q" transform="translate(90, 1080) scale(0.72, 0.72)"/></g><g data-id="v1r5qjv" data-class="keySig" class="keySig"/><g data-id="w1a8zjom" data-class="meterSig" class="meterSig"><use href="#E083-r1ugfv5q" transform="translate(725, 720) scale(0.72, 0.72)"/><use href="#E088-r1ugfv5q" transform="translate(728, 1080) scale(0.72, 0.72)"/></g><g data-id="vy9pcy" data-class="layer" class="layer"><g data-id="l1migf84" data-class="note" class="note"><g data-class="notehead" class="notehead"><use href="#E0A4-r1ugfv5q" transform="translate(1276, 630) scale(0.72, 0.72)"/></g><g data-id="o1np9gvn" data-class="stem" class="stem"><path d="M1285 658 L1285 1260" stroke-width="18"/><g data-id="povt1c5" data-class="flag" class="flag"><use href="#E241-r1ugfv5q" transform="translate(1276, 1260) scale(0.72, 0.72)"/></g></g></g></g></g><g data-id="a1gi21bz" data-class="barLine" class="barLine"><path d="M1726 540 L1726 1260" stroke-width="27"/></g></g><g data-id="b1ynqdhk" data-class="measure" class="measure"><g data-id="w9ck6kq" data-class="staff" class="staff"><path d="M1739 540 L3282 540" stroke-width="13"/><path d="M1739 720 L3282 720" stroke-width="13"/><path d="M1739 900 L3282 900" stroke-width="13"/><path d="M1739 1080 L3282 1080" stroke-width="13"/><path d="M1739 1260 L3282 1260" stroke-width="13"/><g data-id="xvq0my0" data-class="layer" class="layer"><g data-id="a16damgf" data-class="beam" class="beam"><polygon stroke-opacity="1" fill-opacity="1" points="1919,1305 2837,1485 2837,1395 1919,1215"/><g data-id="m16eqwi" data-class="note" class="note"><g data-class="notehead" class="notehead"><use href="#E0A4-r1ugfv5q" transform="translate(1919, 720) scale(0.72, 0.72)"/></g><g data-id="q1fil63g" data-class="stem" class="stem"><path d="M1928 748 L1928 1287" stroke-width="18"/></g></g><g data-id="n10l6ewm" data-class="note" class="note"><g data-class="notehead" class="notehead"><use href="#E0A4-r1ugfv5q" transform="translate(2369, 810) scale(0.72, 0.72)"/></g><g data-id="r1fnd6x1" data-class="stem" class="stem"><path d="M2378 838 L2378 1377" stroke-width="18"/></g></g><g data-id="ol82gca" data-class="note" class="note"><g data-class="notehead" class="notehead"><use href="#E0A4-r1ugfv5q" transform="translate(2819, 900) scale(0.72, 0.72)"/></g><g data-id="s1a6cdw3" data-class="stem" class="stem"><path d="M2828 928 L2828 1467" stroke-width="18"/></g></g></g></g></g><g data-id="jvg5zp4" data-class="barLine" class="barLine"><path d="M3269 540 L3269 1260" stroke-width="27"/></g></g><g data-id="k1y5o71h" data-class="measure" class="measure"><g data-id="y165zfyr" data-class="staff" class="staff"><path d="M3282 540 L5836 540" stroke-width="13"/><path d="M3282 720 L5836 720" stroke-width="13"/><path d="M3282 900 L5836 900" stroke-width="13"/><path d="M3282 1080 L5836 1080" stroke-width="13"/><path d="M3282 1260 L5836 1260" stroke-width="13"/><g data-id="zdsnzwk" data-class="layer" class="layer"><g data-id="d6vnp7y" data-class="graceGrp" class="graceGrp"><g data-id="pfoj8k8" data-class="note" class="note"><g data-class="notehead" class="notehead"><use href="#E0A4-r1ugfv5q" transform="translate(3372, 900) scale(0.54, 0.54)"/></g><g data-id="tkuk7p9" data-class="stem" class="stem"><path d="M3532 879 L3532 450" stroke-width="18"/><g data-id="u1hd5fz7" data-class="flag" class="flag"><use href="#E242-r1ugfv5q" transform="translate(3523, 450) scale(0.54, 0.54)"/></g></g></g><g data-id="q12bnod0" data-class="note" class="note"><g data-class="notehead" class="notehead"><use href="#E0A4-r1ugfv5q" transform="translate(3739, 810) scale(0.54, 0.54)"/></g><g data-id="v1etnfxa" data-class="stem" class="stem"><path d="M3899 789 L3899 383" stroke-width="18"/><g data-id="w10yiib5" data-class="flag" class="flag"><use href="#E242-r1ugfv5q" transform="translate(3890, 383) scale(0.54, 0.54)"/></g></g></g><g data-id="r10d2hoi" data-class="note" class="note"><g data-class="notehead" class="notehead"><use href="#E0A4-r1ugfv5q" transform="translate(4106, 720) scale(0.54, 0.54)"/></g><g data-id="x1bkbvzb" data-class="stem" class="stem"><path d="M4266 699 L4266 315" stroke-width="18"/><g data-id="y1c910ue" data-class="flag" class="flag"><use href="#E242-r1ugfv5q" transform="translate(4257, 315) scale(0.54, 0.54)"/></g></g></g></g><g data-id="bbyb0q8" data-class="beam" class="beam"><polygon stroke-opacity="1" fill-opacity="1" points="4473,1350 5391,1530 5391,1440 4473,1260"/><g data-id="syzqfc6" data-class="note" class="note"><g data-class="notehead" class="notehead"><use href="#E0A4-r1ugfv5q" transform="translate(4473, 810) scale(0.72, 0.72)"/></g><g data-id="z172o8ch" data-class="stem" class="stem"><path d="M4482 838 L4482 1332" stroke-width="18"/></g></g><g data-id="t1gamous" data-class="note" class="note"><g data-class="notehead" class="notehead"><use href="#E0A4-r1ugfv5q" transform="translate(4923, 900) scale(0.72, 0.72)"/></g><g data-id="adi4qu3" data-class="stem" class="stem"><path d="M4932 928 L4932 1422" stroke-width="18"/></g></g><g data-id="u1jshh86" data-class="note" class="note"><g data-class="notehead" class="notehead"><use href="#E0A4-r1ugfv5q" transform="translate(5373, 990) scale(0.72, 0.72)"/></g><g data-id="bacme4l" data-class="stem" class="stem"><path d="M5382 1018 L5382 1512" stroke-width="18"/></g></g></g></g></g><g data-id="snjudzt" data-class="barLine" class="barLine"><path d="M5823 540 L5823 1260" stroke-width="27"/></g></g><g data-id="t7g3ii0" data-class="measure" class="measure"><g data-id="aokr06e" data-class="staff" class="staff"><path d="M5836 540 L7379 540" stroke-width="13"/><path d="M5836 720 L7379 720" stroke-width="13"/><path d="M5836 900 L7379 900" stroke-width="13"/><path d="M5836 1080 L7379 1080" stroke-width="13"/><path d="M5836 1260 L7379 1260" stroke-width="13"/><g data-id="b1nw6mj6" data-class="layer" class="layer"><g data-id="c1b5stni" data-class="beam" class="beam"><polygon stroke-opacity="1" fill-opacity="1" points="6016,1125 6934,1125 6934,1035 6016,1035"/><g data-id="v199k95p" data-class="note" class="note"><g data-class="notehead" class="notehead"><use href="#E0A4-r1ugfv5q" transform="translate(6016, 540) scale(0.72, 0.72)"/></g><g data-id="c1q7n728" data-class="stem" class="stem"><path d="M6025 568 L6025 1107" stroke-width="18"/></g></g><g data-id="wl2zawi" data-class="note" class="note"><g data-class="notehead" class="notehead"><use href="#E0A4-r1ugfv5q" transform="translate(6466, 540) scale(0.72, 0.72)"/></g><g data-id="da9rvwc" data-class="stem" class="stem"><path d="M6475 568 L6475 1107" stroke-width="18"/></g></g><g data-id="xliwqvj" data-class="note" class="note"><g data-class="notehead" class="notehead"><use href="#E0A4-r1ugfv5q" transform="translate(6916, 540) scale(0.72, 0.72)"/></g><g data-id="e1hjmrb8" data-class="stem" class="stem"><path d="M6925 568 L6925 1107" stroke-width="18"/></g></g></g></g></g><g data-id="b1lfw0zr" data-class="barLine" class="barLine"><path d="M7366 540 L7366 1260" stroke-width="27"/></g></g><g data-id="c19evnz" data-class="measure" class="measure"><g data-id="cdehx3o" data-class="staff" class="staff"><path d="M7379 540 L8712 540" stroke-width="13"/><path d="M7379 720 L8712 720" stroke-width="13"/><path d="M7379 900 L8712 900" stroke-width="13"/><path d="M7379 1080 L8712 1080" stroke-width="13"/><path d="M7379 1260 L8712 1260" stroke-width="13"/><g data-id="d1dcgfkj" data-class="layer" class="layer"><g data-id="ykk437w" data-class="note" class="note"><g data-class="notehead" class="notehead"><use href="#E0A4-r1ugfv5q" transform="translate(7559, 540) scale(0.72, 0.72)"/></g><g data-id="f1wwig5x" data-class="stem" class="stem"><path d="M7568 568 L7568 1170" stroke-width="18"/></g></g><g data-id="z1xpm7at" data-class="note" class="note"><g data-class="notehead" class="notehead"><use href="#E0A4-r1ugfv5q" transform="translate(8249, 630) scale(0.72, 0.72)"/></g><g data-id="gdl5ku9" data-class="stem" class="stem"><path d="M8258 658 L8258 1260" stroke-width="18"/><g data-id="hfispkj" data-class="flag" class="flag"><use href="#E241-r1ugfv5q" transform="translate(8249, 1260) scale(0.72, 0.72)"/></g></g></g></g></g><g data-id="ka6sgeu" data-class="barLine" class="barLine"><path d="M8699 540 L8699 1260" stroke-width="27"/></g></g><g data-id="lt5r782" data-class="systemMilestoneEnd" class="systemMilestoneEnd i3jqmuo"/></g><g data-id="mjc7x8e" data-class="pageMilestoneEnd" class="pageMilestoneEnd g11xf827"/><g data-id="n12pf2vl" data-class="pageMilestoneEnd" class="pageMilestoneEnd f10vebyx"/></g></svg></svg>