<svg viewBox="0 0 560 84" version="1.1" xmlns="http://www.w3.org/2000/svg" xmlns:xlink="http://www.w3.org/1999/xlink" overflow="visible" id="v13fe9ah"><desc>Engraved by Verovio 5.6.0-85e7620</desc><defs><g id="E062-v13fe9ah"><path transform="scale(1,-1)" d="M582 -120c0 32 26 58 58 58s58 -26 58 -58s-26 -58 -58 -58s-58 26 -58 58zM582 120c0 32 26 58 58 58s58 -26 58 -58s-26 -58 -58 -58s-58 26 -58 58zM158 96c51 0 73 -14 88 -49l16 -39c0 -17 -2 -30 -7 -40c-3 -11 -10 -21 -19 -31c-17 -18 -49 -43 -84 -43 c-55 0 -77 13 -112 44c-24 21 -35 55 -35 100c0 46 14 81 32 112c30 52 71 79 137 93l36 6l26 2c154 0 235 -68 274 -182c11 -32 18 -68 18 -107c0 -103 -26 -182 -68 -250c-89 -145 -234 -230 -412 -288l-30 -5c-9 0 -14 3 -14 8c3 10 5 11 10 16c35 15 70 30 96 44l78 43 c96 57 162 136 197 258c9 33 17 60 22 100c3 22 5 35 6 39c-7 69 -16 115 -23 140s-4 22 -16 40c-8 12 -19 23 -31 34c-24 21 -62 44 -118 44c-48 0 -84 -8 -113 -28c-28 -19 -42 -44 -42 -73v-16c2 -5 3 -9 4 -11c24 22 52 39 84 39z"/></g><g id="E260-v13fe9ah"><path transform="scale(1,-1)" d="M20 110c32 16 54 27 93 27c26 0 35 -3 54 -13c13 -7 24 -20 27 -38l4 -25c0 -28 -16 -57 -45 -89c-23 -25 -39 -44 -65 -68l-88 -79v644h20v-359zM90 106c-32 0 -48 -10 -70 -29v-194c31 31 54 59 71 84c21 32 32 59 32 84c0 9 1 16 1 20c0 14 -3 21 -11 30l-8 3z"/></g><g id="E086-v13fe9ah"><path transform="scale(1,-1)" d="M284 -91c0 37 -28 92 -67 92c-35 0 -65 -54 -65 -111c0 -52 22 -104 68 -104c47 0 64 68 64 123zM230 214c-36 0 -90 -33 -90 -184l2 -36c40 24 81 36 120 36c80 0 140 -48 140 -121c0 -99 -99 -159 -182 -159c-160 0 -200 173 -200 244c0 21 2 43 7 71l10 35 c26 85 73 115 98 126c41 19 74 24 103 24c93 0 142 -63 142 -105c0 -58 -52 -72 -73 -72c-33 0 -59 24 -65 35c-3 5 -6 14 -7 25l11 30c6 15 9 27 9 35c0 11 -9 16 -25 16z"/></g><g id="E088-v13fe9ah"><path transform="scale(1,-1)" d="M195 -214c76 0 88 58 90 68c0 34 -35 60 -57 73l-52 29c-21 10 -32 17 -34 20c-39 -33 -58 -54 -62 -92c5 -23 23 -98 115 -98zM301 135c0 61 -72 76 -113 76c-40 0 -77 -17 -77 -51c3 -21 15 -38 26 -50c17 -15 33 -26 48 -34l65 -28c34 27 51 56 51 87zM176 -250 c-57 0 -166 26 -166 132c0 47 30 86 89 116c-33 15 -79 60 -79 119c0 79 85 132 178 132h18c5 0 21 1 28 -1c25 0 126 -30 126 -110c0 -37 -23 -76 -69 -116c43 -25 83 -71 83 -119c0 -101 -118 -153 -208 -153z"/></g><g id="E4E6-v13fe9ah"><path transform="scale(1,-1)" d="M0 123c7 34 33 56 69 60c29 -3 43 -9 53 -29c4 -8 7 -15 10 -22c0 -21 -1 -25 -11 -35c-5 -8 -18 -14 -40 -20l12 -3l15 -1c44 0 97 26 122 56c10 11 18 26 24 42c7 1 15 2 22 3l-140 -424h-36l111 330c-10 -6 -27 -12 -53 -16l-52 -8h-10l-20 1c-1 0 -8 3 -21 6 c-37 9 -55 28 -55 60z"/></g><g id="E0A4-v13fe9ah"><path transform="scale(1,-1)" d="M0 -39c0 68 73 172 200 172c66 0 114 -37 114 -95c0 -84 -106 -171 -218 -171c-64 0 -96 30 -96 94z"/></g><g id="E07A-v13fe9ah"><path transform="scale(1,-1)" d="M343 -190c-18 -3 -37 -5 -59 -5c-46 0 -79 6 -101 16c-68 33 -117 72 -146 119c-20 34 -33 80 -37 137c0 5 -1 10 -1 15c0 42 12 86 35 132c23 44 51 82 86 115s75 65 119 98c-2 12 -7 36 -11 72c-3 33 -3 57 -3 69c0 91 12 134 53 200c26 42 50 63 69 63 c16 0 34 -23 54 -71s30 -90 32 -124v-11c0 -85 -16 -126 -52 -187c-10 -16 -49 -70 -76 -92c-10 -7 -20 -15 -29 -23l24 -140c6 1 14 1 22 1c45 0 79 -9 103 -27c46 -33 71 -81 76 -143c1 -5 1 -12 1 -17c0 -96 -68 -163 -141 -193c6 -44 14 -86 20 -126c4 -24 4 -45 4 -62 c0 -23 -3 -41 -10 -54c-27 -50 -69 -77 -123 -80c-4 0 -9 -1 -13 -1c-29 0 -56 8 -84 21c-39 19 -60 46 -62 82v8c0 23 6 43 16 59c14 22 35 32 61 34h5c38 0 72 -32 75 -67v-7c0 -40 -26 -67 -81 -83c13 -19 39 -28 79 -28c48 0 90 34 109 67c7 12 10 31 10 57 c0 16 -1 33 -4 52c-6 41 -14 83 -20 124zM358 730c-74 0 -105 -137 -105 -223c0 -19 2 -37 4 -55c39 30 72 64 99 100c31 41 46 77 46 108v7c-3 41 -16 63 -42 63h-2zM315 92l42 -253c57 19 86 61 86 125c0 5 0 12 -1 18c-5 74 -44 110 -117 110h-10zM297 91 c-56 -2 -100 -36 -100 -93v-6c2 -36 34 -77 59 -89c-2 -2 -6 -4 -8 -8c-54 26 -91 69 -96 134v8c0 53 35 98 69 124c18 13 37 23 60 28l-22 132c-16 -10 -41 -29 -72 -57c-39 -34 -66 -65 -84 -92c-35 -54 -52 -102 -52 -142v-10c4 -53 27 -99 72 -137s96 -56 157 -56 c19 0 40 2 59 7c-15 86 -28 172 -42 257z"/></g><g id="E261-v13fe9ah"><path transform="scale(1,-1)" d="M0 -188v539h18v-191l139 22v-533h-17v186zM18 -100l122 17v176l-122 -19v-174z"/></g></defs><style type="text/css">#v13fe9ah g.page-margin {font-family:Times,serif;}#v13fe9ah g.ending, #v13fe9ah g.fing, #v13fe9ah g.reh, #v13fe9ah g.tempo {font-weight:bold;}#v13fe9ah g.dir, #v13fe9ah g.dynam, #v13fe9ah g.mNum {font-style:italic;}#v13fe9ah g.label {font-weight:normal;}#v13fe9ah path {stroke:currentColor}</style><svg class="definition-scale" color="black" viewBox="0 0 14000 2100"><g class="page-margin" transform="translate(0, 150)"><g data-id="w5hj2uo" data-class="mdiv" class="mdiv pageMilestone"/><g data-id="xq82s8t" data-class="score" class="score pageMilestone"/><g data-id="c1b4ejg6" data-class="system" class="system"><g data-id="z1r8oyp2" data-class="section" class="section systemMilestone"/><g data-id="w1ck3n6e" data-class="measure" class="measure"><g data-id="llr5y1t" data-class="staff" class="staff"><path d="M0 540 L4665 540" stroke-width="13"/><path d="M0 720 L4665 720" stroke-width="13"/><path d="M0 900 L4665 900" stroke-width="13"/><path d="M0 1080 L4665 1080" stroke-width="13"/><path d="M0 1260 L4665 1260" stroke-width="13"/><g data-id="as3oa08" data-class="clef" class="clef"><use href="#E062-v13fe9ah" transform="translate(88, 720) scale(0.72, 0.72)"/></g><g data-id="b108hdww" data-class="keySig" class="keySig"><g data-id="cc3b93n" data-class="keyAccid" class="keyAccid"><use href="#E260-v13fe9ah" transform="translate(769, 1080) scale(0.72, 0.72)"/></g><g data-id="dxnhl6w" data-class="keyAccid" class="keyAccid"><use href="#E260-v13fe9ah" transform="translate(949, 810) scale(0.72, 0.72)"/></g></g><g data-id="e1v6ku73" data-class="meterSig" class="meterSig"><use href="#E086-v13fe9ah" transform="translate(1257, 720) scale(0.72, 0.72)"/><use href="#E088-v13fe9ah" transform="translate(1264, 1080) scale(0.72, 0.72)"/></g><g data-id="mbflngg" data-class="layer" class="layer"><g data-id="qe0jv8x" data-class="rest" class="rest"><use href="#E4E6-v13fe9ah" transform="translate(1826, 900) scale(0.72, 0.72)"/></g><g data-id="jv6yvhm" data-class="beam" class="beam"><polygon stroke-opacity="1" fill-opacity="1" points="2297,1440 2786,1485 2786,1395 2297,1350"/><g data-id="ugw4qoq" data-class="note" class="note"><g data-class="notehead" class="notehead"><use href="#E0A4-v13fe9ah" transform="translate(2297, 450) scale(0.72, 0.72)"/></g><g data-id="h1bcdg5d" data-class="stem" class="stem"><path d="M2306 478 L2306 1422" stroke-width="18"/></g><g data-id="p302bl" data-class="accid" class="accid"/></g><g data-id="v13ymje7" data-class="note" class="note"><g data-class="notehead" class="notehead"><use href="#E0A4-v13fe9ah" transform="translate(2768, 900) scale(0.72, 0.72)"/></g><g data-id="i2mt62z" data-class="stem" class="stem"><path d="M2777 928 L2777 1467" stroke-width="18"/></g></g></g><g data-id="r16obor8" data-class="rest" class="rest"><use href="#E4E6-v13fe9ah" transform="translate(3239, 900) scale(0.72, 0.72)"/></g><g data-id="k1syeb5f" data-class="beam" class="beam"><polygon stroke-opacity="1" fill-opacity="1" points="3710,1440 4199,1485 4199,1395 3710,1350"/><g data-id="wjtwsxy" data-class="note" class="note"><g data-class="notehead" class="notehead"><use href="#E0A4-v13fe9ah" transform="translate(3710, 450) scale(0.72, 0.72)"/></g><g data-id="j2o8i58" data-class="stem" class="stem"><path d="M3719 478 L3719 1422" stroke-width="18"/></g><g data-id="q12hgy8" data-class="accid" class="accid"/></g><g data-id="x1cwazz0" data-class="note" class="note"><g data-class="notehead" class="notehead"><use href="#E0A4-v13fe9ah" transform="translate(4181, 900) scale(0.72, 0.72)"/></g><g data-id="k15td8lh" data-class="stem" class="stem"><path d="M4190 928 L4190 1467" stroke-width="18"/></g></g></g></g></g><g data-id="e12sjbwy" data-class="barLine" class="barLine"><path d="M4652 540 L4652 1260" stroke-width="27"/></g></g><g data-id="g16b08zd" data-class="measure" class="measure"><g data-id="n1xopewr" data-class="staff" class="staff"><path d="M4665 540 L7694 540" stroke-width="13"/><path d="M4665 720 L7694 720" stroke-width="13"/><path d="M4665 900 L7694 900" stroke-width="13"/><path d="M4665 1080 L7694 1080" stroke-width="13"/><path d="M4665 1260 L7694 1260" stroke-width="13"/><g data-class="ledgerLines" class="ledgerLines above"><g data-class="lineDash" class="lineDash" data-related="#ahct9hi"><path d="M6691 360 L7013 360" stroke-width="22"/></g></g><g data-id="oojg0ai" data-class="layer" class="layer"><g data-id="s42cmoa" data-class="rest" class="rest"><use href="#E4E6-v13fe9ah" transform="translate(4855, 900) scale(0.72, 0.72)"/></g><g data-id="l1fyatyr" data-class="beam" class="beam"><polygon stroke-opacity="1" fill-opacity="1" points="5326,1440 5815,1485 5815,1395 5326,1350"/><g data-id="y1w2xg2f" data-class="note" class="note"><g data-class="notehead" class="notehead"><use href="#E0A4-v13fe9ah" transform="translate(5326, 450) scale(0.72, 0.72)"/></g><g data-id="lcxweij" data-class="stem" class="stem"><path d="M5335 478 L5335 1422" stroke-width="18"/></g><g data-id="r1h0hs7m" data-class="accid" class="accid"/></g><g data-id="znyjaku" data-class="note" class="note"><g data-class="notehead" class="notehead"><use href="#E0A4-v13fe9ah" transform="translate(5797, 900) scale(0.72, 0.72)"/></g><g data-id="m11yncsp" data-class="stem" class="stem"><path d="M5806 928 L5806 1467" stroke-width="18"/></g></g></g><g data-id="t1n2rkn2" data-class="rest" class="rest"><use href="#E4E6-v13fe9ah" transform="translate(6268, 900) scale(0.72, 0.72)"/></g><g data-id="m1pr6yje" data-class="beam" class="beam"><polygon stroke-opacity="1" fill-opacity="1" points="6739,1440 7228,1485 7228,1395 6739,1350"/><g data-id="ahct9hi" data-class="note" class="note"><g data-class="notehead" class="notehead"><use href="#E0A4-v13fe9ah" transform="translate(6739, 360) scale(0.72, 0.72)"/></g><g data-id="n1n0h74w" data-class="stem" class="stem"><path d="M6748 388 L6748 1422" stroke-width="18"/></g></g><g data-id="b15w5nw" data-class="note" class="note"><g data-class="notehead" class="notehead"><use href="#E0A4-v13fe9ah" transform="translate(7210, 810) scale(0.72, 0.72)"/></g><g data-id="o1mdxeux" data-class="stem" class="stem"><path d="M7219 838 L7219 1467" stroke-width="18"/></g><g data-id="s1qwykl1" data-class="accid" class="accid"/></g></g></g></g><g data-id="o12hjid6" data-class="barLine" class="barLine"><path d="M7681 540 L7681 1260" stroke-width="27"/></g></g><g data-id="p1xfq2qk" data-class="measure" class="measure"><g data-id="pyi7pr5" data-class="staff" class="staff"><path d="M7694 540 L10122 540" stroke-width="13"/><path d="M7694 720 L10122 720" stroke-width="13"/><path d="M7694 900 L10122 900" stroke-width="13"/><path d="M7694 1080 L10122 1080" stroke-width="13"/><path d="M7694 1260 L10122 1260" stroke-width="13"/><g data-id="qv6rar1" data-class="layer" class="layer"><g data-id="f1o8jvuu" data-class="clef" class="clef"><use href="#E07A-v13fe9ah" transform="translate(7813, 1080) scale(0.72, 0.72)"/></g><g data-id="c1vyp0o8" data-class="note" class="note"><g data-class="notehead" class="notehead"><use href="#E0A4-v13fe9ah" transform="translate(8265, 1350) scale(0.72, 0.72)"/></g><g data-id="qrvhzcr" data-class="dots" class="dots"><ellipse cx="8581" cy="1350" rx="36" ry="36" fill-opacity="1" stroke-opacity="1"/></g><g data-id="p15zvp0u" data-class="stem" class="stem"><path d="M8482 1322 L8482 720" stroke-width="18"/></g></g><g data-id="d17mzf1g" data-class="note" class="note"><g data-class="notehead" class="notehead"><use href="#E0A4-v13fe9ah" transform="translate(9187, 1170) scale(0.72, 0.72)"/></g><g data-id="s1tc1oe8" data-class="dots" class="dots"><ellipse cx="9503" cy="1170" rx="36" ry="36" fill-opacity="1" stroke-opacity="1"/></g><g data-id="r1rn1lbq" data-class="stem" class="stem"><path d="M9404 1142 L9404 540" stroke-width="18"/></g><g data-id="i8md40c" data-class="accid" class="accid"><use href="#E261-v13fe9ah" transform="translate(9029, 1170) scale(0.72, 0.72)"/></g></g></g></g><g data-id="n1dqdw7q" data-class="tie" class="tie"><path d="M9458,1282 C9667,1388 10056,1388 10267,1282 C10070,1435 9653,1435 9458,1282" stroke-linecap="round" stroke-linejoin="round" stroke-width="9"/></g><g data-id="xcxk5nh" data-class="barLine" class="barLine"><path d="M10109 540 L10109 1260" stroke-width="27"/></g></g><g data-id="y385k9t" data-class="measure" class="measure"><g data-id="rqaehjp" data-class="staff" class="staff"><path d="M10122 540 L12169 540" stroke-width="13"/><path d="M10122 720 L12169 720" stroke-width="13"/><path d="M10122 900 L12169 900" stroke-width="13"/><path d="M10122 1080 L12169 1080" stroke-width="13"/><path d="M10122 1260 L12169 1260" stroke-width="13"/><g data-id="s13lzvpa" data-class="layer" class="layer"><g data-id="e12a9nmm" data-class="note" class="note"><g data-class="notehead" class="notehead"><use href="#E0A4-v13fe9ah" transform="translate(10312, 1170) scale(0.72, 0.72)"/></g><g data-id="uyb9l9p" data-class="dots" class="dots"><ellipse cx="10628" cy="1170" rx="36" ry="36" fill-opacity="1" stroke-opacity="1"/></g><g data-id="tlm4v" data-class="stem" class="stem"><path d="M10529 1142 L10529 540" stroke-width="18"/></g><g data-id="t1v2pgv9" data-class="accid" class="accid"/></g><g data-id="fr9bs7t" data-class="note" class="note"><g data-class="notehead" class="notehead"><use href="#E0A4-v13fe9ah" transform="translate(11234, 1260) scale(0.72, 0.72)"/></g><g data-id="w1okd5su" data-class="dots" class="dots"><ellipse cx="11550" cy="1170" rx="36" ry="36" fill-opacity="1" stroke-opacity="1"/></g><g data-id="vfqc9bf" data-class="stem" class="stem"><path d="M11451 1232 L11451 630" stroke-width="18"/></g><g data-id="ug22tv4" data-class="accid" class="accid"/></g></g></g><g data-id="g11kuono" data-class="barLine" class="barLine"><path d="M12156 540 L12156 1260" stroke-width="27"/></g></g><g data-id="h11mbeex" data-class="measure" class="measure"><g data-id="tsa6mp6" data-class="staff" class="staff"><path d="M12169 540 L14004 540" stroke-width="13"/><path d="M12169 720 L14004 720" stroke-width="13"/><path d="M12169 900 L14004 900" stroke-width="13"/><path d="M12169 1080 L14004 1080" stroke-width="13"/><path d="M12169 1260 L14004 1260" stroke-width="13"/><g data-id="uzd1mhd" data-class="layer" class="layer"><g data-id="gfspxjj" data-class="note" class="note"><g data-class="notehead" class="notehead"><use href="#E0A4-v13fe9ah" transform="translate(12359, 1350) scale(0.72, 0.72)"/></g><g data-id="yfmfzke" data-class="dots" class="dots"><ellipse cx="12675" cy="1350" rx="36" ry="36" fill-opacity="1" stroke-opacity="1"/></g><g data-id="xi3jyb0" data-class="stem" class="stem"><path d="M12576 1322 L12576 720" stroke-width="18"/></g></g><g data-id="hjn7lol" data-class="note" class="note"><g data-class="notehead" class="notehead"><use href="#E0A4-v13fe9ah" transform="translate(13281, 1350) scale(0.72, 0.72)"/></g><g data-id="z19vhe65" data-class="stem" class="stem"><path d="M13498 1322 L13498 720" stroke-width="18"/></g></g></g></g><g data-id="orrtqiv" data-class="tie" class="tie"><path d="M12630,1462 C12790,1567 13074,1567 13236,1462 C13091,1616 12771,1616 12630,1462" stroke-linecap="round" stroke-linejoin="round" stroke-width="9"/></g><g data-id="p1kbvjvl" data-class="barLine" class="barLine"/></g><g data-id="c1m9tz67" data-class="systemMilestoneEnd" class="systemMilestoneEnd z1r8oyp2"/></g><g data-id="d15hgzw6" data-class="pageMilestoneEnd" class="pageMilestoneEnd xq82s8t"/><g data-id="eh03o36" data-class="pageMilestoneEnd" class="pageMilestoneEnd w5hj2uo"/></g></svg></svg>