<svg viewBox="0 0 560 84" version="1.1" xmlns="http://www.w3.org/2000/svg" xmlns:xlink="http://www.w3.org/1999/xlink" overflow="visible" id="ip0qh9h"><desc>Engraved by Verovio 5.6.0-85e7620</desc><defs><g id="E050-ip0qh9h"><path transform="scale(1,-1)" d="M441 -245c-23 -4 -48 -6 -76 -6c-59 0 -102 7 -130 20c-88 42 -150 93 -187 154c-26 44 -43 103 -48 176c0 6 -1 13 -1 19c0 54 15 111 45 170c29 57 65 106 110 148s96 85 153 127c-3 16 -8 46 -13 92c-4 43 -5 73 -5 89c0 117 16 172 69 257c34 54 64 82 89 82 c21 0 43 -30 69 -92s39 -115 41 -159v-15c0 -109 -21 -162 -67 -241c-13 -20 -63 -90 -98 -118c-13 -9 -25 -19 -37 -29l31 -181c8 1 18 2 28 2c58 0 102 -12 133 -35c59 -43 92 -104 98 -184c1 -7 1 -15 1 -22c0 -123 -87 -209 -181 -248c8 -57 17 -110 25 -162 c5 -31 6 -58 6 -80c0 -30 -5 -53 -14 -70c-35 -64 -88 -99 -158 -103c-5 0 -11 -1 -16 -1c-37 0 -72 10 -108 27c-50 24 -77 59 -80 105v11c0 29 7 55 20 76c18 28 45 42 79 44h6c49 0 93 -42 97 -87v-9c0 -51 -34 -86 -105 -106c17 -24 51 -36 102 -36c62 0 116 43 140 85 c9 16 13 41 13 74c0 20 -1 42 -5 67c-8 53 -18 106 -26 159zM461 939c-95 0 -135 -175 -135 -286c0 -24 2 -48 5 -71c50 39 92 82 127 128c40 53 60 100 60 140v8c-4 53 -22 81 -55 81h-2zM406 119l54 -326c73 25 110 78 110 161c0 7 0 15 -1 23c-7 95 -57 142 -151 142h-12 zM382 117c-72 -2 -128 -47 -128 -120v-7c2 -46 43 -99 75 -115c-3 -2 -7 -5 -10 -10c-70 33 -116 88 -123 172v11c0 68 44 126 88 159c23 17 49 29 78 36l-29 170c-21 -13 -52 -37 -92 -73c-50 -44 -86 -84 -109 -119c-45 -69 -67 -130 -67 -182v-13c5 -68 35 -127 93 -176 s125 -73 203 -73c25 0 50 3 75 9c-19 111 -36 221 -54 331z"/></g><g id="E260-ip0qh9h"><path transform="scale(1,-1)" d="M20 110c32 16 54 27 93 27c26 0 35 -3 54 -13c13 -7 24 -20 27 -38l4 -25c0 -28 -16 -57 -45 -89c-23 -25 -39 -44 -65 -68l-88 -79v644h20v-359zM90 106c-32 0 -48 -10 -70 -29v-194c31 31 54 59 71 84c21 32 32 59 32 84c0 9 1 16 1 20c0 14 -3 21 -11 30l-8 3z"/></g><g id="E08B-ip0qh9h"><path transform="scale(1,-1)" d="M188 200c-42 -22 -63 -69 -63 -141v-119c0 -39 7 -70 19 -94s26 -40 44 -48v402zM0 -0c0 127 80 220 186 246v72h32l-6 -72c33 0 71 0 101 -11c54 -20 102 -65 102 -135c0 -16 -4 -30 -13 -43s-20 -24 -32 -29l-20 -8l-23 -3c-22 2 -41 8 -55 21s-21 31 -26 51 c0 38 45 80 79 80c12 0 19 3 19 10c0 6 -6 12 -15 18c-19 13 -47 24 -79 24c-10 0 -20 -1 -32 -5v-431c15 -3 12 -4 30 -4c57 0 100 51 121 93l17 39c3 13 5 25 5 35h26c-6 -70 -28 -121 -66 -152s-82 -47 -133 -47v-68h-30v72c-57 10 -122 54 -153 109c-7 12 -13 26 -19 42 c-11 29 -16 61 -16 96z"/></g><g id="E0A3-ip0qh9h"><path transform="scale(1,-1)" d="M278 64c0 22 -17 39 -43 39c-12 0 -26 -3 -41 -10c-85 -43 -165 -94 -165 -156c5 -25 15 -32 49 -32c67 11 200 95 200 159zM0 -36c0 68 73 174 200 174c66 0 114 -39 114 -97c0 -84 -106 -173 -218 -173c-64 0 -96 32 -96 96z"/></g><g id="E0A4-ip0qh9h"><path transform="scale(1,-1)" d="M0 -39c0 68 73 172 200 172c66 0 114 -37 114 -95c0 -84 -106 -171 -218 -171c-64 0 -96 30 -96 94z"/></g><g id="E261-ip0qh9h"><path transform="scale(1,-1)" d="M0 -188v539h18v-191l139 22v-533h-17v186zM18 -100l122 17v176l-122 -19v-174z"/></g></defs><style type="text/css">#ip0qh9h g.page-margin {font-family:Times,serif;}#ip0qh9h g.ending, #ip0qh9h g.fing, #ip0qh9h g.reh, #ip0qh9h g.tempo {font-weight:bold;}#ip0qh9h g.dir, #ip0qh9h g.dynam, #ip0qh9h g.mNum {font-style:italic;}#ip0qh9h g.label {font-weight:normal;}#ip0qh9h path {stroke:currentColor}</style><svg class="definition-scale" color="black" viewBox="0 0 14000 2100"><g class="page-margin" transform="translate(0, 150)"><g data-id="ts6q7r" data-class="mdiv" class="mdiv pageMilestone"/><g data-id="u10au815" data-class="score" class="score pageMilestone"/><g data-id="wrtkaai" data-class="system" class="system"><g data-id="w1qhr83o" data-class="section" class="section systemMilestone"/><g data-id="j1ou5ucq" data-class="measure" class="measure"><g data-id="i1yr301w" data-class="staff" class="staff"><path d="M0 540 L4850 540" stroke-width="13"/><path d="M0 720 L4850 720" stroke-width="13"/><path d="M0 900 L4850 900" stroke-width="13"/><path d="M0 1080 L4850 1080" stroke-width="13"/><path d="M0 1260 L4850 1260" stroke-width="13"/><g data-id="b1m6db42" data-class="clef" class="clef"><use href="#E050-ip0qh9h" transform="translate(90, 1080) scale(0.72, 0.72)"/></g><g data-id="cq2bop0" data-class="keySig" class="keySig"><g data-id="d1gdxau2" data-class="keyAccid" class="keyAccid"><use href="#E260-ip0qh9h" transform="translate(735, 900) scale(0.72, 0.72)"/></g><g data-id="e1sco41a" data-class="keyAccid" class="keyAccid"><use href="#E260-ip0qh9h" transform="translate(915, 630) scale(0.72, 0.72)"/></g><g data-id="f16fwsyt" data-class="keyAccid" class="keyAccid"><use href="#E260-ip0qh9h" transform="translate(1095, 990) scale(0.72, 0.72)"/></g></g><g data-id="g1li4d4y" data-class="meterSig" class="meterSig"><use href="#E08B-ip0qh9h" transform="translate(1417, 900) scale(0.72, 0.72)"/></g><g data-id="jngiuc7" data-class="layer" class="layer"><g data-id="b14i81kt" data-class="note" class="note"><g data-class="notehead" class="notehead"><use href="#E0A3-ip0qh9h" transform="translate(1987, 450) scale(0.72, 0.72)"/></g><g data-id="za6ia6o" data-class="stem" class="stem"><path d="M1996 475 L1996 1080" stroke-width="18"/></g></g><g data-id="m1o797y4" data-class="beam" class="beam"><polygon stroke-opacity="1" fill-opacity="1" points="3037,1260 4405,1440 4405,1350 3037,1170"/><g data-id="c1iw60a8" data-class="note" class="note"><g data-class="notehead" class="notehead"><use href="#E0A4-ip0qh9h" transform="translate(3037, 540) scale(0.72, 0.72)"/></g><g data-id="a11jyt4g" data-class="stem" class="stem"><path d="M3046 568 L3046 1242" stroke-width="18"/></g></g><g data-id="d9jjdrf" data-class="note" class="note"><g data-class="notehead" class="notehead"><use href="#E0A4-ip0qh9h" transform="translate(3487, 630) scale(0.72, 0.72)"/></g><g data-id="bhf4oc5" data-class="stem" class="stem"><path d="M3496 658 L3496 1302" stroke-width="18"/></g><g data-id="p7jdgee" data-class="accid" class="accid"/></g><g data-id="e1jrr0mr" data-class="note" class="note"><g data-class="notehead" class="notehead"><use href="#E0A4-ip0qh9h" transform="translate(3937, 720) scale(0.72, 0.72)"/></g><g data-id="c4e1tdj" data-class="stem" class="stem"><path d="M3946 748 L3946 1362" stroke-width="18"/></g></g><g data-id="fxnh6bz" data-class="note" class="note"><g data-class="notehead" class="notehead"><use href="#E0A4-ip0qh9h" transform="translate(4387, 810) scale(0.72, 0.72)"/></g><g data-id="du507xz" data-class="stem" class="stem"><path d="M4396 838 L4396 1422" stroke-width="18"/></g></g></g></g></g><g data-id="r1xgciq9" data-class="barLine" class="barLine"><path d="M4837 540 L4837 1260" stroke-width="27"/></g></g><g data-id="skf5lr2" data-class="measure" class="measure"><g data-id="k230971" data-class="staff" class="staff"><path d="M4850 540 L7917 540" stroke-width="13"/><path d="M4850 720 L7917 720" stroke-width="13"/><path d="M4850 900 L7917 900" stroke-width="13"/><path d="M4850 1080 L7917 1080" stroke-width="13"/><path d="M4850 1260 L7917 1260" stroke-width="13"/><g data-class="ledgerLines" class="ledgerLines above"><g data-class="lineDash" class="lineDash" data-related="#g160uwbg"><path d="M4982 360 L5304 360" stroke-width="22"/></g><g data-class="lineDash" class="lineDash" data-related="#h1pyefec"><path d="M6032 360 L6354 360" stroke-width="22"/></g></g><g data-id="lkqvcj2" data-class="layer" class="layer"><g data-id="g160uwbg" data-class="note" class="note"><g data-class="notehead" class="notehead"><use href="#E0A3-ip0qh9h" transform="translate(5030, 360) scale(0.72, 0.72)"/></g><g data-id="e1jwmoua" data-class="stem" class="stem"><path d="M5039 385 L5039 990" stroke-width="18"/></g><g data-id="qkckwml" data-class="accid" class="accid"/></g><g data-id="n13dxime" data-class="beam" class="beam"><polygon stroke-opacity="1" fill-opacity="1" points="6080,1125 7472,1485 7472,1395 6080,1035"/><g data-id="h1pyefec" data-class="note" class="note"><g data-class="notehead" class="notehead"><use href="#E0A4-ip0qh9h" transform="translate(6080, 360) scale(0.72, 0.72)"/></g><g data-id="f83nqmg" data-class="stem" class="stem"><path d="M6089 388 L6089 1107" stroke-width="18"/></g><g data-id="r14etcm7" data-class="accid" class="accid"/></g><g data-id="ihxid5q" data-class="note" class="note"><g data-class="notehead" class="notehead"><use href="#E0A4-ip0qh9h" transform="translate(6530, 540) scale(0.72, 0.72)"/></g><g data-id="gvutiwi" data-class="stem" class="stem"><path d="M6539 568 L6539 1224" stroke-width="18"/></g></g><g data-id="jag3rmo" data-class="note" class="note"><g data-class="notehead" class="notehead"><use href="#E0A4-ip0qh9h" transform="translate(6980, 720) scale(0.72, 0.72)"/></g><g data-id="h1oqqkyr" data-class="stem" class="stem"><path d="M6989 748 L6989 1342" stroke-width="18"/></g></g><g data-id="k4fsyf8" data-class="note" class="note"><g data-class="notehead" class="notehead"><use href="#E0A4-ip0qh9h" transform="translate(7454, 900) scale(0.72, 0.72)"/></g><g data-id="i35zx97" data-class="stem" class="stem"><path d="M7463 928 L7463 1467" stroke-width="18"/></g><g data-id="l4zwpjo" data-class="accid" class="accid"><use href="#E261-ip0qh9h" transform="translate(7296, 900) scale(0.72, 0.72)"/></g></g></g></g></g><g data-id="oz1cx2a" data-class="tie" class="tie"><path d="M5301,315 C5476,161 5857,161 6035,315 C5842,210 5491,210 5301,315" stroke-linecap="round" stroke-linejoin="round" stroke-width="9"/></g><g data-id="a1e1deq7" data-class="barLine" class="barLine"><path d="M7904 540 L7904 1260" stroke-width="27"/></g></g><g data-id="tmsyxdi" data-class="systemMilestoneEnd" class="systemMilestoneEnd w1qhr83o"/></g><g data-id="ux3b2lv" data-class="pageMilestoneEnd" class="pageMilestoneEnd u10au815"/><g data-id="v186d71y" data-class="pageMilestoneEnd" class="pageMilestoneEnd ts6q7r"/></g></svg></svg>