<svg viewBox="0 0 560 84" version="1.1" xmlns="http://www.w3.org/2000/svg" xmlns:xlink="http://www.w3.org/1999/xlink" overflow="visible" id="rsvcqin"><desc>Engraved by Verovio 5.6.0-85e7620</desc><defs><g id="E050-rsvcqin"><path transform="scale(1,-1)" d="M441 -245c-23 -4 -48 -6 -76 -6c-59 0 -102 7 -130 20c-88 42 -150 93 -187 154c-26 44 -43 103 -48 176c0 6 -1 13 -1 19c0 54 15 111 45 170c29 57 65 106 110 148s96 85 153 127c-3 16 -8 46 -13 92c-4 43 -5 73 -5 89c0 117 16 172 69 257c34 54 64 82 89 82 c21 0 43 -30 69 -92s39 -115 41 -159v-15c0 -109 -21 -162 -67 -241c-13 -20 -63 -90 -98 -118c-13 -9 -25 -19 -37 -29l31 -181c8 1 18 2 28 2c58 0 102 -12 133 -35c59 -43 92 -104 98 -184c1 -7 1 -15 1 -22c0 -123 -87 -209 -181 -248c8 -57 17 -110 25 -162 c5 -31 6 -58 6 -80c0 -30 -5 -53 -14 -70c-35 -64 -88 -99 -158 -103c-5 0 -11 -1 -16 -1c-37 0 -72 10 -108 27c-50 24 -77 59 -80 105v11c0 29 7 55 20 76c18 28 45 42 79 44h6c49 0 93 -42 97 -87v-9c0 -51 -34 -86 -105 -106c17 -24 51 -36 102 -36c62 0 116 43 140 85 c9 16 13 41 13 74c0 20 -1 42 -5 67c-8 53 -18 106 -26 159zM461 939c-95 0 -135 -175 -135 -286c0 -24 2 -48 5 -71c50 39 92 82 127 128c40 53 60 100 60 140v8c-4 53 -22 81 -55 81h-2zM406 119l54 -326c73 25 110 78 110 161c0 7 0 15 -1 23c-7 95 -57 142 -151 142h-12 zM382 117c-72 -2 -128 -47 -128 -120v-7c2 -46 43 -99 75 -115c-3 -2 -7 -5 -10 -10c-70 33 -116 88 -123 172v11c0 68 44 126 88 159c23 17 49 29 78 36l-29 170c-21 -13 -52 -37 -92 -73c-50 -44 -86 -84 -109 -119c-45 -69 -67 -130 -67 -182v-13c5 -68 35 -127 93 -176 s125 -73 203 -73c25 0 50 3 75 9c-19 111 -36 221 -54 331z"/></g><g id="E08A-rsvcqin"><path transform="scale(1,-1)" d="M340 179c-9 24 -56 41 -89 41c-46 0 -81 -28 -100 -58c-17 -28 -25 -78 -25 -150c0 -65 2 -111 8 -135c8 -31 18 -49 40 -67c20 -17 43 -25 70 -25c54 0 92 36 115 75c14 25 23 54 28 88h27c0 -63 -24 -105 -58 -141c-35 -38 -82 -56 -140 -56c-45 0 -83 13 -115 39 c-57 45 -101 130 -101 226c0 59 33 127 68 163c36 37 97 72 160 72c36 0 93 -21 121 -40c11 -8 23 -17 33 -30c19 -23 27 -48 27 -76c0 -51 -35 -88 -86 -88c-43 0 -76 27 -76 68c0 26 7 35 21 51c15 17 32 27 58 32c7 2 14 7 14 11z"/></g><g id="E0A3-rsvcqin"><path transform="scale(1,-1)" d="M278 64c0 22 -17 39 -43 39c-12 0 -26 -3 -41 -10c-85 -43 -165 -94 -165 -156c5 -25 15 -32 49 -32c67 11 200 95 200 159zM0 -36c0 68 73 174 200 174c66 0 114 -39 114 -97c0 -84 -106 -173 -218 -173c-64 0 -96 32 -96 96z"/></g><g id="E0A4-rsvcqin"><path transform="scale(1,-1)" d="M0 -39c0 68 73 172 200 172c66 0 114 -37 114 -95c0 -84 -106 -171 -218 -171c-64 0 -96 30 -96 94z"/></g></defs><style type="text/css">#rsvcqin g.page-margin {font-family:Times,serif;}#rsvcqin g.ending, #rsvcqin g.fing, #rsvcqin g.reh, #rsvcqin g.tempo {font-weight:bold;}#rsvcqin g.dir, #rsvcqin g.dynam, #rsvcqin g.mNum {font-style:italic;}#rsvcqin g.label {font-weight:normal;}#rsvcqin path {stroke:currentColor}</style><svg class="definition-scale" color="black" viewBox="0 0 14000 2100"><g class="page-margin" transform="translate(0, 150)"><g data-id="m10mm3t9" data-class="mdiv" class="mdiv pageMilestone"/><g data-id="nqq21o6" data-class="score" class="score pageMilestone"/><g data-id="u64dt5b" data-class="system" class="system"><g data-id="p1ujlket" data-class="section" class="section systemMilestone"/><g data-id="stbj04k" data-class="measure" class="measure"><g data-id="b6ca93w" data-class="staff" class="staff"><path d="M0 540 L3434 540" stroke-width="13"/><path d="M0 720 L3434 720" stroke-width="13"/><path d="M0 900 L3434 900" stroke-width="13"/><path d="M0 1080 L3434 1080" stroke-width="13"/><path d="M0 1260 L3434 1260" stroke-width="13"/><g data-id="m1fciop7" data-class="clef" class="clef"><use href="#E050-rsvcqin" transform="translate(90, 1080) scale(0.72, 0.72)"/></g><g data-id="na5func" data-class="keySig" class="keySig"/><g data-id="o24u27o" data-class="meterSig" class="meterSig"><use href="#E08A-rsvcqin" transform="translate(735, 900) scale(0.72, 0.72)"/></g><g data-id="cxa9nnj" data-class="layer" class="layer"><g data-id="uyinr50" data-class="note" class="note"><g data-class="notehead" class="notehead"><use href="#E0A3-rsvcqin" transform="translate(1312, 1080) scale(0.72, 0.72)"/></g><g data-id="x1hys7wh" data-class="stem" class="stem"><path d="M1529 1052 L1529 450" stroke-width="18"/></g></g><g data-id="v1u5227p" data-class="note" class="note"><g data-class="notehead" class="notehead"><use href="#E0A3-rsvcqin" transform="translate(2366, 1080) scale(0.72, 0.72)"/></g><g data-id="ytv50p7" data-class="stem" class="stem"><path d="M2583 1052 L2583 450" stroke-width="18"/></g></g></g></g><g data-id="akiusxr" data-class="barLine" class="barLine"><path d="M3421 540 L3421 1260" stroke-width="27"/></g></g><g data-id="bpxdukf" data-class="measure" class="measure"><g data-id="d1fug3bm" data-class="staff" class="staff"><path d="M3434 540 L5745 540" stroke-width="13"/><path d="M3434 720 L5745 720" stroke-width="13"/><path d="M3434 900 L5745 900" stroke-width="13"/><path d="M3434 1080 L5745 1080" stroke-width="13"/><path d="M3434 1260 L5745 1260" stroke-width="13"/><g data-id="e1hkmpqi" data-class="layer" class="layer"><g data-id="wjbt5ed" data-class="note" class="note"><g data-class="notehead" class="notehead"><use href="#E0A3-rsvcqin" transform="translate(3623, 810) scale(0.72, 0.72)"/></g><g data-id="zaypg1" data-class="stem" class="stem"><path d="M3632 835 L3632 1440" stroke-width="18"/></g></g><g data-id="xl313eh" data-class="note" class="note"><g data-class="notehead" class="notehead"><use href="#E0A3-rsvcqin" transform="translate(4677, 810) scale(0.72, 0.72)"/></g><g data-id="a3cxafh" data-class="stem" class="stem"><path d="M4686 835 L4686 1440" stroke-width="18"/></g></g></g></g><g data-id="j1v17rz9" data-class="tie" class="tie"><path d="M4948,765 C5177,612 5658,612 5889,765 C5646,660 5189,660 4948,765" stroke-linecap="round" stroke-linejoin="round" stroke-width="9"/></g><g data-id="j95lf5c" data-class="barLine" class="barLine"><path d="M5732 540 L5732 1260" stroke-width="27"/></g></g><g data-id="k1nmbx7n" data-class="measure" class="measure"><g data-id="f105vzyq" data-class="staff" class="staff"><path d="M5745 540 L8719 540" stroke-width="13"/><path d="M5745 720 L8719 720" stroke-width="13"/><path d="M5745 900 L8719 900" stroke-width="13"/><path d="M5745 1080 L8719 1080" stroke-width="13"/><path d="M5745 1260 L8719 1260" stroke-width="13"/><g data-id="g30j4km" data-class="layer" class="layer"><g data-id="y1h8nhyb" data-class="note" class="note"><g data-class="notehead" class="notehead"><use href="#E0A4-rsvcqin" transform="translate(5934, 810) scale(0.72, 0.72)"/></g><g data-id="b1je7lb9" data-class="stem" class="stem"><path d="M5943 838 L5943 1440" stroke-width="18"/></g></g><g data-id="z81bbyt" data-class="note" class="note"><g data-class="notehead" class="notehead"><use href="#E0A4-rsvcqin" transform="translate(6627, 1080) scale(0.72, 0.72)"/></g><g data-id="c1jxck7c" data-class="stem" class="stem"><path d="M6844 1052 L6844 450" stroke-width="18"/></g></g><g data-id="ano0tn4" data-class="note" class="note"><g data-class="notehead" class="notehead"><use href="#E0A4-rsvcqin" transform="translate(7320, 1080) scale(0.72, 0.72)"/></g><g data-id="d1l8zoa6" data-class="stem" class="stem"><path d="M7537 1052 L7537 450" stroke-width="18"/></g></g><g data-id="by5w3n" data-class="note" class="note"><g data-class="notehead" class="notehead"><use href="#E0A4-rsvcqin" transform="translate(8013, 1080) scale(0.72, 0.72)"/></g><g data-id="ew3oamy" data-class="stem" class="stem"><path d="M8230 1052 L8230 450" stroke-width="18"/></g></g></g></g><g data-id="sllngv" data-class="barLine" class="barLine"><path d="M8706 540 L8706 1260" stroke-width="27"/></g></g><g data-id="t1rry71" data-class="measure" class="measure"><g data-id="h4xgeo7" data-class="staff" class="staff"><path d="M8719 540 L11030 540" stroke-width="13"/><path d="M8719 720 L11030 720" stroke-width="13"/><path d="M8719 900 L11030 900" stroke-width="13"/><path d="M8719 1080 L11030 1080" stroke-width="13"/><path d="M8719 1260 L11030 1260" stroke-width="13"/><g data-id="i1uxbwbj" data-class="layer" class="layer"><g data-id="cpelh07" data-class="note" class="note"><g data-class="notehead" class="notehead"><use href="#E0A3-rsvcqin" transform="translate(8908, 1080) scale(0.72, 0.72)"/></g><g data-id="f109024e" data-class="stem" class="stem"><path d="M9125 1052 L9125 450" stroke-width="18"/></g></g><g data-id="d19prqt8" data-class="note" class="note"><g data-class="notehead" class="notehead"><use href="#E0A3-rsvcqin" transform="translate(9962, 1080) scale(0.72, 0.72)"/></g><g data-id="g8cfr6f" data-class="stem" class="stem"><path d="M10179 1052 L10179 450" stroke-width="18"/></g></g></g></g><g data-id="kcr79oi" data-class="tie" class="tie"><path d="M10233,1125 C10474,1230 10931,1230 11174,1125 C10943,1278 10462,1278 10233,1125" stroke-linecap="round" stroke-linejoin="round" stroke-width="9"/></g><g data-id="bgbo5vl" data-class="barLine" class="barLine"><path d="M11017 540 L11017 1260" stroke-width="27"/></g></g><g data-id="c4qxxm" data-class="measure" class="measure"><g data-id="j1pd87hj" data-class="staff" class="staff"><path d="M11030 540 L14004 540" stroke-width="13"/><path d="M11030 720 L14004 720" stroke-width="13"/><path d="M11030 900 L14004 900" stroke-width="13"/><path d="M11030 1080 L14004 1080" stroke-width="13"/><path d="M11030 1260 L14004 1260" stroke-width="13"/><g data-id="k1eh1e9" data-class="layer" class="layer"><g data-id="en9btwz" data-class="note" class="note"><g data-class="notehead" class="notehead"><use href="#E0A4-rsvcqin" transform="translate(11219, 1080) scale(0.72, 0.72)"/></g><g data-id="h1c7lmbn" data-class="stem" class="stem"><path d="M11436 1052 L11436 450" stroke-width="18"/></g></g><g data-id="f1nbc9yb" data-class="note" class="note"><g data-class="notehead" class="notehead"><use href="#E0A4-rsvcqin" transform="translate(11912, 1080) scale(0.72, 0.72)"/></g><g data-id="ivlbjqx" data-class="stem" class="stem"><path d="M12129 1052 L12129 450" stroke-width="18"/></g></g><g data-id="g8spurs" data-class="note" class="note"><g data-class="notehead" class="notehead"><use href="#E0A4-rsvcqin" transform="translate(12605, 1080) scale(0.72, 0.72)"/></g><g data-id="jg9qk9a" data-class="stem" class="stem"><path d="M12822 1052 L12822 450" stroke-width="18"/></g></g><g data-id="ht9wx3u" data-class="note" class="note"><g data-class="notehead" class="notehead"><use href="#E0A4-rsvcqin" transform="translate(13298, 1080) scale(0.72, 0.72)"/></g><g data-id="kxjt4nk" data-class="stem" class="stem"><path d="M13515 1052 L13515 450" stroke-width="18"/></g></g></g></g><g data-id="k19kairw" data-class="barLine" class="barLine"><path d="M13991 540 L13991 1260" stroke-width="27"/></g></g></g></g></svg></svg>