<svg viewBox="0 0 560 84" version="1.1" xmlns="http://www.w3.org/2000/svg" xmlns:xlink="http://www.w3.org/1999/xlink" overflow="visible" id="y36xui"><desc>Engraved by Verovio 5.6.0-85e7620</desc><defs><g id="E050-y36xui"><path transform="scale(1,-1)" d="M441 -245c-23 -4 -48 -6 -76 -6c-59 0 -102 7 -130 20c-88 42 -150 93 -187 154c-26 44 -43 103 -48 176c0 6 -1 13 -1 19c0 54 15 111 45 170c29 57 65 106 110 148s96 85 153 127c-3 16 -8 46 -13 92c-4 43 -5 73 -5 89c0 117 16 172 69 257c34 54 64 82 89 82 c21 0 43 -30 69 -92s39 -115 41 -159v-15c0 -109 -21 -162 -67 -241c-13 -20 -63 -90 -98 -118c-13 -9 -25 -19 -37 -29l31 -181c8 1 18 2 28 2c58 0 102 -12 133 -35c59 -43 92 -104 98 -184c1 -7 1 -15 1 -22c0 -123 -87 -209 -181 -248c8 -57 17 -110 25 -162 c5 -31 6 -58 6 -80c0 -30 -5 -53 -14 -70c-35 -64 -88 -99 -158 -103c-5 0 -11 -1 -16 -1c-37 0 -72 10 -108 27c-50 24 -77 59 -80 105v11c0 29 7 55 20 76c18 28 45 42 79 44h6c49 0 93 -42 97 -87v-9c0 -51 -34 -86 -105 -106c17 -24 51 -36 102 -36c62 0 116 43 140 85 c9 16 13 41 13 74c0 20 -1 42 -5 67c-8 53 -18 106 -26 159zM461 939c-95 0 -135 -175 -135 -286c0 -24 2 -48 5 -71c50 39 92 82 127 128c40 53 60 100 60 140v8c-4 53 -22 81 -55 81h-2zM406 119l54 -326c73 25 110 78 110 161c0 7 0 15 -1 23c-7 95 -57 142 -151 142h-12 zM382 117c-72 -2 -128 -47 -128 -120v-7c2 -46 43 -99 75 -115c-3 -2 -7 -5 -10 -10c-70 33 -116 88 -123 172v11c0 68 44 126 88 159c23 17 49 29 78 36l-29 170c-21 -13 -52 -37 -92 -73c-50 -44 -86 -84 -109 -119c-45 -69 -67 -130 -67 -182v-13c5 -68 35 -127 93 -176 s125 -73 203 -73c25 0 50 3 75 9c-19 111 -36 221 -54 331z"/></g><g id="E081-y36xui"><path transform="scale(1,-1)" d="M68 -250v36c23 0 40 6 49 18c8 14 12 33 12 57v250l-82 -129l-27 13l107 255h128v-394c0 -24 5 -42 14 -53s25 -17 47 -17v-36h-248z"/></g><g id="E082-y36xui"><path transform="scale(1,-1)" d="M124 -185c-18 0 -55 -14 -65 -65h-36l-3 30c0 25 6 45 18 63c11 19 22 30 39 43l121 82l37 29c15 11 27 29 38 54c12 24 18 47 18 70c0 40 -19 88 -94 88c-25 0 -32 0 -50 -8c-14 -5 -23 -12 -26 -22c3 -9 7 -15 10 -18l24 -17c12 -7 17 -11 27 -21c5 -7 7 -16 7 -27 c0 -12 0 -57 -79 -74c-30 0 -76 26 -76 94c0 66 81 135 197 135c72 0 181 -32 181 -150c0 -53 -32 -95 -113 -133l-91 -41c-26 -11 -45 -23 -57 -37l49 7c84 0 115 -41 148 -41c20 0 33 20 39 61h35c0 -152 -68 -168 -114 -168c-17 0 -65 0 -79 7h10l-28 17 c-49 37 -69 40 -87 42z"/></g><g id="E088-y36xui"><path transform="scale(1,-1)" d="M195 -214c76 0 88 58 90 68c0 34 -35 60 -57 73l-52 29c-21 10 -32 17 -34 20c-39 -33 -58 -54 -62 -92c5 -23 23 -98 115 -98zM301 135c0 61 -72 76 -113 76c-40 0 -77 -17 -77 -51c3 -21 15 -38 26 -50c17 -15 33 -26 48 -34l65 -28c34 27 51 56 51 87zM176 -250 c-57 0 -166 26 -166 132c0 47 30 86 89 116c-33 15 -79 60 -79 119c0 79 85 132 178 132h18c5 0 21 1 28 -1c25 0 126 -30 126 -110c0 -37 -23 -76 -69 -116c43 -25 83 -71 83 -119c0 -101 -118 -153 -208 -153z"/></g><g id="E0A4-y36xui"><path transform="scale(1,-1)" d="M0 -39c0 68 73 172 200 172c66 0 114 -37 114 -95c0 -84 -106 -171 -218 -171c-64 0 -96 30 -96 94z"/></g><g id="E240-y36xui"><path transform="scale(1,-1)" d="M179 -646c15 29 29 55 46 102c18 49 30 108 30 138c0 105 -80 173 -168 200c-18 5 -47 9 -87 16v190h22c8 0 33 -61 71 -95c4 -3 -2 3 61 -56c62 -58 122 -137 122 -241c0 -38 -13 -106 -35 -163c-20 -51 -43 -99 -66 -132c-6 -5 -10 -7 -13 -7s-5 2 -5 5l4 10 c1 3 14 25 18 33z"/></g><g id="E262-y36xui"><path transform="scale(1,-1)" d="M136 186v169h17v-164l44 14v-91l-44 -14v-165l44 12v-91l-44 -13v-155h-17v150l-76 -22v-155h-17v149l-43 -13v90l43 14v167l-43 -14v92l43 13v169h17v-163zM60 73v-167l76 22v168z"/></g></defs><style type="text/css">#y36xui g.page-margin {font-family:Times,serif;}#y36xui g.ending, #y36xui g.fing, #y36xui g.reh, #y36xui g.tempo {font-weight:bold;}#y36xui g.dir, #y36xui g.dynam, #y36xui g.mNum {font-style:italic;}#y36xui g.label {font-weight:normal;}#y36xui path {stroke:currentColor}</style><svg class="definition-scale" color="black" viewBox="0 0 14000 2100"><g class="page-margin" transform="translate(0, 150)"><g data-id="a1efiehu" data-class="mdiv" class="mdiv pageMilestone"/><g data-id="b1iq8gjj" data-class="score" class="score pageMilestone"/><g data-id="fz4hsz7" data-class="system" class="system"><g data-id="doxlh82" data-class="section" class="section systemMilestone"/><g data-id="z1q3bupg" data-class="measure" class="measure"><g data-id="p1iauztx" data-class="staff" class="staff"><path d="M0 540 L2222 540" stroke-width="13"/><path d="M0 720 L2222 720" stroke-width="13"/><path d="M0 900 L2222 900" stroke-width="13"/><path d="M0 1080 L2222 1080" stroke-width="13"/><path d="M0 1260 L2222 1260" stroke-width="13"/><g data-id="nb7d9m9" data-class="clef" class="clef"><use href="#E050-y36xui" transform="translate(90, 1080) scale(0.72, 0.72)"/></g><g data-id="o17k9kvm" data-class="keySig" class="keySig"/><g data-id="p159us3u" data-class="meterSig" class="meterSig"><use href="#E081-y36xui" transform="translate(721, 720) scale(0.72, 0.72)"/><use href="#E082-y36xui" transform="translate(962, 720) scale(0.72, 0.72)"/><use href="#E088-y36xui" transform="translate(856, 1080) scale(0.72, 0.72)"/></g><g data-id="q18yu1zt" data-class="layer" class="layer"><g data-id="a34xh5t" data-class="note" class="note"><g data-class="notehead" class="notehead"><use href="#E0A4-y36xui" transform="translate(1578, 1260) scale(0.72, 0.72)"/></g><g data-id="fyiuuny" data-class="stem" class="stem"><path d="M1795 1232 L1795 630" stroke-width="18"/><g data-id="g1ikcm7j" data-class="flag" class="flag"><use href="#E240-y36xui" transform="translate(1786, 630) scale(0.72, 0.72)"/></g></g></g></g></g><g data-id="h12jdzhh" data-class="barLine" class="barLine"><path d="M2209 540 L2209 1260" stroke-width="27"/></g></g><g data-id="i1o6zr06" data-class="measure" class="measure"><g data-id="r1ykvrs7" data-class="staff" class="staff"><path d="M2222 540 L8727 540" stroke-width="13"/><path d="M2222 720 L8727 720" stroke-width="13"/><path d="M2222 900 L8727 900" stroke-width="13"/><path d="M2222 1080 L8727 1080" stroke-width="13"/><path d="M2222 1260 L8727 1260" stroke-width="13"/><g data-id="sowmubn" data-class="layer" class="layer"><g data-id="b1t3stlb" data-class="note" class="note"><g data-class="notehead" class="notehead"><use href="#E0A4-y36xui" transform="translate(2445, 1260) scale(0.72, 0.72)"/></g><g data-id="hghxx5u" data-class="stem" class="stem"><path d="M2662 1232 L2662 630" stroke-width="18"/></g></g><g data-id="c1xrw4qp" data-class="note" class="note"><g data-class="notehead" class="notehead"><use href="#E0A4-y36xui" transform="translate(3299, 1260) scale(0.72, 0.72)"/></g><g data-id="i17urb8f" data-class="stem" class="stem"><path d="M3516 1232 L3516 630" stroke-width="18"/><g data-id="jepgpuj" data-class="flag" class="flag"><use href="#E240-y36xui" transform="translate(3507, 630) scale(0.72, 0.72)"/></g></g></g><g data-id="d1sfosln" data-class="note" class="note"><g data-class="notehead" class="notehead"><use href="#E0A4-y36xui" transform="translate(3856, 1260) scale(0.72, 0.72)"/></g><g data-id="knaxucw" data-class="stem" class="stem"><path d="M4073 1232 L4073 630" stroke-width="18"/></g></g><g data-id="ejjenrw" data-class="note" class="note"><g data-class="notehead" class="notehead"><use href="#E0A4-y36xui" transform="translate(4709, 1260) scale(0.72, 0.72)"/></g><g data-id="lbr2jkp" data-class="stem" class="stem"><path d="M4926 1232 L4926 630" stroke-width="18"/><g data-id="m2z3090" data-class="flag" class="flag"><use href="#E240-y36xui" transform="translate(4917, 630) scale(0.72, 0.72)"/></g></g></g><g data-id="v1y9td6v" data-class="beam" class="beam"><polygon stroke-opacity="1" fill-opacity="1" points="5474,405 6899,405 6899,495 5474,495"/><g data-id="fefkm3h" data-class="note" class="note"><g data-class="notehead" class="notehead"><use href="#E0A4-y36xui" transform="translate(5266, 1260) scale(0.72, 0.72)"/></g><g data-id="nhf7su0" data-class="stem" class="stem"><path d="M5483 1232 L5483 423" stroke-width="18"/></g></g><g data-id="gtoogkb" data-class="note" class="note"><g data-class="notehead" class="notehead"><use href="#E0A4-y36xui" transform="translate(5745, 1080) scale(0.54, 0.54)"/></g><g data-id="ovx33tl" data-class="stem" class="stem"><path d="M5905 1059 L5905 608" stroke-width="18"/><path d="M5838 876 L6039 675" stroke-width="21"/><g data-id="p92a0g9" data-class="flag" class="flag"><use href="#E240-y36xui" transform="translate(5896, 608) scale(0.54, 0.54)"/></g></g></g><g data-id="hk01agr" data-class="note" class="note"><g data-class="notehead" class="notehead"><use href="#E0A4-y36xui" transform="translate(6116, 1170) scale(0.72, 0.72)"/></g><g data-id="q2zysgw" data-class="stem" class="stem"><path d="M6333 1142 L6333 423" stroke-width="18"/></g></g><g data-id="ir9kpho" data-class="note" class="note"><g data-class="notehead" class="notehead"><use href="#E0A4-y36xui" transform="translate(6673, 1260) scale(0.72, 0.72)"/></g><g data-id="rqii2kf" data-class="stem" class="stem"><path d="M6890 1232 L6890 423" stroke-width="18"/></g></g></g><g data-id="j1i9cci4" data-class="note" class="note"><g data-class="notehead" class="notehead"><use href="#E0A4-y36xui" transform="translate(7230, 1260) scale(0.72, 0.72)"/></g><g data-id="s11lojjf" data-class="stem" class="stem"><path d="M7447 1232 L7447 630" stroke-width="18"/></g></g><g data-id="kdc29a2" data-class="note" class="note"><g data-class="notehead" class="notehead"><use href="#E0A4-y36xui" transform="translate(8083, 1260) scale(0.72, 0.72)"/></g><g data-id="t10urp2d" data-class="stem" class="stem"><path d="M8300 1232 L8300 630" stroke-width="18"/><g data-id="u1q6mgi4" data-class="flag" class="flag"><use href="#E240-y36xui" transform="translate(8291, 630) scale(0.72, 0.72)"/></g></g></g></g></g><g data-id="q1cb9j2v" data-class="barLine" class="barLine"><path d="M8714 540 L8714 1260" stroke-width="27"/></g></g><g data-id="rubxstd" data-class="measure" class="measure"><g data-id="twa6uxd" data-class="staff" class="staff"><path d="M8727 540 L14001 540" stroke-width="13"/><path d="M8727 720 L14001 720" stroke-width="13"/><path d="M8727 900 L14001 900" stroke-width="13"/><path d="M8727 1080 L14001 1080" stroke-width="13"/><path d="M8727 1260 L14001 1260" stroke-width="13"/><g data-id="uc0i437" data-class="layer" class="layer"><g data-id="wrnt7n9" data-class="beam" class="beam"><polygon stroke-opacity="1" fill-opacity="1" points="9158,675 10354,675 10354,765 9158,765"/><g data-id="l100r7ap" data-class="note" class="note"><g data-class="notehead" class="notehead"><use href="#E0A4-y36xui" transform="translate(8950, 1260) scale(0.72, 0.72)"/></g><g data-id="vqdnpnr" data-class="stem" class="stem"><path d="M9167 1232 L9167 693" stroke-width="18"/></g></g><g data-id="m1x0qoz9" data-class="note" class="note"><g data-class="notehead" class="notehead"><use href="#E0A4-y36xui" transform="translate(9571, 1350) scale(0.72, 0.72)"/></g><g data-id="wx2doi9" data-class="stem" class="stem"><path d="M9788 1322 L9788 693" stroke-width="18"/></g><g data-id="tkunpk0" data-class="accid" class="accid"><use href="#E262-y36xui" transform="translate(9385, 1350) scale(0.72, 0.72)"/></g></g><g data-id="n1ocjxi4" data-class="note" class="note"><g data-class="notehead" class="notehead"><use href="#E0A4-y36xui" transform="translate(10128, 1260) scale(0.72, 0.72)"/></g><g data-id="xhksfci" data-class="stem" class="stem"><path d="M10345 1232 L10345 693" stroke-width="18"/></g></g></g><g data-id="xw79cle" data-class="beam" class="beam"><polygon stroke-opacity="1" fill-opacity="1" points="10893,540 12024,630 12024,720 10893,630"/><g data-id="oehy30z" data-class="note" class="note"><g data-class="notehead" class="notehead"><use href="#E0A4-y36xui" transform="translate(10685, 1170) scale(0.72, 0.72)"/></g><g data-id="y1br0a78" data-class="stem" class="stem"><path d="M10902 1142 L10902 558" stroke-width="18"/></g></g><g data-id="pdty5yw" data-class="note" class="note"><g data-class="notehead" class="notehead"><use href="#E0A4-y36xui" transform="translate(11242, 1350) scale(0.72, 0.72)"/></g><g data-id="z1xy6chq" data-class="stem" class="stem"><path d="M11459 1322 L11459 604" stroke-width="18"/></g><g data-id="y1hh7mev" data-class="accid" class="accid"/></g><g data-id="qoixdid" data-class="note" class="note"><g data-class="notehead" class="notehead"><use href="#E0A4-y36xui" transform="translate(11798, 1260) scale(0.72, 0.72)"/></g><g data-id="ac681hw" data-class="stem" class="stem"><path d="M12015 1232 L12015 648" stroke-width="18"/></g></g></g><g data-id="rx83bgf" data-class="note" class="note"><g data-class="notehead" class="notehead"><use href="#E0A4-y36xui" transform="translate(12355, 990) scale(0.72, 0.72)"/></g><g data-id="cakou6q" data-class="dots" class="dots"><ellipse cx="12671" cy="990" rx="36" ry="36" fill-opacity="1" stroke-opacity="1"/></g><g data-id="bzh7ddw" data-class="stem" class="stem"><path d="M12572 962 L12572 360" stroke-width="18"/></g></g><g data-id="s1s3nsyw" data-class="note" class="note"><g data-class="notehead" class="notehead"><use href="#E0A4-y36xui" transform="translate(13444, 1080) scale(0.72, 0.72)"/></g><g data-id="dgekl37" data-class="stem" class="stem"><path d="M13661 1052 L13661 450" stroke-width="18"/><g data-id="e1fnjvrg" data-class="flag" class="flag"><use href="#E240-y36xui" transform="translate(13652, 450) scale(0.72, 0.72)"/></g></g><g data-id="u141tfuh" data-class="accid" class="accid"><use href="#E262-y36xui" transform="translate(13258, 1080) scale(0.72, 0.72)"/></g></g></g></g><g data-id="z16uyx2r" data-class="barLine" class="barLine"/></g><g data-id="c1utgold" data-class="systemMilestoneEnd" class="systemMilestoneEnd doxlh82"/></g><g data-id="dwkpa3j" data-class="pageMilestoneEnd" class="pageMilestoneEnd b1iq8gjj"/><g data-id="e1jz5ybt" data-class="pageMilestoneEnd" class="pageMilestoneEnd a1efiehu"/></g></svg></svg>