<svg viewBox="0 0 560 90" version="1.1" xmlns="http://www.w3.org/2000/svg" xmlns:xlink="http://www.w3.org/1999/xlink" overflow="visible" id="u1all2e5"><desc>Engraved by Verovio 5.6.0-85e7620</desc><defs><g id="E062-u1all2e5"><path transform="scale(1,-1)" d="M582 -120c0 32 26 58 58 58s58 -26 58 -58s-26 -58 -58 -58s-58 26 -58 58zM582 120c0 32 26 58 58 58s58 -26 58 -58s-26 -58 -58 -58s-58 26 -58 58zM158 96c51 0 73 -14 88 -49l16 -39c0 -17 -2 -30 -7 -40c-3 -11 -10 -21 -19 -31c-17 -18 -49 -43 -84 -43 c-55 0 -77 13 -112 44c-24 21 -35 55 -35 100c0 46 14 81 32 112c30 52 71 79 137 93l36 6l26 2c154 0 235 -68 274 -182c11 -32 18 -68 18 -107c0 -103 -26 -182 -68 -250c-89 -145 -234 -230 -412 -288l-30 -5c-9 0 -14 3 -14 8c3 10 5 11 10 16c35 15 70 30 96 44l78 43 c96 57 162 136 197 258c9 33 17 60 22 100c3 22 5 35 6 39c-7 69 -16 115 -23 140s-4 22 -16 40c-8 12 -19 23 -31 34c-24 21 -62 44 -118 44c-48 0 -84 -8 -113 -28c-28 -19 -42 -44 -42 -73v-16c2 -5 3 -9 4 -11c24 22 52 39 84 39z"/></g><g id="E260-u1all2e5"><path transform="scale(1,-1)" d="M20 110c32 16 54 27 93 27c26 0 35 -3 54 -13c13 -7 24 -20 27 -38l4 -25c0 -28 -16 -57 -45 -89c-23 -25 -39 -44 -65 -68l-88 -79v644h20v-359zM90 106c-32 0 -48 -10 -70 -29v-194c31 31 54 59 71 84c21 32 32 59 32 84c0 9 1 16 1 20c0 14 -3 21 -11 30l-8 3z"/></g><g id="E086-u1all2e5"><path transform="scale(1,-1)" d="M284 -91c0 37 -28 92 -67 92c-35 0 -65 -54 -65 -111c0 -52 22 -104 68 -104c47 0 64 68 64 123zM230 214c-36 0 -90 -33 -90 -184l2 -36c40 24 81 36 120 36c80 0 140 -48 140 -121c0 -99 -99 -159 -182 -159c-160 0 -200 173 -200 244c0 21 2 43 7 71l10 35 c26 85 73 115 98 126c41 19 74 24 103 24c93 0 142 -63 142 -105c0 -58 -52 -72 -73 -72c-33 0 -59 24 -65 35c-3 5 -6 14 -7 25l11 30c6 15 9 27 9 35c0 11 -9 16 -25 16z"/></g><g id="E088-u1all2e5"><path transform="scale(1,-1)" d="M195 -214c76 0 88 58 90 68c0 34 -35 60 -57 73l-52 29c-21 10 -32 17 -34 20c-39 -33 -58 -54 -62 -92c5 -23 23 -98 115 -98zM301 135c0 61 -72 76 -113 76c-40 0 -77 -17 -77 -51c3 -21 15 -38 26 -50c17 -15 33 -26 48 -34l65 -28c34 27 51 56 51 87zM176 -250 c-57 0 -166 26 -166 132c0 47 30 86 89 116c-33 15 -79 60 -79 119c0 79 85 132 178 132h18c5 0 21 1 28 -1c25 0 126 -30 126 -110c0 -37 -23 -76 -69 -116c43 -25 83 -71 83 -119c0 -101 -118 -153 -208 -153z"/></g><g id="E4E7-u1all2e5"><path transform="scale(1,-1)" d="M133 -111c0 -33 -21 -50 -52 -55c10 -3 18 -4 25 -4c40 0 69 24 90 47l66 197c-36 -18 -64 -25 -112 -25c-23 0 -38 3 -45 8c-37 7 -55 27 -55 59c8 35 30 54 68 58c45 -6 49 -13 64 -48c0 -3 1 -5 1 -7c0 -27 -25 -46 -52 -49c6 -4 15 -6 26 -6c32 2 62 14 88 29 c32 19 44 36 59 71l7 1l10 2h4c-72 -220 -143 -439 -215 -659h-37l108 324c-20 -13 -51 -20 -82 -20c-21 0 -35 4 -43 10c-37 6 -55 26 -55 58c8 35 31 56 68 60c43 -8 48 -13 64 -51z"/></g><g id="E0A4-u1all2e5"><path transform="scale(1,-1)" d="M0 -39c0 68 73 172 200 172c66 0 114 -37 114 -95c0 -84 -106 -171 -218 -171c-64 0 -96 30 -96 94z"/></g><g id="E883-u1all2e5"><path transform="scale(1,-1)" d="M161 326c52 0 94 -17 94 -68c0 -50 -40 -76 -82 -94c26 -21 39 -42 39 -64c0 -52 -56 -100 -118 -100h-12c-40 0 -82 23 -82 56c0 30 12 49 37 49c17 0 31 -16 34 -31c0 -5 -4 -12 -11 -21c-7 -5 -13 -10 -13 -21l11 -9l17 -4c21 0 40 12 56 37c13 21 19 45 19 70 c-9 30 -28 35 -66 35l6 23c34 0 60 4 77 13c20 11 30 35 30 70c0 28 -12 38 -39 40l-20 -3c-8 -3 -12 -9 -12 -16c2 -7 4 -11 5 -14l4 -11l3 -10l-3 -12c-5 -6 -11 -11 -20 -13c-2 0 -4 -1 -6 -1c-16 0 -30 13 -30 28c0 39 43 71 82 71z"/></g></defs><style type="text/css">#u1all2e5 g.page-margin {font-family:Times,serif;}#u1all2e5 g.ending, #u1all2e5 g.fing, #u1all2e5 g.reh, #u1all2e5 g.tempo {font-weight:bold;}#u1all2e5 g.dir, #u1all2e5 g.dynam, #u1all2e5 g.mNum {font-style:italic;}#u1all2e5 g.label {font-weight:normal;}#u1all2e5 path {stroke:currentColor}</style><svg class="definition-scale" color="black" viewBox="0 0 14000 2250"><g class="page-margin" transform="translate(0, 150)"><g data-id="q4u83gh" data-class="mdiv" class="mdiv pageMilestone"/><g data-id="ru9jwpe" data-class="score" class="score pageMilestone"/><g data-id="h1gepgx4" data-class="system" class="system"><g data-id="t1s9s3or" data-class="section" class="section systemMilestone"/><g data-id="vgige3" data-class="measure" class="measure"><g data-id="f1fg43oi" data-class="staff" class="staff"><path d="M0 540 L7905 540" stroke-width="13"/><path d="M0 720 L7905 720" stroke-width="13"/><path d="M0 900 L7905 900" stroke-width="13"/><path d="M0 1080 L7905 1080" stroke-width="13"/><path d="M0 1260 L7905 1260" stroke-width="13"/><g data-id="l81c6kp" data-class="clef" class="clef"><use href="#E062-u1all2e5" transform="translate(88, 720) scale(0.72, 0.72)"/></g><g data-id="m1a1bboa" data-class="keySig" class="keySig"><g data-id="n13txy73" data-class="keyAccid" class="keyAccid"><use href="#E260-u1all2e5" transform="translate(769, 1080) scale(0.72, 0.72)"/></g><g data-id="ogxls4x" data-class="keyAccid" class="keyAccid"><use href="#E260-u1all2e5" transform="translate(949, 810) scale(0.72, 0.72)"/></g><g data-id="p1cgrs4r" data-class="keyAccid" class="keyAccid"><use href="#E260-u1all2e5" transform="translate(1129, 1170) scale(0.72, 0.72)"/></g><g data-id="qcwvdqh" data-class="keyAccid" class="keyAccid"><use href="#E260-u1all2e5" transform="translate(1309, 900) scale(0.72, 0.72)"/></g></g><g data-id="r15882ed" data-class="meterSig" class="meterSig"><use href="#E086-u1all2e5" transform="translate(1617, 720) scale(0.72, 0.72)"/><use href="#E088-u1all2e5" transform="translate(1624, 1080) scale(0.72, 0.72)"/></g><g data-class="ledgerLines" class="ledgerLines above"><g data-class="lineDash" class="lineDash" data-related="#lzpkhuh"><path d="M4031 360 L4353 360" stroke-width="22"/></g><g data-class="lineDash" class="lineDash" data-related="#q2ea5tr"><path d="M5934 360 L6256 360" stroke-width="22"/></g><g data-class="lineDash" class="lineDash" data-related="#s1mdyq5q"><path d="M6584 360 L6870 360" stroke-width="22"/></g><g data-class="lineDash" class="lineDash" data-related="#tathp5r"><path d="M6900 360 L7186 360" stroke-width="22"/></g><g data-class="lineDash" class="lineDash" data-related="#ufh0z31"><path d="M7216 360 L7502 360" stroke-width="22"/></g><g data-class="lineDash" class="lineDash" data-related="#tathp5r"><path d="M6900 180 L7186 180" stroke-width="22"/></g></g><g data-id="g9mv4lj" data-class="layer" class="layer"><g data-id="w1ru7uy3" data-class="beam" class="beam"><polygon stroke-opacity="1" fill-opacity="1" points="2280,1669 4729,1620 4729,1530 2280,1579"/><polygon stroke-opacity="1" fill-opacity="1" points="2280,1534 2508,1530 2508,1440 2280,1444"/><polygon stroke-opacity="1" fill-opacity="1" points="2508,1530 2824,1523 2824,1433 2508,1440"/><polygon stroke-opacity="1" fill-opacity="1" points="2824,1523 3140,1517 3140,1427 2824,1433"/><polygon stroke-opacity="1" fill-opacity="1" points="3140,1517 3456,1510 3456,1420 3140,1427"/><polygon stroke-opacity="1" fill-opacity="1" points="3456,1510 3772,1504 3772,1414 3456,1420"/><polygon stroke-opacity="1" fill-opacity="1" points="3772,1504 4088,1497 4088,1407 3772,1414"/><polygon stroke-opacity="1" fill-opacity="1" points="4088,1497 4404,1491 4404,1401 4088,1407"/><polygon stroke-opacity="1" fill-opacity="1" points="4404,1491 4729,1485 4729,1395 4404,1401"/><g data-id="yg7kbvw" data-class="tuplet" class="tuplet"><g data-id="w12ia93g" data-class="tupletNum" class="tupletNum"><use href="#E883-u1all2e5" transform="translate(2516, 1959) scale(0.72, 0.72)"/></g><g data-id="v1dnilf" data-class="tupletBracket" class="tupletBracket"><polyline stroke="currentColor" stroke-width="18" stroke-opacity="1" stroke-linecap="butt" stroke-linejoin="miter" fill="none" points="2185,1734 2185,1851 2471,1844 "/><polyline stroke="currentColor" stroke-width="18" stroke-opacity="1" stroke-linecap="butt" stroke-linejoin="miter" fill="none" points="3032,1716 3032,1833 2744,1839 "/></g><g data-id="e1hww80b" data-class="rest" class="rest"><use href="#E4E7-u1all2e5" transform="translate(2176, 900) scale(0.72, 0.72)"/></g><g data-id="gtq16im" data-class="note" class="note"><g data-class="notehead" class="notehead"><use href="#E0A4-u1all2e5" transform="translate(2499, 990) scale(0.72, 0.72)"/></g><g data-id="x1xcbdkb" data-class="stem" class="stem"><path d="M2508 1018 L2508 1647" stroke-width="18"/></g></g><g data-id="h1ssi0t3" data-class="note" class="note"><g data-class="notehead" class="notehead"><use href="#E0A4-u1all2e5" transform="translate(2815, 810) scale(0.72, 0.72)"/></g><g data-id="y7p1xi1" data-class="stem" class="stem"><path d="M2824 838 L2824 1640" stroke-width="18"/></g><g data-id="e4k73s0" data-class="accid" class="accid"/></g></g><g data-id="zvfiu9m" data-class="tuplet" class="tuplet"><g data-id="a100pomj" data-class="tupletNum" class="tupletNum"><use href="#E883-u1all2e5" transform="translate(3468, 1940) scale(0.72, 0.72)"/></g><g data-id="zu0o4gt" data-class="tupletBracket" class="tupletBracket"><polyline stroke="currentColor" stroke-width="18" stroke-opacity="1" stroke-linecap="butt" stroke-linejoin="miter" fill="none" points="3140,1714 3140,1831 3423,1825 "/><polyline stroke="currentColor" stroke-width="18" stroke-opacity="1" stroke-linecap="butt" stroke-linejoin="miter" fill="none" points="3980,1697 3980,1814 3696,1819 "/></g><g data-id="i5bhwd4" data-class="note" class="note"><g data-class="notehead" class="notehead"><use href="#E0A4-u1all2e5" transform="translate(3131, 540) scale(0.72, 0.72)"/></g><g data-id="bc25mcd" data-class="stem" class="stem"><path d="M3140 568 L3140 1634" stroke-width="18"/></g><g data-id="f10mz58q" data-class="accid" class="accid"/></g><g data-id="jjgkokx" data-class="note" class="note"><g data-class="notehead" class="notehead"><use href="#E0A4-u1all2e5" transform="translate(3447, 810) scale(0.72, 0.72)"/></g><g data-id="c8pa5ci" data-class="stem" class="stem"><path d="M3456 838 L3456 1627" stroke-width="18"/></g><g data-id="g9r349o" data-class="accid" class="accid"/></g><g data-id="k8ca79f" data-class="note" class="note"><g data-class="notehead" class="notehead"><use href="#E0A4-u1all2e5" transform="translate(3763, 540) scale(0.72, 0.72)"/></g><g data-id="du1mx4n" data-class="stem" class="stem"><path d="M3772 568 L3772 1621" stroke-width="18"/></g><g data-id="ht2vbza" data-class="accid" class="accid"/></g></g><g data-id="a1ro7134" data-class="tuplet" class="tuplet"><g data-id="fgx7sfo" data-class="tupletNum" class="tupletNum"><use href="#E883-u1all2e5" transform="translate(4416, 1920) scale(0.72, 0.72)"/></g><g data-id="eoau48s" data-class="tupletBracket" class="tupletBracket"><polyline stroke="currentColor" stroke-width="18" stroke-opacity="1" stroke-linecap="butt" stroke-linejoin="miter" fill="none" points="4088,1695 4088,1812 4371,1805 "/><polyline stroke="currentColor" stroke-width="18" stroke-opacity="1" stroke-linecap="butt" stroke-linejoin="miter" fill="none" points="4928,1677 4928,1794 4644,1800 "/></g><g data-id="lzpkhuh" data-class="note" class="note"><g data-class="notehead" class="notehead"><use href="#E0A4-u1all2e5" transform="translate(4079, 360) scale(0.72, 0.72)"/></g><g data-id="gvfo02l" data-class="stem" class="stem"><path d="M4088 388 L4088 1614" stroke-width="18"/></g></g><g data-id="mlxd7i3" data-class="note" class="note"><g data-class="notehead" class="notehead"><use href="#E0A4-u1all2e5" transform="translate(4395, 540) scale(0.72, 0.72)"/></g><g data-id="h15xrehx" data-class="stem" class="stem"><path d="M4404 568 L4404 1608" stroke-width="18"/></g><g data-id="i1pakugf" data-class="accid" class="accid"/></g><g data-id="nih35sh" data-class="note" class="note"><g data-class="notehead" class="notehead"><use href="#E0A4-u1all2e5" transform="translate(4711, 810) scale(0.72, 0.72)"/></g><g data-id="itkimvp" data-class="stem" class="stem"><path d="M4720 838 L4720 1602" stroke-width="18"/></g><g data-id="j9lts80" data-class="accid" class="accid"/></g></g></g><g data-id="xu1anr6" data-class="beam" class="beam"><polygon stroke-opacity="1" fill-opacity="1" points="5131,1457 7580,1260 7580,1170 5131,1367"/><polygon stroke-opacity="1" fill-opacity="1" points="5131,1322 5359,1305 5359,1215 5131,1232"/><polygon stroke-opacity="1" fill-opacity="1" points="5359,1305 5675,1279 5675,1189 5359,1215"/><polygon stroke-opacity="1" fill-opacity="1" points="5675,1279 5991,1253 5991,1163 5675,1189"/><polygon stroke-opacity="1" fill-opacity="1" points="5991,1253 6307,1227 6307,1137 5991,1163"/><polygon stroke-opacity="1" fill-opacity="1" points="6307,1227 6623,1202 6623,1112 6307,1137"/><polygon stroke-opacity="1" fill-opacity="1" points="6623,1202 6939,1176 6939,1086 6623,1112"/><polygon stroke-opacity="1" fill-opacity="1" points="6939,1176 7255,1150 7255,1060 6939,1086"/><polygon stroke-opacity="1" fill-opacity="1" points="7255,1150 7580,1125 7580,1035 7255,1060"/><g data-id="brjqcz5" data-class="tuplet" class="tuplet"><g data-id="ku18a52" data-class="tupletNum" class="tupletNum"><use href="#E883-u1all2e5" transform="translate(5367, 1727) scale(0.72, 0.72)"/></g><g data-id="j1bstv7" data-class="tupletBracket" class="tupletBracket"><polyline stroke="currentColor" stroke-width="18" stroke-opacity="1" stroke-linecap="butt" stroke-linejoin="miter" fill="none" points="5036,1528 5036,1645 5322,1621 "/><polyline stroke="currentColor" stroke-width="18" stroke-opacity="1" stroke-linecap="butt" stroke-linejoin="miter" fill="none" points="5883,1458 5883,1575 5595,1598 "/></g><g data-id="f93xel1" data-class="rest" class="rest"><use href="#E4E7-u1all2e5" transform="translate(5027, 720) scale(0.72, 0.72)"/></g><g data-id="o15z0t8n" data-class="note" class="note"><g data-class="notehead" class="notehead"><use href="#E0A4-u1all2e5" transform="translate(5350, 810) scale(0.72, 0.72)"/></g><g data-id="l1vywsb6" data-class="stem" class="stem"><path d="M5359 838 L5359 1422" stroke-width="18"/></g><g data-id="kkxaphm" data-class="accid" class="accid"/></g><g data-id="p1q6bnhy" data-class="note" class="note"><g data-class="notehead" class="notehead"><use href="#E0A4-u1all2e5" transform="translate(5666, 540) scale(0.72, 0.72)"/></g><g data-id="mo0gou1" data-class="stem" class="stem"><path d="M5675 568 L5675 1396" stroke-width="18"/></g><g data-id="l1iui8o" data-class="accid" class="accid"/></g></g><g data-id="casjwo9" data-class="tuplet" class="tuplet"><g data-id="o18p405c" data-class="tupletNum" class="tupletNum"><use href="#E883-u1all2e5" transform="translate(6319, 1649) scale(0.72, 0.72)"/></g><g data-id="n22z3ox" data-class="tupletBracket" class="tupletBracket"><polyline stroke="currentColor" stroke-width="18" stroke-opacity="1" stroke-linecap="butt" stroke-linejoin="miter" fill="none" points="5991,1450 5991,1567 6274,1543 "/><polyline stroke="currentColor" stroke-width="18" stroke-opacity="1" stroke-linecap="butt" stroke-linejoin="miter" fill="none" points="6831,1380 6831,1497 6547,1520 "/></g><g data-id="q2ea5tr" data-class="note" class="note"><g data-class="notehead" class="notehead"><use href="#E0A4-u1all2e5" transform="translate(5982, 360) scale(0.72, 0.72)"/></g><g data-id="pe5jn64" data-class="stem" class="stem"><path d="M5991 388 L5991 1370" stroke-width="18"/></g></g><g data-id="rmn8mzf" data-class="note" class="note"><g data-class="notehead" class="notehead"><use href="#E0A4-u1all2e5" transform="translate(6298, 540) scale(0.72, 0.72)"/></g><g data-id="qps3wgy" data-class="stem" class="stem"><path d="M6307 568 L6307 1344" stroke-width="18"/></g><g data-id="m14iqdo4" data-class="accid" class="accid"/></g><g data-id="s1mdyq5q" data-class="note" class="note"><g data-class="notehead" class="notehead"><use href="#E0A4-u1all2e5" transform="translate(6614, 360) scale(0.72, 0.72)"/></g><g data-id="rtsmwuj" data-class="stem" class="stem"><path d="M6623 388 L6623 1319" stroke-width="18"/></g></g></g><g data-id="dcpxev2" data-class="tuplet" class="tuplet"><g data-id="t1lm4bb9" data-class="tupletNum" class="tupletNum"><use href="#E883-u1all2e5" transform="translate(7267, 1582) scale(0.72, 0.72)"/></g><g data-id="s14oc52g" data-class="tupletBracket" class="tupletBracket"><polyline stroke="currentColor" stroke-width="18" stroke-opacity="1" stroke-linecap="butt" stroke-linejoin="miter" fill="none" points="6939,1373 6939,1490 7222,1473 "/><polyline stroke="currentColor" stroke-width="18" stroke-opacity="1" stroke-linecap="butt" stroke-linejoin="miter" fill="none" points="7779,1323 7779,1440 7495,1456 "/></g><g data-id="tathp5r" data-class="note" class="note"><g data-class="notehead" class="notehead"><use href="#E0A4-u1all2e5" transform="translate(6930, 180) scale(0.72, 0.72)"/></g><g data-id="uneqsep" data-class="stem" class="stem"><path d="M6939 208 L6939 1293" stroke-width="18"/></g><g data-id="nqzhaop" data-class="accid" class="accid"/></g><g data-id="ufh0z31" data-class="note" class="note"><g data-class="notehead" class="notehead"><use href="#E0A4-u1all2e5" transform="translate(7246, 360) scale(0.72, 0.72)"/></g><g data-id="vl78ulq" data-class="stem" class="stem"><path d="M7255 388 L7255 1267" stroke-width="18"/></g></g><g data-id="v7iay9o" data-class="note" class="note"><g data-class="notehead" class="notehead"><use href="#E0A4-u1all2e5" transform="translate(7562, 540) scale(0.72, 0.72)"/></g><g data-id="w1dvxhcj" data-class="stem" class="stem"><path d="M7571 568 L7571 1242" stroke-width="18"/></g><g data-id="oig5w8f" data-class="accid" class="accid"/></g></g></g></g></g><g data-id="d1wtffly" data-class="barLine" class="barLine"><path d="M7892 540 L7892 1260" stroke-width="27"/></g></g><g data-id="o88zmxc" data-class="systemMilestoneEnd" class="systemMilestoneEnd t1s9s3or"/></g><g data-id="p1jo7asu" data-class="pageMilestoneEnd" class="pageMilestoneEnd ru9jwpe"/><g data-id="q1elgpvq" data-class="pageMilestoneEnd" class="pageMilestoneEnd q4u83gh"/></g></svg></svg>