<svg viewBox="0 0 560 84" version="1.1" xmlns="http://www.w3.org/2000/svg" xmlns:xlink="http://www.w3.org/1999/xlink" overflow="visible" id="r1qize75"><desc>Engraved by Verovio 5.6.0-85e7620</desc><defs><g id="E050-r1qize75"><path transform="scale(1,-1)" d="M441 -245c-23 -4 -48 -6 -76 -6c-59 0 -102 7 -130 20c-88 42 -150 93 -187 154c-26 44 -43 103 -48 176c0 6 -1 13 -1 19c0 54 15 111 45 170c29 57 65 106 110 148s96 85 153 127c-3 16 -8 46 -13 92c-4 43 -5 73 -5 89c0 117 16 172 69 257c34 54 64 82 89 82 c21 0 43 -30 69 -92s39 -115 41 -159v-15c0 -109 -21 -162 -67 -241c-13 -20 -63 -90 -98 -118c-13 -9 -25 -19 -37 -29l31 -181c8 1 18 2 28 2c58 0 102 -12 133 -35c59 -43 92 -104 98 -184c1 -7 1 -15 1 -22c0 -123 -87 -209 -181 -248c8 -57 17 -110 25 -162 c5 -31 6 -58 6 -80c0 -30 -5 -53 -14 -70c-35 -64 -88 -99 -158 -103c-5 0 -11 -1 -16 -1c-37 0 -72 10 -108 27c-50 24 -77 59 -80 105v11c0 29 7 55 20 76c18 28 45 42 79 44h6c49 0 93 -42 97 -87v-9c0 -51 -34 -86 -105 -106c17 -24 51 -36 102 -36c62 0 116 43 140 85 c9 16 13 41 13 74c0 20 -1 42 -5 67c-8 53 -18 106 -26 159zM461 939c-95 0 -135 -175 -135 -286c0 -24 2 -48 5 -71c50 39 92 82 127 128c40 53 60 100 60 140v8c-4 53 -22 81 -55 81h-2zM406 119l54 -326c73 25 110 78 110 161c0 7 0 15 -1 23c-7 95 -57 142 -151 142h-12 zM382 117c-72 -2 -128 -47 -128 -120v-7c2 -46 43 -99 75 -115c-3 -2 -7 -5 -10 -10c-70 33 -116 88 -123 172v11c0 68 44 126 88 159c23 17 49 29 78 36l-29 170c-21 -13 -52 -37 -92 -73c-50 -44 -86 -84 -109 -119c-45 -69 -67 -130 -67 -182v-13c5 -68 35 -127 93 -176 s125 -73 203 -73c25 0 50 3 75 9c-19 111 -36 221 -54 331z"/></g><g id="E260-r1qize75"><path transform="scale(1,-1)" d="M20 110c32 16 54 27 93 27c26 0 35 -3 54 -13c13 -7 24 -20 27 -38l4 -25c0 -28 -16 -57 -45 -89c-23 -25 -39 -44 -65 -68l-88 -79v644h20v-359zM90 106c-32 0 -48 -10 -70 -29v-194c31 31 54 59 71 84c21 32 32 59 32 84c0 9 1 16 1 20c0 14 -3 21 -11 30l-8 3z"/></g><g id="E082-r1qize75"><path transform="scale(1,-1)" d="M124 -185c-18 0 -55 -14 -65 -65h-36l-3 30c0 25 6 45 18 63c11 19 22 30 39 43l121 82l37 29c15 11 27 29 38 54c12 24 18 47 18 70c0 40 -19 88 -94 88c-25 0 -32 0 -50 -8c-14 -5 -23 -12 -26 -22c3 -9 7 -15 10 -18l24 -17c12 -7 17 -11 27 -21c5 -7 7 -16 7 -27 c0 -12 0 -57 -79 -74c-30 0 -76 26 -76 94c0 66 81 135 197 135c72 0 181 -32 181 -150c0 -53 -32 -95 -113 -133l-91 -41c-26 -11 -45 -23 -57 -37l49 7c84 0 115 -41 148 -41c20 0 33 20 39 61h35c0 -152 -68 -168 -114 -168c-17 0 -65 0 -79 7h10l-28 17 c-49 37 -69 40 -87 42z"/></g><g id="E084-r1qize75"><path transform="scale(1,-1)" d="M20 -78c84 97 114 180 134 329h170c-13 -32 -82 -132 -99 -151l-84 -97c-33 -36 -59 -63 -80 -81h162v102l127 123v-225h57v-39h-57v-34c0 -43 19 -65 57 -65v-34h-244v36c48 0 60 26 60 70v27h-203v39z"/></g><g id="E0A4-r1qize75"><path transform="scale(1,-1)" d="M0 -39c0 68 73 172 200 172c66 0 114 -37 114 -95c0 -84 -106 -171 -218 -171c-64 0 -96 30 -96 94z"/></g><g id="E261-r1qize75"><path transform="scale(1,-1)" d="M0 -188v539h18v-191l139 22v-533h-17v186zM18 -100l122 17v176l-122 -19v-174z"/></g></defs><style type="text/css">#r1qize75 g.page-margin {font-family:Times,serif;}#r1qize75 g.ending, #r1qize75 g.fing, #r1qize75 g.reh, #r1qize75 g.tempo {font-weight:bold;}#r1qize75 g.dir, #r1qize75 g.dynam, #r1qize75 g.mNum {font-style:italic;}#r1qize75 g.label {font-weight:normal;}#r1qize75 path {stroke:currentColor}</style><svg class="definition-scale" color="black" viewBox="0 0 14000 2100"><g class="page-margin" transform="translate(0, 150)"><g data-id="u1op5irl" data-class="mdiv" class="mdiv pageMilestone"/><g data-id="v79yhcd" data-class="score" class="score pageMilestone"/><g data-id="a1rztz7p" data-class="system" class="system"><g data-id="xnqyumx" data-class="section" class="section systemMilestone"/><g data-id="s15m77n5" data-class="measure" class="measure"><g data-id="jm26rd1" data-class="staff" class="staff"><path d="M0 540 L4270 540" stroke-width="13"/><path d="M0 720 L4270 720" stroke-width="13"/><path d="M0 900 L4270 900" stroke-width="13"/><path d="M0 1080 L4270 1080" stroke-width="13"/><path d="M0 1260 L4270 1260" stroke-width="13"/><g data-id="fhuf91e" data-class="clef" class="clef"><use href="#E050-r1qize75" transform="translate(90, 1080) scale(0.72, 0.72)"/></g><g data-id="g5dikdr" data-class="keySig" class="keySig"><g data-id="h19skina" data-class="keyAccid" class="keyAccid"><use href="#E260-r1qize75" transform="translate(735, 900) scale(0.72, 0.72)"/></g><g data-id="i47jp35" data-class="keyAccid" class="keyAccid"><use href="#E260-r1qize75" transform="translate(915, 630) scale(0.72, 0.72)"/></g><g data-id="j14k5gyc" data-class="keyAccid" class="keyAccid"><use href="#E260-r1qize75" transform="translate(1095, 990) scale(0.72, 0.72)"/></g></g><g data-id="k112vx1q" data-class="meterSig" class="meterSig"><use href="#E082-r1qize75" transform="translate(1403, 720) scale(0.72, 0.72)"/><use href="#E084-r1qize75" transform="translate(1408, 1080) scale(0.72, 0.72)"/></g><g data-id="k1kejdjv" data-class="layer" class="layer"><g data-id="hdvaeq0" data-class="beam" class="beam"><polygon stroke-opacity="1" fill-opacity="1" points="2018,1665 3723,1620 3723,1530 2018,1575"/><g data-id="luixw24" data-class="note" class="note"><g data-class="notehead" class="notehead"><use href="#E0A4-r1qize75" transform="translate(2018, 1080) scale(0.72, 0.72)"/></g><g data-id="g4thopf" data-class="stem" class="stem"><path d="M2027 1108 L2027 1647" stroke-width="18"/></g></g><g data-id="mly9a7n" data-class="note" class="note"><g data-class="notehead" class="notehead"><use href="#E0A4-r1qize75" transform="translate(2570, 630) scale(0.72, 0.72)"/></g><g data-id="h16ipt4s" data-class="stem" class="stem"><path d="M2579 658 L2579 1632" stroke-width="18"/></g><g data-id="nv29bn4" data-class="accid" class="accid"/></g><g data-id="n1b59syy" data-class="note" class="note"><g data-class="notehead" class="notehead"><use href="#E0A4-r1qize75" transform="translate(3123, 720) scale(0.72, 0.72)"/></g><g data-id="i15qxeu6" data-class="stem" class="stem"><path d="M3132 748 L3132 1617" stroke-width="18"/></g></g><g data-id="o1ygzdj6" data-class="note" class="note"><g data-class="notehead" class="notehead"><use href="#E0A4-r1qize75" transform="translate(3705, 900) scale(0.72, 0.72)"/></g><g data-id="j1leqvtx" data-class="stem" class="stem"><path d="M3714 928 L3714 1602" stroke-width="18"/></g><g data-id="f1yo5bh1" data-class="accid" class="accid"><use href="#E261-r1qize75" transform="translate(3547, 900) scale(0.72, 0.72)"/></g></g></g></g></g><g data-id="awntl0c" data-class="barLine" class="barLine"><path d="M4257 540 L4257 1260" stroke-width="27"/></g></g><g data-id="b1xcf5ly" data-class="measure" class="measure"><g data-id="lpis2ax" data-class="staff" class="staff"><path d="M4270 540 L7004 540" stroke-width="13"/><path d="M4270 720 L7004 720" stroke-width="13"/><path d="M4270 900 L7004 900" stroke-width="13"/><path d="M4270 1080 L7004 1080" stroke-width="13"/><path d="M4270 1260 L7004 1260" stroke-width="13"/><g data-id="m1spd8c6" data-class="layer" class="layer"><g data-id="i174tjiz" data-class="beam" class="beam"><polygon stroke-opacity="1" fill-opacity="1" points="4492,1440 5515,1620 5515,1530 4492,1350"/><polygon stroke-opacity="1" fill-opacity="1" points="5118,1415 5515,1485 5515,1395 5118,1325"/><g data-id="p1dfc5ne" data-class="note" class="note"><g data-class="notehead" class="notehead"><use href="#E0A4-r1qize75" transform="translate(4492, 810) scale(0.72, 0.72)"/></g><g data-id="ks9x32q" data-class="stem" class="stem"><path d="M4501 838 L4501 1422" stroke-width="18"/></g></g><g data-id="qj6pzyx" data-class="note" class="note"><g data-class="notehead" class="notehead"><use href="#E0A4-r1qize75" transform="translate(5109, 900) scale(0.72, 0.72)"/></g><g data-id="l49hlcd" data-class="stem" class="stem"><path d="M5118 928 L5118 1532" stroke-width="18"/></g><g data-id="ghbg5rf" data-class="accid" class="accid"><use href="#E260-r1qize75" transform="translate(4922, 900) scale(0.72, 0.72)"/></g></g><g data-id="r1bxpa9t" data-class="note" class="note"><g data-class="notehead" class="notehead"><use href="#E0A4-r1qize75" transform="translate(5497, 990) scale(0.72, 0.72)"/></g><g data-id="mg6o20q" data-class="stem" class="stem"><path d="M5506 1018 L5506 1602" stroke-width="18"/></g><g data-id="o1u627e5" data-class="accid" class="accid"/></g></g><g data-id="j1ouddsr" data-class="beam" class="beam"><polygon stroke-opacity="1" fill-opacity="1" points="6093,495 6664,495 6664,585 6093,585"/><g data-id="smogs8t" data-class="note" class="note"><g data-class="notehead" class="notehead"><use href="#E0A4-r1qize75" transform="translate(5885, 1080) scale(0.72, 0.72)"/></g><g data-id="n9zrzx6" data-class="stem" class="stem"><path d="M6102 1052 L6102 513" stroke-width="18"/></g></g><g data-id="t1spy22k" data-class="note" class="note"><g data-class="notehead" class="notehead"><use href="#E0A4-r1qize75" transform="translate(6438, 1080) scale(0.72, 0.72)"/></g><g data-id="o7cd4lr" data-class="stem" class="stem"><path d="M6655 1052 L6655 513" stroke-width="18"/></g></g></g></g></g><g data-id="jhrf7ic" data-class="barLine" class="barLine"><path d="M6991 540 L6991 1260" stroke-width="27"/></g></g><g data-id="kps1u8j" data-class="measure" class="measure"><g data-id="n1euu0sn" data-class="staff" class="staff"><path d="M7004 540 L9449 540" stroke-width="13"/><path d="M7004 720 L9449 720" stroke-width="13"/><path d="M7004 900 L9449 900" stroke-width="13"/><path d="M7004 1080 L9449 1080" stroke-width="13"/><path d="M7004 1260 L9449 1260" stroke-width="13"/><g data-id="o1104jly" data-class="layer" class="layer"><g data-id="ki6nt3h" data-class="beam" class="beam"><polygon stroke-opacity="1" fill-opacity="1" points="7434,315 9109,315 9109,405 7434,405"/><g data-id="uhv1qfp" data-class="note" class="note"><g data-class="notehead" class="notehead"><use href="#E0A4-r1qize75" transform="translate(7226, 1080) scale(0.72, 0.72)"/></g><g data-id="peuxiw6" data-class="stem" class="stem"><path d="M7443 1052 L7443 333" stroke-width="18"/></g></g><g data-id="v1v6n6uh" data-class="note" class="note"><g data-class="notehead" class="notehead"><use href="#E0A4-r1qize75" transform="translate(7778, 1080) scale(0.72, 0.72)"/></g><g data-id="q1fm6vsr" data-class="stem" class="stem"><path d="M7995 1052 L7995 333" stroke-width="18"/></g></g><g data-id="w1pnnsga" data-class="note" class="note"><g data-class="notehead" class="notehead"><use href="#E0A4-r1qize75" transform="translate(8331, 900) scale(0.72, 0.72)"/></g><g data-id="r5yf8ih" data-class="stem" class="stem"><path d="M8548 872 L8548 333" stroke-width="18"/></g><g data-id="pu8zwag" data-class="accid" class="accid"/></g><g data-id="xz6rp44" data-class="note" class="note"><g data-class="notehead" class="notehead"><use href="#E0A4-r1qize75" transform="translate(8883, 990) scale(0.72, 0.72)"/></g><g data-id="s18q6oxm" data-class="stem" class="stem"><path d="M9100 962 L9100 333" stroke-width="18"/></g><g data-id="q8mds6f" data-class="accid" class="accid"/></g></g></g></g><g data-id="stejpav" data-class="barLine" class="barLine"><path d="M9436 540 L9436 1260" stroke-width="27"/></g></g><g data-id="t1nms0qk" data-class="measure" class="measure"><g data-id="pbewyok" data-class="staff" class="staff"><path d="M9449 540 L11558 540" stroke-width="13"/><path d="M9449 720 L11558 720" stroke-width="13"/><path d="M9449 900 L11558 900" stroke-width="13"/><path d="M9449 1080 L11558 1080" stroke-width="13"/><path d="M9449 1260 L11558 1260" stroke-width="13"/><g data-id="qr3tcc2" data-class="layer" class="layer"><g data-id="y1vj1t9f" data-class="note" class="note"><g data-class="notehead" class="notehead"><use href="#E0A4-r1qize75" transform="translate(9671, 1170) scale(0.72, 0.72)"/></g><g data-id="u1azzhat" data-class="dots" class="dots"><ellipse cx="9987" cy="1170" rx="36" ry="36" fill-opacity="1" stroke-opacity="1"/></g><g data-id="t1gpkrhd" data-class="stem" class="stem"><path d="M9888 1142 L9888 540" stroke-width="18"/></g></g><g data-id="l1yikt08" data-class="beam" class="beam"><polygon stroke-opacity="1" fill-opacity="1" points="10959,360 11365,315 11365,405 10959,450"/><polygon stroke-opacity="1" fill-opacity="1" points="10959,495 11365,450 11365,540 10959,585"/><g data-id="zzzp6no" data-class="note" class="note"><g data-class="notehead" class="notehead"><use href="#E0A4-r1qize75" transform="translate(10751, 1080) scale(0.72, 0.72)"/></g><g data-id="v1spghm6" data-class="stem" class="stem"><path d="M10968 1052 L10968 378" stroke-width="18"/></g></g><g data-id="ansfe2y" data-class="note" class="note"><g data-class="notehead" class="notehead"><use href="#E0A4-r1qize75" transform="translate(11139, 990) scale(0.72, 0.72)"/></g><g data-id="w1if419a" data-class="stem" class="stem"><path d="M11356 962 L11356 333" stroke-width="18"/></g><g data-id="r7oideq" data-class="accid" class="accid"/></g></g></g></g><g data-id="bdl7m8c" data-class="barLine" class="barLine"><path d="M11545 540 L11545 1260" stroke-width="27"/></g></g><g data-id="cli6qwj" data-class="measure" class="measure"><g data-id="r1rzd494" data-class="staff" class="staff"><path d="M11558 540 L14003 540" stroke-width="13"/><path d="M11558 720 L14003 720" stroke-width="13"/><path d="M11558 900 L14003 900" stroke-width="13"/><path d="M11558 1080 L14003 1080" stroke-width="13"/><path d="M11558 1260 L14003 1260" stroke-width="13"/><g data-id="seid9ix" data-class="layer" class="layer"><g data-id="m1ye8gx2" data-class="beam" class="beam"><polygon stroke-opacity="1" fill-opacity="1" points="11780,1485 13455,1440 13455,1350 11780,1395"/><g data-id="b1unumuf" data-class="note" class="note"><g data-class="notehead" class="notehead"><use href="#E0A4-r1qize75" transform="translate(11780, 900) scale(0.72, 0.72)"/></g><g data-id="x1c9p3wj" data-class="stem" class="stem"><path d="M11789 928 L11789 1467" stroke-width="18"/></g><g data-id="s17zvflm" data-class="accid" class="accid"/></g><g data-id="c12evt8h" data-class="note" class="note"><g data-class="notehead" class="notehead"><use href="#E0A4-r1qize75" transform="translate(12332, 450) scale(0.72, 0.72)"/></g><g data-id="y11qv0pd" data-class="stem" class="stem"><path d="M12341 478 L12341 1452" stroke-width="18"/></g></g><g data-id="dt9rtss" data-class="note" class="note"><g data-class="notehead" class="notehead"><use href="#E0A4-r1qize75" transform="translate(12885, 540) scale(0.72, 0.72)"/></g><g data-id="z1lkyccc" data-class="stem" class="stem"><path d="M12894 568 L12894 1436" stroke-width="18"/></g></g><g data-id="e19f7skw" data-class="note" class="note"><g data-class="notehead" class="notehead"><use href="#E0A4-r1qize75" transform="translate(13437, 720) scale(0.72, 0.72)"/></g><g data-id="ahkzpci" data-class="stem" class="stem"><path d="M13446 748 L13446 1422" stroke-width="18"/></g></g></g></g></g><g data-id="k10pfxle" data-class="barLine" class="barLine"><path d="M13990 540 L13990 1260" stroke-width="27"/></g></g><g data-id="atfy230" data-class="systemMilestoneEnd" class="systemMilestoneEnd xnqyumx"/></g><g data-id="b1ctlkvp" data-class="pageMilestoneEnd" class="pageMilestoneEnd v79yhcd"/><g data-id="c16za4o0" data-class="pageMilestoneEnd" class="pageMilestoneEnd u1op5irl"/></g></svg></svg>