<svg viewBox="0 0 560 84" version="1.1" xmlns="http://www.w3.org/2000/svg" xmlns:xlink="http://www.w3.org/1999/xlink" overflow="visible" id="zl9cuwk"><desc>Engraved by Verovio 5.6.0-85e7620</desc><defs><g id="E050-zl9cuwk"><path transform="scale(1,-1)" d="M441 -245c-23 -4 -48 -6 -76 -6c-59 0 -102 7 -130 20c-88 42 -150 93 -187 154c-26 44 -43 103 -48 176c0 6 -1 13 -1 19c0 54 15 111 45 170c29 57 65 106 110 148s96 85 153 127c-3 16 -8 46 -13 92c-4 43 -5 73 -5 89c0 117 16 172 69 257c34 54 64 82 89 82 c21 0 43 -30 69 -92s39 -115 41 -159v-15c0 -109 -21 -162 -67 -241c-13 -20 -63 -90 -98 -118c-13 -9 -25 -19 -37 -29l31 -181c8 1 18 2 28 2c58 0 102 -12 133 -35c59 -43 92 -104 98 -184c1 -7 1 -15 1 -22c0 -123 -87 -209 -181 -248c8 -57 17 -110 25 -162 c5 -31 6 -58 6 -80c0 -30 -5 -53 -14 -70c-35 -64 -88 -99 -158 -103c-5 0 -11 -1 -16 -1c-37 0 -72 10 -108 27c-50 24 -77 59 -80 105v11c0 29 7 55 20 76c18 28 45 42 79 44h6c49 0 93 -42 97 -87v-9c0 -51 -34 -86 -105 -106c17 -24 51 -36 102 -36c62 0 116 43 140 85 c9 16 13 41 13 74c0 20 -1 42 -5 67c-8 53 -18 106 -26 159zM461 939c-95 0 -135 -175 -135 -286c0 -24 2 -48 5 -71c50 39 92 82 127 128c40 53 60 100 60 140v8c-4 53 -22 81 -55 81h-2zM406 119l54 -326c73 25 110 78 110 161c0 7 0 15 -1 23c-7 95 -57 142 -151 142h-12 zM382 117c-72 -2 -128 -47 -128 -120v-7c2 -46 43 -99 75 -115c-3 -2 -7 -5 -10 -10c-70 33 -116 88 -123 172v11c0 68 44 126 88 159c23 17 49 29 78 36l-29 170c-21 -13 -52 -37 -92 -73c-50 -44 -86 -84 -109 -119c-45 -69 -67 -130 -67 -182v-13c5 -68 35 -127 93 -176 s125 -73 203 -73c25 0 50 3 75 9c-19 111 -36 221 -54 331z"/></g><g id="E260-zl9cuwk"><path transform="scale(1,-1)" d="M20 110c32 16 54 27 93 27c26 0 35 -3 54 -13c13 -7 24 -20 27 -38l4 -25c0 -28 -16 -57 -45 -89c-23 -25 -39 -44 -65 -68l-88 -79v644h20v-359zM90 106c-32 0 -48 -10 -70 -29v-194c31 31 54 59 71 84c21 32 32 59 32 84c0 9 1 16 1 20c0 14 -3 21 -11 30l-8 3z"/></g><g id="E081-zl9cuwk"><path transform="scale(1,-1)" d="M68 -250v36c23 0 40 6 49 18c8 14 12 33 12 57v250l-82 -129l-27 13l107 255h128v-394c0 -24 5 -42 14 -53s25 -17 47 -17v-36h-248z"/></g><g id="E082-zl9cuwk"><path transform="scale(1,-1)" d="M124 -185c-18 0 -55 -14 -65 -65h-36l-3 30c0 25 6 45 18 63c11 19 22 30 39 43l121 82l37 29c15 11 27 29 38 54c12 24 18 47 18 70c0 40 -19 88 -94 88c-25 0 -32 0 -50 -8c-14 -5 -23 -12 -26 -22c3 -9 7 -15 10 -18l24 -17c12 -7 17 -11 27 -21c5 -7 7 -16 7 -27 c0 -12 0 -57 -79 -74c-30 0 -76 26 -76 94c0 66 81 135 197 135c72 0 181 -32 181 -150c0 -53 -32 -95 -113 -133l-91 -41c-26 -11 -45 -23 -57 -37l49 7c84 0 115 -41 148 -41c20 0 33 20 39 61h35c0 -152 -68 -168 -114 -168c-17 0 -65 0 -79 7h10l-28 17 c-49 37 -69 40 -87 42z"/></g><g id="E088-zl9cuwk"><path transform="scale(1,-1)" d="M195 -214c76 0 88 58 90 68c0 34 -35 60 -57 73l-52 29c-21 10 -32 17 -34 20c-39 -33 -58 -54 -62 -92c5 -23 23 -98 115 -98zM301 135c0 61 -72 76 -113 76c-40 0 -77 -17 -77 -51c3 -21 15 -38 26 -50c17 -15 33 -26 48 -34l65 -28c34 27 51 56 51 87zM176 -250 c-57 0 -166 26 -166 132c0 47 30 86 89 116c-33 15 -79 60 -79 119c0 79 85 132 178 132h18c5 0 21 1 28 -1c25 0 126 -30 126 -110c0 -37 -23 -76 -69 -116c43 -25 83 -71 83 -119c0 -101 -118 -153 -208 -153z"/></g><g id="E4E5-zl9cuwk"><path transform="scale(1,-1)" d="M107 292c-13 24 -30 49 -52 71c-1 1 0 2 0 3l-2 2c3 3 4 4 6 4c12 0 26 -7 40 -20s44 -40 89 -81c26 -24 28 -29 46 -47c4 -4 8 -9 10 -14c6 -8 8 -16 8 -27c0 -19 -12 -40 -36 -61c-28 -23 -49 -38 -61 -73c-4 -11 -7 -27 -10 -50c13 -43 34 -83 59 -121 c31 -47 59 -79 101 -129c-8 0 -26 7 -54 20l-62 29l-21 6l-23 1c-25 0 -45 -10 -60 -30l-4 -14l-1 -12c0 -33 20 -56 39 -78c8 -9 17 -18 26 -26c17 -15 27 -24 28 -30l-3 -3c-11 5 -19 10 -25 15c-9 3 -37 21 -45 26c-24 14 -45 32 -63 51c-19 21 -37 44 -37 71 c0 63 27 95 80 95c41 0 86 -18 136 -52c-19 26 -37 48 -55 66c-23 23 -48 44 -73 65c-28 23 -47 40 -58 53s-17 26 -18 39c75 64 113 125 113 183c0 27 -7 48 -18 68z"/></g><g id="E0A4-zl9cuwk"><path transform="scale(1,-1)" d="M0 -39c0 68 73 172 200 172c66 0 114 -37 114 -95c0 -84 -106 -171 -218 -171c-64 0 -96 30 -96 94z"/></g><g id="E240-zl9cuwk"><path transform="scale(1,-1)" d="M179 -646c15 29 29 55 46 102c18 49 30 108 30 138c0 105 -80 173 -168 200c-18 5 -47 9 -87 16v190h22c8 0 33 -61 71 -95c4 -3 -2 3 61 -56c62 -58 122 -137 122 -241c0 -38 -13 -106 -35 -163c-20 -51 -43 -99 -66 -132c-6 -5 -10 -7 -13 -7s-5 2 -5 5l4 10 c1 3 14 25 18 33z"/></g><g id="E0A3-zl9cuwk"><path transform="scale(1,-1)" d="M278 64c0 22 -17 39 -43 39c-12 0 -26 -3 -41 -10c-85 -43 -165 -94 -165 -156c5 -25 15 -32 49 -32c67 11 200 95 200 159zM0 -36c0 68 73 174 200 174c66 0 114 -39 114 -97c0 -84 -106 -173 -218 -173c-64 0 -96 32 -96 96z"/></g></defs><style type="text/css">#zl9cuwk g.page-margin {font-family:Times,serif;}#zl9cuwk g.ending, #zl9cuwk g.fing, #zl9cuwk g.reh, #zl9cuwk g.tempo {font-weight:bold;}#zl9cuwk g.dir, #zl9cuwk g.dynam, #zl9cuwk g.mNum {font-style:italic;}#zl9cuwk g.label {font-weight:normal;}#zl9cuwk path {stroke:currentColor}</style><svg class="definition-scale" color="black" viewBox="0 0 14000 2100"><g class="page-margin" transform="translate(0, 150)"><g data-id="j173d3v2" data-class="mdiv" class="mdiv pageMilestone"/><g data-id="kk37sll" data-class="score" class="score pageMilestone"/><g data-id="e18p9v2s" data-class="system" class="system"><g data-id="m1f4h1za" data-class="section" class="section systemMilestone"/><g data-id="a1jhyutt" data-class="measure" class="measure"><g data-id="y14v4eka" data-class="staff" class="staff"><path d="M0 540 L5878 540" stroke-width="13"/><path d="M0 720 L5878 720" stroke-width="13"/><path d="M0 900 L5878 900" stroke-width="13"/><path d="M0 1080 L5878 1080" stroke-width="13"/><path d="M0 1260 L5878 1260" stroke-width="13"/><g data-id="ik7i6cz" data-class="clef" class="clef"><use href="#E050-zl9cuwk" transform="translate(90, 1080) scale(0.72, 0.72)"/></g><g data-id="jyr7klf" data-class="keySig" class="keySig"><g data-id="kkosb4" data-class="keyAccid" class="keyAccid"><use href="#E260-zl9cuwk" transform="translate(735, 900) scale(0.72, 0.72)"/></g><g data-id="l1annl94" data-class="keyAccid" class="keyAccid"><use href="#E260-zl9cuwk" transform="translate(915, 630) scale(0.72, 0.72)"/></g><g data-id="mua26s9" data-class="keyAccid" class="keyAccid"><use href="#E260-zl9cuwk" transform="translate(1095, 990) scale(0.72, 0.72)"/></g></g><g data-id="n9ikyup" data-class="meterSig" class="meterSig"><use href="#E081-zl9cuwk" transform="translate(1403, 720) scale(0.72, 0.72)"/><use href="#E082-zl9cuwk" transform="translate(1644, 720) scale(0.72, 0.72)"/><use href="#E088-zl9cuwk" transform="translate(1538, 1080) scale(0.72, 0.72)"/></g><g data-id="zu7ejh7" data-class="layer" class="layer"><g data-id="kq37mh6" data-class="rest" class="rest"><use href="#E4E5-zl9cuwk" transform="translate(2227, 900) scale(0.72, 0.72)"/><g data-id="t14v4scr" data-class="dots" class="dots"><ellipse cx="2536" cy="810" rx="36" ry="36" fill-opacity="1" stroke-opacity="1"/></g></g><g data-id="l1jx7zgg" data-class="rest" class="rest"><use href="#E4E5-zl9cuwk" transform="translate(3136, 900) scale(0.72, 0.72)"/><g data-id="uy5dcow" data-class="dots" class="dots"><ellipse cx="3445" cy="810" rx="36" ry="36" fill-opacity="1" stroke-opacity="1"/></g></g><g data-id="m8e5art" data-class="rest" class="rest"><use href="#E4E5-zl9cuwk" transform="translate(4046, 900) scale(0.72, 0.72)"/><g data-id="v1nylp89" data-class="dots" class="dots"><ellipse cx="4355" cy="810" rx="36" ry="36" fill-opacity="1" stroke-opacity="1"/></g></g><g data-id="no32p3p" data-class="note" class="note"><g data-class="notehead" class="notehead"><use href="#E0A4-zl9cuwk" transform="translate(4955, 900) scale(0.72, 0.72)"/></g><g data-id="x1cfvhfl" data-class="dots" class="dots"><ellipse cx="5271" cy="810" rx="36" ry="36" fill-opacity="1" stroke-opacity="1"/></g><g data-id="w1rt6iq6" data-class="stem" class="stem"><path d="M4964 928 L4964 1500" stroke-width="18"/></g><g data-id="a1vb0k9l" data-class="accid" class="accid"/></g></g></g><g data-id="i8mnt6o" data-class="barLine" class="barLine"><path d="M5865 540 L5865 1260" stroke-width="27"/></g></g><g data-id="jthub6n" data-class="measure" class="measure"><g data-id="al65z92" data-class="staff" class="staff"><path d="M5878 540 L10255 540" stroke-width="13"/><path d="M5878 720 L10255 720" stroke-width="13"/><path d="M5878 900 L10255 900" stroke-width="13"/><path d="M5878 1080 L10255 1080" stroke-width="13"/><path d="M5878 1260 L10255 1260" stroke-width="13"/><g data-id="b13cxbm" data-class="layer" class="layer"><g data-id="os7e3gz" data-class="note" class="note"><g data-class="notehead" class="notehead"><use href="#E0A4-zl9cuwk" transform="translate(6068, 990) scale(0.72, 0.72)"/></g><g data-id="y38asei" data-class="stem" class="stem"><path d="M6285 962 L6285 360" stroke-width="18"/></g><g data-id="bscep5x" data-class="accid" class="accid"/></g><g data-id="p2u5m0h" data-class="note" class="note"><g data-class="notehead" class="notehead"><use href="#E0A4-zl9cuwk" transform="translate(6781, 1080) scale(0.72, 0.72)"/></g><g data-id="zfnsa02" data-class="stem" class="stem"><path d="M6998 1052 L6998 450" stroke-width="18"/><g data-id="aiczmaj" data-class="flag" class="flag"><use href="#E240-zl9cuwk" transform="translate(6989, 450) scale(0.72, 0.72)"/></g></g></g><g data-id="q1rbncsk" data-class="note" class="note"><g data-class="notehead" class="notehead"><use href="#E0A4-zl9cuwk" transform="translate(7245, 1170) scale(0.72, 0.72)"/></g><g data-id="b3doh9p" data-class="stem" class="stem"><path d="M7462 1142 L7462 540" stroke-width="18"/></g></g><g data-id="rggjdd7" data-class="note" class="note"><g data-class="notehead" class="notehead"><use href="#E0A4-zl9cuwk" transform="translate(7958, 1260) scale(0.72, 0.72)"/></g><g data-id="c1y99itu" data-class="stem" class="stem"><path d="M8175 1232 L8175 630" stroke-width="18"/><g data-id="d1qj1ld9" data-class="flag" class="flag"><use href="#E240-zl9cuwk" transform="translate(8166, 630) scale(0.72, 0.72)"/></g></g><g data-id="c15iqndd" data-class="accid" class="accid"/></g><g data-id="s1js04gv" data-class="note" class="note"><g data-class="notehead" class="notehead"><use href="#E0A4-zl9cuwk" transform="translate(8423, 1260) scale(0.72, 0.72)"/></g><g data-id="fcqkpx" data-class="dots" class="dots"><ellipse cx="8739" cy="1170" rx="36" ry="36" fill-opacity="1" stroke-opacity="1"/></g><g data-id="e1qrd8bk" data-class="stem" class="stem"><path d="M8640 1232 L8640 630" stroke-width="18"/></g><g data-id="d46fw36" data-class="accid" class="accid"/></g><g data-id="t1lgjm2l" data-class="note" class="note"><g data-class="notehead" class="notehead"><use href="#E0A4-zl9cuwk" transform="translate(9333, 1260) scale(0.72, 0.72)"/></g><g data-id="h2pfwwn" data-class="dots" class="dots"><ellipse cx="9649" cy="1170" rx="36" ry="36" fill-opacity="1" stroke-opacity="1"/></g><g data-id="gjwupib" data-class="stem" class="stem"><path d="M9550 1232 L9550 630" stroke-width="18"/></g><g data-id="eayk3nu" data-class="accid" class="accid"/></g></g></g><g data-id="r1s6ddf9" data-class="barLine" class="barLine"><path d="M10242 540 L10242 1260" stroke-width="27"/></g></g><g data-id="sdb6zsv" data-class="measure" class="measure"><g data-id="c15wp1xb" data-class="staff" class="staff"><path d="M10255 540 L14001 540" stroke-width="13"/><path d="M10255 720 L14001 720" stroke-width="13"/><path d="M10255 900 L14001 900" stroke-width="13"/><path d="M10255 1080 L14001 1080" stroke-width="13"/><path d="M10255 1260 L14001 1260" stroke-width="13"/><g data-id="d1kshkp7" data-class="layer" class="layer"><g data-id="u1bpj8rx" data-class="note" class="note"><g data-class="notehead" class="notehead"><use href="#E0A4-zl9cuwk" transform="translate(10445, 1260) scale(0.72, 0.72)"/></g><g data-id="jz6z3ct" data-class="dots" class="dots"><ellipse cx="10761" cy="1170" rx="36" ry="36" fill-opacity="1" stroke-opacity="1"/></g><g data-id="i1yuukf3" data-class="stem" class="stem"><path d="M10662 1232 L10662 630" stroke-width="18"/></g><g data-id="f1udp9ng" data-class="accid" class="accid"/></g><g data-id="v1pcaoey" data-class="note" class="note"><g data-class="notehead" class="notehead"><use href="#E0A3-zl9cuwk" transform="translate(11354, 810) scale(0.72, 0.72)"/></g><g data-id="llv97t1" data-class="dots" class="dots"><ellipse cx="11670" cy="810" rx="36" ry="36" fill-opacity="1" stroke-opacity="1"/></g><g data-id="kj7ynu3" data-class="stem" class="stem"><path d="M11363 835 L11363 1440" stroke-width="18"/></g></g><g data-id="w1rb35ub" data-class="note" class="note"><g data-class="notehead" class="notehead"><use href="#E0A4-zl9cuwk" transform="translate(12739, 900) scale(0.72, 0.72)"/></g><g data-id="mjmx2d" data-class="stem" class="stem"><path d="M12748 928 L12748 1500" stroke-width="18"/></g><g data-id="gjst5le" data-class="accid" class="accid"/></g><g data-id="xoxeik" data-class="note" class="note"><g data-class="notehead" class="notehead"><use href="#E0A4-zl9cuwk" transform="translate(13452, 990) scale(0.72, 0.72)"/></g><g data-id="n1mebjma" data-class="stem" class="stem"><path d="M13669 962 L13669 360" stroke-width="18"/><g data-id="o1lo7q5f" data-class="flag" class="flag"><use href="#E240-zl9cuwk" transform="translate(13660, 360) scale(0.72, 0.72)"/></g></g><g data-id="hiar2fk" data-class="accid" class="accid"/></g></g></g><g data-id="a1kehtjh" data-class="barLine" class="barLine"><path d="M13988 540 L13988 1260" stroke-width="27"/></g></g></g></g></svg></svg>