<svg viewBox="0 0 560 85" version="1.1" xmlns="http://www.w3.org/2000/svg" xmlns:xlink="http://www.w3.org/1999/xlink" overflow="visible" id="e1pgh46b"><desc>Engraved by Verovio 5.6.0-85e7620</desc><defs><g id="E050-e1pgh46b"><path transform="scale(1,-1)" d="M441 -245c-23 -4 -48 -6 -76 -6c-59 0 -102 7 -130 20c-88 42 -150 93 -187 154c-26 44 -43 103 -48 176c0 6 -1 13 -1 19c0 54 15 111 45 170c29 57 65 106 110 148s96 85 153 127c-3 16 -8 46 -13 92c-4 43 -5 73 -5 89c0 117 16 172 69 257c34 54 64 82 89 82 c21 0 43 -30 69 -92s39 -115 41 -159v-15c0 -109 -21 -162 -67 -241c-13 -20 -63 -90 -98 -118c-13 -9 -25 -19 -37 -29l31 -181c8 1 18 2 28 2c58 0 102 -12 133 -35c59 -43 92 -104 98 -184c1 -7 1 -15 1 -22c0 -123 -87 -209 -181 -248c8 -57 17 -110 25 -162 c5 -31 6 -58 6 -80c0 -30 -5 -53 -14 -70c-35 -64 -88 -99 -158 -103c-5 0 -11 -1 -16 -1c-37 0 -72 10 -108 27c-50 24 -77 59 -80 105v11c0 29 7 55 20 76c18 28 45 42 79 44h6c49 0 93 -42 97 -87v-9c0 -51 -34 -86 -105 -106c17 -24 51 -36 102 -36c62 0 116 43 140 85 c9 16 13 41 13 74c0 20 -1 42 -5 67c-8 53 -18 106 -26 159zM461 939c-95 0 -135 -175 -135 -286c0 -24 2 -48 5 -71c50 39 92 82 127 128c40 53 60 100 60 140v8c-4 53 -22 81 -55 81h-2zM406 119l54 -326c73 25 110 78 110 161c0 7 0 15 -1 23c-7 95 -57 142 -151 142h-12 zM382 117c-72 -2 -128 -47 -128 -120v-7c2 -46 43 -99 75 -115c-3 -2 -7 -5 -10 -10c-70 33 -116 88 -123 172v11c0 68 44 126 88 159c23 17 49 29 78 36l-29 170c-21 -13 -52 -37 -92 -73c-50 -44 -86 -84 -109 -119c-45 -69 -67 -130 -67 -182v-13c5 -68 35 -127 93 -176 s125 -73 203 -73c25 0 50 3 75 9c-19 111 -36 221 -54 331z"/></g><g id="E262-e1pgh46b"><path transform="scale(1,-1)" d="M136 186v169h17v-164l44 14v-91l-44 -14v-165l44 12v-91l-44 -13v-155h-17v150l-76 -22v-155h-17v149l-43 -13v90l43 14v167l-43 -14v92l43 13v169h17v-163zM60 73v-167l76 22v168z"/></g><g id="E089-e1pgh46b"><path transform="scale(1,-1)" d="M139 107c0 -51 22 -104 66 -104c38 0 64 48 64 110c0 50 -31 100 -64 100c-40 0 -66 -56 -66 -106zM114 -74c40 0 72 -27 72 -65c0 -8 -3 -19 -9 -34l-7 -16l-5 -15c2 -8 12 -12 31 -12c56 0 84 73 84 219c-32 -24 -71 -36 -119 -36c-29 0 -56 6 -79 20 c-51 26 -57 78 -62 108c0 64 56 155 188 155c158 0 197 -151 197 -237c0 -145 -92 -263 -207 -263c-109 0 -155 68 -155 101c0 46 33 75 71 75z"/></g><g id="E088-e1pgh46b"><path transform="scale(1,-1)" d="M195 -214c76 0 88 58 90 68c0 34 -35 60 -57 73l-52 29c-21 10 -32 17 -34 20c-39 -33 -58 -54 -62 -92c5 -23 23 -98 115 -98zM301 135c0 61 -72 76 -113 76c-40 0 -77 -17 -77 -51c3 -21 15 -38 26 -50c17 -15 33 -26 48 -34l65 -28c34 27 51 56 51 87zM176 -250 c-57 0 -166 26 -166 132c0 47 30 86 89 116c-33 15 -79 60 -79 119c0 79 85 132 178 132h18c5 0 21 1 28 -1c25 0 126 -30 126 -110c0 -37 -23 -76 -69 -116c43 -25 83 -71 83 -119c0 -101 -118 -153 -208 -153z"/></g><g id="E0A4-e1pgh46b"><path transform="scale(1,-1)" d="M0 -39c0 68 73 172 200 172c66 0 114 -37 114 -95c0 -84 -106 -171 -218 -171c-64 0 -96 30 -96 94z"/></g><g id="E240-e1pgh46b"><path transform="scale(1,-1)" d="M179 -646c15 29 29 55 46 102c18 49 30 108 30 138c0 105 -80 173 -168 200c-18 5 -47 9 -87 16v190h22c8 0 33 -61 71 -95c4 -3 -2 3 61 -56c62 -58 122 -137 122 -241c0 -38 -13 -106 -35 -163c-20 -51 -43 -99 -66 -132c-6 -5 -10 -7 -13 -7s-5 2 -5 5l4 10 c1 3 14 25 18 33z"/></g><g id="E241-e1pgh46b"><path transform="scale(1,-1)" d="M179 646c-4 8 -17 30 -18 33l-4 10c0 3 2 5 5 5s7 -2 13 -7c23 -33 46 -81 66 -132c22 -57 35 -125 35 -163c0 -104 -60 -183 -122 -241c-63 -59 -57 -53 -61 -56c-38 -34 -63 -95 -71 -95h-22v190c40 7 69 11 87 16c88 27 168 95 168 200c0 30 -12 89 -30 138 c-17 47 -31 73 -46 102z"/></g></defs><style type="text/css">#e1pgh46b g.page-margin {font-family:Times,serif;}#e1pgh46b g.ending, #e1pgh46b g.fing, #e1pgh46b g.reh, #e1pgh46b g.tempo {font-weight:bold;}#e1pgh46b g.dir, #e1pgh46b g.dynam, #e1pgh46b g.mNum {font-style:italic;}#e1pgh46b g.label {font-weight:normal;}#e1pgh46b path {stroke:currentColor}</style><svg class="definition-scale" color="black" viewBox="0 0 14000 2110"><g class="page-margin" transform="translate(0, 150)"><g data-id="aifqwam" data-class="mdiv" class="mdiv pageMilestone"/><g data-id="b1uyp2rr" data-class="score" class="score pageMilestone"/><g data-id="gyff4ni" data-class="system" class="system"><g data-id="dln3ept" data-class="section" class="section systemMilestone"/><g data-id="f10ccppt" data-class="measure" class="measure"><g data-id="p1qpdnj2" data-class="staff" class="staff"><path d="M0 546 L3416 546" stroke-width="13"/><path d="M0 726 L3416 726" stroke-width="13"/><path d="M0 906 L3416 906" stroke-width="13"/><path d="M0 1086 L3416 1086" stroke-width="13"/><path d="M0 1266 L3416 1266" stroke-width="13"/><g data-id="nsrhgsr" data-class="clef" class="clef"><use href="#E050-e1pgh46b" transform="translate(90, 1086) scale(0.72, 0.72)"/></g><g data-id="o1b9a8ak" data-class="keySig" class="keySig"><g data-id="p2amnp4" data-class="keyAccid" class="keyAccid"><use href="#E262-e1pgh46b" transform="translate(735, 546) scale(0.72, 0.72)"/></g></g><g data-id="q1vmj0gg" data-class="meterSig" class="meterSig"><use href="#E089-e1pgh46b" transform="translate(1042, 726) scale(0.72, 0.72)"/><use href="#E088-e1pgh46b" transform="translate(1050, 1086) scale(0.72, 0.72)"/></g><g data-class="ledgerLines" class="ledgerLines below"><g data-class="lineDash" class="lineDash" data-related="#i1fg8uck"><path d="M2455 1446 L2777 1446" stroke-width="22"/></g><g data-class="lineDash" class="lineDash" data-related="#i1fg8uck"><path d="M2455 1626 L2777 1626" stroke-width="22"/></g></g><g data-id="q1yrnoki" data-class="layer" class="layer"><g data-id="g1pwd0mg" data-class="note" class="note"><g data-class="notehead" class="notehead"><use href="#E0A4-e1pgh46b" transform="translate(1603, 1356) scale(0.72, 0.72)"/></g><g data-id="glep09l" data-class="stem" class="stem"><path d="M1820 1328 L1820 726" stroke-width="18"/><g data-id="h1v0rs8w" data-class="flag" class="flag"><use href="#E240-e1pgh46b" transform="translate(1811, 726) scale(0.72, 0.72)"/></g></g></g><g data-id="w1uhm44y" data-class="beam" class="beam"><polygon stroke-opacity="1" fill-opacity="1" points="2261,501 3179,321 3179,411 2261,591"/><g data-id="hs09a2v" data-class="note" class="note"><g data-class="notehead" class="notehead"><use href="#E0A4-e1pgh46b" transform="translate(2053, 1356) scale(0.72, 0.72)"/></g><g data-id="ixehyss" data-class="stem" class="stem"><path d="M2270 1328 L2270 519" stroke-width="18"/></g></g><g data-id="i1fg8uck" data-class="note" class="note"><g data-class="notehead" class="notehead"><use href="#E0A4-e1pgh46b" transform="translate(2503, 1716) scale(0.72, 0.72)"/></g><g data-id="j1no2npa" data-class="stem" class="stem"><path d="M2720 1688 L2720 429" stroke-width="18"/></g></g><g data-id="j1t4wpta" data-class="note" class="note"><g data-class="notehead" class="notehead"><use href="#E0A4-e1pgh46b" transform="translate(2953, 906) scale(0.72, 0.72)"/></g><g data-id="kk0cdjt" data-class="stem" class="stem"><path d="M3170 878 L3170 339" stroke-width="18"/></g></g></g></g></g><g data-id="n1jfi2kr" data-class="barLine" class="barLine"><path d="M3403 546 L3403 1266" stroke-width="27"/></g></g><g data-id="om6ngjy" data-class="measure" class="measure"><g data-id="r1o31fpq" data-class="staff" class="staff"><path d="M3416 546 L6979 546" stroke-width="13"/><path d="M3416 726 L6979 726" stroke-width="13"/><path d="M3416 906 L6979 906" stroke-width="13"/><path d="M3416 1086 L6979 1086" stroke-width="13"/><path d="M3416 1266 L6979 1266" stroke-width="13"/><g data-id="s175epi4" data-class="layer" class="layer"><g data-id="k1lcuzfc" data-class="note" class="note"><g data-class="notehead" class="notehead"><use href="#E0A4-e1pgh46b" transform="translate(3596, 906) scale(0.72, 0.72)"/></g><g data-id="mh5ybx3" data-class="dots" class="dots"><ellipse cx="3912" cy="816" rx="36" ry="36" fill-opacity="1" stroke-opacity="1"/></g><g data-id="lcyq92s" data-class="stem" class="stem"><path d="M3605 934 L3605 1506" stroke-width="18"/></g></g><g data-id="l1ausa7c" data-class="note" class="note"><g data-class="notehead" class="notehead"><use href="#E0A4-e1pgh46b" transform="translate(4476, 1086) scale(0.72, 0.72)"/></g><g data-id="n19eytz3" data-class="stem" class="stem"><path d="M4693 1058 L4693 456" stroke-width="18"/></g></g><g data-id="mijm7wf" data-class="note" class="note"><g data-class="notehead" class="notehead"><use href="#E0A4-e1pgh46b" transform="translate(5166, 906) scale(0.72, 0.72)"/></g><g data-id="o9gxmdz" data-class="stem" class="stem"><path d="M5175 934 L5175 1506" stroke-width="18"/><g data-id="p1uf5b1h" data-class="flag" class="flag"><use href="#E241-e1pgh46b" transform="translate(5166, 1506) scale(0.72, 0.72)"/></g></g></g><g data-id="x1rh9z3r" data-class="beam" class="beam"><polygon stroke-opacity="1" fill-opacity="1" points="5616,1626 6534,1626 6534,1536 5616,1536"/><g data-id="nvz03sq" data-class="note" class="note"><g data-class="notehead" class="notehead"><use href="#E0A4-e1pgh46b" transform="translate(5616, 906) scale(0.72, 0.72)"/></g><g data-id="q18u3iac" data-class="stem" class="stem"><path d="M5625 934 L5625 1608" stroke-width="18"/></g></g><g data-id="ot9rlkp" data-class="note" class="note"><g data-class="notehead" class="notehead"><use href="#E0A4-e1pgh46b" transform="translate(6066, 1086) scale(0.72, 0.72)"/></g><g data-id="r17jr6v6" data-class="stem" class="stem"><path d="M6075 1114 L6075 1608" stroke-width="18"/></g></g><g data-id="p1uwzdc4" data-class="note" class="note"><g data-class="notehead" class="notehead"><use href="#E0A4-e1pgh46b" transform="translate(6516, 456) scale(0.72, 0.72)"/></g><g data-id="scd6vgg" data-class="stem" class="stem"><path d="M6525 484 L6525 1608" stroke-width="18"/></g></g></g></g></g><g data-id="w96uhec" data-class="barLine" class="barLine"><path d="M6966 546 L6966 1266" stroke-width="27"/></g></g><g data-id="xvgqcks" data-class="measure" class="measure"><g data-id="t1lykfqo" data-class="staff" class="staff"><path d="M6979 546 L10542 546" stroke-width="13"/><path d="M6979 726 L10542 726" stroke-width="13"/><path d="M6979 906 L10542 906" stroke-width="13"/><path d="M6979 1086 L10542 1086" stroke-width="13"/><path d="M6979 1266 L10542 1266" stroke-width="13"/><g data-class="ledgerLines" class="ledgerLines above"><g data-class="lineDash" class="lineDash" data-related="#s1mtjkl2"><path d="M8681 366 L9003 366" stroke-width="22"/></g><g data-class="lineDash" class="lineDash" data-related="#t13hrwcv"><path d="M9131 366 L9453 366" stroke-width="22"/></g><g data-class="lineDash" class="lineDash" data-related="#u1g2m6wt"><path d="M9581 366 L9903 366" stroke-width="22"/></g><g data-class="lineDash" class="lineDash" data-related="#s1mtjkl2"><path d="M8681 186 L9003 186" stroke-width="22"/></g><g data-class="lineDash" class="lineDash" data-related="#t13hrwcv"><path d="M9131 186 L9453 186" stroke-width="22"/></g></g><g data-id="uoubcii" data-class="layer" class="layer"><g data-id="q1glvt2a" data-class="note" class="note"><g data-class="notehead" class="notehead"><use href="#E0A4-e1pgh46b" transform="translate(7159, 456) scale(0.72, 0.72)"/></g><g data-id="u1pmna2m" data-class="dots" class="dots"><ellipse cx="7475" cy="456" rx="36" ry="36" fill-opacity="1" stroke-opacity="1"/></g><g data-id="t1akqy6x" data-class="stem" class="stem"><path d="M7168 484 L7168 1086" stroke-width="18"/></g></g><g data-id="r4opduc" data-class="note" class="note"><g data-class="notehead" class="notehead"><use href="#E0A4-e1pgh46b" transform="translate(8039, 726) scale(0.72, 0.72)"/></g><g data-id="vfo6r3b" data-class="stem" class="stem"><path d="M8048 754 L8048 1356" stroke-width="18"/></g></g><g data-id="s1mtjkl2" data-class="note" class="note"><g data-class="notehead" class="notehead"><use href="#E0A4-e1pgh46b" transform="translate(8729, 96) scale(0.72, 0.72)"/></g><g data-id="widef5x" data-class="stem" class="stem"><path d="M8738 124 L8738 906" stroke-width="18"/><g data-id="x12scfwk" data-class="flag" class="flag"><use href="#E241-e1pgh46b" transform="translate(8729, 906) scale(0.72, 0.72)"/></g></g></g><g data-id="ycuzxbf" data-class="beam" class="beam"><polygon stroke-opacity="1" fill-opacity="1" points="9179,906 10097,1086 10097,996 9179,816"/><g data-id="t13hrwcv" data-class="note" class="note"><g data-class="notehead" class="notehead"><use href="#E0A4-e1pgh46b" transform="translate(9179, 96) scale(0.72, 0.72)"/></g><g data-id="y1ljhkm" data-class="stem" class="stem"><path d="M9188 124 L9188 888" stroke-width="18"/></g></g><g data-id="u1g2m6wt" data-class="note" class="note"><g data-class="notehead" class="notehead"><use href="#E0A4-e1pgh46b" transform="translate(9629, 276) scale(0.72, 0.72)"/></g><g data-id="zqpviar" data-class="stem" class="stem"><path d="M9638 304 L9638 978" stroke-width="18"/></g></g><g data-id="v1opqfym" data-class="note" class="note"><g data-class="notehead" class="notehead"><use href="#E0A4-e1pgh46b" transform="translate(10079, 456) scale(0.72, 0.72)"/></g><g data-id="afw3yp5" data-class="stem" class="stem"><path d="M10088 484 L10088 1068" stroke-width="18"/></g></g></g></g></g><g data-id="fosq2km" data-class="barLine" class="barLine"><path d="M10529 546 L10529 1266" stroke-width="27"/></g></g><g data-id="c1qrcjz3" data-class="systemMilestoneEnd" class="systemMilestoneEnd dln3ept"/></g><g data-id="diaqio0" data-class="pageMilestoneEnd" class="pageMilestoneEnd b1uyp2rr"/><g data-id="eckheah" data-class="pageMilestoneEnd" class="pageMilestoneEnd aifqwam"/></g></svg></svg>