<svg viewBox="0 0 560 84" version="1.1" xmlns="http://www.w3.org/2000/svg" xmlns:xlink="http://www.w3.org/1999/xlink" overflow="visible" id="w124qs48"><desc>Engraved by Verovio 5.6.0-85e7620</desc><defs><g id="E062-w124qs48"><path transform="scale(1,-1)" d="M582 -120c0 32 26 58 58 58s58 -26 58 -58s-26 -58 -58 -58s-58 26 -58 58zM582 120c0 32 26 58 58 58s58 -26 58 -58s-26 -58 -58 -58s-58 26 -58 58zM158 96c51 0 73 -14 88 -49l16 -39c0 -17 -2 -30 -7 -40c-3 -11 -10 -21 -19 -31c-17 -18 -49 -43 -84 -43 c-55 0 -77 13 -112 44c-24 21 -35 55 -35 100c0 46 14 81 32 112c30 52 71 79 137 93l36 6l26 2c154 0 235 -68 274 -182c11 -32 18 -68 18 -107c0 -103 -26 -182 -68 -250c-89 -145 -234 -230 -412 -288l-30 -5c-9 0 -14 3 -14 8c3 10 5 11 10 16c35 15 70 30 96 44l78 43 c96 57 162 136 197 258c9 33 17 60 22 100c3 22 5 35 6 39c-7 69 -16 115 -23 140s-4 22 -16 40c-8 12 -19 23 -31 34c-24 21 -62 44 -118 44c-48 0 -84 -8 -113 -28c-28 -19 -42 -44 -42 -73v-16c2 -5 3 -9 4 -11c24 22 52 39 84 39z"/></g><g id="E260-w124qs48"><path transform="scale(1,-1)" d="M20 110c32 16 54 27 93 27c26 0 35 -3 54 -13c13 -7 24 -20 27 -38l4 -25c0 -28 -16 -57 -45 -89c-23 -25 -39 -44 -65 -68l-88 -79v644h20v-359zM90 106c-32 0 -48 -10 -70 -29v-194c31 31 54 59 71 84c21 32 32 59 32 84c0 9 1 16 1 20c0 14 -3 21 -11 30l-8 3z"/></g><g id="E081-w124qs48"><path transform="scale(1,-1)" d="M68 -250v36c23 0 40 6 49 18c8 14 12 33 12 57v250l-82 -129l-27 13l107 255h128v-394c0 -24 5 -42 14 -53s25 -17 47 -17v-36h-248z"/></g><g id="E082-w124qs48"><path transform="scale(1,-1)" d="M124 -185c-18 0 -55 -14 -65 -65h-36l-3 30c0 25 6 45 18 63c11 19 22 30 39 43l121 82l37 29c15 11 27 29 38 54c12 24 18 47 18 70c0 40 -19 88 -94 88c-25 0 -32 0 -50 -8c-14 -5 -23 -12 -26 -22c3 -9 7 -15 10 -18l24 -17c12 -7 17 -11 27 -21c5 -7 7 -16 7 -27 c0 -12 0 -57 -79 -74c-30 0 -76 26 -76 94c0 66 81 135 197 135c72 0 181 -32 181 -150c0 -53 -32 -95 -113 -133l-91 -41c-26 -11 -45 -23 -57 -37l49 7c84 0 115 -41 148 -41c20 0 33 20 39 61h35c0 -152 -68 -168 -114 -168c-17 0 -65 0 -79 7h10l-28 17 c-49 37 -69 40 -87 42z"/></g><g id="E088-w124qs48"><path transform="scale(1,-1)" d="M195 -214c76 0 88 58 90 68c0 34 -35 60 -57 73l-52 29c-21 10 -32 17 -34 20c-39 -33 -58 -54 -62 -92c5 -23 23 -98 115 -98zM301 135c0 61 -72 76 -113 76c-40 0 -77 -17 -77 -51c3 -21 15 -38 26 -50c17 -15 33 -26 48 -34l65 -28c34 27 51 56 51 87zM176 -250 c-57 0 -166 26 -166 132c0 47 30 86 89 116c-33 15 -79 60 -79 119c0 79 85 132 178 132h18c5 0 21 1 28 -1c25 0 126 -30 126 -110c0 -37 -23 -76 -69 -116c43 -25 83 -71 83 -119c0 -101 -118 -153 -208 -153z"/></g><g id="E4E6-w124qs48"><path transform="scale(1,-1)" d="M0 123c7 34 33 56 69 60c29 -3 43 -9 53 -29c4 -8 7 -15 10 -22c0 -21 -1 -25 -11 -35c-5 -8 -18 -14 -40 -20l12 -3l15 -1c44 0 97 26 122 56c10 11 18 26 24 42c7 1 15 2 22 3l-140 -424h-36l111 330c-10 -6 -27 -12 -53 -16l-52 -8h-10l-20 1c-1 0 -8 3 -21 6 c-37 9 -55 28 -55 60z"/></g><g id="E0A4-w124qs48"><path transform="scale(1,-1)" d="M0 -39c0 68 73 172 200 172c66 0 114 -37 114 -95c0 -84 -106 -171 -218 -171c-64 0 -96 30 -96 94z"/></g></defs><style type="text/css">#w124qs48 g.page-margin {font-family:Times,serif;}#w124qs48 g.ending, #w124qs48 g.fing, #w124qs48 g.reh, #w124qs48 g.tempo {font-weight:bold;}#w124qs48 g.dir, #w124qs48 g.dynam, #w124qs48 g.mNum {font-style:italic;}#w124qs48 g.label {font-weight:normal;}#w124qs48 path {stroke:currentColor}</style><svg class="definition-scale" color="black" viewBox="0 0 14000 2100"><g class="page-margin" transform="translate(0, 150)"><g data-id="g2kkcyu" data-class="mdiv" class="mdiv pageMilestone"/><g data-id="h1f7847x" data-class="score" class="score pageMilestone"/><g data-id="h1d3qfi4" data-class="system" class="system"><g data-id="j86sh1n" data-class="section" class="section systemMilestone"/><g data-id="x1hmys5n" data-class="measure" class="measure"><g data-id="v154wyd1" data-class="staff" class="staff"><path d="M0 540 L7946 540" stroke-width="13"/><path d="M0 720 L7946 720" stroke-width="13"/><path d="M0 900 L7946 900" stroke-width="13"/><path d="M0 1080 L7946 1080" stroke-width="13"/><path d="M0 1260 L7946 1260" stroke-width="13"/><g data-id="napaubc" data-class="clef" class="clef"><use href="#E062-w124qs48" transform="translate(88, 720) scale(0.72, 0.72)"/></g><g data-id="o1p1ocs8" data-class="keySig" class="keySig"><g data-id="pvxuwxu" data-class="keyAccid" class="keyAccid"><use href="#E260-w124qs48" transform="translate(769, 1080) scale(0.72, 0.72)"/></g><g data-id="qxmlcwh" data-class="keyAccid" class="keyAccid"><use href="#E260-w124qs48" transform="translate(949, 810) scale(0.72, 0.72)"/></g></g><g data-id="r16i43cu" data-class="meterSig" class="meterSig"><use href="#E081-w124qs48" transform="translate(1257, 720) scale(0.72, 0.72)"/><use href="#E082-w124qs48" transform="translate(1498, 720) scale(0.72, 0.72)"/><use href="#E088-w124qs48" transform="translate(1392, 1080) scale(0.72, 0.72)"/></g><g data-class="ledgerLines" class="ledgerLines above"><g data-class="lineDash" class="lineDash" data-related="#y1kubvxi"><path d="M5449 360 L5771 360" stroke-width="22"/></g><g data-class="lineDash" class="lineDash" data-related="#z11n9imt"><path d="M5936 360 L6258 360" stroke-width="22"/></g><g data-class="lineDash" class="lineDash" data-related="#agf16hx"><path d="M6423 360 L6745 360" stroke-width="22"/></g><g data-class="lineDash" class="lineDash" data-related="#cht8360"><path d="M7398 360 L7720 360" stroke-width="22"/></g></g><g data-id="w16nw3w3" data-class="layer" class="layer"><g data-id="p8njwje" data-class="rest" class="rest"><use href="#E4E6-w124qs48" transform="translate(2086, 900) scale(0.72, 0.72)"/></g><g data-id="njovtvm" data-class="beam" class="beam"><polygon stroke-opacity="1" fill-opacity="1" points="2574,1080 3079,1080 3079,990 2574,990"/><g data-id="t1jnl27g" data-class="note" class="note"><g data-class="notehead" class="notehead"><use href="#E0A4-w124qs48" transform="translate(2574, 450) scale(0.72, 0.72)"/></g><g data-id="lzbujhx" data-class="stem" class="stem"><path d="M2583 478 L2583 1062" stroke-width="18"/></g><g data-id="v1tbd77k" data-class="accid" class="accid"/></g><g data-id="u15252wd" data-class="note" class="note"><g data-class="notehead" class="notehead"><use href="#E0A4-w124qs48" transform="translate(3061, 450) scale(0.72, 0.72)"/></g><g data-id="mfnu9dg" data-class="stem" class="stem"><path d="M3070 478 L3070 1062" stroke-width="18"/></g><g data-id="wvwyiqa" data-class="accid" class="accid"/></g></g><g data-id="omtnmb3" data-class="beam" class="beam"><polygon stroke-opacity="1" fill-opacity="1" points="3548,1305 4540,1305 4540,1215 3548,1215"/><g data-id="vwqf117" data-class="note" class="note"><g data-class="notehead" class="notehead"><use href="#E0A4-w124qs48" transform="translate(3548, 450) scale(0.72, 0.72)"/></g><g data-id="n14jx0ae" data-class="stem" class="stem"><path d="M3557 478 L3557 1287" stroke-width="18"/></g><g data-id="x1wlq5rr" data-class="accid" class="accid"/></g><g data-id="w1w7h6ue" data-class="note" class="note"><g data-class="notehead" class="notehead"><use href="#E0A4-w124qs48" transform="translate(4035, 720) scale(0.72, 0.72)"/></g><g data-id="ou8lqn3" data-class="stem" class="stem"><path d="M4044 748 L4044 1287" stroke-width="18"/></g></g><g data-id="x153glp7" data-class="note" class="note"><g data-class="notehead" class="notehead"><use href="#E0A4-w124qs48" transform="translate(4522, 450) scale(0.72, 0.72)"/></g><g data-id="p1kkmwxv" data-class="stem" class="stem"><path d="M4531 478 L4531 1287" stroke-width="18"/></g><g data-id="y1tpzqwm" data-class="accid" class="accid"/></g></g><g data-id="q1c87vft" data-class="rest" class="rest"><use href="#E4E6-w124qs48" transform="translate(5010, 900) scale(0.72, 0.72)"/></g><g data-id="p1fa60wp" data-class="beam" class="beam"><polygon stroke-opacity="1" fill-opacity="1" points="5497,945 6002,945 6002,855 5497,855"/><g data-id="y1kubvxi" data-class="note" class="note"><g data-class="notehead" class="notehead"><use href="#E0A4-w124qs48" transform="translate(5497, 360) scale(0.72, 0.72)"/></g><g data-id="qoiz65i" data-class="stem" class="stem"><path d="M5506 388 L5506 927" stroke-width="18"/></g></g><g data-id="z11n9imt" data-class="note" class="note"><g data-class="notehead" class="notehead"><use href="#E0A4-w124qs48" transform="translate(5984, 360) scale(0.72, 0.72)"/></g><g data-id="r1h7zhjh" data-class="stem" class="stem"><path d="M5993 388 L5993 927" stroke-width="18"/></g></g></g><g data-id="qcm25dl" data-class="beam" class="beam"><polygon stroke-opacity="1" fill-opacity="1" points="6471,1260 7464,1260 7464,1170 6471,1170"/><g data-id="agf16hx" data-class="note" class="note"><g data-class="notehead" class="notehead"><use href="#E0A4-w124qs48" transform="translate(6471, 360) scale(0.72, 0.72)"/></g><g data-id="se1b4wc" data-class="stem" class="stem"><path d="M6480 388 L6480 1242" stroke-width="18"/></g></g><g data-id="b17jq0fp" data-class="note" class="note"><g data-class="notehead" class="notehead"><use href="#E0A4-w124qs48" transform="translate(6959, 630) scale(0.72, 0.72)"/></g><g data-id="tz7yxzm" data-class="stem" class="stem"><path d="M6968 658 L6968 1242" stroke-width="18"/></g></g><g data-id="cht8360" data-class="note" class="note"><g data-class="notehead" class="notehead"><use href="#E0A4-w124qs48" transform="translate(7446, 360) scale(0.72, 0.72)"/></g><g data-id="ujutk5x" data-class="stem" class="stem"><path d="M7455 388 L7455 1242" stroke-width="18"/></g></g></g></g></g><g data-id="fgig99f" data-class="barLine" class="barLine"><path d="M7933 540 L7933 1260" stroke-width="27"/></g></g><g data-id="g1ab1wt7" data-class="measure" class="measure"><g data-id="xzw8o46" data-class="staff" class="staff"><path d="M7946 540 L14001 540" stroke-width="13"/><path d="M7946 720 L14001 720" stroke-width="13"/><path d="M7946 900 L14001 900" stroke-width="13"/><path d="M7946 1080 L14001 1080" stroke-width="13"/><path d="M7946 1260 L14001 1260" stroke-width="13"/><g data-class="ledgerLines" class="ledgerLines above"><g data-class="lineDash" class="lineDash" data-related="#d1js01h5"><path d="M8581 360 L8903 360" stroke-width="22"/></g><g data-class="lineDash" class="lineDash" data-related="#eo6u6e6"><path d="M9068 360 L9390 360" stroke-width="22"/></g><g data-class="lineDash" class="lineDash" data-related="#f14zja0g"><path d="M9555 360 L9877 360" stroke-width="22"/></g><g data-class="lineDash" class="lineDash" data-related="#h3xa24x"><path d="M10529 360 L10851 360" stroke-width="22"/></g><g data-class="lineDash" class="lineDash" data-related="#ilo0wm"><path d="M11504 360 L11826 360" stroke-width="22"/></g><g data-class="lineDash" class="lineDash" data-related="#j183cq5h"><path d="M11991 360 L12313 360" stroke-width="22"/></g><g data-class="lineDash" class="lineDash" data-related="#k1pd9u19"><path d="M12478 360 L12800 360" stroke-width="22"/></g><g data-class="lineDash" class="lineDash" data-related="#m5v98j1"><path d="M13453 360 L13775 360" stroke-width="22"/></g><g data-class="lineDash" class="lineDash" data-related="#ilo0wm"><path d="M11504 180 L11826 180" stroke-width="22"/></g><g data-class="lineDash" class="lineDash" data-related="#j183cq5h"><path d="M11991 180 L12313 180" stroke-width="22"/></g><g data-class="lineDash" class="lineDash" data-related="#k1pd9u19"><path d="M12478 180 L12800 180" stroke-width="22"/></g><g data-class="lineDash" class="lineDash" data-related="#m5v98j1"><path d="M13453 180 L13775 180" stroke-width="22"/></g></g><g data-id="y6o0xst" data-class="layer" class="layer"><g data-id="rhf2beu" data-class="rest" class="rest"><use href="#E4E6-w124qs48" transform="translate(8141, 900) scale(0.72, 0.72)"/></g><g data-id="rbbp72s" data-class="beam" class="beam"><polygon stroke-opacity="1" fill-opacity="1" points="8629,900 9134,900 9134,810 8629,810"/><g data-id="d1js01h5" data-class="note" class="note"><g data-class="notehead" class="notehead"><use href="#E0A4-w124qs48" transform="translate(8629, 270) scale(0.72, 0.72)"/></g><g data-id="v1g5vlfs" data-class="stem" class="stem"><path d="M8638 298 L8638 882" stroke-width="18"/></g></g><g data-id="eo6u6e6" data-class="note" class="note"><g data-class="notehead" class="notehead"><use href="#E0A4-w124qs48" transform="translate(9116, 270) scale(0.72, 0.72)"/></g><g data-id="w1sjx590" data-class="stem" class="stem"><path d="M9125 298 L9125 882" stroke-width="18"/></g></g></g><g data-id="sd92s0p" data-class="beam" class="beam"><polygon stroke-opacity="1" fill-opacity="1" points="9603,1080 10595,1080 10595,990 9603,990"/><g data-id="f14zja0g" data-class="note" class="note"><g data-class="notehead" class="notehead"><use href="#E0A4-w124qs48" transform="translate(9603, 270) scale(0.72, 0.72)"/></g><g data-id="xw1dfai" data-class="stem" class="stem"><path d="M9612 298 L9612 1062" stroke-width="18"/></g></g><g data-id="g5yucts" data-class="note" class="note"><g data-class="notehead" class="notehead"><use href="#E0A4-w124qs48" transform="translate(10090, 450) scale(0.72, 0.72)"/></g><g data-id="yacoafp" data-class="stem" class="stem"><path d="M10099 478 L10099 1062" stroke-width="18"/></g><g data-id="zi9u692" data-class="accid" class="accid"/></g><g data-id="h3xa24x" data-class="note" class="note"><g data-class="notehead" class="notehead"><use href="#E0A4-w124qs48" transform="translate(10577, 270) scale(0.72, 0.72)"/></g><g data-id="z1yurnpb" data-class="stem" class="stem"><path d="M10586 298 L10586 1062" stroke-width="18"/></g></g></g><g data-id="s12colry" data-class="rest" class="rest"><use href="#E4E6-w124qs48" transform="translate(11065, 900) scale(0.72, 0.72)"/></g><g data-id="t91rgf9" data-class="beam" class="beam"><polygon stroke-opacity="1" fill-opacity="1" points="11552,900 12057,900 12057,810 11552,810"/><g data-id="ilo0wm" data-class="note" class="note"><g data-class="notehead" class="notehead"><use href="#E0A4-w124qs48" transform="translate(11552, 180) scale(0.72, 0.72)"/></g><g data-id="a1iqq87i" data-class="stem" class="stem"><path d="M11561 208 L11561 882" stroke-width="18"/></g><g data-id="a1sm7ua0" data-class="accid" class="accid"/></g><g data-id="j183cq5h" data-class="note" class="note"><g data-class="notehead" class="notehead"><use href="#E0A4-w124qs48" transform="translate(12039, 180) scale(0.72, 0.72)"/></g><g data-id="bmscgkz" data-class="stem" class="stem"><path d="M12048 208 L12048 882" stroke-width="18"/></g><g data-id="b1i86n6n" data-class="accid" class="accid"/></g></g><g data-id="u1miblps" data-class="beam" class="beam"><polygon stroke-opacity="1" fill-opacity="1" points="12526,1080 13519,1080 13519,990 12526,990"/><g data-id="k1pd9u19" data-class="note" class="note"><g data-class="notehead" class="notehead"><use href="#E0A4-w124qs48" transform="translate(12526, 180) scale(0.72, 0.72)"/></g><g data-id="c1hhle8y" data-class="stem" class="stem"><path d="M12535 208 L12535 1062" stroke-width="18"/></g><g data-id="c1gizecf" data-class="accid" class="accid"/></g><g data-id="lzme8nq" data-class="note" class="note"><g data-class="notehead" class="notehead"><use href="#E0A4-w124qs48" transform="translate(13014, 450) scale(0.72, 0.72)"/></g><g data-id="dzbj08n" data-class="stem" class="stem"><path d="M13023 478 L13023 1062" stroke-width="18"/></g><g data-id="d1vd9c8k" data-class="accid" class="accid"/></g><g data-id="m5v98j1" data-class="note" class="note"><g data-class="notehead" class="notehead"><use href="#E0A4-w124qs48" transform="translate(13501, 180) scale(0.72, 0.72)"/></g><g data-id="em8pbrr" data-class="stem" class="stem"><path d="M13510 208 L13510 1062" stroke-width="18"/></g><g data-id="ekb1t1j" data-class="accid" class="accid"/></g></g></g></g><g data-id="oli2sss" data-class="barLine" class="barLine"><path d="M13988 540 L13988 1260" stroke-width="27"/></g></g><g data-id="gjg9037" data-class="systemMilestoneEnd" class="systemMilestoneEnd j86sh1n"/></g><g data-id="hw7fxf" data-class="pageMilestoneEnd" class="pageMilestoneEnd h1f7847x"/><g data-id="i16p3idq" data-class="pageMilestoneEnd" class="pageMilestoneEnd g2kkcyu"/></g></svg></svg>