<svg viewBox="0 0 560 84" version="1.1" xmlns="http://www.w3.org/2000/svg" xmlns:xlink="http://www.w3.org/1999/xlink" overflow="visible" id="zpjxgl1"><desc>Engraved by Verovio 5.6.0-85e7620</desc><defs><g id="E062-zpjxgl1"><path transform="scale(1,-1)" d="M582 -120c0 32 26 58 58 58s58 -26 58 -58s-26 -58 -58 -58s-58 26 -58 58zM582 120c0 32 26 58 58 58s58 -26 58 -58s-26 -58 -58 -58s-58 26 -58 58zM158 96c51 0 73 -14 88 -49l16 -39c0 -17 -2 -30 -7 -40c-3 -11 -10 -21 -19 -31c-17 -18 -49 -43 -84 -43 c-55 0 -77 13 -112 44c-24 21 -35 55 -35 100c0 46 14 81 32 112c30 52 71 79 137 93l36 6l26 2c154 0 235 -68 274 -182c11 -32 18 -68 18 -107c0 -103 -26 -182 -68 -250c-89 -145 -234 -230 -412 -288l-30 -5c-9 0 -14 3 -14 8c3 10 5 11 10 16c35 15 70 30 96 44l78 43 c96 57 162 136 197 258c9 33 17 60 22 100c3 22 5 35 6 39c-7 69 -16 115 -23 140s-4 22 -16 40c-8 12 -19 23 -31 34c-24 21 -62 44 -118 44c-48 0 -84 -8 -113 -28c-28 -19 -42 -44 -42 -73v-16c2 -5 3 -9 4 -11c24 22 52 39 84 39z"/></g><g id="E260-zpjxgl1"><path transform="scale(1,-1)" d="M20 110c32 16 54 27 93 27c26 0 35 -3 54 -13c13 -7 24 -20 27 -38l4 -25c0 -28 -16 -57 -45 -89c-23 -25 -39 -44 -65 -68l-88 -79v644h20v-359zM90 106c-32 0 -48 -10 -70 -29v-194c31 31 54 59 71 84c21 32 32 59 32 84c0 9 1 16 1 20c0 14 -3 21 -11 30l-8 3z"/></g><g id="E089-zpjxgl1"><path transform="scale(1,-1)" d="M139 107c0 -51 22 -104 66 -104c38 0 64 48 64 110c0 50 -31 100 -64 100c-40 0 -66 -56 -66 -106zM114 -74c40 0 72 -27 72 -65c0 -8 -3 -19 -9 -34l-7 -16l-5 -15c2 -8 12 -12 31 -12c56 0 84 73 84 219c-32 -24 -71 -36 -119 -36c-29 0 -56 6 -79 20 c-51 26 -57 78 -62 108c0 64 56 155 188 155c158 0 197 -151 197 -237c0 -145 -92 -263 -207 -263c-109 0 -155 68 -155 101c0 46 33 75 71 75z"/></g><g id="E088-zpjxgl1"><path transform="scale(1,-1)" d="M195 -214c76 0 88 58 90 68c0 34 -35 60 -57 73l-52 29c-21 10 -32 17 -34 20c-39 -33 -58 -54 -62 -92c5 -23 23 -98 115 -98zM301 135c0 61 -72 76 -113 76c-40 0 -77 -17 -77 -51c3 -21 15 -38 26 -50c17 -15 33 -26 48 -34l65 -28c34 27 51 56 51 87zM176 -250 c-57 0 -166 26 -166 132c0 47 30 86 89 116c-33 15 -79 60 -79 119c0 79 85 132 178 132h18c5 0 21 1 28 -1c25 0 126 -30 126 -110c0 -37 -23 -76 -69 -116c43 -25 83 -71 83 -119c0 -101 -118 -153 -208 -153z"/></g><g id="E0A4-zpjxgl1"><path transform="scale(1,-1)" d="M0 -39c0 68 73 172 200 172c66 0 114 -37 114 -95c0 -84 -106 -171 -218 -171c-64 0 -96 30 -96 94z"/></g><g id="E07A-zpjxgl1"><path transform="scale(1,-1)" d="M343 -190c-18 -3 -37 -5 -59 -5c-46 0 -79 6 -101 16c-68 33 -117 72 -146 119c-20 34 -33 80 -37 137c0 5 -1 10 -1 15c0 42 12 86 35 132c23 44 51 82 86 115s75 65 119 98c-2 12 -7 36 -11 72c-3 33 -3 57 -3 69c0 91 12 134 53 200c26 42 50 63 69 63 c16 0 34 -23 54 -71s30 -90 32 -124v-11c0 -85 -16 -126 -52 -187c-10 -16 -49 -70 -76 -92c-10 -7 -20 -15 -29 -23l24 -140c6 1 14 1 22 1c45 0 79 -9 103 -27c46 -33 71 -81 76 -143c1 -5 1 -12 1 -17c0 -96 -68 -163 -141 -193c6 -44 14 -86 20 -126c4 -24 4 -45 4 -62 c0 -23 -3 -41 -10 -54c-27 -50 -69 -77 -123 -80c-4 0 -9 -1 -13 -1c-29 0 -56 8 -84 21c-39 19 -60 46 -62 82v8c0 23 6 43 16 59c14 22 35 32 61 34h5c38 0 72 -32 75 -67v-7c0 -40 -26 -67 -81 -83c13 -19 39 -28 79 -28c48 0 90 34 109 67c7 12 10 31 10 57 c0 16 -1 33 -4 52c-6 41 -14 83 -20 124zM358 730c-74 0 -105 -137 -105 -223c0 -19 2 -37 4 -55c39 30 72 64 99 100c31 41 46 77 46 108v7c-3 41 -16 63 -42 63h-2zM315 92l42 -253c57 19 86 61 86 125c0 5 0 12 -1 18c-5 74 -44 110 -117 110h-10zM297 91 c-56 -2 -100 -36 -100 -93v-6c2 -36 34 -77 59 -89c-2 -2 -6 -4 -8 -8c-54 26 -91 69 -96 134v8c0 53 35 98 69 124c18 13 37 23 60 28l-22 132c-16 -10 -41 -29 -72 -57c-39 -34 -66 -65 -84 -92c-35 -54 -52 -102 -52 -142v-10c4 -53 27 -99 72 -137s96 -56 157 -56 c19 0 40 2 59 7c-15 86 -28 172 -42 257z"/></g><g id="E240-zpjxgl1"><path transform="scale(1,-1)" d="M179 -646c15 29 29 55 46 102c18 49 30 108 30 138c0 105 -80 173 -168 200c-18 5 -47 9 -87 16v190h22c8 0 33 -61 71 -95c4 -3 -2 3 61 -56c62 -58 122 -137 122 -241c0 -38 -13 -106 -35 -163c-20 -51 -43 -99 -66 -132c-6 -5 -10 -7 -13 -7s-5 2 -5 5l4 10 c1 3 14 25 18 33z"/></g><g id="E261-zpjxgl1"><path transform="scale(1,-1)" d="M0 -188v539h18v-191l139 22v-533h-17v186zM18 -100l122 17v176l-122 -19v-174z"/></g></defs><style type="text/css">#zpjxgl1 g.page-margin {font-family:Times,serif;}#zpjxgl1 g.ending, #zpjxgl1 g.fing, #zpjxgl1 g.reh, #zpjxgl1 g.tempo {font-weight:bold;}#zpjxgl1 g.dir, #zpjxgl1 g.dynam, #zpjxgl1 g.mNum {font-style:italic;}#zpjxgl1 g.label {font-weight:normal;}#zpjxgl1 path {stroke:currentColor}</style><svg class="definition-scale" color="black" viewBox="0 0 14000 2100"><g class="page-margin" transform="translate(0, 150)"><g data-id="z1bmga8y" data-class="mdiv" class="mdiv pageMilestone"/><g data-id="a12et63y" data-class="score" class="score pageMilestone"/><g data-id="t1jvfi7v" data-class="system" class="system"><g data-id="chd2k0f" data-class="section" class="section systemMilestone"/><g data-id="ak8orw" data-class="measure" class="measure"><g data-id="o18jwf75" data-class="staff" class="staff"><path d="M0 540 L6557 540" stroke-width="13"/><path d="M0 720 L6557 720" stroke-width="13"/><path d="M0 900 L6557 900" stroke-width="13"/><path d="M0 1080 L6557 1080" stroke-width="13"/><path d="M0 1260 L6557 1260" stroke-width="13"/><g data-id="f1st513o" data-class="clef" class="clef"><use href="#E062-zpjxgl1" transform="translate(88, 720) scale(0.72, 0.72)"/></g><g data-id="g18rr14z" data-class="keySig" class="keySig"><g data-id="hnq89es" data-class="keyAccid" class="keyAccid"><use href="#E260-zpjxgl1" transform="translate(769, 1080) scale(0.72, 0.72)"/></g></g><g data-id="i1yaa6sa" data-class="meterSig" class="meterSig"><use href="#E089-zpjxgl1" transform="translate(1077, 720) scale(0.72, 0.72)"/><use href="#E088-zpjxgl1" transform="translate(1085, 1080) scale(0.72, 0.72)"/></g><g data-class="ledgerLines" class="ledgerLines below"><g data-class="lineDash" class="lineDash" data-related="#rte56h9"><path d="M4811 1440 L5133 1440" stroke-width="22"/></g><g data-class="lineDash" class="lineDash" data-related="#u1wxsuhc"><path d="M6016 1440 L6338 1440" stroke-width="22"/></g></g><g data-id="pbum6mu" data-class="layer" class="layer"><g data-id="o11xqy7b" data-class="beam" class="beam"><polygon stroke-opacity="1" fill-opacity="1" points="1649,1125 2626,1125 2626,1035 1649,1035"/><g data-id="l3dft8f" data-class="note" class="note"><g data-class="notehead" class="notehead"><use href="#E0A4-zpjxgl1" transform="translate(1649, 540) scale(0.72, 0.72)"/></g><g data-id="h1azqrng" data-class="stem" class="stem"><path d="M1658 568 L1658 1107" stroke-width="18"/></g></g><g data-id="mqrah3s" data-class="note" class="note"><g data-class="notehead" class="notehead"><use href="#E0A4-zpjxgl1" transform="translate(2128, 540) scale(0.72, 0.72)"/></g><g data-id="iqzgmmw" data-class="stem" class="stem"><path d="M2137 568 L2137 1107" stroke-width="18"/></g></g><g data-id="n9y6n0r" data-class="note" class="note"><g data-class="notehead" class="notehead"><use href="#E0A4-zpjxgl1" transform="translate(2608, 540) scale(0.72, 0.72)"/></g><g data-id="j15dp0k4" data-class="stem" class="stem"><path d="M2617 568 L2617 1107" stroke-width="18"/></g></g></g><g data-id="pxc2ywb" data-class="beam" class="beam"><polygon stroke-opacity="1" fill-opacity="1" points="3088,1260 4065,1260 4065,1170 3088,1170"/><g data-id="o1xwxarp" data-class="note" class="note"><g data-class="notehead" class="notehead"><use href="#E0A4-zpjxgl1" transform="translate(3088, 540) scale(0.72, 0.72)"/></g><g data-id="k1u241k4" data-class="stem" class="stem"><path d="M3097 568 L3097 1242" stroke-width="18"/></g></g><g data-id="p1ku23qz" data-class="note" class="note"><g data-class="notehead" class="notehead"><use href="#E0A4-zpjxgl1" transform="translate(3568, 630) scale(0.72, 0.72)"/></g><g data-id="la8crnc" data-class="stem" class="stem"><path d="M3577 658 L3577 1242" stroke-width="18"/></g></g><g data-id="qpth3hj" data-class="note" class="note"><g data-class="notehead" class="notehead"><use href="#E0A4-zpjxgl1" transform="translate(4047, 540) scale(0.72, 0.72)"/></g><g data-id="me8xx4l" data-class="stem" class="stem"><path d="M4056 568 L4056 1242" stroke-width="18"/></g></g></g><g data-id="j1fn0aa5" data-class="clef" class="clef"><use href="#E07A-zpjxgl1" transform="translate(4407, 1080) scale(0.72, 0.72)"/></g><g data-id="q1xihbzw" data-class="beam" class="beam"><polygon stroke-opacity="1" fill-opacity="1" points="5067,585 6290,585 6290,675 5067,675"/><g data-id="rte56h9" data-class="note" class="note"><g data-class="notehead" class="notehead"><use href="#E0A4-zpjxgl1" transform="translate(4859, 1440) scale(0.72, 0.72)"/></g><g data-id="n1366mgy" data-class="stem" class="stem"><path d="M5076 1412 L5076 603" stroke-width="18"/></g></g><g data-id="sosgsm8" data-class="note" class="note"><g data-class="notehead" class="notehead"><use href="#E0A4-zpjxgl1" transform="translate(5214, 1260) scale(0.54, 0.54)"/></g><g data-id="o1hdi8yd" data-class="stem" class="stem"><path d="M5374 1239 L5374 788" stroke-width="18"/><path d="M5307 1056 L5508 855" stroke-width="21"/><g data-id="p1k0ga6i" data-class="flag" class="flag"><use href="#E240-zpjxgl1" transform="translate(5365, 788) scale(0.54, 0.54)"/></g></g></g><g data-id="t9rr7u2" data-class="note" class="note"><g data-class="notehead" class="notehead"><use href="#E0A4-zpjxgl1" transform="translate(5585, 1350) scale(0.72, 0.72)"/></g><g data-id="qemp7ig" data-class="stem" class="stem"><path d="M5802 1322 L5802 603" stroke-width="18"/></g></g><g data-id="u1wxsuhc" data-class="note" class="note"><g data-class="notehead" class="notehead"><use href="#E0A4-zpjxgl1" transform="translate(6064, 1440) scale(0.72, 0.72)"/></g><g data-id="r1uq49v5" data-class="stem" class="stem"><path d="M6281 1412 L6281 603" stroke-width="18"/></g></g></g></g></g><g data-id="icknocy" data-class="barLine" class="barLine"><path d="M6544 540 L6544 1260" stroke-width="27"/></g></g><g data-id="kjuuw4n" data-class="measure" class="measure"><g data-id="qhlz15r" data-class="staff" class="staff"><path d="M6557 540 L10644 540" stroke-width="13"/><path d="M6557 720 L10644 720" stroke-width="13"/><path d="M6557 900 L10644 900" stroke-width="13"/><path d="M6557 1080 L10644 1080" stroke-width="13"/><path d="M6557 1260 L10644 1260" stroke-width="13"/><g data-id="rt9vmrk" data-class="layer" class="layer"><g data-id="v121no3d" data-class="note" class="note"><g data-class="notehead" class="notehead"><use href="#E0A4-zpjxgl1" transform="translate(6748, 990) scale(0.72, 0.72)"/></g><g data-id="tdg1stm" data-class="dots" class="dots"><ellipse cx="7064" cy="990" rx="36" ry="36" fill-opacity="1" stroke-opacity="1"/></g><g data-id="s1b6ovgy" data-class="stem" class="stem"><path d="M6965 962 L6965 360" stroke-width="18"/></g></g><g data-id="w1vkcu3m" data-class="note" class="note"><g data-class="notehead" class="notehead"><use href="#E0A4-zpjxgl1" transform="translate(7687, 990) scale(0.72, 0.72)"/></g><g data-id="u1714fme" data-class="stem" class="stem"><path d="M7904 962 L7904 360" stroke-width="18"/><g data-id="vy7yvp0" data-class="flag" class="flag"><use href="#E240-zpjxgl1" transform="translate(7895, 360) scale(0.72, 0.72)"/></g></g></g><g data-id="r1hrz2k2" data-class="beam" class="beam"><polygon stroke-opacity="1" fill-opacity="1" points="8211,1485 8730,1485 8730,1395 8211,1395"/><g data-id="xgnj7bh" data-class="note" class="note"><g data-class="notehead" class="notehead"><use href="#E0A4-zpjxgl1" transform="translate(8211, 900) scale(0.72, 0.72)"/></g><g data-id="w587ksj" data-class="stem" class="stem"><path d="M8220 928 L8220 1467" stroke-width="18"/></g><g data-id="xgydckd" data-class="accid" class="accid"/></g><g data-id="yzkldrv" data-class="note" class="note"><g data-class="notehead" class="notehead"><use href="#E0A4-zpjxgl1" transform="translate(8712, 900) scale(0.72, 0.72)"/></g><g data-id="x1o5chij" data-class="stem" class="stem"><path d="M8721 928 L8721 1467" stroke-width="18"/></g><g data-id="nyd4xa8" data-class="accid" class="accid"><use href="#E261-zpjxgl1" transform="translate(8554, 900) scale(0.72, 0.72)"/></g></g></g><g data-id="swgq5g" data-class="beam" class="beam"><polygon stroke-opacity="1" fill-opacity="1" points="9400,270 10377,450 10377,540 9400,360"/><g data-id="z14a3lyl" data-class="note" class="note"><g data-class="notehead" class="notehead"><use href="#E0A4-zpjxgl1" transform="translate(9192, 810) scale(0.72, 0.72)"/></g><g data-id="y12387q4" data-class="stem" class="stem"><path d="M9409 782 L9409 288" stroke-width="18"/></g></g><g data-id="a16fyrti" data-class="note" class="note"><g data-class="notehead" class="notehead"><use href="#E0A4-zpjxgl1" transform="translate(9671, 990) scale(0.72, 0.72)"/></g><g data-id="z62ddfp" data-class="stem" class="stem"><path d="M9888 962 L9888 378" stroke-width="18"/></g></g><g data-id="b1muuqg7" data-class="note" class="note"><g data-class="notehead" class="notehead"><use href="#E0A4-zpjxgl1" transform="translate(10151, 1170) scale(0.72, 0.72)"/></g><g data-id="a14e0g8e" data-class="stem" class="stem"><path d="M10368 1142 L10368 468" stroke-width="18"/></g></g></g></g></g><g data-id="v2cvpti" data-class="tie" class="tie"><path d="M7019,1102 C7182,1207 7475,1207 7642,1102 C7492,1256 7165,1256 7019,1102" stroke-linecap="round" stroke-linejoin="round" stroke-width="9"/></g><g data-id="sxe37qr" data-class="barLine" class="barLine"><path d="M10631 540 L10631 1260" stroke-width="27"/></g></g><g data-id="t6u13ss" data-class="measure" class="measure"><g data-id="s16v4nwi" data-class="staff" class="staff"><path d="M10644 540 L14002 540" stroke-width="13"/><path d="M10644 720 L14002 720" stroke-width="13"/><path d="M10644 900 L14002 900" stroke-width="13"/><path d="M10644 1080 L14002 1080" stroke-width="13"/><path d="M10644 1260 L14002 1260" stroke-width="13"/><g data-class="ledgerLines" class="ledgerLines below"><g data-class="lineDash" class="lineDash" data-related="#fn5kg6"><path d="M13402 1440 L13724 1440" stroke-width="22"/></g></g><g data-id="t1lpqwis" data-class="layer" class="layer"><g data-id="cloiacd" data-class="note" class="note"><g data-class="notehead" class="notehead"><use href="#E0A4-zpjxgl1" transform="translate(10835, 1260) scale(0.72, 0.72)"/></g><g data-id="criy8rh" data-class="dots" class="dots"><ellipse cx="11151" cy="1170" rx="36" ry="36" fill-opacity="1" stroke-opacity="1"/></g><g data-id="b19hdeiy" data-class="stem" class="stem"><path d="M11052 1232 L11052 630" stroke-width="18"/></g></g><g data-id="djwoljt" data-class="note" class="note"><g data-class="notehead" class="notehead"><use href="#E0A4-zpjxgl1" transform="translate(11774, 1350) scale(0.72, 0.72)"/></g><g data-id="e1jcgyzl" data-class="dots" class="dots"><ellipse cx="12090" cy="1350" rx="36" ry="36" fill-opacity="1" stroke-opacity="1"/></g><g data-id="d11ua8ug" data-class="stem" class="stem"><path d="M11991 1322 L11991 720" stroke-width="18"/></g></g><g data-id="e1r1xaie" data-class="note" class="note"><g data-class="notehead" class="notehead"><use href="#E0A4-zpjxgl1" transform="translate(12713, 1350) scale(0.72, 0.72)"/></g><g data-id="fstii39" data-class="stem" class="stem"><path d="M12930 1322 L12930 720" stroke-width="18"/></g></g><g data-id="fn5kg6" data-class="note" class="note"><g data-class="notehead" class="notehead"><use href="#E0A4-zpjxgl1" transform="translate(13450, 1440) scale(0.72, 0.72)"/></g><g data-id="g1f03ec5" data-class="stem" class="stem"><path d="M13667 1412 L13667 810" stroke-width="18"/><g data-id="h7bthj" data-class="flag" class="flag"><use href="#E240-zpjxgl1" transform="translate(13658, 810) scale(0.72, 0.72)"/></g></g></g></g></g><g data-id="b1w2wgc9" data-class="barLine" class="barLine"><path d="M13989 540 L13989 1260" stroke-width="27"/></g></g></g></g></svg></svg>