<svg viewBox="0 0 560 84" version="1.1" xmlns="http://www.w3.org/2000/svg" xmlns:xlink="http://www.w3.org/1999/xlink" overflow="visible" id="i1xtyjs1"><desc>Engraved by Verovio 5.6.0-85e7620</desc><defs><g id="E062-i1xtyjs1"><path transform="scale(1,-1)" d="M582 -120c0 32 26 58 58 58s58 -26 58 -58s-26 -58 -58 -58s-58 26 -58 58zM582 120c0 32 26 58 58 58s58 -26 58 -58s-26 -58 -58 -58s-58 26 -58 58zM158 96c51 0 73 -14 88 -49l16 -39c0 -17 -2 -30 -7 -40c-3 -11 -10 -21 -19 -31c-17 -18 -49 -43 -84 -43 c-55 0 -77 13 -112 44c-24 21 -35 55 -35 100c0 46 14 81 32 112c30 52 71 79 137 93l36 6l26 2c154 0 235 -68 274 -182c11 -32 18 -68 18 -107c0 -103 -26 -182 -68 -250c-89 -145 -234 -230 -412 -288l-30 -5c-9 0 -14 3 -14 8c3 10 5 11 10 16c35 15 70 30 96 44l78 43 c96 57 162 136 197 258c9 33 17 60 22 100c3 22 5 35 6 39c-7 69 -16 115 -23 140s-4 22 -16 40c-8 12 -19 23 -31 34c-24 21 -62 44 -118 44c-48 0 -84 -8 -113 -28c-28 -19 -42 -44 -42 -73v-16c2 -5 3 -9 4 -11c24 22 52 39 84 39z"/></g><g id="E260-i1xtyjs1"><path transform="scale(1,-1)" d="M20 110c32 16 54 27 93 27c26 0 35 -3 54 -13c13 -7 24 -20 27 -38l4 -25c0 -28 -16 -57 -45 -89c-23 -25 -39 -44 -65 -68l-88 -79v644h20v-359zM90 106c-32 0 -48 -10 -70 -29v-194c31 31 54 59 71 84c21 32 32 59 32 84c0 9 1 16 1 20c0 14 -3 21 -11 30l-8 3z"/></g><g id="E086-i1xtyjs1"><path transform="scale(1,-1)" d="M284 -91c0 37 -28 92 -67 92c-35 0 -65 -54 -65 -111c0 -52 22 -104 68 -104c47 0 64 68 64 123zM230 214c-36 0 -90 -33 -90 -184l2 -36c40 24 81 36 120 36c80 0 140 -48 140 -121c0 -99 -99 -159 -182 -159c-160 0 -200 173 -200 244c0 21 2 43 7 71l10 35 c26 85 73 115 98 126c41 19 74 24 103 24c93 0 142 -63 142 -105c0 -58 -52 -72 -73 -72c-33 0 -59 24 -65 35c-3 5 -6 14 -7 25l11 30c6 15 9 27 9 35c0 11 -9 16 -25 16z"/></g><g id="E088-i1xtyjs1"><path transform="scale(1,-1)" d="M195 -214c76 0 88 58 90 68c0 34 -35 60 -57 73l-52 29c-21 10 -32 17 -34 20c-39 -33 -58 -54 -62 -92c5 -23 23 -98 115 -98zM301 135c0 61 -72 76 -113 76c-40 0 -77 -17 -77 -51c3 -21 15 -38 26 -50c17 -15 33 -26 48 -34l65 -28c34 27 51 56 51 87zM176 -250 c-57 0 -166 26 -166 132c0 47 30 86 89 116c-33 15 -79 60 -79 119c0 79 85 132 178 132h18c5 0 21 1 28 -1c25 0 126 -30 126 -110c0 -37 -23 -76 -69 -116c43 -25 83 -71 83 -119c0 -101 -118 -153 -208 -153z"/></g><g id="E4E7-i1xtyjs1"><path transform="scale(1,-1)" d="M133 -111c0 -33 -21 -50 -52 -55c10 -3 18 -4 25 -4c40 0 69 24 90 47l66 197c-36 -18 -64 -25 -112 -25c-23 0 -38 3 -45 8c-37 7 -55 27 -55 59c8 35 30 54 68 58c45 -6 49 -13 64 -48c0 -3 1 -5 1 -7c0 -27 -25 -46 -52 -49c6 -4 15 -6 26 -6c32 2 62 14 88 29 c32 19 44 36 59 71l7 1l10 2h4c-72 -220 -143 -439 -215 -659h-37l108 324c-20 -13 -51 -20 -82 -20c-21 0 -35 4 -43 10c-37 6 -55 26 -55 58c8 35 31 56 68 60c43 -8 48 -13 64 -51z"/></g><g id="E0A4-i1xtyjs1"><path transform="scale(1,-1)" d="M0 -39c0 68 73 172 200 172c66 0 114 -37 114 -95c0 -84 -106 -171 -218 -171c-64 0 -96 30 -96 94z"/></g></defs><style type="text/css">#i1xtyjs1 g.page-margin {font-family:Times,serif;}#i1xtyjs1 g.ending, #i1xtyjs1 g.fing, #i1xtyjs1 g.reh, #i1xtyjs1 g.tempo {font-weight:bold;}#i1xtyjs1 g.dir, #i1xtyjs1 g.dynam, #i1xtyjs1 g.mNum {font-style:italic;}#i1xtyjs1 g.label {font-weight:normal;}#i1xtyjs1 path {stroke:currentColor}</style><svg class="definition-scale" color="black" viewBox="0 0 14000 2100"><g class="page-margin" transform="translate(0, 150)"><g data-id="i1r85ooc" data-class="mdiv" class="mdiv pageMilestone"/><g data-id="j5qecvc" data-class="score" class="score pageMilestone"/><g data-id="f14k3p00" data-class="system" class="system"><g data-id="l1avscmn" data-class="section" class="section systemMilestone"/><g data-id="j159xsmn" data-class="measure" class="measure"><g data-id="x17xxgsx" data-class="staff" class="staff"><path d="M0 540 L5446 540" stroke-width="13"/><path d="M0 720 L5446 720" stroke-width="13"/><path d="M0 900 L5446 900" stroke-width="13"/><path d="M0 1080 L5446 1080" stroke-width="13"/><path d="M0 1260 L5446 1260" stroke-width="13"/><g data-id="l15pby1s" data-class="clef" class="clef"><use href="#E062-i1xtyjs1" transform="translate(88, 720) scale(0.72, 0.72)"/></g><g data-id="m1nep3s" data-class="keySig" class="keySig"><g data-id="n1ajvv85" data-class="keyAccid" class="keyAccid"><use href="#E260-i1xtyjs1" transform="translate(769, 1080) scale(0.72, 0.72)"/></g><g data-id="o1sj4g6v" data-class="keyAccid" class="keyAccid"><use href="#E260-i1xtyjs1" transform="translate(949, 810) scale(0.72, 0.72)"/></g></g><g data-id="p63in4n" data-class="meterSig" class="meterSig"><use href="#E086-i1xtyjs1" transform="translate(1257, 720) scale(0.72, 0.72)"/><use href="#E088-i1xtyjs1" transform="translate(1264, 1080) scale(0.72, 0.72)"/></g><g data-class="ledgerLines" class="ledgerLines above"><g data-class="lineDash" class="lineDash" data-related="#gr5limx"><path d="M3039 360 L3361 360" stroke-width="22"/></g><g data-class="lineDash" class="lineDash" data-related="#m1v6fnck"><path d="M4935 360 L5257 360" stroke-width="22"/></g></g><g data-id="y5wn66g" data-class="layer" class="layer"><g data-id="bg8i9yc" data-class="rest" class="rest"><use href="#E4E7-i1xtyjs1" transform="translate(1816, 900) scale(0.72, 0.72)"/></g><g data-id="x9h780q" data-class="beam" class="beam"><polygon stroke-opacity="1" fill-opacity="1" points="2139,1530 3421,1170 3421,1080 2139,1440"/><polygon stroke-opacity="1" fill-opacity="1" points="2139,1395 2464,1305 2464,1215 2139,1305"/><polygon stroke-opacity="1" fill-opacity="1" points="2464,1305 2780,1215 2780,1125 2464,1215"/><polygon stroke-opacity="1" fill-opacity="1" points="2780,1215 3096,1125 3096,1035 2780,1125"/><polygon stroke-opacity="1" fill-opacity="1" points="3096,1125 3421,1035 3421,945 3096,1035"/><g data-id="d2ydggr" data-class="note" class="note"><g data-class="notehead" class="notehead"><use href="#E0A4-i1xtyjs1" transform="translate(2139, 900) scale(0.72, 0.72)"/></g><g data-id="n2lrd2y" data-class="stem" class="stem"><path d="M2148 928 L2148 1512" stroke-width="18"/></g></g><g data-id="e1k7i0tq" data-class="note" class="note"><g data-class="notehead" class="notehead"><use href="#E0A4-i1xtyjs1" transform="translate(2455, 630) scale(0.72, 0.72)"/></g><g data-id="o1ogyk9y" data-class="stem" class="stem"><path d="M2464 658 L2464 1422" stroke-width="18"/></g></g><g data-id="f1qdh3ee" data-class="note" class="note"><g data-class="notehead" class="notehead"><use href="#E0A4-i1xtyjs1" transform="translate(2771, 450) scale(0.72, 0.72)"/></g><g data-id="pjnm99u" data-class="stem" class="stem"><path d="M2780 478 L2780 1332" stroke-width="18"/></g><g data-id="b1wh8000" data-class="accid" class="accid"/></g><g data-id="gr5limx" data-class="note" class="note"><g data-class="notehead" class="notehead"><use href="#E0A4-i1xtyjs1" transform="translate(3087, 270) scale(0.72, 0.72)"/></g><g data-id="q13ckh" data-class="stem" class="stem"><path d="M3096 298 L3096 1242" stroke-width="18"/></g></g><g data-id="h1qw9ley" data-class="note" class="note"><g data-class="notehead" class="notehead"><use href="#E0A4-i1xtyjs1" transform="translate(3403, 450) scale(0.72, 0.72)"/></g><g data-id="reokrkp" data-class="stem" class="stem"><path d="M3412 478 L3412 1152" stroke-width="18"/></g><g data-id="c1cdig0y" data-class="accid" class="accid"/></g></g><g data-id="y1aet5v5" data-class="beam" class="beam"><polygon stroke-opacity="1" fill-opacity="1" points="3719,1485 5001,1485 5001,1395 3719,1395"/><polygon stroke-opacity="1" fill-opacity="1" points="3719,1350 4044,1350 4044,1260 3719,1260"/><polygon stroke-opacity="1" fill-opacity="1" points="4044,1350 4360,1350 4360,1260 4044,1260"/><polygon stroke-opacity="1" fill-opacity="1" points="4360,1350 4676,1350 4676,1260 4360,1260"/><g data-id="i13wo2ty" data-class="note" class="note"><g data-class="notehead" class="notehead"><use href="#E0A4-i1xtyjs1" transform="translate(3719, 630) scale(0.72, 0.72)"/></g><g data-id="swb1kgw" data-class="stem" class="stem"><path d="M3728 658 L3728 1467" stroke-width="18"/></g></g><g data-id="j18ghcsj" data-class="note" class="note"><g data-class="notehead" class="notehead"><use href="#E0A4-i1xtyjs1" transform="translate(4035, 900) scale(0.72, 0.72)"/></g><g data-id="ts71r4z" data-class="stem" class="stem"><path d="M4044 928 L4044 1467" stroke-width="18"/></g></g><g data-id="k10x9ihh" data-class="note" class="note"><g data-class="notehead" class="notehead"><use href="#E0A4-i1xtyjs1" transform="translate(4351, 630) scale(0.72, 0.72)"/></g><g data-id="u1aztfmt" data-class="stem" class="stem"><path d="M4360 658 L4360 1467" stroke-width="18"/></g></g><g data-id="l4yzmud" data-class="note" class="note"><g data-class="notehead" class="notehead"><use href="#E0A4-i1xtyjs1" transform="translate(4667, 450) scale(0.72, 0.72)"/></g><g data-id="v1q79t4f" data-class="stem" class="stem"><path d="M4676 478 L4676 1467" stroke-width="18"/></g><g data-id="d1sil0mz" data-class="accid" class="accid"/></g><g data-id="m1v6fnck" data-class="note" class="note"><g data-class="notehead" class="notehead"><use href="#E0A4-i1xtyjs1" transform="translate(4983, 270) scale(0.72, 0.72)"/></g><g data-id="wi1l646" data-class="stem" class="stem"><path d="M4992 298 L4992 1467" stroke-width="18"/></g></g></g></g></g><g data-id="r19w43bn" data-class="barLine" class="barLine"><path d="M5433 540 L5433 1260" stroke-width="27"/></g></g><g data-id="s1hps8hk" data-class="measure" class="measure"><g data-id="z18lzrbc" data-class="staff" class="staff"><path d="M5446 540 L9256 540" stroke-width="13"/><path d="M5446 720 L9256 720" stroke-width="13"/><path d="M5446 900 L9256 900" stroke-width="13"/><path d="M5446 1080 L9256 1080" stroke-width="13"/><path d="M5446 1260 L9256 1260" stroke-width="13"/><g data-class="ledgerLines" class="ledgerLines above"><g data-class="lineDash" class="lineDash" data-related="#q1wjrfg7"><path d="M6849 360 L7171 360" stroke-width="22"/></g><g data-class="lineDash" class="lineDash" data-related="#wyko50u"><path d="M8745 360 L9067 360" stroke-width="22"/></g></g><g data-id="a1hqx3el" data-class="layer" class="layer"><g data-id="cz1c155" data-class="rest" class="rest"><use href="#E4E7-i1xtyjs1" transform="translate(5626, 900) scale(0.72, 0.72)"/></g><g data-id="z10a6iqg" data-class="beam" class="beam"><polygon stroke-opacity="1" fill-opacity="1" points="5949,1530 7231,1170 7231,1080 5949,1440"/><polygon stroke-opacity="1" fill-opacity="1" points="5949,1395 6274,1305 6274,1215 5949,1305"/><polygon stroke-opacity="1" fill-opacity="1" points="6274,1305 6590,1215 6590,1125 6274,1215"/><polygon stroke-opacity="1" fill-opacity="1" points="6590,1215 6906,1125 6906,1035 6590,1125"/><polygon stroke-opacity="1" fill-opacity="1" points="6906,1125 7231,1035 7231,945 6906,1035"/><g data-id="nn9x03a" data-class="note" class="note"><g data-class="notehead" class="notehead"><use href="#E0A4-i1xtyjs1" transform="translate(5949, 900) scale(0.72, 0.72)"/></g><g data-id="x1dy5uaq" data-class="stem" class="stem"><path d="M5958 928 L5958 1512" stroke-width="18"/></g></g><g data-id="othq9d8" data-class="note" class="note"><g data-class="notehead" class="notehead"><use href="#E0A4-i1xtyjs1" transform="translate(6265, 630) scale(0.72, 0.72)"/></g><g data-id="y13xxfhg" data-class="stem" class="stem"><path d="M6274 658 L6274 1422" stroke-width="18"/></g></g><g data-id="p10xddfj" data-class="note" class="note"><g data-class="notehead" class="notehead"><use href="#E0A4-i1xtyjs1" transform="translate(6581, 450) scale(0.72, 0.72)"/></g><g data-id="zbrd4am" data-class="stem" class="stem"><path d="M6590 478 L6590 1332" stroke-width="18"/></g><g data-id="e1lk6ncn" data-class="accid" class="accid"/></g><g data-id="q1wjrfg7" data-class="note" class="note"><g data-class="notehead" class="notehead"><use href="#E0A4-i1xtyjs1" transform="translate(6897, 270) scale(0.72, 0.72)"/></g><g data-id="a1h8hykj" data-class="stem" class="stem"><path d="M6906 298 L6906 1242" stroke-width="18"/></g></g><g data-id="rxno9t3" data-class="note" class="note"><g data-class="notehead" class="notehead"><use href="#E0A4-i1xtyjs1" transform="translate(7213, 450) scale(0.72, 0.72)"/></g><g data-id="b1q0bu9m" data-class="stem" class="stem"><path d="M7222 478 L7222 1152" stroke-width="18"/></g><g data-id="f9pxjus" data-class="accid" class="accid"/></g></g><g data-id="a1hfjgie" data-class="beam" class="beam"><polygon stroke-opacity="1" fill-opacity="1" points="7529,1485 8811,1485 8811,1395 7529,1395"/><polygon stroke-opacity="1" fill-opacity="1" points="7529,1350 7854,1350 7854,1260 7529,1260"/><polygon stroke-opacity="1" fill-opacity="1" points="7854,1350 8170,1350 8170,1260 7854,1260"/><polygon stroke-opacity="1" fill-opacity="1" points="8170,1350 8486,1350 8486,1260 8170,1260"/><g data-id="s1bbw1nt" data-class="note" class="note"><g data-class="notehead" class="notehead"><use href="#E0A4-i1xtyjs1" transform="translate(7529, 630) scale(0.72, 0.72)"/></g><g data-id="c1e5ng1x" data-class="stem" class="stem"><path d="M7538 658 L7538 1467" stroke-width="18"/></g></g><g data-id="t1ej72q3" data-class="note" class="note"><g data-class="notehead" class="notehead"><use href="#E0A4-i1xtyjs1" transform="translate(7845, 900) scale(0.72, 0.72)"/></g><g data-id="d13ciqa5" data-class="stem" class="stem"><path d="M7854 928 L7854 1467" stroke-width="18"/></g></g><g data-id="u17e6puh" data-class="note" class="note"><g data-class="notehead" class="notehead"><use href="#E0A4-i1xtyjs1" transform="translate(8161, 630) scale(0.72, 0.72)"/></g><g data-id="eyu0f3j" data-class="stem" class="stem"><path d="M8170 658 L8170 1467" stroke-width="18"/></g></g><g data-id="vbc41py" data-class="note" class="note"><g data-class="notehead" class="notehead"><use href="#E0A4-i1xtyjs1" transform="translate(8477, 450) scale(0.72, 0.72)"/></g><g data-id="f1k38yl0" data-class="stem" class="stem"><path d="M8486 478 L8486 1467" stroke-width="18"/></g><g data-id="gh928su" data-class="accid" class="accid"/></g><g data-id="wyko50u" data-class="note" class="note"><g data-class="notehead" class="notehead"><use href="#E0A4-i1xtyjs1" transform="translate(8793, 270) scale(0.72, 0.72)"/></g><g data-id="g1k8tur6" data-class="stem" class="stem"><path d="M8802 298 L8802 1467" stroke-width="18"/></g></g></g></g></g><g data-id="a9fsxob" data-class="barLine" class="barLine"><path d="M9243 540 L9243 1260" stroke-width="27"/></g></g><g data-id="i15cbc4o" data-class="systemMilestoneEnd" class="systemMilestoneEnd l1avscmn"/></g><g data-id="j1b3u3ek" data-class="pageMilestoneEnd" class="pageMilestoneEnd j5qecvc"/><g data-id="kmnzok" data-class="pageMilestoneEnd" class="pageMilestoneEnd i1r85ooc"/></g></svg></svg>