<svg viewBox="0 0 560 84" version="1.1" xmlns="http://www.w3.org/2000/svg" xmlns:xlink="http://www.w3.org/1999/xlink" overflow="visible" id="f1lvdiiw"><desc>Engraved by Verovio 5.6.0-85e7620</desc><defs><g id="E050-f1lvdiiw"><path transform="scale(1,-1)" d="M441 -245c-23 -4 -48 -6 -76 -6c-59 0 -102 7 -130 20c-88 42 -150 93 -187 154c-26 44 -43 103 -48 176c0 6 -1 13 -1 19c0 54 15 111 45 170c29 57 65 106 110 148s96 85 153 127c-3 16 -8 46 -13 92c-4 43 -5 73 -5 89c0 117 16 172 69 257c34 54 64 82 89 82 c21 0 43 -30 69 -92s39 -115 41 -159v-15c0 -109 -21 -162 -67 -241c-13 -20 -63 -90 -98 -118c-13 -9 -25 -19 -37 -29l31 -181c8 1 18 2 28 2c58 0 102 -12 133 -35c59 -43 92 -104 98 -184c1 -7 1 -15 1 -22c0 -123 -87 -209 -181 -248c8 -57 17 -110 25 -162 c5 -31 6 -58 6 -80c0 -30 -5 -53 -14 -70c-35 -64 -88 -99 -158 -103c-5 0 -11 -1 -16 -1c-37 0 -72 10 -108 27c-50 24 -77 59 -80 105v11c0 29 7 55 20 76c18 28 45 42 79 44h6c49 0 93 -42 97 -87v-9c0 -51 -34 -86 -105 -106c17 -24 51 -36 102 -36c62 0 116 43 140 85 c9 16 13 41 13 74c0 20 -1 42 -5 67c-8 53 -18 106 -26 159zM461 939c-95 0 -135 -175 -135 -286c0 -24 2 -48 5 -71c50 39 92 82 127 128c40 53 60 100 60 140v8c-4 53 -22 81 -55 81h-2zM406 119l54 -326c73 25 110 78 110 161c0 7 0 15 -1 23c-7 95 -57 142 -151 142h-12 zM382 117c-72 -2 -128 -47 -128 -120v-7c2 -46 43 -99 75 -115c-3 -2 -7 -5 -10 -10c-70 33 -116 88 -123 172v11c0 68 44 126 88 159c23 17 49 29 78 36l-29 170c-21 -13 -52 -37 -92 -73c-50 -44 -86 -84 -109 -119c-45 -69 -67 -130 -67 -182v-13c5 -68 35 -127 93 -176 s125 -73 203 -73c25 0 50 3 75 9c-19 111 -36 221 -54 331z"/></g><g id="E262-f1lvdiiw"><path transform="scale(1,-1)" d="M136 186v169h17v-164l44 14v-91l-44 -14v-165l44 12v-91l-44 -13v-155h-17v150l-76 -22v-155h-17v149l-43 -13v90l43 14v167l-43 -14v92l43 13v169h17v-163zM60 73v-167l76 22v168z"/></g><g id="E08A-f1lvdiiw"><path transform="scale(1,-1)" d="M340 179c-9 24 -56 41 -89 41c-46 0 -81 -28 -100 -58c-17 -28 -25 -78 -25 -150c0 -65 2 -111 8 -135c8 -31 18 -49 40 -67c20 -17 43 -25 70 -25c54 0 92 36 115 75c14 25 23 54 28 88h27c0 -63 -24 -105 -58 -141c-35 -38 -82 -56 -140 -56c-45 0 -83 13 -115 39 c-57 45 -101 130 -101 226c0 59 33 127 68 163c36 37 97 72 160 72c36 0 93 -21 121 -40c11 -8 23 -17 33 -30c19 -23 27 -48 27 -76c0 -51 -35 -88 -86 -88c-43 0 -76 27 -76 68c0 26 7 35 21 51c15 17 32 27 58 32c7 2 14 7 14 11z"/></g><g id="E0A4-f1lvdiiw"><path transform="scale(1,-1)" d="M0 -39c0 68 73 172 200 172c66 0 114 -37 114 -95c0 -84 -106 -171 -218 -171c-64 0 -96 30 -96 94z"/></g><g id="E4E6-f1lvdiiw"><path transform="scale(1,-1)" d="M0 123c7 34 33 56 69 60c29 -3 43 -9 53 -29c4 -8 7 -15 10 -22c0 -21 -1 -25 -11 -35c-5 -8 -18 -14 -40 -20l12 -3l15 -1c44 0 97 26 122 56c10 11 18 26 24 42c7 1 15 2 22 3l-140 -424h-36l111 330c-10 -6 -27 -12 -53 -16l-52 -8h-10l-20 1c-1 0 -8 3 -21 6 c-37 9 -55 28 -55 60z"/></g></defs><style type="text/css">#f1lvdiiw g.page-margin {font-family:Times,serif;}#f1lvdiiw g.ending, #f1lvdiiw g.fing, #f1lvdiiw g.reh, #f1lvdiiw g.tempo {font-weight:bold;}#f1lvdiiw g.dir, #f1lvdiiw g.dynam, #f1lvdiiw g.mNum {font-style:italic;}#f1lvdiiw g.label {font-weight:normal;}#f1lvdiiw path {stroke:currentColor}</style><svg class="definition-scale" color="black" viewBox="0 0 14000 2100"><g class="page-margin" transform="translate(0, 150)"><g data-id="mnxc4qf" data-class="mdiv" class="mdiv pageMilestone"/><g data-id="n1rgyw7c" data-class="score" class="score pageMilestone"/><g data-id="n1udi6g0" data-class="system" class="system"><g data-id="p17u4146" data-class="section" class="section systemMilestone"/><g data-id="g1u2ambt" data-class="measure" class="measure"><g data-id="b1cnaira" data-class="staff" class="staff"><path d="M0 540 L3017 540" stroke-width="13"/><path d="M0 720 L3017 720" stroke-width="13"/><path d="M0 900 L3017 900" stroke-width="13"/><path d="M0 1080 L3017 1080" stroke-width="13"/><path d="M0 1260 L3017 1260" stroke-width="13"/><g data-id="u2x1tqq" data-class="clef" class="clef"><use href="#E050-f1lvdiiw" transform="translate(90, 1080) scale(0.72, 0.72)"/></g><g data-id="v1aatdpq" data-class="keySig" class="keySig"><g data-id="wjk90b7" data-class="keyAccid" class="keyAccid"><use href="#E262-f1lvdiiw" transform="translate(735, 540) scale(0.72, 0.72)"/></g></g><g data-id="x1qu8y9h" data-class="meterSig" class="meterSig"><use href="#E08A-f1lvdiiw" transform="translate(1056, 900) scale(0.72, 0.72)"/></g><g data-id="cgyie8s" data-class="layer" class="layer"><g data-id="z8nxu5v" data-class="note" class="note"><g data-class="notehead" class="notehead"><use href="#E0A4-f1lvdiiw" transform="translate(1624, 720) scale(0.72, 0.72)"/></g><g data-id="q14v6dpc" data-class="stem" class="stem"><path d="M1633 748 L1633 1350" stroke-width="18"/></g></g><g data-id="a1mt694i" data-class="note" class="note"><g data-class="notehead" class="notehead"><use href="#E0A4-f1lvdiiw" transform="translate(2314, 990) scale(0.72, 0.72)"/></g><g data-id="rt7k6vl" data-class="stem" class="stem"><path d="M2531 962 L2531 360" stroke-width="18"/></g></g></g></g><g data-id="o1bll5wk" data-class="barLine" class="barLine"><path d="M3004 540 L3004 1260" stroke-width="27"/></g></g><g data-id="p1lkhqpf" data-class="measure" class="measure"><g data-id="d1uavqa2" data-class="staff" class="staff"><path d="M3017 540 L6840 540" stroke-width="13"/><path d="M3017 720 L6840 720" stroke-width="13"/><path d="M3017 900 L6840 900" stroke-width="13"/><path d="M3017 1080 L6840 1080" stroke-width="13"/><path d="M3017 1260 L6840 1260" stroke-width="13"/><g data-id="e10mtdys" data-class="layer" class="layer"><g data-id="y1mnd9kn" data-class="rest" class="rest"><use href="#E4E6-f1lvdiiw" transform="translate(3197, 900) scale(0.72, 0.72)"/></g><g data-id="jwycnhr" data-class="beam" class="beam"><polygon stroke-opacity="1" fill-opacity="1" points="3855,405 4773,315 4773,405 3855,495"/><g data-id="b19pcvwo" data-class="note" class="note"><g data-class="notehead" class="notehead"><use href="#E0A4-f1lvdiiw" transform="translate(3647, 990) scale(0.72, 0.72)"/></g><g data-id="s6lw45k" data-class="stem" class="stem"><path d="M3864 962 L3864 423" stroke-width="18"/></g></g><g data-id="cam9olm" data-class="note" class="note"><g data-class="notehead" class="notehead"><use href="#E0A4-f1lvdiiw" transform="translate(4097, 990) scale(0.72, 0.72)"/></g><g data-id="t17hgpz" data-class="stem" class="stem"><path d="M4314 962 L4314 378" stroke-width="18"/></g></g><g data-id="d1hhq5my" data-class="note" class="note"><g data-class="notehead" class="notehead"><use href="#E0A4-f1lvdiiw" transform="translate(4547, 900) scale(0.72, 0.72)"/></g><g data-id="u18sm5uc" data-class="stem" class="stem"><path d="M4764 872 L4764 333" stroke-width="18"/></g></g></g><g data-id="k1uptyy8" data-class="beam" class="beam"><polygon stroke-opacity="1" fill-opacity="1" points="4997,1440 6515,1620 6515,1530 4997,1350"/><polygon stroke-opacity="1" fill-opacity="1" points="6289,1460 6515,1485 6515,1395 6289,1370"/><g data-id="e1ldj4ge" data-class="note" class="note"><g data-class="notehead" class="notehead"><use href="#E0A4-f1lvdiiw" transform="translate(4997, 720) scale(0.72, 0.72)"/></g><g data-id="vvhns1d" data-class="stem" class="stem"><path d="M5006 748 L5006 1422" stroke-width="18"/></g></g><g data-id="fid4ewh" data-class="note" class="note"><g data-class="notehead" class="notehead"><use href="#E0A4-f1lvdiiw" transform="translate(5447, 810) scale(0.72, 0.72)"/></g><g data-id="w1wn6zth" data-class="stem" class="stem"><path d="M5456 838 L5456 1476" stroke-width="18"/></g></g><g data-id="gk9gk0f" data-class="note" class="note"><g data-class="notehead" class="notehead"><use href="#E0A4-f1lvdiiw" transform="translate(5897, 900) scale(0.72, 0.72)"/></g><g data-id="yd55rc3" data-class="dots" class="dots"><ellipse cx="6213" cy="810" rx="36" ry="36" fill-opacity="1" stroke-opacity="1"/></g><g data-id="x1ode6wf" data-class="stem" class="stem"><path d="M5906 928 L5906 1530" stroke-width="18"/></g></g><g data-id="h1jha3qg" data-class="note" class="note"><g data-class="notehead" class="notehead"><use href="#E0A4-f1lvdiiw" transform="translate(6497, 990) scale(0.72, 0.72)"/></g><g data-id="z1dcjke" data-class="stem" class="stem"><path d="M6506 1018 L6506 1602" stroke-width="18"/></g><g data-id="i1g3eumj" data-class="accid" class="accid"><use href="#E262-f1lvdiiw" transform="translate(6311, 990) scale(0.72, 0.72)"/></g></g></g></g></g><g data-id="xtzocrh" data-class="barLine" class="barLine"><path d="M6827 540 L6827 1260" stroke-width="27"/></g></g><g data-id="m1prc4i9" data-class="systemMilestoneEnd" class="systemMilestoneEnd p17u4146"/></g><g data-id="n14ed56h" data-class="pageMilestoneEnd" class="pageMilestoneEnd n1rgyw7c"/><g data-id="obqt4x7" data-class="pageMilestoneEnd" class="pageMilestoneEnd mnxc4qf"/></g></svg></svg>