<svg viewBox="0 0 560 84" version="1.1" xmlns="http://www.w3.org/2000/svg" xmlns:xlink="http://www.w3.org/1999/xlink" overflow="visible" id="c92muu6"><desc>Engraved by Verovio 5.6.0-85e7620</desc><defs><g id="E050-c92muu6"><path transform="scale(1,-1)" d="M441 -245c-23 -4 -48 -6 -76 -6c-59 0 -102 7 -130 20c-88 42 -150 93 -187 154c-26 44 -43 103 -48 176c0 6 -1 13 -1 19c0 54 15 111 45 170c29 57 65 106 110 148s96 85 153 127c-3 16 -8 46 -13 92c-4 43 -5 73 -5 89c0 117 16 172 69 257c34 54 64 82 89 82 c21 0 43 -30 69 -92s39 -115 41 -159v-15c0 -109 -21 -162 -67 -241c-13 -20 -63 -90 -98 -118c-13 -9 -25 -19 -37 -29l31 -181c8 1 18 2 28 2c58 0 102 -12 133 -35c59 -43 92 -104 98 -184c1 -7 1 -15 1 -22c0 -123 -87 -209 -181 -248c8 -57 17 -110 25 -162 c5 -31 6 -58 6 -80c0 -30 -5 -53 -14 -70c-35 -64 -88 -99 -158 -103c-5 0 -11 -1 -16 -1c-37 0 -72 10 -108 27c-50 24 -77 59 -80 105v11c0 29 7 55 20 76c18 28 45 42 79 44h6c49 0 93 -42 97 -87v-9c0 -51 -34 -86 -105 -106c17 -24 51 -36 102 -36c62 0 116 43 140 85 c9 16 13 41 13 74c0 20 -1 42 -5 67c-8 53 -18 106 -26 159zM461 939c-95 0 -135 -175 -135 -286c0 -24 2 -48 5 -71c50 39 92 82 127 128c40 53 60 100 60 140v8c-4 53 -22 81 -55 81h-2zM406 119l54 -326c73 25 110 78 110 161c0 7 0 15 -1 23c-7 95 -57 142 -151 142h-12 zM382 117c-72 -2 -128 -47 -128 -120v-7c2 -46 43 -99 75 -115c-3 -2 -7 -5 -10 -10c-70 33 -116 88 -123 172v11c0 68 44 126 88 159c23 17 49 29 78 36l-29 170c-21 -13 -52 -37 -92 -73c-50 -44 -86 -84 -109 -119c-45 -69 -67 -130 -67 -182v-13c5 -68 35 -127 93 -176 s125 -73 203 -73c25 0 50 3 75 9c-19 111 -36 221 -54 331z"/></g><g id="E262-c92muu6"><path transform="scale(1,-1)" d="M136 186v169h17v-164l44 14v-91l-44 -14v-165l44 12v-91l-44 -13v-155h-17v150l-76 -22v-155h-17v149l-43 -13v90l43 14v167l-43 -14v92l43 13v169h17v-163zM60 73v-167l76 22v168z"/></g><g id="E081-c92muu6"><path transform="scale(1,-1)" d="M68 -250v36c23 0 40 6 49 18c8 14 12 33 12 57v250l-82 -129l-27 13l107 255h128v-394c0 -24 5 -42 14 -53s25 -17 47 -17v-36h-248z"/></g><g id="E082-c92muu6"><path transform="scale(1,-1)" d="M124 -185c-18 0 -55 -14 -65 -65h-36l-3 30c0 25 6 45 18 63c11 19 22 30 39 43l121 82l37 29c15 11 27 29 38 54c12 24 18 47 18 70c0 40 -19 88 -94 88c-25 0 -32 0 -50 -8c-14 -5 -23 -12 -26 -22c3 -9 7 -15 10 -18l24 -17c12 -7 17 -11 27 -21c5 -7 7 -16 7 -27 c0 -12 0 -57 -79 -74c-30 0 -76 26 -76 94c0 66 81 135 197 135c72 0 181 -32 181 -150c0 -53 -32 -95 -113 -133l-91 -41c-26 -11 -45 -23 -57 -37l49 7c84 0 115 -41 148 -41c20 0 33 20 39 61h35c0 -152 -68 -168 -114 -168c-17 0 -65 0 -79 7h10l-28 17 c-49 37 -69 40 -87 42z"/></g><g id="E086-c92muu6"><path transform="scale(1,-1)" d="M284 -91c0 37 -28 92 -67 92c-35 0 -65 -54 -65 -111c0 -52 22 -104 68 -104c47 0 64 68 64 123zM230 214c-36 0 -90 -33 -90 -184l2 -36c40 24 81 36 120 36c80 0 140 -48 140 -121c0 -99 -99 -159 -182 -159c-160 0 -200 173 -200 244c0 21 2 43 7 71l10 35 c26 85 73 115 98 126c41 19 74 24 103 24c93 0 142 -63 142 -105c0 -58 -52 -72 -73 -72c-33 0 -59 24 -65 35c-3 5 -6 14 -7 25l11 30c6 15 9 27 9 35c0 11 -9 16 -25 16z"/></g><g id="E4E7-c92muu6"><path transform="scale(1,-1)" d="M133 -111c0 -33 -21 -50 -52 -55c10 -3 18 -4 25 -4c40 0 69 24 90 47l66 197c-36 -18 -64 -25 -112 -25c-23 0 -38 3 -45 8c-37 7 -55 27 -55 59c8 35 30 54 68 58c45 -6 49 -13 64 -48c0 -3 1 -5 1 -7c0 -27 -25 -46 -52 -49c6 -4 15 -6 26 -6c32 2 62 14 88 29 c32 19 44 36 59 71l7 1l10 2h4c-72 -220 -143 -439 -215 -659h-37l108 324c-20 -13 -51 -20 -82 -20c-21 0 -35 4 -43 10c-37 6 -55 26 -55 58c8 35 31 56 68 60c43 -8 48 -13 64 -51z"/></g><g id="E0A4-c92muu6"><path transform="scale(1,-1)" d="M0 -39c0 68 73 172 200 172c66 0 114 -37 114 -95c0 -84 -106 -171 -218 -171c-64 0 -96 30 -96 94z"/></g><g id="E243-c92muu6"><path transform="scale(1,-1)" d="M216 730c-5 8 -10 13 -11 16l-4 10c0 3 2 5 5 5s7 -2 13 -7c35 -42 57 -101 57 -172c0 -34 -6 -65 -17 -94c10 -31 17 -64 17 -96c0 -104 -60 -183 -122 -241c-63 -59 -57 -53 -61 -56c-38 -34 -63 -95 -71 -95h-22v190v190c40 7 69 11 87 16c116 36 175 111 175 197 c0 44 -15 91 -46 137zM248 463c-23 -48 -58 -89 -94 -122c-63 -59 -57 -53 -61 -56c-30 -27 -44 -71 -53 -88c20 3 36 6 47 9c88 27 168 95 168 200c0 19 -3 39 -7 57z"/></g></defs><style type="text/css">#c92muu6 g.page-margin {font-family:Times,serif;}#c92muu6 g.ending, #c92muu6 g.fing, #c92muu6 g.reh, #c92muu6 g.tempo {font-weight:bold;}#c92muu6 g.dir, #c92muu6 g.dynam, #c92muu6 g.mNum {font-style:italic;}#c92muu6 g.label {font-weight:normal;}#c92muu6 path {stroke:currentColor}</style><svg class="definition-scale" color="black" viewBox="0 0 14000 2100"><g class="page-margin" transform="translate(0, 150)"><g data-id="x1gc2om2" data-class="mdiv" class="mdiv pageMilestone"/><g data-id="y413yp8" data-class="score" class="score pageMilestone"/><g data-id="v1vmm1kw" data-class="system" class="system"><g data-id="ahfj0ww" data-class="section" class="section systemMilestone"/><g data-id="d1igu9o" data-class="measure" class="measure"><g data-id="m100i95c" data-class="staff" class="staff"><path d="M0 540 L4119 540" stroke-width="13"/><path d="M0 720 L4119 720" stroke-width="13"/><path d="M0 900 L4119 900" stroke-width="13"/><path d="M0 1080 L4119 1080" stroke-width="13"/><path d="M0 1260 L4119 1260" stroke-width="13"/><g data-id="a1eaou94" data-class="clef" class="clef"><use href="#E050-c92muu6" transform="translate(90, 1080) scale(0.72, 0.72)"/></g><g data-id="bmm2kke" data-class="keySig" class="keySig"><g data-id="cd3lj5b" data-class="keyAccid" class="keyAccid"><use href="#E262-c92muu6" transform="translate(735, 540) scale(0.72, 0.72)"/></g><g data-id="d1fmv176" data-class="keyAccid" class="keyAccid"><use href="#E262-c92muu6" transform="translate(913, 810) scale(0.72, 0.72)"/></g><g data-id="eydwihf" data-class="keyAccid" class="keyAccid"><use href="#E262-c92muu6" transform="translate(1091, 450) scale(0.72, 0.72)"/></g></g><g data-id="fc0ip4j" data-class="meterSig" class="meterSig"><use href="#E081-c92muu6" transform="translate(1398, 720) scale(0.72, 0.72)"/><use href="#E082-c92muu6" transform="translate(1639, 720) scale(0.72, 0.72)"/><use href="#E081-c92muu6" transform="translate(1405, 1080) scale(0.72, 0.72)"/><use href="#E086-c92muu6" transform="translate(1646, 1080) scale(0.72, 0.72)"/></g><g data-class="ledgerLines" class="ledgerLines below"><g data-class="lineDash" class="lineDash" data-related="#z1dl4yzk"><path d="M2464 1440 L2786 1440" stroke-width="22"/></g><g data-class="lineDash" class="lineDash" data-related="#dif9rfe"><path d="M3728 1440 L4050 1440" stroke-width="22"/></g></g><g data-id="ne34b8m" data-class="layer" class="layer"><g data-id="vjgftv6" data-class="rest" class="rest"><use href="#E4E7-c92muu6" transform="translate(2212, 900) scale(0.72, 0.72)"/></g><g data-id="nzvjc3p" data-class="beam" class="beam"><polygon stroke-opacity="1" fill-opacity="1" points="2720,360 4002,360 4002,450 2720,450"/><polygon stroke-opacity="1" fill-opacity="1" points="2720,495 3045,495 3045,585 2720,585"/><polygon stroke-opacity="1" fill-opacity="1" points="3045,495 3361,495 3361,585 3045,585"/><polygon stroke-opacity="1" fill-opacity="1" points="3361,495 3677,495 3677,585 3361,585"/><polygon stroke-opacity="1" fill-opacity="1" points="3677,495 4002,495 4002,585 3677,585"/><g data-id="z1dl4yzk" data-class="note" class="note"><g data-class="notehead" class="notehead"><use href="#E0A4-c92muu6" transform="translate(2512, 1440) scale(0.72, 0.72)"/></g><g data-id="d1jeawbz" data-class="stem" class="stem"><path d="M2729 1412 L2729 378" stroke-width="18"/></g><g data-id="q1llh292" data-class="accid" class="accid"/></g><g data-id="a1q1x5l8" data-class="note" class="note"><g data-class="notehead" class="notehead"><use href="#E0A4-c92muu6" transform="translate(2828, 1170) scale(0.72, 0.72)"/></g><g data-id="e13r0mz1" data-class="stem" class="stem"><path d="M3045 1142 L3045 378" stroke-width="18"/></g><g data-id="rjv5276" data-class="accid" class="accid"/></g><g data-id="b1wdeo3f" data-class="note" class="note"><g data-class="notehead" class="notehead"><use href="#E0A4-c92muu6" transform="translate(3144, 990) scale(0.72, 0.72)"/></g><g data-id="f1tgpdop" data-class="stem" class="stem"><path d="M3361 962 L3361 378" stroke-width="18"/></g></g><g data-id="c1sdml3t" data-class="note" class="note"><g data-class="notehead" class="notehead"><use href="#E0A4-c92muu6" transform="translate(3460, 1170) scale(0.72, 0.72)"/></g><g data-id="g1krluxa" data-class="stem" class="stem"><path d="M3677 1142 L3677 378" stroke-width="18"/></g><g data-id="s1n255yv" data-class="accid" class="accid"/></g><g data-id="dif9rfe" data-class="note" class="note"><g data-class="notehead" class="notehead"><use href="#E0A4-c92muu6" transform="translate(3776, 1440) scale(0.72, 0.72)"/></g><g data-id="hur5jh9" data-class="stem" class="stem"><path d="M3993 1412 L3993 378" stroke-width="18"/></g><g data-id="t1dix9fo" data-class="accid" class="accid"/></g></g></g></g><g data-id="l1tf0pei" data-class="barLine" class="barLine"><path d="M4106 540 L4106 1260" stroke-width="27"/></g></g><g data-id="m1thpjtx" data-class="measure" class="measure"><g data-id="odw92yo" data-class="staff" class="staff"><path d="M4119 540 L8100 540" stroke-width="13"/><path d="M4119 720 L8100 720" stroke-width="13"/><path d="M4119 900 L8100 900" stroke-width="13"/><path d="M4119 1080 L8100 1080" stroke-width="13"/><path d="M4119 1260 L8100 1260" stroke-width="13"/><g data-class="ledgerLines" class="ledgerLines below"><g data-class="lineDash" class="lineDash" data-related="#i1qb4wag"><path d="M6445 1440 L6767 1440" stroke-width="22"/></g><g data-class="lineDash" class="lineDash" data-related="#m1riwshg"><path d="M7709 1440 L8031 1440" stroke-width="22"/></g></g><g data-id="p1nvnoyr" data-class="layer" class="layer"><g data-id="o11slicg" data-class="beam" class="beam"><polygon stroke-opacity="1" fill-opacity="1" points="4507,450 5157,270 5157,360 4507,540"/><polygon stroke-opacity="1" fill-opacity="1" points="4507,585 4832,495 4832,585 4507,675"/><polygon stroke-opacity="1" fill-opacity="1" points="4832,495 5157,405 5157,495 4832,585"/><g data-id="e1rvy67v" data-class="note" class="note"><g data-class="notehead" class="notehead"><use href="#E0A4-c92muu6" transform="translate(4299, 1350) scale(0.72, 0.72)"/></g><g data-id="i33ymso" data-class="stem" class="stem"><path d="M4516 1322 L4516 468" stroke-width="18"/></g></g><g data-id="f1p2ibh7" data-class="note" class="note"><g data-class="notehead" class="notehead"><use href="#E0A4-c92muu6" transform="translate(4615, 1170) scale(0.72, 0.72)"/></g><g data-id="j1vf334" data-class="stem" class="stem"><path d="M4832 1142 L4832 378" stroke-width="18"/></g><g data-id="u7b5w2c" data-class="accid" class="accid"/></g><g data-id="gxyotfx" data-class="note" class="note"><g data-class="notehead" class="notehead"><use href="#E0A4-c92muu6" transform="translate(4931, 900) scale(0.72, 0.72)"/></g><g data-id="k1lfvagu" data-class="stem" class="stem"><path d="M5148 872 L5148 288" stroke-width="18"/></g></g></g><g data-id="hd9w2ll" data-class="note" class="note"><g data-class="notehead" class="notehead"><use href="#E0A4-c92muu6" transform="translate(5247, 720) scale(0.72, 0.72)"/></g><g data-id="l1meax08" data-class="stem" class="stem"><path d="M5256 748 L5256 1350" stroke-width="18"/><g data-id="mcjixbz" data-class="flag" class="flag"><use href="#E243-c92muu6" transform="translate(5247, 1350) scale(0.72, 0.72)"/></g></g></g><g data-id="w12cabwq" data-class="rest" class="rest"><use href="#E4E7-c92muu6" transform="translate(5547, 900) scale(0.72, 0.72)"/></g><g data-id="x1k9h2e" data-class="rest" class="rest"><use href="#E4E7-c92muu6" transform="translate(5870, 900) scale(0.72, 0.72)"/></g><g data-id="y8avelv" data-class="rest" class="rest"><use href="#E4E7-c92muu6" transform="translate(6193, 900) scale(0.72, 0.72)"/></g><g data-id="p171uvws" data-class="beam" class="beam"><polygon stroke-opacity="1" fill-opacity="1" points="6701,495 7983,495 7983,585 6701,585"/><polygon stroke-opacity="1" fill-opacity="1" points="6701,630 7026,630 7026,720 6701,720"/><polygon stroke-opacity="1" fill-opacity="1" points="7026,630 7342,630 7342,720 7026,720"/><polygon stroke-opacity="1" fill-opacity="1" points="7342,630 7658,630 7658,720 7342,720"/><polygon stroke-opacity="1" fill-opacity="1" points="7658,630 7983,630 7983,720 7658,720"/><g data-id="i1qb4wag" data-class="note" class="note"><g data-class="notehead" class="notehead"><use href="#E0A4-c92muu6" transform="translate(6493, 1530) scale(0.72, 0.72)"/></g><g data-id="n14qmqyp" data-class="stem" class="stem"><path d="M6710 1502 L6710 513" stroke-width="18"/></g></g><g data-id="j16rvdhe" data-class="note" class="note"><g data-class="notehead" class="notehead"><use href="#E0A4-c92muu6" transform="translate(6809, 1260) scale(0.72, 0.72)"/></g><g data-id="od455iu" data-class="stem" class="stem"><path d="M7026 1232 L7026 513" stroke-width="18"/></g></g><g data-id="k1qfnpn5" data-class="note" class="note"><g data-class="notehead" class="notehead"><use href="#E0A4-c92muu6" transform="translate(7125, 1080) scale(0.72, 0.72)"/></g><g data-id="p1ikf118" data-class="stem" class="stem"><path d="M7342 1052 L7342 513" stroke-width="18"/></g><g data-id="v1swpacg" data-class="accid" class="accid"/></g><g data-id="lxkfn7l" data-class="note" class="note"><g data-class="notehead" class="notehead"><use href="#E0A4-c92muu6" transform="translate(7441, 1260) scale(0.72, 0.72)"/></g><g data-id="q1ggpgqf" data-class="stem" class="stem"><path d="M7658 1232 L7658 513" stroke-width="18"/></g></g><g data-id="m1riwshg" data-class="note" class="note"><g data-class="notehead" class="notehead"><use href="#E0A4-c92muu6" transform="translate(7757, 1530) scale(0.72, 0.72)"/></g><g data-id="rilpvnq" data-class="stem" class="stem"><path d="M7974 1502 L7974 513" stroke-width="18"/></g></g></g></g></g><g data-id="u10g8f1l" data-class="barLine" class="barLine"><path d="M8087 540 L8087 1260" stroke-width="27"/></g></g><g data-id="x1558oht" data-class="systemMilestoneEnd" class="systemMilestoneEnd ahfj0ww"/></g><g data-id="y1vrx6ps" data-class="pageMilestoneEnd" class="pageMilestoneEnd y413yp8"/><g data-id="z1vi5bst" data-class="pageMilestoneEnd" class="pageMilestoneEnd x1gc2om2"/></g></svg></svg>