<svg viewBox="0 0 560 84" version="1.1" xmlns="http://www.w3.org/2000/svg" xmlns:xlink="http://www.w3.org/1999/xlink" overflow="visible" id="z1tb4lsf"><desc>Engraved by Verovio 5.6.0-85e7620</desc><defs><g id="E050-z1tb4lsf"><path transform="scale(1,-1)" d="M441 -245c-23 -4 -48 -6 -76 -6c-59 0 -102 7 -130 20c-88 42 -150 93 -187 154c-26 44 -43 103 -48 176c0 6 -1 13 -1 19c0 54 15 111 45 170c29 57 65 106 110 148s96 85 153 127c-3 16 -8 46 -13 92c-4 43 -5 73 -5 89c0 117 16 172 69 257c34 54 64 82 89 82 c21 0 43 -30 69 -92s39 -115 41 -159v-15c0 -109 -21 -162 -67 -241c-13 -20 -63 -90 -98 -118c-13 -9 -25 -19 -37 -29l31 -181c8 1 18 2 28 2c58 0 102 -12 133 -35c59 -43 92 -104 98 -184c1 -7 1 -15 1 -22c0 -123 -87 -209 -181 -248c8 -57 17 -110 25 -162 c5 -31 6 -58 6 -80c0 -30 -5 -53 -14 -70c-35 -64 -88 -99 -158 -103c-5 0 -11 -1 -16 -1c-37 0 -72 10 -108 27c-50 24 -77 59 -80 105v11c0 29 7 55 20 76c18 28 45 42 79 44h6c49 0 93 -42 97 -87v-9c0 -51 -34 -86 -105 -106c17 -24 51 -36 102 -36c62 0 116 43 140 85 c9 16 13 41 13 74c0 20 -1 42 -5 67c-8 53 -18 106 -26 159zM461 939c-95 0 -135 -175 -135 -286c0 -24 2 -48 5 -71c50 39 92 82 127 128c40 53 60 100 60 140v8c-4 53 -22 81 -55 81h-2zM406 119l54 -326c73 25 110 78 110 161c0 7 0 15 -1 23c-7 95 -57 142 -151 142h-12 zM382 117c-72 -2 -128 -47 -128 -120v-7c2 -46 43 -99 75 -115c-3 -2 -7 -5 -10 -10c-70 33 -116 88 -123 172v11c0 68 44 126 88 159c23 17 49 29 78 36l-29 170c-21 -13 -52 -37 -92 -73c-50 -44 -86 -84 -109 -119c-45 -69 -67 -130 -67 -182v-13c5 -68 35 -127 93 -176 s125 -73 203 -73c25 0 50 3 75 9c-19 111 -36 221 -54 331z"/></g><g id="E260-z1tb4lsf"><path transform="scale(1,-1)" d="M20 110c32 16 54 27 93 27c26 0 35 -3 54 -13c13 -7 24 -20 27 -38l4 -25c0 -28 -16 -57 -45 -89c-23 -25 -39 -44 -65 -68l-88 -79v644h20v-359zM90 106c-32 0 -48 -10 -70 -29v-194c31 31 54 59 71 84c21 32 32 59 32 84c0 9 1 16 1 20c0 14 -3 21 -11 30l-8 3z"/></g><g id="E082-z1tb4lsf"><path transform="scale(1,-1)" d="M124 -185c-18 0 -55 -14 -65 -65h-36l-3 30c0 25 6 45 18 63c11 19 22 30 39 43l121 82l37 29c15 11 27 29 38 54c12 24 18 47 18 70c0 40 -19 88 -94 88c-25 0 -32 0 -50 -8c-14 -5 -23 -12 -26 -22c3 -9 7 -15 10 -18l24 -17c12 -7 17 -11 27 -21c5 -7 7 -16 7 -27 c0 -12 0 -57 -79 -74c-30 0 -76 26 -76 94c0 66 81 135 197 135c72 0 181 -32 181 -150c0 -53 -32 -95 -113 -133l-91 -41c-26 -11 -45 -23 -57 -37l49 7c84 0 115 -41 148 -41c20 0 33 20 39 61h35c0 -152 -68 -168 -114 -168c-17 0 -65 0 -79 7h10l-28 17 c-49 37 -69 40 -87 42z"/></g><g id="E084-z1tb4lsf"><path transform="scale(1,-1)" d="M20 -78c84 97 114 180 134 329h170c-13 -32 -82 -132 -99 -151l-84 -97c-33 -36 -59 -63 -80 -81h162v102l127 123v-225h57v-39h-57v-34c0 -43 19 -65 57 -65v-34h-244v36c48 0 60 26 60 70v27h-203v39z"/></g><g id="E0A4-z1tb4lsf"><path transform="scale(1,-1)" d="M0 -39c0 68 73 172 200 172c66 0 114 -37 114 -95c0 -84 -106 -171 -218 -171c-64 0 -96 30 -96 94z"/></g></defs><style type="text/css">#z1tb4lsf g.page-margin {font-family:Times,serif;}#z1tb4lsf g.ending, #z1tb4lsf g.fing, #z1tb4lsf g.reh, #z1tb4lsf g.tempo {font-weight:bold;}#z1tb4lsf g.dir, #z1tb4lsf g.dynam, #z1tb4lsf g.mNum {font-style:italic;}#z1tb4lsf g.label {font-weight:normal;}#z1tb4lsf path {stroke:currentColor}</style><svg class="definition-scale" color="black" viewBox="0 0 14000 2100"><g class="page-margin" transform="translate(0, 150)"><g data-id="x1d5tg9k" data-class="mdiv" class="mdiv pageMilestone"/><g data-id="y1kayb99" data-class="score" class="score pageMilestone"/><g data-id="faqzj7s" data-class="system" class="system"><g data-id="akg7g1f" data-class="section" class="section systemMilestone"/><g data-id="abl5vqj" data-class="measure" class="measure"><g data-id="moynhrn" data-class="staff" class="staff"><path d="M0 540 L2709 540" stroke-width="13"/><path d="M0 720 L2709 720" stroke-width="13"/><path d="M0 900 L2709 900" stroke-width="13"/><path d="M0 1080 L2709 1080" stroke-width="13"/><path d="M0 1260 L2709 1260" stroke-width="13"/><g data-id="l66f48m" data-class="clef" class="clef"><use href="#E050-z1tb4lsf" transform="translate(90, 1080) scale(0.72, 0.72)"/></g><g data-id="ml3hx6k" data-class="keySig" class="keySig"><g data-id="n1enftrj" data-class="keyAccid" class="keyAccid"><use href="#E260-z1tb4lsf" transform="translate(735, 900) scale(0.72, 0.72)"/></g><g data-id="ozw4enj" data-class="keyAccid" class="keyAccid"><use href="#E260-z1tb4lsf" transform="translate(915, 630) scale(0.72, 0.72)"/></g></g><g data-id="p1q78m69" data-class="meterSig" class="meterSig"><use href="#E082-z1tb4lsf" transform="translate(1223, 720) scale(0.72, 0.72)"/><use href="#E084-z1tb4lsf" transform="translate(1228, 1080) scale(0.72, 0.72)"/></g><g data-id="n88eln4" data-class="layer" class="layer"><g data-id="k9cwhur" data-class="beam" class="beam"><polygon stroke-opacity="1" fill-opacity="1" points="1796,1350 2264,1395 2264,1305 1796,1260"/><g data-id="t1u23of7" data-class="note" class="note"><g data-class="notehead" class="notehead"><use href="#E0A4-z1tb4lsf" transform="translate(1796, 540) scale(0.72, 0.72)"/></g><g data-id="icxbo90" data-class="stem" class="stem"><path d="M1805 568 L1805 1332" stroke-width="18"/></g></g><g data-id="u1t145m3" data-class="note" class="note"><g data-class="notehead" class="notehead"><use href="#E0A4-z1tb4lsf" transform="translate(2246, 720) scale(0.72, 0.72)"/></g><g data-id="j1yht1gf" data-class="stem" class="stem"><path d="M2255 748 L2255 1377" stroke-width="18"/></g></g></g></g></g><g data-id="i1sz956v" data-class="barLine" class="barLine"><path d="M2696 540 L2696 1260" stroke-width="27"/></g></g><g data-id="jau1j8l" data-class="measure" class="measure"><g data-id="o6uxltn" data-class="staff" class="staff"><path d="M2709 540 L4702 540" stroke-width="13"/><path d="M2709 720 L4702 720" stroke-width="13"/><path d="M2709 900 L4702 900" stroke-width="13"/><path d="M2709 1080 L4702 1080" stroke-width="13"/><path d="M2709 1260 L4702 1260" stroke-width="13"/><g data-id="p68rzbh" data-class="layer" class="layer"><g data-id="l1b0lo1g" data-class="beam" class="beam"><polygon stroke-opacity="1" fill-opacity="1" points="3097,225 3565,270 3565,360 3097,315"/><g data-id="v1p38z3p" data-class="note" class="note"><g data-class="notehead" class="notehead"><use href="#E0A4-z1tb4lsf" transform="translate(2889, 810) scale(0.72, 0.72)"/></g><g data-id="k1uedjsq" data-class="stem" class="stem"><path d="M3106 782 L3106 243" stroke-width="18"/></g></g><g data-id="wwj1x1e" data-class="note" class="note"><g data-class="notehead" class="notehead"><use href="#E0A4-z1tb4lsf" transform="translate(3339, 1170) scale(0.72, 0.72)"/></g><g data-id="liq8wbg" data-class="stem" class="stem"><path d="M3556 1142 L3556 288" stroke-width="18"/></g></g></g><g data-id="mpthjwt" data-class="beam" class="beam"><polygon stroke-opacity="1" fill-opacity="1" points="3997,360 4465,315 4465,405 3997,450"/><g data-id="xcz2pro" data-class="note" class="note"><g data-class="notehead" class="notehead"><use href="#E0A4-z1tb4lsf" transform="translate(3789, 1080) scale(0.72, 0.72)"/></g><g data-id="mqdriue" data-class="stem" class="stem"><path d="M4006 1052 L4006 378" stroke-width="18"/></g></g><g data-id="y13y6gpf" data-class="note" class="note"><g data-class="notehead" class="notehead"><use href="#E0A4-z1tb4lsf" transform="translate(4239, 900) scale(0.72, 0.72)"/></g><g data-id="n1vo2zu7" data-class="stem" class="stem"><path d="M4456 872 L4456 333" stroke-width="18"/></g><g data-id="reyn4se" data-class="accid" class="accid"/></g></g></g></g><g data-id="r1yuny2w" data-class="barLine" class="barLine"><path d="M4689 540 L4689 1260" stroke-width="27"/></g></g><g data-id="s5bfsmn" data-class="measure" class="measure"><g data-id="q1354ta" data-class="staff" class="staff"><path d="M4702 540 L6695 540" stroke-width="13"/><path d="M4702 720 L6695 720" stroke-width="13"/><path d="M4702 900 L6695 900" stroke-width="13"/><path d="M4702 1080 L6695 1080" stroke-width="13"/><path d="M4702 1260 L6695 1260" stroke-width="13"/><g data-id="rp67ewb" data-class="layer" class="layer"><g data-id="n9i7xa2" data-class="beam" class="beam"><polygon stroke-opacity="1" fill-opacity="1" points="5090,315 5558,360 5558,450 5090,405"/><g data-id="zjio7lj" data-class="note" class="note"><g data-class="notehead" class="notehead"><use href="#E0A4-z1tb4lsf" transform="translate(4882, 900) scale(0.72, 0.72)"/></g><g data-id="opa9wiz" data-class="stem" class="stem"><path d="M5099 872 L5099 333" stroke-width="18"/></g><g data-id="s34czsf" data-class="accid" class="accid"/></g><g data-id="a8l71w4" data-class="note" class="note"><g data-class="notehead" class="notehead"><use href="#E0A4-z1tb4lsf" transform="translate(5332, 1170) scale(0.72, 0.72)"/></g><g data-id="phsa4ob" data-class="stem" class="stem"><path d="M5549 1142 L5549 378" stroke-width="18"/></g></g></g><g data-id="o3wkpdp" data-class="beam" class="beam"><polygon stroke-opacity="1" fill-opacity="1" points="5782,1485 6250,1440 6250,1350 5782,1395"/><g data-id="b1ec6mwk" data-class="note" class="note"><g data-class="notehead" class="notehead"><use href="#E0A4-z1tb4lsf" transform="translate(5782, 900) scale(0.72, 0.72)"/></g><g data-id="q1kcuf2x" data-class="stem" class="stem"><path d="M5791 928 L5791 1467" stroke-width="18"/></g><g data-id="t17qv38y" data-class="accid" class="accid"/></g><g data-id="c1fw7n7u" data-class="note" class="note"><g data-class="notehead" class="notehead"><use href="#E0A4-z1tb4lsf" transform="translate(6232, 810) scale(0.72, 0.72)"/></g><g data-id="r1jv1c2b" data-class="stem" class="stem"><path d="M6241 838 L6241 1422" stroke-width="18"/></g></g></g></g></g><g data-id="a1erta7k" data-class="barLine" class="barLine"><path d="M6682 540 L6682 1260" stroke-width="27"/></g></g><g data-id="budw747" data-class="measure" class="measure"><g data-id="spexih8" data-class="staff" class="staff"><path d="M6695 540 L9066 540" stroke-width="13"/><path d="M6695 720 L9066 720" stroke-width="13"/><path d="M6695 900 L9066 900" stroke-width="13"/><path d="M6695 1080 L9066 1080" stroke-width="13"/><path d="M6695 1260 L9066 1260" stroke-width="13"/><g data-id="t188y2qd" data-class="layer" class="layer"><g data-id="p1wb91ha" data-class="beam" class="beam"><polygon stroke-opacity="1" fill-opacity="1" points="6875,1305 7343,1305 7343,1215 6875,1215"/><g data-id="ddwnam" data-class="note" class="note"><g data-class="notehead" class="notehead"><use href="#E0A4-z1tb4lsf" transform="translate(6875, 720) scale(0.72, 0.72)"/></g><g data-id="sj5n6yx" data-class="stem" class="stem"><path d="M6884 748 L6884 1287" stroke-width="18"/></g></g><g data-id="e1tmznbx" data-class="note" class="note"><g data-class="notehead" class="notehead"><use href="#E0A4-z1tb4lsf" transform="translate(7325, 720) scale(0.72, 0.72)"/></g><g data-id="tt0vtu2" data-class="stem" class="stem"><path d="M7334 748 L7334 1287" stroke-width="18"/></g></g></g><g data-id="qslyn52" data-class="beam" class="beam"><polygon stroke-opacity="1" fill-opacity="1" points="7775,1350 8741,1395 8741,1305 7775,1260"/><polygon stroke-opacity="1" fill-opacity="1" points="7775,1215 8100,1230 8100,1140 7775,1125"/><polygon stroke-opacity="1" fill-opacity="1" points="8100,1230 8416,1245 8416,1155 8100,1140"/><polygon stroke-opacity="1" fill-opacity="1" points="8416,1245 8741,1260 8741,1170 8416,1155"/><g data-id="fgkva5a" data-class="note" class="note"><g data-class="notehead" class="notehead"><use href="#E0A4-z1tb4lsf" transform="translate(7775, 540) scale(0.72, 0.72)"/></g><g data-id="u1k1ydbn" data-class="stem" class="stem"><path d="M7784 568 L7784 1332" stroke-width="18"/></g></g><g data-id="gao8b2f" data-class="note" class="note"><g data-class="notehead" class="notehead"><use href="#E0A4-z1tb4lsf" transform="translate(8091, 630) scale(0.72, 0.72)"/></g><g data-id="v450qhh" data-class="stem" class="stem"><path d="M8100 658 L8100 1347" stroke-width="18"/></g><g data-id="u129mmb8" data-class="accid" class="accid"/></g><g data-id="h7kla9u" data-class="note" class="note"><g data-class="notehead" class="notehead"><use href="#E0A4-z1tb4lsf" transform="translate(8407, 630) scale(0.72, 0.72)"/></g><g data-id="w1r63aaj" data-class="stem" class="stem"><path d="M8416 658 L8416 1362" stroke-width="18"/></g><g data-id="vulu0lb" data-class="accid" class="accid"/></g><g data-id="i1aewxkg" data-class="note" class="note"><g data-class="notehead" class="notehead"><use href="#E0A4-z1tb4lsf" transform="translate(8723, 720) scale(0.72, 0.72)"/></g><g data-id="x1x6rf9g" data-class="stem" class="stem"><path d="M8732 748 L8732 1377" stroke-width="18"/></g></g></g></g></g><g data-id="jzobqgq" data-class="barLine" class="barLine"><path d="M9053 540 L9053 1260" stroke-width="27"/></g></g><g data-id="k6u4qgt" data-class="measure" class="measure"><g data-id="u7ij31i" data-class="staff" class="staff"><path d="M9066 540 L9936 540" stroke-width="13"/><path d="M9066 720 L9936 720" stroke-width="13"/><path d="M9066 900 L9936 900" stroke-width="13"/><path d="M9066 1080 L9936 1080" stroke-width="13"/><path d="M9066 1260 L9936 1260" stroke-width="13"/><g data-id="vpt9epi" data-class="layer" class="layer"><g data-id="j1jna924" data-class="note" class="note"><g data-class="notehead" class="notehead"><use href="#E0A4-z1tb4lsf" transform="translate(9246, 810) scale(0.72, 0.72)"/></g><g data-id="y1yolxev" data-class="stem" class="stem"><path d="M9255 838 L9255 1440" stroke-width="18"/></g></g></g></g><g data-id="s11syxqd" data-class="barLine" class="barLine"/></g><g data-id="d3v931v" data-class="systemMilestoneEnd" class="systemMilestoneEnd akg7g1f"/></g><g data-id="e3smqq9" data-class="pageMilestoneEnd" class="pageMilestoneEnd y1kayb99"/><g data-id="f1d9fxfz" data-class="pageMilestoneEnd" class="pageMilestoneEnd x1d5tg9k"/></g></svg></svg>