<svg viewBox="0 0 560 84" version="1.1" xmlns="http://www.w3.org/2000/svg" xmlns:xlink="http://www.w3.org/1999/xlink" overflow="visible" id="g1gxc363"><desc>Engraved by Verovio 5.6.0-85e7620</desc><defs><g id="E050-g1gxc363"><path transform="scale(1,-1)" d="M441 -245c-23 -4 -48 -6 -76 -6c-59 0 -102 7 -130 20c-88 42 -150 93 -187 154c-26 44 -43 103 -48 176c0 6 -1 13 -1 19c0 54 15 111 45 170c29 57 65 106 110 148s96 85 153 127c-3 16 -8 46 -13 92c-4 43 -5 73 -5 89c0 117 16 172 69 257c34 54 64 82 89 82 c21 0 43 -30 69 -92s39 -115 41 -159v-15c0 -109 -21 -162 -67 -241c-13 -20 -63 -90 -98 -118c-13 -9 -25 -19 -37 -29l31 -181c8 1 18 2 28 2c58 0 102 -12 133 -35c59 -43 92 -104 98 -184c1 -7 1 -15 1 -22c0 -123 -87 -209 -181 -248c8 -57 17 -110 25 -162 c5 -31 6 -58 6 -80c0 -30 -5 -53 -14 -70c-35 -64 -88 -99 -158 -103c-5 0 -11 -1 -16 -1c-37 0 -72 10 -108 27c-50 24 -77 59 -80 105v11c0 29 7 55 20 76c18 28 45 42 79 44h6c49 0 93 -42 97 -87v-9c0 -51 -34 -86 -105 -106c17 -24 51 -36 102 -36c62 0 116 43 140 85 c9 16 13 41 13 74c0 20 -1 42 -5 67c-8 53 -18 106 -26 159zM461 939c-95 0 -135 -175 -135 -286c0 -24 2 -48 5 -71c50 39 92 82 127 128c40 53 60 100 60 140v8c-4 53 -22 81 -55 81h-2zM406 119l54 -326c73 25 110 78 110 161c0 7 0 15 -1 23c-7 95 -57 142 -151 142h-12 zM382 117c-72 -2 -128 -47 -128 -120v-7c2 -46 43 -99 75 -115c-3 -2 -7 -5 -10 -10c-70 33 -116 88 -123 172v11c0 68 44 126 88 159c23 17 49 29 78 36l-29 170c-21 -13 -52 -37 -92 -73c-50 -44 -86 -84 -109 -119c-45 -69 -67 -130 -67 -182v-13c5 -68 35 -127 93 -176 s125 -73 203 -73c25 0 50 3 75 9c-19 111 -36 221 -54 331z"/></g><g id="E262-g1gxc363"><path transform="scale(1,-1)" d="M136 186v169h17v-164l44 14v-91l-44 -14v-165l44 12v-91l-44 -13v-155h-17v150l-76 -22v-155h-17v149l-43 -13v90l43 14v167l-43 -14v92l43 13v169h17v-163zM60 73v-167l76 22v168z"/></g><g id="E083-g1gxc363"><path transform="scale(1,-1)" d="M208 250c97 0 177 -52 177 -116c0 -69 -40 -111 -118 -125c56 -5 125 -44 125 -116c0 -31 -10 -57 -31 -78c-19 -21 -45 -38 -78 -49l-50 -11c-15 -3 -36 -7 -55 -7c-50 0 -86 16 -113 38c-16 10 -23 18 -34 34c-7 13 -11 25 -11 38c0 43 27 83 68 83l3 -2 c61 0 75 -42 75 -70c0 -19 -24 -42 -26 -57c7 -17 20 -25 37 -25c44 0 94 29 94 78c0 75 -34 125 -138 125v36c84 0 131 22 131 98c0 54 -37 88 -87 88c-26 0 -43 -7 -51 -22c15 -22 44 -16 44 -70c0 -37 -37 -62 -71 -62c-22 0 -69 15 -69 76c0 79 101 116 178 116z"/></g><g id="E084-g1gxc363"><path transform="scale(1,-1)" d="M20 -78c84 97 114 180 134 329h170c-13 -32 -82 -132 -99 -151l-84 -97c-33 -36 -59 -63 -80 -81h162v102l127 123v-225h57v-39h-57v-34c0 -43 19 -65 57 -65v-34h-244v36c48 0 60 26 60 70v27h-203v39z"/></g><g id="E0A4-g1gxc363"><path transform="scale(1,-1)" d="M0 -39c0 68 73 172 200 172c66 0 114 -37 114 -95c0 -84 -106 -171 -218 -171c-64 0 -96 30 -96 94z"/></g><g id="E240-g1gxc363"><path transform="scale(1,-1)" d="M179 -646c15 29 29 55 46 102c18 49 30 108 30 138c0 105 -80 173 -168 200c-18 5 -47 9 -87 16v190h22c8 0 33 -61 71 -95c4 -3 -2 3 61 -56c62 -58 122 -137 122 -241c0 -38 -13 -106 -35 -163c-20 -51 -43 -99 -66 -132c-6 -5 -10 -7 -13 -7s-5 2 -5 5l4 10 c1 3 14 25 18 33z"/></g><g id="E0A3-g1gxc363"><path transform="scale(1,-1)" d="M278 64c0 22 -17 39 -43 39c-12 0 -26 -3 -41 -10c-85 -43 -165 -94 -165 -156c5 -25 15 -32 49 -32c67 11 200 95 200 159zM0 -36c0 68 73 174 200 174c66 0 114 -39 114 -97c0 -84 -106 -173 -218 -173c-64 0 -96 32 -96 96z"/></g><g id="E4E5-g1gxc363"><path transform="scale(1,-1)" d="M107 292c-13 24 -30 49 -52 71c-1 1 0 2 0 3l-2 2c3 3 4 4 6 4c12 0 26 -7 40 -20s44 -40 89 -81c26 -24 28 -29 46 -47c4 -4 8 -9 10 -14c6 -8 8 -16 8 -27c0 -19 -12 -40 -36 -61c-28 -23 -49 -38 -61 -73c-4 -11 -7 -27 -10 -50c13 -43 34 -83 59 -121 c31 -47 59 -79 101 -129c-8 0 -26 7 -54 20l-62 29l-21 6l-23 1c-25 0 -45 -10 -60 -30l-4 -14l-1 -12c0 -33 20 -56 39 -78c8 -9 17 -18 26 -26c17 -15 27 -24 28 -30l-3 -3c-11 5 -19 10 -25 15c-9 3 -37 21 -45 26c-24 14 -45 32 -63 51c-19 21 -37 44 -37 71 c0 63 27 95 80 95c41 0 86 -18 136 -52c-19 26 -37 48 -55 66c-23 23 -48 44 -73 65c-28 23 -47 40 -58 53s-17 26 -18 39c75 64 113 125 113 183c0 27 -7 48 -18 68z"/></g><g id="E4E6-g1gxc363"><path transform="scale(1,-1)" d="M0 123c7 34 33 56 69 60c29 -3 43 -9 53 -29c4 -8 7 -15 10 -22c0 -21 -1 -25 -11 -35c-5 -8 -18 -14 -40 -20l12 -3l15 -1c44 0 97 26 122 56c10 11 18 26 24 42c7 1 15 2 22 3l-140 -424h-36l111 330c-10 -6 -27 -12 -53 -16l-52 -8h-10l-20 1c-1 0 -8 3 -21 6 c-37 9 -55 28 -55 60z"/></g></defs><style type="text/css">#g1gxc363 g.page-margin {font-family:Times,serif;}#g1gxc363 g.ending, #g1gxc363 g.fing, #g1gxc363 g.reh, #g1gxc363 g.tempo {font-weight:bold;}#g1gxc363 g.dir, #g1gxc363 g.dynam, #g1gxc363 g.mNum {font-style:italic;}#g1gxc363 g.label {font-weight:normal;}#g1gxc363 path {stroke:currentColor}</style><svg class="definition-scale" color="black" viewBox="0 0 14000 2100"><g class="page-margin" transform="translate(0, 150)"><g data-id="u1wta1zw" data-class="mdiv" class="mdiv pageMilestone"/><g data-id="voyvx1f" data-class="score" class="score pageMilestone"/><g data-id="fkq7rka" data-class="system" class="system"><g data-id="x2zyc93" data-class="section" class="section systemMilestone"/><g data-id="h2g9bo7" data-class="measure" class="measure"><g data-id="j1kvpak8" data-class="staff" class="staff"><path d="M0 540 L2483 540" stroke-width="13"/><path d="M0 720 L2483 720" stroke-width="13"/><path d="M0 900 L2483 900" stroke-width="13"/><path d="M0 1080 L2483 1080" stroke-width="13"/><path d="M0 1260 L2483 1260" stroke-width="13"/><g data-id="kp5bib5" data-class="clef" class="clef"><use href="#E050-g1gxc363" transform="translate(90, 1080) scale(0.72, 0.72)"/></g><g data-id="lx7prrr" data-class="keySig" class="keySig"><g data-id="m2za1i9" data-class="keyAccid" class="keyAccid"><use href="#E262-g1gxc363" transform="translate(735, 540) scale(0.72, 0.72)"/></g><g data-id="n1ef2mzw" data-class="keyAccid" class="keyAccid"><use href="#E262-g1gxc363" transform="translate(913, 810) scale(0.72, 0.72)"/></g><g data-id="o1kp4sqc" data-class="keyAccid" class="keyAccid"><use href="#E262-g1gxc363" transform="translate(1091, 450) scale(0.72, 0.72)"/></g></g><g data-id="p15v4cuc" data-class="meterSig" class="meterSig"><use href="#E083-g1gxc363" transform="translate(1404, 720) scale(0.72, 0.72)"/><use href="#E084-g1gxc363" transform="translate(1398, 1080) scale(0.72, 0.72)"/></g><g data-class="ledgerLines" class="ledgerLines below"><g data-class="lineDash" class="lineDash" data-related="#cvkw2qg"><path d="M1912 1440 L2234 1440" stroke-width="22"/></g></g><g data-id="k1e67zas" data-class="layer" class="layer"><g data-id="cvkw2qg" data-class="note" class="note"><g data-class="notehead" class="notehead"><use href="#E0A4-g1gxc363" transform="translate(1960, 1440) scale(0.72, 0.72)"/></g><g data-id="g1kkk9o1" data-class="stem" class="stem"><path d="M2177 1412 L2177 810" stroke-width="18"/><g data-id="h51oq4z" data-class="flag" class="flag"><use href="#E240-g1gxc363" transform="translate(2168, 810) scale(0.72, 0.72)"/></g></g><g data-id="o1agdc4" data-class="accid" class="accid"/></g></g></g><g data-id="p12cg2t8" data-class="barLine" class="barLine"><path d="M2470 540 L2470 1260" stroke-width="27"/></g></g><g data-id="q1irasy1" data-class="measure" class="measure"><g data-id="l19vr12s" data-class="staff" class="staff"><path d="M2483 540 L4416 540" stroke-width="13"/><path d="M2483 720 L4416 720" stroke-width="13"/><path d="M2483 900 L4416 900" stroke-width="13"/><path d="M2483 1080 L4416 1080" stroke-width="13"/><path d="M2483 1260 L4416 1260" stroke-width="13"/><g data-id="m1puuyk8" data-class="layer" class="layer"><g data-id="d1ysyc8i" data-class="note" class="note"><g data-class="notehead" class="notehead"><use href="#E0A3-g1gxc363" transform="translate(2663, 1170) scale(0.72, 0.72)"/></g><g data-id="i1xen8uh" data-class="stem" class="stem"><path d="M2880 1142 L2880 540" stroke-width="18"/></g><g data-id="pfno2a6" data-class="accid" class="accid"/></g><g data-id="e1ep8sa8" data-class="note" class="note"><g data-class="notehead" class="notehead"><use href="#E0A4-g1gxc363" transform="translate(3713, 1260) scale(0.72, 0.72)"/></g><g data-id="jwyl5ax" data-class="stem" class="stem"><path d="M3930 1232 L3930 630" stroke-width="18"/></g></g></g></g><g data-id="yvzgwbg" data-class="barLine" class="barLine"><path d="M4403 540 L4403 1260" stroke-width="27"/></g></g><g data-id="z17aj9br" data-class="measure" class="measure"><g data-id="n1hauicj" data-class="staff" class="staff"><path d="M4416 540 L6679 540" stroke-width="13"/><path d="M4416 720 L6679 720" stroke-width="13"/><path d="M4416 900 L6679 900" stroke-width="13"/><path d="M4416 1080 L6679 1080" stroke-width="13"/><path d="M4416 1260 L6679 1260" stroke-width="13"/><g data-class="ledgerLines" class="ledgerLines below"><g data-class="lineDash" class="lineDash" data-related="#f1cdckts"><path d="M4548 1440 L4870 1440" stroke-width="22"/></g></g><g data-id="o539caw" data-class="layer" class="layer"><g data-id="f1cdckts" data-class="note" class="note"><g data-class="notehead" class="notehead"><use href="#E0A4-g1gxc363" transform="translate(4596, 1440) scale(0.72, 0.72)"/></g><g data-id="kttfc5m" data-class="stem" class="stem"><path d="M4813 1412 L4813 810" stroke-width="18"/></g><g data-id="qk7vlvd" data-class="accid" class="accid"/></g><g data-id="a1e0b8k" data-class="rest" class="rest"><use href="#E4E5-g1gxc363" transform="translate(5286, 900) scale(0.72, 0.72)"/></g><g data-id="ggxbq63" data-class="note" class="note"><g data-class="notehead" class="notehead"><use href="#E0A4-g1gxc363" transform="translate(5976, 1350) scale(0.72, 0.72)"/></g><g data-id="lyblct3" data-class="stem" class="stem"><path d="M6193 1322 L6193 720" stroke-width="18"/></g></g></g></g><g data-id="h158otsz" data-class="barLine" class="barLine"><path d="M6666 540 L6666 1260" stroke-width="27"/></g></g><g data-id="i1oppvpz" data-class="measure" class="measure"><g data-id="p1kfh9oa" data-class="staff" class="staff"><path d="M6679 540 L9102 540" stroke-width="13"/><path d="M6679 720 L9102 720" stroke-width="13"/><path d="M6679 900 L9102 900" stroke-width="13"/><path d="M6679 1080 L9102 1080" stroke-width="13"/><path d="M6679 1260 L9102 1260" stroke-width="13"/><g data-id="qg2m7kh" data-class="layer" class="layer"><g data-id="h1y7lt5c" data-class="note" class="note"><g data-class="notehead" class="notehead"><use href="#E0A4-g1gxc363" transform="translate(6859, 1260) scale(0.72, 0.72)"/></g><g data-id="n1v1hzla" data-class="dots" class="dots"><ellipse cx="7175" cy="1170" rx="36" ry="36" fill-opacity="1" stroke-opacity="1"/></g><g data-id="m1tbys7v" data-class="stem" class="stem"><path d="M7076 1232 L7076 630" stroke-width="18"/></g></g><g data-id="n1257p0c" data-class="beam" class="beam"><polygon stroke-opacity="1" fill-opacity="1" points="7947,540 8865,360 8865,450 7947,630"/><g data-id="ijml7gx" data-class="note" class="note"><g data-class="notehead" class="notehead"><use href="#E0A4-g1gxc363" transform="translate(7739, 1170) scale(0.72, 0.72)"/></g><g data-id="ok3b6pr" data-class="stem" class="stem"><path d="M7956 1142 L7956 558" stroke-width="18"/></g><g data-id="r1ysewh6" data-class="accid" class="accid"/></g><g data-id="j14i6vhh" data-class="note" class="note"><g data-class="notehead" class="notehead"><use href="#E0A4-g1gxc363" transform="translate(8189, 1080) scale(0.72, 0.72)"/></g><g data-id="pim2ym9" data-class="stem" class="stem"><path d="M8406 1052 L8406 468" stroke-width="18"/></g><g data-id="sjrlga2" data-class="accid" class="accid"/></g><g data-id="kuhxb1e" data-class="note" class="note"><g data-class="notehead" class="notehead"><use href="#E0A4-g1gxc363" transform="translate(8639, 990) scale(0.72, 0.72)"/></g><g data-id="qbc34q1" data-class="stem" class="stem"><path d="M8856 962 L8856 378" stroke-width="18"/></g></g></g></g></g><g data-id="qhcddwc" data-class="barLine" class="barLine"><path d="M9089 540 L9089 1260" stroke-width="27"/></g></g><g data-id="r1xfbxci" data-class="measure" class="measure"><g data-id="rt6ixla" data-class="staff" class="staff"><path d="M9102 540 L10918 540" stroke-width="13"/><path d="M9102 720 L10918 720" stroke-width="13"/><path d="M9102 900 L10918 900" stroke-width="13"/><path d="M9102 1080 L10918 1080" stroke-width="13"/><path d="M9102 1260 L10918 1260" stroke-width="13"/><g data-id="suhc48p" data-class="layer" class="layer"><g data-id="lcv07n7" data-class="note" class="note"><g data-class="notehead" class="notehead"><use href="#E0A4-g1gxc363" transform="translate(9282, 900) scale(0.72, 0.72)"/></g><g data-id="rzxacrp" data-class="stem" class="stem"><path d="M9291 928 L9291 1500" stroke-width="18"/></g></g><g data-id="m1x7gnor" data-class="note" class="note"><g data-class="notehead" class="notehead"><use href="#E0A4-g1gxc363" transform="translate(9972, 990) scale(0.72, 0.72)"/></g><g data-id="skljm3j" data-class="stem" class="stem"><path d="M10189 962 L10189 360" stroke-width="18"/><g data-id="t6z1gf3" data-class="flag" class="flag"><use href="#E240-g1gxc363" transform="translate(10180, 360) scale(0.72, 0.72)"/></g></g></g><g data-id="bsmllxg" data-class="rest" class="rest"><use href="#E4E6-g1gxc363" transform="translate(10468, 900) scale(0.72, 0.72)"/></g></g></g><g data-id="z1070etc" data-class="barLine" class="barLine"/></g><g data-id="av94b2i" data-class="systemMilestoneEnd" class="systemMilestoneEnd x2zyc93"/></g><g data-id="bp5hvtg" data-class="pageMilestoneEnd" class="pageMilestoneEnd voyvx1f"/><g data-id="c17jr6ae" data-class="pageMilestoneEnd" class="pageMilestoneEnd u1wta1zw"/></g></svg></svg>