<svg viewBox="0 0 560 88" version="1.1" xmlns="http://www.w3.org/2000/svg" xmlns:xlink="http://www.w3.org/1999/xlink" overflow="visible" id="p1vl0ehb"><desc>Engraved by Verovio 5.6.0-85e7620</desc><defs><g id="E050-p1vl0ehb"><path transform="scale(1,-1)" d="M441 -245c-23 -4 -48 -6 -76 -6c-59 0 -102 7 -130 20c-88 42 -150 93 -187 154c-26 44 -43 103 -48 176c0 6 -1 13 -1 19c0 54 15 111 45 170c29 57 65 106 110 148s96 85 153 127c-3 16 -8 46 -13 92c-4 43 -5 73 -5 89c0 117 16 172 69 257c34 54 64 82 89 82 c21 0 43 -30 69 -92s39 -115 41 -159v-15c0 -109 -21 -162 -67 -241c-13 -20 -63 -90 -98 -118c-13 -9 -25 -19 -37 -29l31 -181c8 1 18 2 28 2c58 0 102 -12 133 -35c59 -43 92 -104 98 -184c1 -7 1 -15 1 -22c0 -123 -87 -209 -181 -248c8 -57 17 -110 25 -162 c5 -31 6 -58 6 -80c0 -30 -5 -53 -14 -70c-35 -64 -88 -99 -158 -103c-5 0 -11 -1 -16 -1c-37 0 -72 10 -108 27c-50 24 -77 59 -80 105v11c0 29 7 55 20 76c18 28 45 42 79 44h6c49 0 93 -42 97 -87v-9c0 -51 -34 -86 -105 -106c17 -24 51 -36 102 -36c62 0 116 43 140 85 c9 16 13 41 13 74c0 20 -1 42 -5 67c-8 53 -18 106 -26 159zM461 939c-95 0 -135 -175 -135 -286c0 -24 2 -48 5 -71c50 39 92 82 127 128c40 53 60 100 60 140v8c-4 53 -22 81 -55 81h-2zM406 119l54 -326c73 25 110 78 110 161c0 7 0 15 -1 23c-7 95 -57 142 -151 142h-12 zM382 117c-72 -2 -128 -47 -128 -120v-7c2 -46 43 -99 75 -115c-3 -2 -7 -5 -10 -10c-70 33 -116 88 -123 172v11c0 68 44 126 88 159c23 17 49 29 78 36l-29 170c-21 -13 -52 -37 -92 -73c-50 -44 -86 -84 -109 -119c-45 -69 -67 -130 -67 -182v-13c5 -68 35 -127 93 -176 s125 -73 203 -73c25 0 50 3 75 9c-19 111 -36 221 -54 331z"/></g><g id="E262-p1vl0ehb"><path transform="scale(1,-1)" d="M136 186v169h17v-164l44 14v-91l-44 -14v-165l44 12v-91l-44 -13v-155h-17v150l-76 -22v-155h-17v149l-43 -13v90l43 14v167l-43 -14v92l43 13v169h17v-163zM60 73v-167l76 22v168z"/></g><g id="E08A-p1vl0ehb"><path transform="scale(1,-1)" d="M340 179c-9 24 -56 41 -89 41c-46 0 -81 -28 -100 -58c-17 -28 -25 -78 -25 -150c0 -65 2 -111 8 -135c8 -31 18 -49 40 -67c20 -17 43 -25 70 -25c54 0 92 36 115 75c14 25 23 54 28 88h27c0 -63 -24 -105 -58 -141c-35 -38 -82 -56 -140 -56c-45 0 -83 13 -115 39 c-57 45 -101 130 -101 226c0 59 33 127 68 163c36 37 97 72 160 72c36 0 93 -21 121 -40c11 -8 23 -17 33 -30c19 -23 27 -48 27 -76c0 -51 -35 -88 -86 -88c-43 0 -76 27 -76 68c0 26 7 35 21 51c15 17 32 27 58 32c7 2 14 7 14 11z"/></g><g id="E4E7-p1vl0ehb"><path transform="scale(1,-1)" d="M133 -111c0 -33 -21 -50 -52 -55c10 -3 18 -4 25 -4c40 0 69 24 90 47l66 197c-36 -18 -64 -25 -112 -25c-23 0 -38 3 -45 8c-37 7 -55 27 -55 59c8 35 30 54 68 58c45 -6 49 -13 64 -48c0 -3 1 -5 1 -7c0 -27 -25 -46 -52 -49c6 -4 15 -6 26 -6c32 2 62 14 88 29 c32 19 44 36 59 71l7 1l10 2h4c-72 -220 -143 -439 -215 -659h-37l108 324c-20 -13 -51 -20 -82 -20c-21 0 -35 4 -43 10c-37 6 -55 26 -55 58c8 35 31 56 68 60c43 -8 48 -13 64 -51z"/></g><g id="E0A4-p1vl0ehb"><path transform="scale(1,-1)" d="M0 -39c0 68 73 172 200 172c66 0 114 -37 114 -95c0 -84 -106 -171 -218 -171c-64 0 -96 30 -96 94z"/></g><g id="E0A3-p1vl0ehb"><path transform="scale(1,-1)" d="M278 64c0 22 -17 39 -43 39c-12 0 -26 -3 -41 -10c-85 -43 -165 -94 -165 -156c5 -25 15 -32 49 -32c67 11 200 95 200 159zM0 -36c0 68 73 174 200 174c66 0 114 -39 114 -97c0 -84 -106 -173 -218 -173c-64 0 -96 32 -96 96z"/></g><g id="E240-p1vl0ehb"><path transform="scale(1,-1)" d="M179 -646c15 29 29 55 46 102c18 49 30 108 30 138c0 105 -80 173 -168 200c-18 5 -47 9 -87 16v190h22c8 0 33 -61 71 -95c4 -3 -2 3 61 -56c62 -58 122 -137 122 -241c0 -38 -13 -106 -35 -163c-20 -51 -43 -99 -66 -132c-6 -5 -10 -7 -13 -7s-5 2 -5 5l4 10 c1 3 14 25 18 33z"/></g></defs><style type="text/css">#p1vl0ehb g.page-margin {font-family:Times,serif;}#p1vl0ehb g.ending, #p1vl0ehb g.fing, #p1vl0ehb g.reh, #p1vl0ehb g.tempo {font-weight:bold;}#p1vl0ehb g.dir, #p1vl0ehb g.dynam, #p1vl0ehb g.mNum {font-style:italic;}#p1vl0ehb g.label {font-weight:normal;}#p1vl0ehb path {stroke:currentColor}</style><svg class="definition-scale" color="black" viewBox="0 0 14000 2190"><g class="page-margin" transform="translate(0, 150)"><g data-id="y1duseok" data-class="mdiv" class="mdiv pageMilestone"/><g data-id="z1xq22t4" data-class="score" class="score pageMilestone"/><g data-id="rh9swjr" data-class="system" class="system"><g data-id="bjuqfu2" data-class="section" class="section systemMilestone"/><g data-id="q11ou5x1" data-class="measure" class="measure"><g data-id="nirqqth" data-class="staff" class="staff"><path d="M0 540 L5377 540" stroke-width="13"/><path d="M0 720 L5377 720" stroke-width="13"/><path d="M0 900 L5377 900" stroke-width="13"/><path d="M0 1080 L5377 1080" stroke-width="13"/><path d="M0 1260 L5377 1260" stroke-width="13"/><g data-id="x16powb7" data-class="clef" class="clef"><use href="#E050-p1vl0ehb" transform="translate(90, 1080) scale(0.72, 0.72)"/></g><g data-id="y1ii56ei" data-class="keySig" class="keySig"><g data-id="z103r2co" data-class="keyAccid" class="keyAccid"><use href="#E262-p1vl0ehb" transform="translate(735, 540) scale(0.72, 0.72)"/></g><g data-id="ai5zle2" data-class="keyAccid" class="keyAccid"><use href="#E262-p1vl0ehb" transform="translate(913, 810) scale(0.72, 0.72)"/></g></g><g data-id="b1dnu8j0" data-class="meterSig" class="meterSig"><use href="#E08A-p1vl0ehb" transform="translate(1234, 900) scale(0.72, 0.72)"/></g><g data-class="ledgerLines" class="ledgerLines below"><g data-class="lineDash" class="lineDash" data-related="#jb30a0q"><path d="M2072 1440 L2358 1440" stroke-width="22"/></g><g data-class="lineDash" class="lineDash" data-related="#kg1ti8n"><path d="M2388 1440 L2674 1440" stroke-width="22"/></g><g data-class="lineDash" class="lineDash" data-related="#opgzdnx"><path d="M3652 1440 L3938 1440" stroke-width="22"/></g><g data-class="lineDash" class="lineDash" data-related="#po71nu3"><path d="M3968 1440 L4254 1440" stroke-width="22"/></g><g data-class="lineDash" class="lineDash" data-related="#qssejq"><path d="M4284 1440 L4570 1440" stroke-width="22"/></g><g data-class="lineDash" class="lineDash" data-related="#jb30a0q"><path d="M2072 1620 L2358 1620" stroke-width="22"/></g><g data-class="lineDash" class="lineDash" data-related="#kg1ti8n"><path d="M2388 1620 L2674 1620" stroke-width="22"/></g><g data-class="lineDash" class="lineDash" data-related="#opgzdnx"><path d="M3652 1620 L3938 1620" stroke-width="22"/></g><g data-class="lineDash" class="lineDash" data-related="#qssejq"><path d="M4284 1620 L4570 1620" stroke-width="22"/></g><g data-class="lineDash" class="lineDash" data-related="#jb30a0q"><path d="M2072 1800 L2358 1800" stroke-width="22"/></g></g><g data-id="o1fd0fww" data-class="layer" class="layer"><g data-id="i10v592l" data-class="rest" class="rest"><use href="#E4E7-p1vl0ehb" transform="translate(1802, 900) scale(0.72, 0.72)"/></g><g data-id="texirgq" data-class="beam" class="beam"><polygon stroke-opacity="1" fill-opacity="1" points="2310,900 2960,720 2960,810 2310,990"/><polygon stroke-opacity="1" fill-opacity="1" points="2310,1035 2635,945 2635,1035 2310,1125"/><polygon stroke-opacity="1" fill-opacity="1" points="2635,945 2960,855 2960,945 2635,1035"/><g data-id="jb30a0q" data-class="note" class="note"><g data-class="notehead" class="notehead"><use href="#E0A4-p1vl0ehb" transform="translate(2102, 1800) scale(0.72, 0.72)"/></g><g data-id="dnn2vbs" data-class="stem" class="stem"><path d="M2319 1772 L2319 918" stroke-width="18"/></g><g data-id="vhvsbio" data-class="accid" class="accid"/></g><g data-id="kg1ti8n" data-class="note" class="note"><g data-class="notehead" class="notehead"><use href="#E0A4-p1vl0ehb" transform="translate(2418, 1620) scale(0.72, 0.72)"/></g><g data-id="ex1zdtj" data-class="stem" class="stem"><path d="M2635 1592 L2635 828" stroke-width="18"/></g></g><g data-id="l1wz3grq" data-class="note" class="note"><g data-class="notehead" class="notehead"><use href="#E0A4-p1vl0ehb" transform="translate(2734, 1350) scale(0.72, 0.72)"/></g><g data-id="f3t1rli" data-class="stem" class="stem"><path d="M2951 1322 L2951 738" stroke-width="18"/></g></g></g><g data-id="u16f77as" data-class="beam" class="beam"><polygon stroke-opacity="1" fill-opacity="1" points="3258,540 4224,720 4224,810 3258,630"/><polygon stroke-opacity="1" fill-opacity="1" points="3258,675 3583,735 3583,825 3258,765"/><polygon stroke-opacity="1" fill-opacity="1" points="3583,735 3899,796 3899,886 3583,825"/><polygon stroke-opacity="1" fill-opacity="1" points="3899,796 4224,855 4224,945 3899,886"/><g data-id="m1sl81pd" data-class="note" class="note"><g data-class="notehead" class="notehead"><use href="#E0A4-p1vl0ehb" transform="translate(3050, 1170) scale(0.72, 0.72)"/></g><g data-id="g1lkd4sx" data-class="stem" class="stem"><path d="M3267 1142 L3267 558" stroke-width="18"/></g><g data-id="w1uq8vhl" data-class="accid" class="accid"/></g><g data-id="n1o8n0dp" data-class="note" class="note"><g data-class="notehead" class="notehead"><use href="#E0A4-p1vl0ehb" transform="translate(3366, 1350) scale(0.72, 0.72)"/></g><g data-id="h1xvgnvj" data-class="stem" class="stem"><path d="M3583 1322 L3583 618" stroke-width="18"/></g></g><g data-id="opgzdnx" data-class="note" class="note"><g data-class="notehead" class="notehead"><use href="#E0A4-p1vl0ehb" transform="translate(3682, 1620) scale(0.72, 0.72)"/></g><g data-id="i13zleir" data-class="stem" class="stem"><path d="M3899 1592 L3899 679" stroke-width="18"/></g></g><g data-id="po71nu3" data-class="note" class="note"><g data-class="notehead" class="notehead"><use href="#E0A4-p1vl0ehb" transform="translate(3998, 1530) scale(0.72, 0.72)"/></g><g data-id="jqa7866" data-class="stem" class="stem"><path d="M4215 1502 L4215 738" stroke-width="18"/></g></g></g><g data-id="qssejq" data-class="note" class="note"><g data-class="notehead" class="notehead"><use href="#E0A3-p1vl0ehb" transform="translate(4314, 1620) scale(0.72, 0.72)"/></g><g data-id="ksapx0u" data-class="stem" class="stem"><path d="M4531 1592 L4531 900" stroke-width="18"/></g></g></g></g><g data-id="y1ykvy8q" data-class="barLine" class="barLine"><path d="M5364 540 L5364 1260" stroke-width="27"/></g></g><g data-id="z3zzcwo" data-class="measure" class="measure"><g data-id="p6nhiv1" data-class="staff" class="staff"><path d="M5377 540 L6887 540" stroke-width="13"/><path d="M5377 720 L6887 720" stroke-width="13"/><path d="M5377 900 L6887 900" stroke-width="13"/><path d="M5377 1080 L6887 1080" stroke-width="13"/><path d="M5377 1260 L6887 1260" stroke-width="13"/><g data-id="q1ofshgg" data-class="layer" class="layer"><g data-id="r1kpig78" data-class="note" class="note"><g data-class="notehead" class="notehead"><use href="#E0A4-p1vl0ehb" transform="translate(5557, 990) scale(0.72, 0.72)"/></g><g data-id="m1dchfqs" data-class="dots" class="dots"><ellipse cx="5873" cy="990" rx="36" ry="36" fill-opacity="1" stroke-opacity="1"/></g><g data-id="lh6locr" data-class="stem" class="stem"><path d="M5774 962 L5774 360" stroke-width="18"/></g></g><g data-id="sms5tux" data-class="note" class="note"><g data-class="notehead" class="notehead"><use href="#E0A4-p1vl0ehb" transform="translate(6437, 990) scale(0.72, 0.72)"/></g><g data-id="n3u8b9p" data-class="stem" class="stem"><path d="M6654 962 L6654 360" stroke-width="18"/><g data-id="oeyu1b1" data-class="flag" class="flag"><use href="#E240-p1vl0ehb" transform="translate(6645, 360) scale(0.72, 0.72)"/></g></g></g></g></g><g data-id="hczafq7" data-class="barLine" class="barLine"/></g><g data-id="y2tr2s9" data-class="systemMilestoneEnd" class="systemMilestoneEnd bjuqfu2"/></g><g data-id="z1b4qdr7" data-class="pageMilestoneEnd" class="pageMilestoneEnd z1xq22t4"/><g data-id="a516cpe" data-class="pageMilestoneEnd" class="pageMilestoneEnd y1duseok"/></g></svg></svg>