<svg viewBox="0 0 560 84" version="1.1" xmlns="http://www.w3.org/2000/svg" xmlns:xlink="http://www.w3.org/1999/xlink" overflow="visible" id="epf7uk7"><desc>Engraved by Verovio 5.6.0-85e7620</desc><defs><g id="E050-epf7uk7"><path transform="scale(1,-1)" d="M441 -245c-23 -4 -48 -6 -76 -6c-59 0 -102 7 -130 20c-88 42 -150 93 -187 154c-26 44 -43 103 -48 176c0 6 -1 13 -1 19c0 54 15 111 45 170c29 57 65 106 110 148s96 85 153 127c-3 16 -8 46 -13 92c-4 43 -5 73 -5 89c0 117 16 172 69 257c34 54 64 82 89 82 c21 0 43 -30 69 -92s39 -115 41 -159v-15c0 -109 -21 -162 -67 -241c-13 -20 -63 -90 -98 -118c-13 -9 -25 -19 -37 -29l31 -181c8 1 18 2 28 2c58 0 102 -12 133 -35c59 -43 92 -104 98 -184c1 -7 1 -15 1 -22c0 -123 -87 -209 -181 -248c8 -57 17 -110 25 -162 c5 -31 6 -58 6 -80c0 -30 -5 -53 -14 -70c-35 -64 -88 -99 -158 -103c-5 0 -11 -1 -16 -1c-37 0 -72 10 -108 27c-50 24 -77 59 -80 105v11c0 29 7 55 20 76c18 28 45 42 79 44h6c49 0 93 -42 97 -87v-9c0 -51 -34 -86 -105 -106c17 -24 51 -36 102 -36c62 0 116 43 140 85 c9 16 13 41 13 74c0 20 -1 42 -5 67c-8 53 -18 106 -26 159zM461 939c-95 0 -135 -175 -135 -286c0 -24 2 -48 5 -71c50 39 92 82 127 128c40 53 60 100 60 140v8c-4 53 -22 81 -55 81h-2zM406 119l54 -326c73 25 110 78 110 161c0 7 0 15 -1 23c-7 95 -57 142 -151 142h-12 zM382 117c-72 -2 -128 -47 -128 -120v-7c2 -46 43 -99 75 -115c-3 -2 -7 -5 -10 -10c-70 33 -116 88 -123 172v11c0 68 44 126 88 159c23 17 49 29 78 36l-29 170c-21 -13 -52 -37 -92 -73c-50 -44 -86 -84 -109 -119c-45 -69 -67 -130 -67 -182v-13c5 -68 35 -127 93 -176 s125 -73 203 -73c25 0 50 3 75 9c-19 111 -36 221 -54 331z"/></g><g id="E260-epf7uk7"><path transform="scale(1,-1)" d="M20 110c32 16 54 27 93 27c26 0 35 -3 54 -13c13 -7 24 -20 27 -38l4 -25c0 -28 -16 -57 -45 -89c-23 -25 -39 -44 -65 -68l-88 -79v644h20v-359zM90 106c-32 0 -48 -10 -70 -29v-194c31 31 54 59 71 84c21 32 32 59 32 84c0 9 1 16 1 20c0 14 -3 21 -11 30l-8 3z"/></g><g id="E08A-epf7uk7"><path transform="scale(1,-1)" d="M340 179c-9 24 -56 41 -89 41c-46 0 -81 -28 -100 -58c-17 -28 -25 -78 -25 -150c0 -65 2 -111 8 -135c8 -31 18 -49 40 -67c20 -17 43 -25 70 -25c54 0 92 36 115 75c14 25 23 54 28 88h27c0 -63 -24 -105 -58 -141c-35 -38 -82 -56 -140 -56c-45 0 -83 13 -115 39 c-57 45 -101 130 -101 226c0 59 33 127 68 163c36 37 97 72 160 72c36 0 93 -21 121 -40c11 -8 23 -17 33 -30c19 -23 27 -48 27 -76c0 -51 -35 -88 -86 -88c-43 0 -76 27 -76 68c0 26 7 35 21 51c15 17 32 27 58 32c7 2 14 7 14 11z"/></g><g id="E4E7-epf7uk7"><path transform="scale(1,-1)" d="M133 -111c0 -33 -21 -50 -52 -55c10 -3 18 -4 25 -4c40 0 69 24 90 47l66 197c-36 -18 -64 -25 -112 -25c-23 0 -38 3 -45 8c-37 7 -55 27 -55 59c8 35 30 54 68 58c45 -6 49 -13 64 -48c0 -3 1 -5 1 -7c0 -27 -25 -46 -52 -49c6 -4 15 -6 26 -6c32 2 62 14 88 29 c32 19 44 36 59 71l7 1l10 2h4c-72 -220 -143 -439 -215 -659h-37l108 324c-20 -13 -51 -20 -82 -20c-21 0 -35 4 -43 10c-37 6 -55 26 -55 58c8 35 31 56 68 60c43 -8 48 -13 64 -51z"/></g><g id="E0A4-epf7uk7"><path transform="scale(1,-1)" d="M0 -39c0 68 73 172 200 172c66 0 114 -37 114 -95c0 -84 -106 -171 -218 -171c-64 0 -96 30 -96 94z"/></g></defs><style type="text/css">#epf7uk7 g.page-margin {font-family:Times,serif;}#epf7uk7 g.ending, #epf7uk7 g.fing, #epf7uk7 g.reh, #epf7uk7 g.tempo {font-weight:bold;}#epf7uk7 g.dir, #epf7uk7 g.dynam, #epf7uk7 g.mNum {font-style:italic;}#epf7uk7 g.label {font-weight:normal;}#epf7uk7 path {stroke:currentColor}</style><svg class="definition-scale" color="black" viewBox="0 0 14000 2100"><g class="page-margin" transform="translate(0, 150)"><g data-id="j1thegte" data-class="mdiv" class="mdiv pageMilestone"/><g data-id="knxqg35" data-class="score" class="score pageMilestone"/><g data-id="v1kaq0n6" data-class="system" class="system"><g data-id="m39avlc" data-class="section" class="section systemMilestone"/><g data-id="fimlx2r" data-class="measure" class="measure"><g data-id="ykvx87l" data-class="staff" class="staff"><path d="M0 540 L6536 540" stroke-width="13"/><path d="M0 720 L6536 720" stroke-width="13"/><path d="M0 900 L6536 900" stroke-width="13"/><path d="M0 1080 L6536 1080" stroke-width="13"/><path d="M0 1260 L6536 1260" stroke-width="13"/><g data-id="z1suow" data-class="clef" class="clef"><use href="#E050-epf7uk7" transform="translate(90, 1080) scale(0.72, 0.72)"/></g><g data-id="akvoo0p" data-class="keySig" class="keySig"><g data-id="b12hgyxb" data-class="keyAccid" class="keyAccid"><use href="#E260-epf7uk7" transform="translate(735, 900) scale(0.72, 0.72)"/></g><g data-id="c11w9tbk" data-class="keyAccid" class="keyAccid"><use href="#E260-epf7uk7" transform="translate(915, 630) scale(0.72, 0.72)"/></g><g data-id="d17m9oig" data-class="keyAccid" class="keyAccid"><use href="#E260-epf7uk7" transform="translate(1095, 990) scale(0.72, 0.72)"/></g></g><g data-id="es4cnjn" data-class="meterSig" class="meterSig"><use href="#E08A-epf7uk7" transform="translate(1417, 900) scale(0.72, 0.72)"/></g><g data-id="z7bk1qv" data-class="layer" class="layer"><g data-id="p7vspny" data-class="rest" class="rest"><use href="#E4E7-epf7uk7" transform="translate(1999, 900) scale(0.72, 0.72)"/></g><g data-id="o1wcth61" data-class="beam" class="beam"><polygon stroke-opacity="1" fill-opacity="1" points="2554,675 3250,675 3250,765 2554,765"/><polygon stroke-opacity="1" fill-opacity="1" points="2554,810 2902,810 2902,900 2554,900"/><polygon stroke-opacity="1" fill-opacity="1" points="2902,810 3250,810 3250,900 2902,900"/><g data-id="r4b4kr7" data-class="note" class="note"><g data-class="notehead" class="notehead"><use href="#E0A4-epf7uk7" transform="translate(2346, 1260) scale(0.72, 0.72)"/></g><g data-id="tb3k3dy" data-class="stem" class="stem"><path d="M2563 1232 L2563 693" stroke-width="18"/></g><g data-id="u1nwfo3e" data-class="accid" class="accid"/></g><g data-id="snbv4u7" data-class="note" class="note"><g data-class="notehead" class="notehead"><use href="#E0A4-epf7uk7" transform="translate(2685, 1260) scale(0.72, 0.72)"/></g><g data-id="udedknf" data-class="stem" class="stem"><path d="M2902 1232 L2902 693" stroke-width="18"/></g><g data-id="v1hlosrt" data-class="accid" class="accid"/></g><g data-id="t1n7ea1g" data-class="note" class="note"><g data-class="notehead" class="notehead"><use href="#E0A4-epf7uk7" transform="translate(3024, 1260) scale(0.72, 0.72)"/></g><g data-id="vnzt57t" data-class="stem" class="stem"><path d="M3241 1232 L3241 693" stroke-width="18"/></g><g data-id="wz0aimv" data-class="accid" class="accid"/></g></g><g data-id="q16wq0od" data-class="rest" class="rest"><use href="#E4E7-epf7uk7" transform="translate(3363, 900) scale(0.72, 0.72)"/></g><g data-id="pxhlort" data-class="beam" class="beam"><polygon stroke-opacity="1" fill-opacity="1" points="3918,675 4615,675 4615,765 3918,765"/><polygon stroke-opacity="1" fill-opacity="1" points="3918,810 4266,810 4266,900 3918,900"/><polygon stroke-opacity="1" fill-opacity="1" points="4266,810 4615,810 4615,900 4266,900"/><g data-id="u1p9m3q5" data-class="note" class="note"><g data-class="notehead" class="notehead"><use href="#E0A4-epf7uk7" transform="translate(3710, 1260) scale(0.72, 0.72)"/></g><g data-id="w1xlmcro" data-class="stem" class="stem"><path d="M3927 1232 L3927 693" stroke-width="18"/></g><g data-id="x3gm4td" data-class="accid" class="accid"/></g><g data-id="vukttcv" data-class="note" class="note"><g data-class="notehead" class="notehead"><use href="#E0A4-epf7uk7" transform="translate(4049, 1260) scale(0.72, 0.72)"/></g><g data-id="xzab73s" data-class="stem" class="stem"><path d="M4266 1232 L4266 693" stroke-width="18"/></g><g data-id="yeoms6j" data-class="accid" class="accid"/></g><g data-id="wslc8xs" data-class="note" class="note"><g data-class="notehead" class="notehead"><use href="#E0A4-epf7uk7" transform="translate(4389, 1260) scale(0.72, 0.72)"/></g><g data-id="y1wtgdmt" data-class="stem" class="stem"><path d="M4606 1232 L4606 693" stroke-width="18"/></g><g data-id="zk21t3c" data-class="accid" class="accid"/></g></g><g data-id="x1gfazm6" data-class="note" class="note"><g data-class="notehead" class="notehead"><use href="#E0A4-epf7uk7" transform="translate(4728, 990) scale(0.72, 0.72)"/></g><g data-id="z1ar0fuw" data-class="stem" class="stem"><path d="M4945 962 L4945 360" stroke-width="18"/></g><g data-id="ahbc0qx" data-class="accid" class="accid"/></g><g data-id="q1w2bcoq" data-class="beam" class="beam"><polygon stroke-opacity="1" fill-opacity="1" points="5715,405 6241,450 6241,540 5715,495"/><g data-id="yjhuvbs" data-class="note" class="note"><g data-class="notehead" class="notehead"><use href="#E0A4-epf7uk7" transform="translate(5507, 1080) scale(0.72, 0.72)"/></g><g data-id="a12kony3" data-class="stem" class="stem"><path d="M5724 1052 L5724 423" stroke-width="18"/></g></g><g data-id="zt9g41b" data-class="note" class="note"><g data-class="notehead" class="notehead"><use href="#E0A4-epf7uk7" transform="translate(6015, 1170) scale(0.72, 0.72)"/></g><g data-id="b13nwc34" data-class="stem" class="stem"><path d="M6232 1142 L6232 468" stroke-width="18"/></g></g></g></g></g><g data-id="nogwy2" data-class="barLine" class="barLine"><path d="M6523 540 L6523 1260" stroke-width="27"/></g></g><g data-id="o1oxz6kz" data-class="measure" class="measure"><g data-id="a1sfoeyg" data-class="staff" class="staff"><path d="M6536 540 L10563 540" stroke-width="13"/><path d="M6536 720 L10563 720" stroke-width="13"/><path d="M6536 900 L10563 900" stroke-width="13"/><path d="M6536 1080 L10563 1080" stroke-width="13"/><path d="M6536 1260 L10563 1260" stroke-width="13"/><g data-id="buz9qdp" data-class="layer" class="layer"><g data-id="rg8naq3" data-class="beam" class="beam"><polygon stroke-opacity="1" fill-opacity="1" points="6938,675 8479,675 8479,765 6938,765"/><g data-id="a1momhta" data-class="note" class="note"><g data-class="notehead" class="notehead"><use href="#E0A4-epf7uk7" transform="translate(6730, 1260) scale(0.72, 0.72)"/></g><g data-id="c1qcqrxy" data-class="stem" class="stem"><path d="M6947 1232 L6947 693" stroke-width="18"/></g><g data-id="b1l7k8hi" data-class="accid" class="accid"/></g><g data-id="b1a7kdl9" data-class="note" class="note"><g data-class="notehead" class="notehead"><use href="#E0A4-epf7uk7" transform="translate(7238, 1260) scale(0.72, 0.72)"/></g><g data-id="d3uevvj" data-class="stem" class="stem"><path d="M7455 1232 L7455 693" stroke-width="18"/></g><g data-id="c1yuwcht" data-class="accid" class="accid"/></g><g data-id="c1levtle" data-class="note" class="note"><g data-class="notehead" class="notehead"><use href="#E0A4-epf7uk7" transform="translate(7745, 1350) scale(0.72, 0.72)"/></g><g data-id="eywmqlp" data-class="stem" class="stem"><path d="M7962 1322 L7962 693" stroke-width="18"/></g></g><g data-id="d1o1mf9b" data-class="note" class="note"><g data-class="notehead" class="notehead"><use href="#E0A4-epf7uk7" transform="translate(8253, 1260) scale(0.72, 0.72)"/></g><g data-id="fjpkeo8" data-class="stem" class="stem"><path d="M8470 1232 L8470 693" stroke-width="18"/></g><g data-id="d17ak9i" data-class="accid" class="accid"/></g></g><g data-id="e1w2nrvg" data-class="note" class="note"><g data-class="notehead" class="notehead"><use href="#E0A4-epf7uk7" transform="translate(8761, 1080) scale(0.72, 0.72)"/></g><g data-id="g3qcb11" data-class="stem" class="stem"><path d="M8978 1052 L8978 450" stroke-width="18"/></g></g><g data-id="sagpp1p" data-class="beam" class="beam"><polygon stroke-opacity="1" fill-opacity="1" points="9749,540 10422,630 10422,720 9749,630"/><polygon stroke-opacity="1" fill-opacity="1" points="10196,736 10422,765 10422,855 10196,826"/><g data-id="f1rfoe1k" data-class="note" class="note"><g data-class="notehead" class="notehead"><use href="#E0A4-epf7uk7" transform="translate(9541, 1170) scale(0.72, 0.72)"/></g><g data-id="igj7ztu" data-class="dots" class="dots"><ellipse cx="9857" cy="1170" rx="36" ry="36" fill-opacity="1" stroke-opacity="1"/></g><g data-id="hepnii0" data-class="stem" class="stem"><path d="M9758 1142 L9758 558" stroke-width="18"/></g></g><g data-id="gtorgdx" data-class="note" class="note"><g data-class="notehead" class="notehead"><use href="#E0A4-epf7uk7" transform="translate(10196, 1260) scale(0.72, 0.72)"/></g><g data-id="jxrbp0b" data-class="stem" class="stem"><path d="M10413 1232 L10413 648" stroke-width="18"/></g><g data-id="e8pjcws" data-class="accid" class="accid"/></g></g></g></g><g data-id="w11p44q8" data-class="barLine" class="barLine"><path d="M10550 540 L10550 1260" stroke-width="27"/></g></g><g data-id="x1mxlr4t" data-class="measure" class="measure"><g data-id="caflit6" data-class="staff" class="staff"><path d="M10563 540 L14001 540" stroke-width="13"/><path d="M10563 720 L14001 720" stroke-width="13"/><path d="M10563 900 L14001 900" stroke-width="13"/><path d="M10563 1080 L14001 1080" stroke-width="13"/><path d="M10563 1260 L14001 1260" stroke-width="13"/><g data-id="d1n9xa7i" data-class="layer" class="layer"><g data-id="h9wpauz" data-class="note" class="note"><g data-class="notehead" class="notehead"><use href="#E0A4-epf7uk7" transform="translate(10757, 1260) scale(0.72, 0.72)"/></g><g data-id="l1x5aw9r" data-class="dots" class="dots"><ellipse cx="11073" cy="1170" rx="36" ry="36" fill-opacity="1" stroke-opacity="1"/></g><g data-id="k17rkbgd" data-class="stem" class="stem"><path d="M10974 1232 L10974 630" stroke-width="18"/></g><g data-id="f1t5v38k" data-class="accid" class="accid"/></g><g data-id="t1tamzcd" data-class="beam" class="beam"><polygon stroke-opacity="1" fill-opacity="1" points="11959,450 12316,405 12316,495 11959,540"/><polygon stroke-opacity="1" fill-opacity="1" points="11959,585 12316,540 12316,630 11959,675"/><g data-id="imsyb49" data-class="note" class="note"><g data-class="notehead" class="notehead"><use href="#E0A4-epf7uk7" transform="translate(11751, 1170) scale(0.72, 0.72)"/></g><g data-id="m1jsb5cf" data-class="stem" class="stem"><path d="M11968 1142 L11968 468" stroke-width="18"/></g></g><g data-id="j15difzp" data-class="note" class="note"><g data-class="notehead" class="notehead"><use href="#E0A4-epf7uk7" transform="translate(12090, 1080) scale(0.72, 0.72)"/></g><g data-id="n1qsodjx" data-class="stem" class="stem"><path d="M12307 1052 L12307 423" stroke-width="18"/></g></g></g><g data-id="k1jf6rmi" data-class="note" class="note"><g data-class="notehead" class="notehead"><use href="#E0A4-epf7uk7" transform="translate(12430, 990) scale(0.72, 0.72)"/></g><g data-id="oi1wxqw" data-class="stem" class="stem"><path d="M12647 962 L12647 360" stroke-width="18"/></g><g data-id="g1cu0v62" data-class="accid" class="accid"/></g><g data-id="l1c1n3p0" data-class="note" class="note"><g data-class="notehead" class="notehead"><use href="#E0A4-epf7uk7" transform="translate(13209, 1080) scale(0.72, 0.72)"/></g><g data-id="pdq55lk" data-class="stem" class="stem"><path d="M13426 1052 L13426 450" stroke-width="18"/></g></g></g></g><g data-id="fq9y9mb" data-class="barLine" class="barLine"><path d="M13988 540 L13988 1260" stroke-width="27"/></g></g></g></g></svg></svg>