<svg viewBox="0 0 560 84" version="1.1" xmlns="http://www.w3.org/2000/svg" xmlns:xlink="http://www.w3.org/1999/xlink" overflow="visible" id="w1aj0i0i"><desc>Engraved by Verovio 5.6.0-85e7620</desc><defs><g id="E050-w1aj0i0i"><path transform="scale(1,-1)" d="M441 -245c-23 -4 -48 -6 -76 -6c-59 0 -102 7 -130 20c-88 42 -150 93 -187 154c-26 44 -43 103 -48 176c0 6 -1 13 -1 19c0 54 15 111 45 170c29 57 65 106 110 148s96 85 153 127c-3 16 -8 46 -13 92c-4 43 -5 73 -5 89c0 117 16 172 69 257c34 54 64 82 89 82 c21 0 43 -30 69 -92s39 -115 41 -159v-15c0 -109 -21 -162 -67 -241c-13 -20 -63 -90 -98 -118c-13 -9 -25 -19 -37 -29l31 -181c8 1 18 2 28 2c58 0 102 -12 133 -35c59 -43 92 -104 98 -184c1 -7 1 -15 1 -22c0 -123 -87 -209 -181 -248c8 -57 17 -110 25 -162 c5 -31 6 -58 6 -80c0 -30 -5 -53 -14 -70c-35 -64 -88 -99 -158 -103c-5 0 -11 -1 -16 -1c-37 0 -72 10 -108 27c-50 24 -77 59 -80 105v11c0 29 7 55 20 76c18 28 45 42 79 44h6c49 0 93 -42 97 -87v-9c0 -51 -34 -86 -105 -106c17 -24 51 -36 102 -36c62 0 116 43 140 85 c9 16 13 41 13 74c0 20 -1 42 -5 67c-8 53 -18 106 -26 159zM461 939c-95 0 -135 -175 -135 -286c0 -24 2 -48 5 -71c50 39 92 82 127 128c40 53 60 100 60 140v8c-4 53 -22 81 -55 81h-2zM406 119l54 -326c73 25 110 78 110 161c0 7 0 15 -1 23c-7 95 -57 142 -151 142h-12 zM382 117c-72 -2 -128 -47 -128 -120v-7c2 -46 43 -99 75 -115c-3 -2 -7 -5 -10 -10c-70 33 -116 88 -123 172v11c0 68 44 126 88 159c23 17 49 29 78 36l-29 170c-21 -13 -52 -37 -92 -73c-50 -44 -86 -84 -109 -119c-45 -69 -67 -130 -67 -182v-13c5 -68 35 -127 93 -176 s125 -73 203 -73c25 0 50 3 75 9c-19 111 -36 221 -54 331z"/></g><g id="E260-w1aj0i0i"><path transform="scale(1,-1)" d="M20 110c32 16 54 27 93 27c26 0 35 -3 54 -13c13 -7 24 -20 27 -38l4 -25c0 -28 -16 -57 -45 -89c-23 -25 -39 -44 -65 -68l-88 -79v644h20v-359zM90 106c-32 0 -48 -10 -70 -29v-194c31 31 54 59 71 84c21 32 32 59 32 84c0 9 1 16 1 20c0 14 -3 21 -11 30l-8 3z"/></g><g id="E082-w1aj0i0i"><path transform="scale(1,-1)" d="M124 -185c-18 0 -55 -14 -65 -65h-36l-3 30c0 25 6 45 18 63c11 19 22 30 39 43l121 82l37 29c15 11 27 29 38 54c12 24 18 47 18 70c0 40 -19 88 -94 88c-25 0 -32 0 -50 -8c-14 -5 -23 -12 -26 -22c3 -9 7 -15 10 -18l24 -17c12 -7 17 -11 27 -21c5 -7 7 -16 7 -27 c0 -12 0 -57 -79 -74c-30 0 -76 26 -76 94c0 66 81 135 197 135c72 0 181 -32 181 -150c0 -53 -32 -95 -113 -133l-91 -41c-26 -11 -45 -23 -57 -37l49 7c84 0 115 -41 148 -41c20 0 33 20 39 61h35c0 -152 -68 -168 -114 -168c-17 0 -65 0 -79 7h10l-28 17 c-49 37 -69 40 -87 42z"/></g><g id="E084-w1aj0i0i"><path transform="scale(1,-1)" d="M20 -78c84 97 114 180 134 329h170c-13 -32 -82 -132 -99 -151l-84 -97c-33 -36 -59 -63 -80 -81h162v102l127 123v-225h57v-39h-57v-34c0 -43 19 -65 57 -65v-34h-244v36c48 0 60 26 60 70v27h-203v39z"/></g><g id="E4E5-w1aj0i0i"><path transform="scale(1,-1)" d="M107 292c-13 24 -30 49 -52 71c-1 1 0 2 0 3l-2 2c3 3 4 4 6 4c12 0 26 -7 40 -20s44 -40 89 -81c26 -24 28 -29 46 -47c4 -4 8 -9 10 -14c6 -8 8 -16 8 -27c0 -19 -12 -40 -36 -61c-28 -23 -49 -38 -61 -73c-4 -11 -7 -27 -10 -50c13 -43 34 -83 59 -121 c31 -47 59 -79 101 -129c-8 0 -26 7 -54 20l-62 29l-21 6l-23 1c-25 0 -45 -10 -60 -30l-4 -14l-1 -12c0 -33 20 -56 39 -78c8 -9 17 -18 26 -26c17 -15 27 -24 28 -30l-3 -3c-11 5 -19 10 -25 15c-9 3 -37 21 -45 26c-24 14 -45 32 -63 51c-19 21 -37 44 -37 71 c0 63 27 95 80 95c41 0 86 -18 136 -52c-19 26 -37 48 -55 66c-23 23 -48 44 -73 65c-28 23 -47 40 -58 53s-17 26 -18 39c75 64 113 125 113 183c0 27 -7 48 -18 68z"/></g><g id="E4E6-w1aj0i0i"><path transform="scale(1,-1)" d="M0 123c7 34 33 56 69 60c29 -3 43 -9 53 -29c4 -8 7 -15 10 -22c0 -21 -1 -25 -11 -35c-5 -8 -18 -14 -40 -20l12 -3l15 -1c44 0 97 26 122 56c10 11 18 26 24 42c7 1 15 2 22 3l-140 -424h-36l111 330c-10 -6 -27 -12 -53 -16l-52 -8h-10l-20 1c-1 0 -8 3 -21 6 c-37 9 -55 28 -55 60z"/></g><g id="E0A4-w1aj0i0i"><path transform="scale(1,-1)" d="M0 -39c0 68 73 172 200 172c66 0 114 -37 114 -95c0 -84 -106 -171 -218 -171c-64 0 -96 30 -96 94z"/></g><g id="E241-w1aj0i0i"><path transform="scale(1,-1)" d="M179 646c-4 8 -17 30 -18 33l-4 10c0 3 2 5 5 5s7 -2 13 -7c23 -33 46 -81 66 -132c22 -57 35 -125 35 -163c0 -104 -60 -183 -122 -241c-63 -59 -57 -53 -61 -56c-38 -34 -63 -95 -71 -95h-22v190c40 7 69 11 87 16c88 27 168 95 168 200c0 30 -12 89 -30 138 c-17 47 -31 73 -46 102z"/></g></defs><style type="text/css">#w1aj0i0i g.page-margin {font-family:Times,serif;}#w1aj0i0i g.ending, #w1aj0i0i g.fing, #w1aj0i0i g.reh, #w1aj0i0i g.tempo {font-weight:bold;}#w1aj0i0i g.dir, #w1aj0i0i g.dynam, #w1aj0i0i g.mNum {font-style:italic;}#w1aj0i0i g.label {font-weight:normal;}#w1aj0i0i path {stroke:currentColor}</style><svg class="definition-scale" color="black" viewBox="0 0 14000 2100"><g class="page-margin" transform="translate(0, 150)"><g data-id="b99w7f" data-class="mdiv" class="mdiv pageMilestone"/><g data-id="c1alop18" data-class="score" class="score pageMilestone"/><g data-id="h1u1o4bt" data-class="system" class="system"><g data-id="eto4s29" data-class="section" class="section systemMilestone"/><g data-id="x1s78cbh" data-class="measure" class="measure"><g data-id="q1shval8" data-class="staff" class="staff"><path d="M0 540 L3399 540" stroke-width="13"/><path d="M0 720 L3399 720" stroke-width="13"/><path d="M0 900 L3399 900" stroke-width="13"/><path d="M0 1080 L3399 1080" stroke-width="13"/><path d="M0 1260 L3399 1260" stroke-width="13"/><g data-id="n122skc0" data-class="clef" class="clef"><use href="#E050-w1aj0i0i" transform="translate(90, 1080) scale(0.72, 0.72)"/></g><g data-id="o1fdmqbf" data-class="keySig" class="keySig"><g data-id="pk9pttv" data-class="keyAccid" class="keyAccid"><use href="#E260-w1aj0i0i" transform="translate(735, 900) scale(0.72, 0.72)"/></g><g data-id="qixq2tj" data-class="keyAccid" class="keyAccid"><use href="#E260-w1aj0i0i" transform="translate(915, 630) scale(0.72, 0.72)"/></g></g><g data-id="rnypsfb" data-class="meterSig" class="meterSig"><use href="#E082-w1aj0i0i" transform="translate(1223, 720) scale(0.72, 0.72)"/><use href="#E084-w1aj0i0i" transform="translate(1228, 1080) scale(0.72, 0.72)"/></g><g data-id="r10gr1s0" data-class="layer" class="layer"><g data-id="p1qfxpzh" data-class="rest" class="rest"><use href="#E4E5-w1aj0i0i" transform="translate(1796, 900) scale(0.72, 0.72)"/></g><g data-id="q1et9l1n" data-class="rest" class="rest"><use href="#E4E6-w1aj0i0i" transform="translate(2486, 900) scale(0.72, 0.72)"/></g><g data-id="r1nvzyn3" data-class="note" class="note"><g data-class="notehead" class="notehead"><use href="#E0A4-w1aj0i0i" transform="translate(2936, 720) scale(0.72, 0.72)"/></g><g data-id="g1caz3ng" data-class="stem" class="stem"><path d="M2945 748 L2945 1350" stroke-width="18"/><g data-id="h1y2co1" data-class="flag" class="flag"><use href="#E241-w1aj0i0i" transform="translate(2936, 1350) scale(0.72, 0.72)"/></g></g></g></g></g><g data-id="fioapdo" data-class="barLine" class="barLine"><path d="M3386 540 L3386 1260" stroke-width="27"/></g></g><g data-id="g14zv3wk" data-class="measure" class="measure"><g data-id="s15zsbcy" data-class="staff" class="staff"><path d="M3399 540 L5388 540" stroke-width="13"/><path d="M3399 720 L5388 720" stroke-width="13"/><path d="M3399 900 L5388 900" stroke-width="13"/><path d="M3399 1080 L5388 1080" stroke-width="13"/><path d="M3399 1260 L5388 1260" stroke-width="13"/><g data-id="t1jc1qad" data-class="layer" class="layer"><g data-id="w1bajiaf" data-class="beam" class="beam"><polygon stroke-opacity="1" fill-opacity="1" points="3579,1260 4177,1440 4177,1350 3579,1170"/><polygon stroke-opacity="1" fill-opacity="1" points="3951,1240 4177,1305 4177,1215 3951,1150"/><g data-id="s11tq1lo" data-class="note" class="note"><g data-class="notehead" class="notehead"><use href="#E0A4-w1aj0i0i" transform="translate(3579, 630) scale(0.72, 0.72)"/></g><g data-id="j1s7nk01" data-class="dots" class="dots"><ellipse cx="3895" cy="630" rx="36" ry="36" fill-opacity="1" stroke-opacity="1"/></g><g data-id="ixirgj9" data-class="stem" class="stem"><path d="M3588 658 L3588 1242" stroke-width="18"/></g><g data-id="y1e6ornp" data-class="accid" class="accid"/></g><g data-id="t1r17jpm" data-class="note" class="note"><g data-class="notehead" class="notehead"><use href="#E0A4-w1aj0i0i" transform="translate(4159, 810) scale(0.72, 0.72)"/></g><g data-id="k1sfdtgp" data-class="stem" class="stem"><path d="M4168 838 L4168 1422" stroke-width="18"/></g></g></g><g data-id="x1nq9bzg" data-class="beam" class="beam"><polygon stroke-opacity="1" fill-opacity="1" points="4683,360 5151,315 5151,405 4683,450"/><g data-id="u1cqv2of" data-class="note" class="note"><g data-class="notehead" class="notehead"><use href="#E0A4-w1aj0i0i" transform="translate(4475, 990) scale(0.72, 0.72)"/></g><g data-id="l1hrmems" data-class="stem" class="stem"><path d="M4692 962 L4692 378" stroke-width="18"/></g></g><g data-id="v1jtxjz9" data-class="note" class="note"><g data-class="notehead" class="notehead"><use href="#E0A4-w1aj0i0i" transform="translate(4925, 900) scale(0.72, 0.72)"/></g><g data-id="m15rbjpr" data-class="stem" class="stem"><path d="M5142 872 L5142 333" stroke-width="18"/></g><g data-id="z1t1775h" data-class="accid" class="accid"/></g></g></g></g><g data-id="o28p6al" data-class="barLine" class="barLine"><path d="M5375 540 L5375 1260" stroke-width="27"/></g></g><g data-id="bejqrsf" data-class="systemMilestoneEnd" class="systemMilestoneEnd eto4s29"/></g><g data-id="c1ypra1p" data-class="pageMilestoneEnd" class="pageMilestoneEnd c1alop18"/><g data-id="djeq9in" data-class="pageMilestoneEnd" class="pageMilestoneEnd b99w7f"/></g></svg></svg>