<svg viewBox="0 0 560 84" version="1.1" xmlns="http://www.w3.org/2000/svg" xmlns:xlink="http://www.w3.org/1999/xlink" overflow="visible" id="ndz7kev"><desc>Engraved by Verovio 5.6.0-85e7620</desc><defs><g id="E050-ndz7kev"><path transform="scale(1,-1)" d="M441 -245c-23 -4 -48 -6 -76 -6c-59 0 -102 7 -130 20c-88 42 -150 93 -187 154c-26 44 -43 103 -48 176c0 6 -1 13 -1 19c0 54 15 111 45 170c29 57 65 106 110 148s96 85 153 127c-3 16 -8 46 -13 92c-4 43 -5 73 -5 89c0 117 16 172 69 257c34 54 64 82 89 82 c21 0 43 -30 69 -92s39 -115 41 -159v-15c0 -109 -21 -162 -67 -241c-13 -20 -63 -90 -98 -118c-13 -9 -25 -19 -37 -29l31 -181c8 1 18 2 28 2c58 0 102 -12 133 -35c59 -43 92 -104 98 -184c1 -7 1 -15 1 -22c0 -123 -87 -209 -181 -248c8 -57 17 -110 25 -162 c5 -31 6 -58 6 -80c0 -30 -5 -53 -14 -70c-35 -64 -88 -99 -158 -103c-5 0 -11 -1 -16 -1c-37 0 -72 10 -108 27c-50 24 -77 59 -80 105v11c0 29 7 55 20 76c18 28 45 42 79 44h6c49 0 93 -42 97 -87v-9c0 -51 -34 -86 -105 -106c17 -24 51 -36 102 -36c62 0 116 43 140 85 c9 16 13 41 13 74c0 20 -1 42 -5 67c-8 53 -18 106 -26 159zM461 939c-95 0 -135 -175 -135 -286c0 -24 2 -48 5 -71c50 39 92 82 127 128c40 53 60 100 60 140v8c-4 53 -22 81 -55 81h-2zM406 119l54 -326c73 25 110 78 110 161c0 7 0 15 -1 23c-7 95 -57 142 -151 142h-12 zM382 117c-72 -2 -128 -47 -128 -120v-7c2 -46 43 -99 75 -115c-3 -2 -7 -5 -10 -10c-70 33 -116 88 -123 172v11c0 68 44 126 88 159c23 17 49 29 78 36l-29 170c-21 -13 -52 -37 -92 -73c-50 -44 -86 -84 -109 -119c-45 -69 -67 -130 -67 -182v-13c5 -68 35 -127 93 -176 s125 -73 203 -73c25 0 50 3 75 9c-19 111 -36 221 -54 331z"/></g><g id="E262-ndz7kev"><path transform="scale(1,-1)" d="M136 186v169h17v-164l44 14v-91l-44 -14v-165l44 12v-91l-44 -13v-155h-17v150l-76 -22v-155h-17v149l-43 -13v90l43 14v167l-43 -14v92l43 13v169h17v-163zM60 73v-167l76 22v168z"/></g><g id="E082-ndz7kev"><path transform="scale(1,-1)" d="M124 -185c-18 0 -55 -14 -65 -65h-36l-3 30c0 25 6 45 18 63c11 19 22 30 39 43l121 82l37 29c15 11 27 29 38 54c12 24 18 47 18 70c0 40 -19 88 -94 88c-25 0 -32 0 -50 -8c-14 -5 -23 -12 -26 -22c3 -9 7 -15 10 -18l24 -17c12 -7 17 -11 27 -21c5 -7 7 -16 7 -27 c0 -12 0 -57 -79 -74c-30 0 -76 26 -76 94c0 66 81 135 197 135c72 0 181 -32 181 -150c0 -53 -32 -95 -113 -133l-91 -41c-26 -11 -45 -23 -57 -37l49 7c84 0 115 -41 148 -41c20 0 33 20 39 61h35c0 -152 -68 -168 -114 -168c-17 0 -65 0 -79 7h10l-28 17 c-49 37 -69 40 -87 42z"/></g><g id="E084-ndz7kev"><path transform="scale(1,-1)" d="M20 -78c84 97 114 180 134 329h170c-13 -32 -82 -132 -99 -151l-84 -97c-33 -36 -59 -63 -80 -81h162v102l127 123v-225h57v-39h-57v-34c0 -43 19 -65 57 -65v-34h-244v36c48 0 60 26 60 70v27h-203v39z"/></g><g id="E0A4-ndz7kev"><path transform="scale(1,-1)" d="M0 -39c0 68 73 172 200 172c66 0 114 -37 114 -95c0 -84 -106 -171 -218 -171c-64 0 -96 30 -96 94z"/></g></defs><style type="text/css">#ndz7kev g.page-margin {font-family:Times,serif;}#ndz7kev g.ending, #ndz7kev g.fing, #ndz7kev g.reh, #ndz7kev g.tempo {font-weight:bold;}#ndz7kev g.dir, #ndz7kev g.dynam, #ndz7kev g.mNum {font-style:italic;}#ndz7kev g.label {font-weight:normal;}#ndz7kev path {stroke:currentColor}</style><svg class="definition-scale" color="black" viewBox="0 0 14000 2100"><g class="page-margin" transform="translate(0, 150)"><g data-id="z1ennbgd" data-class="mdiv" class="mdiv pageMilestone"/><g data-id="a1yimq5y" data-class="score" class="score pageMilestone"/><g data-id="g1fuws1v" data-class="system" class="system"><g data-id="c198zz14" data-class="section" class="section systemMilestone"/><g data-id="oiahtnz" data-class="measure" class="measure"><g data-id="o1tp35jj" data-class="staff" class="staff"><path d="M0 540 L3784 540" stroke-width="13"/><path d="M0 720 L3784 720" stroke-width="13"/><path d="M0 900 L3784 900" stroke-width="13"/><path d="M0 1080 L3784 1080" stroke-width="13"/><path d="M0 1260 L3784 1260" stroke-width="13"/><g data-id="l1ih2n2w" data-class="clef" class="clef"><use href="#E050-ndz7kev" transform="translate(90, 1080) scale(0.72, 0.72)"/></g><g data-id="m4bgqka" data-class="keySig" class="keySig"><g data-id="n1qsd1ox" data-class="keyAccid" class="keyAccid"><use href="#E262-ndz7kev" transform="translate(735, 540) scale(0.72, 0.72)"/></g><g data-id="ozc5jof" data-class="keyAccid" class="keyAccid"><use href="#E262-ndz7kev" transform="translate(913, 810) scale(0.72, 0.72)"/></g><g data-id="p4gpkoo" data-class="keyAccid" class="keyAccid"><use href="#E262-ndz7kev" transform="translate(1091, 450) scale(0.72, 0.72)"/></g></g><g data-id="q3z6i30" data-class="meterSig" class="meterSig"><use href="#E082-ndz7kev" transform="translate(1398, 720) scale(0.72, 0.72)"/><use href="#E084-ndz7kev" transform="translate(1403, 1080) scale(0.72, 0.72)"/></g><g data-id="pytchsg" data-class="layer" class="layer"><g data-id="m1ykajjf" data-class="beam" class="beam"><polygon stroke-opacity="1" fill-opacity="1" points="1971,1440 3339,1440 3339,1350 1971,1350"/><g data-id="yowr0d4" data-class="note" class="note"><g data-class="notehead" class="notehead"><use href="#E0A4-ndz7kev" transform="translate(1971, 630) scale(0.72, 0.72)"/></g><g data-id="j3mset7" data-class="stem" class="stem"><path d="M1980 658 L1980 1422" stroke-width="18"/></g></g><g data-id="zlwdnam" data-class="note" class="note"><g data-class="notehead" class="notehead"><use href="#E0A4-ndz7kev" transform="translate(2421, 810) scale(0.72, 0.72)"/></g><g data-id="kyffngj" data-class="stem" class="stem"><path d="M2430 838 L2430 1422" stroke-width="18"/></g><g data-id="q1c37xi0" data-class="accid" class="accid"/></g><g data-id="ado3kvz" data-class="note" class="note"><g data-class="notehead" class="notehead"><use href="#E0A4-ndz7kev" transform="translate(2871, 810) scale(0.72, 0.72)"/></g><g data-id="lxw2qu6" data-class="stem" class="stem"><path d="M2880 838 L2880 1422" stroke-width="18"/></g><g data-id="r113kwvx" data-class="accid" class="accid"/></g><g data-id="b1njmkq4" data-class="note" class="note"><g data-class="notehead" class="notehead"><use href="#E0A4-ndz7kev" transform="translate(3321, 720) scale(0.72, 0.72)"/></g><g data-id="max2y2m" data-class="stem" class="stem"><path d="M3330 748 L3330 1422" stroke-width="18"/></g></g></g></g></g><g data-id="wjpsrya" data-class="barLine" class="barLine"><path d="M3771 540 L3771 1260" stroke-width="27"/></g></g><g data-id="x1f9afuh" data-class="measure" class="measure"><g data-id="q1ss3be" data-class="staff" class="staff"><path d="M3784 540 L5563 540" stroke-width="13"/><path d="M3784 720 L5563 720" stroke-width="13"/><path d="M3784 900 L5563 900" stroke-width="13"/><path d="M3784 1080 L5563 1080" stroke-width="13"/><path d="M3784 1260 L5563 1260" stroke-width="13"/><g data-id="r1gdsvo0" data-class="layer" class="layer"><g data-id="n1qo32tn" data-class="beam" class="beam"><polygon stroke-opacity="1" fill-opacity="1" points="3964,1260 4562,1170 4562,1080 3964,1170"/><polygon stroke-opacity="1" fill-opacity="1" points="4336,1067 4562,1035 4562,945 4336,977"/><g data-id="c1isf433" data-class="note" class="note"><g data-class="notehead" class="notehead"><use href="#E0A4-ndz7kev" transform="translate(3964, 630) scale(0.72, 0.72)"/></g><g data-id="ozp1vyv" data-class="dots" class="dots"><ellipse cx="4280" cy="630" rx="36" ry="36" fill-opacity="1" stroke-opacity="1"/></g><g data-id="nnig3hf" data-class="stem" class="stem"><path d="M3973 658 L3973 1242" stroke-width="18"/></g></g><g data-id="d1xekelm" data-class="note" class="note"><g data-class="notehead" class="notehead"><use href="#E0A4-ndz7kev" transform="translate(4544, 540) scale(0.72, 0.72)"/></g><g data-id="pyd5gwb" data-class="stem" class="stem"><path d="M4553 568 L4553 1152" stroke-width="18"/></g><g data-id="s1subjd9" data-class="accid" class="accid"/></g></g><g data-id="e16wekmr" data-class="note" class="note"><g data-class="notehead" class="notehead"><use href="#E0A4-ndz7kev" transform="translate(4860, 630) scale(0.72, 0.72)"/></g><g data-id="qovpkey" data-class="stem" class="stem"><path d="M4869 658 L4869 1260" stroke-width="18"/></g></g></g></g><g data-id="f10hbc9e" data-class="barLine" class="barLine"><path d="M5550 540 L5550 1260" stroke-width="27"/></g></g><g data-id="ghlw3h6" data-class="measure" class="measure"><g data-id="s1rnrlfs" data-class="staff" class="staff"><path d="M5563 540 L7556 540" stroke-width="13"/><path d="M5563 720 L7556 720" stroke-width="13"/><path d="M5563 900 L7556 900" stroke-width="13"/><path d="M5563 1080 L7556 1080" stroke-width="13"/><path d="M5563 1260 L7556 1260" stroke-width="13"/><g data-class="ledgerLines" class="ledgerLines above"><g data-class="lineDash" class="lineDash" data-related="#fgwecnz"><path d="M5695 360 L6017 360" stroke-width="22"/></g></g><g data-id="ta9uan0" data-class="layer" class="layer"><g data-id="o1wxokli" data-class="beam" class="beam"><polygon stroke-opacity="1" fill-opacity="1" points="5743,1440 7111,1440 7111,1350 5743,1350"/><g data-id="fgwecnz" data-class="note" class="note"><g data-class="notehead" class="notehead"><use href="#E0A4-ndz7kev" transform="translate(5743, 360) scale(0.72, 0.72)"/></g><g data-id="r11dcqdc" data-class="stem" class="stem"><path d="M5752 388 L5752 1422" stroke-width="18"/></g></g><g data-id="g1kzs6o3" data-class="note" class="note"><g data-class="notehead" class="notehead"><use href="#E0A4-ndz7kev" transform="translate(6193, 810) scale(0.72, 0.72)"/></g><g data-id="st2qzq0" data-class="stem" class="stem"><path d="M6202 838 L6202 1422" stroke-width="18"/></g><g data-id="tzy6qvr" data-class="accid" class="accid"/></g><g data-id="h1ulbjle" data-class="note" class="note"><g data-class="notehead" class="notehead"><use href="#E0A4-ndz7kev" transform="translate(6643, 810) scale(0.72, 0.72)"/></g><g data-id="t1vh8r8o" data-class="stem" class="stem"><path d="M6652 838 L6652 1422" stroke-width="18"/></g><g data-id="u1uatsj7" data-class="accid" class="accid"/></g><g data-id="iyh46x0" data-class="note" class="note"><g data-class="notehead" class="notehead"><use href="#E0A4-ndz7kev" transform="translate(7093, 810) scale(0.72, 0.72)"/></g><g data-id="u1d05ztc" data-class="stem" class="stem"><path d="M7102 838 L7102 1422" stroke-width="18"/></g><g data-id="v1fjggsw" data-class="accid" class="accid"/></g></g></g></g><g data-id="orwl73q" data-class="barLine" class="barLine"><path d="M7543 540 L7543 1260" stroke-width="27"/></g></g><g data-id="p2hbsxo" data-class="measure" class="measure"><g data-id="u17ubc96" data-class="staff" class="staff"><path d="M7556 540 L9322 540" stroke-width="13"/><path d="M7556 720 L9322 720" stroke-width="13"/><path d="M7556 900 L9322 900" stroke-width="13"/><path d="M7556 1080 L9322 1080" stroke-width="13"/><path d="M7556 1260 L9322 1260" stroke-width="13"/><g data-id="vaqvmbi" data-class="layer" class="layer"><g data-id="prrc8uq" data-class="beam" class="beam"><polygon stroke-opacity="1" fill-opacity="1" points="7736,1440 8334,1350 8334,1260 7736,1350"/><polygon stroke-opacity="1" fill-opacity="1" points="8108,1247 8334,1215 8334,1125 8108,1157"/><g data-id="j57m4ud" data-class="note" class="note"><g data-class="notehead" class="notehead"><use href="#E0A4-ndz7kev" transform="translate(7736, 810) scale(0.72, 0.72)"/></g><g data-id="ww53sg5" data-class="dots" class="dots"><ellipse cx="8052" cy="810" rx="36" ry="36" fill-opacity="1" stroke-opacity="1"/></g><g data-id="v15iloo4" data-class="stem" class="stem"><path d="M7745 838 L7745 1422" stroke-width="18"/></g><g data-id="wnrf416" data-class="accid" class="accid"/></g><g data-id="kpr3m8q" data-class="note" class="note"><g data-class="notehead" class="notehead"><use href="#E0A4-ndz7kev" transform="translate(8316, 720) scale(0.72, 0.72)"/></g><g data-id="x3gw6x0" data-class="stem" class="stem"><path d="M8325 748 L8325 1332" stroke-width="18"/></g></g></g><g data-id="l1ed0971" data-class="note" class="note"><g data-class="notehead" class="notehead"><use href="#E0A4-ndz7kev" transform="translate(8632, 810) scale(0.72, 0.72)"/></g><g data-id="y3pwkic" data-class="stem" class="stem"><path d="M8641 838 L8641 1440" stroke-width="18"/></g><g data-id="xcop1mo" data-class="accid" class="accid"/></g></g></g><g data-id="x2jyg0g" data-class="barLine" class="barLine"/></g><g data-id="da8og0c" data-class="systemMilestoneEnd" class="systemMilestoneEnd c198zz14"/></g><g data-id="eoh8gj6" data-class="pageMilestoneEnd" class="pageMilestoneEnd a1yimq5y"/><g data-id="f13u2322" data-class="pageMilestoneEnd" class="pageMilestoneEnd z1ennbgd"/></g></svg></svg>