<svg viewBox="0 0 560 84" version="1.1" xmlns="http://www.w3.org/2000/svg" xmlns:xlink="http://www.w3.org/1999/xlink" overflow="visible" id="c1e0egal"><desc>Engraved by Verovio 5.6.0-85e7620</desc><defs><g id="E050-c1e0egal"><path transform="scale(1,-1)" d="M441 -245c-23 -4 -48 -6 -76 -6c-59 0 -102 7 -130 20c-88 42 -150 93 -187 154c-26 44 -43 103 -48 176c0 6 -1 13 -1 19c0 54 15 111 45 170c29 57 65 106 110 148s96 85 153 127c-3 16 -8 46 -13 92c-4 43 -5 73 -5 89c0 117 16 172 69 257c34 54 64 82 89 82 c21 0 43 -30 69 -92s39 -115 41 -159v-15c0 -109 -21 -162 -67 -241c-13 -20 -63 -90 -98 -118c-13 -9 -25 -19 -37 -29l31 -181c8 1 18 2 28 2c58 0 102 -12 133 -35c59 -43 92 -104 98 -184c1 -7 1 -15 1 -22c0 -123 -87 -209 -181 -248c8 -57 17 -110 25 -162 c5 -31 6 -58 6 -80c0 -30 -5 -53 -14 -70c-35 -64 -88 -99 -158 -103c-5 0 -11 -1 -16 -1c-37 0 -72 10 -108 27c-50 24 -77 59 -80 105v11c0 29 7 55 20 76c18 28 45 42 79 44h6c49 0 93 -42 97 -87v-9c0 -51 -34 -86 -105 -106c17 -24 51 -36 102 -36c62 0 116 43 140 85 c9 16 13 41 13 74c0 20 -1 42 -5 67c-8 53 -18 106 -26 159zM461 939c-95 0 -135 -175 -135 -286c0 -24 2 -48 5 -71c50 39 92 82 127 128c40 53 60 100 60 140v8c-4 53 -22 81 -55 81h-2zM406 119l54 -326c73 25 110 78 110 161c0 7 0 15 -1 23c-7 95 -57 142 -151 142h-12 zM382 117c-72 -2 -128 -47 -128 -120v-7c2 -46 43 -99 75 -115c-3 -2 -7 -5 -10 -10c-70 33 -116 88 -123 172v11c0 68 44 126 88 159c23 17 49 29 78 36l-29 170c-21 -13 -52 -37 -92 -73c-50 -44 -86 -84 -109 -119c-45 -69 -67 -130 -67 -182v-13c5 -68 35 -127 93 -176 s125 -73 203 -73c25 0 50 3 75 9c-19 111 -36 221 -54 331z"/></g><g id="E08A-c1e0egal"><path transform="scale(1,-1)" d="M340 179c-9 24 -56 41 -89 41c-46 0 -81 -28 -100 -58c-17 -28 -25 -78 -25 -150c0 -65 2 -111 8 -135c8 -31 18 -49 40 -67c20 -17 43 -25 70 -25c54 0 92 36 115 75c14 25 23 54 28 88h27c0 -63 -24 -105 -58 -141c-35 -38 -82 -56 -140 -56c-45 0 -83 13 -115 39 c-57 45 -101 130 -101 226c0 59 33 127 68 163c36 37 97 72 160 72c36 0 93 -21 121 -40c11 -8 23 -17 33 -30c19 -23 27 -48 27 -76c0 -51 -35 -88 -86 -88c-43 0 -76 27 -76 68c0 26 7 35 21 51c15 17 32 27 58 32c7 2 14 7 14 11z"/></g><g id="E4E4-c1e0egal"><path transform="scale(1,-1)" d="M0 10v105c0 9 1 10 10 10h280c9 0 10 -1 10 -10v-105c0 -9 -1 -10 -10 -10h-280c-9 0 -10 1 -10 10z"/></g><g id="E0A4-c1e0egal"><path transform="scale(1,-1)" d="M0 -39c0 68 73 172 200 172c66 0 114 -37 114 -95c0 -84 -106 -171 -218 -171c-64 0 -96 30 -96 94z"/></g><g id="E4E5-c1e0egal"><path transform="scale(1,-1)" d="M107 292c-13 24 -30 49 -52 71c-1 1 0 2 0 3l-2 2c3 3 4 4 6 4c12 0 26 -7 40 -20s44 -40 89 -81c26 -24 28 -29 46 -47c4 -4 8 -9 10 -14c6 -8 8 -16 8 -27c0 -19 -12 -40 -36 -61c-28 -23 -49 -38 -61 -73c-4 -11 -7 -27 -10 -50c13 -43 34 -83 59 -121 c31 -47 59 -79 101 -129c-8 0 -26 7 -54 20l-62 29l-21 6l-23 1c-25 0 -45 -10 -60 -30l-4 -14l-1 -12c0 -33 20 -56 39 -78c8 -9 17 -18 26 -26c17 -15 27 -24 28 -30l-3 -3c-11 5 -19 10 -25 15c-9 3 -37 21 -45 26c-24 14 -45 32 -63 51c-19 21 -37 44 -37 71 c0 63 27 95 80 95c41 0 86 -18 136 -52c-19 26 -37 48 -55 66c-23 23 -48 44 -73 65c-28 23 -47 40 -58 53s-17 26 -18 39c75 64 113 125 113 183c0 27 -7 48 -18 68z"/></g></defs><style type="text/css">#c1e0egal g.page-margin {font-family:Times,serif;}#c1e0egal g.ending, #c1e0egal g.fing, #c1e0egal g.reh, #c1e0egal g.tempo {font-weight:bold;}#c1e0egal g.dir, #c1e0egal g.dynam, #c1e0egal g.mNum {font-style:italic;}#c1e0egal g.label {font-weight:normal;}#c1e0egal path {stroke:currentColor}</style><svg class="definition-scale" color="black" viewBox="0 0 14000 2100"><g class="page-margin" transform="translate(0, 150)"><g data-id="sebmqep" data-class="mdiv" class="mdiv pageMilestone"/><g data-id="t1v7g3dk" data-class="score" class="score pageMilestone"/><g data-id="bw9hiuw" data-class="system" class="system"><g data-id="v12f5y34" data-class="section" class="section systemMilestone"/><g data-id="dvrwokx" data-class="measure" class="measure"><g data-id="hocdgom" data-class="staff" class="staff"><path d="M0 540 L3961 540" stroke-width="13"/><path d="M0 720 L3961 720" stroke-width="13"/><path d="M0 900 L3961 900" stroke-width="13"/><path d="M0 1080 L3961 1080" stroke-width="13"/><path d="M0 1260 L3961 1260" stroke-width="13"/><g data-id="tdskunf" data-class="clef" class="clef"><use href="#E050-c1e0egal" transform="translate(90, 1080) scale(0.72, 0.72)"/></g><g data-id="u1yfkycy" data-class="keySig" class="keySig"/><g data-id="v1clnj48" data-class="meterSig" class="meterSig"><use href="#E08A-c1e0egal" transform="translate(735, 900) scale(0.72, 0.72)"/></g><g data-id="i1u97kna" data-class="layer" class="layer"><g data-id="w8r228g" data-class="rest" class="rest"><use href="#E4E4-c1e0egal" transform="translate(1313, 900) scale(0.72, 0.72)"/><g data-class="ledgerLines" class="ledgerLines"/></g><g data-id="z1muiys1" data-class="note" class="note"><g data-class="notehead" class="notehead"><use href="#E0A4-c1e0egal" transform="translate(2452, 1080) scale(0.72, 0.72)"/></g><g data-id="bil40p4" data-class="stem" class="stem"><path d="M2669 1052 L2669 450" stroke-width="18"/></g></g><g data-id="akfm73g" data-class="note" class="note"><g data-class="notehead" class="notehead"><use href="#E0A4-c1e0egal" transform="translate(3200, 1080) scale(0.72, 0.72)"/></g><g data-id="c11gbn5j" data-class="stem" class="stem"><path d="M3417 1052 L3417 450" stroke-width="18"/></g></g></g></g><g data-id="lg9ccxw" data-class="barLine" class="barLine"><path d="M3948 540 L3948 1260" stroke-width="27"/></g></g><g data-id="m196tu9z" data-class="measure" class="measure"><g data-id="j5cpjw7" data-class="staff" class="staff"><path d="M3961 540 L7157 540" stroke-width="13"/><path d="M3961 720 L7157 720" stroke-width="13"/><path d="M3961 900 L7157 900" stroke-width="13"/><path d="M3961 1080 L7157 1080" stroke-width="13"/><path d="M3961 1260 L7157 1260" stroke-width="13"/><g data-id="k66fhwu" data-class="layer" class="layer"><g data-id="b11fpl7f" data-class="note" class="note"><g data-class="notehead" class="notehead"><use href="#E0A4-c1e0egal" transform="translate(4151, 810) scale(0.72, 0.72)"/></g><g data-id="dt18td4" data-class="stem" class="stem"><path d="M4160 838 L4160 1440" stroke-width="18"/></g></g><g data-id="c1006y5w" data-class="note" class="note"><g data-class="notehead" class="notehead"><use href="#E0A4-c1e0egal" transform="translate(4900, 900) scale(0.72, 0.72)"/></g><g data-id="e1xpal34" data-class="stem" class="stem"><path d="M4909 928 L4909 1500" stroke-width="18"/></g></g><g data-id="dk75ru5" data-class="note" class="note"><g data-class="notehead" class="notehead"><use href="#E0A4-c1e0egal" transform="translate(5648, 990) scale(0.72, 0.72)"/></g><g data-id="f7xi45o" data-class="stem" class="stem"><path d="M5865 962 L5865 360" stroke-width="18"/></g></g><g data-id="eu1x8ah" data-class="note" class="note"><g data-class="notehead" class="notehead"><use href="#E0A4-c1e0egal" transform="translate(6396, 990) scale(0.72, 0.72)"/></g><g data-id="g1svtrq9" data-class="stem" class="stem"><path d="M6613 962 L6613 360" stroke-width="18"/></g></g></g></g><g data-id="u1nwl277" data-class="barLine" class="barLine"><path d="M7144 540 L7144 1260" stroke-width="27"/></g></g><g data-id="v166qftk" data-class="measure" class="measure"><g data-id="l5j4m5p" data-class="staff" class="staff"><path d="M7157 540 L10580 540" stroke-width="13"/><path d="M7157 720 L10580 720" stroke-width="13"/><path d="M7157 900 L10580 900" stroke-width="13"/><path d="M7157 1080 L10580 1080" stroke-width="13"/><path d="M7157 1260 L10580 1260" stroke-width="13"/><g data-id="m1voiniw" data-class="layer" class="layer"><g data-id="f18plooy" data-class="note" class="note"><g data-class="notehead" class="notehead"><use href="#E0A4-c1e0egal" transform="translate(7347, 1080) scale(0.72, 0.72)"/></g><g data-id="h1k13o3k" data-class="stem" class="stem"><path d="M7564 1052 L7564 450" stroke-width="18"/></g></g><g data-id="xau7v3m" data-class="rest" class="rest"><use href="#E4E5-c1e0egal" transform="translate(8096, 900) scale(0.72, 0.72)"/></g><g data-id="p97gphf" data-class="beam" class="beam"><polygon stroke-opacity="1" fill-opacity="1" points="9052,315 9557,360 9557,450 9052,405"/><g data-id="g1i4j8aq" data-class="note" class="note"><g data-class="notehead" class="notehead"><use href="#E0A4-c1e0egal" transform="translate(8844, 900) scale(0.72, 0.72)"/></g><g data-id="i134j3as" data-class="stem" class="stem"><path d="M9061 872 L9061 333" stroke-width="18"/></g></g><g data-id="hw4r9bd" data-class="note" class="note"><g data-class="notehead" class="notehead"><use href="#E0A4-c1e0egal" transform="translate(9331, 990) scale(0.72, 0.72)"/></g><g data-id="j1gy2a93" data-class="stem" class="stem"><path d="M9548 962 L9548 378" stroke-width="18"/></g></g></g><g data-id="if87xaa" data-class="note" class="note"><g data-class="notehead" class="notehead"><use href="#E0A4-c1e0egal" transform="translate(9819, 1080) scale(0.72, 0.72)"/></g><g data-id="knftua0" data-class="stem" class="stem"><path d="M10036 1052 L10036 450" stroke-width="18"/></g></g></g></g><g data-id="d19f31ud" data-class="barLine" class="barLine"><path d="M10567 540 L10567 1260" stroke-width="27"/></g></g><g data-id="eanmdpw" data-class="measure" class="measure"><g data-id="nwdfjd6" data-class="staff" class="staff"><path d="M10580 540 L14003 540" stroke-width="13"/><path d="M10580 720 L14003 720" stroke-width="13"/><path d="M10580 900 L14003 900" stroke-width="13"/><path d="M10580 1080 L14003 1080" stroke-width="13"/><path d="M10580 1260 L14003 1260" stroke-width="13"/><g data-id="o1ovzciz" data-class="layer" class="layer"><g data-id="q1lnjjyq" data-class="beam" class="beam"><polygon stroke-opacity="1" fill-opacity="1" points="10978,315 11484,360 11484,450 10978,405"/><g data-id="j120if6x" data-class="note" class="note"><g data-class="notehead" class="notehead"><use href="#E0A4-c1e0egal" transform="translate(10770, 900) scale(0.72, 0.72)"/></g><g data-id="l19d4esm" data-class="stem" class="stem"><path d="M10987 872 L10987 333" stroke-width="18"/></g></g><g data-id="kem5kxv" data-class="note" class="note"><g data-class="notehead" class="notehead"><use href="#E0A4-c1e0egal" transform="translate(11258, 990) scale(0.72, 0.72)"/></g><g data-id="m18rwuge" data-class="stem" class="stem"><path d="M11475 962 L11475 378" stroke-width="18"/></g></g></g><g data-id="lkdsrdc" data-class="note" class="note"><g data-class="notehead" class="notehead"><use href="#E0A4-c1e0egal" transform="translate(11745, 1080) scale(0.72, 0.72)"/></g><g data-id="n278c5c" data-class="stem" class="stem"><path d="M11962 1052 L11962 450" stroke-width="18"/></g></g><g data-id="mlpsigo" data-class="note" class="note"><g data-class="notehead" class="notehead"><use href="#E0A4-c1e0egal" transform="translate(12493, 720) scale(0.72, 0.72)"/></g><g data-id="o1nwr8kz" data-class="stem" class="stem"><path d="M12502 748 L12502 1350" stroke-width="18"/></g></g><g data-id="n7rygma" data-class="note" class="note"><g data-class="notehead" class="notehead"><use href="#E0A4-c1e0egal" transform="translate(13242, 810) scale(0.72, 0.72)"/></g><g data-id="p1ci8gy" data-class="stem" class="stem"><path d="M13251 838 L13251 1440" stroke-width="18"/></g></g></g></g><g data-id="m1xddg9y" data-class="barLine" class="barLine"><path d="M13990 540 L13990 1260" stroke-width="27"/></g></g></g></g></svg></svg>