<svg viewBox="0 0 560 84" version="1.1" xmlns="http://www.w3.org/2000/svg" xmlns:xlink="http://www.w3.org/1999/xlink" overflow="visible" id="ordauac"><desc>Engraved by Verovio 5.6.0-85e7620</desc><defs><g id="E050-ordauac"><path transform="scale(1,-1)" d="M441 -245c-23 -4 -48 -6 -76 -6c-59 0 -102 7 -130 20c-88 42 -150 93 -187 154c-26 44 -43 103 -48 176c0 6 -1 13 -1 19c0 54 15 111 45 170c29 57 65 106 110 148s96 85 153 127c-3 16 -8 46 -13 92c-4 43 -5 73 -5 89c0 117 16 172 69 257c34 54 64 82 89 82 c21 0 43 -30 69 -92s39 -115 41 -159v-15c0 -109 -21 -162 -67 -241c-13 -20 -63 -90 -98 -118c-13 -9 -25 -19 -37 -29l31 -181c8 1 18 2 28 2c58 0 102 -12 133 -35c59 -43 92 -104 98 -184c1 -7 1 -15 1 -22c0 -123 -87 -209 -181 -248c8 -57 17 -110 25 -162 c5 -31 6 -58 6 -80c0 -30 -5 -53 -14 -70c-35 -64 -88 -99 -158 -103c-5 0 -11 -1 -16 -1c-37 0 -72 10 -108 27c-50 24 -77 59 -80 105v11c0 29 7 55 20 76c18 28 45 42 79 44h6c49 0 93 -42 97 -87v-9c0 -51 -34 -86 -105 -106c17 -24 51 -36 102 -36c62 0 116 43 140 85 c9 16 13 41 13 74c0 20 -1 42 -5 67c-8 53 -18 106 -26 159zM461 939c-95 0 -135 -175 -135 -286c0 -24 2 -48 5 -71c50 39 92 82 127 128c40 53 60 100 60 140v8c-4 53 -22 81 -55 81h-2zM406 119l54 -326c73 25 110 78 110 161c0 7 0 15 -1 23c-7 95 -57 142 -151 142h-12 zM382 117c-72 -2 -128 -47 -128 -120v-7c2 -46 43 -99 75 -115c-3 -2 -7 -5 -10 -10c-70 33 -116 88 -123 172v11c0 68 44 126 88 159c23 17 49 29 78 36l-29 170c-21 -13 -52 -37 -92 -73c-50 -44 -86 -84 -109 -119c-45 -69 -67 -130 -67 -182v-13c5 -68 35 -127 93 -176 s125 -73 203 -73c25 0 50 3 75 9c-19 111 -36 221 -54 331z"/></g><g id="E262-ordauac"><path transform="scale(1,-1)" d="M136 186v169h17v-164l44 14v-91l-44 -14v-165l44 12v-91l-44 -13v-155h-17v150l-76 -22v-155h-17v149l-43 -13v90l43 14v167l-43 -14v92l43 13v169h17v-163zM60 73v-167l76 22v168z"/></g><g id="E082-ordauac"><path transform="scale(1,-1)" d="M124 -185c-18 0 -55 -14 -65 -65h-36l-3 30c0 25 6 45 18 63c11 19 22 30 39 43l121 82l37 29c15 11 27 29 38 54c12 24 18 47 18 70c0 40 -19 88 -94 88c-25 0 -32 0 -50 -8c-14 -5 -23 -12 -26 -22c3 -9 7 -15 10 -18l24 -17c12 -7 17 -11 27 -21c5 -7 7 -16 7 -27 c0 -12 0 -57 -79 -74c-30 0 -76 26 -76 94c0 66 81 135 197 135c72 0 181 -32 181 -150c0 -53 -32 -95 -113 -133l-91 -41c-26 -11 -45 -23 -57 -37l49 7c84 0 115 -41 148 -41c20 0 33 20 39 61h35c0 -152 -68 -168 -114 -168c-17 0 -65 0 -79 7h10l-28 17 c-49 37 -69 40 -87 42z"/></g><g id="E084-ordauac"><path transform="scale(1,-1)" d="M20 -78c84 97 114 180 134 329h170c-13 -32 -82 -132 -99 -151l-84 -97c-33 -36 -59 -63 -80 -81h162v102l127 123v-225h57v-39h-57v-34c0 -43 19 -65 57 -65v-34h-244v36c48 0 60 26 60 70v27h-203v39z"/></g><g id="E4E2-ordauac"><path transform="scale(1,-1)" d="M0 10v230c0 8 2 10 10 10h105c8 0 10 -2 10 -10v-230c0 -8 -2 -10 -10 -10h-105c-8 0 -10 2 -10 10z"/></g><g id="E4E5-ordauac"><path transform="scale(1,-1)" d="M107 292c-13 24 -30 49 -52 71c-1 1 0 2 0 3l-2 2c3 3 4 4 6 4c12 0 26 -7 40 -20s44 -40 89 -81c26 -24 28 -29 46 -47c4 -4 8 -9 10 -14c6 -8 8 -16 8 -27c0 -19 -12 -40 -36 -61c-28 -23 -49 -38 -61 -73c-4 -11 -7 -27 -10 -50c13 -43 34 -83 59 -121 c31 -47 59 -79 101 -129c-8 0 -26 7 -54 20l-62 29l-21 6l-23 1c-25 0 -45 -10 -60 -30l-4 -14l-1 -12c0 -33 20 -56 39 -78c8 -9 17 -18 26 -26c17 -15 27 -24 28 -30l-3 -3c-11 5 -19 10 -25 15c-9 3 -37 21 -45 26c-24 14 -45 32 -63 51c-19 21 -37 44 -37 71 c0 63 27 95 80 95c41 0 86 -18 136 -52c-19 26 -37 48 -55 66c-23 23 -48 44 -73 65c-28 23 -47 40 -58 53s-17 26 -18 39c75 64 113 125 113 183c0 27 -7 48 -18 68z"/></g><g id="E4E6-ordauac"><path transform="scale(1,-1)" d="M0 123c7 34 33 56 69 60c29 -3 43 -9 53 -29c4 -8 7 -15 10 -22c0 -21 -1 -25 -11 -35c-5 -8 -18 -14 -40 -20l12 -3l15 -1c44 0 97 26 122 56c10 11 18 26 24 42c7 1 15 2 22 3l-140 -424h-36l111 330c-10 -6 -27 -12 -53 -16l-52 -8h-10l-20 1c-1 0 -8 3 -21 6 c-37 9 -55 28 -55 60z"/></g><g id="E0A4-ordauac"><path transform="scale(1,-1)" d="M0 -39c0 68 73 172 200 172c66 0 114 -37 114 -95c0 -84 -106 -171 -218 -171c-64 0 -96 30 -96 94z"/></g><g id="E240-ordauac"><path transform="scale(1,-1)" d="M179 -646c15 29 29 55 46 102c18 49 30 108 30 138c0 105 -80 173 -168 200c-18 5 -47 9 -87 16v190h22c8 0 33 -61 71 -95c4 -3 -2 3 61 -56c62 -58 122 -137 122 -241c0 -38 -13 -106 -35 -163c-20 -51 -43 -99 -66 -132c-6 -5 -10 -7 -13 -7s-5 2 -5 5l4 10 c1 3 14 25 18 33z"/></g><g id="E241-ordauac"><path transform="scale(1,-1)" d="M179 646c-4 8 -17 30 -18 33l-4 10c0 3 2 5 5 5s7 -2 13 -7c23 -33 46 -81 66 -132c22 -57 35 -125 35 -163c0 -104 -60 -183 -122 -241c-63 -59 -57 -53 -61 -56c-38 -34 -63 -95 -71 -95h-22v190c40 7 69 11 87 16c88 27 168 95 168 200c0 30 -12 89 -30 138 c-17 47 -31 73 -46 102z"/></g></defs><style type="text/css">#ordauac g.page-margin {font-family:Times,serif;}#ordauac g.ending, #ordauac g.fing, #ordauac g.reh, #ordauac g.tempo {font-weight:bold;}#ordauac g.dir, #ordauac g.dynam, #ordauac g.mNum {font-style:italic;}#ordauac g.label {font-weight:normal;}#ordauac path {stroke:currentColor}</style><svg class="definition-scale" color="black" viewBox="0 0 14000 2100"><g class="page-margin" transform="translate(0, 150)"><g data-id="mqg2h3o" data-class="mdiv" class="mdiv pageMilestone"/><g data-id="n1pp8zm3" data-class="score" class="score pageMilestone"/><g data-id="obg59t9" data-class="system" class="system"><g data-id="p847w59" data-class="section" class="section systemMilestone"/><g data-id="psdoevd" data-class="measure" class="measure"><g data-id="b1n8bo88" data-class="staff" class="staff"><path d="M0 540 L3406 540" stroke-width="13"/><path d="M0 720 L3406 720" stroke-width="13"/><path d="M0 900 L3406 900" stroke-width="13"/><path d="M0 1080 L3406 1080" stroke-width="13"/><path d="M0 1260 L3406 1260" stroke-width="13"/><g data-id="t15xuzsu" data-class="clef" class="clef"><use href="#E050-ordauac" transform="translate(90, 1080) scale(0.72, 0.72)"/></g><g data-id="ujc9lo4" data-class="keySig" class="keySig"><g data-id="v1tb2eco" data-class="keyAccid" class="keyAccid"><use href="#E262-ordauac" transform="translate(735, 540) scale(0.72, 0.72)"/></g><g data-id="wrpt74k" data-class="keyAccid" class="keyAccid"><use href="#E262-ordauac" transform="translate(913, 810) scale(0.72, 0.72)"/></g><g data-id="x156jzdg" data-class="keyAccid" class="keyAccid"><use href="#E262-ordauac" transform="translate(1091, 450) scale(0.72, 0.72)"/></g></g><g data-id="y1pzi40p" data-class="meterSig" class="meterSig"><use href="#E082-ordauac" transform="translate(1398, 720) scale(0.72, 0.72)"/><use href="#E084-ordauac" transform="translate(1403, 1080) scale(0.72, 0.72)"/></g><g data-id="cjm95mq" data-class="layer" class="layer"><g data-id="rzuz5w3" data-class="multiRest" class="multiRest"><use href="#E4E2-ordauac" transform="translate(2540, 900) scale(0.72, 0.72)"/><use href="#E082-ordauac" transform="translate(2426, 270) scale(0.72, 0.72)"/></g></g></g><g data-id="x1xhl7ei" data-class="barLine" class="barLine"><path d="M3393 540 L3393 1260" stroke-width="27"/></g></g><g data-id="y11qdna8" data-class="measure" class="measure"><g data-id="d1n2xltv" data-class="staff" class="staff"><path d="M3406 540 L5569 540" stroke-width="13"/><path d="M3406 720 L5569 720" stroke-width="13"/><path d="M3406 900 L5569 900" stroke-width="13"/><path d="M3406 1080 L5569 1080" stroke-width="13"/><path d="M3406 1260 L5569 1260" stroke-width="13"/><g data-id="eeurpm4" data-class="layer" class="layer"><g data-id="s10cujjh" data-class="rest" class="rest"><use href="#E4E5-ordauac" transform="translate(3618, 900) scale(0.72, 0.72)"/></g><g data-id="te4glnb" data-class="rest" class="rest"><use href="#E4E6-ordauac" transform="translate(4428, 900) scale(0.72, 0.72)"/></g><g data-id="v8xlguv" data-class="note" class="note"><g data-class="notehead" class="notehead"><use href="#E0A4-ordauac" transform="translate(4957, 1260) scale(0.72, 0.72)"/></g><g data-id="a14dtucb" data-class="stem" class="stem"><path d="M5174 1232 L5174 630" stroke-width="18"/><g data-id="blbfbrw" data-class="flag" class="flag"><use href="#E240-ordauac" transform="translate(5165, 630) scale(0.72, 0.72)"/></g></g></g></g></g><g data-id="g1xu1r70" data-class="barLine" class="barLine"><path d="M5556 540 L5556 1260" stroke-width="27"/></g></g><g data-id="he2lvar" data-class="measure" class="measure"><g data-id="fm4l7hp" data-class="staff" class="staff"><path d="M5569 540 L7661 540" stroke-width="13"/><path d="M5569 720 L7661 720" stroke-width="13"/><path d="M5569 900 L7661 900" stroke-width="13"/><path d="M5569 1080 L7661 1080" stroke-width="13"/><path d="M5569 1260 L7661 1260" stroke-width="13"/><g data-id="g1aep1xi" data-class="layer" class="layer"><g data-id="w1xzjhe7" data-class="note" class="note"><g data-class="notehead" class="notehead"><use href="#E0A4-ordauac" transform="translate(5781, 990) scale(0.72, 0.72)"/></g><g data-id="c1r5umfa" data-class="stem" class="stem"><path d="M5998 962 L5998 360" stroke-width="18"/></g></g><g data-id="h1v26pvv" data-class="beam" class="beam"><polygon stroke-opacity="1" fill-opacity="1" points="6799,360 7346,315 7346,405 6799,450"/><g data-id="x1mpn5df" data-class="note" class="note"><g data-class="notehead" class="notehead"><use href="#E0A4-ordauac" transform="translate(6591, 1170) scale(0.72, 0.72)"/></g><g data-id="di2vp83" data-class="stem" class="stem"><path d="M6808 1142 L6808 378" stroke-width="18"/></g><g data-id="j11zdw9l" data-class="accid" class="accid"/></g><g data-id="y1un0e6y" data-class="note" class="note"><g data-class="notehead" class="notehead"><use href="#E0A4-ordauac" transform="translate(7120, 990) scale(0.72, 0.72)"/></g><g data-id="e1o5rs5b" data-class="stem" class="stem"><path d="M7337 962 L7337 333" stroke-width="18"/></g></g></g></g></g><g data-id="p9td6zt" data-class="barLine" class="barLine"><path d="M7648 540 L7648 1260" stroke-width="27"/></g></g><g data-id="qcj4knr" data-class="measure" class="measure"><g data-id="h1y82sz6" data-class="staff" class="staff"><path d="M7661 540 L9518 540" stroke-width="13"/><path d="M7661 720 L9518 720" stroke-width="13"/><path d="M7661 900 L9518 900" stroke-width="13"/><path d="M7661 1080 L9518 1080" stroke-width="13"/><path d="M7661 1260 L9518 1260" stroke-width="13"/><g data-id="i3w05fa" data-class="layer" class="layer"><g data-id="z17rvpp6" data-class="note" class="note"><g data-class="notehead" class="notehead"><use href="#E0A4-ordauac" transform="translate(7873, 1260) scale(0.72, 0.72)"/></g><g data-id="g1acz3be" data-class="dots" class="dots"><ellipse cx="8189" cy="1170" rx="36" ry="36" fill-opacity="1" stroke-opacity="1"/></g><g data-id="f13289y8" data-class="stem" class="stem"><path d="M8090 1232 L8090 630" stroke-width="18"/></g></g><g data-id="a1tebgxm" data-class="note" class="note"><g data-class="notehead" class="notehead"><use href="#E0A4-ordauac" transform="translate(8906, 1260) scale(0.72, 0.72)"/></g><g data-id="h121awfs" data-class="stem" class="stem"><path d="M9123 1232 L9123 630" stroke-width="18"/><g data-id="i3m2m27" data-class="flag" class="flag"><use href="#E240-ordauac" transform="translate(9114, 630) scale(0.72, 0.72)"/></g></g></g></g></g><g data-id="y7eztnj" data-class="barLine" class="barLine"><path d="M9505 540 L9505 1260" stroke-width="27"/></g></g><g data-id="z199ky6a" data-class="measure" class="measure"><g data-id="j6eik89" data-class="staff" class="staff"><path d="M9518 540 L11857 540" stroke-width="13"/><path d="M9518 720 L11857 720" stroke-width="13"/><path d="M9518 900 L11857 900" stroke-width="13"/><path d="M9518 1080 L11857 1080" stroke-width="13"/><path d="M9518 1260 L11857 1260" stroke-width="13"/><g data-id="kj2zyui" data-class="layer" class="layer"><g data-id="i15kpl5c" data-class="beam" class="beam"><polygon stroke-opacity="1" fill-opacity="1" points="9938,450 11013,270 11013,360 9938,540"/><g data-id="bgs83lg" data-class="note" class="note"><g data-class="notehead" class="notehead"><use href="#E0A4-ordauac" transform="translate(9730, 1260) scale(0.72, 0.72)"/></g><g data-id="jz27zzg" data-class="stem" class="stem"><path d="M9947 1232 L9947 468" stroke-width="18"/></g></g><g data-id="c1uxuh7b" data-class="note" class="note"><g data-class="notehead" class="notehead"><use href="#E0A4-ordauac" transform="translate(10258, 990) scale(0.72, 0.72)"/></g><g data-id="kyprk53" data-class="stem" class="stem"><path d="M10475 962 L10475 379" stroke-width="18"/></g></g><g data-id="d1avotjf" data-class="note" class="note"><g data-class="notehead" class="notehead"><use href="#E0A4-ordauac" transform="translate(10787, 810) scale(0.72, 0.72)"/></g><g data-id="l12vj1uy" data-class="stem" class="stem"><path d="M11004 782 L11004 288" stroke-width="18"/></g><g data-id="kmv38ub" data-class="accid" class="accid"/></g></g><g data-id="ew52epr" data-class="note" class="note"><g data-class="notehead" class="notehead"><use href="#E0A4-ordauac" transform="translate(11315, 900) scale(0.72, 0.72)"/></g><g data-id="m1ab0pkz" data-class="stem" class="stem"><path d="M11324 928 L11324 1500" stroke-width="18"/><g data-id="n1hlth2a" data-class="flag" class="flag"><use href="#E241-ordauac" transform="translate(11315, 1500) scale(0.72, 0.72)"/></g></g></g></g></g><g data-id="h1p7030r" data-class="barLine" class="barLine"><path d="M11844 540 L11844 1260" stroke-width="27"/></g></g><g data-id="i43yr4g" data-class="measure" class="measure"><g data-id="lpyzlz8" data-class="staff" class="staff"><path d="M11857 540 L14003 540" stroke-width="13"/><path d="M11857 720 L14003 720" stroke-width="13"/><path d="M11857 900 L14003 900" stroke-width="13"/><path d="M11857 1080 L14003 1080" stroke-width="13"/><path d="M11857 1260 L14003 1260" stroke-width="13"/><g data-id="my03m65" data-class="layer" class="layer"><g data-id="f161akmy" data-class="note" class="note"><g data-class="notehead" class="notehead"><use href="#E0A4-ordauac" transform="translate(12069, 900) scale(0.72, 0.72)"/></g><g data-id="o18c9kw0" data-class="stem" class="stem"><path d="M12078 928 L12078 1500" stroke-width="18"/></g></g><g data-id="gfrtmt1" data-class="note" class="note"><g data-class="notehead" class="notehead"><use href="#E0A4-ordauac" transform="translate(12879, 990) scale(0.72, 0.72)"/></g><g data-id="p1eyi5oe" data-class="stem" class="stem"><path d="M13096 962 L13096 360" stroke-width="18"/><g data-id="qsc257y" data-class="flag" class="flag"><use href="#E240-ordauac" transform="translate(13087, 360) scale(0.72, 0.72)"/></g></g></g><g data-id="uaszcbq" data-class="rest" class="rest"><use href="#E4E6-ordauac" transform="translate(13462, 900) scale(0.72, 0.72)"/></g></g></g><g data-id="q1rpwpix" data-class="barLine" class="barLine"><path d="M13990 540 L13990 1260" stroke-width="27"/></g></g><g data-id="u5i42nh" data-class="systemMilestoneEnd" class="systemMilestoneEnd p847w59"/></g><g data-id="v1nyxt9f" data-class="pageMilestoneEnd" class="pageMilestoneEnd n1pp8zm3"/><g data-id="wpzi67l" data-class="pageMilestoneEnd" class="pageMilestoneEnd mqg2h3o"/></g></svg></svg>