<svg viewBox="0 0 560 84" version="1.1" xmlns="http://www.w3.org/2000/svg" xmlns:xlink="http://www.w3.org/1999/xlink" overflow="visible" id="ktpvpi4"><desc>Engraved by Verovio 5.6.0-85e7620</desc><defs><g id="E050-ktpvpi4"><path transform="scale(1,-1)" d="M441 -245c-23 -4 -48 -6 -76 -6c-59 0 -102 7 -130 20c-88 42 -150 93 -187 154c-26 44 -43 103 -48 176c0 6 -1 13 -1 19c0 54 15 111 45 170c29 57 65 106 110 148s96 85 153 127c-3 16 -8 46 -13 92c-4 43 -5 73 -5 89c0 117 16 172 69 257c34 54 64 82 89 82 c21 0 43 -30 69 -92s39 -115 41 -159v-15c0 -109 -21 -162 -67 -241c-13 -20 -63 -90 -98 -118c-13 -9 -25 -19 -37 -29l31 -181c8 1 18 2 28 2c58 0 102 -12 133 -35c59 -43 92 -104 98 -184c1 -7 1 -15 1 -22c0 -123 -87 -209 -181 -248c8 -57 17 -110 25 -162 c5 -31 6 -58 6 -80c0 -30 -5 -53 -14 -70c-35 -64 -88 -99 -158 -103c-5 0 -11 -1 -16 -1c-37 0 -72 10 -108 27c-50 24 -77 59 -80 105v11c0 29 7 55 20 76c18 28 45 42 79 44h6c49 0 93 -42 97 -87v-9c0 -51 -34 -86 -105 -106c17 -24 51 -36 102 -36c62 0 116 43 140 85 c9 16 13 41 13 74c0 20 -1 42 -5 67c-8 53 -18 106 -26 159zM461 939c-95 0 -135 -175 -135 -286c0 -24 2 -48 5 -71c50 39 92 82 127 128c40 53 60 100 60 140v8c-4 53 -22 81 -55 81h-2zM406 119l54 -326c73 25 110 78 110 161c0 7 0 15 -1 23c-7 95 -57 142 -151 142h-12 zM382 117c-72 -2 -128 -47 -128 -120v-7c2 -46 43 -99 75 -115c-3 -2 -7 -5 -10 -10c-70 33 -116 88 -123 172v11c0 68 44 126 88 159c23 17 49 29 78 36l-29 170c-21 -13 -52 -37 -92 -73c-50 -44 -86 -84 -109 -119c-45 -69 -67 -130 -67 -182v-13c5 -68 35 -127 93 -176 s125 -73 203 -73c25 0 50 3 75 9c-19 111 -36 221 -54 331z"/></g><g id="E260-ktpvpi4"><path transform="scale(1,-1)" d="M20 110c32 16 54 27 93 27c26 0 35 -3 54 -13c13 -7 24 -20 27 -38l4 -25c0 -28 -16 -57 -45 -89c-23 -25 -39 -44 -65 -68l-88 -79v644h20v-359zM90 106c-32 0 -48 -10 -70 -29v-194c31 31 54 59 71 84c21 32 32 59 32 84c0 9 1 16 1 20c0 14 -3 21 -11 30l-8 3z"/></g><g id="E08A-ktpvpi4"><path transform="scale(1,-1)" d="M340 179c-9 24 -56 41 -89 41c-46 0 -81 -28 -100 -58c-17 -28 -25 -78 -25 -150c0 -65 2 -111 8 -135c8 -31 18 -49 40 -67c20 -17 43 -25 70 -25c54 0 92 36 115 75c14 25 23 54 28 88h27c0 -63 -24 -105 -58 -141c-35 -38 -82 -56 -140 -56c-45 0 -83 13 -115 39 c-57 45 -101 130 -101 226c0 59 33 127 68 163c36 37 97 72 160 72c36 0 93 -21 121 -40c11 -8 23 -17 33 -30c19 -23 27 -48 27 -76c0 -51 -35 -88 -86 -88c-43 0 -76 27 -76 68c0 26 7 35 21 51c15 17 32 27 58 32c7 2 14 7 14 11z"/></g><g id="E0A3-ktpvpi4"><path transform="scale(1,-1)" d="M278 64c0 22 -17 39 -43 39c-12 0 -26 -3 -41 -10c-85 -43 -165 -94 -165 -156c5 -25 15 -32 49 -32c67 11 200 95 200 159zM0 -36c0 68 73 174 200 174c66 0 114 -39 114 -97c0 -84 -106 -173 -218 -173c-64 0 -96 32 -96 96z"/></g><g id="E0A4-ktpvpi4"><path transform="scale(1,-1)" d="M0 -39c0 68 73 172 200 172c66 0 114 -37 114 -95c0 -84 -106 -171 -218 -171c-64 0 -96 30 -96 94z"/></g><g id="E261-ktpvpi4"><path transform="scale(1,-1)" d="M0 -188v539h18v-191l139 22v-533h-17v186zM18 -100l122 17v176l-122 -19v-174z"/></g><g id="E262-ktpvpi4"><path transform="scale(1,-1)" d="M136 186v169h17v-164l44 14v-91l-44 -14v-165l44 12v-91l-44 -13v-155h-17v150l-76 -22v-155h-17v149l-43 -13v90l43 14v167l-43 -14v92l43 13v169h17v-163zM60 73v-167l76 22v168z"/></g></defs><style type="text/css">#ktpvpi4 g.page-margin {font-family:Times,serif;}#ktpvpi4 g.ending, #ktpvpi4 g.fing, #ktpvpi4 g.reh, #ktpvpi4 g.tempo {font-weight:bold;}#ktpvpi4 g.dir, #ktpvpi4 g.dynam, #ktpvpi4 g.mNum {font-style:italic;}#ktpvpi4 g.label {font-weight:normal;}#ktpvpi4 path {stroke:currentColor}</style><svg class="definition-scale" color="black" viewBox="0 0 14000 2100"><g class="page-margin" transform="translate(0, 150)"><g data-id="oz82eko" data-class="mdiv" class="mdiv pageMilestone"/><g data-id="p1iytq0m" data-class="score" class="score pageMilestone"/><g data-id="j14hywpd" data-class="system" class="system"><g data-id="r17edypw" data-class="section" class="section systemMilestone"/><g data-id="l10mrk40" data-class="measure" class="measure"><g data-id="d1pty73m" data-class="staff" class="staff"><path d="M0 540 L4279 540" stroke-width="13"/><path d="M0 720 L4279 720" stroke-width="13"/><path d="M0 900 L4279 900" stroke-width="13"/><path d="M0 1080 L4279 1080" stroke-width="13"/><path d="M0 1260 L4279 1260" stroke-width="13"/><g data-id="jeuveh3" data-class="clef" class="clef"><use href="#E050-ktpvpi4" transform="translate(90, 1080) scale(0.72, 0.72)"/></g><g data-id="kvrg3el" data-class="keySig" class="keySig"><g data-id="lxh95dc" data-class="keyAccid" class="keyAccid"><use href="#E260-ktpvpi4" transform="translate(735, 900) scale(0.72, 0.72)"/></g><g data-id="map9ciw" data-class="keyAccid" class="keyAccid"><use href="#E260-ktpvpi4" transform="translate(915, 630) scale(0.72, 0.72)"/></g></g><g data-id="nzm4hfh" data-class="meterSig" class="meterSig"><use href="#E08A-ktpvpi4" transform="translate(1237, 900) scale(0.72, 0.72)"/></g><g data-class="ledgerLines" class="ledgerLines below"><g data-class="lineDash" class="lineDash" data-related="#n1d1jccf"><path d="M1769 1440 L2091 1440" stroke-width="22"/></g><g data-class="lineDash" class="lineDash" data-related="#oaoxodd"><path d="M3386 1440 L3708 1440" stroke-width="22"/></g><g data-class="lineDash" class="lineDash" data-related="#n1d1jccf"><path d="M1769 1620 L2091 1620" stroke-width="22"/></g><g data-class="lineDash" class="lineDash" data-related="#oaoxodd"><path d="M3386 1620 L3708 1620" stroke-width="22"/></g></g><g data-id="eer7fb" data-class="layer" class="layer"><g data-id="n1d1jccf" data-class="note" class="note"><g data-class="notehead" class="notehead"><use href="#E0A3-ktpvpi4" transform="translate(1817, 1710) scale(0.72, 0.72)"/></g><g data-id="cig402m" data-class="dots" class="dots"><ellipse cx="2133" cy="1710" rx="36" ry="36" fill-opacity="1" stroke-opacity="1"/></g><g data-id="b1sq1ls1" data-class="stem" class="stem"><path d="M2034 1682 L2034 900" stroke-width="18"/></g></g><g data-id="oaoxodd" data-class="note" class="note"><g data-class="notehead" class="notehead"><use href="#E0A4-ktpvpi4" transform="translate(3434, 1620) scale(0.72, 0.72)"/></g><g data-id="d174wygd" data-class="stem" class="stem"><path d="M3651 1592 L3651 900" stroke-width="18"/></g></g></g></g><g data-id="toxc6ie" data-class="barLine" class="barLine"><path d="M4266 540 L4266 1260" stroke-width="27"/></g></g><g data-id="u15rhxwx" data-class="measure" class="measure"><g data-id="f1qrknqh" data-class="staff" class="staff"><path d="M4279 540 L6933 540" stroke-width="13"/><path d="M4279 720 L6933 720" stroke-width="13"/><path d="M4279 900 L6933 900" stroke-width="13"/><path d="M4279 1080 L6933 1080" stroke-width="13"/><path d="M4279 1260 L6933 1260" stroke-width="13"/><g data-class="ledgerLines" class="ledgerLines below"><g data-class="lineDash" class="lineDash" data-related="#p1w0qsnv"><path d="M4423 1440 L4745 1440" stroke-width="22"/></g><g data-class="lineDash" class="lineDash" data-related="#q1yp0pz3"><path d="M6040 1440 L6362 1440" stroke-width="22"/></g></g><g data-id="g4dyo9n" data-class="layer" class="layer"><g data-id="p1w0qsnv" data-class="note" class="note"><g data-class="notehead" class="notehead"><use href="#E0A3-ktpvpi4" transform="translate(4471, 1530) scale(0.72, 0.72)"/></g><g data-id="f17qyxqi" data-class="dots" class="dots"><ellipse cx="4787" cy="1530" rx="36" ry="36" fill-opacity="1" stroke-opacity="1"/></g><g data-id="exot187" data-class="stem" class="stem"><path d="M4688 1502 L4688 900" stroke-width="18"/></g><g data-id="kxi9ps1" data-class="accid" class="accid"/></g><g data-id="q1yp0pz3" data-class="note" class="note"><g data-class="notehead" class="notehead"><use href="#E0A4-ktpvpi4" transform="translate(6088, 1530) scale(0.72, 0.72)"/></g><g data-id="g10nyzhg" data-class="stem" class="stem"><path d="M6305 1502 L6305 900" stroke-width="18"/></g><g data-id="f16zed8h" data-class="accid" class="accid"><use href="#E261-ktpvpi4" transform="translate(5904, 1530) scale(0.72, 0.72)"/></g></g></g></g><g data-id="c1ejdacn" data-class="barLine" class="barLine"><path d="M6920 540 L6920 1260" stroke-width="27"/></g></g><g data-id="dr143em" data-class="measure" class="measure"><g data-id="h1bc0nm4" data-class="staff" class="staff"><path d="M6933 540 L10467 540" stroke-width="13"/><path d="M6933 720 L10467 720" stroke-width="13"/><path d="M6933 900 L10467 900" stroke-width="13"/><path d="M6933 1080 L10467 1080" stroke-width="13"/><path d="M6933 1260 L10467 1260" stroke-width="13"/><g data-class="ledgerLines" class="ledgerLines below"><g data-class="lineDash" class="lineDash" data-related="#r13deec4"><path d="M7077 1440 L7399 1440" stroke-width="22"/></g></g><g data-id="i9fczoi" data-class="layer" class="layer"><g data-id="r13deec4" data-class="note" class="note"><g data-class="notehead" class="notehead"><use href="#E0A4-ktpvpi4" transform="translate(7125, 1440) scale(0.72, 0.72)"/></g><g data-id="hpk5p4d" data-class="stem" class="stem"><path d="M7342 1412 L7342 810" stroke-width="18"/></g></g><g data-id="s1ufi9gj" data-class="note" class="note"><g data-class="notehead" class="notehead"><use href="#E0A4-ktpvpi4" transform="translate(7957, 1350) scale(0.72, 0.72)"/></g><g data-id="i1khjxya" data-class="stem" class="stem"><path d="M8174 1322 L8174 720" stroke-width="18"/></g></g><g data-id="t14bz657" data-class="note" class="note"><g data-class="notehead" class="notehead"><use href="#E0A4-ktpvpi4" transform="translate(8789, 1260) scale(0.72, 0.72)"/></g><g data-id="j1i1rg0d" data-class="stem" class="stem"><path d="M9006 1232 L9006 630" stroke-width="18"/></g><g data-id="l13fzjlu" data-class="accid" class="accid"/></g><g data-id="u9rb7ar" data-class="note" class="note"><g data-class="notehead" class="notehead"><use href="#E0A4-ktpvpi4" transform="translate(9622, 1260) scale(0.72, 0.72)"/></g><g data-id="kxlqshp" data-class="stem" class="stem"><path d="M9839 1232 L9839 630" stroke-width="18"/></g><g data-id="g1b9ryea" data-class="accid" class="accid"><use href="#E261-ktpvpi4" transform="translate(9464, 1260) scale(0.72, 0.72)"/></g></g></g></g><g data-id="l1pt7223" data-class="barLine" class="barLine"><path d="M10454 540 L10454 1260" stroke-width="27"/></g></g><g data-id="moc90ug" data-class="measure" class="measure"><g data-id="j1gaxxtg" data-class="staff" class="staff"><path d="M10467 540 L14001 540" stroke-width="13"/><path d="M10467 720 L14001 720" stroke-width="13"/><path d="M10467 900 L14001 900" stroke-width="13"/><path d="M10467 1080 L14001 1080" stroke-width="13"/><path d="M10467 1260 L14001 1260" stroke-width="13"/><g data-id="k183b4oa" data-class="layer" class="layer"><g data-id="vzqs59u" data-class="note" class="note"><g data-class="notehead" class="notehead"><use href="#E0A4-ktpvpi4" transform="translate(10659, 1170) scale(0.72, 0.72)"/></g><g data-id="l14cya7a" data-class="stem" class="stem"><path d="M10876 1142 L10876 540" stroke-width="18"/></g></g><g data-id="w1towma6" data-class="note" class="note"><g data-class="notehead" class="notehead"><use href="#E0A4-ktpvpi4" transform="translate(11491, 1170) scale(0.72, 0.72)"/></g><g data-id="mlkcz0t" data-class="stem" class="stem"><path d="M11708 1142 L11708 540" stroke-width="18"/></g><g data-id="h14q953" data-class="accid" class="accid"><use href="#E262-ktpvpi4" transform="translate(11305, 1170) scale(0.72, 0.72)"/></g></g><g data-id="xihpduz" data-class="note" class="note"><g data-class="notehead" class="notehead"><use href="#E0A4-ktpvpi4" transform="translate(12323, 1080) scale(0.72, 0.72)"/></g><g data-id="n127zq4i" data-class="stem" class="stem"><path d="M12540 1052 L12540 450" stroke-width="18"/></g></g><g data-id="y1vw8h6z" data-class="note" class="note"><g data-class="notehead" class="notehead"><use href="#E0A4-ktpvpi4" transform="translate(13156, 990) scale(0.72, 0.72)"/></g><g data-id="o1jugt4a" data-class="stem" class="stem"><path d="M13373 962 L13373 360" stroke-width="18"/></g></g></g></g><g data-id="u86nvxz" data-class="barLine" class="barLine"><path d="M13988 540 L13988 1260" stroke-width="27"/></g></g></g></g></svg></svg>