<svg viewBox="0 0 560 84" version="1.1" xmlns="http://www.w3.org/2000/svg" xmlns:xlink="http://www.w3.org/1999/xlink" overflow="visible" id="ojr5kso"><desc>Engraved by Verovio 5.6.0-85e7620</desc><defs><g id="E050-ojr5kso"><path transform="scale(1,-1)" d="M441 -245c-23 -4 -48 -6 -76 -6c-59 0 -102 7 -130 20c-88 42 -150 93 -187 154c-26 44 -43 103 -48 176c0 6 -1 13 -1 19c0 54 15 111 45 170c29 57 65 106 110 148s96 85 153 127c-3 16 -8 46 -13 92c-4 43 -5 73 -5 89c0 117 16 172 69 257c34 54 64 82 89 82 c21 0 43 -30 69 -92s39 -115 41 -159v-15c0 -109 -21 -162 -67 -241c-13 -20 -63 -90 -98 -118c-13 -9 -25 -19 -37 -29l31 -181c8 1 18 2 28 2c58 0 102 -12 133 -35c59 -43 92 -104 98 -184c1 -7 1 -15 1 -22c0 -123 -87 -209 -181 -248c8 -57 17 -110 25 -162 c5 -31 6 -58 6 -80c0 -30 -5 -53 -14 -70c-35 -64 -88 -99 -158 -103c-5 0 -11 -1 -16 -1c-37 0 -72 10 -108 27c-50 24 -77 59 -80 105v11c0 29 7 55 20 76c18 28 45 42 79 44h6c49 0 93 -42 97 -87v-9c0 -51 -34 -86 -105 -106c17 -24 51 -36 102 -36c62 0 116 43 140 85 c9 16 13 41 13 74c0 20 -1 42 -5 67c-8 53 -18 106 -26 159zM461 939c-95 0 -135 -175 -135 -286c0 -24 2 -48 5 -71c50 39 92 82 127 128c40 53 60 100 60 140v8c-4 53 -22 81 -55 81h-2zM406 119l54 -326c73 25 110 78 110 161c0 7 0 15 -1 23c-7 95 -57 142 -151 142h-12 zM382 117c-72 -2 -128 -47 -128 -120v-7c2 -46 43 -99 75 -115c-3 -2 -7 -5 -10 -10c-70 33 -116 88 -123 172v11c0 68 44 126 88 159c23 17 49 29 78 36l-29 170c-21 -13 -52 -37 -92 -73c-50 -44 -86 -84 -109 -119c-45 -69 -67 -130 -67 -182v-13c5 -68 35 -127 93 -176 s125 -73 203 -73c25 0 50 3 75 9c-19 111 -36 221 -54 331z"/></g><g id="E08A-ojr5kso"><path transform="scale(1,-1)" d="M340 179c-9 24 -56 41 -89 41c-46 0 -81 -28 -100 -58c-17 -28 -25 -78 -25 -150c0 -65 2 -111 8 -135c8 -31 18 -49 40 -67c20 -17 43 -25 70 -25c54 0 92 36 115 75c14 25 23 54 28 88h27c0 -63 -24 -105 -58 -141c-35 -38 -82 -56 -140 -56c-45 0 -83 13 -115 39 c-57 45 -101 130 -101 226c0 59 33 127 68 163c36 37 97 72 160 72c36 0 93 -21 121 -40c11 -8 23 -17 33 -30c19 -23 27 -48 27 -76c0 -51 -35 -88 -86 -88c-43 0 -76 27 -76 68c0 26 7 35 21 51c15 17 32 27 58 32c7 2 14 7 14 11z"/></g><g id="E4E5-ojr5kso"><path transform="scale(1,-1)" d="M107 292c-13 24 -30 49 -52 71c-1 1 0 2 0 3l-2 2c3 3 4 4 6 4c12 0 26 -7 40 -20s44 -40 89 -81c26 -24 28 -29 46 -47c4 -4 8 -9 10 -14c6 -8 8 -16 8 -27c0 -19 -12 -40 -36 -61c-28 -23 -49 -38 -61 -73c-4 -11 -7 -27 -10 -50c13 -43 34 -83 59 -121 c31 -47 59 -79 101 -129c-8 0 -26 7 -54 20l-62 29l-21 6l-23 1c-25 0 -45 -10 -60 -30l-4 -14l-1 -12c0 -33 20 -56 39 -78c8 -9 17 -18 26 -26c17 -15 27 -24 28 -30l-3 -3c-11 5 -19 10 -25 15c-9 3 -37 21 -45 26c-24 14 -45 32 -63 51c-19 21 -37 44 -37 71 c0 63 27 95 80 95c41 0 86 -18 136 -52c-19 26 -37 48 -55 66c-23 23 -48 44 -73 65c-28 23 -47 40 -58 53s-17 26 -18 39c75 64 113 125 113 183c0 27 -7 48 -18 68z"/></g><g id="E0A4-ojr5kso"><path transform="scale(1,-1)" d="M0 -39c0 68 73 172 200 172c66 0 114 -37 114 -95c0 -84 -106 -171 -218 -171c-64 0 -96 30 -96 94z"/></g><g id="E0A3-ojr5kso"><path transform="scale(1,-1)" d="M278 64c0 22 -17 39 -43 39c-12 0 -26 -3 -41 -10c-85 -43 -165 -94 -165 -156c5 -25 15 -32 49 -32c67 11 200 95 200 159zM0 -36c0 68 73 174 200 174c66 0 114 -39 114 -97c0 -84 -106 -173 -218 -173c-64 0 -96 32 -96 96z"/></g></defs><style type="text/css">#ojr5kso g.page-margin {font-family:Times,serif;}#ojr5kso g.ending, #ojr5kso g.fing, #ojr5kso g.reh, #ojr5kso g.tempo {font-weight:bold;}#ojr5kso g.dir, #ojr5kso g.dynam, #ojr5kso g.mNum {font-style:italic;}#ojr5kso g.label {font-weight:normal;}#ojr5kso path {stroke:currentColor}</style><svg class="definition-scale" color="black" viewBox="0 0 14000 2100"><g class="page-margin" transform="translate(0, 150)"><g data-id="k7x2slq" data-class="mdiv" class="mdiv pageMilestone"/><g data-id="lv2s4ul" data-class="score" class="score pageMilestone"/><g data-id="l1atbdrx" data-class="system" class="system"><g data-id="n1x00qms" data-class="section" class="section systemMilestone"/><g data-id="ppz2iku" data-class="measure" class="measure"><g data-id="zjp8i9x" data-class="staff" class="staff"><path d="M0 540 L4264 540" stroke-width="13"/><path d="M0 720 L4264 720" stroke-width="13"/><path d="M0 900 L4264 900" stroke-width="13"/><path d="M0 1080 L4264 1080" stroke-width="13"/><path d="M0 1260 L4264 1260" stroke-width="13"/><g data-id="dejdiz3" data-class="clef" class="clef"><use href="#E050-ojr5kso" transform="translate(90, 1080) scale(0.72, 0.72)"/></g><g data-id="e1h2yyi5" data-class="keySig" class="keySig"/><g data-id="f1ezquk7" data-class="meterSig" class="meterSig"><use href="#E08A-ojr5kso" transform="translate(735, 900) scale(0.72, 0.72)"/></g><g data-class="ledgerLines" class="ledgerLines above"><g data-class="lineDash" class="lineDash" data-related="#dy4tbfu"><path d="M2734 360 L3056 360" stroke-width="22"/></g></g><g data-id="a1wotnj1" data-class="layer" class="layer"><g data-id="ayo6d54" data-class="rest" class="rest"><use href="#E4E5-ojr5kso" transform="translate(1313, 900) scale(0.72, 0.72)"/></g><g data-id="c8kyvm6" data-class="note" class="note"><g data-class="notehead" class="notehead"><use href="#E0A4-ojr5kso" transform="translate(2048, 630) scale(0.72, 0.72)"/></g><g data-id="x13l5o5p" data-class="stem" class="stem"><path d="M2057 658 L2057 1260" stroke-width="18"/></g></g><g data-id="dy4tbfu" data-class="note" class="note"><g data-class="notehead" class="notehead"><use href="#E0A4-ojr5kso" transform="translate(2782, 360) scale(0.72, 0.72)"/></g><g data-id="y1fs5i6n" data-class="stem" class="stem"><path d="M2791 388 L2791 990" stroke-width="18"/></g></g><g data-id="e1y66nav" data-class="note" class="note"><g data-class="notehead" class="notehead"><use href="#E0A4-ojr5kso" transform="translate(3517, 450) scale(0.72, 0.72)"/></g><g data-id="z1bff1fq" data-class="stem" class="stem"><path d="M3526 478 L3526 1080" stroke-width="18"/></g></g></g></g><g data-id="xdriy74" data-class="barLine" class="barLine"><path d="M4251 540 L4251 1260" stroke-width="27"/></g></g><g data-id="y10csvpc" data-class="measure" class="measure"><g data-id="b1uh76gd" data-class="staff" class="staff"><path d="M4264 540 L7627 540" stroke-width="13"/><path d="M4264 720 L7627 720" stroke-width="13"/><path d="M4264 900 L7627 900" stroke-width="13"/><path d="M4264 1080 L7627 1080" stroke-width="13"/><path d="M4264 1260 L7627 1260" stroke-width="13"/><g data-id="cqpw2kh" data-class="layer" class="layer"><g data-id="f18kwoe" data-class="note" class="note"><g data-class="notehead" class="notehead"><use href="#E0A4-ojr5kso" transform="translate(4454, 540) scale(0.72, 0.72)"/></g><g data-id="a13ms4gw" data-class="stem" class="stem"><path d="M4463 568 L4463 1170" stroke-width="18"/></g></g><g data-id="gdyxgoe" data-class="note" class="note"><g data-class="notehead" class="notehead"><use href="#E0A4-ojr5kso" transform="translate(5189, 630) scale(0.72, 0.72)"/></g><g data-id="b76daxx" data-class="stem" class="stem"><path d="M5198 658 L5198 1260" stroke-width="18"/></g></g><g data-id="h5u5e4v" data-class="note" class="note"><g data-class="notehead" class="notehead"><use href="#E0A4-ojr5kso" transform="translate(5923, 720) scale(0.72, 0.72)"/></g><g data-id="ceed7or" data-class="stem" class="stem"><path d="M5932 748 L5932 1350" stroke-width="18"/></g></g><g data-id="clzi06w" data-class="beam" class="beam"><polygon stroke-opacity="1" fill-opacity="1" points="6658,1305 7154,1260 7154,1170 6658,1215"/><g data-id="i1nrv4d9" data-class="note" class="note"><g data-class="notehead" class="notehead"><use href="#E0A4-ojr5kso" transform="translate(6658, 630) scale(0.72, 0.72)"/></g><g data-id="d1p01fto" data-class="stem" class="stem"><path d="M6667 658 L6667 1287" stroke-width="18"/></g></g><g data-id="j1esrzdy" data-class="note" class="note"><g data-class="notehead" class="notehead"><use href="#E0A4-ojr5kso" transform="translate(7136, 540) scale(0.72, 0.72)"/></g><g data-id="escek0u" data-class="stem" class="stem"><path d="M7145 568 L7145 1242" stroke-width="18"/></g></g></g></g></g><g data-id="g1q5byim" data-class="barLine" class="barLine"><path d="M7614 540 L7614 1260" stroke-width="27"/></g></g><g data-id="h1ykhdck" data-class="measure" class="measure"><g data-id="d16khhtj" data-class="staff" class="staff"><path d="M7627 540 L10638 540" stroke-width="13"/><path d="M7627 720 L10638 720" stroke-width="13"/><path d="M7627 900 L10638 900" stroke-width="13"/><path d="M7627 1080 L10638 1080" stroke-width="13"/><path d="M7627 1260 L10638 1260" stroke-width="13"/><g data-id="e4k3kk7" data-class="layer" class="layer"><g data-id="kcg9pcf" data-class="note" class="note"><g data-class="notehead" class="notehead"><use href="#E0A3-ojr5kso" transform="translate(7817, 450) scale(0.72, 0.72)"/></g><g data-id="fat1b1s" data-class="stem" class="stem"><path d="M7826 475 L7826 1080" stroke-width="18"/></g></g><g data-id="b1mgwbb4" data-class="rest" class="rest"><use href="#E4E5-ojr5kso" transform="translate(8934, 900) scale(0.72, 0.72)"/></g><g data-id="d1lnzjde" data-class="beam" class="beam"><polygon stroke-opacity="1" fill-opacity="1" points="9669,1260 10165,1305 10165,1215 9669,1170"/><g data-id="l17przba" data-class="note" class="note"><g data-class="notehead" class="notehead"><use href="#E0A4-ojr5kso" transform="translate(9669, 540) scale(0.72, 0.72)"/></g><g data-id="gh1hc7z" data-class="stem" class="stem"><path d="M9678 568 L9678 1242" stroke-width="18"/></g></g><g data-id="mq72izy" data-class="note" class="note"><g data-class="notehead" class="notehead"><use href="#E0A4-ojr5kso" transform="translate(10147, 630) scale(0.72, 0.72)"/></g><g data-id="hxbipe9" data-class="stem" class="stem"><path d="M10156 658 L10156 1287" stroke-width="18"/></g></g></g></g></g><g data-id="p9pjuyj" data-class="barLine" class="barLine"><path d="M10625 540 L10625 1260" stroke-width="27"/></g></g><g data-id="qycnxo3" data-class="measure" class="measure"><g data-id="f1mz0hl4" data-class="staff" class="staff"><path d="M10638 540 L14001 540" stroke-width="13"/><path d="M10638 720 L14001 720" stroke-width="13"/><path d="M10638 900 L14001 900" stroke-width="13"/><path d="M10638 1080 L14001 1080" stroke-width="13"/><path d="M10638 1260 L14001 1260" stroke-width="13"/><g data-id="g11r2ax6" data-class="layer" class="layer"><g data-id="nox9jea" data-class="note" class="note"><g data-class="notehead" class="notehead"><use href="#E0A4-ojr5kso" transform="translate(10828, 720) scale(0.72, 0.72)"/></g><g data-id="i1u3ohrw" data-class="stem" class="stem"><path d="M10837 748 L10837 1350" stroke-width="18"/></g></g><g data-id="e1stbfvc" data-class="beam" class="beam"><polygon stroke-opacity="1" fill-opacity="1" points="11563,1305 12059,1260 12059,1170 11563,1215"/><g data-id="opwqv9b" data-class="note" class="note"><g data-class="notehead" class="notehead"><use href="#E0A4-ojr5kso" transform="translate(11563, 630) scale(0.72, 0.72)"/></g><g data-id="j1fsvvgn" data-class="stem" class="stem"><path d="M11572 658 L11572 1287" stroke-width="18"/></g></g><g data-id="p10goswt" data-class="note" class="note"><g data-class="notehead" class="notehead"><use href="#E0A4-ojr5kso" transform="translate(12041, 540) scale(0.72, 0.72)"/></g><g data-id="kacfc51" data-class="stem" class="stem"><path d="M12050 568 L12050 1242" stroke-width="18"/></g></g></g><g data-id="q1dfbx1l" data-class="note" class="note"><g data-class="notehead" class="notehead"><use href="#E0A4-ojr5kso" transform="translate(12519, 900) scale(0.72, 0.72)"/></g><g data-id="l1wu9kr8" data-class="stem" class="stem"><path d="M12528 928 L12528 1500" stroke-width="18"/></g></g><g data-id="rfrpmxp" data-class="note" class="note"><g data-class="notehead" class="notehead"><use href="#E0A4-ojr5kso" transform="translate(13254, 630) scale(0.72, 0.72)"/></g><g data-id="m442diq" data-class="stem" class="stem"><path d="M13263 658 L13263 1260" stroke-width="18"/></g></g></g></g><g data-id="g15ajk63" data-class="tie" class="tie"><path d="M13525,585 C13614,431 13839,431 13930,585 C13816,480 13637,480 13525,585" stroke-linecap="round" stroke-linejoin="round" stroke-width="9"/></g><g data-id="yb03697" data-class="barLine" class="barLine"><path d="M13988 540 L13988 1260" stroke-width="27"/></g></g></g></g></svg></svg>