<svg viewBox="0 0 560 84" version="1.1" xmlns="http://www.w3.org/2000/svg" xmlns:xlink="http://www.w3.org/1999/xlink" overflow="visible" id="iz0zcfd"><desc>Engraved by Verovio 5.6.0-85e7620</desc><defs><g id="E050-iz0zcfd"><path transform="scale(1,-1)" d="M441 -245c-23 -4 -48 -6 -76 -6c-59 0 -102 7 -130 20c-88 42 -150 93 -187 154c-26 44 -43 103 -48 176c0 6 -1 13 -1 19c0 54 15 111 45 170c29 57 65 106 110 148s96 85 153 127c-3 16 -8 46 -13 92c-4 43 -5 73 -5 89c0 117 16 172 69 257c34 54 64 82 89 82 c21 0 43 -30 69 -92s39 -115 41 -159v-15c0 -109 -21 -162 -67 -241c-13 -20 -63 -90 -98 -118c-13 -9 -25 -19 -37 -29l31 -181c8 1 18 2 28 2c58 0 102 -12 133 -35c59 -43 92 -104 98 -184c1 -7 1 -15 1 -22c0 -123 -87 -209 -181 -248c8 -57 17 -110 25 -162 c5 -31 6 -58 6 -80c0 -30 -5 -53 -14 -70c-35 -64 -88 -99 -158 -103c-5 0 -11 -1 -16 -1c-37 0 -72 10 -108 27c-50 24 -77 59 -80 105v11c0 29 7 55 20 76c18 28 45 42 79 44h6c49 0 93 -42 97 -87v-9c0 -51 -34 -86 -105 -106c17 -24 51 -36 102 -36c62 0 116 43 140 85 c9 16 13 41 13 74c0 20 -1 42 -5 67c-8 53 -18 106 -26 159zM461 939c-95 0 -135 -175 -135 -286c0 -24 2 -48 5 -71c50 39 92 82 127 128c40 53 60 100 60 140v8c-4 53 -22 81 -55 81h-2zM406 119l54 -326c73 25 110 78 110 161c0 7 0 15 -1 23c-7 95 -57 142 -151 142h-12 zM382 117c-72 -2 -128 -47 -128 -120v-7c2 -46 43 -99 75 -115c-3 -2 -7 -5 -10 -10c-70 33 -116 88 -123 172v11c0 68 44 126 88 159c23 17 49 29 78 36l-29 170c-21 -13 -52 -37 -92 -73c-50 -44 -86 -84 -109 -119c-45 -69 -67 -130 -67 -182v-13c5 -68 35 -127 93 -176 s125 -73 203 -73c25 0 50 3 75 9c-19 111 -36 221 -54 331z"/></g><g id="E260-iz0zcfd"><path transform="scale(1,-1)" d="M20 110c32 16 54 27 93 27c26 0 35 -3 54 -13c13 -7 24 -20 27 -38l4 -25c0 -28 -16 -57 -45 -89c-23 -25 -39 -44 -65 -68l-88 -79v644h20v-359zM90 106c-32 0 -48 -10 -70 -29v-194c31 31 54 59 71 84c21 32 32 59 32 84c0 9 1 16 1 20c0 14 -3 21 -11 30l-8 3z"/></g><g id="E086-iz0zcfd"><path transform="scale(1,-1)" d="M284 -91c0 37 -28 92 -67 92c-35 0 -65 -54 -65 -111c0 -52 22 -104 68 -104c47 0 64 68 64 123zM230 214c-36 0 -90 -33 -90 -184l2 -36c40 24 81 36 120 36c80 0 140 -48 140 -121c0 -99 -99 -159 -182 -159c-160 0 -200 173 -200 244c0 21 2 43 7 71l10 35 c26 85 73 115 98 126c41 19 74 24 103 24c93 0 142 -63 142 -105c0 -58 -52 -72 -73 -72c-33 0 -59 24 -65 35c-3 5 -6 14 -7 25l11 30c6 15 9 27 9 35c0 11 -9 16 -25 16z"/></g><g id="E084-iz0zcfd"><path transform="scale(1,-1)" d="M20 -78c84 97 114 180 134 329h170c-13 -32 -82 -132 -99 -151l-84 -97c-33 -36 -59 -63 -80 -81h162v102l127 123v-225h57v-39h-57v-34c0 -43 19 -65 57 -65v-34h-244v36c48 0 60 26 60 70v27h-203v39z"/></g><g id="E0A4-iz0zcfd"><path transform="scale(1,-1)" d="M0 -39c0 68 73 172 200 172c66 0 114 -37 114 -95c0 -84 -106 -171 -218 -171c-64 0 -96 30 -96 94z"/></g><g id="E0A3-iz0zcfd"><path transform="scale(1,-1)" d="M278 64c0 22 -17 39 -43 39c-12 0 -26 -3 -41 -10c-85 -43 -165 -94 -165 -156c5 -25 15 -32 49 -32c67 11 200 95 200 159zM0 -36c0 68 73 174 200 174c66 0 114 -39 114 -97c0 -84 -106 -173 -218 -173c-64 0 -96 32 -96 96z"/></g></defs><style type="text/css">#iz0zcfd g.page-margin {font-family:Times,serif;}#iz0zcfd g.ending, #iz0zcfd g.fing, #iz0zcfd g.reh, #iz0zcfd g.tempo {font-weight:bold;}#iz0zcfd g.dir, #iz0zcfd g.dynam, #iz0zcfd g.mNum {font-style:italic;}#iz0zcfd g.label {font-weight:normal;}#iz0zcfd path {stroke:currentColor}</style><svg class="definition-scale" color="black" viewBox="0 0 14000 2100"><g class="page-margin" transform="translate(0, 150)"><g data-id="r178it9j" data-class="mdiv" class="mdiv pageMilestone"/><g data-id="sloc6vt" data-class="score" class="score pageMilestone"/><g data-id="t11etbhk" data-class="system" class="system"><g data-id="u18kkjzu" data-class="section" class="section systemMilestone"/><g data-id="jjq7hrp" data-class="measure" class="measure"><g data-id="g6k455p" data-class="staff" class="staff"><path d="M0 540 L2531 540" stroke-width="13"/><path d="M0 720 L2531 720" stroke-width="13"/><path d="M0 900 L2531 900" stroke-width="13"/><path d="M0 1080 L2531 1080" stroke-width="13"/><path d="M0 1260 L2531 1260" stroke-width="13"/><g data-id="p1m2qbeh" data-class="clef" class="clef"><use href="#E050-iz0zcfd" transform="translate(90, 1080) scale(0.72, 0.72)"/></g><g data-id="q62gwxr" data-class="keySig" class="keySig"><g data-id="r3va7cp" data-class="keyAccid" class="keyAccid"><use href="#E260-iz0zcfd" transform="translate(735, 900) scale(0.72, 0.72)"/></g></g><g data-id="s1bl62al" data-class="meterSig" class="meterSig"><use href="#E086-iz0zcfd" transform="translate(1045, 720) scale(0.72, 0.72)"/><use href="#E084-iz0zcfd" transform="translate(1043, 1080) scale(0.72, 0.72)"/></g><g data-class="ledgerLines" class="ledgerLines below"><g data-class="lineDash" class="lineDash" data-related="#lr4ny3i"><path d="M1569 1440 L1891 1440" stroke-width="22"/></g></g><g data-id="hnpvqne" data-class="layer" class="layer"><g data-id="lr4ny3i" data-class="note" class="note"><g data-class="notehead" class="notehead"><use href="#E0A4-iz0zcfd" transform="translate(1617, 1440) scale(0.72, 0.72)"/></g><g data-id="d59ougt" data-class="stem" class="stem"><path d="M1834 1412 L1834 810" stroke-width="18"/></g></g></g></g><g data-id="r1gykbmm" data-class="barLine" class="barLine"><path d="M2518 540 L2518 1260" stroke-width="27"/></g></g><g data-id="s8rl6u6" data-class="measure" class="measure"><g data-id="i1kgy7oq" data-class="staff" class="staff"><path d="M2531 540 L9776 540" stroke-width="13"/><path d="M2531 720 L9776 720" stroke-width="13"/><path d="M2531 900 L9776 900" stroke-width="13"/><path d="M2531 1080 L9776 1080" stroke-width="13"/><path d="M2531 1260 L9776 1260" stroke-width="13"/><g data-class="ledgerLines" class="ledgerLines below"><g data-class="lineDash" class="lineDash" data-related="#n1crsnpm"><path d="M3262 1440 L3584 1440" stroke-width="22"/></g><g data-class="lineDash" class="lineDash" data-related="#o13ttu5a"><path d="M3848 1440 L4170 1440" stroke-width="22"/></g><g data-class="lineDash" class="lineDash" data-related="#p1it85gc"><path d="M4435 1440 L4757 1440" stroke-width="22"/></g><g data-class="lineDash" class="lineDash" data-related="#u10olhe4"><path d="M7368 1440 L7690 1440" stroke-width="22"/></g><g data-class="lineDash" class="lineDash" data-related="#o13ttu5a"><path d="M3848 1620 L4170 1620" stroke-width="22"/></g></g><g data-id="j86fmmt" data-class="layer" class="layer"><g data-id="k1bgwxdd" data-class="beam" class="beam"><polygon stroke-opacity="1" fill-opacity="1" points="2931,450 5882,405 5882,495 2931,540"/><g data-id="m9o9u5z" data-class="note" class="note"><g data-class="notehead" class="notehead"><use href="#E0A4-iz0zcfd" transform="translate(2723, 1170) scale(0.72, 0.72)"/></g><g data-id="e1hrqfgt" data-class="stem" class="stem"><path d="M2940 1142 L2940 468" stroke-width="18"/></g></g><g data-id="n1crsnpm" data-class="note" class="note"><g data-class="notehead" class="notehead"><use href="#E0A4-iz0zcfd" transform="translate(3310, 1440) scale(0.72, 0.72)"/></g><g data-id="f1287e9r" data-class="stem" class="stem"><path d="M3527 1412 L3527 459" stroke-width="18"/></g></g><g data-id="o13ttu5a" data-class="note" class="note"><g data-class="notehead" class="notehead"><use href="#E0A4-iz0zcfd" transform="translate(3896, 1620) scale(0.72, 0.72)"/></g><g data-id="g16oeojq" data-class="stem" class="stem"><path d="M4113 1592 L4113 451" stroke-width="18"/></g></g><g data-id="p1it85gc" data-class="note" class="note"><g data-class="notehead" class="notehead"><use href="#E0A4-iz0zcfd" transform="translate(4483, 1440) scale(0.72, 0.72)"/></g><g data-id="hj1tmau" data-class="stem" class="stem"><path d="M4700 1412 L4700 441" stroke-width="18"/></g></g><g data-id="qthkqzb" data-class="note" class="note"><g data-class="notehead" class="notehead"><use href="#E0A4-iz0zcfd" transform="translate(5070, 1170) scale(0.72, 0.72)"/></g><g data-id="io68o3b" data-class="stem" class="stem"><path d="M5287 1142 L5287 432" stroke-width="18"/></g></g><g data-id="rpot0h9" data-class="note" class="note"><g data-class="notehead" class="notehead"><use href="#E0A4-iz0zcfd" transform="translate(5656, 1080) scale(0.72, 0.72)"/></g><g data-id="je6osdn" data-class="stem" class="stem"><path d="M5873 1052 L5873 423" stroke-width="18"/></g></g></g><g data-id="lk2e2x3" data-class="beam" class="beam"><polygon stroke-opacity="1" fill-opacity="1" points="6451,360 9402,315 9402,405 6451,450"/><g data-id="s1s0ztx9" data-class="note" class="note"><g data-class="notehead" class="notehead"><use href="#E0A4-iz0zcfd" transform="translate(6243, 990) scale(0.72, 0.72)"/></g><g data-id="k1q8re4r" data-class="stem" class="stem"><path d="M6460 962 L6460 378" stroke-width="18"/></g></g><g data-id="t16yzb4e" data-class="note" class="note"><g data-class="notehead" class="notehead"><use href="#E0A4-iz0zcfd" transform="translate(6830, 1170) scale(0.72, 0.72)"/></g><g data-id="ld8y902" data-class="stem" class="stem"><path d="M7047 1142 L7047 369" stroke-width="18"/></g></g><g data-id="u10olhe4" data-class="note" class="note"><g data-class="notehead" class="notehead"><use href="#E0A4-iz0zcfd" transform="translate(7416, 1440) scale(0.72, 0.72)"/></g><g data-id="mmck65i" data-class="stem" class="stem"><path d="M7633 1412 L7633 361" stroke-width="18"/></g></g><g data-id="v1c3pbez" data-class="note" class="note"><g data-class="notehead" class="notehead"><use href="#E0A4-iz0zcfd" transform="translate(8003, 1170) scale(0.72, 0.72)"/></g><g data-id="naptwyq" data-class="stem" class="stem"><path d="M8220 1142 L8220 351" stroke-width="18"/></g></g><g data-id="w1r30zbv" data-class="note" class="note"><g data-class="notehead" class="notehead"><use href="#E0A4-iz0zcfd" transform="translate(8590, 990) scale(0.72, 0.72)"/></g><g data-id="oy2dwhf" data-class="stem" class="stem"><path d="M8807 962 L8807 342" stroke-width="18"/></g></g><g data-id="xnpxsz9" data-class="note" class="note"><g data-class="notehead" class="notehead"><use href="#E0A4-iz0zcfd" transform="translate(9176, 900) scale(0.72, 0.72)"/></g><g data-id="p14o0m2y" data-class="stem" class="stem"><path d="M9393 872 L9393 333" stroke-width="18"/></g><g data-id="ol1dwnj" data-class="accid" class="accid"/></g></g></g></g><g data-id="afj0gwi" data-class="barLine" class="barLine"><path d="M9763 540 L9763 1260" stroke-width="27"/></g></g><g data-id="b1rg491j" data-class="measure" class="measure"><g data-id="k1y4nlx7" data-class="staff" class="staff"><path d="M9776 540 L14002 540" stroke-width="13"/><path d="M9776 720 L14002 720" stroke-width="13"/><path d="M9776 900 L14002 900" stroke-width="13"/><path d="M9776 1080 L14002 1080" stroke-width="13"/><path d="M9776 1260 L14002 1260" stroke-width="13"/><g data-id="lih0efa" data-class="layer" class="layer"><g data-id="y1ipvvtd" data-class="note" class="note"><g data-class="notehead" class="notehead"><use href="#E0A3-iz0zcfd" transform="translate(9968, 810) scale(0.72, 0.72)"/></g><g data-id="r14gj21p" data-class="dots" class="dots"><ellipse cx="10284" cy="810" rx="36" ry="36" fill-opacity="1" stroke-opacity="1"/></g><g data-id="qzav4hh" data-class="stem" class="stem"><path d="M9977 835 L9977 1440" stroke-width="18"/></g></g><g data-id="z1s0eht2" data-class="note" class="note"><g data-class="notehead" class="notehead"><use href="#E0A3-iz0zcfd" transform="translate(11717, 810) scale(0.72, 0.72)"/></g><g data-id="s69rujw" data-class="stem" class="stem"><path d="M11726 835 L11726 1440" stroke-width="18"/></g></g><g data-id="a1dsg4sg" data-class="note" class="note"><g data-class="notehead" class="notehead"><use href="#E0A4-iz0zcfd" transform="translate(13088, 810) scale(0.72, 0.72)"/></g><g data-id="tqefph4" data-class="stem" class="stem"><path d="M13097 838 L13097 1440" stroke-width="18"/></g></g></g></g><g data-id="m1i3d6s6" data-class="tie" class="tie"><path d="M10239,698 C10592,545 11317,545 11672,698 C11308,593 10601,593 10239,698" stroke-linecap="round" stroke-linejoin="round" stroke-width="9"/></g><g data-id="j156cmsv" data-class="barLine" class="barLine"><path d="M13989 540 L13989 1260" stroke-width="27"/></g></g></g></g></svg></svg>