<svg viewBox="0 0 560 92" version="1.1" xmlns="http://www.w3.org/2000/svg" xmlns:xlink="http://www.w3.org/1999/xlink" overflow="visible" id="a1d9k1im"><desc>Engraved by Verovio 5.6.0-85e7620</desc><defs><g id="E050-a1d9k1im"><path transform="scale(1,-1)" d="M441 -245c-23 -4 -48 -6 -76 -6c-59 0 -102 7 -130 20c-88 42 -150 93 -187 154c-26 44 -43 103 -48 176c0 6 -1 13 -1 19c0 54 15 111 45 170c29 57 65 106 110 148s96 85 153 127c-3 16 -8 46 -13 92c-4 43 -5 73 -5 89c0 117 16 172 69 257c34 54 64 82 89 82 c21 0 43 -30 69 -92s39 -115 41 -159v-15c0 -109 -21 -162 -67 -241c-13 -20 -63 -90 -98 -118c-13 -9 -25 -19 -37 -29l31 -181c8 1 18 2 28 2c58 0 102 -12 133 -35c59 -43 92 -104 98 -184c1 -7 1 -15 1 -22c0 -123 -87 -209 -181 -248c8 -57 17 -110 25 -162 c5 -31 6 -58 6 -80c0 -30 -5 -53 -14 -70c-35 -64 -88 -99 -158 -103c-5 0 -11 -1 -16 -1c-37 0 -72 10 -108 27c-50 24 -77 59 -80 105v11c0 29 7 55 20 76c18 28 45 42 79 44h6c49 0 93 -42 97 -87v-9c0 -51 -34 -86 -105 -106c17 -24 51 -36 102 -36c62 0 116 43 140 85 c9 16 13 41 13 74c0 20 -1 42 -5 67c-8 53 -18 106 -26 159zM461 939c-95 0 -135 -175 -135 -286c0 -24 2 -48 5 -71c50 39 92 82 127 128c40 53 60 100 60 140v8c-4 53 -22 81 -55 81h-2zM406 119l54 -326c73 25 110 78 110 161c0 7 0 15 -1 23c-7 95 -57 142 -151 142h-12 zM382 117c-72 -2 -128 -47 -128 -120v-7c2 -46 43 -99 75 -115c-3 -2 -7 -5 -10 -10c-70 33 -116 88 -123 172v11c0 68 44 126 88 159c23 17 49 29 78 36l-29 170c-21 -13 -52 -37 -92 -73c-50 -44 -86 -84 -109 -119c-45 -69 -67 -130 -67 -182v-13c5 -68 35 -127 93 -176 s125 -73 203 -73c25 0 50 3 75 9c-19 111 -36 221 -54 331z"/></g><g id="E262-a1d9k1im"><path transform="scale(1,-1)" d="M136 186v169h17v-164l44 14v-91l-44 -14v-165l44 12v-91l-44 -13v-155h-17v150l-76 -22v-155h-17v149l-43 -13v90l43 14v167l-43 -14v92l43 13v169h17v-163zM60 73v-167l76 22v168z"/></g><g id="E08A-a1d9k1im"><path transform="scale(1,-1)" d="M340 179c-9 24 -56 41 -89 41c-46 0 -81 -28 -100 -58c-17 -28 -25 -78 -25 -150c0 -65 2 -111 8 -135c8 -31 18 -49 40 -67c20 -17 43 -25 70 -25c54 0 92 36 115 75c14 25 23 54 28 88h27c0 -63 -24 -105 -58 -141c-35 -38 -82 -56 -140 -56c-45 0 -83 13 -115 39 c-57 45 -101 130 -101 226c0 59 33 127 68 163c36 37 97 72 160 72c36 0 93 -21 121 -40c11 -8 23 -17 33 -30c19 -23 27 -48 27 -76c0 -51 -35 -88 -86 -88c-43 0 -76 27 -76 68c0 26 7 35 21 51c15 17 32 27 58 32c7 2 14 7 14 11z"/></g><g id="E0A3-a1d9k1im"><path transform="scale(1,-1)" d="M278 64c0 22 -17 39 -43 39c-12 0 -26 -3 -41 -10c-85 -43 -165 -94 -165 -156c5 -25 15 -32 49 -32c67 11 200 95 200 159zM0 -36c0 68 73 174 200 174c66 0 114 -39 114 -97c0 -84 -106 -173 -218 -173c-64 0 -96 32 -96 96z"/></g><g id="E4E5-a1d9k1im"><path transform="scale(1,-1)" d="M107 292c-13 24 -30 49 -52 71c-1 1 0 2 0 3l-2 2c3 3 4 4 6 4c12 0 26 -7 40 -20s44 -40 89 -81c26 -24 28 -29 46 -47c4 -4 8 -9 10 -14c6 -8 8 -16 8 -27c0 -19 -12 -40 -36 -61c-28 -23 -49 -38 -61 -73c-4 -11 -7 -27 -10 -50c13 -43 34 -83 59 -121 c31 -47 59 -79 101 -129c-8 0 -26 7 -54 20l-62 29l-21 6l-23 1c-25 0 -45 -10 -60 -30l-4 -14l-1 -12c0 -33 20 -56 39 -78c8 -9 17 -18 26 -26c17 -15 27 -24 28 -30l-3 -3c-11 5 -19 10 -25 15c-9 3 -37 21 -45 26c-24 14 -45 32 -63 51c-19 21 -37 44 -37 71 c0 63 27 95 80 95c41 0 86 -18 136 -52c-19 26 -37 48 -55 66c-23 23 -48 44 -73 65c-28 23 -47 40 -58 53s-17 26 -18 39c75 64 113 125 113 183c0 27 -7 48 -18 68z"/></g><g id="E0A4-a1d9k1im"><path transform="scale(1,-1)" d="M0 -39c0 68 73 172 200 172c66 0 114 -37 114 -95c0 -84 -106 -171 -218 -171c-64 0 -96 30 -96 94z"/></g><g id="E044-a1d9k1im"><path transform="scale(1,-1)" d="M0 0c0 28 22 50 50 50s50 -22 50 -50s-22 -50 -50 -50s-50 22 -50 50z"/></g><g id="E241-a1d9k1im"><path transform="scale(1,-1)" d="M179 646c-4 8 -17 30 -18 33l-4 10c0 3 2 5 5 5s7 -2 13 -7c23 -33 46 -81 66 -132c22 -57 35 -125 35 -163c0 -104 -60 -183 -122 -241c-63 -59 -57 -53 -61 -56c-38 -34 -63 -95 -71 -95h-22v190c40 7 69 11 87 16c88 27 168 95 168 200c0 30 -12 89 -30 138 c-17 47 -31 73 -46 102z"/></g><g id="E240-a1d9k1im"><path transform="scale(1,-1)" d="M179 -646c15 29 29 55 46 102c18 49 30 108 30 138c0 105 -80 173 -168 200c-18 5 -47 9 -87 16v190h22c8 0 33 -61 71 -95c4 -3 -2 3 61 -56c62 -58 122 -137 122 -241c0 -38 -13 -106 -35 -163c-20 -51 -43 -99 -66 -132c-6 -5 -10 -7 -13 -7s-5 2 -5 5l4 10 c1 3 14 25 18 33z"/></g><g id="E566-a1d9k1im"><path transform="scale(1,-1)" d="M162 167l-36 -115l-1 -10c0 -10 5 -16 16 -19c32 18 48 43 48 75c0 20 -9 43 -27 69zM432 225c0 -21 -11 -36 -31 -37c-15 0 -20 10 -23 25l3 14l2 11l1 9l-4 4c-1 -1 -2 -1 -3 -1c-23 -13 -36 -24 -47 -48l-12 -27c-18 -50 -31 -105 -47 -157h-60l58 214c0 7 -3 5 -5 9 c-7 0 -25 -8 -51 -28l-37 -28c20 -34 31 -67 31 -97c0 -12 -1 -21 -4 -28l-6 -15c-1 -3 -5 -10 -12 -19c-14 -18 -30 -26 -49 -26c-30 0 -67 18 -67 52c1 1 1 6 3 15l20 84c-9 -5 -21 -8 -36 -8c-21 0 -29 7 -40 19c-10 12 -16 27 -16 47c0 23 6 33 17 45s25 18 46 18 c19 0 39 -8 60 -25l34 117h63l-46 -158l38 31l32 20c21 10 35 13 62 15c16 0 24 -7 24 -21l-1 -10l-6 -24c21 37 44 55 70 55c23 0 39 -23 39 -47zM18 208c0 -27 17 -47 45 -47l3 -2l13 4l23 9l14 55c-17 15 -35 22 -55 22c-26 0 -43 -17 -43 -41z"/></g></defs><style type="text/css">#a1d9k1im g.page-margin {font-family:Times,serif;}#a1d9k1im g.ending, #a1d9k1im g.fing, #a1d9k1im g.reh, #a1d9k1im g.tempo {font-weight:bold;}#a1d9k1im g.dir, #a1d9k1im g.dynam, #a1d9k1im g.mNum {font-style:italic;}#a1d9k1im g.label {font-weight:normal;}#a1d9k1im path {stroke:currentColor}</style><svg class="definition-scale" color="black" viewBox="0 0 14000 2280"><g class="page-margin" transform="translate(0, 150)"><g data-id="za5hy4c" data-class="mdiv" class="mdiv pageMilestone"/><g data-id="a9wzot5" data-class="score" class="score pageMilestone"/><g data-id="dcsk467" data-class="system" class="system"><g data-id="chnu1zg" data-class="section" class="section systemMilestone"/><g data-id="bav03x1" data-class="measure" class="measure"><g data-id="o1jz39z5" data-class="staff" class="staff"><path d="M0 726 L5133 726" stroke-width="13"/><path d="M0 906 L5133 906" stroke-width="13"/><path d="M0 1086 L5133 1086" stroke-width="13"/><path d="M0 1266 L5133 1266" stroke-width="13"/><path d="M0 1446 L5133 1446" stroke-width="13"/><g data-id="dx5ycyi" data-class="clef" class="clef"><use href="#E050-a1d9k1im" transform="translate(90, 1266) scale(0.72, 0.72)"/></g><g data-id="e18pvo3l" data-class="keySig" class="keySig"><g data-id="figljoz" data-class="keyAccid" class="keyAccid"><use href="#E262-a1d9k1im" transform="translate(735, 726) scale(0.72, 0.72)"/></g><g data-id="guo4qxi" data-class="keyAccid" class="keyAccid"><use href="#E262-a1d9k1im" transform="translate(913, 996) scale(0.72, 0.72)"/></g></g><g data-id="h7k24co" data-class="meterSig" class="meterSig"><use href="#E08A-a1d9k1im" transform="translate(1234, 1086) scale(0.72, 0.72)"/></g><g data-class="ledgerLines" class="ledgerLines above"><g data-class="lineDash" class="lineDash" data-related="#z1jcce54"><path d="M4149 546 L4443 546" stroke-width="22"/></g><g data-class="lineDash" class="lineDash" data-related="#ag3aknf"><path d="M4477 546 L4771 546" stroke-width="22"/></g><g data-class="lineDash" class="lineDash" data-related="#ag3aknf"><path d="M4477 366 L4771 366" stroke-width="22"/></g></g><g data-id="pg9b6i5" data-class="layer" class="layer"><g data-id="w1oaozvz" data-class="note" class="note"><g data-class="notehead" class="notehead"><use href="#E0A3-a1d9k1im" transform="translate(1809, 1536) scale(0.72, 0.72)"/></g><g data-id="k1c69vun" data-class="stem" class="stem"><path d="M2026 1508 L2026 906" stroke-width="18"/></g></g><g data-id="uw6s5gq" data-class="rest" class="rest"><use href="#E4E5-a1d9k1im" transform="translate(2846, 1086) scale(0.72, 0.72)"/></g><g data-id="r1x4wzeu" data-class="beam" class="beam"><polygon stroke-opacity="1" fill-opacity="1" points="3527,1536 4529,1176 4529,1086 3527,1446"/><polygon stroke-opacity="1" fill-opacity="1" points="3527,1401 3864,1281 3864,1191 3527,1311"/><polygon stroke-opacity="1" fill-opacity="1" points="3864,1281 4192,1161 4192,1071 3864,1191"/><polygon stroke-opacity="1" fill-opacity="1" points="4192,1161 4529,1041 4529,951 4192,1071"/><g data-id="xbe0fri" data-class="note" class="note"><g data-class="notehead" class="notehead"><use href="#E0A4-a1d9k1im" transform="translate(3527, 906) scale(0.72, 0.72)"/></g><g data-id="l1eop4bc" data-class="stem" class="stem"><path d="M3536 934 L3536 1518" stroke-width="18"/></g></g><g data-id="y4fy0qz" data-class="note" class="note"><g data-class="notehead" class="notehead"><use href="#E0A4-a1d9k1im" transform="translate(3855, 726) scale(0.72, 0.72)"/></g><g data-id="mslggb1" data-class="stem" class="stem"><path d="M3864 754 L3864 1398" stroke-width="18"/></g><g data-id="u1ibcvat" data-class="accid" class="accid"/></g><g data-id="z1jcce54" data-class="note" class="note"><g data-class="notehead" class="notehead"><use href="#E0A4-a1d9k1im" transform="translate(4183, 546) scale(0.72, 0.72)"/></g><g data-id="n143k430" data-class="stem" class="stem"><path d="M4192 574 L4192 1278" stroke-width="18"/></g></g><g data-id="ag3aknf" data-class="note" class="note"><g data-class="notehead" class="notehead"><use href="#E0A4-a1d9k1im" transform="translate(4511, 276) scale(0.72, 0.72)"/></g><g data-id="oj72piw" data-class="stem" class="stem"><path d="M4520 304 L4520 1158" stroke-width="18"/></g></g></g></g></g><g data-id="j1xkft2o" data-class="barLine" class="barLine"><path d="M4885 726 L4885 1446" stroke-width="90"/><path d="M5015 726 L5015 1446" stroke-width="27"/><use href="#E044-a1d9k1im" transform="translate(5061, 996) scale(0.72, 0.72)"/><use href="#E044-a1d9k1im" transform="translate(5061, 1176) scale(0.72, 0.72)"/></g></g><g data-id="k1kat6hk" data-class="measure" class="measure"><g data-id="q1vo1qwj" data-class="staff" class="staff"><path d="M5133 726 L7959 726" stroke-width="13"/><path d="M5133 906 L7959 906" stroke-width="13"/><path d="M5133 1086 L7959 1086" stroke-width="13"/><path d="M5133 1266 L7959 1266" stroke-width="13"/><path d="M5133 1446 L7959 1446" stroke-width="13"/><g data-class="ledgerLines" class="ledgerLines above"><g data-class="lineDash" class="lineDash" data-related="#bacw52c"><path d="M5272 546 L5594 546" stroke-width="22"/></g><g data-class="lineDash" class="lineDash" data-related="#c1xsiyb"><path d="M6141 546 L6463 546" stroke-width="22"/></g><g data-class="lineDash" class="lineDash" data-related="#d2r1tf"><path d="M6585 546 L6907 546" stroke-width="22"/></g><g data-class="lineDash" class="lineDash" data-related="#e1b1fp96"><path d="M7454 546 L7776 546" stroke-width="22"/></g><g data-class="lineDash" class="lineDash" data-related="#bacw52c"><path d="M5272 366 L5594 366" stroke-width="22"/></g><g data-class="lineDash" class="lineDash" data-related="#c1xsiyb"><path d="M6141 366 L6463 366" stroke-width="22"/></g><g data-class="lineDash" class="lineDash" data-related="#d2r1tf"><path d="M6585 366 L6907 366" stroke-width="22"/></g><g data-class="lineDash" class="lineDash" data-related="#bacw52c"><path d="M5272 186 L5594 186" stroke-width="22"/></g><g data-class="lineDash" class="lineDash" data-related="#c1xsiyb"><path d="M6141 186 L6463 186" stroke-width="22"/></g></g><g data-id="r15k4jqt" data-class="layer" class="layer"><g data-id="bacw52c" data-class="note" class="note"><g data-class="notehead" class="notehead"><use href="#E0A4-a1d9k1im" transform="translate(5320, 96) scale(0.72, 0.72)"/></g><g data-id="q1r01hhh" data-class="dots" class="dots"><ellipse cx="5636" cy="96" rx="36" ry="36" fill-opacity="1" stroke-opacity="1"/></g><g data-id="p1lk6qtb" data-class="stem" class="stem"><path d="M5329 124 L5329 1086" stroke-width="18"/></g><g data-id="v1t6zp7" data-class="accid" class="accid"/></g><g data-id="c1xsiyb" data-class="note" class="note"><g data-class="notehead" class="notehead"><use href="#E0A4-a1d9k1im" transform="translate(6189, 186) scale(0.72, 0.72)"/></g><g data-id="rv3e8nn" data-class="stem" class="stem"><path d="M6198 214 L6198 1086" stroke-width="18"/><g data-id="s1jg3aui" data-class="flag" class="flag"><use href="#E241-a1d9k1im" transform="translate(6189, 1086) scale(0.72, 0.72)"/></g></g></g><g data-id="d2r1tf" data-class="note" class="note"><g data-class="notehead" class="notehead"><use href="#E0A4-a1d9k1im" transform="translate(6633, 276) scale(0.72, 0.72)"/></g><g data-id="usgwdyy" data-class="dots" class="dots"><ellipse cx="6949" cy="276" rx="36" ry="36" fill-opacity="1" stroke-opacity="1"/></g><g data-id="tfrjfh3" data-class="stem" class="stem"><path d="M6642 304 L6642 1086" stroke-width="18"/></g></g><g data-id="e1b1fp96" data-class="note" class="note"><g data-class="notehead" class="notehead"><use href="#E0A4-a1d9k1im" transform="translate(7502, 546) scale(0.72, 0.72)"/></g><g data-id="vxvgs7o" data-class="stem" class="stem"><path d="M7511 574 L7511 1176" stroke-width="18"/><g data-id="w1v506zb" data-class="flag" class="flag"><use href="#E241-a1d9k1im" transform="translate(7502, 1176) scale(0.72, 0.72)"/></g></g></g></g></g><g data-id="s153lkwv" data-class="barLine" class="barLine"><path d="M7946 726 L7946 1446" stroke-width="27"/></g></g><g data-id="t5mgdn6" data-class="measure" class="measure"><g data-id="s3tfbjr" data-class="staff" class="staff"><path d="M7959 726 L10870 726" stroke-width="13"/><path d="M7959 906 L10870 906" stroke-width="13"/><path d="M7959 1086 L10870 1086" stroke-width="13"/><path d="M7959 1266 L10870 1266" stroke-width="13"/><path d="M7959 1446 L10870 1446" stroke-width="13"/><g data-id="taxpfwy" data-class="layer" class="layer"><g data-id="f18t2u46" data-class="note" class="note"><g data-class="notehead" class="notehead"><use href="#E0A4-a1d9k1im" transform="translate(8146, 726) scale(0.72, 0.72)"/></g><g data-id="y1hipgf6" data-class="dots" class="dots"><ellipse cx="8462" cy="636" rx="36" ry="36" fill-opacity="1" stroke-opacity="1"/></g><g data-id="x179tkt0" data-class="stem" class="stem"><path d="M8155 754 L8155 1356" stroke-width="18"/></g><g data-id="w1w0oci9" data-class="accid" class="accid"/></g><g data-id="gi1nn32" data-class="note" class="note"><g data-class="notehead" class="notehead"><use href="#E0A4-a1d9k1im" transform="translate(9015, 816) scale(0.72, 0.72)"/></g><g data-id="zuisyxp" data-class="stem" class="stem"><path d="M9024 844 L9024 1446" stroke-width="18"/><g data-id="a1ccmgss" data-class="flag" class="flag"><use href="#E241-a1d9k1im" transform="translate(9015, 1446) scale(0.72, 0.72)"/></g></g></g><g data-id="h7qi8jz" data-class="note" class="note"><g data-class="notehead" class="notehead"><use href="#E0A4-a1d9k1im" transform="translate(9459, 906) scale(0.72, 0.72)"/></g><g data-id="c7i2r3x" data-class="dots" class="dots"><ellipse cx="9775" cy="816" rx="36" ry="36" fill-opacity="1" stroke-opacity="1"/></g><g data-id="b1dm7e5t" data-class="stem" class="stem"><path d="M9468 934 L9468 1536" stroke-width="18"/></g></g><g data-id="i1lq3e4z" data-class="note" class="note"><g data-class="notehead" class="notehead"><use href="#E0A4-a1d9k1im" transform="translate(10328, 1176) scale(0.72, 0.72)"/></g><g data-id="d16oufyx" data-class="stem" class="stem"><path d="M10545 1148 L10545 546" stroke-width="18"/><g data-id="eo2mzlj" data-class="flag" class="flag"><use href="#E240-a1d9k1im" transform="translate(10536, 546) scale(0.72, 0.72)"/></g></g></g></g></g><g data-id="b14iujum" data-class="barLine" class="barLine"><path d="M10857 726 L10857 1446" stroke-width="27"/></g></g><g data-id="c1fyjc3b" data-class="measure" class="measure"><g data-id="u1t2c0fp" data-class="staff" class="staff"><path d="M10870 726 L14002 726" stroke-width="13"/><path d="M10870 906 L14002 906" stroke-width="13"/><path d="M10870 1086 L14002 1086" stroke-width="13"/><path d="M10870 1266 L14002 1266" stroke-width="13"/><path d="M10870 1446 L14002 1446" stroke-width="13"/><g data-id="v1r9lc5v" data-class="layer" class="layer"><g data-id="j1lkruwr" data-class="note" class="note"><g data-class="notehead" class="notehead"><use href="#E0A4-a1d9k1im" transform="translate(11057, 1086) scale(0.72, 0.72)"/></g><g data-id="f1xdzw8u" data-class="stem" class="stem"><path d="M11066 1114 L11066 1686" stroke-width="18"/></g></g><g data-id="s1va0aqc" data-class="beam" class="beam"><polygon stroke-opacity="1" fill-opacity="1" points="11738,1671 12328,1671 12328,1581 11738,1581"/><polygon stroke-opacity="1" fill-opacity="1" points="12102,1536 12328,1536 12328,1446 12102,1446"/><g data-id="k10llw7y" data-class="note" class="note"><g data-class="notehead" class="notehead"><use href="#E0A4-a1d9k1im" transform="translate(11738, 1086) scale(0.72, 0.72)"/></g><g data-id="hjd270d" data-class="dots" class="dots"><ellipse cx="12054" cy="996" rx="36" ry="36" fill-opacity="1" stroke-opacity="1"/></g><g data-id="g7kazv2" data-class="stem" class="stem"><path d="M11747 1114 L11747 1653" stroke-width="18"/></g></g><g data-id="lltatcg" data-class="note" class="note"><g data-class="notehead" class="notehead"><use href="#E0A4-a1d9k1im" transform="translate(12310, 1086) scale(0.72, 0.72)"/></g><g data-id="i1ttcob2" data-class="stem" class="stem"><path d="M12319 1114 L12319 1653" stroke-width="18"/></g></g></g><g data-id="my833q8" data-class="note" class="note"><g data-class="notehead" class="notehead"><use href="#E0A4-a1d9k1im" transform="translate(12638, 1086) scale(0.72, 0.72)"/></g><g data-id="j7lcukp" data-class="stem" class="stem"><path d="M12647 1114 L12647 1686" stroke-width="18"/></g></g><g data-id="tm9gaav" data-class="beam" class="beam"><polygon stroke-opacity="1" fill-opacity="1" points="13527,456 13873,411 13873,501 13527,546"/><polygon stroke-opacity="1" fill-opacity="1" points="13527,591 13873,546 13873,636 13527,681"/><g data-id="n10rnsyf" data-class="note" class="note"><g data-class="notehead" class="notehead"><use href="#E0A4-a1d9k1im" transform="translate(13319, 1176) scale(0.72, 0.72)"/></g><g data-id="k1njk6t" data-class="stem" class="stem"><path d="M13536 1148 L13536 474" stroke-width="18"/></g></g><g data-id="o1q19but" data-class="note" class="note"><g data-class="notehead" class="notehead"><use href="#E0A4-a1d9k1im" transform="translate(13647, 1086) scale(0.72, 0.72)"/></g><g data-id="l13supb5" data-class="stem" class="stem"><path d="M13864 1058 L13864 429" stroke-width="18"/></g></g></g></g></g><g data-id="q1xzkcs1" data-class="trill" class="trill"><use href="#E566-a1d9k1im" transform="translate(12595, 681) scale(0.72, 0.72)"/></g><g data-id="k1yua0k3" data-class="barLine" class="barLine"><path d="M13989 726 L13989 1446" stroke-width="27"/></g></g></g></g></svg></svg>