<svg viewBox="0 0 560 84" version="1.1" xmlns="http://www.w3.org/2000/svg" xmlns:xlink="http://www.w3.org/1999/xlink" overflow="visible" id="zhrfwoe"><desc>Engraved by Verovio 5.6.0-85e7620</desc><defs><g id="E05C-zhrfwoe"><path transform="scale(1,-1)" d="M175 502h43v-456c10 5 18 12 37 29c16 19 22 27 27 38s8 24 14 49c3 22 5 43 5 62c7 -34 31 -54 73 -60c73 18 99 61 100 165c0 46 -10 78 -31 100c-18 23 -41 35 -69 35c-40 0 -65 -32 -66 -84c6 12 11 16 39 24c5 0 2 1 16 -4l17 -10l10 -14l7 -18 c-4 -32 -23 -48 -56 -48c-51 0 -77 33 -77 98c10 35 16 47 30 61c9 9 15 14 23 17c3 3 22 9 27 11l34 3l35 2c123 0 192 -64 192 -178l1 -33c0 -52 -20 -97 -60 -134c-18 -15 -42 -28 -74 -39c-30 -9 -63 -13 -101 -13l-93 -88v-34l93 -88c38 0 71 -4 101 -13 c32 -11 56 -24 74 -39c40 -37 60 -82 60 -134l-3 -33c0 -115 -68 -178 -190 -178l-35 2l-34 3c-5 2 -24 8 -27 11c-26 11 -40 32 -53 78c0 65 26 98 77 98c33 0 52 -16 56 -48l-7 -18l-10 -14l-17 -10c-14 -5 -11 -4 -16 -4c-28 8 -33 12 -39 24c1 -52 26 -84 66 -84 c28 0 51 12 69 35c21 22 31 54 31 100c-1 104 -27 147 -100 165c-42 -6 -66 -26 -73 -60c0 19 -2 40 -5 62c-6 25 -9 38 -14 49s-11 19 -27 38c-19 17 -27 24 -37 29v-456h-43v1004zM0 502h118v-1004h-118v1004z"/></g><g id="E262-zhrfwoe"><path transform="scale(1,-1)" d="M136 186v169h17v-164l44 14v-91l-44 -14v-165l44 12v-91l-44 -13v-155h-17v150l-76 -22v-155h-17v149l-43 -13v90l43 14v167l-43 -14v92l43 13v169h17v-163zM60 73v-167l76 22v168z"/></g><g id="E08B-zhrfwoe"><path transform="scale(1,-1)" d="M188 200c-42 -22 -63 -69 -63 -141v-119c0 -39 7 -70 19 -94s26 -40 44 -48v402zM0 -0c0 127 80 220 186 246v72h32l-6 -72c33 0 71 0 101 -11c54 -20 102 -65 102 -135c0 -16 -4 -30 -13 -43s-20 -24 -32 -29l-20 -8l-23 -3c-22 2 -41 8 -55 21s-21 31 -26 51 c0 38 45 80 79 80c12 0 19 3 19 10c0 6 -6 12 -15 18c-19 13 -47 24 -79 24c-10 0 -20 -1 -32 -5v-431c15 -3 12 -4 30 -4c57 0 100 51 121 93l17 39c3 13 5 25 5 35h26c-6 -70 -28 -121 -66 -152s-82 -47 -133 -47v-68h-30v72c-57 10 -122 54 -153 109c-7 12 -13 26 -19 42 c-11 29 -16 61 -16 96z"/></g><g id="E0A3-zhrfwoe"><path transform="scale(1,-1)" d="M278 64c0 22 -17 39 -43 39c-12 0 -26 -3 -41 -10c-85 -43 -165 -94 -165 -156c5 -25 15 -32 49 -32c67 11 200 95 200 159zM0 -36c0 68 73 174 200 174c66 0 114 -39 114 -97c0 -84 -106 -173 -218 -173c-64 0 -96 32 -96 96z"/></g><g id="E0A4-zhrfwoe"><path transform="scale(1,-1)" d="M0 -39c0 68 73 172 200 172c66 0 114 -37 114 -95c0 -84 -106 -171 -218 -171c-64 0 -96 30 -96 94z"/></g></defs><style type="text/css">#zhrfwoe g.page-margin {font-family:Times,serif;}#zhrfwoe g.ending, #zhrfwoe g.fing, #zhrfwoe g.reh, #zhrfwoe g.tempo {font-weight:bold;}#zhrfwoe g.dir, #zhrfwoe g.dynam, #zhrfwoe g.mNum {font-style:italic;}#zhrfwoe g.label {font-weight:normal;}#zhrfwoe path {stroke:currentColor}</style><svg class="definition-scale" color="black" viewBox="0 0 14000 2100"><g class="page-margin" transform="translate(0, 150)"><g data-id="pqvbii" data-class="mdiv" class="mdiv pageMilestone"/><g data-id="qy2uu4a" data-class="score" class="score pageMilestone"/><g data-id="qiu2ejz" data-class="system" class="system"><g data-id="s1cferg1" data-class="section" class="section systemMilestone"/><g data-id="a1rvwev6" data-class="measure" class="measure"><g data-id="e1g8fb80" data-class="staff" class="staff"><path d="M0 540 L4697 540" stroke-width="13"/><path d="M0 720 L4697 720" stroke-width="13"/><path d="M0 900 L4697 900" stroke-width="13"/><path d="M0 1080 L4697 1080" stroke-width="13"/><path d="M0 1260 L4697 1260" stroke-width="13"/><g data-id="q1aifp3i" data-class="clef" class="clef"><use href="#E05C-zhrfwoe" transform="translate(90, 900) scale(0.72, 0.72)"/></g><g data-id="r1dvcknw" data-class="keySig" class="keySig"><g data-id="s1y6igb4" data-class="keyAccid" class="keyAccid"><use href="#E262-zhrfwoe" transform="translate(706, 630) scale(0.72, 0.72)"/></g><g data-id="tbwx4dz" data-class="keyAccid" class="keyAccid"><use href="#E262-zhrfwoe" transform="translate(884, 900) scale(0.72, 0.72)"/></g></g><g data-id="uyh9gdo" data-class="meterSig" class="meterSig"><use href="#E08B-zhrfwoe" transform="translate(1205, 900) scale(0.72, 0.72)"/></g><g data-class="ledgerLines" class="ledgerLines below"><g data-class="lineDash" class="lineDash" data-related="#u1t6nhvn"><path d="M1739 1440 L2061 1440" stroke-width="22"/></g></g><g data-id="f1sxypq6" data-class="layer" class="layer"><g data-id="u1t6nhvn" data-class="note" class="note"><g data-class="notehead" class="notehead"><use href="#E0A3-zhrfwoe" transform="translate(1787, 1440) scale(0.72, 0.72)"/></g><g data-id="a1hj1fyx" data-class="stem" class="stem"><path d="M2004 1412 L2004 810" stroke-width="18"/></g></g><g data-id="v15tu1dc" data-class="note" class="note"><g data-class="notehead" class="notehead"><use href="#E0A4-zhrfwoe" transform="translate(3039, 1350) scale(0.72, 0.72)"/></g><g data-id="b1xr8uof" data-class="stem" class="stem"><path d="M3256 1322 L3256 720" stroke-width="18"/></g></g><g data-id="wrijqv1" data-class="note" class="note"><g data-class="notehead" class="notehead"><use href="#E0A4-zhrfwoe" transform="translate(3861, 1170) scale(0.72, 0.72)"/></g><g data-id="c1ixy3j8" data-class="stem" class="stem"><path d="M4078 1142 L4078 540" stroke-width="18"/></g></g></g></g><g data-id="j1szpyp3" data-class="tie" class="tie"><path d="M4132,1215 C4318,1320 4657,1320 4844,1215 C4674,1369 4301,1369 4132,1215" stroke-linecap="round" stroke-linejoin="round" stroke-width="9"/></g><g data-id="ijbiw8v" data-class="barLine" class="barLine"><path d="M4684 540 L4684 1260" stroke-width="27"/></g></g><g data-id="ja2q0kr" data-class="measure" class="measure"><g data-id="g9jte51" data-class="staff" class="staff"><path d="M4697 540 L7799 540" stroke-width="13"/><path d="M4697 720 L7799 720" stroke-width="13"/><path d="M4697 900 L7799 900" stroke-width="13"/><path d="M4697 1080 L7799 1080" stroke-width="13"/><path d="M4697 1260 L7799 1260" stroke-width="13"/><g data-id="h1salipw" data-class="layer" class="layer"><g data-id="xcdu6a8" data-class="note" class="note"><g data-class="notehead" class="notehead"><use href="#E0A4-zhrfwoe" transform="translate(4889, 1170) scale(0.72, 0.72)"/></g><g data-id="d1txs4nn" data-class="stem" class="stem"><path d="M5106 1142 L5106 540" stroke-width="18"/></g></g><g data-id="ywe1wyh" data-class="note" class="note"><g data-class="notehead" class="notehead"><use href="#E0A3-zhrfwoe" transform="translate(5711, 1260) scale(0.72, 0.72)"/></g><g data-id="e1j3evnd" data-class="stem" class="stem"><path d="M5928 1232 L5928 630" stroke-width="18"/></g><g data-id="l12v1ih9" data-class="accid" class="accid"/></g><g data-id="z1x0ulny" data-class="note" class="note"><g data-class="notehead" class="notehead"><use href="#E0A4-zhrfwoe" transform="translate(6963, 1170) scale(0.72, 0.72)"/></g><g data-id="f1cnaum6" data-class="stem" class="stem"><path d="M7180 1142 L7180 540" stroke-width="18"/></g><g data-id="iq5ctki" data-class="accid" class="accid"><use href="#E262-zhrfwoe" transform="translate(6777, 1170) scale(0.72, 0.72)"/></g></g></g></g><g data-id="r9mkavw" data-class="barLine" class="barLine"><path d="M7786 540 L7786 1260" stroke-width="27"/></g></g><g data-id="s1ym8a17" data-class="measure" class="measure"><g data-id="i19z76ni" data-class="staff" class="staff"><path d="M7799 540 L10901 540" stroke-width="13"/><path d="M7799 720 L10901 720" stroke-width="13"/><path d="M7799 900 L10901 900" stroke-width="13"/><path d="M7799 1080 L10901 1080" stroke-width="13"/><path d="M7799 1260 L10901 1260" stroke-width="13"/><g data-id="jv3lvut" data-class="layer" class="layer"><g data-id="a8639yj" data-class="note" class="note"><g data-class="notehead" class="notehead"><use href="#E0A3-zhrfwoe" transform="translate(7991, 720) scale(0.72, 0.72)"/></g><g data-id="g1rqoba7" data-class="stem" class="stem"><path d="M8000 745 L8000 1350" stroke-width="18"/></g></g><g data-id="b1c61y2h" data-class="note" class="note"><g data-class="notehead" class="notehead"><use href="#E0A4-zhrfwoe" transform="translate(9243, 630) scale(0.72, 0.72)"/></g><g data-id="h48ue79" data-class="stem" class="stem"><path d="M9252 658 L9252 1260" stroke-width="18"/></g><g data-id="m1c5msh6" data-class="accid" class="accid"/></g><g data-id="cqq1fs6" data-class="note" class="note"><g data-class="notehead" class="notehead"><use href="#E0A4-zhrfwoe" transform="translate(10065, 450) scale(0.72, 0.72)"/></g><g data-id="i113z84l" data-class="stem" class="stem"><path d="M10074 478 L10074 1080" stroke-width="18"/></g></g></g></g><g data-id="k17ikm7e" data-class="tie" class="tie"><path d="M10336,405 C10505,251 10878,251 11048,405 C10861,300 10522,300 10336,405" stroke-linecap="round" stroke-linejoin="round" stroke-width="9"/></g><g data-id="achn999" data-class="barLine" class="barLine"><path d="M10888 540 L10888 1260" stroke-width="27"/></g></g><g data-id="b1hlmy5l" data-class="measure" class="measure"><g data-id="khrdcgm" data-class="staff" class="staff"><path d="M10901 540 L14003 540" stroke-width="13"/><path d="M10901 720 L14003 720" stroke-width="13"/><path d="M10901 900 L14003 900" stroke-width="13"/><path d="M10901 1080 L14003 1080" stroke-width="13"/><path d="M10901 1260 L14003 1260" stroke-width="13"/><g data-id="l16k0eb2" data-class="layer" class="layer"><g data-id="dxdfgn4" data-class="note" class="note"><g data-class="notehead" class="notehead"><use href="#E0A4-zhrfwoe" transform="translate(11093, 450) scale(0.72, 0.72)"/></g><g data-id="j1v9dcj7" data-class="stem" class="stem"><path d="M11102 478 L11102 1080" stroke-width="18"/></g></g><g data-id="ee1mcg6" data-class="note" class="note"><g data-class="notehead" class="notehead"><use href="#E0A3-zhrfwoe" transform="translate(11915, 540) scale(0.72, 0.72)"/></g><g data-id="k18goehe" data-class="stem" class="stem"><path d="M11924 565 L11924 1170" stroke-width="18"/></g></g><g data-id="fak3alc" data-class="note" class="note"><g data-class="notehead" class="notehead"><use href="#E0A4-zhrfwoe" transform="translate(13167, 540) scale(0.72, 0.72)"/></g><g data-id="l1a2jwq7" data-class="stem" class="stem"><path d="M13176 568 L13176 1170" stroke-width="18"/></g></g></g></g><g data-id="j1allclw" data-class="barLine" class="barLine"><path d="M13990 540 L13990 1260" stroke-width="27"/></g></g></g></g></svg></svg>