<svg viewBox="0 0 560 84" version="1.1" xmlns="http://www.w3.org/2000/svg" xmlns:xlink="http://www.w3.org/1999/xlink" overflow="visible" id="bwiucto"><desc>Engraved by Verovio 5.6.0-85e7620</desc><defs><g id="E050-bwiucto"><path transform="scale(1,-1)" d="M441 -245c-23 -4 -48 -6 -76 -6c-59 0 -102 7 -130 20c-88 42 -150 93 -187 154c-26 44 -43 103 -48 176c0 6 -1 13 -1 19c0 54 15 111 45 170c29 57 65 106 110 148s96 85 153 127c-3 16 -8 46 -13 92c-4 43 -5 73 -5 89c0 117 16 172 69 257c34 54 64 82 89 82 c21 0 43 -30 69 -92s39 -115 41 -159v-15c0 -109 -21 -162 -67 -241c-13 -20 -63 -90 -98 -118c-13 -9 -25 -19 -37 -29l31 -181c8 1 18 2 28 2c58 0 102 -12 133 -35c59 -43 92 -104 98 -184c1 -7 1 -15 1 -22c0 -123 -87 -209 -181 -248c8 -57 17 -110 25 -162 c5 -31 6 -58 6 -80c0 -30 -5 -53 -14 -70c-35 -64 -88 -99 -158 -103c-5 0 -11 -1 -16 -1c-37 0 -72 10 -108 27c-50 24 -77 59 -80 105v11c0 29 7 55 20 76c18 28 45 42 79 44h6c49 0 93 -42 97 -87v-9c0 -51 -34 -86 -105 -106c17 -24 51 -36 102 -36c62 0 116 43 140 85 c9 16 13 41 13 74c0 20 -1 42 -5 67c-8 53 -18 106 -26 159zM461 939c-95 0 -135 -175 -135 -286c0 -24 2 -48 5 -71c50 39 92 82 127 128c40 53 60 100 60 140v8c-4 53 -22 81 -55 81h-2zM406 119l54 -326c73 25 110 78 110 161c0 7 0 15 -1 23c-7 95 -57 142 -151 142h-12 zM382 117c-72 -2 -128 -47 -128 -120v-7c2 -46 43 -99 75 -115c-3 -2 -7 -5 -10 -10c-70 33 -116 88 -123 172v11c0 68 44 126 88 159c23 17 49 29 78 36l-29 170c-21 -13 -52 -37 -92 -73c-50 -44 -86 -84 -109 -119c-45 -69 -67 -130 -67 -182v-13c5 -68 35 -127 93 -176 s125 -73 203 -73c25 0 50 3 75 9c-19 111 -36 221 -54 331z"/></g><g id="E260-bwiucto"><path transform="scale(1,-1)" d="M20 110c32 16 54 27 93 27c26 0 35 -3 54 -13c13 -7 24 -20 27 -38l4 -25c0 -28 -16 -57 -45 -89c-23 -25 -39 -44 -65 -68l-88 -79v644h20v-359zM90 106c-32 0 -48 -10 -70 -29v-194c31 31 54 59 71 84c21 32 32 59 32 84c0 9 1 16 1 20c0 14 -3 21 -11 30l-8 3z"/></g><g id="E089-bwiucto"><path transform="scale(1,-1)" d="M139 107c0 -51 22 -104 66 -104c38 0 64 48 64 110c0 50 -31 100 -64 100c-40 0 -66 -56 -66 -106zM114 -74c40 0 72 -27 72 -65c0 -8 -3 -19 -9 -34l-7 -16l-5 -15c2 -8 12 -12 31 -12c56 0 84 73 84 219c-32 -24 -71 -36 -119 -36c-29 0 -56 6 -79 20 c-51 26 -57 78 -62 108c0 64 56 155 188 155c158 0 197 -151 197 -237c0 -145 -92 -263 -207 -263c-109 0 -155 68 -155 101c0 46 33 75 71 75z"/></g><g id="E088-bwiucto"><path transform="scale(1,-1)" d="M195 -214c76 0 88 58 90 68c0 34 -35 60 -57 73l-52 29c-21 10 -32 17 -34 20c-39 -33 -58 -54 -62 -92c5 -23 23 -98 115 -98zM301 135c0 61 -72 76 -113 76c-40 0 -77 -17 -77 -51c3 -21 15 -38 26 -50c17 -15 33 -26 48 -34l65 -28c34 27 51 56 51 87zM176 -250 c-57 0 -166 26 -166 132c0 47 30 86 89 116c-33 15 -79 60 -79 119c0 79 85 132 178 132h18c5 0 21 1 28 -1c25 0 126 -30 126 -110c0 -37 -23 -76 -69 -116c43 -25 83 -71 83 -119c0 -101 -118 -153 -208 -153z"/></g><g id="E0A4-bwiucto"><path transform="scale(1,-1)" d="M0 -39c0 68 73 172 200 172c66 0 114 -37 114 -95c0 -84 -106 -171 -218 -171c-64 0 -96 30 -96 94z"/></g><g id="E242-bwiucto"><path transform="scale(1,-1)" d="M206 -748c32 48 49 100 49 149c0 89 -55 168 -168 203c-18 5 -47 9 -87 16v190v190h22c8 0 33 -61 71 -95c4 -3 -2 3 61 -56c62 -58 122 -137 122 -241c0 -32 -7 -65 -17 -96c11 -29 17 -60 17 -94c0 -71 -32 -148 -67 -190c-6 -5 -10 -7 -13 -7s-5 2 -5 5l4 10 c1 3 6 8 11 16zM248 -463c4 18 7 38 7 57c0 105 -80 173 -168 200c-11 3 -27 6 -47 9c9 -17 23 -61 53 -88c4 -3 -2 3 61 -56c36 -33 71 -74 94 -122z"/></g><g id="E4E7-bwiucto"><path transform="scale(1,-1)" d="M133 -111c0 -33 -21 -50 -52 -55c10 -3 18 -4 25 -4c40 0 69 24 90 47l66 197c-36 -18 -64 -25 -112 -25c-23 0 -38 3 -45 8c-37 7 -55 27 -55 59c8 35 30 54 68 58c45 -6 49 -13 64 -48c0 -3 1 -5 1 -7c0 -27 -25 -46 -52 -49c6 -4 15 -6 26 -6c32 2 62 14 88 29 c32 19 44 36 59 71l7 1l10 2h4c-72 -220 -143 -439 -215 -659h-37l108 324c-20 -13 -51 -20 -82 -20c-21 0 -35 4 -43 10c-37 6 -55 26 -55 58c8 35 31 56 68 60c43 -8 48 -13 64 -51z"/></g></defs><style type="text/css">#bwiucto g.page-margin {font-family:Times,serif;}#bwiucto g.ending, #bwiucto g.fing, #bwiucto g.reh, #bwiucto g.tempo {font-weight:bold;}#bwiucto g.dir, #bwiucto g.dynam, #bwiucto g.mNum {font-style:italic;}#bwiucto g.label {font-weight:normal;}#bwiucto path {stroke:currentColor}</style><svg class="definition-scale" color="black" viewBox="0 0 14000 2100"><g class="page-margin" transform="translate(0, 150)"><g data-id="x49i2mb" data-class="mdiv" class="mdiv pageMilestone"/><g data-id="y1h53jos" data-class="score" class="score pageMilestone"/><g data-id="a14af22u" data-class="system" class="system"><g data-id="a11i2zau" data-class="section" class="section systemMilestone"/><g data-id="c1db9hna" data-class="measure" class="measure"><g data-id="m1pzmk5q" data-class="staff" class="staff"><path d="M0 540 L3565 540" stroke-width="13"/><path d="M0 720 L3565 720" stroke-width="13"/><path d="M0 900 L3565 900" stroke-width="13"/><path d="M0 1080 L3565 1080" stroke-width="13"/><path d="M0 1260 L3565 1260" stroke-width="13"/><g data-id="hup63ky" data-class="clef" class="clef"><use href="#E050-bwiucto" transform="translate(90, 1080) scale(0.72, 0.72)"/></g><g data-id="i15nn497" data-class="keySig" class="keySig"><g data-id="j1pob0ga" data-class="keyAccid" class="keyAccid"><use href="#E260-bwiucto" transform="translate(735, 900) scale(0.72, 0.72)"/></g></g><g data-id="kq4pk88" data-class="meterSig" class="meterSig"><use href="#E089-bwiucto" transform="translate(1043, 720) scale(0.72, 0.72)"/><use href="#E088-bwiucto" transform="translate(1051, 1080) scale(0.72, 0.72)"/></g><g data-id="n65zhx6" data-class="layer" class="layer"><g data-id="e1kswgn2" data-class="note" class="note"><g data-class="notehead" class="notehead"><use href="#E0A4-bwiucto" transform="translate(1604, 990) scale(0.72, 0.72)"/></g><g data-id="d1gvjx9s" data-class="stem" class="stem"><path d="M1821 962 L1821 360" stroke-width="18"/><g data-id="eewx286" data-class="flag" class="flag"><use href="#E242-bwiucto" transform="translate(1812, 360) scale(0.72, 0.72)"/></g></g></g><g data-id="s6o54k2" data-class="beam" class="beam"><polygon stroke-opacity="1" fill-opacity="1" points="2218,180 3448,180 3448,270 2218,270"/><polygon stroke-opacity="1" fill-opacity="1" points="2218,315 2543,315 2543,405 2218,405"/><polygon stroke-opacity="1" fill-opacity="1" points="3222,315 3448,315 3448,405 3222,405"/><g data-id="f1rsy52b" data-class="note" class="note"><g data-class="notehead" class="notehead"><use href="#E0A4-bwiucto" transform="translate(2010, 1170) scale(0.72, 0.72)"/></g><g data-id="fydtxmb" data-class="stem" class="stem"><path d="M2227 1142 L2227 198" stroke-width="18"/></g></g><g data-id="gesthxb" data-class="note" class="note"><g data-class="notehead" class="notehead"><use href="#E0A4-bwiucto" transform="translate(2326, 990) scale(0.72, 0.72)"/></g><g data-id="g3xgfca" data-class="stem" class="stem"><path d="M2543 962 L2543 198" stroke-width="18"/></g></g><g data-id="h59hv3b" data-class="note" class="note"><g data-class="notehead" class="notehead"><use href="#E0A4-bwiucto" transform="translate(2642, 720) scale(0.72, 0.72)"/></g><g data-id="i6k3dn" data-class="dots" class="dots"><ellipse cx="2958" cy="630" rx="36" ry="36" fill-opacity="1" stroke-opacity="1"/></g><g data-id="hh7iin6" data-class="stem" class="stem"><path d="M2859 692 L2859 198" stroke-width="18"/></g></g><g data-id="iln4a1z" data-class="note" class="note"><g data-class="notehead" class="notehead"><use href="#E0A4-bwiucto" transform="translate(3222, 990) scale(0.72, 0.72)"/></g><g data-id="j11ov0k8" data-class="stem" class="stem"><path d="M3439 962 L3439 198" stroke-width="18"/></g></g></g></g></g><g data-id="kgkdqn3" data-class="barLine" class="barLine"><path d="M3552 540 L3552 1260" stroke-width="27"/></g></g><g data-id="lzpubld" data-class="measure" class="measure"><g data-id="oycfc9o" data-class="staff" class="staff"><path d="M3565 540 L7599 540" stroke-width="13"/><path d="M3565 720 L7599 720" stroke-width="13"/><path d="M3565 900 L7599 900" stroke-width="13"/><path d="M3565 1080 L7599 1080" stroke-width="13"/><path d="M3565 1260 L7599 1260" stroke-width="13"/><g data-id="pw45d3w" data-class="layer" class="layer"><g data-id="jxfd7hd" data-class="note" class="note"><g data-class="notehead" class="notehead"><use href="#E0A4-bwiucto" transform="translate(3745, 990) scale(0.72, 0.72)"/></g><g data-id="l15ymd41" data-class="dots" class="dots"><ellipse cx="4061" cy="990" rx="36" ry="36" fill-opacity="1" stroke-opacity="1"/></g><g data-id="k1ee3syk" data-class="stem" class="stem"><path d="M3962 962 L3962 360" stroke-width="18"/></g></g><g data-id="k1wid4wb" data-class="note" class="note"><g data-class="notehead" class="notehead"><use href="#E0A4-bwiucto" transform="translate(4625, 990) scale(0.72, 0.72)"/></g><g data-id="mw35tqg" data-class="stem" class="stem"><path d="M4842 962 L4842 360" stroke-width="18"/></g></g><g data-id="dqfxn19" data-class="rest" class="rest"><use href="#E4E7-bwiucto" transform="translate(5315, 900) scale(0.72, 0.72)"/></g><g data-id="l1dsly77" data-class="note" class="note"><g data-class="notehead" class="notehead"><use href="#E0A4-bwiucto" transform="translate(5638, 990) scale(0.72, 0.72)"/></g><g data-id="npps8rq" data-class="stem" class="stem"><path d="M5855 962 L5855 360" stroke-width="18"/><g data-id="o2mb6dv" data-class="flag" class="flag"><use href="#E242-bwiucto" transform="translate(5846, 360) scale(0.72, 0.72)"/></g></g></g><g data-id="t1rlhlob" data-class="beam" class="beam"><polygon stroke-opacity="1" fill-opacity="1" points="6252,180 7482,180 7482,270 6252,270"/><polygon stroke-opacity="1" fill-opacity="1" points="6252,315 6577,315 6577,405 6252,405"/><polygon stroke-opacity="1" fill-opacity="1" points="7256,315 7482,315 7482,405 7256,405"/><g data-id="m1erkqej" data-class="note" class="note"><g data-class="notehead" class="notehead"><use href="#E0A4-bwiucto" transform="translate(6044, 1170) scale(0.72, 0.72)"/></g><g data-id="p1mraqsc" data-class="stem" class="stem"><path d="M6261 1142 L6261 198" stroke-width="18"/></g></g><g data-id="nfn9o8z" data-class="note" class="note"><g data-class="notehead" class="notehead"><use href="#E0A4-bwiucto" transform="translate(6360, 990) scale(0.72, 0.72)"/></g><g data-id="q1so66tf" data-class="stem" class="stem"><path d="M6577 962 L6577 198" stroke-width="18"/></g></g><g data-id="o3yg02t" data-class="note" class="note"><g data-class="notehead" class="notehead"><use href="#E0A4-bwiucto" transform="translate(6676, 720) scale(0.72, 0.72)"/></g><g data-id="s4355sb" data-class="dots" class="dots"><ellipse cx="6992" cy="630" rx="36" ry="36" fill-opacity="1" stroke-opacity="1"/></g><g data-id="rjphpjc" data-class="stem" class="stem"><path d="M6893 692 L6893 198" stroke-width="18"/></g></g><g data-id="p1upkcl9" data-class="note" class="note"><g data-class="notehead" class="notehead"><use href="#E0A4-bwiucto" transform="translate(7256, 990) scale(0.72, 0.72)"/></g><g data-id="t1ss8ih6" data-class="stem" class="stem"><path d="M7473 962 L7473 198" stroke-width="18"/></g></g></g></g></g><g data-id="u1uh78xr" data-class="tie" class="tie"><path d="M4016,1102 C4166,1207 4429,1207 4580,1102 C4448,1256 4147,1256 4016,1102" stroke-linecap="round" stroke-linejoin="round" stroke-width="9"/></g><g data-id="t13u94fu" data-class="barLine" class="barLine"><path d="M7586 540 L7586 1260" stroke-width="27"/></g></g><g data-id="u138roms" data-class="measure" class="measure"><g data-id="q1hp6c0s" data-class="staff" class="staff"><path d="M7599 540 L9349 540" stroke-width="13"/><path d="M7599 720 L9349 720" stroke-width="13"/><path d="M7599 900 L9349 900" stroke-width="13"/><path d="M7599 1080 L9349 1080" stroke-width="13"/><path d="M7599 1260 L9349 1260" stroke-width="13"/><g data-id="rhbk8ks" data-class="layer" class="layer"><g data-id="q1fduh46" data-class="note" class="note"><g data-class="notehead" class="notehead"><use href="#E0A4-bwiucto" transform="translate(7779, 990) scale(0.72, 0.72)"/></g><g data-id="v1gg5t2u" data-class="dots" class="dots"><ellipse cx="8095" cy="990" rx="36" ry="36" fill-opacity="1" stroke-opacity="1"/></g><g data-id="u61zk8i" data-class="stem" class="stem"><path d="M7996 962 L7996 360" stroke-width="18"/></g></g><g data-id="r1duzypl" data-class="note" class="note"><g data-class="notehead" class="notehead"><use href="#E0A4-bwiucto" transform="translate(8659, 990) scale(0.72, 0.72)"/></g><g data-id="w1mliluh" data-class="stem" class="stem"><path d="M8876 962 L8876 360" stroke-width="18"/></g></g></g></g><g data-id="v1y9rc1n" data-class="tie" class="tie"><path d="M8050,1102 C8200,1207 8463,1207 8614,1102 C8482,1256 8181,1256 8050,1102" stroke-linecap="round" stroke-linejoin="round" stroke-width="9"/></g><g data-id="c1qy1n1y" data-class="barLine" class="barLine"/></g><g data-id="znjbtem" data-class="systemMilestoneEnd" class="systemMilestoneEnd a11i2zau"/></g><g data-id="a1jfe8mn" data-class="pageMilestoneEnd" class="pageMilestoneEnd y1h53jos"/><g data-id="b17c4q05" data-class="pageMilestoneEnd" class="pageMilestoneEnd x49i2mb"/></g></svg></svg>