<svg viewBox="0 0 560 84" version="1.1" xmlns="http://www.w3.org/2000/svg" xmlns:xlink="http://www.w3.org/1999/xlink" overflow="visible" id="s1tlpqfk"><desc>Engraved by Verovio 5.6.0-85e7620</desc><defs><g id="E05C-s1tlpqfk"><path transform="scale(1,-1)" d="M175 502h43v-456c10 5 18 12 37 29c16 19 22 27 27 38s8 24 14 49c3 22 5 43 5 62c7 -34 31 -54 73 -60c73 18 99 61 100 165c0 46 -10 78 -31 100c-18 23 -41 35 -69 35c-40 0 -65 -32 -66 -84c6 12 11 16 39 24c5 0 2 1 16 -4l17 -10l10 -14l7 -18 c-4 -32 -23 -48 -56 -48c-51 0 -77 33 -77 98c10 35 16 47 30 61c9 9 15 14 23 17c3 3 22 9 27 11l34 3l35 2c123 0 192 -64 192 -178l1 -33c0 -52 -20 -97 -60 -134c-18 -15 -42 -28 -74 -39c-30 -9 -63 -13 -101 -13l-93 -88v-34l93 -88c38 0 71 -4 101 -13 c32 -11 56 -24 74 -39c40 -37 60 -82 60 -134l-3 -33c0 -115 -68 -178 -190 -178l-35 2l-34 3c-5 2 -24 8 -27 11c-26 11 -40 32 -53 78c0 65 26 98 77 98c33 0 52 -16 56 -48l-7 -18l-10 -14l-17 -10c-14 -5 -11 -4 -16 -4c-28 8 -33 12 -39 24c1 -52 26 -84 66 -84 c28 0 51 12 69 35c21 22 31 54 31 100c-1 104 -27 147 -100 165c-42 -6 -66 -26 -73 -60c0 19 -2 40 -5 62c-6 25 -9 38 -14 49s-11 19 -27 38c-19 17 -27 24 -37 29v-456h-43v1004zM0 502h118v-1004h-118v1004z"/></g><g id="E083-s1tlpqfk"><path transform="scale(1,-1)" d="M208 250c97 0 177 -52 177 -116c0 -69 -40 -111 -118 -125c56 -5 125 -44 125 -116c0 -31 -10 -57 -31 -78c-19 -21 -45 -38 -78 -49l-50 -11c-15 -3 -36 -7 -55 -7c-50 0 -86 16 -113 38c-16 10 -23 18 -34 34c-7 13 -11 25 -11 38c0 43 27 83 68 83l3 -2 c61 0 75 -42 75 -70c0 -19 -24 -42 -26 -57c7 -17 20 -25 37 -25c44 0 94 29 94 78c0 75 -34 125 -138 125v36c84 0 131 22 131 98c0 54 -37 88 -87 88c-26 0 -43 -7 -51 -22c15 -22 44 -16 44 -70c0 -37 -37 -62 -71 -62c-22 0 -69 15 -69 76c0 79 101 116 178 116z"/></g><g id="E084-s1tlpqfk"><path transform="scale(1,-1)" d="M20 -78c84 97 114 180 134 329h170c-13 -32 -82 -132 -99 -151l-84 -97c-33 -36 -59 -63 -80 -81h162v102l127 123v-225h57v-39h-57v-34c0 -43 19 -65 57 -65v-34h-244v36c48 0 60 26 60 70v27h-203v39z"/></g><g id="E0A3-s1tlpqfk"><path transform="scale(1,-1)" d="M278 64c0 22 -17 39 -43 39c-12 0 -26 -3 -41 -10c-85 -43 -165 -94 -165 -156c5 -25 15 -32 49 -32c67 11 200 95 200 159zM0 -36c0 68 73 174 200 174c66 0 114 -39 114 -97c0 -84 -106 -173 -218 -173c-64 0 -96 32 -96 96z"/></g><g id="E0A4-s1tlpqfk"><path transform="scale(1,-1)" d="M0 -39c0 68 73 172 200 172c66 0 114 -37 114 -95c0 -84 -106 -171 -218 -171c-64 0 -96 30 -96 94z"/></g></defs><style type="text/css">#s1tlpqfk g.page-margin {font-family:Times,serif;}#s1tlpqfk g.ending, #s1tlpqfk g.fing, #s1tlpqfk g.reh, #s1tlpqfk g.tempo {font-weight:bold;}#s1tlpqfk g.dir, #s1tlpqfk g.dynam, #s1tlpqfk g.mNum {font-style:italic;}#s1tlpqfk g.label {font-weight:normal;}#s1tlpqfk path {stroke:currentColor}</style><svg class="definition-scale" color="black" viewBox="0 0 14000 2100"><g class="page-margin" transform="translate(0, 150)"><g data-id="ntpfpzh" data-class="mdiv" class="mdiv pageMilestone"/><g data-id="o68upw8" data-class="score" class="score pageMilestone"/><g data-id="m1hpbf0w" data-class="system" class="system"><g data-id="qlc5x4q" data-class="section" class="section systemMilestone"/><g data-id="t6bu6do" data-class="measure" class="measure"><g data-id="c16uw4u9" data-class="staff" class="staff"><path d="M0 540 L3227 540" stroke-width="13"/><path d="M0 720 L3227 720" stroke-width="13"/><path d="M0 900 L3227 900" stroke-width="13"/><path d="M0 1080 L3227 1080" stroke-width="13"/><path d="M0 1260 L3227 1260" stroke-width="13"/><g data-id="uymd9el" data-class="clef" class="clef"><use href="#E05C-s1tlpqfk" transform="translate(90, 900) scale(0.72, 0.72)"/></g><g data-id="vwqdnzf" data-class="keySig" class="keySig"/><g data-id="w1v7ryq7" data-class="meterSig" class="meterSig"><use href="#E083-s1tlpqfk" transform="translate(698, 720) scale(0.72, 0.72)"/><use href="#E084-s1tlpqfk" transform="translate(692, 1080) scale(0.72, 0.72)"/></g><g data-class="ledgerLines" class="ledgerLines above"><g data-class="lineDash" class="lineDash" data-related="#f1u9425v"><path d="M2836 360 L3158 360" stroke-width="22"/></g></g><g data-id="dvgwws4" data-class="layer" class="layer"><g data-id="d6tn0ty" data-class="note" class="note"><g data-class="notehead" class="notehead"><use href="#E0A3-s1tlpqfk" transform="translate(1254, 720) scale(0.72, 0.72)"/></g><g data-id="uuqnm5o" data-class="stem" class="stem"><path d="M1263 745 L1263 1350" stroke-width="18"/></g></g><g data-id="lr0kocc" data-class="beam" class="beam"><polygon stroke-opacity="1" fill-opacity="1" points="2304,1080 2902,990 2902,900 2304,990"/><polygon stroke-opacity="1" fill-opacity="1" points="2676,887 2902,855 2902,765 2676,797"/><g data-id="el7k4c7" data-class="note" class="note"><g data-class="notehead" class="notehead"><use href="#E0A4-s1tlpqfk" transform="translate(2304, 450) scale(0.72, 0.72)"/></g><g data-id="w1gmpz5i" data-class="dots" class="dots"><ellipse cx="2620" cy="450" rx="36" ry="36" fill-opacity="1" stroke-opacity="1"/></g><g data-id="v11n6qsi" data-class="stem" class="stem"><path d="M2313 478 L2313 1062" stroke-width="18"/></g></g><g data-id="f1u9425v" data-class="note" class="note"><g data-class="notehead" class="notehead"><use href="#E0A4-s1tlpqfk" transform="translate(2884, 360) scale(0.72, 0.72)"/></g><g data-id="x150ey9m" data-class="stem" class="stem"><path d="M2893 388 L2893 972" stroke-width="18"/></g></g></g></g></g><g data-id="bcraj87" data-class="barLine" class="barLine"><path d="M3214 540 L3214 1260" stroke-width="27"/></g></g><g data-id="c1pgw1lf" data-class="measure" class="measure"><g data-id="eonq5xz" data-class="staff" class="staff"><path d="M3227 540 L5160 540" stroke-width="13"/><path d="M3227 720 L5160 720" stroke-width="13"/><path d="M3227 900 L5160 900" stroke-width="13"/><path d="M3227 1080 L5160 1080" stroke-width="13"/><path d="M3227 1260 L5160 1260" stroke-width="13"/><g data-class="ledgerLines" class="ledgerLines above"><g data-class="lineDash" class="lineDash" data-related="#g1b9kx56"><path d="M3359 360 L3681 360" stroke-width="22"/></g><g data-class="lineDash" class="lineDash" data-related="#h1xnzqrp"><path d="M4409 360 L4731 360" stroke-width="22"/></g></g><g data-id="fhlaix" data-class="layer" class="layer"><g data-id="g1b9kx56" data-class="note" class="note"><g data-class="notehead" class="notehead"><use href="#E0A3-s1tlpqfk" transform="translate(3407, 270) scale(0.72, 0.72)"/></g><g data-id="y1v8tzgw" data-class="stem" class="stem"><path d="M3416 295 L3416 900" stroke-width="18"/></g></g><g data-id="h1xnzqrp" data-class="note" class="note"><g data-class="notehead" class="notehead"><use href="#E0A4-s1tlpqfk" transform="translate(4457, 360) scale(0.72, 0.72)"/></g><g data-id="zxsk8g0" data-class="stem" class="stem"><path d="M4466 388 L4466 990" stroke-width="18"/></g></g></g></g><g data-id="k9hw7tn" data-class="barLine" class="barLine"><path d="M5147 540 L5147 1260" stroke-width="27"/></g></g><g data-id="ly0kois" data-class="measure" class="measure"><g data-id="g1l7bdo5" data-class="staff" class="staff"><path d="M5160 540 L7093 540" stroke-width="13"/><path d="M5160 720 L7093 720" stroke-width="13"/><path d="M5160 900 L7093 900" stroke-width="13"/><path d="M5160 1080 L7093 1080" stroke-width="13"/><path d="M5160 1260 L7093 1260" stroke-width="13"/><g data-class="ledgerLines" class="ledgerLines above"><g data-class="lineDash" class="lineDash" data-related="#impddo2"><path d="M5292 360 L5614 360" stroke-width="22"/></g><g data-class="lineDash" class="lineDash" data-related="#impddo2"><path d="M5292 180 L5614 180" stroke-width="22"/></g></g><g data-id="h10z6rx2" data-class="layer" class="layer"><g data-id="impddo2" data-class="note" class="note"><g data-class="notehead" class="notehead"><use href="#E0A3-s1tlpqfk" transform="translate(5340, 180) scale(0.72, 0.72)"/></g><g data-id="a1hy30a" data-class="stem" class="stem"><path d="M5349 205 L5349 900" stroke-width="18"/></g></g><g data-id="j1lbaomf" data-class="note" class="note"><g data-class="notehead" class="notehead"><use href="#E0A4-s1tlpqfk" transform="translate(6390, 450) scale(0.72, 0.72)"/></g><g data-id="bi7n95y" data-class="stem" class="stem"><path d="M6399 478 L6399 1080" stroke-width="18"/></g></g></g></g><g data-id="t1iubgv6" data-class="barLine" class="barLine"><path d="M7080 540 L7080 1260" stroke-width="27"/></g></g><g data-id="uj16hh6" data-class="measure" class="measure"><g data-id="ikg5uk6" data-class="staff" class="staff"><path d="M7093 540 L8626 540" stroke-width="13"/><path d="M7093 720 L8626 720" stroke-width="13"/><path d="M7093 900 L8626 900" stroke-width="13"/><path d="M7093 1080 L8626 1080" stroke-width="13"/><path d="M7093 1260 L8626 1260" stroke-width="13"/><g data-class="ledgerLines" class="ledgerLines above"><g data-class="lineDash" class="lineDash" data-related="#ka8h42j"><path d="M7225 360 L7547 360" stroke-width="22"/></g></g><g data-id="j1lne5gb" data-class="layer" class="layer"><g data-id="ka8h42j" data-class="note" class="note"><g data-class="notehead" class="notehead"><use href="#E0A3-s1tlpqfk" transform="translate(7273, 360) scale(0.72, 0.72)"/></g><g data-id="d1dyjvvg" data-class="dots" class="dots"><ellipse cx="7589" cy="270" rx="36" ry="36" fill-opacity="1" stroke-opacity="1"/></g><g data-id="c71yygh" data-class="stem" class="stem"><path d="M7282 385 L7282 990" stroke-width="18"/></g></g></g></g><g data-id="c1unb9ea" data-class="barLine" class="barLine"><path d="M8613 540 L8613 1260" stroke-width="27"/></g></g><g data-id="r1wk6zav" data-class="systemMilestoneEnd" class="systemMilestoneEnd qlc5x4q"/></g><g data-id="s68hmeo" data-class="pageMilestoneEnd" class="pageMilestoneEnd o68upw8"/><g data-id="tefe4hv" data-class="pageMilestoneEnd" class="pageMilestoneEnd ntpfpzh"/></g></svg></svg>