<svg viewBox="0 0 560 84" version="1.1" xmlns="http://www.w3.org/2000/svg" xmlns:xlink="http://www.w3.org/1999/xlink" overflow="visible" id="t1759iyg"><desc>Engraved by Verovio 5.6.0-85e7620</desc><defs><g id="E050-t1759iyg"><path transform="scale(1,-1)" d="M441 -245c-23 -4 -48 -6 -76 -6c-59 0 -102 7 -130 20c-88 42 -150 93 -187 154c-26 44 -43 103 -48 176c0 6 -1 13 -1 19c0 54 15 111 45 170c29 57 65 106 110 148s96 85 153 127c-3 16 -8 46 -13 92c-4 43 -5 73 -5 89c0 117 16 172 69 257c34 54 64 82 89 82 c21 0 43 -30 69 -92s39 -115 41 -159v-15c0 -109 -21 -162 -67 -241c-13 -20 -63 -90 -98 -118c-13 -9 -25 -19 -37 -29l31 -181c8 1 18 2 28 2c58 0 102 -12 133 -35c59 -43 92 -104 98 -184c1 -7 1 -15 1 -22c0 -123 -87 -209 -181 -248c8 -57 17 -110 25 -162 c5 -31 6 -58 6 -80c0 -30 -5 -53 -14 -70c-35 -64 -88 -99 -158 -103c-5 0 -11 -1 -16 -1c-37 0 -72 10 -108 27c-50 24 -77 59 -80 105v11c0 29 7 55 20 76c18 28 45 42 79 44h6c49 0 93 -42 97 -87v-9c0 -51 -34 -86 -105 -106c17 -24 51 -36 102 -36c62 0 116 43 140 85 c9 16 13 41 13 74c0 20 -1 42 -5 67c-8 53 -18 106 -26 159zM461 939c-95 0 -135 -175 -135 -286c0 -24 2 -48 5 -71c50 39 92 82 127 128c40 53 60 100 60 140v8c-4 53 -22 81 -55 81h-2zM406 119l54 -326c73 25 110 78 110 161c0 7 0 15 -1 23c-7 95 -57 142 -151 142h-12 zM382 117c-72 -2 -128 -47 -128 -120v-7c2 -46 43 -99 75 -115c-3 -2 -7 -5 -10 -10c-70 33 -116 88 -123 172v11c0 68 44 126 88 159c23 17 49 29 78 36l-29 170c-21 -13 -52 -37 -92 -73c-50 -44 -86 -84 -109 -119c-45 -69 -67 -130 -67 -182v-13c5 -68 35 -127 93 -176 s125 -73 203 -73c25 0 50 3 75 9c-19 111 -36 221 -54 331z"/></g><g id="E262-t1759iyg"><path transform="scale(1,-1)" d="M136 186v169h17v-164l44 14v-91l-44 -14v-165l44 12v-91l-44 -13v-155h-17v150l-76 -22v-155h-17v149l-43 -13v90l43 14v167l-43 -14v92l43 13v169h17v-163zM60 73v-167l76 22v168z"/></g><g id="E086-t1759iyg"><path transform="scale(1,-1)" d="M284 -91c0 37 -28 92 -67 92c-35 0 -65 -54 -65 -111c0 -52 22 -104 68 -104c47 0 64 68 64 123zM230 214c-36 0 -90 -33 -90 -184l2 -36c40 24 81 36 120 36c80 0 140 -48 140 -121c0 -99 -99 -159 -182 -159c-160 0 -200 173 -200 244c0 21 2 43 7 71l10 35 c26 85 73 115 98 126c41 19 74 24 103 24c93 0 142 -63 142 -105c0 -58 -52 -72 -73 -72c-33 0 -59 24 -65 35c-3 5 -6 14 -7 25l11 30c6 15 9 27 9 35c0 11 -9 16 -25 16z"/></g><g id="E088-t1759iyg"><path transform="scale(1,-1)" d="M195 -214c76 0 88 58 90 68c0 34 -35 60 -57 73l-52 29c-21 10 -32 17 -34 20c-39 -33 -58 -54 -62 -92c5 -23 23 -98 115 -98zM301 135c0 61 -72 76 -113 76c-40 0 -77 -17 -77 -51c3 -21 15 -38 26 -50c17 -15 33 -26 48 -34l65 -28c34 27 51 56 51 87zM176 -250 c-57 0 -166 26 -166 132c0 47 30 86 89 116c-33 15 -79 60 -79 119c0 79 85 132 178 132h18c5 0 21 1 28 -1c25 0 126 -30 126 -110c0 -37 -23 -76 -69 -116c43 -25 83 -71 83 -119c0 -101 -118 -153 -208 -153z"/></g><g id="E0A4-t1759iyg"><path transform="scale(1,-1)" d="M0 -39c0 68 73 172 200 172c66 0 114 -37 114 -95c0 -84 -106 -171 -218 -171c-64 0 -96 30 -96 94z"/></g><g id="E261-t1759iyg"><path transform="scale(1,-1)" d="M0 -188v539h18v-191l139 22v-533h-17v186zM18 -100l122 17v176l-122 -19v-174z"/></g></defs><style type="text/css">#t1759iyg g.page-margin {font-family:Times,serif;}#t1759iyg g.ending, #t1759iyg g.fing, #t1759iyg g.reh, #t1759iyg g.tempo {font-weight:bold;}#t1759iyg g.dir, #t1759iyg g.dynam, #t1759iyg g.mNum {font-style:italic;}#t1759iyg g.label {font-weight:normal;}#t1759iyg path {stroke:currentColor}</style><svg class="definition-scale" color="black" viewBox="0 0 14000 2100"><g class="page-margin" transform="translate(0, 150)"><g data-id="n1m90sul" data-class="mdiv" class="mdiv pageMilestone"/><g data-id="o1bu53t9" data-class="score" class="score pageMilestone"/><g data-id="vpwblu1" data-class="system" class="system"><g data-id="q3up4s1" data-class="section" class="section systemMilestone"/><g data-id="u15u823x" data-class="measure" class="measure"><g data-id="c6rt8cu" data-class="staff" class="staff"><path d="M0 540 L4378 540" stroke-width="13"/><path d="M0 720 L4378 720" stroke-width="13"/><path d="M0 900 L4378 900" stroke-width="13"/><path d="M0 1080 L4378 1080" stroke-width="13"/><path d="M0 1260 L4378 1260" stroke-width="13"/><g data-id="z7hujjw" data-class="clef" class="clef"><use href="#E050-t1759iyg" transform="translate(90, 1080) scale(0.72, 0.72)"/></g><g data-id="a1i13yln" data-class="keySig" class="keySig"><g data-id="b12210jt" data-class="keyAccid" class="keyAccid"><use href="#E262-t1759iyg" transform="translate(735, 540) scale(0.72, 0.72)"/></g><g data-id="cm1sy5d" data-class="keyAccid" class="keyAccid"><use href="#E262-t1759iyg" transform="translate(913, 810) scale(0.72, 0.72)"/></g><g data-id="d1e94yee" data-class="keyAccid" class="keyAccid"><use href="#E262-t1759iyg" transform="translate(1091, 450) scale(0.72, 0.72)"/></g><g data-id="exh131p" data-class="keyAccid" class="keyAccid"><use href="#E262-t1759iyg" transform="translate(1269, 720) scale(0.72, 0.72)"/></g></g><g data-id="f1q6lpln" data-class="meterSig" class="meterSig"><use href="#E086-t1759iyg" transform="translate(1576, 720) scale(0.72, 0.72)"/><use href="#E088-t1759iyg" transform="translate(1583, 1080) scale(0.72, 0.72)"/></g><g data-id="da8gw6k" data-class="layer" class="layer"><g data-id="zc9e0um" data-class="chord" class="chord"><g data-id="v154aofe" data-class="dots" class="dots"><ellipse cx="2451" cy="810" rx="36" ry="36" fill-opacity="1" stroke-opacity="1"/><ellipse cx="2451" cy="630" rx="36" ry="36" fill-opacity="1" stroke-opacity="1"/></g><g data-id="u10t0zri" data-class="stem" class="stem"><path d="M2144 658 L2144 1500" stroke-width="18"/></g><g data-id="m8d5p2i" data-class="note" class="note"><g data-class="notehead" class="notehead"><use href="#E0A4-t1759iyg" transform="translate(2135, 900) scale(0.72, 0.72)"/></g></g><g data-id="ne8gex0" data-class="note" class="note"><g data-class="notehead" class="notehead"><use href="#E0A4-t1759iyg" transform="translate(2135, 630) scale(0.72, 0.72)"/></g></g></g><g data-id="fijrw3o" data-class="beam" class="beam"><polygon stroke-opacity="1" fill-opacity="1" points="3015,1440 3933,1440 3933,1350 3015,1350"/><g data-id="aprxoj0" data-class="chord" class="chord"><g data-id="w1jrnps0" data-class="stem" class="stem"><path d="M3024 568 L3024 1422" stroke-width="18"/></g><g data-id="o1yjg382" data-class="note" class="note"><g data-class="notehead" class="notehead"><use href="#E0A4-t1759iyg" transform="translate(3015, 720) scale(0.72, 0.72)"/></g><g data-id="g10cprh4" data-class="accid" class="accid"/></g><g data-id="p1pur375" data-class="note" class="note"><g data-class="notehead" class="notehead"><use href="#E0A4-t1759iyg" transform="translate(3015, 540) scale(0.72, 0.72)"/></g><g data-id="h108bydx" data-class="accid" class="accid"/></g></g><g data-id="b16dvk2v" data-class="chord" class="chord"><g data-id="x14ocqju" data-class="stem" class="stem"><path d="M3474 658 L3474 1422" stroke-width="18"/></g><g data-id="q1lp1zqu" data-class="note" class="note"><g data-class="notehead" class="notehead"><use href="#E0A4-t1759iyg" transform="translate(3465, 810) scale(0.72, 0.72)"/></g><g data-id="ibx9vr3" data-class="accid" class="accid"/></g><g data-id="r1clfsen" data-class="note" class="note"><g data-class="notehead" class="notehead"><use href="#E0A4-t1759iyg" transform="translate(3465, 630) scale(0.72, 0.72)"/></g></g></g><g data-id="c14s0cdx" data-class="chord" class="chord"><g data-id="y1cridez" data-class="stem" class="stem"><path d="M3924 568 L3924 1422" stroke-width="18"/></g><g data-id="skb2cxg" data-class="note" class="note"><g data-class="notehead" class="notehead"><use href="#E0A4-t1759iyg" transform="translate(3915, 720) scale(0.72, 0.72)"/></g><g data-id="j1ieh4wd" data-class="accid" class="accid"/></g><g data-id="t1br788f" data-class="note" class="note"><g data-class="notehead" class="notehead"><use href="#E0A4-t1759iyg" transform="translate(3915, 540) scale(0.72, 0.72)"/></g><g data-id="k14h49kz" data-class="accid" class="accid"/></g></g></g></g></g><g data-id="c5w4v7i" data-class="barLine" class="barLine"><path d="M4365 540 L4365 1260" stroke-width="27"/></g></g><g data-id="d1gkldix" data-class="measure" class="measure"><g data-id="e1or2s93" data-class="staff" class="staff"><path d="M4378 540 L6331 540" stroke-width="13"/><path d="M4378 720 L6331 720" stroke-width="13"/><path d="M4378 900 L6331 900" stroke-width="13"/><path d="M4378 1080 L6331 1080" stroke-width="13"/><path d="M4378 1260 L6331 1260" stroke-width="13"/><g data-class="ledgerLines" class="ledgerLines above"><g data-class="lineDash" class="lineDash" data-related="#xwpawnb"><path d="M5390 360 L5712 360" stroke-width="22"/></g></g><g data-id="fdivozo" data-class="layer" class="layer"><g data-id="dq0m4lc" data-class="chord" class="chord"><g data-id="aydzhf5" data-class="dots" class="dots"><ellipse cx="4874" cy="630" rx="36" ry="36" fill-opacity="1" stroke-opacity="1"/><ellipse cx="4874" cy="450" rx="36" ry="36" fill-opacity="1" stroke-opacity="1"/></g><g data-id="z126dokx" data-class="stem" class="stem"><path d="M4567 478 L4567 1260" stroke-width="18"/></g><g data-id="u1xu2x5g" data-class="note" class="note"><g data-class="notehead" class="notehead"><use href="#E0A4-t1759iyg" transform="translate(4558, 630) scale(0.72, 0.72)"/></g></g><g data-id="v1dzrdlt" data-class="note" class="note"><g data-class="notehead" class="notehead"><use href="#E0A4-t1759iyg" transform="translate(4558, 450) scale(0.72, 0.72)"/></g><g data-id="lmsi5g7" data-class="accid" class="accid"/></g></g><g data-id="eizshtz" data-class="chord" class="chord"><g data-id="c1urnzx9" data-class="dots" class="dots"><ellipse cx="5754" cy="630" rx="36" ry="36" fill-opacity="1" stroke-opacity="1"/><ellipse cx="5754" cy="270" rx="36" ry="36" fill-opacity="1" stroke-opacity="1"/></g><g data-id="b3t0z03" data-class="stem" class="stem"><path d="M5447 298 L5447 1350" stroke-width="18"/></g><g data-id="wsr1an8" data-class="note" class="note"><g data-class="notehead" class="notehead"><use href="#E0A4-t1759iyg" transform="translate(5438, 720) scale(0.72, 0.72)"/></g><g data-id="y1ty4fc1" data-class="accid" class="accid"><use href="#E261-t1759iyg" transform="translate(5280, 720) scale(0.72, 0.72)"/></g></g><g data-id="xwpawnb" data-class="note" class="note"><g data-class="notehead" class="notehead"><use href="#E0A4-t1759iyg" transform="translate(5438, 270) scale(0.72, 0.72)"/></g></g></g></g></g><g data-id="ldd8a3a" data-class="barLine" class="barLine"><path d="M6318 540 L6318 1260" stroke-width="27"/></g></g><g data-id="nzv2urh" data-class="systemMilestoneEnd" class="systemMilestoneEnd q3up4s1"/></g><g data-id="o15br6ac" data-class="pageMilestoneEnd" class="pageMilestoneEnd o1bu53t9"/><g data-id="p5w3dlf" data-class="pageMilestoneEnd" class="pageMilestoneEnd n1m90sul"/></g></svg></svg>