<svg viewBox="0 0 560 84" version="1.1" xmlns="http://www.w3.org/2000/svg" xmlns:xlink="http://www.w3.org/1999/xlink" overflow="visible" id="yvian3w"><desc>Engraved by Verovio 5.6.0-85e7620</desc><defs><g id="E050-yvian3w"><path transform="scale(1,-1)" d="M441 -245c-23 -4 -48 -6 -76 -6c-59 0 -102 7 -130 20c-88 42 -150 93 -187 154c-26 44 -43 103 -48 176c0 6 -1 13 -1 19c0 54 15 111 45 170c29 57 65 106 110 148s96 85 153 127c-3 16 -8 46 -13 92c-4 43 -5 73 -5 89c0 117 16 172 69 257c34 54 64 82 89 82 c21 0 43 -30 69 -92s39 -115 41 -159v-15c0 -109 -21 -162 -67 -241c-13 -20 -63 -90 -98 -118c-13 -9 -25 -19 -37 -29l31 -181c8 1 18 2 28 2c58 0 102 -12 133 -35c59 -43 92 -104 98 -184c1 -7 1 -15 1 -22c0 -123 -87 -209 -181 -248c8 -57 17 -110 25 -162 c5 -31 6 -58 6 -80c0 -30 -5 -53 -14 -70c-35 -64 -88 -99 -158 -103c-5 0 -11 -1 -16 -1c-37 0 -72 10 -108 27c-50 24 -77 59 -80 105v11c0 29 7 55 20 76c18 28 45 42 79 44h6c49 0 93 -42 97 -87v-9c0 -51 -34 -86 -105 -106c17 -24 51 -36 102 -36c62 0 116 43 140 85 c9 16 13 41 13 74c0 20 -1 42 -5 67c-8 53 -18 106 -26 159zM461 939c-95 0 -135 -175 -135 -286c0 -24 2 -48 5 -71c50 39 92 82 127 128c40 53 60 100 60 140v8c-4 53 -22 81 -55 81h-2zM406 119l54 -326c73 25 110 78 110 161c0 7 0 15 -1 23c-7 95 -57 142 -151 142h-12 zM382 117c-72 -2 -128 -47 -128 -120v-7c2 -46 43 -99 75 -115c-3 -2 -7 -5 -10 -10c-70 33 -116 88 -123 172v11c0 68 44 126 88 159c23 17 49 29 78 36l-29 170c-21 -13 -52 -37 -92 -73c-50 -44 -86 -84 -109 -119c-45 -69 -67 -130 -67 -182v-13c5 -68 35 -127 93 -176 s125 -73 203 -73c25 0 50 3 75 9c-19 111 -36 221 -54 331z"/></g><g id="E262-yvian3w"><path transform="scale(1,-1)" d="M136 186v169h17v-164l44 14v-91l-44 -14v-165l44 12v-91l-44 -13v-155h-17v150l-76 -22v-155h-17v149l-43 -13v90l43 14v167l-43 -14v92l43 13v169h17v-163zM60 73v-167l76 22v168z"/></g><g id="E08B-yvian3w"><path transform="scale(1,-1)" d="M188 200c-42 -22 -63 -69 -63 -141v-119c0 -39 7 -70 19 -94s26 -40 44 -48v402zM0 -0c0 127 80 220 186 246v72h32l-6 -72c33 0 71 0 101 -11c54 -20 102 -65 102 -135c0 -16 -4 -30 -13 -43s-20 -24 -32 -29l-20 -8l-23 -3c-22 2 -41 8 -55 21s-21 31 -26 51 c0 38 45 80 79 80c12 0 19 3 19 10c0 6 -6 12 -15 18c-19 13 -47 24 -79 24c-10 0 -20 -1 -32 -5v-431c15 -3 12 -4 30 -4c57 0 100 51 121 93l17 39c3 13 5 25 5 35h26c-6 -70 -28 -121 -66 -152s-82 -47 -133 -47v-68h-30v72c-57 10 -122 54 -153 109c-7 12 -13 26 -19 42 c-11 29 -16 61 -16 96z"/></g><g id="E4E4-yvian3w"><path transform="scale(1,-1)" d="M0 10v105c0 9 1 10 10 10h280c9 0 10 -1 10 -10v-105c0 -9 -1 -10 -10 -10h-280c-9 0 -10 1 -10 10z"/></g><g id="E0A3-yvian3w"><path transform="scale(1,-1)" d="M278 64c0 22 -17 39 -43 39c-12 0 -26 -3 -41 -10c-85 -43 -165 -94 -165 -156c5 -25 15 -32 49 -32c67 11 200 95 200 159zM0 -36c0 68 73 174 200 174c66 0 114 -39 114 -97c0 -84 -106 -173 -218 -173c-64 0 -96 32 -96 96z"/></g><g id="E0A4-yvian3w"><path transform="scale(1,-1)" d="M0 -39c0 68 73 172 200 172c66 0 114 -37 114 -95c0 -84 -106 -171 -218 -171c-64 0 -96 30 -96 94z"/></g><g id="E0A2-yvian3w"><path transform="scale(1,-1)" d="M198 133c102 0 207 -45 207 -133c0 -92 -118 -133 -227 -133c-101 0 -178 46 -178 133c0 88 93 133 198 133zM293 -21c0 14 -3 29 -8 44c-7 20 -18 38 -33 54c-20 21 -43 31 -68 31l-20 -2c-15 -5 -27 -14 -36 -28c-4 -9 -6 -17 -8 -24s-3 -16 -3 -27c0 -15 3 -34 9 -57 s18 -41 34 -55c15 -15 36 -23 62 -23c4 0 10 1 18 2c19 5 32 15 40 30s13 34 13 55z"/></g></defs><style type="text/css">#yvian3w g.page-margin {font-family:Times,serif;}#yvian3w g.ending, #yvian3w g.fing, #yvian3w g.reh, #yvian3w g.tempo {font-weight:bold;}#yvian3w g.dir, #yvian3w g.dynam, #yvian3w g.mNum {font-style:italic;}#yvian3w g.label {font-weight:normal;}#yvian3w path {stroke:currentColor}</style><svg class="definition-scale" color="black" viewBox="0 0 14000 2100"><g class="page-margin" transform="translate(0, 150)"><g data-id="qlz4300" data-class="mdiv" class="mdiv pageMilestone"/><g data-id="r198p9ta" data-class="score" class="score pageMilestone"/><g data-id="qa2zrq4" data-class="system" class="system"><g data-id="t1t8sb2p" data-class="section" class="section systemMilestone"/><g data-id="zt8qf53" data-class="measure" class="measure"><g data-id="f3lgluz" data-class="staff" class="staff"><path d="M0 540 L4031 540" stroke-width="13"/><path d="M0 720 L4031 720" stroke-width="13"/><path d="M0 900 L4031 900" stroke-width="13"/><path d="M0 1080 L4031 1080" stroke-width="13"/><path d="M0 1260 L4031 1260" stroke-width="13"/><g data-id="m1es4izz" data-class="clef" class="clef"><use href="#E050-yvian3w" transform="translate(90, 1080) scale(0.72, 0.72)"/></g><g data-id="n1l6z5qf" data-class="keySig" class="keySig"><g data-id="o1pduu5h" data-class="keyAccid" class="keyAccid"><use href="#E262-yvian3w" transform="translate(735, 540) scale(0.72, 0.72)"/></g></g><g data-id="p1twzu3s" data-class="meterSig" class="meterSig"><use href="#E08B-yvian3w" transform="translate(1056, 900) scale(0.72, 0.72)"/></g><g data-id="g19jkg05" data-class="layer" class="layer"><g data-id="ulo8059" data-class="rest" class="rest"><use href="#E4E4-yvian3w" transform="translate(1637, 900) scale(0.72, 0.72)"/><g data-class="ledgerLines" class="ledgerLines"/></g><g data-id="vk7ra07" data-class="note" class="note"><g data-class="notehead" class="notehead"><use href="#E0A3-yvian3w" transform="translate(2827, 1080) scale(0.72, 0.72)"/></g><g data-id="mybs5lm" data-class="stem" class="stem"><path d="M3044 1052 L3044 450" stroke-width="18"/></g></g></g></g><g data-id="hh3iag" data-class="barLine" class="barLine"><path d="M4018 540 L4018 1260" stroke-width="27"/></g></g><g data-id="i1op1nl8" data-class="measure" class="measure"><g data-id="hxwb1gq" data-class="staff" class="staff"><path d="M4031 540 L6535 540" stroke-width="13"/><path d="M4031 720 L6535 720" stroke-width="13"/><path d="M4031 900 L6535 900" stroke-width="13"/><path d="M4031 1080 L6535 1080" stroke-width="13"/><path d="M4031 1260 L6535 1260" stroke-width="13"/><g data-id="i1fb9l0p" data-class="layer" class="layer"><g data-id="wosuw4s" data-class="note" class="note"><g data-class="notehead" class="notehead"><use href="#E0A3-yvian3w" transform="translate(4222, 990) scale(0.72, 0.72)"/></g><g data-id="o1de89xw" data-class="dots" class="dots"><ellipse cx="4538" cy="990" rx="36" ry="36" fill-opacity="1" stroke-opacity="1"/></g><g data-id="n18v68nr" data-class="stem" class="stem"><path d="M4439 962 L4439 360" stroke-width="18"/></g></g><g data-id="x1vopb8x" data-class="note" class="note"><g data-class="notehead" class="notehead"><use href="#E0A4-yvian3w" transform="translate(5741, 990) scale(0.72, 0.72)"/></g><g data-id="p9s0zn9" data-class="stem" class="stem"><path d="M5958 962 L5958 360" stroke-width="18"/></g></g></g></g><g data-id="q1b8nnx0" data-class="barLine" class="barLine"><path d="M6522 540 L6522 1260" stroke-width="27"/></g></g><g data-id="r1agom2t" data-class="measure" class="measure"><g data-id="j1pkej77" data-class="staff" class="staff"><path d="M6535 540 L9492 540" stroke-width="13"/><path d="M6535 720 L9492 720" stroke-width="13"/><path d="M6535 900 L9492 900" stroke-width="13"/><path d="M6535 1080 L9492 1080" stroke-width="13"/><path d="M6535 1260 L9492 1260" stroke-width="13"/><g data-id="k1bfi89e" data-class="layer" class="layer"><g data-id="y1lkw6mh" data-class="note" class="note"><g data-class="notehead" class="notehead"><use href="#E0A3-yvian3w" transform="translate(6726, 900) scale(0.72, 0.72)"/></g><g data-id="q1kyzg08" data-class="stem" class="stem"><path d="M6735 925 L6735 1500" stroke-width="18"/></g></g><g data-id="z3akkgs" data-class="note" class="note"><g data-class="notehead" class="notehead"><use href="#E0A4-yvian3w" transform="translate(7916, 990) scale(0.72, 0.72)"/></g><g data-id="r7suis3" data-class="stem" class="stem"><path d="M8133 962 L8133 360" stroke-width="18"/></g></g><g data-id="a18evld0" data-class="note" class="note"><g data-class="notehead" class="notehead"><use href="#E0A4-yvian3w" transform="translate(8698, 1080) scale(0.72, 0.72)"/></g><g data-id="s11lk17v" data-class="stem" class="stem"><path d="M8915 1052 L8915 450" stroke-width="18"/></g></g></g></g><g data-id="z1jvoh0i" data-class="barLine" class="barLine"><path d="M9479 540 L9479 1260" stroke-width="27"/></g></g><g data-id="a1nqppiw" data-class="measure" class="measure"><g data-id="l1xe4sm2" data-class="staff" class="staff"><path d="M9492 540 L11996 540" stroke-width="13"/><path d="M9492 720 L11996 720" stroke-width="13"/><path d="M9492 900 L11996 900" stroke-width="13"/><path d="M9492 1080 L11996 1080" stroke-width="13"/><path d="M9492 1260 L11996 1260" stroke-width="13"/><g data-id="m15w3oge" data-class="layer" class="layer"><g data-id="b1lw8dxx" data-class="note" class="note"><g data-class="notehead" class="notehead"><use href="#E0A3-yvian3w" transform="translate(9683, 810) scale(0.72, 0.72)"/></g><g data-id="u1r1oqjz" data-class="dots" class="dots"><ellipse cx="9999" cy="810" rx="36" ry="36" fill-opacity="1" stroke-opacity="1"/></g><g data-id="tbubmbm" data-class="stem" class="stem"><path d="M9692 835 L9692 1440" stroke-width="18"/></g></g><g data-id="c1t8u0zw" data-class="note" class="note"><g data-class="notehead" class="notehead"><use href="#E0A4-yvian3w" transform="translate(11202, 810) scale(0.72, 0.72)"/></g><g data-id="vpg8u2d" data-class="stem" class="stem"><path d="M11211 838 L11211 1440" stroke-width="18"/></g></g></g></g><g data-id="i1fptrzh" data-class="barLine" class="barLine"><path d="M11983 540 L11983 1260" stroke-width="27"/></g></g><g data-id="j1864gt1" data-class="measure" class="measure"><g data-id="n336e8s" data-class="staff" class="staff"><path d="M11996 540 L14002 540" stroke-width="13"/><path d="M11996 720 L14002 720" stroke-width="13"/><path d="M11996 900 L14002 900" stroke-width="13"/><path d="M11996 1080 L14002 1080" stroke-width="13"/><path d="M11996 1260 L14002 1260" stroke-width="13"/><g data-id="o1ejoiyu" data-class="layer" class="layer"><g data-id="d1pk3re" data-class="note" class="note"><g data-class="notehead" class="notehead"><use href="#E0A2-yvian3w" transform="translate(12187, 810) scale(0.72, 0.72)"/></g></g></g></g><g data-id="r1rqm8cj" data-class="barLine" class="barLine"><path d="M13989 540 L13989 1260" stroke-width="27"/></g></g></g></g></svg></svg>