<svg viewBox="0 0 560 84" version="1.1" xmlns="http://www.w3.org/2000/svg" xmlns:xlink="http://www.w3.org/1999/xlink" overflow="visible" id="q1ju2pke"><desc>Engraved by Verovio 5.6.0-85e7620</desc><defs><g id="E062-q1ju2pke"><path transform="scale(1,-1)" d="M582 -120c0 32 26 58 58 58s58 -26 58 -58s-26 -58 -58 -58s-58 26 -58 58zM582 120c0 32 26 58 58 58s58 -26 58 -58s-26 -58 -58 -58s-58 26 -58 58zM158 96c51 0 73 -14 88 -49l16 -39c0 -17 -2 -30 -7 -40c-3 -11 -10 -21 -19 -31c-17 -18 -49 -43 -84 -43 c-55 0 -77 13 -112 44c-24 21 -35 55 -35 100c0 46 14 81 32 112c30 52 71 79 137 93l36 6l26 2c154 0 235 -68 274 -182c11 -32 18 -68 18 -107c0 -103 -26 -182 -68 -250c-89 -145 -234 -230 -412 -288l-30 -5c-9 0 -14 3 -14 8c3 10 5 11 10 16c35 15 70 30 96 44l78 43 c96 57 162 136 197 258c9 33 17 60 22 100c3 22 5 35 6 39c-7 69 -16 115 -23 140s-4 22 -16 40c-8 12 -19 23 -31 34c-24 21 -62 44 -118 44c-48 0 -84 -8 -113 -28c-28 -19 -42 -44 -42 -73v-16c2 -5 3 -9 4 -11c24 22 52 39 84 39z"/></g><g id="E260-q1ju2pke"><path transform="scale(1,-1)" d="M20 110c32 16 54 27 93 27c26 0 35 -3 54 -13c13 -7 24 -20 27 -38l4 -25c0 -28 -16 -57 -45 -89c-23 -25 -39 -44 -65 -68l-88 -79v644h20v-359zM90 106c-32 0 -48 -10 -70 -29v-194c31 31 54 59 71 84c21 32 32 59 32 84c0 9 1 16 1 20c0 14 -3 21 -11 30l-8 3z"/></g><g id="E086-q1ju2pke"><path transform="scale(1,-1)" d="M284 -91c0 37 -28 92 -67 92c-35 0 -65 -54 -65 -111c0 -52 22 -104 68 -104c47 0 64 68 64 123zM230 214c-36 0 -90 -33 -90 -184l2 -36c40 24 81 36 120 36c80 0 140 -48 140 -121c0 -99 -99 -159 -182 -159c-160 0 -200 173 -200 244c0 21 2 43 7 71l10 35 c26 85 73 115 98 126c41 19 74 24 103 24c93 0 142 -63 142 -105c0 -58 -52 -72 -73 -72c-33 0 -59 24 -65 35c-3 5 -6 14 -7 25l11 30c6 15 9 27 9 35c0 11 -9 16 -25 16z"/></g><g id="E088-q1ju2pke"><path transform="scale(1,-1)" d="M195 -214c76 0 88 58 90 68c0 34 -35 60 -57 73l-52 29c-21 10 -32 17 -34 20c-39 -33 -58 -54 -62 -92c5 -23 23 -98 115 -98zM301 135c0 61 -72 76 -113 76c-40 0 -77 -17 -77 -51c3 -21 15 -38 26 -50c17 -15 33 -26 48 -34l65 -28c34 27 51 56 51 87zM176 -250 c-57 0 -166 26 -166 132c0 47 30 86 89 116c-33 15 -79 60 -79 119c0 79 85 132 178 132h18c5 0 21 1 28 -1c25 0 126 -30 126 -110c0 -37 -23 -76 -69 -116c43 -25 83 -71 83 -119c0 -101 -118 -153 -208 -153z"/></g><g id="E0A4-q1ju2pke"><path transform="scale(1,-1)" d="M0 -39c0 68 73 172 200 172c66 0 114 -37 114 -95c0 -84 -106 -171 -218 -171c-64 0 -96 30 -96 94z"/></g><g id="E241-q1ju2pke"><path transform="scale(1,-1)" d="M179 646c-4 8 -17 30 -18 33l-4 10c0 3 2 5 5 5s7 -2 13 -7c23 -33 46 -81 66 -132c22 -57 35 -125 35 -163c0 -104 -60 -183 -122 -241c-63 -59 -57 -53 -61 -56c-38 -34 -63 -95 -71 -95h-22v190c40 7 69 11 87 16c88 27 168 95 168 200c0 30 -12 89 -30 138 c-17 47 -31 73 -46 102z"/></g><g id="E261-q1ju2pke"><path transform="scale(1,-1)" d="M0 -188v539h18v-191l139 22v-533h-17v186zM18 -100l122 17v176l-122 -19v-174z"/></g></defs><style type="text/css">#q1ju2pke g.page-margin {font-family:Times,serif;}#q1ju2pke g.ending, #q1ju2pke g.fing, #q1ju2pke g.reh, #q1ju2pke g.tempo {font-weight:bold;}#q1ju2pke g.dir, #q1ju2pke g.dynam, #q1ju2pke g.mNum {font-style:italic;}#q1ju2pke g.label {font-weight:normal;}#q1ju2pke path {stroke:currentColor}</style><svg class="definition-scale" color="black" viewBox="0 0 14000 2100"><g class="page-margin" transform="translate(0, 150)"><g data-id="o11w976" data-class="mdiv" class="mdiv pageMilestone"/><g data-id="pgjtxb7" data-class="score" class="score pageMilestone"/><g data-id="i5f38ow" data-class="system" class="system"><g data-id="rb5g1pn" data-class="section" class="section systemMilestone"/><g data-id="r11gptx1" data-class="measure" class="measure"><g data-id="d1s0lc7" data-class="staff" class="staff"><path d="M0 546 L5516 546" stroke-width="13"/><path d="M0 726 L5516 726" stroke-width="13"/><path d="M0 906 L5516 906" stroke-width="13"/><path d="M0 1086 L5516 1086" stroke-width="13"/><path d="M0 1266 L5516 1266" stroke-width="13"/><g data-id="mc7yf4n" data-class="clef" class="clef"><use href="#E062-q1ju2pke" transform="translate(88, 726) scale(0.72, 0.72)"/></g><g data-id="n1sqqski" data-class="keySig" class="keySig"><g data-id="o7rixbt" data-class="keyAccid" class="keyAccid"><use href="#E260-q1ju2pke" transform="translate(769, 1086) scale(0.72, 0.72)"/></g><g data-id="p1l93v6s" data-class="keyAccid" class="keyAccid"><use href="#E260-q1ju2pke" transform="translate(949, 816) scale(0.72, 0.72)"/></g><g data-id="q1imnwaf" data-class="keyAccid" class="keyAccid"><use href="#E260-q1ju2pke" transform="translate(1129, 1176) scale(0.72, 0.72)"/></g><g data-id="r52tsu9" data-class="keyAccid" class="keyAccid"><use href="#E260-q1ju2pke" transform="translate(1309, 906) scale(0.72, 0.72)"/></g></g><g data-id="s1xdlimx" data-class="meterSig" class="meterSig"><use href="#E086-q1ju2pke" transform="translate(1617, 726) scale(0.72, 0.72)"/><use href="#E088-q1ju2pke" transform="translate(1624, 1086) scale(0.72, 0.72)"/></g><g data-class="ledgerLines" class="ledgerLines above"><g data-class="lineDash" class="lineDash" data-related="#b1cl7qoj"><path d="M2148 366 L2470 366" stroke-width="22"/></g><g data-class="lineDash" class="lineDash" data-related="#c15pr4f6"><path d="M2913 366 L3235 366" stroke-width="22"/></g><g data-class="lineDash" class="lineDash" data-related="#dfhvwco"><path d="M3413 366 L3735 366" stroke-width="22"/></g></g><g data-id="eys307m" data-class="layer" class="layer"><g data-id="b1cl7qoj" data-class="note" class="note"><g data-class="notehead" class="notehead"><use href="#E0A4-q1ju2pke" transform="translate(2196, 366) scale(0.72, 0.72)"/></g><g data-id="zjjixm7" data-class="stem" class="stem"><path d="M2205 394 L2205 996" stroke-width="18"/></g></g><g data-id="c15pr4f6" data-class="note" class="note"><g data-class="notehead" class="notehead"><use href="#E0A4-q1ju2pke" transform="translate(2961, 276) scale(0.72, 0.72)"/></g><g data-id="a153srvf" data-class="stem" class="stem"><path d="M2970 304 L2970 906" stroke-width="18"/><g data-id="b1n8cp5r" data-class="flag" class="flag"><use href="#E241-q1ju2pke" transform="translate(2961, 906) scale(0.72, 0.72)"/></g></g><g data-id="eajy4s5" data-class="accid" class="accid"/></g><g data-id="ybbjb6b" data-class="beam" class="beam"><polygon stroke-opacity="1" fill-opacity="1" points="3461,1086 5155,1266 5155,1176 3461,996"/><polygon stroke-opacity="1" fill-opacity="1" points="4446,1055 4796,1093 4796,1003 4446,965"/><polygon stroke-opacity="1" fill-opacity="1" points="4796,1093 5155,1131 5155,1041 4796,1003"/><g data-id="dfhvwco" data-class="note" class="note"><g data-class="notehead" class="notehead"><use href="#E0A4-q1ju2pke" transform="translate(3461, 366) scale(0.72, 0.72)"/></g><g data-id="d12ldnwa" data-class="dots" class="dots"><ellipse cx="3777" cy="276" rx="36" ry="36" fill-opacity="1" stroke-opacity="1"/></g><g data-id="ccx7a43" data-class="stem" class="stem"><path d="M3470 394 L3470 1068" stroke-width="18"/></g></g><g data-id="e48x5je" data-class="note" class="note"><g data-class="notehead" class="notehead"><use href="#E0A4-q1ju2pke" transform="translate(4437, 456) scale(0.72, 0.72)"/></g><g data-id="e10qat4x" data-class="stem" class="stem"><path d="M4446 484 L4446 1172" stroke-width="18"/></g><g data-id="f4qms35" data-class="accid" class="accid"/></g><g data-id="fijq9c9" data-class="note" class="note"><g data-class="notehead" class="notehead"><use href="#E0A4-q1ju2pke" transform="translate(4787, 546) scale(0.72, 0.72)"/></g><g data-id="f1yrv3uy" data-class="stem" class="stem"><path d="M4796 574 L4796 1210" stroke-width="18"/></g><g data-id="g1h8xjq2" data-class="accid" class="accid"/></g><g data-id="gbjg334" data-class="note" class="note"><g data-class="notehead" class="notehead"><use href="#E0A4-q1ju2pke" transform="translate(5137, 636) scale(0.72, 0.72)"/></g><g data-id="g6d0lte" data-class="stem" class="stem"><path d="M5146 664 L5146 1248" stroke-width="18"/></g></g></g></g></g><g data-id="z12qx8ga" data-class="barLine" class="barLine"><path d="M5503 546 L5503 1266" stroke-width="27"/></g></g><g data-id="a81bfyg" data-class="measure" class="measure"><g data-id="fv4q80k" data-class="staff" class="staff"><path d="M5516 546 L9096 546" stroke-width="13"/><path d="M5516 726 L9096 726" stroke-width="13"/><path d="M5516 906 L9096 906" stroke-width="13"/><path d="M5516 1086 L9096 1086" stroke-width="13"/><path d="M5516 1266 L9096 1266" stroke-width="13"/><g data-class="ledgerLines" class="ledgerLines above"><g data-class="lineDash" class="lineDash" data-related="#m6wm11n"><path d="M8037 366 L8359 366" stroke-width="22"/></g><g data-class="lineDash" class="lineDash" data-related="#n1h9iese"><path d="M8536 366 L8858 366" stroke-width="22"/></g><g data-class="lineDash" class="lineDash" data-related="#m6wm11n"><path d="M8037 186 L8359 186" stroke-width="22"/></g></g><g data-id="ghtv9jt" data-class="layer" class="layer"><g data-id="zbq3h8x" data-class="beam" class="beam"><polygon stroke-opacity="1" fill-opacity="1" points="5716,1266 7254,1446 7254,1356 5716,1176"/><polygon stroke-opacity="1" fill-opacity="1" points="6368,1207 6719,1248 6719,1158 6368,1117"/><polygon stroke-opacity="1" fill-opacity="1" points="6719,1248 7254,1311 7254,1221 6719,1158"/><g data-id="hvkz1na" data-class="note" class="note"><g data-class="notehead" class="notehead"><use href="#E0A4-q1ju2pke" transform="translate(5716, 546) scale(0.72, 0.72)"/></g><g data-id="ibsvyvo" data-class="dots" class="dots"><ellipse cx="6032" cy="456" rx="36" ry="36" fill-opacity="1" stroke-opacity="1"/></g><g data-id="h4n7smv" data-class="stem" class="stem"><path d="M5725 574 L5725 1248" stroke-width="18"/></g><g data-id="h1gfrdyc" data-class="accid" class="accid"/></g><g data-id="iidqalu" data-class="note" class="note"><g data-class="notehead" class="notehead"><use href="#E0A4-q1ju2pke" transform="translate(6359, 636) scale(0.72, 0.72)"/></g><g data-id="j1fmkkte" data-class="stem" class="stem"><path d="M6368 664 L6368 1324" stroke-width="18"/></g></g><g data-id="ji2rf8o" data-class="note" class="note"><g data-class="notehead" class="notehead"><use href="#E0A4-q1ju2pke" transform="translate(6710, 726) scale(0.72, 0.72)"/></g><g data-id="k1i7umiz" data-class="stem" class="stem"><path d="M6719 754 L6719 1365" stroke-width="18"/></g></g><g data-id="kqrvv8u" data-class="note" class="note"><g data-class="notehead" class="notehead"><use href="#E0A4-q1ju2pke" transform="translate(7236, 816) scale(0.72, 0.72)"/></g><g data-id="l3rhaqb" data-class="stem" class="stem"><path d="M7245 844 L7245 1428" stroke-width="18"/></g><g data-id="x1fvgsi6" data-class="accid" class="accid"><use href="#E261-q1ju2pke" transform="translate(7078, 816) scale(0.72, 0.72)"/></g></g></g><g data-id="a1qjjmfb" data-class="beam" class="beam"><polygon stroke-opacity="1" fill-opacity="1" points="7586,1356 8602,1176 8602,1086 7586,1266"/><g data-id="ljbw91g" data-class="note" class="note"><g data-class="notehead" class="notehead"><use href="#E0A4-q1ju2pke" transform="translate(7586, 726) scale(0.72, 0.72)"/></g><g data-id="mz5g5l3" data-class="stem" class="stem"><path d="M7595 754 L7595 1338" stroke-width="18"/></g></g><g data-id="m6wm11n" data-class="note" class="note"><g data-class="notehead" class="notehead"><use href="#E0A4-q1ju2pke" transform="translate(8085, 96) scale(0.72, 0.72)"/></g><g data-id="ntq1qwl" data-class="stem" class="stem"><path d="M8094 124 L8094 1248" stroke-width="18"/></g></g><g data-id="n1h9iese" data-class="note" class="note"><g data-class="notehead" class="notehead"><use href="#E0A4-q1ju2pke" transform="translate(8584, 366) scale(0.72, 0.72)"/></g><g data-id="o1xblelx" data-class="stem" class="stem"><path d="M8593 394 L8593 1158" stroke-width="18"/></g></g></g></g></g><g data-id="i1jqd3rl" data-class="barLine" class="barLine"><path d="M9083 546 L9083 1266" stroke-width="27"/></g></g><g data-id="j1f0ne4l" data-class="measure" class="measure"><g data-id="hywuife" data-class="staff" class="staff"><path d="M9096 546 L12304 546" stroke-width="13"/><path d="M9096 726 L12304 726" stroke-width="13"/><path d="M9096 906 L12304 906" stroke-width="13"/><path d="M9096 1086 L12304 1086" stroke-width="13"/><path d="M9096 1266 L12304 1266" stroke-width="13"/><g data-class="ledgerLines" class="ledgerLines above"><g data-class="lineDash" class="lineDash" data-related="#osayet0"><path d="M9248 366 L9570 366" stroke-width="22"/></g><g data-class="lineDash" class="lineDash" data-related="#pdkpnoz"><path d="M9747 366 L10069 366" stroke-width="22"/></g><g data-class="lineDash" class="lineDash" data-related="#r1rwrfd5"><path d="M10745 366 L11067 366" stroke-width="22"/></g><g data-class="lineDash" class="lineDash" data-related="#s1vtcqq"><path d="M11245 366 L11567 366" stroke-width="22"/></g><g data-class="lineDash" class="lineDash" data-related="#pdkpnoz"><path d="M9747 186 L10069 186" stroke-width="22"/></g></g><g data-id="i1jdym1t" data-class="layer" class="layer"><g data-id="bklafsr" data-class="beam" class="beam"><polygon stroke-opacity="1" fill-opacity="1" points="9296,906 10312,1086 10312,996 9296,816"/><g data-id="osayet0" data-class="note" class="note"><g data-class="notehead" class="notehead"><use href="#E0A4-q1ju2pke" transform="translate(9296, 276) scale(0.72, 0.72)"/></g><g data-id="p1h4za8w" data-class="stem" class="stem"><path d="M9305 304 L9305 888" stroke-width="18"/></g><g data-id="idllkk5" data-class="accid" class="accid"/></g><g data-id="pdkpnoz" data-class="note" class="note"><g data-class="notehead" class="notehead"><use href="#E0A4-q1ju2pke" transform="translate(9795, 96) scale(0.72, 0.72)"/></g><g data-id="q4i0wf0" data-class="stem" class="stem"><path d="M9804 124 L9804 978" stroke-width="18"/></g></g><g data-id="qu0qnmy" data-class="note" class="note"><g data-class="notehead" class="notehead"><use href="#E0A4-q1ju2pke" transform="translate(10294, 456) scale(0.72, 0.72)"/></g><g data-id="rrapo7h" data-class="stem" class="stem"><path d="M10303 484 L10303 1068" stroke-width="18"/></g><g data-id="j1iyfuxr" data-class="accid" class="accid"/></g></g><g data-id="cn6dkuq" data-class="beam" class="beam"><polygon stroke-opacity="1" fill-opacity="1" points="10793,951 11810,1131 11810,1041 10793,861"/><g data-id="r1rwrfd5" data-class="note" class="note"><g data-class="notehead" class="notehead"><use href="#E0A4-q1ju2pke" transform="translate(10793, 366) scale(0.72, 0.72)"/></g><g data-id="si66vnh" data-class="stem" class="stem"><path d="M10802 394 L10802 933" stroke-width="18"/></g></g><g data-id="s1vtcqq" data-class="note" class="note"><g data-class="notehead" class="notehead"><use href="#E0A4-q1ju2pke" transform="translate(11293, 276) scale(0.72, 0.72)"/></g><g data-id="t1xpxeia" data-class="stem" class="stem"><path d="M11302 304 L11302 1023" stroke-width="18"/></g><g data-id="k6rfagn" data-class="accid" class="accid"/></g><g data-id="t7bpphi" data-class="note" class="note"><g data-class="notehead" class="notehead"><use href="#E0A4-q1ju2pke" transform="translate(11792, 546) scale(0.72, 0.72)"/></g><g data-id="u1hgk49u" data-class="stem" class="stem"><path d="M11801 574 L11801 1113" stroke-width="18"/></g><g data-id="l1rahbla" data-class="accid" class="accid"/></g></g></g></g><g data-id="r2h0efy" data-class="barLine" class="barLine"><path d="M12291 546 L12291 1266" stroke-width="27"/></g></g><g data-id="s1eept2m" data-class="measure" class="measure"><g data-id="jvzqp8" data-class="staff" class="staff"><path d="M12304 546 L14001 546" stroke-width="13"/><path d="M12304 726 L14001 726" stroke-width="13"/><path d="M12304 906 L14001 906" stroke-width="13"/><path d="M12304 1086 L14001 1086" stroke-width="13"/><path d="M12304 1266 L14001 1266" stroke-width="13"/><g data-class="ledgerLines" class="ledgerLines above"><g data-class="lineDash" class="lineDash" data-related="#v1x43m0l"><path d="M12955 366 L13277 366" stroke-width="22"/></g></g><g data-id="k1399b0c" data-class="layer" class="layer"><g data-id="d80cf7a" data-class="beam" class="beam"><polygon stroke-opacity="1" fill-opacity="1" points="12504,1086 13520,1266 13520,1176 12504,996"/><g data-id="u1v3qcan" data-class="note" class="note"><g data-class="notehead" class="notehead"><use href="#E0A4-q1ju2pke" transform="translate(12504, 456) scale(0.72, 0.72)"/></g><g data-id="v1prbppv" data-class="stem" class="stem"><path d="M12513 484 L12513 1068" stroke-width="18"/></g><g data-id="m1uog6nf" data-class="accid" class="accid"/></g><g data-id="v1x43m0l" data-class="note" class="note"><g data-class="notehead" class="notehead"><use href="#E0A4-q1ju2pke" transform="translate(13003, 366) scale(0.72, 0.72)"/></g><g data-id="w9xeczq" data-class="stem" class="stem"><path d="M13012 394 L13012 1158" stroke-width="18"/></g></g><g data-id="w5ssndu" data-class="note" class="note"><g data-class="notehead" class="notehead"><use href="#E0A4-q1ju2pke" transform="translate(13502, 636) scale(0.72, 0.72)"/></g><g data-id="xmjc16t" data-class="stem" class="stem"><path d="M13511 664 L13511 1248" stroke-width="18"/></g></g></g></g></g><g data-id="a7im6dd" data-class="barLine" class="barLine"/></g><g data-id="s1od7vzy" data-class="systemMilestoneEnd" class="systemMilestoneEnd rb5g1pn"/></g><g data-id="t1ajiyao" data-class="pageMilestoneEnd" class="pageMilestoneEnd pgjtxb7"/><g data-id="udbiq38" data-class="pageMilestoneEnd" class="pageMilestoneEnd o11w976"/></g></svg></svg>