<svg viewBox="0 0 560 84" version="1.1" xmlns="http://www.w3.org/2000/svg" xmlns:xlink="http://www.w3.org/1999/xlink" overflow="visible" id="s1qq3oi9"><desc>Engraved by Verovio 5.6.0-85e7620</desc><defs><g id="E050-s1qq3oi9"><path transform="scale(1,-1)" d="M441 -245c-23 -4 -48 -6 -76 -6c-59 0 -102 7 -130 20c-88 42 -150 93 -187 154c-26 44 -43 103 -48 176c0 6 -1 13 -1 19c0 54 15 111 45 170c29 57 65 106 110 148s96 85 153 127c-3 16 -8 46 -13 92c-4 43 -5 73 -5 89c0 117 16 172 69 257c34 54 64 82 89 82 c21 0 43 -30 69 -92s39 -115 41 -159v-15c0 -109 -21 -162 -67 -241c-13 -20 -63 -90 -98 -118c-13 -9 -25 -19 -37 -29l31 -181c8 1 18 2 28 2c58 0 102 -12 133 -35c59 -43 92 -104 98 -184c1 -7 1 -15 1 -22c0 -123 -87 -209 -181 -248c8 -57 17 -110 25 -162 c5 -31 6 -58 6 -80c0 -30 -5 -53 -14 -70c-35 -64 -88 -99 -158 -103c-5 0 -11 -1 -16 -1c-37 0 -72 10 -108 27c-50 24 -77 59 -80 105v11c0 29 7 55 20 76c18 28 45 42 79 44h6c49 0 93 -42 97 -87v-9c0 -51 -34 -86 -105 -106c17 -24 51 -36 102 -36c62 0 116 43 140 85 c9 16 13 41 13 74c0 20 -1 42 -5 67c-8 53 -18 106 -26 159zM461 939c-95 0 -135 -175 -135 -286c0 -24 2 -48 5 -71c50 39 92 82 127 128c40 53 60 100 60 140v8c-4 53 -22 81 -55 81h-2zM406 119l54 -326c73 25 110 78 110 161c0 7 0 15 -1 23c-7 95 -57 142 -151 142h-12 zM382 117c-72 -2 -128 -47 -128 -120v-7c2 -46 43 -99 75 -115c-3 -2 -7 -5 -10 -10c-70 33 -116 88 -123 172v11c0 68 44 126 88 159c23 17 49 29 78 36l-29 170c-21 -13 -52 -37 -92 -73c-50 -44 -86 -84 -109 -119c-45 -69 -67 -130 -67 -182v-13c5 -68 35 -127 93 -176 s125 -73 203 -73c25 0 50 3 75 9c-19 111 -36 221 -54 331z"/></g><g id="E260-s1qq3oi9"><path transform="scale(1,-1)" d="M20 110c32 16 54 27 93 27c26 0 35 -3 54 -13c13 -7 24 -20 27 -38l4 -25c0 -28 -16 -57 -45 -89c-23 -25 -39 -44 -65 -68l-88 -79v644h20v-359zM90 106c-32 0 -48 -10 -70 -29v-194c31 31 54 59 71 84c21 32 32 59 32 84c0 9 1 16 1 20c0 14 -3 21 -11 30l-8 3z"/></g><g id="E08B-s1qq3oi9"><path transform="scale(1,-1)" d="M188 200c-42 -22 -63 -69 -63 -141v-119c0 -39 7 -70 19 -94s26 -40 44 -48v402zM0 -0c0 127 80 220 186 246v72h32l-6 -72c33 0 71 0 101 -11c54 -20 102 -65 102 -135c0 -16 -4 -30 -13 -43s-20 -24 -32 -29l-20 -8l-23 -3c-22 2 -41 8 -55 21s-21 31 -26 51 c0 38 45 80 79 80c12 0 19 3 19 10c0 6 -6 12 -15 18c-19 13 -47 24 -79 24c-10 0 -20 -1 -32 -5v-431c15 -3 12 -4 30 -4c57 0 100 51 121 93l17 39c3 13 5 25 5 35h26c-6 -70 -28 -121 -66 -152s-82 -47 -133 -47v-68h-30v72c-57 10 -122 54 -153 109c-7 12 -13 26 -19 42 c-11 29 -16 61 -16 96z"/></g><g id="E4E2-s1qq3oi9"><path transform="scale(1,-1)" d="M0 10v230c0 8 2 10 10 10h105c8 0 10 -2 10 -10v-230c0 -8 -2 -10 -10 -10h-105c-8 0 -10 2 -10 10z"/></g><g id="E4E3-s1qq3oi9"><path transform="scale(1,-1)" d="M0 -115v105c0 9 1 10 10 10h280c9 0 10 -1 10 -10v-105c0 -9 -1 -10 -10 -10h-280c-9 0 -10 1 -10 10z"/></g><g id="E083-s1qq3oi9"><path transform="scale(1,-1)" d="M208 250c97 0 177 -52 177 -116c0 -69 -40 -111 -118 -125c56 -5 125 -44 125 -116c0 -31 -10 -57 -31 -78c-19 -21 -45 -38 -78 -49l-50 -11c-15 -3 -36 -7 -55 -7c-50 0 -86 16 -113 38c-16 10 -23 18 -34 34c-7 13 -11 25 -11 38c0 43 27 83 68 83l3 -2 c61 0 75 -42 75 -70c0 -19 -24 -42 -26 -57c7 -17 20 -25 37 -25c44 0 94 29 94 78c0 75 -34 125 -138 125v36c84 0 131 22 131 98c0 54 -37 88 -87 88c-26 0 -43 -7 -51 -22c15 -22 44 -16 44 -70c0 -37 -37 -62 -71 -62c-22 0 -69 15 -69 76c0 79 101 116 178 116z"/></g><g id="E4C0-s1qq3oi9"><path transform="scale(1,-1)" d="M0 0c0 0 40 320 300 320s300 -320 300 -320h-32s-38 227 -268 227s-268 -227 -268 -227h-32zM355 52c0 -30 -25 -55 -55 -55s-55 25 -55 55s25 55 55 55s55 -25 55 -55z"/></g><g id="E4E5-s1qq3oi9"><path transform="scale(1,-1)" d="M107 292c-13 24 -30 49 -52 71c-1 1 0 2 0 3l-2 2c3 3 4 4 6 4c12 0 26 -7 40 -20s44 -40 89 -81c26 -24 28 -29 46 -47c4 -4 8 -9 10 -14c6 -8 8 -16 8 -27c0 -19 -12 -40 -36 -61c-28 -23 -49 -38 -61 -73c-4 -11 -7 -27 -10 -50c13 -43 34 -83 59 -121 c31 -47 59 -79 101 -129c-8 0 -26 7 -54 20l-62 29l-21 6l-23 1c-25 0 -45 -10 -60 -30l-4 -14l-1 -12c0 -33 20 -56 39 -78c8 -9 17 -18 26 -26c17 -15 27 -24 28 -30l-3 -3c-11 5 -19 10 -25 15c-9 3 -37 21 -45 26c-24 14 -45 32 -63 51c-19 21 -37 44 -37 71 c0 63 27 95 80 95c41 0 86 -18 136 -52c-19 26 -37 48 -55 66c-23 23 -48 44 -73 65c-28 23 -47 40 -58 53s-17 26 -18 39c75 64 113 125 113 183c0 27 -7 48 -18 68z"/></g><g id="E4E6-s1qq3oi9"><path transform="scale(1,-1)" d="M0 123c7 34 33 56 69 60c29 -3 43 -9 53 -29c4 -8 7 -15 10 -22c0 -21 -1 -25 -11 -35c-5 -8 -18 -14 -40 -20l12 -3l15 -1c44 0 97 26 122 56c10 11 18 26 24 42c7 1 15 2 22 3l-140 -424h-36l111 330c-10 -6 -27 -12 -53 -16l-52 -8h-10l-20 1c-1 0 -8 3 -21 6 c-37 9 -55 28 -55 60z"/></g><g id="E0A4-s1qq3oi9"><path transform="scale(1,-1)" d="M0 -39c0 68 73 172 200 172c66 0 114 -37 114 -95c0 -84 -106 -171 -218 -171c-64 0 -96 30 -96 94z"/></g><g id="E240-s1qq3oi9"><path transform="scale(1,-1)" d="M179 -646c15 29 29 55 46 102c18 49 30 108 30 138c0 105 -80 173 -168 200c-18 5 -47 9 -87 16v190h22c8 0 33 -61 71 -95c4 -3 -2 3 61 -56c62 -58 122 -137 122 -241c0 -38 -13 -106 -35 -163c-20 -51 -43 -99 -66 -132c-6 -5 -10 -7 -13 -7s-5 2 -5 5l4 10 c1 3 14 25 18 33z"/></g><g id="E262-s1qq3oi9"><path transform="scale(1,-1)" d="M136 186v169h17v-164l44 14v-91l-44 -14v-165l44 12v-91l-44 -13v-155h-17v150l-76 -22v-155h-17v149l-43 -13v90l43 14v167l-43 -14v92l43 13v169h17v-163zM60 73v-167l76 22v168z"/></g><g id="E261-s1qq3oi9"><path transform="scale(1,-1)" d="M0 -188v539h18v-191l139 22v-533h-17v186zM18 -100l122 17v176l-122 -19v-174z"/></g><g id="E241-s1qq3oi9"><path transform="scale(1,-1)" d="M179 646c-4 8 -17 30 -18 33l-4 10c0 3 2 5 5 5s7 -2 13 -7c23 -33 46 -81 66 -132c22 -57 35 -125 35 -163c0 -104 -60 -183 -122 -241c-63 -59 -57 -53 -61 -56c-38 -34 -63 -95 -71 -95h-22v190c40 7 69 11 87 16c88 27 168 95 168 200c0 30 -12 89 -30 138 c-17 47 -31 73 -46 102z"/></g></defs><style type="text/css">#s1qq3oi9 g.page-margin {font-family:Times,serif;}#s1qq3oi9 g.ending, #s1qq3oi9 g.fing, #s1qq3oi9 g.reh, #s1qq3oi9 g.tempo {font-weight:bold;}#s1qq3oi9 g.dir, #s1qq3oi9 g.dynam, #s1qq3oi9 g.mNum {font-style:italic;}#s1qq3oi9 g.label {font-weight:normal;}#s1qq3oi9 path {stroke:currentColor}</style><svg class="definition-scale" color="black" viewBox="0 0 14000 2100"><g class="page-margin" transform="translate(0, 150)"><g data-id="p1bi1m36" data-class="mdiv" class="mdiv pageMilestone"/><g data-id="q1j5c3u6" data-class="score" class="score pageMilestone"/><g data-id="vugkaty" data-class="system" class="system"><g data-id="s1qeetfh" data-class="section" class="section systemMilestone"/><g data-id="t1bu82l6" data-class="measure" class="measure"><g data-id="e1fcmdwj" data-class="staff" class="staff"><path d="M0 540 L3710 540" stroke-width="13"/><path d="M0 720 L3710 720" stroke-width="13"/><path d="M0 900 L3710 900" stroke-width="13"/><path d="M0 1080 L3710 1080" stroke-width="13"/><path d="M0 1260 L3710 1260" stroke-width="13"/><g data-id="zh66tf6" data-class="clef" class="clef"><use href="#E050-s1qq3oi9" transform="translate(90, 1080) scale(0.72, 0.72)"/></g><g data-id="albvk6m" data-class="keySig" class="keySig"><g data-id="b1b0ul4l" data-class="keyAccid" class="keyAccid"><use href="#E260-s1qq3oi9" transform="translate(735, 900) scale(0.72, 0.72)"/></g><g data-id="c1mx4d8p" data-class="keyAccid" class="keyAccid"><use href="#E260-s1qq3oi9" transform="translate(915, 630) scale(0.72, 0.72)"/></g><g data-id="djrztz8" data-class="keyAccid" class="keyAccid"><use href="#E260-s1qq3oi9" transform="translate(1095, 990) scale(0.72, 0.72)"/></g></g><g data-id="e1xe5ivg" data-class="meterSig" class="meterSig"><use href="#E08B-s1qq3oi9" transform="translate(1417, 900) scale(0.72, 0.72)"/></g><g data-id="f1b8fpc" data-class="layer" class="layer"><g data-id="eh3h8if" data-class="multiRest" class="multiRest"><use href="#E4E2-s1qq3oi9" transform="translate(2547, 900) scale(0.72, 0.72)"/><use href="#E4E3-s1qq3oi9" transform="translate(2727, 720) scale(0.72, 0.72)"/><use href="#E083-s1qq3oi9" transform="translate(2597, 270) scale(0.72, 0.72)"/></g></g></g><g data-id="b1mkzlj6" data-class="barLine" class="barLine"><path d="M3697 540 L3697 1260" stroke-width="27"/></g></g><g data-id="c4qa7gt" data-class="measure" class="measure"><g data-id="g1uy58w4" data-class="staff" class="staff"><path d="M3710 540 L5808 540" stroke-width="13"/><path d="M3710 720 L5808 720" stroke-width="13"/><path d="M3710 900 L5808 900" stroke-width="13"/><path d="M3710 1080 L5808 1080" stroke-width="13"/><path d="M3710 1260 L5808 1260" stroke-width="13"/><g data-id="h1gsyx56" data-class="layer" class="layer"><g data-id="f1bmrif7" data-class="rest" class="rest"><use href="#E4E3-s1qq3oi9" transform="translate(3902, 720) scale(0.72, 0.72)"/><g data-class="ledgerLines" class="ledgerLines"/></g></g></g><g data-id="deumfk5" data-class="fermata" class="fermata"><use href="#E4C0-s1qq3oi9" transform="translate(3799, 493) scale(0.72, 0.72)"/></g><g data-id="kxou8sf" data-class="barLine" class="barLine"><path d="M5696 540 L5696 1260" stroke-width="27"/><path d="M5795 540 L5795 1260" stroke-width="27"/></g></g><g data-id="l1y9qxz3" data-class="measure" class="measure"><g data-id="i1h02duf" data-class="staff" class="staff"><path d="M5808 540 L10024 540" stroke-width="13"/><path d="M5808 720 L10024 720" stroke-width="13"/><path d="M5808 900 L10024 900" stroke-width="13"/><path d="M5808 1080 L10024 1080" stroke-width="13"/><path d="M5808 1260 L10024 1260" stroke-width="13"/><g data-id="jn547sz" data-class="layer" class="layer"><g data-id="gptb75j" data-class="rest" class="rest"><use href="#E4E5-s1qq3oi9" transform="translate(6000, 900) scale(0.72, 0.72)"/></g><g data-id="hcndb0x" data-class="rest" class="rest"><use href="#E4E6-s1qq3oi9" transform="translate(6778, 900) scale(0.72, 0.72)"/></g><g data-id="lo9obmk" data-class="note" class="note"><g data-class="notehead" class="notehead"><use href="#E0A4-s1qq3oi9" transform="translate(7285, 1080) scale(0.72, 0.72)"/></g><g data-id="fhvj4kh" data-class="stem" class="stem"><path d="M7502 1052 L7502 450" stroke-width="18"/><g data-id="ge7lbas" data-class="flag" class="flag"><use href="#E240-s1qq3oi9" transform="translate(7493, 450) scale(0.72, 0.72)"/></g></g></g><g data-id="hbj3i51" data-class="beam" class="beam"><polygon stroke-opacity="1" fill-opacity="1" points="8189,360 9729,360 9729,450 8189,450"/><g data-id="m7quy3a" data-class="note" class="note"><g data-class="notehead" class="notehead"><use href="#E0A4-s1qq3oi9" transform="translate(7981, 1170) scale(0.72, 0.72)"/></g><g data-id="h6q862b" data-class="stem" class="stem"><path d="M8198 1142 L8198 378" stroke-width="18"/></g><g data-id="e1q1oj15" data-class="accid" class="accid"><use href="#E262-s1qq3oi9" transform="translate(7795, 1170) scale(0.72, 0.72)"/></g></g><g data-id="n13fjd2s" data-class="note" class="note"><g data-class="notehead" class="notehead"><use href="#E0A4-s1qq3oi9" transform="translate(8488, 1080) scale(0.72, 0.72)"/></g><g data-id="i1vbe4rc" data-class="stem" class="stem"><path d="M8705 1052 L8705 378" stroke-width="18"/></g></g><g data-id="o6lx194" data-class="note" class="note"><g data-class="notehead" class="notehead"><use href="#E0A4-s1qq3oi9" transform="translate(8996, 990) scale(0.72, 0.72)"/></g><g data-id="j1ryxhog" data-class="stem" class="stem"><path d="M9213 962 L9213 378" stroke-width="18"/></g><g data-id="j4ewo6i" data-class="accid" class="accid"/></g><g data-id="p2cz025" data-class="note" class="note"><g data-class="notehead" class="notehead"><use href="#E0A4-s1qq3oi9" transform="translate(9503, 1080) scale(0.72, 0.72)"/></g><g data-id="k1j1i3kq" data-class="stem" class="stem"><path d="M9720 1052 L9720 378" stroke-width="18"/></g></g></g></g></g><g data-id="t1i9zzfg" data-class="barLine" class="barLine"><path d="M10011 540 L10011 1260" stroke-width="27"/></g></g><g data-id="ub1j0uh" data-class="measure" class="measure"><g data-id="k17leo25" data-class="staff" class="staff"><path d="M10024 540 L14003 540" stroke-width="13"/><path d="M10024 720 L14003 720" stroke-width="13"/><path d="M10024 900 L14003 900" stroke-width="13"/><path d="M10024 1080 L14003 1080" stroke-width="13"/><path d="M10024 1260 L14003 1260" stroke-width="13"/><g data-id="l831hul" data-class="layer" class="layer"><g data-id="q1w6aa0y" data-class="note" class="note"><g data-class="notehead" class="notehead"><use href="#E0A4-s1qq3oi9" transform="translate(10216, 990) scale(0.72, 0.72)"/></g><g data-id="l17uny3h" data-class="stem" class="stem"><path d="M10433 962 L10433 360" stroke-width="18"/></g><g data-id="k1144lc6" data-class="accid" class="accid"/></g><g data-id="iozbv1v" data-class="rest" class="rest"><use href="#E4E6-s1qq3oi9" transform="translate(10994, 900) scale(0.72, 0.72)"/></g><g data-id="r8u8eky" data-class="note" class="note"><g data-class="notehead" class="notehead"><use href="#E0A4-s1qq3oi9" transform="translate(11501, 990) scale(0.72, 0.72)"/></g><g data-id="mmt6enp" data-class="stem" class="stem"><path d="M11718 962 L11718 360" stroke-width="18"/><g data-id="n1bp120k" data-class="flag" class="flag"><use href="#E240-s1qq3oi9" transform="translate(11709, 360) scale(0.72, 0.72)"/></g></g><g data-id="ltmrcev" data-class="accid" class="accid"/></g><g data-id="sah94be" data-class="note" class="note"><g data-class="notehead" class="notehead"><use href="#E0A4-s1qq3oi9" transform="translate(12197, 900) scale(0.72, 0.72)"/></g><g data-id="oqpuhfp" data-class="stem" class="stem"><path d="M12206 928 L12206 1500" stroke-width="18"/></g><g data-id="fui47rp" data-class="accid" class="accid"><use href="#E261-s1qq3oi9" transform="translate(12039, 900) scale(0.72, 0.72)"/></g></g><g data-id="j1nctsbs" data-class="rest" class="rest"><use href="#E4E6-s1qq3oi9" transform="translate(12975, 900) scale(0.72, 0.72)"/></g><g data-id="t1iumexn" data-class="note" class="note"><g data-class="notehead" class="notehead"><use href="#E0A4-s1qq3oi9" transform="translate(13482, 900) scale(0.72, 0.72)"/></g><g data-id="p1qtsog7" data-class="stem" class="stem"><path d="M13491 928 L13491 1500" stroke-width="18"/><g data-id="q4jc25x" data-class="flag" class="flag"><use href="#E241-s1qq3oi9" transform="translate(13482, 1500) scale(0.72, 0.72)"/></g></g><g data-id="mz7nmoi" data-class="accid" class="accid"/></g></g></g><g data-id="c190j3y8" data-class="barLine" class="barLine"><path d="M13990 540 L13990 1260" stroke-width="27"/></g></g></g></g></svg></svg>