<svg viewBox="0 0 560 84" version="1.1" xmlns="http://www.w3.org/2000/svg" xmlns:xlink="http://www.w3.org/1999/xlink" overflow="visible" id="nkdv4oi"><desc>Engraved by Verovio 5.6.0-85e7620</desc><defs><g id="E050-nkdv4oi"><path transform="scale(1,-1)" d="M441 -245c-23 -4 -48 -6 -76 -6c-59 0 -102 7 -130 20c-88 42 -150 93 -187 154c-26 44 -43 103 -48 176c0 6 -1 13 -1 19c0 54 15 111 45 170c29 57 65 106 110 148s96 85 153 127c-3 16 -8 46 -13 92c-4 43 -5 73 -5 89c0 117 16 172 69 257c34 54 64 82 89 82 c21 0 43 -30 69 -92s39 -115 41 -159v-15c0 -109 -21 -162 -67 -241c-13 -20 -63 -90 -98 -118c-13 -9 -25 -19 -37 -29l31 -181c8 1 18 2 28 2c58 0 102 -12 133 -35c59 -43 92 -104 98 -184c1 -7 1 -15 1 -22c0 -123 -87 -209 -181 -248c8 -57 17 -110 25 -162 c5 -31 6 -58 6 -80c0 -30 -5 -53 -14 -70c-35 -64 -88 -99 -158 -103c-5 0 -11 -1 -16 -1c-37 0 -72 10 -108 27c-50 24 -77 59 -80 105v11c0 29 7 55 20 76c18 28 45 42 79 44h6c49 0 93 -42 97 -87v-9c0 -51 -34 -86 -105 -106c17 -24 51 -36 102 -36c62 0 116 43 140 85 c9 16 13 41 13 74c0 20 -1 42 -5 67c-8 53 -18 106 -26 159zM461 939c-95 0 -135 -175 -135 -286c0 -24 2 -48 5 -71c50 39 92 82 127 128c40 53 60 100 60 140v8c-4 53 -22 81 -55 81h-2zM406 119l54 -326c73 25 110 78 110 161c0 7 0 15 -1 23c-7 95 -57 142 -151 142h-12 zM382 117c-72 -2 -128 -47 -128 -120v-7c2 -46 43 -99 75 -115c-3 -2 -7 -5 -10 -10c-70 33 -116 88 -123 172v11c0 68 44 126 88 159c23 17 49 29 78 36l-29 170c-21 -13 -52 -37 -92 -73c-50 -44 -86 -84 -109 -119c-45 -69 -67 -130 -67 -182v-13c5 -68 35 -127 93 -176 s125 -73 203 -73c25 0 50 3 75 9c-19 111 -36 221 -54 331z"/></g><g id="E262-nkdv4oi"><path transform="scale(1,-1)" d="M136 186v169h17v-164l44 14v-91l-44 -14v-165l44 12v-91l-44 -13v-155h-17v150l-76 -22v-155h-17v149l-43 -13v90l43 14v167l-43 -14v92l43 13v169h17v-163zM60 73v-167l76 22v168z"/></g><g id="E08A-nkdv4oi"><path transform="scale(1,-1)" d="M340 179c-9 24 -56 41 -89 41c-46 0 -81 -28 -100 -58c-17 -28 -25 -78 -25 -150c0 -65 2 -111 8 -135c8 -31 18 -49 40 -67c20 -17 43 -25 70 -25c54 0 92 36 115 75c14 25 23 54 28 88h27c0 -63 -24 -105 -58 -141c-35 -38 -82 -56 -140 -56c-45 0 -83 13 -115 39 c-57 45 -101 130 -101 226c0 59 33 127 68 163c36 37 97 72 160 72c36 0 93 -21 121 -40c11 -8 23 -17 33 -30c19 -23 27 -48 27 -76c0 -51 -35 -88 -86 -88c-43 0 -76 27 -76 68c0 26 7 35 21 51c15 17 32 27 58 32c7 2 14 7 14 11z"/></g><g id="E0A4-nkdv4oi"><path transform="scale(1,-1)" d="M0 -39c0 68 73 172 200 172c66 0 114 -37 114 -95c0 -84 -106 -171 -218 -171c-64 0 -96 30 -96 94z"/></g><g id="E241-nkdv4oi"><path transform="scale(1,-1)" d="M179 646c-4 8 -17 30 -18 33l-4 10c0 3 2 5 5 5s7 -2 13 -7c23 -33 46 -81 66 -132c22 -57 35 -125 35 -163c0 -104 -60 -183 -122 -241c-63 -59 -57 -53 -61 -56c-38 -34 -63 -95 -71 -95h-22v190c40 7 69 11 87 16c88 27 168 95 168 200c0 30 -12 89 -30 138 c-17 47 -31 73 -46 102z"/></g><g id="E0A3-nkdv4oi"><path transform="scale(1,-1)" d="M278 64c0 22 -17 39 -43 39c-12 0 -26 -3 -41 -10c-85 -43 -165 -94 -165 -156c5 -25 15 -32 49 -32c67 11 200 95 200 159zM0 -36c0 68 73 174 200 174c66 0 114 -39 114 -97c0 -84 -106 -173 -218 -173c-64 0 -96 32 -96 96z"/></g></defs><style type="text/css">#nkdv4oi g.page-margin {font-family:Times,serif;}#nkdv4oi g.ending, #nkdv4oi g.fing, #nkdv4oi g.reh, #nkdv4oi g.tempo {font-weight:bold;}#nkdv4oi g.dir, #nkdv4oi g.dynam, #nkdv4oi g.mNum {font-style:italic;}#nkdv4oi g.label {font-weight:normal;}#nkdv4oi path {stroke:currentColor}</style><svg class="definition-scale" color="black" viewBox="0 0 14000 2100"><g class="page-margin" transform="translate(0, 150)"><g data-id="k1xxdjw6" data-class="mdiv" class="mdiv pageMilestone"/><g data-id="l32577s" data-class="score" class="score pageMilestone"/><g data-id="t1tpi6hk" data-class="system" class="system"><g data-id="nuuxok9" data-class="section" class="section systemMilestone"/><g data-id="o1383z4j" data-class="measure" class="measure"><g data-id="z6wlfpd" data-class="staff" class="staff"><path d="M0 540 L2505 540" stroke-width="13"/><path d="M0 720 L2505 720" stroke-width="13"/><path d="M0 900 L2505 900" stroke-width="13"/><path d="M0 1080 L2505 1080" stroke-width="13"/><path d="M0 1260 L2505 1260" stroke-width="13"/><g data-id="z1rotv1k" data-class="clef" class="clef"><use href="#E050-nkdv4oi" transform="translate(90, 1080) scale(0.72, 0.72)"/></g><g data-id="a17fhlby" data-class="keySig" class="keySig"><g data-id="bj5lyx0" data-class="keyAccid" class="keyAccid"><use href="#E262-nkdv4oi" transform="translate(735, 540) scale(0.72, 0.72)"/></g><g data-id="c1bp9kkh" data-class="keyAccid" class="keyAccid"><use href="#E262-nkdv4oi" transform="translate(913, 810) scale(0.72, 0.72)"/></g></g><g data-id="d1bf3yvr" data-class="meterSig" class="meterSig"><use href="#E08A-nkdv4oi" transform="translate(1234, 900) scale(0.72, 0.72)"/></g><g data-id="ayyohsn" data-class="layer" class="layer"><g data-id="y1tdnnvy" data-class="note" class="note"><g data-class="notehead" class="notehead"><use href="#E0A4-nkdv4oi" transform="translate(1802, 720) scale(0.72, 0.72)"/></g><g data-id="t163k4fj" data-class="stem" class="stem"><path d="M1811 748 L1811 1350" stroke-width="18"/></g></g></g></g><g data-id="w1qnc2oh" data-class="barLine" class="barLine"><path d="M2492 540 L2492 1260" stroke-width="27"/></g></g><g data-id="xkjc99m" data-class="measure" class="measure"><g data-id="bn0748h" data-class="staff" class="staff"><path d="M2505 540 L5618 540" stroke-width="13"/><path d="M2505 720 L5618 720" stroke-width="13"/><path d="M2505 900 L5618 900" stroke-width="13"/><path d="M2505 1080 L5618 1080" stroke-width="13"/><path d="M2505 1260 L5618 1260" stroke-width="13"/><g data-id="c1oiokl3" data-class="layer" class="layer"><g data-id="zfrtcoq" data-class="note" class="note"><g data-class="notehead" class="notehead"><use href="#E0A4-nkdv4oi" transform="translate(2685, 540) scale(0.72, 0.72)"/></g><g data-id="v1qbg1ox" data-class="dots" class="dots"><ellipse cx="3001" cy="450" rx="36" ry="36" fill-opacity="1" stroke-opacity="1"/></g><g data-id="uyw5n30" data-class="stem" class="stem"><path d="M2694 568 L2694 1170" stroke-width="18"/></g><g data-id="ihuhlhq" data-class="accid" class="accid"/></g><g data-id="a1ojfr1h" data-class="note" class="note"><g data-class="notehead" class="notehead"><use href="#E0A4-nkdv4oi" transform="translate(3565, 720) scale(0.72, 0.72)"/></g><g data-id="w1mvguhk" data-class="stem" class="stem"><path d="M3574 748 L3574 1350" stroke-width="18"/><g data-id="x1rtvo3c" data-class="flag" class="flag"><use href="#E241-nkdv4oi" transform="translate(3565, 1350) scale(0.72, 0.72)"/></g></g></g><g data-id="b6d3s3w" data-class="note" class="note"><g data-class="notehead" class="notehead"><use href="#E0A4-nkdv4oi" transform="translate(4015, 720) scale(0.72, 0.72)"/></g><g data-id="yswm0jz" data-class="stem" class="stem"><path d="M4024 748 L4024 1350" stroke-width="18"/></g></g><g data-id="c1jr2flu" data-class="note" class="note"><g data-class="notehead" class="notehead"><use href="#E0A4-nkdv4oi" transform="translate(4705, 900) scale(0.72, 0.72)"/></g><g data-id="z7lieuy" data-class="stem" class="stem"><path d="M4714 928 L4714 1500" stroke-width="18"/><g data-id="a1l56az8" data-class="flag" class="flag"><use href="#E241-nkdv4oi" transform="translate(4705, 1500) scale(0.72, 0.72)"/></g></g></g><g data-id="d18fupvj" data-class="note" class="note"><g data-class="notehead" class="notehead"><use href="#E0A4-nkdv4oi" transform="translate(5155, 720) scale(0.72, 0.72)"/></g><g data-id="b9adep3" data-class="stem" class="stem"><path d="M5164 748 L5164 1350" stroke-width="18"/><g data-id="cpapl79" data-class="flag" class="flag"><use href="#E241-nkdv4oi" transform="translate(5155, 1350) scale(0.72, 0.72)"/></g></g></g></g></g><g data-id="f1u0gfv2" data-class="barLine" class="barLine"><path d="M5605 540 L5605 1260" stroke-width="27"/></g></g><g data-id="gi6alm0" data-class="measure" class="measure"><g data-id="d1gkhhvl" data-class="staff" class="staff"><path d="M5618 540 L8241 540" stroke-width="13"/><path d="M5618 720 L8241 720" stroke-width="13"/><path d="M5618 900 L8241 900" stroke-width="13"/><path d="M5618 1080 L8241 1080" stroke-width="13"/><path d="M5618 1260 L8241 1260" stroke-width="13"/><g data-id="e1uxew65" data-class="layer" class="layer"><g data-id="elhd7w1" data-class="note" class="note"><g data-class="notehead" class="notehead"><use href="#E0A3-nkdv4oi" transform="translate(5798, 720) scale(0.72, 0.72)"/></g><g data-id="d1elirxu" data-class="stem" class="stem"><path d="M5807 745 L5807 1350" stroke-width="18"/></g></g><g data-id="f8a8blb" data-class="note" class="note"><g data-class="notehead" class="notehead"><use href="#E0A4-nkdv4oi" transform="translate(6848, 720) scale(0.72, 0.72)"/></g><g data-id="e1a2pnt4" data-class="stem" class="stem"><path d="M6857 748 L6857 1350" stroke-width="18"/></g></g><g data-id="g1jx3tyi" data-class="note" class="note"><g data-class="notehead" class="notehead"><use href="#E0A4-nkdv4oi" transform="translate(7538, 720) scale(0.72, 0.72)"/></g><g data-id="fwq264p" data-class="stem" class="stem"><path d="M7547 748 L7547 1350" stroke-width="18"/></g></g></g></g><g data-id="o1lrbk39" data-class="barLine" class="barLine"><path d="M8228 540 L8228 1260" stroke-width="27"/></g></g><g data-id="pbm3vnh" data-class="measure" class="measure"><g data-id="fng0ijd" data-class="staff" class="staff"><path d="M8241 540 L9111 540" stroke-width="13"/><path d="M8241 720 L9111 720" stroke-width="13"/><path d="M8241 900 L9111 900" stroke-width="13"/><path d="M8241 1080 L9111 1080" stroke-width="13"/><path d="M8241 1260 L9111 1260" stroke-width="13"/><g data-id="grknk8p" data-class="layer" class="layer"><g data-id="h17czab9" data-class="note" class="note"><g data-class="notehead" class="notehead"><use href="#E0A4-nkdv4oi" transform="translate(8421, 720) scale(0.72, 0.72)"/></g><g data-id="glldeey" data-class="stem" class="stem"><path d="M8430 748 L8430 1350" stroke-width="18"/></g></g></g></g><g data-id="xrlrs1q" data-class="barLine" class="barLine"/></g><g data-id="onvl1im" data-class="systemMilestoneEnd" class="systemMilestoneEnd nuuxok9"/></g><g data-id="p1806a74" data-class="pageMilestoneEnd" class="pageMilestoneEnd l32577s"/><g data-id="q1rofko7" data-class="pageMilestoneEnd" class="pageMilestoneEnd k1xxdjw6"/></g></svg></svg>