<svg viewBox="0 0 560 84" version="1.1" xmlns="http://www.w3.org/2000/svg" xmlns:xlink="http://www.w3.org/1999/xlink" overflow="visible" id="rso98p6"><desc>Engraved by Verovio 5.6.0-85e7620</desc><defs><g id="E050-rso98p6"><path transform="scale(1,-1)" d="M441 -245c-23 -4 -48 -6 -76 -6c-59 0 -102 7 -130 20c-88 42 -150 93 -187 154c-26 44 -43 103 -48 176c0 6 -1 13 -1 19c0 54 15 111 45 170c29 57 65 106 110 148s96 85 153 127c-3 16 -8 46 -13 92c-4 43 -5 73 -5 89c0 117 16 172 69 257c34 54 64 82 89 82 c21 0 43 -30 69 -92s39 -115 41 -159v-15c0 -109 -21 -162 -67 -241c-13 -20 -63 -90 -98 -118c-13 -9 -25 -19 -37 -29l31 -181c8 1 18 2 28 2c58 0 102 -12 133 -35c59 -43 92 -104 98 -184c1 -7 1 -15 1 -22c0 -123 -87 -209 -181 -248c8 -57 17 -110 25 -162 c5 -31 6 -58 6 -80c0 -30 -5 -53 -14 -70c-35 -64 -88 -99 -158 -103c-5 0 -11 -1 -16 -1c-37 0 -72 10 -108 27c-50 24 -77 59 -80 105v11c0 29 7 55 20 76c18 28 45 42 79 44h6c49 0 93 -42 97 -87v-9c0 -51 -34 -86 -105 -106c17 -24 51 -36 102 -36c62 0 116 43 140 85 c9 16 13 41 13 74c0 20 -1 42 -5 67c-8 53 -18 106 -26 159zM461 939c-95 0 -135 -175 -135 -286c0 -24 2 -48 5 -71c50 39 92 82 127 128c40 53 60 100 60 140v8c-4 53 -22 81 -55 81h-2zM406 119l54 -326c73 25 110 78 110 161c0 7 0 15 -1 23c-7 95 -57 142 -151 142h-12 zM382 117c-72 -2 -128 -47 -128 -120v-7c2 -46 43 -99 75 -115c-3 -2 -7 -5 -10 -10c-70 33 -116 88 -123 172v11c0 68 44 126 88 159c23 17 49 29 78 36l-29 170c-21 -13 -52 -37 -92 -73c-50 -44 -86 -84 -109 -119c-45 -69 -67 -130 -67 -182v-13c5 -68 35 -127 93 -176 s125 -73 203 -73c25 0 50 3 75 9c-19 111 -36 221 -54 331z"/></g><g id="E260-rso98p6"><path transform="scale(1,-1)" d="M20 110c32 16 54 27 93 27c26 0 35 -3 54 -13c13 -7 24 -20 27 -38l4 -25c0 -28 -16 -57 -45 -89c-23 -25 -39 -44 -65 -68l-88 -79v644h20v-359zM90 106c-32 0 -48 -10 -70 -29v-194c31 31 54 59 71 84c21 32 32 59 32 84c0 9 1 16 1 20c0 14 -3 21 -11 30l-8 3z"/></g><g id="E083-rso98p6"><path transform="scale(1,-1)" d="M208 250c97 0 177 -52 177 -116c0 -69 -40 -111 -118 -125c56 -5 125 -44 125 -116c0 -31 -10 -57 -31 -78c-19 -21 -45 -38 -78 -49l-50 -11c-15 -3 -36 -7 -55 -7c-50 0 -86 16 -113 38c-16 10 -23 18 -34 34c-7 13 -11 25 -11 38c0 43 27 83 68 83l3 -2 c61 0 75 -42 75 -70c0 -19 -24 -42 -26 -57c7 -17 20 -25 37 -25c44 0 94 29 94 78c0 75 -34 125 -138 125v36c84 0 131 22 131 98c0 54 -37 88 -87 88c-26 0 -43 -7 -51 -22c15 -22 44 -16 44 -70c0 -37 -37 -62 -71 -62c-22 0 -69 15 -69 76c0 79 101 116 178 116z"/></g><g id="E084-rso98p6"><path transform="scale(1,-1)" d="M20 -78c84 97 114 180 134 329h170c-13 -32 -82 -132 -99 -151l-84 -97c-33 -36 -59 -63 -80 -81h162v102l127 123v-225h57v-39h-57v-34c0 -43 19 -65 57 -65v-34h-244v36c48 0 60 26 60 70v27h-203v39z"/></g><g id="E4E6-rso98p6"><path transform="scale(1,-1)" d="M0 123c7 34 33 56 69 60c29 -3 43 -9 53 -29c4 -8 7 -15 10 -22c0 -21 -1 -25 -11 -35c-5 -8 -18 -14 -40 -20l12 -3l15 -1c44 0 97 26 122 56c10 11 18 26 24 42c7 1 15 2 22 3l-140 -424h-36l111 330c-10 -6 -27 -12 -53 -16l-52 -8h-10l-20 1c-1 0 -8 3 -21 6 c-37 9 -55 28 -55 60z"/></g><g id="E0A4-rso98p6"><path transform="scale(1,-1)" d="M0 -39c0 68 73 172 200 172c66 0 114 -37 114 -95c0 -84 -106 -171 -218 -171c-64 0 -96 30 -96 94z"/></g><g id="E240-rso98p6"><path transform="scale(1,-1)" d="M179 -646c15 29 29 55 46 102c18 49 30 108 30 138c0 105 -80 173 -168 200c-18 5 -47 9 -87 16v190h22c8 0 33 -61 71 -95c4 -3 -2 3 61 -56c62 -58 122 -137 122 -241c0 -38 -13 -106 -35 -163c-20 -51 -43 -99 -66 -132c-6 -5 -10 -7 -13 -7s-5 2 -5 5l4 10 c1 3 14 25 18 33z"/></g><g id="E0A3-rso98p6"><path transform="scale(1,-1)" d="M278 64c0 22 -17 39 -43 39c-12 0 -26 -3 -41 -10c-85 -43 -165 -94 -165 -156c5 -25 15 -32 49 -32c67 11 200 95 200 159zM0 -36c0 68 73 174 200 174c66 0 114 -39 114 -97c0 -84 -106 -173 -218 -173c-64 0 -96 32 -96 96z"/></g><g id="E241-rso98p6"><path transform="scale(1,-1)" d="M179 646c-4 8 -17 30 -18 33l-4 10c0 3 2 5 5 5s7 -2 13 -7c23 -33 46 -81 66 -132c22 -57 35 -125 35 -163c0 -104 -60 -183 -122 -241c-63 -59 -57 -53 -61 -56c-38 -34 -63 -95 -71 -95h-22v190c40 7 69 11 87 16c88 27 168 95 168 200c0 30 -12 89 -30 138 c-17 47 -31 73 -46 102z"/></g></defs><style type="text/css">#rso98p6 g.page-margin {font-family:Times,serif;}#rso98p6 g.ending, #rso98p6 g.fing, #rso98p6 g.reh, #rso98p6 g.tempo {font-weight:bold;}#rso98p6 g.dir, #rso98p6 g.dynam, #rso98p6 g.mNum {font-style:italic;}#rso98p6 g.label {font-weight:normal;}#rso98p6 path {stroke:currentColor}</style><svg class="definition-scale" color="black" viewBox="0 0 14000 2100"><g class="page-margin" transform="translate(0, 150)"><g data-id="w1qtjipj" data-class="mdiv" class="mdiv pageMilestone"/><g data-id="xcktu90" data-class="score" class="score pageMilestone"/><g data-id="mzs0697" data-class="system" class="system"><g data-id="z15k53we" data-class="section" class="section systemMilestone"/><g data-id="sa49wa5" data-class="measure" class="measure"><g data-id="lxbghhe" data-class="staff" class="staff"><path d="M0 540 L5370 540" stroke-width="13"/><path d="M0 720 L5370 720" stroke-width="13"/><path d="M0 900 L5370 900" stroke-width="13"/><path d="M0 1080 L5370 1080" stroke-width="13"/><path d="M0 1260 L5370 1260" stroke-width="13"/><g data-id="xxw2zpm" data-class="clef" class="clef"><use href="#E050-rso98p6" transform="translate(90, 1080) scale(0.72, 0.72)"/></g><g data-id="ydx9jta" data-class="keySig" class="keySig"><g data-id="z1pcx08s" data-class="keyAccid" class="keyAccid"><use href="#E260-rso98p6" transform="translate(735, 900) scale(0.72, 0.72)"/></g></g><g data-id="azyhnz3" data-class="meterSig" class="meterSig"><use href="#E083-rso98p6" transform="translate(1049, 720) scale(0.72, 0.72)"/><use href="#E084-rso98p6" transform="translate(1043, 1080) scale(0.72, 0.72)"/></g><g data-id="m14dbrm6" data-class="layer" class="layer"><g data-id="el9hc4p" data-class="rest" class="rest"><use href="#E4E6-rso98p6" transform="translate(1623, 900) scale(0.72, 0.72)"/></g><g data-id="j8prnph" data-class="note" class="note"><g data-class="notehead" class="notehead"><use href="#E0A4-rso98p6" transform="translate(2245, 990) scale(0.72, 0.72)"/></g><g data-id="q1pva188" data-class="stem" class="stem"><path d="M2462 962 L2462 360" stroke-width="18"/><g data-id="r1h0wj69" data-class="flag" class="flag"><use href="#E240-rso98p6" transform="translate(2453, 360) scale(0.72, 0.72)"/></g></g></g><g data-id="k9lxwr5" data-class="note" class="note"><g data-class="notehead" class="notehead"><use href="#E0A4-rso98p6" transform="translate(2868, 1080) scale(0.72, 0.72)"/></g><g data-id="s1u8dxiw" data-class="stem" class="stem"><path d="M3085 1052 L3085 450" stroke-width="18"/><g data-id="t18rus1t" data-class="flag" class="flag"><use href="#E240-rso98p6" transform="translate(3076, 450) scale(0.72, 0.72)"/></g></g></g><g data-id="l35otsg" data-class="note" class="note"><g data-class="notehead" class="notehead"><use href="#E0A4-rso98p6" transform="translate(3490, 1170) scale(0.72, 0.72)"/></g><g data-id="u1br7m5p" data-class="stem" class="stem"><path d="M3707 1142 L3707 540" stroke-width="18"/><g data-id="v3a32e2" data-class="flag" class="flag"><use href="#E240-rso98p6" transform="translate(3698, 540) scale(0.72, 0.72)"/></g></g></g><g data-id="m10mf963" data-class="note" class="note"><g data-class="notehead" class="notehead"><use href="#E0A4-rso98p6" transform="translate(4112, 1260) scale(0.72, 0.72)"/></g><g data-id="w1vrq581" data-class="stem" class="stem"><path d="M4329 1232 L4329 630" stroke-width="18"/><g data-id="xwpnii3" data-class="flag" class="flag"><use href="#E240-rso98p6" transform="translate(4320, 630) scale(0.72, 0.72)"/></g></g></g><g data-id="nll7zgh" data-class="note" class="note"><g data-class="notehead" class="notehead"><use href="#E0A4-rso98p6" transform="translate(4735, 1350) scale(0.72, 0.72)"/></g><g data-id="y1mklri0" data-class="stem" class="stem"><path d="M4952 1322 L4952 720" stroke-width="18"/><g data-id="zmmaw16" data-class="flag" class="flag"><use href="#E240-rso98p6" transform="translate(4943, 720) scale(0.72, 0.72)"/></g></g></g></g></g><g data-id="ag0snvb" data-class="barLine" class="barLine"><path d="M5357 540 L5357 1260" stroke-width="27"/></g></g><g data-id="b1vp8w8g" data-class="measure" class="measure"><g data-id="na7x20m" data-class="staff" class="staff"><path d="M5370 540 L7990 540" stroke-width="13"/><path d="M5370 720 L7990 720" stroke-width="13"/><path d="M5370 900 L7990 900" stroke-width="13"/><path d="M5370 1080 L7990 1080" stroke-width="13"/><path d="M5370 1260 L7990 1260" stroke-width="13"/><g data-class="ledgerLines" class="ledgerLines below"><g data-class="lineDash" class="lineDash" data-related="#o156yi4a"><path d="M5520 1440 L5842 1440" stroke-width="22"/></g></g><g data-id="o1ekzocq" data-class="layer" class="layer"><g data-id="o156yi4a" data-class="note" class="note"><g data-class="notehead" class="notehead"><use href="#E0A4-rso98p6" transform="translate(5568, 1440) scale(0.72, 0.72)"/></g><g data-id="a1k392fj" data-class="stem" class="stem"><path d="M5785 1412 L5785 810" stroke-width="18"/></g></g><g data-id="p1qm94e9" data-class="note" class="note"><g data-class="notehead" class="notehead"><use href="#E0A3-rso98p6" transform="translate(6523, 1170) scale(0.72, 0.72)"/></g><g data-id="bkjvo42" data-class="stem" class="stem"><path d="M6740 1142 L6740 540" stroke-width="18"/></g></g></g></g><g data-id="j1vxt7ar" data-class="barLine" class="barLine"><path d="M7977 540 L7977 1260" stroke-width="27"/></g></g><g data-id="k1y40tk1" data-class="measure" class="measure"><g data-id="p1bawguf" data-class="staff" class="staff"><path d="M7990 540 L11935 540" stroke-width="13"/><path d="M7990 720 L11935 720" stroke-width="13"/><path d="M7990 900 L11935 900" stroke-width="13"/><path d="M7990 1080 L11935 1080" stroke-width="13"/><path d="M7990 1260 L11935 1260" stroke-width="13"/><g data-id="qx816im" data-class="layer" class="layer"><g data-id="fy9s7pl" data-class="rest" class="rest"><use href="#E4E6-rso98p6" transform="translate(8188, 900) scale(0.72, 0.72)"/></g><g data-id="q1l0zhic" data-class="note" class="note"><g data-class="notehead" class="notehead"><use href="#E0A4-rso98p6" transform="translate(8810, 1170) scale(0.72, 0.72)"/></g><g data-id="c1a8xfah" data-class="stem" class="stem"><path d="M9027 1142 L9027 540" stroke-width="18"/><g data-id="d189xtqv" data-class="flag" class="flag"><use href="#E240-rso98p6" transform="translate(9018, 540) scale(0.72, 0.72)"/></g></g></g><g data-id="r11u5hu3" data-class="note" class="note"><g data-class="notehead" class="notehead"><use href="#E0A4-rso98p6" transform="translate(9433, 1260) scale(0.72, 0.72)"/></g><g data-id="e19vstb4" data-class="stem" class="stem"><path d="M9650 1232 L9650 630" stroke-width="18"/><g data-id="f1qwvdvl" data-class="flag" class="flag"><use href="#E240-rso98p6" transform="translate(9641, 630) scale(0.72, 0.72)"/></g></g></g><g data-id="s8yjdmg" data-class="note" class="note"><g data-class="notehead" class="notehead"><use href="#E0A4-rso98p6" transform="translate(10055, 1170) scale(0.72, 0.72)"/></g><g data-id="g1od9rve" data-class="stem" class="stem"><path d="M10272 1142 L10272 540" stroke-width="18"/><g data-id="hynzwzk" data-class="flag" class="flag"><use href="#E240-rso98p6" transform="translate(10263, 540) scale(0.72, 0.72)"/></g></g></g><g data-id="t1eh76cm" data-class="note" class="note"><g data-class="notehead" class="notehead"><use href="#E0A4-rso98p6" transform="translate(10677, 900) scale(0.72, 0.72)"/></g><g data-id="ipki0o" data-class="stem" class="stem"><path d="M10686 928 L10686 1500" stroke-width="18"/><g data-id="jxgckaj" data-class="flag" class="flag"><use href="#E241-rso98p6" transform="translate(10677, 1500) scale(0.72, 0.72)"/></g></g><g data-id="swbw4e7" data-class="accid" class="accid"/></g><g data-id="u1cojbr2" data-class="note" class="note"><g data-class="notehead" class="notehead"><use href="#E0A4-rso98p6" transform="translate(11300, 990) scale(0.72, 0.72)"/></g><g data-id="k111br5p" data-class="stem" class="stem"><path d="M11517 962 L11517 360" stroke-width="18"/><g data-id="lz5vdgk" data-class="flag" class="flag"><use href="#E240-rso98p6" transform="translate(11508, 360) scale(0.72, 0.72)"/></g></g></g></g></g><g data-id="ss9d4r0" data-class="barLine" class="barLine"><path d="M11922 540 L11922 1260" stroke-width="27"/></g></g><g data-id="t67j7r3" data-class="measure" class="measure"><g data-id="r1vqbnj2" data-class="staff" class="staff"><path d="M11935 540 L14001 540" stroke-width="13"/><path d="M11935 720 L14001 720" stroke-width="13"/><path d="M11935 900 L14001 900" stroke-width="13"/><path d="M11935 1080 L14001 1080" stroke-width="13"/><path d="M11935 1260 L14001 1260" stroke-width="13"/><g data-id="sos89gv" data-class="layer" class="layer"><g data-id="v1khec0e" data-class="note" class="note"><g data-class="notehead" class="notehead"><use href="#E0A3-rso98p6" transform="translate(12133, 1080) scale(0.72, 0.72)"/></g><g data-id="nvdxum7" data-class="dots" class="dots"><ellipse cx="12449" cy="990" rx="36" ry="36" fill-opacity="1" stroke-opacity="1"/></g><g data-id="m1s5ciqy" data-class="stem" class="stem"><path d="M12350 1052 L12350 450" stroke-width="18"/></g></g></g></g><g data-id="b19jtbdm" data-class="barLine" class="barLine"><path d="M13988 540 L13988 1260" stroke-width="27"/></g></g></g></g></svg></svg>