<svg viewBox="0 0 560 84" version="1.1" xmlns="http://www.w3.org/2000/svg" xmlns:xlink="http://www.w3.org/1999/xlink" overflow="visible" id="xtfbhqs"><desc>Engraved by Verovio 5.6.0-85e7620</desc><defs><g id="E050-xtfbhqs"><path transform="scale(1,-1)" d="M441 -245c-23 -4 -48 -6 -76 -6c-59 0 -102 7 -130 20c-88 42 -150 93 -187 154c-26 44 -43 103 -48 176c0 6 -1 13 -1 19c0 54 15 111 45 170c29 57 65 106 110 148s96 85 153 127c-3 16 -8 46 -13 92c-4 43 -5 73 -5 89c0 117 16 172 69 257c34 54 64 82 89 82 c21 0 43 -30 69 -92s39 -115 41 -159v-15c0 -109 -21 -162 -67 -241c-13 -20 -63 -90 -98 -118c-13 -9 -25 -19 -37 -29l31 -181c8 1 18 2 28 2c58 0 102 -12 133 -35c59 -43 92 -104 98 -184c1 -7 1 -15 1 -22c0 -123 -87 -209 -181 -248c8 -57 17 -110 25 -162 c5 -31 6 -58 6 -80c0 -30 -5 -53 -14 -70c-35 -64 -88 -99 -158 -103c-5 0 -11 -1 -16 -1c-37 0 -72 10 -108 27c-50 24 -77 59 -80 105v11c0 29 7 55 20 76c18 28 45 42 79 44h6c49 0 93 -42 97 -87v-9c0 -51 -34 -86 -105 -106c17 -24 51 -36 102 -36c62 0 116 43 140 85 c9 16 13 41 13 74c0 20 -1 42 -5 67c-8 53 -18 106 -26 159zM461 939c-95 0 -135 -175 -135 -286c0 -24 2 -48 5 -71c50 39 92 82 127 128c40 53 60 100 60 140v8c-4 53 -22 81 -55 81h-2zM406 119l54 -326c73 25 110 78 110 161c0 7 0 15 -1 23c-7 95 -57 142 -151 142h-12 zM382 117c-72 -2 -128 -47 -128 -120v-7c2 -46 43 -99 75 -115c-3 -2 -7 -5 -10 -10c-70 33 -116 88 -123 172v11c0 68 44 126 88 159c23 17 49 29 78 36l-29 170c-21 -13 -52 -37 -92 -73c-50 -44 -86 -84 -109 -119c-45 -69 -67 -130 -67 -182v-13c5 -68 35 -127 93 -176 s125 -73 203 -73c25 0 50 3 75 9c-19 111 -36 221 -54 331z"/></g><g id="E260-xtfbhqs"><path transform="scale(1,-1)" d="M20 110c32 16 54 27 93 27c26 0 35 -3 54 -13c13 -7 24 -20 27 -38l4 -25c0 -28 -16 -57 -45 -89c-23 -25 -39 -44 -65 -68l-88 -79v644h20v-359zM90 106c-32 0 -48 -10 -70 -29v-194c31 31 54 59 71 84c21 32 32 59 32 84c0 9 1 16 1 20c0 14 -3 21 -11 30l-8 3z"/></g><g id="E08A-xtfbhqs"><path transform="scale(1,-1)" d="M340 179c-9 24 -56 41 -89 41c-46 0 -81 -28 -100 -58c-17 -28 -25 -78 -25 -150c0 -65 2 -111 8 -135c8 -31 18 -49 40 -67c20 -17 43 -25 70 -25c54 0 92 36 115 75c14 25 23 54 28 88h27c0 -63 -24 -105 -58 -141c-35 -38 -82 -56 -140 -56c-45 0 -83 13 -115 39 c-57 45 -101 130 -101 226c0 59 33 127 68 163c36 37 97 72 160 72c36 0 93 -21 121 -40c11 -8 23 -17 33 -30c19 -23 27 -48 27 -76c0 -51 -35 -88 -86 -88c-43 0 -76 27 -76 68c0 26 7 35 21 51c15 17 32 27 58 32c7 2 14 7 14 11z"/></g><g id="E0A4-xtfbhqs"><path transform="scale(1,-1)" d="M0 -39c0 68 73 172 200 172c66 0 114 -37 114 -95c0 -84 -106 -171 -218 -171c-64 0 -96 30 -96 94z"/></g><g id="E0A2-xtfbhqs"><path transform="scale(1,-1)" d="M198 133c102 0 207 -45 207 -133c0 -92 -118 -133 -227 -133c-101 0 -178 46 -178 133c0 88 93 133 198 133zM293 -21c0 14 -3 29 -8 44c-7 20 -18 38 -33 54c-20 21 -43 31 -68 31l-20 -2c-15 -5 -27 -14 -36 -28c-4 -9 -6 -17 -8 -24s-3 -16 -3 -27c0 -15 3 -34 9 -57 s18 -41 34 -55c15 -15 36 -23 62 -23c4 0 10 1 18 2c19 5 32 15 40 30s13 34 13 55z"/></g></defs><style type="text/css">#xtfbhqs g.page-margin {font-family:Times,serif;}#xtfbhqs g.ending, #xtfbhqs g.fing, #xtfbhqs g.reh, #xtfbhqs g.tempo {font-weight:bold;}#xtfbhqs g.dir, #xtfbhqs g.dynam, #xtfbhqs g.mNum {font-style:italic;}#xtfbhqs g.label {font-weight:normal;}#xtfbhqs path {stroke:currentColor}</style><svg class="definition-scale" color="black" viewBox="0 0 14000 2100"><g class="page-margin" transform="translate(0, 150)"><g data-id="r1y80ual" data-class="mdiv" class="mdiv pageMilestone"/><g data-id="s2x0qnr" data-class="score" class="score pageMilestone"/><g data-id="o1gyabnd" data-class="system" class="system"><g data-id="u1lyck01" data-class="section" class="section systemMilestone"/><g data-id="y15mrlwa" data-class="measure" class="measure"><g data-id="gmxjr5a" data-class="staff" class="staff"><path d="M0 540 L3326 540" stroke-width="13"/><path d="M0 720 L3326 720" stroke-width="13"/><path d="M0 900 L3326 900" stroke-width="13"/><path d="M0 1080 L3326 1080" stroke-width="13"/><path d="M0 1260 L3326 1260" stroke-width="13"/><g data-id="suzguw3" data-class="clef" class="clef"><use href="#E050-xtfbhqs" transform="translate(90, 1080) scale(0.72, 0.72)"/></g><g data-id="t1qwgie6" data-class="keySig" class="keySig"><g data-id="u12xmoqw" data-class="keyAccid" class="keyAccid"><use href="#E260-xtfbhqs" transform="translate(735, 900) scale(0.72, 0.72)"/></g><g data-id="v1ayx2d5" data-class="keyAccid" class="keyAccid"><use href="#E260-xtfbhqs" transform="translate(915, 630) scale(0.72, 0.72)"/></g><g data-id="w7rjyte" data-class="keyAccid" class="keyAccid"><use href="#E260-xtfbhqs" transform="translate(1095, 990) scale(0.72, 0.72)"/></g></g><g data-id="xvpi4z5" data-class="meterSig" class="meterSig"><use href="#E08A-xtfbhqs" transform="translate(1417, 900) scale(0.72, 0.72)"/></g><g data-class="ledgerLines" class="ledgerLines below"><g data-class="lineDash" class="lineDash" data-related="#aj9j3fe"><path d="M1959 1440 L2251 1440" stroke-width="22"/></g><g data-class="lineDash" class="lineDash" data-related="#b1an49fo"><path d="M2286 1440 L2578 1440" stroke-width="22"/></g><g data-class="lineDash" class="lineDash" data-related="#cmrxyz0"><path d="M2612 1440 L2904 1440" stroke-width="22"/></g><g data-class="lineDash" class="lineDash" data-related="#d1etwymo"><path d="M2939 1440 L3231 1440" stroke-width="22"/></g><g data-class="lineDash" class="lineDash" data-related="#d1etwymo"><path d="M2939 1620 L3231 1620" stroke-width="22"/></g></g><g data-id="h40b9ij" data-class="layer" class="layer"><g data-id="x1syngwb" data-class="beam" class="beam"><polygon stroke-opacity="1" fill-opacity="1" points="2200,855 3198,855 3198,945 2200,945"/><polygon stroke-opacity="1" fill-opacity="1" points="2200,990 2536,990 2536,1080 2200,1080"/><polygon stroke-opacity="1" fill-opacity="1" points="2536,990 2862,990 2862,1080 2536,1080"/><polygon stroke-opacity="1" fill-opacity="1" points="2862,990 3198,990 3198,1080 2862,1080"/><g data-id="aj9j3fe" data-class="note" class="note"><g data-class="notehead" class="notehead"><use href="#E0A4-xtfbhqs" transform="translate(1992, 1530) scale(0.72, 0.72)"/></g><g data-id="f1h699hw" data-class="stem" class="stem"><path d="M2209 1502 L2209 873" stroke-width="18"/></g><g data-id="d1dik6lw" data-class="accid" class="accid"/></g><g data-id="b1an49fo" data-class="note" class="note"><g data-class="notehead" class="notehead"><use href="#E0A4-xtfbhqs" transform="translate(2319, 1440) scale(0.72, 0.72)"/></g><g data-id="gdl9bms" data-class="stem" class="stem"><path d="M2536 1412 L2536 873" stroke-width="18"/></g></g><g data-id="cmrxyz0" data-class="note" class="note"><g data-class="notehead" class="notehead"><use href="#E0A4-xtfbhqs" transform="translate(2645, 1530) scale(0.72, 0.72)"/></g><g data-id="h132w255" data-class="stem" class="stem"><path d="M2862 1502 L2862 873" stroke-width="18"/></g><g data-id="e1hzo1gv" data-class="accid" class="accid"/></g><g data-id="d1etwymo" data-class="note" class="note"><g data-class="notehead" class="notehead"><use href="#E0A4-xtfbhqs" transform="translate(2972, 1710) scale(0.72, 0.72)"/></g><g data-id="i18mu6qf" data-class="stem" class="stem"><path d="M3189 1682 L3189 873" stroke-width="18"/></g></g></g></g></g><g data-id="g1oncvt9" data-class="barLine" class="barLine"><path d="M3313 540 L3313 1260" stroke-width="27"/></g></g><g data-id="hgh7i0z" data-class="measure" class="measure"><g data-id="i11b3krc" data-class="staff" class="staff"><path d="M3326 540 L5098 540" stroke-width="13"/><path d="M3326 720 L5098 720" stroke-width="13"/><path d="M3326 900 L5098 900" stroke-width="13"/><path d="M3326 1080 L5098 1080" stroke-width="13"/><path d="M3326 1260 L5098 1260" stroke-width="13"/><g data-id="jdck215" data-class="layer" class="layer"><g data-id="ewr57i0" data-class="note" class="note"><g data-class="notehead" class="notehead"><use href="#E0A2-xtfbhqs" transform="translate(3513, 1260) scale(0.72, 0.72)"/></g><g data-id="f5k1clt" data-class="accid" class="accid"/></g></g></g><g data-id="b1ljmat4" data-class="tie" class="tie"><path d="M3848,1305 C4200,1410 4887,1410 5240,1305 C4896,1458 4191,1458 3848,1305" stroke-linecap="round" stroke-linejoin="round" stroke-width="9"/></g><g data-id="p1tn9dn6" data-class="barLine" class="barLine"><path d="M5085 540 L5085 1260" stroke-width="27"/></g></g><g data-id="q19xyvt3" data-class="measure" class="measure"><g data-id="k2lr6m8" data-class="staff" class="staff"><path d="M5098 540 L8664 540" stroke-width="13"/><path d="M5098 720 L8664 720" stroke-width="13"/><path d="M5098 900 L8664 900" stroke-width="13"/><path d="M5098 1080 L8664 1080" stroke-width="13"/><path d="M5098 1260 L8664 1260" stroke-width="13"/><g data-class="ledgerLines" class="ledgerLines below"><g data-class="lineDash" class="lineDash" data-related="#itvs03c"><path d="M7296 1440 L7588 1440" stroke-width="22"/></g><g data-class="lineDash" class="lineDash" data-related="#j8trrkm"><path d="M7623 1440 L7915 1440" stroke-width="22"/></g><g data-class="lineDash" class="lineDash" data-related="#kycp6li"><path d="M7950 1440 L8242 1440" stroke-width="22"/></g><g data-class="lineDash" class="lineDash" data-related="#l1bhcub3"><path d="M8277 1440 L8569 1440" stroke-width="22"/></g><g data-class="lineDash" class="lineDash" data-related="#l1bhcub3"><path d="M8277 1620 L8569 1620" stroke-width="22"/></g></g><g data-id="lv3firf" data-class="layer" class="layer"><g data-id="f1qi8lup" data-class="note" class="note"><g data-class="notehead" class="notehead"><use href="#E0A4-xtfbhqs" transform="translate(5285, 1260) scale(0.72, 0.72)"/></g><g data-id="k1bazvjc" data-class="stem" class="stem"><path d="M5502 1232 L5502 630" stroke-width="18"/></g><g data-id="g9ds6pt" data-class="accid" class="accid"/></g><g data-id="g1cnca6o" data-class="note" class="note"><g data-class="notehead" class="notehead"><use href="#E0A4-xtfbhqs" transform="translate(5966, 990) scale(0.72, 0.72)"/></g><g data-id="l1vasrzh" data-class="stem" class="stem"><path d="M6183 962 L6183 360" stroke-width="18"/></g><g data-id="h1amxg5o" data-class="accid" class="accid"/></g><g data-id="hsin6xn" data-class="note" class="note"><g data-class="notehead" class="notehead"><use href="#E0A4-xtfbhqs" transform="translate(6648, 1080) scale(0.72, 0.72)"/></g><g data-id="m1v1svls" data-class="stem" class="stem"><path d="M6865 1052 L6865 450" stroke-width="18"/></g></g><g data-id="y1pfzvji" data-class="beam" class="beam"><polygon stroke-opacity="1" fill-opacity="1" points="7537,855 8536,855 8536,945 7537,945"/><polygon stroke-opacity="1" fill-opacity="1" points="7537,990 7873,990 7873,1080 7537,1080"/><polygon stroke-opacity="1" fill-opacity="1" points="7873,990 8200,990 8200,1080 7873,1080"/><polygon stroke-opacity="1" fill-opacity="1" points="8200,990 8536,990 8536,1080 8200,1080"/><g data-id="itvs03c" data-class="note" class="note"><g data-class="notehead" class="notehead"><use href="#E0A4-xtfbhqs" transform="translate(7329, 1530) scale(0.72, 0.72)"/></g><g data-id="nemf1ie" data-class="stem" class="stem"><path d="M7546 1502 L7546 873" stroke-width="18"/></g><g data-id="i13k6mnm" data-class="accid" class="accid"/></g><g data-id="j8trrkm" data-class="note" class="note"><g data-class="notehead" class="notehead"><use href="#E0A4-xtfbhqs" transform="translate(7656, 1440) scale(0.72, 0.72)"/></g><g data-id="o10dp0ho" data-class="stem" class="stem"><path d="M7873 1412 L7873 873" stroke-width="18"/></g></g><g data-id="kycp6li" data-class="note" class="note"><g data-class="notehead" class="notehead"><use href="#E0A4-xtfbhqs" transform="translate(7983, 1530) scale(0.72, 0.72)"/></g><g data-id="p1lcnzpm" data-class="stem" class="stem"><path d="M8200 1502 L8200 873" stroke-width="18"/></g><g data-id="je9j3mv" data-class="accid" class="accid"/></g><g data-id="l1bhcub3" data-class="note" class="note"><g data-class="notehead" class="notehead"><use href="#E0A4-xtfbhqs" transform="translate(8310, 1710) scale(0.72, 0.72)"/></g><g data-id="q334n1d" data-class="stem" class="stem"><path d="M8527 1682 L8527 873" stroke-width="18"/></g></g></g></g></g><g data-id="y11y4but" data-class="barLine" class="barLine"><path d="M8651 540 L8651 1260" stroke-width="27"/></g></g><g data-id="z5die9p" data-class="measure" class="measure"><g data-id="mh1t6a7" data-class="staff" class="staff"><path d="M8664 540 L10436 540" stroke-width="13"/><path d="M8664 720 L10436 720" stroke-width="13"/><path d="M8664 900 L10436 900" stroke-width="13"/><path d="M8664 1080 L10436 1080" stroke-width="13"/><path d="M8664 1260 L10436 1260" stroke-width="13"/><g data-id="njyy08c" data-class="layer" class="layer"><g data-id="m2kogx8" data-class="note" class="note"><g data-class="notehead" class="notehead"><use href="#E0A2-xtfbhqs" transform="translate(8851, 1260) scale(0.72, 0.72)"/></g><g data-id="k1a6hj4m" data-class="accid" class="accid"/></g></g></g><g data-id="c7bulyo" data-class="tie" class="tie"><path d="M9186,1305 C9538,1410 10225,1410 10578,1305 C10234,1458 9529,1458 9186,1305" stroke-linecap="round" stroke-linejoin="round" stroke-width="9"/></g><g data-id="h8wghrr" data-class="barLine" class="barLine"><path d="M10423 540 L10423 1260" stroke-width="27"/></g></g><g data-id="i8yz6yq" data-class="measure" class="measure"><g data-id="o12eh7ph" data-class="staff" class="staff"><path d="M10436 540 L14002 540" stroke-width="13"/><path d="M10436 720 L14002 720" stroke-width="13"/><path d="M10436 900 L14002 900" stroke-width="13"/><path d="M10436 1080 L14002 1080" stroke-width="13"/><path d="M10436 1260 L14002 1260" stroke-width="13"/><g data-class="ledgerLines" class="ledgerLines below"><g data-class="lineDash" class="lineDash" data-related="#t1ut7bs"><path d="M13600 1440 L13922 1440" stroke-width="22"/></g></g><g data-id="p1fijyf4" data-class="layer" class="layer"><g data-id="n19r0f7o" data-class="note" class="note"><g data-class="notehead" class="notehead"><use href="#E0A4-xtfbhqs" transform="translate(10623, 1260) scale(0.72, 0.72)"/></g><g data-id="s14gy6v8" data-class="stem" class="stem"><path d="M10840 1232 L10840 630" stroke-width="18"/></g><g data-id="l35fdrl" data-class="accid" class="accid"/></g><g data-id="ohvpnfu" data-class="note" class="note"><g data-class="notehead" class="notehead"><use href="#E0A4-xtfbhqs" transform="translate(11304, 810) scale(0.72, 0.72)"/></g><g data-id="tdnhvbs" data-class="stem" class="stem"><path d="M11313 838 L11313 1440" stroke-width="18"/></g></g><g data-id="p1ajn5vd" data-class="note" class="note"><g data-class="notehead" class="notehead"><use href="#E0A4-xtfbhqs" transform="translate(11986, 900) scale(0.72, 0.72)"/></g><g data-id="u1pmk8iw" data-class="stem" class="stem"><path d="M11995 928 L11995 1500" stroke-width="18"/></g><g data-id="m3504ug" data-class="accid" class="accid"/></g><g data-id="z1ol4sjo" data-class="beam" class="beam"><polygon stroke-opacity="1" fill-opacity="1" points="12875,540 13874,540 13874,630 12875,630"/><polygon stroke-opacity="1" fill-opacity="1" points="12875,675 13211,675 13211,765 12875,765"/><polygon stroke-opacity="1" fill-opacity="1" points="13211,675 13538,675 13538,765 13211,765"/><polygon stroke-opacity="1" fill-opacity="1" points="13538,675 13874,675 13874,765 13538,765"/><g data-id="q1ujwz7m" data-class="note" class="note"><g data-class="notehead" class="notehead"><use href="#E0A4-xtfbhqs" transform="translate(12667, 1260) scale(0.72, 0.72)"/></g><g data-id="vhhlkae" data-class="stem" class="stem"><path d="M12884 1232 L12884 558" stroke-width="18"/></g><g data-id="n1afwah7" data-class="accid" class="accid"/></g><g data-id="r1gfomw4" data-class="note" class="note"><g data-class="notehead" class="notehead"><use href="#E0A4-xtfbhqs" transform="translate(12994, 1170) scale(0.72, 0.72)"/></g><g data-id="wd526bu" data-class="stem" class="stem"><path d="M13211 1142 L13211 558" stroke-width="18"/></g></g><g data-id="sawgb2i" data-class="note" class="note"><g data-class="notehead" class="notehead"><use href="#E0A4-xtfbhqs" transform="translate(13321, 1260) scale(0.72, 0.72)"/></g><g data-id="x1nhozvo" data-class="stem" class="stem"><path d="M13538 1232 L13538 558" stroke-width="18"/></g><g data-id="ordzjgi" data-class="accid" class="accid"/></g><g data-id="t1ut7bs" data-class="note" class="note"><g data-class="notehead" class="notehead"><use href="#E0A4-xtfbhqs" transform="translate(13648, 1530) scale(0.72, 0.72)"/></g><g data-id="y3gdlty" data-class="stem" class="stem"><path d="M13865 1502 L13865 558" stroke-width="18"/></g><g data-id="p1ut1v90" data-class="accid" class="accid"/></g></g></g></g><g data-id="qznt4js" data-class="barLine" class="barLine"><path d="M13989 540 L13989 1260" stroke-width="27"/></g></g></g></g></svg></svg>