<svg viewBox="0 0 560 84" version="1.1" xmlns="http://www.w3.org/2000/svg" xmlns:xlink="http://www.w3.org/1999/xlink" overflow="visible" id="lxxu7yu"><desc>Engraved by Verovio 5.6.0-85e7620</desc><defs><g id="E050-lxxu7yu"><path transform="scale(1,-1)" d="M441 -245c-23 -4 -48 -6 -76 -6c-59 0 -102 7 -130 20c-88 42 -150 93 -187 154c-26 44 -43 103 -48 176c0 6 -1 13 -1 19c0 54 15 111 45 170c29 57 65 106 110 148s96 85 153 127c-3 16 -8 46 -13 92c-4 43 -5 73 -5 89c0 117 16 172 69 257c34 54 64 82 89 82 c21 0 43 -30 69 -92s39 -115 41 -159v-15c0 -109 -21 -162 -67 -241c-13 -20 -63 -90 -98 -118c-13 -9 -25 -19 -37 -29l31 -181c8 1 18 2 28 2c58 0 102 -12 133 -35c59 -43 92 -104 98 -184c1 -7 1 -15 1 -22c0 -123 -87 -209 -181 -248c8 -57 17 -110 25 -162 c5 -31 6 -58 6 -80c0 -30 -5 -53 -14 -70c-35 -64 -88 -99 -158 -103c-5 0 -11 -1 -16 -1c-37 0 -72 10 -108 27c-50 24 -77 59 -80 105v11c0 29 7 55 20 76c18 28 45 42 79 44h6c49 0 93 -42 97 -87v-9c0 -51 -34 -86 -105 -106c17 -24 51 -36 102 -36c62 0 116 43 140 85 c9 16 13 41 13 74c0 20 -1 42 -5 67c-8 53 -18 106 -26 159zM461 939c-95 0 -135 -175 -135 -286c0 -24 2 -48 5 -71c50 39 92 82 127 128c40 53 60 100 60 140v8c-4 53 -22 81 -55 81h-2zM406 119l54 -326c73 25 110 78 110 161c0 7 0 15 -1 23c-7 95 -57 142 -151 142h-12 zM382 117c-72 -2 -128 -47 -128 -120v-7c2 -46 43 -99 75 -115c-3 -2 -7 -5 -10 -10c-70 33 -116 88 -123 172v11c0 68 44 126 88 159c23 17 49 29 78 36l-29 170c-21 -13 -52 -37 -92 -73c-50 -44 -86 -84 -109 -119c-45 -69 -67 -130 -67 -182v-13c5 -68 35 -127 93 -176 s125 -73 203 -73c25 0 50 3 75 9c-19 111 -36 221 -54 331z"/></g><g id="E260-lxxu7yu"><path transform="scale(1,-1)" d="M20 110c32 16 54 27 93 27c26 0 35 -3 54 -13c13 -7 24 -20 27 -38l4 -25c0 -28 -16 -57 -45 -89c-23 -25 -39 -44 -65 -68l-88 -79v644h20v-359zM90 106c-32 0 -48 -10 -70 -29v-194c31 31 54 59 71 84c21 32 32 59 32 84c0 9 1 16 1 20c0 14 -3 21 -11 30l-8 3z"/></g><g id="E08B-lxxu7yu"><path transform="scale(1,-1)" d="M188 200c-42 -22 -63 -69 -63 -141v-119c0 -39 7 -70 19 -94s26 -40 44 -48v402zM0 -0c0 127 80 220 186 246v72h32l-6 -72c33 0 71 0 101 -11c54 -20 102 -65 102 -135c0 -16 -4 -30 -13 -43s-20 -24 -32 -29l-20 -8l-23 -3c-22 2 -41 8 -55 21s-21 31 -26 51 c0 38 45 80 79 80c12 0 19 3 19 10c0 6 -6 12 -15 18c-19 13 -47 24 -79 24c-10 0 -20 -1 -32 -5v-431c15 -3 12 -4 30 -4c57 0 100 51 121 93l17 39c3 13 5 25 5 35h26c-6 -70 -28 -121 -66 -152s-82 -47 -133 -47v-68h-30v72c-57 10 -122 54 -153 109c-7 12 -13 26 -19 42 c-11 29 -16 61 -16 96z"/></g><g id="E0A3-lxxu7yu"><path transform="scale(1,-1)" d="M278 64c0 22 -17 39 -43 39c-12 0 -26 -3 -41 -10c-85 -43 -165 -94 -165 -156c5 -25 15 -32 49 -32c67 11 200 95 200 159zM0 -36c0 68 73 174 200 174c66 0 114 -39 114 -97c0 -84 -106 -173 -218 -173c-64 0 -96 32 -96 96z"/></g><g id="E0A4-lxxu7yu"><path transform="scale(1,-1)" d="M0 -39c0 68 73 172 200 172c66 0 114 -37 114 -95c0 -84 -106 -171 -218 -171c-64 0 -96 30 -96 94z"/></g><g id="E4C0-lxxu7yu"><path transform="scale(1,-1)" d="M0 0c0 0 40 320 300 320s300 -320 300 -320h-32s-38 227 -268 227s-268 -227 -268 -227h-32zM355 52c0 -30 -25 -55 -55 -55s-55 25 -55 55s25 55 55 55s55 -25 55 -55z"/></g><g id="E261-lxxu7yu"><path transform="scale(1,-1)" d="M0 -188v539h18v-191l139 22v-533h-17v186zM18 -100l122 17v176l-122 -19v-174z"/></g><g id="E883-lxxu7yu"><path transform="scale(1,-1)" d="M161 326c52 0 94 -17 94 -68c0 -50 -40 -76 -82 -94c26 -21 39 -42 39 -64c0 -52 -56 -100 -118 -100h-12c-40 0 -82 23 -82 56c0 30 12 49 37 49c17 0 31 -16 34 -31c0 -5 -4 -12 -11 -21c-7 -5 -13 -10 -13 -21l11 -9l17 -4c21 0 40 12 56 37c13 21 19 45 19 70 c-9 30 -28 35 -66 35l6 23c34 0 60 4 77 13c20 11 30 35 30 70c0 28 -12 38 -39 40l-20 -3c-8 -3 -12 -9 -12 -16c2 -7 4 -11 5 -14l4 -11l3 -10l-3 -12c-5 -6 -11 -11 -20 -13c-2 0 -4 -1 -6 -1c-16 0 -30 13 -30 28c0 39 43 71 82 71z"/></g></defs><style type="text/css">#lxxu7yu g.page-margin {font-family:Times,serif;}#lxxu7yu g.ending, #lxxu7yu g.fing, #lxxu7yu g.reh, #lxxu7yu g.tempo {font-weight:bold;}#lxxu7yu g.dir, #lxxu7yu g.dynam, #lxxu7yu g.mNum {font-style:italic;}#lxxu7yu g.label {font-weight:normal;}#lxxu7yu path {stroke:currentColor}</style><svg class="definition-scale" color="black" viewBox="0 0 14000 2100"><g class="page-margin" transform="translate(0, 150)"><g data-id="l1m1u0gk" data-class="mdiv" class="mdiv pageMilestone"/><g data-id="m6yjpu7" data-class="score" class="score pageMilestone"/><g data-id="x1vpjvto" data-class="system" class="system"><g data-id="o1e6rkr1" data-class="section" class="section systemMilestone"/><g data-id="mvje8m0" data-class="measure" class="measure"><g data-id="a7k2mhu" data-class="staff" class="staff"><path d="M0 547 L5240 547" stroke-width="13"/><path d="M0 727 L5240 727" stroke-width="13"/><path d="M0 907 L5240 907" stroke-width="13"/><path d="M0 1087 L5240 1087" stroke-width="13"/><path d="M0 1267 L5240 1267" stroke-width="13"/><g data-id="b1ommd4" data-class="clef" class="clef"><use href="#E050-lxxu7yu" transform="translate(90, 1087) scale(0.72, 0.72)"/></g><g data-id="c11xxn3l" data-class="keySig" class="keySig"><g data-id="dogosc0" data-class="keyAccid" class="keyAccid"><use href="#E260-lxxu7yu" transform="translate(735, 907) scale(0.72, 0.72)"/></g><g data-id="e10rkh4d" data-class="keyAccid" class="keyAccid"><use href="#E260-lxxu7yu" transform="translate(915, 637) scale(0.72, 0.72)"/></g><g data-id="fjrjkso" data-class="keyAccid" class="keyAccid"><use href="#E260-lxxu7yu" transform="translate(1095, 997) scale(0.72, 0.72)"/></g><g data-id="g1f5a29a" data-class="keyAccid" class="keyAccid"><use href="#E260-lxxu7yu" transform="translate(1275, 727) scale(0.72, 0.72)"/></g></g><g data-id="h2xgk36" data-class="meterSig" class="meterSig"><use href="#E08B-lxxu7yu" transform="translate(1597, 907) scale(0.72, 0.72)"/></g><g data-class="ledgerLines" class="ledgerLines below"><g data-class="lineDash" class="lineDash" data-related="#exblrtc"><path d="M2119 1447 L2441 1447" stroke-width="22"/></g><g data-class="lineDash" class="lineDash" data-related="#k1llopnp"><path d="M3829 1447 L4151 1447" stroke-width="22"/></g></g><g data-class="ledgerLines" class="ledgerLines below cue"><g data-class="lineDash" class="lineDash" data-related="#g3rhq3b"><path d="M2697 1447 L2909 1447" stroke-width="16"/></g><g data-class="lineDash" class="lineDash" data-related="#h1s95y4x"><path d="M2933 1447 L3145 1447" stroke-width="16"/></g><g data-class="lineDash" class="lineDash" data-related="#i4rn7qi"><path d="M3169 1447 L3381 1447" stroke-width="16"/></g></g><g data-id="b1uldi44" data-class="layer" class="layer"><g data-id="exblrtc" data-class="note" class="note"><g data-class="notehead" class="notehead"><use href="#E0A3-lxxu7yu" transform="translate(2167, 1447) scale(0.72, 0.72)"/></g><g data-id="s1sd5ul1" data-class="stem" class="stem"><path d="M2384 1419 L2384 817" stroke-width="18"/></g></g><g data-id="x1210gli" data-class="beam" class="beam"><polygon stroke-opacity="1" fill-opacity="1" points="2634,907 3360,952 3360,1019 2634,974"/><g data-id="bw4gzw1" data-class="graceGrp" class="graceGrp"><g data-id="f1kfnfxg" data-class="note" class="note"><g data-class="notehead" class="notehead"><use href="#E0A4-lxxu7yu" transform="translate(2483, 1357) scale(0.54, 0.54)"/></g><g data-id="ti5flhs" data-class="stem" class="stem"><path d="M2643 1336 L2643 925" stroke-width="18"/></g><g data-id="d7wnxp" data-class="accid" class="accid"/></g><g data-id="g3rhq3b" data-class="note" class="note"><g data-class="notehead" class="notehead"><use href="#E0A4-lxxu7yu" transform="translate(2719, 1447) scale(0.54, 0.54)"/></g><g data-id="ucdqsof" data-class="stem" class="stem"><path d="M2879 1426 L2879 940" stroke-width="18"/></g></g><g data-id="h1s95y4x" data-class="note" class="note"><g data-class="notehead" class="notehead"><use href="#E0A4-lxxu7yu" transform="translate(2955, 1537) scale(0.54, 0.54)"/></g><g data-id="v13cb4g2" data-class="stem" class="stem"><path d="M3115 1516 L3115 955" stroke-width="18"/></g><g data-id="e6hy47f" data-class="accid" class="accid"/></g><g data-id="i4rn7qi" data-class="note" class="note"><g data-class="notehead" class="notehead"><use href="#E0A4-lxxu7yu" transform="translate(3191, 1447) scale(0.54, 0.54)"/></g><g data-id="wy7oe2h" data-class="stem" class="stem"><path d="M3351 1426 L3351 970" stroke-width="18"/></g></g></g></g><g data-id="y11bb141" data-class="beam" class="beam"><polygon stroke-opacity="1" fill-opacity="1" points="3635,502 5003,502 5003,592 3635,592"/><g data-id="j2c0dwy" data-class="note" class="note"><g data-class="notehead" class="notehead"><use href="#E0A4-lxxu7yu" transform="translate(3427, 1357) scale(0.72, 0.72)"/></g><g data-id="x1g6qjjh" data-class="stem" class="stem"><path d="M3644 1329 L3644 520" stroke-width="18"/></g><g data-id="f1slsafu" data-class="accid" class="accid"/></g><g data-id="k1llopnp" data-class="note" class="note"><g data-class="notehead" class="notehead"><use href="#E0A4-lxxu7yu" transform="translate(3877, 1537) scale(0.72, 0.72)"/></g><g data-id="y13r31pe" data-class="stem" class="stem"><path d="M4094 1509 L4094 520" stroke-width="18"/></g><g data-id="guz8j1f" data-class="accid" class="accid"/></g><g data-id="lveuihy" data-class="note" class="note"><g data-class="notehead" class="notehead"><use href="#E0A4-lxxu7yu" transform="translate(4327, 1087) scale(0.72, 0.72)"/></g><g data-id="zb70uak" data-class="stem" class="stem"><path d="M4544 1059 L4544 520" stroke-width="18"/></g></g><g data-id="m1bao5ju" data-class="note" class="note"><g data-class="notehead" class="notehead"><use href="#E0A4-lxxu7yu" transform="translate(4777, 1177) scale(0.72, 0.72)"/></g><g data-id="a1djbh3u" data-class="stem" class="stem"><path d="M4994 1149 L4994 520" stroke-width="18"/></g></g></g></g></g><g data-id="u1tytjz6" data-class="fermata" class="fermata"><use href="#E4C0-lxxu7yu" transform="translate(2064, 500) scale(0.72, 0.72)"/></g><g data-id="uggqt8" data-class="barLine" class="barLine"><path d="M5227 547 L5227 1267" stroke-width="27"/></g></g><g data-id="v1aq4i7h" data-class="measure" class="measure"><g data-id="c1fohocz" data-class="staff" class="staff"><path d="M5240 547 L7922 547" stroke-width="13"/><path d="M5240 727 L7922 727" stroke-width="13"/><path d="M5240 907 L7922 907" stroke-width="13"/><path d="M5240 1087 L7922 1087" stroke-width="13"/><path d="M5240 1267 L7922 1267" stroke-width="13"/><g data-id="d1kk5pas" data-class="layer" class="layer"><g data-id="zl20434" data-class="beam" class="beam"><polygon stroke-opacity="1" fill-opacity="1" points="5628,457 6752,277 6752,367 5628,547"/><polygon stroke-opacity="1" fill-opacity="1" points="5628,592 6111,515 6111,605 5628,682"/><polygon stroke-opacity="1" fill-opacity="1" points="6111,515 6427,464 6427,554 6111,605"/><polygon stroke-opacity="1" fill-opacity="1" points="6427,464 6752,412 6752,502 6427,554"/><g data-id="n1iute61" data-class="note" class="note"><g data-class="notehead" class="notehead"><use href="#E0A4-lxxu7yu" transform="translate(5420, 1177) scale(0.72, 0.72)"/></g><g data-id="bs93shb" data-class="stem" class="stem"><path d="M5637 1149 L5637 475" stroke-width="18"/></g></g><g data-id="o1slgn3p" data-class="note" class="note"><g data-class="notehead" class="notehead"><use href="#E0A4-lxxu7yu" transform="translate(5894, 1267) scale(0.72, 0.72)"/></g><g data-id="c60zmey" data-class="stem" class="stem"><path d="M6111 1239 L6111 398" stroke-width="18"/></g><g data-id="wm6dyg0" data-class="accid" class="accid"><use href="#E261-lxxu7yu" transform="translate(5736, 1267) scale(0.72, 0.72)"/></g></g><g data-id="p4wi6pw" data-class="note" class="note"><g data-class="notehead" class="notehead"><use href="#E0A4-lxxu7yu" transform="translate(6210, 1087) scale(0.72, 0.72)"/></g><g data-id="dtf8yne" data-class="stem" class="stem"><path d="M6427 1059 L6427 347" stroke-width="18"/></g></g><g data-id="qlagkvk" data-class="note" class="note"><g data-class="notehead" class="notehead"><use href="#E0A4-lxxu7yu" transform="translate(6526, 907) scale(0.72, 0.72)"/></g><g data-id="elmbd8" data-class="stem" class="stem"><path d="M6743 879 L6743 295" stroke-width="18"/></g><g data-id="h1norqvp" data-class="accid" class="accid"/></g></g><g data-id="ad1cipl" data-class="beam" class="beam"><polygon stroke-opacity="1" fill-opacity="1" points="6842,1312 7580,1492 7580,1402 6842,1222"/><g data-id="c942h2p" data-class="tuplet" class="tuplet"><g data-id="fwrohfo" data-class="tupletNum" class="tupletNum"><use href="#E883-lxxu7yu" transform="translate(7166, 1713) scale(0.72, 0.72)"/></g><g data-id="r10cvtj4" data-class="note" class="note"><g data-class="notehead" class="notehead"><use href="#E0A4-lxxu7yu" transform="translate(6842, 727) scale(0.72, 0.72)"/></g><g data-id="g1cze8lf" data-class="stem" class="stem"><path d="M6851 755 L6851 1294" stroke-width="18"/></g><g data-id="i1co53v1" data-class="accid" class="accid"/></g><g data-id="s16hw1rr" data-class="note" class="note"><g data-class="notehead" class="notehead"><use href="#E0A4-lxxu7yu" transform="translate(7202, 817) scale(0.72, 0.72)"/></g><g data-id="h1060q0r" data-class="stem" class="stem"><path d="M7211 845 L7211 1384" stroke-width="18"/></g></g><g data-id="tpfqjag" data-class="note" class="note"><g data-class="notehead" class="notehead"><use href="#E0A4-lxxu7yu" transform="translate(7562, 907) scale(0.72, 0.72)"/></g><g data-id="id2c2ia" data-class="stem" class="stem"><path d="M7571 935 L7571 1474" stroke-width="18"/></g><g data-id="jhchhbz" data-class="accid" class="accid"/></g></g></g></g></g><g data-id="v1i5lvck" data-class="fermata" class="fermata"><use href="#E4C0-lxxu7yu" transform="translate(6739, 230) scale(0.72, 0.72)"/></g><g data-id="dtrnvg6" data-class="barLine" class="barLine"/></g><g data-id="l1ish5gp" data-class="systemMilestoneEnd" class="systemMilestoneEnd o1e6rkr1"/></g><g data-id="m1sxv0ud" data-class="pageMilestoneEnd" class="pageMilestoneEnd m6yjpu7"/><g data-id="nke1783" data-class="pageMilestoneEnd" class="pageMilestoneEnd l1m1u0gk"/></g></svg></svg>