<svg viewBox="0 0 560 84" version="1.1" xmlns="http://www.w3.org/2000/svg" xmlns:xlink="http://www.w3.org/1999/xlink" overflow="visible" id="n11fns7f"><desc>Engraved by Verovio 5.6.0-85e7620</desc><defs><g id="E050-n11fns7f"><path transform="scale(1,-1)" d="M441 -245c-23 -4 -48 -6 -76 -6c-59 0 -102 7 -130 20c-88 42 -150 93 -187 154c-26 44 -43 103 -48 176c0 6 -1 13 -1 19c0 54 15 111 45 170c29 57 65 106 110 148s96 85 153 127c-3 16 -8 46 -13 92c-4 43 -5 73 -5 89c0 117 16 172 69 257c34 54 64 82 89 82 c21 0 43 -30 69 -92s39 -115 41 -159v-15c0 -109 -21 -162 -67 -241c-13 -20 -63 -90 -98 -118c-13 -9 -25 -19 -37 -29l31 -181c8 1 18 2 28 2c58 0 102 -12 133 -35c59 -43 92 -104 98 -184c1 -7 1 -15 1 -22c0 -123 -87 -209 -181 -248c8 -57 17 -110 25 -162 c5 -31 6 -58 6 -80c0 -30 -5 -53 -14 -70c-35 -64 -88 -99 -158 -103c-5 0 -11 -1 -16 -1c-37 0 -72 10 -108 27c-50 24 -77 59 -80 105v11c0 29 7 55 20 76c18 28 45 42 79 44h6c49 0 93 -42 97 -87v-9c0 -51 -34 -86 -105 -106c17 -24 51 -36 102 -36c62 0 116 43 140 85 c9 16 13 41 13 74c0 20 -1 42 -5 67c-8 53 -18 106 -26 159zM461 939c-95 0 -135 -175 -135 -286c0 -24 2 -48 5 -71c50 39 92 82 127 128c40 53 60 100 60 140v8c-4 53 -22 81 -55 81h-2zM406 119l54 -326c73 25 110 78 110 161c0 7 0 15 -1 23c-7 95 -57 142 -151 142h-12 zM382 117c-72 -2 -128 -47 -128 -120v-7c2 -46 43 -99 75 -115c-3 -2 -7 -5 -10 -10c-70 33 -116 88 -123 172v11c0 68 44 126 88 159c23 17 49 29 78 36l-29 170c-21 -13 -52 -37 -92 -73c-50 -44 -86 -84 -109 -119c-45 -69 -67 -130 -67 -182v-13c5 -68 35 -127 93 -176 s125 -73 203 -73c25 0 50 3 75 9c-19 111 -36 221 -54 331z"/></g><g id="E08A-n11fns7f"><path transform="scale(1,-1)" d="M340 179c-9 24 -56 41 -89 41c-46 0 -81 -28 -100 -58c-17 -28 -25 -78 -25 -150c0 -65 2 -111 8 -135c8 -31 18 -49 40 -67c20 -17 43 -25 70 -25c54 0 92 36 115 75c14 25 23 54 28 88h27c0 -63 -24 -105 -58 -141c-35 -38 -82 -56 -140 -56c-45 0 -83 13 -115 39 c-57 45 -101 130 -101 226c0 59 33 127 68 163c36 37 97 72 160 72c36 0 93 -21 121 -40c11 -8 23 -17 33 -30c19 -23 27 -48 27 -76c0 -51 -35 -88 -86 -88c-43 0 -76 27 -76 68c0 26 7 35 21 51c15 17 32 27 58 32c7 2 14 7 14 11z"/></g><g id="E0A4-n11fns7f"><path transform="scale(1,-1)" d="M0 -39c0 68 73 172 200 172c66 0 114 -37 114 -95c0 -84 -106 -171 -218 -171c-64 0 -96 30 -96 94z"/></g></defs><style type="text/css">#n11fns7f g.page-margin {font-family:Times,serif;}#n11fns7f g.ending, #n11fns7f g.fing, #n11fns7f g.reh, #n11fns7f g.tempo {font-weight:bold;}#n11fns7f g.dir, #n11fns7f g.dynam, #n11fns7f g.mNum {font-style:italic;}#n11fns7f g.label {font-weight:normal;}#n11fns7f path {stroke:currentColor}</style><svg class="definition-scale" color="black" viewBox="0 0 14000 2100"><g class="page-margin" transform="translate(0, 150)"><g data-id="i9tpvaw" data-class="mdiv" class="mdiv pageMilestone"/><g data-id="jeri2nb" data-class="score" class="score pageMilestone"/><g data-id="g1gae9vk" data-class="system" class="system"><g data-id="l1tgefgg" data-class="section" class="section systemMilestone"/><g data-id="oi50hga" data-class="measure" class="measure"><g data-id="x146kwmu" data-class="staff" class="staff"><path d="M0 540 L4294 540" stroke-width="13"/><path d="M0 720 L4294 720" stroke-width="13"/><path d="M0 900 L4294 900" stroke-width="13"/><path d="M0 1080 L4294 1080" stroke-width="13"/><path d="M0 1260 L4294 1260" stroke-width="13"/><g data-id="y17l2ii2" data-class="clef" class="clef"><use href="#E050-n11fns7f" transform="translate(90, 1080) scale(0.72, 0.72)"/></g><g data-id="z1019zpa" data-class="keySig" class="keySig"/><g data-id="a1qns9ho" data-class="meterSig" class="meterSig"><use href="#E08A-n11fns7f" transform="translate(735, 900) scale(0.72, 0.72)"/></g><g data-id="ywmeis1" data-class="layer" class="layer"><g data-id="hi87nii" data-class="note" class="note"><g data-class="notehead" class="notehead"><use href="#E0A4-n11fns7f" transform="translate(1312, 1080) scale(0.72, 0.72)"/></g><g data-id="rdjfjyk" data-class="stem" class="stem"><path d="M1529 1052 L1529 450" stroke-width="18"/></g></g><g data-id="d9ynbrr" data-class="beam" class="beam"><polygon stroke-opacity="1" fill-opacity="1" points="2207,360 2802,270 2802,360 2207,450"/><polygon stroke-opacity="1" fill-opacity="1" points="2576,438 2802,405 2802,495 2576,528"/><g data-id="i1efxizf" data-class="note" class="note"><g data-class="notehead" class="notehead"><use href="#E0A4-n11fns7f" transform="translate(1999, 990) scale(0.72, 0.72)"/></g><g data-id="t1mpv2bz" data-class="dots" class="dots"><ellipse cx="2315" cy="990" rx="36" ry="36" fill-opacity="1" stroke-opacity="1"/></g><g data-id="svltlda" data-class="stem" class="stem"><path d="M2216 962 L2216 378" stroke-width="18"/></g></g><g data-id="j1yf9znl" data-class="note" class="note"><g data-class="notehead" class="notehead"><use href="#E0A4-n11fns7f" transform="translate(2576, 900) scale(0.72, 0.72)"/></g><g data-id="ukzh0m" data-class="stem" class="stem"><path d="M2793 872 L2793 288" stroke-width="18"/></g></g></g><g data-id="ksh5ujz" data-class="note" class="note"><g data-class="notehead" class="notehead"><use href="#E0A4-n11fns7f" transform="translate(2907, 810) scale(0.72, 0.72)"/></g><g data-id="vgq3xcu" data-class="stem" class="stem"><path d="M2916 838 L2916 1440" stroke-width="18"/></g></g><g data-id="l1papazi" data-class="note" class="note"><g data-class="notehead" class="notehead"><use href="#E0A4-n11fns7f" transform="translate(3594, 630) scale(0.72, 0.72)"/></g><g data-id="wmagg4w" data-class="stem" class="stem"><path d="M3603 658 L3603 1260" stroke-width="18"/></g></g></g></g><g data-id="w1f1uk7h" data-class="barLine" class="barLine"><path d="M4281 540 L4281 1260" stroke-width="27"/></g></g><g data-id="xco37e5" data-class="measure" class="measure"><g data-id="zb0tq0m" data-class="staff" class="staff"><path d="M4294 540 L7661 540" stroke-width="13"/><path d="M4294 720 L7661 720" stroke-width="13"/><path d="M4294 900 L7661 900" stroke-width="13"/><path d="M4294 1080 L7661 1080" stroke-width="13"/><path d="M4294 1260 L7661 1260" stroke-width="13"/><g data-id="ad5gaj0" data-class="layer" class="layer"><g data-id="e1lr44t3" data-class="beam" class="beam"><polygon stroke-opacity="1" fill-opacity="1" points="4483,1350 5845,1530 5845,1440 4483,1260"/><g data-id="m9zrf1l" data-class="note" class="note"><g data-class="notehead" class="notehead"><use href="#E0A4-n11fns7f" transform="translate(4483, 720) scale(0.72, 0.72)"/></g><g data-id="xacn75f" data-class="stem" class="stem"><path d="M4492 748 L4492 1332" stroke-width="18"/></g></g><g data-id="n1446ese" data-class="note" class="note"><g data-class="notehead" class="notehead"><use href="#E0A4-n11fns7f" transform="translate(4931, 810) scale(0.72, 0.72)"/></g><g data-id="y1hnxmsc" data-class="stem" class="stem"><path d="M4940 838 L4940 1392" stroke-width="18"/></g></g><g data-id="odpkdax" data-class="note" class="note"><g data-class="notehead" class="notehead"><use href="#E0A4-n11fns7f" transform="translate(5379, 900) scale(0.72, 0.72)"/></g><g data-id="z1hsx73y" data-class="stem" class="stem"><path d="M5388 928 L5388 1452" stroke-width="18"/></g></g><g data-id="phe0x3n" data-class="note" class="note"><g data-class="notehead" class="notehead"><use href="#E0A4-n11fns7f" transform="translate(5827, 990) scale(0.72, 0.72)"/></g><g data-id="a12n0mlm" data-class="stem" class="stem"><path d="M5836 1018 L5836 1512" stroke-width="18"/></g></g></g><g data-id="q1ryootj" data-class="note" class="note"><g data-class="notehead" class="notehead"><use href="#E0A4-n11fns7f" transform="translate(6275, 990) scale(0.72, 0.72)"/></g><g data-id="bk25f9o" data-class="stem" class="stem"><path d="M6492 962 L6492 360" stroke-width="18"/></g></g><g data-id="rcnojkm" data-class="note" class="note"><g data-class="notehead" class="notehead"><use href="#E0A4-n11fns7f" transform="translate(6962, 1080) scale(0.72, 0.72)"/></g><g data-id="cpxog4h" data-class="stem" class="stem"><path d="M7179 1052 L7179 450" stroke-width="18"/></g></g></g></g><g data-id="f14amh56" data-class="barLine" class="barLine"><path d="M7648 540 L7648 1260" stroke-width="27"/></g></g><g data-id="g10h6rw3" data-class="measure" class="measure"><g data-id="b15scpav" data-class="staff" class="staff"><path d="M7661 540 L10832 540" stroke-width="13"/><path d="M7661 720 L10832 720" stroke-width="13"/><path d="M7661 900 L10832 900" stroke-width="13"/><path d="M7661 1080 L10832 1080" stroke-width="13"/><path d="M7661 1260 L10832 1260" stroke-width="13"/><g data-id="coh1etd" data-class="layer" class="layer"><g data-id="sibi5c1" data-class="note" class="note"><g data-class="notehead" class="notehead"><use href="#E0A4-n11fns7f" transform="translate(7850, 1080) scale(0.72, 0.72)"/></g><g data-id="dins0bk" data-class="stem" class="stem"><path d="M8067 1052 L8067 450" stroke-width="18"/></g></g><g data-id="f192ve6h" data-class="beam" class="beam"><polygon stroke-opacity="1" fill-opacity="1" points="8745,270 9340,450 9340,540 8745,360"/><polygon stroke-opacity="1" fill-opacity="1" points="9114,521 9340,585 9340,675 9114,611"/><g data-id="t7dxa2n" data-class="note" class="note"><g data-class="notehead" class="notehead"><use href="#E0A4-n11fns7f" transform="translate(8537, 810) scale(0.72, 0.72)"/></g><g data-id="f1udj3mp" data-class="dots" class="dots"><ellipse cx="8853" cy="810" rx="36" ry="36" fill-opacity="1" stroke-opacity="1"/></g><g data-id="eep3nh3" data-class="stem" class="stem"><path d="M8754 782 L8754 288" stroke-width="18"/></g></g><g data-id="u3z4tkj" data-class="note" class="note"><g data-class="notehead" class="notehead"><use href="#E0A4-n11fns7f" transform="translate(9114, 1260) scale(0.72, 0.72)"/></g><g data-id="g1thgass" data-class="stem" class="stem"><path d="M9331 1232 L9331 468" stroke-width="18"/></g></g></g><g data-id="vxoh5i3" data-class="note" class="note"><g data-class="notehead" class="notehead"><use href="#E0A4-n11fns7f" transform="translate(9445, 1350) scale(0.72, 0.72)"/></g><g data-id="ha8muhi" data-class="stem" class="stem"><path d="M9662 1322 L9662 720" stroke-width="18"/></g></g><g data-id="wqmadlq" data-class="note" class="note"><g data-class="notehead" class="notehead"><use href="#E0A4-n11fns7f" transform="translate(10132, 1260) scale(0.72, 0.72)"/></g><g data-id="iwyfvwe" data-class="stem" class="stem"><path d="M10349 1232 L10349 630" stroke-width="18"/></g></g></g></g><g data-id="oyxchfn" data-class="barLine" class="barLine"><path d="M10819 540 L10819 1260" stroke-width="27"/></g></g><g data-id="p10sd01s" data-class="measure" class="measure"><g data-id="dvl2dx7" data-class="staff" class="staff"><path d="M10832 540 L14003 540" stroke-width="13"/><path d="M10832 720 L14003 720" stroke-width="13"/><path d="M10832 900 L14003 900" stroke-width="13"/><path d="M10832 1080 L14003 1080" stroke-width="13"/><path d="M10832 1260 L14003 1260" stroke-width="13"/><g data-id="e1ocwtn4" data-class="layer" class="layer"><g data-id="xjcvhw1" data-class="note" class="note"><g data-class="notehead" class="notehead"><use href="#E0A4-n11fns7f" transform="translate(11021, 1170) scale(0.72, 0.72)"/></g><g data-id="j1j9vd9g" data-class="stem" class="stem"><path d="M11238 1142 L11238 540" stroke-width="18"/></g></g><g data-id="gxzhvvu" data-class="beam" class="beam"><polygon stroke-opacity="1" fill-opacity="1" points="11916,360 12511,450 12511,540 11916,450"/><polygon stroke-opacity="1" fill-opacity="1" points="12285,553 12511,585 12511,675 12285,643"/><g data-id="y1jz2o29" data-class="note" class="note"><g data-class="notehead" class="notehead"><use href="#E0A4-n11fns7f" transform="translate(11708, 990) scale(0.72, 0.72)"/></g><g data-id="l1h407gd" data-class="dots" class="dots"><ellipse cx="12024" cy="990" rx="36" ry="36" fill-opacity="1" stroke-opacity="1"/></g><g data-id="k1976mtv" data-class="stem" class="stem"><path d="M11925 962 L11925 378" stroke-width="18"/></g></g><g data-id="z1ggub2v" data-class="note" class="note"><g data-class="notehead" class="notehead"><use href="#E0A4-n11fns7f" transform="translate(12285, 1080) scale(0.72, 0.72)"/></g><g data-id="mv1frm6" data-class="stem" class="stem"><path d="M12502 1052 L12502 468" stroke-width="18"/></g></g></g><g data-id="as20yf9" data-class="note" class="note"><g data-class="notehead" class="notehead"><use href="#E0A4-n11fns7f" transform="translate(12616, 1170) scale(0.72, 0.72)"/></g><g data-id="n1uscx9u" data-class="stem" class="stem"><path d="M12833 1142 L12833 540" stroke-width="18"/></g></g><g data-id="bsghl0v" data-class="note" class="note"><g data-class="notehead" class="notehead"><use href="#E0A4-n11fns7f" transform="translate(13303, 1260) scale(0.72, 0.72)"/></g><g data-id="o9j5aox" data-class="stem" class="stem"><path d="M13520 1232 L13520 630" stroke-width="18"/></g></g></g></g><g data-id="x1cmrvu2" data-class="barLine" class="barLine"><path d="M13990 540 L13990 1260" stroke-width="27"/></g></g></g></g></svg></svg>