<svg viewBox="0 0 560 84" version="1.1" xmlns="http://www.w3.org/2000/svg" xmlns:xlink="http://www.w3.org/1999/xlink" overflow="visible" id="uidwz3a"><desc>Engraved by Verovio 5.6.0-85e7620</desc><defs><g id="E050-uidwz3a"><path transform="scale(1,-1)" d="M441 -245c-23 -4 -48 -6 -76 -6c-59 0 -102 7 -130 20c-88 42 -150 93 -187 154c-26 44 -43 103 -48 176c0 6 -1 13 -1 19c0 54 15 111 45 170c29 57 65 106 110 148s96 85 153 127c-3 16 -8 46 -13 92c-4 43 -5 73 -5 89c0 117 16 172 69 257c34 54 64 82 89 82 c21 0 43 -30 69 -92s39 -115 41 -159v-15c0 -109 -21 -162 -67 -241c-13 -20 -63 -90 -98 -118c-13 -9 -25 -19 -37 -29l31 -181c8 1 18 2 28 2c58 0 102 -12 133 -35c59 -43 92 -104 98 -184c1 -7 1 -15 1 -22c0 -123 -87 -209 -181 -248c8 -57 17 -110 25 -162 c5 -31 6 -58 6 -80c0 -30 -5 -53 -14 -70c-35 -64 -88 -99 -158 -103c-5 0 -11 -1 -16 -1c-37 0 -72 10 -108 27c-50 24 -77 59 -80 105v11c0 29 7 55 20 76c18 28 45 42 79 44h6c49 0 93 -42 97 -87v-9c0 -51 -34 -86 -105 -106c17 -24 51 -36 102 -36c62 0 116 43 140 85 c9 16 13 41 13 74c0 20 -1 42 -5 67c-8 53 -18 106 -26 159zM461 939c-95 0 -135 -175 -135 -286c0 -24 2 -48 5 -71c50 39 92 82 127 128c40 53 60 100 60 140v8c-4 53 -22 81 -55 81h-2zM406 119l54 -326c73 25 110 78 110 161c0 7 0 15 -1 23c-7 95 -57 142 -151 142h-12 zM382 117c-72 -2 -128 -47 -128 -120v-7c2 -46 43 -99 75 -115c-3 -2 -7 -5 -10 -10c-70 33 -116 88 -123 172v11c0 68 44 126 88 159c23 17 49 29 78 36l-29 170c-21 -13 -52 -37 -92 -73c-50 -44 -86 -84 -109 -119c-45 -69 -67 -130 -67 -182v-13c5 -68 35 -127 93 -176 s125 -73 203 -73c25 0 50 3 75 9c-19 111 -36 221 -54 331z"/></g><g id="E262-uidwz3a"><path transform="scale(1,-1)" d="M136 186v169h17v-164l44 14v-91l-44 -14v-165l44 12v-91l-44 -13v-155h-17v150l-76 -22v-155h-17v149l-43 -13v90l43 14v167l-43 -14v92l43 13v169h17v-163zM60 73v-167l76 22v168z"/></g><g id="E082-uidwz3a"><path transform="scale(1,-1)" d="M124 -185c-18 0 -55 -14 -65 -65h-36l-3 30c0 25 6 45 18 63c11 19 22 30 39 43l121 82l37 29c15 11 27 29 38 54c12 24 18 47 18 70c0 40 -19 88 -94 88c-25 0 -32 0 -50 -8c-14 -5 -23 -12 -26 -22c3 -9 7 -15 10 -18l24 -17c12 -7 17 -11 27 -21c5 -7 7 -16 7 -27 c0 -12 0 -57 -79 -74c-30 0 -76 26 -76 94c0 66 81 135 197 135c72 0 181 -32 181 -150c0 -53 -32 -95 -113 -133l-91 -41c-26 -11 -45 -23 -57 -37l49 7c84 0 115 -41 148 -41c20 0 33 20 39 61h35c0 -152 -68 -168 -114 -168c-17 0 -65 0 -79 7h10l-28 17 c-49 37 -69 40 -87 42z"/></g><g id="E084-uidwz3a"><path transform="scale(1,-1)" d="M20 -78c84 97 114 180 134 329h170c-13 -32 -82 -132 -99 -151l-84 -97c-33 -36 -59 -63 -80 -81h162v102l127 123v-225h57v-39h-57v-34c0 -43 19 -65 57 -65v-34h-244v36c48 0 60 26 60 70v27h-203v39z"/></g><g id="E0A4-uidwz3a"><path transform="scale(1,-1)" d="M0 -39c0 68 73 172 200 172c66 0 114 -37 114 -95c0 -84 -106 -171 -218 -171c-64 0 -96 30 -96 94z"/></g><g id="E261-uidwz3a"><path transform="scale(1,-1)" d="M0 -188v539h18v-191l139 22v-533h-17v186zM18 -100l122 17v176l-122 -19v-174z"/></g></defs><style type="text/css">#uidwz3a g.page-margin {font-family:Times,serif;}#uidwz3a g.ending, #uidwz3a g.fing, #uidwz3a g.reh, #uidwz3a g.tempo {font-weight:bold;}#uidwz3a g.dir, #uidwz3a g.dynam, #uidwz3a g.mNum {font-style:italic;}#uidwz3a g.label {font-weight:normal;}#uidwz3a path {stroke:currentColor}</style><svg class="definition-scale" color="black" viewBox="0 0 14000 2100"><g class="page-margin" transform="translate(0, 150)"><g data-id="ftdzgoj" data-class="mdiv" class="mdiv pageMilestone"/><g data-id="g1edarin" data-class="score" class="score pageMilestone"/><g data-id="i9nx8tl" data-class="system" class="system"><g data-id="iky9ahu" data-class="section" class="section systemMilestone"/><g data-id="vzdwy29" data-class="measure" class="measure"><g data-id="u1mli63c" data-class="staff" class="staff"><path d="M0 540 L3443 540" stroke-width="13"/><path d="M0 720 L3443 720" stroke-width="13"/><path d="M0 900 L3443 900" stroke-width="13"/><path d="M0 1080 L3443 1080" stroke-width="13"/><path d="M0 1260 L3443 1260" stroke-width="13"/><g data-id="oftov3g" data-class="clef" class="clef"><use href="#E050-uidwz3a" transform="translate(90, 1080) scale(0.72, 0.72)"/></g><g data-id="pi376uk" data-class="keySig" class="keySig"><g data-id="qqm1f0s" data-class="keyAccid" class="keyAccid"><use href="#E262-uidwz3a" transform="translate(735, 540) scale(0.72, 0.72)"/></g><g data-id="ry5idff" data-class="keyAccid" class="keyAccid"><use href="#E262-uidwz3a" transform="translate(913, 810) scale(0.72, 0.72)"/></g></g><g data-id="sc11221" data-class="meterSig" class="meterSig"><use href="#E082-uidwz3a" transform="translate(1220, 720) scale(0.72, 0.72)"/><use href="#E084-uidwz3a" transform="translate(1225, 1080) scale(0.72, 0.72)"/></g><g data-id="v6ywnpz" data-class="layer" class="layer"><g data-id="oc0fl66" data-class="beam" class="beam"><polygon stroke-opacity="1" fill-opacity="1" points="2045,495 3246,495 3246,585 2045,585"/><polygon stroke-opacity="1" fill-opacity="1" points="2613,630 3246,630 3246,720 2613,720"/><g data-id="olr546k" data-class="note" class="note"><g data-class="notehead" class="notehead"><use href="#E0A4-uidwz3a" transform="translate(1837, 1170) scale(0.72, 0.72)"/></g><g data-id="q1rqreni" data-class="stem" class="stem"><path d="M2054 1142 L2054 513" stroke-width="18"/></g><g data-id="vj4ldkp" data-class="accid" class="accid"/></g><g data-id="pfk9g6k" data-class="note" class="note"><g data-class="notehead" class="notehead"><use href="#E0A4-uidwz3a" transform="translate(2396, 1080) scale(0.72, 0.72)"/></g><g data-id="r7gb9nc" data-class="stem" class="stem"><path d="M2613 1052 L2613 513" stroke-width="18"/></g></g><g data-id="q1hbsltr" data-class="note" class="note"><g data-class="notehead" class="notehead"><use href="#E0A4-uidwz3a" transform="translate(3020, 1080) scale(0.72, 0.72)"/></g><g data-id="s1dl6qkr" data-class="stem" class="stem"><path d="M3237 1052 L3237 513" stroke-width="18"/></g><g data-id="miuolgy" data-class="accid" class="accid"><use href="#E262-uidwz3a" transform="translate(2834, 1080) scale(0.72, 0.72)"/></g></g></g></g></g><g data-id="da995cd" data-class="barLine" class="barLine"><path d="M3430 540 L3430 1260" stroke-width="27"/></g></g><g data-id="eqr670w" data-class="measure" class="measure"><g data-id="wme51b9" data-class="staff" class="staff"><path d="M3443 540 L7035 540" stroke-width="13"/><path d="M3443 720 L7035 720" stroke-width="13"/><path d="M3443 900 L7035 900" stroke-width="13"/><path d="M3443 1080 L7035 1080" stroke-width="13"/><path d="M3443 1260 L7035 1260" stroke-width="13"/><g data-id="xlfd5h5" data-class="layer" class="layer"><g data-id="p1iux945" data-class="beam" class="beam"><polygon stroke-opacity="1" fill-opacity="1" points="3667,1665 5059,1620 5059,1530 3667,1575"/><polygon stroke-opacity="1" fill-opacity="1" points="3667,1530 4069,1517 4069,1427 3667,1440"/><polygon stroke-opacity="1" fill-opacity="1" points="4069,1517 4658,1497 4658,1407 4069,1427"/><polygon stroke-opacity="1" fill-opacity="1" points="4658,1497 5059,1485 5059,1395 4658,1407"/><g data-id="r1lm4lr4" data-class="note" class="note"><g data-class="notehead" class="notehead"><use href="#E0A4-uidwz3a" transform="translate(3667, 990) scale(0.72, 0.72)"/></g><g data-id="t1ss3doa" data-class="stem" class="stem"><path d="M3676 1018 L3676 1647" stroke-width="18"/></g></g><g data-id="s178qhsr" data-class="note" class="note"><g data-class="notehead" class="notehead"><use href="#E0A4-uidwz3a" transform="translate(4060, 540) scale(0.72, 0.72)"/></g><g data-id="u7y1dz" data-class="stem" class="stem"><path d="M4069 568 L4069 1634" stroke-width="18"/></g><g data-id="w13mrzxj" data-class="accid" class="accid"/></g><g data-id="tly8wv6" data-class="note" class="note"><g data-class="notehead" class="notehead"><use href="#E0A4-uidwz3a" transform="translate(4649, 630) scale(0.72, 0.72)"/></g><g data-id="v1iwdk6l" data-class="stem" class="stem"><path d="M4658 658 L4658 1614" stroke-width="18"/></g><g data-id="nglxaof" data-class="accid" class="accid"><use href="#E261-uidwz3a" transform="translate(4491, 630) scale(0.72, 0.72)"/></g></g><g data-id="uayh31i" data-class="note" class="note"><g data-class="notehead" class="notehead"><use href="#E0A4-uidwz3a" transform="translate(5041, 810) scale(0.72, 0.72)"/></g><g data-id="w1ec3xyz" data-class="stem" class="stem"><path d="M5050 838 L5050 1602" stroke-width="18"/></g><g data-id="xoy6cqi" data-class="accid" class="accid"/></g></g><g data-id="q1jugwoz" data-class="beam" class="beam"><polygon stroke-opacity="1" fill-opacity="1" points="5642,45 6838,90 6838,180 5642,135"/><polygon stroke-opacity="1" fill-opacity="1" points="5642,180 6044,196 6044,286 5642,270"/><polygon stroke-opacity="1" fill-opacity="1" points="6044,196 6436,210 6436,300 6044,286"/><polygon stroke-opacity="1" fill-opacity="1" points="6436,210 6838,225 6838,315 6436,300"/><g data-id="v1uf1gtl" data-class="note" class="note"><g data-class="notehead" class="notehead"><use href="#E0A4-uidwz3a" transform="translate(5434, 720) scale(0.72, 0.72)"/></g><g data-id="xpuzcrx" data-class="stem" class="stem"><path d="M5651 692 L5651 63" stroke-width="18"/></g></g><g data-id="w196f733" data-class="note" class="note"><g data-class="notehead" class="notehead"><use href="#E0A4-uidwz3a" transform="translate(5827, 1170) scale(0.72, 0.72)"/></g><g data-id="yb15nf8" data-class="stem" class="stem"><path d="M6044 1142 L6044 79" stroke-width="18"/></g><g data-id="yrpxj95" data-class="accid" class="accid"/></g><g data-id="x4t5ecc" data-class="note" class="note"><g data-class="notehead" class="notehead"><use href="#E0A4-uidwz3a" transform="translate(6219, 810) scale(0.72, 0.72)"/></g><g data-id="z1fhgr3p" data-class="stem" class="stem"><path d="M6436 782 L6436 93" stroke-width="18"/></g><g data-id="z1krjqxi" data-class="accid" class="accid"/></g><g data-id="yx47x9x" data-class="note" class="note"><g data-class="notehead" class="notehead"><use href="#E0A4-uidwz3a" transform="translate(6612, 900) scale(0.72, 0.72)"/></g><g data-id="az6aksi" data-class="stem" class="stem"><path d="M6829 872 L6829 108" stroke-width="18"/></g></g></g></g></g><g data-id="m1whb4ix" data-class="barLine" class="barLine"><path d="M7022 540 L7022 1260" stroke-width="27"/></g></g><g data-id="nuajv99" data-class="measure" class="measure"><g data-id="yfojjiq" data-class="staff" class="staff"><path d="M7035 540 L9752 540" stroke-width="13"/><path d="M7035 720 L9752 720" stroke-width="13"/><path d="M7035 900 L9752 900" stroke-width="13"/><path d="M7035 1080 L9752 1080" stroke-width="13"/><path d="M7035 1260 L9752 1260" stroke-width="13"/><g data-id="z1dzkgzz" data-class="layer" class="layer"><g data-id="r1mnayf6" data-class="beam" class="beam"><polygon stroke-opacity="1" fill-opacity="1" points="7467,360 8044,450 8044,540 7467,450"/><g data-id="zt20sxw" data-class="note" class="note"><g data-class="notehead" class="notehead"><use href="#E0A4-uidwz3a" transform="translate(7259, 990) scale(0.72, 0.72)"/></g><g data-id="b8fjosp" data-class="stem" class="stem"><path d="M7476 962 L7476 378" stroke-width="18"/></g></g><g data-id="a1do70by" data-class="note" class="note"><g data-class="notehead" class="notehead"><use href="#E0A4-uidwz3a" transform="translate(7818, 1080) scale(0.72, 0.72)"/></g><g data-id="c11qvr3m" data-class="stem" class="stem"><path d="M8035 1052 L8035 468" stroke-width="18"/></g></g></g><g data-id="sa2j19t" data-class="beam" class="beam"><polygon stroke-opacity="1" fill-opacity="1" points="8585,540 9555,540 9555,630 8585,630"/><polygon stroke-opacity="1" fill-opacity="1" points="9153,675 9555,675 9555,765 9153,765"/><g data-id="b1bgfy0r" data-class="note" class="note"><g data-class="notehead" class="notehead"><use href="#E0A4-uidwz3a" transform="translate(8377, 1170) scale(0.72, 0.72)"/></g><g data-id="d1kmwi97" data-class="stem" class="stem"><path d="M8594 1142 L8594 558" stroke-width="18"/></g><g data-id="a356tr7" data-class="accid" class="accid"/></g><g data-id="c1jwxr41" data-class="note" class="note"><g data-class="notehead" class="notehead"><use href="#E0A4-uidwz3a" transform="translate(8936, 1170) scale(0.72, 0.72)"/></g><g data-id="ekvgl49" data-class="stem" class="stem"><path d="M9153 1142 L9153 558" stroke-width="18"/></g><g data-id="b18m67py" data-class="accid" class="accid"/></g><g data-id="d14xfjwv" data-class="note" class="note"><g data-class="notehead" class="notehead"><use href="#E0A4-uidwz3a" transform="translate(9329, 1260) scale(0.72, 0.72)"/></g><g data-id="f30mfyn" data-class="stem" class="stem"><path d="M9546 1232 L9546 558" stroke-width="18"/></g></g></g></g></g><g data-id="vn9iwdb" data-class="barLine" class="barLine"><path d="M9739 540 L9739 1260" stroke-width="27"/></g></g><g data-id="wkyewi6" data-class="measure" class="measure"><g data-id="apftms7" data-class="staff" class="staff"><path d="M9752 540 L12921 540" stroke-width="13"/><path d="M9752 720 L12921 720" stroke-width="13"/><path d="M9752 900 L12921 900" stroke-width="13"/><path d="M9752 1080 L12921 1080" stroke-width="13"/><path d="M9752 1260 L12921 1260" stroke-width="13"/><g data-id="b1hb429e" data-class="layer" class="layer"><g data-id="t1tljfrs" data-class="beam" class="beam"><polygon stroke-opacity="1" fill-opacity="1" points="10184,360 11380,540 11380,630 10184,450"/><polygon stroke-opacity="1" fill-opacity="1" points="10184,495 10586,556 10586,646 10184,585"/><polygon stroke-opacity="1" fill-opacity="1" points="10586,556 10978,615 10978,705 10586,646"/><polygon stroke-opacity="1" fill-opacity="1" points="10978,615 11380,675 11380,765 10978,705"/><g data-id="ebj0r49" data-class="note" class="note"><g data-class="notehead" class="notehead"><use href="#E0A4-uidwz3a" transform="translate(9976, 990) scale(0.72, 0.72)"/></g><g data-id="g1mt8ejl" data-class="stem" class="stem"><path d="M10193 962 L10193 378" stroke-width="18"/></g></g><g data-id="fpy4qko" data-class="note" class="note"><g data-class="notehead" class="notehead"><use href="#E0A4-uidwz3a" transform="translate(10369, 1170) scale(0.72, 0.72)"/></g><g data-id="h1h1f29y" data-class="stem" class="stem"><path d="M10586 1142 L10586 439" stroke-width="18"/></g><g data-id="cd5wwcc" data-class="accid" class="accid"/></g><g data-id="g1inq2yt" data-class="note" class="note"><g data-class="notehead" class="notehead"><use href="#E0A4-uidwz3a" transform="translate(10761, 1350) scale(0.72, 0.72)"/></g><g data-id="i1dc5v49" data-class="stem" class="stem"><path d="M10978 1322 L10978 498" stroke-width="18"/></g></g><g data-id="h5uornw" data-class="note" class="note"><g data-class="notehead" class="notehead"><use href="#E0A4-uidwz3a" transform="translate(11154, 1260) scale(0.72, 0.72)"/></g><g data-id="jx10ir4" data-class="stem" class="stem"><path d="M11371 1232 L11371 558" stroke-width="18"/></g></g></g><g data-id="u1l6fbon" data-class="beam" class="beam"><polygon stroke-opacity="1" fill-opacity="1" points="11755,495 12724,495 12724,585 11755,585"/><polygon stroke-opacity="1" fill-opacity="1" points="12323,630 12724,630 12724,720 12323,720"/><g data-id="i34uxtk" data-class="note" class="note"><g data-class="notehead" class="notehead"><use href="#E0A4-uidwz3a" transform="translate(11547, 1170) scale(0.72, 0.72)"/></g><g data-id="kqtija0" data-class="stem" class="stem"><path d="M11764 1142 L11764 513" stroke-width="18"/></g><g data-id="dh49l13" data-class="accid" class="accid"/></g><g data-id="jpagutb" data-class="note" class="note"><g data-class="notehead" class="notehead"><use href="#E0A4-uidwz3a" transform="translate(12106, 1080) scale(0.72, 0.72)"/></g><g data-id="l1pl7xco" data-class="stem" class="stem"><path d="M12323 1052 L12323 513" stroke-width="18"/></g></g><g data-id="k467u4g" data-class="note" class="note"><g data-class="notehead" class="notehead"><use href="#E0A4-uidwz3a" transform="translate(12498, 1260) scale(0.72, 0.72)"/></g><g data-id="m1b488kv" data-class="stem" class="stem"><path d="M12715 1232 L12715 513" stroke-width="18"/></g></g></g></g></g><g data-id="e1kd22u7" data-class="barLine" class="barLine"><path d="M12908 540 L12908 1260" stroke-width="27"/></g></g><g data-id="f1rf9d3x" data-class="measure" class="measure"><g data-id="cr42mlu" data-class="staff" class="staff"><path d="M12921 540 L14002 540" stroke-width="13"/><path d="M12921 720 L14002 720" stroke-width="13"/><path d="M12921 900 L14002 900" stroke-width="13"/><path d="M12921 1080 L14002 1080" stroke-width="13"/><path d="M12921 1260 L14002 1260" stroke-width="13"/><g data-id="dtik6kw" data-class="layer" class="layer"><g data-id="l1gmxiu1" data-class="note" class="note"><g data-class="notehead" class="notehead"><use href="#E0A4-uidwz3a" transform="translate(13145, 1350) scale(0.72, 0.72)"/></g><g data-id="n11s32su" data-class="stem" class="stem"><path d="M13362 1322 L13362 720" stroke-width="18"/></g></g></g></g><g data-id="n1whd8an" data-class="barLine" class="barLine"/></g><g data-id="llxt6zp" data-class="systemMilestoneEnd" class="systemMilestoneEnd iky9ahu"/></g><g data-id="m15ln7zw" data-class="pageMilestoneEnd" class="pageMilestoneEnd g1edarin"/><g data-id="n1qz10dr" data-class="pageMilestoneEnd" class="pageMilestoneEnd ftdzgoj"/></g></svg></svg>