<svg viewBox="0 0 560 88" version="1.1" xmlns="http://www.w3.org/2000/svg" xmlns:xlink="http://www.w3.org/1999/xlink" overflow="visible" id="m17lag7i"><desc>Engraved by Verovio 5.6.0-85e7620</desc><defs><g id="E062-m17lag7i"><path transform="scale(1,-1)" d="M582 -120c0 32 26 58 58 58s58 -26 58 -58s-26 -58 -58 -58s-58 26 -58 58zM582 120c0 32 26 58 58 58s58 -26 58 -58s-26 -58 -58 -58s-58 26 -58 58zM158 96c51 0 73 -14 88 -49l16 -39c0 -17 -2 -30 -7 -40c-3 -11 -10 -21 -19 -31c-17 -18 -49 -43 -84 -43 c-55 0 -77 13 -112 44c-24 21 -35 55 -35 100c0 46 14 81 32 112c30 52 71 79 137 93l36 6l26 2c154 0 235 -68 274 -182c11 -32 18 -68 18 -107c0 -103 -26 -182 -68 -250c-89 -145 -234 -230 -412 -288l-30 -5c-9 0 -14 3 -14 8c3 10 5 11 10 16c35 15 70 30 96 44l78 43 c96 57 162 136 197 258c9 33 17 60 22 100c3 22 5 35 6 39c-7 69 -16 115 -23 140s-4 22 -16 40c-8 12 -19 23 -31 34c-24 21 -62 44 -118 44c-48 0 -84 -8 -113 -28c-28 -19 -42 -44 -42 -73v-16c2 -5 3 -9 4 -11c24 22 52 39 84 39z"/></g><g id="E260-m17lag7i"><path transform="scale(1,-1)" d="M20 110c32 16 54 27 93 27c26 0 35 -3 54 -13c13 -7 24 -20 27 -38l4 -25c0 -28 -16 -57 -45 -89c-23 -25 -39 -44 -65 -68l-88 -79v644h20v-359zM90 106c-32 0 -48 -10 -70 -29v-194c31 31 54 59 71 84c21 32 32 59 32 84c0 9 1 16 1 20c0 14 -3 21 -11 30l-8 3z"/></g><g id="E08A-m17lag7i"><path transform="scale(1,-1)" d="M340 179c-9 24 -56 41 -89 41c-46 0 -81 -28 -100 -58c-17 -28 -25 -78 -25 -150c0 -65 2 -111 8 -135c8 -31 18 -49 40 -67c20 -17 43 -25 70 -25c54 0 92 36 115 75c14 25 23 54 28 88h27c0 -63 -24 -105 -58 -141c-35 -38 -82 -56 -140 -56c-45 0 -83 13 -115 39 c-57 45 -101 130 -101 226c0 59 33 127 68 163c36 37 97 72 160 72c36 0 93 -21 121 -40c11 -8 23 -17 33 -30c19 -23 27 -48 27 -76c0 -51 -35 -88 -86 -88c-43 0 -76 27 -76 68c0 26 7 35 21 51c15 17 32 27 58 32c7 2 14 7 14 11z"/></g><g id="E0A4-m17lag7i"><path transform="scale(1,-1)" d="M0 -39c0 68 73 172 200 172c66 0 114 -37 114 -95c0 -84 -106 -171 -218 -171c-64 0 -96 30 -96 94z"/></g><g id="E07A-m17lag7i"><path transform="scale(1,-1)" d="M343 -190c-18 -3 -37 -5 -59 -5c-46 0 -79 6 -101 16c-68 33 -117 72 -146 119c-20 34 -33 80 -37 137c0 5 -1 10 -1 15c0 42 12 86 35 132c23 44 51 82 86 115s75 65 119 98c-2 12 -7 36 -11 72c-3 33 -3 57 -3 69c0 91 12 134 53 200c26 42 50 63 69 63 c16 0 34 -23 54 -71s30 -90 32 -124v-11c0 -85 -16 -126 -52 -187c-10 -16 -49 -70 -76 -92c-10 -7 -20 -15 -29 -23l24 -140c6 1 14 1 22 1c45 0 79 -9 103 -27c46 -33 71 -81 76 -143c1 -5 1 -12 1 -17c0 -96 -68 -163 -141 -193c6 -44 14 -86 20 -126c4 -24 4 -45 4 -62 c0 -23 -3 -41 -10 -54c-27 -50 -69 -77 -123 -80c-4 0 -9 -1 -13 -1c-29 0 -56 8 -84 21c-39 19 -60 46 -62 82v8c0 23 6 43 16 59c14 22 35 32 61 34h5c38 0 72 -32 75 -67v-7c0 -40 -26 -67 -81 -83c13 -19 39 -28 79 -28c48 0 90 34 109 67c7 12 10 31 10 57 c0 16 -1 33 -4 52c-6 41 -14 83 -20 124zM358 730c-74 0 -105 -137 -105 -223c0 -19 2 -37 4 -55c39 30 72 64 99 100c31 41 46 77 46 108v7c-3 41 -16 63 -42 63h-2zM315 92l42 -253c57 19 86 61 86 125c0 5 0 12 -1 18c-5 74 -44 110 -117 110h-10zM297 91 c-56 -2 -100 -36 -100 -93v-6c2 -36 34 -77 59 -89c-2 -2 -6 -4 -8 -8c-54 26 -91 69 -96 134v8c0 53 35 98 69 124c18 13 37 23 60 28l-22 132c-16 -10 -41 -29 -72 -57c-39 -34 -66 -65 -84 -92c-35 -54 -52 -102 -52 -142v-10c4 -53 27 -99 72 -137s96 -56 157 -56 c19 0 40 2 59 7c-15 86 -28 172 -42 257z"/></g><g id="E07C-m17lag7i"><path transform="scale(1,-1)" d="M509 -105c0 28 22 51 50 51s51 -23 51 -51s-23 -51 -51 -51s-50 23 -50 51zM509 105c0 28 22 51 50 51s51 -23 51 -51s-23 -51 -51 -51s-50 23 -50 51zM138 84c43 0 63 -11 77 -43l14 -34c0 -16 -2 -27 -6 -35c-2 -9 -8 -17 -17 -27c-22 -24 -49 -38 -73 -38 c-43 0 -63 8 -98 39c-20 18 -31 47 -31 87c0 34 9 65 28 98c26 45 62 69 120 81l32 6l22 1c125 0 203 -51 240 -159c10 -30 15 -61 15 -93c0 -83 -19 -154 -59 -219c-70 -115 -185 -194 -360 -251l-26 -5c-8 0 -13 3 -13 7c2 7 3 8 9 14c47 20 66 30 84 39l68 37 c89 53 143 125 172 226c13 48 17 60 20 87c3 19 4 31 5 34c-5 51 -12 95 -20 123c-8 30 -5 22 -14 35c-6 9 -14 17 -27 29c-29 26 -64 39 -103 39c-44 0 -75 -8 -99 -25c-24 -16 -37 -38 -37 -64v-14c2 -4 3 -7 4 -9c25 23 49 34 73 34z"/></g><g id="E262-m17lag7i"><path transform="scale(1,-1)" d="M136 186v169h17v-164l44 14v-91l-44 -14v-165l44 12v-91l-44 -13v-155h-17v150l-76 -22v-155h-17v149l-43 -13v90l43 14v167l-43 -14v92l43 13v169h17v-163zM60 73v-167l76 22v168z"/></g><g id="E242-m17lag7i"><path transform="scale(1,-1)" d="M206 -748c32 48 49 100 49 149c0 89 -55 168 -168 203c-18 5 -47 9 -87 16v190v190h22c8 0 33 -61 71 -95c4 -3 -2 3 61 -56c62 -58 122 -137 122 -241c0 -32 -7 -65 -17 -96c11 -29 17 -60 17 -94c0 -71 -32 -148 -67 -190c-6 -5 -10 -7 -13 -7s-5 2 -5 5l4 10 c1 3 6 8 11 16zM248 -463c4 18 7 38 7 57c0 105 -80 173 -168 200c-11 3 -27 6 -47 9c9 -17 23 -61 53 -88c4 -3 -2 3 61 -56c36 -33 71 -74 94 -122z"/></g></defs><style type="text/css">#m17lag7i g.page-margin {font-family:Times,serif;}#m17lag7i g.ending, #m17lag7i g.fing, #m17lag7i g.reh, #m17lag7i g.tempo {font-weight:bold;}#m17lag7i g.dir, #m17lag7i g.dynam, #m17lag7i g.mNum {font-style:italic;}#m17lag7i g.label {font-weight:normal;}#m17lag7i path {stroke:currentColor}</style><svg class="definition-scale" color="black" viewBox="0 0 14000 2190"><g class="page-margin" transform="translate(0, 150)"><g data-id="jx28xf9" data-class="mdiv" class="mdiv pageMilestone"/><g data-id="k15r9ig5" data-class="score" class="score pageMilestone"/><g data-id="x1y4p5bu" data-class="system" class="system"><g data-id="mbae5my" data-class="section" class="section systemMilestone"/><g data-id="n9wqw0c" data-class="measure" class="measure"><g data-id="ytmjcm3" data-class="staff" class="staff"><path d="M0 540 L8539 540" stroke-width="13"/><path d="M0 720 L8539 720" stroke-width="13"/><path d="M0 900 L8539 900" stroke-width="13"/><path d="M0 1080 L8539 1080" stroke-width="13"/><path d="M0 1260 L8539 1260" stroke-width="13"/><g data-id="ymv3xjj" data-class="clef" class="clef"><use href="#E062-m17lag7i" transform="translate(88, 720) scale(0.72, 0.72)"/></g><g data-id="z8wh5tx" data-class="keySig" class="keySig"><g data-id="a1f40yte" data-class="keyAccid" class="keyAccid"><use href="#E260-m17lag7i" transform="translate(769, 1080) scale(0.72, 0.72)"/></g><g data-id="b1c02had" data-class="keyAccid" class="keyAccid"><use href="#E260-m17lag7i" transform="translate(949, 810) scale(0.72, 0.72)"/></g></g><g data-id="ctltqu9" data-class="meterSig" class="meterSig"><use href="#E08A-m17lag7i" transform="translate(1271, 900) scale(0.72, 0.72)"/></g><g data-class="ledgerLines" class="ledgerLines below"><g data-class="lineDash" class="lineDash" data-related="#qwpwpyq"><path d="M4455 1440 L4777 1440" stroke-width="22"/></g><g data-class="lineDash" class="lineDash" data-related="#v1sr5xp5"><path d="M7014 1440 L7336 1440" stroke-width="22"/></g><g data-class="lineDash" class="lineDash" data-related="#x1kw03cd"><path d="M7850 1440 L8136 1440" stroke-width="22"/></g><g data-class="lineDash" class="lineDash" data-related="#yknvo9x"><path d="M8166 1440 L8452 1440" stroke-width="22"/></g><g data-class="lineDash" class="lineDash" data-related="#yknvo9x"><path d="M8166 1620 L8452 1620" stroke-width="22"/></g></g><g data-id="z13k3rjl" data-class="layer" class="layer"><g data-id="bb0xluc" data-class="beam" class="beam"><polygon stroke-opacity="1" fill-opacity="1" points="1839,1890 2805,1530 2805,1440 1839,1800"/><polygon stroke-opacity="1" fill-opacity="1" points="1839,1755 2164,1635 2164,1545 1839,1665"/><polygon stroke-opacity="1" fill-opacity="1" points="2164,1635 2480,1515 2480,1425 2164,1545"/><polygon stroke-opacity="1" fill-opacity="1" points="2480,1515 2805,1395 2805,1305 2480,1425"/><g data-id="jgrxqvy" data-class="note" class="note"><g data-class="notehead" class="notehead"><use href="#E0A4-m17lag7i" transform="translate(1839, 1260) scale(0.72, 0.72)"/></g><g data-id="ofgscpq" data-class="stem" class="stem"><path d="M1848 1288 L1848 1872" stroke-width="18"/></g></g><g data-id="k1bu944x" data-class="note" class="note"><g data-class="notehead" class="notehead"><use href="#E0A4-m17lag7i" transform="translate(2155, 900) scale(0.72, 0.72)"/></g><g data-id="p13x7h03" data-class="stem" class="stem"><path d="M2164 928 L2164 1752" stroke-width="18"/></g></g><g data-id="lv8t83d" data-class="note" class="note"><g data-class="notehead" class="notehead"><use href="#E0A4-m17lag7i" transform="translate(2471, 630) scale(0.72, 0.72)"/></g><g data-id="q1kgi59o" data-class="stem" class="stem"><path d="M2480 658 L2480 1632" stroke-width="18"/></g></g><g data-id="mr1zvl3" data-class="note" class="note"><g data-class="notehead" class="notehead"><use href="#E0A4-m17lag7i" transform="translate(2787, 450) scale(0.72, 0.72)"/></g><g data-id="ryk7yj2" data-class="stem" class="stem"><path d="M2796 478 L2796 1512" stroke-width="18"/></g><g data-id="f1s338wu" data-class="accid" class="accid"/></g></g><g data-id="wek8pe8" data-class="clef" class="clef"><use href="#E07A-m17lag7i" transform="translate(3103, 1080) scale(0.72, 0.72)"/></g><g data-id="ct8lyx2" data-class="beam" class="beam"><polygon stroke-opacity="1" fill-opacity="1" points="3763,495 4729,495 4729,585 3763,585"/><polygon stroke-opacity="1" fill-opacity="1" points="3763,630 4088,630 4088,720 3763,720"/><polygon stroke-opacity="1" fill-opacity="1" points="4088,630 4404,630 4404,720 4088,720"/><polygon stroke-opacity="1" fill-opacity="1" points="4404,630 4729,630 4729,720 4404,720"/><g data-id="n1pwysg2" data-class="note" class="note"><g data-class="notehead" class="notehead"><use href="#E0A4-m17lag7i" transform="translate(3555, 1350) scale(0.72, 0.72)"/></g><g data-id="s1inwu4v" data-class="stem" class="stem"><path d="M3772 1322 L3772 513" stroke-width="18"/></g></g><g data-id="o1ttwqea" data-class="note" class="note"><g data-class="notehead" class="notehead"><use href="#E0A4-m17lag7i" transform="translate(3871, 1080) scale(0.72, 0.72)"/></g><g data-id="tnqjqeq" data-class="stem" class="stem"><path d="M4088 1052 L4088 513" stroke-width="18"/></g></g><g data-id="pgk816g" data-class="note" class="note"><g data-class="notehead" class="notehead"><use href="#E0A4-m17lag7i" transform="translate(4187, 1350) scale(0.72, 0.72)"/></g><g data-id="u3e50l" data-class="stem" class="stem"><path d="M4404 1322 L4404 513" stroke-width="18"/></g></g><g data-id="qwpwpyq" data-class="note" class="note"><g data-class="notehead" class="notehead"><use href="#E0A4-m17lag7i" transform="translate(4503, 1530) scale(0.72, 0.72)"/></g><g data-id="vsc50lg" data-class="stem" class="stem"><path d="M4720 1502 L4720 513" stroke-width="18"/></g><g data-id="gnunh9i" data-class="accid" class="accid"/></g></g><g data-id="xtoieu5" data-class="clef" class="clef"><use href="#E07C-m17lag7i" transform="translate(4817, 720) scale(0.72, 0.72)"/></g><g data-id="d1q23548" data-class="beam" class="beam"><polygon stroke-opacity="1" fill-opacity="1" points="5346,1890 6312,1530 6312,1440 5346,1800"/><polygon stroke-opacity="1" fill-opacity="1" points="5346,1755 5671,1635 5671,1545 5346,1665"/><polygon stroke-opacity="1" fill-opacity="1" points="5671,1635 5987,1515 5987,1425 5671,1545"/><polygon stroke-opacity="1" fill-opacity="1" points="5987,1515 6312,1395 6312,1305 5987,1425"/><g data-id="robz0qb" data-class="note" class="note"><g data-class="notehead" class="notehead"><use href="#E0A4-m17lag7i" transform="translate(5346, 1260) scale(0.72, 0.72)"/></g><g data-id="w1ds3x23" data-class="stem" class="stem"><path d="M5355 1288 L5355 1872" stroke-width="18"/></g></g><g data-id="sxfyzj5" data-class="note" class="note"><g data-class="notehead" class="notehead"><use href="#E0A4-m17lag7i" transform="translate(5662, 810) scale(0.72, 0.72)"/></g><g data-id="xir8j7n" data-class="stem" class="stem"><path d="M5671 838 L5671 1752" stroke-width="18"/></g><g data-id="h1ufaw8l" data-class="accid" class="accid"/></g><g data-id="t1y2oude" data-class="note" class="note"><g data-class="notehead" class="notehead"><use href="#E0A4-m17lag7i" transform="translate(5978, 630) scale(0.72, 0.72)"/></g><g data-id="y3rb2li" data-class="stem" class="stem"><path d="M5987 658 L5987 1632" stroke-width="18"/></g></g><g data-id="u14qt2ug" data-class="note" class="note"><g data-class="notehead" class="notehead"><use href="#E0A4-m17lag7i" transform="translate(6294, 540) scale(0.72, 0.72)"/></g><g data-id="z1piijzw" data-class="stem" class="stem"><path d="M6303 568 L6303 1512" stroke-width="18"/></g></g></g><g data-id="yrz1kf7" data-class="clef" class="clef"><use href="#E07A-m17lag7i" transform="translate(6610, 1080) scale(0.72, 0.72)"/></g><g data-id="e11h029f" data-class="beam" class="beam"><polygon stroke-opacity="1" fill-opacity="1" points="7270,540 8422,540 8422,630 7270,630"/><polygon stroke-opacity="1" fill-opacity="1" points="7270,675 7781,675 7781,765 7270,765"/><polygon stroke-opacity="1" fill-opacity="1" points="7781,675 8097,675 8097,765 7781,765"/><polygon stroke-opacity="1" fill-opacity="1" points="8097,675 8422,675 8422,765 8097,765"/><g data-id="v1sr5xp5" data-class="note" class="note"><g data-class="notehead" class="notehead"><use href="#E0A4-m17lag7i" transform="translate(7062, 1440) scale(0.72, 0.72)"/></g><g data-id="aleqhve" data-class="stem" class="stem"><path d="M7279 1412 L7279 558" stroke-width="18"/></g></g><g data-id="w13psjub" data-class="note" class="note"><g data-class="notehead" class="notehead"><use href="#E0A4-m17lag7i" transform="translate(7564, 1170) scale(0.72, 0.72)"/></g><g data-id="b1sctuc1" data-class="stem" class="stem"><path d="M7781 1142 L7781 558" stroke-width="18"/></g><g data-id="a1j24hnz" data-class="accid" class="accid"><use href="#E262-m17lag7i" transform="translate(7378, 1170) scale(0.72, 0.72)"/></g></g><g data-id="x1kw03cd" data-class="note" class="note"><g data-class="notehead" class="notehead"><use href="#E0A4-m17lag7i" transform="translate(7880, 1440) scale(0.72, 0.72)"/></g><g data-id="c11wuthx" data-class="stem" class="stem"><path d="M8097 1412 L8097 558" stroke-width="18"/></g></g><g data-id="yknvo9x" data-class="note" class="note"><g data-class="notehead" class="notehead"><use href="#E0A4-m17lag7i" transform="translate(8196, 1620) scale(0.72, 0.72)"/></g><g data-id="d1mnd8gu" data-class="stem" class="stem"><path d="M8413 1592 L8413 558" stroke-width="18"/></g></g></g></g></g><g data-id="v4do44" data-class="barLine" class="barLine"><path d="M8526 540 L8526 1260" stroke-width="27"/></g></g><g data-id="apao3ev" data-class="measure" class="measure"><g data-id="aujsx52" data-class="staff" class="staff"><path d="M8539 540 L9562 540" stroke-width="13"/><path d="M8539 720 L9562 720" stroke-width="13"/><path d="M8539 900 L9562 900" stroke-width="13"/><path d="M8539 1080 L9562 1080" stroke-width="13"/><path d="M8539 1260 L9562 1260" stroke-width="13"/><g data-id="bz236m5" data-class="layer" class="layer"><g data-id="z1bp3osd" data-class="clef" class="clef"><use href="#E07C-m17lag7i" transform="translate(8627, 720) scale(0.72, 0.72)"/></g><g data-id="z7uydv" data-class="note" class="note"><g data-class="notehead" class="notehead"><use href="#E0A4-m17lag7i" transform="translate(9156, 1260) scale(0.72, 0.72)"/></g><g data-id="e190zhdl" data-class="stem" class="stem"><path d="M9373 1232 L9373 630" stroke-width="18"/><g data-id="f1iv18ry" data-class="flag" class="flag"><use href="#E242-m17lag7i" transform="translate(9364, 630) scale(0.72, 0.72)"/></g></g></g></g></g><g data-id="i15wvg79" data-class="barLine" class="barLine"/></g><g data-id="j1inpck3" data-class="systemMilestoneEnd" class="systemMilestoneEnd mbae5my"/></g><g data-id="k17527ku" data-class="pageMilestoneEnd" class="pageMilestoneEnd k15r9ig5"/><g data-id="l8fyt18" data-class="pageMilestoneEnd" class="pageMilestoneEnd jx28xf9"/></g></svg></svg>