<svg viewBox="0 0 560 84" version="1.1" xmlns="http://www.w3.org/2000/svg" xmlns:xlink="http://www.w3.org/1999/xlink" overflow="visible" id="b68oc8y"><desc>Engraved by Verovio 5.6.0-85e7620</desc><defs><g id="E062-b68oc8y"><path transform="scale(1,-1)" d="M582 -120c0 32 26 58 58 58s58 -26 58 -58s-26 -58 -58 -58s-58 26 -58 58zM582 120c0 32 26 58 58 58s58 -26 58 -58s-26 -58 -58 -58s-58 26 -58 58zM158 96c51 0 73 -14 88 -49l16 -39c0 -17 -2 -30 -7 -40c-3 -11 -10 -21 -19 -31c-17 -18 -49 -43 -84 -43 c-55 0 -77 13 -112 44c-24 21 -35 55 -35 100c0 46 14 81 32 112c30 52 71 79 137 93l36 6l26 2c154 0 235 -68 274 -182c11 -32 18 -68 18 -107c0 -103 -26 -182 -68 -250c-89 -145 -234 -230 -412 -288l-30 -5c-9 0 -14 3 -14 8c3 10 5 11 10 16c35 15 70 30 96 44l78 43 c96 57 162 136 197 258c9 33 17 60 22 100c3 22 5 35 6 39c-7 69 -16 115 -23 140s-4 22 -16 40c-8 12 -19 23 -31 34c-24 21 -62 44 -118 44c-48 0 -84 -8 -113 -28c-28 -19 -42 -44 -42 -73v-16c2 -5 3 -9 4 -11c24 22 52 39 84 39z"/></g><g id="E08A-b68oc8y"><path transform="scale(1,-1)" d="M340 179c-9 24 -56 41 -89 41c-46 0 -81 -28 -100 -58c-17 -28 -25 -78 -25 -150c0 -65 2 -111 8 -135c8 -31 18 -49 40 -67c20 -17 43 -25 70 -25c54 0 92 36 115 75c14 25 23 54 28 88h27c0 -63 -24 -105 -58 -141c-35 -38 -82 -56 -140 -56c-45 0 -83 13 -115 39 c-57 45 -101 130 -101 226c0 59 33 127 68 163c36 37 97 72 160 72c36 0 93 -21 121 -40c11 -8 23 -17 33 -30c19 -23 27 -48 27 -76c0 -51 -35 -88 -86 -88c-43 0 -76 27 -76 68c0 26 7 35 21 51c15 17 32 27 58 32c7 2 14 7 14 11z"/></g><g id="E0A3-b68oc8y"><path transform="scale(1,-1)" d="M278 64c0 22 -17 39 -43 39c-12 0 -26 -3 -41 -10c-85 -43 -165 -94 -165 -156c5 -25 15 -32 49 -32c67 11 200 95 200 159zM0 -36c0 68 73 174 200 174c66 0 114 -39 114 -97c0 -84 -106 -173 -218 -173c-64 0 -96 32 -96 96z"/></g><g id="E0A4-b68oc8y"><path transform="scale(1,-1)" d="M0 -39c0 68 73 172 200 172c66 0 114 -37 114 -95c0 -84 -106 -171 -218 -171c-64 0 -96 30 -96 94z"/></g><g id="E241-b68oc8y"><path transform="scale(1,-1)" d="M179 646c-4 8 -17 30 -18 33l-4 10c0 3 2 5 5 5s7 -2 13 -7c23 -33 46 -81 66 -132c22 -57 35 -125 35 -163c0 -104 -60 -183 -122 -241c-63 -59 -57 -53 -61 -56c-38 -34 -63 -95 -71 -95h-22v190c40 7 69 11 87 16c88 27 168 95 168 200c0 30 -12 89 -30 138 c-17 47 -31 73 -46 102z"/></g><g id="E4E5-b68oc8y"><path transform="scale(1,-1)" d="M107 292c-13 24 -30 49 -52 71c-1 1 0 2 0 3l-2 2c3 3 4 4 6 4c12 0 26 -7 40 -20s44 -40 89 -81c26 -24 28 -29 46 -47c4 -4 8 -9 10 -14c6 -8 8 -16 8 -27c0 -19 -12 -40 -36 -61c-28 -23 -49 -38 -61 -73c-4 -11 -7 -27 -10 -50c13 -43 34 -83 59 -121 c31 -47 59 -79 101 -129c-8 0 -26 7 -54 20l-62 29l-21 6l-23 1c-25 0 -45 -10 -60 -30l-4 -14l-1 -12c0 -33 20 -56 39 -78c8 -9 17 -18 26 -26c17 -15 27 -24 28 -30l-3 -3c-11 5 -19 10 -25 15c-9 3 -37 21 -45 26c-24 14 -45 32 -63 51c-19 21 -37 44 -37 71 c0 63 27 95 80 95c41 0 86 -18 136 -52c-19 26 -37 48 -55 66c-23 23 -48 44 -73 65c-28 23 -47 40 -58 53s-17 26 -18 39c75 64 113 125 113 183c0 27 -7 48 -18 68z"/></g><g id="E4E4-b68oc8y"><path transform="scale(1,-1)" d="M0 10v105c0 9 1 10 10 10h280c9 0 10 -1 10 -10v-105c0 -9 -1 -10 -10 -10h-280c-9 0 -10 1 -10 10z"/></g></defs><style type="text/css">#b68oc8y g.page-margin {font-family:Times,serif;}#b68oc8y g.ending, #b68oc8y g.fing, #b68oc8y g.reh, #b68oc8y g.tempo {font-weight:bold;}#b68oc8y g.dir, #b68oc8y g.dynam, #b68oc8y g.mNum {font-style:italic;}#b68oc8y g.label {font-weight:normal;}#b68oc8y path {stroke:currentColor}</style><svg class="definition-scale" color="black" viewBox="0 0 14000 2100"><g class="page-margin" transform="translate(0, 150)"><g data-id="z8o9umb" data-class="mdiv" class="mdiv pageMilestone"/><g data-id="amh8la9" data-class="score" class="score pageMilestone"/><g data-id="i1ai8by7" data-class="system" class="system"><g data-id="c1jk1h3b" data-class="section" class="section systemMilestone"/><g data-id="cpxpi6q" data-class="measure" class="measure"><g data-id="o161hcxy" data-class="staff" class="staff"><path d="M0 540 L3977 540" stroke-width="13"/><path d="M0 720 L3977 720" stroke-width="13"/><path d="M0 900 L3977 900" stroke-width="13"/><path d="M0 1080 L3977 1080" stroke-width="13"/><path d="M0 1260 L3977 1260" stroke-width="13"/><g data-id="q16q27i6" data-class="clef" class="clef"><use href="#E062-b68oc8y" transform="translate(88, 720) scale(0.72, 0.72)"/></g><g data-id="r8tcyop" data-class="keySig" class="keySig"/><g data-id="sbbwbs" data-class="meterSig" class="meterSig"><use href="#E08A-b68oc8y" transform="translate(769, 900) scale(0.72, 0.72)"/></g><g data-id="pi4v6ya" data-class="layer" class="layer"><g data-id="o17iao4x" data-class="note" class="note"><g data-class="notehead" class="notehead"><use href="#E0A3-b68oc8y" transform="translate(1379, 990) scale(0.72, 0.72)"/></g><g data-id="g1s3tvwl" data-class="stem" class="stem"><path d="M1596 962 L1596 360" stroke-width="18"/></g></g><g data-id="pkeev97" data-class="note" class="note"><g data-class="notehead" class="notehead"><use href="#E0A3-b68oc8y" transform="translate(2672, 990) scale(0.72, 0.72)"/></g><g data-id="hmhmgbv" data-class="stem" class="stem"><path d="M2889 962 L2889 360" stroke-width="18"/></g></g></g></g><g data-id="k110u1ox" data-class="barLine" class="barLine"><path d="M3964 540 L3964 1260" stroke-width="27"/></g></g><g data-id="l1txl7ez" data-class="measure" class="measure"><g data-id="q1pk92ok" data-class="staff" class="staff"><path d="M3977 540 L7204 540" stroke-width="13"/><path d="M3977 720 L7204 720" stroke-width="13"/><path d="M3977 900 L7204 900" stroke-width="13"/><path d="M3977 1080 L7204 1080" stroke-width="13"/><path d="M3977 1260 L7204 1260" stroke-width="13"/><g data-id="r1ismjxs" data-class="layer" class="layer"><g data-id="q1n2vtm0" data-class="note" class="note"><g data-class="notehead" class="notehead"><use href="#E0A3-b68oc8y" transform="translate(4199, 990) scale(0.72, 0.72)"/></g><g data-id="i1xoilsz" data-class="stem" class="stem"><path d="M4416 962 L4416 360" stroke-width="18"/></g></g><g data-id="r39acay" data-class="note" class="note"><g data-class="notehead" class="notehead"><use href="#E0A4-b68oc8y" transform="translate(5492, 990) scale(0.72, 0.72)"/></g><g data-id="j19fb245" data-class="stem" class="stem"><path d="M5709 962 L5709 360" stroke-width="18"/></g></g><g data-id="ssv4bd0" data-class="note" class="note"><g data-class="notehead" class="notehead"><use href="#E0A4-b68oc8y" transform="translate(6341, 810) scale(0.72, 0.72)"/></g><g data-id="kwxfwt4" data-class="stem" class="stem"><path d="M6350 838 L6350 1440" stroke-width="18"/></g></g></g></g><g data-id="t35ktey" data-class="barLine" class="barLine"><path d="M7191 540 L7191 1260" stroke-width="27"/></g></g><g data-id="u1eq1cac" data-class="measure" class="measure"><g data-id="s1vj8sj9" data-class="staff" class="staff"><path d="M7204 540 L10775 540" stroke-width="13"/><path d="M7204 720 L10775 720" stroke-width="13"/><path d="M7204 900 L10775 900" stroke-width="13"/><path d="M7204 1080 L10775 1080" stroke-width="13"/><path d="M7204 1260 L10775 1260" stroke-width="13"/><g data-id="tk1rtxi" data-class="layer" class="layer"><g data-id="ty05kx8" data-class="note" class="note"><g data-class="notehead" class="notehead"><use href="#E0A4-b68oc8y" transform="translate(7426, 720) scale(0.72, 0.72)"/></g><g data-id="lu17cgt" data-class="stem" class="stem"><path d="M7435 748 L7435 1350" stroke-width="18"/></g></g><g data-id="u2bo092" data-class="note" class="note"><g data-class="notehead" class="notehead"><use href="#E0A4-b68oc8y" transform="translate(8276, 990) scale(0.72, 0.72)"/></g><g data-id="m1qmgw2k" data-class="stem" class="stem"><path d="M8493 962 L8493 360" stroke-width="18"/></g></g><g data-id="vdj0xvg" data-class="note" class="note"><g data-class="notehead" class="notehead"><use href="#E0A4-b68oc8y" transform="translate(9125, 630) scale(0.72, 0.72)"/></g><g data-id="o1kb5mmw" data-class="dots" class="dots"><ellipse cx="9441" cy="630" rx="36" ry="36" fill-opacity="1" stroke-opacity="1"/></g><g data-id="nxks5ma" data-class="stem" class="stem"><path d="M9134 658 L9134 1260" stroke-width="18"/></g></g><g data-id="w1id4cpw" data-class="note" class="note"><g data-class="notehead" class="notehead"><use href="#E0A4-b68oc8y" transform="translate(10208, 630) scale(0.72, 0.72)"/></g><g data-id="pg99joh" data-class="stem" class="stem"><path d="M10217 658 L10217 1260" stroke-width="18"/><g data-id="qkgd4go" data-class="flag" class="flag"><use href="#E241-b68oc8y" transform="translate(10208, 1260) scale(0.72, 0.72)"/></g></g></g></g></g><g data-id="cjkgxyf" data-class="barLine" class="barLine"><path d="M10762 540 L10762 1260" stroke-width="27"/></g></g><g data-id="dzt3ma" data-class="measure" class="measure"><g data-id="u6oktva" data-class="staff" class="staff"><path d="M10775 540 L14002 540" stroke-width="13"/><path d="M10775 720 L14002 720" stroke-width="13"/><path d="M10775 900 L14002 900" stroke-width="13"/><path d="M10775 1080 L14002 1080" stroke-width="13"/><path d="M10775 1260 L14002 1260" stroke-width="13"/><g data-id="v22cl0w" data-class="layer" class="layer"><g data-id="xbbeuff" data-class="note" class="note"><g data-class="notehead" class="notehead"><use href="#E0A4-b68oc8y" transform="translate(10997, 990) scale(0.72, 0.72)"/></g><g data-id="ryimafl" data-class="stem" class="stem"><path d="M11214 962 L11214 360" stroke-width="18"/></g></g><g data-id="m1xsuk5a" data-class="rest" class="rest"><use href="#E4E5-b68oc8y" transform="translate(11847, 900) scale(0.72, 0.72)"/></g><g data-id="n4gbbfw" data-class="rest" class="rest"><use href="#E4E4-b68oc8y" transform="translate(12696, 900) scale(0.72, 0.72)"/><g data-class="ledgerLines" class="ledgerLines"/></g></g></g><g data-id="l1iqkfbr" data-class="barLine" class="barLine"><path d="M13989 540 L13989 1260" stroke-width="27"/></g></g><g data-id="d1xnx89h" data-class="systemMilestoneEnd" class="systemMilestoneEnd c1jk1h3b"/></g><g data-id="e11busft" data-class="pageMilestoneEnd" class="pageMilestoneEnd amh8la9"/><g data-id="f18mnxtk" data-class="pageMilestoneEnd" class="pageMilestoneEnd z8o9umb"/></g></svg></svg>