<svg viewBox="0 0 560 84" version="1.1" xmlns="http://www.w3.org/2000/svg" xmlns:xlink="http://www.w3.org/1999/xlink" overflow="visible" id="dupm4ij"><desc>Engraved by Verovio 5.6.0-85e7620</desc><defs><g id="E050-dupm4ij"><path transform="scale(1,-1)" d="M441 -245c-23 -4 -48 -6 -76 -6c-59 0 -102 7 -130 20c-88 42 -150 93 -187 154c-26 44 -43 103 -48 176c0 6 -1 13 -1 19c0 54 15 111 45 170c29 57 65 106 110 148s96 85 153 127c-3 16 -8 46 -13 92c-4 43 -5 73 -5 89c0 117 16 172 69 257c34 54 64 82 89 82 c21 0 43 -30 69 -92s39 -115 41 -159v-15c0 -109 -21 -162 -67 -241c-13 -20 -63 -90 -98 -118c-13 -9 -25 -19 -37 -29l31 -181c8 1 18 2 28 2c58 0 102 -12 133 -35c59 -43 92 -104 98 -184c1 -7 1 -15 1 -22c0 -123 -87 -209 -181 -248c8 -57 17 -110 25 -162 c5 -31 6 -58 6 -80c0 -30 -5 -53 -14 -70c-35 -64 -88 -99 -158 -103c-5 0 -11 -1 -16 -1c-37 0 -72 10 -108 27c-50 24 -77 59 -80 105v11c0 29 7 55 20 76c18 28 45 42 79 44h6c49 0 93 -42 97 -87v-9c0 -51 -34 -86 -105 -106c17 -24 51 -36 102 -36c62 0 116 43 140 85 c9 16 13 41 13 74c0 20 -1 42 -5 67c-8 53 -18 106 -26 159zM461 939c-95 0 -135 -175 -135 -286c0 -24 2 -48 5 -71c50 39 92 82 127 128c40 53 60 100 60 140v8c-4 53 -22 81 -55 81h-2zM406 119l54 -326c73 25 110 78 110 161c0 7 0 15 -1 23c-7 95 -57 142 -151 142h-12 zM382 117c-72 -2 -128 -47 -128 -120v-7c2 -46 43 -99 75 -115c-3 -2 -7 -5 -10 -10c-70 33 -116 88 -123 172v11c0 68 44 126 88 159c23 17 49 29 78 36l-29 170c-21 -13 -52 -37 -92 -73c-50 -44 -86 -84 -109 -119c-45 -69 -67 -130 -67 -182v-13c5 -68 35 -127 93 -176 s125 -73 203 -73c25 0 50 3 75 9c-19 111 -36 221 -54 331z"/></g><g id="E262-dupm4ij"><path transform="scale(1,-1)" d="M136 186v169h17v-164l44 14v-91l-44 -14v-165l44 12v-91l-44 -13v-155h-17v150l-76 -22v-155h-17v149l-43 -13v90l43 14v167l-43 -14v92l43 13v169h17v-163zM60 73v-167l76 22v168z"/></g><g id="E08A-dupm4ij"><path transform="scale(1,-1)" d="M340 179c-9 24 -56 41 -89 41c-46 0 -81 -28 -100 -58c-17 -28 -25 -78 -25 -150c0 -65 2 -111 8 -135c8 -31 18 -49 40 -67c20 -17 43 -25 70 -25c54 0 92 36 115 75c14 25 23 54 28 88h27c0 -63 -24 -105 -58 -141c-35 -38 -82 -56 -140 -56c-45 0 -83 13 -115 39 c-57 45 -101 130 -101 226c0 59 33 127 68 163c36 37 97 72 160 72c36 0 93 -21 121 -40c11 -8 23 -17 33 -30c19 -23 27 -48 27 -76c0 -51 -35 -88 -86 -88c-43 0 -76 27 -76 68c0 26 7 35 21 51c15 17 32 27 58 32c7 2 14 7 14 11z"/></g><g id="E0A4-dupm4ij"><path transform="scale(1,-1)" d="M0 -39c0 68 73 172 200 172c66 0 114 -37 114 -95c0 -84 -106 -171 -218 -171c-64 0 -96 30 -96 94z"/></g><g id="E240-dupm4ij"><path transform="scale(1,-1)" d="M179 -646c15 29 29 55 46 102c18 49 30 108 30 138c0 105 -80 173 -168 200c-18 5 -47 9 -87 16v190h22c8 0 33 -61 71 -95c4 -3 -2 3 61 -56c62 -58 122 -137 122 -241c0 -38 -13 -106 -35 -163c-20 -51 -43 -99 -66 -132c-6 -5 -10 -7 -13 -7s-5 2 -5 5l4 10 c1 3 14 25 18 33z"/></g><g id="E0A3-dupm4ij"><path transform="scale(1,-1)" d="M278 64c0 22 -17 39 -43 39c-12 0 -26 -3 -41 -10c-85 -43 -165 -94 -165 -156c5 -25 15 -32 49 -32c67 11 200 95 200 159zM0 -36c0 68 73 174 200 174c66 0 114 -39 114 -97c0 -84 -106 -173 -218 -173c-64 0 -96 32 -96 96z"/></g></defs><style type="text/css">#dupm4ij g.page-margin {font-family:Times,serif;}#dupm4ij g.ending, #dupm4ij g.fing, #dupm4ij g.reh, #dupm4ij g.tempo {font-weight:bold;}#dupm4ij g.dir, #dupm4ij g.dynam, #dupm4ij g.mNum {font-style:italic;}#dupm4ij g.label {font-weight:normal;}#dupm4ij path {stroke:currentColor}</style><svg class="definition-scale" color="black" viewBox="0 0 14000 2100"><g class="page-margin" transform="translate(0, 150)"><g data-id="r1lzv2j8" data-class="mdiv" class="mdiv pageMilestone"/><g data-id="syk6d6g" data-class="score" class="score pageMilestone"/><g data-id="sqqfesk" data-class="system" class="system"><g data-id="u14qtklf" data-class="section" class="section systemMilestone"/><g data-id="esgctvq" data-class="measure" class="measure"><g data-id="giv7jle" data-class="staff" class="staff"><path d="M0 540 L2325 540" stroke-width="13"/><path d="M0 720 L2325 720" stroke-width="13"/><path d="M0 900 L2325 900" stroke-width="13"/><path d="M0 1080 L2325 1080" stroke-width="13"/><path d="M0 1260 L2325 1260" stroke-width="13"/><g data-id="y1dmo66l" data-class="clef" class="clef"><use href="#E050-dupm4ij" transform="translate(90, 1080) scale(0.72, 0.72)"/></g><g data-id="z1s9rtte" data-class="keySig" class="keySig"><g data-id="a1l3czp1" data-class="keyAccid" class="keyAccid"><use href="#E262-dupm4ij" transform="translate(735, 540) scale(0.72, 0.72)"/></g><g data-id="bmqzq85" data-class="keyAccid" class="keyAccid"><use href="#E262-dupm4ij" transform="translate(913, 810) scale(0.72, 0.72)"/></g></g><g data-id="c6r87me" data-class="meterSig" class="meterSig"><use href="#E08A-dupm4ij" transform="translate(1234, 900) scale(0.72, 0.72)"/></g><g data-id="h7ez6y1" data-class="layer" class="layer"><g data-id="om8jumc" data-class="note" class="note"><g data-class="notehead" class="notehead"><use href="#E0A4-dupm4ij" transform="translate(1802, 1170) scale(0.72, 0.72)"/></g><g data-id="ay4wu3i" data-class="stem" class="stem"><path d="M2019 1142 L2019 540" stroke-width="18"/><g data-id="b1fudezz" data-class="flag" class="flag"><use href="#E240-dupm4ij" transform="translate(2010, 540) scale(0.72, 0.72)"/></g></g><g data-id="j4bta6" data-class="accid" class="accid"/></g></g></g><g data-id="m1bqnmmt" data-class="barLine" class="barLine"><path d="M2312 540 L2312 1260" stroke-width="27"/></g></g><g data-id="n1se1arm" data-class="measure" class="measure"><g data-id="i1si2up0" data-class="staff" class="staff"><path d="M2325 540 L6118 540" stroke-width="13"/><path d="M2325 720 L6118 720" stroke-width="13"/><path d="M2325 900 L6118 900" stroke-width="13"/><path d="M2325 1080 L6118 1080" stroke-width="13"/><path d="M2325 1260 L6118 1260" stroke-width="13"/><g data-id="jt71px6" data-class="layer" class="layer"><g data-id="g76uvxo" data-class="beam" class="beam"><polygon stroke-opacity="1" fill-opacity="1" points="2505,1260 3873,1440 3873,1350 2505,1170"/><g data-id="peac9si" data-class="note" class="note"><g data-class="notehead" class="notehead"><use href="#E0A4-dupm4ij" transform="translate(2505, 540) scale(0.72, 0.72)"/></g><g data-id="c1r9u0a2" data-class="stem" class="stem"><path d="M2514 568 L2514 1242" stroke-width="18"/></g><g data-id="k72gbkm" data-class="accid" class="accid"/></g><g data-id="q1ax0n9b" data-class="note" class="note"><g data-class="notehead" class="notehead"><use href="#E0A4-dupm4ij" transform="translate(2955, 630) scale(0.72, 0.72)"/></g><g data-id="dy1hj9a" data-class="stem" class="stem"><path d="M2964 658 L2964 1302" stroke-width="18"/></g></g><g data-id="r1neyxuy" data-class="note" class="note"><g data-class="notehead" class="notehead"><use href="#E0A4-dupm4ij" transform="translate(3405, 720) scale(0.72, 0.72)"/></g><g data-id="e1h561bq" data-class="stem" class="stem"><path d="M3414 748 L3414 1362" stroke-width="18"/></g></g><g data-id="s3x66w4" data-class="note" class="note"><g data-class="notehead" class="notehead"><use href="#E0A4-dupm4ij" transform="translate(3855, 810) scale(0.72, 0.72)"/></g><g data-id="f1a02an1" data-class="stem" class="stem"><path d="M3864 838 L3864 1422" stroke-width="18"/></g><g data-id="l1kq3vx" data-class="accid" class="accid"/></g></g><g data-id="hn0g9on" data-class="beam" class="beam"><polygon stroke-opacity="1" fill-opacity="1" points="4305,1305 5673,1485 5673,1395 4305,1215"/><g data-id="t1ed42u2" data-class="note" class="note"><g data-class="notehead" class="notehead"><use href="#E0A4-dupm4ij" transform="translate(4305, 630) scale(0.72, 0.72)"/></g><g data-id="gk6tt9u" data-class="stem" class="stem"><path d="M4314 658 L4314 1287" stroke-width="18"/></g></g><g data-id="u1ce2zv2" data-class="note" class="note"><g data-class="notehead" class="notehead"><use href="#E0A4-dupm4ij" transform="translate(4755, 720) scale(0.72, 0.72)"/></g><g data-id="h49fv2m" data-class="stem" class="stem"><path d="M4764 748 L4764 1347" stroke-width="18"/></g></g><g data-id="v1ae08u" data-class="note" class="note"><g data-class="notehead" class="notehead"><use href="#E0A4-dupm4ij" transform="translate(5205, 810) scale(0.72, 0.72)"/></g><g data-id="ifq66uj" data-class="stem" class="stem"><path d="M5214 838 L5214 1407" stroke-width="18"/></g><g data-id="m2eqbqs" data-class="accid" class="accid"/></g><g data-id="w11uahka" data-class="note" class="note"><g data-class="notehead" class="notehead"><use href="#E0A4-dupm4ij" transform="translate(5655, 900) scale(0.72, 0.72)"/></g><g data-id="jls08ni" data-class="stem" class="stem"><path d="M5664 928 L5664 1467" stroke-width="18"/></g></g></g></g></g><g data-id="v14vgw63" data-class="barLine" class="barLine"><path d="M6105 540 L6105 1260" stroke-width="27"/></g></g><g data-id="w17px75h" data-class="measure" class="measure"><g data-id="k2ia3ad" data-class="staff" class="staff"><path d="M6118 540 L9543 540" stroke-width="13"/><path d="M6118 720 L9543 720" stroke-width="13"/><path d="M6118 900 L9543 900" stroke-width="13"/><path d="M6118 1080 L9543 1080" stroke-width="13"/><path d="M6118 1260 L9543 1260" stroke-width="13"/><g data-id="l15fm968" data-class="layer" class="layer"><g data-id="i1vaexvf" data-class="beam" class="beam"><polygon stroke-opacity="1" fill-opacity="1" points="6298,1350 7718,1530 7718,1440 6298,1260"/><g data-id="xm9qk8j" data-class="note" class="note"><g data-class="notehead" class="notehead"><use href="#E0A4-dupm4ij" transform="translate(6298, 720) scale(0.72, 0.72)"/></g><g data-id="kp18bpi" data-class="stem" class="stem"><path d="M6307 748 L6307 1332" stroke-width="18"/></g></g><g data-id="yp80eds" data-class="note" class="note"><g data-class="notehead" class="notehead"><use href="#E0A4-dupm4ij" transform="translate(6748, 810) scale(0.72, 0.72)"/></g><g data-id="l7x0332" data-class="stem" class="stem"><path d="M6757 838 L6757 1389" stroke-width="18"/></g><g data-id="n1h7hvqe" data-class="accid" class="accid"/></g><g data-id="z1efn7a2" data-class="note" class="note"><g data-class="notehead" class="notehead"><use href="#E0A4-dupm4ij" transform="translate(7198, 900) scale(0.72, 0.72)"/></g><g data-id="mycrk61" data-class="stem" class="stem"><path d="M7207 928 L7207 1447" stroke-width="18"/></g></g><g data-id="a1v7qk66" data-class="note" class="note"><g data-class="notehead" class="notehead"><use href="#E0A4-dupm4ij" transform="translate(7700, 990) scale(0.72, 0.72)"/></g><g data-id="nlh2say" data-class="stem" class="stem"><path d="M7709 1018 L7709 1512" stroke-width="18"/></g><g data-id="f9howes" data-class="accid" class="accid"><use href="#E262-dupm4ij" transform="translate(7514, 990) scale(0.72, 0.72)"/></g></g></g><g data-id="bxf9rm9" data-class="note" class="note"><g data-class="notehead" class="notehead"><use href="#E0A4-dupm4ij" transform="translate(8150, 900) scale(0.72, 0.72)"/></g><g data-id="o91ahcg" data-class="stem" class="stem"><path d="M8159 928 L8159 1500" stroke-width="18"/></g></g><g data-id="c1ogv6g6" data-class="note" class="note"><g data-class="notehead" class="notehead"><use href="#E0A4-dupm4ij" transform="translate(8840, 1170) scale(0.72, 0.72)"/></g><g data-id="plam820" data-class="stem" class="stem"><path d="M9057 1142 L9057 540" stroke-width="18"/></g><g data-id="ouw9x7j" data-class="accid" class="accid"/></g></g></g><g data-id="e1221w2b" data-class="barLine" class="barLine"><path d="M9530 540 L9530 1260" stroke-width="27"/></g></g><g data-id="ffvaitp" data-class="measure" class="measure"><g data-id="m1nw1usr" data-class="staff" class="staff"><path d="M9543 540 L11463 540" stroke-width="13"/><path d="M9543 720 L11463 720" stroke-width="13"/><path d="M9543 900 L11463 900" stroke-width="13"/><path d="M9543 1080 L11463 1080" stroke-width="13"/><path d="M9543 1260 L11463 1260" stroke-width="13"/><g data-id="nk55sqi" data-class="layer" class="layer"><g data-id="d6vg8a2" data-class="note" class="note"><g data-class="notehead" class="notehead"><use href="#E0A3-dupm4ij" transform="translate(9723, 1080) scale(0.72, 0.72)"/></g><g data-id="q1egcj18" data-class="stem" class="stem"><path d="M9940 1052 L9940 450" stroke-width="18"/></g></g><g data-id="efk9nh" data-class="note" class="note"><g data-class="notehead" class="notehead"><use href="#E0A4-dupm4ij" transform="translate(10773, 1170) scale(0.72, 0.72)"/></g><g data-id="r1qgia9e" data-class="stem" class="stem"><path d="M10990 1142 L10990 540" stroke-width="18"/></g><g data-id="p1v5b5e5" data-class="accid" class="accid"/></g></g></g><g data-id="n1df8306" data-class="barLine" class="barLine"/></g><g data-id="v8gpwrd" data-class="systemMilestoneEnd" class="systemMilestoneEnd u14qtklf"/></g><g data-id="wumj827" data-class="pageMilestoneEnd" class="pageMilestoneEnd syk6d6g"/><g data-id="x1ecchtp" data-class="pageMilestoneEnd" class="pageMilestoneEnd r1lzv2j8"/></g></svg></svg>