<svg viewBox="0 0 560 88" version="1.1" xmlns="http://www.w3.org/2000/svg" xmlns:xlink="http://www.w3.org/1999/xlink" overflow="visible" id="l1kd2zpi"><desc>Engraved by Verovio 5.6.0-85e7620</desc><defs><g id="E050-l1kd2zpi"><path transform="scale(1,-1)" d="M441 -245c-23 -4 -48 -6 -76 -6c-59 0 -102 7 -130 20c-88 42 -150 93 -187 154c-26 44 -43 103 -48 176c0 6 -1 13 -1 19c0 54 15 111 45 170c29 57 65 106 110 148s96 85 153 127c-3 16 -8 46 -13 92c-4 43 -5 73 -5 89c0 117 16 172 69 257c34 54 64 82 89 82 c21 0 43 -30 69 -92s39 -115 41 -159v-15c0 -109 -21 -162 -67 -241c-13 -20 -63 -90 -98 -118c-13 -9 -25 -19 -37 -29l31 -181c8 1 18 2 28 2c58 0 102 -12 133 -35c59 -43 92 -104 98 -184c1 -7 1 -15 1 -22c0 -123 -87 -209 -181 -248c8 -57 17 -110 25 -162 c5 -31 6 -58 6 -80c0 -30 -5 -53 -14 -70c-35 -64 -88 -99 -158 -103c-5 0 -11 -1 -16 -1c-37 0 -72 10 -108 27c-50 24 -77 59 -80 105v11c0 29 7 55 20 76c18 28 45 42 79 44h6c49 0 93 -42 97 -87v-9c0 -51 -34 -86 -105 -106c17 -24 51 -36 102 -36c62 0 116 43 140 85 c9 16 13 41 13 74c0 20 -1 42 -5 67c-8 53 -18 106 -26 159zM461 939c-95 0 -135 -175 -135 -286c0 -24 2 -48 5 -71c50 39 92 82 127 128c40 53 60 100 60 140v8c-4 53 -22 81 -55 81h-2zM406 119l54 -326c73 25 110 78 110 161c0 7 0 15 -1 23c-7 95 -57 142 -151 142h-12 zM382 117c-72 -2 -128 -47 -128 -120v-7c2 -46 43 -99 75 -115c-3 -2 -7 -5 -10 -10c-70 33 -116 88 -123 172v11c0 68 44 126 88 159c23 17 49 29 78 36l-29 170c-21 -13 -52 -37 -92 -73c-50 -44 -86 -84 -109 -119c-45 -69 -67 -130 -67 -182v-13c5 -68 35 -127 93 -176 s125 -73 203 -73c25 0 50 3 75 9c-19 111 -36 221 -54 331z"/></g><g id="E260-l1kd2zpi"><path transform="scale(1,-1)" d="M20 110c32 16 54 27 93 27c26 0 35 -3 54 -13c13 -7 24 -20 27 -38l4 -25c0 -28 -16 -57 -45 -89c-23 -25 -39 -44 -65 -68l-88 -79v644h20v-359zM90 106c-32 0 -48 -10 -70 -29v-194c31 31 54 59 71 84c21 32 32 59 32 84c0 9 1 16 1 20c0 14 -3 21 -11 30l-8 3z"/></g><g id="E08A-l1kd2zpi"><path transform="scale(1,-1)" d="M340 179c-9 24 -56 41 -89 41c-46 0 -81 -28 -100 -58c-17 -28 -25 -78 -25 -150c0 -65 2 -111 8 -135c8 -31 18 -49 40 -67c20 -17 43 -25 70 -25c54 0 92 36 115 75c14 25 23 54 28 88h27c0 -63 -24 -105 -58 -141c-35 -38 -82 -56 -140 -56c-45 0 -83 13 -115 39 c-57 45 -101 130 -101 226c0 59 33 127 68 163c36 37 97 72 160 72c36 0 93 -21 121 -40c11 -8 23 -17 33 -30c19 -23 27 -48 27 -76c0 -51 -35 -88 -86 -88c-43 0 -76 27 -76 68c0 26 7 35 21 51c15 17 32 27 58 32c7 2 14 7 14 11z"/></g><g id="E0A4-l1kd2zpi"><path transform="scale(1,-1)" d="M0 -39c0 68 73 172 200 172c66 0 114 -37 114 -95c0 -84 -106 -171 -218 -171c-64 0 -96 30 -96 94z"/></g><g id="E261-l1kd2zpi"><path transform="scale(1,-1)" d="M0 -188v539h18v-191l139 22v-533h-17v186zM18 -100l122 17v176l-122 -19v-174z"/></g><g id="E4E6-l1kd2zpi"><path transform="scale(1,-1)" d="M0 123c7 34 33 56 69 60c29 -3 43 -9 53 -29c4 -8 7 -15 10 -22c0 -21 -1 -25 -11 -35c-5 -8 -18 -14 -40 -20l12 -3l15 -1c44 0 97 26 122 56c10 11 18 26 24 42c7 1 15 2 22 3l-140 -424h-36l111 330c-10 -6 -27 -12 -53 -16l-52 -8h-10l-20 1c-1 0 -8 3 -21 6 c-37 9 -55 28 -55 60z"/></g><g id="E240-l1kd2zpi"><path transform="scale(1,-1)" d="M179 -646c15 29 29 55 46 102c18 49 30 108 30 138c0 105 -80 173 -168 200c-18 5 -47 9 -87 16v190h22c8 0 33 -61 71 -95c4 -3 -2 3 61 -56c62 -58 122 -137 122 -241c0 -38 -13 -106 -35 -163c-20 -51 -43 -99 -66 -132c-6 -5 -10 -7 -13 -7s-5 2 -5 5l4 10 c1 3 14 25 18 33z"/></g><g id="E883-l1kd2zpi"><path transform="scale(1,-1)" d="M161 326c52 0 94 -17 94 -68c0 -50 -40 -76 -82 -94c26 -21 39 -42 39 -64c0 -52 -56 -100 -118 -100h-12c-40 0 -82 23 -82 56c0 30 12 49 37 49c17 0 31 -16 34 -31c0 -5 -4 -12 -11 -21c-7 -5 -13 -10 -13 -21l11 -9l17 -4c21 0 40 12 56 37c13 21 19 45 19 70 c-9 30 -28 35 -66 35l6 23c34 0 60 4 77 13c20 11 30 35 30 70c0 28 -12 38 -39 40l-20 -3c-8 -3 -12 -9 -12 -16c2 -7 4 -11 5 -14l4 -11l3 -10l-3 -12c-5 -6 -11 -11 -20 -13c-2 0 -4 -1 -6 -1c-16 0 -30 13 -30 28c0 39 43 71 82 71z"/></g><g id="E4C0-l1kd2zpi"><path transform="scale(1,-1)" d="M0 0c0 0 40 320 300 320s300 -320 300 -320h-32s-38 227 -268 227s-268 -227 -268 -227h-32zM355 52c0 -30 -25 -55 -55 -55s-55 25 -55 55s25 55 55 55s55 -25 55 -55z"/></g></defs><style type="text/css">#l1kd2zpi g.page-margin {font-family:Times,serif;}#l1kd2zpi g.ending, #l1kd2zpi g.fing, #l1kd2zpi g.reh, #l1kd2zpi g.tempo {font-weight:bold;}#l1kd2zpi g.dir, #l1kd2zpi g.dynam, #l1kd2zpi g.mNum {font-style:italic;}#l1kd2zpi g.label {font-weight:normal;}#l1kd2zpi path {stroke:currentColor}</style><svg class="definition-scale" color="black" viewBox="0 0 14000 2200"><g class="page-margin" transform="translate(0, 150)"><g data-id="c1mi3z3l" data-class="mdiv" class="mdiv pageMilestone"/><g data-id="dpudpa9" data-class="score" class="score pageMilestone"/><g data-id="f1dhpvs5" data-class="system" class="system"><g data-id="fh7ghbh" data-class="section" class="section systemMilestone"/><g data-id="m1nhw6r7" data-class="measure" class="measure"><g data-id="r1irbvd7" data-class="staff" class="staff"><path d="M0 553 L5414 553" stroke-width="13"/><path d="M0 733 L5414 733" stroke-width="13"/><path d="M0 913 L5414 913" stroke-width="13"/><path d="M0 1093 L5414 1093" stroke-width="13"/><path d="M0 1273 L5414 1273" stroke-width="13"/><g data-id="j2jp9b9" data-class="clef" class="clef"><use href="#E050-l1kd2zpi" transform="translate(90, 1093) scale(0.72, 0.72)"/></g><g data-id="kw3jii3" data-class="keySig" class="keySig"><g data-id="l1ljcdfb" data-class="keyAccid" class="keyAccid"><use href="#E260-l1kd2zpi" transform="translate(735, 913) scale(0.72, 0.72)"/></g><g data-id="m15aixvv" data-class="keyAccid" class="keyAccid"><use href="#E260-l1kd2zpi" transform="translate(915, 643) scale(0.72, 0.72)"/></g><g data-id="nd2qsxp" data-class="keyAccid" class="keyAccid"><use href="#E260-l1kd2zpi" transform="translate(1095, 1003) scale(0.72, 0.72)"/></g><g data-id="o14wnh8b" data-class="keyAccid" class="keyAccid"><use href="#E260-l1kd2zpi" transform="translate(1275, 733) scale(0.72, 0.72)"/></g></g><g data-id="p1vql4wu" data-class="meterSig" class="meterSig"><use href="#E08A-l1kd2zpi" transform="translate(1597, 913) scale(0.72, 0.72)"/></g><g data-class="ledgerLines" class="ledgerLines above"><g data-class="lineDash" class="lineDash" data-related="#f83fqbt"><path d="M2117 373 L2439 373" stroke-width="22"/></g><g data-class="lineDash" class="lineDash" data-related="#f83fqbt"><path d="M2117 193 L2439 193" stroke-width="22"/></g></g><g data-class="ledgerLines" class="ledgerLines below"><g data-class="lineDash" class="lineDash" data-related="#jux5162"><path d="M4843 1453 L5165 1453" stroke-width="22"/></g><g data-class="lineDash" class="lineDash" data-related="#jux5162"><path d="M4843 1633 L5165 1633" stroke-width="22"/></g><g data-class="lineDash" class="lineDash" data-related="#jux5162"><path d="M4843 1813 L5165 1813" stroke-width="22"/></g></g><g data-id="s1wxj5sk" data-class="layer" class="layer"><g data-id="f83fqbt" data-class="note" class="note"><g data-class="notehead" class="notehead"><use href="#E0A4-l1kd2zpi" transform="translate(2165, 193) scale(0.72, 0.72)"/></g><g data-id="jjicmsh" data-class="stem" class="stem"><path d="M2174 221 L2174 913" stroke-width="18"/></g></g><g data-id="t13dink2" data-class="beam" class="beam"><polygon stroke-opacity="1" fill-opacity="1" points="2855,1453 3453,1273 3453,1183 2855,1363"/><polygon stroke-opacity="1" fill-opacity="1" points="3227,1202 3453,1138 3453,1048 3227,1112"/><g data-id="g1h02n72" data-class="note" class="note"><g data-class="notehead" class="notehead"><use href="#E0A4-l1kd2zpi" transform="translate(2855, 823) scale(0.72, 0.72)"/></g><g data-id="l1ph62k4" data-class="dots" class="dots"><ellipse cx="3171" cy="823" rx="36" ry="36" fill-opacity="1" stroke-opacity="1"/></g><g data-id="k1x5by2" data-class="stem" class="stem"><path d="M2864 851 L2864 1435" stroke-width="18"/></g></g><g data-id="h1c4roh8" data-class="note" class="note"><g data-class="notehead" class="notehead"><use href="#E0A4-l1kd2zpi" transform="translate(3435, 643) scale(0.72, 0.72)"/></g><g data-id="m12ocgt2" data-class="stem" class="stem"><path d="M3444 671 L3444 1255" stroke-width="18"/></g><g data-id="s1qvlm9g" data-class="accid" class="accid"><use href="#E261-l1kd2zpi" transform="translate(3277, 643) scale(0.72, 0.72)"/></g></g></g><g data-id="iv440uw" data-class="note" class="note"><g data-class="notehead" class="notehead"><use href="#E0A4-l1kd2zpi" transform="translate(3751, 553) scale(0.72, 0.72)"/></g><g data-id="nfvj9oo" data-class="stem" class="stem"><path d="M3760 581 L3760 1183" stroke-width="18"/></g></g><g data-id="e1584jqe" data-class="rest" class="rest"><use href="#E4E6-l1kd2zpi" transform="translate(4441, 913) scale(0.72, 0.72)"/></g><g data-id="jux5162" data-class="note" class="note"><g data-class="notehead" class="notehead"><use href="#E0A4-l1kd2zpi" transform="translate(4891, 1813) scale(0.72, 0.72)"/></g><g data-id="oz9qofh" data-class="stem" class="stem"><path d="M5108 1785 L5108 913" stroke-width="18"/><g data-id="p17k11av" data-class="flag" class="flag"><use href="#E240-l1kd2zpi" transform="translate(5099, 913) scale(0.72, 0.72)"/></g></g></g></g></g><g data-id="u1mykyu9" data-class="barLine" class="barLine"><path d="M5401 553 L5401 1273" stroke-width="27"/></g></g><g data-id="vnqj5t6" data-class="measure" class="measure"><g data-id="t1uvwpdz" data-class="staff" class="staff"><path d="M5414 553 L8444 553" stroke-width="13"/><path d="M5414 733 L8444 733" stroke-width="13"/><path d="M5414 913 L8444 913" stroke-width="13"/><path d="M5414 1093 L8444 1093" stroke-width="13"/><path d="M5414 1273 L8444 1273" stroke-width="13"/><g data-class="ledgerLines" class="ledgerLines above"><g data-class="lineDash" class="lineDash" data-related="#q4sxbf7"><path d="M7706 373 L8028 373" stroke-width="22"/></g></g><g data-class="ledgerLines" class="ledgerLines below"><g data-class="lineDash" class="lineDash" data-related="#kqdbrs6"><path d="M5550 1453 L5864 1453" stroke-width="22"/></g><g data-class="lineDash" class="lineDash" data-related="#l4qzyr6"><path d="M5910 1453 L6224 1453" stroke-width="22"/></g><g data-class="lineDash" class="lineDash" data-related="#kqdbrs6"><path d="M5550 1633 L5864 1633" stroke-width="22"/></g></g><g data-id="u4em1k" data-class="layer" class="layer"><g data-id="u74d7s5" data-class="beam" class="beam"><polygon stroke-opacity="1" fill-opacity="1" points="5802,733 6540,553 6540,643 5802,823"/><g data-id="w1ciwo4q" data-class="tuplet" class="tuplet"><g data-id="q1tbulsm" data-class="tupletNum" class="tupletNum"><use href="#E883-l1kd2zpi" transform="translate(6031, 589) scale(0.72, 0.72)"/></g><g data-id="kqdbrs6" data-class="note" class="note"><g data-class="notehead" class="notehead"><use href="#E0A4-l1kd2zpi" transform="translate(5594, 1633) scale(0.72, 0.72)"/></g><g data-id="rr481hj" data-class="stem" class="stem"><path d="M5811 1605 L5811 751" stroke-width="18"/></g><g data-id="y3pd3i4" data-class="accid" class="accid"/></g><g data-id="l4qzyr6" data-class="note" class="note"><g data-class="notehead" class="notehead"><use href="#E0A4-l1kd2zpi" transform="translate(5954, 1453) scale(0.72, 0.72)"/></g><g data-id="s11zpkcf" data-class="stem" class="stem"><path d="M6171 1425 L6171 661" stroke-width="18"/></g></g><g data-id="mjx0kl" data-class="note" class="note"><g data-class="notehead" class="notehead"><use href="#E0A4-l1kd2zpi" transform="translate(6314, 1183) scale(0.72, 0.72)"/></g><g data-id="t1nfky3j" data-class="stem" class="stem"><path d="M6531 1155 L6531 571" stroke-width="18"/></g></g></g></g><g data-id="v1ctix3h" data-class="beam" class="beam"><polygon stroke-opacity="1" fill-opacity="1" points="6674,1543 7412,1363 7412,1273 6674,1453"/><g data-id="xrs556q" data-class="tuplet" class="tuplet"><g data-id="u10fg3l5" data-class="tupletNum" class="tupletNum"><use href="#E883-l1kd2zpi" transform="translate(6998, 1736) scale(0.72, 0.72)"/></g><g data-id="n64dcms" data-class="note" class="note"><g data-class="notehead" class="notehead"><use href="#E0A4-l1kd2zpi" transform="translate(6674, 1003) scale(0.72, 0.72)"/></g><g data-id="ve3f74v" data-class="stem" class="stem"><path d="M6683 1031 L6683 1525" stroke-width="18"/></g><g data-id="z1no8uul" data-class="accid" class="accid"/></g><g data-id="o16gwvn8" data-class="note" class="note"><g data-class="notehead" class="notehead"><use href="#E0A4-l1kd2zpi" transform="translate(7034, 823) scale(0.72, 0.72)"/></g><g data-id="w1pes4fr" data-class="stem" class="stem"><path d="M7043 851 L7043 1435" stroke-width="18"/></g></g><g data-id="psxaq44" data-class="note" class="note"><g data-class="notehead" class="notehead"><use href="#E0A4-l1kd2zpi" transform="translate(7394, 553) scale(0.72, 0.72)"/></g><g data-id="x1xegxqd" data-class="stem" class="stem"><path d="M7403 581 L7403 1345" stroke-width="18"/></g></g></g></g><g data-id="q4sxbf7" data-class="note" class="note"><g data-class="notehead" class="notehead"><use href="#E0A4-l1kd2zpi" transform="translate(7754, 373) scale(0.72, 0.72)"/></g><g data-id="y1cwv0vq" data-class="stem" class="stem"><path d="M7763 401 L7763 1003" stroke-width="18"/></g><g data-id="a11h92kp" data-class="accid" class="accid"/></g></g></g><g data-id="ry5pic5" data-class="fermata" class="fermata"><use href="#E4C0-l1kd2zpi" transform="translate(7651, 230) scale(0.72, 0.72)"/></g><g data-id="dav87gv" data-class="barLine" class="barLine"/></g><g data-id="c1xrxbpw" data-class="systemMilestoneEnd" class="systemMilestoneEnd fh7ghbh"/></g><g data-id="deo4srl" data-class="pageMilestoneEnd" class="pageMilestoneEnd dpudpa9"/><g data-id="e1g6vb6w" data-class="pageMilestoneEnd" class="pageMilestoneEnd c1mi3z3l"/></g></svg></svg>