<svg viewBox="0 0 560 84" version="1.1" xmlns="http://www.w3.org/2000/svg" xmlns:xlink="http://www.w3.org/1999/xlink" overflow="visible" id="r12d85xa"><desc>Engraved by Verovio 5.6.0-85e7620</desc><defs><g id="E050-r12d85xa"><path transform="scale(1,-1)" d="M441 -245c-23 -4 -48 -6 -76 -6c-59 0 -102 7 -130 20c-88 42 -150 93 -187 154c-26 44 -43 103 -48 176c0 6 -1 13 -1 19c0 54 15 111 45 170c29 57 65 106 110 148s96 85 153 127c-3 16 -8 46 -13 92c-4 43 -5 73 -5 89c0 117 16 172 69 257c34 54 64 82 89 82 c21 0 43 -30 69 -92s39 -115 41 -159v-15c0 -109 -21 -162 -67 -241c-13 -20 -63 -90 -98 -118c-13 -9 -25 -19 -37 -29l31 -181c8 1 18 2 28 2c58 0 102 -12 133 -35c59 -43 92 -104 98 -184c1 -7 1 -15 1 -22c0 -123 -87 -209 -181 -248c8 -57 17 -110 25 -162 c5 -31 6 -58 6 -80c0 -30 -5 -53 -14 -70c-35 -64 -88 -99 -158 -103c-5 0 -11 -1 -16 -1c-37 0 -72 10 -108 27c-50 24 -77 59 -80 105v11c0 29 7 55 20 76c18 28 45 42 79 44h6c49 0 93 -42 97 -87v-9c0 -51 -34 -86 -105 -106c17 -24 51 -36 102 -36c62 0 116 43 140 85 c9 16 13 41 13 74c0 20 -1 42 -5 67c-8 53 -18 106 -26 159zM461 939c-95 0 -135 -175 -135 -286c0 -24 2 -48 5 -71c50 39 92 82 127 128c40 53 60 100 60 140v8c-4 53 -22 81 -55 81h-2zM406 119l54 -326c73 25 110 78 110 161c0 7 0 15 -1 23c-7 95 -57 142 -151 142h-12 zM382 117c-72 -2 -128 -47 -128 -120v-7c2 -46 43 -99 75 -115c-3 -2 -7 -5 -10 -10c-70 33 -116 88 -123 172v11c0 68 44 126 88 159c23 17 49 29 78 36l-29 170c-21 -13 -52 -37 -92 -73c-50 -44 -86 -84 -109 -119c-45 -69 -67 -130 -67 -182v-13c5 -68 35 -127 93 -176 s125 -73 203 -73c25 0 50 3 75 9c-19 111 -36 221 -54 331z"/></g><g id="E260-r12d85xa"><path transform="scale(1,-1)" d="M20 110c32 16 54 27 93 27c26 0 35 -3 54 -13c13 -7 24 -20 27 -38l4 -25c0 -28 -16 -57 -45 -89c-23 -25 -39 -44 -65 -68l-88 -79v644h20v-359zM90 106c-32 0 -48 -10 -70 -29v-194c31 31 54 59 71 84c21 32 32 59 32 84c0 9 1 16 1 20c0 14 -3 21 -11 30l-8 3z"/></g><g id="E082-r12d85xa"><path transform="scale(1,-1)" d="M124 -185c-18 0 -55 -14 -65 -65h-36l-3 30c0 25 6 45 18 63c11 19 22 30 39 43l121 82l37 29c15 11 27 29 38 54c12 24 18 47 18 70c0 40 -19 88 -94 88c-25 0 -32 0 -50 -8c-14 -5 -23 -12 -26 -22c3 -9 7 -15 10 -18l24 -17c12 -7 17 -11 27 -21c5 -7 7 -16 7 -27 c0 -12 0 -57 -79 -74c-30 0 -76 26 -76 94c0 66 81 135 197 135c72 0 181 -32 181 -150c0 -53 -32 -95 -113 -133l-91 -41c-26 -11 -45 -23 -57 -37l49 7c84 0 115 -41 148 -41c20 0 33 20 39 61h35c0 -152 -68 -168 -114 -168c-17 0 -65 0 -79 7h10l-28 17 c-49 37 -69 40 -87 42z"/></g><g id="E084-r12d85xa"><path transform="scale(1,-1)" d="M20 -78c84 97 114 180 134 329h170c-13 -32 -82 -132 -99 -151l-84 -97c-33 -36 -59 -63 -80 -81h162v102l127 123v-225h57v-39h-57v-34c0 -43 19 -65 57 -65v-34h-244v36c48 0 60 26 60 70v27h-203v39z"/></g><g id="E4E7-r12d85xa"><path transform="scale(1,-1)" d="M133 -111c0 -33 -21 -50 -52 -55c10 -3 18 -4 25 -4c40 0 69 24 90 47l66 197c-36 -18 -64 -25 -112 -25c-23 0 -38 3 -45 8c-37 7 -55 27 -55 59c8 35 30 54 68 58c45 -6 49 -13 64 -48c0 -3 1 -5 1 -7c0 -27 -25 -46 -52 -49c6 -4 15 -6 26 -6c32 2 62 14 88 29 c32 19 44 36 59 71l7 1l10 2h4c-72 -220 -143 -439 -215 -659h-37l108 324c-20 -13 -51 -20 -82 -20c-21 0 -35 4 -43 10c-37 6 -55 26 -55 58c8 35 31 56 68 60c43 -8 48 -13 64 -51z"/></g><g id="E0A4-r12d85xa"><path transform="scale(1,-1)" d="M0 -39c0 68 73 172 200 172c66 0 114 -37 114 -95c0 -84 -106 -171 -218 -171c-64 0 -96 30 -96 94z"/></g><g id="E4E6-r12d85xa"><path transform="scale(1,-1)" d="M0 123c7 34 33 56 69 60c29 -3 43 -9 53 -29c4 -8 7 -15 10 -22c0 -21 -1 -25 -11 -35c-5 -8 -18 -14 -40 -20l12 -3l15 -1c44 0 97 26 122 56c10 11 18 26 24 42c7 1 15 2 22 3l-140 -424h-36l111 330c-10 -6 -27 -12 -53 -16l-52 -8h-10l-20 1c-1 0 -8 3 -21 6 c-37 9 -55 28 -55 60z"/></g><g id="E241-r12d85xa"><path transform="scale(1,-1)" d="M179 646c-4 8 -17 30 -18 33l-4 10c0 3 2 5 5 5s7 -2 13 -7c23 -33 46 -81 66 -132c22 -57 35 -125 35 -163c0 -104 -60 -183 -122 -241c-63 -59 -57 -53 -61 -56c-38 -34 -63 -95 -71 -95h-22v190c40 7 69 11 87 16c88 27 168 95 168 200c0 30 -12 89 -30 138 c-17 47 -31 73 -46 102z"/></g></defs><style type="text/css">#r12d85xa g.page-margin {font-family:Times,serif;}#r12d85xa g.ending, #r12d85xa g.fing, #r12d85xa g.reh, #r12d85xa g.tempo {font-weight:bold;}#r12d85xa g.dir, #r12d85xa g.dynam, #r12d85xa g.mNum {font-style:italic;}#r12d85xa g.label {font-weight:normal;}#r12d85xa path {stroke:currentColor}</style><svg class="definition-scale" color="black" viewBox="0 0 14000 2100"><g class="page-margin" transform="translate(0, 150)"><g data-id="qahzqrq" data-class="mdiv" class="mdiv pageMilestone"/><g data-id="r61ivhf" data-class="score" class="score pageMilestone"/><g data-id="mvbb6i5" data-class="system" class="system"><g data-id="t1xnjvn7" data-class="section" class="section systemMilestone"/><g data-id="s1gd8ln6" data-class="measure" class="measure"><g data-id="f1b1mzy5" data-class="staff" class="staff"><path d="M0 540 L4358 540" stroke-width="13"/><path d="M0 720 L4358 720" stroke-width="13"/><path d="M0 900 L4358 900" stroke-width="13"/><path d="M0 1080 L4358 1080" stroke-width="13"/><path d="M0 1260 L4358 1260" stroke-width="13"/><g data-id="s181198c" data-class="clef" class="clef"><use href="#E050-r12d85xa" transform="translate(90, 1080) scale(0.72, 0.72)"/></g><g data-id="twkatxp" data-class="keySig" class="keySig"><g data-id="ufr1rdm" data-class="keyAccid" class="keyAccid"><use href="#E260-r12d85xa" transform="translate(735, 900) scale(0.72, 0.72)"/></g><g data-id="v1ly84r1" data-class="keyAccid" class="keyAccid"><use href="#E260-r12d85xa" transform="translate(915, 630) scale(0.72, 0.72)"/></g></g><g data-id="w6v9xq9" data-class="meterSig" class="meterSig"><use href="#E082-r12d85xa" transform="translate(1223, 720) scale(0.72, 0.72)"/><use href="#E084-r12d85xa" transform="translate(1228, 1080) scale(0.72, 0.72)"/></g><g data-id="g1108yec" data-class="layer" class="layer"><g data-id="c1v34ge" data-class="rest" class="rest"><use href="#E4E7-r12d85xa" transform="translate(1796, 900) scale(0.72, 0.72)"/></g><g data-id="b1hyeeb6" data-class="beam" class="beam"><polygon stroke-opacity="1" fill-opacity="1" points="2327,315 2977,315 2977,405 2327,405"/><polygon stroke-opacity="1" fill-opacity="1" points="2327,450 2652,450 2652,540 2327,540"/><polygon stroke-opacity="1" fill-opacity="1" points="2652,450 2977,450 2977,540 2652,540"/><g data-id="fewt2l9" data-class="note" class="note"><g data-class="notehead" class="notehead"><use href="#E0A4-r12d85xa" transform="translate(2119, 1080) scale(0.72, 0.72)"/></g><g data-id="z1bjn3rx" data-class="stem" class="stem"><path d="M2336 1052 L2336 333" stroke-width="18"/></g></g><g data-id="g11et42i" data-class="note" class="note"><g data-class="notehead" class="notehead"><use href="#E0A4-r12d85xa" transform="translate(2435, 900) scale(0.72, 0.72)"/></g><g data-id="a1iwejsd" data-class="stem" class="stem"><path d="M2652 872 L2652 333" stroke-width="18"/></g><g data-id="i1ywmrih" data-class="accid" class="accid"/></g><g data-id="h1mlrq93" data-class="note" class="note"><g data-class="notehead" class="notehead"><use href="#E0A4-r12d85xa" transform="translate(2751, 1080) scale(0.72, 0.72)"/></g><g data-id="b1f5visi" data-class="stem" class="stem"><path d="M2968 1052 L2968 333" stroke-width="18"/></g></g></g><g data-id="c1leoqbp" data-class="beam" class="beam"><polygon stroke-opacity="1" fill-opacity="1" points="3275,315 4241,315 4241,405 3275,405"/><polygon stroke-opacity="1" fill-opacity="1" points="3275,450 3600,450 3600,540 3275,540"/><polygon stroke-opacity="1" fill-opacity="1" points="3600,450 3916,450 3916,540 3600,540"/><polygon stroke-opacity="1" fill-opacity="1" points="3916,450 4241,450 4241,540 3916,540"/><g data-id="io49qgj" data-class="note" class="note"><g data-class="notehead" class="notehead"><use href="#E0A4-r12d85xa" transform="translate(3067, 900) scale(0.72, 0.72)"/></g><g data-id="c1cxknyz" data-class="stem" class="stem"><path d="M3284 872 L3284 333" stroke-width="18"/></g><g data-id="j1uwo65p" data-class="accid" class="accid"/></g><g data-id="j19s44uq" data-class="note" class="note"><g data-class="notehead" class="notehead"><use href="#E0A4-r12d85xa" transform="translate(3383, 1080) scale(0.72, 0.72)"/></g><g data-id="d1mp6s1y" data-class="stem" class="stem"><path d="M3600 1052 L3600 333" stroke-width="18"/></g></g><g data-id="kn5h7iz" data-class="note" class="note"><g data-class="notehead" class="notehead"><use href="#E0A4-r12d85xa" transform="translate(3699, 900) scale(0.72, 0.72)"/></g><g data-id="e14ktbqo" data-class="stem" class="stem"><path d="M3916 872 L3916 333" stroke-width="18"/></g><g data-id="k1eo7lpw" data-class="accid" class="accid"/></g><g data-id="l1o3b5p" data-class="note" class="note"><g data-class="notehead" class="notehead"><use href="#E0A4-r12d85xa" transform="translate(4015, 1080) scale(0.72, 0.72)"/></g><g data-id="fu357gn" data-class="stem" class="stem"><path d="M4232 1052 L4232 333" stroke-width="18"/></g></g></g></g></g><g data-id="ay6ro0c" data-class="barLine" class="barLine"><path d="M4345 540 L4345 1260" stroke-width="27"/></g></g><g data-id="bw9ghoa" data-class="measure" class="measure"><g data-id="h12vy0ic" data-class="staff" class="staff"><path d="M4358 540 L6722 540" stroke-width="13"/><path d="M4358 720 L6722 720" stroke-width="13"/><path d="M4358 900 L6722 900" stroke-width="13"/><path d="M4358 1080 L6722 1080" stroke-width="13"/><path d="M4358 1260 L6722 1260" stroke-width="13"/><g data-id="i1e7eoi" data-class="layer" class="layer"><g data-id="d49by57" data-class="rest" class="rest"><use href="#E4E7-r12d85xa" transform="translate(4538, 900) scale(0.72, 0.72)"/></g><g data-id="dwkrnp5" data-class="beam" class="beam"><polygon stroke-opacity="1" fill-opacity="1" points="5069,315 5719,315 5719,405 5069,405"/><polygon stroke-opacity="1" fill-opacity="1" points="5069,450 5394,450 5394,540 5069,540"/><polygon stroke-opacity="1" fill-opacity="1" points="5394,450 5719,450 5719,540 5394,540"/><g data-id="mzzozom" data-class="note" class="note"><g data-class="notehead" class="notehead"><use href="#E0A4-r12d85xa" transform="translate(4861, 1080) scale(0.72, 0.72)"/></g><g data-id="g1vk6a4n" data-class="stem" class="stem"><path d="M5078 1052 L5078 333" stroke-width="18"/></g></g><g data-id="n14rduk0" data-class="note" class="note"><g data-class="notehead" class="notehead"><use href="#E0A4-r12d85xa" transform="translate(5177, 900) scale(0.72, 0.72)"/></g><g data-id="ht4ow1t" data-class="stem" class="stem"><path d="M5394 872 L5394 333" stroke-width="18"/></g><g data-id="l1fr946t" data-class="accid" class="accid"/></g><g data-id="oei36r0" data-class="note" class="note"><g data-class="notehead" class="notehead"><use href="#E0A4-r12d85xa" transform="translate(5493, 1080) scale(0.72, 0.72)"/></g><g data-id="i16uggzy" data-class="stem" class="stem"><path d="M5710 1052 L5710 333" stroke-width="18"/></g></g></g><g data-id="e9mar4t" data-class="beam" class="beam"><polygon stroke-opacity="1" fill-opacity="1" points="6017,315 6485,360 6485,450 6017,405"/><g data-id="px5yloo" data-class="note" class="note"><g data-class="notehead" class="notehead"><use href="#E0A4-r12d85xa" transform="translate(5809, 900) scale(0.72, 0.72)"/></g><g data-id="j16yf7jr" data-class="stem" class="stem"><path d="M6026 872 L6026 333" stroke-width="18"/></g><g data-id="mzxa5u2" data-class="accid" class="accid"/></g><g data-id="q1dx4haq" data-class="note" class="note"><g data-class="notehead" class="notehead"><use href="#E0A4-r12d85xa" transform="translate(6259, 1080) scale(0.72, 0.72)"/></g><g data-id="k27169s" data-class="stem" class="stem"><path d="M6476 1052 L6476 378" stroke-width="18"/></g></g></g></g></g><g data-id="jq5vrhc" data-class="barLine" class="barLine"><path d="M6709 540 L6709 1260" stroke-width="27"/></g></g><g data-id="ke1j0y0" data-class="measure" class="measure"><g data-id="jksnq2n" data-class="staff" class="staff"><path d="M6722 540 L8897 540" stroke-width="13"/><path d="M6722 720 L8897 720" stroke-width="13"/><path d="M6722 900 L8897 900" stroke-width="13"/><path d="M6722 1080 L8897 1080" stroke-width="13"/><path d="M6722 1260 L8897 1260" stroke-width="13"/><g data-class="ledgerLines" class="ledgerLines below"><g data-class="lineDash" class="lineDash" data-related="#s51k162"><path d="M7170 1440 L7492 1440" stroke-width="22"/></g><g data-class="lineDash" class="lineDash" data-related="#s51k162"><path d="M7170 1620 L7492 1620" stroke-width="22"/></g></g><g data-id="k1g42i97" data-class="layer" class="layer"><g data-id="fj1izbg" data-class="beam" class="beam"><polygon stroke-opacity="1" fill-opacity="1" points="7110,360 7760,360 7760,450 7110,450"/><polygon stroke-opacity="1" fill-opacity="1" points="7110,495 7435,495 7435,585 7110,585"/><g data-id="rdvhzgh" data-class="note" class="note"><g data-class="notehead" class="notehead"><use href="#E0A4-r12d85xa" transform="translate(6902, 990) scale(0.72, 0.72)"/></g><g data-id="l148yexk" data-class="stem" class="stem"><path d="M7119 962 L7119 378" stroke-width="18"/></g></g><g data-id="s51k162" data-class="note" class="note"><g data-class="notehead" class="notehead"><use href="#E0A4-r12d85xa" transform="translate(7218, 1620) scale(0.72, 0.72)"/></g><g data-id="m7zzhms" data-class="stem" class="stem"><path d="M7435 1592 L7435 378" stroke-width="18"/></g></g><g data-id="tgy8muf" data-class="note" class="note"><g data-class="notehead" class="notehead"><use href="#E0A4-r12d85xa" transform="translate(7534, 990) scale(0.72, 0.72)"/></g><g data-id="nmig9v1" data-class="stem" class="stem"><path d="M7751 962 L7751 378" stroke-width="18"/></g></g></g><g data-id="e11k9whl" data-class="rest" class="rest"><use href="#E4E6-r12d85xa" transform="translate(7984, 900) scale(0.72, 0.72)"/></g><g data-id="ujgmot2" data-class="note" class="note"><g data-class="notehead" class="notehead"><use href="#E0A4-r12d85xa" transform="translate(8434, 810) scale(0.72, 0.72)"/></g><g data-id="o12fp10d" data-class="stem" class="stem"><path d="M8443 838 L8443 1440" stroke-width="18"/><g data-id="p1j3ku8c" data-class="flag" class="flag"><use href="#E241-r12d85xa" transform="translate(8434, 1440) scale(0.72, 0.72)"/></g></g></g></g></g><g data-id="s1ark7mu" data-class="barLine" class="barLine"><path d="M8884 540 L8884 1260" stroke-width="27"/></g></g><g data-id="t1ai5wgx" data-class="measure" class="measure"><g data-id="lnfucl7" data-class="staff" class="staff"><path d="M8897 540 L11254 540" stroke-width="13"/><path d="M8897 720 L11254 720" stroke-width="13"/><path d="M8897 900 L11254 900" stroke-width="13"/><path d="M8897 1080 L11254 1080" stroke-width="13"/><path d="M8897 1260 L11254 1260" stroke-width="13"/><g data-id="m1vek9xs" data-class="layer" class="layer"><g data-id="g1m3c7p0" data-class="beam" class="beam"><polygon stroke-opacity="1" fill-opacity="1" points="9077,1485 10043,1485 10043,1395 9077,1395"/><polygon stroke-opacity="1" fill-opacity="1" points="9077,1350 9402,1350 9402,1260 9077,1260"/><polygon stroke-opacity="1" fill-opacity="1" points="9402,1350 9718,1350 9718,1260 9402,1260"/><polygon stroke-opacity="1" fill-opacity="1" points="9718,1350 10043,1350 10043,1260 9718,1260"/><g data-id="v1qj4drb" data-class="note" class="note"><g data-class="notehead" class="notehead"><use href="#E0A4-r12d85xa" transform="translate(9077, 720) scale(0.72, 0.72)"/></g><g data-id="qmf4rn7" data-class="stem" class="stem"><path d="M9086 748 L9086 1467" stroke-width="18"/></g></g><g data-id="wqvsv2m" data-class="note" class="note"><g data-class="notehead" class="notehead"><use href="#E0A4-r12d85xa" transform="translate(9393, 900) scale(0.72, 0.72)"/></g><g data-id="r1nc756h" data-class="stem" class="stem"><path d="M9402 928 L9402 1467" stroke-width="18"/></g><g data-id="n1m2kk0f" data-class="accid" class="accid"/></g><g data-id="x2kusut" data-class="note" class="note"><g data-class="notehead" class="notehead"><use href="#E0A4-r12d85xa" transform="translate(9709, 720) scale(0.72, 0.72)"/></g><g data-id="sqn0i0g" data-class="stem" class="stem"><path d="M9718 748 L9718 1467" stroke-width="18"/></g></g><g data-id="y1j735sv" data-class="note" class="note"><g data-class="notehead" class="notehead"><use href="#E0A4-r12d85xa" transform="translate(10025, 900) scale(0.72, 0.72)"/></g><g data-id="t37h5rp" data-class="stem" class="stem"><path d="M10034 928 L10034 1467" stroke-width="18"/></g><g data-id="o4bm2c7" data-class="accid" class="accid"/></g></g><g data-id="hjrxyvo" data-class="beam" class="beam"><polygon stroke-opacity="1" fill-opacity="1" points="10341,1620 10809,1665 10809,1575 10341,1530"/><g data-id="zcxhukl" data-class="note" class="note"><g data-class="notehead" class="notehead"><use href="#E0A4-r12d85xa" transform="translate(10341, 720) scale(0.72, 0.72)"/></g><g data-id="usxocl0" data-class="stem" class="stem"><path d="M10350 748 L10350 1602" stroke-width="18"/></g></g><g data-id="a1wc5afm" data-class="note" class="note"><g data-class="notehead" class="notehead"><use href="#E0A4-r12d85xa" transform="translate(10791, 1080) scale(0.72, 0.72)"/></g><g data-id="v1rs542h" data-class="stem" class="stem"><path d="M10800 1108 L10800 1647" stroke-width="18"/></g></g></g></g></g><g data-id="b1acwnd6" data-class="barLine" class="barLine"><path d="M11241 540 L11241 1260" stroke-width="27"/></g></g><g data-id="upusut4" data-class="systemMilestoneEnd" class="systemMilestoneEnd t1xnjvn7"/></g><g data-id="vg93gae" data-class="pageMilestoneEnd" class="pageMilestoneEnd r61ivhf"/><g data-id="w1lkavec" data-class="pageMilestoneEnd" class="pageMilestoneEnd qahzqrq"/></g></svg></svg>