<svg viewBox="0 0 560 84" version="1.1" xmlns="http://www.w3.org/2000/svg" xmlns:xlink="http://www.w3.org/1999/xlink" overflow="visible" id="l1bk12ys"><desc>Engraved by Verovio 5.6.0-85e7620</desc><defs><g id="E050-l1bk12ys"><path transform="scale(1,-1)" d="M441 -245c-23 -4 -48 -6 -76 -6c-59 0 -102 7 -130 20c-88 42 -150 93 -187 154c-26 44 -43 103 -48 176c0 6 -1 13 -1 19c0 54 15 111 45 170c29 57 65 106 110 148s96 85 153 127c-3 16 -8 46 -13 92c-4 43 -5 73 -5 89c0 117 16 172 69 257c34 54 64 82 89 82 c21 0 43 -30 69 -92s39 -115 41 -159v-15c0 -109 -21 -162 -67 -241c-13 -20 -63 -90 -98 -118c-13 -9 -25 -19 -37 -29l31 -181c8 1 18 2 28 2c58 0 102 -12 133 -35c59 -43 92 -104 98 -184c1 -7 1 -15 1 -22c0 -123 -87 -209 -181 -248c8 -57 17 -110 25 -162 c5 -31 6 -58 6 -80c0 -30 -5 -53 -14 -70c-35 -64 -88 -99 -158 -103c-5 0 -11 -1 -16 -1c-37 0 -72 10 -108 27c-50 24 -77 59 -80 105v11c0 29 7 55 20 76c18 28 45 42 79 44h6c49 0 93 -42 97 -87v-9c0 -51 -34 -86 -105 -106c17 -24 51 -36 102 -36c62 0 116 43 140 85 c9 16 13 41 13 74c0 20 -1 42 -5 67c-8 53 -18 106 -26 159zM461 939c-95 0 -135 -175 -135 -286c0 -24 2 -48 5 -71c50 39 92 82 127 128c40 53 60 100 60 140v8c-4 53 -22 81 -55 81h-2zM406 119l54 -326c73 25 110 78 110 161c0 7 0 15 -1 23c-7 95 -57 142 -151 142h-12 zM382 117c-72 -2 -128 -47 -128 -120v-7c2 -46 43 -99 75 -115c-3 -2 -7 -5 -10 -10c-70 33 -116 88 -123 172v11c0 68 44 126 88 159c23 17 49 29 78 36l-29 170c-21 -13 -52 -37 -92 -73c-50 -44 -86 -84 -109 -119c-45 -69 -67 -130 -67 -182v-13c5 -68 35 -127 93 -176 s125 -73 203 -73c25 0 50 3 75 9c-19 111 -36 221 -54 331z"/></g><g id="E08B-l1bk12ys"><path transform="scale(1,-1)" d="M188 200c-42 -22 -63 -69 -63 -141v-119c0 -39 7 -70 19 -94s26 -40 44 -48v402zM0 -0c0 127 80 220 186 246v72h32l-6 -72c33 0 71 0 101 -11c54 -20 102 -65 102 -135c0 -16 -4 -30 -13 -43s-20 -24 -32 -29l-20 -8l-23 -3c-22 2 -41 8 -55 21s-21 31 -26 51 c0 38 45 80 79 80c12 0 19 3 19 10c0 6 -6 12 -15 18c-19 13 -47 24 -79 24c-10 0 -20 -1 -32 -5v-431c15 -3 12 -4 30 -4c57 0 100 51 121 93l17 39c3 13 5 25 5 35h26c-6 -70 -28 -121 -66 -152s-82 -47 -133 -47v-68h-30v72c-57 10 -122 54 -153 109c-7 12 -13 26 -19 42 c-11 29 -16 61 -16 96z"/></g><g id="E0A4-l1bk12ys"><path transform="scale(1,-1)" d="M0 -39c0 68 73 172 200 172c66 0 114 -37 114 -95c0 -84 -106 -171 -218 -171c-64 0 -96 30 -96 94z"/></g><g id="E262-l1bk12ys"><path transform="scale(1,-1)" d="M136 186v169h17v-164l44 14v-91l-44 -14v-165l44 12v-91l-44 -13v-155h-17v150l-76 -22v-155h-17v149l-43 -13v90l43 14v167l-43 -14v92l43 13v169h17v-163zM60 73v-167l76 22v168z"/></g><g id="E240-l1bk12ys"><path transform="scale(1,-1)" d="M179 -646c15 29 29 55 46 102c18 49 30 108 30 138c0 105 -80 173 -168 200c-18 5 -47 9 -87 16v190h22c8 0 33 -61 71 -95c4 -3 -2 3 61 -56c62 -58 122 -137 122 -241c0 -38 -13 -106 -35 -163c-20 -51 -43 -99 -66 -132c-6 -5 -10 -7 -13 -7s-5 2 -5 5l4 10 c1 3 14 25 18 33z"/></g></defs><style type="text/css">#l1bk12ys g.page-margin {font-family:Times,serif;}#l1bk12ys g.ending, #l1bk12ys g.fing, #l1bk12ys g.reh, #l1bk12ys g.tempo {font-weight:bold;}#l1bk12ys g.dir, #l1bk12ys g.dynam, #l1bk12ys g.mNum {font-style:italic;}#l1bk12ys g.label {font-weight:normal;}#l1bk12ys path {stroke:currentColor}</style><svg class="definition-scale" color="black" viewBox="0 0 14000 2100"><g class="page-margin" transform="translate(0, 150)"><g data-id="a436ng2" data-class="mdiv" class="mdiv pageMilestone"/><g data-id="bdnjkru" data-class="score" class="score pageMilestone"/><g data-id="wbp3oib" data-class="system" class="system"><g data-id="dbhdgzs" data-class="section" class="section systemMilestone"/><g data-id="m1dg94u7" data-class="measure" class="measure"><g data-id="p1bkjxmo" data-class="staff" class="staff"><path d="M0 540 L2720 540" stroke-width="13"/><path d="M0 720 L2720 720" stroke-width="13"/><path d="M0 900 L2720 900" stroke-width="13"/><path d="M0 1080 L2720 1080" stroke-width="13"/><path d="M0 1260 L2720 1260" stroke-width="13"/><g data-id="e1cyd4t5" data-class="clef" class="clef"><use href="#E050-l1bk12ys" transform="translate(90, 1080) scale(0.72, 0.72)"/></g><g data-id="f1s7osa1" data-class="keySig" class="keySig"/><g data-id="gawzz28" data-class="meterSig" class="meterSig"><use href="#E08B-l1bk12ys" transform="translate(735, 900) scale(0.72, 0.72)"/></g><g data-id="qncoy67" data-class="layer" class="layer"><g data-id="y1iymvjj" data-class="beam" class="beam"><polygon stroke-opacity="1" fill-opacity="1" points="1513,315 2483,495 2483,585 1513,405"/><g data-id="n1py1kwp" data-class="note" class="note"><g data-class="notehead" class="notehead"><use href="#E0A4-l1bk12ys" transform="translate(1305, 900) scale(0.72, 0.72)"/></g><g data-id="fmt84ir" data-class="stem" class="stem"><path d="M1522 872 L1522 333" stroke-width="18"/></g></g><g data-id="odhapze" data-class="note" class="note"><g data-class="notehead" class="notehead"><use href="#E0A4-l1bk12ys" transform="translate(1755, 990) scale(0.72, 0.72)"/></g><g data-id="g18p3zak" data-class="stem" class="stem"><path d="M1972 962 L1972 419" stroke-width="18"/></g></g><g data-id="p13spvt9" data-class="note" class="note"><g data-class="notehead" class="notehead"><use href="#E0A4-l1bk12ys" transform="translate(2257, 1080) scale(0.72, 0.72)"/></g><g data-id="h1ovtr91" data-class="stem" class="stem"><path d="M2474 1052 L2474 513" stroke-width="18"/></g><g data-id="wjc41sw" data-class="accid" class="accid"><use href="#E262-l1bk12ys" transform="translate(2071, 1080) scale(0.72, 0.72)"/></g></g></g></g></g><g data-id="u1v1uk0b" data-class="barLine" class="barLine"><path d="M2707 540 L2707 1260" stroke-width="27"/></g></g><g data-id="v21ofqb" data-class="measure" class="measure"><g data-id="r8kyueb" data-class="staff" class="staff"><path d="M2720 540 L5679 540" stroke-width="13"/><path d="M2720 720 L5679 720" stroke-width="13"/><path d="M2720 900 L5679 900" stroke-width="13"/><path d="M2720 1080 L5679 1080" stroke-width="13"/><path d="M2720 1260 L5679 1260" stroke-width="13"/><g data-class="ledgerLines" class="ledgerLines below"><g data-class="lineDash" class="lineDash" data-related="#ta1n48c"><path d="M5108 1440 L5430 1440" stroke-width="22"/></g></g><g data-id="s8x8fi" data-class="layer" class="layer"><g data-id="q1rmzoqj" data-class="note" class="note"><g data-class="notehead" class="notehead"><use href="#E0A4-l1bk12ys" transform="translate(2900, 990) scale(0.72, 0.72)"/></g><g data-id="j1qd7t3" data-class="dots" class="dots"><ellipse cx="3216" cy="990" rx="36" ry="36" fill-opacity="1" stroke-opacity="1"/></g><g data-id="i1wu8r5i" data-class="stem" class="stem"><path d="M3117 962 L3117 360" stroke-width="18"/></g></g><g data-id="r6nkyn5" data-class="note" class="note"><g data-class="notehead" class="notehead"><use href="#E0A4-l1bk12ys" transform="translate(3780, 1260) scale(0.72, 0.72)"/></g><g data-id="kzdxzww" data-class="stem" class="stem"><path d="M3997 1232 L3997 630" stroke-width="18"/><g data-id="lfr8zmd" data-class="flag" class="flag"><use href="#E240-l1bk12ys" transform="translate(3988, 630) scale(0.72, 0.72)"/></g></g></g><g data-id="soqegfy" data-class="note" class="note"><g data-class="notehead" class="notehead"><use href="#E0A4-l1bk12ys" transform="translate(4276, 1170) scale(0.72, 0.72)"/></g><g data-id="n1beuzjf" data-class="dots" class="dots"><ellipse cx="4592" cy="1170" rx="36" ry="36" fill-opacity="1" stroke-opacity="1"/></g><g data-id="muu8qtp" data-class="stem" class="stem"><path d="M4493 1142 L4493 540" stroke-width="18"/></g></g><g data-id="ta1n48c" data-class="note" class="note"><g data-class="notehead" class="notehead"><use href="#E0A4-l1bk12ys" transform="translate(5156, 1440) scale(0.72, 0.72)"/></g><g data-id="o8miq02" data-class="stem" class="stem"><path d="M5373 1412 L5373 810" stroke-width="18"/><g data-id="p1x2mk1v" data-class="flag" class="flag"><use href="#E240-l1bk12ys" transform="translate(5364, 810) scale(0.72, 0.72)"/></g></g><g data-id="x1qtl6ln" data-class="accid" class="accid"><use href="#E262-l1bk12ys" transform="translate(4944, 1440) scale(0.72, 0.72)"/></g></g></g></g><g data-id="d1n1oqp1" data-class="barLine" class="barLine"><path d="M5666 540 L5666 1260" stroke-width="27"/></g></g><g data-id="ess26hw" data-class="measure" class="measure"><g data-id="trhhne0" data-class="staff" class="staff"><path d="M5679 540 L7239 540" stroke-width="13"/><path d="M5679 720 L7239 720" stroke-width="13"/><path d="M5679 900 L7239 900" stroke-width="13"/><path d="M5679 1080 L7239 1080" stroke-width="13"/><path d="M5679 1260 L7239 1260" stroke-width="13"/><g data-class="ledgerLines" class="ledgerLines below"><g data-class="lineDash" class="lineDash" data-related="#vi8uv85"><path d="M6501 1440 L6823 1440" stroke-width="22"/></g><g data-class="lineDash" class="lineDash" data-related="#vi8uv85"><path d="M6501 1620 L6823 1620" stroke-width="22"/></g></g><g data-id="u6pytya" data-class="layer" class="layer"><g data-id="uw3enhg" data-class="note" class="note"><g data-class="notehead" class="notehead"><use href="#E0A4-l1bk12ys" transform="translate(5859, 1350) scale(0.72, 0.72)"/></g><g data-id="qsz74th" data-class="stem" class="stem"><path d="M6076 1322 L6076 720" stroke-width="18"/></g></g><g data-id="vi8uv85" data-class="note" class="note"><g data-class="notehead" class="notehead"><use href="#E0A4-l1bk12ys" transform="translate(6549, 1620) scale(0.72, 0.72)"/></g><g data-id="r1loxv7l" data-class="stem" class="stem"><path d="M6766 1592 L6766 900" stroke-width="18"/></g></g></g></g><g data-id="m17p0plw" data-class="barLine" class="barLine"/></g><g data-id="c1lxo38x" data-class="systemMilestoneEnd" class="systemMilestoneEnd dbhdgzs"/></g><g data-id="d1vc02bd" data-class="pageMilestoneEnd" class="pageMilestoneEnd bdnjkru"/><g data-id="ee2ru1q" data-class="pageMilestoneEnd" class="pageMilestoneEnd a436ng2"/></g></svg></svg>