<svg viewBox="0 0 560 84" version="1.1" xmlns="http://www.w3.org/2000/svg" xmlns:xlink="http://www.w3.org/1999/xlink" overflow="visible" id="s1koopwx"><desc>Engraved by Verovio 5.6.0-85e7620</desc><defs><g id="E050-s1koopwx"><path transform="scale(1,-1)" d="M441 -245c-23 -4 -48 -6 -76 -6c-59 0 -102 7 -130 20c-88 42 -150 93 -187 154c-26 44 -43 103 -48 176c0 6 -1 13 -1 19c0 54 15 111 45 170c29 57 65 106 110 148s96 85 153 127c-3 16 -8 46 -13 92c-4 43 -5 73 -5 89c0 117 16 172 69 257c34 54 64 82 89 82 c21 0 43 -30 69 -92s39 -115 41 -159v-15c0 -109 -21 -162 -67 -241c-13 -20 -63 -90 -98 -118c-13 -9 -25 -19 -37 -29l31 -181c8 1 18 2 28 2c58 0 102 -12 133 -35c59 -43 92 -104 98 -184c1 -7 1 -15 1 -22c0 -123 -87 -209 -181 -248c8 -57 17 -110 25 -162 c5 -31 6 -58 6 -80c0 -30 -5 -53 -14 -70c-35 -64 -88 -99 -158 -103c-5 0 -11 -1 -16 -1c-37 0 -72 10 -108 27c-50 24 -77 59 -80 105v11c0 29 7 55 20 76c18 28 45 42 79 44h6c49 0 93 -42 97 -87v-9c0 -51 -34 -86 -105 -106c17 -24 51 -36 102 -36c62 0 116 43 140 85 c9 16 13 41 13 74c0 20 -1 42 -5 67c-8 53 -18 106 -26 159zM461 939c-95 0 -135 -175 -135 -286c0 -24 2 -48 5 -71c50 39 92 82 127 128c40 53 60 100 60 140v8c-4 53 -22 81 -55 81h-2zM406 119l54 -326c73 25 110 78 110 161c0 7 0 15 -1 23c-7 95 -57 142 -151 142h-12 zM382 117c-72 -2 -128 -47 -128 -120v-7c2 -46 43 -99 75 -115c-3 -2 -7 -5 -10 -10c-70 33 -116 88 -123 172v11c0 68 44 126 88 159c23 17 49 29 78 36l-29 170c-21 -13 -52 -37 -92 -73c-50 -44 -86 -84 -109 -119c-45 -69 -67 -130 -67 -182v-13c5 -68 35 -127 93 -176 s125 -73 203 -73c25 0 50 3 75 9c-19 111 -36 221 -54 331z"/></g><g id="E262-s1koopwx"><path transform="scale(1,-1)" d="M136 186v169h17v-164l44 14v-91l-44 -14v-165l44 12v-91l-44 -13v-155h-17v150l-76 -22v-155h-17v149l-43 -13v90l43 14v167l-43 -14v92l43 13v169h17v-163zM60 73v-167l76 22v168z"/></g><g id="E08A-s1koopwx"><path transform="scale(1,-1)" d="M340 179c-9 24 -56 41 -89 41c-46 0 -81 -28 -100 -58c-17 -28 -25 -78 -25 -150c0 -65 2 -111 8 -135c8 -31 18 -49 40 -67c20 -17 43 -25 70 -25c54 0 92 36 115 75c14 25 23 54 28 88h27c0 -63 -24 -105 -58 -141c-35 -38 -82 -56 -140 -56c-45 0 -83 13 -115 39 c-57 45 -101 130 -101 226c0 59 33 127 68 163c36 37 97 72 160 72c36 0 93 -21 121 -40c11 -8 23 -17 33 -30c19 -23 27 -48 27 -76c0 -51 -35 -88 -86 -88c-43 0 -76 27 -76 68c0 26 7 35 21 51c15 17 32 27 58 32c7 2 14 7 14 11z"/></g><g id="E4E7-s1koopwx"><path transform="scale(1,-1)" d="M133 -111c0 -33 -21 -50 -52 -55c10 -3 18 -4 25 -4c40 0 69 24 90 47l66 197c-36 -18 -64 -25 -112 -25c-23 0 -38 3 -45 8c-37 7 -55 27 -55 59c8 35 30 54 68 58c45 -6 49 -13 64 -48c0 -3 1 -5 1 -7c0 -27 -25 -46 -52 -49c6 -4 15 -6 26 -6c32 2 62 14 88 29 c32 19 44 36 59 71l7 1l10 2h4c-72 -220 -143 -439 -215 -659h-37l108 324c-20 -13 -51 -20 -82 -20c-21 0 -35 4 -43 10c-37 6 -55 26 -55 58c8 35 31 56 68 60c43 -8 48 -13 64 -51z"/></g><g id="E0A4-s1koopwx"><path transform="scale(1,-1)" d="M0 -39c0 68 73 172 200 172c66 0 114 -37 114 -95c0 -84 -106 -171 -218 -171c-64 0 -96 30 -96 94z"/></g></defs><style type="text/css">#s1koopwx g.page-margin {font-family:Times,serif;}#s1koopwx g.ending, #s1koopwx g.fing, #s1koopwx g.reh, #s1koopwx g.tempo {font-weight:bold;}#s1koopwx g.dir, #s1koopwx g.dynam, #s1koopwx g.mNum {font-style:italic;}#s1koopwx g.label {font-weight:normal;}#s1koopwx path {stroke:currentColor}</style><svg class="definition-scale" color="black" viewBox="0 0 14000 2100"><g class="page-margin" transform="translate(0, 150)"><g data-id="ezqj2g9" data-class="mdiv" class="mdiv pageMilestone"/><g data-id="f1p7vdzj" data-class="score" class="score pageMilestone"/><g data-id="ek5vq4k" data-class="system" class="system"><g data-id="h139g3py" data-class="section" class="section systemMilestone"/><g data-id="tt9f74j" data-class="measure" class="measure"><g data-id="tw0g3gf" data-class="staff" class="staff"><path d="M0 540 L7205 540" stroke-width="13"/><path d="M0 720 L7205 720" stroke-width="13"/><path d="M0 900 L7205 900" stroke-width="13"/><path d="M0 1080 L7205 1080" stroke-width="13"/><path d="M0 1260 L7205 1260" stroke-width="13"/><g data-id="ighixfa" data-class="clef" class="clef"><use href="#E050-s1koopwx" transform="translate(90, 1080) scale(0.72, 0.72)"/></g><g data-id="j15kgvzk" data-class="keySig" class="keySig"><g data-id="k1et3wqk" data-class="keyAccid" class="keyAccid"><use href="#E262-s1koopwx" transform="translate(735, 540) scale(0.72, 0.72)"/></g><g data-id="leqsjl8" data-class="keyAccid" class="keyAccid"><use href="#E262-s1koopwx" transform="translate(913, 810) scale(0.72, 0.72)"/></g><g data-id="m1wakbs1" data-class="keyAccid" class="keyAccid"><use href="#E262-s1koopwx" transform="translate(1091, 450) scale(0.72, 0.72)"/></g><g data-id="n106fatp" data-class="keyAccid" class="keyAccid"><use href="#E262-s1koopwx" transform="translate(1269, 720) scale(0.72, 0.72)"/></g></g><g data-id="otnp17m" data-class="meterSig" class="meterSig"><use href="#E08A-s1koopwx" transform="translate(1590, 900) scale(0.72, 0.72)"/></g><g data-class="ledgerLines" class="ledgerLines below"><g data-class="lineDash" class="lineDash" data-related="#m1sdj2au"><path d="M5277 1440 L5599 1440" stroke-width="22"/></g><g data-class="lineDash" class="lineDash" data-related="#p173wxom"><path d="M6243 1440 L6529 1440" stroke-width="22"/></g><g data-class="lineDash" class="lineDash" data-related="#qn2azd7"><path d="M6559 1440 L6845 1440" stroke-width="22"/></g><g data-class="lineDash" class="lineDash" data-related="#r97kjm7"><path d="M6875 1440 L7161 1440" stroke-width="22"/></g><g data-class="lineDash" class="lineDash" data-related="#qn2azd7"><path d="M6559 1620 L6845 1620" stroke-width="22"/></g></g><g data-id="u134jig4" data-class="layer" class="layer"><g data-id="c1dlps96" data-class="rest" class="rest"><use href="#E4E7-s1koopwx" transform="translate(2158, 900) scale(0.72, 0.72)"/></g><g data-id="smb5e9a" data-class="beam" class="beam"><polygon stroke-opacity="1" fill-opacity="1" points="2689,270 3339,180 3339,270 2689,360"/><polygon stroke-opacity="1" fill-opacity="1" points="2689,405 3014,360 3014,450 2689,495"/><polygon stroke-opacity="1" fill-opacity="1" points="3014,360 3339,315 3339,405 3014,450"/><g data-id="d1rus9g5" data-class="note" class="note"><g data-class="notehead" class="notehead"><use href="#E0A4-s1koopwx" transform="translate(2481, 900) scale(0.72, 0.72)"/></g><g data-id="j1juav5" data-class="stem" class="stem"><path d="M2698 872 L2698 288" stroke-width="18"/></g></g><g data-id="ermgcaq" data-class="note" class="note"><g data-class="notehead" class="notehead"><use href="#E0A4-s1koopwx" transform="translate(2797, 1080) scale(0.72, 0.72)"/></g><g data-id="k6na3t1" data-class="stem" class="stem"><path d="M3014 1052 L3014 243" stroke-width="18"/></g><g data-id="w2p1mpr" data-class="accid" class="accid"/></g><g data-id="f1yh3cc7" data-class="note" class="note"><g data-class="notehead" class="notehead"><use href="#E0A4-s1koopwx" transform="translate(3113, 810) scale(0.72, 0.72)"/></g><g data-id="l1kw71cs" data-class="stem" class="stem"><path d="M3330 782 L3330 198" stroke-width="18"/></g><g data-id="xmuji" data-class="accid" class="accid"/></g></g><g data-id="t110aopd" data-class="beam" class="beam"><polygon stroke-opacity="1" fill-opacity="1" points="3637,270 4603,450 4603,540 3637,360"/><polygon stroke-opacity="1" fill-opacity="1" points="3637,405 3962,465 3962,555 3637,495"/><polygon stroke-opacity="1" fill-opacity="1" points="3962,465 4278,525 4278,615 3962,555"/><polygon stroke-opacity="1" fill-opacity="1" points="4278,525 4603,585 4603,675 4278,615"/><g data-id="g4kgly0" data-class="note" class="note"><g data-class="notehead" class="notehead"><use href="#E0A4-s1koopwx" transform="translate(3429, 900) scale(0.72, 0.72)"/></g><g data-id="m1dobg3a" data-class="stem" class="stem"><path d="M3646 872 L3646 288" stroke-width="18"/></g></g><g data-id="hz8l198" data-class="note" class="note"><g data-class="notehead" class="notehead"><use href="#E0A4-s1koopwx" transform="translate(3745, 1080) scale(0.72, 0.72)"/></g><g data-id="ndti431" data-class="stem" class="stem"><path d="M3962 1052 L3962 348" stroke-width="18"/></g><g data-id="yp3kbvo" data-class="accid" class="accid"/></g><g data-id="i1immb3d" data-class="note" class="note"><g data-class="notehead" class="notehead"><use href="#E0A4-s1koopwx" transform="translate(4061, 1260) scale(0.72, 0.72)"/></g><g data-id="o10ibn7n" data-class="stem" class="stem"><path d="M4278 1232 L4278 408" stroke-width="18"/></g></g><g data-id="j1cdf24" data-class="note" class="note"><g data-class="notehead" class="notehead"><use href="#E0A4-s1koopwx" transform="translate(4377, 1170) scale(0.72, 0.72)"/></g><g data-id="pd027ad" data-class="stem" class="stem"><path d="M4594 1142 L4594 468" stroke-width="18"/></g><g data-id="zt1qjht" data-class="accid" class="accid"/></g></g><g data-id="u1v1eozu" data-class="beam" class="beam"><polygon stroke-opacity="1" fill-opacity="1" points="4901,405 5867,450 5867,540 4901,495"/><polygon stroke-opacity="1" fill-opacity="1" points="4901,540 5226,555 5226,645 4901,630"/><polygon stroke-opacity="1" fill-opacity="1" points="5226,555 5542,570 5542,660 5226,645"/><polygon stroke-opacity="1" fill-opacity="1" points="5542,570 5867,585 5867,675 5542,660"/><g data-id="kcrmvk7" data-class="note" class="note"><g data-class="notehead" class="notehead"><use href="#E0A4-s1koopwx" transform="translate(4693, 1080) scale(0.72, 0.72)"/></g><g data-id="q1mn31y4" data-class="stem" class="stem"><path d="M4910 1052 L4910 423" stroke-width="18"/></g><g data-id="aq2et2c" data-class="accid" class="accid"/></g><g data-id="l1kf5mid" data-class="note" class="note"><g data-class="notehead" class="notehead"><use href="#E0A4-s1koopwx" transform="translate(5009, 1260) scale(0.72, 0.72)"/></g><g data-id="r6l82i6" data-class="stem" class="stem"><path d="M5226 1232 L5226 438" stroke-width="18"/></g></g><g data-id="m1sdj2au" data-class="note" class="note"><g data-class="notehead" class="notehead"><use href="#E0A4-s1koopwx" transform="translate(5325, 1530) scale(0.72, 0.72)"/></g><g data-id="s592qjf" data-class="stem" class="stem"><path d="M5542 1502 L5542 453" stroke-width="18"/></g></g><g data-id="n3yf6ku" data-class="note" class="note"><g data-class="notehead" class="notehead"><use href="#E0A4-s1koopwx" transform="translate(5641, 1170) scale(0.72, 0.72)"/></g><g data-id="txedjd7" data-class="stem" class="stem"><path d="M5858 1142 L5858 468" stroke-width="18"/></g><g data-id="b1qv7shg" data-class="accid" class="accid"/></g></g><g data-id="v1d2wh64" data-class="beam" class="beam"><polygon stroke-opacity="1" fill-opacity="1" points="6165,630 7131,810 7131,900 6165,720"/><polygon stroke-opacity="1" fill-opacity="1" points="6165,765 6490,826 6490,916 6165,855"/><polygon stroke-opacity="1" fill-opacity="1" points="6490,826 6806,885 6806,975 6490,916"/><polygon stroke-opacity="1" fill-opacity="1" points="6806,885 7131,945 7131,1035 6806,975"/><g data-id="o1th47nk" data-class="note" class="note"><g data-class="notehead" class="notehead"><use href="#E0A4-s1koopwx" transform="translate(5957, 1260) scale(0.72, 0.72)"/></g><g data-id="uxe18k" data-class="stem" class="stem"><path d="M6174 1232 L6174 648" stroke-width="18"/></g></g><g data-id="p173wxom" data-class="note" class="note"><g data-class="notehead" class="notehead"><use href="#E0A4-s1koopwx" transform="translate(6273, 1530) scale(0.72, 0.72)"/></g><g data-id="v1sgnw3y" data-class="stem" class="stem"><path d="M6490 1502 L6490 709" stroke-width="18"/></g></g><g data-id="qn2azd7" data-class="note" class="note"><g data-class="notehead" class="notehead"><use href="#E0A4-s1koopwx" transform="translate(6589, 1710) scale(0.72, 0.72)"/></g><g data-id="w9aq3cu" data-class="stem" class="stem"><path d="M6806 1682 L6806 768" stroke-width="18"/></g><g data-id="cziqgxj" data-class="accid" class="accid"/></g><g data-id="r97kjm7" data-class="note" class="note"><g data-class="notehead" class="notehead"><use href="#E0A4-s1koopwx" transform="translate(6905, 1530) scale(0.72, 0.72)"/></g><g data-id="xo5d2y5" data-class="stem" class="stem"><path d="M7122 1502 L7122 828" stroke-width="18"/></g></g></g></g></g><g data-id="b1u3xy7n" data-class="barLine" class="barLine"/></g><g data-id="c15huprd" data-class="systemMilestoneEnd" class="systemMilestoneEnd h139g3py"/></g><g data-id="dvtnkar" data-class="pageMilestoneEnd" class="pageMilestoneEnd f1p7vdzj"/><g data-id="e16xvu06" data-class="pageMilestoneEnd" class="pageMilestoneEnd ezqj2g9"/></g></svg></svg>