<svg viewBox="0 0 560 84" version="1.1" xmlns="http://www.w3.org/2000/svg" xmlns:xlink="http://www.w3.org/1999/xlink" overflow="visible" id="pcihc9i"><desc>Engraved by Verovio 5.6.0-85e7620</desc><defs><g id="E062-pcihc9i"><path transform="scale(1,-1)" d="M582 -120c0 32 26 58 58 58s58 -26 58 -58s-26 -58 -58 -58s-58 26 -58 58zM582 120c0 32 26 58 58 58s58 -26 58 -58s-26 -58 -58 -58s-58 26 -58 58zM158 96c51 0 73 -14 88 -49l16 -39c0 -17 -2 -30 -7 -40c-3 -11 -10 -21 -19 -31c-17 -18 -49 -43 -84 -43 c-55 0 -77 13 -112 44c-24 21 -35 55 -35 100c0 46 14 81 32 112c30 52 71 79 137 93l36 6l26 2c154 0 235 -68 274 -182c11 -32 18 -68 18 -107c0 -103 -26 -182 -68 -250c-89 -145 -234 -230 -412 -288l-30 -5c-9 0 -14 3 -14 8c3 10 5 11 10 16c35 15 70 30 96 44l78 43 c96 57 162 136 197 258c9 33 17 60 22 100c3 22 5 35 6 39c-7 69 -16 115 -23 140s-4 22 -16 40c-8 12 -19 23 -31 34c-24 21 -62 44 -118 44c-48 0 -84 -8 -113 -28c-28 -19 -42 -44 -42 -73v-16c2 -5 3 -9 4 -11c24 22 52 39 84 39z"/></g><g id="E08A-pcihc9i"><path transform="scale(1,-1)" d="M340 179c-9 24 -56 41 -89 41c-46 0 -81 -28 -100 -58c-17 -28 -25 -78 -25 -150c0 -65 2 -111 8 -135c8 -31 18 -49 40 -67c20 -17 43 -25 70 -25c54 0 92 36 115 75c14 25 23 54 28 88h27c0 -63 -24 -105 -58 -141c-35 -38 -82 -56 -140 -56c-45 0 -83 13 -115 39 c-57 45 -101 130 -101 226c0 59 33 127 68 163c36 37 97 72 160 72c36 0 93 -21 121 -40c11 -8 23 -17 33 -30c19 -23 27 -48 27 -76c0 -51 -35 -88 -86 -88c-43 0 -76 27 -76 68c0 26 7 35 21 51c15 17 32 27 58 32c7 2 14 7 14 11z"/></g><g id="E0A4-pcihc9i"><path transform="scale(1,-1)" d="M0 -39c0 68 73 172 200 172c66 0 114 -37 114 -95c0 -84 -106 -171 -218 -171c-64 0 -96 30 -96 94z"/></g><g id="E262-pcihc9i"><path transform="scale(1,-1)" d="M136 186v169h17v-164l44 14v-91l-44 -14v-165l44 12v-91l-44 -13v-155h-17v150l-76 -22v-155h-17v149l-43 -13v90l43 14v167l-43 -14v92l43 13v169h17v-163zM60 73v-167l76 22v168z"/></g></defs><style type="text/css">#pcihc9i g.page-margin {font-family:Times,serif;}#pcihc9i g.ending, #pcihc9i g.fing, #pcihc9i g.reh, #pcihc9i g.tempo {font-weight:bold;}#pcihc9i g.dir, #pcihc9i g.dynam, #pcihc9i g.mNum {font-style:italic;}#pcihc9i g.label {font-weight:normal;}#pcihc9i path {stroke:currentColor}</style><svg class="definition-scale" color="black" viewBox="0 0 14000 2100"><g class="page-margin" transform="translate(0, 150)"><g data-id="k145p1wr" data-class="mdiv" class="mdiv pageMilestone"/><g data-id="la9aj4t" data-class="score" class="score pageMilestone"/><g data-id="b14z69tl" data-class="system" class="system"><g data-id="n1kv4hxw" data-class="section" class="section systemMilestone"/><g data-id="q1od91e9" data-class="measure" class="measure"><g data-id="zhaw3ox" data-class="staff" class="staff"><path d="M0 540 L6792 540" stroke-width="13"/><path d="M0 720 L6792 720" stroke-width="13"/><path d="M0 900 L6792 900" stroke-width="13"/><path d="M0 1080 L6792 1080" stroke-width="13"/><path d="M0 1260 L6792 1260" stroke-width="13"/><g data-id="jkiidcc" data-class="clef" class="clef"><use href="#E062-pcihc9i" transform="translate(88, 720) scale(0.72, 0.72)"/></g><g data-id="k1up9s3d" data-class="keySig" class="keySig"/><g data-id="l1j2cdy3" data-class="meterSig" class="meterSig"><use href="#E08A-pcihc9i" transform="translate(769, 900) scale(0.72, 0.72)"/></g><g data-id="ayn3143" data-class="layer" class="layer"><g data-id="els3s2p" data-class="beam" class="beam"><polygon stroke-opacity="1" fill-opacity="1" points="1545,495 2511,495 2511,585 1545,585"/><polygon stroke-opacity="1" fill-opacity="1" points="1545,630 1870,630 1870,720 1545,720"/><polygon stroke-opacity="1" fill-opacity="1" points="1870,630 2186,630 2186,720 1870,720"/><polygon stroke-opacity="1" fill-opacity="1" points="2186,630 2511,630 2511,720 2186,720"/><g data-id="ieryvo7" data-class="note" class="note"><g data-class="notehead" class="notehead"><use href="#E0A4-pcihc9i" transform="translate(1337, 1170) scale(0.72, 0.72)"/></g><g data-id="n1fychvx" data-class="stem" class="stem"><path d="M1554 1142 L1554 513" stroke-width="18"/></g></g><g data-id="j1qkjbnm" data-class="note" class="note"><g data-class="notehead" class="notehead"><use href="#E0A4-pcihc9i" transform="translate(1653, 1080) scale(0.72, 0.72)"/></g><g data-id="ozofo6i" data-class="stem" class="stem"><path d="M1870 1052 L1870 513" stroke-width="18"/></g></g><g data-id="kg34rhh" data-class="note" class="note"><g data-class="notehead" class="notehead"><use href="#E0A4-pcihc9i" transform="translate(1969, 1170) scale(0.72, 0.72)"/></g><g data-id="p1h8wui3" data-class="stem" class="stem"><path d="M2186 1142 L2186 513" stroke-width="18"/></g></g><g data-id="l1vvdz12" data-class="note" class="note"><g data-class="notehead" class="notehead"><use href="#E0A4-pcihc9i" transform="translate(2285, 1080) scale(0.72, 0.72)"/></g><g data-id="q18g20a3" data-class="stem" class="stem"><path d="M2502 1052 L2502 513" stroke-width="18"/></g></g></g><g data-id="fzcgiuz" data-class="beam" class="beam"><polygon stroke-opacity="1" fill-opacity="1" points="2809,315 3775,315 3775,405 2809,405"/><polygon stroke-opacity="1" fill-opacity="1" points="2809,450 3134,450 3134,540 2809,540"/><polygon stroke-opacity="1" fill-opacity="1" points="3134,450 3450,450 3450,540 3134,540"/><polygon stroke-opacity="1" fill-opacity="1" points="3450,450 3775,450 3775,540 3450,540"/><g data-id="m19eq1of" data-class="note" class="note"><g data-class="notehead" class="notehead"><use href="#E0A4-pcihc9i" transform="translate(2601, 990) scale(0.72, 0.72)"/></g><g data-id="r13gbdnk" data-class="stem" class="stem"><path d="M2818 962 L2818 333" stroke-width="18"/></g></g><g data-id="n11tn7fj" data-class="note" class="note"><g data-class="notehead" class="notehead"><use href="#E0A4-pcihc9i" transform="translate(2917, 900) scale(0.72, 0.72)"/></g><g data-id="sjihh2a" data-class="stem" class="stem"><path d="M3134 872 L3134 333" stroke-width="18"/></g></g><g data-id="o1z0atar" data-class="note" class="note"><g data-class="notehead" class="notehead"><use href="#E0A4-pcihc9i" transform="translate(3233, 990) scale(0.72, 0.72)"/></g><g data-id="t451gvu" data-class="stem" class="stem"><path d="M3450 962 L3450 333" stroke-width="18"/></g></g><g data-id="p1xslqu" data-class="note" class="note"><g data-class="notehead" class="notehead"><use href="#E0A4-pcihc9i" transform="translate(3549, 900) scale(0.72, 0.72)"/></g><g data-id="u13kwf33" data-class="stem" class="stem"><path d="M3766 872 L3766 333" stroke-width="18"/></g></g></g><g data-id="g10258j8" data-class="beam" class="beam"><polygon stroke-opacity="1" fill-opacity="1" points="3865,1440 5203,1440 5203,1350 3865,1350"/><polygon stroke-opacity="1" fill-opacity="1" points="3865,1305 4376,1305 4376,1215 3865,1215"/><polygon stroke-opacity="1" fill-opacity="1" points="4376,1305 4692,1305 4692,1215 4376,1215"/><polygon stroke-opacity="1" fill-opacity="1" points="4692,1305 5203,1305 5203,1215 4692,1215"/><g data-id="q1n325b3" data-class="note" class="note"><g data-class="notehead" class="notehead"><use href="#E0A4-pcihc9i" transform="translate(3865, 810) scale(0.72, 0.72)"/></g><g data-id="v1qkoxv2" data-class="stem" class="stem"><path d="M3874 838 L3874 1422" stroke-width="18"/></g></g><g data-id="r1tpaeji" data-class="note" class="note"><g data-class="notehead" class="notehead"><use href="#E0A4-pcihc9i" transform="translate(4367, 630) scale(0.72, 0.72)"/></g><g data-id="wryrjml" data-class="stem" class="stem"><path d="M4376 658 L4376 1422" stroke-width="18"/></g><g data-id="ctdqg7h" data-class="accid" class="accid"><use href="#E262-pcihc9i" transform="translate(4181, 630) scale(0.72, 0.72)"/></g></g><g data-id="sxvu8nh" data-class="note" class="note"><g data-class="notehead" class="notehead"><use href="#E0A4-pcihc9i" transform="translate(4683, 810) scale(0.72, 0.72)"/></g><g data-id="xna91w3" data-class="stem" class="stem"><path d="M4692 838 L4692 1422" stroke-width="18"/></g></g><g data-id="teucsoa" data-class="note" class="note"><g data-class="notehead" class="notehead"><use href="#E0A4-pcihc9i" transform="translate(5185, 630) scale(0.72, 0.72)"/></g><g data-id="ysws6d9" data-class="stem" class="stem"><path d="M5194 658 L5194 1422" stroke-width="18"/></g><g data-id="de5i3uy" data-class="accid" class="accid"><use href="#E262-pcihc9i" transform="translate(4999, 630) scale(0.72, 0.72)"/></g></g></g><g data-id="hf8rrnj" data-class="beam" class="beam"><polygon stroke-opacity="1" fill-opacity="1" points="5501,1125 6467,1125 6467,1035 5501,1035"/><polygon stroke-opacity="1" fill-opacity="1" points="5501,990 5826,990 5826,900 5501,900"/><polygon stroke-opacity="1" fill-opacity="1" points="5826,990 6142,990 6142,900 5826,900"/><polygon stroke-opacity="1" fill-opacity="1" points="6142,990 6467,990 6467,900 6142,900"/><g data-id="usoiy7c" data-class="note" class="note"><g data-class="notehead" class="notehead"><use href="#E0A4-pcihc9i" transform="translate(5501, 540) scale(0.72, 0.72)"/></g><g data-id="z1qen9vh" data-class="stem" class="stem"><path d="M5510 568 L5510 1107" stroke-width="18"/></g></g><g data-id="v1ntbia0" data-class="note" class="note"><g data-class="notehead" class="notehead"><use href="#E0A4-pcihc9i" transform="translate(5817, 450) scale(0.72, 0.72)"/></g><g data-id="af7k029" data-class="stem" class="stem"><path d="M5826 478 L5826 1107" stroke-width="18"/></g></g><g data-id="wh1dxn3" data-class="note" class="note"><g data-class="notehead" class="notehead"><use href="#E0A4-pcihc9i" transform="translate(6133, 540) scale(0.72, 0.72)"/></g><g data-id="b1s9r7m9" data-class="stem" class="stem"><path d="M6142 568 L6142 1107" stroke-width="18"/></g></g><g data-id="x19knw7r" data-class="note" class="note"><g data-class="notehead" class="notehead"><use href="#E0A4-pcihc9i" transform="translate(6449, 450) scale(0.72, 0.72)"/></g><g data-id="c23j8u7" data-class="stem" class="stem"><path d="M6458 478 L6458 1107" stroke-width="18"/></g></g></g></g></g><g data-id="y1ffxpkd" data-class="barLine" class="barLine"><path d="M6779 540 L6779 1260" stroke-width="27"/></g></g><g data-id="z87t4q9" data-class="measure" class="measure"><g data-id="b15uw5i3" data-class="staff" class="staff"><path d="M6792 540 L8220 540" stroke-width="13"/><path d="M6792 720 L8220 720" stroke-width="13"/><path d="M6792 900 L8220 900" stroke-width="13"/><path d="M6792 1080 L8220 1080" stroke-width="13"/><path d="M6792 1260 L8220 1260" stroke-width="13"/><g data-class="ledgerLines" class="ledgerLines above"><g data-class="lineDash" class="lineDash" data-related="#y1wvd6n0"><path d="M6942 360 L7228 360" stroke-width="22"/></g><g data-class="lineDash" class="lineDash" data-related="#z70gj78"><path d="M7258 360 L7544 360" stroke-width="22"/></g><g data-class="lineDash" class="lineDash" data-related="#ae37vaa"><path d="M7574 360 L7860 360" stroke-width="22"/></g><g data-class="lineDash" class="lineDash" data-related="#bkp17a8"><path d="M7890 360 L8176 360" stroke-width="22"/></g></g><g data-id="c15u033y" data-class="layer" class="layer"><g data-id="i1d6o6lg" data-class="beam" class="beam"><polygon stroke-opacity="1" fill-opacity="1" points="6972,945 7938,945 7938,855 6972,855"/><polygon stroke-opacity="1" fill-opacity="1" points="6972,810 7297,810 7297,720 6972,720"/><polygon stroke-opacity="1" fill-opacity="1" points="7297,810 7613,810 7613,720 7297,720"/><polygon stroke-opacity="1" fill-opacity="1" points="7613,810 7938,810 7938,720 7613,720"/><g data-id="y1wvd6n0" data-class="note" class="note"><g data-class="notehead" class="notehead"><use href="#E0A4-pcihc9i" transform="translate(6972, 360) scale(0.72, 0.72)"/></g><g data-id="dvjly3h" data-class="stem" class="stem"><path d="M6981 388 L6981 927" stroke-width="18"/></g></g><g data-id="z70gj78" data-class="note" class="note"><g data-class="notehead" class="notehead"><use href="#E0A4-pcihc9i" transform="translate(7288, 270) scale(0.72, 0.72)"/></g><g data-id="e18h5som" data-class="stem" class="stem"><path d="M7297 298 L7297 927" stroke-width="18"/></g></g><g data-id="ae37vaa" data-class="note" class="note"><g data-class="notehead" class="notehead"><use href="#E0A4-pcihc9i" transform="translate(7604, 360) scale(0.72, 0.72)"/></g><g data-id="f1ei7gzb" data-class="stem" class="stem"><path d="M7613 388 L7613 927" stroke-width="18"/></g></g><g data-id="bkp17a8" data-class="note" class="note"><g data-class="notehead" class="notehead"><use href="#E0A4-pcihc9i" transform="translate(7920, 270) scale(0.72, 0.72)"/></g><g data-id="g1aktyo1" data-class="stem" class="stem"><path d="M7929 298 L7929 927" stroke-width="18"/></g></g></g></g></g><g data-id="hfji0je" data-class="barLine" class="barLine"/></g><g data-id="kiqqqji" data-class="systemMilestoneEnd" class="systemMilestoneEnd n1kv4hxw"/></g><g data-id="l1adjv5c" data-class="pageMilestoneEnd" class="pageMilestoneEnd la9aj4t"/><g data-id="mw49mc2" data-class="pageMilestoneEnd" class="pageMilestoneEnd k145p1wr"/></g></svg></svg>