<svg viewBox="0 0 560 84" version="1.1" xmlns="http://www.w3.org/2000/svg" xmlns:xlink="http://www.w3.org/1999/xlink" overflow="visible" id="csxa4a2"><desc>Engraved by Verovio 5.6.0-85e7620</desc><defs><g id="E062-csxa4a2"><path transform="scale(1,-1)" d="M582 -120c0 32 26 58 58 58s58 -26 58 -58s-26 -58 -58 -58s-58 26 -58 58zM582 120c0 32 26 58 58 58s58 -26 58 -58s-26 -58 -58 -58s-58 26 -58 58zM158 96c51 0 73 -14 88 -49l16 -39c0 -17 -2 -30 -7 -40c-3 -11 -10 -21 -19 -31c-17 -18 -49 -43 -84 -43 c-55 0 -77 13 -112 44c-24 21 -35 55 -35 100c0 46 14 81 32 112c30 52 71 79 137 93l36 6l26 2c154 0 235 -68 274 -182c11 -32 18 -68 18 -107c0 -103 -26 -182 -68 -250c-89 -145 -234 -230 -412 -288l-30 -5c-9 0 -14 3 -14 8c3 10 5 11 10 16c35 15 70 30 96 44l78 43 c96 57 162 136 197 258c9 33 17 60 22 100c3 22 5 35 6 39c-7 69 -16 115 -23 140s-4 22 -16 40c-8 12 -19 23 -31 34c-24 21 -62 44 -118 44c-48 0 -84 -8 -113 -28c-28 -19 -42 -44 -42 -73v-16c2 -5 3 -9 4 -11c24 22 52 39 84 39z"/></g><g id="E262-csxa4a2"><path transform="scale(1,-1)" d="M136 186v169h17v-164l44 14v-91l-44 -14v-165l44 12v-91l-44 -13v-155h-17v150l-76 -22v-155h-17v149l-43 -13v90l43 14v167l-43 -14v92l43 13v169h17v-163zM60 73v-167l76 22v168z"/></g><g id="E082-csxa4a2"><path transform="scale(1,-1)" d="M124 -185c-18 0 -55 -14 -65 -65h-36l-3 30c0 25 6 45 18 63c11 19 22 30 39 43l121 82l37 29c15 11 27 29 38 54c12 24 18 47 18 70c0 40 -19 88 -94 88c-25 0 -32 0 -50 -8c-14 -5 -23 -12 -26 -22c3 -9 7 -15 10 -18l24 -17c12 -7 17 -11 27 -21c5 -7 7 -16 7 -27 c0 -12 0 -57 -79 -74c-30 0 -76 26 -76 94c0 66 81 135 197 135c72 0 181 -32 181 -150c0 -53 -32 -95 -113 -133l-91 -41c-26 -11 -45 -23 -57 -37l49 7c84 0 115 -41 148 -41c20 0 33 20 39 61h35c0 -152 -68 -168 -114 -168c-17 0 -65 0 -79 7h10l-28 17 c-49 37 -69 40 -87 42z"/></g><g id="E084-csxa4a2"><path transform="scale(1,-1)" d="M20 -78c84 97 114 180 134 329h170c-13 -32 -82 -132 -99 -151l-84 -97c-33 -36 -59 -63 -80 -81h162v102l127 123v-225h57v-39h-57v-34c0 -43 19 -65 57 -65v-34h-244v36c48 0 60 26 60 70v27h-203v39z"/></g><g id="E0A4-csxa4a2"><path transform="scale(1,-1)" d="M0 -39c0 68 73 172 200 172c66 0 114 -37 114 -95c0 -84 -106 -171 -218 -171c-64 0 -96 30 -96 94z"/></g><g id="E260-csxa4a2"><path transform="scale(1,-1)" d="M20 110c32 16 54 27 93 27c26 0 35 -3 54 -13c13 -7 24 -20 27 -38l4 -25c0 -28 -16 -57 -45 -89c-23 -25 -39 -44 -65 -68l-88 -79v644h20v-359zM90 106c-32 0 -48 -10 -70 -29v-194c31 31 54 59 71 84c21 32 32 59 32 84c0 9 1 16 1 20c0 14 -3 21 -11 30l-8 3z"/></g><g id="E044-csxa4a2"><path transform="scale(1,-1)" d="M0 0c0 28 22 50 50 50s50 -22 50 -50s-22 -50 -50 -50s-50 22 -50 50z"/></g></defs><style type="text/css">#csxa4a2 g.page-margin {font-family:Times,serif;}#csxa4a2 g.ending, #csxa4a2 g.fing, #csxa4a2 g.reh, #csxa4a2 g.tempo {font-weight:bold;}#csxa4a2 g.dir, #csxa4a2 g.dynam, #csxa4a2 g.mNum {font-style:italic;}#csxa4a2 g.label {font-weight:normal;}#csxa4a2 path {stroke:currentColor}</style><svg class="definition-scale" color="black" viewBox="0 0 14000 2100"><g class="page-margin" transform="translate(0, 150)"><g data-id="ylfy0zt" data-class="mdiv" class="mdiv pageMilestone"/><g data-id="z1gk58rw" data-class="score" class="score pageMilestone"/><g data-id="fslsf7s" data-class="system" class="system"><g data-id="bijw4gw" data-class="section" class="section systemMilestone"/><g data-id="d13h903v" data-class="measure" class="measure"><g data-id="ngg8kem" data-class="staff" class="staff"><path d="M0 540 L4835 540" stroke-width="13"/><path d="M0 720 L4835 720" stroke-width="13"/><path d="M0 900 L4835 900" stroke-width="13"/><path d="M0 1080 L4835 1080" stroke-width="13"/><path d="M0 1260 L4835 1260" stroke-width="13"/><g data-id="lni6i44" data-class="clef" class="clef"><use href="#E062-csxa4a2" transform="translate(88, 720) scale(0.72, 0.72)"/></g><g data-id="mn6u45z" data-class="keySig" class="keySig"><g data-id="n14sxr02" data-class="keyAccid" class="keyAccid"><use href="#E262-csxa4a2" transform="translate(769, 720) scale(0.72, 0.72)"/></g><g data-id="o11qg322" data-class="keyAccid" class="keyAccid"><use href="#E262-csxa4a2" transform="translate(947, 990) scale(0.72, 0.72)"/></g></g><g data-id="pka0odw" data-class="meterSig" class="meterSig"><use href="#E082-csxa4a2" transform="translate(1254, 720) scale(0.72, 0.72)"/><use href="#E084-csxa4a2" transform="translate(1259, 1080) scale(0.72, 0.72)"/></g><g data-class="ledgerLines" class="ledgerLines above"><g data-class="lineDash" class="lineDash" data-related="#y15k2d5p"><path d="M2745 360 L3031 360" stroke-width="22"/></g><g data-class="lineDash" class="lineDash" data-related="#z3haujm"><path d="M3061 360 L3347 360" stroke-width="22"/></g><g data-class="lineDash" class="lineDash" data-related="#a1r9bchg"><path d="M3377 360 L3663 360" stroke-width="22"/></g></g><g data-id="o14xnuuz" data-class="layer" class="layer"><g data-id="nvt03hc" data-class="beam" class="beam"><polygon stroke-opacity="1" fill-opacity="1" points="1827,1530 2793,1170 2793,1080 1827,1440"/><polygon stroke-opacity="1" fill-opacity="1" points="1827,1395 2152,1275 2152,1185 1827,1305"/><polygon stroke-opacity="1" fill-opacity="1" points="2152,1275 2468,1155 2468,1065 2152,1185"/><polygon stroke-opacity="1" fill-opacity="1" points="2468,1155 2793,1035 2793,945 2468,1065"/><g data-id="vu52g2w" data-class="note" class="note"><g data-class="notehead" class="notehead"><use href="#E0A4-csxa4a2" transform="translate(1827, 900) scale(0.72, 0.72)"/></g><g data-id="d1ucn4mo" data-class="stem" class="stem"><path d="M1836 928 L1836 1512" stroke-width="18"/></g></g><g data-id="w1ogchr3" data-class="note" class="note"><g data-class="notehead" class="notehead"><use href="#E0A4-csxa4a2" transform="translate(2143, 720) scale(0.72, 0.72)"/></g><g data-id="ek25a4v" data-class="stem" class="stem"><path d="M2152 748 L2152 1392" stroke-width="18"/></g><g data-id="tmuob8e" data-class="accid" class="accid"/></g><g data-id="x13uikia" data-class="note" class="note"><g data-class="notehead" class="notehead"><use href="#E0A4-csxa4a2" transform="translate(2459, 540) scale(0.72, 0.72)"/></g><g data-id="fh9bs9q" data-class="stem" class="stem"><path d="M2468 568 L2468 1272" stroke-width="18"/></g></g><g data-id="y15k2d5p" data-class="note" class="note"><g data-class="notehead" class="notehead"><use href="#E0A4-csxa4a2" transform="translate(2775, 270) scale(0.72, 0.72)"/></g><g data-id="g1yxt5vl" data-class="stem" class="stem"><path d="M2784 298 L2784 1152" stroke-width="18"/></g></g></g><g data-id="o1r6vpkn" data-class="beam" class="beam"><polygon stroke-opacity="1" fill-opacity="1" points="3091,1080 4244,1260 4244,1170 3091,990"/><polygon stroke-opacity="1" fill-opacity="1" points="3091,945 3416,995 3416,905 3091,855"/><polygon stroke-opacity="1" fill-opacity="1" points="3416,995 3919,1074 3919,984 3416,905"/><polygon stroke-opacity="1" fill-opacity="1" points="3919,1074 4244,1125 4244,1035 3919,984"/><g data-id="z3haujm" data-class="note" class="note"><g data-class="notehead" class="notehead"><use href="#E0A4-csxa4a2" transform="translate(3091, 270) scale(0.72, 0.72)"/></g><g data-id="h1b35751" data-class="stem" class="stem"><path d="M3100 298 L3100 1062" stroke-width="18"/></g></g><g data-id="a1r9bchg" data-class="note" class="note"><g data-class="notehead" class="notehead"><use href="#E0A4-csxa4a2" transform="translate(3407, 360) scale(0.72, 0.72)"/></g><g data-id="i1iwm13o" data-class="stem" class="stem"><path d="M3416 388 L3416 1112" stroke-width="18"/></g><g data-id="uhwfxr" data-class="accid" class="accid"/></g><g data-id="b1x4q7l7" data-class="note" class="note"><g data-class="notehead" class="notehead"><use href="#E0A4-csxa4a2" transform="translate(3910, 450) scale(0.72, 0.72)"/></g><g data-id="j53gp75" data-class="stem" class="stem"><path d="M3919 478 L3919 1191" stroke-width="18"/></g><g data-id="laq70va" data-class="accid" class="accid"><use href="#E260-csxa4a2" transform="translate(3723, 450) scale(0.72, 0.72)"/></g></g><g data-id="ctw1haa" data-class="note" class="note"><g data-class="notehead" class="notehead"><use href="#E0A4-csxa4a2" transform="translate(4226, 630) scale(0.72, 0.72)"/></g><g data-id="khwmch7" data-class="stem" class="stem"><path d="M4235 658 L4235 1242" stroke-width="18"/></g></g></g></g></g><g data-id="rdmzb0h" data-class="tie" class="tie"><path d="M2888,135 C2953,-18 3138,-18 3204,135 C3111,29 2980,29 2888,135" stroke-linecap="round" stroke-linejoin="round" stroke-width="9"/></g><g data-id="l1mhi1t4" data-class="barLine" class="barLine"><path d="M4587 540 L4587 1260" stroke-width="90"/><path d="M4717 540 L4717 1260" stroke-width="27"/><use href="#E044-csxa4a2" transform="translate(4763, 810) scale(0.72, 0.72)"/><use href="#E044-csxa4a2" transform="translate(4763, 990) scale(0.72, 0.72)"/></g></g><g data-id="m8t2qts" data-class="measure" class="measure"><g data-id="pnq6ffk" data-class="staff" class="staff"><path d="M4835 540 L7714 540" stroke-width="13"/><path d="M4835 720 L7714 720" stroke-width="13"/><path d="M4835 900 L7714 900" stroke-width="13"/><path d="M4835 1080 L7714 1080" stroke-width="13"/><path d="M4835 1260 L7714 1260" stroke-width="13"/><g data-class="ledgerLines" class="ledgerLines above"><g data-class="lineDash" class="lineDash" data-related="#g1y937cd"><path d="M5933 360 L6219 360" stroke-width="22"/></g><g data-class="lineDash" class="lineDash" data-related="#hjnm44f"><path d="M6249 360 L6535 360" stroke-width="22"/></g><g data-class="lineDash" class="lineDash" data-related="#i11lzeki"><path d="M6565 360 L6851 360" stroke-width="22"/></g></g><g data-id="q1lz6vxk" data-class="layer" class="layer"><g data-id="p1l64z6k" data-class="beam" class="beam"><polygon stroke-opacity="1" fill-opacity="1" points="5015,1530 5981,1170 5981,1080 5015,1440"/><polygon stroke-opacity="1" fill-opacity="1" points="5015,1395 5340,1275 5340,1185 5015,1305"/><polygon stroke-opacity="1" fill-opacity="1" points="5340,1275 5656,1155 5656,1065 5340,1185"/><polygon stroke-opacity="1" fill-opacity="1" points="5656,1155 5981,1035 5981,945 5656,1065"/><g data-id="d16ivk92" data-class="note" class="note"><g data-class="notehead" class="notehead"><use href="#E0A4-csxa4a2" transform="translate(5015, 900) scale(0.72, 0.72)"/></g><g data-id="l1unxipe" data-class="stem" class="stem"><path d="M5024 928 L5024 1512" stroke-width="18"/></g></g><g data-id="e1jt49fs" data-class="note" class="note"><g data-class="notehead" class="notehead"><use href="#E0A4-csxa4a2" transform="translate(5331, 720) scale(0.72, 0.72)"/></g><g data-id="mlbxrlc" data-class="stem" class="stem"><path d="M5340 748 L5340 1392" stroke-width="18"/></g><g data-id="vgk91ll" data-class="accid" class="accid"/></g><g data-id="f1446q6q" data-class="note" class="note"><g data-class="notehead" class="notehead"><use href="#E0A4-csxa4a2" transform="translate(5647, 540) scale(0.72, 0.72)"/></g><g data-id="nag14td" data-class="stem" class="stem"><path d="M5656 568 L5656 1272" stroke-width="18"/></g></g><g data-id="g1y937cd" data-class="note" class="note"><g data-class="notehead" class="notehead"><use href="#E0A4-csxa4a2" transform="translate(5963, 270) scale(0.72, 0.72)"/></g><g data-id="o13idhra" data-class="stem" class="stem"><path d="M5972 298 L5972 1152" stroke-width="18"/></g></g></g><g data-id="q1n032wl" data-class="beam" class="beam"><polygon stroke-opacity="1" fill-opacity="1" points="6279,1080 7432,1260 7432,1170 6279,990"/><polygon stroke-opacity="1" fill-opacity="1" points="6279,945 6604,995 6604,905 6279,855"/><polygon stroke-opacity="1" fill-opacity="1" points="6604,995 7107,1074 7107,984 6604,905"/><polygon stroke-opacity="1" fill-opacity="1" points="7107,1074 7432,1125 7432,1035 7107,984"/><g data-id="hjnm44f" data-class="note" class="note"><g data-class="notehead" class="notehead"><use href="#E0A4-csxa4a2" transform="translate(6279, 270) scale(0.72, 0.72)"/></g><g data-id="p6z732x" data-class="stem" class="stem"><path d="M6288 298 L6288 1062" stroke-width="18"/></g></g><g data-id="i11lzeki" data-class="note" class="note"><g data-class="notehead" class="notehead"><use href="#E0A4-csxa4a2" transform="translate(6595, 360) scale(0.72, 0.72)"/></g><g data-id="q1i2kd1v" data-class="stem" class="stem"><path d="M6604 388 L6604 1112" stroke-width="18"/></g><g data-id="wdgx3g1" data-class="accid" class="accid"/></g><g data-id="jcv8m07" data-class="note" class="note"><g data-class="notehead" class="notehead"><use href="#E0A4-csxa4a2" transform="translate(7098, 450) scale(0.72, 0.72)"/></g><g data-id="r3url87" data-class="stem" class="stem"><path d="M7107 478 L7107 1191" stroke-width="18"/></g><g data-id="m1dx21so" data-class="accid" class="accid"><use href="#E260-csxa4a2" transform="translate(6911, 450) scale(0.72, 0.72)"/></g></g><g data-id="kd37fl8" data-class="note" class="note"><g data-class="notehead" class="notehead"><use href="#E0A4-csxa4a2" transform="translate(7414, 630) scale(0.72, 0.72)"/></g><g data-id="smycasu" data-class="stem" class="stem"><path d="M7423 658 L7423 1242" stroke-width="18"/></g></g></g></g></g><g data-id="s9brx84" data-class="tie" class="tie"><path d="M6076,135 C6141,-18 6326,-18 6392,135 C6299,29 6168,29 6076,135" stroke-linecap="round" stroke-linejoin="round" stroke-width="9"/></g><g data-id="u1vhyph3" data-class="barLine" class="barLine"/></g><g data-id="yy6e8co" data-class="systemMilestoneEnd" class="systemMilestoneEnd bijw4gw"/></g><g data-id="ztp7ybv" data-class="pageMilestoneEnd" class="pageMilestoneEnd z1gk58rw"/><g data-id="a59n2f1" data-class="pageMilestoneEnd" class="pageMilestoneEnd ylfy0zt"/></g></svg></svg>