<svg viewBox="0 0 560 84" version="1.1" xmlns="http://www.w3.org/2000/svg" xmlns:xlink="http://www.w3.org/1999/xlink" overflow="visible" id="g1p1fu5e"><desc>Engraved by Verovio 5.6.0-85e7620</desc><defs><g id="E062-g1p1fu5e"><path transform="scale(1,-1)" d="M582 -120c0 32 26 58 58 58s58 -26 58 -58s-26 -58 -58 -58s-58 26 -58 58zM582 120c0 32 26 58 58 58s58 -26 58 -58s-26 -58 -58 -58s-58 26 -58 58zM158 96c51 0 73 -14 88 -49l16 -39c0 -17 -2 -30 -7 -40c-3 -11 -10 -21 -19 -31c-17 -18 -49 -43 -84 -43 c-55 0 -77 13 -112 44c-24 21 -35 55 -35 100c0 46 14 81 32 112c30 52 71 79 137 93l36 6l26 2c154 0 235 -68 274 -182c11 -32 18 -68 18 -107c0 -103 -26 -182 -68 -250c-89 -145 -234 -230 -412 -288l-30 -5c-9 0 -14 3 -14 8c3 10 5 11 10 16c35 15 70 30 96 44l78 43 c96 57 162 136 197 258c9 33 17 60 22 100c3 22 5 35 6 39c-7 69 -16 115 -23 140s-4 22 -16 40c-8 12 -19 23 -31 34c-24 21 -62 44 -118 44c-48 0 -84 -8 -113 -28c-28 -19 -42 -44 -42 -73v-16c2 -5 3 -9 4 -11c24 22 52 39 84 39z"/></g><g id="E262-g1p1fu5e"><path transform="scale(1,-1)" d="M136 186v169h17v-164l44 14v-91l-44 -14v-165l44 12v-91l-44 -13v-155h-17v150l-76 -22v-155h-17v149l-43 -13v90l43 14v167l-43 -14v92l43 13v169h17v-163zM60 73v-167l76 22v168z"/></g><g id="E083-g1p1fu5e"><path transform="scale(1,-1)" d="M208 250c97 0 177 -52 177 -116c0 -69 -40 -111 -118 -125c56 -5 125 -44 125 -116c0 -31 -10 -57 -31 -78c-19 -21 -45 -38 -78 -49l-50 -11c-15 -3 -36 -7 -55 -7c-50 0 -86 16 -113 38c-16 10 -23 18 -34 34c-7 13 -11 25 -11 38c0 43 27 83 68 83l3 -2 c61 0 75 -42 75 -70c0 -19 -24 -42 -26 -57c7 -17 20 -25 37 -25c44 0 94 29 94 78c0 75 -34 125 -138 125v36c84 0 131 22 131 98c0 54 -37 88 -87 88c-26 0 -43 -7 -51 -22c15 -22 44 -16 44 -70c0 -37 -37 -62 -71 -62c-22 0 -69 15 -69 76c0 79 101 116 178 116z"/></g><g id="E084-g1p1fu5e"><path transform="scale(1,-1)" d="M20 -78c84 97 114 180 134 329h170c-13 -32 -82 -132 -99 -151l-84 -97c-33 -36 -59 -63 -80 -81h162v102l127 123v-225h57v-39h-57v-34c0 -43 19 -65 57 -65v-34h-244v36c48 0 60 26 60 70v27h-203v39z"/></g><g id="E4E7-g1p1fu5e"><path transform="scale(1,-1)" d="M133 -111c0 -33 -21 -50 -52 -55c10 -3 18 -4 25 -4c40 0 69 24 90 47l66 197c-36 -18 -64 -25 -112 -25c-23 0 -38 3 -45 8c-37 7 -55 27 -55 59c8 35 30 54 68 58c45 -6 49 -13 64 -48c0 -3 1 -5 1 -7c0 -27 -25 -46 -52 -49c6 -4 15 -6 26 -6c32 2 62 14 88 29 c32 19 44 36 59 71l7 1l10 2h4c-72 -220 -143 -439 -215 -659h-37l108 324c-20 -13 -51 -20 -82 -20c-21 0 -35 4 -43 10c-37 6 -55 26 -55 58c8 35 31 56 68 60c43 -8 48 -13 64 -51z"/></g><g id="E0A4-g1p1fu5e"><path transform="scale(1,-1)" d="M0 -39c0 68 73 172 200 172c66 0 114 -37 114 -95c0 -84 -106 -171 -218 -171c-64 0 -96 30 -96 94z"/></g></defs><style type="text/css">#g1p1fu5e g.page-margin {font-family:Times,serif;}#g1p1fu5e g.ending, #g1p1fu5e g.fing, #g1p1fu5e g.reh, #g1p1fu5e g.tempo {font-weight:bold;}#g1p1fu5e g.dir, #g1p1fu5e g.dynam, #g1p1fu5e g.mNum {font-style:italic;}#g1p1fu5e g.label {font-weight:normal;}#g1p1fu5e path {stroke:currentColor}</style><svg class="definition-scale" color="black" viewBox="0 0 14000 2100"><g class="page-margin" transform="translate(0, 150)"><g data-id="svfhmal" data-class="mdiv" class="mdiv pageMilestone"/><g data-id="t1rjauec" data-class="score" class="score pageMilestone"/><g data-id="tnwf6lm" data-class="system" class="system"><g data-id="v1t9md3w" data-class="section" class="section systemMilestone"/><g data-id="h101kt5y" data-class="measure" class="measure"><g data-id="hi84syt" data-class="staff" class="staff"><path d="M0 540 L5088 540" stroke-width="13"/><path d="M0 720 L5088 720" stroke-width="13"/><path d="M0 900 L5088 900" stroke-width="13"/><path d="M0 1080 L5088 1080" stroke-width="13"/><path d="M0 1260 L5088 1260" stroke-width="13"/><g data-id="xj3jcwe" data-class="clef" class="clef"><use href="#E062-g1p1fu5e" transform="translate(88, 720) scale(0.72, 0.72)"/></g><g data-id="y1lasz5a" data-class="keySig" class="keySig"><g data-id="zgg4j48" data-class="keyAccid" class="keyAccid"><use href="#E262-g1p1fu5e" transform="translate(769, 720) scale(0.72, 0.72)"/></g><g data-id="a16eevrc" data-class="keyAccid" class="keyAccid"><use href="#E262-g1p1fu5e" transform="translate(947, 990) scale(0.72, 0.72)"/></g><g data-id="b1dqgkrj" data-class="keyAccid" class="keyAccid"><use href="#E262-g1p1fu5e" transform="translate(1125, 630) scale(0.72, 0.72)"/></g><g data-id="c13ha20v" data-class="keyAccid" class="keyAccid"><use href="#E262-g1p1fu5e" transform="translate(1303, 900) scale(0.72, 0.72)"/></g></g><g data-id="dz13any" data-class="meterSig" class="meterSig"><use href="#E083-g1p1fu5e" transform="translate(1616, 720) scale(0.72, 0.72)"/><use href="#E084-g1p1fu5e" transform="translate(1610, 1080) scale(0.72, 0.72)"/></g><g data-class="ledgerLines" class="ledgerLines above"><g data-class="lineDash" class="lineDash" data-related="#f18mio3x"><path d="M4247 360 L4569 360" stroke-width="22"/></g></g><g data-id="i1njccim" data-class="layer" class="layer"><g data-id="z5lpbi1" data-class="rest" class="rest"><use href="#E4E7-g1p1fu5e" transform="translate(2172, 900) scale(0.72, 0.72)"/></g><g data-id="n1exlrrg" data-class="beam" class="beam"><polygon stroke-opacity="1" fill-opacity="1" points="2495,1080 4763,1080 4763,990 2495,990"/><polygon stroke-opacity="1" fill-opacity="1" points="4537,945 4763,945 4763,855 4537,855"/><g data-id="btfkgaa" data-class="note" class="note"><g data-class="notehead" class="notehead"><use href="#E0A4-g1p1fu5e" transform="translate(2495, 450) scale(0.72, 0.72)"/></g><g data-id="zgo76aj" data-class="stem" class="stem"><path d="M2504 478 L2504 1062" stroke-width="18"/></g></g><g data-id="cdfbmii" data-class="note" class="note"><g data-class="notehead" class="notehead"><use href="#E0A4-g1p1fu5e" transform="translate(2945, 450) scale(0.72, 0.72)"/></g><g data-id="av6mt6h" data-class="stem" class="stem"><path d="M2954 478 L2954 1062" stroke-width="18"/></g></g><g data-id="d2pugvw" data-class="note" class="note"><g data-class="notehead" class="notehead"><use href="#E0A4-g1p1fu5e" transform="translate(3395, 450) scale(0.72, 0.72)"/></g><g data-id="b1yl10jl" data-class="stem" class="stem"><path d="M3404 478 L3404 1062" stroke-width="18"/></g></g><g data-id="e51xkh" data-class="note" class="note"><g data-class="notehead" class="notehead"><use href="#E0A4-g1p1fu5e" transform="translate(3845, 450) scale(0.72, 0.72)"/></g><g data-id="cga8w8l" data-class="stem" class="stem"><path d="M3854 478 L3854 1062" stroke-width="18"/></g></g><g data-id="f18mio3x" data-class="note" class="note"><g data-class="notehead" class="notehead"><use href="#E0A4-g1p1fu5e" transform="translate(4295, 360) scale(0.72, 0.72)"/></g><g data-id="dltgypc" data-class="stem" class="stem"><path d="M4304 388 L4304 1062" stroke-width="18"/></g><g data-id="pgnuhv3" data-class="accid" class="accid"/></g><g data-id="g1huvl2s" data-class="note" class="note"><g data-class="notehead" class="notehead"><use href="#E0A4-g1p1fu5e" transform="translate(4745, 450) scale(0.72, 0.72)"/></g><g data-id="e1d902th" data-class="stem" class="stem"><path d="M4754 478 L4754 1062" stroke-width="18"/></g></g></g></g></g><g data-id="p1tevgsq" data-class="barLine" class="barLine"><path d="M5075 540 L5075 1260" stroke-width="27"/></g></g><g data-id="qxq5aj4" data-class="measure" class="measure"><g data-id="ju0vqum" data-class="staff" class="staff"><path d="M5088 540 L8141 540" stroke-width="13"/><path d="M5088 720 L8141 720" stroke-width="13"/><path d="M5088 900 L8141 900" stroke-width="13"/><path d="M5088 1080 L8141 1080" stroke-width="13"/><path d="M5088 1260 L8141 1260" stroke-width="13"/><g data-class="ledgerLines" class="ledgerLines above"><g data-class="lineDash" class="lineDash" data-related="#l1geapnv"><path d="M7343 360 L7665 360" stroke-width="22"/></g></g><g data-id="ki1ryn5" data-class="layer" class="layer"><g data-id="a87bpsu" data-class="rest" class="rest"><use href="#E4E7-g1p1fu5e" transform="translate(5268, 900) scale(0.72, 0.72)"/></g><g data-id="off18i2" data-class="beam" class="beam"><polygon stroke-opacity="1" fill-opacity="1" points="5591,1080 7859,1080 7859,990 5591,990"/><polygon stroke-opacity="1" fill-opacity="1" points="7633,945 7859,945 7859,855 7633,855"/><g data-id="h9qg858" data-class="note" class="note"><g data-class="notehead" class="notehead"><use href="#E0A4-g1p1fu5e" transform="translate(5591, 450) scale(0.72, 0.72)"/></g><g data-id="f7noje6" data-class="stem" class="stem"><path d="M5600 478 L5600 1062" stroke-width="18"/></g></g><g data-id="ie6rwqj" data-class="note" class="note"><g data-class="notehead" class="notehead"><use href="#E0A4-g1p1fu5e" transform="translate(6041, 450) scale(0.72, 0.72)"/></g><g data-id="gmdit9w" data-class="stem" class="stem"><path d="M6050 478 L6050 1062" stroke-width="18"/></g></g><g data-id="jd81uub" data-class="note" class="note"><g data-class="notehead" class="notehead"><use href="#E0A4-g1p1fu5e" transform="translate(6491, 450) scale(0.72, 0.72)"/></g><g data-id="h3gkpjk" data-class="stem" class="stem"><path d="M6500 478 L6500 1062" stroke-width="18"/></g></g><g data-id="k1vvkmhy" data-class="note" class="note"><g data-class="notehead" class="notehead"><use href="#E0A4-g1p1fu5e" transform="translate(6941, 450) scale(0.72, 0.72)"/></g><g data-id="idgt9tj" data-class="stem" class="stem"><path d="M6950 478 L6950 1062" stroke-width="18"/></g></g><g data-id="l1geapnv" data-class="note" class="note"><g data-class="notehead" class="notehead"><use href="#E0A4-g1p1fu5e" transform="translate(7391, 360) scale(0.72, 0.72)"/></g><g data-id="jcr1e5h" data-class="stem" class="stem"><path d="M7400 388 L7400 1062" stroke-width="18"/></g><g data-id="q6a00s4" data-class="accid" class="accid"/></g><g data-id="mx86pkb" data-class="note" class="note"><g data-class="notehead" class="notehead"><use href="#E0A4-g1p1fu5e" transform="translate(7841, 450) scale(0.72, 0.72)"/></g><g data-id="kbrb1ux" data-class="stem" class="stem"><path d="M7850 478 L7850 1062" stroke-width="18"/></g></g></g></g></g><g data-id="y18y0abf" data-class="barLine" class="barLine"/></g><g data-id="s15daldr" data-class="systemMilestoneEnd" class="systemMilestoneEnd v1t9md3w"/></g><g data-id="t1sv00oa" data-class="pageMilestoneEnd" class="pageMilestoneEnd t1rjauec"/><g data-id="uxlwogh" data-class="pageMilestoneEnd" class="pageMilestoneEnd svfhmal"/></g></svg></svg>