<svg viewBox="0 0 560 84" version="1.1" xmlns="http://www.w3.org/2000/svg" xmlns:xlink="http://www.w3.org/1999/xlink" overflow="visible" id="t16f7246"><desc>Engraved by Verovio 5.6.0-85e7620</desc><defs><g id="E050-t16f7246"><path transform="scale(1,-1)" d="M441 -245c-23 -4 -48 -6 -76 -6c-59 0 -102 7 -130 20c-88 42 -150 93 -187 154c-26 44 -43 103 -48 176c0 6 -1 13 -1 19c0 54 15 111 45 170c29 57 65 106 110 148s96 85 153 127c-3 16 -8 46 -13 92c-4 43 -5 73 -5 89c0 117 16 172 69 257c34 54 64 82 89 82 c21 0 43 -30 69 -92s39 -115 41 -159v-15c0 -109 -21 -162 -67 -241c-13 -20 -63 -90 -98 -118c-13 -9 -25 -19 -37 -29l31 -181c8 1 18 2 28 2c58 0 102 -12 133 -35c59 -43 92 -104 98 -184c1 -7 1 -15 1 -22c0 -123 -87 -209 -181 -248c8 -57 17 -110 25 -162 c5 -31 6 -58 6 -80c0 -30 -5 -53 -14 -70c-35 -64 -88 -99 -158 -103c-5 0 -11 -1 -16 -1c-37 0 -72 10 -108 27c-50 24 -77 59 -80 105v11c0 29 7 55 20 76c18 28 45 42 79 44h6c49 0 93 -42 97 -87v-9c0 -51 -34 -86 -105 -106c17 -24 51 -36 102 -36c62 0 116 43 140 85 c9 16 13 41 13 74c0 20 -1 42 -5 67c-8 53 -18 106 -26 159zM461 939c-95 0 -135 -175 -135 -286c0 -24 2 -48 5 -71c50 39 92 82 127 128c40 53 60 100 60 140v8c-4 53 -22 81 -55 81h-2zM406 119l54 -326c73 25 110 78 110 161c0 7 0 15 -1 23c-7 95 -57 142 -151 142h-12 zM382 117c-72 -2 -128 -47 -128 -120v-7c2 -46 43 -99 75 -115c-3 -2 -7 -5 -10 -10c-70 33 -116 88 -123 172v11c0 68 44 126 88 159c23 17 49 29 78 36l-29 170c-21 -13 -52 -37 -92 -73c-50 -44 -86 -84 -109 -119c-45 -69 -67 -130 -67 -182v-13c5 -68 35 -127 93 -176 s125 -73 203 -73c25 0 50 3 75 9c-19 111 -36 221 -54 331z"/></g><g id="E260-t16f7246"><path transform="scale(1,-1)" d="M20 110c32 16 54 27 93 27c26 0 35 -3 54 -13c13 -7 24 -20 27 -38l4 -25c0 -28 -16 -57 -45 -89c-23 -25 -39 -44 -65 -68l-88 -79v644h20v-359zM90 106c-32 0 -48 -10 -70 -29v-194c31 31 54 59 71 84c21 32 32 59 32 84c0 9 1 16 1 20c0 14 -3 21 -11 30l-8 3z"/></g><g id="E08A-t16f7246"><path transform="scale(1,-1)" d="M340 179c-9 24 -56 41 -89 41c-46 0 -81 -28 -100 -58c-17 -28 -25 -78 -25 -150c0 -65 2 -111 8 -135c8 -31 18 -49 40 -67c20 -17 43 -25 70 -25c54 0 92 36 115 75c14 25 23 54 28 88h27c0 -63 -24 -105 -58 -141c-35 -38 -82 -56 -140 -56c-45 0 -83 13 -115 39 c-57 45 -101 130 -101 226c0 59 33 127 68 163c36 37 97 72 160 72c36 0 93 -21 121 -40c11 -8 23 -17 33 -30c19 -23 27 -48 27 -76c0 -51 -35 -88 -86 -88c-43 0 -76 27 -76 68c0 26 7 35 21 51c15 17 32 27 58 32c7 2 14 7 14 11z"/></g><g id="E0A4-t16f7246"><path transform="scale(1,-1)" d="M0 -39c0 68 73 172 200 172c66 0 114 -37 114 -95c0 -84 -106 -171 -218 -171c-64 0 -96 30 -96 94z"/></g><g id="E240-t16f7246"><path transform="scale(1,-1)" d="M179 -646c15 29 29 55 46 102c18 49 30 108 30 138c0 105 -80 173 -168 200c-18 5 -47 9 -87 16v190h22c8 0 33 -61 71 -95c4 -3 -2 3 61 -56c62 -58 122 -137 122 -241c0 -38 -13 -106 -35 -163c-20 -51 -43 -99 -66 -132c-6 -5 -10 -7 -13 -7s-5 2 -5 5l4 10 c1 3 14 25 18 33z"/></g><g id="E242-t16f7246"><path transform="scale(1,-1)" d="M206 -748c32 48 49 100 49 149c0 89 -55 168 -168 203c-18 5 -47 9 -87 16v190v190h22c8 0 33 -61 71 -95c4 -3 -2 3 61 -56c62 -58 122 -137 122 -241c0 -32 -7 -65 -17 -96c11 -29 17 -60 17 -94c0 -71 -32 -148 -67 -190c-6 -5 -10 -7 -13 -7s-5 2 -5 5l4 10 c1 3 6 8 11 16zM248 -463c4 18 7 38 7 57c0 105 -80 173 -168 200c-11 3 -27 6 -47 9c9 -17 23 -61 53 -88c4 -3 -2 3 61 -56c36 -33 71 -74 94 -122z"/></g><g id="E0A3-t16f7246"><path transform="scale(1,-1)" d="M278 64c0 22 -17 39 -43 39c-12 0 -26 -3 -41 -10c-85 -43 -165 -94 -165 -156c5 -25 15 -32 49 -32c67 11 200 95 200 159zM0 -36c0 68 73 174 200 174c66 0 114 -39 114 -97c0 -84 -106 -173 -218 -173c-64 0 -96 32 -96 96z"/></g></defs><style type="text/css">#t16f7246 g.page-margin {font-family:Times,serif;}#t16f7246 g.ending, #t16f7246 g.fing, #t16f7246 g.reh, #t16f7246 g.tempo {font-weight:bold;}#t16f7246 g.dir, #t16f7246 g.dynam, #t16f7246 g.mNum {font-style:italic;}#t16f7246 g.label {font-weight:normal;}#t16f7246 path {stroke:currentColor}</style><svg class="definition-scale" color="black" viewBox="0 0 14000 2100"><g class="page-margin" transform="translate(0, 150)"><g data-id="q1hpva2p" data-class="mdiv" class="mdiv pageMilestone"/><g data-id="rp83ob6" data-class="score" class="score pageMilestone"/><g data-id="uay88i6" data-class="system" class="system"><g data-id="tybruyl" data-class="section" class="section systemMilestone"/><g data-id="u1kcl82r" data-class="measure" class="measure"><g data-id="f1902gsa" data-class="staff" class="staff"><path d="M0 540 L2688 540" stroke-width="13"/><path d="M0 720 L2688 720" stroke-width="13"/><path d="M0 900 L2688 900" stroke-width="13"/><path d="M0 1080 L2688 1080" stroke-width="13"/><path d="M0 1260 L2688 1260" stroke-width="13"/><g data-id="z11uys9e" data-class="clef" class="clef"><use href="#E050-t16f7246" transform="translate(90, 1080) scale(0.72, 0.72)"/></g><g data-id="a7nrmma" data-class="keySig" class="keySig"><g data-id="b14qwzdv" data-class="keyAccid" class="keyAccid"><use href="#E260-t16f7246" transform="translate(735, 900) scale(0.72, 0.72)"/></g><g data-id="c1bxee42" data-class="keyAccid" class="keyAccid"><use href="#E260-t16f7246" transform="translate(915, 630) scale(0.72, 0.72)"/></g><g data-id="d5ml8sv" data-class="keyAccid" class="keyAccid"><use href="#E260-t16f7246" transform="translate(1095, 990) scale(0.72, 0.72)"/></g></g><g data-id="e1ury356" data-class="meterSig" class="meterSig"><use href="#E08A-t16f7246" transform="translate(1417, 900) scale(0.72, 0.72)"/></g><g data-id="g14qq0tn" data-class="layer" class="layer"><g data-id="v127dy47" data-class="note" class="note"><g data-class="notehead" class="notehead"><use href="#E0A4-t16f7246" transform="translate(1985, 900) scale(0.72, 0.72)"/></g><g data-id="y6z2slu" data-class="stem" class="stem"><path d="M1994 928 L1994 1500" stroke-width="18"/></g><g data-id="i1qdfbxz" data-class="accid" class="accid"/></g></g></g><g data-id="c1t84toc" data-class="barLine" class="barLine"><path d="M2675 540 L2675 1260" stroke-width="27"/></g></g><g data-id="d2uu512" data-class="measure" class="measure"><g data-id="h1pon89x" data-class="staff" class="staff"><path d="M2688 540 L7134 540" stroke-width="13"/><path d="M2688 720 L7134 720" stroke-width="13"/><path d="M2688 900 L7134 900" stroke-width="13"/><path d="M2688 1080 L7134 1080" stroke-width="13"/><path d="M2688 1260 L7134 1260" stroke-width="13"/><g data-class="ledgerLines" class="ledgerLines below"><g data-class="lineDash" class="lineDash" data-related="#b1q81yxn"><path d="M5246 1440 L5568 1440" stroke-width="22"/></g><g data-class="lineDash" class="lineDash" data-related="#dciwb6r"><path d="M6113 1440 L6435 1440" stroke-width="22"/></g><g data-class="lineDash" class="lineDash" data-related="#enuhw5l"><path d="M6563 1440 L6885 1440" stroke-width="22"/></g></g><g data-id="izmd3kz" data-class="layer" class="layer"><g data-id="wns5ivm" data-class="note" class="note"><g data-class="notehead" class="notehead"><use href="#E0A4-t16f7246" transform="translate(2868, 1080) scale(0.72, 0.72)"/></g><g data-id="a4f9rhk" data-class="dots" class="dots"><ellipse cx="3342" cy="990" rx="36" ry="36" fill-opacity="1" stroke-opacity="1"/></g><g data-id="zwk1p9z" data-class="stem" class="stem"><path d="M3085 1052 L3085 450" stroke-width="18"/><g data-id="b13kddqp" data-class="flag" class="flag"><use href="#E240-t16f7246" transform="translate(3076, 450) scale(0.72, 0.72)"/></g></g></g><g data-id="x19j54pc" data-class="note" class="note"><g data-class="notehead" class="notehead"><use href="#E0A4-t16f7246" transform="translate(3448, 1080) scale(0.72, 0.72)"/></g><g data-id="c1rxv6ho" data-class="stem" class="stem"><path d="M3665 1052 L3665 450" stroke-width="18"/><g data-id="djkceiu" data-class="flag" class="flag"><use href="#E242-t16f7246" transform="translate(3656, 450) scale(0.72, 0.72)"/></g></g></g><g data-id="ymn51fm" data-class="note" class="note"><g data-class="notehead" class="notehead"><use href="#E0A4-t16f7246" transform="translate(3944, 990) scale(0.72, 0.72)"/></g><g data-id="e1742rhr" data-class="stem" class="stem"><path d="M4161 962 L4161 360" stroke-width="18"/><g data-id="f1gcgdho" data-class="flag" class="flag"><use href="#E240-t16f7246" transform="translate(4152, 360) scale(0.72, 0.72)"/></g></g><g data-id="j2uljor" data-class="accid" class="accid"/></g><g data-id="z1rydgbd" data-class="note" class="note"><g data-class="notehead" class="notehead"><use href="#E0A4-t16f7246" transform="translate(4394, 1170) scale(0.72, 0.72)"/></g><g data-id="gk4i9qz" data-class="stem" class="stem"><path d="M4611 1142 L4611 540" stroke-width="18"/><g data-id="h1mbs7g4" data-class="flag" class="flag"><use href="#E240-t16f7246" transform="translate(4602, 540) scale(0.72, 0.72)"/></g></g></g><g data-id="a1n5p7gc" data-class="note" class="note"><g data-class="notehead" class="notehead"><use href="#E0A4-t16f7246" transform="translate(4844, 1260) scale(0.72, 0.72)"/></g><g data-id="i1kvi7tj" data-class="stem" class="stem"><path d="M5061 1232 L5061 630" stroke-width="18"/><g data-id="j1jjcuns" data-class="flag" class="flag"><use href="#E240-t16f7246" transform="translate(5052, 630) scale(0.72, 0.72)"/></g></g><g data-id="k159a517" data-class="accid" class="accid"/></g><g data-id="b1q81yxn" data-class="note" class="note"><g data-class="notehead" class="notehead"><use href="#E0A4-t16f7246" transform="translate(5294, 1530) scale(0.72, 0.72)"/></g><g data-id="k10c0tj6" data-class="stem" class="stem"><path d="M5511 1502 L5511 900" stroke-width="18"/><g data-id="l1b0dilv" data-class="flag" class="flag"><use href="#E240-t16f7246" transform="translate(5502, 900) scale(0.72, 0.72)"/></g></g><g data-id="l18p6g8w" data-class="accid" class="accid"/></g><g data-id="c12x4d6j" data-class="note" class="note"><g data-class="notehead" class="notehead"><use href="#E0A4-t16f7246" transform="translate(5790, 1350) scale(0.54, 0.54)"/></g><g data-id="mwmdzau" data-class="stem" class="stem"><path d="M5950 1329 L5950 878" stroke-width="18"/><path d="M5883 1146 L6084 945" stroke-width="21"/><g data-id="nqfoxh3" data-class="flag" class="flag"><use href="#E240-t16f7246" transform="translate(5941, 878) scale(0.54, 0.54)"/></g></g></g><g data-id="dciwb6r" data-class="note" class="note"><g data-class="notehead" class="notehead"><use href="#E0A4-t16f7246" transform="translate(6161, 1440) scale(0.72, 0.72)"/></g><g data-id="o10eh7c4" data-class="stem" class="stem"><path d="M6378 1412 L6378 810" stroke-width="18"/><g data-id="p1gfneq6" data-class="flag" class="flag"><use href="#E240-t16f7246" transform="translate(6369, 810) scale(0.72, 0.72)"/></g></g></g><g data-id="enuhw5l" data-class="note" class="note"><g data-class="notehead" class="notehead"><use href="#E0A4-t16f7246" transform="translate(6611, 1530) scale(0.72, 0.72)"/></g><g data-id="q15eqgi6" data-class="stem" class="stem"><path d="M6828 1502 L6828 900" stroke-width="18"/><g data-id="rreqqk3" data-class="flag" class="flag"><use href="#E240-t16f7246" transform="translate(6819, 900) scale(0.72, 0.72)"/></g></g><g data-id="m1umxnfg" data-class="accid" class="accid"/></g></g></g><g data-id="l1bwk7ag" data-class="barLine" class="barLine"><path d="M7121 540 L7121 1260" stroke-width="27"/></g></g><g data-id="mvked6k" data-class="measure" class="measure"><g data-id="jbuf9rn" data-class="staff" class="staff"><path d="M7134 540 L8814 540" stroke-width="13"/><path d="M7134 720 L8814 720" stroke-width="13"/><path d="M7134 900 L8814 900" stroke-width="13"/><path d="M7134 1080 L8814 1080" stroke-width="13"/><path d="M7134 1260 L8814 1260" stroke-width="13"/><g data-id="kw1ttis" data-class="layer" class="layer"><g data-id="ftc98sc" data-class="note" class="note"><g data-class="notehead" class="notehead"><use href="#E0A3-t16f7246" transform="translate(7314, 1260) scale(0.72, 0.72)"/></g><g data-id="s1osykjc" data-class="stem" class="stem"><path d="M7531 1232 L7531 630" stroke-width="18"/></g><g data-id="n1eanplq" data-class="accid" class="accid"/></g><g data-id="g1tglfug" data-class="note" class="note"><g data-class="notehead" class="notehead"><use href="#E0A4-t16f7246" transform="translate(8364, 1260) scale(0.72, 0.72)"/></g><g data-id="t1k1k7l4" data-class="stem" class="stem"><path d="M8581 1232 L8581 630" stroke-width="18"/><g data-id="ucksqrf" data-class="flag" class="flag"><use href="#E240-t16f7246" transform="translate(8572, 630) scale(0.72, 0.72)"/></g></g><g data-id="o176dhgj" data-class="accid" class="accid"/></g></g></g><g data-id="hiom7zx" data-class="tie" class="tie"><path d="M7585,1305 C7775,1410 8126,1410 8319,1305 C8141,1459 7760,1459 7585,1305" stroke-linecap="round" stroke-linejoin="round" stroke-width="9"/></g><g data-id="u1moiyza" data-class="barLine" class="barLine"/></g><g data-id="smxhok6" data-class="systemMilestoneEnd" class="systemMilestoneEnd tybruyl"/></g><g data-id="tkniirk" data-class="pageMilestoneEnd" class="pageMilestoneEnd rp83ob6"/><g data-id="u1ke966i" data-class="pageMilestoneEnd" class="pageMilestoneEnd q1hpva2p"/></g></svg></svg>