<svg viewBox="0 0 560 84" version="1.1" xmlns="http://www.w3.org/2000/svg" xmlns:xlink="http://www.w3.org/1999/xlink" overflow="visible" id="e1s2c113"><desc>Engraved by Verovio 5.6.0-85e7620</desc><defs><g id="E050-e1s2c113"><path transform="scale(1,-1)" d="M441 -245c-23 -4 -48 -6 -76 -6c-59 0 -102 7 -130 20c-88 42 -150 93 -187 154c-26 44 -43 103 -48 176c0 6 -1 13 -1 19c0 54 15 111 45 170c29 57 65 106 110 148s96 85 153 127c-3 16 -8 46 -13 92c-4 43 -5 73 -5 89c0 117 16 172 69 257c34 54 64 82 89 82 c21 0 43 -30 69 -92s39 -115 41 -159v-15c0 -109 -21 -162 -67 -241c-13 -20 -63 -90 -98 -118c-13 -9 -25 -19 -37 -29l31 -181c8 1 18 2 28 2c58 0 102 -12 133 -35c59 -43 92 -104 98 -184c1 -7 1 -15 1 -22c0 -123 -87 -209 -181 -248c8 -57 17 -110 25 -162 c5 -31 6 -58 6 -80c0 -30 -5 -53 -14 -70c-35 -64 -88 -99 -158 -103c-5 0 -11 -1 -16 -1c-37 0 -72 10 -108 27c-50 24 -77 59 -80 105v11c0 29 7 55 20 76c18 28 45 42 79 44h6c49 0 93 -42 97 -87v-9c0 -51 -34 -86 -105 -106c17 -24 51 -36 102 -36c62 0 116 43 140 85 c9 16 13 41 13 74c0 20 -1 42 -5 67c-8 53 -18 106 -26 159zM461 939c-95 0 -135 -175 -135 -286c0 -24 2 -48 5 -71c50 39 92 82 127 128c40 53 60 100 60 140v8c-4 53 -22 81 -55 81h-2zM406 119l54 -326c73 25 110 78 110 161c0 7 0 15 -1 23c-7 95 -57 142 -151 142h-12 zM382 117c-72 -2 -128 -47 -128 -120v-7c2 -46 43 -99 75 -115c-3 -2 -7 -5 -10 -10c-70 33 -116 88 -123 172v11c0 68 44 126 88 159c23 17 49 29 78 36l-29 170c-21 -13 -52 -37 -92 -73c-50 -44 -86 -84 -109 -119c-45 -69 -67 -130 -67 -182v-13c5 -68 35 -127 93 -176 s125 -73 203 -73c25 0 50 3 75 9c-19 111 -36 221 -54 331z"/></g><g id="E260-e1s2c113"><path transform="scale(1,-1)" d="M20 110c32 16 54 27 93 27c26 0 35 -3 54 -13c13 -7 24 -20 27 -38l4 -25c0 -28 -16 -57 -45 -89c-23 -25 -39 -44 -65 -68l-88 -79v644h20v-359zM90 106c-32 0 -48 -10 -70 -29v-194c31 31 54 59 71 84c21 32 32 59 32 84c0 9 1 16 1 20c0 14 -3 21 -11 30l-8 3z"/></g><g id="E082-e1s2c113"><path transform="scale(1,-1)" d="M124 -185c-18 0 -55 -14 -65 -65h-36l-3 30c0 25 6 45 18 63c11 19 22 30 39 43l121 82l37 29c15 11 27 29 38 54c12 24 18 47 18 70c0 40 -19 88 -94 88c-25 0 -32 0 -50 -8c-14 -5 -23 -12 -26 -22c3 -9 7 -15 10 -18l24 -17c12 -7 17 -11 27 -21c5 -7 7 -16 7 -27 c0 -12 0 -57 -79 -74c-30 0 -76 26 -76 94c0 66 81 135 197 135c72 0 181 -32 181 -150c0 -53 -32 -95 -113 -133l-91 -41c-26 -11 -45 -23 -57 -37l49 7c84 0 115 -41 148 -41c20 0 33 20 39 61h35c0 -152 -68 -168 -114 -168c-17 0 -65 0 -79 7h10l-28 17 c-49 37 -69 40 -87 42z"/></g><g id="E084-e1s2c113"><path transform="scale(1,-1)" d="M20 -78c84 97 114 180 134 329h170c-13 -32 -82 -132 -99 -151l-84 -97c-33 -36 -59 -63 -80 -81h162v102l127 123v-225h57v-39h-57v-34c0 -43 19 -65 57 -65v-34h-244v36c48 0 60 26 60 70v27h-203v39z"/></g><g id="E0A4-e1s2c113"><path transform="scale(1,-1)" d="M0 -39c0 68 73 172 200 172c66 0 114 -37 114 -95c0 -84 -106 -171 -218 -171c-64 0 -96 30 -96 94z"/></g><g id="E262-e1s2c113"><path transform="scale(1,-1)" d="M136 186v169h17v-164l44 14v-91l-44 -14v-165l44 12v-91l-44 -13v-155h-17v150l-76 -22v-155h-17v149l-43 -13v90l43 14v167l-43 -14v92l43 13v169h17v-163zM60 73v-167l76 22v168z"/></g><g id="E261-e1s2c113"><path transform="scale(1,-1)" d="M0 -188v539h18v-191l139 22v-533h-17v186zM18 -100l122 17v176l-122 -19v-174z"/></g></defs><style type="text/css">#e1s2c113 g.page-margin {font-family:Times,serif;}#e1s2c113 g.ending, #e1s2c113 g.fing, #e1s2c113 g.reh, #e1s2c113 g.tempo {font-weight:bold;}#e1s2c113 g.dir, #e1s2c113 g.dynam, #e1s2c113 g.mNum {font-style:italic;}#e1s2c113 g.label {font-weight:normal;}#e1s2c113 path {stroke:currentColor}</style><svg class="definition-scale" color="black" viewBox="0 0 14000 2100"><g class="page-margin" transform="translate(0, 150)"><g data-id="xeex3eg" data-class="mdiv" class="mdiv pageMilestone"/><g data-id="y12mbo30" data-class="score" class="score pageMilestone"/><g data-id="g8md4dq" data-class="system" class="system"><g data-id="a1fdwauz" data-class="section" class="section systemMilestone"/><g data-id="f12d9n2i" data-class="measure" class="measure"><g data-id="m4np77r" data-class="staff" class="staff"><path d="M0 540 L2319 540" stroke-width="13"/><path d="M0 720 L2319 720" stroke-width="13"/><path d="M0 900 L2319 900" stroke-width="13"/><path d="M0 1080 L2319 1080" stroke-width="13"/><path d="M0 1260 L2319 1260" stroke-width="13"/><g data-id="n1sei0xl" data-class="clef" class="clef"><use href="#E050-e1s2c113" transform="translate(90, 1080) scale(0.72, 0.72)"/></g><g data-id="o1ltkz6e" data-class="keySig" class="keySig"><g data-id="p1ca2a3o" data-class="keyAccid" class="keyAccid"><use href="#E260-e1s2c113" transform="translate(735, 900) scale(0.72, 0.72)"/></g></g><g data-id="q19apdci" data-class="meterSig" class="meterSig"><use href="#E082-e1s2c113" transform="translate(1043, 720) scale(0.72, 0.72)"/><use href="#E084-e1s2c113" transform="translate(1048, 1080) scale(0.72, 0.72)"/></g><g data-id="ne25dzo" data-class="layer" class="layer"><g data-id="y1tgn3d3" data-class="note" class="note"><g data-class="notehead" class="notehead"><use href="#E0A4-e1s2c113" transform="translate(1616, 990) scale(0.72, 0.72)"/></g><g data-id="h1nghkgp" data-class="stem" class="stem"><path d="M1833 962 L1833 360" stroke-width="18"/></g></g></g></g><g data-id="t1uqpmdi" data-class="tie" class="tie"><path d="M1887,1035 C2037,1140 2300,1140 2454,1035 C2319,1189 2018,1189 1887,1035" stroke-linecap="round" stroke-linejoin="round" stroke-width="9"/></g><g data-id="n1j5j5qe" data-class="barLine" class="barLine"><path d="M2306 540 L2306 1260" stroke-width="27"/></g></g><g data-id="o1g6igvl" data-class="measure" class="measure"><g data-id="oc1ms2r" data-class="staff" class="staff"><path d="M2319 540 L4154 540" stroke-width="13"/><path d="M2319 720 L4154 720" stroke-width="13"/><path d="M2319 900 L4154 900" stroke-width="13"/><path d="M2319 1080 L4154 1080" stroke-width="13"/><path d="M2319 1260 L4154 1260" stroke-width="13"/><g data-id="p4xcmva" data-class="layer" class="layer"><g data-id="o1xc5lm" data-class="beam" class="beam"><polygon stroke-opacity="1" fill-opacity="1" points="2707,315 3227,360 3227,450 2707,405"/><g data-id="z1esqtp2" data-class="note" class="note"><g data-class="notehead" class="notehead"><use href="#E0A4-e1s2c113" transform="translate(2499, 990) scale(0.72, 0.72)"/></g><g data-id="i1mxfaul" data-class="stem" class="stem"><path d="M2716 962 L2716 333" stroke-width="18"/></g></g><g data-id="atd3ysx" data-class="note" class="note"><g data-class="notehead" class="notehead"><use href="#E0A4-e1s2c113" transform="translate(3001, 1080) scale(0.72, 0.72)"/></g><g data-id="j1hxl3f5" data-class="stem" class="stem"><path d="M3218 1052 L3218 378" stroke-width="18"/></g><g data-id="lit48" data-class="accid" class="accid"><use href="#E262-e1s2c113" transform="translate(2815, 1080) scale(0.72, 0.72)"/></g></g></g><g data-id="b16amuz7" data-class="note" class="note"><g data-class="notehead" class="notehead"><use href="#E0A4-e1s2c113" transform="translate(3451, 720) scale(0.72, 0.72)"/></g><g data-id="kg36l2i" data-class="stem" class="stem"><path d="M3460 748 L3460 1350" stroke-width="18"/></g></g></g></g><g data-id="ueovkec" data-class="tie" class="tie"><path d="M3722,675 C3853,521 4154,521 4289,675 C4135,570 3872,570 3722,675" stroke-linecap="round" stroke-linejoin="round" stroke-width="9"/></g><g data-id="wsayzx1" data-class="barLine" class="barLine"><path d="M4141 540 L4141 1260" stroke-width="27"/></g></g><g data-id="x1fkkeo3" data-class="measure" class="measure"><g data-id="qo9gdo1" data-class="staff" class="staff"><path d="M4154 540 L6199 540" stroke-width="13"/><path d="M4154 720 L6199 720" stroke-width="13"/><path d="M4154 900 L6199 900" stroke-width="13"/><path d="M4154 1080 L6199 1080" stroke-width="13"/><path d="M4154 1260 L6199 1260" stroke-width="13"/><g data-id="rga6ce6" data-class="layer" class="layer"><g data-id="p16jamft" data-class="beam" class="beam"><polygon stroke-opacity="1" fill-opacity="1" points="4334,1440 4854,1485 4854,1395 4334,1350"/><g data-id="c1qyu3uy" data-class="note" class="note"><g data-class="notehead" class="notehead"><use href="#E0A4-e1s2c113" transform="translate(4334, 720) scale(0.72, 0.72)"/></g><g data-id="l17hcz8j" data-class="stem" class="stem"><path d="M4343 748 L4343 1422" stroke-width="18"/></g></g><g data-id="d1vrp0y" data-class="note" class="note"><g data-class="notehead" class="notehead"><use href="#E0A4-e1s2c113" transform="translate(4836, 810) scale(0.72, 0.72)"/></g><g data-id="m1wv5zq8" data-class="stem" class="stem"><path d="M4845 838 L4845 1467" stroke-width="18"/></g><g data-id="mmo2xem" data-class="accid" class="accid"><use href="#E262-e1s2c113" transform="translate(4650, 810) scale(0.72, 0.72)"/></g></g></g><g data-id="q1giax0l" data-class="beam" class="beam"><polygon stroke-opacity="1" fill-opacity="1" points="5286,1260 5754,1305 5754,1215 5286,1170"/><g data-id="ecbllmo" data-class="note" class="note"><g data-class="notehead" class="notehead"><use href="#E0A4-e1s2c113" transform="translate(5286, 540) scale(0.72, 0.72)"/></g><g data-id="n1uo0fdd" data-class="stem" class="stem"><path d="M5295 568 L5295 1242" stroke-width="18"/></g></g><g data-id="f16681p7" data-class="note" class="note"><g data-class="notehead" class="notehead"><use href="#E0A4-e1s2c113" transform="translate(5736, 630) scale(0.72, 0.72)"/></g><g data-id="o11rrbj6" data-class="stem" class="stem"><path d="M5745 658 L5745 1287" stroke-width="18"/></g></g></g></g></g><g data-id="f19cr124" data-class="barLine" class="barLine"><path d="M6186 540 L6186 1260" stroke-width="27"/></g></g><g data-id="g1sthpm5" data-class="measure" class="measure"><g data-id="st1hxr8" data-class="staff" class="staff"><path d="M6199 540 L8226 540" stroke-width="13"/><path d="M6199 720 L8226 720" stroke-width="13"/><path d="M6199 900 L8226 900" stroke-width="13"/><path d="M6199 1080 L8226 1080" stroke-width="13"/><path d="M6199 1260 L8226 1260" stroke-width="13"/><g data-id="tqw5hi7" data-class="layer" class="layer"><g data-id="r11a3n8m" data-class="beam" class="beam"><polygon stroke-opacity="1" fill-opacity="1" points="6379,1440 6871,1485 6871,1395 6379,1350"/><g data-id="g2onjdr" data-class="note" class="note"><g data-class="notehead" class="notehead"><use href="#E0A4-e1s2c113" transform="translate(6379, 720) scale(0.72, 0.72)"/></g><g data-id="pfxv9kx" data-class="stem" class="stem"><path d="M6388 748 L6388 1422" stroke-width="18"/></g></g><g data-id="hdu9k6j" data-class="note" class="note"><g data-class="notehead" class="notehead"><use href="#E0A4-e1s2c113" transform="translate(6853, 810) scale(0.72, 0.72)"/></g><g data-id="qb048wt" data-class="stem" class="stem"><path d="M6862 838 L6862 1467" stroke-width="18"/></g><g data-id="nf9xbnt" data-class="accid" class="accid"><use href="#E261-e1s2c113" transform="translate(6695, 810) scale(0.72, 0.72)"/></g></g></g><g data-id="s1rlmg1g" data-class="beam" class="beam"><polygon stroke-opacity="1" fill-opacity="1" points="7303,1440 7901,1530 7901,1440 7303,1350"/><polygon stroke-opacity="1" fill-opacity="1" points="7675,1362 7901,1395 7901,1305 7675,1272"/><g data-id="i1y55qfv" data-class="note" class="note"><g data-class="notehead" class="notehead"><use href="#E0A4-e1s2c113" transform="translate(7303, 810) scale(0.72, 0.72)"/></g><g data-id="s2azax0" data-class="dots" class="dots"><ellipse cx="7619" cy="810" rx="36" ry="36" fill-opacity="1" stroke-opacity="1"/></g><g data-id="r6jcxjn" data-class="stem" class="stem"><path d="M7312 838 L7312 1422" stroke-width="18"/></g></g><g data-id="j19nmxdj" data-class="note" class="note"><g data-class="notehead" class="notehead"><use href="#E0A4-e1s2c113" transform="translate(7883, 900) scale(0.72, 0.72)"/></g><g data-id="t1xxrl5v" data-class="stem" class="stem"><path d="M7892 928 L7892 1512" stroke-width="18"/></g><g data-id="v35rjnc" data-class="accid" class="accid"/></g></g></g></g><g data-id="o1nh4o00" data-class="barLine" class="barLine"><path d="M8213 540 L8213 1260" stroke-width="27"/></g></g><g data-id="pc6bad2" data-class="measure" class="measure"><g data-id="uvtl9zb" data-class="staff" class="staff"><path d="M8226 540 L9096 540" stroke-width="13"/><path d="M8226 720 L9096 720" stroke-width="13"/><path d="M8226 900 L9096 900" stroke-width="13"/><path d="M8226 1080 L9096 1080" stroke-width="13"/><path d="M8226 1260 L9096 1260" stroke-width="13"/><g data-id="vcs11hp" data-class="layer" class="layer"><g data-id="k1ptepjh" data-class="note" class="note"><g data-class="notehead" class="notehead"><use href="#E0A4-e1s2c113" transform="translate(8406, 990) scale(0.72, 0.72)"/></g><g data-id="u1234g8n" data-class="stem" class="stem"><path d="M8623 962 L8623 360" stroke-width="18"/></g></g></g></g><g data-id="x5w3fyd" data-class="barLine" class="barLine"/></g><g data-id="dzmitvz" data-class="systemMilestoneEnd" class="systemMilestoneEnd a1fdwauz"/></g><g data-id="e1w4uy9s" data-class="pageMilestoneEnd" class="pageMilestoneEnd y12mbo30"/><g data-id="fxhurt9" data-class="pageMilestoneEnd" class="pageMilestoneEnd xeex3eg"/></g></svg></svg>