<svg viewBox="0 0 560 91" version="1.1" xmlns="http://www.w3.org/2000/svg" xmlns:xlink="http://www.w3.org/1999/xlink" overflow="visible" id="s1yyn091"><desc>Engraved by Verovio 5.6.0-85e7620</desc><defs><g id="E062-s1yyn091"><path transform="scale(1,-1)" d="M582 -120c0 32 26 58 58 58s58 -26 58 -58s-26 -58 -58 -58s-58 26 -58 58zM582 120c0 32 26 58 58 58s58 -26 58 -58s-26 -58 -58 -58s-58 26 -58 58zM158 96c51 0 73 -14 88 -49l16 -39c0 -17 -2 -30 -7 -40c-3 -11 -10 -21 -19 -31c-17 -18 -49 -43 -84 -43 c-55 0 -77 13 -112 44c-24 21 -35 55 -35 100c0 46 14 81 32 112c30 52 71 79 137 93l36 6l26 2c154 0 235 -68 274 -182c11 -32 18 -68 18 -107c0 -103 -26 -182 -68 -250c-89 -145 -234 -230 -412 -288l-30 -5c-9 0 -14 3 -14 8c3 10 5 11 10 16c35 15 70 30 96 44l78 43 c96 57 162 136 197 258c9 33 17 60 22 100c3 22 5 35 6 39c-7 69 -16 115 -23 140s-4 22 -16 40c-8 12 -19 23 -31 34c-24 21 -62 44 -118 44c-48 0 -84 -8 -113 -28c-28 -19 -42 -44 -42 -73v-16c2 -5 3 -9 4 -11c24 22 52 39 84 39z"/></g><g id="E262-s1yyn091"><path transform="scale(1,-1)" d="M136 186v169h17v-164l44 14v-91l-44 -14v-165l44 12v-91l-44 -13v-155h-17v150l-76 -22v-155h-17v149l-43 -13v90l43 14v167l-43 -14v92l43 13v169h17v-163zM60 73v-167l76 22v168z"/></g><g id="E08A-s1yyn091"><path transform="scale(1,-1)" d="M340 179c-9 24 -56 41 -89 41c-46 0 -81 -28 -100 -58c-17 -28 -25 -78 -25 -150c0 -65 2 -111 8 -135c8 -31 18 -49 40 -67c20 -17 43 -25 70 -25c54 0 92 36 115 75c14 25 23 54 28 88h27c0 -63 -24 -105 -58 -141c-35 -38 -82 -56 -140 -56c-45 0 -83 13 -115 39 c-57 45 -101 130 -101 226c0 59 33 127 68 163c36 37 97 72 160 72c36 0 93 -21 121 -40c11 -8 23 -17 33 -30c19 -23 27 -48 27 -76c0 -51 -35 -88 -86 -88c-43 0 -76 27 -76 68c0 26 7 35 21 51c15 17 32 27 58 32c7 2 14 7 14 11z"/></g><g id="E0A4-s1yyn091"><path transform="scale(1,-1)" d="M0 -39c0 68 73 172 200 172c66 0 114 -37 114 -95c0 -84 -106 -171 -218 -171c-64 0 -96 30 -96 94z"/></g><g id="E261-s1yyn091"><path transform="scale(1,-1)" d="M0 -188v539h18v-191l139 22v-533h-17v186zM18 -100l122 17v176l-122 -19v-174z"/></g></defs><style type="text/css">#s1yyn091 g.page-margin {font-family:Times,serif;}#s1yyn091 g.ending, #s1yyn091 g.fing, #s1yyn091 g.reh, #s1yyn091 g.tempo {font-weight:bold;}#s1yyn091 g.dir, #s1yyn091 g.dynam, #s1yyn091 g.mNum {font-style:italic;}#s1yyn091 g.label {font-weight:normal;}#s1yyn091 path {stroke:currentColor}</style><svg class="definition-scale" color="black" viewBox="0 0 14000 2260"><g class="page-margin" transform="translate(0, 150)"><g data-id="v1nue4up" data-class="mdiv" class="mdiv pageMilestone"/><g data-id="w11q7k2h" data-class="score" class="score pageMilestone"/><g data-id="z19r0c54" data-class="system" class="system"><g data-id="y17j7ioy" data-class="section" class="section systemMilestone"/><g data-id="t7ookdp" data-class="measure" class="measure"><g data-id="kfh3jkz" data-class="staff" class="staff"><path d="M0 703 L5292 703" stroke-width="13"/><path d="M0 883 L5292 883" stroke-width="13"/><path d="M0 1063 L5292 1063" stroke-width="13"/><path d="M0 1243 L5292 1243" stroke-width="13"/><path d="M0 1423 L5292 1423" stroke-width="13"/><g data-id="g1354ceq" data-class="clef" class="clef"><use href="#E062-s1yyn091" transform="translate(88, 883) scale(0.72, 0.72)"/></g><g data-id="h1t3a6zz" data-class="keySig" class="keySig"><g data-id="idlhf4e" data-class="keyAccid" class="keyAccid"><use href="#E262-s1yyn091" transform="translate(769, 883) scale(0.72, 0.72)"/></g></g><g data-id="jg5pf3w" data-class="meterSig" class="meterSig"><use href="#E08A-s1yyn091" transform="translate(1090, 1063) scale(0.72, 0.72)"/></g><g data-id="l1czrdub" data-class="layer" class="layer"><g data-id="dviay39" data-class="note" class="note"><g data-class="notehead" class="notehead"><use href="#E0A4-s1yyn091" transform="translate(1667, 973) scale(0.72, 0.72)"/></g><g data-id="diesmfq" data-class="stem" class="stem"><path d="M1676 1001 L1676 1603" stroke-width="18"/></g></g><g data-id="g161dkt8" data-class="beam" class="beam"><polygon stroke-opacity="1" fill-opacity="1" points="2364,1423 3166,1603 3166,1513 2364,1333"/><polygon stroke-opacity="1" fill-opacity="1" points="2827,1392 3166,1468 3166,1378 2827,1302"/><g data-id="e52sezn" data-class="note" class="note"><g data-class="notehead" class="notehead"><use href="#E0A4-s1yyn091" transform="translate(2364, 793) scale(0.72, 0.72)"/></g><g data-id="e1x017yk" data-class="stem" class="stem"><path d="M2373 821 L2373 1405" stroke-width="18"/></g></g><g data-id="fy20g3k" data-class="note" class="note"><g data-class="notehead" class="notehead"><use href="#E0A4-s1yyn091" transform="translate(2818, 883) scale(0.72, 0.72)"/></g><g data-id="f78y2q3" data-class="stem" class="stem"><path d="M2827 911 L2827 1509" stroke-width="18"/></g><g data-id="p6fx4ei" data-class="accid" class="accid"/></g><g data-id="g1f7avsj" data-class="note" class="note"><g data-class="notehead" class="notehead"><use href="#E0A4-s1yyn091" transform="translate(3148, 973) scale(0.72, 0.72)"/></g><g data-id="g2grfv5" data-class="stem" class="stem"><path d="M3157 1001 L3157 1585" stroke-width="18"/></g></g></g><g data-id="ha869nh" data-class="beam" class="beam"><polygon stroke-opacity="1" fill-opacity="1" points="3673,1648 4145,1603 4145,1513 3673,1558"/><g data-id="hdaar9n" data-class="note" class="note"><g data-class="notehead" class="notehead"><use href="#E0A4-s1yyn091" transform="translate(3673, 1063) scale(0.72, 0.72)"/></g><g data-id="h1fcpz11" data-class="stem" class="stem"><path d="M3682 1091 L3682 1630" stroke-width="18"/></g><g data-id="a1ufzkhg" data-class="accid" class="accid"><use href="#E262-s1yyn091" transform="translate(3487, 1063) scale(0.72, 0.72)"/></g></g><g data-id="i5gioiy" data-class="note" class="note"><g data-class="notehead" class="notehead"><use href="#E0A4-s1yyn091" transform="translate(4127, 883) scale(0.72, 0.72)"/></g><g data-id="im73y5d" data-class="stem" class="stem"><path d="M4136 911 L4136 1585" stroke-width="18"/></g><g data-id="q169dgmt" data-class="accid" class="accid"/></g></g><g data-id="j1gpn0mc" data-class="note" class="note"><g data-class="notehead" class="notehead"><use href="#E0A4-s1yyn091" transform="translate(4582, 703) scale(0.72, 0.72)"/></g><g data-id="j5hndsb" data-class="stem" class="stem"><path d="M4591 731 L4591 1333" stroke-width="18"/></g></g></g></g><g data-id="mx89pks" data-class="tie" class="tie"><path d="M4853,658 C4988,504 5297,504 5436,658 C5278,553 5007,553 4853,658" stroke-linecap="round" stroke-linejoin="round" stroke-width="9"/></g><g data-id="bvep0s7" data-class="barLine" class="barLine"><path d="M5279 703 L5279 1423" stroke-width="27"/></g></g><g data-id="c8tjua0" data-class="measure" class="measure"><g data-id="m1bed55i" data-class="staff" class="staff"><path d="M5292 703 L8988 703" stroke-width="13"/><path d="M5292 883 L8988 883" stroke-width="13"/><path d="M5292 1063 L8988 1063" stroke-width="13"/><path d="M5292 1243 L8988 1243" stroke-width="13"/><path d="M5292 1423 L8988 1423" stroke-width="13"/><g data-class="ledgerLines" class="ledgerLines above"><g data-class="lineDash" class="lineDash" data-related="#mg8lxxq"><path d="M6412 523 L6734 523" stroke-width="22"/></g><g data-class="lineDash" class="lineDash" data-related="#n1nzm30k"><path d="M7109 523 L7431 523" stroke-width="22"/></g><g data-class="lineDash" class="lineDash" data-related="#o1bi08g6"><path d="M7563 523 L7885 523" stroke-width="22"/></g><g data-class="lineDash" class="lineDash" data-related="#p1yz8dhr"><path d="M8018 523 L8340 523" stroke-width="22"/></g><g data-class="lineDash" class="lineDash" data-related="#q1csl3x8"><path d="M8472 523 L8794 523" stroke-width="22"/></g><g data-class="lineDash" class="lineDash" data-related="#p1yz8dhr"><path d="M8018 343 L8340 343" stroke-width="22"/></g><g data-class="lineDash" class="lineDash" data-related="#q1csl3x8"><path d="M8472 343 L8794 343" stroke-width="22"/></g></g><g data-id="nifnggq" data-class="layer" class="layer"><g data-id="it7ofwo" data-class="beam" class="beam"><polygon stroke-opacity="1" fill-opacity="1" points="5481,1423 6023,1468 6023,1378 5481,1333"/><g data-id="k134y478" data-class="note" class="note"><g data-class="notehead" class="notehead"><use href="#E0A4-s1yyn091" transform="translate(5481, 703) scale(0.72, 0.72)"/></g><g data-id="kgf0mry" data-class="stem" class="stem"><path d="M5490 731 L5490 1405" stroke-width="18"/></g></g><g data-id="l9yj6xq" data-class="note" class="note"><g data-class="notehead" class="notehead"><use href="#E0A4-s1yyn091" transform="translate(6005, 793) scale(0.72, 0.72)"/></g><g data-id="l1sz54vq" data-class="stem" class="stem"><path d="M6014 821 L6014 1450" stroke-width="18"/></g><g data-id="bcsv6bk" data-class="accid" class="accid"><use href="#E262-s1yyn091" transform="translate(5819, 793) scale(0.72, 0.72)"/></g></g></g><g data-id="mg8lxxq" data-class="note" class="note"><g data-class="notehead" class="notehead"><use href="#E0A4-s1yyn091" transform="translate(6460, 433) scale(0.72, 0.72)"/></g><g data-id="m5rig02" data-class="stem" class="stem"><path d="M6469 461 L6469 1063" stroke-width="18"/></g><g data-id="c1swutdb" data-class="accid" class="accid"><use href="#E261-s1yyn091" transform="translate(6276, 433) scale(0.72, 0.72)"/></g></g><g data-id="jraqfq8" data-class="beam" class="beam"><polygon stroke-opacity="1" fill-opacity="1" points="7157,1108 8538,1108 8538,1018 7157,1018"/><g data-id="n1nzm30k" data-class="note" class="note"><g data-class="notehead" class="notehead"><use href="#E0A4-s1yyn091" transform="translate(7157, 433) scale(0.72, 0.72)"/></g><g data-id="n1tec0ex" data-class="stem" class="stem"><path d="M7166 461 L7166 1090" stroke-width="18"/></g><g data-id="rr0us10" data-class="accid" class="accid"/></g><g data-id="o1bi08g6" data-class="note" class="note"><g data-class="notehead" class="notehead"><use href="#E0A4-s1yyn091" transform="translate(7611, 523) scale(0.72, 0.72)"/></g><g data-id="oswzh6g" data-class="stem" class="stem"><path d="M7620 551 L7620 1090" stroke-width="18"/></g></g><g data-id="p1yz8dhr" data-class="note" class="note"><g data-class="notehead" class="notehead"><use href="#E0A4-s1yyn091" transform="translate(8066, 253) scale(0.72, 0.72)"/></g><g data-id="p5abg6p" data-class="stem" class="stem"><path d="M8075 281 L8075 1090" stroke-width="18"/></g><g data-id="dz4mjoe" data-class="accid" class="accid"><use href="#E261-s1yyn091" transform="translate(7882, 253) scale(0.72, 0.72)"/></g></g><g data-id="q1csl3x8" data-class="note" class="note"><g data-class="notehead" class="notehead"><use href="#E0A4-s1yyn091" transform="translate(8520, 343) scale(0.72, 0.72)"/></g><g data-id="qtszyoh" data-class="stem" class="stem"><path d="M8529 371 L8529 1090" stroke-width="18"/></g></g></g></g></g><g data-id="nignd0y" data-class="tie" class="tie"><path d="M6731,388 C6813,234 7028,234 7112,388 C7003,283 6838,283 6731,388" stroke-linecap="round" stroke-linejoin="round" stroke-width="9"/></g><g data-id="k1ubhih3" data-class="barLine" class="barLine"><path d="M8975 703 L8975 1423" stroke-width="27"/></g></g><g data-id="l14zqrfg" data-class="measure" class="measure"><g data-id="o1rejrpa" data-class="staff" class="staff"><path d="M8988 703 L13117 703" stroke-width="13"/><path d="M8988 883 L13117 883" stroke-width="13"/><path d="M8988 1063 L13117 1063" stroke-width="13"/><path d="M8988 1243 L13117 1243" stroke-width="13"/><path d="M8988 1423 L13117 1423" stroke-width="13"/><g data-class="ledgerLines" class="ledgerLines above"><g data-class="lineDash" class="lineDash" data-related="#raok5iy"><path d="M9350 523 L9672 523" stroke-width="22"/></g><g data-class="lineDash" class="lineDash" data-related="#s1j1xsmg"><path d="M9805 523 L10127 523" stroke-width="22"/></g></g><g data-id="p1j2cc1n" data-class="layer" class="layer"><g data-id="kjz8mec" data-class="beam" class="beam"><polygon stroke-opacity="1" fill-opacity="1" points="9398,1108 10780,1288 10780,1198 9398,1018"/><g data-id="raok5iy" data-class="note" class="note"><g data-class="notehead" class="notehead"><use href="#E0A4-s1yyn091" transform="translate(9398, 433) scale(0.72, 0.72)"/></g><g data-id="r1bpa59h" data-class="stem" class="stem"><path d="M9407 461 L9407 1090" stroke-width="18"/></g><g data-id="e1xde03r" data-class="accid" class="accid"><use href="#E262-s1yyn091" transform="translate(9186, 433) scale(0.72, 0.72)"/></g></g><g data-id="s1j1xsmg" data-class="note" class="note"><g data-class="notehead" class="notehead"><use href="#E0A4-s1yyn091" transform="translate(9853, 523) scale(0.72, 0.72)"/></g><g data-id="s1m0pmtp" data-class="stem" class="stem"><path d="M9862 551 L9862 1150" stroke-width="18"/></g></g><g data-id="t1o4a9lx" data-class="note" class="note"><g data-class="notehead" class="notehead"><use href="#E0A4-s1yyn091" transform="translate(10307, 613) scale(0.72, 0.72)"/></g><g data-id="t1w1vbjx" data-class="stem" class="stem"><path d="M10316 641 L10316 1209" stroke-width="18"/></g></g><g data-id="u95ygq1" data-class="note" class="note"><g data-class="notehead" class="notehead"><use href="#E0A4-s1yyn091" transform="translate(10762, 703) scale(0.72, 0.72)"/></g><g data-id="u1m42nyw" data-class="stem" class="stem"><path d="M10771 731 L10771 1270" stroke-width="18"/></g></g></g><g data-id="lqnc5vd" data-class="beam" class="beam"><polygon stroke-opacity="1" fill-opacity="1" points="11216,1423 12668,1603 12668,1513 11216,1333"/><g data-id="vf04oe5" data-class="note" class="note"><g data-class="notehead" class="notehead"><use href="#E0A4-s1yyn091" transform="translate(11216, 703) scale(0.72, 0.72)"/></g><g data-id="viyr99c" data-class="stem" class="stem"><path d="M11225 731 L11225 1405" stroke-width="18"/></g></g><g data-id="w1sq3wdq" data-class="note" class="note"><g data-class="notehead" class="notehead"><use href="#E0A4-s1yyn091" transform="translate(11671, 793) scale(0.72, 0.72)"/></g><g data-id="wx8blrg" data-class="stem" class="stem"><path d="M11680 821 L11680 1462" stroke-width="18"/></g></g><g data-id="xk67ukx" data-class="note" class="note"><g data-class="notehead" class="notehead"><use href="#E0A4-s1yyn091" transform="translate(12125, 883) scale(0.72, 0.72)"/></g><g data-id="xhkp3zg" data-class="stem" class="stem"><path d="M12134 911 L12134 1519" stroke-width="18"/></g><g data-id="s1azwee7" data-class="accid" class="accid"/></g><g data-id="yvsx1lv" data-class="note" class="note"><g data-class="notehead" class="notehead"><use href="#E0A4-s1yyn091" transform="translate(12650, 973) scale(0.72, 0.72)"/></g><g data-id="yb62ls7" data-class="stem" class="stem"><path d="M12659 1001 L12659 1585" stroke-width="18"/></g><g data-id="fym8uxu" data-class="accid" class="accid"><use href="#E262-s1yyn091" transform="translate(12464, 973) scale(0.72, 0.72)"/></g></g></g></g></g><g data-id="or76npk" data-class="tie" class="tie"><path d="M10875,568 C10977,415 11224,415 11329,568 C11203,462 10998,462 10875,568" stroke-linecap="round" stroke-linejoin="round" stroke-width="9"/></g><g data-id="tevdgt9" data-class="barLine" class="barLine"><path d="M13104 703 L13104 1423" stroke-width="27"/></g></g><g data-id="u130ncuc" data-class="measure" class="measure"><g data-id="qy395lo" data-class="staff" class="staff"><path d="M13117 703 L14003 703" stroke-width="13"/><path d="M13117 883 L14003 883" stroke-width="13"/><path d="M13117 1063 L14003 1063" stroke-width="13"/><path d="M13117 1243 L14003 1243" stroke-width="13"/><path d="M13117 1423 L14003 1423" stroke-width="13"/><g data-id="r7fq16q" data-class="layer" class="layer"><g data-id="zppkxkq" data-class="note" class="note"><g data-class="notehead" class="notehead"><use href="#E0A4-s1yyn091" transform="translate(13306, 883) scale(0.72, 0.72)"/></g><g data-id="zlw49au" data-class="stem" class="stem"><path d="M13315 911 L13315 1513" stroke-width="18"/></g><g data-id="tm3s5xp" data-class="accid" class="accid"/></g></g></g><g data-id="c1hy6acr" data-class="barLine" class="barLine"/></g><g data-id="z1oz8x6v" data-class="systemMilestoneEnd" class="systemMilestoneEnd y17j7ioy"/></g><g data-id="a1dixvm2" data-class="pageMilestoneEnd" class="pageMilestoneEnd w11q7k2h"/><g data-id="bidvkxp" data-class="pageMilestoneEnd" class="pageMilestoneEnd v1nue4up"/></g></svg></svg>