<svg viewBox="0 0 560 84" version="1.1" xmlns="http://www.w3.org/2000/svg" xmlns:xlink="http://www.w3.org/1999/xlink" overflow="visible" id="osuq313"><desc>Engraved by Verovio 5.6.0-85e7620</desc><defs><g id="E050-osuq313"><path transform="scale(1,-1)" d="M441 -245c-23 -4 -48 -6 -76 -6c-59 0 -102 7 -130 20c-88 42 -150 93 -187 154c-26 44 -43 103 -48 176c0 6 -1 13 -1 19c0 54 15 111 45 170c29 57 65 106 110 148s96 85 153 127c-3 16 -8 46 -13 92c-4 43 -5 73 -5 89c0 117 16 172 69 257c34 54 64 82 89 82 c21 0 43 -30 69 -92s39 -115 41 -159v-15c0 -109 -21 -162 -67 -241c-13 -20 -63 -90 -98 -118c-13 -9 -25 -19 -37 -29l31 -181c8 1 18 2 28 2c58 0 102 -12 133 -35c59 -43 92 -104 98 -184c1 -7 1 -15 1 -22c0 -123 -87 -209 -181 -248c8 -57 17 -110 25 -162 c5 -31 6 -58 6 -80c0 -30 -5 -53 -14 -70c-35 -64 -88 -99 -158 -103c-5 0 -11 -1 -16 -1c-37 0 -72 10 -108 27c-50 24 -77 59 -80 105v11c0 29 7 55 20 76c18 28 45 42 79 44h6c49 0 93 -42 97 -87v-9c0 -51 -34 -86 -105 -106c17 -24 51 -36 102 -36c62 0 116 43 140 85 c9 16 13 41 13 74c0 20 -1 42 -5 67c-8 53 -18 106 -26 159zM461 939c-95 0 -135 -175 -135 -286c0 -24 2 -48 5 -71c50 39 92 82 127 128c40 53 60 100 60 140v8c-4 53 -22 81 -55 81h-2zM406 119l54 -326c73 25 110 78 110 161c0 7 0 15 -1 23c-7 95 -57 142 -151 142h-12 zM382 117c-72 -2 -128 -47 -128 -120v-7c2 -46 43 -99 75 -115c-3 -2 -7 -5 -10 -10c-70 33 -116 88 -123 172v11c0 68 44 126 88 159c23 17 49 29 78 36l-29 170c-21 -13 -52 -37 -92 -73c-50 -44 -86 -84 -109 -119c-45 -69 -67 -130 -67 -182v-13c5 -68 35 -127 93 -176 s125 -73 203 -73c25 0 50 3 75 9c-19 111 -36 221 -54 331z"/></g><g id="E260-osuq313"><path transform="scale(1,-1)" d="M20 110c32 16 54 27 93 27c26 0 35 -3 54 -13c13 -7 24 -20 27 -38l4 -25c0 -28 -16 -57 -45 -89c-23 -25 -39 -44 -65 -68l-88 -79v644h20v-359zM90 106c-32 0 -48 -10 -70 -29v-194c31 31 54 59 71 84c21 32 32 59 32 84c0 9 1 16 1 20c0 14 -3 21 -11 30l-8 3z"/></g><g id="E086-osuq313"><path transform="scale(1,-1)" d="M284 -91c0 37 -28 92 -67 92c-35 0 -65 -54 -65 -111c0 -52 22 -104 68 -104c47 0 64 68 64 123zM230 214c-36 0 -90 -33 -90 -184l2 -36c40 24 81 36 120 36c80 0 140 -48 140 -121c0 -99 -99 -159 -182 -159c-160 0 -200 173 -200 244c0 21 2 43 7 71l10 35 c26 85 73 115 98 126c41 19 74 24 103 24c93 0 142 -63 142 -105c0 -58 -52 -72 -73 -72c-33 0 -59 24 -65 35c-3 5 -6 14 -7 25l11 30c6 15 9 27 9 35c0 11 -9 16 -25 16z"/></g><g id="E088-osuq313"><path transform="scale(1,-1)" d="M195 -214c76 0 88 58 90 68c0 34 -35 60 -57 73l-52 29c-21 10 -32 17 -34 20c-39 -33 -58 -54 -62 -92c5 -23 23 -98 115 -98zM301 135c0 61 -72 76 -113 76c-40 0 -77 -17 -77 -51c3 -21 15 -38 26 -50c17 -15 33 -26 48 -34l65 -28c34 27 51 56 51 87zM176 -250 c-57 0 -166 26 -166 132c0 47 30 86 89 116c-33 15 -79 60 -79 119c0 79 85 132 178 132h18c5 0 21 1 28 -1c25 0 126 -30 126 -110c0 -37 -23 -76 -69 -116c43 -25 83 -71 83 -119c0 -101 -118 -153 -208 -153z"/></g><g id="E0A4-osuq313"><path transform="scale(1,-1)" d="M0 -39c0 68 73 172 200 172c66 0 114 -37 114 -95c0 -84 -106 -171 -218 -171c-64 0 -96 30 -96 94z"/></g><g id="E240-osuq313"><path transform="scale(1,-1)" d="M179 -646c15 29 29 55 46 102c18 49 30 108 30 138c0 105 -80 173 -168 200c-18 5 -47 9 -87 16v190h22c8 0 33 -61 71 -95c4 -3 -2 3 61 -56c62 -58 122 -137 122 -241c0 -38 -13 -106 -35 -163c-20 -51 -43 -99 -66 -132c-6 -5 -10 -7 -13 -7s-5 2 -5 5l4 10 c1 3 14 25 18 33z"/></g><g id="E261-osuq313"><path transform="scale(1,-1)" d="M0 -188v539h18v-191l139 22v-533h-17v186zM18 -100l122 17v176l-122 -19v-174z"/></g></defs><style type="text/css">#osuq313 g.page-margin {font-family:Times,serif;}#osuq313 g.ending, #osuq313 g.fing, #osuq313 g.reh, #osuq313 g.tempo {font-weight:bold;}#osuq313 g.dir, #osuq313 g.dynam, #osuq313 g.mNum {font-style:italic;}#osuq313 g.label {font-weight:normal;}#osuq313 path {stroke:currentColor}</style><svg class="definition-scale" color="black" viewBox="0 0 14000 2100"><g class="page-margin" transform="translate(0, 150)"><g data-id="dc8a3sk" data-class="mdiv" class="mdiv pageMilestone"/><g data-id="e4gz8wl" data-class="score" class="score pageMilestone"/><g data-id="otv7n0f" data-class="system" class="system"><g data-id="gzyegmm" data-class="section" class="section systemMilestone"/><g data-id="ppvhrf4" data-class="measure" class="measure"><g data-id="s17ujsqx" data-class="staff" class="staff"><path d="M0 540 L2687 540" stroke-width="13"/><path d="M0 720 L2687 720" stroke-width="13"/><path d="M0 900 L2687 900" stroke-width="13"/><path d="M0 1080 L2687 1080" stroke-width="13"/><path d="M0 1260 L2687 1260" stroke-width="13"/><g data-id="w1favwp5" data-class="clef" class="clef"><use href="#E050-osuq313" transform="translate(90, 1080) scale(0.72, 0.72)"/></g><g data-id="xxstz0k" data-class="keySig" class="keySig"><g data-id="ym8n6za" data-class="keyAccid" class="keyAccid"><use href="#E260-osuq313" transform="translate(735, 900) scale(0.72, 0.72)"/></g><g data-id="zg25eqs" data-class="keyAccid" class="keyAccid"><use href="#E260-osuq313" transform="translate(915, 630) scale(0.72, 0.72)"/></g><g data-id="azhdnfw" data-class="keyAccid" class="keyAccid"><use href="#E260-osuq313" transform="translate(1095, 990) scale(0.72, 0.72)"/></g><g data-id="b1m4o2ck" data-class="keyAccid" class="keyAccid"><use href="#E260-osuq313" transform="translate(1275, 720) scale(0.72, 0.72)"/></g></g><g data-id="c1g45azl" data-class="meterSig" class="meterSig"><use href="#E086-osuq313" transform="translate(1583, 720) scale(0.72, 0.72)"/><use href="#E088-osuq313" transform="translate(1590, 1080) scale(0.72, 0.72)"/></g><g data-class="ledgerLines" class="ledgerLines below"><g data-class="lineDash" class="lineDash" data-related="#ic3gzi0"><path d="M2100 1440 L2422 1440" stroke-width="22"/></g></g><g data-id="tsdwicv" data-class="layer" class="layer"><g data-id="ic3gzi0" data-class="note" class="note"><g data-class="notehead" class="notehead"><use href="#E0A4-osuq313" transform="translate(2148, 1440) scale(0.72, 0.72)"/></g><g data-id="q1vgofhm" data-class="stem" class="stem"><path d="M2365 1412 L2365 810" stroke-width="18"/><g data-id="rpjyrz5" data-class="flag" class="flag"><use href="#E240-osuq313" transform="translate(2356, 810) scale(0.72, 0.72)"/></g></g></g></g></g><g data-id="xihiriy" data-class="barLine" class="barLine"><path d="M2674 540 L2674 1260" stroke-width="27"/></g></g><g data-id="y1260cv7" data-class="measure" class="measure"><g data-id="u167nwsl" data-class="staff" class="staff"><path d="M2687 540 L5590 540" stroke-width="13"/><path d="M2687 720 L5590 720" stroke-width="13"/><path d="M2687 900 L5590 900" stroke-width="13"/><path d="M2687 1080 L5590 1080" stroke-width="13"/><path d="M2687 1260 L5590 1260" stroke-width="13"/><g data-id="voiv0n6" data-class="layer" class="layer"><g data-id="a18dmo99" data-class="beam" class="beam"><polygon stroke-opacity="1" fill-opacity="1" points="2873,1440 3793,1440 3793,1350 2873,1350"/><g data-id="jokgxm6" data-class="note" class="note"><g data-class="notehead" class="notehead"><use href="#E0A4-osuq313" transform="translate(2873, 810) scale(0.72, 0.72)"/></g><g data-id="spv8hr1" data-class="stem" class="stem"><path d="M2882 838 L2882 1422" stroke-width="18"/></g></g><g data-id="k104h8pw" data-class="note" class="note"><g data-class="notehead" class="notehead"><use href="#E0A4-osuq313" transform="translate(3324, 810) scale(0.72, 0.72)"/></g><g data-id="t1xvkbvj" data-class="stem" class="stem"><path d="M3333 838 L3333 1422" stroke-width="18"/></g></g><g data-id="ll7y5lp" data-class="note" class="note"><g data-class="notehead" class="notehead"><use href="#E0A4-osuq313" transform="translate(3775, 810) scale(0.72, 0.72)"/></g><g data-id="uez757o" data-class="stem" class="stem"><path d="M3784 838 L3784 1422" stroke-width="18"/></g></g></g><g data-id="bfdxzyl" data-class="beam" class="beam"><polygon stroke-opacity="1" fill-opacity="1" points="4225,1440 5145,1440 5145,1350 4225,1350"/><g data-id="mmn7ssk" data-class="note" class="note"><g data-class="notehead" class="notehead"><use href="#E0A4-osuq313" transform="translate(4225, 810) scale(0.72, 0.72)"/></g><g data-id="vtngue0" data-class="stem" class="stem"><path d="M4234 838 L4234 1422" stroke-width="18"/></g></g><g data-id="n14uvn15" data-class="note" class="note"><g data-class="notehead" class="notehead"><use href="#E0A4-osuq313" transform="translate(4676, 810) scale(0.72, 0.72)"/></g><g data-id="wizyt1l" data-class="stem" class="stem"><path d="M4685 838 L4685 1422" stroke-width="18"/></g></g><g data-id="ojnglvh" data-class="note" class="note"><g data-class="notehead" class="notehead"><use href="#E0A4-osuq313" transform="translate(5127, 810) scale(0.72, 0.72)"/></g><g data-id="x10efbwy" data-class="stem" class="stem"><path d="M5136 838 L5136 1422" stroke-width="18"/></g></g></g></g></g><g data-id="g18aenou" data-class="barLine" class="barLine"><path d="M5577 540 L5577 1260" stroke-width="27"/></g></g><g data-id="hk7f1jb" data-class="measure" class="measure"><g data-id="w1xw5imc" data-class="staff" class="staff"><path d="M5590 540 L9877 540" stroke-width="13"/><path d="M5590 720 L9877 720" stroke-width="13"/><path d="M5590 900 L9877 900" stroke-width="13"/><path d="M5590 1080 L9877 1080" stroke-width="13"/><path d="M5590 1260 L9877 1260" stroke-width="13"/><g data-id="x1v3ve0" data-class="layer" class="layer"><g data-id="c1gmyu4" data-class="beam" class="beam"><polygon stroke-opacity="1" fill-opacity="1" points="5984,90 7632,450 7632,540 5984,180"/><polygon stroke-opacity="1" fill-opacity="1" points="5984,225 6319,297 6319,387 5984,315"/><polygon stroke-opacity="1" fill-opacity="1" points="6319,297 6645,369 6645,459 6319,387"/><polygon stroke-opacity="1" fill-opacity="1" points="6645,369 6971,441 6971,531 6645,459"/><polygon stroke-opacity="1" fill-opacity="1" points="6971,441 7297,513 7297,603 6971,531"/><polygon stroke-opacity="1" fill-opacity="1" points="7297,513 7632,585 7632,675 7297,603"/><g data-id="p1plqo6m" data-class="note" class="note"><g data-class="notehead" class="notehead"><use href="#E0A4-osuq313" transform="translate(5776, 720) scale(0.72, 0.72)"/></g><g data-id="yr98yy1" data-class="stem" class="stem"><path d="M5993 692 L5993 108" stroke-width="18"/></g><g data-id="i1b8104m" data-class="accid" class="accid"/></g><g data-id="q1a2l42k" data-class="note" class="note"><g data-class="notehead" class="notehead"><use href="#E0A4-osuq313" transform="translate(6102, 810) scale(0.72, 0.72)"/></g><g data-id="z1qwde7g" data-class="stem" class="stem"><path d="M6319 782 L6319 180" stroke-width="18"/></g></g><g data-id="r198rms0" data-class="note" class="note"><g data-class="notehead" class="notehead"><use href="#E0A4-osuq313" transform="translate(6428, 900) scale(0.72, 0.72)"/></g><g data-id="apq0wqn" data-class="stem" class="stem"><path d="M6645 872 L6645 252" stroke-width="18"/></g><g data-id="j1gzzw25" data-class="accid" class="accid"/></g><g data-id="s1nud2bh" data-class="note" class="note"><g data-class="notehead" class="notehead"><use href="#E0A4-osuq313" transform="translate(6754, 990) scale(0.72, 0.72)"/></g><g data-id="b1ft123u" data-class="stem" class="stem"><path d="M6971 962 L6971 324" stroke-width="18"/></g><g data-id="kj9a7tc" data-class="accid" class="accid"/></g><g data-id="t10rpsa2" data-class="note" class="note"><g data-class="notehead" class="notehead"><use href="#E0A4-osuq313" transform="translate(7080, 1080) scale(0.72, 0.72)"/></g><g data-id="cs755qn" data-class="stem" class="stem"><path d="M7297 1052 L7297 396" stroke-width="18"/></g></g><g data-id="u87nc49" data-class="note" class="note"><g data-class="notehead" class="notehead"><use href="#E0A4-osuq313" transform="translate(7406, 1170) scale(0.72, 0.72)"/></g><g data-id="ddkhfd0" data-class="stem" class="stem"><path d="M7623 1142 L7623 468" stroke-width="18"/></g></g></g><g data-id="dhq89y4" data-class="beam" class="beam"><polygon stroke-opacity="1" fill-opacity="1" points="8102,135 9750,135 9750,225 8102,225"/><polygon stroke-opacity="1" fill-opacity="1" points="8102,270 8437,270 8437,360 8102,360"/><polygon stroke-opacity="1" fill-opacity="1" points="8437,270 8763,270 8763,360 8437,360"/><polygon stroke-opacity="1" fill-opacity="1" points="8763,270 9089,270 9089,360 8763,360"/><polygon stroke-opacity="1" fill-opacity="1" points="9089,270 9415,270 9415,360 9089,360"/><polygon stroke-opacity="1" fill-opacity="1" points="9415,270 9750,270 9750,360 9415,360"/><g data-id="vqlkamg" data-class="note" class="note"><g data-class="notehead" class="notehead"><use href="#E0A4-osuq313" transform="translate(7894, 1260) scale(0.72, 0.72)"/></g><g data-id="e5qinwj" data-class="stem" class="stem"><path d="M8111 1232 L8111 153" stroke-width="18"/></g><g data-id="z9eup9j" data-class="accid" class="accid"><use href="#E261-osuq313" transform="translate(7736, 1260) scale(0.72, 0.72)"/></g></g><g data-id="w8q9ijv" data-class="note" class="note"><g data-class="notehead" class="notehead"><use href="#E0A4-osuq313" transform="translate(8220, 1080) scale(0.72, 0.72)"/></g><g data-id="fhbe1hb" data-class="stem" class="stem"><path d="M8437 1052 L8437 153" stroke-width="18"/></g></g><g data-id="x3f5ps1" data-class="note" class="note"><g data-class="notehead" class="notehead"><use href="#E0A4-osuq313" transform="translate(8546, 900) scale(0.72, 0.72)"/></g><g data-id="g1iflx6t" data-class="stem" class="stem"><path d="M8763 872 L8763 153" stroke-width="18"/></g><g data-id="l1efcclz" data-class="accid" class="accid"/></g><g data-id="y16mpi5l" data-class="note" class="note"><g data-class="notehead" class="notehead"><use href="#E0A4-osuq313" transform="translate(8872, 720) scale(0.72, 0.72)"/></g><g data-id="h1yvali0" data-class="stem" class="stem"><path d="M9089 692 L9089 153" stroke-width="18"/></g><g data-id="m1t9sorq" data-class="accid" class="accid"/></g><g data-id="z1w1jwq7" data-class="note" class="note"><g data-class="notehead" class="notehead"><use href="#E0A4-osuq313" transform="translate(9198, 810) scale(0.72, 0.72)"/></g><g data-id="i1gx00eb" data-class="stem" class="stem"><path d="M9415 782 L9415 153" stroke-width="18"/></g></g><g data-id="a1c3iur6" data-class="note" class="note"><g data-class="notehead" class="notehead"><use href="#E0A4-osuq313" transform="translate(9524, 900) scale(0.72, 0.72)"/></g><g data-id="j1v4hnx6" data-class="stem" class="stem"><path d="M9741 872 L9741 153" stroke-width="18"/></g><g data-id="n195xh3n" data-class="accid" class="accid"/></g></g></g></g><g data-id="p4vbscb" data-class="barLine" class="barLine"><path d="M9864 540 L9864 1260" stroke-width="27"/></g></g><g data-id="q5mja06" data-class="measure" class="measure"><g data-id="yt14w6q" data-class="staff" class="staff"><path d="M9877 540 L14001 540" stroke-width="13"/><path d="M9877 720 L14001 720" stroke-width="13"/><path d="M9877 900 L14001 900" stroke-width="13"/><path d="M9877 1080 L14001 1080" stroke-width="13"/><path d="M9877 1260 L14001 1260" stroke-width="13"/><g data-id="zrtx62l" data-class="layer" class="layer"><g data-id="eyghach" data-class="beam" class="beam"><polygon stroke-opacity="1" fill-opacity="1" points="10271,360 11919,360 11919,450 10271,450"/><polygon stroke-opacity="1" fill-opacity="1" points="10271,495 10606,495 10606,585 10271,585"/><polygon stroke-opacity="1" fill-opacity="1" points="10606,495 10932,495 10932,585 10606,585"/><polygon stroke-opacity="1" fill-opacity="1" points="10932,495 11258,495 11258,585 10932,585"/><polygon stroke-opacity="1" fill-opacity="1" points="11258,495 11584,495 11584,585 11258,585"/><polygon stroke-opacity="1" fill-opacity="1" points="11584,495 11919,495 11919,585 11584,585"/><g data-id="be5whig" data-class="note" class="note"><g data-class="notehead" class="notehead"><use href="#E0A4-osuq313" transform="translate(10063, 990) scale(0.72, 0.72)"/></g><g data-id="kc342ee" data-class="stem" class="stem"><path d="M10280 962 L10280 378" stroke-width="18"/></g><g data-id="ofdg24a" data-class="accid" class="accid"/></g><g data-id="c1xnzhbj" data-class="note" class="note"><g data-class="notehead" class="notehead"><use href="#E0A4-osuq313" transform="translate(10389, 1080) scale(0.72, 0.72)"/></g><g data-id="ly9tfb0" data-class="stem" class="stem"><path d="M10606 1052 L10606 378" stroke-width="18"/></g></g><g data-id="d1kis95r" data-class="note" class="note"><g data-class="notehead" class="notehead"><use href="#E0A4-osuq313" transform="translate(10715, 1170) scale(0.72, 0.72)"/></g><g data-id="m1fjzeds" data-class="stem" class="stem"><path d="M10932 1142 L10932 378" stroke-width="18"/></g></g><g data-id="e13dpipu" data-class="note" class="note"><g data-class="notehead" class="notehead"><use href="#E0A4-osuq313" transform="translate(11041, 990) scale(0.72, 0.72)"/></g><g data-id="n1x5tazf" data-class="stem" class="stem"><path d="M11258 962 L11258 378" stroke-width="18"/></g><g data-id="pzql09g" data-class="accid" class="accid"/></g><g data-id="fpxbxme" data-class="note" class="note"><g data-class="notehead" class="notehead"><use href="#E0A4-osuq313" transform="translate(11367, 1080) scale(0.72, 0.72)"/></g><g data-id="o9ukmd9" data-class="stem" class="stem"><path d="M11584 1052 L11584 378" stroke-width="18"/></g></g><g data-id="gn9xvru" data-class="note" class="note"><g data-class="notehead" class="notehead"><use href="#E0A4-osuq313" transform="translate(11693, 1170) scale(0.72, 0.72)"/></g><g data-id="p1dj0wen" data-class="stem" class="stem"><path d="M11910 1142 L11910 378" stroke-width="18"/></g></g></g><g data-id="f1a49enq" data-class="beam" class="beam"><polygon stroke-opacity="1" fill-opacity="1" points="12227,315 13874,315 13874,405 12227,405"/><polygon stroke-opacity="1" fill-opacity="1" points="12227,450 12561,450 12561,540 12227,540"/><polygon stroke-opacity="1" fill-opacity="1" points="12561,450 12887,450 12887,540 12561,540"/><polygon stroke-opacity="1" fill-opacity="1" points="12887,450 13213,450 13213,540 12887,540"/><polygon stroke-opacity="1" fill-opacity="1" points="13213,450 13539,450 13539,540 13213,540"/><polygon stroke-opacity="1" fill-opacity="1" points="13539,450 13874,450 13874,540 13539,540"/><g data-id="hzt1045" data-class="note" class="note"><g data-class="notehead" class="notehead"><use href="#E0A4-osuq313" transform="translate(12019, 900) scale(0.72, 0.72)"/></g><g data-id="q1hhkh5p" data-class="stem" class="stem"><path d="M12236 872 L12236 333" stroke-width="18"/></g><g data-id="q1rdccnm" data-class="accid" class="accid"/></g><g data-id="i126bal4" data-class="note" class="note"><g data-class="notehead" class="notehead"><use href="#E0A4-osuq313" transform="translate(12344, 990) scale(0.72, 0.72)"/></g><g data-id="r1vvtfnb" data-class="stem" class="stem"><path d="M12561 962 L12561 333" stroke-width="18"/></g><g data-id="rtj4lpx" data-class="accid" class="accid"/></g><g data-id="j1fxwyem" data-class="note" class="note"><g data-class="notehead" class="notehead"><use href="#E0A4-osuq313" transform="translate(12670, 1080) scale(0.72, 0.72)"/></g><g data-id="s1jpsf6m" data-class="stem" class="stem"><path d="M12887 1052 L12887 333" stroke-width="18"/></g></g><g data-id="k107mkg8" data-class="note" class="note"><g data-class="notehead" class="notehead"><use href="#E0A4-osuq313" transform="translate(12996, 900) scale(0.72, 0.72)"/></g><g data-id="t19ee5it" data-class="stem" class="stem"><path d="M13213 872 L13213 333" stroke-width="18"/></g><g data-id="s3esbe5" data-class="accid" class="accid"/></g><g data-id="lk8vucv" data-class="note" class="note"><g data-class="notehead" class="notehead"><use href="#E0A4-osuq313" transform="translate(13322, 990) scale(0.72, 0.72)"/></g><g data-id="u28shyz" data-class="stem" class="stem"><path d="M13539 962 L13539 333" stroke-width="18"/></g><g data-id="t9on9c8" data-class="accid" class="accid"/></g><g data-id="m1w4um6c" data-class="note" class="note"><g data-class="notehead" class="notehead"><use href="#E0A4-osuq313" transform="translate(13648, 1080) scale(0.72, 0.72)"/></g><g data-id="v1wafgc" data-class="stem" class="stem"><path d="M13865 1052 L13865 333" stroke-width="18"/></g></g></g></g></g><g data-id="y1so1qmi" data-class="barLine" class="barLine"><path d="M13988 540 L13988 1260" stroke-width="27"/></g></g></g></g></svg></svg>