<svg viewBox="0 0 560 84" version="1.1" xmlns="http://www.w3.org/2000/svg" xmlns:xlink="http://www.w3.org/1999/xlink" overflow="visible" id="y2mq8b9"><desc>Engraved by Verovio 5.6.0-85e7620</desc><defs><g id="E050-y2mq8b9"><path transform="scale(1,-1)" d="M441 -245c-23 -4 -48 -6 -76 -6c-59 0 -102 7 -130 20c-88 42 -150 93 -187 154c-26 44 -43 103 -48 176c0 6 -1 13 -1 19c0 54 15 111 45 170c29 57 65 106 110 148s96 85 153 127c-3 16 -8 46 -13 92c-4 43 -5 73 -5 89c0 117 16 172 69 257c34 54 64 82 89 82 c21 0 43 -30 69 -92s39 -115 41 -159v-15c0 -109 -21 -162 -67 -241c-13 -20 -63 -90 -98 -118c-13 -9 -25 -19 -37 -29l31 -181c8 1 18 2 28 2c58 0 102 -12 133 -35c59 -43 92 -104 98 -184c1 -7 1 -15 1 -22c0 -123 -87 -209 -181 -248c8 -57 17 -110 25 -162 c5 -31 6 -58 6 -80c0 -30 -5 -53 -14 -70c-35 -64 -88 -99 -158 -103c-5 0 -11 -1 -16 -1c-37 0 -72 10 -108 27c-50 24 -77 59 -80 105v11c0 29 7 55 20 76c18 28 45 42 79 44h6c49 0 93 -42 97 -87v-9c0 -51 -34 -86 -105 -106c17 -24 51 -36 102 -36c62 0 116 43 140 85 c9 16 13 41 13 74c0 20 -1 42 -5 67c-8 53 -18 106 -26 159zM461 939c-95 0 -135 -175 -135 -286c0 -24 2 -48 5 -71c50 39 92 82 127 128c40 53 60 100 60 140v8c-4 53 -22 81 -55 81h-2zM406 119l54 -326c73 25 110 78 110 161c0 7 0 15 -1 23c-7 95 -57 142 -151 142h-12 zM382 117c-72 -2 -128 -47 -128 -120v-7c2 -46 43 -99 75 -115c-3 -2 -7 -5 -10 -10c-70 33 -116 88 -123 172v11c0 68 44 126 88 159c23 17 49 29 78 36l-29 170c-21 -13 -52 -37 -92 -73c-50 -44 -86 -84 -109 -119c-45 -69 -67 -130 -67 -182v-13c5 -68 35 -127 93 -176 s125 -73 203 -73c25 0 50 3 75 9c-19 111 -36 221 -54 331z"/></g><g id="E262-y2mq8b9"><path transform="scale(1,-1)" d="M136 186v169h17v-164l44 14v-91l-44 -14v-165l44 12v-91l-44 -13v-155h-17v150l-76 -22v-155h-17v149l-43 -13v90l43 14v167l-43 -14v92l43 13v169h17v-163zM60 73v-167l76 22v168z"/></g><g id="E08A-y2mq8b9"><path transform="scale(1,-1)" d="M340 179c-9 24 -56 41 -89 41c-46 0 -81 -28 -100 -58c-17 -28 -25 -78 -25 -150c0 -65 2 -111 8 -135c8 -31 18 -49 40 -67c20 -17 43 -25 70 -25c54 0 92 36 115 75c14 25 23 54 28 88h27c0 -63 -24 -105 -58 -141c-35 -38 -82 -56 -140 -56c-45 0 -83 13 -115 39 c-57 45 -101 130 -101 226c0 59 33 127 68 163c36 37 97 72 160 72c36 0 93 -21 121 -40c11 -8 23 -17 33 -30c19 -23 27 -48 27 -76c0 -51 -35 -88 -86 -88c-43 0 -76 27 -76 68c0 26 7 35 21 51c15 17 32 27 58 32c7 2 14 7 14 11z"/></g><g id="E0A4-y2mq8b9"><path transform="scale(1,-1)" d="M0 -39c0 68 73 172 200 172c66 0 114 -37 114 -95c0 -84 -106 -171 -218 -171c-64 0 -96 30 -96 94z"/></g><g id="E0A3-y2mq8b9"><path transform="scale(1,-1)" d="M278 64c0 22 -17 39 -43 39c-12 0 -26 -3 -41 -10c-85 -43 -165 -94 -165 -156c5 -25 15 -32 49 -32c67 11 200 95 200 159zM0 -36c0 68 73 174 200 174c66 0 114 -39 114 -97c0 -84 -106 -173 -218 -173c-64 0 -96 32 -96 96z"/></g><g id="E4C0-y2mq8b9"><path transform="scale(1,-1)" d="M0 0c0 0 40 320 300 320s300 -320 300 -320h-32s-38 227 -268 227s-268 -227 -268 -227h-32zM355 52c0 -30 -25 -55 -55 -55s-55 25 -55 55s25 55 55 55s55 -25 55 -55z"/></g></defs><style type="text/css">#y2mq8b9 g.page-margin {font-family:Times,serif;}#y2mq8b9 g.ending, #y2mq8b9 g.fing, #y2mq8b9 g.reh, #y2mq8b9 g.tempo {font-weight:bold;}#y2mq8b9 g.dir, #y2mq8b9 g.dynam, #y2mq8b9 g.mNum {font-style:italic;}#y2mq8b9 g.label {font-weight:normal;}#y2mq8b9 path {stroke:currentColor}</style><svg class="definition-scale" color="black" viewBox="0 0 14000 2100"><g class="page-margin" transform="translate(0, 150)"><g data-id="dto3q68" data-class="mdiv" class="mdiv pageMilestone"/><g data-id="ehjqzfb" data-class="score" class="score pageMilestone"/><g data-id="zn3yvgr" data-class="system" class="system"><g data-id="g3v4ti0" data-class="section" class="section systemMilestone"/><g data-id="z7pqbtq" data-class="measure" class="measure"><g data-id="s1pmm3fy" data-class="staff" class="staff"><path d="M0 540 L3017 540" stroke-width="13"/><path d="M0 720 L3017 720" stroke-width="13"/><path d="M0 900 L3017 900" stroke-width="13"/><path d="M0 1080 L3017 1080" stroke-width="13"/><path d="M0 1260 L3017 1260" stroke-width="13"/><g data-id="g1i7yw0f" data-class="clef" class="clef"><use href="#E050-y2mq8b9" transform="translate(90, 1080) scale(0.72, 0.72)"/></g><g data-id="h18s4120" data-class="keySig" class="keySig"><g data-id="i1dxog43" data-class="keyAccid" class="keyAccid"><use href="#E262-y2mq8b9" transform="translate(735, 540) scale(0.72, 0.72)"/></g></g><g data-id="jj32ois" data-class="meterSig" class="meterSig"><use href="#E08A-y2mq8b9" transform="translate(1056, 900) scale(0.72, 0.72)"/></g><g data-id="trak5q1" data-class="layer" class="layer"><g data-id="slcnzpo" data-class="note" class="note"><g data-class="notehead" class="notehead"><use href="#E0A4-y2mq8b9" transform="translate(1624, 1080) scale(0.72, 0.72)"/></g><g data-id="n1u2lvu1" data-class="stem" class="stem"><path d="M1841 1052 L1841 450" stroke-width="18"/></g></g><g data-id="t18zdhas" data-class="note" class="note"><g data-class="notehead" class="notehead"><use href="#E0A4-y2mq8b9" transform="translate(2314, 990) scale(0.72, 0.72)"/></g><g data-id="o10axf7t" data-class="stem" class="stem"><path d="M2531 962 L2531 360" stroke-width="18"/></g></g></g></g><g data-id="h2wfum0" data-class="barLine" class="barLine"><path d="M3004 540 L3004 1260" stroke-width="27"/></g></g><g data-id="i74a8jm" data-class="measure" class="measure"><g data-id="ur37bx" data-class="staff" class="staff"><path d="M3017 540 L5310 540" stroke-width="13"/><path d="M3017 720 L5310 720" stroke-width="13"/><path d="M3017 900 L5310 900" stroke-width="13"/><path d="M3017 1080 L5310 1080" stroke-width="13"/><path d="M3017 1260 L5310 1260" stroke-width="13"/><g data-id="v575bn7" data-class="layer" class="layer"><g data-id="u4a18pf" data-class="note" class="note"><g data-class="notehead" class="notehead"><use href="#E0A3-y2mq8b9" transform="translate(3197, 900) scale(0.72, 0.72)"/></g><g data-id="p1l0iszn" data-class="stem" class="stem"><path d="M3206 925 L3206 1500" stroke-width="18"/></g></g><g data-id="v7psptm" data-class="note" class="note"><g data-class="notehead" class="notehead"><use href="#E0A3-y2mq8b9" transform="translate(4247, 810) scale(0.72, 0.72)"/></g><g data-id="q57j501" data-class="stem" class="stem"><path d="M4256 835 L4256 1440" stroke-width="18"/></g></g></g></g><g data-id="q1d7iwfv" data-class="barLine" class="barLine"><path d="M5297 540 L5297 1260" stroke-width="27"/></g></g><g data-id="r2s98n0" data-class="measure" class="measure"><g data-id="wni47ri" data-class="staff" class="staff"><path d="M5310 540 L7603 540" stroke-width="13"/><path d="M5310 720 L7603 720" stroke-width="13"/><path d="M5310 900 L7603 900" stroke-width="13"/><path d="M5310 1080 L7603 1080" stroke-width="13"/><path d="M5310 1260 L7603 1260" stroke-width="13"/><g data-id="x1o9dqes" data-class="layer" class="layer"><g data-id="wg8ndx6" data-class="note" class="note"><g data-class="notehead" class="notehead"><use href="#E0A3-y2mq8b9" transform="translate(5490, 720) scale(0.72, 0.72)"/></g><g data-id="r11qe14" data-class="stem" class="stem"><path d="M5499 745 L5499 1350" stroke-width="18"/></g></g><g data-id="x7mqgzc" data-class="note" class="note"><g data-class="notehead" class="notehead"><use href="#E0A3-y2mq8b9" transform="translate(6540, 810) scale(0.72, 0.72)"/></g><g data-id="s1rnnzj" data-class="stem" class="stem"><path d="M6549 835 L6549 1440" stroke-width="18"/></g></g></g></g><g data-id="zxo93zm" data-class="barLine" class="barLine"><path d="M7590 540 L7590 1260" stroke-width="27"/></g></g><g data-id="aepfsp" data-class="measure" class="measure"><g data-id="ygrjn9c" data-class="staff" class="staff"><path d="M7603 540 L9896 540" stroke-width="13"/><path d="M7603 720 L9896 720" stroke-width="13"/><path d="M7603 900 L9896 900" stroke-width="13"/><path d="M7603 1080 L9896 1080" stroke-width="13"/><path d="M7603 1260 L9896 1260" stroke-width="13"/><g data-id="zauj7em" data-class="layer" class="layer"><g data-id="yyp0yx9" data-class="note" class="note"><g data-class="notehead" class="notehead"><use href="#E0A3-y2mq8b9" transform="translate(7783, 900) scale(0.72, 0.72)"/></g><g data-id="t1t2m6x" data-class="stem" class="stem"><path d="M7792 925 L7792 1500" stroke-width="18"/></g></g><g data-id="z1ld01a" data-class="note" class="note"><g data-class="notehead" class="notehead"><use href="#E0A3-y2mq8b9" transform="translate(8833, 990) scale(0.72, 0.72)"/></g><g data-id="ulc9jl5" data-class="stem" class="stem"><path d="M9050 962 L9050 360" stroke-width="18"/></g></g></g></g><g data-id="i7i7gyt" data-class="barLine" class="barLine"><path d="M9883 540 L9883 1260" stroke-width="27"/></g></g><g data-id="j2eiiej" data-class="measure" class="measure"><g data-id="azqxl3z" data-class="staff" class="staff"><path d="M9896 540 L11126 540" stroke-width="13"/><path d="M9896 720 L11126 720" stroke-width="13"/><path d="M9896 900 L11126 900" stroke-width="13"/><path d="M9896 1080 L11126 1080" stroke-width="13"/><path d="M9896 1260 L11126 1260" stroke-width="13"/><g data-id="bda4o6s" data-class="layer" class="layer"><g data-id="a1rvrckr" data-class="note" class="note"><g data-class="notehead" class="notehead"><use href="#E0A3-y2mq8b9" transform="translate(10076, 900) scale(0.72, 0.72)"/></g><g data-id="v12m2218" data-class="stem" class="stem"><path d="M10085 925 L10085 1500" stroke-width="18"/></g></g></g></g><g data-id="bg5gf71" data-class="fermata" class="fermata"><use href="#E4C0-y2mq8b9" transform="translate(9973, 493) scale(0.72, 0.72)"/></g><g data-id="r1u3e0cq" data-class="barLine" class="barLine"/></g><g data-id="jcicjw7" data-class="systemMilestoneEnd" class="systemMilestoneEnd g3v4ti0"/></g><g data-id="k2os6xh" data-class="pageMilestoneEnd" class="pageMilestoneEnd ehjqzfb"/><g data-id="l2sivdd" data-class="pageMilestoneEnd" class="pageMilestoneEnd dto3q68"/></g></svg></svg>