<svg viewBox="0 0 560 84" version="1.1" xmlns="http://www.w3.org/2000/svg" xmlns:xlink="http://www.w3.org/1999/xlink" overflow="visible" id="vweahq5"><desc>Engraved by Verovio 5.6.0-85e7620</desc><defs><g id="E050-vweahq5"><path transform="scale(1,-1)" d="M441 -245c-23 -4 -48 -6 -76 -6c-59 0 -102 7 -130 20c-88 42 -150 93 -187 154c-26 44 -43 103 -48 176c0 6 -1 13 -1 19c0 54 15 111 45 170c29 57 65 106 110 148s96 85 153 127c-3 16 -8 46 -13 92c-4 43 -5 73 -5 89c0 117 16 172 69 257c34 54 64 82 89 82 c21 0 43 -30 69 -92s39 -115 41 -159v-15c0 -109 -21 -162 -67 -241c-13 -20 -63 -90 -98 -118c-13 -9 -25 -19 -37 -29l31 -181c8 1 18 2 28 2c58 0 102 -12 133 -35c59 -43 92 -104 98 -184c1 -7 1 -15 1 -22c0 -123 -87 -209 -181 -248c8 -57 17 -110 25 -162 c5 -31 6 -58 6 -80c0 -30 -5 -53 -14 -70c-35 -64 -88 -99 -158 -103c-5 0 -11 -1 -16 -1c-37 0 -72 10 -108 27c-50 24 -77 59 -80 105v11c0 29 7 55 20 76c18 28 45 42 79 44h6c49 0 93 -42 97 -87v-9c0 -51 -34 -86 -105 -106c17 -24 51 -36 102 -36c62 0 116 43 140 85 c9 16 13 41 13 74c0 20 -1 42 -5 67c-8 53 -18 106 -26 159zM461 939c-95 0 -135 -175 -135 -286c0 -24 2 -48 5 -71c50 39 92 82 127 128c40 53 60 100 60 140v8c-4 53 -22 81 -55 81h-2zM406 119l54 -326c73 25 110 78 110 161c0 7 0 15 -1 23c-7 95 -57 142 -151 142h-12 zM382 117c-72 -2 -128 -47 -128 -120v-7c2 -46 43 -99 75 -115c-3 -2 -7 -5 -10 -10c-70 33 -116 88 -123 172v11c0 68 44 126 88 159c23 17 49 29 78 36l-29 170c-21 -13 -52 -37 -92 -73c-50 -44 -86 -84 -109 -119c-45 -69 -67 -130 -67 -182v-13c5 -68 35 -127 93 -176 s125 -73 203 -73c25 0 50 3 75 9c-19 111 -36 221 -54 331z"/></g><g id="E260-vweahq5"><path transform="scale(1,-1)" d="M20 110c32 16 54 27 93 27c26 0 35 -3 54 -13c13 -7 24 -20 27 -38l4 -25c0 -28 -16 -57 -45 -89c-23 -25 -39 -44 -65 -68l-88 -79v644h20v-359zM90 106c-32 0 -48 -10 -70 -29v-194c31 31 54 59 71 84c21 32 32 59 32 84c0 9 1 16 1 20c0 14 -3 21 -11 30l-8 3z"/></g><g id="E082-vweahq5"><path transform="scale(1,-1)" d="M124 -185c-18 0 -55 -14 -65 -65h-36l-3 30c0 25 6 45 18 63c11 19 22 30 39 43l121 82l37 29c15 11 27 29 38 54c12 24 18 47 18 70c0 40 -19 88 -94 88c-25 0 -32 0 -50 -8c-14 -5 -23 -12 -26 -22c3 -9 7 -15 10 -18l24 -17c12 -7 17 -11 27 -21c5 -7 7 -16 7 -27 c0 -12 0 -57 -79 -74c-30 0 -76 26 -76 94c0 66 81 135 197 135c72 0 181 -32 181 -150c0 -53 -32 -95 -113 -133l-91 -41c-26 -11 -45 -23 -57 -37l49 7c84 0 115 -41 148 -41c20 0 33 20 39 61h35c0 -152 -68 -168 -114 -168c-17 0 -65 0 -79 7h10l-28 17 c-49 37 -69 40 -87 42z"/></g><g id="E084-vweahq5"><path transform="scale(1,-1)" d="M20 -78c84 97 114 180 134 329h170c-13 -32 -82 -132 -99 -151l-84 -97c-33 -36 -59 -63 -80 -81h162v102l127 123v-225h57v-39h-57v-34c0 -43 19 -65 57 -65v-34h-244v36c48 0 60 26 60 70v27h-203v39z"/></g><g id="E0A4-vweahq5"><path transform="scale(1,-1)" d="M0 -39c0 68 73 172 200 172c66 0 114 -37 114 -95c0 -84 -106 -171 -218 -171c-64 0 -96 30 -96 94z"/></g><g id="E240-vweahq5"><path transform="scale(1,-1)" d="M179 -646c15 29 29 55 46 102c18 49 30 108 30 138c0 105 -80 173 -168 200c-18 5 -47 9 -87 16v190h22c8 0 33 -61 71 -95c4 -3 -2 3 61 -56c62 -58 122 -137 122 -241c0 -38 -13 -106 -35 -163c-20 -51 -43 -99 -66 -132c-6 -5 -10 -7 -13 -7s-5 2 -5 5l4 10 c1 3 14 25 18 33z"/></g><g id="E241-vweahq5"><path transform="scale(1,-1)" d="M179 646c-4 8 -17 30 -18 33l-4 10c0 3 2 5 5 5s7 -2 13 -7c23 -33 46 -81 66 -132c22 -57 35 -125 35 -163c0 -104 -60 -183 -122 -241c-63 -59 -57 -53 -61 -56c-38 -34 -63 -95 -71 -95h-22v190c40 7 69 11 87 16c88 27 168 95 168 200c0 30 -12 89 -30 138 c-17 47 -31 73 -46 102z"/></g><g id="E242-vweahq5"><path transform="scale(1,-1)" d="M206 -748c32 48 49 100 49 149c0 89 -55 168 -168 203c-18 5 -47 9 -87 16v190v190h22c8 0 33 -61 71 -95c4 -3 -2 3 61 -56c62 -58 122 -137 122 -241c0 -32 -7 -65 -17 -96c11 -29 17 -60 17 -94c0 -71 -32 -148 -67 -190c-6 -5 -10 -7 -13 -7s-5 2 -5 5l4 10 c1 3 6 8 11 16zM248 -463c4 18 7 38 7 57c0 105 -80 173 -168 200c-11 3 -27 6 -47 9c9 -17 23 -61 53 -88c4 -3 -2 3 61 -56c36 -33 71 -74 94 -122z"/></g></defs><style type="text/css">#vweahq5 g.page-margin {font-family:Times,serif;}#vweahq5 g.ending, #vweahq5 g.fing, #vweahq5 g.reh, #vweahq5 g.tempo {font-weight:bold;}#vweahq5 g.dir, #vweahq5 g.dynam, #vweahq5 g.mNum {font-style:italic;}#vweahq5 g.label {font-weight:normal;}#vweahq5 path {stroke:currentColor}</style><svg class="definition-scale" color="black" viewBox="0 0 14000 2100"><g class="page-margin" transform="translate(0, 150)"><g data-id="k1aqcbqk" data-class="mdiv" class="mdiv pageMilestone"/><g data-id="l1fdtumq" data-class="score" class="score pageMilestone"/><g data-id="eanxl7b" data-class="system" class="system"><g data-id="n1trpd69" data-class="section" class="section systemMilestone"/><g data-id="w11jwsoo" data-class="measure" class="measure"><g data-id="zk2hye8" data-class="staff" class="staff"><path d="M0 540 L2711 540" stroke-width="13"/><path d="M0 720 L2711 720" stroke-width="13"/><path d="M0 900 L2711 900" stroke-width="13"/><path d="M0 1080 L2711 1080" stroke-width="13"/><path d="M0 1260 L2711 1260" stroke-width="13"/><g data-id="m1s2t61" data-class="clef" class="clef"><use href="#E050-vweahq5" transform="translate(90, 1080) scale(0.72, 0.72)"/></g><g data-id="n3vie3m" data-class="keySig" class="keySig"><g data-id="o1o2r6fr" data-class="keyAccid" class="keyAccid"><use href="#E260-vweahq5" transform="translate(735, 900) scale(0.72, 0.72)"/></g><g data-id="prbafgh" data-class="keyAccid" class="keyAccid"><use href="#E260-vweahq5" transform="translate(915, 630) scale(0.72, 0.72)"/></g><g data-id="q1s4ou0n" data-class="keyAccid" class="keyAccid"><use href="#E260-vweahq5" transform="translate(1095, 990) scale(0.72, 0.72)"/></g><g data-id="r1d183p2" data-class="keyAccid" class="keyAccid"><use href="#E260-vweahq5" transform="translate(1275, 720) scale(0.72, 0.72)"/></g></g><g data-id="s14ttqy2" data-class="meterSig" class="meterSig"><use href="#E082-vweahq5" transform="translate(1583, 720) scale(0.72, 0.72)"/><use href="#E084-vweahq5" transform="translate(1588, 1080) scale(0.72, 0.72)"/></g><g data-id="a4jay62" data-class="layer" class="layer"><g data-id="qbla2rn" data-class="note" class="note"><g data-class="notehead" class="notehead"><use href="#E0A4-vweahq5" transform="translate(2165, 1260) scale(0.72, 0.72)"/></g><g data-id="dmf08ou" data-class="stem" class="stem"><path d="M2382 1232 L2382 630" stroke-width="18"/><g data-id="evchr10" data-class="flag" class="flag"><use href="#E240-vweahq5" transform="translate(2373, 630) scale(0.72, 0.72)"/></g></g><g data-id="uok2y3w" data-class="accid" class="accid"/></g></g></g><g data-id="e10jshmv" data-class="barLine" class="barLine"><path d="M2698 540 L2698 1260" stroke-width="27"/></g></g><g data-id="fsy9ckx" data-class="measure" class="measure"><g data-id="b1hhklsj" data-class="staff" class="staff"><path d="M2711 540 L4881 540" stroke-width="13"/><path d="M2711 720 L4881 720" stroke-width="13"/><path d="M2711 900 L4881 900" stroke-width="13"/><path d="M2711 1080 L4881 1080" stroke-width="13"/><path d="M2711 1260 L4881 1260" stroke-width="13"/><g data-id="c60uafs" data-class="layer" class="layer"><g data-id="r1ueunus" data-class="note" class="note"><g data-class="notehead" class="notehead"><use href="#E0A4-vweahq5" transform="translate(2900, 1170) scale(0.72, 0.72)"/></g><g data-id="f16tkujo" data-class="stem" class="stem"><path d="M3117 1142 L3117 540" stroke-width="18"/><g data-id="gf4ozi9" data-class="flag" class="flag"><use href="#E240-vweahq5" transform="translate(3108, 540) scale(0.72, 0.72)"/></g></g></g><g data-id="s1jnnnjj" data-class="note" class="note"><g data-class="notehead" class="notehead"><use href="#E0A4-vweahq5" transform="translate(3365, 1260) scale(0.72, 0.72)"/></g><g data-id="hnhkex4" data-class="stem" class="stem"><path d="M3582 1232 L3582 630" stroke-width="18"/><g data-id="i1w3yomw" data-class="flag" class="flag"><use href="#E240-vweahq5" transform="translate(3573, 630) scale(0.72, 0.72)"/></g></g><g data-id="v1ub7kp8" data-class="accid" class="accid"/></g><g data-id="t18dfgkn" data-class="note" class="note"><g data-class="notehead" class="notehead"><use href="#E0A4-vweahq5" transform="translate(3884, 990) scale(0.72, 0.72)"/></g><g data-id="j1yvy7g1" data-class="stem" class="stem"><path d="M4101 962 L4101 360" stroke-width="18"/><g data-id="k1gsc8jm" data-class="flag" class="flag"><use href="#E240-vweahq5" transform="translate(4092, 360) scale(0.72, 0.72)"/></g></g><g data-id="w1fae95s" data-class="accid" class="accid"/></g><g data-id="u11a8oun" data-class="note" class="note"><g data-class="notehead" class="notehead"><use href="#E0A4-vweahq5" transform="translate(4403, 720) scale(0.72, 0.72)"/></g><g data-id="l1hkcmia" data-class="stem" class="stem"><path d="M4412 748 L4412 1350" stroke-width="18"/><g data-id="m7cmhtp" data-class="flag" class="flag"><use href="#E241-vweahq5" transform="translate(4403, 1350) scale(0.72, 0.72)"/></g></g><g data-id="x1thd7de" data-class="accid" class="accid"/></g></g></g><g data-id="ngfveyk" data-class="barLine" class="barLine"><path d="M4868 540 L4868 1260" stroke-width="27"/></g></g><g data-id="oezu38x" data-class="measure" class="measure"><g data-id="d1opztri" data-class="staff" class="staff"><path d="M4881 540 L6795 540" stroke-width="13"/><path d="M4881 720 L6795 720" stroke-width="13"/><path d="M4881 900 L6795 900" stroke-width="13"/><path d="M4881 1080 L6795 1080" stroke-width="13"/><path d="M4881 1260 L6795 1260" stroke-width="13"/><g data-id="e19zpq8j" data-class="layer" class="layer"><g data-id="v1rcr2v" data-class="note" class="note"><g data-class="notehead" class="notehead"><use href="#E0A4-vweahq5" transform="translate(5070, 810) scale(0.72, 0.72)"/></g><g data-id="n1clp26d" data-class="stem" class="stem"><path d="M5079 838 L5079 1440" stroke-width="18"/></g></g><g data-id="w1nkw1z0" data-class="note" class="note"><g data-class="notehead" class="notehead"><use href="#E0A4-vweahq5" transform="translate(5783, 900) scale(0.72, 0.72)"/></g><g data-id="otwl42s" data-class="stem" class="stem"><path d="M5792 928 L5792 1500" stroke-width="18"/><g data-id="p60utds" data-class="flag" class="flag"><use href="#E241-vweahq5" transform="translate(5783, 1500) scale(0.72, 0.72)"/></g></g><g data-id="y9jha3a" data-class="accid" class="accid"/></g><g data-id="x2p8p85" data-class="note" class="note"><g data-class="notehead" class="notehead"><use href="#E0A4-vweahq5" transform="translate(6248, 990) scale(0.72, 0.72)"/></g><g data-id="q94xdd8" data-class="stem" class="stem"><path d="M6465 962 L6465 360" stroke-width="18"/><g data-id="r1ii7tyo" data-class="flag" class="flag"><use href="#E240-vweahq5" transform="translate(6456, 360) scale(0.72, 0.72)"/></g></g><g data-id="za4ym5a" data-class="accid" class="accid"/></g></g></g><g data-id="w17tvxwt" data-class="barLine" class="barLine"><path d="M6782 540 L6782 1260" stroke-width="27"/></g></g><g data-id="x1g9njsi" data-class="measure" class="measure"><g data-id="f1vfqi3j" data-class="staff" class="staff"><path d="M6795 540 L9073 540" stroke-width="13"/><path d="M6795 720 L9073 720" stroke-width="13"/><path d="M6795 900 L9073 900" stroke-width="13"/><path d="M6795 1080 L9073 1080" stroke-width="13"/><path d="M6795 1260 L9073 1260" stroke-width="13"/><g data-id="g1hy77uk" data-class="layer" class="layer"><g data-id="y9jmss0" data-class="note" class="note"><g data-class="notehead" class="notehead"><use href="#E0A4-vweahq5" transform="translate(6984, 1080) scale(0.72, 0.72)"/></g><g data-id="t1v60nkt" data-class="dots" class="dots"><ellipse cx="7458" cy="990" rx="36" ry="36" fill-opacity="1" stroke-opacity="1"/></g><g data-id="sai5ksd" data-class="stem" class="stem"><path d="M7201 1052 L7201 450" stroke-width="18"/><g data-id="u3jcfs3" data-class="flag" class="flag"><use href="#E240-vweahq5" transform="translate(7192, 450) scale(0.72, 0.72)"/></g></g></g><g data-id="z1vcq37e" data-class="note" class="note"><g data-class="notehead" class="notehead"><use href="#E0A4-vweahq5" transform="translate(7583, 1170) scale(0.72, 0.72)"/></g><g data-id="v1tm53g5" data-class="stem" class="stem"><path d="M7800 1142 L7800 540" stroke-width="18"/><g data-id="w1k6fdhc" data-class="flag" class="flag"><use href="#E242-vweahq5" transform="translate(7791, 540) scale(0.72, 0.72)"/></g></g></g><g data-id="ama6d8j" data-class="note" class="note"><g data-class="notehead" class="notehead"><use href="#E0A4-vweahq5" transform="translate(8008, 1260) scale(0.72, 0.72)"/></g><g data-id="xcsm63h" data-class="stem" class="stem"><path d="M8225 1232 L8225 630" stroke-width="18"/><g data-id="y1712977" data-class="flag" class="flag"><use href="#E240-vweahq5" transform="translate(8216, 630) scale(0.72, 0.72)"/></g></g><g data-id="alrif1c" data-class="accid" class="accid"/></g><g data-id="b1ld9aew" data-class="note" class="note"><g data-class="notehead" class="notehead"><use href="#E0A4-vweahq5" transform="translate(8526, 990) scale(0.72, 0.72)"/></g><g data-id="z1xdesk5" data-class="stem" class="stem"><path d="M8743 962 L8743 360" stroke-width="18"/><g data-id="aeelh78" data-class="flag" class="flag"><use href="#E240-vweahq5" transform="translate(8734, 360) scale(0.72, 0.72)"/></g></g><g data-id="bbo3dc9" data-class="accid" class="accid"/></g></g></g><g data-id="f3vxwkz" data-class="barLine" class="barLine"><path d="M9060 540 L9060 1260" stroke-width="27"/></g></g><g data-id="gcx224w" data-class="measure" class="measure"><g data-id="h1ktl07d" data-class="staff" class="staff"><path d="M9073 540 L11539 540" stroke-width="13"/><path d="M9073 720 L11539 720" stroke-width="13"/><path d="M9073 900 L11539 900" stroke-width="13"/><path d="M9073 1080 L11539 1080" stroke-width="13"/><path d="M9073 1260 L11539 1260" stroke-width="13"/><g data-id="i5y99h8" data-class="layer" class="layer"><g data-id="c1hdnz8q" data-class="note" class="note"><g data-class="notehead" class="notehead"><use href="#E0A4-vweahq5" transform="translate(9262, 1080) scale(0.72, 0.72)"/></g><g data-id="cv9rpn6" data-class="dots" class="dots"><ellipse cx="9736" cy="990" rx="36" ry="36" fill-opacity="1" stroke-opacity="1"/></g><g data-id="b8m27gz" data-class="stem" class="stem"><path d="M9479 1052 L9479 450" stroke-width="18"/><g data-id="d1c609t1" data-class="flag" class="flag"><use href="#E240-vweahq5" transform="translate(9470, 450) scale(0.72, 0.72)"/></g></g></g><g data-id="d1enonvd" data-class="note" class="note"><g data-class="notehead" class="notehead"><use href="#E0A4-vweahq5" transform="translate(9861, 1170) scale(0.72, 0.72)"/></g><g data-id="eysxfy" data-class="stem" class="stem"><path d="M10078 1142 L10078 540" stroke-width="18"/><g data-id="fxzcsby" data-class="flag" class="flag"><use href="#E242-vweahq5" transform="translate(10069, 540) scale(0.72, 0.72)"/></g></g></g><g data-id="e1dgee3l" data-class="note" class="note"><g data-class="notehead" class="notehead"><use href="#E0A4-vweahq5" transform="translate(10286, 1260) scale(0.72, 0.72)"/></g><g data-id="gnmloxs" data-class="stem" class="stem"><path d="M10503 1232 L10503 630" stroke-width="18"/><g data-id="h17nrwv1" data-class="flag" class="flag"><use href="#E240-vweahq5" transform="translate(10494, 630) scale(0.72, 0.72)"/></g></g><g data-id="cfophir" data-class="accid" class="accid"/></g><g data-id="f590s5k" data-class="note" class="note"><g data-class="notehead" class="notehead"><use href="#E0A4-vweahq5" transform="translate(10993, 1260) scale(0.72, 0.72)"/></g><g data-id="i3acp1d" data-class="stem" class="stem"><path d="M11210 1232 L11210 630" stroke-width="18"/><g data-id="ju2zi17" data-class="flag" class="flag"><use href="#E240-vweahq5" transform="translate(11201, 630) scale(0.72, 0.72)"/></g></g><g data-id="dcor69u" data-class="accid" class="accid"/></g></g></g><g data-id="tixpalj" data-class="tie" class="tie"><path d="M10557,1305 C10666,1410 10836,1410 10948,1305 C10859,1459 10641,1459 10557,1305" stroke-linecap="round" stroke-linejoin="round" stroke-width="9"/></g><g data-id="op1ejrh" data-class="barLine" class="barLine"><path d="M11526 540 L11526 1260" stroke-width="27"/></g></g><g data-id="p1opefu5" data-class="measure" class="measure"><g data-id="j4ulbme" data-class="staff" class="staff"><path d="M11539 540 L14003 540" stroke-width="13"/><path d="M11539 720 L14003 720" stroke-width="13"/><path d="M11539 900 L14003 900" stroke-width="13"/><path d="M11539 1080 L14003 1080" stroke-width="13"/><path d="M11539 1260 L14003 1260" stroke-width="13"/><g data-id="k95y7ty" data-class="layer" class="layer"><g data-id="g1gj9jgc" data-class="note" class="note"><g data-class="notehead" class="notehead"><use href="#E0A4-vweahq5" transform="translate(11651, 1080) scale(0.54, 0.54)"/></g><g data-id="k12rs47q" data-class="stem" class="stem"><path d="M11811 1059 L11811 608" stroke-width="18"/><path d="M11744 876 L11945 675" stroke-width="21"/><g data-id="lhkyutu" data-class="flag" class="flag"><use href="#E240-vweahq5" transform="translate(11802, 608) scale(0.54, 0.54)"/></g></g></g><g data-id="h1x3l3jy" data-class="note" class="note"><g data-class="notehead" class="notehead"><use href="#E0A4-vweahq5" transform="translate(12022, 1170) scale(0.72, 0.72)"/></g><g data-id="mh9pc9j" data-class="stem" class="stem"><path d="M12239 1142 L12239 540" stroke-width="18"/><g data-id="nsvnmdj" data-class="flag" class="flag"><use href="#E240-vweahq5" transform="translate(12230, 540) scale(0.72, 0.72)"/></g></g></g><g data-id="i1ii5d6c" data-class="note" class="note"><g data-class="notehead" class="notehead"><use href="#E0A4-vweahq5" transform="translate(12487, 1260) scale(0.72, 0.72)"/></g><g data-id="o17lgjvu" data-class="stem" class="stem"><path d="M12704 1232 L12704 630" stroke-width="18"/><g data-id="p1jz2q6q" data-class="flag" class="flag"><use href="#E240-vweahq5" transform="translate(12695, 630) scale(0.72, 0.72)"/></g></g><g data-id="e1iadpvm" data-class="accid" class="accid"/></g><g data-id="j844p1n" data-class="note" class="note"><g data-class="notehead" class="notehead"><use href="#E0A4-vweahq5" transform="translate(13006, 990) scale(0.72, 0.72)"/></g><g data-id="qw0ytbo" data-class="stem" class="stem"><path d="M13223 962 L13223 360" stroke-width="18"/><g data-id="r1kpotrx" data-class="flag" class="flag"><use href="#E240-vweahq5" transform="translate(13214, 360) scale(0.72, 0.72)"/></g></g><g data-id="f11nx1vr" data-class="accid" class="accid"/></g><g data-id="k1e7pud7" data-class="note" class="note"><g data-class="notehead" class="notehead"><use href="#E0A4-vweahq5" transform="translate(13525, 720) scale(0.72, 0.72)"/></g><g data-id="sy6fyqy" data-class="stem" class="stem"><path d="M13534 748 L13534 1350" stroke-width="18"/><g data-id="t1x7uzjw" data-class="flag" class="flag"><use href="#E241-vweahq5" transform="translate(13525, 1350) scale(0.72, 0.72)"/></g></g><g data-id="g1h81ql8" data-class="accid" class="accid"/></g></g></g><g data-id="x1mlcimb" data-class="barLine" class="barLine"><path d="M13990 540 L13990 1260" stroke-width="27"/></g></g></g></g></svg></svg>