<svg viewBox="0 0 560 84" version="1.1" xmlns="http://www.w3.org/2000/svg" xmlns:xlink="http://www.w3.org/1999/xlink" overflow="visible" id="obo4uqb"><desc>Engraved by Verovio 5.6.0-85e7620</desc><defs><g id="E050-obo4uqb"><path transform="scale(1,-1)" d="M441 -245c-23 -4 -48 -6 -76 -6c-59 0 -102 7 -130 20c-88 42 -150 93 -187 154c-26 44 -43 103 -48 176c0 6 -1 13 -1 19c0 54 15 111 45 170c29 57 65 106 110 148s96 85 153 127c-3 16 -8 46 -13 92c-4 43 -5 73 -5 89c0 117 16 172 69 257c34 54 64 82 89 82 c21 0 43 -30 69 -92s39 -115 41 -159v-15c0 -109 -21 -162 -67 -241c-13 -20 -63 -90 -98 -118c-13 -9 -25 -19 -37 -29l31 -181c8 1 18 2 28 2c58 0 102 -12 133 -35c59 -43 92 -104 98 -184c1 -7 1 -15 1 -22c0 -123 -87 -209 -181 -248c8 -57 17 -110 25 -162 c5 -31 6 -58 6 -80c0 -30 -5 -53 -14 -70c-35 -64 -88 -99 -158 -103c-5 0 -11 -1 -16 -1c-37 0 -72 10 -108 27c-50 24 -77 59 -80 105v11c0 29 7 55 20 76c18 28 45 42 79 44h6c49 0 93 -42 97 -87v-9c0 -51 -34 -86 -105 -106c17 -24 51 -36 102 -36c62 0 116 43 140 85 c9 16 13 41 13 74c0 20 -1 42 -5 67c-8 53 -18 106 -26 159zM461 939c-95 0 -135 -175 -135 -286c0 -24 2 -48 5 -71c50 39 92 82 127 128c40 53 60 100 60 140v8c-4 53 -22 81 -55 81h-2zM406 119l54 -326c73 25 110 78 110 161c0 7 0 15 -1 23c-7 95 -57 142 -151 142h-12 zM382 117c-72 -2 -128 -47 -128 -120v-7c2 -46 43 -99 75 -115c-3 -2 -7 -5 -10 -10c-70 33 -116 88 -123 172v11c0 68 44 126 88 159c23 17 49 29 78 36l-29 170c-21 -13 -52 -37 -92 -73c-50 -44 -86 -84 -109 -119c-45 -69 -67 -130 -67 -182v-13c5 -68 35 -127 93 -176 s125 -73 203 -73c25 0 50 3 75 9c-19 111 -36 221 -54 331z"/></g><g id="E262-obo4uqb"><path transform="scale(1,-1)" d="M136 186v169h17v-164l44 14v-91l-44 -14v-165l44 12v-91l-44 -13v-155h-17v150l-76 -22v-155h-17v149l-43 -13v90l43 14v167l-43 -14v92l43 13v169h17v-163zM60 73v-167l76 22v168z"/></g><g id="E08A-obo4uqb"><path transform="scale(1,-1)" d="M340 179c-9 24 -56 41 -89 41c-46 0 -81 -28 -100 -58c-17 -28 -25 -78 -25 -150c0 -65 2 -111 8 -135c8 -31 18 -49 40 -67c20 -17 43 -25 70 -25c54 0 92 36 115 75c14 25 23 54 28 88h27c0 -63 -24 -105 -58 -141c-35 -38 -82 -56 -140 -56c-45 0 -83 13 -115 39 c-57 45 -101 130 -101 226c0 59 33 127 68 163c36 37 97 72 160 72c36 0 93 -21 121 -40c11 -8 23 -17 33 -30c19 -23 27 -48 27 -76c0 -51 -35 -88 -86 -88c-43 0 -76 27 -76 68c0 26 7 35 21 51c15 17 32 27 58 32c7 2 14 7 14 11z"/></g><g id="E0A4-obo4uqb"><path transform="scale(1,-1)" d="M0 -39c0 68 73 172 200 172c66 0 114 -37 114 -95c0 -84 -106 -171 -218 -171c-64 0 -96 30 -96 94z"/></g><g id="E0A3-obo4uqb"><path transform="scale(1,-1)" d="M278 64c0 22 -17 39 -43 39c-12 0 -26 -3 -41 -10c-85 -43 -165 -94 -165 -156c5 -25 15 -32 49 -32c67 11 200 95 200 159zM0 -36c0 68 73 174 200 174c66 0 114 -39 114 -97c0 -84 -106 -173 -218 -173c-64 0 -96 32 -96 96z"/></g><g id="E261-obo4uqb"><path transform="scale(1,-1)" d="M0 -188v539h18v-191l139 22v-533h-17v186zM18 -100l122 17v176l-122 -19v-174z"/></g></defs><style type="text/css">#obo4uqb g.page-margin {font-family:Times,serif;}#obo4uqb g.ending, #obo4uqb g.fing, #obo4uqb g.reh, #obo4uqb g.tempo {font-weight:bold;}#obo4uqb g.dir, #obo4uqb g.dynam, #obo4uqb g.mNum {font-style:italic;}#obo4uqb g.label {font-weight:normal;}#obo4uqb path {stroke:currentColor}</style><svg class="definition-scale" color="black" viewBox="0 0 14000 2100"><g class="page-margin" transform="translate(0, 150)"><g data-id="t1uf1npd" data-class="mdiv" class="mdiv pageMilestone"/><g data-id="u11gh7y0" data-class="score" class="score pageMilestone"/><g data-id="nfm663n" data-class="system" class="system"><g data-id="w6q1ofu" data-class="section" class="section systemMilestone"/><g data-id="p1fpnnsa" data-class="measure" class="measure"><g data-id="ij5cbtu" data-class="staff" class="staff"><path d="M0 540 L2635 540" stroke-width="13"/><path d="M0 720 L2635 720" stroke-width="13"/><path d="M0 900 L2635 900" stroke-width="13"/><path d="M0 1080 L2635 1080" stroke-width="13"/><path d="M0 1260 L2635 1260" stroke-width="13"/><g data-id="n5jy1iv" data-class="clef" class="clef"><use href="#E050-obo4uqb" transform="translate(90, 1080) scale(0.72, 0.72)"/></g><g data-id="oecn4qk" data-class="keySig" class="keySig"><g data-id="pdgzt1r" data-class="keyAccid" class="keyAccid"><use href="#E262-obo4uqb" transform="translate(735, 540) scale(0.72, 0.72)"/></g><g data-id="qc6jppe" data-class="keyAccid" class="keyAccid"><use href="#E262-obo4uqb" transform="translate(913, 810) scale(0.72, 0.72)"/></g></g><g data-id="r1gyzk86" data-class="meterSig" class="meterSig"><use href="#E08A-obo4uqb" transform="translate(1234, 900) scale(0.72, 0.72)"/></g><g data-id="j3m2sck" data-class="layer" class="layer"><g data-id="i1ievp4v" data-class="note" class="note"><g data-class="notehead" class="notehead"><use href="#E0A4-obo4uqb" transform="translate(1815, 1170) scale(0.72, 0.72)"/></g><g data-id="ewjl370" data-class="stem" class="stem"><path d="M2032 1142 L2032 540" stroke-width="18"/></g><g data-id="mo8b0cr" data-class="accid" class="accid"/></g></g></g><g data-id="xn9j2gc" data-class="barLine" class="barLine"><path d="M2622 540 L2622 1260" stroke-width="27"/></g></g><g data-id="yqko3l4" data-class="measure" class="measure"><g data-id="k1rjshyn" data-class="staff" class="staff"><path d="M2635 540 L7072 540" stroke-width="13"/><path d="M2635 720 L7072 720" stroke-width="13"/><path d="M2635 900 L7072 900" stroke-width="13"/><path d="M2635 1080 L7072 1080" stroke-width="13"/><path d="M2635 1260 L7072 1260" stroke-width="13"/><g data-id="ldrwn51" data-class="layer" class="layer"><g data-id="itrmoch" data-class="beam" class="beam"><polygon stroke-opacity="1" fill-opacity="1" points="3036,495 4643,495 4643,585 3036,585"/><g data-id="jatly8w" data-class="note" class="note"><g data-class="notehead" class="notehead"><use href="#E0A4-obo4uqb" transform="translate(2828, 1080) scale(0.72, 0.72)"/></g><g data-id="f1i4p4ix" data-class="stem" class="stem"><path d="M3045 1052 L3045 513" stroke-width="18"/></g></g><g data-id="k1o6ieoz" data-class="note" class="note"><g data-class="notehead" class="notehead"><use href="#E0A4-obo4uqb" transform="translate(3354, 1170) scale(0.72, 0.72)"/></g><g data-id="goricwz" data-class="stem" class="stem"><path d="M3571 1142 L3571 513" stroke-width="18"/></g><g data-id="n1bk4ldh" data-class="accid" class="accid"/></g><g data-id="lvlcbvs" data-class="note" class="note"><g data-class="notehead" class="notehead"><use href="#E0A4-obo4uqb" transform="translate(3880, 1080) scale(0.72, 0.72)"/></g><g data-id="h10c4iov" data-class="stem" class="stem"><path d="M4097 1052 L4097 513" stroke-width="18"/></g></g><g data-id="m133wu5c" data-class="note" class="note"><g data-class="notehead" class="notehead"><use href="#E0A4-obo4uqb" transform="translate(4417, 1080) scale(0.72, 0.72)"/></g><g data-id="i1ex3qnt" data-class="stem" class="stem"><path d="M4634 1052 L4634 513" stroke-width="18"/></g><g data-id="d33shpo" data-class="accid" class="accid"><use href="#E262-obo4uqb" transform="translate(4231, 1080) scale(0.72, 0.72)"/></g></g></g><g data-id="j12k6k68" data-class="beam" class="beam"><polygon stroke-opacity="1" fill-opacity="1" points="5151,360 6759,360 6759,450 5151,450"/><g data-id="n10yszrc" data-class="note" class="note"><g data-class="notehead" class="notehead"><use href="#E0A4-obo4uqb" transform="translate(4943, 990) scale(0.72, 0.72)"/></g><g data-id="jllcezr" data-class="stem" class="stem"><path d="M5160 962 L5160 378" stroke-width="18"/></g></g><g data-id="oejyaag" data-class="note" class="note"><g data-class="notehead" class="notehead"><use href="#E0A4-obo4uqb" transform="translate(5470, 1080) scale(0.72, 0.72)"/></g><g data-id="kza7y08" data-class="stem" class="stem"><path d="M5687 1052 L5687 378" stroke-width="18"/></g><g data-id="o18n1he2" data-class="accid" class="accid"/></g><g data-id="p13d0x21" data-class="note" class="note"><g data-class="notehead" class="notehead"><use href="#E0A4-obo4uqb" transform="translate(5996, 990) scale(0.72, 0.72)"/></g><g data-id="liiou5t" data-class="stem" class="stem"><path d="M6213 962 L6213 378" stroke-width="18"/></g></g><g data-id="q110i3az" data-class="note" class="note"><g data-class="notehead" class="notehead"><use href="#E0A4-obo4uqb" transform="translate(6533, 990) scale(0.72, 0.72)"/></g><g data-id="mblf495" data-class="stem" class="stem"><path d="M6750 962 L6750 378" stroke-width="18"/></g><g data-id="e1dzk4aa" data-class="accid" class="accid"><use href="#E262-obo4uqb" transform="translate(6347, 990) scale(0.72, 0.72)"/></g></g></g></g></g><g data-id="gyargqi" data-class="barLine" class="barLine"><path d="M7059 540 L7059 1260" stroke-width="27"/></g></g><g data-id="h2h1hks" data-class="measure" class="measure"><g data-id="m14ej7vd" data-class="staff" class="staff"><path d="M7072 540 L10508 540" stroke-width="13"/><path d="M7072 720 L10508 720" stroke-width="13"/><path d="M7072 900 L10508 900" stroke-width="13"/><path d="M7072 1080 L10508 1080" stroke-width="13"/><path d="M7072 1260 L10508 1260" stroke-width="13"/><g data-id="n14zs6gg" data-class="layer" class="layer"><g data-id="rt2xygk" data-class="note" class="note"><g data-class="notehead" class="notehead"><use href="#E0A4-obo4uqb" transform="translate(7265, 900) scale(0.72, 0.72)"/></g><g data-id="nyutf69" data-class="stem" class="stem"><path d="M7274 928 L7274 1500" stroke-width="18"/></g></g><g data-id="s1x5e1t7" data-class="note" class="note"><g data-class="notehead" class="notehead"><use href="#E0A4-obo4uqb" transform="translate(8072, 720) scale(0.72, 0.72)"/></g><g data-id="o198r44z" data-class="stem" class="stem"><path d="M8081 748 L8081 1350" stroke-width="18"/></g></g><g data-id="t1rwqn9y" data-class="note" class="note"><g data-class="notehead" class="notehead"><use href="#E0A4-obo4uqb" transform="translate(8880, 810) scale(0.72, 0.72)"/></g><g data-id="p1et0e0q" data-class="stem" class="stem"><path d="M8889 838 L8889 1440" stroke-width="18"/></g><g data-id="pejptrn" data-class="accid" class="accid"/></g><g data-id="u1wmk2p5" data-class="note" class="note"><g data-class="notehead" class="notehead"><use href="#E0A4-obo4uqb" transform="translate(9687, 540) scale(0.72, 0.72)"/></g><g data-id="q4ewfzi" data-class="stem" class="stem"><path d="M9696 568 L9696 1170" stroke-width="18"/></g><g data-id="q12a0upb" data-class="accid" class="accid"/></g></g></g><g data-id="p1vovpa3" data-class="barLine" class="barLine"><path d="M10495 540 L10495 1260" stroke-width="27"/></g></g><g data-id="q1qs1wuv" data-class="measure" class="measure"><g data-id="o1z1w10" data-class="staff" class="staff"><path d="M10508 540 L14002 540" stroke-width="13"/><path d="M10508 720 L14002 720" stroke-width="13"/><path d="M10508 900 L14002 900" stroke-width="13"/><path d="M10508 1080 L14002 1080" stroke-width="13"/><path d="M10508 1260 L14002 1260" stroke-width="13"/><g data-id="p11see4o" data-class="layer" class="layer"><g data-id="v10ilwal" data-class="note" class="note"><g data-class="notehead" class="notehead"><use href="#E0A4-obo4uqb" transform="translate(10900, 630) scale(0.72, 0.72)"/></g><g data-id="r1cfqu2e" data-class="stem" class="stem"><path d="M10909 658 L10909 1260" stroke-width="18"/></g><g data-id="fya7z4k" data-class="accid" class="accid"><use href="#E262-obo4uqb" transform="translate(10714, 630) scale(0.72, 0.72)"/></g></g><g data-id="wmd2rco" data-class="note" class="note"><g data-class="notehead" class="notehead"><use href="#E0A3-obo4uqb" transform="translate(11707, 630) scale(0.72, 0.72)"/></g><g data-id="s1xy50pe" data-class="stem" class="stem"><path d="M11716 655 L11716 1260" stroke-width="18"/></g><g data-id="gdi64p7" data-class="accid" class="accid"><use href="#E261-obo4uqb" transform="translate(11549, 630) scale(0.72, 0.72)"/></g></g><g data-id="k8sossy" data-class="beam" class="beam"><polygon stroke-opacity="1" fill-opacity="1" points="12936,1440 13480,1485 13480,1395 12936,1350"/><g data-id="x1eljt9c" data-class="note" class="note"><g data-class="notehead" class="notehead"><use href="#E0A4-obo4uqb" transform="translate(12936, 720) scale(0.72, 0.72)"/></g><g data-id="t164jcu1" data-class="stem" class="stem"><path d="M12945 748 L12945 1422" stroke-width="18"/></g></g><g data-id="y1xjz3ww" data-class="note" class="note"><g data-class="notehead" class="notehead"><use href="#E0A4-obo4uqb" transform="translate(13462, 810) scale(0.72, 0.72)"/></g><g data-id="u1l2u0ej" data-class="stem" class="stem"><path d="M13471 838 L13471 1467" stroke-width="18"/></g><g data-id="rj8ofx4" data-class="accid" class="accid"/></g></g></g></g><g data-id="y1m4smp6" data-class="barLine" class="barLine"><path d="M13989 540 L13989 1260" stroke-width="27"/></g></g></g></g></svg></svg>