<svg viewBox="0 0 560 84" version="1.1" xmlns="http://www.w3.org/2000/svg" xmlns:xlink="http://www.w3.org/1999/xlink" overflow="visible" id="wxo91vj"><desc>Engraved by Verovio 5.6.0-85e7620</desc><defs><g id="E050-wxo91vj"><path transform="scale(1,-1)" d="M441 -245c-23 -4 -48 -6 -76 -6c-59 0 -102 7 -130 20c-88 42 -150 93 -187 154c-26 44 -43 103 -48 176c0 6 -1 13 -1 19c0 54 15 111 45 170c29 57 65 106 110 148s96 85 153 127c-3 16 -8 46 -13 92c-4 43 -5 73 -5 89c0 117 16 172 69 257c34 54 64 82 89 82 c21 0 43 -30 69 -92s39 -115 41 -159v-15c0 -109 -21 -162 -67 -241c-13 -20 -63 -90 -98 -118c-13 -9 -25 -19 -37 -29l31 -181c8 1 18 2 28 2c58 0 102 -12 133 -35c59 -43 92 -104 98 -184c1 -7 1 -15 1 -22c0 -123 -87 -209 -181 -248c8 -57 17 -110 25 -162 c5 -31 6 -58 6 -80c0 -30 -5 -53 -14 -70c-35 -64 -88 -99 -158 -103c-5 0 -11 -1 -16 -1c-37 0 -72 10 -108 27c-50 24 -77 59 -80 105v11c0 29 7 55 20 76c18 28 45 42 79 44h6c49 0 93 -42 97 -87v-9c0 -51 -34 -86 -105 -106c17 -24 51 -36 102 -36c62 0 116 43 140 85 c9 16 13 41 13 74c0 20 -1 42 -5 67c-8 53 -18 106 -26 159zM461 939c-95 0 -135 -175 -135 -286c0 -24 2 -48 5 -71c50 39 92 82 127 128c40 53 60 100 60 140v8c-4 53 -22 81 -55 81h-2zM406 119l54 -326c73 25 110 78 110 161c0 7 0 15 -1 23c-7 95 -57 142 -151 142h-12 zM382 117c-72 -2 -128 -47 -128 -120v-7c2 -46 43 -99 75 -115c-3 -2 -7 -5 -10 -10c-70 33 -116 88 -123 172v11c0 68 44 126 88 159c23 17 49 29 78 36l-29 170c-21 -13 -52 -37 -92 -73c-50 -44 -86 -84 -109 -119c-45 -69 -67 -130 -67 -182v-13c5 -68 35 -127 93 -176 s125 -73 203 -73c25 0 50 3 75 9c-19 111 -36 221 -54 331z"/></g><g id="E260-wxo91vj"><path transform="scale(1,-1)" d="M20 110c32 16 54 27 93 27c26 0 35 -3 54 -13c13 -7 24 -20 27 -38l4 -25c0 -28 -16 -57 -45 -89c-23 -25 -39 -44 -65 -68l-88 -79v644h20v-359zM90 106c-32 0 -48 -10 -70 -29v-194c31 31 54 59 71 84c21 32 32 59 32 84c0 9 1 16 1 20c0 14 -3 21 -11 30l-8 3z"/></g><g id="E08B-wxo91vj"><path transform="scale(1,-1)" d="M188 200c-42 -22 -63 -69 -63 -141v-119c0 -39 7 -70 19 -94s26 -40 44 -48v402zM0 -0c0 127 80 220 186 246v72h32l-6 -72c33 0 71 0 101 -11c54 -20 102 -65 102 -135c0 -16 -4 -30 -13 -43s-20 -24 -32 -29l-20 -8l-23 -3c-22 2 -41 8 -55 21s-21 31 -26 51 c0 38 45 80 79 80c12 0 19 3 19 10c0 6 -6 12 -15 18c-19 13 -47 24 -79 24c-10 0 -20 -1 -32 -5v-431c15 -3 12 -4 30 -4c57 0 100 51 121 93l17 39c3 13 5 25 5 35h26c-6 -70 -28 -121 -66 -152s-82 -47 -133 -47v-68h-30v72c-57 10 -122 54 -153 109c-7 12 -13 26 -19 42 c-11 29 -16 61 -16 96z"/></g><g id="E0A3-wxo91vj"><path transform="scale(1,-1)" d="M278 64c0 22 -17 39 -43 39c-12 0 -26 -3 -41 -10c-85 -43 -165 -94 -165 -156c5 -25 15 -32 49 -32c67 11 200 95 200 159zM0 -36c0 68 73 174 200 174c66 0 114 -39 114 -97c0 -84 -106 -173 -218 -173c-64 0 -96 32 -96 96z"/></g><g id="E0A2-wxo91vj"><path transform="scale(1,-1)" d="M198 133c102 0 207 -45 207 -133c0 -92 -118 -133 -227 -133c-101 0 -178 46 -178 133c0 88 93 133 198 133zM293 -21c0 14 -3 29 -8 44c-7 20 -18 38 -33 54c-20 21 -43 31 -68 31l-20 -2c-15 -5 -27 -14 -36 -28c-4 -9 -6 -17 -8 -24s-3 -16 -3 -27c0 -15 3 -34 9 -57 s18 -41 34 -55c15 -15 36 -23 62 -23c4 0 10 1 18 2c19 5 32 15 40 30s13 34 13 55z"/></g></defs><style type="text/css">#wxo91vj g.page-margin {font-family:Times,serif;}#wxo91vj g.ending, #wxo91vj g.fing, #wxo91vj g.reh, #wxo91vj g.tempo {font-weight:bold;}#wxo91vj g.dir, #wxo91vj g.dynam, #wxo91vj g.mNum {font-style:italic;}#wxo91vj g.label {font-weight:normal;}#wxo91vj path {stroke:currentColor}</style><svg class="definition-scale" color="black" viewBox="0 0 14000 2100"><g class="page-margin" transform="translate(0, 150)"><g data-id="w11ju1d6" data-class="mdiv" class="mdiv pageMilestone"/><g data-id="x6egb7f" data-class="score" class="score pageMilestone"/><g data-id="w1o9k3i4" data-class="system" class="system"><g data-id="z1v7wqq0" data-class="section" class="section systemMilestone"/><g data-id="x2tlidy" data-class="measure" class="measure"><g data-id="lhgb9m7" data-class="staff" class="staff"><path d="M0 540 L2999 540" stroke-width="13"/><path d="M0 720 L2999 720" stroke-width="13"/><path d="M0 900 L2999 900" stroke-width="13"/><path d="M0 1080 L2999 1080" stroke-width="13"/><path d="M0 1260 L2999 1260" stroke-width="13"/><g data-id="w16b16ly" data-class="clef" class="clef"><use href="#E050-wxo91vj" transform="translate(90, 1080) scale(0.72, 0.72)"/></g><g data-id="x1kg7y5g" data-class="keySig" class="keySig"><g data-id="y1ipp15t" data-class="keyAccid" class="keyAccid"><use href="#E260-wxo91vj" transform="translate(735, 900) scale(0.72, 0.72)"/></g><g data-id="zosh2i4" data-class="keyAccid" class="keyAccid"><use href="#E260-wxo91vj" transform="translate(915, 630) scale(0.72, 0.72)"/></g></g><g data-id="a8l3gwz" data-class="meterSig" class="meterSig"><use href="#E08B-wxo91vj" transform="translate(1237, 900) scale(0.72, 0.72)"/></g><g data-id="m14imhe8" data-class="layer" class="layer"><g data-id="iihpt8u" data-class="note" class="note"><g data-class="notehead" class="notehead"><use href="#E0A3-wxo91vj" transform="translate(1818, 1170) scale(0.72, 0.72)"/></g><g data-id="la2ee9" data-class="stem" class="stem"><path d="M2035 1142 L2035 540" stroke-width="18"/></g></g></g></g><g data-id="ffnrjno" data-class="barLine" class="barLine"><path d="M2986 540 L2986 1260" stroke-width="27"/></g></g><g data-id="g1hctkjj" data-class="measure" class="measure"><g data-id="n1udecem" data-class="staff" class="staff"><path d="M2999 540 L4973 540" stroke-width="13"/><path d="M2999 720 L4973 720" stroke-width="13"/><path d="M2999 900 L4973 900" stroke-width="13"/><path d="M2999 1080 L4973 1080" stroke-width="13"/><path d="M2999 1260 L4973 1260" stroke-width="13"/><g data-id="oe9i73j" data-class="layer" class="layer"><g data-id="jskhyya" data-class="note" class="note"><g data-class="notehead" class="notehead"><use href="#E0A2-wxo91vj" transform="translate(3190, 900) scale(0.72, 0.72)"/></g><g data-id="s2xbbst" data-class="accid" class="accid"/></g></g></g><g data-id="r1evd7rv" data-class="tie" class="tie"><path d="M3525,855 C3919,700 4722,700 5119,855 C4715,748 3926,748 3525,855" stroke-linecap="round" stroke-linejoin="round" stroke-width="9"/></g><g data-id="o2bhe93" data-class="barLine" class="barLine"><path d="M4960 540 L4960 1260" stroke-width="27"/></g></g><g data-id="pthl2ld" data-class="measure" class="measure"><g data-id="p18j2ct1" data-class="staff" class="staff"><path d="M4973 540 L7513 540" stroke-width="13"/><path d="M4973 720 L7513 720" stroke-width="13"/><path d="M4973 900 L7513 900" stroke-width="13"/><path d="M4973 1080 L7513 1080" stroke-width="13"/><path d="M4973 1260 L7513 1260" stroke-width="13"/><g data-id="qhokbez" data-class="layer" class="layer"><g data-id="k1i1yate" data-class="note" class="note"><g data-class="notehead" class="notehead"><use href="#E0A3-wxo91vj" transform="translate(5164, 900) scale(0.72, 0.72)"/></g><g data-id="n1xhjvhq" data-class="stem" class="stem"><path d="M5173 925 L5173 1500" stroke-width="18"/></g><g data-id="tfcs8ek" data-class="accid" class="accid"/></g><g data-id="l1brvywa" data-class="note" class="note"><g data-class="notehead" class="notehead"><use href="#E0A3-wxo91vj" transform="translate(6332, 990) scale(0.72, 0.72)"/></g><g data-id="o162tz5i" data-class="stem" class="stem"><path d="M6549 962 L6549 360" stroke-width="18"/></g></g></g></g><g data-id="x1jhw6wu" data-class="barLine" class="barLine"><path d="M7500 540 L7500 1260" stroke-width="27"/></g></g><g data-id="y1lreqty" data-class="measure" class="measure"><g data-id="rbvi20c" data-class="staff" class="staff"><path d="M7513 540 L9487 540" stroke-width="13"/><path d="M7513 720 L9487 720" stroke-width="13"/><path d="M7513 900 L9487 900" stroke-width="13"/><path d="M7513 1080 L9487 1080" stroke-width="13"/><path d="M7513 1260 L9487 1260" stroke-width="13"/><g data-id="saqyp76" data-class="layer" class="layer"><g data-id="m86y2x8" data-class="note" class="note"><g data-class="notehead" class="notehead"><use href="#E0A2-wxo91vj" transform="translate(7704, 1080) scale(0.72, 0.72)"/></g></g></g></g><g data-id="g1wrl8sx" data-class="barLine" class="barLine"><path d="M9474 540 L9474 1260" stroke-width="27"/></g></g><g data-id="h1kgd0nj" data-class="measure" class="measure"><g data-id="tj19thm" data-class="staff" class="staff"><path d="M9487 540 L11461 540" stroke-width="13"/><path d="M9487 720 L11461 720" stroke-width="13"/><path d="M9487 900 L11461 900" stroke-width="13"/><path d="M9487 1080 L11461 1080" stroke-width="13"/><path d="M9487 1260 L11461 1260" stroke-width="13"/><g data-id="u1bibdam" data-class="layer" class="layer"><g data-id="n11gum2l" data-class="note" class="note"><g data-class="notehead" class="notehead"><use href="#E0A2-wxo91vj" transform="translate(9678, 1170) scale(0.72, 0.72)"/></g></g></g></g><g data-id="p1cb7ty9" data-class="barLine" class="barLine"><path d="M11448 540 L11448 1260" stroke-width="27"/></g></g><g data-id="qmoizoe" data-class="measure" class="measure"><g data-id="v1rz2awf" data-class="staff" class="staff"><path d="M11461 540 L14001 540" stroke-width="13"/><path d="M11461 720 L14001 720" stroke-width="13"/><path d="M11461 900 L14001 900" stroke-width="13"/><path d="M11461 1080 L14001 1080" stroke-width="13"/><path d="M11461 1260 L14001 1260" stroke-width="13"/><g data-id="wtrxzi0" data-class="layer" class="layer"><g data-id="o1e3efbk" data-class="note" class="note"><g data-class="notehead" class="notehead"><use href="#E0A3-wxo91vj" transform="translate(11652, 1080) scale(0.72, 0.72)"/></g><g data-id="r12lklm5" data-class="stem" class="stem"><path d="M11869 1052 L11869 450" stroke-width="18"/></g></g><g data-id="pv5z42x" data-class="note" class="note"><g data-class="notehead" class="notehead"><use href="#E0A3-wxo91vj" transform="translate(12820, 990) scale(0.72, 0.72)"/></g><g data-id="s159nb9o" data-class="stem" class="stem"><path d="M13037 962 L13037 360" stroke-width="18"/></g></g></g></g><g data-id="y13n9gve" data-class="barLine" class="barLine"><path d="M13988 540 L13988 1260" stroke-width="27"/></g></g></g></g></svg></svg>