<svg viewBox="0 0 560 84" version="1.1" xmlns="http://www.w3.org/2000/svg" xmlns:xlink="http://www.w3.org/1999/xlink" overflow="visible" id="ia21qep"><desc>Engraved by Verovio 5.6.0-85e7620</desc><defs><g id="E052-ia21qep"><path transform="scale(1,-1)" d="M382 117c-72 -2 -128 -47 -128 -120v-7c2 -46 43 -99 75 -115c-3 -2 -7 -5 -10 -10c-70 33 -116 88 -123 172v11c0 68 44 126 88 159c23 17 49 29 78 36l-29 170c-21 -13 -52 -37 -92 -73c-50 -44 -86 -84 -109 -119c-45 -69 -67 -130 -67 -182v-13 c5 -68 35 -127 93 -176s125 -73 203 -73c25 0 50 3 75 9c-19 111 -36 221 -54 331zM406 119l54 -326c73 25 110 78 110 161c0 7 0 15 -1 23c-7 95 -57 142 -151 142h-12zM461 939c-95 0 -135 -175 -135 -286c0 -24 2 -48 5 -71c50 39 92 82 127 128c40 53 60 100 60 140v8 c-4 53 -22 81 -55 81h-2zM441 -245c-23 -4 -48 -6 -76 -6c-59 0 -102 7 -130 20c-88 42 -150 93 -187 154c-26 44 -43 103 -48 176c0 6 -1 13 -1 19c0 54 15 111 45 170c29 57 65 106 110 148s96 85 153 127c-3 16 -8 46 -13 92c-4 43 -5 73 -5 89c0 117 16 172 69 257 c34 54 64 82 89 82c21 0 43 -30 69 -92s39 -115 41 -159v-15c0 -109 -21 -162 -67 -241c-13 -20 -63 -90 -98 -118c-13 -9 -25 -19 -37 -29l31 -181c8 1 18 2 28 2c58 0 102 -12 133 -35c59 -43 92 -104 98 -184c1 -7 1 -15 1 -22c0 -123 -87 -209 -181 -248 c8 -57 17 -110 25 -162c5 -31 6 -58 6 -80c0 -30 -5 -53 -14 -70c-25 -46 -59 -77 -102 -92c21 -1 85 -13 85 -60c0 -35 -22 -43 -31 -50c-6 -5 -8 -10 -8 -16s0 -11 4 -16c6 -11 9 -22 9 -34c0 -27 -18 -53 -46 -65c-11 -4 -27 -6 -41 -6c-34 0 -82 21 -90 58 c-1 5 -2 8 -2 12c0 28 25 57 51 66c4 1 6 2 6 5c0 2 -1 3 -2 3c-11 13 -16 27 -16 41c0 21 11 40 30 51h-5c-5 0 -11 -1 -16 -1c-37 0 -72 10 -108 27c-50 24 -77 59 -80 105v11c0 29 7 55 20 76c18 28 45 42 79 44h6c49 0 93 -42 97 -87v-9c0 -51 -34 -86 -105 -106 c17 -24 51 -36 102 -36c62 0 116 43 140 85c9 16 13 41 13 74c0 20 -1 42 -5 67c-8 53 -18 106 -26 159zM315 -781c-3 -2 -6 -5 -7 -8c-6 -8 -10 -19 -10 -30c0 -2 0 -4 1 -7c7 -32 34 -52 53 -52c20 0 37 20 37 36c0 5 -2 9 -4 14c-5 13 -14 24 -25 34c-6 5 -11 10 -17 14 c-4 2 -9 6 -14 6c-6 0 -11 -3 -14 -7zM349 -685c0 -14 10 -25 18 -34c8 -8 16 -18 26 -25c5 -2 10 -4 13 -4c17 0 22 30 23 48c0 9 -3 20 -9 26c-8 9 -23 14 -40 14c-15 -1 -29 -8 -31 -25z"/></g><g id="E262-ia21qep"><path transform="scale(1,-1)" d="M136 186v169h17v-164l44 14v-91l-44 -14v-165l44 12v-91l-44 -13v-155h-17v150l-76 -22v-155h-17v149l-43 -13v90l43 14v167l-43 -14v92l43 13v169h17v-163zM60 73v-167l76 22v168z"/></g><g id="E08A-ia21qep"><path transform="scale(1,-1)" d="M340 179c-9 24 -56 41 -89 41c-46 0 -81 -28 -100 -58c-17 -28 -25 -78 -25 -150c0 -65 2 -111 8 -135c8 -31 18 -49 40 -67c20 -17 43 -25 70 -25c54 0 92 36 115 75c14 25 23 54 28 88h27c0 -63 -24 -105 -58 -141c-35 -38 -82 -56 -140 -56c-45 0 -83 13 -115 39 c-57 45 -101 130 -101 226c0 59 33 127 68 163c36 37 97 72 160 72c36 0 93 -21 121 -40c11 -8 23 -17 33 -30c19 -23 27 -48 27 -76c0 -51 -35 -88 -86 -88c-43 0 -76 27 -76 68c0 26 7 35 21 51c15 17 32 27 58 32c7 2 14 7 14 11z"/></g><g id="E0A4-ia21qep"><path transform="scale(1,-1)" d="M0 -39c0 68 73 172 200 172c66 0 114 -37 114 -95c0 -84 -106 -171 -218 -171c-64 0 -96 30 -96 94z"/></g><g id="E241-ia21qep"><path transform="scale(1,-1)" d="M179 646c-4 8 -17 30 -18 33l-4 10c0 3 2 5 5 5s7 -2 13 -7c23 -33 46 -81 66 -132c22 -57 35 -125 35 -163c0 -104 -60 -183 -122 -241c-63 -59 -57 -53 -61 -56c-38 -34 -63 -95 -71 -95h-22v190c40 7 69 11 87 16c88 27 168 95 168 200c0 30 -12 89 -30 138 c-17 47 -31 73 -46 102z"/></g><g id="E0A3-ia21qep"><path transform="scale(1,-1)" d="M278 64c0 22 -17 39 -43 39c-12 0 -26 -3 -41 -10c-85 -43 -165 -94 -165 -156c5 -25 15 -32 49 -32c67 11 200 95 200 159zM0 -36c0 68 73 174 200 174c66 0 114 -39 114 -97c0 -84 -106 -173 -218 -173c-64 0 -96 32 -96 96z"/></g><g id="E4E5-ia21qep"><path transform="scale(1,-1)" d="M107 292c-13 24 -30 49 -52 71c-1 1 0 2 0 3l-2 2c3 3 4 4 6 4c12 0 26 -7 40 -20s44 -40 89 -81c26 -24 28 -29 46 -47c4 -4 8 -9 10 -14c6 -8 8 -16 8 -27c0 -19 -12 -40 -36 -61c-28 -23 -49 -38 -61 -73c-4 -11 -7 -27 -10 -50c13 -43 34 -83 59 -121 c31 -47 59 -79 101 -129c-8 0 -26 7 -54 20l-62 29l-21 6l-23 1c-25 0 -45 -10 -60 -30l-4 -14l-1 -12c0 -33 20 -56 39 -78c8 -9 17 -18 26 -26c17 -15 27 -24 28 -30l-3 -3c-11 5 -19 10 -25 15c-9 3 -37 21 -45 26c-24 14 -45 32 -63 51c-19 21 -37 44 -37 71 c0 63 27 95 80 95c41 0 86 -18 136 -52c-19 26 -37 48 -55 66c-23 23 -48 44 -73 65c-28 23 -47 40 -58 53s-17 26 -18 39c75 64 113 125 113 183c0 27 -7 48 -18 68z"/></g><g id="E4C0-ia21qep"><path transform="scale(1,-1)" d="M0 0c0 0 40 320 300 320s300 -320 300 -320h-32s-38 227 -268 227s-268 -227 -268 -227h-32zM355 52c0 -30 -25 -55 -55 -55s-55 25 -55 55s25 55 55 55s55 -25 55 -55z"/></g></defs><style type="text/css">#ia21qep g.page-margin {font-family:Times,serif;}#ia21qep g.ending, #ia21qep g.fing, #ia21qep g.reh, #ia21qep g.tempo {font-weight:bold;}#ia21qep g.dir, #ia21qep g.dynam, #ia21qep g.mNum {font-style:italic;}#ia21qep g.label {font-weight:normal;}#ia21qep path {stroke:currentColor}</style><svg class="definition-scale" color="black" viewBox="0 0 14000 2100"><g class="page-margin" transform="translate(0, 150)"><g data-id="j1s7nnq2" data-class="mdiv" class="mdiv pageMilestone"/><g data-id="k1f2q2rw" data-class="score" class="score pageMilestone"/><g data-id="tm0icz" data-class="system" class="system"><g data-id="m13znbs5" data-class="section" class="section systemMilestone"/><g data-id="j1084860" data-class="measure" class="measure"><g data-id="y6iwlr0" data-class="staff" class="staff"><path d="M0 540 L2327 540" stroke-width="13"/><path d="M0 720 L2327 720" stroke-width="13"/><path d="M0 900 L2327 900" stroke-width="13"/><path d="M0 1080 L2327 1080" stroke-width="13"/><path d="M0 1260 L2327 1260" stroke-width="13"/><g data-id="au1um3k" data-class="clef" class="clef"><use href="#E052-ia21qep" transform="translate(90, 1080) scale(0.72, 0.72)"/></g><g data-id="b1rpxktq" data-class="keySig" class="keySig"><g data-id="c4l3x6w" data-class="keyAccid" class="keyAccid"><use href="#E262-ia21qep" transform="translate(735, 540) scale(0.72, 0.72)"/></g></g><g data-id="d1o4fyxe" data-class="meterSig" class="meterSig"><use href="#E08A-ia21qep" transform="translate(1056, 900) scale(0.72, 0.72)"/></g><g data-id="z924jwv" data-class="layer" class="layer"><g data-id="u1mi90yp" data-class="note" class="note"><g data-class="notehead" class="notehead"><use href="#E0A4-ia21qep" transform="translate(1624, 1260) scale(0.72, 0.72)"/></g><g data-id="rkhlpuh" data-class="stem" class="stem"><path d="M1841 1232 L1841 630" stroke-width="18"/></g></g></g></g><g data-id="rxc1rrl" data-class="barLine" class="barLine"><path d="M2314 540 L2314 1260" stroke-width="27"/></g></g><g data-id="sh644xw" data-class="measure" class="measure"><g data-id="a1nb6d2" data-class="staff" class="staff"><path d="M2327 540 L4900 540" stroke-width="13"/><path d="M2327 720 L4900 720" stroke-width="13"/><path d="M2327 900 L4900 900" stroke-width="13"/><path d="M2327 1080 L4900 1080" stroke-width="13"/><path d="M2327 1260 L4900 1260" stroke-width="13"/><g data-id="b1upnytc" data-class="layer" class="layer"><g data-id="vcqgx7m" data-class="note" class="note"><g data-class="notehead" class="notehead"><use href="#E0A4-ia21qep" transform="translate(2507, 900) scale(0.72, 0.72)"/></g><g data-id="t1s8nk2n" data-class="dots" class="dots"><ellipse cx="2823" cy="810" rx="36" ry="36" fill-opacity="1" stroke-opacity="1"/></g><g data-id="s1p6o6jx" data-class="stem" class="stem"><path d="M2516 928 L2516 1500" stroke-width="18"/></g></g><g data-id="w15csz3z" data-class="note" class="note"><g data-class="notehead" class="notehead"><use href="#E0A4-ia21qep" transform="translate(3387, 810) scale(0.72, 0.72)"/></g><g data-id="u19saeqt" data-class="stem" class="stem"><path d="M3396 838 L3396 1440" stroke-width="18"/><g data-id="v9spudg" data-class="flag" class="flag"><use href="#E241-ia21qep" transform="translate(3387, 1440) scale(0.72, 0.72)"/></g></g></g><g data-id="xavtmt6" data-class="note" class="note"><g data-class="notehead" class="notehead"><use href="#E0A3-ia21qep" transform="translate(3837, 900) scale(0.72, 0.72)"/></g><g data-id="w1k6uz7g" data-class="stem" class="stem"><path d="M3846 925 L3846 1500" stroke-width="18"/></g></g></g></g><g data-id="a1kdkuz5" data-class="barLine" class="barLine"><path d="M4887 540 L4887 1260" stroke-width="27"/></g></g><g data-id="b1mf06ce" data-class="measure" class="measure"><g data-id="c9l3dh7" data-class="staff" class="staff"><path d="M4900 540 L8483 540" stroke-width="13"/><path d="M4900 720 L8483 720" stroke-width="13"/><path d="M4900 900 L8483 900" stroke-width="13"/><path d="M4900 1080 L8483 1080" stroke-width="13"/><path d="M4900 1260 L8483 1260" stroke-width="13"/><g data-id="d1kuj2n1" data-class="layer" class="layer"><g data-id="tn6w9zk" data-class="rest" class="rest"><use href="#E4E5-ia21qep" transform="translate(5080, 900) scale(0.72, 0.72)"/></g><g data-id="yh6za8b" data-class="note" class="note"><g data-class="notehead" class="notehead"><use href="#E0A4-ia21qep" transform="translate(5770, 900) scale(0.72, 0.72)"/></g><g data-id="x6ji8n5" data-class="stem" class="stem"><path d="M5779 928 L5779 1500" stroke-width="18"/><g data-id="ymvny5s" data-class="flag" class="flag"><use href="#E241-ia21qep" transform="translate(5770, 1500) scale(0.72, 0.72)"/></g></g></g><g data-id="z10t1efa" data-class="note" class="note"><g data-class="notehead" class="notehead"><use href="#E0A4-ia21qep" transform="translate(6220, 900) scale(0.72, 0.72)"/></g><g data-id="z7j3c7y" data-class="stem" class="stem"><path d="M6229 928 L6229 1500" stroke-width="18"/><g data-id="a1weso3" data-class="flag" class="flag"><use href="#E241-ia21qep" transform="translate(6220, 1500) scale(0.72, 0.72)"/></g></g></g><g data-id="asjw2x2" data-class="note" class="note"><g data-class="notehead" class="notehead"><use href="#E0A4-ia21qep" transform="translate(6670, 900) scale(0.72, 0.72)"/></g><g data-id="b6zpu8j" data-class="stem" class="stem"><path d="M6679 928 L6679 1500" stroke-width="18"/><g data-id="ciq0qtx" data-class="flag" class="flag"><use href="#E241-ia21qep" transform="translate(6670, 1500) scale(0.72, 0.72)"/></g></g></g><g data-id="bfpg61z" data-class="note" class="note"><g data-class="notehead" class="notehead"><use href="#E0A4-ia21qep" transform="translate(7120, 900) scale(0.72, 0.72)"/></g><g data-id="d16k82ke" data-class="stem" class="stem"><path d="M7129 928 L7129 1500" stroke-width="18"/><g data-id="e12ylpwv" data-class="flag" class="flag"><use href="#E241-ia21qep" transform="translate(7120, 1500) scale(0.72, 0.72)"/></g></g></g><g data-id="c6g0fd0" data-class="note" class="note"><g data-class="notehead" class="notehead"><use href="#E0A4-ia21qep" transform="translate(7570, 900) scale(0.72, 0.72)"/></g><g data-id="frerdkk" data-class="stem" class="stem"><path d="M7579 928 L7579 1500" stroke-width="18"/><g data-id="gfr8s24" data-class="flag" class="flag"><use href="#E241-ia21qep" transform="translate(7570, 1500) scale(0.72, 0.72)"/></g></g></g><g data-id="d1c4j1mp" data-class="note" class="note"><g data-class="notehead" class="notehead"><use href="#E0A4-ia21qep" transform="translate(8020, 900) scale(0.72, 0.72)"/></g><g data-id="hjmb9pm" data-class="stem" class="stem"><path d="M8029 928 L8029 1500" stroke-width="18"/><g data-id="ip396au" data-class="flag" class="flag"><use href="#E241-ia21qep" transform="translate(8020, 1500) scale(0.72, 0.72)"/></g></g></g></g></g><g data-id="jbl3o6z" data-class="barLine" class="barLine"><path d="M8470 540 L8470 1260" stroke-width="27"/></g></g><g data-id="k1cipjvm" data-class="measure" class="measure"><g data-id="eafl3ip" data-class="staff" class="staff"><path d="M8483 540 L11106 540" stroke-width="13"/><path d="M8483 720 L11106 720" stroke-width="13"/><path d="M8483 900 L11106 900" stroke-width="13"/><path d="M8483 1080 L11106 1080" stroke-width="13"/><path d="M8483 1260 L11106 1260" stroke-width="13"/><g data-id="fbqey8f" data-class="layer" class="layer"><g data-id="e577bnd" data-class="note" class="note"><g data-class="notehead" class="notehead"><use href="#E0A3-ia21qep" transform="translate(8663, 810) scale(0.72, 0.72)"/></g><g data-id="jzjrql0" data-class="stem" class="stem"><path d="M8672 835 L8672 1440" stroke-width="18"/></g></g><g data-id="f1tf6v62" data-class="note" class="note"><g data-class="notehead" class="notehead"><use href="#E0A4-ia21qep" transform="translate(9713, 900) scale(0.72, 0.72)"/></g><g data-id="kc1tvkq" data-class="stem" class="stem"><path d="M9722 928 L9722 1500" stroke-width="18"/></g></g><g data-id="g16ubnot" data-class="note" class="note"><g data-class="notehead" class="notehead"><use href="#E0A4-ia21qep" transform="translate(10403, 900) scale(0.72, 0.72)"/></g><g data-id="lqdnk3w" data-class="stem" class="stem"><path d="M10412 928 L10412 1500" stroke-width="18"/></g></g></g></g><g data-id="hdac27n" data-class="fermata" class="fermata"><use href="#E4C0-ia21qep" transform="translate(9610, 493) scale(0.72, 0.72)"/></g><g data-id="sokvp0a" data-class="barLine" class="barLine"><path d="M11093 540 L11093 1260" stroke-width="27"/></g></g><g data-id="n1h8w7qb" data-class="systemMilestoneEnd" class="systemMilestoneEnd m13znbs5"/></g><g data-id="os8crlu" data-class="pageMilestoneEnd" class="pageMilestoneEnd k1f2q2rw"/><g data-id="phf1o3h" data-class="pageMilestoneEnd" class="pageMilestoneEnd j1s7nnq2"/></g></svg></svg>