<svg viewBox="0 0 560 84" version="1.1" xmlns="http://www.w3.org/2000/svg" xmlns:xlink="http://www.w3.org/1999/xlink" overflow="visible" id="w18plt5y"><desc>Engraved by Verovio 5.6.0-85e7620</desc><defs><g id="E050-w18plt5y"><path transform="scale(1,-1)" d="M441 -245c-23 -4 -48 -6 -76 -6c-59 0 -102 7 -130 20c-88 42 -150 93 -187 154c-26 44 -43 103 -48 176c0 6 -1 13 -1 19c0 54 15 111 45 170c29 57 65 106 110 148s96 85 153 127c-3 16 -8 46 -13 92c-4 43 -5 73 -5 89c0 117 16 172 69 257c34 54 64 82 89 82 c21 0 43 -30 69 -92s39 -115 41 -159v-15c0 -109 -21 -162 -67 -241c-13 -20 -63 -90 -98 -118c-13 -9 -25 -19 -37 -29l31 -181c8 1 18 2 28 2c58 0 102 -12 133 -35c59 -43 92 -104 98 -184c1 -7 1 -15 1 -22c0 -123 -87 -209 -181 -248c8 -57 17 -110 25 -162 c5 -31 6 -58 6 -80c0 -30 -5 -53 -14 -70c-35 -64 -88 -99 -158 -103c-5 0 -11 -1 -16 -1c-37 0 -72 10 -108 27c-50 24 -77 59 -80 105v11c0 29 7 55 20 76c18 28 45 42 79 44h6c49 0 93 -42 97 -87v-9c0 -51 -34 -86 -105 -106c17 -24 51 -36 102 -36c62 0 116 43 140 85 c9 16 13 41 13 74c0 20 -1 42 -5 67c-8 53 -18 106 -26 159zM461 939c-95 0 -135 -175 -135 -286c0 -24 2 -48 5 -71c50 39 92 82 127 128c40 53 60 100 60 140v8c-4 53 -22 81 -55 81h-2zM406 119l54 -326c73 25 110 78 110 161c0 7 0 15 -1 23c-7 95 -57 142 -151 142h-12 zM382 117c-72 -2 -128 -47 -128 -120v-7c2 -46 43 -99 75 -115c-3 -2 -7 -5 -10 -10c-70 33 -116 88 -123 172v11c0 68 44 126 88 159c23 17 49 29 78 36l-29 170c-21 -13 -52 -37 -92 -73c-50 -44 -86 -84 -109 -119c-45 -69 -67 -130 -67 -182v-13c5 -68 35 -127 93 -176 s125 -73 203 -73c25 0 50 3 75 9c-19 111 -36 221 -54 331z"/></g><g id="E262-w18plt5y"><path transform="scale(1,-1)" d="M136 186v169h17v-164l44 14v-91l-44 -14v-165l44 12v-91l-44 -13v-155h-17v150l-76 -22v-155h-17v149l-43 -13v90l43 14v167l-43 -14v92l43 13v169h17v-163zM60 73v-167l76 22v168z"/></g><g id="E08A-w18plt5y"><path transform="scale(1,-1)" d="M340 179c-9 24 -56 41 -89 41c-46 0 -81 -28 -100 -58c-17 -28 -25 -78 -25 -150c0 -65 2 -111 8 -135c8 -31 18 -49 40 -67c20 -17 43 -25 70 -25c54 0 92 36 115 75c14 25 23 54 28 88h27c0 -63 -24 -105 -58 -141c-35 -38 -82 -56 -140 -56c-45 0 -83 13 -115 39 c-57 45 -101 130 -101 226c0 59 33 127 68 163c36 37 97 72 160 72c36 0 93 -21 121 -40c11 -8 23 -17 33 -30c19 -23 27 -48 27 -76c0 -51 -35 -88 -86 -88c-43 0 -76 27 -76 68c0 26 7 35 21 51c15 17 32 27 58 32c7 2 14 7 14 11z"/></g><g id="E4E6-w18plt5y"><path transform="scale(1,-1)" d="M0 123c7 34 33 56 69 60c29 -3 43 -9 53 -29c4 -8 7 -15 10 -22c0 -21 -1 -25 -11 -35c-5 -8 -18 -14 -40 -20l12 -3l15 -1c44 0 97 26 122 56c10 11 18 26 24 42c7 1 15 2 22 3l-140 -424h-36l111 330c-10 -6 -27 -12 -53 -16l-52 -8h-10l-20 1c-1 0 -8 3 -21 6 c-37 9 -55 28 -55 60z"/></g><g id="E0A4-w18plt5y"><path transform="scale(1,-1)" d="M0 -39c0 68 73 172 200 172c66 0 114 -37 114 -95c0 -84 -106 -171 -218 -171c-64 0 -96 30 -96 94z"/></g><g id="E240-w18plt5y"><path transform="scale(1,-1)" d="M179 -646c15 29 29 55 46 102c18 49 30 108 30 138c0 105 -80 173 -168 200c-18 5 -47 9 -87 16v190h22c8 0 33 -61 71 -95c4 -3 -2 3 61 -56c62 -58 122 -137 122 -241c0 -38 -13 -106 -35 -163c-20 -51 -43 -99 -66 -132c-6 -5 -10 -7 -13 -7s-5 2 -5 5l4 10 c1 3 14 25 18 33z"/></g><g id="E241-w18plt5y"><path transform="scale(1,-1)" d="M179 646c-4 8 -17 30 -18 33l-4 10c0 3 2 5 5 5s7 -2 13 -7c23 -33 46 -81 66 -132c22 -57 35 -125 35 -163c0 -104 -60 -183 -122 -241c-63 -59 -57 -53 -61 -56c-38 -34 -63 -95 -71 -95h-22v190c40 7 69 11 87 16c88 27 168 95 168 200c0 30 -12 89 -30 138 c-17 47 -31 73 -46 102z"/></g><g id="E242-w18plt5y"><path transform="scale(1,-1)" d="M206 -748c32 48 49 100 49 149c0 89 -55 168 -168 203c-18 5 -47 9 -87 16v190v190h22c8 0 33 -61 71 -95c4 -3 -2 3 61 -56c62 -58 122 -137 122 -241c0 -32 -7 -65 -17 -96c11 -29 17 -60 17 -94c0 -71 -32 -148 -67 -190c-6 -5 -10 -7 -13 -7s-5 2 -5 5l4 10 c1 3 6 8 11 16zM248 -463c4 18 7 38 7 57c0 105 -80 173 -168 200c-11 3 -27 6 -47 9c9 -17 23 -61 53 -88c4 -3 -2 3 61 -56c36 -33 71 -74 94 -122z"/></g><g id="E243-w18plt5y"><path transform="scale(1,-1)" d="M216 730c-5 8 -10 13 -11 16l-4 10c0 3 2 5 5 5s7 -2 13 -7c35 -42 57 -101 57 -172c0 -34 -6 -65 -17 -94c10 -31 17 -64 17 -96c0 -104 -60 -183 -122 -241c-63 -59 -57 -53 -61 -56c-38 -34 -63 -95 -71 -95h-22v190v190c40 7 69 11 87 16c116 36 175 111 175 197 c0 44 -15 91 -46 137zM248 463c-23 -48 -58 -89 -94 -122c-63 -59 -57 -53 -61 -56c-30 -27 -44 -71 -53 -88c20 3 36 6 47 9c88 27 168 95 168 200c0 19 -3 39 -7 57z"/></g></defs><style type="text/css">#w18plt5y g.page-margin {font-family:Times,serif;}#w18plt5y g.ending, #w18plt5y g.fing, #w18plt5y g.reh, #w18plt5y g.tempo {font-weight:bold;}#w18plt5y g.dir, #w18plt5y g.dynam, #w18plt5y g.mNum {font-style:italic;}#w18plt5y g.label {font-weight:normal;}#w18plt5y path {stroke:currentColor}</style><svg class="definition-scale" color="black" viewBox="0 0 14000 2100"><g class="page-margin" transform="translate(0, 150)"><g data-id="wl0jcdm" data-class="mdiv" class="mdiv pageMilestone"/><g data-id="x3jdidb" data-class="score" class="score pageMilestone"/><g data-id="l1masaql" data-class="system" class="system"><g data-id="zil1yy" data-class="section" class="section systemMilestone"/><g data-id="x177uuyl" data-class="measure" class="measure"><g data-id="lo6e10l" data-class="staff" class="staff"><path d="M0 540 L6025 540" stroke-width="13"/><path d="M0 720 L6025 720" stroke-width="13"/><path d="M0 900 L6025 900" stroke-width="13"/><path d="M0 1080 L6025 1080" stroke-width="13"/><path d="M0 1260 L6025 1260" stroke-width="13"/><g data-id="s1kszosk" data-class="clef" class="clef"><use href="#E050-w18plt5y" transform="translate(90, 1080) scale(0.72, 0.72)"/></g><g data-id="t3p2z22" data-class="keySig" class="keySig"><g data-id="u1th5yd8" data-class="keyAccid" class="keyAccid"><use href="#E262-w18plt5y" transform="translate(735, 540) scale(0.72, 0.72)"/></g></g><g data-id="v137ooo9" data-class="meterSig" class="meterSig"><use href="#E08A-w18plt5y" transform="translate(1056, 900) scale(0.72, 0.72)"/></g><g data-id="mtjx1ve" data-class="layer" class="layer"><g data-id="y1t10ap5" data-class="rest" class="rest"><use href="#E4E6-w18plt5y" transform="translate(1637, 900) scale(0.72, 0.72)"/></g><g data-id="a16l5stw" data-class="note" class="note"><g data-class="notehead" class="notehead"><use href="#E0A4-w18plt5y" transform="translate(2118, 1080) scale(0.72, 0.72)"/></g><g data-id="chyp4wt" data-class="stem" class="stem"><path d="M2335 1052 L2335 450" stroke-width="18"/><g data-id="dpcprrw" data-class="flag" class="flag"><use href="#E240-w18plt5y" transform="translate(2326, 450) scale(0.72, 0.72)"/></g></g></g><g data-id="b1r2ecbz" data-class="note" class="note"><g data-class="notehead" class="notehead"><use href="#E0A4-w18plt5y" transform="translate(2648, 900) scale(0.72, 0.72)"/></g><g data-id="ejzcakv" data-class="stem" class="stem"><path d="M2657 928 L2657 1500" stroke-width="18"/><g data-id="f1g3qqws" data-class="flag" class="flag"><use href="#E241-w18plt5y" transform="translate(2648, 1500) scale(0.72, 0.72)"/></g></g></g><g data-id="c1poazi9" data-class="note" class="note"><g data-class="notehead" class="notehead"><use href="#E0A4-w18plt5y" transform="translate(3129, 990) scale(0.72, 0.72)"/></g><g data-id="g159fako" data-class="stem" class="stem"><path d="M3346 962 L3346 360" stroke-width="18"/><g data-id="hmfwdkl" data-class="flag" class="flag"><use href="#E242-w18plt5y" transform="translate(3337, 360) scale(0.72, 0.72)"/></g></g></g><g data-id="d1o8uglm" data-class="note" class="note"><g data-class="notehead" class="notehead"><use href="#E0A4-w18plt5y" transform="translate(3563, 1080) scale(0.72, 0.72)"/></g><g data-id="i9v8ij6" data-class="stem" class="stem"><path d="M3780 1052 L3780 450" stroke-width="18"/><g data-id="j1mok73h" data-class="flag" class="flag"><use href="#E242-w18plt5y" transform="translate(3771, 450) scale(0.72, 0.72)"/></g></g></g><g data-id="e10tc1aq" data-class="note" class="note"><g data-class="notehead" class="notehead"><use href="#E0A4-w18plt5y" transform="translate(4093, 810) scale(0.72, 0.72)"/></g><g data-id="l1kujv5w" data-class="dots" class="dots"><ellipse cx="4409" cy="810" rx="36" ry="36" fill-opacity="1" stroke-opacity="1"/></g><g data-id="kmo9bm3" data-class="stem" class="stem"><path d="M4102 838 L4102 1440" stroke-width="18"/><g data-id="m1sotsys" data-class="flag" class="flag"><use href="#E241-w18plt5y" transform="translate(4093, 1440) scale(0.72, 0.72)"/></g></g></g><g data-id="f1n9vqmz" data-class="note" class="note"><g data-class="notehead" class="notehead"><use href="#E0A4-w18plt5y" transform="translate(4712, 810) scale(0.72, 0.72)"/></g><g data-id="n3z31lb" data-class="stem" class="stem"><path d="M4721 838 L4721 1440" stroke-width="18"/><g data-id="o1mc5xou" data-class="flag" class="flag"><use href="#E243-w18plt5y" transform="translate(4712, 1440) scale(0.72, 0.72)"/></g></g></g><g data-id="gy9jts3" data-class="note" class="note"><g data-class="notehead" class="notehead"><use href="#E0A4-w18plt5y" transform="translate(5050, 810) scale(0.72, 0.72)"/></g><g data-id="p1l4p7ut" data-class="stem" class="stem"><path d="M5059 838 L5059 1440" stroke-width="18"/><g data-id="q1sis4v9" data-class="flag" class="flag"><use href="#E241-w18plt5y" transform="translate(5050, 1440) scale(0.72, 0.72)"/></g></g></g><g data-id="h1yk0hjg" data-class="note" class="note"><g data-class="notehead" class="notehead"><use href="#E0A4-w18plt5y" transform="translate(5531, 630) scale(0.72, 0.72)"/></g><g data-id="rvk74e5" data-class="stem" class="stem"><path d="M5540 658 L5540 1260" stroke-width="18"/><g data-id="s19tkx01" data-class="flag" class="flag"><use href="#E241-w18plt5y" transform="translate(5531, 1260) scale(0.72, 0.72)"/></g></g></g></g></g><g data-id="fx42s9h" data-class="barLine" class="barLine"><path d="M6012 540 L6012 1260" stroke-width="27"/></g></g><g data-id="gvioios" data-class="measure" class="measure"><g data-id="n1bvsuh6" data-class="staff" class="staff"><path d="M6025 540 L9996 540" stroke-width="13"/><path d="M6025 720 L9996 720" stroke-width="13"/><path d="M6025 900 L9996 900" stroke-width="13"/><path d="M6025 1080 L9996 1080" stroke-width="13"/><path d="M6025 1260 L9996 1260" stroke-width="13"/><g data-id="o1gtep11" data-class="layer" class="layer"><g data-id="i5qnhma" data-class="note" class="note"><g data-class="notehead" class="notehead"><use href="#E0A4-w18plt5y" transform="translate(6218, 720) scale(0.72, 0.72)"/></g><g data-id="u4repsz" data-class="dots" class="dots"><ellipse cx="6534" cy="630" rx="36" ry="36" fill-opacity="1" stroke-opacity="1"/></g><g data-id="t1c0bk1n" data-class="stem" class="stem"><path d="M6227 748 L6227 1350" stroke-width="18"/><g data-id="vuiu2o2" data-class="flag" class="flag"><use href="#E241-w18plt5y" transform="translate(6218, 1350) scale(0.72, 0.72)"/></g></g></g><g data-id="j1t58sc1" data-class="note" class="note"><g data-class="notehead" class="notehead"><use href="#E0A4-w18plt5y" transform="translate(6838, 990) scale(0.72, 0.72)"/></g><g data-id="w1b5xver" data-class="stem" class="stem"><path d="M7055 962 L7055 360" stroke-width="18"/><g data-id="x1nt7sly" data-class="flag" class="flag"><use href="#E242-w18plt5y" transform="translate(7046, 360) scale(0.72, 0.72)"/></g></g></g><g data-id="k1ayunsx" data-class="note" class="note"><g data-class="notehead" class="notehead"><use href="#E0A4-w18plt5y" transform="translate(7341, 990) scale(0.72, 0.72)"/></g><g data-id="zmqvnnf" data-class="dots" class="dots"><ellipse cx="7657" cy="990" rx="36" ry="36" fill-opacity="1" stroke-opacity="1"/></g><g data-id="yq9cpsk" data-class="stem" class="stem"><path d="M7558 962 L7558 360" stroke-width="18"/></g></g><g data-id="lmld0er" data-class="note" class="note"><g data-class="notehead" class="notehead"><use href="#E0A4-w18plt5y" transform="translate(8281, 990) scale(0.72, 0.72)"/></g><g data-id="a1idap0d" data-class="stem" class="stem"><path d="M8498 962 L8498 360" stroke-width="18"/><g data-id="b1eh44b5" data-class="flag" class="flag"><use href="#E240-w18plt5y" transform="translate(8489, 360) scale(0.72, 0.72)"/></g></g></g><g data-id="me85iho" data-class="note" class="note"><g data-class="notehead" class="notehead"><use href="#E0A4-w18plt5y" transform="translate(8762, 990) scale(0.72, 0.72)"/></g><g data-id="c1om7zfs" data-class="stem" class="stem"><path d="M8979 962 L8979 360" stroke-width="18"/><g data-id="doavzck" data-class="flag" class="flag"><use href="#E240-w18plt5y" transform="translate(8970, 360) scale(0.72, 0.72)"/></g></g></g><g data-id="n12ejj6o" data-class="note" class="note"><g data-class="notehead" class="notehead"><use href="#E0A4-w18plt5y" transform="translate(9292, 900) scale(0.72, 0.72)"/></g><g data-id="e1kbmgqg" data-class="stem" class="stem"><path d="M9301 928 L9301 1500" stroke-width="18"/><g data-id="f6yz3zh" data-class="flag" class="flag"><use href="#E243-w18plt5y" transform="translate(9292, 1500) scale(0.72, 0.72)"/></g></g></g><g data-id="o15hxeqx" data-class="note" class="note"><g data-class="notehead" class="notehead"><use href="#E0A4-w18plt5y" transform="translate(9630, 810) scale(0.72, 0.72)"/></g><g data-id="gvhpy8q" data-class="stem" class="stem"><path d="M9639 838 L9639 1440" stroke-width="18"/><g data-id="hcrtxz7" data-class="flag" class="flag"><use href="#E243-w18plt5y" transform="translate(9630, 1440) scale(0.72, 0.72)"/></g></g></g></g></g><g data-id="o1bujz19" data-class="barLine" class="barLine"><path d="M9983 540 L9983 1260" stroke-width="27"/></g></g><g data-id="p19l6gz5" data-class="measure" class="measure"><g data-id="peb8sep" data-class="staff" class="staff"><path d="M9996 540 L14002 540" stroke-width="13"/><path d="M9996 720 L14002 720" stroke-width="13"/><path d="M9996 900 L14002 900" stroke-width="13"/><path d="M9996 1080 L14002 1080" stroke-width="13"/><path d="M9996 1260 L14002 1260" stroke-width="13"/><g data-id="qc1u0f" data-class="layer" class="layer"><g data-id="p3scqym" data-class="note" class="note"><g data-class="notehead" class="notehead"><use href="#E0A4-w18plt5y" transform="translate(10189, 810) scale(0.72, 0.72)"/></g><g data-id="i115reiq" data-class="stem" class="stem"><path d="M10198 838 L10198 1440" stroke-width="18"/></g></g><g data-id="q2p7zuk" data-class="note" class="note"><g data-class="notehead" class="notehead"><use href="#E0A4-w18plt5y" transform="translate(10926, 900) scale(0.72, 0.72)"/></g><g data-id="jfd55a6" data-class="stem" class="stem"><path d="M10935 928 L10935 1500" stroke-width="18"/></g></g><g data-id="z11ysu8c" data-class="rest" class="rest"><use href="#E4E6-w18plt5y" transform="translate(11664, 900) scale(0.72, 0.72)"/></g><g data-id="r4pn9w1" data-class="note" class="note"><g data-class="notehead" class="notehead"><use href="#E0A4-w18plt5y" transform="translate(12144, 720) scale(0.72, 0.72)"/></g><g data-id="k177ibz6" data-class="stem" class="stem"><path d="M12153 748 L12153 1350" stroke-width="18"/><g data-id="l1gomf7t" data-class="flag" class="flag"><use href="#E241-w18plt5y" transform="translate(12144, 1350) scale(0.72, 0.72)"/></g></g></g><g data-id="s9vucvz" data-class="note" class="note"><g data-class="notehead" class="notehead"><use href="#E0A4-w18plt5y" transform="translate(12625, 720) scale(0.72, 0.72)"/></g><g data-id="ml7l2fb" data-class="stem" class="stem"><path d="M12634 748 L12634 1350" stroke-width="18"/><g data-id="n1v6f5rx" data-class="flag" class="flag"><use href="#E241-w18plt5y" transform="translate(12625, 1350) scale(0.72, 0.72)"/></g></g></g><g data-id="t1e3fdku" data-class="note" class="note"><g data-class="notehead" class="notehead"><use href="#E0A4-w18plt5y" transform="translate(13106, 900) scale(0.72, 0.72)"/></g><g data-id="o19cwvfi" data-class="stem" class="stem"><path d="M13115 928 L13115 1500" stroke-width="18"/><g data-id="pbd3gry" data-class="flag" class="flag"><use href="#E243-w18plt5y" transform="translate(13106, 1500) scale(0.72, 0.72)"/></g></g></g><g data-id="u1wjxbov" data-class="note" class="note"><g data-class="notehead" class="notehead"><use href="#E0A4-w18plt5y" transform="translate(13444, 990) scale(0.72, 0.72)"/></g><g data-id="q1ifki3p" data-class="stem" class="stem"><path d="M13661 962 L13661 360" stroke-width="18"/><g data-id="r14q9glr" data-class="flag" class="flag"><use href="#E242-w18plt5y" transform="translate(13652, 360) scale(0.72, 0.72)"/></g></g></g></g></g><g data-id="xof87tq" data-class="barLine" class="barLine"><path d="M13989 540 L13989 1260" stroke-width="27"/></g></g><g data-id="ycap3j9" data-class="systemMilestoneEnd" class="systemMilestoneEnd zil1yy"/></g><g data-id="z103nz18" data-class="pageMilestoneEnd" class="pageMilestoneEnd x3jdidb"/><g data-id="ap6ygod" data-class="pageMilestoneEnd" class="pageMilestoneEnd wl0jcdm"/></g></svg></svg>