<svg viewBox="0 0 560 84" version="1.1" xmlns="http://www.w3.org/2000/svg" xmlns:xlink="http://www.w3.org/1999/xlink" overflow="visible" id="u18es6b9"><desc>Engraved by Verovio 5.6.0-85e7620</desc><defs><g id="E050-u18es6b9"><path transform="scale(1,-1)" d="M441 -245c-23 -4 -48 -6 -76 -6c-59 0 -102 7 -130 20c-88 42 -150 93 -187 154c-26 44 -43 103 -48 176c0 6 -1 13 -1 19c0 54 15 111 45 170c29 57 65 106 110 148s96 85 153 127c-3 16 -8 46 -13 92c-4 43 -5 73 -5 89c0 117 16 172 69 257c34 54 64 82 89 82 c21 0 43 -30 69 -92s39 -115 41 -159v-15c0 -109 -21 -162 -67 -241c-13 -20 -63 -90 -98 -118c-13 -9 -25 -19 -37 -29l31 -181c8 1 18 2 28 2c58 0 102 -12 133 -35c59 -43 92 -104 98 -184c1 -7 1 -15 1 -22c0 -123 -87 -209 -181 -248c8 -57 17 -110 25 -162 c5 -31 6 -58 6 -80c0 -30 -5 -53 -14 -70c-35 -64 -88 -99 -158 -103c-5 0 -11 -1 -16 -1c-37 0 -72 10 -108 27c-50 24 -77 59 -80 105v11c0 29 7 55 20 76c18 28 45 42 79 44h6c49 0 93 -42 97 -87v-9c0 -51 -34 -86 -105 -106c17 -24 51 -36 102 -36c62 0 116 43 140 85 c9 16 13 41 13 74c0 20 -1 42 -5 67c-8 53 -18 106 -26 159zM461 939c-95 0 -135 -175 -135 -286c0 -24 2 -48 5 -71c50 39 92 82 127 128c40 53 60 100 60 140v8c-4 53 -22 81 -55 81h-2zM406 119l54 -326c73 25 110 78 110 161c0 7 0 15 -1 23c-7 95 -57 142 -151 142h-12 zM382 117c-72 -2 -128 -47 -128 -120v-7c2 -46 43 -99 75 -115c-3 -2 -7 -5 -10 -10c-70 33 -116 88 -123 172v11c0 68 44 126 88 159c23 17 49 29 78 36l-29 170c-21 -13 -52 -37 -92 -73c-50 -44 -86 -84 -109 -119c-45 -69 -67 -130 -67 -182v-13c5 -68 35 -127 93 -176 s125 -73 203 -73c25 0 50 3 75 9c-19 111 -36 221 -54 331z"/></g><g id="E262-u18es6b9"><path transform="scale(1,-1)" d="M136 186v169h17v-164l44 14v-91l-44 -14v-165l44 12v-91l-44 -13v-155h-17v150l-76 -22v-155h-17v149l-43 -13v90l43 14v167l-43 -14v92l43 13v169h17v-163zM60 73v-167l76 22v168z"/></g><g id="E08B-u18es6b9"><path transform="scale(1,-1)" d="M188 200c-42 -22 -63 -69 -63 -141v-119c0 -39 7 -70 19 -94s26 -40 44 -48v402zM0 -0c0 127 80 220 186 246v72h32l-6 -72c33 0 71 0 101 -11c54 -20 102 -65 102 -135c0 -16 -4 -30 -13 -43s-20 -24 -32 -29l-20 -8l-23 -3c-22 2 -41 8 -55 21s-21 31 -26 51 c0 38 45 80 79 80c12 0 19 3 19 10c0 6 -6 12 -15 18c-19 13 -47 24 -79 24c-10 0 -20 -1 -32 -5v-431c15 -3 12 -4 30 -4c57 0 100 51 121 93l17 39c3 13 5 25 5 35h26c-6 -70 -28 -121 -66 -152s-82 -47 -133 -47v-68h-30v72c-57 10 -122 54 -153 109c-7 12 -13 26 -19 42 c-11 29 -16 61 -16 96z"/></g><g id="E0A3-u18es6b9"><path transform="scale(1,-1)" d="M278 64c0 22 -17 39 -43 39c-12 0 -26 -3 -41 -10c-85 -43 -165 -94 -165 -156c5 -25 15 -32 49 -32c67 11 200 95 200 159zM0 -36c0 68 73 174 200 174c66 0 114 -39 114 -97c0 -84 -106 -173 -218 -173c-64 0 -96 32 -96 96z"/></g><g id="E4C0-u18es6b9"><path transform="scale(1,-1)" d="M0 0c0 0 40 320 300 320s300 -320 300 -320h-32s-38 227 -268 227s-268 -227 -268 -227h-32zM355 52c0 -30 -25 -55 -55 -55s-55 25 -55 55s25 55 55 55s55 -25 55 -55z"/></g></defs><style type="text/css">#u18es6b9 g.page-margin {font-family:Times,serif;}#u18es6b9 g.ending, #u18es6b9 g.fing, #u18es6b9 g.reh, #u18es6b9 g.tempo {font-weight:bold;}#u18es6b9 g.dir, #u18es6b9 g.dynam, #u18es6b9 g.mNum {font-style:italic;}#u18es6b9 g.label {font-weight:normal;}#u18es6b9 path {stroke:currentColor}</style><svg class="definition-scale" color="black" viewBox="0 0 14000 2100"><g class="page-margin" transform="translate(0, 150)"><g data-id="zu7povi" data-class="mdiv" class="mdiv pageMilestone"/><g data-id="a6sbjm0" data-class="score" class="score pageMilestone"/><g data-id="g1o6odsq" data-class="system" class="system"><g data-id="c1eb1ay7" data-class="section" class="section systemMilestone"/><g data-id="v1qow4hv" data-class="measure" class="measure"><g data-id="ow18m70" data-class="staff" class="staff"><path d="M0 540 L2867 540" stroke-width="13"/><path d="M0 720 L2867 720" stroke-width="13"/><path d="M0 900 L2867 900" stroke-width="13"/><path d="M0 1080 L2867 1080" stroke-width="13"/><path d="M0 1260 L2867 1260" stroke-width="13"/><g data-id="m1goyd9s" data-class="clef" class="clef"><use href="#E050-u18es6b9" transform="translate(90, 1080) scale(0.72, 0.72)"/></g><g data-id="nfsxtxa" data-class="keySig" class="keySig"><g data-id="o1lzo4tr" data-class="keyAccid" class="keyAccid"><use href="#E262-u18es6b9" transform="translate(735, 540) scale(0.72, 0.72)"/></g><g data-id="psdjxut" data-class="keyAccid" class="keyAccid"><use href="#E262-u18es6b9" transform="translate(913, 810) scale(0.72, 0.72)"/></g></g><g data-id="q5cidoa" data-class="meterSig" class="meterSig"><use href="#E08B-u18es6b9" transform="translate(1234, 900) scale(0.72, 0.72)"/></g><g data-id="p1167lns" data-class="layer" class="layer"><g data-id="o1rs8ee7" data-class="note" class="note"><g data-class="notehead" class="notehead"><use href="#E0A3-u18es6b9" transform="translate(1804, 990) scale(0.72, 0.72)"/></g><g data-id="kaoyf3p" data-class="stem" class="stem"><path d="M2021 962 L2021 360" stroke-width="18"/></g></g></g></g><g data-id="d1d5qmdh" data-class="barLine" class="barLine"><path d="M2854 540 L2854 1260" stroke-width="27"/></g></g><g data-id="eks4aaj" data-class="measure" class="measure"><g data-id="q63wh30" data-class="staff" class="staff"><path d="M2867 540 L5160 540" stroke-width="13"/><path d="M2867 720 L5160 720" stroke-width="13"/><path d="M2867 900 L5160 900" stroke-width="13"/><path d="M2867 1080 L5160 1080" stroke-width="13"/><path d="M2867 1260 L5160 1260" stroke-width="13"/><g data-id="r1ipviol" data-class="layer" class="layer"><g data-id="p1fyq42p" data-class="note" class="note"><g data-class="notehead" class="notehead"><use href="#E0A3-u18es6b9" transform="translate(3047, 720) scale(0.72, 0.72)"/></g><g data-id="l1mduhjv" data-class="stem" class="stem"><path d="M3056 745 L3056 1350" stroke-width="18"/></g></g><g data-id="qe12btd" data-class="note" class="note"><g data-class="notehead" class="notehead"><use href="#E0A3-u18es6b9" transform="translate(4097, 990) scale(0.72, 0.72)"/></g><g data-id="mwl4vvl" data-class="stem" class="stem"><path d="M4314 962 L4314 360" stroke-width="18"/></g></g></g></g><g data-id="m1wxu5lu" data-class="barLine" class="barLine"><path d="M5147 540 L5147 1260" stroke-width="27"/></g></g><g data-id="n1soa3ws" data-class="measure" class="measure"><g data-id="s1lxsji7" data-class="staff" class="staff"><path d="M5160 540 L7453 540" stroke-width="13"/><path d="M5160 720 L7453 720" stroke-width="13"/><path d="M5160 900 L7453 900" stroke-width="13"/><path d="M5160 1080 L7453 1080" stroke-width="13"/><path d="M5160 1260 L7453 1260" stroke-width="13"/><g data-id="ty53tf5" data-class="layer" class="layer"><g data-id="rlmifjr" data-class="note" class="note"><g data-class="notehead" class="notehead"><use href="#E0A3-u18es6b9" transform="translate(5340, 900) scale(0.72, 0.72)"/></g><g data-id="n1pqhs75" data-class="stem" class="stem"><path d="M5349 925 L5349 1500" stroke-width="18"/></g></g><g data-id="s3xft68" data-class="note" class="note"><g data-class="notehead" class="notehead"><use href="#E0A3-u18es6b9" transform="translate(6390, 990) scale(0.72, 0.72)"/></g><g data-id="o3hd0iy" data-class="stem" class="stem"><path d="M6607 962 L6607 360" stroke-width="18"/></g></g></g></g><g data-id="vl90li4" data-class="barLine" class="barLine"><path d="M7440 540 L7440 1260" stroke-width="27"/></g></g><g data-id="w4oim8z" data-class="measure" class="measure"><g data-id="u13ybkjo" data-class="staff" class="staff"><path d="M7453 540 L9746 540" stroke-width="13"/><path d="M7453 720 L9746 720" stroke-width="13"/><path d="M7453 900 L9746 900" stroke-width="13"/><path d="M7453 1080 L9746 1080" stroke-width="13"/><path d="M7453 1260 L9746 1260" stroke-width="13"/><g data-id="v1v8jv0x" data-class="layer" class="layer"><g data-id="t1eyvpji" data-class="note" class="note"><g data-class="notehead" class="notehead"><use href="#E0A3-u18es6b9" transform="translate(7633, 990) scale(0.72, 0.72)"/></g><g data-id="p3dde6z" data-class="stem" class="stem"><path d="M7850 962 L7850 360" stroke-width="18"/></g></g><g data-id="umv0ywd" data-class="note" class="note"><g data-class="notehead" class="notehead"><use href="#E0A3-u18es6b9" transform="translate(8683, 1080) scale(0.72, 0.72)"/></g><g data-id="qbjtn2z" data-class="stem" class="stem"><path d="M8900 1052 L8900 450" stroke-width="18"/></g></g></g></g><g data-id="ehhsbda" data-class="barLine" class="barLine"><path d="M9733 540 L9733 1260" stroke-width="27"/></g></g><g data-id="fbtvrl4" data-class="measure" class="measure"><g data-id="w1cmjzct" data-class="staff" class="staff"><path d="M9746 540 L10976 540" stroke-width="13"/><path d="M9746 720 L10976 720" stroke-width="13"/><path d="M9746 900 L10976 900" stroke-width="13"/><path d="M9746 1080 L10976 1080" stroke-width="13"/><path d="M9746 1260 L10976 1260" stroke-width="13"/><g data-id="xy0iev9" data-class="layer" class="layer"><g data-id="vjhzhtj" data-class="note" class="note"><g data-class="notehead" class="notehead"><use href="#E0A3-u18es6b9" transform="translate(9926, 1170) scale(0.72, 0.72)"/></g><g data-id="r1lvr3by" data-class="stem" class="stem"><path d="M10143 1142 L10143 540" stroke-width="18"/></g><g data-id="xvqhiqo" data-class="accid" class="accid"/></g></g></g><g data-id="w1j99w4g" data-class="fermata" class="fermata"><use href="#E4C0-u18es6b9" transform="translate(9823, 484) scale(0.72, 0.72)"/></g><g data-id="nm7chun" data-class="barLine" class="barLine"/></g><g data-id="fqh1rtb" data-class="systemMilestoneEnd" class="systemMilestoneEnd c1eb1ay7"/></g><g data-id="g1u61jx4" data-class="pageMilestoneEnd" class="pageMilestoneEnd a6sbjm0"/><g data-id="hqp1wvo" data-class="pageMilestoneEnd" class="pageMilestoneEnd zu7povi"/></g></svg></svg>