<svg viewBox="0 0 560 84" version="1.1" xmlns="http://www.w3.org/2000/svg" xmlns:xlink="http://www.w3.org/1999/xlink" overflow="visible" id="r1wdr6pv"><desc>Engraved by Verovio 5.6.0-85e7620</desc><defs><g id="E050-r1wdr6pv"><path transform="scale(1,-1)" d="M441 -245c-23 -4 -48 -6 -76 -6c-59 0 -102 7 -130 20c-88 42 -150 93 -187 154c-26 44 -43 103 -48 176c0 6 -1 13 -1 19c0 54 15 111 45 170c29 57 65 106 110 148s96 85 153 127c-3 16 -8 46 -13 92c-4 43 -5 73 -5 89c0 117 16 172 69 257c34 54 64 82 89 82 c21 0 43 -30 69 -92s39 -115 41 -159v-15c0 -109 -21 -162 -67 -241c-13 -20 -63 -90 -98 -118c-13 -9 -25 -19 -37 -29l31 -181c8 1 18 2 28 2c58 0 102 -12 133 -35c59 -43 92 -104 98 -184c1 -7 1 -15 1 -22c0 -123 -87 -209 -181 -248c8 -57 17 -110 25 -162 c5 -31 6 -58 6 -80c0 -30 -5 -53 -14 -70c-35 -64 -88 -99 -158 -103c-5 0 -11 -1 -16 -1c-37 0 -72 10 -108 27c-50 24 -77 59 -80 105v11c0 29 7 55 20 76c18 28 45 42 79 44h6c49 0 93 -42 97 -87v-9c0 -51 -34 -86 -105 -106c17 -24 51 -36 102 -36c62 0 116 43 140 85 c9 16 13 41 13 74c0 20 -1 42 -5 67c-8 53 -18 106 -26 159zM461 939c-95 0 -135 -175 -135 -286c0 -24 2 -48 5 -71c50 39 92 82 127 128c40 53 60 100 60 140v8c-4 53 -22 81 -55 81h-2zM406 119l54 -326c73 25 110 78 110 161c0 7 0 15 -1 23c-7 95 -57 142 -151 142h-12 zM382 117c-72 -2 -128 -47 -128 -120v-7c2 -46 43 -99 75 -115c-3 -2 -7 -5 -10 -10c-70 33 -116 88 -123 172v11c0 68 44 126 88 159c23 17 49 29 78 36l-29 170c-21 -13 -52 -37 -92 -73c-50 -44 -86 -84 -109 -119c-45 -69 -67 -130 -67 -182v-13c5 -68 35 -127 93 -176 s125 -73 203 -73c25 0 50 3 75 9c-19 111 -36 221 -54 331z"/></g><g id="E262-r1wdr6pv"><path transform="scale(1,-1)" d="M136 186v169h17v-164l44 14v-91l-44 -14v-165l44 12v-91l-44 -13v-155h-17v150l-76 -22v-155h-17v149l-43 -13v90l43 14v167l-43 -14v92l43 13v169h17v-163zM60 73v-167l76 22v168z"/></g><g id="E08A-r1wdr6pv"><path transform="scale(1,-1)" d="M340 179c-9 24 -56 41 -89 41c-46 0 -81 -28 -100 -58c-17 -28 -25 -78 -25 -150c0 -65 2 -111 8 -135c8 -31 18 -49 40 -67c20 -17 43 -25 70 -25c54 0 92 36 115 75c14 25 23 54 28 88h27c0 -63 -24 -105 -58 -141c-35 -38 -82 -56 -140 -56c-45 0 -83 13 -115 39 c-57 45 -101 130 -101 226c0 59 33 127 68 163c36 37 97 72 160 72c36 0 93 -21 121 -40c11 -8 23 -17 33 -30c19 -23 27 -48 27 -76c0 -51 -35 -88 -86 -88c-43 0 -76 27 -76 68c0 26 7 35 21 51c15 17 32 27 58 32c7 2 14 7 14 11z"/></g><g id="E0A4-r1wdr6pv"><path transform="scale(1,-1)" d="M0 -39c0 68 73 172 200 172c66 0 114 -37 114 -95c0 -84 -106 -171 -218 -171c-64 0 -96 30 -96 94z"/></g><g id="E243-r1wdr6pv"><path transform="scale(1,-1)" d="M216 730c-5 8 -10 13 -11 16l-4 10c0 3 2 5 5 5s7 -2 13 -7c35 -42 57 -101 57 -172c0 -34 -6 -65 -17 -94c10 -31 17 -64 17 -96c0 -104 -60 -183 -122 -241c-63 -59 -57 -53 -61 -56c-38 -34 -63 -95 -71 -95h-22v190v190c40 7 69 11 87 16c116 36 175 111 175 197 c0 44 -15 91 -46 137zM248 463c-23 -48 -58 -89 -94 -122c-63 -59 -57 -53 -61 -56c-30 -27 -44 -71 -53 -88c20 3 36 6 47 9c88 27 168 95 168 200c0 19 -3 39 -7 57z"/></g><g id="E4E7-r1wdr6pv"><path transform="scale(1,-1)" d="M133 -111c0 -33 -21 -50 -52 -55c10 -3 18 -4 25 -4c40 0 69 24 90 47l66 197c-36 -18 -64 -25 -112 -25c-23 0 -38 3 -45 8c-37 7 -55 27 -55 59c8 35 30 54 68 58c45 -6 49 -13 64 -48c0 -3 1 -5 1 -7c0 -27 -25 -46 -52 -49c6 -4 15 -6 26 -6c32 2 62 14 88 29 c32 19 44 36 59 71l7 1l10 2h4c-72 -220 -143 -439 -215 -659h-37l108 324c-20 -13 -51 -20 -82 -20c-21 0 -35 4 -43 10c-37 6 -55 26 -55 58c8 35 31 56 68 60c43 -8 48 -13 64 -51z"/></g><g id="E4E6-r1wdr6pv"><path transform="scale(1,-1)" d="M0 123c7 34 33 56 69 60c29 -3 43 -9 53 -29c4 -8 7 -15 10 -22c0 -21 -1 -25 -11 -35c-5 -8 -18 -14 -40 -20l12 -3l15 -1c44 0 97 26 122 56c10 11 18 26 24 42c7 1 15 2 22 3l-140 -424h-36l111 330c-10 -6 -27 -12 -53 -16l-52 -8h-10l-20 1c-1 0 -8 3 -21 6 c-37 9 -55 28 -55 60z"/></g><g id="E242-r1wdr6pv"><path transform="scale(1,-1)" d="M206 -748c32 48 49 100 49 149c0 89 -55 168 -168 203c-18 5 -47 9 -87 16v190v190h22c8 0 33 -61 71 -95c4 -3 -2 3 61 -56c62 -58 122 -137 122 -241c0 -32 -7 -65 -17 -96c11 -29 17 -60 17 -94c0 -71 -32 -148 -67 -190c-6 -5 -10 -7 -13 -7s-5 2 -5 5l4 10 c1 3 6 8 11 16zM248 -463c4 18 7 38 7 57c0 105 -80 173 -168 200c-11 3 -27 6 -47 9c9 -17 23 -61 53 -88c4 -3 -2 3 61 -56c36 -33 71 -74 94 -122z"/></g></defs><style type="text/css">#r1wdr6pv g.page-margin {font-family:Times,serif;}#r1wdr6pv g.ending, #r1wdr6pv g.fing, #r1wdr6pv g.reh, #r1wdr6pv g.tempo {font-weight:bold;}#r1wdr6pv g.dir, #r1wdr6pv g.dynam, #r1wdr6pv g.mNum {font-style:italic;}#r1wdr6pv g.label {font-weight:normal;}#r1wdr6pv path {stroke:currentColor}</style><svg class="definition-scale" color="black" viewBox="0 0 14000 2100"><g class="page-margin" transform="translate(0, 150)"><g data-id="jv1t0qc" data-class="mdiv" class="mdiv pageMilestone"/><g data-id="k174z3qf" data-class="score" class="score pageMilestone"/><g data-id="y1g0pnbd" data-class="system" class="system"><g data-id="m1bdfie0" data-class="section" class="section systemMilestone"/><g data-id="s8654c1" data-class="measure" class="measure"><g data-id="y16rg4l1" data-class="staff" class="staff"><path d="M0 540 L8233 540" stroke-width="13"/><path d="M0 720 L8233 720" stroke-width="13"/><path d="M0 900 L8233 900" stroke-width="13"/><path d="M0 1080 L8233 1080" stroke-width="13"/><path d="M0 1260 L8233 1260" stroke-width="13"/><g data-id="k1nmr2dv" data-class="clef" class="clef"><use href="#E050-r1wdr6pv" transform="translate(90, 1080) scale(0.72, 0.72)"/></g><g data-id="l1i988mv" data-class="keySig" class="keySig"><g data-id="m1uy8280" data-class="keyAccid" class="keyAccid"><use href="#E262-r1wdr6pv" transform="translate(735, 540) scale(0.72, 0.72)"/></g><g data-id="n1e63278" data-class="keyAccid" class="keyAccid"><use href="#E262-r1wdr6pv" transform="translate(913, 810) scale(0.72, 0.72)"/></g><g data-id="o1k2zat0" data-class="keyAccid" class="keyAccid"><use href="#E262-r1wdr6pv" transform="translate(1091, 450) scale(0.72, 0.72)"/></g><g data-id="p5qycp5" data-class="keyAccid" class="keyAccid"><use href="#E262-r1wdr6pv" transform="translate(1269, 720) scale(0.72, 0.72)"/></g><g data-id="q1sz74pi" data-class="keyAccid" class="keyAccid"><use href="#E262-r1wdr6pv" transform="translate(1447, 990) scale(0.72, 0.72)"/></g></g><g data-id="r10bo69e" data-class="meterSig" class="meterSig"><use href="#E08A-r1wdr6pv" transform="translate(1768, 900) scale(0.72, 0.72)"/></g><g data-id="z1929re7" data-class="layer" class="layer"><g data-id="oibxhfp" data-class="note" class="note"><g data-class="notehead" class="notehead"><use href="#E0A4-r1wdr6pv" transform="translate(2357, 720) scale(0.72, 0.72)"/></g><g data-id="xxn2zs5" data-class="stem" class="stem"><path d="M2366 748 L2366 1350" stroke-width="18"/><g data-id="y1g53zsw" data-class="flag" class="flag"><use href="#E243-r1wdr6pv" transform="translate(2357, 1350) scale(0.72, 0.72)"/></g></g><g data-id="p1sjxkn" data-class="accid" class="accid"/></g><g data-id="ljf1srv" data-class="rest" class="rest"><use href="#E4E7-r1wdr6pv" transform="translate(2754, 900) scale(0.72, 0.72)"/></g><g data-id="m1a41jgu" data-class="rest" class="rest"><use href="#E4E6-r1wdr6pv" transform="translate(3150, 900) scale(0.72, 0.72)"/></g><g data-id="p8d54z8" data-class="note" class="note"><g data-class="notehead" class="notehead"><use href="#E0A4-r1wdr6pv" transform="translate(3745, 810) scale(0.72, 0.72)"/></g><g data-id="z8ly3u1" data-class="stem" class="stem"><path d="M3754 838 L3754 1440" stroke-width="18"/><g data-id="a2ri1mn" data-class="flag" class="flag"><use href="#E243-r1wdr6pv" transform="translate(3745, 1440) scale(0.72, 0.72)"/></g></g><g data-id="q5mwwoe" data-class="accid" class="accid"/></g><g data-id="n14fslt5" data-class="rest" class="rest"><use href="#E4E7-r1wdr6pv" transform="translate(4142, 900) scale(0.72, 0.72)"/></g><g data-id="oa9r1v0" data-class="rest" class="rest"><use href="#E4E6-r1wdr6pv" transform="translate(4539, 900) scale(0.72, 0.72)"/></g><g data-id="qiu653p" data-class="note" class="note"><g data-class="notehead" class="notehead"><use href="#E0A4-r1wdr6pv" transform="translate(5134, 990) scale(0.72, 0.72)"/></g><g data-id="b1dh6meg" data-class="stem" class="stem"><path d="M5351 962 L5351 360" stroke-width="18"/><g data-id="ctvxk8g" data-class="flag" class="flag"><use href="#E242-r1wdr6pv" transform="translate(5342, 360) scale(0.72, 0.72)"/></g></g><g data-id="r1hwdxbd" data-class="accid" class="accid"/></g><g data-id="pkrqts6" data-class="rest" class="rest"><use href="#E4E7-r1wdr6pv" transform="translate(5685, 900) scale(0.72, 0.72)"/></g><g data-id="q1un07ke" data-class="rest" class="rest"><use href="#E4E6-r1wdr6pv" transform="translate(6082, 900) scale(0.72, 0.72)"/></g><g data-id="r1xcd57b" data-class="rest" class="rest"><use href="#E4E6-r1wdr6pv" transform="translate(6677, 900) scale(0.72, 0.72)"/></g><g data-id="rv6y4pb" data-class="note" class="note"><g data-class="notehead" class="notehead"><use href="#E0A4-r1wdr6pv" transform="translate(7272, 1170) scale(0.72, 0.72)"/></g><g data-id="d14nxg6d" data-class="stem" class="stem"><path d="M7489 1142 L7489 540" stroke-width="18"/><g data-id="e1d6iyfz" data-class="flag" class="flag"><use href="#E242-r1wdr6pv" transform="translate(7480, 540) scale(0.72, 0.72)"/></g></g><g data-id="s1mbb2q5" data-class="accid" class="accid"/></g><g data-id="scpptqg" data-class="rest" class="rest"><use href="#E4E7-r1wdr6pv" transform="translate(7823, 900) scale(0.72, 0.72)"/></g></g></g><g data-id="a1ud2kp9" data-class="barLine" class="barLine"><path d="M8220 540 L8220 1260" stroke-width="27"/></g></g><g data-id="b19vm3fs" data-class="measure" class="measure"><g data-id="a1hx19e6" data-class="staff" class="staff"><path d="M8233 540 L14001 540" stroke-width="13"/><path d="M8233 720 L14001 720" stroke-width="13"/><path d="M8233 900 L14001 900" stroke-width="13"/><path d="M8233 1080 L14001 1080" stroke-width="13"/><path d="M8233 1260 L14001 1260" stroke-width="13"/><g data-id="b15t9h17" data-class="layer" class="layer"><g data-id="s1vhpnp9" data-class="note" class="note"><g data-class="notehead" class="notehead"><use href="#E0A4-r1wdr6pv" transform="translate(8434, 900) scale(0.72, 0.72)"/></g><g data-id="f1biv4vp" data-class="stem" class="stem"><path d="M8443 928 L8443 1500" stroke-width="18"/><g data-id="g1jeqt92" data-class="flag" class="flag"><use href="#E243-r1wdr6pv" transform="translate(8434, 1500) scale(0.72, 0.72)"/></g></g></g><g data-id="t1sia1hy" data-class="rest" class="rest"><use href="#E4E7-r1wdr6pv" transform="translate(8831, 900) scale(0.72, 0.72)"/></g><g data-id="u1e203cj" data-class="rest" class="rest"><use href="#E4E6-r1wdr6pv" transform="translate(9227, 900) scale(0.72, 0.72)"/></g><g data-id="t1b58suh" data-class="note" class="note"><g data-class="notehead" class="notehead"><use href="#E0A4-r1wdr6pv" transform="translate(9822, 810) scale(0.72, 0.72)"/></g><g data-id="h1wash2t" data-class="stem" class="stem"><path d="M9831 838 L9831 1440" stroke-width="18"/><g data-id="i1pzq5x2" data-class="flag" class="flag"><use href="#E243-r1wdr6pv" transform="translate(9822, 1440) scale(0.72, 0.72)"/></g></g><g data-id="ty4u7tr" data-class="accid" class="accid"/></g><g data-id="vkdlaof" data-class="rest" class="rest"><use href="#E4E7-r1wdr6pv" transform="translate(10219, 900) scale(0.72, 0.72)"/></g><g data-id="w1n1r2op" data-class="rest" class="rest"><use href="#E4E6-r1wdr6pv" transform="translate(10616, 900) scale(0.72, 0.72)"/></g><g data-id="um7svm6" data-class="note" class="note"><g data-class="notehead" class="notehead"><use href="#E0A4-r1wdr6pv" transform="translate(11211, 720) scale(0.72, 0.72)"/></g><g data-id="j1fvnrei" data-class="stem" class="stem"><path d="M11220 748 L11220 1350" stroke-width="18"/><g data-id="k1xsey4p" data-class="flag" class="flag"><use href="#E243-r1wdr6pv" transform="translate(11211, 1350) scale(0.72, 0.72)"/></g></g><g data-id="ueab3r1" data-class="accid" class="accid"/></g><g data-id="xh2oael" data-class="rest" class="rest"><use href="#E4E7-r1wdr6pv" transform="translate(11608, 900) scale(0.72, 0.72)"/></g><g data-id="y1mgzdai" data-class="rest" class="rest"><use href="#E4E6-r1wdr6pv" transform="translate(12005, 900) scale(0.72, 0.72)"/></g><g data-id="zrh9paq" data-class="rest" class="rest"><use href="#E4E6-r1wdr6pv" transform="translate(12599, 900) scale(0.72, 0.72)"/></g><g data-id="v10wb7ya" data-class="note" class="note"><g data-class="notehead" class="notehead"><use href="#E0A4-r1wdr6pv" transform="translate(13194, 900) scale(0.72, 0.72)"/></g><g data-id="l136t1qb" data-class="stem" class="stem"><path d="M13203 928 L13203 1500" stroke-width="18"/><g data-id="m1uut0wb" data-class="flag" class="flag"><use href="#E243-r1wdr6pv" transform="translate(13194, 1500) scale(0.72, 0.72)"/></g></g></g><g data-id="a8pru1a" data-class="rest" class="rest"><use href="#E4E7-r1wdr6pv" transform="translate(13591, 900) scale(0.72, 0.72)"/></g></g></g><g data-id="j1lfz25n" data-class="barLine" class="barLine"><path d="M13988 540 L13988 1260" stroke-width="27"/></g></g></g></g></svg></svg>