<svg viewBox="0 0 560 84" version="1.1" xmlns="http://www.w3.org/2000/svg" xmlns:xlink="http://www.w3.org/1999/xlink" overflow="visible" id="g1je5fm6"><desc>Engraved by Verovio 5.6.0-85e7620</desc><defs><g id="E050-g1je5fm6"><path transform="scale(1,-1)" d="M441 -245c-23 -4 -48 -6 -76 -6c-59 0 -102 7 -130 20c-88 42 -150 93 -187 154c-26 44 -43 103 -48 176c0 6 -1 13 -1 19c0 54 15 111 45 170c29 57 65 106 110 148s96 85 153 127c-3 16 -8 46 -13 92c-4 43 -5 73 -5 89c0 117 16 172 69 257c34 54 64 82 89 82 c21 0 43 -30 69 -92s39 -115 41 -159v-15c0 -109 -21 -162 -67 -241c-13 -20 -63 -90 -98 -118c-13 -9 -25 -19 -37 -29l31 -181c8 1 18 2 28 2c58 0 102 -12 133 -35c59 -43 92 -104 98 -184c1 -7 1 -15 1 -22c0 -123 -87 -209 -181 -248c8 -57 17 -110 25 -162 c5 -31 6 -58 6 -80c0 -30 -5 -53 -14 -70c-35 -64 -88 -99 -158 -103c-5 0 -11 -1 -16 -1c-37 0 -72 10 -108 27c-50 24 -77 59 -80 105v11c0 29 7 55 20 76c18 28 45 42 79 44h6c49 0 93 -42 97 -87v-9c0 -51 -34 -86 -105 -106c17 -24 51 -36 102 -36c62 0 116 43 140 85 c9 16 13 41 13 74c0 20 -1 42 -5 67c-8 53 -18 106 -26 159zM461 939c-95 0 -135 -175 -135 -286c0 -24 2 -48 5 -71c50 39 92 82 127 128c40 53 60 100 60 140v8c-4 53 -22 81 -55 81h-2zM406 119l54 -326c73 25 110 78 110 161c0 7 0 15 -1 23c-7 95 -57 142 -151 142h-12 zM382 117c-72 -2 -128 -47 -128 -120v-7c2 -46 43 -99 75 -115c-3 -2 -7 -5 -10 -10c-70 33 -116 88 -123 172v11c0 68 44 126 88 159c23 17 49 29 78 36l-29 170c-21 -13 -52 -37 -92 -73c-50 -44 -86 -84 -109 -119c-45 -69 -67 -130 -67 -182v-13c5 -68 35 -127 93 -176 s125 -73 203 -73c25 0 50 3 75 9c-19 111 -36 221 -54 331z"/></g><g id="E260-g1je5fm6"><path transform="scale(1,-1)" d="M20 110c32 16 54 27 93 27c26 0 35 -3 54 -13c13 -7 24 -20 27 -38l4 -25c0 -28 -16 -57 -45 -89c-23 -25 -39 -44 -65 -68l-88 -79v644h20v-359zM90 106c-32 0 -48 -10 -70 -29v-194c31 31 54 59 71 84c21 32 32 59 32 84c0 9 1 16 1 20c0 14 -3 21 -11 30l-8 3z"/></g><g id="E08A-g1je5fm6"><path transform="scale(1,-1)" d="M340 179c-9 24 -56 41 -89 41c-46 0 -81 -28 -100 -58c-17 -28 -25 -78 -25 -150c0 -65 2 -111 8 -135c8 -31 18 -49 40 -67c20 -17 43 -25 70 -25c54 0 92 36 115 75c14 25 23 54 28 88h27c0 -63 -24 -105 -58 -141c-35 -38 -82 -56 -140 -56c-45 0 -83 13 -115 39 c-57 45 -101 130 -101 226c0 59 33 127 68 163c36 37 97 72 160 72c36 0 93 -21 121 -40c11 -8 23 -17 33 -30c19 -23 27 -48 27 -76c0 -51 -35 -88 -86 -88c-43 0 -76 27 -76 68c0 26 7 35 21 51c15 17 32 27 58 32c7 2 14 7 14 11z"/></g><g id="E0A3-g1je5fm6"><path transform="scale(1,-1)" d="M278 64c0 22 -17 39 -43 39c-12 0 -26 -3 -41 -10c-85 -43 -165 -94 -165 -156c5 -25 15 -32 49 -32c67 11 200 95 200 159zM0 -36c0 68 73 174 200 174c66 0 114 -39 114 -97c0 -84 -106 -173 -218 -173c-64 0 -96 32 -96 96z"/></g><g id="E0A4-g1je5fm6"><path transform="scale(1,-1)" d="M0 -39c0 68 73 172 200 172c66 0 114 -37 114 -95c0 -84 -106 -171 -218 -171c-64 0 -96 30 -96 94z"/></g></defs><style type="text/css">#g1je5fm6 g.page-margin {font-family:Times,serif;}#g1je5fm6 g.ending, #g1je5fm6 g.fing, #g1je5fm6 g.reh, #g1je5fm6 g.tempo {font-weight:bold;}#g1je5fm6 g.dir, #g1je5fm6 g.dynam, #g1je5fm6 g.mNum {font-style:italic;}#g1je5fm6 g.label {font-weight:normal;}#g1je5fm6 path {stroke:currentColor}</style><svg class="definition-scale" color="black" viewBox="0 0 14000 2100"><g class="page-margin" transform="translate(0, 150)"><g data-id="i5jhebt" data-class="mdiv" class="mdiv pageMilestone"/><g data-id="j11ncs6m" data-class="score" class="score pageMilestone"/><g data-id="cfj2sq8" data-class="system" class="system"><g data-id="l1z0alj4" data-class="section" class="section systemMilestone"/><g data-id="h1oejfb0" data-class="measure" class="measure"><g data-id="xgkpu25" data-class="staff" class="staff"><path d="M0 540 L4028 540" stroke-width="13"/><path d="M0 720 L4028 720" stroke-width="13"/><path d="M0 900 L4028 900" stroke-width="13"/><path d="M0 1080 L4028 1080" stroke-width="13"/><path d="M0 1260 L4028 1260" stroke-width="13"/><g data-id="h1421vqx" data-class="clef" class="clef"><use href="#E050-g1je5fm6" transform="translate(90, 1080) scale(0.72, 0.72)"/></g><g data-id="ix2ehzz" data-class="keySig" class="keySig"><g data-id="jeswd1g" data-class="keyAccid" class="keyAccid"><use href="#E260-g1je5fm6" transform="translate(735, 900) scale(0.72, 0.72)"/></g><g data-id="k1yp8alh" data-class="keyAccid" class="keyAccid"><use href="#E260-g1je5fm6" transform="translate(915, 630) scale(0.72, 0.72)"/></g><g data-id="l1jt7pbs" data-class="keyAccid" class="keyAccid"><use href="#E260-g1je5fm6" transform="translate(1095, 990) scale(0.72, 0.72)"/></g></g><g data-id="mkv2pwb" data-class="meterSig" class="meterSig"><use href="#E08A-g1je5fm6" transform="translate(1417, 900) scale(0.72, 0.72)"/></g><g data-id="y1idfp0p" data-class="layer" class="layer"><g data-id="rj6uhyl" data-class="note" class="note"><g data-class="notehead" class="notehead"><use href="#E0A3-g1je5fm6" transform="translate(1985, 1260) scale(0.72, 0.72)"/></g><g data-id="tkfaic8" data-class="dots" class="dots"><ellipse cx="2301" cy="1170" rx="36" ry="36" fill-opacity="1" stroke-opacity="1"/></g><g data-id="sio6yj4" data-class="stem" class="stem"><path d="M2202 1232 L2202 630" stroke-width="18"/></g><g data-id="b1ri46f5" data-class="accid" class="accid"/></g><g data-id="s1nry0ks" data-class="note" class="note"><g data-class="notehead" class="notehead"><use href="#E0A4-g1je5fm6" transform="translate(3325, 1170) scale(0.72, 0.72)"/></g><g data-id="u1thpmzm" data-class="stem" class="stem"><path d="M3542 1142 L3542 540" stroke-width="18"/></g></g></g></g><g data-id="p86la9w" data-class="barLine" class="barLine"><path d="M4015 540 L4015 1260" stroke-width="27"/></g></g><g data-id="qk6a0uw" data-class="measure" class="measure"><g data-id="zjesb7t" data-class="staff" class="staff"><path d="M4028 540 L6981 540" stroke-width="13"/><path d="M4028 720 L6981 720" stroke-width="13"/><path d="M4028 900 L6981 900" stroke-width="13"/><path d="M4028 1080 L6981 1080" stroke-width="13"/><path d="M4028 1260 L6981 1260" stroke-width="13"/><g data-id="a1wtjkir" data-class="layer" class="layer"><g data-id="ttwrvm4" data-class="note" class="note"><g data-class="notehead" class="notehead"><use href="#E0A4-g1je5fm6" transform="translate(4208, 1080) scale(0.72, 0.72)"/></g><g data-id="v1frxbwf" data-class="stem" class="stem"><path d="M4425 1052 L4425 450" stroke-width="18"/></g></g><g data-id="uzg5uz8" data-class="note" class="note"><g data-class="notehead" class="notehead"><use href="#E0A4-g1je5fm6" transform="translate(4898, 990) scale(0.72, 0.72)"/></g><g data-id="w1rijziz" data-class="stem" class="stem"><path d="M5115 962 L5115 360" stroke-width="18"/></g><g data-id="cog6mdp" data-class="accid" class="accid"/></g><g data-id="v1gb8yy8" data-class="note" class="note"><g data-class="notehead" class="notehead"><use href="#E0A4-g1je5fm6" transform="translate(5588, 900) scale(0.72, 0.72)"/></g><g data-id="xaso9ds" data-class="stem" class="stem"><path d="M5597 928 L5597 1500" stroke-width="18"/></g><g data-id="d1lg8oe6" data-class="accid" class="accid"/></g><g data-id="w1z0jr4w" data-class="note" class="note"><g data-class="notehead" class="notehead"><use href="#E0A4-g1je5fm6" transform="translate(6278, 810) scale(0.72, 0.72)"/></g><g data-id="y1et9yng" data-class="stem" class="stem"><path d="M6287 838 L6287 1440" stroke-width="18"/></g></g></g></g><g data-id="y1hxkz8u" data-class="barLine" class="barLine"><path d="M6968 540 L6968 1260" stroke-width="27"/></g></g><g data-id="z1b43jvk" data-class="measure" class="measure"><g data-id="btw4ts1" data-class="staff" class="staff"><path d="M6981 540 L9604 540" stroke-width="13"/><path d="M6981 720 L9604 720" stroke-width="13"/><path d="M6981 900 L9604 900" stroke-width="13"/><path d="M6981 1080 L9604 1080" stroke-width="13"/><path d="M6981 1260 L9604 1260" stroke-width="13"/><g data-id="clymwzm" data-class="layer" class="layer"><g data-id="x1pdae1j" data-class="note" class="note"><g data-class="notehead" class="notehead"><use href="#E0A3-g1je5fm6" transform="translate(7161, 630) scale(0.72, 0.72)"/></g><g data-id="za5lobj" data-class="stem" class="stem"><path d="M7170 655 L7170 1260" stroke-width="18"/></g><g data-id="e86im1a" data-class="accid" class="accid"/></g><g data-id="y4s5ady" data-class="note" class="note"><g data-class="notehead" class="notehead"><use href="#E0A4-g1je5fm6" transform="translate(8211, 810) scale(0.72, 0.72)"/></g><g data-id="ach16nc" data-class="stem" class="stem"><path d="M8220 838 L8220 1440" stroke-width="18"/></g></g><g data-id="zg9zyud" data-class="note" class="note"><g data-class="notehead" class="notehead"><use href="#E0A4-g1je5fm6" transform="translate(8901, 630) scale(0.72, 0.72)"/></g><g data-id="b2mwt0b" data-class="stem" class="stem"><path d="M8910 658 L8910 1260" stroke-width="18"/></g><g data-id="fwn0mk3" data-class="accid" class="accid"/></g></g></g><g data-id="huad250" data-class="barLine" class="barLine"><path d="M9591 540 L9591 1260" stroke-width="27"/></g></g><g data-id="is0g24m" data-class="measure" class="measure"><g data-id="d1hmczjz" data-class="staff" class="staff"><path d="M9604 540 L10834 540" stroke-width="13"/><path d="M9604 720 L10834 720" stroke-width="13"/><path d="M9604 900 L10834 900" stroke-width="13"/><path d="M9604 1080 L10834 1080" stroke-width="13"/><path d="M9604 1260 L10834 1260" stroke-width="13"/><g data-id="et8j5va" data-class="layer" class="layer"><g data-id="a1y2ndis" data-class="note" class="note"><g data-class="notehead" class="notehead"><use href="#E0A3-g1je5fm6" transform="translate(9784, 900) scale(0.72, 0.72)"/></g><g data-id="cwff1ln" data-class="stem" class="stem"><path d="M9793 925 L9793 1500" stroke-width="18"/></g><g data-id="g5bp18m" data-class="accid" class="accid"/></g></g></g><g data-id="qm7lea8" data-class="barLine" class="barLine"/></g><g data-id="mq2vw98" data-class="systemMilestoneEnd" class="systemMilestoneEnd l1z0alj4"/></g><g data-id="naqc8ev" data-class="pageMilestoneEnd" class="pageMilestoneEnd j11ncs6m"/><g data-id="o5ljpz4" data-class="pageMilestoneEnd" class="pageMilestoneEnd i5jhebt"/></g></svg></svg>