<svg viewBox="0 0 560 84" version="1.1" xmlns="http://www.w3.org/2000/svg" xmlns:xlink="http://www.w3.org/1999/xlink" overflow="visible" id="nm2zwpp"><desc>Engraved by Verovio 5.6.0-85e7620</desc><defs><g id="E05C-nm2zwpp"><path transform="scale(1,-1)" d="M175 502h43v-456c10 5 18 12 37 29c16 19 22 27 27 38s8 24 14 49c3 22 5 43 5 62c7 -34 31 -54 73 -60c73 18 99 61 100 165c0 46 -10 78 -31 100c-18 23 -41 35 -69 35c-40 0 -65 -32 -66 -84c6 12 11 16 39 24c5 0 2 1 16 -4l17 -10l10 -14l7 -18 c-4 -32 -23 -48 -56 -48c-51 0 -77 33 -77 98c10 35 16 47 30 61c9 9 15 14 23 17c3 3 22 9 27 11l34 3l35 2c123 0 192 -64 192 -178l1 -33c0 -52 -20 -97 -60 -134c-18 -15 -42 -28 -74 -39c-30 -9 -63 -13 -101 -13l-93 -88v-34l93 -88c38 0 71 -4 101 -13 c32 -11 56 -24 74 -39c40 -37 60 -82 60 -134l-3 -33c0 -115 -68 -178 -190 -178l-35 2l-34 3c-5 2 -24 8 -27 11c-26 11 -40 32 -53 78c0 65 26 98 77 98c33 0 52 -16 56 -48l-7 -18l-10 -14l-17 -10c-14 -5 -11 -4 -16 -4c-28 8 -33 12 -39 24c1 -52 26 -84 66 -84 c28 0 51 12 69 35c21 22 31 54 31 100c-1 104 -27 147 -100 165c-42 -6 -66 -26 -73 -60c0 19 -2 40 -5 62c-6 25 -9 38 -14 49s-11 19 -27 38c-19 17 -27 24 -37 29v-456h-43v1004zM0 502h118v-1004h-118v1004z"/></g><g id="E08A-nm2zwpp"><path transform="scale(1,-1)" d="M340 179c-9 24 -56 41 -89 41c-46 0 -81 -28 -100 -58c-17 -28 -25 -78 -25 -150c0 -65 2 -111 8 -135c8 -31 18 -49 40 -67c20 -17 43 -25 70 -25c54 0 92 36 115 75c14 25 23 54 28 88h27c0 -63 -24 -105 -58 -141c-35 -38 -82 -56 -140 -56c-45 0 -83 13 -115 39 c-57 45 -101 130 -101 226c0 59 33 127 68 163c36 37 97 72 160 72c36 0 93 -21 121 -40c11 -8 23 -17 33 -30c19 -23 27 -48 27 -76c0 -51 -35 -88 -86 -88c-43 0 -76 27 -76 68c0 26 7 35 21 51c15 17 32 27 58 32c7 2 14 7 14 11z"/></g><g id="E0A2-nm2zwpp"><path transform="scale(1,-1)" d="M198 133c102 0 207 -45 207 -133c0 -92 -118 -133 -227 -133c-101 0 -178 46 -178 133c0 88 93 133 198 133zM293 -21c0 14 -3 29 -8 44c-7 20 -18 38 -33 54c-20 21 -43 31 -68 31l-20 -2c-15 -5 -27 -14 -36 -28c-4 -9 -6 -17 -8 -24s-3 -16 -3 -27c0 -15 3 -34 9 -57 s18 -41 34 -55c15 -15 36 -23 62 -23c4 0 10 1 18 2c19 5 32 15 40 30s13 34 13 55z"/></g><g id="E0A3-nm2zwpp"><path transform="scale(1,-1)" d="M278 64c0 22 -17 39 -43 39c-12 0 -26 -3 -41 -10c-85 -43 -165 -94 -165 -156c5 -25 15 -32 49 -32c67 11 200 95 200 159zM0 -36c0 68 73 174 200 174c66 0 114 -39 114 -97c0 -84 -106 -173 -218 -173c-64 0 -96 32 -96 96z"/></g><g id="E262-nm2zwpp"><path transform="scale(1,-1)" d="M136 186v169h17v-164l44 14v-91l-44 -14v-165l44 12v-91l-44 -13v-155h-17v150l-76 -22v-155h-17v149l-43 -13v90l43 14v167l-43 -14v92l43 13v169h17v-163zM60 73v-167l76 22v168z"/></g></defs><style type="text/css">#nm2zwpp g.page-margin {font-family:Times,serif;}#nm2zwpp g.ending, #nm2zwpp g.fing, #nm2zwpp g.reh, #nm2zwpp g.tempo {font-weight:bold;}#nm2zwpp g.dir, #nm2zwpp g.dynam, #nm2zwpp g.mNum {font-style:italic;}#nm2zwpp g.label {font-weight:normal;}#nm2zwpp path {stroke:currentColor}</style><svg class="definition-scale" color="black" viewBox="0 0 14000 2100"><g class="page-margin" transform="translate(0, 150)"><g data-id="c18d49xn" data-class="mdiv" class="mdiv pageMilestone"/><g data-id="dg8z00e" data-class="score" class="score pageMilestone"/><g data-id="uqb6rv6" data-class="system" class="system"><g data-id="fqc5jof" data-class="section" class="section systemMilestone"/><g data-id="o19qighe" data-class="measure" class="measure"><g data-id="r15rhxm0" data-class="staff" class="staff"><path d="M0 540 L6440 540" stroke-width="13"/><path d="M0 720 L6440 720" stroke-width="13"/><path d="M0 900 L6440 900" stroke-width="13"/><path d="M0 1080 L6440 1080" stroke-width="13"/><path d="M0 1260 L6440 1260" stroke-width="13"/><g data-id="m12k67t2" data-class="clef" class="clef"><use href="#E05C-nm2zwpp" transform="translate(90, 720) scale(0.72, 0.72)"/></g><g data-id="n1am7h51" data-class="keySig" class="keySig"/><g data-id="o70kha9" data-class="meterSig" class="meterSig"><use href="#E08A-nm2zwpp" transform="translate(706, 900) scale(0.72, 0.72)"/></g><g data-id="s89hezm" data-class="layer" class="layer"><g data-id="p1g0bhbs" data-class="note" class="note"><g data-class="notehead" class="notehead"><use href="#E0A2-nm2zwpp" transform="translate(1286, 810) scale(0.72, 0.72)"/></g></g><g data-id="qp7c687" data-class="note" class="note"><g data-class="notehead" class="notehead"><use href="#E0A3-nm2zwpp" transform="translate(3501, 810) scale(0.72, 0.72)"/></g><g data-id="i1t916pf" data-class="stem" class="stem"><path d="M3510 835 L3510 1440" stroke-width="18"/></g></g><g data-id="riyk0ph" data-class="note" class="note"><g data-class="notehead" class="notehead"><use href="#E0A3-nm2zwpp" transform="translate(4964, 810) scale(0.72, 0.72)"/></g><g data-id="jvvosjg" data-class="stem" class="stem"><path d="M4973 835 L4973 1440" stroke-width="18"/></g></g></g></g><g data-id="w1btu9az" data-class="barLine" class="barLine"><path d="M6427 540 L6427 1260" stroke-width="27"/></g></g><g data-id="x1gjkhi4" data-class="measure" class="measure"><g data-id="t1xjqkpg" data-class="staff" class="staff"><path d="M6440 540 L14001 540" stroke-width="13"/><path d="M6440 720 L14001 720" stroke-width="13"/><path d="M6440 900 L14001 900" stroke-width="13"/><path d="M6440 1080 L14001 1080" stroke-width="13"/><path d="M6440 1260 L14001 1260" stroke-width="13"/><g data-id="uir532c" data-class="layer" class="layer"><g data-id="ss4erq5" data-class="note" class="note"><g data-class="notehead" class="notehead"><use href="#E0A2-nm2zwpp" transform="translate(6632, 720) scale(0.72, 0.72)"/></g></g><g data-id="ta5ufkv" data-class="note" class="note"><g data-class="notehead" class="notehead"><use href="#E0A3-nm2zwpp" transform="translate(8847, 720) scale(0.72, 0.72)"/></g><g data-id="l9zstze" data-class="stem" class="stem"><path d="M8856 745 L8856 1350" stroke-width="18"/></g><g data-id="z1gaqqcx" data-class="accid" class="accid"><use href="#E262-nm2zwpp" transform="translate(8661, 720) scale(0.72, 0.72)"/></g></g><g data-id="uv76yii" data-class="note" class="note"><g data-class="notehead" class="notehead"><use href="#E0A2-nm2zwpp" transform="translate(10310, 630) scale(0.72, 0.72)"/></g></g><g data-id="v1ddkjnj" data-class="note" class="note"><g data-class="notehead" class="notehead"><use href="#E0A3-nm2zwpp" transform="translate(12525, 630) scale(0.72, 0.72)"/></g><g data-id="ni3801z" data-class="stem" class="stem"><path d="M12534 655 L12534 1260" stroke-width="18"/></g><g data-id="a1dzri6v" data-class="accid" class="accid"><use href="#E262-nm2zwpp" transform="translate(12339, 630) scale(0.72, 0.72)"/></g></g></g></g><g data-id="fgz9219" data-class="barLine" class="barLine"><path d="M13988 540 L13988 1260" stroke-width="27"/></g></g></g></g></svg></svg>