<svg viewBox="0 0 560 84" version="1.1" xmlns="http://www.w3.org/2000/svg" xmlns:xlink="http://www.w3.org/1999/xlink" overflow="visible" id="q188dd3d"><desc>Engraved by Verovio 5.6.0-85e7620</desc><defs><g id="E05C-q188dd3d"><path transform="scale(1,-1)" d="M175 502h43v-456c10 5 18 12 37 29c16 19 22 27 27 38s8 24 14 49c3 22 5 43 5 62c7 -34 31 -54 73 -60c73 18 99 61 100 165c0 46 -10 78 -31 100c-18 23 -41 35 -69 35c-40 0 -65 -32 -66 -84c6 12 11 16 39 24c5 0 2 1 16 -4l17 -10l10 -14l7 -18 c-4 -32 -23 -48 -56 -48c-51 0 -77 33 -77 98c10 35 16 47 30 61c9 9 15 14 23 17c3 3 22 9 27 11l34 3l35 2c123 0 192 -64 192 -178l1 -33c0 -52 -20 -97 -60 -134c-18 -15 -42 -28 -74 -39c-30 -9 -63 -13 -101 -13l-93 -88v-34l93 -88c38 0 71 -4 101 -13 c32 -11 56 -24 74 -39c40 -37 60 -82 60 -134l-3 -33c0 -115 -68 -178 -190 -178l-35 2l-34 3c-5 2 -24 8 -27 11c-26 11 -40 32 -53 78c0 65 26 98 77 98c33 0 52 -16 56 -48l-7 -18l-10 -14l-17 -10c-14 -5 -11 -4 -16 -4c-28 8 -33 12 -39 24c1 -52 26 -84 66 -84 c28 0 51 12 69 35c21 22 31 54 31 100c-1 104 -27 147 -100 165c-42 -6 -66 -26 -73 -60c0 19 -2 40 -5 62c-6 25 -9 38 -14 49s-11 19 -27 38c-19 17 -27 24 -37 29v-456h-43v1004zM0 502h118v-1004h-118v1004z"/></g><g id="E260-q188dd3d"><path transform="scale(1,-1)" d="M20 110c32 16 54 27 93 27c26 0 35 -3 54 -13c13 -7 24 -20 27 -38l4 -25c0 -28 -16 -57 -45 -89c-23 -25 -39 -44 -65 -68l-88 -79v644h20v-359zM90 106c-32 0 -48 -10 -70 -29v-194c31 31 54 59 71 84c21 32 32 59 32 84c0 9 1 16 1 20c0 14 -3 21 -11 30l-8 3z"/></g><g id="E08A-q188dd3d"><path transform="scale(1,-1)" d="M340 179c-9 24 -56 41 -89 41c-46 0 -81 -28 -100 -58c-17 -28 -25 -78 -25 -150c0 -65 2 -111 8 -135c8 -31 18 -49 40 -67c20 -17 43 -25 70 -25c54 0 92 36 115 75c14 25 23 54 28 88h27c0 -63 -24 -105 -58 -141c-35 -38 -82 -56 -140 -56c-45 0 -83 13 -115 39 c-57 45 -101 130 -101 226c0 59 33 127 68 163c36 37 97 72 160 72c36 0 93 -21 121 -40c11 -8 23 -17 33 -30c19 -23 27 -48 27 -76c0 -51 -35 -88 -86 -88c-43 0 -76 27 -76 68c0 26 7 35 21 51c15 17 32 27 58 32c7 2 14 7 14 11z"/></g><g id="E0A4-q188dd3d"><path transform="scale(1,-1)" d="M0 -39c0 68 73 172 200 172c66 0 114 -37 114 -95c0 -84 -106 -171 -218 -171c-64 0 -96 30 -96 94z"/></g></defs><style type="text/css">#q188dd3d g.page-margin {font-family:Times,serif;}#q188dd3d g.ending, #q188dd3d g.fing, #q188dd3d g.reh, #q188dd3d g.tempo {font-weight:bold;}#q188dd3d g.dir, #q188dd3d g.dynam, #q188dd3d g.mNum {font-style:italic;}#q188dd3d g.label {font-weight:normal;}#q188dd3d path {stroke:currentColor}</style><svg class="definition-scale" color="black" viewBox="0 0 14000 2100"><g class="page-margin" transform="translate(0, 150)"><g data-id="g1wf5ghs" data-class="mdiv" class="mdiv pageMilestone"/><g data-id="h1c67onn" data-class="score" class="score pageMilestone"/><g data-id="v1yuv3es" data-class="system" class="system"><g data-id="jmprisn" data-class="section" class="section systemMilestone"/><g data-id="rn81jg1" data-class="measure" class="measure"><g data-id="vugbhy4" data-class="staff" class="staff"><path d="M0 540 L5569 540" stroke-width="13"/><path d="M0 720 L5569 720" stroke-width="13"/><path d="M0 900 L5569 900" stroke-width="13"/><path d="M0 1080 L5569 1080" stroke-width="13"/><path d="M0 1260 L5569 1260" stroke-width="13"/><g data-id="a1u81dfx" data-class="clef" class="clef"><use href="#E05C-q188dd3d" transform="translate(90, 900) scale(0.72, 0.72)"/></g><g data-id="b1l2bat5" data-class="keySig" class="keySig"><g data-id="c1e99agm" data-class="keyAccid" class="keyAccid"><use href="#E260-q188dd3d" transform="translate(706, 990) scale(0.72, 0.72)"/></g><g data-id="dkkl3vf" data-class="keyAccid" class="keyAccid"><use href="#E260-q188dd3d" transform="translate(886, 720) scale(0.72, 0.72)"/></g><g data-id="e14im50u" data-class="keyAccid" class="keyAccid"><use href="#E260-q188dd3d" transform="translate(1066, 1080) scale(0.72, 0.72)"/></g></g><g data-id="f1g38l7b" data-class="meterSig" class="meterSig"><use href="#E08A-q188dd3d" transform="translate(1388, 900) scale(0.72, 0.72)"/></g><g data-id="w1d6mpee" data-class="layer" class="layer"><g data-id="x6o4m25" data-class="beam" class="beam"><polygon stroke-opacity="1" fill-opacity="1" points="2164,540 3532,540 3532,630 2164,630"/><g data-id="j6ncr95" data-class="note" class="note"><g data-class="notehead" class="notehead"><use href="#E0A4-q188dd3d" transform="translate(1956, 1170) scale(0.72, 0.72)"/></g><g data-id="mr5oq6y" data-class="stem" class="stem"><path d="M2173 1142 L2173 558" stroke-width="18"/></g></g><g data-id="k1t6q5v7" data-class="note" class="note"><g data-class="notehead" class="notehead"><use href="#E0A4-q188dd3d" transform="translate(2406, 1350) scale(0.72, 0.72)"/></g><g data-id="n5s0o8p" data-class="stem" class="stem"><path d="M2623 1322 L2623 558" stroke-width="18"/></g><g data-id="b1ufecwo" data-class="accid" class="accid"/></g><g data-id="l5jzhqj" data-class="note" class="note"><g data-class="notehead" class="notehead"><use href="#E0A4-q188dd3d" transform="translate(2856, 1350) scale(0.72, 0.72)"/></g><g data-id="ol9zjk3" data-class="stem" class="stem"><path d="M3073 1322 L3073 558" stroke-width="18"/></g><g data-id="ce4xuik" data-class="accid" class="accid"/></g><g data-id="m1s5lv78" data-class="note" class="note"><g data-class="notehead" class="notehead"><use href="#E0A4-q188dd3d" transform="translate(3306, 1170) scale(0.72, 0.72)"/></g><g data-id="pcg7q6i" data-class="stem" class="stem"><path d="M3523 1142 L3523 558" stroke-width="18"/></g></g></g><g data-id="ystw1bj" data-class="beam" class="beam"><polygon stroke-opacity="1" fill-opacity="1" points="3964,495 5332,540 5332,630 3964,585"/><g data-id="n12l9pxe" data-class="note" class="note"><g data-class="notehead" class="notehead"><use href="#E0A4-q188dd3d" transform="translate(3756, 1170) scale(0.72, 0.72)"/></g><g data-id="q1gagraf" data-class="stem" class="stem"><path d="M3973 1142 L3973 513" stroke-width="18"/></g></g><g data-id="oovlptd" data-class="note" class="note"><g data-class="notehead" class="notehead"><use href="#E0A4-q188dd3d" transform="translate(4206, 1260) scale(0.72, 0.72)"/></g><g data-id="r1hwho86" data-class="stem" class="stem"><path d="M4423 1232 L4423 528" stroke-width="18"/></g></g><g data-id="psz2pmq" data-class="note" class="note"><g data-class="notehead" class="notehead"><use href="#E0A4-q188dd3d" transform="translate(4656, 1350) scale(0.72, 0.72)"/></g><g data-id="s1skrmg8" data-class="stem" class="stem"><path d="M4873 1322 L4873 543" stroke-width="18"/></g><g data-id="d1w3769c" data-class="accid" class="accid"/></g><g data-id="q19soq67" data-class="note" class="note"><g data-class="notehead" class="notehead"><use href="#E0A4-q188dd3d" transform="translate(5106, 1260) scale(0.72, 0.72)"/></g><g data-id="t157y1xz" data-class="stem" class="stem"><path d="M5323 1232 L5323 558" stroke-width="18"/></g></g></g></g></g><g data-id="z1f5tqrz" data-class="barLine" class="barLine"><path d="M5556 540 L5556 1260" stroke-width="27"/></g></g><g data-id="a13vl8nf" data-class="measure" class="measure"><g data-id="x1gjh0sg" data-class="staff" class="staff"><path d="M5569 540 L8449 540" stroke-width="13"/><path d="M5569 720 L8449 720" stroke-width="13"/><path d="M5569 900 L8449 900" stroke-width="13"/><path d="M5569 1080 L8449 1080" stroke-width="13"/><path d="M5569 1260 L8449 1260" stroke-width="13"/><g data-id="yol7pn9" data-class="layer" class="layer"><g data-id="z12rbe3h" data-class="beam" class="beam"><polygon stroke-opacity="1" fill-opacity="1" points="5957,450 7325,270 7325,360 5957,540"/><g data-id="rkf1nau" data-class="note" class="note"><g data-class="notehead" class="notehead"><use href="#E0A4-q188dd3d" transform="translate(5749, 1170) scale(0.72, 0.72)"/></g><g data-id="uhzt1zk" data-class="stem" class="stem"><path d="M5966 1142 L5966 468" stroke-width="18"/></g></g><g data-id="sv1es2w" data-class="note" class="note"><g data-class="notehead" class="notehead"><use href="#E0A4-q188dd3d" transform="translate(6199, 900) scale(0.72, 0.72)"/></g><g data-id="vg7ui90" data-class="stem" class="stem"><path d="M6416 872 L6416 408" stroke-width="18"/></g></g><g data-id="t1nymk3o" data-class="note" class="note"><g data-class="notehead" class="notehead"><use href="#E0A4-q188dd3d" transform="translate(6649, 900) scale(0.72, 0.72)"/></g><g data-id="w1wo0l9s" data-class="stem" class="stem"><path d="M6866 872 L6866 348" stroke-width="18"/></g></g><g data-id="u1a10b63" data-class="note" class="note"><g data-class="notehead" class="notehead"><use href="#E0A4-q188dd3d" transform="translate(7099, 810) scale(0.72, 0.72)"/></g><g data-id="xbrdmjo" data-class="stem" class="stem"><path d="M7316 782 L7316 288" stroke-width="18"/></g></g></g><g data-id="awyksgv" data-class="beam" class="beam"><polygon stroke-opacity="1" fill-opacity="1" points="7757,135 8225,180 8225,270 7757,225"/><g data-id="v1q2y48v" data-class="note" class="note"><g data-class="notehead" class="notehead"><use href="#E0A4-q188dd3d" transform="translate(7549, 720) scale(0.72, 0.72)"/></g><g data-id="y1q7zuex" data-class="stem" class="stem"><path d="M7766 692 L7766 153" stroke-width="18"/></g><g data-id="e1xtc7kc" data-class="accid" class="accid"/></g><g data-id="wdut5gw" data-class="note" class="note"><g data-class="notehead" class="notehead"><use href="#E0A4-q188dd3d" transform="translate(7999, 1170) scale(0.72, 0.72)"/></g><g data-id="z198qzhs" data-class="stem" class="stem"><path d="M8216 1142 L8216 198" stroke-width="18"/></g></g></g></g></g><g data-id="i104uiy1" data-class="barLine" class="barLine"/></g><g data-id="g1512eva" data-class="systemMilestoneEnd" class="systemMilestoneEnd jmprisn"/></g><g data-id="hr4id7y" data-class="pageMilestoneEnd" class="pageMilestoneEnd h1c67onn"/><g data-id="i1vgf7wm" data-class="pageMilestoneEnd" class="pageMilestoneEnd g1wf5ghs"/></g></svg></svg>