<svg viewBox="0 0 560 84" version="1.1" xmlns="http://www.w3.org/2000/svg" xmlns:xlink="http://www.w3.org/1999/xlink" overflow="visible" id="g1t8zlcq"><desc>Engraved by Verovio 5.6.0-85e7620</desc><defs><g id="E050-g1t8zlcq"><path transform="scale(1,-1)" d="M441 -245c-23 -4 -48 -6 -76 -6c-59 0 -102 7 -130 20c-88 42 -150 93 -187 154c-26 44 -43 103 -48 176c0 6 -1 13 -1 19c0 54 15 111 45 170c29 57 65 106 110 148s96 85 153 127c-3 16 -8 46 -13 92c-4 43 -5 73 -5 89c0 117 16 172 69 257c34 54 64 82 89 82 c21 0 43 -30 69 -92s39 -115 41 -159v-15c0 -109 -21 -162 -67 -241c-13 -20 -63 -90 -98 -118c-13 -9 -25 -19 -37 -29l31 -181c8 1 18 2 28 2c58 0 102 -12 133 -35c59 -43 92 -104 98 -184c1 -7 1 -15 1 -22c0 -123 -87 -209 -181 -248c8 -57 17 -110 25 -162 c5 -31 6 -58 6 -80c0 -30 -5 -53 -14 -70c-35 -64 -88 -99 -158 -103c-5 0 -11 -1 -16 -1c-37 0 -72 10 -108 27c-50 24 -77 59 -80 105v11c0 29 7 55 20 76c18 28 45 42 79 44h6c49 0 93 -42 97 -87v-9c0 -51 -34 -86 -105 -106c17 -24 51 -36 102 -36c62 0 116 43 140 85 c9 16 13 41 13 74c0 20 -1 42 -5 67c-8 53 -18 106 -26 159zM461 939c-95 0 -135 -175 -135 -286c0 -24 2 -48 5 -71c50 39 92 82 127 128c40 53 60 100 60 140v8c-4 53 -22 81 -55 81h-2zM406 119l54 -326c73 25 110 78 110 161c0 7 0 15 -1 23c-7 95 -57 142 -151 142h-12 zM382 117c-72 -2 -128 -47 -128 -120v-7c2 -46 43 -99 75 -115c-3 -2 -7 -5 -10 -10c-70 33 -116 88 -123 172v11c0 68 44 126 88 159c23 17 49 29 78 36l-29 170c-21 -13 -52 -37 -92 -73c-50 -44 -86 -84 -109 -119c-45 -69 -67 -130 -67 -182v-13c5 -68 35 -127 93 -176 s125 -73 203 -73c25 0 50 3 75 9c-19 111 -36 221 -54 331z"/></g><g id="E262-g1t8zlcq"><path transform="scale(1,-1)" d="M136 186v169h17v-164l44 14v-91l-44 -14v-165l44 12v-91l-44 -13v-155h-17v150l-76 -22v-155h-17v149l-43 -13v90l43 14v167l-43 -14v92l43 13v169h17v-163zM60 73v-167l76 22v168z"/></g><g id="E083-g1t8zlcq"><path transform="scale(1,-1)" d="M208 250c97 0 177 -52 177 -116c0 -69 -40 -111 -118 -125c56 -5 125 -44 125 -116c0 -31 -10 -57 -31 -78c-19 -21 -45 -38 -78 -49l-50 -11c-15 -3 -36 -7 -55 -7c-50 0 -86 16 -113 38c-16 10 -23 18 -34 34c-7 13 -11 25 -11 38c0 43 27 83 68 83l3 -2 c61 0 75 -42 75 -70c0 -19 -24 -42 -26 -57c7 -17 20 -25 37 -25c44 0 94 29 94 78c0 75 -34 125 -138 125v36c84 0 131 22 131 98c0 54 -37 88 -87 88c-26 0 -43 -7 -51 -22c15 -22 44 -16 44 -70c0 -37 -37 -62 -71 -62c-22 0 -69 15 -69 76c0 79 101 116 178 116z"/></g><g id="E084-g1t8zlcq"><path transform="scale(1,-1)" d="M20 -78c84 97 114 180 134 329h170c-13 -32 -82 -132 -99 -151l-84 -97c-33 -36 -59 -63 -80 -81h162v102l127 123v-225h57v-39h-57v-34c0 -43 19 -65 57 -65v-34h-244v36c48 0 60 26 60 70v27h-203v39z"/></g><g id="E0A4-g1t8zlcq"><path transform="scale(1,-1)" d="M0 -39c0 68 73 172 200 172c66 0 114 -37 114 -95c0 -84 -106 -171 -218 -171c-64 0 -96 30 -96 94z"/></g></defs><style type="text/css">#g1t8zlcq g.page-margin {font-family:Times,serif;}#g1t8zlcq g.ending, #g1t8zlcq g.fing, #g1t8zlcq g.reh, #g1t8zlcq g.tempo {font-weight:bold;}#g1t8zlcq g.dir, #g1t8zlcq g.dynam, #g1t8zlcq g.mNum {font-style:italic;}#g1t8zlcq g.label {font-weight:normal;}#g1t8zlcq path {stroke:currentColor}</style><svg class="definition-scale" color="black" viewBox="0 0 14000 2100"><g class="page-margin" transform="translate(0, 150)"><g data-id="qikrlla" data-class="mdiv" class="mdiv pageMilestone"/><g data-id="rthhekb" data-class="score" class="score pageMilestone"/><g data-id="poe3nha" data-class="system" class="system"><g data-id="t1kupxuw" data-class="section" class="section systemMilestone"/><g data-id="h1ewryt7" data-class="measure" class="measure"><g data-id="f38bkwe" data-class="staff" class="staff"><path d="M0 540 L2695 540" stroke-width="13"/><path d="M0 720 L2695 720" stroke-width="13"/><path d="M0 900 L2695 900" stroke-width="13"/><path d="M0 1080 L2695 1080" stroke-width="13"/><path d="M0 1260 L2695 1260" stroke-width="13"/><g data-id="vzg5eat" data-class="clef" class="clef"><use href="#E050-g1t8zlcq" transform="translate(90, 1080) scale(0.72, 0.72)"/></g><g data-id="whhqm0b" data-class="keySig" class="keySig"><g data-id="x1xicmmv" data-class="keyAccid" class="keyAccid"><use href="#E262-g1t8zlcq" transform="translate(735, 540) scale(0.72, 0.72)"/></g><g data-id="ykp23t4" data-class="keyAccid" class="keyAccid"><use href="#E262-g1t8zlcq" transform="translate(913, 810) scale(0.72, 0.72)"/></g></g><g data-id="zvava1t" data-class="meterSig" class="meterSig"><use href="#E083-g1t8zlcq" transform="translate(1226, 720) scale(0.72, 0.72)"/><use href="#E084-g1t8zlcq" transform="translate(1220, 1080) scale(0.72, 0.72)"/></g><g data-id="gfhqg4p" data-class="layer" class="layer"><g data-id="h14q61ma" data-class="beam" class="beam"><polygon stroke-opacity="1" fill-opacity="1" points="1782,1395 2250,1350 2250,1260 1782,1305"/><g data-id="r9dcrcr" data-class="note" class="note"><g data-class="notehead" class="notehead"><use href="#E0A4-g1t8zlcq" transform="translate(1782, 720) scale(0.72, 0.72)"/></g><g data-id="z22bfsv" data-class="stem" class="stem"><path d="M1791 748 L1791 1377" stroke-width="18"/></g></g><g data-id="st2j8u7" data-class="note" class="note"><g data-class="notehead" class="notehead"><use href="#E0A4-g1t8zlcq" transform="translate(2232, 630) scale(0.72, 0.72)"/></g><g data-id="a1xaufrg" data-class="stem" class="stem"><path d="M2241 658 L2241 1332" stroke-width="18"/></g></g></g></g></g><g data-id="pjh45uu" data-class="barLine" class="barLine"><path d="M2682 540 L2682 1260" stroke-width="27"/></g></g><g data-id="q16h23mt" data-class="measure" class="measure"><g data-id="hj957ml" data-class="staff" class="staff"><path d="M2695 540 L5118 540" stroke-width="13"/><path d="M2695 720 L5118 720" stroke-width="13"/><path d="M2695 900 L5118 900" stroke-width="13"/><path d="M2695 1080 L5118 1080" stroke-width="13"/><path d="M2695 1260 L5118 1260" stroke-width="13"/><g data-id="i1f8dlur" data-class="layer" class="layer"><g data-id="t15ae6mk" data-class="note" class="note"><g data-class="notehead" class="notehead"><use href="#E0A4-g1t8zlcq" transform="translate(2875, 540) scale(0.72, 0.72)"/></g><g data-id="c1rcsb69" data-class="dots" class="dots"><ellipse cx="3191" cy="450" rx="36" ry="36" fill-opacity="1" stroke-opacity="1"/></g><g data-id="bk4tq1c" data-class="stem" class="stem"><path d="M2884 568 L2884 1170" stroke-width="18"/></g><g data-id="l1f00bj2" data-class="accid" class="accid"/></g><g data-id="iy8t3s7" data-class="beam" class="beam"><polygon stroke-opacity="1" fill-opacity="1" points="3755,1260 4673,1080 4673,990 3755,1170"/><g data-id="u1o2tc6b" data-class="note" class="note"><g data-class="notehead" class="notehead"><use href="#E0A4-g1t8zlcq" transform="translate(3755, 630) scale(0.72, 0.72)"/></g><g data-id="dcceydp" data-class="stem" class="stem"><path d="M3764 658 L3764 1242" stroke-width="18"/></g></g><g data-id="v1jkk0ei" data-class="note" class="note"><g data-class="notehead" class="notehead"><use href="#E0A4-g1t8zlcq" transform="translate(4205, 540) scale(0.72, 0.72)"/></g><g data-id="e1pniscc" data-class="stem" class="stem"><path d="M4214 568 L4214 1152" stroke-width="18"/></g><g data-id="m16bwm2v" data-class="accid" class="accid"/></g><g data-id="w4wqo2c" data-class="note" class="note"><g data-class="notehead" class="notehead"><use href="#E0A4-g1t8zlcq" transform="translate(4655, 450) scale(0.72, 0.72)"/></g><g data-id="f43xbuu" data-class="stem" class="stem"><path d="M4664 478 L4664 1062" stroke-width="18"/></g></g></g></g></g><g data-id="y1p8lp0n" data-class="barLine" class="barLine"><path d="M5105 540 L5105 1260" stroke-width="27"/></g></g><g data-id="z1vucsmg" data-class="measure" class="measure"><g data-id="j17yqaby" data-class="staff" class="staff"><path d="M5118 540 L7541 540" stroke-width="13"/><path d="M5118 720 L7541 720" stroke-width="13"/><path d="M5118 900 L7541 900" stroke-width="13"/><path d="M5118 1080 L7541 1080" stroke-width="13"/><path d="M5118 1260 L7541 1260" stroke-width="13"/><g data-class="ledgerLines" class="ledgerLines above"><g data-class="lineDash" class="lineDash" data-related="#xrghxep"><path d="M5250 360 L5572 360" stroke-width="22"/></g></g><g data-id="kqc91lg" data-class="layer" class="layer"><g data-id="xrghxep" data-class="note" class="note"><g data-class="notehead" class="notehead"><use href="#E0A4-g1t8zlcq" transform="translate(5298, 360) scale(0.72, 0.72)"/></g><g data-id="h3sqdmm" data-class="dots" class="dots"><ellipse cx="5614" cy="270" rx="36" ry="36" fill-opacity="1" stroke-opacity="1"/></g><g data-id="g1tmlmiv" data-class="stem" class="stem"><path d="M5307 388 L5307 990" stroke-width="18"/></g></g><g data-id="j4nsaoo" data-class="beam" class="beam"><polygon stroke-opacity="1" fill-opacity="1" points="6178,1080 7096,1260 7096,1170 6178,990"/><g data-id="y4jvqbf" data-class="note" class="note"><g data-class="notehead" class="notehead"><use href="#E0A4-g1t8zlcq" transform="translate(6178, 450) scale(0.72, 0.72)"/></g><g data-id="i104yvdj" data-class="stem" class="stem"><path d="M6187 478 L6187 1062" stroke-width="18"/></g></g><g data-id="z5w3wsb" data-class="note" class="note"><g data-class="notehead" class="notehead"><use href="#E0A4-g1t8zlcq" transform="translate(6628, 540) scale(0.72, 0.72)"/></g><g data-id="jibbgxm" data-class="stem" class="stem"><path d="M6637 568 L6637 1152" stroke-width="18"/></g><g data-id="nzwlvsx" data-class="accid" class="accid"/></g><g data-id="a1cxvi69" data-class="note" class="note"><g data-class="notehead" class="notehead"><use href="#E0A4-g1t8zlcq" transform="translate(7078, 630) scale(0.72, 0.72)"/></g><g data-id="kk4zijc" data-class="stem" class="stem"><path d="M7087 658 L7087 1242" stroke-width="18"/></g></g></g></g></g><g data-id="h12rq3vj" data-class="barLine" class="barLine"><path d="M7528 540 L7528 1260" stroke-width="27"/></g></g><g data-id="isbebub" data-class="measure" class="measure"><g data-id="l1851ap3" data-class="staff" class="staff"><path d="M7541 540 L10434 540" stroke-width="13"/><path d="M7541 720 L10434 720" stroke-width="13"/><path d="M7541 900 L10434 900" stroke-width="13"/><path d="M7541 1080 L10434 1080" stroke-width="13"/><path d="M7541 1260 L10434 1260" stroke-width="13"/><g data-class="ledgerLines" class="ledgerLines above"><g data-class="lineDash" class="lineDash" data-related="#ft9whdo"><path d="M9473 360 L9795 360" stroke-width="22"/></g><g data-class="lineDash" class="lineDash" data-related="#gyrwe8g"><path d="M9923 360 L10245 360" stroke-width="22"/></g></g><g data-id="mk2ck2h" data-class="layer" class="layer"><g data-id="k1uhm30y" data-class="beam" class="beam"><polygon stroke-opacity="1" fill-opacity="1" points="7721,1350 9989,990 9989,900 7721,1260"/><g data-id="bsimdq2" data-class="note" class="note"><g data-class="notehead" class="notehead"><use href="#E0A4-g1t8zlcq" transform="translate(7721, 720) scale(0.72, 0.72)"/></g><g data-id="llgfzcv" data-class="stem" class="stem"><path d="M7730 748 L7730 1332" stroke-width="18"/></g></g><g data-id="c1hvbsik" data-class="note" class="note"><g data-class="notehead" class="notehead"><use href="#E0A4-g1t8zlcq" transform="translate(8171, 630) scale(0.72, 0.72)"/></g><g data-id="m1ertm9l" data-class="stem" class="stem"><path d="M8180 658 L8180 1260" stroke-width="18"/></g></g><g data-id="dn7i49w" data-class="note" class="note"><g data-class="notehead" class="notehead"><use href="#E0A4-g1t8zlcq" transform="translate(8621, 540) scale(0.72, 0.72)"/></g><g data-id="nrrvtxh" data-class="stem" class="stem"><path d="M8630 568 L8630 1188" stroke-width="18"/></g><g data-id="o1aoowgz" data-class="accid" class="accid"/></g><g data-id="egxo3fz" data-class="note" class="note"><g data-class="notehead" class="notehead"><use href="#E0A4-g1t8zlcq" transform="translate(9071, 450) scale(0.72, 0.72)"/></g><g data-id="o1t2an5k" data-class="stem" class="stem"><path d="M9080 478 L9080 1116" stroke-width="18"/></g></g><g data-id="ft9whdo" data-class="note" class="note"><g data-class="notehead" class="notehead"><use href="#E0A4-g1t8zlcq" transform="translate(9521, 360) scale(0.72, 0.72)"/></g><g data-id="p1iyvuw1" data-class="stem" class="stem"><path d="M9530 388 L9530 1044" stroke-width="18"/></g></g><g data-id="gyrwe8g" data-class="note" class="note"><g data-class="notehead" class="notehead"><use href="#E0A4-g1t8zlcq" transform="translate(9971, 270) scale(0.72, 0.72)"/></g><g data-id="qt7jkjj" data-class="stem" class="stem"><path d="M9980 298 L9980 972" stroke-width="18"/></g></g></g></g></g><g data-id="qrjap7n" data-class="barLine" class="barLine"><path d="M10421 540 L10421 1260" stroke-width="27"/></g></g><g data-id="u1m072co" data-class="systemMilestoneEnd" class="systemMilestoneEnd t1kupxuw"/></g><g data-id="v1elmb7f" data-class="pageMilestoneEnd" class="pageMilestoneEnd rthhekb"/><g data-id="w1obw7cd" data-class="pageMilestoneEnd" class="pageMilestoneEnd qikrlla"/></g></svg></svg>