<svg viewBox="0 0 560 84" version="1.1" xmlns="http://www.w3.org/2000/svg" xmlns:xlink="http://www.w3.org/1999/xlink" overflow="visible" id="c1ophtor"><desc>Engraved by Verovio 5.6.0-85e7620</desc><defs><g id="E050-c1ophtor"><path transform="scale(1,-1)" d="M441 -245c-23 -4 -48 -6 -76 -6c-59 0 -102 7 -130 20c-88 42 -150 93 -187 154c-26 44 -43 103 -48 176c0 6 -1 13 -1 19c0 54 15 111 45 170c29 57 65 106 110 148s96 85 153 127c-3 16 -8 46 -13 92c-4 43 -5 73 -5 89c0 117 16 172 69 257c34 54 64 82 89 82 c21 0 43 -30 69 -92s39 -115 41 -159v-15c0 -109 -21 -162 -67 -241c-13 -20 -63 -90 -98 -118c-13 -9 -25 -19 -37 -29l31 -181c8 1 18 2 28 2c58 0 102 -12 133 -35c59 -43 92 -104 98 -184c1 -7 1 -15 1 -22c0 -123 -87 -209 -181 -248c8 -57 17 -110 25 -162 c5 -31 6 -58 6 -80c0 -30 -5 -53 -14 -70c-35 -64 -88 -99 -158 -103c-5 0 -11 -1 -16 -1c-37 0 -72 10 -108 27c-50 24 -77 59 -80 105v11c0 29 7 55 20 76c18 28 45 42 79 44h6c49 0 93 -42 97 -87v-9c0 -51 -34 -86 -105 -106c17 -24 51 -36 102 -36c62 0 116 43 140 85 c9 16 13 41 13 74c0 20 -1 42 -5 67c-8 53 -18 106 -26 159zM461 939c-95 0 -135 -175 -135 -286c0 -24 2 -48 5 -71c50 39 92 82 127 128c40 53 60 100 60 140v8c-4 53 -22 81 -55 81h-2zM406 119l54 -326c73 25 110 78 110 161c0 7 0 15 -1 23c-7 95 -57 142 -151 142h-12 zM382 117c-72 -2 -128 -47 -128 -120v-7c2 -46 43 -99 75 -115c-3 -2 -7 -5 -10 -10c-70 33 -116 88 -123 172v11c0 68 44 126 88 159c23 17 49 29 78 36l-29 170c-21 -13 -52 -37 -92 -73c-50 -44 -86 -84 -109 -119c-45 -69 -67 -130 -67 -182v-13c5 -68 35 -127 93 -176 s125 -73 203 -73c25 0 50 3 75 9c-19 111 -36 221 -54 331z"/></g><g id="E262-c1ophtor"><path transform="scale(1,-1)" d="M136 186v169h17v-164l44 14v-91l-44 -14v-165l44 12v-91l-44 -13v-155h-17v150l-76 -22v-155h-17v149l-43 -13v90l43 14v167l-43 -14v92l43 13v169h17v-163zM60 73v-167l76 22v168z"/></g><g id="E08A-c1ophtor"><path transform="scale(1,-1)" d="M340 179c-9 24 -56 41 -89 41c-46 0 -81 -28 -100 -58c-17 -28 -25 -78 -25 -150c0 -65 2 -111 8 -135c8 -31 18 -49 40 -67c20 -17 43 -25 70 -25c54 0 92 36 115 75c14 25 23 54 28 88h27c0 -63 -24 -105 -58 -141c-35 -38 -82 -56 -140 -56c-45 0 -83 13 -115 39 c-57 45 -101 130 -101 226c0 59 33 127 68 163c36 37 97 72 160 72c36 0 93 -21 121 -40c11 -8 23 -17 33 -30c19 -23 27 -48 27 -76c0 -51 -35 -88 -86 -88c-43 0 -76 27 -76 68c0 26 7 35 21 51c15 17 32 27 58 32c7 2 14 7 14 11z"/></g><g id="E0A4-c1ophtor"><path transform="scale(1,-1)" d="M0 -39c0 68 73 172 200 172c66 0 114 -37 114 -95c0 -84 -106 -171 -218 -171c-64 0 -96 30 -96 94z"/></g><g id="E241-c1ophtor"><path transform="scale(1,-1)" d="M179 646c-4 8 -17 30 -18 33l-4 10c0 3 2 5 5 5s7 -2 13 -7c23 -33 46 -81 66 -132c22 -57 35 -125 35 -163c0 -104 -60 -183 -122 -241c-63 -59 -57 -53 -61 -56c-38 -34 -63 -95 -71 -95h-22v190c40 7 69 11 87 16c88 27 168 95 168 200c0 30 -12 89 -30 138 c-17 47 -31 73 -46 102z"/></g><g id="E0A3-c1ophtor"><path transform="scale(1,-1)" d="M278 64c0 22 -17 39 -43 39c-12 0 -26 -3 -41 -10c-85 -43 -165 -94 -165 -156c5 -25 15 -32 49 -32c67 11 200 95 200 159zM0 -36c0 68 73 174 200 174c66 0 114 -39 114 -97c0 -84 -106 -173 -218 -173c-64 0 -96 32 -96 96z"/></g></defs><style type="text/css">#c1ophtor g.page-margin {font-family:Times,serif;}#c1ophtor g.ending, #c1ophtor g.fing, #c1ophtor g.reh, #c1ophtor g.tempo {font-weight:bold;}#c1ophtor g.dir, #c1ophtor g.dynam, #c1ophtor g.mNum {font-style:italic;}#c1ophtor g.label {font-weight:normal;}#c1ophtor path {stroke:currentColor}</style><svg class="definition-scale" color="black" viewBox="0 0 14000 2100"><g class="page-margin" transform="translate(0, 150)"><g data-id="t1vua076" data-class="mdiv" class="mdiv pageMilestone"/><g data-id="urb4bd5" data-class="score" class="score pageMilestone"/><g data-id="ho7gbnq" data-class="system" class="system"><g data-id="wpqdtmm" data-class="section" class="section systemMilestone"/><g data-id="d1aemqgl" data-class="measure" class="measure"><g data-id="i1kbaud6" data-class="staff" class="staff"><path d="M0 540 L3610 540" stroke-width="13"/><path d="M0 720 L3610 720" stroke-width="13"/><path d="M0 900 L3610 900" stroke-width="13"/><path d="M0 1080 L3610 1080" stroke-width="13"/><path d="M0 1260 L3610 1260" stroke-width="13"/><g data-id="h1x6wq7t" data-class="clef" class="clef"><use href="#E050-c1ophtor" transform="translate(90, 1080) scale(0.72, 0.72)"/></g><g data-id="il1vmrq" data-class="keySig" class="keySig"><g data-id="jp8ircm" data-class="keyAccid" class="keyAccid"><use href="#E262-c1ophtor" transform="translate(735, 540) scale(0.72, 0.72)"/></g><g data-id="k1674975" data-class="keyAccid" class="keyAccid"><use href="#E262-c1ophtor" transform="translate(913, 810) scale(0.72, 0.72)"/></g></g><g data-id="l3yb0hk" data-class="meterSig" class="meterSig"><use href="#E08A-c1ophtor" transform="translate(1234, 900) scale(0.72, 0.72)"/></g><g data-id="jp3l5nh" data-class="layer" class="layer"><g data-id="x9axdh6" data-class="note" class="note"><g data-class="notehead" class="notehead"><use href="#E0A4-c1ophtor" transform="translate(1815, 990) scale(0.72, 0.72)"/></g><g data-id="ec9owke" data-class="stem" class="stem"><path d="M2032 962 L2032 360" stroke-width="18"/></g></g><g data-id="yiwt0iq" data-class="note" class="note"><g data-class="notehead" class="notehead"><use href="#E0A4-c1ophtor" transform="translate(2706, 990) scale(0.72, 0.72)"/></g><g data-id="fpskoso" data-class="stem" class="stem"><path d="M2923 962 L2923 360" stroke-width="18"/></g></g></g></g><g data-id="l174yu66" data-class="barLine" class="barLine"><path d="M3597 540 L3597 1260" stroke-width="27"/></g></g><g data-id="m1n9e92c" data-class="measure" class="measure"><g data-id="k1uahxd8" data-class="staff" class="staff"><path d="M3610 540 L7315 540" stroke-width="13"/><path d="M3610 720 L7315 720" stroke-width="13"/><path d="M3610 900 L7315 900" stroke-width="13"/><path d="M3610 1080 L7315 1080" stroke-width="13"/><path d="M3610 1260 L7315 1260" stroke-width="13"/><g data-id="loy35ew" data-class="layer" class="layer"><g data-id="zoxo5ep" data-class="note" class="note"><g data-class="notehead" class="notehead"><use href="#E0A4-c1ophtor" transform="translate(3803, 540) scale(0.72, 0.72)"/></g><g data-id="hs2mcu6" data-class="dots" class="dots"><ellipse cx="4119" cy="450" rx="36" ry="36" fill-opacity="1" stroke-opacity="1"/></g><g data-id="ga7yxsi" data-class="stem" class="stem"><path d="M3812 568 L3812 1170" stroke-width="18"/></g><g data-id="o1oz45nv" data-class="accid" class="accid"/></g><g data-id="ar9newl" data-class="note" class="note"><g data-class="notehead" class="notehead"><use href="#E0A4-c1ophtor" transform="translate(4939, 630) scale(0.72, 0.72)"/></g><g data-id="i1yjtqbs" data-class="stem" class="stem"><path d="M4948 658 L4948 1260" stroke-width="18"/><g data-id="jyvje06" data-class="flag" class="flag"><use href="#E241-c1ophtor" transform="translate(4939, 1260) scale(0.72, 0.72)"/></g></g></g><g data-id="b1i222xf" data-class="note" class="note"><g data-class="notehead" class="notehead"><use href="#E0A4-c1ophtor" transform="translate(5520, 720) scale(0.72, 0.72)"/></g><g data-id="ksxp5ru" data-class="stem" class="stem"><path d="M5529 748 L5529 1350" stroke-width="18"/></g></g><g data-id="c1voxypm" data-class="note" class="note"><g data-class="notehead" class="notehead"><use href="#E0A4-c1ophtor" transform="translate(6411, 810) scale(0.72, 0.72)"/></g><g data-id="l1bm09ei" data-class="stem" class="stem"><path d="M6420 838 L6420 1440" stroke-width="18"/></g><g data-id="p1r3fgfi" data-class="accid" class="accid"/></g></g></g><g data-id="uf6uggg" data-class="barLine" class="barLine"><path d="M7302 540 L7302 1260" stroke-width="27"/></g></g><g data-id="v1nkcxkh" data-class="measure" class="measure"><g data-id="m18g4zx" data-class="staff" class="staff"><path d="M7315 540 L10233 540" stroke-width="13"/><path d="M7315 720 L10233 720" stroke-width="13"/><path d="M7315 900 L10233 900" stroke-width="13"/><path d="M7315 1080 L10233 1080" stroke-width="13"/><path d="M7315 1260 L10233 1260" stroke-width="13"/><g data-id="nexqi7a" data-class="layer" class="layer"><g data-id="d15fa57u" data-class="note" class="note"><g data-class="notehead" class="notehead"><use href="#E0A3-c1ophtor" transform="translate(7508, 900) scale(0.72, 0.72)"/></g><g data-id="mas2gjg" data-class="stem" class="stem"><path d="M7517 925 L7517 1500" stroke-width="18"/></g></g><g data-id="e1lr8uq6" data-class="note" class="note"><g data-class="notehead" class="notehead"><use href="#E0A3-c1ophtor" transform="translate(8864, 630) scale(0.72, 0.72)"/></g><g data-id="n1igova5" data-class="stem" class="stem"><path d="M8873 655 L8873 1260" stroke-width="18"/></g></g></g></g><g data-id="n28zq9p" data-class="tie" class="tie"><path d="M9135,585 C9441,432 10072,432 10381,585 C10063,480 9450,480 9135,585" stroke-linecap="round" stroke-linejoin="round" stroke-width="9"/></g><g data-id="du6km0i" data-class="barLine" class="barLine"><path d="M10220 540 L10220 1260" stroke-width="27"/></g></g><g data-id="e1g3m1yw" data-class="measure" class="measure"><g data-id="oloczbv" data-class="staff" class="staff"><path d="M10233 540 L14003 540" stroke-width="13"/><path d="M10233 720 L14003 720" stroke-width="13"/><path d="M10233 900 L14003 900" stroke-width="13"/><path d="M10233 1080 L14003 1080" stroke-width="13"/><path d="M10233 1260 L14003 1260" stroke-width="13"/><g data-id="p1n5gncj" data-class="layer" class="layer"><g data-id="f16tixf1" data-class="note" class="note"><g data-class="notehead" class="notehead"><use href="#E0A4-c1ophtor" transform="translate(10426, 630) scale(0.72, 0.72)"/></g><g data-id="o10ee470" data-class="stem" class="stem"><path d="M10435 658 L10435 1260" stroke-width="18"/></g></g><g data-id="gppcvfm" data-class="note" class="note"><g data-class="notehead" class="notehead"><use href="#E0A4-c1ophtor" transform="translate(11317, 810) scale(0.72, 0.72)"/></g><g data-id="pfx8mlr" data-class="stem" class="stem"><path d="M11326 838 L11326 1440" stroke-width="18"/></g><g data-id="q24u31r" data-class="accid" class="accid"/></g><g data-id="hee9k7" data-class="note" class="note"><g data-class="notehead" class="notehead"><use href="#E0A4-c1ophtor" transform="translate(12208, 900) scale(0.72, 0.72)"/></g><g data-id="qs0gkuu" data-class="stem" class="stem"><path d="M12217 928 L12217 1500" stroke-width="18"/></g></g><g data-id="iuekaan" data-class="note" class="note"><g data-class="notehead" class="notehead"><use href="#E0A4-c1ophtor" transform="translate(13099, 990) scale(0.72, 0.72)"/></g><g data-id="rgxwfzm" data-class="stem" class="stem"><path d="M13316 962 L13316 360" stroke-width="18"/></g></g></g></g><g data-id="mhgqjlx" data-class="barLine" class="barLine"><path d="M13990 540 L13990 1260" stroke-width="27"/></g></g></g></g></svg></svg>