<svg viewBox="0 0 560 84" version="1.1" xmlns="http://www.w3.org/2000/svg" xmlns:xlink="http://www.w3.org/1999/xlink" overflow="visible" id="o1ae0wb4"><desc>Engraved by Verovio 5.6.0-85e7620</desc><defs><g id="E050-o1ae0wb4"><path transform="scale(1,-1)" d="M441 -245c-23 -4 -48 -6 -76 -6c-59 0 -102 7 -130 20c-88 42 -150 93 -187 154c-26 44 -43 103 -48 176c0 6 -1 13 -1 19c0 54 15 111 45 170c29 57 65 106 110 148s96 85 153 127c-3 16 -8 46 -13 92c-4 43 -5 73 -5 89c0 117 16 172 69 257c34 54 64 82 89 82 c21 0 43 -30 69 -92s39 -115 41 -159v-15c0 -109 -21 -162 -67 -241c-13 -20 -63 -90 -98 -118c-13 -9 -25 -19 -37 -29l31 -181c8 1 18 2 28 2c58 0 102 -12 133 -35c59 -43 92 -104 98 -184c1 -7 1 -15 1 -22c0 -123 -87 -209 -181 -248c8 -57 17 -110 25 -162 c5 -31 6 -58 6 -80c0 -30 -5 -53 -14 -70c-35 -64 -88 -99 -158 -103c-5 0 -11 -1 -16 -1c-37 0 -72 10 -108 27c-50 24 -77 59 -80 105v11c0 29 7 55 20 76c18 28 45 42 79 44h6c49 0 93 -42 97 -87v-9c0 -51 -34 -86 -105 -106c17 -24 51 -36 102 -36c62 0 116 43 140 85 c9 16 13 41 13 74c0 20 -1 42 -5 67c-8 53 -18 106 -26 159zM461 939c-95 0 -135 -175 -135 -286c0 -24 2 -48 5 -71c50 39 92 82 127 128c40 53 60 100 60 140v8c-4 53 -22 81 -55 81h-2zM406 119l54 -326c73 25 110 78 110 161c0 7 0 15 -1 23c-7 95 -57 142 -151 142h-12 zM382 117c-72 -2 -128 -47 -128 -120v-7c2 -46 43 -99 75 -115c-3 -2 -7 -5 -10 -10c-70 33 -116 88 -123 172v11c0 68 44 126 88 159c23 17 49 29 78 36l-29 170c-21 -13 -52 -37 -92 -73c-50 -44 -86 -84 -109 -119c-45 -69 -67 -130 -67 -182v-13c5 -68 35 -127 93 -176 s125 -73 203 -73c25 0 50 3 75 9c-19 111 -36 221 -54 331z"/></g><g id="E262-o1ae0wb4"><path transform="scale(1,-1)" d="M136 186v169h17v-164l44 14v-91l-44 -14v-165l44 12v-91l-44 -13v-155h-17v150l-76 -22v-155h-17v149l-43 -13v90l43 14v167l-43 -14v92l43 13v169h17v-163zM60 73v-167l76 22v168z"/></g><g id="E086-o1ae0wb4"><path transform="scale(1,-1)" d="M284 -91c0 37 -28 92 -67 92c-35 0 -65 -54 -65 -111c0 -52 22 -104 68 -104c47 0 64 68 64 123zM230 214c-36 0 -90 -33 -90 -184l2 -36c40 24 81 36 120 36c80 0 140 -48 140 -121c0 -99 -99 -159 -182 -159c-160 0 -200 173 -200 244c0 21 2 43 7 71l10 35 c26 85 73 115 98 126c41 19 74 24 103 24c93 0 142 -63 142 -105c0 -58 -52 -72 -73 -72c-33 0 -59 24 -65 35c-3 5 -6 14 -7 25l11 30c6 15 9 27 9 35c0 11 -9 16 -25 16z"/></g><g id="E088-o1ae0wb4"><path transform="scale(1,-1)" d="M195 -214c76 0 88 58 90 68c0 34 -35 60 -57 73l-52 29c-21 10 -32 17 -34 20c-39 -33 -58 -54 -62 -92c5 -23 23 -98 115 -98zM301 135c0 61 -72 76 -113 76c-40 0 -77 -17 -77 -51c3 -21 15 -38 26 -50c17 -15 33 -26 48 -34l65 -28c34 27 51 56 51 87zM176 -250 c-57 0 -166 26 -166 132c0 47 30 86 89 116c-33 15 -79 60 -79 119c0 79 85 132 178 132h18c5 0 21 1 28 -1c25 0 126 -30 126 -110c0 -37 -23 -76 -69 -116c43 -25 83 -71 83 -119c0 -101 -118 -153 -208 -153z"/></g><g id="E4E5-o1ae0wb4"><path transform="scale(1,-1)" d="M107 292c-13 24 -30 49 -52 71c-1 1 0 2 0 3l-2 2c3 3 4 4 6 4c12 0 26 -7 40 -20s44 -40 89 -81c26 -24 28 -29 46 -47c4 -4 8 -9 10 -14c6 -8 8 -16 8 -27c0 -19 -12 -40 -36 -61c-28 -23 -49 -38 -61 -73c-4 -11 -7 -27 -10 -50c13 -43 34 -83 59 -121 c31 -47 59 -79 101 -129c-8 0 -26 7 -54 20l-62 29l-21 6l-23 1c-25 0 -45 -10 -60 -30l-4 -14l-1 -12c0 -33 20 -56 39 -78c8 -9 17 -18 26 -26c17 -15 27 -24 28 -30l-3 -3c-11 5 -19 10 -25 15c-9 3 -37 21 -45 26c-24 14 -45 32 -63 51c-19 21 -37 44 -37 71 c0 63 27 95 80 95c41 0 86 -18 136 -52c-19 26 -37 48 -55 66c-23 23 -48 44 -73 65c-28 23 -47 40 -58 53s-17 26 -18 39c75 64 113 125 113 183c0 27 -7 48 -18 68z"/></g><g id="E4E6-o1ae0wb4"><path transform="scale(1,-1)" d="M0 123c7 34 33 56 69 60c29 -3 43 -9 53 -29c4 -8 7 -15 10 -22c0 -21 -1 -25 -11 -35c-5 -8 -18 -14 -40 -20l12 -3l15 -1c44 0 97 26 122 56c10 11 18 26 24 42c7 1 15 2 22 3l-140 -424h-36l111 330c-10 -6 -27 -12 -53 -16l-52 -8h-10l-20 1c-1 0 -8 3 -21 6 c-37 9 -55 28 -55 60z"/></g><g id="E0A4-o1ae0wb4"><path transform="scale(1,-1)" d="M0 -39c0 68 73 172 200 172c66 0 114 -37 114 -95c0 -84 -106 -171 -218 -171c-64 0 -96 30 -96 94z"/></g><g id="E240-o1ae0wb4"><path transform="scale(1,-1)" d="M179 -646c15 29 29 55 46 102c18 49 30 108 30 138c0 105 -80 173 -168 200c-18 5 -47 9 -87 16v190h22c8 0 33 -61 71 -95c4 -3 -2 3 61 -56c62 -58 122 -137 122 -241c0 -38 -13 -106 -35 -163c-20 -51 -43 -99 -66 -132c-6 -5 -10 -7 -13 -7s-5 2 -5 5l4 10 c1 3 14 25 18 33z"/></g><g id="E241-o1ae0wb4"><path transform="scale(1,-1)" d="M179 646c-4 8 -17 30 -18 33l-4 10c0 3 2 5 5 5s7 -2 13 -7c23 -33 46 -81 66 -132c22 -57 35 -125 35 -163c0 -104 -60 -183 -122 -241c-63 -59 -57 -53 -61 -56c-38 -34 -63 -95 -71 -95h-22v190c40 7 69 11 87 16c88 27 168 95 168 200c0 30 -12 89 -30 138 c-17 47 -31 73 -46 102z"/></g></defs><style type="text/css">#o1ae0wb4 g.page-margin {font-family:Times,serif;}#o1ae0wb4 g.ending, #o1ae0wb4 g.fing, #o1ae0wb4 g.reh, #o1ae0wb4 g.tempo {font-weight:bold;}#o1ae0wb4 g.dir, #o1ae0wb4 g.dynam, #o1ae0wb4 g.mNum {font-style:italic;}#o1ae0wb4 g.label {font-weight:normal;}#o1ae0wb4 path {stroke:currentColor}</style><svg class="definition-scale" color="black" viewBox="0 0 14000 2100"><g class="page-margin" transform="translate(0, 150)"><g data-id="z1e105z1" data-class="mdiv" class="mdiv pageMilestone"/><g data-id="a1e6c0yh" data-class="score" class="score pageMilestone"/><g data-id="y5668j3" data-class="system" class="system"><g data-id="cya7qmm" data-class="section" class="section systemMilestone"/><g data-id="p10985hf" data-class="measure" class="measure"><g data-id="o1ruhof7" data-class="staff" class="staff"><path d="M0 540 L4334 540" stroke-width="13"/><path d="M0 720 L4334 720" stroke-width="13"/><path d="M0 900 L4334 900" stroke-width="13"/><path d="M0 1080 L4334 1080" stroke-width="13"/><path d="M0 1260 L4334 1260" stroke-width="13"/><g data-id="e7lrinr" data-class="clef" class="clef"><use href="#E050-o1ae0wb4" transform="translate(90, 1080) scale(0.72, 0.72)"/></g><g data-id="f1gr2pmu" data-class="keySig" class="keySig"><g data-id="g10g2hoc" data-class="keyAccid" class="keyAccid"><use href="#E262-o1ae0wb4" transform="translate(735, 540) scale(0.72, 0.72)"/></g><g data-id="h1c8xcnh" data-class="keyAccid" class="keyAccid"><use href="#E262-o1ae0wb4" transform="translate(913, 810) scale(0.72, 0.72)"/></g></g><g data-id="if8ahil" data-class="meterSig" class="meterSig"><use href="#E086-o1ae0wb4" transform="translate(1220, 720) scale(0.72, 0.72)"/><use href="#E088-o1ae0wb4" transform="translate(1227, 1080) scale(0.72, 0.72)"/></g><g data-id="pom29m6" data-class="layer" class="layer"><g data-id="ztajaq" data-class="rest" class="rest"><use href="#E4E5-o1ae0wb4" transform="translate(1779, 900) scale(0.72, 0.72)"/></g><g data-id="a15lsgup" data-class="rest" class="rest"><use href="#E4E6-o1ae0wb4" transform="translate(2469, 900) scale(0.72, 0.72)"/></g><g data-id="b104jnbk" data-class="rest" class="rest"><use href="#E4E6-o1ae0wb4" transform="translate(2919, 900) scale(0.72, 0.72)"/></g><g data-id="r1wstdg3" data-class="beam" class="beam"><polygon stroke-opacity="1" fill-opacity="1" points="3577,495 4097,495 4097,585 3577,585"/><g data-id="ch28ftl" data-class="note" class="note"><g data-class="notehead" class="notehead"><use href="#E0A4-o1ae0wb4" transform="translate(3369, 1080) scale(0.72, 0.72)"/></g><g data-id="i12ogp16" data-class="stem" class="stem"><path d="M3586 1052 L3586 513" stroke-width="18"/></g></g><g data-id="d1gau5az" data-class="note" class="note"><g data-class="notehead" class="notehead"><use href="#E0A4-o1ae0wb4" transform="translate(3871, 1080) scale(0.72, 0.72)"/></g><g data-id="jvlvr00" data-class="stem" class="stem"><path d="M4088 1052 L4088 513" stroke-width="18"/></g><g data-id="p1yufeby" data-class="accid" class="accid"><use href="#E262-o1ae0wb4" transform="translate(3685, 1080) scale(0.72, 0.72)"/></g></g></g></g></g><g data-id="xqcf3b9" data-class="barLine" class="barLine"><path d="M4321 540 L4321 1260" stroke-width="27"/></g></g><g data-id="yldfab0" data-class="measure" class="measure"><g data-id="q1g45bv2" data-class="staff" class="staff"><path d="M4334 540 L6994 540" stroke-width="13"/><path d="M4334 720 L6994 720" stroke-width="13"/><path d="M4334 900 L6994 900" stroke-width="13"/><path d="M4334 1080 L6994 1080" stroke-width="13"/><path d="M4334 1260 L6994 1260" stroke-width="13"/><g data-id="r1hl9v1m" data-class="layer" class="layer"><g data-id="e12a7l6s" data-class="note" class="note"><g data-class="notehead" class="notehead"><use href="#E0A4-o1ae0wb4" transform="translate(4514, 990) scale(0.72, 0.72)"/></g><g data-id="l136e812" data-class="dots" class="dots"><ellipse cx="4830" cy="990" rx="36" ry="36" fill-opacity="1" stroke-opacity="1"/></g><g data-id="k1szq0n4" data-class="stem" class="stem"><path d="M4731 962 L4731 360" stroke-width="18"/></g></g><g data-id="s5oq6ho" data-class="beam" class="beam"><polygon stroke-opacity="1" fill-opacity="1" points="5602,180 6757,180 6757,270 5602,270"/><g data-id="f61m06n" data-class="note" class="note"><g data-class="notehead" class="notehead"><use href="#E0A4-o1ae0wb4" transform="translate(5394, 990) scale(0.72, 0.72)"/></g><g data-id="m1jacsmh" data-class="stem" class="stem"><path d="M5611 962 L5611 198" stroke-width="18"/></g></g><g data-id="gx3ujo0" data-class="note" class="note"><g data-class="notehead" class="notehead"><use href="#E0A4-o1ae0wb4" transform="translate(5710, 810) scale(0.54, 0.54)"/></g><g data-id="n55dazp" data-class="stem" class="stem"><path d="M5870 789 L5870 383" stroke-width="18"/><path d="M5803 651 L6004 450" stroke-width="21"/><g data-id="oq5q7tv" data-class="flag" class="flag"><use href="#E240-o1ae0wb4" transform="translate(5861, 383) scale(0.54, 0.54)"/></g></g><g data-id="w1l8jja6" data-class="accid" class="accid"/></g><g data-id="h16vq2fs" data-class="note" class="note"><g data-class="notehead" class="notehead"><use href="#E0A4-o1ae0wb4" transform="translate(6081, 900) scale(0.72, 0.72)"/></g><g data-id="p13h9i1h" data-class="stem" class="stem"><path d="M6298 872 L6298 198" stroke-width="18"/></g></g><g data-id="i7q6ekt" data-class="note" class="note"><g data-class="notehead" class="notehead"><use href="#E0A4-o1ae0wb4" transform="translate(6531, 990) scale(0.72, 0.72)"/></g><g data-id="q1kevdxz" data-class="stem" class="stem"><path d="M6748 962 L6748 198" stroke-width="18"/></g></g></g></g></g><g data-id="uuepn1s" data-class="tie" class="tie"><path d="M4785,1102 C4935,1207 5198,1207 5349,1102 C5217,1256 4916,1256 4785,1102" stroke-linecap="round" stroke-linejoin="round" stroke-width="9"/></g><g data-id="g9bzcnq" data-class="barLine" class="barLine"><path d="M6981 540 L6981 1260" stroke-width="27"/></g></g><g data-id="h14ozai6" data-class="measure" class="measure"><g data-id="s13fli31" data-class="staff" class="staff"><path d="M6994 540 L9775 540" stroke-width="13"/><path d="M6994 720 L9775 720" stroke-width="13"/><path d="M6994 900 L9775 900" stroke-width="13"/><path d="M6994 1080 L9775 1080" stroke-width="13"/><path d="M6994 1260 L9775 1260" stroke-width="13"/><g data-id="t1h5s8ux" data-class="layer" class="layer"><g data-id="j1qddwss" data-class="note" class="note"><g data-class="notehead" class="notehead"><use href="#E0A4-o1ae0wb4" transform="translate(7174, 540) scale(0.72, 0.72)"/></g><g data-id="rvtemiq" data-class="stem" class="stem"><path d="M7183 568 L7183 1170" stroke-width="18"/></g><g data-id="x1h1iag3" data-class="accid" class="accid"/></g><g data-id="kkuvcgr" data-class="note" class="note"><g data-class="notehead" class="notehead"><use href="#E0A4-o1ae0wb4" transform="translate(7864, 720) scale(0.72, 0.72)"/></g><g data-id="smu7i6x" data-class="stem" class="stem"><path d="M7873 748 L7873 1350" stroke-width="18"/><g data-id="t18t8s62" data-class="flag" class="flag"><use href="#E241-o1ae0wb4" transform="translate(7864, 1350) scale(0.72, 0.72)"/></g></g></g><g data-id="t1ibefo8" data-class="beam" class="beam"><polygon stroke-opacity="1" fill-opacity="1" points="8360,1530 9330,1530 9330,1440 8360,1440"/><g data-id="lxfm3t8" data-class="note" class="note"><g data-class="notehead" class="notehead"><use href="#E0A4-o1ae0wb4" transform="translate(8360, 720) scale(0.72, 0.72)"/></g><g data-id="uoqcjny" data-class="stem" class="stem"><path d="M8369 748 L8369 1512" stroke-width="18"/></g></g><g data-id="mr3gip" data-class="note" class="note"><g data-class="notehead" class="notehead"><use href="#E0A4-o1ae0wb4" transform="translate(8810, 990) scale(0.72, 0.72)"/></g><g data-id="v18od30a" data-class="stem" class="stem"><path d="M8819 1018 L8819 1512" stroke-width="18"/></g></g><g data-id="n1i1jesj" data-class="note" class="note"><g data-class="notehead" class="notehead"><use href="#E0A4-o1ae0wb4" transform="translate(9312, 990) scale(0.72, 0.72)"/></g><g data-id="w1q2xz2u" data-class="stem" class="stem"><path d="M9321 1018 L9321 1512" stroke-width="18"/></g><g data-id="qnp7bzr" data-class="accid" class="accid"><use href="#E262-o1ae0wb4" transform="translate(9126, 990) scale(0.72, 0.72)"/></g></g></g></g></g><g data-id="v107muo" data-class="tie" class="tie"><path d="M8135,675 C8162,521 8287,521 8315,675 C8252,570 8197,570 8135,675" stroke-linecap="round" stroke-linejoin="round" stroke-width="9"/></g><g data-id="p182tmwo" data-class="barLine" class="barLine"><path d="M9762 540 L9762 1260" stroke-width="27"/></g></g><g data-id="q1blafx2" data-class="measure" class="measure"><g data-id="u33ne6j" data-class="staff" class="staff"><path d="M9775 540 L10645 540" stroke-width="13"/><path d="M9775 720 L10645 720" stroke-width="13"/><path d="M9775 900 L10645 900" stroke-width="13"/><path d="M9775 1080 L10645 1080" stroke-width="13"/><path d="M9775 1260 L10645 1260" stroke-width="13"/><g data-id="v1nniayo" data-class="layer" class="layer"><g data-id="o1n5yjoe" data-class="note" class="note"><g data-class="notehead" class="notehead"><use href="#E0A4-o1ae0wb4" transform="translate(9955, 900) scale(0.72, 0.72)"/></g><g data-id="x1hlzmfg" data-class="stem" class="stem"><path d="M9964 928 L9964 1500" stroke-width="18"/></g></g></g></g><g data-id="yw4ppk9" data-class="barLine" class="barLine"/></g><g data-id="d7q5jat" data-class="systemMilestoneEnd" class="systemMilestoneEnd cya7qmm"/></g><g data-id="e1f8rkxh" data-class="pageMilestoneEnd" class="pageMilestoneEnd a1e6c0yh"/><g data-id="fmn7f5k" data-class="pageMilestoneEnd" class="pageMilestoneEnd z1e105z1"/></g></svg></svg>