<svg viewBox="0 0 560 84" version="1.1" xmlns="http://www.w3.org/2000/svg" xmlns:xlink="http://www.w3.org/1999/xlink" overflow="visible" id="hd8osyk"><desc>Engraved by Verovio 5.6.0-85e7620</desc><defs><g id="E062-hd8osyk"><path transform="scale(1,-1)" d="M582 -120c0 32 26 58 58 58s58 -26 58 -58s-26 -58 -58 -58s-58 26 -58 58zM582 120c0 32 26 58 58 58s58 -26 58 -58s-26 -58 -58 -58s-58 26 -58 58zM158 96c51 0 73 -14 88 -49l16 -39c0 -17 -2 -30 -7 -40c-3 -11 -10 -21 -19 -31c-17 -18 -49 -43 -84 -43 c-55 0 -77 13 -112 44c-24 21 -35 55 -35 100c0 46 14 81 32 112c30 52 71 79 137 93l36 6l26 2c154 0 235 -68 274 -182c11 -32 18 -68 18 -107c0 -103 -26 -182 -68 -250c-89 -145 -234 -230 -412 -288l-30 -5c-9 0 -14 3 -14 8c3 10 5 11 10 16c35 15 70 30 96 44l78 43 c96 57 162 136 197 258c9 33 17 60 22 100c3 22 5 35 6 39c-7 69 -16 115 -23 140s-4 22 -16 40c-8 12 -19 23 -31 34c-24 21 -62 44 -118 44c-48 0 -84 -8 -113 -28c-28 -19 -42 -44 -42 -73v-16c2 -5 3 -9 4 -11c24 22 52 39 84 39z"/></g><g id="E260-hd8osyk"><path transform="scale(1,-1)" d="M20 110c32 16 54 27 93 27c26 0 35 -3 54 -13c13 -7 24 -20 27 -38l4 -25c0 -28 -16 -57 -45 -89c-23 -25 -39 -44 -65 -68l-88 -79v644h20v-359zM90 106c-32 0 -48 -10 -70 -29v-194c31 31 54 59 71 84c21 32 32 59 32 84c0 9 1 16 1 20c0 14 -3 21 -11 30l-8 3z"/></g><g id="E082-hd8osyk"><path transform="scale(1,-1)" d="M124 -185c-18 0 -55 -14 -65 -65h-36l-3 30c0 25 6 45 18 63c11 19 22 30 39 43l121 82l37 29c15 11 27 29 38 54c12 24 18 47 18 70c0 40 -19 88 -94 88c-25 0 -32 0 -50 -8c-14 -5 -23 -12 -26 -22c3 -9 7 -15 10 -18l24 -17c12 -7 17 -11 27 -21c5 -7 7 -16 7 -27 c0 -12 0 -57 -79 -74c-30 0 -76 26 -76 94c0 66 81 135 197 135c72 0 181 -32 181 -150c0 -53 -32 -95 -113 -133l-91 -41c-26 -11 -45 -23 -57 -37l49 7c84 0 115 -41 148 -41c20 0 33 20 39 61h35c0 -152 -68 -168 -114 -168c-17 0 -65 0 -79 7h10l-28 17 c-49 37 -69 40 -87 42z"/></g><g id="E084-hd8osyk"><path transform="scale(1,-1)" d="M20 -78c84 97 114 180 134 329h170c-13 -32 -82 -132 -99 -151l-84 -97c-33 -36 -59 -63 -80 -81h162v102l127 123v-225h57v-39h-57v-34c0 -43 19 -65 57 -65v-34h-244v36c48 0 60 26 60 70v27h-203v39z"/></g><g id="E0A4-hd8osyk"><path transform="scale(1,-1)" d="M0 -39c0 68 73 172 200 172c66 0 114 -37 114 -95c0 -84 -106 -171 -218 -171c-64 0 -96 30 -96 94z"/></g><g id="E240-hd8osyk"><path transform="scale(1,-1)" d="M179 -646c15 29 29 55 46 102c18 49 30 108 30 138c0 105 -80 173 -168 200c-18 5 -47 9 -87 16v190h22c8 0 33 -61 71 -95c4 -3 -2 3 61 -56c62 -58 122 -137 122 -241c0 -38 -13 -106 -35 -163c-20 -51 -43 -99 -66 -132c-6 -5 -10 -7 -13 -7s-5 2 -5 5l4 10 c1 3 14 25 18 33z"/></g><g id="E241-hd8osyk"><path transform="scale(1,-1)" d="M179 646c-4 8 -17 30 -18 33l-4 10c0 3 2 5 5 5s7 -2 13 -7c23 -33 46 -81 66 -132c22 -57 35 -125 35 -163c0 -104 -60 -183 -122 -241c-63 -59 -57 -53 -61 -56c-38 -34 -63 -95 -71 -95h-22v190c40 7 69 11 87 16c88 27 168 95 168 200c0 30 -12 89 -30 138 c-17 47 -31 73 -46 102z"/></g><g id="E243-hd8osyk"><path transform="scale(1,-1)" d="M216 730c-5 8 -10 13 -11 16l-4 10c0 3 2 5 5 5s7 -2 13 -7c35 -42 57 -101 57 -172c0 -34 -6 -65 -17 -94c10 -31 17 -64 17 -96c0 -104 -60 -183 -122 -241c-63 -59 -57 -53 -61 -56c-38 -34 -63 -95 -71 -95h-22v190v190c40 7 69 11 87 16c116 36 175 111 175 197 c0 44 -15 91 -46 137zM248 463c-23 -48 -58 -89 -94 -122c-63 -59 -57 -53 -61 -56c-30 -27 -44 -71 -53 -88c20 3 36 6 47 9c88 27 168 95 168 200c0 19 -3 39 -7 57z"/></g><g id="E0A3-hd8osyk"><path transform="scale(1,-1)" d="M278 64c0 22 -17 39 -43 39c-12 0 -26 -3 -41 -10c-85 -43 -165 -94 -165 -156c5 -25 15 -32 49 -32c67 11 200 95 200 159zM0 -36c0 68 73 174 200 174c66 0 114 -39 114 -97c0 -84 -106 -173 -218 -173c-64 0 -96 32 -96 96z"/></g></defs><style type="text/css">#hd8osyk g.page-margin {font-family:Times,serif;}#hd8osyk g.ending, #hd8osyk g.fing, #hd8osyk g.reh, #hd8osyk g.tempo {font-weight:bold;}#hd8osyk g.dir, #hd8osyk g.dynam, #hd8osyk g.mNum {font-style:italic;}#hd8osyk g.label {font-weight:normal;}#hd8osyk path {stroke:currentColor}</style><svg class="definition-scale" color="black" viewBox="0 0 14000 2100"><g class="page-margin" transform="translate(0, 150)"><g data-id="f1p63n7x" data-class="mdiv" class="mdiv pageMilestone"/><g data-id="gffucav" data-class="score" class="score pageMilestone"/><g data-id="t1saratr" data-class="system" class="system"><g data-id="i1hftsqc" data-class="section" class="section systemMilestone"/><g data-id="i1uyd17w" data-class="measure" class="measure"><g data-id="uvyxbso" data-class="staff" class="staff"><path d="M0 540 L2609 540" stroke-width="13"/><path d="M0 720 L2609 720" stroke-width="13"/><path d="M0 900 L2609 900" stroke-width="13"/><path d="M0 1080 L2609 1080" stroke-width="13"/><path d="M0 1260 L2609 1260" stroke-width="13"/><g data-id="a1m59sh0" data-class="clef" class="clef"><use href="#E062-hd8osyk" transform="translate(88, 720) scale(0.72, 0.72)"/></g><g data-id="brbu0az" data-class="keySig" class="keySig"><g data-id="c1dplox0" data-class="keyAccid" class="keyAccid"><use href="#E260-hd8osyk" transform="translate(769, 1080) scale(0.72, 0.72)"/></g></g><g data-id="d1sxdmy7" data-class="meterSig" class="meterSig"><use href="#E082-hd8osyk" transform="translate(1077, 720) scale(0.72, 0.72)"/><use href="#E084-hd8osyk" transform="translate(1082, 1080) scale(0.72, 0.72)"/></g><g data-id="v1urn8dp" data-class="layer" class="layer"><g data-id="k1y1dpfi" data-class="note" class="note"><g data-class="notehead" class="notehead"><use href="#E0A4-hd8osyk" transform="translate(1650, 990) scale(0.72, 0.72)"/></g><g data-id="ryvtf8c" data-class="stem" class="stem"><path d="M1867 962 L1867 360" stroke-width="18"/><g data-id="sq58020" data-class="flag" class="flag"><use href="#E240-hd8osyk" transform="translate(1858, 360) scale(0.72, 0.72)"/></g></g></g><g data-id="l42co5o" data-class="note" class="note"><g data-class="notehead" class="notehead"><use href="#E0A4-hd8osyk" transform="translate(2146, 720) scale(0.72, 0.72)"/></g><g data-id="t1gfj8o7" data-class="stem" class="stem"><path d="M2155 748 L2155 1350" stroke-width="18"/><g data-id="u1sqley5" data-class="flag" class="flag"><use href="#E241-hd8osyk" transform="translate(2146, 1350) scale(0.72, 0.72)"/></g></g></g></g></g><g data-id="q1c5i3qg" data-class="barLine" class="barLine"><path d="M2596 540 L2596 1260" stroke-width="27"/></g></g><g data-id="r7tyvi3" data-class="measure" class="measure"><g data-id="w1i1ehqy" data-class="staff" class="staff"><path d="M2609 540 L4598 540" stroke-width="13"/><path d="M2609 720 L4598 720" stroke-width="13"/><path d="M2609 900 L4598 900" stroke-width="13"/><path d="M2609 1080 L4598 1080" stroke-width="13"/><path d="M2609 1260 L4598 1260" stroke-width="13"/><g data-id="x1x3r31q" data-class="layer" class="layer"><g data-id="m1wez0hq" data-class="note" class="note"><g data-class="notehead" class="notehead"><use href="#E0A4-hd8osyk" transform="translate(2789, 540) scale(0.72, 0.72)"/></g><g data-id="w1pyyble" data-class="dots" class="dots"><ellipse cx="3105" cy="450" rx="36" ry="36" fill-opacity="1" stroke-opacity="1"/></g><g data-id="v1dnyn6a" data-class="stem" class="stem"><path d="M2798 568 L2798 1170" stroke-width="18"/><g data-id="x8ctri7" data-class="flag" class="flag"><use href="#E241-hd8osyk" transform="translate(2789, 1170) scale(0.72, 0.72)"/></g></g></g><g data-id="n10f20ib" data-class="note" class="note"><g data-class="notehead" class="notehead"><use href="#E0A4-hd8osyk" transform="translate(3369, 720) scale(0.72, 0.72)"/></g><g data-id="y1fhbooi" data-class="stem" class="stem"><path d="M3378 748 L3378 1350" stroke-width="18"/><g data-id="z9qa0up" data-class="flag" class="flag"><use href="#E243-hd8osyk" transform="translate(3369, 1350) scale(0.72, 0.72)"/></g></g></g><g data-id="op64wzv" data-class="note" class="note"><g data-class="notehead" class="notehead"><use href="#E0A4-hd8osyk" transform="translate(3685, 720) scale(0.72, 0.72)"/></g><g data-id="alhpqnu" data-class="stem" class="stem"><path d="M3694 748 L3694 1350" stroke-width="18"/><g data-id="b15i0r5t" data-class="flag" class="flag"><use href="#E241-hd8osyk" transform="translate(3685, 1350) scale(0.72, 0.72)"/></g></g></g><g data-id="p7233tl" data-class="note" class="note"><g data-class="notehead" class="notehead"><use href="#E0A4-hd8osyk" transform="translate(4135, 540) scale(0.72, 0.72)"/></g><g data-id="caz1ud" data-class="stem" class="stem"><path d="M4144 568 L4144 1170" stroke-width="18"/><g data-id="d16ei57q" data-class="flag" class="flag"><use href="#E241-hd8osyk" transform="translate(4135, 1170) scale(0.72, 0.72)"/></g></g></g></g></g><g data-id="z4kaarm" data-class="barLine" class="barLine"><path d="M4585 540 L4585 1260" stroke-width="27"/></g></g><g data-id="aig59yz" data-class="measure" class="measure"><g data-id="yiwadvg" data-class="staff" class="staff"><path d="M4598 540 L6591 540" stroke-width="13"/><path d="M4598 720 L6591 720" stroke-width="13"/><path d="M4598 900 L6591 900" stroke-width="13"/><path d="M4598 1080 L6591 1080" stroke-width="13"/><path d="M4598 1260 L6591 1260" stroke-width="13"/><g data-class="ledgerLines" class="ledgerLines above"><g data-class="lineDash" class="lineDash" data-related="#q1soliez"><path d="M4730 360 L5052 360" stroke-width="22"/></g><g data-class="lineDash" class="lineDash" data-related="#r6c7svo"><path d="M5180 360 L5502 360" stroke-width="22"/></g></g><g data-id="zp2ss48" data-class="layer" class="layer"><g data-id="q1soliez" data-class="note" class="note"><g data-class="notehead" class="notehead"><use href="#E0A4-hd8osyk" transform="translate(4778, 360) scale(0.72, 0.72)"/></g><g data-id="e4c542b" data-class="stem" class="stem"><path d="M4787 388 L4787 990" stroke-width="18"/><g data-id="f53hc5n" data-class="flag" class="flag"><use href="#E241-hd8osyk" transform="translate(4778, 990) scale(0.72, 0.72)"/></g></g></g><g data-id="r6c7svo" data-class="note" class="note"><g data-class="notehead" class="notehead"><use href="#E0A4-hd8osyk" transform="translate(5228, 360) scale(0.72, 0.72)"/></g><g data-id="g1s65tpn" data-class="stem" class="stem"><path d="M5237 388 L5237 990" stroke-width="18"/><g data-id="h74l577" data-class="flag" class="flag"><use href="#E241-hd8osyk" transform="translate(5228, 990) scale(0.72, 0.72)"/></g></g></g><g data-id="sftitnj" data-class="note" class="note"><g data-class="notehead" class="notehead"><use href="#E0A4-hd8osyk" transform="translate(5678, 450) scale(0.72, 0.72)"/></g><g data-id="iosm5xc" data-class="stem" class="stem"><path d="M5687 478 L5687 1080" stroke-width="18"/><g data-id="j6axsq2" data-class="flag" class="flag"><use href="#E241-hd8osyk" transform="translate(5678, 1080) scale(0.72, 0.72)"/></g></g><g data-id="bk4ono8" data-class="accid" class="accid"/></g><g data-id="t1w9p9ep" data-class="note" class="note"><g data-class="notehead" class="notehead"><use href="#E0A4-hd8osyk" transform="translate(6128, 540) scale(0.72, 0.72)"/></g><g data-id="k1yv8fz0" data-class="stem" class="stem"><path d="M6137 568 L6137 1170" stroke-width="18"/><g data-id="l1xeulrd" data-class="flag" class="flag"><use href="#E241-hd8osyk" transform="translate(6128, 1170) scale(0.72, 0.72)"/></g></g></g></g></g><g data-id="isd2dcr" data-class="barLine" class="barLine"><path d="M6578 540 L6578 1260" stroke-width="27"/></g></g><g data-id="j1wedk6u" data-class="measure" class="measure"><g data-id="asrvk1x" data-class="staff" class="staff"><path d="M6591 540 L8584 540" stroke-width="13"/><path d="M6591 720 L8584 720" stroke-width="13"/><path d="M6591 900 L8584 900" stroke-width="13"/><path d="M6591 1080 L8584 1080" stroke-width="13"/><path d="M6591 1260 L8584 1260" stroke-width="13"/><g data-class="ledgerLines" class="ledgerLines above"><g data-class="lineDash" class="lineDash" data-related="#uvbbssm"><path d="M6723 360 L7045 360" stroke-width="22"/></g><g data-class="lineDash" class="lineDash" data-related="#wdapudk"><path d="M7623 360 L7945 360" stroke-width="22"/></g></g><g data-id="biqos64" data-class="layer" class="layer"><g data-id="uvbbssm" data-class="note" class="note"><g data-class="notehead" class="notehead"><use href="#E0A4-hd8osyk" transform="translate(6771, 270) scale(0.72, 0.72)"/></g><g data-id="m9s7w99" data-class="stem" class="stem"><path d="M6780 298 L6780 900" stroke-width="18"/><g data-id="n5keum4" data-class="flag" class="flag"><use href="#E241-hd8osyk" transform="translate(6771, 900) scale(0.72, 0.72)"/></g></g></g><g data-id="v1ut1ho4" data-class="note" class="note"><g data-class="notehead" class="notehead"><use href="#E0A4-hd8osyk" transform="translate(7221, 450) scale(0.72, 0.72)"/></g><g data-id="opjx5s" data-class="stem" class="stem"><path d="M7230 478 L7230 1080" stroke-width="18"/><g data-id="p1vrrnqu" data-class="flag" class="flag"><use href="#E241-hd8osyk" transform="translate(7221, 1080) scale(0.72, 0.72)"/></g></g><g data-id="c1unawm0" data-class="accid" class="accid"/></g><g data-id="wdapudk" data-class="note" class="note"><g data-class="notehead" class="notehead"><use href="#E0A4-hd8osyk" transform="translate(7671, 270) scale(0.72, 0.72)"/></g><g data-id="q1ub9u0e" data-class="stem" class="stem"><path d="M7680 298 L7680 900" stroke-width="18"/><g data-id="rm4xch1" data-class="flag" class="flag"><use href="#E241-hd8osyk" transform="translate(7671, 900) scale(0.72, 0.72)"/></g></g></g><g data-id="xteaod3" data-class="note" class="note"><g data-class="notehead" class="notehead"><use href="#E0A4-hd8osyk" transform="translate(8121, 450) scale(0.72, 0.72)"/></g><g data-id="st5uqr4" data-class="stem" class="stem"><path d="M8130 478 L8130 1080" stroke-width="18"/><g data-id="t1uqzvnk" data-class="flag" class="flag"><use href="#E241-hd8osyk" transform="translate(8121, 1080) scale(0.72, 0.72)"/></g></g><g data-id="dej7oyw" data-class="accid" class="accid"/></g></g></g><g data-id="r4rv1dx" data-class="barLine" class="barLine"><path d="M8571 540 L8571 1260" stroke-width="27"/></g></g><g data-id="s1k2uf51" data-class="measure" class="measure"><g data-id="c1vzpvxg" data-class="staff" class="staff"><path d="M8584 540 L9827 540" stroke-width="13"/><path d="M8584 720 L9827 720" stroke-width="13"/><path d="M8584 900 L9827 900" stroke-width="13"/><path d="M8584 1080 L9827 1080" stroke-width="13"/><path d="M8584 1260 L9827 1260" stroke-width="13"/><g data-id="dkp575z" data-class="layer" class="layer"><g data-id="y523z3a" data-class="note" class="note"><g data-class="notehead" class="notehead"><use href="#E0A3-hd8osyk" transform="translate(8764, 720) scale(0.72, 0.72)"/></g><g data-id="uza4hhf" data-class="stem" class="stem"><path d="M8773 745 L8773 1350" stroke-width="18"/></g></g></g></g><g data-id="a1oyw8ao" data-class="tie" class="tie"><path d="M9035,675 C9259,522 9734,522 9962,675 C9721,570 9272,570 9035,675" stroke-linecap="round" stroke-linejoin="round" stroke-width="9"/></g><g data-id="a17k5h3k" data-class="barLine" class="barLine"><path d="M9814 540 L9814 1260" stroke-width="27"/></g></g><g data-id="bo8mn8t" data-class="measure" class="measure"><g data-id="e1dzs8e7" data-class="staff" class="staff"><path d="M9827 540 L11070 540" stroke-width="13"/><path d="M9827 720 L11070 720" stroke-width="13"/><path d="M9827 900 L11070 900" stroke-width="13"/><path d="M9827 1080 L11070 1080" stroke-width="13"/><path d="M9827 1260 L11070 1260" stroke-width="13"/><g data-id="fuhfjc2" data-class="layer" class="layer"><g data-id="zngvxry" data-class="note" class="note"><g data-class="notehead" class="notehead"><use href="#E0A3-hd8osyk" transform="translate(10007, 720) scale(0.72, 0.72)"/></g><g data-id="v9deba8" data-class="stem" class="stem"><path d="M10016 745 L10016 1350" stroke-width="18"/></g></g></g></g><g data-id="j13wijr9" data-class="barLine" class="barLine"><path d="M11057 540 L11057 1260" stroke-width="27"/></g></g><g data-id="n1z05ri1" data-class="systemMilestoneEnd" class="systemMilestoneEnd i1hftsqc"/></g><g data-id="o9fpekb" data-class="pageMilestoneEnd" class="pageMilestoneEnd gffucav"/><g data-id="p1u527pn" data-class="pageMilestoneEnd" class="pageMilestoneEnd f1p63n7x"/></g></svg></svg>