<svg viewBox="0 0 560 84" version="1.1" xmlns="http://www.w3.org/2000/svg" xmlns:xlink="http://www.w3.org/1999/xlink" overflow="visible" id="mkx6dfl"><desc>Engraved by Verovio 5.6.0-85e7620</desc><defs><g id="E062-mkx6dfl"><path transform="scale(1,-1)" d="M582 -120c0 32 26 58 58 58s58 -26 58 -58s-26 -58 -58 -58s-58 26 -58 58zM582 120c0 32 26 58 58 58s58 -26 58 -58s-26 -58 -58 -58s-58 26 -58 58zM158 96c51 0 73 -14 88 -49l16 -39c0 -17 -2 -30 -7 -40c-3 -11 -10 -21 -19 -31c-17 -18 -49 -43 -84 -43 c-55 0 -77 13 -112 44c-24 21 -35 55 -35 100c0 46 14 81 32 112c30 52 71 79 137 93l36 6l26 2c154 0 235 -68 274 -182c11 -32 18 -68 18 -107c0 -103 -26 -182 -68 -250c-89 -145 -234 -230 -412 -288l-30 -5c-9 0 -14 3 -14 8c3 10 5 11 10 16c35 15 70 30 96 44l78 43 c96 57 162 136 197 258c9 33 17 60 22 100c3 22 5 35 6 39c-7 69 -16 115 -23 140s-4 22 -16 40c-8 12 -19 23 -31 34c-24 21 -62 44 -118 44c-48 0 -84 -8 -113 -28c-28 -19 -42 -44 -42 -73v-16c2 -5 3 -9 4 -11c24 22 52 39 84 39z"/></g><g id="E262-mkx6dfl"><path transform="scale(1,-1)" d="M136 186v169h17v-164l44 14v-91l-44 -14v-165l44 12v-91l-44 -13v-155h-17v150l-76 -22v-155h-17v149l-43 -13v90l43 14v167l-43 -14v92l43 13v169h17v-163zM60 73v-167l76 22v168z"/></g><g id="E08A-mkx6dfl"><path transform="scale(1,-1)" d="M340 179c-9 24 -56 41 -89 41c-46 0 -81 -28 -100 -58c-17 -28 -25 -78 -25 -150c0 -65 2 -111 8 -135c8 -31 18 -49 40 -67c20 -17 43 -25 70 -25c54 0 92 36 115 75c14 25 23 54 28 88h27c0 -63 -24 -105 -58 -141c-35 -38 -82 -56 -140 -56c-45 0 -83 13 -115 39 c-57 45 -101 130 -101 226c0 59 33 127 68 163c36 37 97 72 160 72c36 0 93 -21 121 -40c11 -8 23 -17 33 -30c19 -23 27 -48 27 -76c0 -51 -35 -88 -86 -88c-43 0 -76 27 -76 68c0 26 7 35 21 51c15 17 32 27 58 32c7 2 14 7 14 11z"/></g><g id="E0A4-mkx6dfl"><path transform="scale(1,-1)" d="M0 -39c0 68 73 172 200 172c66 0 114 -37 114 -95c0 -84 -106 -171 -218 -171c-64 0 -96 30 -96 94z"/></g><g id="E07A-mkx6dfl"><path transform="scale(1,-1)" d="M343 -190c-18 -3 -37 -5 -59 -5c-46 0 -79 6 -101 16c-68 33 -117 72 -146 119c-20 34 -33 80 -37 137c0 5 -1 10 -1 15c0 42 12 86 35 132c23 44 51 82 86 115s75 65 119 98c-2 12 -7 36 -11 72c-3 33 -3 57 -3 69c0 91 12 134 53 200c26 42 50 63 69 63 c16 0 34 -23 54 -71s30 -90 32 -124v-11c0 -85 -16 -126 -52 -187c-10 -16 -49 -70 -76 -92c-10 -7 -20 -15 -29 -23l24 -140c6 1 14 1 22 1c45 0 79 -9 103 -27c46 -33 71 -81 76 -143c1 -5 1 -12 1 -17c0 -96 -68 -163 -141 -193c6 -44 14 -86 20 -126c4 -24 4 -45 4 -62 c0 -23 -3 -41 -10 -54c-27 -50 -69 -77 -123 -80c-4 0 -9 -1 -13 -1c-29 0 -56 8 -84 21c-39 19 -60 46 -62 82v8c0 23 6 43 16 59c14 22 35 32 61 34h5c38 0 72 -32 75 -67v-7c0 -40 -26 -67 -81 -83c13 -19 39 -28 79 -28c48 0 90 34 109 67c7 12 10 31 10 57 c0 16 -1 33 -4 52c-6 41 -14 83 -20 124zM358 730c-74 0 -105 -137 -105 -223c0 -19 2 -37 4 -55c39 30 72 64 99 100c31 41 46 77 46 108v7c-3 41 -16 63 -42 63h-2zM315 92l42 -253c57 19 86 61 86 125c0 5 0 12 -1 18c-5 74 -44 110 -117 110h-10zM297 91 c-56 -2 -100 -36 -100 -93v-6c2 -36 34 -77 59 -89c-2 -2 -6 -4 -8 -8c-54 26 -91 69 -96 134v8c0 53 35 98 69 124c18 13 37 23 60 28l-22 132c-16 -10 -41 -29 -72 -57c-39 -34 -66 -65 -84 -92c-35 -54 -52 -102 -52 -142v-10c4 -53 27 -99 72 -137s96 -56 157 -56 c19 0 40 2 59 7c-15 86 -28 172 -42 257z"/></g><g id="E0A3-mkx6dfl"><path transform="scale(1,-1)" d="M278 64c0 22 -17 39 -43 39c-12 0 -26 -3 -41 -10c-85 -43 -165 -94 -165 -156c5 -25 15 -32 49 -32c67 11 200 95 200 159zM0 -36c0 68 73 174 200 174c66 0 114 -39 114 -97c0 -84 -106 -173 -218 -173c-64 0 -96 32 -96 96z"/></g><g id="E4C0-mkx6dfl"><path transform="scale(1,-1)" d="M0 0c0 0 40 320 300 320s300 -320 300 -320h-32s-38 227 -268 227s-268 -227 -268 -227h-32zM355 52c0 -30 -25 -55 -55 -55s-55 25 -55 55s25 55 55 55s55 -25 55 -55z"/></g><g id="E240-mkx6dfl"><path transform="scale(1,-1)" d="M179 -646c15 29 29 55 46 102c18 49 30 108 30 138c0 105 -80 173 -168 200c-18 5 -47 9 -87 16v190h22c8 0 33 -61 71 -95c4 -3 -2 3 61 -56c62 -58 122 -137 122 -241c0 -38 -13 -106 -35 -163c-20 -51 -43 -99 -66 -132c-6 -5 -10 -7 -13 -7s-5 2 -5 5l4 10 c1 3 14 25 18 33z"/></g></defs><style type="text/css">#mkx6dfl g.page-margin {font-family:Times,serif;}#mkx6dfl g.ending, #mkx6dfl g.fing, #mkx6dfl g.reh, #mkx6dfl g.tempo {font-weight:bold;}#mkx6dfl g.dir, #mkx6dfl g.dynam, #mkx6dfl g.mNum {font-style:italic;}#mkx6dfl g.label {font-weight:normal;}#mkx6dfl path {stroke:currentColor}</style><svg class="definition-scale" color="black" viewBox="0 0 14000 2100"><g class="page-margin" transform="translate(0, 150)"><g data-id="w1blazrs" data-class="mdiv" class="mdiv pageMilestone"/><g data-id="x1lo4t3e" data-class="score" class="score pageMilestone"/><g data-id="f1ly20sj" data-class="system" class="system"><g data-id="zz57ma3" data-class="section" class="section systemMilestone"/><g data-id="n12nyki6" data-class="measure" class="measure"><g data-id="lc8jjuo" data-class="staff" class="staff"><path d="M0 540 L8692 540" stroke-width="13"/><path d="M0 720 L8692 720" stroke-width="13"/><path d="M0 900 L8692 900" stroke-width="13"/><path d="M0 1080 L8692 1080" stroke-width="13"/><path d="M0 1260 L8692 1260" stroke-width="13"/><g data-id="csvdr3q" data-class="clef" class="clef"><use href="#E062-mkx6dfl" transform="translate(88, 720) scale(0.72, 0.72)"/></g><g data-id="d6wqoqn" data-class="keySig" class="keySig"><g data-id="ep4kvzi" data-class="keyAccid" class="keyAccid"><use href="#E262-mkx6dfl" transform="translate(769, 720) scale(0.72, 0.72)"/></g></g><g data-id="fg36qjv" data-class="meterSig" class="meterSig"><use href="#E08A-mkx6dfl" transform="translate(1090, 900) scale(0.72, 0.72)"/></g><g data-class="ledgerLines" class="ledgerLines below"><g data-class="lineDash" class="lineDash" data-related="#yy4knch"><path d="M1620 1440 L1942 1440" stroke-width="22"/></g><g data-class="lineDash" class="lineDash" data-related="#b1nzquie"><path d="M3859 1440 L4181 1440" stroke-width="22"/></g><g data-class="lineDash" class="lineDash" data-related="#c1553xq1"><path d="M4576 1440 L4898 1440" stroke-width="22"/></g><g data-class="lineDash" class="lineDash" data-related="#b1nzquie"><path d="M3859 1620 L4181 1620" stroke-width="22"/></g></g><g data-id="m1b3sl6t" data-class="layer" class="layer"><g data-id="yy4knch" data-class="note" class="note"><g data-class="notehead" class="notehead"><use href="#E0A4-mkx6dfl" transform="translate(1668, 1440) scale(0.72, 0.72)"/></g><g data-id="e1n3kz5b" data-class="stem" class="stem"><path d="M1885 1412 L1885 810" stroke-width="18"/></g></g><g data-id="z1n9mmkc" data-class="note" class="note"><g data-class="notehead" class="notehead"><use href="#E0A4-mkx6dfl" transform="translate(2384, 1080) scale(0.72, 0.72)"/></g><g data-id="ffji3hh" data-class="stem" class="stem"><path d="M2601 1052 L2601 450" stroke-width="18"/></g></g><g data-id="a1kpuni2" data-class="note" class="note"><g data-class="notehead" class="notehead"><use href="#E0A4-mkx6dfl" transform="translate(3100, 810) scale(0.72, 0.72)"/></g><g data-id="g1juzd7e" data-class="stem" class="stem"><path d="M3109 838 L3109 1440" stroke-width="18"/></g></g><g data-id="w14f4gbb" data-class="clef" class="clef"><use href="#E07A-mkx6dfl" transform="translate(3455, 1080) scale(0.72, 0.72)"/></g><g data-id="b1nzquie" data-class="note" class="note"><g data-class="notehead" class="notehead"><use href="#E0A4-mkx6dfl" transform="translate(3907, 1710) scale(0.72, 0.72)"/></g><g data-id="htd2x6i" data-class="stem" class="stem"><path d="M4124 1682 L4124 900" stroke-width="18"/></g></g><g data-id="c1553xq1" data-class="note" class="note"><g data-class="notehead" class="notehead"><use href="#E0A4-mkx6dfl" transform="translate(4624, 1530) scale(0.72, 0.72)"/></g><g data-id="i5jwhh9" data-class="stem" class="stem"><path d="M4841 1502 L4841 900" stroke-width="18"/></g></g><g data-id="djyalvl" data-class="note" class="note"><g data-class="notehead" class="notehead"><use href="#E0A4-mkx6dfl" transform="translate(5340, 1260) scale(0.72, 0.72)"/></g><g data-id="j6blzm0" data-class="stem" class="stem"><path d="M5557 1232 L5557 630" stroke-width="18"/></g></g><g data-id="e1w1nhmi" data-class="note" class="note"><g data-class="notehead" class="notehead"><use href="#E0A4-mkx6dfl" transform="translate(6056, 1080) scale(0.72, 0.72)"/></g><g data-id="k4u0u85" data-class="stem" class="stem"><path d="M6273 1052 L6273 450" stroke-width="18"/></g></g><g data-id="f3lelft" data-class="note" class="note"><g data-class="notehead" class="notehead"><use href="#E0A3-mkx6dfl" transform="translate(6773, 1350) scale(0.72, 0.72)"/></g><g data-id="l1giq77l" data-class="stem" class="stem"><path d="M6990 1322 L6990 720" stroke-width="18"/></g><g data-id="r19dxu4" data-class="accid" class="accid"><use href="#E262-mkx6dfl" transform="translate(6587, 1350) scale(0.72, 0.72)"/></g></g><g data-id="g1v4safd" data-class="note" class="note"><g data-class="notehead" class="notehead"><use href="#E0A4-mkx6dfl" transform="translate(7863, 1260) scale(0.72, 0.72)"/></g><g data-id="m12xrndm" data-class="stem" class="stem"><path d="M8080 1232 L8080 630" stroke-width="18"/></g></g></g></g><g data-id="p1nzhsqh" data-class="fermata" class="fermata"><use href="#E4C0-mkx6dfl" transform="translate(6670, 493) scale(0.72, 0.72)"/></g><g data-id="qctn8fd" data-class="fermata" class="fermata"><use href="#E4C0-mkx6dfl" transform="translate(7760, 493) scale(0.72, 0.72)"/></g><g data-id="v16w2r" data-class="barLine" class="barLine"><path d="M8580 540 L8580 1260" stroke-width="27"/><path d="M8679 540 L8679 1260" stroke-width="27"/></g></g><g data-id="xi3bx2w" data-class="measure" class="measure"><g data-id="n16xj8m7" data-class="staff" class="staff"><path d="M8692 540 L9843 540" stroke-width="13"/><path d="M8692 720 L9843 720" stroke-width="13"/><path d="M8692 900 L9843 900" stroke-width="13"/><path d="M8692 1080 L9843 1080" stroke-width="13"/><path d="M8692 1260 L9843 1260" stroke-width="13"/><g data-id="oa9tfvo" data-class="layer" class="layer"><g data-id="s8epwi6" data-class="beam" class="beam"><polygon stroke-opacity="1" fill-opacity="1" points="9090,630 9710,540 9710,630 9090,720"/><polygon stroke-opacity="1" fill-opacity="1" points="9484,706 9710,675 9710,765 9484,796"/><g data-id="h1mlff7d" data-class="note" class="note"><g data-class="notehead" class="notehead"><use href="#E0A4-mkx6dfl" transform="translate(8882, 1260) scale(0.72, 0.72)"/></g><g data-id="o1nzylwd" data-class="dots" class="dots"><ellipse cx="9198" cy="1170" rx="36" ry="36" fill-opacity="1" stroke-opacity="1"/></g><g data-id="n1wlcu8h" data-class="stem" class="stem"><path d="M9099 1232 L9099 648" stroke-width="18"/></g></g><g data-id="iw5n0q6" data-class="note" class="note"><g data-class="notehead" class="notehead"><use href="#E0A4-mkx6dfl" transform="translate(9484, 1170) scale(0.72, 0.72)"/></g><g data-id="p3tioo6" data-class="stem" class="stem"><path d="M9701 1142 L9701 558" stroke-width="18"/></g><g data-id="u158ndqc" data-class="accid" class="accid"/></g></g></g></g><g data-id="f18lprjx" data-class="barLine" class="barLine"><path d="M9830 540 L9830 1260" stroke-width="27"/></g></g><g data-id="gvggezp" data-class="measure" class="measure"><g data-id="p1qwudmt" data-class="staff" class="staff"><path d="M9843 540 L12427 540" stroke-width="13"/><path d="M9843 720 L12427 720" stroke-width="13"/><path d="M9843 900 L12427 900" stroke-width="13"/><path d="M9843 1080 L12427 1080" stroke-width="13"/><path d="M9843 1260 L12427 1260" stroke-width="13"/><g data-id="qoj6xfg" data-class="layer" class="layer"><g data-id="j1uvww52" data-class="note" class="note"><g data-class="notehead" class="notehead"><use href="#E0A4-mkx6dfl" transform="translate(10033, 1080) scale(0.72, 0.72)"/></g><g data-id="qdg7h7g" data-class="stem" class="stem"><path d="M10250 1052 L10250 450" stroke-width="18"/></g></g><g data-id="karwrzw" data-class="note" class="note"><g data-class="notehead" class="notehead"><use href="#E0A4-mkx6dfl" transform="translate(10749, 630) scale(0.72, 0.72)"/></g><g data-id="r1kt798m" data-class="stem" class="stem"><path d="M10758 658 L10758 1260" stroke-width="18"/></g></g><g data-id="t1xlcslv" data-class="beam" class="beam"><polygon stroke-opacity="1" fill-opacity="1" points="11465,1350 12085,1440 12085,1350 11465,1260"/><polygon stroke-opacity="1" fill-opacity="1" points="11859,1273 12085,1305 12085,1215 11859,1183"/><g data-id="lqiy34j" data-class="note" class="note"><g data-class="notehead" class="notehead"><use href="#E0A4-mkx6dfl" transform="translate(11465, 720) scale(0.72, 0.72)"/></g><g data-id="t1q2whmf" data-class="dots" class="dots"><ellipse cx="11781" cy="630" rx="36" ry="36" fill-opacity="1" stroke-opacity="1"/></g><g data-id="sbp1ybf" data-class="stem" class="stem"><path d="M11474 748 L11474 1332" stroke-width="18"/></g></g><g data-id="mj63tt4" data-class="note" class="note"><g data-class="notehead" class="notehead"><use href="#E0A4-mkx6dfl" transform="translate(12067, 810) scale(0.72, 0.72)"/></g><g data-id="udbsb8h" data-class="stem" class="stem"><path d="M12076 838 L12076 1422" stroke-width="18"/></g></g></g></g></g><g data-id="o18taznm" data-class="barLine" class="barLine"><path d="M12414 540 L12414 1260" stroke-width="27"/></g></g><g data-id="pu2sae4" data-class="measure" class="measure"><g data-id="rlj9adu" data-class="staff" class="staff"><path d="M12427 540 L14002 540" stroke-width="13"/><path d="M12427 720 L14002 720" stroke-width="13"/><path d="M12427 900 L14002 900" stroke-width="13"/><path d="M12427 1080 L14002 1080" stroke-width="13"/><path d="M12427 1260 L14002 1260" stroke-width="13"/><g data-id="s1f3mhqz" data-class="layer" class="layer"><g data-id="n1sjabkm" data-class="note" class="note"><g data-class="notehead" class="notehead"><use href="#E0A4-mkx6dfl" transform="translate(12541, 900) scale(0.54, 0.54)"/></g><g data-id="v32vn79" data-class="stem" class="stem"><path d="M12701 879 L12701 450" stroke-width="18"/><path d="M12634 718 L12835 517" stroke-width="21"/><g data-id="w6zkbjo" data-class="flag" class="flag"><use href="#E240-mkx6dfl" transform="translate(12692, 450) scale(0.54, 0.54)"/></g></g></g><g data-id="o188320a" data-class="note" class="note"><g data-class="notehead" class="notehead"><use href="#E0A3-mkx6dfl" transform="translate(12912, 1080) scale(0.72, 0.72)"/></g><g data-id="x1s4wqsd" data-class="stem" class="stem"><path d="M13129 1052 L13129 450" stroke-width="18"/></g></g></g></g><g data-id="xa8m5as" data-class="barLine" class="barLine"/></g><g data-id="a1y2882u" data-class="systemMilestoneEnd" class="systemMilestoneEnd zz57ma3"/></g><g data-id="bw1c9r2" data-class="pageMilestoneEnd" class="pageMilestoneEnd x1lo4t3e"/><g data-id="cmv9k4x" data-class="pageMilestoneEnd" class="pageMilestoneEnd w1blazrs"/></g></svg></svg>