<svg viewBox="0 0 560 84" version="1.1" xmlns="http://www.w3.org/2000/svg" xmlns:xlink="http://www.w3.org/1999/xlink" overflow="visible" id="ye6eunz"><desc>Engraved by Verovio 5.6.0-85e7620</desc><defs><g id="E050-ye6eunz"><path transform="scale(1,-1)" d="M441 -245c-23 -4 -48 -6 -76 -6c-59 0 -102 7 -130 20c-88 42 -150 93 -187 154c-26 44 -43 103 -48 176c0 6 -1 13 -1 19c0 54 15 111 45 170c29 57 65 106 110 148s96 85 153 127c-3 16 -8 46 -13 92c-4 43 -5 73 -5 89c0 117 16 172 69 257c34 54 64 82 89 82 c21 0 43 -30 69 -92s39 -115 41 -159v-15c0 -109 -21 -162 -67 -241c-13 -20 -63 -90 -98 -118c-13 -9 -25 -19 -37 -29l31 -181c8 1 18 2 28 2c58 0 102 -12 133 -35c59 -43 92 -104 98 -184c1 -7 1 -15 1 -22c0 -123 -87 -209 -181 -248c8 -57 17 -110 25 -162 c5 -31 6 -58 6 -80c0 -30 -5 -53 -14 -70c-35 -64 -88 -99 -158 -103c-5 0 -11 -1 -16 -1c-37 0 -72 10 -108 27c-50 24 -77 59 -80 105v11c0 29 7 55 20 76c18 28 45 42 79 44h6c49 0 93 -42 97 -87v-9c0 -51 -34 -86 -105 -106c17 -24 51 -36 102 -36c62 0 116 43 140 85 c9 16 13 41 13 74c0 20 -1 42 -5 67c-8 53 -18 106 -26 159zM461 939c-95 0 -135 -175 -135 -286c0 -24 2 -48 5 -71c50 39 92 82 127 128c40 53 60 100 60 140v8c-4 53 -22 81 -55 81h-2zM406 119l54 -326c73 25 110 78 110 161c0 7 0 15 -1 23c-7 95 -57 142 -151 142h-12 zM382 117c-72 -2 -128 -47 -128 -120v-7c2 -46 43 -99 75 -115c-3 -2 -7 -5 -10 -10c-70 33 -116 88 -123 172v11c0 68 44 126 88 159c23 17 49 29 78 36l-29 170c-21 -13 -52 -37 -92 -73c-50 -44 -86 -84 -109 -119c-45 -69 -67 -130 -67 -182v-13c5 -68 35 -127 93 -176 s125 -73 203 -73c25 0 50 3 75 9c-19 111 -36 221 -54 331z"/></g><g id="E262-ye6eunz"><path transform="scale(1,-1)" d="M136 186v169h17v-164l44 14v-91l-44 -14v-165l44 12v-91l-44 -13v-155h-17v150l-76 -22v-155h-17v149l-43 -13v90l43 14v167l-43 -14v92l43 13v169h17v-163zM60 73v-167l76 22v168z"/></g><g id="E08A-ye6eunz"><path transform="scale(1,-1)" d="M340 179c-9 24 -56 41 -89 41c-46 0 -81 -28 -100 -58c-17 -28 -25 -78 -25 -150c0 -65 2 -111 8 -135c8 -31 18 -49 40 -67c20 -17 43 -25 70 -25c54 0 92 36 115 75c14 25 23 54 28 88h27c0 -63 -24 -105 -58 -141c-35 -38 -82 -56 -140 -56c-45 0 -83 13 -115 39 c-57 45 -101 130 -101 226c0 59 33 127 68 163c36 37 97 72 160 72c36 0 93 -21 121 -40c11 -8 23 -17 33 -30c19 -23 27 -48 27 -76c0 -51 -35 -88 -86 -88c-43 0 -76 27 -76 68c0 26 7 35 21 51c15 17 32 27 58 32c7 2 14 7 14 11z"/></g><g id="E4E6-ye6eunz"><path transform="scale(1,-1)" d="M0 123c7 34 33 56 69 60c29 -3 43 -9 53 -29c4 -8 7 -15 10 -22c0 -21 -1 -25 -11 -35c-5 -8 -18 -14 -40 -20l12 -3l15 -1c44 0 97 26 122 56c10 11 18 26 24 42c7 1 15 2 22 3l-140 -424h-36l111 330c-10 -6 -27 -12 -53 -16l-52 -8h-10l-20 1c-1 0 -8 3 -21 6 c-37 9 -55 28 -55 60z"/></g><g id="E0A4-ye6eunz"><path transform="scale(1,-1)" d="M0 -39c0 68 73 172 200 172c66 0 114 -37 114 -95c0 -84 -106 -171 -218 -171c-64 0 -96 30 -96 94z"/></g></defs><style type="text/css">#ye6eunz g.page-margin {font-family:Times,serif;}#ye6eunz g.ending, #ye6eunz g.fing, #ye6eunz g.reh, #ye6eunz g.tempo {font-weight:bold;}#ye6eunz g.dir, #ye6eunz g.dynam, #ye6eunz g.mNum {font-style:italic;}#ye6eunz g.label {font-weight:normal;}#ye6eunz path {stroke:currentColor}</style><svg class="definition-scale" color="black" viewBox="0 0 14000 2100"><g class="page-margin" transform="translate(0, 150)"><g data-id="nw76ads" data-class="mdiv" class="mdiv pageMilestone"/><g data-id="o1w2fzzl" data-class="score" class="score pageMilestone"/><g data-id="x14c1smj" data-class="system" class="system"><g data-id="qgk21jz" data-class="section" class="section systemMilestone"/><g data-id="zedz8vg" data-class="measure" class="measure"><g data-id="c1nkdym4" data-class="staff" class="staff"><path d="M0 540 L5986 540" stroke-width="13"/><path d="M0 720 L5986 720" stroke-width="13"/><path d="M0 900 L5986 900" stroke-width="13"/><path d="M0 1080 L5986 1080" stroke-width="13"/><path d="M0 1260 L5986 1260" stroke-width="13"/><g data-id="j1h3inhv" data-class="clef" class="clef"><use href="#E050-ye6eunz" transform="translate(90, 1080) scale(0.72, 0.72)"/></g><g data-id="kibm59f" data-class="keySig" class="keySig"><g data-id="lsai4yt" data-class="keyAccid" class="keyAccid"><use href="#E262-ye6eunz" transform="translate(735, 540) scale(0.72, 0.72)"/></g><g data-id="m1iw4y2r" data-class="keyAccid" class="keyAccid"><use href="#E262-ye6eunz" transform="translate(913, 810) scale(0.72, 0.72)"/></g><g data-id="ng5aidd" data-class="keyAccid" class="keyAccid"><use href="#E262-ye6eunz" transform="translate(1091, 450) scale(0.72, 0.72)"/></g><g data-id="o1biz2pp" data-class="keyAccid" class="keyAccid"><use href="#E262-ye6eunz" transform="translate(1269, 720) scale(0.72, 0.72)"/></g></g><g data-id="pgxl636" data-class="meterSig" class="meterSig"><use href="#E08A-ye6eunz" transform="translate(1590, 900) scale(0.72, 0.72)"/></g><g data-id="d1v0i3an" data-class="layer" class="layer"><g data-id="t1kts4yv" data-class="rest" class="rest"><use href="#E4E6-ye6eunz" transform="translate(2168, 900) scale(0.72, 0.72)"/></g><g data-id="v1w6hkbs" data-class="beam" class="beam"><polygon stroke-opacity="1" fill-opacity="1" points="2852,495 3821,495 3821,585 2852,585"/><g data-id="zedltj" data-class="note" class="note"><g data-class="notehead" class="notehead"><use href="#E0A4-ye6eunz" transform="translate(2644, 1080) scale(0.72, 0.72)"/></g><g data-id="g105trml" data-class="stem" class="stem"><path d="M2861 1052 L2861 513" stroke-width="18"/></g><g data-id="iux753z" data-class="accid" class="accid"/></g><g data-id="aha81t" data-class="note" class="note"><g data-class="notehead" class="notehead"><use href="#E0A4-ye6eunz" transform="translate(3119, 1080) scale(0.72, 0.72)"/></g><g data-id="h5ufkjp" data-class="stem" class="stem"><path d="M3336 1052 L3336 513" stroke-width="18"/></g><g data-id="j2tfgkp" data-class="accid" class="accid"/></g><g data-id="bna1y53" data-class="note" class="note"><g data-class="notehead" class="notehead"><use href="#E0A4-ye6eunz" transform="translate(3595, 1080) scale(0.72, 0.72)"/></g><g data-id="i1luvljn" data-class="stem" class="stem"><path d="M3812 1052 L3812 513" stroke-width="18"/></g><g data-id="k1atlu6p" data-class="accid" class="accid"/></g></g><g data-id="w10oj3id" data-class="beam" class="beam"><polygon stroke-opacity="1" fill-opacity="1" points="4279,315 5723,315 5723,405 4279,405"/><g data-id="c13zfik2" data-class="note" class="note"><g data-class="notehead" class="notehead"><use href="#E0A4-ye6eunz" transform="translate(4071, 1080) scale(0.72, 0.72)"/></g><g data-id="j1a20436" data-class="stem" class="stem"><path d="M4288 1052 L4288 333" stroke-width="18"/></g><g data-id="l1m94vb0" data-class="accid" class="accid"/></g><g data-id="doomjjt" data-class="note" class="note"><g data-class="notehead" class="notehead"><use href="#E0A4-ye6eunz" transform="translate(4546, 1080) scale(0.72, 0.72)"/></g><g data-id="k127d18o" data-class="stem" class="stem"><path d="M4763 1052 L4763 333" stroke-width="18"/></g><g data-id="mdbjvh" data-class="accid" class="accid"/></g><g data-id="e1l8vo36" data-class="note" class="note"><g data-class="notehead" class="notehead"><use href="#E0A4-ye6eunz" transform="translate(5022, 900) scale(0.72, 0.72)"/></g><g data-id="ljxr9bl" data-class="stem" class="stem"><path d="M5239 872 L5239 333" stroke-width="18"/></g></g><g data-id="f1eg7684" data-class="note" class="note"><g data-class="notehead" class="notehead"><use href="#E0A4-ye6eunz" transform="translate(5497, 1080) scale(0.72, 0.72)"/></g><g data-id="m9iydiw" data-class="stem" class="stem"><path d="M5714 1052 L5714 333" stroke-width="18"/></g><g data-id="n5ywqcb" data-class="accid" class="accid"/></g></g></g></g><g data-id="h13hlnoy" data-class="barLine" class="barLine"><path d="M5973 540 L5973 1260" stroke-width="27"/></g></g><g data-id="i1klpwyv" data-class="measure" class="measure"><g data-id="ec1q2bq" data-class="staff" class="staff"><path d="M5986 540 L9994 540" stroke-width="13"/><path d="M5986 720 L9994 720" stroke-width="13"/><path d="M5986 900 L9994 900" stroke-width="13"/><path d="M5986 1080 L9994 1080" stroke-width="13"/><path d="M5986 1260 L9994 1260" stroke-width="13"/><g data-id="f1wxzff8" data-class="layer" class="layer"><g data-id="ukqw4p" data-class="rest" class="rest"><use href="#E4E6-ye6eunz" transform="translate(6176, 900) scale(0.72, 0.72)"/></g><g data-id="xxfbqts" data-class="beam" class="beam"><polygon stroke-opacity="1" fill-opacity="1" points="6860,540 7829,540 7829,630 6860,630"/><g data-id="gykwj2p" data-class="note" class="note"><g data-class="notehead" class="notehead"><use href="#E0A4-ye6eunz" transform="translate(6652, 1170) scale(0.72, 0.72)"/></g><g data-id="nusmiiv" data-class="stem" class="stem"><path d="M6869 1142 L6869 558" stroke-width="18"/></g><g data-id="ofpioia" data-class="accid" class="accid"/></g><g data-id="h2osxtk" data-class="note" class="note"><g data-class="notehead" class="notehead"><use href="#E0A4-ye6eunz" transform="translate(7127, 1170) scale(0.72, 0.72)"/></g><g data-id="om04qip" data-class="stem" class="stem"><path d="M7344 1142 L7344 558" stroke-width="18"/></g><g data-id="px0ks5s" data-class="accid" class="accid"/></g><g data-id="ipj3q71" data-class="note" class="note"><g data-class="notehead" class="notehead"><use href="#E0A4-ye6eunz" transform="translate(7603, 1170) scale(0.72, 0.72)"/></g><g data-id="ptayvmo" data-class="stem" class="stem"><path d="M7820 1142 L7820 558" stroke-width="18"/></g><g data-id="qtrnjpv" data-class="accid" class="accid"/></g></g><g data-id="yd5nwm0" data-class="beam" class="beam"><polygon stroke-opacity="1" fill-opacity="1" points="8287,540 9731,540 9731,630 8287,630"/><g data-id="j17i9ujb" data-class="note" class="note"><g data-class="notehead" class="notehead"><use href="#E0A4-ye6eunz" transform="translate(8079, 1170) scale(0.72, 0.72)"/></g><g data-id="qy8k9xs" data-class="stem" class="stem"><path d="M8296 1142 L8296 558" stroke-width="18"/></g><g data-id="r1ul2kln" data-class="accid" class="accid"/></g><g data-id="k1y7i4gp" data-class="note" class="note"><g data-class="notehead" class="notehead"><use href="#E0A4-ye6eunz" transform="translate(8554, 1170) scale(0.72, 0.72)"/></g><g data-id="r1m9yrv7" data-class="stem" class="stem"><path d="M8771 1142 L8771 558" stroke-width="18"/></g><g data-id="s19o22i1" data-class="accid" class="accid"/></g><g data-id="l12a9gwj" data-class="note" class="note"><g data-class="notehead" class="notehead"><use href="#E0A4-ye6eunz" transform="translate(9030, 1170) scale(0.72, 0.72)"/></g><g data-id="sumul98" data-class="stem" class="stem"><path d="M9247 1142 L9247 558" stroke-width="18"/></g><g data-id="tsl6egu" data-class="accid" class="accid"/></g><g data-id="m7l2fpd" data-class="note" class="note"><g data-class="notehead" class="notehead"><use href="#E0A4-ye6eunz" transform="translate(9505, 1170) scale(0.72, 0.72)"/></g><g data-id="tah3srv" data-class="stem" class="stem"><path d="M9722 1142 L9722 558" stroke-width="18"/></g><g data-id="u4dlq07" data-class="accid" class="accid"/></g></g></g></g><g data-id="qm3ijmt" data-class="barLine" class="barLine"><path d="M9981 540 L9981 1260" stroke-width="27"/></g></g><g data-id="r111148j" data-class="measure" class="measure"><g data-id="gi0q1vn" data-class="staff" class="staff"><path d="M9994 540 L14002 540" stroke-width="13"/><path d="M9994 720 L14002 720" stroke-width="13"/><path d="M9994 900 L14002 900" stroke-width="13"/><path d="M9994 1080 L14002 1080" stroke-width="13"/><path d="M9994 1260 L14002 1260" stroke-width="13"/><g data-id="h14ltn2v" data-class="layer" class="layer"><g data-id="zivtbjz" data-class="beam" class="beam"><polygon stroke-opacity="1" fill-opacity="1" points="10392,540 11837,540 11837,630 10392,630"/><g data-id="nxoyuif" data-class="note" class="note"><g data-class="notehead" class="notehead"><use href="#E0A4-ye6eunz" transform="translate(10184, 1170) scale(0.72, 0.72)"/></g><g data-id="uw4qysq" data-class="stem" class="stem"><path d="M10401 1142 L10401 558" stroke-width="18"/></g><g data-id="vfrb8ef" data-class="accid" class="accid"/></g><g data-id="ok0ukvh" data-class="note" class="note"><g data-class="notehead" class="notehead"><use href="#E0A4-ye6eunz" transform="translate(10660, 1170) scale(0.72, 0.72)"/></g><g data-id="v1l8xf0v" data-class="stem" class="stem"><path d="M10877 1142 L10877 558" stroke-width="18"/></g><g data-id="w1d8brlc" data-class="accid" class="accid"/></g><g data-id="p1fk0s8a" data-class="note" class="note"><g data-class="notehead" class="notehead"><use href="#E0A4-ye6eunz" transform="translate(11135, 1170) scale(0.72, 0.72)"/></g><g data-id="w178i68o" data-class="stem" class="stem"><path d="M11352 1142 L11352 558" stroke-width="18"/></g><g data-id="x1sln4p1" data-class="accid" class="accid"/></g><g data-id="q11x12kl" data-class="note" class="note"><g data-class="notehead" class="notehead"><use href="#E0A4-ye6eunz" transform="translate(11611, 1170) scale(0.72, 0.72)"/></g><g data-id="x1opgw99" data-class="stem" class="stem"><path d="M11828 1142 L11828 558" stroke-width="18"/></g><g data-id="yxgtkof" data-class="accid" class="accid"/></g></g><g data-id="a1gcj98c" data-class="beam" class="beam"><polygon stroke-opacity="1" fill-opacity="1" points="12295,360 13739,360 13739,450 12295,450"/><g data-id="r56bnv8" data-class="note" class="note"><g data-class="notehead" class="notehead"><use href="#E0A4-ye6eunz" transform="translate(12087, 1170) scale(0.72, 0.72)"/></g><g data-id="y1bkk3v3" data-class="stem" class="stem"><path d="M12304 1142 L12304 378" stroke-width="18"/></g><g data-id="z1az03i0" data-class="accid" class="accid"/></g><g data-id="sjz22er" data-class="note" class="note"><g data-class="notehead" class="notehead"><use href="#E0A4-ye6eunz" transform="translate(12562, 1170) scale(0.72, 0.72)"/></g><g data-id="zt2n55o" data-class="stem" class="stem"><path d="M12779 1142 L12779 378" stroke-width="18"/></g><g data-id="a1tq9veo" data-class="accid" class="accid"/></g><g data-id="t8ggcwn" data-class="note" class="note"><g data-class="notehead" class="notehead"><use href="#E0A4-ye6eunz" transform="translate(13038, 990) scale(0.72, 0.72)"/></g><g data-id="a1qz5rmb" data-class="stem" class="stem"><path d="M13255 962 L13255 378" stroke-width="18"/></g></g><g data-id="um2tvzc" data-class="note" class="note"><g data-class="notehead" class="notehead"><use href="#E0A4-ye6eunz" transform="translate(13513, 1350) scale(0.72, 0.72)"/></g><g data-id="b1f3o3kw" data-class="stem" class="stem"><path d="M13730 1322 L13730 378" stroke-width="18"/></g><g data-id="b1ae4osg" data-class="accid" class="accid"/></g></g></g></g><g data-id="zsf89fk" data-class="barLine" class="barLine"><path d="M13989 540 L13989 1260" stroke-width="27"/></g></g></g></g></svg></svg>