<svg viewBox="0 0 560 88" version="1.1" xmlns="http://www.w3.org/2000/svg" xmlns:xlink="http://www.w3.org/1999/xlink" overflow="visible" id="t4cdvul"><desc>Engraved by Verovio 5.6.0-85e7620</desc><defs><g id="E062-t4cdvul"><path transform="scale(1,-1)" d="M582 -120c0 32 26 58 58 58s58 -26 58 -58s-26 -58 -58 -58s-58 26 -58 58zM582 120c0 32 26 58 58 58s58 -26 58 -58s-26 -58 -58 -58s-58 26 -58 58zM158 96c51 0 73 -14 88 -49l16 -39c0 -17 -2 -30 -7 -40c-3 -11 -10 -21 -19 -31c-17 -18 -49 -43 -84 -43 c-55 0 -77 13 -112 44c-24 21 -35 55 -35 100c0 46 14 81 32 112c30 52 71 79 137 93l36 6l26 2c154 0 235 -68 274 -182c11 -32 18 -68 18 -107c0 -103 -26 -182 -68 -250c-89 -145 -234 -230 -412 -288l-30 -5c-9 0 -14 3 -14 8c3 10 5 11 10 16c35 15 70 30 96 44l78 43 c96 57 162 136 197 258c9 33 17 60 22 100c3 22 5 35 6 39c-7 69 -16 115 -23 140s-4 22 -16 40c-8 12 -19 23 -31 34c-24 21 -62 44 -118 44c-48 0 -84 -8 -113 -28c-28 -19 -42 -44 -42 -73v-16c2 -5 3 -9 4 -11c24 22 52 39 84 39z"/></g><g id="E260-t4cdvul"><path transform="scale(1,-1)" d="M20 110c32 16 54 27 93 27c26 0 35 -3 54 -13c13 -7 24 -20 27 -38l4 -25c0 -28 -16 -57 -45 -89c-23 -25 -39 -44 -65 -68l-88 -79v644h20v-359zM90 106c-32 0 -48 -10 -70 -29v-194c31 31 54 59 71 84c21 32 32 59 32 84c0 9 1 16 1 20c0 14 -3 21 -11 30l-8 3z"/></g><g id="E08A-t4cdvul"><path transform="scale(1,-1)" d="M340 179c-9 24 -56 41 -89 41c-46 0 -81 -28 -100 -58c-17 -28 -25 -78 -25 -150c0 -65 2 -111 8 -135c8 -31 18 -49 40 -67c20 -17 43 -25 70 -25c54 0 92 36 115 75c14 25 23 54 28 88h27c0 -63 -24 -105 -58 -141c-35 -38 -82 -56 -140 -56c-45 0 -83 13 -115 39 c-57 45 -101 130 -101 226c0 59 33 127 68 163c36 37 97 72 160 72c36 0 93 -21 121 -40c11 -8 23 -17 33 -30c19 -23 27 -48 27 -76c0 -51 -35 -88 -86 -88c-43 0 -76 27 -76 68c0 26 7 35 21 51c15 17 32 27 58 32c7 2 14 7 14 11z"/></g><g id="E4E7-t4cdvul"><path transform="scale(1,-1)" d="M133 -111c0 -33 -21 -50 -52 -55c10 -3 18 -4 25 -4c40 0 69 24 90 47l66 197c-36 -18 -64 -25 -112 -25c-23 0 -38 3 -45 8c-37 7 -55 27 -55 59c8 35 30 54 68 58c45 -6 49 -13 64 -48c0 -3 1 -5 1 -7c0 -27 -25 -46 -52 -49c6 -4 15 -6 26 -6c32 2 62 14 88 29 c32 19 44 36 59 71l7 1l10 2h4c-72 -220 -143 -439 -215 -659h-37l108 324c-20 -13 -51 -20 -82 -20c-21 0 -35 4 -43 10c-37 6 -55 26 -55 58c8 35 31 56 68 60c43 -8 48 -13 64 -51z"/></g><g id="E0A4-t4cdvul"><path transform="scale(1,-1)" d="M0 -39c0 68 73 172 200 172c66 0 114 -37 114 -95c0 -84 -106 -171 -218 -171c-64 0 -96 30 -96 94z"/></g><g id="E07A-t4cdvul"><path transform="scale(1,-1)" d="M343 -190c-18 -3 -37 -5 -59 -5c-46 0 -79 6 -101 16c-68 33 -117 72 -146 119c-20 34 -33 80 -37 137c0 5 -1 10 -1 15c0 42 12 86 35 132c23 44 51 82 86 115s75 65 119 98c-2 12 -7 36 -11 72c-3 33 -3 57 -3 69c0 91 12 134 53 200c26 42 50 63 69 63 c16 0 34 -23 54 -71s30 -90 32 -124v-11c0 -85 -16 -126 -52 -187c-10 -16 -49 -70 -76 -92c-10 -7 -20 -15 -29 -23l24 -140c6 1 14 1 22 1c45 0 79 -9 103 -27c46 -33 71 -81 76 -143c1 -5 1 -12 1 -17c0 -96 -68 -163 -141 -193c6 -44 14 -86 20 -126c4 -24 4 -45 4 -62 c0 -23 -3 -41 -10 -54c-27 -50 -69 -77 -123 -80c-4 0 -9 -1 -13 -1c-29 0 -56 8 -84 21c-39 19 -60 46 -62 82v8c0 23 6 43 16 59c14 22 35 32 61 34h5c38 0 72 -32 75 -67v-7c0 -40 -26 -67 -81 -83c13 -19 39 -28 79 -28c48 0 90 34 109 67c7 12 10 31 10 57 c0 16 -1 33 -4 52c-6 41 -14 83 -20 124zM358 730c-74 0 -105 -137 -105 -223c0 -19 2 -37 4 -55c39 30 72 64 99 100c31 41 46 77 46 108v7c-3 41 -16 63 -42 63h-2zM315 92l42 -253c57 19 86 61 86 125c0 5 0 12 -1 18c-5 74 -44 110 -117 110h-10zM297 91 c-56 -2 -100 -36 -100 -93v-6c2 -36 34 -77 59 -89c-2 -2 -6 -4 -8 -8c-54 26 -91 69 -96 134v8c0 53 35 98 69 124c18 13 37 23 60 28l-22 132c-16 -10 -41 -29 -72 -57c-39 -34 -66 -65 -84 -92c-35 -54 -52 -102 -52 -142v-10c4 -53 27 -99 72 -137s96 -56 157 -56 c19 0 40 2 59 7c-15 86 -28 172 -42 257z"/></g></defs><style type="text/css">#t4cdvul g.page-margin {font-family:Times,serif;}#t4cdvul g.ending, #t4cdvul g.fing, #t4cdvul g.reh, #t4cdvul g.tempo {font-weight:bold;}#t4cdvul g.dir, #t4cdvul g.dynam, #t4cdvul g.mNum {font-style:italic;}#t4cdvul g.label {font-weight:normal;}#t4cdvul path {stroke:currentColor}</style><svg class="definition-scale" color="black" viewBox="0 0 14000 2190"><g class="page-margin" transform="translate(0, 150)"><g data-id="v1yk31q7" data-class="mdiv" class="mdiv pageMilestone"/><g data-id="w1n3722u" data-class="score" class="score pageMilestone"/><g data-id="zjcqt6g" data-class="system" class="system"><g data-id="yvo98j5" data-class="section" class="section systemMilestone"/><g data-id="u1i17kdc" data-class="measure" class="measure"><g data-id="kbmznno" data-class="staff" class="staff"><path d="M0 540 L8079 540" stroke-width="13"/><path d="M0 720 L8079 720" stroke-width="13"/><path d="M0 900 L8079 900" stroke-width="13"/><path d="M0 1080 L8079 1080" stroke-width="13"/><path d="M0 1260 L8079 1260" stroke-width="13"/><g data-id="r164zocz" data-class="clef" class="clef"><use href="#E062-t4cdvul" transform="translate(88, 720) scale(0.72, 0.72)"/></g><g data-id="srcneq1" data-class="keySig" class="keySig"><g data-id="tv26hcj" data-class="keyAccid" class="keyAccid"><use href="#E260-t4cdvul" transform="translate(769, 1080) scale(0.72, 0.72)"/></g><g data-id="uy8ubyc" data-class="keyAccid" class="keyAccid"><use href="#E260-t4cdvul" transform="translate(949, 810) scale(0.72, 0.72)"/></g></g><g data-id="vrpjwd" data-class="meterSig" class="meterSig"><use href="#E08A-t4cdvul" transform="translate(1271, 900) scale(0.72, 0.72)"/></g><g data-id="l7jb75z" data-class="layer" class="layer"><g data-id="wyr1w38" data-class="rest" class="rest"><use href="#E4E7-t4cdvul" transform="translate(1860, 900) scale(0.72, 0.72)"/></g><g data-id="da8qfu" data-class="beam" class="beam"><polygon stroke-opacity="1" fill-opacity="1" points="2219,1710 2948,1530 2948,1440 2219,1620"/><polygon stroke-opacity="1" fill-opacity="1" points="2219,1575 2583,1485 2583,1395 2219,1485"/><polygon stroke-opacity="1" fill-opacity="1" points="2583,1485 2948,1395 2948,1305 2583,1395"/><g data-id="a1cx9loa" data-class="note" class="note"><g data-class="notehead" class="notehead"><use href="#E0A4-t4cdvul" transform="translate(2219, 1080) scale(0.72, 0.72)"/></g><g data-id="c1joyto3" data-class="stem" class="stem"><path d="M2228 1108 L2228 1692" stroke-width="18"/></g><g data-id="l18mxtrl" data-class="accid" class="accid"/></g><g data-id="blsnp2i" data-class="note" class="note"><g data-class="notehead" class="notehead"><use href="#E0A4-t4cdvul" transform="translate(2574, 900) scale(0.72, 0.72)"/></g><g data-id="dcy9mn3" data-class="stem" class="stem"><path d="M2583 928 L2583 1602" stroke-width="18"/></g></g><g data-id="c1gu3vbg" data-class="note" class="note"><g data-class="notehead" class="notehead"><use href="#E0A4-t4cdvul" transform="translate(2930, 720) scale(0.72, 0.72)"/></g><g data-id="e1ksbssc" data-class="stem" class="stem"><path d="M2939 748 L2939 1512" stroke-width="18"/></g></g></g><g data-id="e105qvd4" data-class="beam" class="beam"><polygon stroke-opacity="1" fill-opacity="1" points="3286,1125 4371,1305 4371,1215 3286,1035"/><polygon stroke-opacity="1" fill-opacity="1" points="3286,990 3650,1049 3650,959 3286,900"/><polygon stroke-opacity="1" fill-opacity="1" points="3650,1049 4006,1109 4006,1019 3650,959"/><polygon stroke-opacity="1" fill-opacity="1" points="4006,1109 4371,1170 4371,1080 4006,1019"/><g data-id="dqb96l9" data-class="note" class="note"><g data-class="notehead" class="notehead"><use href="#E0A4-t4cdvul" transform="translate(3286, 450) scale(0.72, 0.72)"/></g><g data-id="fs1jvli" data-class="stem" class="stem"><path d="M3295 478 L3295 1107" stroke-width="18"/></g><g data-id="m1bj6er" data-class="accid" class="accid"/></g><g data-id="e1lob32f" data-class="note" class="note"><g data-class="notehead" class="notehead"><use href="#E0A4-t4cdvul" transform="translate(3641, 540) scale(0.72, 0.72)"/></g><g data-id="gntx4iz" data-class="stem" class="stem"><path d="M3650 568 L3650 1166" stroke-width="18"/></g></g><g data-id="f17u4wvj" data-class="note" class="note"><g data-class="notehead" class="notehead"><use href="#E0A4-t4cdvul" transform="translate(3997, 630) scale(0.72, 0.72)"/></g><g data-id="h33daee" data-class="stem" class="stem"><path d="M4006 658 L4006 1226" stroke-width="18"/></g></g><g data-id="gvrz0oz" data-class="note" class="note"><g data-class="notehead" class="notehead"><use href="#E0A4-t4cdvul" transform="translate(4353, 720) scale(0.72, 0.72)"/></g><g data-id="i1qui13y" data-class="stem" class="stem"><path d="M4362 748 L4362 1287" stroke-width="18"/></g></g></g><g data-id="x2punk2" data-class="rest" class="rest"><use href="#E4E7-t4cdvul" transform="translate(4708, 900) scale(0.72, 0.72)"/></g><g data-id="fy30tdx" data-class="beam" class="beam"><polygon stroke-opacity="1" fill-opacity="1" points="5067,1530 6295,1890 6295,1800 5067,1440"/><polygon stroke-opacity="1" fill-opacity="1" points="5067,1395 5432,1500 5432,1410 5067,1305"/><polygon stroke-opacity="1" fill-opacity="1" points="5432,1500 6295,1755 6295,1665 5432,1410"/><g data-id="h2fcccp" data-class="note" class="note"><g data-class="notehead" class="notehead"><use href="#E0A4-t4cdvul" transform="translate(5067, 630) scale(0.72, 0.72)"/></g><g data-id="j33vnre" data-class="stem" class="stem"><path d="M5076 658 L5076 1512" stroke-width="18"/></g></g><g data-id="i1q35hec" data-class="note" class="note"><g data-class="notehead" class="notehead"><use href="#E0A4-t4cdvul" transform="translate(5423, 450) scale(0.72, 0.72)"/></g><g data-id="ka7g060" data-class="stem" class="stem"><path d="M5432 478 L5432 1617" stroke-width="18"/></g><g data-id="n12qg0wp" data-class="accid" class="accid"/></g><g data-id="d1ac3xlf" data-class="clef" class="clef"><use href="#E07A-t4cdvul" transform="translate(5825, 1080) scale(0.72, 0.72)"/></g><g data-id="j16d1gn9" data-class="note" class="note"><g data-class="notehead" class="notehead"><use href="#E0A4-t4cdvul" transform="translate(6277, 1260) scale(0.72, 0.72)"/></g><g data-id="l8lyx" data-class="stem" class="stem"><path d="M6286 1288 L6286 1872" stroke-width="18"/></g><g data-id="o1nvuvco" data-class="accid" class="accid"/></g></g><g data-id="g130uqjl" data-class="beam" class="beam"><polygon stroke-opacity="1" fill-opacity="1" points="6840,450 7925,630 7925,720 6840,540"/><polygon stroke-opacity="1" fill-opacity="1" points="6840,585 7205,646 7205,736 6840,675"/><polygon stroke-opacity="1" fill-opacity="1" points="7205,646 7561,706 7561,796 7205,736"/><polygon stroke-opacity="1" fill-opacity="1" points="7561,706 7925,765 7925,855 7561,796"/><g data-id="k13nt1em" data-class="note" class="note"><g data-class="notehead" class="notehead"><use href="#E0A4-t4cdvul" transform="translate(6632, 1080) scale(0.72, 0.72)"/></g><g data-id="m1u6jbs" data-class="stem" class="stem"><path d="M6849 1052 L6849 468" stroke-width="18"/></g></g><g data-id="l8jopr0" data-class="note" class="note"><g data-class="notehead" class="notehead"><use href="#E0A4-t4cdvul" transform="translate(6988, 1170) scale(0.72, 0.72)"/></g><g data-id="nhfx0zw" data-class="stem" class="stem"><path d="M7205 1142 L7205 529" stroke-width="18"/></g></g><g data-id="mbvb24u" data-class="note" class="note"><g data-class="notehead" class="notehead"><use href="#E0A4-t4cdvul" transform="translate(7344, 1260) scale(0.72, 0.72)"/></g><g data-id="onmhqb6" data-class="stem" class="stem"><path d="M7561 1232 L7561 589" stroke-width="18"/></g><g data-id="p1n19y1s" data-class="accid" class="accid"/></g><g data-id="nrtb041" data-class="note" class="note"><g data-class="notehead" class="notehead"><use href="#E0A4-t4cdvul" transform="translate(7699, 1350) scale(0.72, 0.72)"/></g><g data-id="p1m6ovtt" data-class="stem" class="stem"><path d="M7916 1322 L7916 648" stroke-width="18"/></g></g></g></g></g><g data-id="c462egi" data-class="barLine" class="barLine"><path d="M8066 540 L8066 1260" stroke-width="27"/></g></g><g data-id="e67f9l0" data-class="measure" class="measure"><g data-id="m1vf2bgq" data-class="staff" class="staff"><path d="M8079 540 L14001 540" stroke-width="13"/><path d="M8079 720 L14001 720" stroke-width="13"/><path d="M8079 900 L14001 900" stroke-width="13"/><path d="M8079 1080 L14001 1080" stroke-width="13"/><path d="M8079 1260 L14001 1260" stroke-width="13"/><g data-class="ledgerLines" class="ledgerLines above"><g data-class="lineDash" class="lineDash" data-related="#x1jidti9"><path d="M12157 360 L12467 360" stroke-width="22"/></g><g data-class="lineDash" class="lineDash" data-related="#yjsil8r"><path d="M12512 360 L12822 360" stroke-width="22"/></g><g data-class="lineDash" class="lineDash" data-related="#z17hmoi3"><path d="M12867 360 L13179 360" stroke-width="22"/></g><g data-class="lineDash" class="lineDash" data-related="#a1nv3635"><path d="M13223 360 L13535 360" stroke-width="22"/></g><g data-class="lineDash" class="lineDash" data-related="#yjsil8r"><path d="M12512 180 L12822 180" stroke-width="22"/></g></g><g data-id="n1i2gc6q" data-class="layer" class="layer"><g data-id="yk8gdo3" data-class="rest" class="rest"><use href="#E4E7-t4cdvul" transform="translate(8280, 900) scale(0.72, 0.72)"/></g><g data-id="h5qh1so" data-class="beam" class="beam"><polygon stroke-opacity="1" fill-opacity="1" points="8847,360 9576,180 9576,270 8847,450"/><polygon stroke-opacity="1" fill-opacity="1" points="8847,495 9211,406 9211,496 8847,585"/><polygon stroke-opacity="1" fill-opacity="1" points="9211,406 9576,315 9576,405 9211,496"/><g data-id="oo9otfb" data-class="note" class="note"><g data-class="notehead" class="notehead"><use href="#E0A4-t4cdvul" transform="translate(8639, 1260) scale(0.72, 0.72)"/></g><g data-id="q1405shr" data-class="stem" class="stem"><path d="M8856 1232 L8856 378" stroke-width="18"/></g><g data-id="qhfot8l" data-class="accid" class="accid"/></g><g data-id="pda0942" data-class="note" class="note"><g data-class="notehead" class="notehead"><use href="#E0A4-t4cdvul" transform="translate(8994, 1080) scale(0.72, 0.72)"/></g><g data-id="rywqce2" data-class="stem" class="stem"><path d="M9211 1052 L9211 289" stroke-width="18"/></g></g><g data-id="q1i0ibws" data-class="note" class="note"><g data-class="notehead" class="notehead"><use href="#E0A4-t4cdvul" transform="translate(9350, 810) scale(0.72, 0.72)"/></g><g data-id="sxcm50q" data-class="stem" class="stem"><path d="M9567 782 L9567 198" stroke-width="18"/></g></g></g><g data-id="ivsxyqj" data-class="beam" class="beam"><polygon stroke-opacity="1" fill-opacity="1" points="9706,1350 10791,1530 10791,1440 9706,1260"/><polygon stroke-opacity="1" fill-opacity="1" points="9706,1215 10070,1274 10070,1184 9706,1125"/><polygon stroke-opacity="1" fill-opacity="1" points="10070,1274 10426,1334 10426,1244 10070,1184"/><polygon stroke-opacity="1" fill-opacity="1" points="10426,1334 10791,1395 10791,1305 10426,1244"/><g data-id="r1oruglp" data-class="note" class="note"><g data-class="notehead" class="notehead"><use href="#E0A4-t4cdvul" transform="translate(9706, 630) scale(0.72, 0.72)"/></g><g data-id="t1tw502j" data-class="stem" class="stem"><path d="M9715 658 L9715 1332" stroke-width="18"/></g><g data-id="rhq9per" data-class="accid" class="accid"/></g><g data-id="s1j9yii2" data-class="note" class="note"><g data-class="notehead" class="notehead"><use href="#E0A4-t4cdvul" transform="translate(10061, 720) scale(0.72, 0.72)"/></g><g data-id="u1lvcu7p" data-class="stem" class="stem"><path d="M10070 748 L10070 1391" stroke-width="18"/></g></g><g data-id="ttz9vhy" data-class="note" class="note"><g data-class="notehead" class="notehead"><use href="#E0A4-t4cdvul" transform="translate(10417, 810) scale(0.72, 0.72)"/></g><g data-id="v1t1zrn3" data-class="stem" class="stem"><path d="M10426 838 L10426 1451" stroke-width="18"/></g></g><g data-id="u1dsl0xx" data-class="note" class="note"><g data-class="notehead" class="notehead"><use href="#E0A4-t4cdvul" transform="translate(10773, 900) scale(0.72, 0.72)"/></g><g data-id="w18nlix2" data-class="stem" class="stem"><path d="M10782 928 L10782 1512" stroke-width="18"/></g><g data-id="s15sf8ep" data-class="accid" class="accid"/></g></g><g data-id="z15ist8w" data-class="rest" class="rest"><use href="#E4E7-t4cdvul" transform="translate(11128, 900) scale(0.72, 0.72)"/></g><g data-id="j1sqp0m1" data-class="beam" class="beam"><polygon stroke-opacity="1" fill-opacity="1" points="11487,1440 12217,1260 12217,1170 11487,1350"/><polygon stroke-opacity="1" fill-opacity="1" points="11487,1305 11852,1215 11852,1125 11487,1215"/><polygon stroke-opacity="1" fill-opacity="1" points="11852,1215 12217,1125 12217,1035 11852,1125"/><g data-id="v1ts4jx8" data-class="note" class="note"><g data-class="notehead" class="notehead"><use href="#E0A4-t4cdvul" transform="translate(11487, 810) scale(0.72, 0.72)"/></g><g data-id="xg72pkh" data-class="stem" class="stem"><path d="M11496 838 L11496 1422" stroke-width="18"/></g></g><g data-id="w11j6kky" data-class="note" class="note"><g data-class="notehead" class="notehead"><use href="#E0A4-t4cdvul" transform="translate(11843, 540) scale(0.72, 0.72)"/></g><g data-id="y1wliawz" data-class="stem" class="stem"><path d="M11852 568 L11852 1332" stroke-width="18"/></g></g><g data-id="x1jidti9" data-class="note" class="note"><g data-class="notehead" class="notehead"><use href="#E0A4-t4cdvul" transform="translate(12199, 360) scale(0.72, 0.72)"/></g><g data-id="z1koxb7d" data-class="stem" class="stem"><path d="M12208 388 L12208 1242" stroke-width="18"/></g></g></g><g data-id="k93x222" data-class="beam" class="beam"><polygon stroke-opacity="1" fill-opacity="1" points="12554,900 13639,1080 13639,990 12554,810"/><polygon stroke-opacity="1" fill-opacity="1" points="12554,765 12919,825 12919,735 12554,675"/><polygon stroke-opacity="1" fill-opacity="1" points="12919,825 13275,885 13275,795 12919,735"/><polygon stroke-opacity="1" fill-opacity="1" points="13275,885 13639,945 13639,855 13275,795"/><g data-id="yjsil8r" data-class="note" class="note"><g data-class="notehead" class="notehead"><use href="#E0A4-t4cdvul" transform="translate(12554, 180) scale(0.72, 0.72)"/></g><g data-id="a1jfrnea" data-class="stem" class="stem"><path d="M12563 208 L12563 882" stroke-width="18"/></g></g><g data-id="z17hmoi3" data-class="note" class="note"><g data-class="notehead" class="notehead"><use href="#E0A4-t4cdvul" transform="translate(12910, 270) scale(0.72, 0.72)"/></g><g data-id="bniliq4" data-class="stem" class="stem"><path d="M12919 298 L12919 942" stroke-width="18"/></g><g data-id="t1y589o4" data-class="accid" class="accid"/></g><g data-id="a1nv3635" data-class="note" class="note"><g data-class="notehead" class="notehead"><use href="#E0A4-t4cdvul" transform="translate(13266, 360) scale(0.72, 0.72)"/></g><g data-id="c65zb1v" data-class="stem" class="stem"><path d="M13275 388 L13275 1002" stroke-width="18"/></g></g><g data-id="bziajqi" data-class="note" class="note"><g data-class="notehead" class="notehead"><use href="#E0A4-t4cdvul" transform="translate(13621, 450) scale(0.72, 0.72)"/></g><g data-id="d162mark" data-class="stem" class="stem"><path d="M13630 478 L13630 1062" stroke-width="18"/></g></g></g></g></g><g data-id="m1mkki4x" data-class="barLine" class="barLine"><path d="M13988 540 L13988 1260" stroke-width="27"/></g></g></g></g></svg></svg>