<svg viewBox="0 0 560 84" version="1.1" xmlns="http://www.w3.org/2000/svg" xmlns:xlink="http://www.w3.org/1999/xlink" overflow="visible" id="d1mcoj42"><desc>Engraved by Verovio 5.6.0-85e7620</desc><defs><g id="E062-d1mcoj42"><path transform="scale(1,-1)" d="M582 -120c0 32 26 58 58 58s58 -26 58 -58s-26 -58 -58 -58s-58 26 -58 58zM582 120c0 32 26 58 58 58s58 -26 58 -58s-26 -58 -58 -58s-58 26 -58 58zM158 96c51 0 73 -14 88 -49l16 -39c0 -17 -2 -30 -7 -40c-3 -11 -10 -21 -19 -31c-17 -18 -49 -43 -84 -43 c-55 0 -77 13 -112 44c-24 21 -35 55 -35 100c0 46 14 81 32 112c30 52 71 79 137 93l36 6l26 2c154 0 235 -68 274 -182c11 -32 18 -68 18 -107c0 -103 -26 -182 -68 -250c-89 -145 -234 -230 -412 -288l-30 -5c-9 0 -14 3 -14 8c3 10 5 11 10 16c35 15 70 30 96 44l78 43 c96 57 162 136 197 258c9 33 17 60 22 100c3 22 5 35 6 39c-7 69 -16 115 -23 140s-4 22 -16 40c-8 12 -19 23 -31 34c-24 21 -62 44 -118 44c-48 0 -84 -8 -113 -28c-28 -19 -42 -44 -42 -73v-16c2 -5 3 -9 4 -11c24 22 52 39 84 39z"/></g><g id="E082-d1mcoj42"><path transform="scale(1,-1)" d="M124 -185c-18 0 -55 -14 -65 -65h-36l-3 30c0 25 6 45 18 63c11 19 22 30 39 43l121 82l37 29c15 11 27 29 38 54c12 24 18 47 18 70c0 40 -19 88 -94 88c-25 0 -32 0 -50 -8c-14 -5 -23 -12 -26 -22c3 -9 7 -15 10 -18l24 -17c12 -7 17 -11 27 -21c5 -7 7 -16 7 -27 c0 -12 0 -57 -79 -74c-30 0 -76 26 -76 94c0 66 81 135 197 135c72 0 181 -32 181 -150c0 -53 -32 -95 -113 -133l-91 -41c-26 -11 -45 -23 -57 -37l49 7c84 0 115 -41 148 -41c20 0 33 20 39 61h35c0 -152 -68 -168 -114 -168c-17 0 -65 0 -79 7h10l-28 17 c-49 37 -69 40 -87 42z"/></g><g id="E084-d1mcoj42"><path transform="scale(1,-1)" d="M20 -78c84 97 114 180 134 329h170c-13 -32 -82 -132 -99 -151l-84 -97c-33 -36 -59 -63 -80 -81h162v102l127 123v-225h57v-39h-57v-34c0 -43 19 -65 57 -65v-34h-244v36c48 0 60 26 60 70v27h-203v39z"/></g><g id="E4E7-d1mcoj42"><path transform="scale(1,-1)" d="M133 -111c0 -33 -21 -50 -52 -55c10 -3 18 -4 25 -4c40 0 69 24 90 47l66 197c-36 -18 -64 -25 -112 -25c-23 0 -38 3 -45 8c-37 7 -55 27 -55 59c8 35 30 54 68 58c45 -6 49 -13 64 -48c0 -3 1 -5 1 -7c0 -27 -25 -46 -52 -49c6 -4 15 -6 26 -6c32 2 62 14 88 29 c32 19 44 36 59 71l7 1l10 2h4c-72 -220 -143 -439 -215 -659h-37l108 324c-20 -13 -51 -20 -82 -20c-21 0 -35 4 -43 10c-37 6 -55 26 -55 58c8 35 31 56 68 60c43 -8 48 -13 64 -51z"/></g><g id="E0A4-d1mcoj42"><path transform="scale(1,-1)" d="M0 -39c0 68 73 172 200 172c66 0 114 -37 114 -95c0 -84 -106 -171 -218 -171c-64 0 -96 30 -96 94z"/></g><g id="E07A-d1mcoj42"><path transform="scale(1,-1)" d="M343 -190c-18 -3 -37 -5 -59 -5c-46 0 -79 6 -101 16c-68 33 -117 72 -146 119c-20 34 -33 80 -37 137c0 5 -1 10 -1 15c0 42 12 86 35 132c23 44 51 82 86 115s75 65 119 98c-2 12 -7 36 -11 72c-3 33 -3 57 -3 69c0 91 12 134 53 200c26 42 50 63 69 63 c16 0 34 -23 54 -71s30 -90 32 -124v-11c0 -85 -16 -126 -52 -187c-10 -16 -49 -70 -76 -92c-10 -7 -20 -15 -29 -23l24 -140c6 1 14 1 22 1c45 0 79 -9 103 -27c46 -33 71 -81 76 -143c1 -5 1 -12 1 -17c0 -96 -68 -163 -141 -193c6 -44 14 -86 20 -126c4 -24 4 -45 4 -62 c0 -23 -3 -41 -10 -54c-27 -50 -69 -77 -123 -80c-4 0 -9 -1 -13 -1c-29 0 -56 8 -84 21c-39 19 -60 46 -62 82v8c0 23 6 43 16 59c14 22 35 32 61 34h5c38 0 72 -32 75 -67v-7c0 -40 -26 -67 -81 -83c13 -19 39 -28 79 -28c48 0 90 34 109 67c7 12 10 31 10 57 c0 16 -1 33 -4 52c-6 41 -14 83 -20 124zM358 730c-74 0 -105 -137 -105 -223c0 -19 2 -37 4 -55c39 30 72 64 99 100c31 41 46 77 46 108v7c-3 41 -16 63 -42 63h-2zM315 92l42 -253c57 19 86 61 86 125c0 5 0 12 -1 18c-5 74 -44 110 -117 110h-10zM297 91 c-56 -2 -100 -36 -100 -93v-6c2 -36 34 -77 59 -89c-2 -2 -6 -4 -8 -8c-54 26 -91 69 -96 134v8c0 53 35 98 69 124c18 13 37 23 60 28l-22 132c-16 -10 -41 -29 -72 -57c-39 -34 -66 -65 -84 -92c-35 -54 -52 -102 -52 -142v-10c4 -53 27 -99 72 -137s96 -56 157 -56 c19 0 40 2 59 7c-15 86 -28 172 -42 257z"/></g></defs><style type="text/css">#d1mcoj42 g.page-margin {font-family:Times,serif;}#d1mcoj42 g.ending, #d1mcoj42 g.fing, #d1mcoj42 g.reh, #d1mcoj42 g.tempo {font-weight:bold;}#d1mcoj42 g.dir, #d1mcoj42 g.dynam, #d1mcoj42 g.mNum {font-style:italic;}#d1mcoj42 g.label {font-weight:normal;}#d1mcoj42 path {stroke:currentColor}</style><svg class="definition-scale" color="black" viewBox="0 0 14000 2100"><g class="page-margin" transform="translate(0, 150)"><g data-id="e1t0d2no" data-class="mdiv" class="mdiv pageMilestone"/><g data-id="ftz3x6y" data-class="score" class="score pageMilestone"/><g data-id="h1pydt9m" data-class="system" class="system"><g data-id="h1ppcc27" data-class="section" class="section systemMilestone"/><g data-id="e1d1l87w" data-class="measure" class="measure"><g data-id="t1u0a2r4" data-class="staff" class="staff"><path d="M0 540 L4271 540" stroke-width="13"/><path d="M0 720 L4271 720" stroke-width="13"/><path d="M0 900 L4271 900" stroke-width="13"/><path d="M0 1080 L4271 1080" stroke-width="13"/><path d="M0 1260 L4271 1260" stroke-width="13"/><g data-id="d1q5ubsq" data-class="clef" class="clef"><use href="#E062-d1mcoj42" transform="translate(88, 720) scale(0.72, 0.72)"/></g><g data-id="e15qwe2y" data-class="keySig" class="keySig"/><g data-id="f15xtsts" data-class="meterSig" class="meterSig"><use href="#E082-d1mcoj42" transform="translate(755, 720) scale(0.72, 0.72)"/><use href="#E084-d1mcoj42" transform="translate(760, 1080) scale(0.72, 0.72)"/></g><g data-class="ledgerLines" class="ledgerLines above"><g data-class="lineDash" class="lineDash" data-related="#u1xaginl"><path d="M2034 360 L2356 360" stroke-width="22"/></g><g data-class="lineDash" class="lineDash" data-related="#w1d9c303"><path d="M2754 360 L3076 360" stroke-width="22"/></g><g data-class="lineDash" class="lineDash" data-related="#y1yswopl"><path d="M3474 360 L3796 360" stroke-width="22"/></g></g><g data-id="u1bug7tp" data-class="layer" class="layer"><g data-id="p1uio5bp" data-class="rest" class="rest"><use href="#E4E7-d1mcoj42" transform="translate(1354, 900) scale(0.72, 0.72)"/></g><g data-id="vdmoshm" data-class="beam" class="beam"><polygon stroke-opacity="1" fill-opacity="1" points="1722,1260 2460,1260 2460,1170 1722,1170"/><polygon stroke-opacity="1" fill-opacity="1" points="1722,1125 2091,1125 2091,1035 1722,1035"/><polygon stroke-opacity="1" fill-opacity="1" points="2091,1125 2460,1125 2460,1035 2091,1035"/><g data-id="txqrs5d" data-class="note" class="note"><g data-class="notehead" class="notehead"><use href="#E0A4-d1mcoj42" transform="translate(1722, 630) scale(0.72, 0.72)"/></g><g data-id="l1smbadf" data-class="stem" class="stem"><path d="M1731 658 L1731 1242" stroke-width="18"/></g></g><g data-id="u1xaginl" data-class="note" class="note"><g data-class="notehead" class="notehead"><use href="#E0A4-d1mcoj42" transform="translate(2082, 360) scale(0.72, 0.72)"/></g><g data-id="m1kq5att" data-class="stem" class="stem"><path d="M2091 388 L2091 1242" stroke-width="18"/></g></g><g data-id="v1v9vn96" data-class="note" class="note"><g data-class="notehead" class="notehead"><use href="#E0A4-d1mcoj42" transform="translate(2442, 630) scale(0.72, 0.72)"/></g><g data-id="naph8w5" data-class="stem" class="stem"><path d="M2451 658 L2451 1242" stroke-width="18"/></g></g></g><g data-id="w1klkrbl" data-class="beam" class="beam"><polygon stroke-opacity="1" fill-opacity="1" points="2802,1260 3900,1260 3900,1170 2802,1170"/><polygon stroke-opacity="1" fill-opacity="1" points="2802,1125 3171,1125 3171,1035 2802,1035"/><polygon stroke-opacity="1" fill-opacity="1" points="3171,1125 3531,1125 3531,1035 3171,1035"/><polygon stroke-opacity="1" fill-opacity="1" points="3531,1125 3900,1125 3900,1035 3531,1035"/><g data-id="w1d9c303" data-class="note" class="note"><g data-class="notehead" class="notehead"><use href="#E0A4-d1mcoj42" transform="translate(2802, 360) scale(0.72, 0.72)"/></g><g data-id="offty6" data-class="stem" class="stem"><path d="M2811 388 L2811 1242" stroke-width="18"/></g></g><g data-id="xzp1jac" data-class="note" class="note"><g data-class="notehead" class="notehead"><use href="#E0A4-d1mcoj42" transform="translate(3162, 630) scale(0.72, 0.72)"/></g><g data-id="ph4etbb" data-class="stem" class="stem"><path d="M3171 658 L3171 1242" stroke-width="18"/></g></g><g data-id="y1yswopl" data-class="note" class="note"><g data-class="notehead" class="notehead"><use href="#E0A4-d1mcoj42" transform="translate(3522, 360) scale(0.72, 0.72)"/></g><g data-id="q1wevtr8" data-class="stem" class="stem"><path d="M3531 388 L3531 1242" stroke-width="18"/></g></g><g data-id="z1uvl475" data-class="note" class="note"><g data-class="notehead" class="notehead"><use href="#E0A4-d1mcoj42" transform="translate(3882, 630) scale(0.72, 0.72)"/></g><g data-id="rms7vw0" data-class="stem" class="stem"><path d="M3891 658 L3891 1242" stroke-width="18"/></g></g></g></g></g><g data-id="m190ltpz" data-class="barLine" class="barLine"><path d="M4258 540 L4258 1260" stroke-width="27"/></g></g><g data-id="o1qphn4e" data-class="measure" class="measure"><g data-id="v1kri6lp" data-class="staff" class="staff"><path d="M4271 540 L7394 540" stroke-width="13"/><path d="M4271 720 L7394 720" stroke-width="13"/><path d="M4271 900 L7394 900" stroke-width="13"/><path d="M4271 1080 L7394 1080" stroke-width="13"/><path d="M4271 1260 L7394 1260" stroke-width="13"/><g data-class="ledgerLines" class="ledgerLines above"><g data-class="lineDash" class="lineDash" data-related="#b1fpxsny"><path d="M5157 360 L5479 360" stroke-width="22"/></g><g data-class="lineDash" class="lineDash" data-related="#d1354ujv"><path d="M5877 360 L6199 360" stroke-width="22"/></g><g data-class="lineDash" class="lineDash" data-related="#flawdul"><path d="M6597 360 L6919 360" stroke-width="22"/></g><g data-class="lineDash" class="lineDash" data-related="#b1fpxsny"><path d="M5157 180 L5479 180" stroke-width="22"/></g><g data-class="lineDash" class="lineDash" data-related="#d1354ujv"><path d="M5877 180 L6199 180" stroke-width="22"/></g><g data-class="lineDash" class="lineDash" data-related="#flawdul"><path d="M6597 180 L6919 180" stroke-width="22"/></g></g><g data-id="w3vohca" data-class="layer" class="layer"><g data-id="qpjl306" data-class="rest" class="rest"><use href="#E4E7-d1mcoj42" transform="translate(4477, 900) scale(0.72, 0.72)"/></g><g data-id="x1xqecuz" data-class="beam" class="beam"><polygon stroke-opacity="1" fill-opacity="1" points="4845,1260 5583,1260 5583,1170 4845,1170"/><polygon stroke-opacity="1" fill-opacity="1" points="4845,1125 5214,1125 5214,1035 4845,1035"/><polygon stroke-opacity="1" fill-opacity="1" points="5214,1125 5583,1125 5583,1035 5214,1035"/><g data-id="a1ehrpj" data-class="note" class="note"><g data-class="notehead" class="notehead"><use href="#E0A4-d1mcoj42" transform="translate(4845, 630) scale(0.72, 0.72)"/></g><g data-id="skjddm7" data-class="stem" class="stem"><path d="M4854 658 L4854 1242" stroke-width="18"/></g></g><g data-id="b1fpxsny" data-class="note" class="note"><g data-class="notehead" class="notehead"><use href="#E0A4-d1mcoj42" transform="translate(5205, 180) scale(0.72, 0.72)"/></g><g data-id="t1t8drxy" data-class="stem" class="stem"><path d="M5214 208 L5214 1242" stroke-width="18"/></g></g><g data-id="c6kdjqs" data-class="note" class="note"><g data-class="notehead" class="notehead"><use href="#E0A4-d1mcoj42" transform="translate(5565, 630) scale(0.72, 0.72)"/></g><g data-id="u1do5ley" data-class="stem" class="stem"><path d="M5574 658 L5574 1242" stroke-width="18"/></g></g></g><g data-id="ywq29nl" data-class="beam" class="beam"><polygon stroke-opacity="1" fill-opacity="1" points="5925,1260 7023,1260 7023,1170 5925,1170"/><polygon stroke-opacity="1" fill-opacity="1" points="5925,1125 6294,1125 6294,1035 5925,1035"/><polygon stroke-opacity="1" fill-opacity="1" points="6294,1125 6654,1125 6654,1035 6294,1035"/><polygon stroke-opacity="1" fill-opacity="1" points="6654,1125 7023,1125 7023,1035 6654,1035"/><g data-id="d1354ujv" data-class="note" class="note"><g data-class="notehead" class="notehead"><use href="#E0A4-d1mcoj42" transform="translate(5925, 180) scale(0.72, 0.72)"/></g><g data-id="v1656wio" data-class="stem" class="stem"><path d="M5934 208 L5934 1242" stroke-width="18"/></g></g><g data-id="e18lt7g5" data-class="note" class="note"><g data-class="notehead" class="notehead"><use href="#E0A4-d1mcoj42" transform="translate(6285, 630) scale(0.72, 0.72)"/></g><g data-id="wzh8thm" data-class="stem" class="stem"><path d="M6294 658 L6294 1242" stroke-width="18"/></g></g><g data-id="flawdul" data-class="note" class="note"><g data-class="notehead" class="notehead"><use href="#E0A4-d1mcoj42" transform="translate(6645, 180) scale(0.72, 0.72)"/></g><g data-id="x1uy9127" data-class="stem" class="stem"><path d="M6654 208 L6654 1242" stroke-width="18"/></g></g><g data-id="g1bk41w8" data-class="note" class="note"><g data-class="notehead" class="notehead"><use href="#E0A4-d1mcoj42" transform="translate(7005, 630) scale(0.72, 0.72)"/></g><g data-id="y19bulzm" data-class="stem" class="stem"><path d="M7014 658 L7014 1242" stroke-width="18"/></g></g></g></g></g><g data-id="w5byr0l" data-class="barLine" class="barLine"><path d="M7381 540 L7381 1260" stroke-width="27"/></g></g><g data-id="x1ju28i6" data-class="measure" class="measure"><g data-id="x6750c6" data-class="staff" class="staff"><path d="M7394 540 L10904 540" stroke-width="13"/><path d="M7394 720 L10904 720" stroke-width="13"/><path d="M7394 900 L10904 900" stroke-width="13"/><path d="M7394 1080 L10904 1080" stroke-width="13"/><path d="M7394 1260 L10904 1260" stroke-width="13"/><g data-class="ledgerLines" class="ledgerLines below"><g data-class="lineDash" class="lineDash" data-related="#h1pczg32"><path d="M8306 1440 L8628 1440" stroke-width="22"/></g><g data-class="lineDash" class="lineDash" data-related="#jhcaylq"><path d="M9026 1440 L9348 1440" stroke-width="22"/></g><g data-class="lineDash" class="lineDash" data-related="#l1xcgayv"><path d="M9746 1440 L10068 1440" stroke-width="22"/></g><g data-class="lineDash" class="lineDash" data-related="#n1c0mefe"><path d="M10467 1440 L10789 1440" stroke-width="22"/></g><g data-class="lineDash" class="lineDash" data-related="#h1pczg32"><path d="M8306 1620 L8628 1620" stroke-width="22"/></g><g data-class="lineDash" class="lineDash" data-related="#jhcaylq"><path d="M9026 1620 L9348 1620" stroke-width="22"/></g><g data-class="lineDash" class="lineDash" data-related="#l1xcgayv"><path d="M9746 1620 L10068 1620" stroke-width="22"/></g><g data-class="lineDash" class="lineDash" data-related="#n1c0mefe"><path d="M10467 1620 L10789 1620" stroke-width="22"/></g></g><g data-id="y1bstfa9" data-class="layer" class="layer"><g data-id="n1ylidrs" data-class="clef" class="clef"><use href="#E07A-d1mcoj42" transform="translate(7560, 1080) scale(0.72, 0.72)"/></g><g data-id="r1g2otcj" data-class="rest" class="rest"><use href="#E4E7-d1mcoj42" transform="translate(8012, 900) scale(0.72, 0.72)"/></g><g data-id="z1x57kqb" data-class="beam" class="beam"><polygon stroke-opacity="1" fill-opacity="1" points="8562,495 9300,495 9300,585 8562,585"/><polygon stroke-opacity="1" fill-opacity="1" points="8562,630 8931,630 8931,720 8562,720"/><polygon stroke-opacity="1" fill-opacity="1" points="8931,630 9300,630 9300,720 8931,720"/><g data-id="h1pczg32" data-class="note" class="note"><g data-class="notehead" class="notehead"><use href="#E0A4-d1mcoj42" transform="translate(8354, 1710) scale(0.72, 0.72)"/></g><g data-id="z1a1ilfq" data-class="stem" class="stem"><path d="M8571 1682 L8571 513" stroke-width="18"/></g></g><g data-id="i1ia2vek" data-class="note" class="note"><g data-class="notehead" class="notehead"><use href="#E0A4-d1mcoj42" transform="translate(8714, 1080) scale(0.72, 0.72)"/></g><g data-id="aclkmd5" data-class="stem" class="stem"><path d="M8931 1052 L8931 513" stroke-width="18"/></g></g><g data-id="jhcaylq" data-class="note" class="note"><g data-class="notehead" class="notehead"><use href="#E0A4-d1mcoj42" transform="translate(9074, 1710) scale(0.72, 0.72)"/></g><g data-id="b1bqh2cf" data-class="stem" class="stem"><path d="M9291 1682 L9291 513" stroke-width="18"/></g></g></g><g data-id="azar8sf" data-class="beam" class="beam"><polygon stroke-opacity="1" fill-opacity="1" points="9642,495 10741,495 10741,585 9642,585"/><polygon stroke-opacity="1" fill-opacity="1" points="9642,630 10011,630 10011,720 9642,720"/><polygon stroke-opacity="1" fill-opacity="1" points="10011,630 10372,630 10372,720 10011,720"/><polygon stroke-opacity="1" fill-opacity="1" points="10372,630 10741,630 10741,720 10372,720"/><g data-id="k13wkc0o" data-class="note" class="note"><g data-class="notehead" class="notehead"><use href="#E0A4-d1mcoj42" transform="translate(9434, 1080) scale(0.72, 0.72)"/></g><g data-id="c8dhlj7" data-class="stem" class="stem"><path d="M9651 1052 L9651 513" stroke-width="18"/></g></g><g data-id="l1xcgayv" data-class="note" class="note"><g data-class="notehead" class="notehead"><use href="#E0A4-d1mcoj42" transform="translate(9794, 1710) scale(0.72, 0.72)"/></g><g data-id="d129ltb2" data-class="stem" class="stem"><path d="M10011 1682 L10011 513" stroke-width="18"/></g></g><g data-id="msnj620" data-class="note" class="note"><g data-class="notehead" class="notehead"><use href="#E0A4-d1mcoj42" transform="translate(10155, 1080) scale(0.72, 0.72)"/></g><g data-id="e1wl51ci" data-class="stem" class="stem"><path d="M10372 1052 L10372 513" stroke-width="18"/></g></g><g data-id="n1c0mefe" data-class="note" class="note"><g data-class="notehead" class="notehead"><use href="#E0A4-d1mcoj42" transform="translate(10515, 1710) scale(0.72, 0.72)"/></g><g data-id="f3cdlvp" data-class="stem" class="stem"><path d="M10732 1682 L10732 513" stroke-width="18"/></g></g></g></g></g><g data-id="f1xzgp4q" data-class="barLine" class="barLine"><path d="M10891 540 L10891 1260" stroke-width="27"/></g></g><g data-id="g1929ua8" data-class="measure" class="measure"><g data-id="z18ls5k6" data-class="staff" class="staff"><path d="M10904 540 L14001 540" stroke-width="13"/><path d="M10904 720 L14001 720" stroke-width="13"/><path d="M10904 900 L14001 900" stroke-width="13"/><path d="M10904 1080 L14001 1080" stroke-width="13"/><path d="M10904 1260 L14001 1260" stroke-width="13"/><g data-class="ledgerLines" class="ledgerLines below"><g data-class="lineDash" class="lineDash" data-related="#ogv86oo"><path d="M11404 1440 L11726 1440" stroke-width="22"/></g><g data-class="lineDash" class="lineDash" data-related="#q1vsx805"><path d="M12124 1440 L12446 1440" stroke-width="22"/></g><g data-class="lineDash" class="lineDash" data-related="#s5ktxe"><path d="M12844 1440 L13166 1440" stroke-width="22"/></g><g data-class="lineDash" class="lineDash" data-related="#u14ltlkg"><path d="M13564 1440 L13886 1440" stroke-width="22"/></g><g data-class="lineDash" class="lineDash" data-related="#ogv86oo"><path d="M11404 1620 L11726 1620" stroke-width="22"/></g><g data-class="lineDash" class="lineDash" data-related="#q1vsx805"><path d="M12124 1620 L12446 1620" stroke-width="22"/></g><g data-class="lineDash" class="lineDash" data-related="#s5ktxe"><path d="M12844 1620 L13166 1620" stroke-width="22"/></g><g data-class="lineDash" class="lineDash" data-related="#u14ltlkg"><path d="M13564 1620 L13886 1620" stroke-width="22"/></g></g><g data-id="askdiwn" data-class="layer" class="layer"><g data-id="s1j5edix" data-class="rest" class="rest"><use href="#E4E7-d1mcoj42" transform="translate(11110, 900) scale(0.72, 0.72)"/></g><g data-id="b17f0n4a" data-class="beam" class="beam"><polygon stroke-opacity="1" fill-opacity="1" points="11660,540 12398,540 12398,630 11660,630"/><polygon stroke-opacity="1" fill-opacity="1" points="11660,675 12029,675 12029,765 11660,765"/><polygon stroke-opacity="1" fill-opacity="1" points="12029,675 12398,675 12398,765 12029,765"/><g data-id="ogv86oo" data-class="note" class="note"><g data-class="notehead" class="notehead"><use href="#E0A4-d1mcoj42" transform="translate(11452, 1620) scale(0.72, 0.72)"/></g><g data-id="gdtqp5f" data-class="stem" class="stem"><path d="M11669 1592 L11669 558" stroke-width="18"/></g></g><g data-id="p3g30s8" data-class="note" class="note"><g data-class="notehead" class="notehead"><use href="#E0A4-d1mcoj42" transform="translate(11812, 1170) scale(0.72, 0.72)"/></g><g data-id="h1bewj4t" data-class="stem" class="stem"><path d="M12029 1142 L12029 558" stroke-width="18"/></g></g><g data-id="q1vsx805" data-class="note" class="note"><g data-class="notehead" class="notehead"><use href="#E0A4-d1mcoj42" transform="translate(12172, 1620) scale(0.72, 0.72)"/></g><g data-id="i1cz52g3" data-class="stem" class="stem"><path d="M12389 1592 L12389 558" stroke-width="18"/></g></g></g><g data-id="cxgthn5" data-class="beam" class="beam"><polygon stroke-opacity="1" fill-opacity="1" points="12740,540 13838,540 13838,630 12740,630"/><polygon stroke-opacity="1" fill-opacity="1" points="12740,675 13109,675 13109,765 12740,765"/><polygon stroke-opacity="1" fill-opacity="1" points="13109,675 13469,675 13469,765 13109,765"/><polygon stroke-opacity="1" fill-opacity="1" points="13469,675 13838,675 13838,765 13469,765"/><g data-id="r2ejutt" data-class="note" class="note"><g data-class="notehead" class="notehead"><use href="#E0A4-d1mcoj42" transform="translate(12532, 1170) scale(0.72, 0.72)"/></g><g data-id="j16isutm" data-class="stem" class="stem"><path d="M12749 1142 L12749 558" stroke-width="18"/></g></g><g data-id="s5ktxe" data-class="note" class="note"><g data-class="notehead" class="notehead"><use href="#E0A4-d1mcoj42" transform="translate(12892, 1620) scale(0.72, 0.72)"/></g><g data-id="ktyhhzc" data-class="stem" class="stem"><path d="M13109 1592 L13109 558" stroke-width="18"/></g></g><g data-id="t1hs1kkt" data-class="note" class="note"><g data-class="notehead" class="notehead"><use href="#E0A4-d1mcoj42" transform="translate(13252, 1170) scale(0.72, 0.72)"/></g><g data-id="l14j5hk1" data-class="stem" class="stem"><path d="M13469 1142 L13469 558" stroke-width="18"/></g></g><g data-id="u14ltlkg" data-class="note" class="note"><g data-class="notehead" class="notehead"><use href="#E0A4-d1mcoj42" transform="translate(13612, 1620) scale(0.72, 0.72)"/></g><g data-id="mw8mw03" data-class="stem" class="stem"><path d="M13829 1592 L13829 558" stroke-width="18"/></g></g></g></g></g><g data-id="o1v3hi2e" data-class="barLine" class="barLine"><path d="M13988 540 L13988 1260" stroke-width="27"/></g></g><g data-id="iklurxq" data-class="systemMilestoneEnd" class="systemMilestoneEnd h1ppcc27"/></g><g data-id="j1esw9t" data-class="pageMilestoneEnd" class="pageMilestoneEnd ftz3x6y"/><g data-id="k1rjatta" data-class="pageMilestoneEnd" class="pageMilestoneEnd e1t0d2no"/></g></svg></svg>