<svg viewBox="0 0 560 84" version="1.1" xmlns="http://www.w3.org/2000/svg" xmlns:xlink="http://www.w3.org/1999/xlink" overflow="visible" id="pn3hlue"><desc>Engraved by Verovio 5.6.0-85e7620</desc><defs><g id="E050-pn3hlue"><path transform="scale(1,-1)" d="M441 -245c-23 -4 -48 -6 -76 -6c-59 0 -102 7 -130 20c-88 42 -150 93 -187 154c-26 44 -43 103 -48 176c0 6 -1 13 -1 19c0 54 15 111 45 170c29 57 65 106 110 148s96 85 153 127c-3 16 -8 46 -13 92c-4 43 -5 73 -5 89c0 117 16 172 69 257c34 54 64 82 89 82 c21 0 43 -30 69 -92s39 -115 41 -159v-15c0 -109 -21 -162 -67 -241c-13 -20 -63 -90 -98 -118c-13 -9 -25 -19 -37 -29l31 -181c8 1 18 2 28 2c58 0 102 -12 133 -35c59 -43 92 -104 98 -184c1 -7 1 -15 1 -22c0 -123 -87 -209 -181 -248c8 -57 17 -110 25 -162 c5 -31 6 -58 6 -80c0 -30 -5 -53 -14 -70c-35 -64 -88 -99 -158 -103c-5 0 -11 -1 -16 -1c-37 0 -72 10 -108 27c-50 24 -77 59 -80 105v11c0 29 7 55 20 76c18 28 45 42 79 44h6c49 0 93 -42 97 -87v-9c0 -51 -34 -86 -105 -106c17 -24 51 -36 102 -36c62 0 116 43 140 85 c9 16 13 41 13 74c0 20 -1 42 -5 67c-8 53 -18 106 -26 159zM461 939c-95 0 -135 -175 -135 -286c0 -24 2 -48 5 -71c50 39 92 82 127 128c40 53 60 100 60 140v8c-4 53 -22 81 -55 81h-2zM406 119l54 -326c73 25 110 78 110 161c0 7 0 15 -1 23c-7 95 -57 142 -151 142h-12 zM382 117c-72 -2 -128 -47 -128 -120v-7c2 -46 43 -99 75 -115c-3 -2 -7 -5 -10 -10c-70 33 -116 88 -123 172v11c0 68 44 126 88 159c23 17 49 29 78 36l-29 170c-21 -13 -52 -37 -92 -73c-50 -44 -86 -84 -109 -119c-45 -69 -67 -130 -67 -182v-13c5 -68 35 -127 93 -176 s125 -73 203 -73c25 0 50 3 75 9c-19 111 -36 221 -54 331z"/></g><g id="E260-pn3hlue"><path transform="scale(1,-1)" d="M20 110c32 16 54 27 93 27c26 0 35 -3 54 -13c13 -7 24 -20 27 -38l4 -25c0 -28 -16 -57 -45 -89c-23 -25 -39 -44 -65 -68l-88 -79v644h20v-359zM90 106c-32 0 -48 -10 -70 -29v-194c31 31 54 59 71 84c21 32 32 59 32 84c0 9 1 16 1 20c0 14 -3 21 -11 30l-8 3z"/></g><g id="E083-pn3hlue"><path transform="scale(1,-1)" d="M208 250c97 0 177 -52 177 -116c0 -69 -40 -111 -118 -125c56 -5 125 -44 125 -116c0 -31 -10 -57 -31 -78c-19 -21 -45 -38 -78 -49l-50 -11c-15 -3 -36 -7 -55 -7c-50 0 -86 16 -113 38c-16 10 -23 18 -34 34c-7 13 -11 25 -11 38c0 43 27 83 68 83l3 -2 c61 0 75 -42 75 -70c0 -19 -24 -42 -26 -57c7 -17 20 -25 37 -25c44 0 94 29 94 78c0 75 -34 125 -138 125v36c84 0 131 22 131 98c0 54 -37 88 -87 88c-26 0 -43 -7 -51 -22c15 -22 44 -16 44 -70c0 -37 -37 -62 -71 -62c-22 0 -69 15 -69 76c0 79 101 116 178 116z"/></g><g id="E084-pn3hlue"><path transform="scale(1,-1)" d="M20 -78c84 97 114 180 134 329h170c-13 -32 -82 -132 -99 -151l-84 -97c-33 -36 -59 -63 -80 -81h162v102l127 123v-225h57v-39h-57v-34c0 -43 19 -65 57 -65v-34h-244v36c48 0 60 26 60 70v27h-203v39z"/></g><g id="E4E5-pn3hlue"><path transform="scale(1,-1)" d="M107 292c-13 24 -30 49 -52 71c-1 1 0 2 0 3l-2 2c3 3 4 4 6 4c12 0 26 -7 40 -20s44 -40 89 -81c26 -24 28 -29 46 -47c4 -4 8 -9 10 -14c6 -8 8 -16 8 -27c0 -19 -12 -40 -36 -61c-28 -23 -49 -38 -61 -73c-4 -11 -7 -27 -10 -50c13 -43 34 -83 59 -121 c31 -47 59 -79 101 -129c-8 0 -26 7 -54 20l-62 29l-21 6l-23 1c-25 0 -45 -10 -60 -30l-4 -14l-1 -12c0 -33 20 -56 39 -78c8 -9 17 -18 26 -26c17 -15 27 -24 28 -30l-3 -3c-11 5 -19 10 -25 15c-9 3 -37 21 -45 26c-24 14 -45 32 -63 51c-19 21 -37 44 -37 71 c0 63 27 95 80 95c41 0 86 -18 136 -52c-19 26 -37 48 -55 66c-23 23 -48 44 -73 65c-28 23 -47 40 -58 53s-17 26 -18 39c75 64 113 125 113 183c0 27 -7 48 -18 68z"/></g><g id="E0A4-pn3hlue"><path transform="scale(1,-1)" d="M0 -39c0 68 73 172 200 172c66 0 114 -37 114 -95c0 -84 -106 -171 -218 -171c-64 0 -96 30 -96 94z"/></g><g id="E240-pn3hlue"><path transform="scale(1,-1)" d="M179 -646c15 29 29 55 46 102c18 49 30 108 30 138c0 105 -80 173 -168 200c-18 5 -47 9 -87 16v190h22c8 0 33 -61 71 -95c4 -3 -2 3 61 -56c62 -58 122 -137 122 -241c0 -38 -13 -106 -35 -163c-20 -51 -43 -99 -66 -132c-6 -5 -10 -7 -13 -7s-5 2 -5 5l4 10 c1 3 14 25 18 33z"/></g><g id="E242-pn3hlue"><path transform="scale(1,-1)" d="M206 -748c32 48 49 100 49 149c0 89 -55 168 -168 203c-18 5 -47 9 -87 16v190v190h22c8 0 33 -61 71 -95c4 -3 -2 3 61 -56c62 -58 122 -137 122 -241c0 -32 -7 -65 -17 -96c11 -29 17 -60 17 -94c0 -71 -32 -148 -67 -190c-6 -5 -10 -7 -13 -7s-5 2 -5 5l4 10 c1 3 6 8 11 16zM248 -463c4 18 7 38 7 57c0 105 -80 173 -168 200c-11 3 -27 6 -47 9c9 -17 23 -61 53 -88c4 -3 -2 3 61 -56c36 -33 71 -74 94 -122z"/></g><g id="E4E6-pn3hlue"><path transform="scale(1,-1)" d="M0 123c7 34 33 56 69 60c29 -3 43 -9 53 -29c4 -8 7 -15 10 -22c0 -21 -1 -25 -11 -35c-5 -8 -18 -14 -40 -20l12 -3l15 -1c44 0 97 26 122 56c10 11 18 26 24 42c7 1 15 2 22 3l-140 -424h-36l111 330c-10 -6 -27 -12 -53 -16l-52 -8h-10l-20 1c-1 0 -8 3 -21 6 c-37 9 -55 28 -55 60z"/></g><g id="E241-pn3hlue"><path transform="scale(1,-1)" d="M179 646c-4 8 -17 30 -18 33l-4 10c0 3 2 5 5 5s7 -2 13 -7c23 -33 46 -81 66 -132c22 -57 35 -125 35 -163c0 -104 -60 -183 -122 -241c-63 -59 -57 -53 -61 -56c-38 -34 -63 -95 -71 -95h-22v190c40 7 69 11 87 16c88 27 168 95 168 200c0 30 -12 89 -30 138 c-17 47 -31 73 -46 102z"/></g><g id="E243-pn3hlue"><path transform="scale(1,-1)" d="M216 730c-5 8 -10 13 -11 16l-4 10c0 3 2 5 5 5s7 -2 13 -7c35 -42 57 -101 57 -172c0 -34 -6 -65 -17 -94c10 -31 17 -64 17 -96c0 -104 -60 -183 -122 -241c-63 -59 -57 -53 -61 -56c-38 -34 -63 -95 -71 -95h-22v190v190c40 7 69 11 87 16c116 36 175 111 175 197 c0 44 -15 91 -46 137zM248 463c-23 -48 -58 -89 -94 -122c-63 -59 -57 -53 -61 -56c-30 -27 -44 -71 -53 -88c20 3 36 6 47 9c88 27 168 95 168 200c0 19 -3 39 -7 57z"/></g></defs><style type="text/css">#pn3hlue g.page-margin {font-family:Times,serif;}#pn3hlue g.ending, #pn3hlue g.fing, #pn3hlue g.reh, #pn3hlue g.tempo {font-weight:bold;}#pn3hlue g.dir, #pn3hlue g.dynam, #pn3hlue g.mNum {font-style:italic;}#pn3hlue g.label {font-weight:normal;}#pn3hlue path {stroke:currentColor}</style><svg class="definition-scale" color="black" viewBox="0 0 14000 2100"><g class="page-margin" transform="translate(0, 150)"><g data-id="n1pyc6ci" data-class="mdiv" class="mdiv pageMilestone"/><g data-id="o11gj1a5" data-class="score" class="score pageMilestone"/><g data-id="k1ib43sc" data-class="system" class="system"><g data-id="q1xsaef9" data-class="section" class="section systemMilestone"/><g data-id="q1dtraln" data-class="measure" class="measure"><g data-id="cfzfn0c" data-class="staff" class="staff"><path d="M0 540 L4585 540" stroke-width="13"/><path d="M0 720 L4585 720" stroke-width="13"/><path d="M0 900 L4585 900" stroke-width="13"/><path d="M0 1080 L4585 1080" stroke-width="13"/><path d="M0 1260 L4585 1260" stroke-width="13"/><g data-id="g1dncbi9" data-class="clef" class="clef"><use href="#E050-pn3hlue" transform="translate(90, 1080) scale(0.72, 0.72)"/></g><g data-id="h1kzqlqp" data-class="keySig" class="keySig"><g data-id="i15natog" data-class="keyAccid" class="keyAccid"><use href="#E260-pn3hlue" transform="translate(735, 900) scale(0.72, 0.72)"/></g></g><g data-id="j1s3kp5v" data-class="meterSig" class="meterSig"><use href="#E083-pn3hlue" transform="translate(1049, 720) scale(0.72, 0.72)"/><use href="#E084-pn3hlue" transform="translate(1043, 1080) scale(0.72, 0.72)"/></g><g data-class="ledgerLines" class="ledgerLines below"><g data-class="lineDash" class="lineDash" data-related="#g1402t7u"><path d="M3257 1440 L3579 1440" stroke-width="22"/></g></g><g data-id="d82y7c5" data-class="layer" class="layer"><g data-id="b4hlcnu" data-class="rest" class="rest"><use href="#E4E5-pn3hlue" transform="translate(1623, 900) scale(0.72, 0.72)"/></g><g data-id="cjfyaa8" data-class="rest" class="rest"><use href="#E4E5-pn3hlue" transform="translate(2464, 900) scale(0.72, 0.72)"/></g><g data-id="g1402t7u" data-class="note" class="note"><g data-class="notehead" class="notehead"><use href="#E0A4-pn3hlue" transform="translate(3305, 1440) scale(0.72, 0.72)"/></g><g data-id="cacb7me" data-class="dots" class="dots"><ellipse cx="3779" cy="1350" rx="36" ry="36" fill-opacity="1" stroke-opacity="1"/></g><g data-id="bbpn8b6" data-class="stem" class="stem"><path d="M3522 1412 L3522 810" stroke-width="18"/><g data-id="dhi3e35" data-class="flag" class="flag"><use href="#E240-pn3hlue" transform="translate(3513, 810) scale(0.72, 0.72)"/></g></g></g><g data-id="h3anpby" data-class="note" class="note"><g data-class="notehead" class="notehead"><use href="#E0A4-pn3hlue" transform="translate(4012, 1350) scale(0.72, 0.72)"/></g><g data-id="e5ln8u5" data-class="stem" class="stem"><path d="M4229 1322 L4229 720" stroke-width="18"/><g data-id="fm3e8yj" data-class="flag" class="flag"><use href="#E242-pn3hlue" transform="translate(4220, 720) scale(0.72, 0.72)"/></g></g></g></g></g><g data-id="yiee3a6" data-class="barLine" class="barLine"><path d="M4572 540 L4572 1260" stroke-width="27"/></g></g><g data-id="z8f5x2b" data-class="measure" class="measure"><g data-id="efr9lp4" data-class="staff" class="staff"><path d="M4585 540 L7683 540" stroke-width="13"/><path d="M4585 720 L7683 720" stroke-width="13"/><path d="M4585 900 L7683 900" stroke-width="13"/><path d="M4585 1080 L7683 1080" stroke-width="13"/><path d="M4585 1260 L7683 1260" stroke-width="13"/><g data-class="ledgerLines" class="ledgerLines below"><g data-class="lineDash" class="lineDash" data-related="#i19sx7t8"><path d="M4735 1440 L5057 1440" stroke-width="22"/></g></g><g data-id="f1af9j1m" data-class="layer" class="layer"><g data-id="i19sx7t8" data-class="note" class="note"><g data-class="notehead" class="notehead"><use href="#E0A4-pn3hlue" transform="translate(4783, 1440) scale(0.72, 0.72)"/></g><g data-id="h5kzk4w" data-class="dots" class="dots"><ellipse cx="5099" cy="1350" rx="36" ry="36" fill-opacity="1" stroke-opacity="1"/></g><g data-id="g10t1z97" data-class="stem" class="stem"><path d="M5000 1412 L5000 810" stroke-width="18"/></g></g><g data-id="j12y0bln" data-class="note" class="note"><g data-class="notehead" class="notehead"><use href="#E0A4-pn3hlue" transform="translate(5856, 1170) scale(0.72, 0.72)"/></g><g data-id="i1p8zp1o" data-class="stem" class="stem"><path d="M6073 1142 L6073 540" stroke-width="18"/><g data-id="j125tji0" data-class="flag" class="flag"><use href="#E240-pn3hlue" transform="translate(6064, 540) scale(0.72, 0.72)"/></g></g></g><g data-id="k1komjft" data-class="note" class="note"><g data-class="notehead" class="notehead"><use href="#E0A4-pn3hlue" transform="translate(6404, 990) scale(0.72, 0.72)"/></g><g data-id="lwrp81w" data-class="dots" class="dots"><ellipse cx="6720" cy="990" rx="36" ry="36" fill-opacity="1" stroke-opacity="1"/></g><g data-id="kha0mfn" data-class="stem" class="stem"><path d="M6621 962 L6621 360" stroke-width="18"/><g data-id="m1o50kxb" data-class="flag" class="flag"><use href="#E240-pn3hlue" transform="translate(6612, 360) scale(0.72, 0.72)"/></g></g></g><g data-id="lswsnaj" data-class="note" class="note"><g data-class="notehead" class="notehead"><use href="#E0A4-pn3hlue" transform="translate(7111, 1170) scale(0.72, 0.72)"/></g><g data-id="nl1930s" data-class="stem" class="stem"><path d="M7328 1142 L7328 540" stroke-width="18"/><g data-id="o6b187h" data-class="flag" class="flag"><use href="#E242-pn3hlue" transform="translate(7319, 540) scale(0.72, 0.72)"/></g></g></g></g></g><g data-id="h18l37uf" data-class="barLine" class="barLine"><path d="M7670 540 L7670 1260" stroke-width="27"/></g></g><g data-id="i7m9ujh" data-class="measure" class="measure"><g data-id="g3sng83" data-class="staff" class="staff"><path d="M7683 540 L11098 540" stroke-width="13"/><path d="M7683 720 L11098 720" stroke-width="13"/><path d="M7683 900 L11098 900" stroke-width="13"/><path d="M7683 1080 L11098 1080" stroke-width="13"/><path d="M7683 1260 L11098 1260" stroke-width="13"/><g data-id="h1yrl5hw" data-class="layer" class="layer"><g data-id="m1t7s8f6" data-class="note" class="note"><g data-class="notehead" class="notehead"><use href="#E0A4-pn3hlue" transform="translate(7881, 1170) scale(0.72, 0.72)"/></g><g data-id="pjsy2s1" data-class="stem" class="stem"><path d="M8098 1142 L8098 540" stroke-width="18"/></g></g><g data-id="n1vonwqy" data-class="note" class="note"><g data-class="notehead" class="notehead"><use href="#E0A4-pn3hlue" transform="translate(8722, 1260) scale(0.72, 0.72)"/></g><g data-id="q5prwhz" data-class="stem" class="stem"><path d="M8939 1232 L8939 630" stroke-width="18"/><g data-id="r5uuhd9" data-class="flag" class="flag"><use href="#E240-pn3hlue" transform="translate(8930, 630) scale(0.72, 0.72)"/></g></g></g><g data-id="d1qolpmz" data-class="rest" class="rest"><use href="#E4E6-pn3hlue" transform="translate(9270, 900) scale(0.72, 0.72)"/></g><g data-id="o1basbnw" data-class="note" class="note"><g data-class="notehead" class="notehead"><use href="#E0A4-pn3hlue" transform="translate(9818, 1260) scale(0.72, 0.72)"/></g><g data-id="t1xd82fm" data-class="dots" class="dots"><ellipse cx="10292" cy="1170" rx="36" ry="36" fill-opacity="1" stroke-opacity="1"/></g><g data-id="s168l71m" data-class="stem" class="stem"><path d="M10035 1232 L10035 630" stroke-width="18"/><g data-id="u1mdmziq" data-class="flag" class="flag"><use href="#E240-pn3hlue" transform="translate(10026, 630) scale(0.72, 0.72)"/></g></g></g><g data-id="p2zry5i" data-class="note" class="note"><g data-class="notehead" class="notehead"><use href="#E0A4-pn3hlue" transform="translate(10525, 1170) scale(0.72, 0.72)"/></g><g data-id="v1cg5eo0" data-class="stem" class="stem"><path d="M10742 1142 L10742 540" stroke-width="18"/><g data-id="wzrw4c5" data-class="flag" class="flag"><use href="#E242-pn3hlue" transform="translate(10733, 540) scale(0.72, 0.72)"/></g></g></g></g></g><g data-id="qyv83ll" data-class="barLine" class="barLine"><path d="M11085 540 L11085 1260" stroke-width="27"/></g></g><g data-id="rx88mbj" data-class="measure" class="measure"><g data-id="i1n18q9k" data-class="staff" class="staff"><path d="M11098 540 L14002 540" stroke-width="13"/><path d="M11098 720 L14002 720" stroke-width="13"/><path d="M11098 900 L14002 900" stroke-width="13"/><path d="M11098 1080 L14002 1080" stroke-width="13"/><path d="M11098 1260 L14002 1260" stroke-width="13"/><g data-id="j1qgk6qh" data-class="layer" class="layer"><g data-id="q1pab7cq" data-class="note" class="note"><g data-class="notehead" class="notehead"><use href="#E0A4-pn3hlue" transform="translate(11296, 1080) scale(0.72, 0.72)"/></g><g data-id="y1i6rn2h" data-class="dots" class="dots"><ellipse cx="11612" cy="990" rx="36" ry="36" fill-opacity="1" stroke-opacity="1"/></g><g data-id="xg7s1a4" data-class="stem" class="stem"><path d="M11513 1052 L11513 450" stroke-width="18"/></g></g><g data-id="r19pnwzx" data-class="note" class="note"><g data-class="notehead" class="notehead"><use href="#E0A4-pn3hlue" transform="translate(12369, 990) scale(0.72, 0.72)"/></g><g data-id="zfyawp9" data-class="stem" class="stem"><path d="M12586 962 L12586 360" stroke-width="18"/><g data-id="a1id1u09" data-class="flag" class="flag"><use href="#E240-pn3hlue" transform="translate(12577, 360) scale(0.72, 0.72)"/></g></g></g><g data-id="s26io0p" data-class="note" class="note"><g data-class="notehead" class="notehead"><use href="#E0A4-pn3hlue" transform="translate(12917, 900) scale(0.72, 0.72)"/></g><g data-id="c1p15b3p" data-class="dots" class="dots"><ellipse cx="13233" cy="810" rx="36" ry="36" fill-opacity="1" stroke-opacity="1"/></g><g data-id="b1trcado" data-class="stem" class="stem"><path d="M12926 928 L12926 1500" stroke-width="18"/><g data-id="d1obk3ik" data-class="flag" class="flag"><use href="#E241-pn3hlue" transform="translate(12917, 1500) scale(0.72, 0.72)"/></g></g><g data-id="i1oxyio3" data-class="accid" class="accid"/></g><g data-id="t117plkd" data-class="note" class="note"><g data-class="notehead" class="notehead"><use href="#E0A4-pn3hlue" transform="translate(13624, 900) scale(0.72, 0.72)"/></g><g data-id="e1rtw1k1" data-class="stem" class="stem"><path d="M13633 928 L13633 1500" stroke-width="18"/><g data-id="f1c98oj8" data-class="flag" class="flag"><use href="#E243-pn3hlue" transform="translate(13624, 1500) scale(0.72, 0.72)"/></g></g><g data-id="j141xf2n" data-class="accid" class="accid"/></g></g></g><g data-id="zjkdsd6" data-class="barLine" class="barLine"><path d="M13989 540 L13989 1260" stroke-width="27"/></g></g></g></g></svg></svg>