<svg viewBox="0 0 560 84" version="1.1" xmlns="http://www.w3.org/2000/svg" xmlns:xlink="http://www.w3.org/1999/xlink" overflow="visible" id="h1ih0i6b"><desc>Engraved by Verovio 5.6.0-85e7620</desc><defs><g id="E050-h1ih0i6b"><path transform="scale(1,-1)" d="M441 -245c-23 -4 -48 -6 -76 -6c-59 0 -102 7 -130 20c-88 42 -150 93 -187 154c-26 44 -43 103 -48 176c0 6 -1 13 -1 19c0 54 15 111 45 170c29 57 65 106 110 148s96 85 153 127c-3 16 -8 46 -13 92c-4 43 -5 73 -5 89c0 117 16 172 69 257c34 54 64 82 89 82 c21 0 43 -30 69 -92s39 -115 41 -159v-15c0 -109 -21 -162 -67 -241c-13 -20 -63 -90 -98 -118c-13 -9 -25 -19 -37 -29l31 -181c8 1 18 2 28 2c58 0 102 -12 133 -35c59 -43 92 -104 98 -184c1 -7 1 -15 1 -22c0 -123 -87 -209 -181 -248c8 -57 17 -110 25 -162 c5 -31 6 -58 6 -80c0 -30 -5 -53 -14 -70c-35 -64 -88 -99 -158 -103c-5 0 -11 -1 -16 -1c-37 0 -72 10 -108 27c-50 24 -77 59 -80 105v11c0 29 7 55 20 76c18 28 45 42 79 44h6c49 0 93 -42 97 -87v-9c0 -51 -34 -86 -105 -106c17 -24 51 -36 102 -36c62 0 116 43 140 85 c9 16 13 41 13 74c0 20 -1 42 -5 67c-8 53 -18 106 -26 159zM461 939c-95 0 -135 -175 -135 -286c0 -24 2 -48 5 -71c50 39 92 82 127 128c40 53 60 100 60 140v8c-4 53 -22 81 -55 81h-2zM406 119l54 -326c73 25 110 78 110 161c0 7 0 15 -1 23c-7 95 -57 142 -151 142h-12 zM382 117c-72 -2 -128 -47 -128 -120v-7c2 -46 43 -99 75 -115c-3 -2 -7 -5 -10 -10c-70 33 -116 88 -123 172v11c0 68 44 126 88 159c23 17 49 29 78 36l-29 170c-21 -13 -52 -37 -92 -73c-50 -44 -86 -84 -109 -119c-45 -69 -67 -130 -67 -182v-13c5 -68 35 -127 93 -176 s125 -73 203 -73c25 0 50 3 75 9c-19 111 -36 221 -54 331z"/></g><g id="E08A-h1ih0i6b"><path transform="scale(1,-1)" d="M340 179c-9 24 -56 41 -89 41c-46 0 -81 -28 -100 -58c-17 -28 -25 -78 -25 -150c0 -65 2 -111 8 -135c8 -31 18 -49 40 -67c20 -17 43 -25 70 -25c54 0 92 36 115 75c14 25 23 54 28 88h27c0 -63 -24 -105 -58 -141c-35 -38 -82 -56 -140 -56c-45 0 -83 13 -115 39 c-57 45 -101 130 -101 226c0 59 33 127 68 163c36 37 97 72 160 72c36 0 93 -21 121 -40c11 -8 23 -17 33 -30c19 -23 27 -48 27 -76c0 -51 -35 -88 -86 -88c-43 0 -76 27 -76 68c0 26 7 35 21 51c15 17 32 27 58 32c7 2 14 7 14 11z"/></g><g id="E0A3-h1ih0i6b"><path transform="scale(1,-1)" d="M278 64c0 22 -17 39 -43 39c-12 0 -26 -3 -41 -10c-85 -43 -165 -94 -165 -156c5 -25 15 -32 49 -32c67 11 200 95 200 159zM0 -36c0 68 73 174 200 174c66 0 114 -39 114 -97c0 -84 -106 -173 -218 -173c-64 0 -96 32 -96 96z"/></g><g id="E0A4-h1ih0i6b"><path transform="scale(1,-1)" d="M0 -39c0 68 73 172 200 172c66 0 114 -37 114 -95c0 -84 -106 -171 -218 -171c-64 0 -96 30 -96 94z"/></g><g id="E0A2-h1ih0i6b"><path transform="scale(1,-1)" d="M198 133c102 0 207 -45 207 -133c0 -92 -118 -133 -227 -133c-101 0 -178 46 -178 133c0 88 93 133 198 133zM293 -21c0 14 -3 29 -8 44c-7 20 -18 38 -33 54c-20 21 -43 31 -68 31l-20 -2c-15 -5 -27 -14 -36 -28c-4 -9 -6 -17 -8 -24s-3 -16 -3 -27c0 -15 3 -34 9 -57 s18 -41 34 -55c15 -15 36 -23 62 -23c4 0 10 1 18 2c19 5 32 15 40 30s13 34 13 55z"/></g><g id="E4C0-h1ih0i6b"><path transform="scale(1,-1)" d="M0 0c0 0 40 320 300 320s300 -320 300 -320h-32s-38 227 -268 227s-268 -227 -268 -227h-32zM355 52c0 -30 -25 -55 -55 -55s-55 25 -55 55s25 55 55 55s55 -25 55 -55z"/></g><g id="E240-h1ih0i6b"><path transform="scale(1,-1)" d="M179 -646c15 29 29 55 46 102c18 49 30 108 30 138c0 105 -80 173 -168 200c-18 5 -47 9 -87 16v190h22c8 0 33 -61 71 -95c4 -3 -2 3 61 -56c62 -58 122 -137 122 -241c0 -38 -13 -106 -35 -163c-20 -51 -43 -99 -66 -132c-6 -5 -10 -7 -13 -7s-5 2 -5 5l4 10 c1 3 14 25 18 33z"/></g></defs><style type="text/css">#h1ih0i6b g.page-margin {font-family:Times,serif;}#h1ih0i6b g.ending, #h1ih0i6b g.fing, #h1ih0i6b g.reh, #h1ih0i6b g.tempo {font-weight:bold;}#h1ih0i6b g.dir, #h1ih0i6b g.dynam, #h1ih0i6b g.mNum {font-style:italic;}#h1ih0i6b g.label {font-weight:normal;}#h1ih0i6b path {stroke:currentColor}</style><svg class="definition-scale" color="black" viewBox="0 0 14000 2100"><g class="page-margin" transform="translate(0, 150)"><g data-id="r18k9ryt" data-class="mdiv" class="mdiv pageMilestone"/><g data-id="s10o34qp" data-class="score" class="score pageMilestone"/><g data-id="q1uyt3sp" data-class="system" class="system"><g data-id="u153j5qw" data-class="section" class="section systemMilestone"/><g data-id="iy5t9on" data-class="measure" class="measure"><g data-id="g1br0wxq" data-class="staff" class="staff"><path d="M0 540 L3816 540" stroke-width="13"/><path d="M0 720 L3816 720" stroke-width="13"/><path d="M0 900 L3816 900" stroke-width="13"/><path d="M0 1080 L3816 1080" stroke-width="13"/><path d="M0 1260 L3816 1260" stroke-width="13"/><g data-id="y7yllfe" data-class="clef" class="clef"><use href="#E050-h1ih0i6b" transform="translate(90, 1080) scale(0.72, 0.72)"/></g><g data-id="z1jex3vc" data-class="keySig" class="keySig"/><g data-id="a1sy3x5f" data-class="meterSig" class="meterSig"><use href="#E08A-h1ih0i6b" transform="translate(735, 900) scale(0.72, 0.72)"/></g><g data-id="h7eyw1d" data-class="layer" class="layer"><g data-id="b1bn38e7" data-class="note" class="note"><g data-class="notehead" class="notehead"><use href="#E0A3-h1ih0i6b" transform="translate(1313, 1080) scale(0.72, 0.72)"/></g><g data-id="a1hfk7p4" data-class="stem" class="stem"><path d="M1530 1052 L1530 450" stroke-width="18"/></g></g><g data-id="c18o51ad" data-class="note" class="note"><g data-class="notehead" class="notehead"><use href="#E0A4-h1ih0i6b" transform="translate(2389, 1080) scale(0.72, 0.72)"/></g><g data-id="b3qvgmk" data-class="stem" class="stem"><path d="M2606 1052 L2606 450" stroke-width="18"/></g></g><g data-id="d1pcpgzp" data-class="note" class="note"><g data-class="notehead" class="notehead"><use href="#E0A4-h1ih0i6b" transform="translate(3096, 1080) scale(0.72, 0.72)"/></g><g data-id="cooifpc" data-class="stem" class="stem"><path d="M3313 1052 L3313 450" stroke-width="18"/></g></g></g></g><g data-id="qkmp26i" data-class="barLine" class="barLine"><path d="M3803 540 L3803 1260" stroke-width="27"/></g></g><g data-id="rw7qq1j" data-class="measure" class="measure"><g data-id="i17e71kp" data-class="staff" class="staff"><path d="M3816 540 L6509 540" stroke-width="13"/><path d="M3816 720 L6509 720" stroke-width="13"/><path d="M3816 900 L6509 900" stroke-width="13"/><path d="M3816 1080 L6509 1080" stroke-width="13"/><path d="M3816 1260 L6509 1260" stroke-width="13"/><g data-id="jfuudex" data-class="layer" class="layer"><g data-id="et252tw" data-class="note" class="note"><g data-class="notehead" class="notehead"><use href="#E0A3-h1ih0i6b" transform="translate(4006, 810) scale(0.72, 0.72)"/></g><g data-id="d1kclz40" data-class="stem" class="stem"><path d="M4015 835 L4015 1440" stroke-width="18"/></g></g><g data-id="f1miabcz" data-class="note" class="note"><g data-class="notehead" class="notehead"><use href="#E0A4-h1ih0i6b" transform="translate(5082, 810) scale(0.72, 0.72)"/></g><g data-id="emidwjm" data-class="stem" class="stem"><path d="M5091 838 L5091 1440" stroke-width="18"/></g></g><g data-id="g1uot6ma" data-class="note" class="note"><g data-class="notehead" class="notehead"><use href="#E0A4-h1ih0i6b" transform="translate(5789, 720) scale(0.72, 0.72)"/></g><g data-id="fbya3xt" data-class="stem" class="stem"><path d="M5798 748 L5798 1350" stroke-width="18"/></g></g></g></g><g data-id="z1oelqp2" data-class="barLine" class="barLine"><path d="M6496 540 L6496 1260" stroke-width="27"/></g></g><g data-id="ak1017v" data-class="measure" class="measure"><g data-id="kzotyd4" data-class="staff" class="staff"><path d="M6509 540 L8342 540" stroke-width="13"/><path d="M6509 720 L8342 720" stroke-width="13"/><path d="M6509 900 L8342 900" stroke-width="13"/><path d="M6509 1080 L8342 1080" stroke-width="13"/><path d="M6509 1260 L8342 1260" stroke-width="13"/><g data-id="l1ewsv1l" data-class="layer" class="layer"><g data-id="h13ohxzk" data-class="note" class="note"><g data-class="notehead" class="notehead"><use href="#E0A2-h1ih0i6b" transform="translate(6699, 630) scale(0.72, 0.72)"/></g></g></g></g><g data-id="p1r3zxxr" data-class="fermata" class="fermata"><use href="#E4C0-h1ih0i6b" transform="translate(6628, 493) scale(0.72, 0.72)"/></g><g data-id="iveaqko" data-class="barLine" class="barLine"><path d="M8329 540 L8329 1260" stroke-width="27"/></g></g><g data-id="ja3udgz" data-class="measure" class="measure"><g data-id="mzh12h1" data-class="staff" class="staff"><path d="M8342 540 L11647 540" stroke-width="13"/><path d="M8342 720 L11647 720" stroke-width="13"/><path d="M8342 900 L11647 900" stroke-width="13"/><path d="M8342 1080 L11647 1080" stroke-width="13"/><path d="M8342 1260 L11647 1260" stroke-width="13"/><g data-id="n1wgb8cs" data-class="layer" class="layer"><g data-id="i1k2qye7" data-class="note" class="note"><g data-class="notehead" class="notehead"><use href="#E0A4-h1ih0i6b" transform="translate(8532, 1080) scale(0.72, 0.72)"/></g><g data-id="h1tl6t6k" data-class="stem" class="stem"><path d="M8749 1052 L8749 450" stroke-width="18"/></g></g><g data-id="jy1jx3g" data-class="note" class="note"><g data-class="notehead" class="notehead"><use href="#E0A4-h1ih0i6b" transform="translate(9238, 1080) scale(0.72, 0.72)"/></g><g data-id="i9ulx9d" data-class="stem" class="stem"><path d="M9455 1052 L9455 450" stroke-width="18"/><g data-id="jt6eyd4" data-class="flag" class="flag"><use href="#E240-h1ih0i6b" transform="translate(9446, 450) scale(0.72, 0.72)"/></g></g></g><g data-id="k1pet7vy" data-class="note" class="note"><g data-class="notehead" class="notehead"><use href="#E0A4-h1ih0i6b" transform="translate(9700, 1080) scale(0.72, 0.72)"/></g><g data-id="kr9sop8" data-class="stem" class="stem"><path d="M9917 1052 L9917 450" stroke-width="18"/><g data-id="lt9mmvv" data-class="flag" class="flag"><use href="#E240-h1ih0i6b" transform="translate(9908, 450) scale(0.72, 0.72)"/></g></g></g><g data-id="l1k62lub" data-class="note" class="note"><g data-class="notehead" class="notehead"><use href="#E0A4-h1ih0i6b" transform="translate(10221, 990) scale(0.72, 0.72)"/></g><g data-id="m1uxctjr" data-class="stem" class="stem"><path d="M10438 962 L10438 360" stroke-width="18"/></g></g><g data-id="m1wp2rlc" data-class="note" class="note"><g data-class="notehead" class="notehead"><use href="#E0A4-h1ih0i6b" transform="translate(10927, 1080) scale(0.72, 0.72)"/></g><g data-id="nm23z4v" data-class="stem" class="stem"><path d="M11144 1052 L11144 450" stroke-width="18"/></g></g></g></g><g data-id="r1jfeokw" data-class="barLine" class="barLine"><path d="M11634 540 L11634 1260" stroke-width="27"/></g></g><g data-id="srsmdt3" data-class="measure" class="measure"><g data-id="o1rzxrl2" data-class="staff" class="staff"><path d="M11647 540 L14003 540" stroke-width="13"/><path d="M11647 720 L14003 720" stroke-width="13"/><path d="M11647 900 L14003 900" stroke-width="13"/><path d="M11647 1080 L14003 1080" stroke-width="13"/><path d="M11647 1260 L14003 1260" stroke-width="13"/><g data-id="p1447jb9" data-class="layer" class="layer"><g data-id="n1vp9j0r" data-class="note" class="note"><g data-class="notehead" class="notehead"><use href="#E0A3-h1ih0i6b" transform="translate(11837, 1170) scale(0.72, 0.72)"/></g><g data-id="o1y7uk7e" data-class="stem" class="stem"><path d="M12054 1142 L12054 540" stroke-width="18"/></g></g><g data-id="o1qqfkbh" data-class="note" class="note"><g data-class="notehead" class="notehead"><use href="#E0A3-h1ih0i6b" transform="translate(12913, 1260) scale(0.72, 0.72)"/></g><g data-id="p2xhav0" data-class="stem" class="stem"><path d="M13130 1232 L13130 630" stroke-width="18"/></g></g></g></g><g data-id="a7wlojo" data-class="barLine" class="barLine"><path d="M13990 540 L13990 1260" stroke-width="27"/></g></g><g data-id="x9qkq11" data-class="systemMilestoneEnd" class="systemMilestoneEnd u153j5qw"/></g><g data-id="ypgdy50" data-class="pageMilestoneEnd" class="pageMilestoneEnd s10o34qp"/><g data-id="z19sdcuw" data-class="pageMilestoneEnd" class="pageMilestoneEnd r18k9ryt"/></g></svg></svg>