<svg viewBox="0 0 560 84" version="1.1" xmlns="http://www.w3.org/2000/svg" xmlns:xlink="http://www.w3.org/1999/xlink" overflow="visible" id="tu7wzeq"><desc>Engraved by Verovio 5.6.0-85e7620</desc><defs><g id="E050-tu7wzeq"><path transform="scale(1,-1)" d="M441 -245c-23 -4 -48 -6 -76 -6c-59 0 -102 7 -130 20c-88 42 -150 93 -187 154c-26 44 -43 103 -48 176c0 6 -1 13 -1 19c0 54 15 111 45 170c29 57 65 106 110 148s96 85 153 127c-3 16 -8 46 -13 92c-4 43 -5 73 -5 89c0 117 16 172 69 257c34 54 64 82 89 82 c21 0 43 -30 69 -92s39 -115 41 -159v-15c0 -109 -21 -162 -67 -241c-13 -20 -63 -90 -98 -118c-13 -9 -25 -19 -37 -29l31 -181c8 1 18 2 28 2c58 0 102 -12 133 -35c59 -43 92 -104 98 -184c1 -7 1 -15 1 -22c0 -123 -87 -209 -181 -248c8 -57 17 -110 25 -162 c5 -31 6 -58 6 -80c0 -30 -5 -53 -14 -70c-35 -64 -88 -99 -158 -103c-5 0 -11 -1 -16 -1c-37 0 -72 10 -108 27c-50 24 -77 59 -80 105v11c0 29 7 55 20 76c18 28 45 42 79 44h6c49 0 93 -42 97 -87v-9c0 -51 -34 -86 -105 -106c17 -24 51 -36 102 -36c62 0 116 43 140 85 c9 16 13 41 13 74c0 20 -1 42 -5 67c-8 53 -18 106 -26 159zM461 939c-95 0 -135 -175 -135 -286c0 -24 2 -48 5 -71c50 39 92 82 127 128c40 53 60 100 60 140v8c-4 53 -22 81 -55 81h-2zM406 119l54 -326c73 25 110 78 110 161c0 7 0 15 -1 23c-7 95 -57 142 -151 142h-12 zM382 117c-72 -2 -128 -47 -128 -120v-7c2 -46 43 -99 75 -115c-3 -2 -7 -5 -10 -10c-70 33 -116 88 -123 172v11c0 68 44 126 88 159c23 17 49 29 78 36l-29 170c-21 -13 -52 -37 -92 -73c-50 -44 -86 -84 -109 -119c-45 -69 -67 -130 -67 -182v-13c5 -68 35 -127 93 -176 s125 -73 203 -73c25 0 50 3 75 9c-19 111 -36 221 -54 331z"/></g><g id="E262-tu7wzeq"><path transform="scale(1,-1)" d="M136 186v169h17v-164l44 14v-91l-44 -14v-165l44 12v-91l-44 -13v-155h-17v150l-76 -22v-155h-17v149l-43 -13v90l43 14v167l-43 -14v92l43 13v169h17v-163zM60 73v-167l76 22v168z"/></g><g id="E082-tu7wzeq"><path transform="scale(1,-1)" d="M124 -185c-18 0 -55 -14 -65 -65h-36l-3 30c0 25 6 45 18 63c11 19 22 30 39 43l121 82l37 29c15 11 27 29 38 54c12 24 18 47 18 70c0 40 -19 88 -94 88c-25 0 -32 0 -50 -8c-14 -5 -23 -12 -26 -22c3 -9 7 -15 10 -18l24 -17c12 -7 17 -11 27 -21c5 -7 7 -16 7 -27 c0 -12 0 -57 -79 -74c-30 0 -76 26 -76 94c0 66 81 135 197 135c72 0 181 -32 181 -150c0 -53 -32 -95 -113 -133l-91 -41c-26 -11 -45 -23 -57 -37l49 7c84 0 115 -41 148 -41c20 0 33 20 39 61h35c0 -152 -68 -168 -114 -168c-17 0 -65 0 -79 7h10l-28 17 c-49 37 -69 40 -87 42z"/></g><g id="E084-tu7wzeq"><path transform="scale(1,-1)" d="M20 -78c84 97 114 180 134 329h170c-13 -32 -82 -132 -99 -151l-84 -97c-33 -36 -59 -63 -80 -81h162v102l127 123v-225h57v-39h-57v-34c0 -43 19 -65 57 -65v-34h-244v36c48 0 60 26 60 70v27h-203v39z"/></g><g id="E0A4-tu7wzeq"><path transform="scale(1,-1)" d="M0 -39c0 68 73 172 200 172c66 0 114 -37 114 -95c0 -84 -106 -171 -218 -171c-64 0 -96 30 -96 94z"/></g><g id="E240-tu7wzeq"><path transform="scale(1,-1)" d="M179 -646c15 29 29 55 46 102c18 49 30 108 30 138c0 105 -80 173 -168 200c-18 5 -47 9 -87 16v190h22c8 0 33 -61 71 -95c4 -3 -2 3 61 -56c62 -58 122 -137 122 -241c0 -38 -13 -106 -35 -163c-20 -51 -43 -99 -66 -132c-6 -5 -10 -7 -13 -7s-5 2 -5 5l4 10 c1 3 14 25 18 33z"/></g></defs><style type="text/css">#tu7wzeq g.page-margin {font-family:Times,serif;}#tu7wzeq g.ending, #tu7wzeq g.fing, #tu7wzeq g.reh, #tu7wzeq g.tempo {font-weight:bold;}#tu7wzeq g.dir, #tu7wzeq g.dynam, #tu7wzeq g.mNum {font-style:italic;}#tu7wzeq g.label {font-weight:normal;}#tu7wzeq path {stroke:currentColor}</style><svg class="definition-scale" color="black" viewBox="0 0 14000 2100"><g class="page-margin" transform="translate(0, 150)"><g data-id="i1ubuxwd" data-class="mdiv" class="mdiv pageMilestone"/><g data-id="jzpq3sz" data-class="score" class="score pageMilestone"/><g data-id="nc9yfhk" data-class="system" class="system"><g data-id="l1w2uzgv" data-class="section" class="section systemMilestone"/><g data-id="urj9ucn" data-class="measure" class="measure"><g data-id="xwo2ea3" data-class="staff" class="staff"><path d="M0 540 L4243 540" stroke-width="13"/><path d="M0 720 L4243 720" stroke-width="13"/><path d="M0 900 L4243 900" stroke-width="13"/><path d="M0 1080 L4243 1080" stroke-width="13"/><path d="M0 1260 L4243 1260" stroke-width="13"/><g data-id="rfa1ih9" data-class="clef" class="clef"><use href="#E050-tu7wzeq" transform="translate(90, 1080) scale(0.72, 0.72)"/></g><g data-id="sjml3jc" data-class="keySig" class="keySig"><g data-id="tdqobl" data-class="keyAccid" class="keyAccid"><use href="#E262-tu7wzeq" transform="translate(735, 540) scale(0.72, 0.72)"/></g><g data-id="ulbogrn" data-class="keyAccid" class="keyAccid"><use href="#E262-tu7wzeq" transform="translate(913, 810) scale(0.72, 0.72)"/></g><g data-id="vxpbvfk" data-class="keyAccid" class="keyAccid"><use href="#E262-tu7wzeq" transform="translate(1091, 450) scale(0.72, 0.72)"/></g><g data-id="w1l0ymmw" data-class="keyAccid" class="keyAccid"><use href="#E262-tu7wzeq" transform="translate(1269, 720) scale(0.72, 0.72)"/></g></g><g data-id="x137kz89" data-class="meterSig" class="meterSig"><use href="#E082-tu7wzeq" transform="translate(1576, 720) scale(0.72, 0.72)"/><use href="#E084-tu7wzeq" transform="translate(1581, 1080) scale(0.72, 0.72)"/></g><g data-id="y6jg7r7" data-class="layer" class="layer"><g data-id="e8arfin" data-class="note" class="note"><g data-class="notehead" class="notehead"><use href="#E0A4-tu7wzeq" transform="translate(2059, 990) scale(0.54, 0.54)"/></g><g data-id="t1oskwbx" data-class="stem" class="stem"><path d="M2219 969 L2219 518" stroke-width="18"/><path d="M2152 786 L2353 585" stroke-width="21"/><g data-id="u18oo3w4" data-class="flag" class="flag"><use href="#E240-tu7wzeq" transform="translate(2210, 518) scale(0.54, 0.54)"/></g></g></g><g data-id="v17opi63" data-class="beam" class="beam"><polygon stroke-opacity="1" fill-opacity="1" points="2638,360 4006,315 4006,405 2638,450"/><g data-id="fuzgghw" data-class="note" class="note"><g data-class="notehead" class="notehead"><use href="#E0A4-tu7wzeq" transform="translate(2430, 1080) scale(0.72, 0.72)"/></g><g data-id="v1xbqghz" data-class="stem" class="stem"><path d="M2647 1052 L2647 378" stroke-width="18"/></g><g data-id="z2d1l5w" data-class="accid" class="accid"/></g><g data-id="g1pa3dp7" data-class="note" class="note"><g data-class="notehead" class="notehead"><use href="#E0A4-tu7wzeq" transform="translate(2880, 1170) scale(0.72, 0.72)"/></g><g data-id="wiqnzkf" data-class="stem" class="stem"><path d="M3097 1142 L3097 363" stroke-width="18"/></g><g data-id="aewrwpz" data-class="accid" class="accid"/></g><g data-id="h1jd1119" data-class="note" class="note"><g data-class="notehead" class="notehead"><use href="#E0A4-tu7wzeq" transform="translate(3330, 1080) scale(0.72, 0.72)"/></g><g data-id="x1gmper6" data-class="stem" class="stem"><path d="M3547 1052 L3547 348" stroke-width="18"/></g><g data-id="b1e5bi4f" data-class="accid" class="accid"/></g><g data-id="i157dlbl" data-class="note" class="note"><g data-class="notehead" class="notehead"><use href="#E0A4-tu7wzeq" transform="translate(3780, 990) scale(0.72, 0.72)"/></g><g data-id="yq10ikr" data-class="stem" class="stem"><path d="M3997 962 L3997 333" stroke-width="18"/></g></g></g></g></g><g data-id="c3eu0x1" data-class="barLine" class="barLine"><path d="M4230 540 L4230 1260" stroke-width="27"/></g></g><g data-id="d12il4go" data-class="measure" class="measure"><g data-id="zjhvwye" data-class="staff" class="staff"><path d="M4243 540 L6236 540" stroke-width="13"/><path d="M4243 720 L6236 720" stroke-width="13"/><path d="M4243 900 L6236 900" stroke-width="13"/><path d="M4243 1080 L6236 1080" stroke-width="13"/><path d="M4243 1260 L6236 1260" stroke-width="13"/><g data-id="aiwl6nb" data-class="layer" class="layer"><g data-id="w1wkqyrd" data-class="beam" class="beam"><polygon stroke-opacity="1" fill-opacity="1" points="4423,1485 5791,1305 5791,1215 4423,1395"/><g data-id="j1n5ug9" data-class="note" class="note"><g data-class="notehead" class="notehead"><use href="#E0A4-tu7wzeq" transform="translate(4423, 900) scale(0.72, 0.72)"/></g><g data-id="zpmvua0" data-class="stem" class="stem"><path d="M4432 928 L4432 1467" stroke-width="18"/></g></g><g data-id="k1quu4xz" data-class="note" class="note"><g data-class="notehead" class="notehead"><use href="#E0A4-tu7wzeq" transform="translate(4873, 630) scale(0.72, 0.72)"/></g><g data-id="a4psf7w" data-class="stem" class="stem"><path d="M4882 658 L4882 1407" stroke-width="18"/></g></g><g data-id="l1ep9326" data-class="note" class="note"><g data-class="notehead" class="notehead"><use href="#E0A4-tu7wzeq" transform="translate(5323, 720) scale(0.72, 0.72)"/></g><g data-id="bfyhtbz" data-class="stem" class="stem"><path d="M5332 748 L5332 1347" stroke-width="18"/></g><g data-id="ckokfxi" data-class="accid" class="accid"/></g><g data-id="m1kd8pdx" data-class="note" class="note"><g data-class="notehead" class="notehead"><use href="#E0A4-tu7wzeq" transform="translate(5773, 630) scale(0.72, 0.72)"/></g><g data-id="c17rep10" data-class="stem" class="stem"><path d="M5782 658 L5782 1287" stroke-width="18"/></g></g></g></g></g><g data-id="lqkfq4p" data-class="barLine" class="barLine"><path d="M6223 540 L6223 1260" stroke-width="27"/></g></g><g data-id="m1yrasq5" data-class="measure" class="measure"><g data-id="bbipumh" data-class="staff" class="staff"><path d="M6236 540 L8229 540" stroke-width="13"/><path d="M6236 720 L8229 720" stroke-width="13"/><path d="M6236 900 L8229 900" stroke-width="13"/><path d="M6236 1080 L8229 1080" stroke-width="13"/><path d="M6236 1260 L8229 1260" stroke-width="13"/><g data-id="c1oyrn37" data-class="layer" class="layer"><g data-id="x106qwo3" data-class="beam" class="beam"><polygon stroke-opacity="1" fill-opacity="1" points="6416,1485 7784,1485 7784,1395 6416,1395"/><g data-id="nwqec65" data-class="note" class="note"><g data-class="notehead" class="notehead"><use href="#E0A4-tu7wzeq" transform="translate(6416, 450) scale(0.72, 0.72)"/></g><g data-id="d128wpfe" data-class="stem" class="stem"><path d="M6425 478 L6425 1467" stroke-width="18"/></g><g data-id="dxmk4mf" data-class="accid" class="accid"/></g><g data-id="oq4aivt" data-class="note" class="note"><g data-class="notehead" class="notehead"><use href="#E0A4-tu7wzeq" transform="translate(6866, 630) scale(0.72, 0.72)"/></g><g data-id="e1uyl1f4" data-class="stem" class="stem"><path d="M6875 658 L6875 1467" stroke-width="18"/></g></g><g data-id="pnd1wnw" data-class="note" class="note"><g data-class="notehead" class="notehead"><use href="#E0A4-tu7wzeq" transform="translate(7316, 900) scale(0.72, 0.72)"/></g><g data-id="ffcltyk" data-class="stem" class="stem"><path d="M7325 928 L7325 1467" stroke-width="18"/></g></g><g data-id="qd8pcc2" data-class="note" class="note"><g data-class="notehead" class="notehead"><use href="#E0A4-tu7wzeq" transform="translate(7766, 810) scale(0.72, 0.72)"/></g><g data-id="gchw8l2" data-class="stem" class="stem"><path d="M7775 838 L7775 1467" stroke-width="18"/></g><g data-id="eoimxrg" data-class="accid" class="accid"/></g></g></g></g><g data-id="u1rt5xyc" data-class="barLine" class="barLine"><path d="M8216 540 L8216 1260" stroke-width="27"/></g></g><g data-id="v38otuh" data-class="measure" class="measure"><g data-id="d2f5xdh" data-class="staff" class="staff"><path d="M8229 540 L10194 540" stroke-width="13"/><path d="M8229 720 L10194 720" stroke-width="13"/><path d="M8229 900 L10194 900" stroke-width="13"/><path d="M8229 1080 L10194 1080" stroke-width="13"/><path d="M8229 1260 L10194 1260" stroke-width="13"/><g data-id="e1ud1zf6" data-class="layer" class="layer"><g data-id="yqfwrme" data-class="beam" class="beam"><polygon stroke-opacity="1" fill-opacity="1" points="8617,270 9401,450 9401,540 8617,360"/><polygon stroke-opacity="1" fill-opacity="1" points="8617,405 8843,459 8843,549 8617,495"/><polygon stroke-opacity="1" fill-opacity="1" points="9175,537 9401,585 9401,675 9175,627"/><g data-id="r9llu0z" data-class="note" class="note"><g data-class="notehead" class="notehead"><use href="#E0A4-tu7wzeq" transform="translate(8409, 900) scale(0.72, 0.72)"/></g><g data-id="h14d9hgc" data-class="stem" class="stem"><path d="M8626 872 L8626 288" stroke-width="18"/></g></g><g data-id="smhzaiy" data-class="note" class="note"><g data-class="notehead" class="notehead"><use href="#E0A4-tu7wzeq" transform="translate(8725, 990) scale(0.72, 0.72)"/></g><g data-id="i1vljnk7" data-class="stem" class="stem"><path d="M8942 962 L8942 363" stroke-width="18"/></g></g><g data-id="t1wrczl2" data-class="note" class="note"><g data-class="notehead" class="notehead"><use href="#E0A4-tu7wzeq" transform="translate(9175, 1080) scale(0.72, 0.72)"/></g><g data-id="j1v8a3pk" data-class="stem" class="stem"><path d="M9392 1052 L9392 468" stroke-width="18"/></g><g data-id="f19h7o4i" data-class="accid" class="accid"/></g></g><g data-id="u1jirx9v" data-class="note" class="note"><g data-class="notehead" class="notehead"><use href="#E0A4-tu7wzeq" transform="translate(9491, 1080) scale(0.72, 0.72)"/></g><g data-id="k5kdrcd" data-class="stem" class="stem"><path d="M9708 1052 L9708 450" stroke-width="18"/></g><g data-id="g6ixngo" data-class="accid" class="accid"/></g></g></g><g data-id="d1y3nh0e" data-class="barLine" class="barLine"><path d="M10181 540 L10181 1260" stroke-width="27"/></g></g><g data-id="mt6hguj" data-class="systemMilestoneEnd" class="systemMilestoneEnd l1w2uzgv"/></g><g data-id="ny55ny5" data-class="pageMilestoneEnd" class="pageMilestoneEnd jzpq3sz"/><g data-id="o11pv43a" data-class="pageMilestoneEnd" class="pageMilestoneEnd i1ubuxwd"/></g></svg></svg>