<svg viewBox="0 0 560 84" version="1.1" xmlns="http://www.w3.org/2000/svg" xmlns:xlink="http://www.w3.org/1999/xlink" overflow="visible" id="x1ua6dtr"><desc>Engraved by Verovio 5.6.0-85e7620</desc><defs><g id="E050-x1ua6dtr"><path transform="scale(1,-1)" d="M441 -245c-23 -4 -48 -6 -76 -6c-59 0 -102 7 -130 20c-88 42 -150 93 -187 154c-26 44 -43 103 -48 176c0 6 -1 13 -1 19c0 54 15 111 45 170c29 57 65 106 110 148s96 85 153 127c-3 16 -8 46 -13 92c-4 43 -5 73 -5 89c0 117 16 172 69 257c34 54 64 82 89 82 c21 0 43 -30 69 -92s39 -115 41 -159v-15c0 -109 -21 -162 -67 -241c-13 -20 -63 -90 -98 -118c-13 -9 -25 -19 -37 -29l31 -181c8 1 18 2 28 2c58 0 102 -12 133 -35c59 -43 92 -104 98 -184c1 -7 1 -15 1 -22c0 -123 -87 -209 -181 -248c8 -57 17 -110 25 -162 c5 -31 6 -58 6 -80c0 -30 -5 -53 -14 -70c-35 -64 -88 -99 -158 -103c-5 0 -11 -1 -16 -1c-37 0 -72 10 -108 27c-50 24 -77 59 -80 105v11c0 29 7 55 20 76c18 28 45 42 79 44h6c49 0 93 -42 97 -87v-9c0 -51 -34 -86 -105 -106c17 -24 51 -36 102 -36c62 0 116 43 140 85 c9 16 13 41 13 74c0 20 -1 42 -5 67c-8 53 -18 106 -26 159zM461 939c-95 0 -135 -175 -135 -286c0 -24 2 -48 5 -71c50 39 92 82 127 128c40 53 60 100 60 140v8c-4 53 -22 81 -55 81h-2zM406 119l54 -326c73 25 110 78 110 161c0 7 0 15 -1 23c-7 95 -57 142 -151 142h-12 zM382 117c-72 -2 -128 -47 -128 -120v-7c2 -46 43 -99 75 -115c-3 -2 -7 -5 -10 -10c-70 33 -116 88 -123 172v11c0 68 44 126 88 159c23 17 49 29 78 36l-29 170c-21 -13 -52 -37 -92 -73c-50 -44 -86 -84 -109 -119c-45 -69 -67 -130 -67 -182v-13c5 -68 35 -127 93 -176 s125 -73 203 -73c25 0 50 3 75 9c-19 111 -36 221 -54 331z"/></g><g id="E086-x1ua6dtr"><path transform="scale(1,-1)" d="M284 -91c0 37 -28 92 -67 92c-35 0 -65 -54 -65 -111c0 -52 22 -104 68 -104c47 0 64 68 64 123zM230 214c-36 0 -90 -33 -90 -184l2 -36c40 24 81 36 120 36c80 0 140 -48 140 -121c0 -99 -99 -159 -182 -159c-160 0 -200 173 -200 244c0 21 2 43 7 71l10 35 c26 85 73 115 98 126c41 19 74 24 103 24c93 0 142 -63 142 -105c0 -58 -52 -72 -73 -72c-33 0 -59 24 -65 35c-3 5 -6 14 -7 25l11 30c6 15 9 27 9 35c0 11 -9 16 -25 16z"/></g><g id="E088-x1ua6dtr"><path transform="scale(1,-1)" d="M195 -214c76 0 88 58 90 68c0 34 -35 60 -57 73l-52 29c-21 10 -32 17 -34 20c-39 -33 -58 -54 -62 -92c5 -23 23 -98 115 -98zM301 135c0 61 -72 76 -113 76c-40 0 -77 -17 -77 -51c3 -21 15 -38 26 -50c17 -15 33 -26 48 -34l65 -28c34 27 51 56 51 87zM176 -250 c-57 0 -166 26 -166 132c0 47 30 86 89 116c-33 15 -79 60 -79 119c0 79 85 132 178 132h18c5 0 21 1 28 -1c25 0 126 -30 126 -110c0 -37 -23 -76 -69 -116c43 -25 83 -71 83 -119c0 -101 -118 -153 -208 -153z"/></g><g id="E0A4-x1ua6dtr"><path transform="scale(1,-1)" d="M0 -39c0 68 73 172 200 172c66 0 114 -37 114 -95c0 -84 -106 -171 -218 -171c-64 0 -96 30 -96 94z"/></g><g id="E262-x1ua6dtr"><path transform="scale(1,-1)" d="M136 186v169h17v-164l44 14v-91l-44 -14v-165l44 12v-91l-44 -13v-155h-17v150l-76 -22v-155h-17v149l-43 -13v90l43 14v167l-43 -14v92l43 13v169h17v-163zM60 73v-167l76 22v168z"/></g></defs><style type="text/css">#x1ua6dtr g.page-margin {font-family:Times,serif;}#x1ua6dtr g.ending, #x1ua6dtr g.fing, #x1ua6dtr g.reh, #x1ua6dtr g.tempo {font-weight:bold;}#x1ua6dtr g.dir, #x1ua6dtr g.dynam, #x1ua6dtr g.mNum {font-style:italic;}#x1ua6dtr g.label {font-weight:normal;}#x1ua6dtr path {stroke:currentColor}</style><svg class="definition-scale" color="black" viewBox="0 0 14000 2100"><g class="page-margin" transform="translate(0, 150)"><g data-id="s1bmg1fm" data-class="mdiv" class="mdiv pageMilestone"/><g data-id="tyvw8iz" data-class="score" class="score pageMilestone"/><g data-id="u68hf1q" data-class="system" class="system"><g data-id="v1llrtb7" data-class="section" class="section systemMilestone"/><g data-id="yfsnsyt" data-class="measure" class="measure"><g data-id="hjcsz26" data-class="staff" class="staff"><path d="M0 540 L5175 540" stroke-width="13"/><path d="M0 720 L5175 720" stroke-width="13"/><path d="M0 900 L5175 900" stroke-width="13"/><path d="M0 1080 L5175 1080" stroke-width="13"/><path d="M0 1260 L5175 1260" stroke-width="13"/><g data-id="c1d0mnik" data-class="clef" class="clef"><use href="#E050-x1ua6dtr" transform="translate(90, 1080) scale(0.72, 0.72)"/></g><g data-id="d8os0vs" data-class="keySig" class="keySig"/><g data-id="e1brnmt3" data-class="meterSig" class="meterSig"><use href="#E086-x1ua6dtr" transform="translate(721, 720) scale(0.72, 0.72)"/><use href="#E088-x1ua6dtr" transform="translate(728, 1080) scale(0.72, 0.72)"/></g><g data-id="i1hy9kvt" data-class="layer" class="layer"><g data-id="kzm12s1" data-class="beam" class="beam"><polygon stroke-opacity="1" fill-opacity="1" points="1304,1575 2907,1575 2907,1485 1304,1485"/><polygon stroke-opacity="1" fill-opacity="1" points="1823,1440 2182,1440 2182,1350 1823,1350"/><polygon stroke-opacity="1" fill-opacity="1" points="2182,1440 2540,1440 2540,1350 2182,1350"/><polygon stroke-opacity="1" fill-opacity="1" points="2540,1440 2907,1440 2907,1350 2540,1350"/><g data-id="i13x7grv" data-class="note" class="note"><g data-class="notehead" class="notehead"><use href="#E0A4-x1ua6dtr" transform="translate(1304, 720) scale(0.72, 0.72)"/></g><g data-id="zkoyqls" data-class="stem" class="stem"><path d="M1313 748 L1313 1557" stroke-width="18"/></g></g><g data-id="j1o84sg6" data-class="note" class="note"><g data-class="notehead" class="notehead"><use href="#E0A4-x1ua6dtr" transform="translate(1814, 900) scale(0.72, 0.72)"/></g><g data-id="a1vs17z9" data-class="stem" class="stem"><path d="M1823 928 L1823 1557" stroke-width="18"/></g></g><g data-id="k1mh8yjh" data-class="note" class="note"><g data-class="notehead" class="notehead"><use href="#E0A4-x1ua6dtr" transform="translate(2173, 990) scale(0.72, 0.72)"/></g><g data-id="b1oflnod" data-class="stem" class="stem"><path d="M2182 1018 L2182 1557" stroke-width="18"/></g></g><g data-id="lgxqhp9" data-class="note" class="note"><g data-class="notehead" class="notehead"><use href="#E0A4-x1ua6dtr" transform="translate(2531, 900) scale(0.72, 0.72)"/></g><g data-id="cc5oxdq" data-class="stem" class="stem"><path d="M2540 928 L2540 1557" stroke-width="18"/></g></g><g data-id="m1mgo6o4" data-class="note" class="note"><g data-class="notehead" class="notehead"><use href="#E0A4-x1ua6dtr" transform="translate(2889, 810) scale(0.72, 0.72)"/></g><g data-id="d1427s6c" data-class="stem" class="stem"><path d="M2898 838 L2898 1557" stroke-width="18"/></g></g></g><g data-id="l1e0un7w" data-class="beam" class="beam"><polygon stroke-opacity="1" fill-opacity="1" points="3247,1620 4670,1620 4670,1530 3247,1530"/><polygon stroke-opacity="1" fill-opacity="1" points="3247,1485 3614,1485 3614,1395 3247,1395"/><g data-id="n5ya4u9" data-class="note" class="note"><g data-class="notehead" class="notehead"><use href="#E0A4-x1ua6dtr" transform="translate(3247, 720) scale(0.72, 0.72)"/></g><g data-id="e92xyu2" data-class="stem" class="stem"><path d="M3256 748 L3256 1602" stroke-width="18"/></g></g><g data-id="o1x1lp82" data-class="note" class="note"><g data-class="notehead" class="notehead"><use href="#E0A4-x1ua6dtr" transform="translate(3605, 810) scale(0.72, 0.72)"/></g><g data-id="fefq36u" data-class="stem" class="stem"><path d="M3614 838 L3614 1602" stroke-width="18"/></g></g><g data-id="p1k9jdeb" data-class="note" class="note"><g data-class="notehead" class="notehead"><use href="#E0A4-x1ua6dtr" transform="translate(4142, 1080) scale(0.72, 0.72)"/></g><g data-id="g1iurqnh" data-class="stem" class="stem"><path d="M4151 1108 L4151 1602" stroke-width="18"/></g><g data-id="jvqf9fk" data-class="accid" class="accid"><use href="#E262-x1ua6dtr" transform="translate(3956, 1080) scale(0.72, 0.72)"/></g></g><g data-id="q1qkfpzn" data-class="note" class="note"><g data-class="notehead" class="notehead"><use href="#E0A4-x1ua6dtr" transform="translate(4652, 990) scale(0.72, 0.72)"/></g><g data-id="hy1g84m" data-class="stem" class="stem"><path d="M4661 1018 L4661 1602" stroke-width="18"/></g></g></g></g></g><g data-id="ggrx8kh" data-class="barLine" class="barLine"><path d="M5162 540 L5162 1260" stroke-width="27"/></g></g><g data-id="h12kye2b" data-class="measure" class="measure"><g data-id="j13j033b" data-class="staff" class="staff"><path d="M5175 540 L8437 540" stroke-width="13"/><path d="M5175 720 L8437 720" stroke-width="13"/><path d="M5175 900 L8437 900" stroke-width="13"/><path d="M5175 1080 L8437 1080" stroke-width="13"/><path d="M5175 1260 L8437 1260" stroke-width="13"/><g data-class="ledgerLines" class="ledgerLines above"><g data-class="lineDash" class="lineDash" data-related="#v1ijzcwl"><path d="M7643 360 L7965 360" stroke-width="22"/></g></g><g data-id="k8zdh57" data-class="layer" class="layer"><g data-id="m88pqax" data-class="beam" class="beam"><polygon stroke-opacity="1" fill-opacity="1" points="5379,1485 6417,1305 6417,1215 5379,1395"/><g data-id="rzowdl8" data-class="note" class="note"><g data-class="notehead" class="notehead"><use href="#E0A4-x1ua6dtr" transform="translate(5379, 900) scale(0.72, 0.72)"/></g><g data-id="i1ixtyhy" data-class="stem" class="stem"><path d="M5388 928 L5388 1467" stroke-width="18"/></g></g><g data-id="s1k7g07v" data-class="note" class="note"><g data-class="notehead" class="notehead"><use href="#E0A4-x1ua6dtr" transform="translate(5889, 810) scale(0.72, 0.72)"/></g><g data-id="jzob349" data-class="stem" class="stem"><path d="M5898 838 L5898 1377" stroke-width="18"/></g></g><g data-id="t2h7c6v" data-class="note" class="note"><g data-class="notehead" class="notehead"><use href="#E0A4-x1ua6dtr" transform="translate(6399, 720) scale(0.72, 0.72)"/></g><g data-id="k6ehu37" data-class="stem" class="stem"><path d="M6408 748 L6408 1287" stroke-width="18"/></g></g></g><g data-id="u6tstj1" data-class="note" class="note"><g data-class="notehead" class="notehead"><use href="#E0A4-x1ua6dtr" transform="translate(6909, 630) scale(0.72, 0.72)"/></g><g data-id="l1hl253u" data-class="stem" class="stem"><path d="M6918 658 L6918 1260" stroke-width="18"/></g></g><g data-id="n19j6q2i" data-class="beam" class="beam"><polygon stroke-opacity="1" fill-opacity="1" points="7691,1125 8068,1170 8068,1080 7691,1035"/><polygon stroke-opacity="1" fill-opacity="1" points="7691,990 8068,1035 8068,945 7691,900"/><g data-id="v1ijzcwl" data-class="note" class="note"><g data-class="notehead" class="notehead"><use href="#E0A4-x1ua6dtr" transform="translate(7691, 360) scale(0.72, 0.72)"/></g><g data-id="m9rdsb3" data-class="stem" class="stem"><path d="M7700 388 L7700 1107" stroke-width="18"/></g></g><g data-id="w1kq5ist" data-class="note" class="note"><g data-class="notehead" class="notehead"><use href="#E0A4-x1ua6dtr" transform="translate(8050, 540) scale(0.72, 0.72)"/></g><g data-id="nysvy3a" data-class="stem" class="stem"><path d="M8059 568 L8059 1152" stroke-width="18"/></g></g></g></g></g><g data-id="pcmrrsa" data-class="barLine" class="barLine"><path d="M8424 540 L8424 1260" stroke-width="27"/></g></g><g data-id="q198mzbq" data-class="measure" class="measure"><g data-id="l98b8nd" data-class="staff" class="staff"><path d="M8437 540 L11667 540" stroke-width="13"/><path d="M8437 720 L11667 720" stroke-width="13"/><path d="M8437 900 L11667 900" stroke-width="13"/><path d="M8437 1080 L11667 1080" stroke-width="13"/><path d="M8437 1260 L11667 1260" stroke-width="13"/><g data-class="ledgerLines" class="ledgerLines above"><g data-class="lineDash" class="lineDash" data-related="#yr4w8qx"><path d="M9375 360 L9697 360" stroke-width="22"/></g><g data-class="lineDash" class="lineDash" data-related="#b1fpg596"><path d="M10874 360 L11196 360" stroke-width="22"/></g></g><g data-id="m6pnxwr" data-class="layer" class="layer"><g data-id="xnnwyl7" data-class="note" class="note"><g data-class="notehead" class="notehead"><use href="#E0A4-x1ua6dtr" transform="translate(8641, 630) scale(0.72, 0.72)"/></g><g data-id="ovxzcif" data-class="stem" class="stem"><path d="M8650 658 L8650 1260" stroke-width="18"/></g></g><g data-id="owdpz9y" data-class="beam" class="beam"><polygon stroke-opacity="1" fill-opacity="1" points="9423,1125 9800,1170 9800,1080 9423,1035"/><polygon stroke-opacity="1" fill-opacity="1" points="9423,990 9800,1035 9800,945 9423,900"/><g data-id="yr4w8qx" data-class="note" class="note"><g data-class="notehead" class="notehead"><use href="#E0A4-x1ua6dtr" transform="translate(9423, 360) scale(0.72, 0.72)"/></g><g data-id="p6m72gn" data-class="stem" class="stem"><path d="M9432 388 L9432 1107" stroke-width="18"/></g></g><g data-id="zj1h6pp" data-class="note" class="note"><g data-class="notehead" class="notehead"><use href="#E0A4-x1ua6dtr" transform="translate(9782, 540) scale(0.72, 0.72)"/></g><g data-id="q1h8cutm" data-class="stem" class="stem"><path d="M9791 568 L9791 1152" stroke-width="18"/></g></g></g><g data-id="a1qaokf3" data-class="note" class="note"><g data-class="notehead" class="notehead"><use href="#E0A4-x1ua6dtr" transform="translate(10140, 630) scale(0.72, 0.72)"/></g><g data-id="ri643h9" data-class="stem" class="stem"><path d="M10149 658 L10149 1260" stroke-width="18"/></g></g><g data-id="pm4rsiz" data-class="beam" class="beam"><polygon stroke-opacity="1" fill-opacity="1" points="10922,1125 11298,1170 11298,1080 10922,1035"/><polygon stroke-opacity="1" fill-opacity="1" points="10922,990 11298,1035 11298,945 10922,900"/><g data-id="b1fpg596" data-class="note" class="note"><g data-class="notehead" class="notehead"><use href="#E0A4-x1ua6dtr" transform="translate(10922, 360) scale(0.72, 0.72)"/></g><g data-id="s16h50fz" data-class="stem" class="stem"><path d="M10931 388 L10931 1107" stroke-width="18"/></g></g><g data-id="cot0xu0" data-class="note" class="note"><g data-class="notehead" class="notehead"><use href="#E0A4-x1ua6dtr" transform="translate(11280, 540) scale(0.72, 0.72)"/></g><g data-id="te21nsx" data-class="stem" class="stem"><path d="M11289 568 L11289 1152" stroke-width="18"/></g></g></g></g></g><g data-id="y13hz0jw" data-class="barLine" class="barLine"><path d="M11654 540 L11654 1260" stroke-width="27"/></g></g><g data-id="z1lvsxif" data-class="measure" class="measure"><g data-id="njpoffk" data-class="staff" class="staff"><path d="M11667 540 L14002 540" stroke-width="13"/><path d="M11667 720 L14002 720" stroke-width="13"/><path d="M11667 900 L14002 900" stroke-width="13"/><path d="M11667 1080 L14002 1080" stroke-width="13"/><path d="M11667 1260 L14002 1260" stroke-width="13"/><g data-id="otoft65" data-class="layer" class="layer"><g data-id="q88mgbe" data-class="beam" class="beam"><polygon stroke-opacity="1" fill-opacity="1" points="11871,1440 13680,1485 13680,1395 11871,1350"/><polygon stroke-opacity="1" fill-opacity="1" points="11871,1305 12239,1314 12239,1224 11871,1215"/><polygon stroke-opacity="1" fill-opacity="1" points="12239,1314 12597,1323 12597,1233 12239,1224"/><polygon stroke-opacity="1" fill-opacity="1" points="12597,1323 12955,1332 12955,1242 12597,1233"/><polygon stroke-opacity="1" fill-opacity="1" points="12955,1332 13313,1341 13313,1251 12955,1242"/><polygon stroke-opacity="1" fill-opacity="1" points="13313,1341 13680,1350 13680,1260 13313,1251"/><g data-id="d1sw7hoc" data-class="note" class="note"><g data-class="notehead" class="notehead"><use href="#E0A4-x1ua6dtr" transform="translate(11871, 630) scale(0.72, 0.72)"/></g><g data-id="u1q685j0" data-class="stem" class="stem"><path d="M11880 658 L11880 1422" stroke-width="18"/></g></g><g data-id="erq5w7p" data-class="note" class="note"><g data-class="notehead" class="notehead"><use href="#E0A4-x1ua6dtr" transform="translate(12230, 720) scale(0.72, 0.72)"/></g><g data-id="v5kiib9" data-class="stem" class="stem"><path d="M12239 748 L12239 1431" stroke-width="18"/></g></g><g data-id="fn4or6d" data-class="note" class="note"><g data-class="notehead" class="notehead"><use href="#E0A4-x1ua6dtr" transform="translate(12588, 540) scale(0.72, 0.72)"/></g><g data-id="w1m9rgrn" data-class="stem" class="stem"><path d="M12597 568 L12597 1440" stroke-width="18"/></g></g><g data-id="g1vztzk9" data-class="note" class="note"><g data-class="notehead" class="notehead"><use href="#E0A4-x1ua6dtr" transform="translate(12946, 630) scale(0.72, 0.72)"/></g><g data-id="xvjyfe" data-class="stem" class="stem"><path d="M12955 658 L12955 1449" stroke-width="18"/></g></g><g data-id="h11gdvm5" data-class="note" class="note"><g data-class="notehead" class="notehead"><use href="#E0A4-x1ua6dtr" transform="translate(13304, 720) scale(0.72, 0.72)"/></g><g data-id="yo3ph3v" data-class="stem" class="stem"><path d="M13313 748 L13313 1458" stroke-width="18"/></g></g><g data-id="i1btxl5g" data-class="note" class="note"><g data-class="notehead" class="notehead"><use href="#E0A4-x1ua6dtr" transform="translate(13662, 810) scale(0.72, 0.72)"/></g><g data-id="z16an887" data-class="stem" class="stem"><path d="M13671 838 L13671 1467" stroke-width="18"/></g></g></g></g></g><g data-id="h1xgdet" data-class="barLine" class="barLine"/></g><g data-id="wpijwix" data-class="systemMilestoneEnd" class="systemMilestoneEnd v1llrtb7"/></g><g data-id="x9k9m2l" data-class="pageMilestoneEnd" class="pageMilestoneEnd tyvw8iz"/><g data-id="yxhxhwn" data-class="pageMilestoneEnd" class="pageMilestoneEnd s1bmg1fm"/></g></svg></svg>