<svg viewBox="0 0 560 84" version="1.1" xmlns="http://www.w3.org/2000/svg" xmlns:xlink="http://www.w3.org/1999/xlink" overflow="visible" id="k6yduli"><desc>Engraved by Verovio 5.6.0-85e7620</desc><defs><g id="E050-k6yduli"><path transform="scale(1,-1)" d="M441 -245c-23 -4 -48 -6 -76 -6c-59 0 -102 7 -130 20c-88 42 -150 93 -187 154c-26 44 -43 103 -48 176c0 6 -1 13 -1 19c0 54 15 111 45 170c29 57 65 106 110 148s96 85 153 127c-3 16 -8 46 -13 92c-4 43 -5 73 -5 89c0 117 16 172 69 257c34 54 64 82 89 82 c21 0 43 -30 69 -92s39 -115 41 -159v-15c0 -109 -21 -162 -67 -241c-13 -20 -63 -90 -98 -118c-13 -9 -25 -19 -37 -29l31 -181c8 1 18 2 28 2c58 0 102 -12 133 -35c59 -43 92 -104 98 -184c1 -7 1 -15 1 -22c0 -123 -87 -209 -181 -248c8 -57 17 -110 25 -162 c5 -31 6 -58 6 -80c0 -30 -5 -53 -14 -70c-35 -64 -88 -99 -158 -103c-5 0 -11 -1 -16 -1c-37 0 -72 10 -108 27c-50 24 -77 59 -80 105v11c0 29 7 55 20 76c18 28 45 42 79 44h6c49 0 93 -42 97 -87v-9c0 -51 -34 -86 -105 -106c17 -24 51 -36 102 -36c62 0 116 43 140 85 c9 16 13 41 13 74c0 20 -1 42 -5 67c-8 53 -18 106 -26 159zM461 939c-95 0 -135 -175 -135 -286c0 -24 2 -48 5 -71c50 39 92 82 127 128c40 53 60 100 60 140v8c-4 53 -22 81 -55 81h-2zM406 119l54 -326c73 25 110 78 110 161c0 7 0 15 -1 23c-7 95 -57 142 -151 142h-12 zM382 117c-72 -2 -128 -47 -128 -120v-7c2 -46 43 -99 75 -115c-3 -2 -7 -5 -10 -10c-70 33 -116 88 -123 172v11c0 68 44 126 88 159c23 17 49 29 78 36l-29 170c-21 -13 -52 -37 -92 -73c-50 -44 -86 -84 -109 -119c-45 -69 -67 -130 -67 -182v-13c5 -68 35 -127 93 -176 s125 -73 203 -73c25 0 50 3 75 9c-19 111 -36 221 -54 331z"/></g><g id="E262-k6yduli"><path transform="scale(1,-1)" d="M136 186v169h17v-164l44 14v-91l-44 -14v-165l44 12v-91l-44 -13v-155h-17v150l-76 -22v-155h-17v149l-43 -13v90l43 14v167l-43 -14v92l43 13v169h17v-163zM60 73v-167l76 22v168z"/></g><g id="E081-k6yduli"><path transform="scale(1,-1)" d="M68 -250v36c23 0 40 6 49 18c8 14 12 33 12 57v250l-82 -129l-27 13l107 255h128v-394c0 -24 5 -42 14 -53s25 -17 47 -17v-36h-248z"/></g><g id="E082-k6yduli"><path transform="scale(1,-1)" d="M124 -185c-18 0 -55 -14 -65 -65h-36l-3 30c0 25 6 45 18 63c11 19 22 30 39 43l121 82l37 29c15 11 27 29 38 54c12 24 18 47 18 70c0 40 -19 88 -94 88c-25 0 -32 0 -50 -8c-14 -5 -23 -12 -26 -22c3 -9 7 -15 10 -18l24 -17c12 -7 17 -11 27 -21c5 -7 7 -16 7 -27 c0 -12 0 -57 -79 -74c-30 0 -76 26 -76 94c0 66 81 135 197 135c72 0 181 -32 181 -150c0 -53 -32 -95 -113 -133l-91 -41c-26 -11 -45 -23 -57 -37l49 7c84 0 115 -41 148 -41c20 0 33 20 39 61h35c0 -152 -68 -168 -114 -168c-17 0 -65 0 -79 7h10l-28 17 c-49 37 -69 40 -87 42z"/></g><g id="E088-k6yduli"><path transform="scale(1,-1)" d="M195 -214c76 0 88 58 90 68c0 34 -35 60 -57 73l-52 29c-21 10 -32 17 -34 20c-39 -33 -58 -54 -62 -92c5 -23 23 -98 115 -98zM301 135c0 61 -72 76 -113 76c-40 0 -77 -17 -77 -51c3 -21 15 -38 26 -50c17 -15 33 -26 48 -34l65 -28c34 27 51 56 51 87zM176 -250 c-57 0 -166 26 -166 132c0 47 30 86 89 116c-33 15 -79 60 -79 119c0 79 85 132 178 132h18c5 0 21 1 28 -1c25 0 126 -30 126 -110c0 -37 -23 -76 -69 -116c43 -25 83 -71 83 -119c0 -101 -118 -153 -208 -153z"/></g><g id="E4E6-k6yduli"><path transform="scale(1,-1)" d="M0 123c7 34 33 56 69 60c29 -3 43 -9 53 -29c4 -8 7 -15 10 -22c0 -21 -1 -25 -11 -35c-5 -8 -18 -14 -40 -20l12 -3l15 -1c44 0 97 26 122 56c10 11 18 26 24 42c7 1 15 2 22 3l-140 -424h-36l111 330c-10 -6 -27 -12 -53 -16l-52 -8h-10l-20 1c-1 0 -8 3 -21 6 c-37 9 -55 28 -55 60z"/></g><g id="E0A4-k6yduli"><path transform="scale(1,-1)" d="M0 -39c0 68 73 172 200 172c66 0 114 -37 114 -95c0 -84 -106 -171 -218 -171c-64 0 -96 30 -96 94z"/></g><g id="E0A3-k6yduli"><path transform="scale(1,-1)" d="M278 64c0 22 -17 39 -43 39c-12 0 -26 -3 -41 -10c-85 -43 -165 -94 -165 -156c5 -25 15 -32 49 -32c67 11 200 95 200 159zM0 -36c0 68 73 174 200 174c66 0 114 -39 114 -97c0 -84 -106 -173 -218 -173c-64 0 -96 32 -96 96z"/></g></defs><style type="text/css">#k6yduli g.page-margin {font-family:Times,serif;}#k6yduli g.ending, #k6yduli g.fing, #k6yduli g.reh, #k6yduli g.tempo {font-weight:bold;}#k6yduli g.dir, #k6yduli g.dynam, #k6yduli g.mNum {font-style:italic;}#k6yduli g.label {font-weight:normal;}#k6yduli path {stroke:currentColor}</style><svg class="definition-scale" color="black" viewBox="0 0 14000 2100"><g class="page-margin" transform="translate(0, 150)"><g data-id="st9qkl9" data-class="mdiv" class="mdiv pageMilestone"/><g data-id="t1ayfzem" data-class="score" class="score pageMilestone"/><g data-id="ud5fhon" data-class="system" class="system"><g data-id="v1q8n8bw" data-class="section" class="section systemMilestone"/><g data-id="liq1p41" data-class="measure" class="measure"><g data-id="h1ndxz44" data-class="staff" class="staff"><path d="M0 540 L5198 540" stroke-width="13"/><path d="M0 720 L5198 720" stroke-width="13"/><path d="M0 900 L5198 900" stroke-width="13"/><path d="M0 1080 L5198 1080" stroke-width="13"/><path d="M0 1260 L5198 1260" stroke-width="13"/><g data-id="q9wxv3e" data-class="clef" class="clef"><use href="#E050-k6yduli" transform="translate(90, 1080) scale(0.72, 0.72)"/></g><g data-id="rye9u12" data-class="keySig" class="keySig"><g data-id="sc1tsds" data-class="keyAccid" class="keyAccid"><use href="#E262-k6yduli" transform="translate(735, 540) scale(0.72, 0.72)"/></g></g><g data-id="tgr0sy5" data-class="meterSig" class="meterSig"><use href="#E081-k6yduli" transform="translate(1042, 720) scale(0.72, 0.72)"/><use href="#E082-k6yduli" transform="translate(1283, 720) scale(0.72, 0.72)"/><use href="#E088-k6yduli" transform="translate(1177, 1080) scale(0.72, 0.72)"/></g><g data-class="ledgerLines" class="ledgerLines below"><g data-class="lineDash" class="lineDash" data-related="#fmylk2x"><path d="M2373 1440 L2695 1440" stroke-width="22"/></g></g><g data-id="i1fqjr8y" data-class="layer" class="layer"><g data-id="e1vxut0w" data-class="rest" class="rest"><use href="#E4E6-k6yduli" transform="translate(1868, 900) scale(0.72, 0.72)"/></g><g data-id="g10ltk46" data-class="beam" class="beam"><polygon stroke-opacity="1" fill-opacity="1" points="2629,855 3200,675 3200,765 2629,945"/><g data-id="fmylk2x" data-class="note" class="note"><g data-class="notehead" class="notehead"><use href="#E0A4-k6yduli" transform="translate(2421, 1530) scale(0.72, 0.72)"/></g><g data-id="cb5rk2m" data-class="stem" class="stem"><path d="M2638 1502 L2638 873" stroke-width="18"/></g></g><g data-id="grykh1o" data-class="note" class="note"><g data-class="notehead" class="notehead"><use href="#E0A4-k6yduli" transform="translate(2974, 1260) scale(0.72, 0.72)"/></g><g data-id="dfyv1p1" data-class="stem" class="stem"><path d="M3191 1232 L3191 693" stroke-width="18"/></g></g></g><g data-id="hgqubq8" data-class="beam" class="beam"><polygon stroke-opacity="1" fill-opacity="1" points="3734,450 4858,630 4858,720 3734,540"/><g data-id="h1erex3i" data-class="note" class="note"><g data-class="notehead" class="notehead"><use href="#E0A4-k6yduli" transform="translate(3526, 1080) scale(0.72, 0.72)"/></g><g data-id="e19szonm" data-class="stem" class="stem"><path d="M3743 1052 L3743 468" stroke-width="18"/></g></g><g data-id="i134ze3p" data-class="note" class="note"><g data-class="notehead" class="notehead"><use href="#E0A4-k6yduli" transform="translate(4079, 1170) scale(0.72, 0.72)"/></g><g data-id="f123akpu" data-class="stem" class="stem"><path d="M4296 1142 L4296 558" stroke-width="18"/></g><g data-id="kvse6oj" data-class="accid" class="accid"/></g><g data-id="j1hfdgna" data-class="note" class="note"><g data-class="notehead" class="notehead"><use href="#E0A4-k6yduli" transform="translate(4632, 1260) scale(0.72, 0.72)"/></g><g data-id="g1wd60jp" data-class="stem" class="stem"><path d="M4849 1232 L4849 648" stroke-width="18"/></g></g></g></g></g><g data-id="t1lwfhms" data-class="barLine" class="barLine"><path d="M5185 540 L5185 1260" stroke-width="27"/></g></g><g data-id="ulx42w6" data-class="measure" class="measure"><g data-id="j1jwlg8g" data-class="staff" class="staff"><path d="M5198 540 L8697 540" stroke-width="13"/><path d="M5198 720 L8697 720" stroke-width="13"/><path d="M5198 900 L8697 900" stroke-width="13"/><path d="M5198 1080 L8697 1080" stroke-width="13"/><path d="M5198 1260 L8697 1260" stroke-width="13"/><g data-id="k168fxvw" data-class="layer" class="layer"><g data-id="kp0kpqk" data-class="note" class="note"><g data-class="notehead" class="notehead"><use href="#E0A3-k6yduli" transform="translate(5390, 900) scale(0.72, 0.72)"/></g><g data-id="i1n8v5kq" data-class="dots" class="dots"><ellipse cx="5706" cy="810" rx="36" ry="36" fill-opacity="1" stroke-opacity="1"/></g><g data-id="h1vmyre8" data-class="stem" class="stem"><path d="M5399 925 L5399 1500" stroke-width="18"/></g></g><g data-id="l13qfcc9" data-class="note" class="note"><g data-class="notehead" class="notehead"><use href="#E0A3-k6yduli" transform="translate(7037, 810) scale(0.72, 0.72)"/></g><g data-id="k9r6tbz" data-class="dots" class="dots"><ellipse cx="7353" cy="810" rx="36" ry="36" fill-opacity="1" stroke-opacity="1"/></g><g data-id="j1xnvray" data-class="stem" class="stem"><path d="M7046 835 L7046 1440" stroke-width="18"/></g></g></g></g><g data-id="c63orq9" data-class="barLine" class="barLine"><path d="M8684 540 L8684 1260" stroke-width="27"/></g></g><g data-id="d1ei8e00" data-class="measure" class="measure"><g data-id="ljnahqs" data-class="staff" class="staff"><path d="M8697 540 L14002 540" stroke-width="13"/><path d="M8697 720 L14002 720" stroke-width="13"/><path d="M8697 900 L14002 900" stroke-width="13"/><path d="M8697 1080 L14002 1080" stroke-width="13"/><path d="M8697 1260 L14002 1260" stroke-width="13"/><g data-id="mtbttxj" data-class="layer" class="layer"><g data-id="m1fi4qvu" data-class="note" class="note"><g data-class="notehead" class="notehead"><use href="#E0A4-k6yduli" transform="translate(9087, 720) scale(0.72, 0.72)"/></g><g data-id="m1d74avz" data-class="dots" class="dots"><ellipse cx="9403" cy="630" rx="36" ry="36" fill-opacity="1" stroke-opacity="1"/></g><g data-id="l1a6mlxo" data-class="stem" class="stem"><path d="M9096 748 L9096 1350" stroke-width="18"/></g><g data-id="d1j8n6p2" data-class="accid" class="accid"><use href="#E262-k6yduli" transform="translate(8901, 720) scale(0.72, 0.72)"/></g></g><g data-id="i1t7v1ww" data-class="beam" class="beam"><polygon stroke-opacity="1" fill-opacity="1" points="10168,1350 11292,1170 11292,1080 10168,1260"/><g data-id="ne3qhx4" data-class="note" class="note"><g data-class="notehead" class="notehead"><use href="#E0A4-k6yduli" transform="translate(10168, 720) scale(0.72, 0.72)"/></g><g data-id="n1kynctp" data-class="stem" class="stem"><path d="M10177 748 L10177 1332" stroke-width="18"/></g><g data-id="la0g356" data-class="accid" class="accid"/></g><g data-id="o15a7rf4" data-class="note" class="note"><g data-class="notehead" class="notehead"><use href="#E0A4-k6yduli" transform="translate(10721, 630) scale(0.72, 0.72)"/></g><g data-id="o13kx6f2" data-class="stem" class="stem"><path d="M10730 658 L10730 1242" stroke-width="18"/></g></g><g data-id="p2kpn3n" data-class="note" class="note"><g data-class="notehead" class="notehead"><use href="#E0A4-k6yduli" transform="translate(11274, 540) scale(0.72, 0.72)"/></g><g data-id="p11922nt" data-class="stem" class="stem"><path d="M11283 568 L11283 1152" stroke-width="18"/></g><g data-id="m1pba6bm" data-class="accid" class="accid"/></g></g><g data-id="q165nh23" data-class="note" class="note"><g data-class="notehead" class="notehead"><use href="#E0A4-k6yduli" transform="translate(11826, 540) scale(0.72, 0.72)"/></g><g data-id="rvfr3ii" data-class="dots" class="dots"><ellipse cx="12142" cy="450" rx="36" ry="36" fill-opacity="1" stroke-opacity="1"/></g><g data-id="qh0g126" data-class="stem" class="stem"><path d="M11835 568 L11835 1170" stroke-width="18"/></g><g data-id="n21u50a" data-class="accid" class="accid"/></g><g data-id="r1t7nmqf" data-class="note" class="note"><g data-class="notehead" class="notehead"><use href="#E0A4-k6yduli" transform="translate(12908, 900) scale(0.72, 0.72)"/></g><g data-id="tkpb04f" data-class="dots" class="dots"><ellipse cx="13224" cy="810" rx="36" ry="36" fill-opacity="1" stroke-opacity="1"/></g><g data-id="s1kcuujh" data-class="stem" class="stem"><path d="M12917 928 L12917 1500" stroke-width="18"/></g></g></g></g><g data-id="j1t1lqy4" data-class="tie" class="tie"><path d="M9358,518 C9541,365 9938,365 10123,518 C9923,412 9556,412 9358,518" stroke-linecap="round" stroke-linejoin="round" stroke-width="9"/></g><g data-id="l1t6fet6" data-class="barLine" class="barLine"><path d="M13989 540 L13989 1260" stroke-width="27"/></g></g></g></g></svg></svg>