<svg viewBox="0 0 560 84" version="1.1" xmlns="http://www.w3.org/2000/svg" xmlns:xlink="http://www.w3.org/1999/xlink" overflow="visible" id="h1dmnccc"><desc>Engraved by Verovio 5.6.0-85e7620</desc><defs><g id="E062-h1dmnccc"><path transform="scale(1,-1)" d="M582 -120c0 32 26 58 58 58s58 -26 58 -58s-26 -58 -58 -58s-58 26 -58 58zM582 120c0 32 26 58 58 58s58 -26 58 -58s-26 -58 -58 -58s-58 26 -58 58zM158 96c51 0 73 -14 88 -49l16 -39c0 -17 -2 -30 -7 -40c-3 -11 -10 -21 -19 -31c-17 -18 -49 -43 -84 -43 c-55 0 -77 13 -112 44c-24 21 -35 55 -35 100c0 46 14 81 32 112c30 52 71 79 137 93l36 6l26 2c154 0 235 -68 274 -182c11 -32 18 -68 18 -107c0 -103 -26 -182 -68 -250c-89 -145 -234 -230 -412 -288l-30 -5c-9 0 -14 3 -14 8c3 10 5 11 10 16c35 15 70 30 96 44l78 43 c96 57 162 136 197 258c9 33 17 60 22 100c3 22 5 35 6 39c-7 69 -16 115 -23 140s-4 22 -16 40c-8 12 -19 23 -31 34c-24 21 -62 44 -118 44c-48 0 -84 -8 -113 -28c-28 -19 -42 -44 -42 -73v-16c2 -5 3 -9 4 -11c24 22 52 39 84 39z"/></g><g id="E262-h1dmnccc"><path transform="scale(1,-1)" d="M136 186v169h17v-164l44 14v-91l-44 -14v-165l44 12v-91l-44 -13v-155h-17v150l-76 -22v-155h-17v149l-43 -13v90l43 14v167l-43 -14v92l43 13v169h17v-163zM60 73v-167l76 22v168z"/></g><g id="E083-h1dmnccc"><path transform="scale(1,-1)" d="M208 250c97 0 177 -52 177 -116c0 -69 -40 -111 -118 -125c56 -5 125 -44 125 -116c0 -31 -10 -57 -31 -78c-19 -21 -45 -38 -78 -49l-50 -11c-15 -3 -36 -7 -55 -7c-50 0 -86 16 -113 38c-16 10 -23 18 -34 34c-7 13 -11 25 -11 38c0 43 27 83 68 83l3 -2 c61 0 75 -42 75 -70c0 -19 -24 -42 -26 -57c7 -17 20 -25 37 -25c44 0 94 29 94 78c0 75 -34 125 -138 125v36c84 0 131 22 131 98c0 54 -37 88 -87 88c-26 0 -43 -7 -51 -22c15 -22 44 -16 44 -70c0 -37 -37 -62 -71 -62c-22 0 -69 15 -69 76c0 79 101 116 178 116z"/></g><g id="E084-h1dmnccc"><path transform="scale(1,-1)" d="M20 -78c84 97 114 180 134 329h170c-13 -32 -82 -132 -99 -151l-84 -97c-33 -36 -59 -63 -80 -81h162v102l127 123v-225h57v-39h-57v-34c0 -43 19 -65 57 -65v-34h-244v36c48 0 60 26 60 70v27h-203v39z"/></g><g id="E0A4-h1dmnccc"><path transform="scale(1,-1)" d="M0 -39c0 68 73 172 200 172c66 0 114 -37 114 -95c0 -84 -106 -171 -218 -171c-64 0 -96 30 -96 94z"/></g><g id="E241-h1dmnccc"><path transform="scale(1,-1)" d="M179 646c-4 8 -17 30 -18 33l-4 10c0 3 2 5 5 5s7 -2 13 -7c23 -33 46 -81 66 -132c22 -57 35 -125 35 -163c0 -104 -60 -183 -122 -241c-63 -59 -57 -53 -61 -56c-38 -34 -63 -95 -71 -95h-22v190c40 7 69 11 87 16c88 27 168 95 168 200c0 30 -12 89 -30 138 c-17 47 -31 73 -46 102z"/></g></defs><style type="text/css">#h1dmnccc g.page-margin {font-family:Times,serif;}#h1dmnccc g.ending, #h1dmnccc g.fing, #h1dmnccc g.reh, #h1dmnccc g.tempo {font-weight:bold;}#h1dmnccc g.dir, #h1dmnccc g.dynam, #h1dmnccc g.mNum {font-style:italic;}#h1dmnccc g.label {font-weight:normal;}#h1dmnccc path {stroke:currentColor}</style><svg class="definition-scale" color="black" viewBox="0 0 14000 2100"><g class="page-margin" transform="translate(0, 150)"><g data-id="cwwgm7z" data-class="mdiv" class="mdiv pageMilestone"/><g data-id="d8tohmu" data-class="score" class="score pageMilestone"/><g data-id="huh89yk" data-class="system" class="system"><g data-id="ff4luib" data-class="section" class="section systemMilestone"/><g data-id="i1me1xmf" data-class="measure" class="measure"><g data-id="r1c5uqiq" data-class="staff" class="staff"><path d="M0 540 L3899 540" stroke-width="13"/><path d="M0 720 L3899 720" stroke-width="13"/><path d="M0 900 L3899 900" stroke-width="13"/><path d="M0 1080 L3899 1080" stroke-width="13"/><path d="M0 1260 L3899 1260" stroke-width="13"/><g data-id="n1wyoifh" data-class="clef" class="clef"><use href="#E062-h1dmnccc" transform="translate(88, 720) scale(0.72, 0.72)"/></g><g data-id="o3329tr" data-class="keySig" class="keySig"><g data-id="p1t6ryx0" data-class="keyAccid" class="keyAccid"><use href="#E262-h1dmnccc" transform="translate(769, 720) scale(0.72, 0.72)"/></g><g data-id="qky55j6" data-class="keyAccid" class="keyAccid"><use href="#E262-h1dmnccc" transform="translate(947, 990) scale(0.72, 0.72)"/></g></g><g data-id="r1iqy63p" data-class="meterSig" class="meterSig"><use href="#E083-h1dmnccc" transform="translate(1260, 720) scale(0.72, 0.72)"/><use href="#E084-h1dmnccc" transform="translate(1254, 1080) scale(0.72, 0.72)"/></g><g data-id="ssczq6n" data-class="layer" class="layer"><g data-id="j1j30wi2" data-class="note" class="note"><g data-class="notehead" class="notehead"><use href="#E0A4-h1dmnccc" transform="translate(1816, 900) scale(0.72, 0.72)"/></g><g data-id="jk24x6l" data-class="stem" class="stem"><path d="M1825 928 L1825 1500" stroke-width="18"/></g></g><g data-id="kfl7vx0" data-class="note" class="note"><g data-class="notehead" class="notehead"><use href="#E0A4-h1dmnccc" transform="translate(2506, 720) scale(0.72, 0.72)"/></g><g data-id="kwzrw7d" data-class="stem" class="stem"><path d="M2515 748 L2515 1350" stroke-width="18"/></g><g data-id="xfvwra6" data-class="accid" class="accid"/></g><g data-id="lk51ojg" data-class="note" class="note"><g data-class="notehead" class="notehead"><use href="#E0A4-h1dmnccc" transform="translate(3196, 450) scale(0.72, 0.72)"/></g><g data-id="lssqqlc" data-class="stem" class="stem"><path d="M3205 478 L3205 1080" stroke-width="18"/></g></g></g></g><g data-id="q1h4sgzl" data-class="barLine" class="barLine"><path d="M3886 540 L3886 1260" stroke-width="27"/></g></g><g data-id="rm8v2ja" data-class="measure" class="measure"><g data-id="t1mnrhs2" data-class="staff" class="staff"><path d="M3899 540 L6112 540" stroke-width="13"/><path d="M3899 720 L6112 720" stroke-width="13"/><path d="M3899 900 L6112 900" stroke-width="13"/><path d="M3899 1080 L6112 1080" stroke-width="13"/><path d="M3899 1260 L6112 1260" stroke-width="13"/><g data-id="u1jfsigz" data-class="layer" class="layer"><g data-id="m1w2uo9t" data-class="note" class="note"><g data-class="notehead" class="notehead"><use href="#E0A4-h1dmnccc" transform="translate(4079, 540) scale(0.72, 0.72)"/></g><g data-id="n7ib3ga" data-class="dots" class="dots"><ellipse cx="4395" cy="450" rx="36" ry="36" fill-opacity="1" stroke-opacity="1"/></g><g data-id="m1bg5841" data-class="stem" class="stem"><path d="M4088 568 L4088 1170" stroke-width="18"/></g></g><g data-id="nd3uh3d" data-class="note" class="note"><g data-class="notehead" class="notehead"><use href="#E0A4-h1dmnccc" transform="translate(4959, 630) scale(0.72, 0.72)"/></g><g data-id="od8kvs4" data-class="stem" class="stem"><path d="M4968 658 L4968 1260" stroke-width="18"/><g data-id="pps4sag" data-class="flag" class="flag"><use href="#E241-h1dmnccc" transform="translate(4959, 1260) scale(0.72, 0.72)"/></g></g></g><g data-id="o1u6gpfl" data-class="note" class="note"><g data-class="notehead" class="notehead"><use href="#E0A4-h1dmnccc" transform="translate(5409, 720) scale(0.72, 0.72)"/></g><g data-id="q1fnyjlk" data-class="stem" class="stem"><path d="M5418 748 L5418 1350" stroke-width="18"/></g><g data-id="yzhb0us" data-class="accid" class="accid"/></g></g></g><g data-id="w1em8u0l" data-class="tie" class="tie"><path d="M5680,675 C5811,521 6112,521 6247,675 C6093,570 5830,570 5680,675" stroke-linecap="round" stroke-linejoin="round" stroke-width="9"/></g><g data-id="z13yhq28" data-class="barLine" class="barLine"><path d="M6099 540 L6099 1260" stroke-width="27"/></g></g><g data-id="a4kfb26" data-class="measure" class="measure"><g data-id="v3xfols" data-class="staff" class="staff"><path d="M6112 540 L10445 540" stroke-width="13"/><path d="M6112 720 L10445 720" stroke-width="13"/><path d="M6112 900 L10445 900" stroke-width="13"/><path d="M6112 1080 L10445 1080" stroke-width="13"/><path d="M6112 1260 L10445 1260" stroke-width="13"/><g data-id="w1stiwev" data-class="layer" class="layer"><g data-id="v1ivpdlr" data-class="beam" class="beam"><polygon stroke-opacity="1" fill-opacity="1" points="6292,1530 9760,1575 9760,1485 6292,1440"/><g data-id="p27rhm0" data-class="note" class="note"><g data-class="notehead" class="notehead"><use href="#E0A4-h1dmnccc" transform="translate(6292, 720) scale(0.72, 0.72)"/></g><g data-id="rxoiyqa" data-class="stem" class="stem"><path d="M6301 748 L6301 1512" stroke-width="18"/></g><g data-id="z1yyh5ue" data-class="accid" class="accid"/></g><g data-id="qqhlm1d" data-class="note" class="note"><g data-class="notehead" class="notehead"><use href="#E0A4-h1dmnccc" transform="translate(6982, 810) scale(0.72, 0.72)"/></g><g data-id="s1ufjpj1" data-class="stem" class="stem"><path d="M6991 838 L6991 1521" stroke-width="18"/></g></g><g data-id="r1ey2i7q" data-class="note" class="note"><g data-class="notehead" class="notehead"><use href="#E0A4-h1dmnccc" transform="translate(7672, 630) scale(0.72, 0.72)"/></g><g data-id="tsvtc7g" data-class="stem" class="stem"><path d="M7681 658 L7681 1530" stroke-width="18"/></g></g><g data-id="sxq2xyv" data-class="note" class="note"><g data-class="notehead" class="notehead"><use href="#E0A4-h1dmnccc" transform="translate(8362, 720) scale(0.72, 0.72)"/></g><g data-id="u1f1ot2j" data-class="stem" class="stem"><path d="M8371 748 L8371 1539" stroke-width="18"/></g><g data-id="a1kls0a7" data-class="accid" class="accid"/></g><g data-id="t1783t6k" data-class="note" class="note"><g data-class="notehead" class="notehead"><use href="#E0A4-h1dmnccc" transform="translate(9052, 810) scale(0.72, 0.72)"/></g><g data-id="v1aexc4c" data-class="stem" class="stem"><path d="M9061 838 L9061 1548" stroke-width="18"/></g></g><g data-id="u1csgftm" data-class="note" class="note"><g data-class="notehead" class="notehead"><use href="#E0A4-h1dmnccc" transform="translate(9742, 900) scale(0.72, 0.72)"/></g><g data-id="w105rxqo" data-class="stem" class="stem"><path d="M9751 928 L9751 1557" stroke-width="18"/></g></g></g></g></g><g data-id="ijf045r" data-class="barLine" class="barLine"><path d="M10432 540 L10432 1260" stroke-width="27"/></g></g><g data-id="e10wsjqw" data-class="systemMilestoneEnd" class="systemMilestoneEnd ff4luib"/></g><g data-id="f16wsynl" data-class="pageMilestoneEnd" class="pageMilestoneEnd d8tohmu"/><g data-id="g1d9uy93" data-class="pageMilestoneEnd" class="pageMilestoneEnd cwwgm7z"/></g></svg></svg>