<svg viewBox="0 0 560 84" version="1.1" xmlns="http://www.w3.org/2000/svg" xmlns:xlink="http://www.w3.org/1999/xlink" overflow="visible" id="jsk2z42"><desc>Engraved by Verovio 5.6.0-85e7620</desc><defs><g id="E050-jsk2z42"><path transform="scale(1,-1)" d="M441 -245c-23 -4 -48 -6 -76 -6c-59 0 -102 7 -130 20c-88 42 -150 93 -187 154c-26 44 -43 103 -48 176c0 6 -1 13 -1 19c0 54 15 111 45 170c29 57 65 106 110 148s96 85 153 127c-3 16 -8 46 -13 92c-4 43 -5 73 -5 89c0 117 16 172 69 257c34 54 64 82 89 82 c21 0 43 -30 69 -92s39 -115 41 -159v-15c0 -109 -21 -162 -67 -241c-13 -20 -63 -90 -98 -118c-13 -9 -25 -19 -37 -29l31 -181c8 1 18 2 28 2c58 0 102 -12 133 -35c59 -43 92 -104 98 -184c1 -7 1 -15 1 -22c0 -123 -87 -209 -181 -248c8 -57 17 -110 25 -162 c5 -31 6 -58 6 -80c0 -30 -5 -53 -14 -70c-35 -64 -88 -99 -158 -103c-5 0 -11 -1 -16 -1c-37 0 -72 10 -108 27c-50 24 -77 59 -80 105v11c0 29 7 55 20 76c18 28 45 42 79 44h6c49 0 93 -42 97 -87v-9c0 -51 -34 -86 -105 -106c17 -24 51 -36 102 -36c62 0 116 43 140 85 c9 16 13 41 13 74c0 20 -1 42 -5 67c-8 53 -18 106 -26 159zM461 939c-95 0 -135 -175 -135 -286c0 -24 2 -48 5 -71c50 39 92 82 127 128c40 53 60 100 60 140v8c-4 53 -22 81 -55 81h-2zM406 119l54 -326c73 25 110 78 110 161c0 7 0 15 -1 23c-7 95 -57 142 -151 142h-12 zM382 117c-72 -2 -128 -47 -128 -120v-7c2 -46 43 -99 75 -115c-3 -2 -7 -5 -10 -10c-70 33 -116 88 -123 172v11c0 68 44 126 88 159c23 17 49 29 78 36l-29 170c-21 -13 -52 -37 -92 -73c-50 -44 -86 -84 -109 -119c-45 -69 -67 -130 -67 -182v-13c5 -68 35 -127 93 -176 s125 -73 203 -73c25 0 50 3 75 9c-19 111 -36 221 -54 331z"/></g><g id="E262-jsk2z42"><path transform="scale(1,-1)" d="M136 186v169h17v-164l44 14v-91l-44 -14v-165l44 12v-91l-44 -13v-155h-17v150l-76 -22v-155h-17v149l-43 -13v90l43 14v167l-43 -14v92l43 13v169h17v-163zM60 73v-167l76 22v168z"/></g><g id="E08B-jsk2z42"><path transform="scale(1,-1)" d="M188 200c-42 -22 -63 -69 -63 -141v-119c0 -39 7 -70 19 -94s26 -40 44 -48v402zM0 -0c0 127 80 220 186 246v72h32l-6 -72c33 0 71 0 101 -11c54 -20 102 -65 102 -135c0 -16 -4 -30 -13 -43s-20 -24 -32 -29l-20 -8l-23 -3c-22 2 -41 8 -55 21s-21 31 -26 51 c0 38 45 80 79 80c12 0 19 3 19 10c0 6 -6 12 -15 18c-19 13 -47 24 -79 24c-10 0 -20 -1 -32 -5v-431c15 -3 12 -4 30 -4c57 0 100 51 121 93l17 39c3 13 5 25 5 35h26c-6 -70 -28 -121 -66 -152s-82 -47 -133 -47v-68h-30v72c-57 10 -122 54 -153 109c-7 12 -13 26 -19 42 c-11 29 -16 61 -16 96z"/></g><g id="E4E3-jsk2z42"><path transform="scale(1,-1)" d="M0 -115v105c0 9 1 10 10 10h280c9 0 10 -1 10 -10v-105c0 -9 -1 -10 -10 -10h-280c-9 0 -10 1 -10 10z"/></g><g id="E4C0-jsk2z42"><path transform="scale(1,-1)" d="M0 0c0 0 40 320 300 320s300 -320 300 -320h-32s-38 227 -268 227s-268 -227 -268 -227h-32zM355 52c0 -30 -25 -55 -55 -55s-55 25 -55 55s25 55 55 55s55 -25 55 -55z"/></g><g id="E0A2-jsk2z42"><path transform="scale(1,-1)" d="M198 133c102 0 207 -45 207 -133c0 -92 -118 -133 -227 -133c-101 0 -178 46 -178 133c0 88 93 133 198 133zM293 -21c0 14 -3 29 -8 44c-7 20 -18 38 -33 54c-20 21 -43 31 -68 31l-20 -2c-15 -5 -27 -14 -36 -28c-4 -9 -6 -17 -8 -24s-3 -16 -3 -27c0 -15 3 -34 9 -57 s18 -41 34 -55c15 -15 36 -23 62 -23c4 0 10 1 18 2c19 5 32 15 40 30s13 34 13 55z"/></g></defs><style type="text/css">#jsk2z42 g.page-margin {font-family:Times,serif;}#jsk2z42 g.ending, #jsk2z42 g.fing, #jsk2z42 g.reh, #jsk2z42 g.tempo {font-weight:bold;}#jsk2z42 g.dir, #jsk2z42 g.dynam, #jsk2z42 g.mNum {font-style:italic;}#jsk2z42 g.label {font-weight:normal;}#jsk2z42 path {stroke:currentColor}</style><svg class="definition-scale" color="black" viewBox="0 0 14000 2100"><g class="page-margin" transform="translate(0, 150)"><g data-id="w1w4ezc1" data-class="mdiv" class="mdiv pageMilestone"/><g data-id="xhlve3p" data-class="score" class="score pageMilestone"/><g data-id="fp03x53" data-class="system" class="system"><g data-id="z1jq1unl" data-class="section" class="section systemMilestone"/><g data-id="k1j9d0fc" data-class="measure" class="measure"><g data-id="lz8asu3" data-class="staff" class="staff"><path d="M0 540 L3984 540" stroke-width="13"/><path d="M0 720 L3984 720" stroke-width="13"/><path d="M0 900 L3984 900" stroke-width="13"/><path d="M0 1080 L3984 1080" stroke-width="13"/><path d="M0 1260 L3984 1260" stroke-width="13"/><g data-id="n1wepd2p" data-class="clef" class="clef"><use href="#E050-jsk2z42" transform="translate(90, 1080) scale(0.72, 0.72)"/></g><g data-id="o9s86tl" data-class="keySig" class="keySig"><g data-id="pe0fkrb" data-class="keyAccid" class="keyAccid"><use href="#E262-jsk2z42" transform="translate(735, 540) scale(0.72, 0.72)"/></g><g data-id="qudvrwo" data-class="keyAccid" class="keyAccid"><use href="#E262-jsk2z42" transform="translate(913, 810) scale(0.72, 0.72)"/></g><g data-id="rkjqrew" data-class="keyAccid" class="keyAccid"><use href="#E262-jsk2z42" transform="translate(1091, 450) scale(0.72, 0.72)"/></g><g data-id="s8hkzxq" data-class="keyAccid" class="keyAccid"><use href="#E262-jsk2z42" transform="translate(1269, 720) scale(0.72, 0.72)"/></g></g><g data-id="tngco1k" data-class="meterSig" class="meterSig"><use href="#E08B-jsk2z42" transform="translate(1590, 900) scale(0.72, 0.72)"/></g><g data-id="m1pmzf36" data-class="layer" class="layer"><g data-id="wnwmi3l" data-class="rest" class="rest"><use href="#E4E3-jsk2z42" transform="translate(2171, 720) scale(0.72, 0.72)"/><g data-class="ledgerLines" class="ledgerLines"/></g></g></g><g data-id="b11bm1y" data-class="fermata" class="fermata"><use href="#E4C0-jsk2z42" transform="translate(2068, 493) scale(0.72, 0.72)"/></g><g data-id="sb5e2h3" data-class="barLine" class="barLine"><path d="M3971 540 L3971 1260" stroke-width="27"/></g></g><g data-id="te5lhx0" data-class="measure" class="measure"><g data-id="n1pf9wv1" data-class="staff" class="staff"><path d="M3984 540 L5988 540" stroke-width="13"/><path d="M3984 720 L5988 720" stroke-width="13"/><path d="M3984 900 L5988 900" stroke-width="13"/><path d="M3984 1080 L5988 1080" stroke-width="13"/><path d="M3984 1260 L5988 1260" stroke-width="13"/><g data-id="oq83abl" data-class="layer" class="layer"><g data-id="x1mx8ol0" data-class="rest" class="rest"><use href="#E4E3-jsk2z42" transform="translate(4175, 720) scale(0.72, 0.72)"/><g data-class="ledgerLines" class="ledgerLines"/></g></g></g><g data-id="c9v835p" data-class="fermata" class="fermata"><use href="#E4C0-jsk2z42" transform="translate(4072, 493) scale(0.72, 0.72)"/></g><g data-id="blv2eqm" data-class="barLine" class="barLine"><path d="M5975 540 L5975 1260" stroke-width="27"/></g></g><g data-id="c1tiv6h1" data-class="measure" class="measure"><g data-id="p1x4bfhi" data-class="staff" class="staff"><path d="M5988 540 L7992 540" stroke-width="13"/><path d="M5988 720 L7992 720" stroke-width="13"/><path d="M5988 900 L7992 900" stroke-width="13"/><path d="M5988 1080 L7992 1080" stroke-width="13"/><path d="M5988 1260 L7992 1260" stroke-width="13"/><g data-id="q1u1m2wq" data-class="layer" class="layer"><g data-id="y1ryn8vk" data-class="rest" class="rest"><use href="#E4E3-jsk2z42" transform="translate(6179, 720) scale(0.72, 0.72)"/><g data-class="ledgerLines" class="ledgerLines"/></g></g></g><g data-id="d5f0rs3" data-class="fermata" class="fermata"><use href="#E4C0-jsk2z42" transform="translate(6076, 493) scale(0.72, 0.72)"/></g><g data-id="kg2hykb" data-class="barLine" class="barLine"><path d="M7979 540 L7979 1260" stroke-width="27"/></g></g><g data-id="l1c9dxjy" data-class="measure" class="measure"><g data-id="r1ts1kk7" data-class="staff" class="staff"><path d="M7992 540 L9996 540" stroke-width="13"/><path d="M7992 720 L9996 720" stroke-width="13"/><path d="M7992 900 L9996 900" stroke-width="13"/><path d="M7992 1080 L9996 1080" stroke-width="13"/><path d="M7992 1260 L9996 1260" stroke-width="13"/><g data-id="s18ec5xd" data-class="layer" class="layer"><g data-id="zqdwarn" data-class="rest" class="rest"><use href="#E4E3-jsk2z42" transform="translate(8183, 720) scale(0.72, 0.72)"/><g data-class="ledgerLines" class="ledgerLines"/></g></g></g><g data-id="tp1n1um" data-class="barLine" class="barLine"><path d="M9983 540 L9983 1260" stroke-width="27"/></g></g><g data-id="uecao9p" data-class="measure" class="measure"><g data-id="t1qdxsx3" data-class="staff" class="staff"><path d="M9996 540 L12000 540" stroke-width="13"/><path d="M9996 720 L12000 720" stroke-width="13"/><path d="M9996 900 L12000 900" stroke-width="13"/><path d="M9996 1080 L12000 1080" stroke-width="13"/><path d="M9996 1260 L12000 1260" stroke-width="13"/><g data-id="u1gbd5kv" data-class="layer" class="layer"><g data-id="amu4yg9" data-class="rest" class="rest"><use href="#E4E3-jsk2z42" transform="translate(10187, 720) scale(0.72, 0.72)"/><g data-class="ledgerLines" class="ledgerLines"/></g></g></g><g data-id="ep492b8" data-class="fermata" class="fermata"><use href="#E4C0-jsk2z42" transform="translate(10084, 493) scale(0.72, 0.72)"/></g><g data-id="cuscy76" data-class="barLine" class="barLine"><path d="M11987 540 L11987 1260" stroke-width="27"/></g></g><g data-id="ddrhsr0" data-class="measure" class="measure"><g data-id="vrm7hyu" data-class="staff" class="staff"><path d="M12000 540 L14004 540" stroke-width="13"/><path d="M12000 720 L14004 720" stroke-width="13"/><path d="M12000 900 L14004 900" stroke-width="13"/><path d="M12000 1080 L14004 1080" stroke-width="13"/><path d="M12000 1260 L14004 1260" stroke-width="13"/><g data-class="ledgerLines" class="ledgerLines above"><g data-class="lineDash" class="lineDash" data-related="#b1ls728r"><path d="M12143 360 L12529 360" stroke-width="22"/></g></g><g data-id="w1ozjzox" data-class="layer" class="layer"><g data-id="b1ls728r" data-class="note" class="note"><g data-class="notehead" class="notehead"><use href="#E0A2-jsk2z42" transform="translate(12191, 270) scale(0.72, 0.72)"/></g></g></g></g><g data-id="q1xw9117" data-class="tie" class="tie"><path d="M12526,225 C12872,72 13583,72 13933,225 C13574,120 12881,120 12526,225" stroke-linecap="round" stroke-linejoin="round" stroke-width="9"/></g><g data-id="lsbpvet" data-class="barLine" class="barLine"><path d="M13991 540 L13991 1260" stroke-width="27"/></g></g></g></g></svg></svg>