<svg viewBox="0 0 560 84" version="1.1" xmlns="http://www.w3.org/2000/svg" xmlns:xlink="http://www.w3.org/1999/xlink" overflow="visible" id="v8qh47h"><desc>Engraved by Verovio 5.6.0-85e7620</desc><defs><g id="E050-v8qh47h"><path transform="scale(1,-1)" d="M441 -245c-23 -4 -48 -6 -76 -6c-59 0 -102 7 -130 20c-88 42 -150 93 -187 154c-26 44 -43 103 -48 176c0 6 -1 13 -1 19c0 54 15 111 45 170c29 57 65 106 110 148s96 85 153 127c-3 16 -8 46 -13 92c-4 43 -5 73 -5 89c0 117 16 172 69 257c34 54 64 82 89 82 c21 0 43 -30 69 -92s39 -115 41 -159v-15c0 -109 -21 -162 -67 -241c-13 -20 -63 -90 -98 -118c-13 -9 -25 -19 -37 -29l31 -181c8 1 18 2 28 2c58 0 102 -12 133 -35c59 -43 92 -104 98 -184c1 -7 1 -15 1 -22c0 -123 -87 -209 -181 -248c8 -57 17 -110 25 -162 c5 -31 6 -58 6 -80c0 -30 -5 -53 -14 -70c-35 -64 -88 -99 -158 -103c-5 0 -11 -1 -16 -1c-37 0 -72 10 -108 27c-50 24 -77 59 -80 105v11c0 29 7 55 20 76c18 28 45 42 79 44h6c49 0 93 -42 97 -87v-9c0 -51 -34 -86 -105 -106c17 -24 51 -36 102 -36c62 0 116 43 140 85 c9 16 13 41 13 74c0 20 -1 42 -5 67c-8 53 -18 106 -26 159zM461 939c-95 0 -135 -175 -135 -286c0 -24 2 -48 5 -71c50 39 92 82 127 128c40 53 60 100 60 140v8c-4 53 -22 81 -55 81h-2zM406 119l54 -326c73 25 110 78 110 161c0 7 0 15 -1 23c-7 95 -57 142 -151 142h-12 zM382 117c-72 -2 -128 -47 -128 -120v-7c2 -46 43 -99 75 -115c-3 -2 -7 -5 -10 -10c-70 33 -116 88 -123 172v11c0 68 44 126 88 159c23 17 49 29 78 36l-29 170c-21 -13 -52 -37 -92 -73c-50 -44 -86 -84 -109 -119c-45 -69 -67 -130 -67 -182v-13c5 -68 35 -127 93 -176 s125 -73 203 -73c25 0 50 3 75 9c-19 111 -36 221 -54 331z"/></g><g id="E262-v8qh47h"><path transform="scale(1,-1)" d="M136 186v169h17v-164l44 14v-91l-44 -14v-165l44 12v-91l-44 -13v-155h-17v150l-76 -22v-155h-17v149l-43 -13v90l43 14v167l-43 -14v92l43 13v169h17v-163zM60 73v-167l76 22v168z"/></g><g id="E08A-v8qh47h"><path transform="scale(1,-1)" d="M340 179c-9 24 -56 41 -89 41c-46 0 -81 -28 -100 -58c-17 -28 -25 -78 -25 -150c0 -65 2 -111 8 -135c8 -31 18 -49 40 -67c20 -17 43 -25 70 -25c54 0 92 36 115 75c14 25 23 54 28 88h27c0 -63 -24 -105 -58 -141c-35 -38 -82 -56 -140 -56c-45 0 -83 13 -115 39 c-57 45 -101 130 -101 226c0 59 33 127 68 163c36 37 97 72 160 72c36 0 93 -21 121 -40c11 -8 23 -17 33 -30c19 -23 27 -48 27 -76c0 -51 -35 -88 -86 -88c-43 0 -76 27 -76 68c0 26 7 35 21 51c15 17 32 27 58 32c7 2 14 7 14 11z"/></g><g id="E0A2-v8qh47h"><path transform="scale(1,-1)" d="M198 133c102 0 207 -45 207 -133c0 -92 -118 -133 -227 -133c-101 0 -178 46 -178 133c0 88 93 133 198 133zM293 -21c0 14 -3 29 -8 44c-7 20 -18 38 -33 54c-20 21 -43 31 -68 31l-20 -2c-15 -5 -27 -14 -36 -28c-4 -9 -6 -17 -8 -24s-3 -16 -3 -27c0 -15 3 -34 9 -57 s18 -41 34 -55c15 -15 36 -23 62 -23c4 0 10 1 18 2c19 5 32 15 40 30s13 34 13 55z"/></g></defs><style type="text/css">#v8qh47h g.page-margin {font-family:Times,serif;}#v8qh47h g.ending, #v8qh47h g.fing, #v8qh47h g.reh, #v8qh47h g.tempo {font-weight:bold;}#v8qh47h g.dir, #v8qh47h g.dynam, #v8qh47h g.mNum {font-style:italic;}#v8qh47h g.label {font-weight:normal;}#v8qh47h path {stroke:currentColor}</style><svg class="definition-scale" color="black" viewBox="0 0 14000 2100"><g class="page-margin" transform="translate(0, 150)"><g data-id="b14slvu1" data-class="mdiv" class="mdiv pageMilestone"/><g data-id="c1f00zgc" data-class="score" class="score pageMilestone"/><g data-id="vzv9k4l" data-class="system" class="system"><g data-id="e157hlkj" data-class="section" class="section systemMilestone"/><g data-id="w1y9crip" data-class="measure" class="measure"><g data-id="qffm01c" data-class="staff" class="staff"><path d="M0 540 L3685 540" stroke-width="13"/><path d="M0 720 L3685 720" stroke-width="13"/><path d="M0 900 L3685 900" stroke-width="13"/><path d="M0 1080 L3685 1080" stroke-width="13"/><path d="M0 1260 L3685 1260" stroke-width="13"/><g data-id="v193bwmm" data-class="clef" class="clef"><use href="#E050-v8qh47h" transform="translate(90, 1080) scale(0.72, 0.72)"/></g><g data-id="won3n4y" data-class="keySig" class="keySig"><g data-id="x10nx5q3" data-class="keyAccid" class="keyAccid"><use href="#E262-v8qh47h" transform="translate(735, 540) scale(0.72, 0.72)"/></g><g data-id="y1sqazvf" data-class="keyAccid" class="keyAccid"><use href="#E262-v8qh47h" transform="translate(913, 810) scale(0.72, 0.72)"/></g></g><g data-id="z17immjd" data-class="meterSig" class="meterSig"><use href="#E08A-v8qh47h" transform="translate(1234, 900) scale(0.72, 0.72)"/></g><g data-id="r1be28n9" data-class="layer" class="layer"><g data-id="hka2xdl" data-class="note" class="note"><g data-class="notehead" class="notehead"><use href="#E0A2-v8qh47h" transform="translate(1814, 540) scale(0.72, 0.72)"/></g><g data-id="u9hlj4d" data-class="accid" class="accid"/></g></g></g><g data-id="pde0s1i" data-class="tie" class="tie"><path d="M2149,495 C2565,342 3412,342 3832,495 C3405,390 2572,390 2149,495" stroke-linecap="round" stroke-linejoin="round" stroke-width="9"/></g><g data-id="exygvs" data-class="barLine" class="barLine"><path d="M3672 540 L3672 1260" stroke-width="27"/></g></g><g data-id="f1x5ress" data-class="measure" class="measure"><g data-id="scx1lk8" data-class="staff" class="staff"><path d="M3685 540 L5748 540" stroke-width="13"/><path d="M3685 720 L5748 720" stroke-width="13"/><path d="M3685 900 L5748 900" stroke-width="13"/><path d="M3685 1080 L5748 1080" stroke-width="13"/><path d="M3685 1260 L5748 1260" stroke-width="13"/><g data-id="t1tquxvh" data-class="layer" class="layer"><g data-id="iqa7v9n" data-class="note" class="note"><g data-class="notehead" class="notehead"><use href="#E0A2-v8qh47h" transform="translate(3877, 540) scale(0.72, 0.72)"/></g><g data-id="v1rtra2h" data-class="accid" class="accid"/></g></g></g><g data-id="q1f39uey" data-class="tie" class="tie"><path d="M4212,495 C4628,342 5475,342 5895,495 C5468,390 4635,390 4212,495" stroke-linecap="round" stroke-linejoin="round" stroke-width="9"/></g><g data-id="n2des84" data-class="barLine" class="barLine"><path d="M5735 540 L5735 1260" stroke-width="27"/></g></g><g data-id="o1qbtfsl" data-class="measure" class="measure"><g data-id="uls5qco" data-class="staff" class="staff"><path d="M5748 540 L7811 540" stroke-width="13"/><path d="M5748 720 L7811 720" stroke-width="13"/><path d="M5748 900 L7811 900" stroke-width="13"/><path d="M5748 1080 L7811 1080" stroke-width="13"/><path d="M5748 1260 L7811 1260" stroke-width="13"/><g data-id="v2qqsgp" data-class="layer" class="layer"><g data-id="jkt8n54" data-class="note" class="note"><g data-class="notehead" class="notehead"><use href="#E0A2-v8qh47h" transform="translate(5940, 540) scale(0.72, 0.72)"/></g><g data-id="wzqqhxz" data-class="accid" class="accid"/></g></g></g><g data-id="r1pu9fjb" data-class="tie" class="tie"><path d="M6275,495 C6691,342 7538,342 7958,495 C7531,390 6698,390 6275,495" stroke-linecap="round" stroke-linejoin="round" stroke-width="9"/></g><g data-id="w10jjx0" data-class="barLine" class="barLine"><path d="M7798 540 L7798 1260" stroke-width="27"/></g></g><g data-id="x1tolbe5" data-class="measure" class="measure"><g data-id="wpqews2" data-class="staff" class="staff"><path d="M7811 540 L9874 540" stroke-width="13"/><path d="M7811 720 L9874 720" stroke-width="13"/><path d="M7811 900 L9874 900" stroke-width="13"/><path d="M7811 1080 L9874 1080" stroke-width="13"/><path d="M7811 1260 L9874 1260" stroke-width="13"/><g data-id="x1i1hhn3" data-class="layer" class="layer"><g data-id="k189gvu3" data-class="note" class="note"><g data-class="notehead" class="notehead"><use href="#E0A2-v8qh47h" transform="translate(8003, 540) scale(0.72, 0.72)"/></g><g data-id="x15z0frv" data-class="accid" class="accid"/></g></g></g><g data-id="smky7vv" data-class="tie" class="tie"><path d="M8338,495 C8754,342 9601,342 10021,495 C9594,390 8761,390 8338,495" stroke-linecap="round" stroke-linejoin="round" stroke-width="9"/></g><g data-id="f15534th" data-class="barLine" class="barLine"><path d="M9861 540 L9861 1260" stroke-width="27"/></g></g><g data-id="g150iety" data-class="measure" class="measure"><g data-id="ycnvls" data-class="staff" class="staff"><path d="M9874 540 L11937 540" stroke-width="13"/><path d="M9874 720 L11937 720" stroke-width="13"/><path d="M9874 900 L11937 900" stroke-width="13"/><path d="M9874 1080 L11937 1080" stroke-width="13"/><path d="M9874 1260 L11937 1260" stroke-width="13"/><g data-id="z121edno" data-class="layer" class="layer"><g data-id="l1ddxw0x" data-class="note" class="note"><g data-class="notehead" class="notehead"><use href="#E0A2-v8qh47h" transform="translate(10066, 540) scale(0.72, 0.72)"/></g><g data-id="y3a9fcn" data-class="accid" class="accid"/></g></g></g><g data-id="t1hyh8bb" data-class="tie" class="tie"><path d="M10401,495 C10817,342 11664,342 12084,495 C11657,390 10824,390 10401,495" stroke-linecap="round" stroke-linejoin="round" stroke-width="9"/></g><g data-id="oflzzyq" data-class="barLine" class="barLine"><path d="M11924 540 L11924 1260" stroke-width="27"/></g></g><g data-id="pvaqjpb" data-class="measure" class="measure"><g data-id="ah7tuqu" data-class="staff" class="staff"><path d="M11937 540 L14000 540" stroke-width="13"/><path d="M11937 720 L14000 720" stroke-width="13"/><path d="M11937 900 L14000 900" stroke-width="13"/><path d="M11937 1080 L14000 1080" stroke-width="13"/><path d="M11937 1260 L14000 1260" stroke-width="13"/><g data-id="b1dk7lsj" data-class="layer" class="layer"><g data-id="mkk5m7l" data-class="note" class="note"><g data-class="notehead" class="notehead"><use href="#E0A2-v8qh47h" transform="translate(12129, 540) scale(0.72, 0.72)"/></g><g data-id="z16p3al7" data-class="accid" class="accid"/></g></g></g><g data-id="x1qq8ge1" data-class="barLine" class="barLine"><path d="M13987 540 L13987 1260" stroke-width="27"/></g></g></g></g></svg></svg>