<svg viewBox="0 0 560 84" version="1.1" xmlns="http://www.w3.org/2000/svg" xmlns:xlink="http://www.w3.org/1999/xlink" overflow="visible" id="waki267"><desc>Engraved by Verovio 5.6.0-85e7620</desc><defs><g id="E050-waki267"><path transform="scale(1,-1)" d="M441 -245c-23 -4 -48 -6 -76 -6c-59 0 -102 7 -130 20c-88 42 -150 93 -187 154c-26 44 -43 103 -48 176c0 6 -1 13 -1 19c0 54 15 111 45 170c29 57 65 106 110 148s96 85 153 127c-3 16 -8 46 -13 92c-4 43 -5 73 -5 89c0 117 16 172 69 257c34 54 64 82 89 82 c21 0 43 -30 69 -92s39 -115 41 -159v-15c0 -109 -21 -162 -67 -241c-13 -20 -63 -90 -98 -118c-13 -9 -25 -19 -37 -29l31 -181c8 1 18 2 28 2c58 0 102 -12 133 -35c59 -43 92 -104 98 -184c1 -7 1 -15 1 -22c0 -123 -87 -209 -181 -248c8 -57 17 -110 25 -162 c5 -31 6 -58 6 -80c0 -30 -5 -53 -14 -70c-35 -64 -88 -99 -158 -103c-5 0 -11 -1 -16 -1c-37 0 -72 10 -108 27c-50 24 -77 59 -80 105v11c0 29 7 55 20 76c18 28 45 42 79 44h6c49 0 93 -42 97 -87v-9c0 -51 -34 -86 -105 -106c17 -24 51 -36 102 -36c62 0 116 43 140 85 c9 16 13 41 13 74c0 20 -1 42 -5 67c-8 53 -18 106 -26 159zM461 939c-95 0 -135 -175 -135 -286c0 -24 2 -48 5 -71c50 39 92 82 127 128c40 53 60 100 60 140v8c-4 53 -22 81 -55 81h-2zM406 119l54 -326c73 25 110 78 110 161c0 7 0 15 -1 23c-7 95 -57 142 -151 142h-12 zM382 117c-72 -2 -128 -47 -128 -120v-7c2 -46 43 -99 75 -115c-3 -2 -7 -5 -10 -10c-70 33 -116 88 -123 172v11c0 68 44 126 88 159c23 17 49 29 78 36l-29 170c-21 -13 -52 -37 -92 -73c-50 -44 -86 -84 -109 -119c-45 -69 -67 -130 -67 -182v-13c5 -68 35 -127 93 -176 s125 -73 203 -73c25 0 50 3 75 9c-19 111 -36 221 -54 331z"/></g><g id="E262-waki267"><path transform="scale(1,-1)" d="M136 186v169h17v-164l44 14v-91l-44 -14v-165l44 12v-91l-44 -13v-155h-17v150l-76 -22v-155h-17v149l-43 -13v90l43 14v167l-43 -14v92l43 13v169h17v-163zM60 73v-167l76 22v168z"/></g><g id="E086-waki267"><path transform="scale(1,-1)" d="M284 -91c0 37 -28 92 -67 92c-35 0 -65 -54 -65 -111c0 -52 22 -104 68 -104c47 0 64 68 64 123zM230 214c-36 0 -90 -33 -90 -184l2 -36c40 24 81 36 120 36c80 0 140 -48 140 -121c0 -99 -99 -159 -182 -159c-160 0 -200 173 -200 244c0 21 2 43 7 71l10 35 c26 85 73 115 98 126c41 19 74 24 103 24c93 0 142 -63 142 -105c0 -58 -52 -72 -73 -72c-33 0 -59 24 -65 35c-3 5 -6 14 -7 25l11 30c6 15 9 27 9 35c0 11 -9 16 -25 16z"/></g><g id="E088-waki267"><path transform="scale(1,-1)" d="M195 -214c76 0 88 58 90 68c0 34 -35 60 -57 73l-52 29c-21 10 -32 17 -34 20c-39 -33 -58 -54 -62 -92c5 -23 23 -98 115 -98zM301 135c0 61 -72 76 -113 76c-40 0 -77 -17 -77 -51c3 -21 15 -38 26 -50c17 -15 33 -26 48 -34l65 -28c34 27 51 56 51 87zM176 -250 c-57 0 -166 26 -166 132c0 47 30 86 89 116c-33 15 -79 60 -79 119c0 79 85 132 178 132h18c5 0 21 1 28 -1c25 0 126 -30 126 -110c0 -37 -23 -76 -69 -116c43 -25 83 -71 83 -119c0 -101 -118 -153 -208 -153z"/></g><g id="E0A4-waki267"><path transform="scale(1,-1)" d="M0 -39c0 68 73 172 200 172c66 0 114 -37 114 -95c0 -84 -106 -171 -218 -171c-64 0 -96 30 -96 94z"/></g><g id="E240-waki267"><path transform="scale(1,-1)" d="M179 -646c15 29 29 55 46 102c18 49 30 108 30 138c0 105 -80 173 -168 200c-18 5 -47 9 -87 16v190h22c8 0 33 -61 71 -95c4 -3 -2 3 61 -56c62 -58 122 -137 122 -241c0 -38 -13 -106 -35 -163c-20 -51 -43 -99 -66 -132c-6 -5 -10 -7 -13 -7s-5 2 -5 5l4 10 c1 3 14 25 18 33z"/></g><g id="E241-waki267"><path transform="scale(1,-1)" d="M179 646c-4 8 -17 30 -18 33l-4 10c0 3 2 5 5 5s7 -2 13 -7c23 -33 46 -81 66 -132c22 -57 35 -125 35 -163c0 -104 -60 -183 -122 -241c-63 -59 -57 -53 -61 -56c-38 -34 -63 -95 -71 -95h-22v190c40 7 69 11 87 16c88 27 168 95 168 200c0 30 -12 89 -30 138 c-17 47 -31 73 -46 102z"/></g><g id="E4C0-waki267"><path transform="scale(1,-1)" d="M0 0c0 0 40 320 300 320s300 -320 300 -320h-32s-38 227 -268 227s-268 -227 -268 -227h-32zM355 52c0 -30 -25 -55 -55 -55s-55 25 -55 55s25 55 55 55s55 -25 55 -55z"/></g></defs><style type="text/css">#waki267 g.page-margin {font-family:Times,serif;}#waki267 g.ending, #waki267 g.fing, #waki267 g.reh, #waki267 g.tempo {font-weight:bold;}#waki267 g.dir, #waki267 g.dynam, #waki267 g.mNum {font-style:italic;}#waki267 g.label {font-weight:normal;}#waki267 path {stroke:currentColor}</style><svg class="definition-scale" color="black" viewBox="0 0 14000 2100"><g class="page-margin" transform="translate(0, 150)"><g data-id="b1by6pw8" data-class="mdiv" class="mdiv pageMilestone"/><g data-id="c1pqjsor" data-class="score" class="score pageMilestone"/><g data-id="e1pgkjd6" data-class="system" class="system"><g data-id="e4qt80s" data-class="section" class="section systemMilestone"/><g data-id="x7ytf4p" data-class="measure" class="measure"><g data-id="qw2dc6t" data-class="staff" class="staff"><path d="M0 540 L4228 540" stroke-width="13"/><path d="M0 720 L4228 720" stroke-width="13"/><path d="M0 900 L4228 900" stroke-width="13"/><path d="M0 1080 L4228 1080" stroke-width="13"/><path d="M0 1260 L4228 1260" stroke-width="13"/><g data-id="i1thbaw3" data-class="clef" class="clef"><use href="#E050-waki267" transform="translate(90, 1080) scale(0.72, 0.72)"/></g><g data-id="j1hvqp6t" data-class="keySig" class="keySig"><g data-id="k1o73nzz" data-class="keyAccid" class="keyAccid"><use href="#E262-waki267" transform="translate(735, 540) scale(0.72, 0.72)"/></g><g data-id="l14mu7j2" data-class="keyAccid" class="keyAccid"><use href="#E262-waki267" transform="translate(913, 810) scale(0.72, 0.72)"/></g><g data-id="m1367kj9" data-class="keyAccid" class="keyAccid"><use href="#E262-waki267" transform="translate(1091, 450) scale(0.72, 0.72)"/></g><g data-id="ngx0ug1" data-class="keyAccid" class="keyAccid"><use href="#E262-waki267" transform="translate(1269, 720) scale(0.72, 0.72)"/></g></g><g data-id="oyt6emk" data-class="meterSig" class="meterSig"><use href="#E086-waki267" transform="translate(1576, 720) scale(0.72, 0.72)"/><use href="#E088-waki267" transform="translate(1583, 1080) scale(0.72, 0.72)"/></g><g data-id="r436gpb" data-class="layer" class="layer"><g data-id="hr5t1fp" data-class="note" class="note"><g data-class="notehead" class="notehead"><use href="#E0A4-waki267" transform="translate(2135, 1080) scale(0.72, 0.72)"/></g><g data-id="n1k098eq" data-class="dots" class="dots"><ellipse cx="2451" cy="990" rx="36" ry="36" fill-opacity="1" stroke-opacity="1"/></g><g data-id="m9ywcim" data-class="stem" class="stem"><path d="M2352 1052 L2352 450" stroke-width="18"/></g><g data-id="w14dl05x" data-class="accid" class="accid"/></g><g data-id="ij3z3jy" data-class="note" class="note"><g data-class="notehead" class="notehead"><use href="#E0A4-waki267" transform="translate(3015, 990) scale(0.72, 0.72)"/></g><g data-id="o1wooa9w" data-class="stem" class="stem"><path d="M3232 962 L3232 360" stroke-width="18"/></g></g><g data-id="ja3hfdx" data-class="note" class="note"><g data-class="notehead" class="notehead"><use href="#E0A4-waki267" transform="translate(3705, 1080) scale(0.72, 0.72)"/></g><g data-id="p17tm800" data-class="stem" class="stem"><path d="M3922 1052 L3922 450" stroke-width="18"/><g data-id="q6da6ar" data-class="flag" class="flag"><use href="#E240-waki267" transform="translate(3913, 450) scale(0.72, 0.72)"/></g></g><g data-id="x1seqm5h" data-class="accid" class="accid"/></g></g></g><g data-id="f1pfbw93" data-class="barLine" class="barLine"><path d="M4215 540 L4215 1260" stroke-width="27"/></g></g><g data-id="gfzljz7" data-class="measure" class="measure"><g data-id="s1qqhr6d" data-class="staff" class="staff"><path d="M4228 540 L6441 540" stroke-width="13"/><path d="M4228 720 L6441 720" stroke-width="13"/><path d="M4228 900 L6441 900" stroke-width="13"/><path d="M4228 1080 L6441 1080" stroke-width="13"/><path d="M4228 1260 L6441 1260" stroke-width="13"/><g data-id="td4novh" data-class="layer" class="layer"><g data-id="kwiys9n" data-class="note" class="note"><g data-class="notehead" class="notehead"><use href="#E0A4-waki267" transform="translate(4408, 810) scale(0.72, 0.72)"/></g><g data-id="r1s64m3n" data-class="stem" class="stem"><path d="M4417 838 L4417 1440" stroke-width="18"/></g><g data-id="y1o37dg0" data-class="accid" class="accid"/></g><g data-id="lgqw5wh" data-class="note" class="note"><g data-class="notehead" class="notehead"><use href="#E0A4-waki267" transform="translate(5098, 900) scale(0.72, 0.72)"/></g><g data-id="s1t5vulz" data-class="stem" class="stem"><path d="M5107 928 L5107 1500" stroke-width="18"/><g data-id="t1r1b40x" data-class="flag" class="flag"><use href="#E241-waki267" transform="translate(5098, 1500) scale(0.72, 0.72)"/></g></g></g><g data-id="mjsicac" data-class="note" class="note"><g data-class="notehead" class="notehead"><use href="#E0A4-waki267" transform="translate(5548, 900) scale(0.72, 0.72)"/></g><g data-id="v14jiscy" data-class="dots" class="dots"><ellipse cx="5864" cy="810" rx="36" ry="36" fill-opacity="1" stroke-opacity="1"/></g><g data-id="u1wvx82c" data-class="stem" class="stem"><path d="M5557 928 L5557 1500" stroke-width="18"/></g></g></g></g><g data-id="u3hyfo5" data-class="fermata" class="fermata"><use href="#E4C0-waki267" transform="translate(5445, 493) scale(0.72, 0.72)"/></g><g data-id="o10fx4b6" data-class="barLine" class="barLine"><path d="M6428 540 L6428 1260" stroke-width="27"/></g></g><g data-id="p1l507p1" data-class="measure" class="measure"><g data-id="u76xjh2" data-class="staff" class="staff"><path d="M6441 540 L8962 540" stroke-width="13"/><path d="M6441 720 L8962 720" stroke-width="13"/><path d="M6441 900 L8962 900" stroke-width="13"/><path d="M6441 1080 L8962 1080" stroke-width="13"/><path d="M6441 1260 L8962 1260" stroke-width="13"/><g data-id="v1jru9hv" data-class="layer" class="layer"><g data-id="n1mnvjou" data-class="note" class="note"><g data-class="notehead" class="notehead"><use href="#E0A4-waki267" transform="translate(6621, 900) scale(0.72, 0.72)"/></g><g data-id="xgi3cpq" data-class="dots" class="dots"><ellipse cx="6937" cy="810" rx="36" ry="36" fill-opacity="1" stroke-opacity="1"/></g><g data-id="wa96pa5" data-class="stem" class="stem"><path d="M6630 928 L6630 1500" stroke-width="18"/></g></g><g data-id="ouw7yn2" data-class="note" class="note"><g data-class="notehead" class="notehead"><use href="#E0A4-waki267" transform="translate(7130, 810) scale(0.54, 0.54)"/></g><g data-id="y1qisz3h" data-class="stem" class="stem"><path d="M7290 789 L7290 383" stroke-width="18"/><path d="M7223 651 L7424 450" stroke-width="21"/><g data-id="zhj2ncd" data-class="flag" class="flag"><use href="#E240-waki267" transform="translate(7281, 383) scale(0.54, 0.54)"/></g></g><g data-id="za1vfo2" data-class="accid" class="accid"/></g><g data-id="peughuh" data-class="note" class="note"><g data-class="notehead" class="notehead"><use href="#E0A4-waki267" transform="translate(7501, 900) scale(0.72, 0.72)"/></g><g data-id="a1blpo06" data-class="stem" class="stem"><path d="M7510 928 L7510 1500" stroke-width="18"/><g data-id="bajitw3" data-class="flag" class="flag"><use href="#E241-waki267" transform="translate(7501, 1500) scale(0.72, 0.72)"/></g></g></g><g data-id="q1i16vz" data-class="note" class="note"><g data-class="notehead" class="notehead"><use href="#E0A4-waki267" transform="translate(8003, 990) scale(0.72, 0.72)"/></g><g data-id="c5x2966" data-class="stem" class="stem"><path d="M8220 962 L8220 360" stroke-width="18"/><g data-id="d1qa1ryf" data-class="flag" class="flag"><use href="#E240-waki267" transform="translate(8211, 360) scale(0.72, 0.72)"/></g></g><g data-id="v10l233w" data-class="accid" class="accid"><use href="#E262-waki267" transform="translate(7817, 990) scale(0.72, 0.72)"/></g></g><g data-id="r1dzq4rs" data-class="note" class="note"><g data-class="notehead" class="notehead"><use href="#E0A4-waki267" transform="translate(8499, 900) scale(0.72, 0.72)"/></g><g data-id="e1d0i7ur" data-class="stem" class="stem"><path d="M8508 928 L8508 1500" stroke-width="18"/><g data-id="fznkg8u" data-class="flag" class="flag"><use href="#E241-waki267" transform="translate(8499, 1500) scale(0.72, 0.72)"/></g></g></g></g></g><g data-id="x11ppib6" data-class="barLine" class="barLine"><path d="M8949 540 L8949 1260" stroke-width="27"/></g></g><g data-id="y145z017" data-class="measure" class="measure"><g data-id="w1mzysv0" data-class="staff" class="staff"><path d="M8962 540 L10915 540" stroke-width="13"/><path d="M8962 720 L10915 720" stroke-width="13"/><path d="M8962 900 L10915 900" stroke-width="13"/><path d="M8962 1080 L10915 1080" stroke-width="13"/><path d="M8962 1260 L10915 1260" stroke-width="13"/><g data-id="xmogwq3" data-class="layer" class="layer"><g data-id="s1d71ny" data-class="note" class="note"><g data-class="notehead" class="notehead"><use href="#E0A4-waki267" transform="translate(9142, 630) scale(0.72, 0.72)"/></g><g data-id="h1gwvjl0" data-class="dots" class="dots"><ellipse cx="9458" cy="630" rx="36" ry="36" fill-opacity="1" stroke-opacity="1"/></g><g data-id="g1cli0o1" data-class="stem" class="stem"><path d="M9151 658 L9151 1260" stroke-width="18"/></g></g><g data-id="t4qgnap" data-class="note" class="note"><g data-class="notehead" class="notehead"><use href="#E0A4-waki267" transform="translate(10022, 900) scale(0.72, 0.72)"/></g><g data-id="jnq7wy8" data-class="dots" class="dots"><ellipse cx="10338" cy="810" rx="36" ry="36" fill-opacity="1" stroke-opacity="1"/></g><g data-id="inbns6k" data-class="stem" class="stem"><path d="M10031 928 L10031 1500" stroke-width="18"/></g></g></g></g><g data-id="g1ea3qa4" data-class="barLine" class="barLine"><path d="M10902 540 L10902 1260" stroke-width="27"/></g></g><g data-id="fdk6hyy" data-class="systemMilestoneEnd" class="systemMilestoneEnd e4qt80s"/></g><g data-id="g1enxprf" data-class="pageMilestoneEnd" class="pageMilestoneEnd c1pqjsor"/><g data-id="hrgxu28" data-class="pageMilestoneEnd" class="pageMilestoneEnd b1by6pw8"/></g></svg></svg>