<svg viewBox="0 0 560 84" version="1.1" xmlns="http://www.w3.org/2000/svg" xmlns:xlink="http://www.w3.org/1999/xlink" overflow="visible" id="ik48cq"><desc>Engraved by Verovio 5.6.0-85e7620</desc><defs><g id="E052-ik48cq"><path transform="scale(1,-1)" d="M382 117c-72 -2 -128 -47 -128 -120v-7c2 -46 43 -99 75 -115c-3 -2 -7 -5 -10 -10c-70 33 -116 88 -123 172v11c0 68 44 126 88 159c23 17 49 29 78 36l-29 170c-21 -13 -52 -37 -92 -73c-50 -44 -86 -84 -109 -119c-45 -69 -67 -130 -67 -182v-13 c5 -68 35 -127 93 -176s125 -73 203 -73c25 0 50 3 75 9c-19 111 -36 221 -54 331zM406 119l54 -326c73 25 110 78 110 161c0 7 0 15 -1 23c-7 95 -57 142 -151 142h-12zM461 939c-95 0 -135 -175 -135 -286c0 -24 2 -48 5 -71c50 39 92 82 127 128c40 53 60 100 60 140v8 c-4 53 -22 81 -55 81h-2zM441 -245c-23 -4 -48 -6 -76 -6c-59 0 -102 7 -130 20c-88 42 -150 93 -187 154c-26 44 -43 103 -48 176c0 6 -1 13 -1 19c0 54 15 111 45 170c29 57 65 106 110 148s96 85 153 127c-3 16 -8 46 -13 92c-4 43 -5 73 -5 89c0 117 16 172 69 257 c34 54 64 82 89 82c21 0 43 -30 69 -92s39 -115 41 -159v-15c0 -109 -21 -162 -67 -241c-13 -20 -63 -90 -98 -118c-13 -9 -25 -19 -37 -29l31 -181c8 1 18 2 28 2c58 0 102 -12 133 -35c59 -43 92 -104 98 -184c1 -7 1 -15 1 -22c0 -123 -87 -209 -181 -248 c8 -57 17 -110 25 -162c5 -31 6 -58 6 -80c0 -30 -5 -53 -14 -70c-25 -46 -59 -77 -102 -92c21 -1 85 -13 85 -60c0 -35 -22 -43 -31 -50c-6 -5 -8 -10 -8 -16s0 -11 4 -16c6 -11 9 -22 9 -34c0 -27 -18 -53 -46 -65c-11 -4 -27 -6 -41 -6c-34 0 -82 21 -90 58 c-1 5 -2 8 -2 12c0 28 25 57 51 66c4 1 6 2 6 5c0 2 -1 3 -2 3c-11 13 -16 27 -16 41c0 21 11 40 30 51h-5c-5 0 -11 -1 -16 -1c-37 0 -72 10 -108 27c-50 24 -77 59 -80 105v11c0 29 7 55 20 76c18 28 45 42 79 44h6c49 0 93 -42 97 -87v-9c0 -51 -34 -86 -105 -106 c17 -24 51 -36 102 -36c62 0 116 43 140 85c9 16 13 41 13 74c0 20 -1 42 -5 67c-8 53 -18 106 -26 159zM315 -781c-3 -2 -6 -5 -7 -8c-6 -8 -10 -19 -10 -30c0 -2 0 -4 1 -7c7 -32 34 -52 53 -52c20 0 37 20 37 36c0 5 -2 9 -4 14c-5 13 -14 24 -25 34c-6 5 -11 10 -17 14 c-4 2 -9 6 -14 6c-6 0 -11 -3 -14 -7zM349 -685c0 -14 10 -25 18 -34c8 -8 16 -18 26 -25c5 -2 10 -4 13 -4c17 0 22 30 23 48c0 9 -3 20 -9 26c-8 9 -23 14 -40 14c-15 -1 -29 -8 -31 -25z"/></g><g id="E260-ik48cq"><path transform="scale(1,-1)" d="M20 110c32 16 54 27 93 27c26 0 35 -3 54 -13c13 -7 24 -20 27 -38l4 -25c0 -28 -16 -57 -45 -89c-23 -25 -39 -44 -65 -68l-88 -79v644h20v-359zM90 106c-32 0 -48 -10 -70 -29v-194c31 31 54 59 71 84c21 32 32 59 32 84c0 9 1 16 1 20c0 14 -3 21 -11 30l-8 3z"/></g><g id="E08A-ik48cq"><path transform="scale(1,-1)" d="M340 179c-9 24 -56 41 -89 41c-46 0 -81 -28 -100 -58c-17 -28 -25 -78 -25 -150c0 -65 2 -111 8 -135c8 -31 18 -49 40 -67c20 -17 43 -25 70 -25c54 0 92 36 115 75c14 25 23 54 28 88h27c0 -63 -24 -105 -58 -141c-35 -38 -82 -56 -140 -56c-45 0 -83 13 -115 39 c-57 45 -101 130 -101 226c0 59 33 127 68 163c36 37 97 72 160 72c36 0 93 -21 121 -40c11 -8 23 -17 33 -30c19 -23 27 -48 27 -76c0 -51 -35 -88 -86 -88c-43 0 -76 27 -76 68c0 26 7 35 21 51c15 17 32 27 58 32c7 2 14 7 14 11z"/></g><g id="E0A4-ik48cq"><path transform="scale(1,-1)" d="M0 -39c0 68 73 172 200 172c66 0 114 -37 114 -95c0 -84 -106 -171 -218 -171c-64 0 -96 30 -96 94z"/></g><g id="E240-ik48cq"><path transform="scale(1,-1)" d="M179 -646c15 29 29 55 46 102c18 49 30 108 30 138c0 105 -80 173 -168 200c-18 5 -47 9 -87 16v190h22c8 0 33 -61 71 -95c4 -3 -2 3 61 -56c62 -58 122 -137 122 -241c0 -38 -13 -106 -35 -163c-20 -51 -43 -99 -66 -132c-6 -5 -10 -7 -13 -7s-5 2 -5 5l4 10 c1 3 14 25 18 33z"/></g><g id="E242-ik48cq"><path transform="scale(1,-1)" d="M206 -748c32 48 49 100 49 149c0 89 -55 168 -168 203c-18 5 -47 9 -87 16v190v190h22c8 0 33 -61 71 -95c4 -3 -2 3 61 -56c62 -58 122 -137 122 -241c0 -32 -7 -65 -17 -96c11 -29 17 -60 17 -94c0 -71 -32 -148 -67 -190c-6 -5 -10 -7 -13 -7s-5 2 -5 5l4 10 c1 3 6 8 11 16zM248 -463c4 18 7 38 7 57c0 105 -80 173 -168 200c-11 3 -27 6 -47 9c9 -17 23 -61 53 -88c4 -3 -2 3 61 -56c36 -33 71 -74 94 -122z"/></g><g id="E243-ik48cq"><path transform="scale(1,-1)" d="M216 730c-5 8 -10 13 -11 16l-4 10c0 3 2 5 5 5s7 -2 13 -7c35 -42 57 -101 57 -172c0 -34 -6 -65 -17 -94c10 -31 17 -64 17 -96c0 -104 -60 -183 -122 -241c-63 -59 -57 -53 -61 -56c-38 -34 -63 -95 -71 -95h-22v190v190c40 7 69 11 87 16c116 36 175 111 175 197 c0 44 -15 91 -46 137zM248 463c-23 -48 -58 -89 -94 -122c-63 -59 -57 -53 -61 -56c-30 -27 -44 -71 -53 -88c20 3 36 6 47 9c88 27 168 95 168 200c0 19 -3 39 -7 57z"/></g></defs><style type="text/css">#ik48cq g.page-margin {font-family:Times,serif;}#ik48cq g.ending, #ik48cq g.fing, #ik48cq g.reh, #ik48cq g.tempo {font-weight:bold;}#ik48cq g.dir, #ik48cq g.dynam, #ik48cq g.mNum {font-style:italic;}#ik48cq g.label {font-weight:normal;}#ik48cq path {stroke:currentColor}</style><svg class="definition-scale" color="black" viewBox="0 0 14000 2100"><g class="page-margin" transform="translate(0, 150)"><g data-id="r197lvyp" data-class="mdiv" class="mdiv pageMilestone"/><g data-id="sfue7y5" data-class="score" class="score pageMilestone"/><g data-id="gz4o3jp" data-class="system" class="system"><g data-id="u1yi5j8s" data-class="section" class="section systemMilestone"/><g data-id="j1j74031" data-class="measure" class="measure"><g data-id="gb460im" data-class="staff" class="staff"><path d="M0 540 L5719 540" stroke-width="13"/><path d="M0 720 L5719 720" stroke-width="13"/><path d="M0 900 L5719 900" stroke-width="13"/><path d="M0 1080 L5719 1080" stroke-width="13"/><path d="M0 1260 L5719 1260" stroke-width="13"/><g data-id="gpsadxa" data-class="clef" class="clef"><use href="#E052-ik48cq" transform="translate(90, 1080) scale(0.72, 0.72)"/></g><g data-id="h1jh31x9" data-class="keySig" class="keySig"><g data-id="i1wrpnyl" data-class="keyAccid" class="keyAccid"><use href="#E260-ik48cq" transform="translate(735, 900) scale(0.72, 0.72)"/></g><g data-id="j8pz955" data-class="keyAccid" class="keyAccid"><use href="#E260-ik48cq" transform="translate(915, 630) scale(0.72, 0.72)"/></g></g><g data-id="k1mk1smw" data-class="meterSig" class="meterSig"><use href="#E08A-ik48cq" transform="translate(1237, 900) scale(0.72, 0.72)"/></g><g data-id="h12hqsk" data-class="layer" class="layer"><g data-id="u1020bzp" data-class="note" class="note"><g data-class="notehead" class="notehead"><use href="#E0A4-ik48cq" transform="translate(1821, 1080) scale(0.72, 0.72)"/></g><g data-id="a11uwueb" data-class="stem" class="stem"><path d="M2038 1052 L2038 450" stroke-width="18"/></g></g><g data-id="v76soo1" data-class="note" class="note"><g data-class="notehead" class="notehead"><use href="#E0A4-ik48cq" transform="translate(2692, 1350) scale(0.72, 0.72)"/></g><g data-id="c1thua3h" data-class="dots" class="dots"><ellipse cx="3008" cy="1350" rx="36" ry="36" fill-opacity="1" stroke-opacity="1"/></g><g data-id="bokeqnv" data-class="stem" class="stem"><path d="M2909 1322 L2909 720" stroke-width="18"/><g data-id="d10ipgpc" data-class="flag" class="flag"><use href="#E240-ik48cq" transform="translate(2900, 720) scale(0.72, 0.72)"/></g></g></g><g data-id="w18g1g3d" data-class="note" class="note"><g data-class="notehead" class="notehead"><use href="#E0A4-ik48cq" transform="translate(3425, 1350) scale(0.72, 0.72)"/></g><g data-id="e1l6uv4i" data-class="stem" class="stem"><path d="M3642 1322 L3642 720" stroke-width="18"/><g data-id="fk3suxh" data-class="flag" class="flag"><use href="#E242-ik48cq" transform="translate(3633, 720) scale(0.72, 0.72)"/></g></g></g><g data-id="x1phx5xd" data-class="note" class="note"><g data-class="notehead" class="notehead"><use href="#E0A4-ik48cq" transform="translate(3963, 1080) scale(0.72, 0.72)"/></g><g data-id="g6xbx4y" data-class="stem" class="stem"><path d="M4180 1052 L4180 450" stroke-width="18"/></g></g><g data-id="ymunw89" data-class="note" class="note"><g data-class="notehead" class="notehead"><use href="#E0A4-ik48cq" transform="translate(4834, 1350) scale(0.72, 0.72)"/></g><g data-id="h15dqhqg" data-class="stem" class="stem"><path d="M5051 1322 L5051 720" stroke-width="18"/></g></g></g></g><g data-id="rjfp37p" data-class="barLine" class="barLine"><path d="M5706 540 L5706 1260" stroke-width="27"/></g></g><g data-id="s1orottm" data-class="measure" class="measure"><g data-id="i23o80a" data-class="staff" class="staff"><path d="M5719 540 L9828 540" stroke-width="13"/><path d="M5719 720 L9828 720" stroke-width="13"/><path d="M5719 900 L9828 900" stroke-width="13"/><path d="M5719 1080 L9828 1080" stroke-width="13"/><path d="M5719 1260 L9828 1260" stroke-width="13"/><g data-id="jyfg8f2" data-class="layer" class="layer"><g data-id="z8a4v6q" data-class="note" class="note"><g data-class="notehead" class="notehead"><use href="#E0A4-ik48cq" transform="translate(5915, 990) scale(0.72, 0.72)"/></g><g data-id="i1bnlh83" data-class="stem" class="stem"><path d="M6132 962 L6132 360" stroke-width="18"/></g></g><g data-id="a4fdn4p" data-class="note" class="note"><g data-class="notehead" class="notehead"><use href="#E0A4-ik48cq" transform="translate(6786, 1350) scale(0.72, 0.72)"/></g><g data-id="jiynkaz" data-class="stem" class="stem"><path d="M7003 1322 L7003 720" stroke-width="18"/></g></g><g data-id="b7h6gjs" data-class="note" class="note"><g data-class="notehead" class="notehead"><use href="#E0A4-ik48cq" transform="translate(7658, 990) scale(0.72, 0.72)"/></g><g data-id="kg0bago" data-class="stem" class="stem"><path d="M7875 962 L7875 360" stroke-width="18"/></g></g><g data-id="czigu9d" data-class="note" class="note"><g data-class="notehead" class="notehead"><use href="#E0A4-ik48cq" transform="translate(8529, 1350) scale(0.72, 0.72)"/></g><g data-id="mnffc5h" data-class="dots" class="dots"><ellipse cx="8845" cy="1350" rx="36" ry="36" fill-opacity="1" stroke-opacity="1"/></g><g data-id="l1dj5aeu" data-class="stem" class="stem"><path d="M8746 1322 L8746 720" stroke-width="18"/><g data-id="nxb3zeh" data-class="flag" class="flag"><use href="#E240-ik48cq" transform="translate(8737, 720) scale(0.72, 0.72)"/></g></g></g><g data-id="dwp0ta9" data-class="note" class="note"><g data-class="notehead" class="notehead"><use href="#E0A4-ik48cq" transform="translate(9262, 1350) scale(0.72, 0.72)"/></g><g data-id="o1cv82mj" data-class="stem" class="stem"><path d="M9479 1322 L9479 720" stroke-width="18"/><g data-id="p1cgfzcz" data-class="flag" class="flag"><use href="#E242-ik48cq" transform="translate(9470, 720) scale(0.72, 0.72)"/></g></g></g></g></g><g data-id="a1dzosq3" data-class="barLine" class="barLine"><path d="M9815 540 L9815 1260" stroke-width="27"/></g></g><g data-id="bvsqpqz" data-class="measure" class="measure"><g data-id="k1tp1ugp" data-class="staff" class="staff"><path d="M9828 540 L14002 540" stroke-width="13"/><path d="M9828 720 L14002 720" stroke-width="13"/><path d="M9828 900 L14002 900" stroke-width="13"/><path d="M9828 1080 L14002 1080" stroke-width="13"/><path d="M9828 1260 L14002 1260" stroke-width="13"/><g data-id="l12tgx7g" data-class="layer" class="layer"><g data-id="e1by19g7" data-class="note" class="note"><g data-class="notehead" class="notehead"><use href="#E0A4-ik48cq" transform="translate(10024, 900) scale(0.72, 0.72)"/></g><g data-id="q1129gnv" data-class="stem" class="stem"><path d="M10033 928 L10033 1500" stroke-width="18"/></g><g data-id="nmyaof6" data-class="accid" class="accid"/></g><g data-id="ma2c57e" data-class="beam" class="beam"><polygon stroke-opacity="1" fill-opacity="1" points="11103,450 11854,360 11854,450 11103,540"/><polygon stroke-opacity="1" fill-opacity="1" points="11628,521 11854,495 11854,585 11628,611"/><g data-id="f1eh65uw" data-class="note" class="note"><g data-class="notehead" class="notehead"><use href="#E0A4-ik48cq" transform="translate(10895, 1080) scale(0.72, 0.72)"/></g><g data-id="s1bsgi9a" data-class="dots" class="dots"><ellipse cx="11211" cy="990" rx="36" ry="36" fill-opacity="1" stroke-opacity="1"/></g><g data-id="rbv5d04" data-class="stem" class="stem"><path d="M11112 1052 L11112 468" stroke-width="18"/></g></g><g data-id="g5fpe0s" data-class="note" class="note"><g data-class="notehead" class="notehead"><use href="#E0A4-ik48cq" transform="translate(11628, 990) scale(0.72, 0.72)"/></g><g data-id="t1fxartg" data-class="stem" class="stem"><path d="M11845 962 L11845 378" stroke-width="18"/></g></g></g><g data-id="h1v7wox2" data-class="note" class="note"><g data-class="notehead" class="notehead"><use href="#E0A4-ik48cq" transform="translate(12006, 900) scale(0.72, 0.72)"/></g><g data-id="unrm04i" data-class="stem" class="stem"><path d="M12015 928 L12015 1500" stroke-width="18"/></g><g data-id="olw8771" data-class="accid" class="accid"/></g><g data-id="i17kqqtb" data-class="note" class="note"><g data-class="notehead" class="notehead"><use href="#E0A4-ik48cq" transform="translate(12878, 1080) scale(0.72, 0.72)"/></g><g data-id="w1n1opa1" data-class="dots" class="dots"><ellipse cx="13352" cy="990" rx="36" ry="36" fill-opacity="1" stroke-opacity="1"/></g><g data-id="vsdefww" data-class="stem" class="stem"><path d="M13095 1052 L13095 450" stroke-width="18"/><g data-id="x1wcwsxc" data-class="flag" class="flag"><use href="#E240-ik48cq" transform="translate(13086, 450) scale(0.72, 0.72)"/></g></g></g><g data-id="js7atqk" data-class="note" class="note"><g data-class="notehead" class="notehead"><use href="#E0A4-ik48cq" transform="translate(13611, 900) scale(0.72, 0.72)"/></g><g data-id="yqepk4c" data-class="stem" class="stem"><path d="M13620 928 L13620 1500" stroke-width="18"/><g data-id="z1frz9rl" data-class="flag" class="flag"><use href="#E243-ik48cq" transform="translate(13611, 1500) scale(0.72, 0.72)"/></g></g><g data-id="p9cn3zz" data-class="accid" class="accid"/></g></g></g><g data-id="j1txw44w" data-class="barLine" class="barLine"><path d="M13989 540 L13989 1260" stroke-width="27"/></g></g></g></g></svg></svg>