<svg viewBox="0 0 560 84" version="1.1" xmlns="http://www.w3.org/2000/svg" xmlns:xlink="http://www.w3.org/1999/xlink" overflow="visible" id="v1w52vvq"><desc>Engraved by Verovio 5.6.0-85e7620</desc><defs><g id="E050-v1w52vvq"><path transform="scale(1,-1)" d="M441 -245c-23 -4 -48 -6 -76 -6c-59 0 -102 7 -130 20c-88 42 -150 93 -187 154c-26 44 -43 103 -48 176c0 6 -1 13 -1 19c0 54 15 111 45 170c29 57 65 106 110 148s96 85 153 127c-3 16 -8 46 -13 92c-4 43 -5 73 -5 89c0 117 16 172 69 257c34 54 64 82 89 82 c21 0 43 -30 69 -92s39 -115 41 -159v-15c0 -109 -21 -162 -67 -241c-13 -20 -63 -90 -98 -118c-13 -9 -25 -19 -37 -29l31 -181c8 1 18 2 28 2c58 0 102 -12 133 -35c59 -43 92 -104 98 -184c1 -7 1 -15 1 -22c0 -123 -87 -209 -181 -248c8 -57 17 -110 25 -162 c5 -31 6 -58 6 -80c0 -30 -5 -53 -14 -70c-35 -64 -88 -99 -158 -103c-5 0 -11 -1 -16 -1c-37 0 -72 10 -108 27c-50 24 -77 59 -80 105v11c0 29 7 55 20 76c18 28 45 42 79 44h6c49 0 93 -42 97 -87v-9c0 -51 -34 -86 -105 -106c17 -24 51 -36 102 -36c62 0 116 43 140 85 c9 16 13 41 13 74c0 20 -1 42 -5 67c-8 53 -18 106 -26 159zM461 939c-95 0 -135 -175 -135 -286c0 -24 2 -48 5 -71c50 39 92 82 127 128c40 53 60 100 60 140v8c-4 53 -22 81 -55 81h-2zM406 119l54 -326c73 25 110 78 110 161c0 7 0 15 -1 23c-7 95 -57 142 -151 142h-12 zM382 117c-72 -2 -128 -47 -128 -120v-7c2 -46 43 -99 75 -115c-3 -2 -7 -5 -10 -10c-70 33 -116 88 -123 172v11c0 68 44 126 88 159c23 17 49 29 78 36l-29 170c-21 -13 -52 -37 -92 -73c-50 -44 -86 -84 -109 -119c-45 -69 -67 -130 -67 -182v-13c5 -68 35 -127 93 -176 s125 -73 203 -73c25 0 50 3 75 9c-19 111 -36 221 -54 331z"/></g><g id="E260-v1w52vvq"><path transform="scale(1,-1)" d="M20 110c32 16 54 27 93 27c26 0 35 -3 54 -13c13 -7 24 -20 27 -38l4 -25c0 -28 -16 -57 -45 -89c-23 -25 -39 -44 -65 -68l-88 -79v644h20v-359zM90 106c-32 0 -48 -10 -70 -29v-194c31 31 54 59 71 84c21 32 32 59 32 84c0 9 1 16 1 20c0 14 -3 21 -11 30l-8 3z"/></g><g id="E08A-v1w52vvq"><path transform="scale(1,-1)" d="M340 179c-9 24 -56 41 -89 41c-46 0 -81 -28 -100 -58c-17 -28 -25 -78 -25 -150c0 -65 2 -111 8 -135c8 -31 18 -49 40 -67c20 -17 43 -25 70 -25c54 0 92 36 115 75c14 25 23 54 28 88h27c0 -63 -24 -105 -58 -141c-35 -38 -82 -56 -140 -56c-45 0 -83 13 -115 39 c-57 45 -101 130 -101 226c0 59 33 127 68 163c36 37 97 72 160 72c36 0 93 -21 121 -40c11 -8 23 -17 33 -30c19 -23 27 -48 27 -76c0 -51 -35 -88 -86 -88c-43 0 -76 27 -76 68c0 26 7 35 21 51c15 17 32 27 58 32c7 2 14 7 14 11z"/></g><g id="E0A4-v1w52vvq"><path transform="scale(1,-1)" d="M0 -39c0 68 73 172 200 172c66 0 114 -37 114 -95c0 -84 -106 -171 -218 -171c-64 0 -96 30 -96 94z"/></g><g id="E241-v1w52vvq"><path transform="scale(1,-1)" d="M179 646c-4 8 -17 30 -18 33l-4 10c0 3 2 5 5 5s7 -2 13 -7c23 -33 46 -81 66 -132c22 -57 35 -125 35 -163c0 -104 -60 -183 -122 -241c-63 -59 -57 -53 -61 -56c-38 -34 -63 -95 -71 -95h-22v190c40 7 69 11 87 16c88 27 168 95 168 200c0 30 -12 89 -30 138 c-17 47 -31 73 -46 102z"/></g><g id="E261-v1w52vvq"><path transform="scale(1,-1)" d="M0 -188v539h18v-191l139 22v-533h-17v186zM18 -100l122 17v176l-122 -19v-174z"/></g><g id="E243-v1w52vvq"><path transform="scale(1,-1)" d="M216 730c-5 8 -10 13 -11 16l-4 10c0 3 2 5 5 5s7 -2 13 -7c35 -42 57 -101 57 -172c0 -34 -6 -65 -17 -94c10 -31 17 -64 17 -96c0 -104 -60 -183 -122 -241c-63 -59 -57 -53 -61 -56c-38 -34 -63 -95 -71 -95h-22v190v190c40 7 69 11 87 16c116 36 175 111 175 197 c0 44 -15 91 -46 137zM248 463c-23 -48 -58 -89 -94 -122c-63 -59 -57 -53 -61 -56c-30 -27 -44 -71 -53 -88c20 3 36 6 47 9c88 27 168 95 168 200c0 19 -3 39 -7 57z"/></g></defs><style type="text/css">#v1w52vvq g.page-margin {font-family:Times,serif;}#v1w52vvq g.ending, #v1w52vvq g.fing, #v1w52vvq g.reh, #v1w52vvq g.tempo {font-weight:bold;}#v1w52vvq g.dir, #v1w52vvq g.dynam, #v1w52vvq g.mNum {font-style:italic;}#v1w52vvq g.label {font-weight:normal;}#v1w52vvq path {stroke:currentColor}</style><svg class="definition-scale" color="black" viewBox="0 0 14000 2100"><g class="page-margin" transform="translate(0, 150)"><g data-id="l1kfgp98" data-class="mdiv" class="mdiv pageMilestone"/><g data-id="m1dlcuje" data-class="score" class="score pageMilestone"/><g data-id="n18etdaa" data-class="system" class="system"><g data-id="o1efb2c5" data-class="section" class="section systemMilestone"/><g data-id="w1710o6f" data-class="measure" class="measure"><g data-id="axxs68p" data-class="staff" class="staff"><path d="M0 540 L2850 540" stroke-width="13"/><path d="M0 720 L2850 720" stroke-width="13"/><path d="M0 900 L2850 900" stroke-width="13"/><path d="M0 1080 L2850 1080" stroke-width="13"/><path d="M0 1260 L2850 1260" stroke-width="13"/><g data-id="rkczmwx" data-class="clef" class="clef"><use href="#E050-v1w52vvq" transform="translate(90, 1080) scale(0.72, 0.72)"/></g><g data-id="ss86ixo" data-class="keySig" class="keySig"><g data-id="t1c8n30s" data-class="keyAccid" class="keyAccid"><use href="#E260-v1w52vvq" transform="translate(735, 900) scale(0.72, 0.72)"/></g><g data-id="ujk90wm" data-class="keyAccid" class="keyAccid"><use href="#E260-v1w52vvq" transform="translate(915, 630) scale(0.72, 0.72)"/></g><g data-id="v1dbebe" data-class="keyAccid" class="keyAccid"><use href="#E260-v1w52vvq" transform="translate(1095, 990) scale(0.72, 0.72)"/></g></g><g data-id="w1yrymxk" data-class="meterSig" class="meterSig"><use href="#E08A-v1w52vvq" transform="translate(1417, 900) scale(0.72, 0.72)"/></g><g data-id="bjckgau" data-class="layer" class="layer"><g data-id="pwi1he3" data-class="note" class="note"><g data-class="notehead" class="notehead"><use href="#E0A4-v1w52vvq" transform="translate(1998, 1080) scale(0.72, 0.72)"/></g><g data-id="x37k13q" data-class="stem" class="stem"><path d="M2215 1052 L2215 450" stroke-width="18"/></g></g></g></g><g data-id="e1tiam79" data-class="barLine" class="barLine"><path d="M2837 540 L2837 1260" stroke-width="27"/></g></g><g data-id="fs1rk7o" data-class="measure" class="measure"><g data-id="c18pfdsn" data-class="staff" class="staff"><path d="M2850 540 L6645 540" stroke-width="13"/><path d="M2850 720 L6645 720" stroke-width="13"/><path d="M2850 900 L6645 900" stroke-width="13"/><path d="M2850 1080 L6645 1080" stroke-width="13"/><path d="M2850 1260 L6645 1260" stroke-width="13"/><g data-id="d631pdy" data-class="layer" class="layer"><g data-id="q14qh7q6" data-class="note" class="note"><g data-class="notehead" class="notehead"><use href="#E0A4-v1w52vvq" transform="translate(3043, 630) scale(0.72, 0.72)"/></g><g data-id="y1yzo1jm" data-class="stem" class="stem"><path d="M3052 658 L3052 1260" stroke-width="18"/></g><g data-id="i5lhqzk" data-class="accid" class="accid"/></g><g data-id="rqshfoz" data-class="note" class="note"><g data-class="notehead" class="notehead"><use href="#E0A4-v1w52vvq" transform="translate(3882, 720) scale(0.72, 0.72)"/></g><g data-id="z1r8zdzv" data-class="stem" class="stem"><path d="M3891 748 L3891 1350" stroke-width="18"/></g></g><g data-id="s1nuqbb1" data-class="note" class="note"><g data-class="notehead" class="notehead"><use href="#E0A4-v1w52vvq" transform="translate(4721, 810) scale(0.72, 0.72)"/></g><g data-id="amxfxu8" data-class="stem" class="stem"><path d="M4730 838 L4730 1440" stroke-width="18"/></g></g><g data-id="td5eena" data-class="note" class="note"><g data-class="notehead" class="notehead"><use href="#E0A4-v1w52vvq" transform="translate(5561, 900) scale(0.72, 0.72)"/></g><g data-id="cdanv59" data-class="dots" class="dots"><ellipse cx="5877" cy="810" rx="36" ry="36" fill-opacity="1" stroke-opacity="1"/></g><g data-id="b1o7qesl" data-class="stem" class="stem"><path d="M5570 928 L5570 1500" stroke-width="18"/><g data-id="d1vlsn8i" data-class="flag" class="flag"><use href="#E241-v1w52vvq" transform="translate(5561, 1500) scale(0.72, 0.72)"/></g></g><g data-id="gp6m3m7" data-class="accid" class="accid"><use href="#E261-v1w52vvq" transform="translate(5403, 900) scale(0.72, 0.72)"/></g></g><g data-id="ur1cwza" data-class="note" class="note"><g data-class="notehead" class="notehead"><use href="#E0A4-v1w52vvq" transform="translate(6266, 810) scale(0.72, 0.72)"/></g><g data-id="e18z61nf" data-class="stem" class="stem"><path d="M6275 838 L6275 1440" stroke-width="18"/><g data-id="f1000ged" data-class="flag" class="flag"><use href="#E243-v1w52vvq" transform="translate(6266, 1440) scale(0.72, 0.72)"/></g></g></g></g></g><g data-id="ngxx3hl" data-class="barLine" class="barLine"><path d="M6632 540 L6632 1260" stroke-width="27"/></g></g><g data-id="o8jy6fp" data-class="measure" class="measure"><g data-id="euvbph1" data-class="staff" class="staff"><path d="M6645 540 L10208 540" stroke-width="13"/><path d="M6645 720 L10208 720" stroke-width="13"/><path d="M6645 900 L10208 900" stroke-width="13"/><path d="M6645 1080 L10208 1080" stroke-width="13"/><path d="M6645 1260 L10208 1260" stroke-width="13"/><g data-id="fef08h" data-class="layer" class="layer"><g data-id="vdff083" data-class="note" class="note"><g data-class="notehead" class="notehead"><use href="#E0A4-v1w52vvq" transform="translate(6838, 720) scale(0.72, 0.72)"/></g><g data-id="g1lajf9d" data-class="stem" class="stem"><path d="M6847 748 L6847 1350" stroke-width="18"/></g></g><g data-id="w1w9nn27" data-class="note" class="note"><g data-class="notehead" class="notehead"><use href="#E0A4-v1w52vvq" transform="translate(7677, 1080) scale(0.72, 0.72)"/></g><g data-id="h1jd6h11" data-class="stem" class="stem"><path d="M7894 1052 L7894 450" stroke-width="18"/></g></g><g data-id="x1jkroup" data-class="note" class="note"><g data-class="notehead" class="notehead"><use href="#E0A4-v1w52vvq" transform="translate(8516, 810) scale(0.72, 0.72)"/></g><g data-id="igyx4yd" data-class="stem" class="stem"><path d="M8525 838 L8525 1440" stroke-width="18"/></g></g><g data-id="y18cxrbo" data-class="note" class="note"><g data-class="notehead" class="notehead"><use href="#E0A4-v1w52vvq" transform="translate(9356, 1080) scale(0.72, 0.72)"/></g><g data-id="j4v3sxv" data-class="stem" class="stem"><path d="M9573 1052 L9573 450" stroke-width="18"/></g></g></g></g><g data-id="wuj3r2l" data-class="barLine" class="barLine"><path d="M10195 540 L10195 1260" stroke-width="27"/></g></g><g data-id="xc0ms0e" data-class="measure" class="measure"><g data-id="gkg09yg" data-class="staff" class="staff"><path d="M10208 540 L14003 540" stroke-width="13"/><path d="M10208 720 L14003 720" stroke-width="13"/><path d="M10208 900 L14003 900" stroke-width="13"/><path d="M10208 1080 L14003 1080" stroke-width="13"/><path d="M10208 1260 L14003 1260" stroke-width="13"/><g data-id="hf60tnw" data-class="layer" class="layer"><g data-id="z1swrhkk" data-class="note" class="note"><g data-class="notehead" class="notehead"><use href="#E0A4-v1w52vvq" transform="translate(10401, 810) scale(0.72, 0.72)"/></g><g data-id="k1wc1wmz" data-class="stem" class="stem"><path d="M10410 838 L10410 1440" stroke-width="18"/></g></g><g data-id="a16tt8ht" data-class="note" class="note"><g data-class="notehead" class="notehead"><use href="#E0A4-v1w52vvq" transform="translate(11240, 900) scale(0.72, 0.72)"/></g><g data-id="m1r433xw" data-class="dots" class="dots"><ellipse cx="11556" cy="810" rx="36" ry="36" fill-opacity="1" stroke-opacity="1"/></g><g data-id="lbh0cf8" data-class="stem" class="stem"><path d="M11249 928 L11249 1500" stroke-width="18"/><g data-id="n1i1dvkz" data-class="flag" class="flag"><use href="#E241-v1w52vvq" transform="translate(11240, 1500) scale(0.72, 0.72)"/></g></g><g data-id="h1kzn9cu" data-class="accid" class="accid"><use href="#E261-v1w52vvq" transform="translate(11082, 900) scale(0.72, 0.72)"/></g></g><g data-id="bcu9tsu" data-class="note" class="note"><g data-class="notehead" class="notehead"><use href="#E0A4-v1w52vvq" transform="translate(11946, 810) scale(0.72, 0.72)"/></g><g data-id="ombfa4o" data-class="stem" class="stem"><path d="M11955 838 L11955 1440" stroke-width="18"/><g data-id="p1vaupwy" data-class="flag" class="flag"><use href="#E243-v1w52vvq" transform="translate(11946, 1440) scale(0.72, 0.72)"/></g></g></g><g data-id="c14e12uw" data-class="note" class="note"><g data-class="notehead" class="notehead"><use href="#E0A4-v1w52vvq" transform="translate(12311, 720) scale(0.72, 0.72)"/></g><g data-id="q1fkp09w" data-class="stem" class="stem"><path d="M12320 748 L12320 1350" stroke-width="18"/></g></g><g data-id="d125rjqq" data-class="note" class="note"><g data-class="notehead" class="notehead"><use href="#E0A4-v1w52vvq" transform="translate(13150, 1080) scale(0.72, 0.72)"/></g><g data-id="r1xfhpvs" data-class="stem" class="stem"><path d="M13367 1052 L13367 450" stroke-width="18"/></g></g></g></g><g data-id="f1ku05ks" data-class="barLine" class="barLine"><path d="M13990 540 L13990 1260" stroke-width="27"/></g></g></g></g></svg></svg>