<svg viewBox="0 0 560 84" version="1.1" xmlns="http://www.w3.org/2000/svg" xmlns:xlink="http://www.w3.org/1999/xlink" overflow="visible" id="l1j0o8z0"><desc>Engraved by Verovio 5.6.0-85e7620</desc><defs><g id="E050-l1j0o8z0"><path transform="scale(1,-1)" d="M441 -245c-23 -4 -48 -6 -76 -6c-59 0 -102 7 -130 20c-88 42 -150 93 -187 154c-26 44 -43 103 -48 176c0 6 -1 13 -1 19c0 54 15 111 45 170c29 57 65 106 110 148s96 85 153 127c-3 16 -8 46 -13 92c-4 43 -5 73 -5 89c0 117 16 172 69 257c34 54 64 82 89 82 c21 0 43 -30 69 -92s39 -115 41 -159v-15c0 -109 -21 -162 -67 -241c-13 -20 -63 -90 -98 -118c-13 -9 -25 -19 -37 -29l31 -181c8 1 18 2 28 2c58 0 102 -12 133 -35c59 -43 92 -104 98 -184c1 -7 1 -15 1 -22c0 -123 -87 -209 -181 -248c8 -57 17 -110 25 -162 c5 -31 6 -58 6 -80c0 -30 -5 -53 -14 -70c-35 -64 -88 -99 -158 -103c-5 0 -11 -1 -16 -1c-37 0 -72 10 -108 27c-50 24 -77 59 -80 105v11c0 29 7 55 20 76c18 28 45 42 79 44h6c49 0 93 -42 97 -87v-9c0 -51 -34 -86 -105 -106c17 -24 51 -36 102 -36c62 0 116 43 140 85 c9 16 13 41 13 74c0 20 -1 42 -5 67c-8 53 -18 106 -26 159zM461 939c-95 0 -135 -175 -135 -286c0 -24 2 -48 5 -71c50 39 92 82 127 128c40 53 60 100 60 140v8c-4 53 -22 81 -55 81h-2zM406 119l54 -326c73 25 110 78 110 161c0 7 0 15 -1 23c-7 95 -57 142 -151 142h-12 zM382 117c-72 -2 -128 -47 -128 -120v-7c2 -46 43 -99 75 -115c-3 -2 -7 -5 -10 -10c-70 33 -116 88 -123 172v11c0 68 44 126 88 159c23 17 49 29 78 36l-29 170c-21 -13 -52 -37 -92 -73c-50 -44 -86 -84 -109 -119c-45 -69 -67 -130 -67 -182v-13c5 -68 35 -127 93 -176 s125 -73 203 -73c25 0 50 3 75 9c-19 111 -36 221 -54 331z"/></g><g id="E262-l1j0o8z0"><path transform="scale(1,-1)" d="M136 186v169h17v-164l44 14v-91l-44 -14v-165l44 12v-91l-44 -13v-155h-17v150l-76 -22v-155h-17v149l-43 -13v90l43 14v167l-43 -14v92l43 13v169h17v-163zM60 73v-167l76 22v168z"/></g><g id="E082-l1j0o8z0"><path transform="scale(1,-1)" d="M124 -185c-18 0 -55 -14 -65 -65h-36l-3 30c0 25 6 45 18 63c11 19 22 30 39 43l121 82l37 29c15 11 27 29 38 54c12 24 18 47 18 70c0 40 -19 88 -94 88c-25 0 -32 0 -50 -8c-14 -5 -23 -12 -26 -22c3 -9 7 -15 10 -18l24 -17c12 -7 17 -11 27 -21c5 -7 7 -16 7 -27 c0 -12 0 -57 -79 -74c-30 0 -76 26 -76 94c0 66 81 135 197 135c72 0 181 -32 181 -150c0 -53 -32 -95 -113 -133l-91 -41c-26 -11 -45 -23 -57 -37l49 7c84 0 115 -41 148 -41c20 0 33 20 39 61h35c0 -152 -68 -168 -114 -168c-17 0 -65 0 -79 7h10l-28 17 c-49 37 -69 40 -87 42z"/></g><g id="E084-l1j0o8z0"><path transform="scale(1,-1)" d="M20 -78c84 97 114 180 134 329h170c-13 -32 -82 -132 -99 -151l-84 -97c-33 -36 -59 -63 -80 -81h162v102l127 123v-225h57v-39h-57v-34c0 -43 19 -65 57 -65v-34h-244v36c48 0 60 26 60 70v27h-203v39z"/></g><g id="E0A4-l1j0o8z0"><path transform="scale(1,-1)" d="M0 -39c0 68 73 172 200 172c66 0 114 -37 114 -95c0 -84 -106 -171 -218 -171c-64 0 -96 30 -96 94z"/></g><g id="E240-l1j0o8z0"><path transform="scale(1,-1)" d="M179 -646c15 29 29 55 46 102c18 49 30 108 30 138c0 105 -80 173 -168 200c-18 5 -47 9 -87 16v190h22c8 0 33 -61 71 -95c4 -3 -2 3 61 -56c62 -58 122 -137 122 -241c0 -38 -13 -106 -35 -163c-20 -51 -43 -99 -66 -132c-6 -5 -10 -7 -13 -7s-5 2 -5 5l4 10 c1 3 14 25 18 33z"/></g><g id="E242-l1j0o8z0"><path transform="scale(1,-1)" d="M206 -748c32 48 49 100 49 149c0 89 -55 168 -168 203c-18 5 -47 9 -87 16v190v190h22c8 0 33 -61 71 -95c4 -3 -2 3 61 -56c62 -58 122 -137 122 -241c0 -32 -7 -65 -17 -96c11 -29 17 -60 17 -94c0 -71 -32 -148 -67 -190c-6 -5 -10 -7 -13 -7s-5 2 -5 5l4 10 c1 3 6 8 11 16zM248 -463c4 18 7 38 7 57c0 105 -80 173 -168 200c-11 3 -27 6 -47 9c9 -17 23 -61 53 -88c4 -3 -2 3 61 -56c36 -33 71 -74 94 -122z"/></g><g id="E241-l1j0o8z0"><path transform="scale(1,-1)" d="M179 646c-4 8 -17 30 -18 33l-4 10c0 3 2 5 5 5s7 -2 13 -7c23 -33 46 -81 66 -132c22 -57 35 -125 35 -163c0 -104 -60 -183 -122 -241c-63 -59 -57 -53 -61 -56c-38 -34 -63 -95 -71 -95h-22v190c40 7 69 11 87 16c88 27 168 95 168 200c0 30 -12 89 -30 138 c-17 47 -31 73 -46 102z"/></g><g id="E243-l1j0o8z0"><path transform="scale(1,-1)" d="M216 730c-5 8 -10 13 -11 16l-4 10c0 3 2 5 5 5s7 -2 13 -7c35 -42 57 -101 57 -172c0 -34 -6 -65 -17 -94c10 -31 17 -64 17 -96c0 -104 -60 -183 -122 -241c-63 -59 -57 -53 -61 -56c-38 -34 -63 -95 -71 -95h-22v190v190c40 7 69 11 87 16c116 36 175 111 175 197 c0 44 -15 91 -46 137zM248 463c-23 -48 -58 -89 -94 -122c-63 -59 -57 -53 -61 -56c-30 -27 -44 -71 -53 -88c20 3 36 6 47 9c88 27 168 95 168 200c0 19 -3 39 -7 57z"/></g></defs><style type="text/css">#l1j0o8z0 g.page-margin {font-family:Times,serif;}#l1j0o8z0 g.ending, #l1j0o8z0 g.fing, #l1j0o8z0 g.reh, #l1j0o8z0 g.tempo {font-weight:bold;}#l1j0o8z0 g.dir, #l1j0o8z0 g.dynam, #l1j0o8z0 g.mNum {font-style:italic;}#l1j0o8z0 g.label {font-weight:normal;}#l1j0o8z0 path {stroke:currentColor}</style><svg class="definition-scale" color="black" viewBox="0 0 14000 2100"><g class="page-margin" transform="translate(0, 150)"><g data-id="b1g4jvkk" data-class="mdiv" class="mdiv pageMilestone"/><g data-id="c9hhn2u" data-class="score" class="score pageMilestone"/><g data-id="v16au8l1" data-class="system" class="system"><g data-id="ecv8r93" data-class="section" class="section systemMilestone"/><g data-id="m121kzf9" data-class="measure" class="measure"><g data-id="q1a73q4n" data-class="staff" class="staff"><path d="M0 540 L2896 540" stroke-width="13"/><path d="M0 720 L2896 720" stroke-width="13"/><path d="M0 900 L2896 900" stroke-width="13"/><path d="M0 1080 L2896 1080" stroke-width="13"/><path d="M0 1260 L2896 1260" stroke-width="13"/><g data-id="bbv29yx" data-class="clef" class="clef"><use href="#E050-l1j0o8z0" transform="translate(90, 1080) scale(0.72, 0.72)"/></g><g data-id="c1kct88r" data-class="keySig" class="keySig"><g data-id="d1q38ag7" data-class="keyAccid" class="keyAccid"><use href="#E262-l1j0o8z0" transform="translate(735, 540) scale(0.72, 0.72)"/></g><g data-id="edauyam" data-class="keyAccid" class="keyAccid"><use href="#E262-l1j0o8z0" transform="translate(913, 810) scale(0.72, 0.72)"/></g></g><g data-id="fe1skld" data-class="meterSig" class="meterSig"><use href="#E082-l1j0o8z0" transform="translate(1220, 720) scale(0.72, 0.72)"/><use href="#E084-l1j0o8z0" transform="translate(1225, 1080) scale(0.72, 0.72)"/></g><g data-id="r1xsrdck" data-class="layer" class="layer"><g data-id="ft29i2n" data-class="note" class="note"><g data-class="notehead" class="notehead"><use href="#E0A4-l1j0o8z0" transform="translate(1793, 1350) scale(0.72, 0.72)"/></g><g data-id="ng18mir" data-class="dots" class="dots"><ellipse cx="2109" cy="1350" rx="36" ry="36" fill-opacity="1" stroke-opacity="1"/></g><g data-id="mc2zka0" data-class="stem" class="stem"><path d="M2010 1322 L2010 720" stroke-width="18"/><g data-id="o12bn6n4" data-class="flag" class="flag"><use href="#E240-l1j0o8z0" transform="translate(2001, 720) scale(0.72, 0.72)"/></g></g></g><g data-id="g1jptrhl" data-class="note" class="note"><g data-class="notehead" class="notehead"><use href="#E0A4-l1j0o8z0" transform="translate(2373, 1350) scale(0.72, 0.72)"/></g><g data-id="phes8sk" data-class="stem" class="stem"><path d="M2590 1322 L2590 720" stroke-width="18"/><g data-id="q7wcxdn" data-class="flag" class="flag"><use href="#E242-l1j0o8z0" transform="translate(2581, 720) scale(0.72, 0.72)"/></g></g></g></g></g><g data-id="uzoe1h1" data-class="barLine" class="barLine"><path d="M2883 540 L2883 1260" stroke-width="27"/></g></g><g data-id="v134hvmn" data-class="measure" class="measure"><g data-id="suatajc" data-class="staff" class="staff"><path d="M2896 540 L5125 540" stroke-width="13"/><path d="M2896 720 L5125 720" stroke-width="13"/><path d="M2896 900 L5125 900" stroke-width="13"/><path d="M2896 1080 L5125 1080" stroke-width="13"/><path d="M2896 1260 L5125 1260" stroke-width="13"/><g data-id="t1ctjivx" data-class="layer" class="layer"><g data-id="h60y0oc" data-class="note" class="note"><g data-class="notehead" class="notehead"><use href="#E0A4-l1j0o8z0" transform="translate(3076, 1170) scale(0.72, 0.72)"/></g><g data-id="r1vi8iz9" data-class="stem" class="stem"><path d="M3293 1142 L3293 540" stroke-width="18"/><g data-id="s1476frs" data-class="flag" class="flag"><use href="#E240-l1j0o8z0" transform="translate(3284, 540) scale(0.72, 0.72)"/></g></g><g data-id="u1ec27gu" data-class="accid" class="accid"/></g><g data-id="ir3vzs1" data-class="note" class="note"><g data-class="notehead" class="notehead"><use href="#E0A4-l1j0o8z0" transform="translate(3526, 1170) scale(0.72, 0.72)"/></g><g data-id="tsrm4ep" data-class="stem" class="stem"><path d="M3743 1142 L3743 540" stroke-width="18"/><g data-id="u1q3ge87" data-class="flag" class="flag"><use href="#E240-l1j0o8z0" transform="translate(3734, 540) scale(0.72, 0.72)"/></g></g><g data-id="vzxwlza" data-class="accid" class="accid"/></g><g data-id="jh81lqh" data-class="note" class="note"><g data-class="notehead" class="notehead"><use href="#E0A4-l1j0o8z0" transform="translate(4022, 990) scale(0.72, 0.72)"/></g><g data-id="w132lged" data-class="dots" class="dots"><ellipse cx="4338" cy="990" rx="36" ry="36" fill-opacity="1" stroke-opacity="1"/></g><g data-id="v1hv5eyx" data-class="stem" class="stem"><path d="M4239 962 L4239 360" stroke-width="18"/><g data-id="x1whbvhn" data-class="flag" class="flag"><use href="#E240-l1j0o8z0" transform="translate(4230, 360) scale(0.72, 0.72)"/></g></g></g><g data-id="kca0hik" data-class="note" class="note"><g data-class="notehead" class="notehead"><use href="#E0A4-l1j0o8z0" transform="translate(4602, 1080) scale(0.72, 0.72)"/></g><g data-id="yj71611" data-class="stem" class="stem"><path d="M4819 1052 L4819 450" stroke-width="18"/><g data-id="zdp9t0o" data-class="flag" class="flag"><use href="#E242-l1j0o8z0" transform="translate(4810, 450) scale(0.72, 0.72)"/></g></g></g></g></g><g data-id="dgqrqji" data-class="barLine" class="barLine"><path d="M5112 540 L5112 1260" stroke-width="27"/></g></g><g data-id="e18pozbq" data-class="measure" class="measure"><g data-id="u635rp5" data-class="staff" class="staff"><path d="M5125 540 L7098 540" stroke-width="13"/><path d="M5125 720 L7098 720" stroke-width="13"/><path d="M5125 900 L7098 900" stroke-width="13"/><path d="M5125 1080 L7098 1080" stroke-width="13"/><path d="M5125 1260 L7098 1260" stroke-width="13"/><g data-id="v1fxc86x" data-class="layer" class="layer"><g data-id="ll6rkwb" data-class="note" class="note"><g data-class="notehead" class="notehead"><use href="#E0A4-l1j0o8z0" transform="translate(5305, 1170) scale(0.72, 0.72)"/></g><g data-id="a9lxjwd" data-class="stem" class="stem"><path d="M5522 1142 L5522 540" stroke-width="18"/></g><g data-id="wb0w3n7" data-class="accid" class="accid"/></g><g data-id="mfevr1x" data-class="note" class="note"><g data-class="notehead" class="notehead"><use href="#E0A4-l1j0o8z0" transform="translate(5995, 1170) scale(0.72, 0.72)"/></g><g data-id="ci52ndv" data-class="dots" class="dots"><ellipse cx="6311" cy="1170" rx="36" ry="36" fill-opacity="1" stroke-opacity="1"/></g><g data-id="bse2bhj" data-class="stem" class="stem"><path d="M6212 1142 L6212 540" stroke-width="18"/><g data-id="dzbm29m" data-class="flag" class="flag"><use href="#E240-l1j0o8z0" transform="translate(6203, 540) scale(0.72, 0.72)"/></g></g><g data-id="x1pojpyf" data-class="accid" class="accid"/></g><g data-id="nx8b17q" data-class="note" class="note"><g data-class="notehead" class="notehead"><use href="#E0A4-l1j0o8z0" transform="translate(6575, 1170) scale(0.72, 0.72)"/></g><g data-id="eyl5pgz" data-class="stem" class="stem"><path d="M6792 1142 L6792 540" stroke-width="18"/><g data-id="f21poek" data-class="flag" class="flag"><use href="#E242-l1j0o8z0" transform="translate(6783, 540) scale(0.72, 0.72)"/></g></g><g data-id="yp94jeq" data-class="accid" class="accid"/></g></g></g><g data-id="m1al9gct" data-class="barLine" class="barLine"><path d="M7085 540 L7085 1260" stroke-width="27"/></g></g><g data-id="n5kk8co" data-class="measure" class="measure"><g data-id="wg3ujt6" data-class="staff" class="staff"><path d="M7098 540 L9147 540" stroke-width="13"/><path d="M7098 720 L9147 720" stroke-width="13"/><path d="M7098 900 L9147 900" stroke-width="13"/><path d="M7098 1080 L9147 1080" stroke-width="13"/><path d="M7098 1260 L9147 1260" stroke-width="13"/><g data-id="xow0vdr" data-class="layer" class="layer"><g data-id="o7xrim6" data-class="note" class="note"><g data-class="notehead" class="notehead"><use href="#E0A4-l1j0o8z0" transform="translate(7278, 1080) scale(0.72, 0.72)"/></g><g data-id="g1ekwwbq" data-class="stem" class="stem"><path d="M7495 1052 L7495 450" stroke-width="18"/><g data-id="h1ocq62r" data-class="flag" class="flag"><use href="#E240-l1j0o8z0" transform="translate(7486, 450) scale(0.72, 0.72)"/></g></g></g><g data-id="prnxvop" data-class="note" class="note"><g data-class="notehead" class="notehead"><use href="#E0A4-l1j0o8z0" transform="translate(7774, 900) scale(0.72, 0.72)"/></g><g data-id="izhdzbt" data-class="stem" class="stem"><path d="M7783 928 L7783 1500" stroke-width="18"/><g data-id="j8zc1e0" data-class="flag" class="flag"><use href="#E241-l1j0o8z0" transform="translate(7774, 1500) scale(0.72, 0.72)"/></g></g></g><g data-id="q1whlbt8" data-class="note" class="note"><g data-class="notehead" class="notehead"><use href="#E0A4-l1j0o8z0" transform="translate(8224, 720) scale(0.72, 0.72)"/></g><g data-id="l1ko6i12" data-class="dots" class="dots"><ellipse cx="8540" cy="630" rx="36" ry="36" fill-opacity="1" stroke-opacity="1"/></g><g data-id="k1amurd6" data-class="stem" class="stem"><path d="M8233 748 L8233 1350" stroke-width="18"/><g data-id="m17uernu" data-class="flag" class="flag"><use href="#E241-l1j0o8z0" transform="translate(8224, 1350) scale(0.72, 0.72)"/></g></g></g><g data-id="r1e5l92c" data-class="note" class="note"><g data-class="notehead" class="notehead"><use href="#E0A4-l1j0o8z0" transform="translate(8804, 720) scale(0.72, 0.72)"/></g><g data-id="n49l39y" data-class="stem" class="stem"><path d="M8813 748 L8813 1350" stroke-width="18"/><g data-id="o1lb4wc2" data-class="flag" class="flag"><use href="#E243-l1j0o8z0" transform="translate(8804, 1350) scale(0.72, 0.72)"/></g></g></g></g></g><g data-id="vt8v6te" data-class="barLine" class="barLine"><path d="M9134 540 L9134 1260" stroke-width="27"/></g></g><g data-id="wns1ukx" data-class="measure" class="measure"><g data-id="y1arobbl" data-class="staff" class="staff"><path d="M9147 540 L10227 540" stroke-width="13"/><path d="M9147 720 L10227 720" stroke-width="13"/><path d="M9147 900 L10227 900" stroke-width="13"/><path d="M9147 1080 L10227 1080" stroke-width="13"/><path d="M9147 1260 L10227 1260" stroke-width="13"/><g data-id="zljj08n" data-class="layer" class="layer"><g data-id="s1vrgowr" data-class="note" class="note"><g data-class="notehead" class="notehead"><use href="#E0A4-l1j0o8z0" transform="translate(9327, 720) scale(0.72, 0.72)"/></g><g data-id="p1w0hn94" data-class="stem" class="stem"><path d="M9336 748 L9336 1350" stroke-width="18"/><g data-id="q1803neg" data-class="flag" class="flag"><use href="#E241-l1j0o8z0" transform="translate(9327, 1350) scale(0.72, 0.72)"/></g></g></g><g data-id="t10cpt9g" data-class="note" class="note"><g data-class="notehead" class="notehead"><use href="#E0A4-l1j0o8z0" transform="translate(9777, 810) scale(0.72, 0.72)"/></g><g data-id="r1s22q89" data-class="stem" class="stem"><path d="M9786 838 L9786 1440" stroke-width="18"/><g data-id="s1hen417" data-class="flag" class="flag"><use href="#E241-l1j0o8z0" transform="translate(9777, 1440) scale(0.72, 0.72)"/></g></g><g data-id="z1lkgrkb" data-class="accid" class="accid"/></g></g></g><g data-id="e155y319" data-class="barLine" class="barLine"/></g><g data-id="hubog87" data-class="systemMilestoneEnd" class="systemMilestoneEnd ecv8r93"/></g><g data-id="imbpju4" data-class="pageMilestoneEnd" class="pageMilestoneEnd c9hhn2u"/><g data-id="j1c911l6" data-class="pageMilestoneEnd" class="pageMilestoneEnd b1g4jvkk"/></g></svg></svg>