<svg viewBox="0 0 560 84" version="1.1" xmlns="http://www.w3.org/2000/svg" xmlns:xlink="http://www.w3.org/1999/xlink" overflow="visible" id="b1jxsd8j"><desc>Engraved by Verovio 5.6.0-85e7620</desc><defs><g id="E050-b1jxsd8j"><path transform="scale(1,-1)" d="M441 -245c-23 -4 -48 -6 -76 -6c-59 0 -102 7 -130 20c-88 42 -150 93 -187 154c-26 44 -43 103 -48 176c0 6 -1 13 -1 19c0 54 15 111 45 170c29 57 65 106 110 148s96 85 153 127c-3 16 -8 46 -13 92c-4 43 -5 73 -5 89c0 117 16 172 69 257c34 54 64 82 89 82 c21 0 43 -30 69 -92s39 -115 41 -159v-15c0 -109 -21 -162 -67 -241c-13 -20 -63 -90 -98 -118c-13 -9 -25 -19 -37 -29l31 -181c8 1 18 2 28 2c58 0 102 -12 133 -35c59 -43 92 -104 98 -184c1 -7 1 -15 1 -22c0 -123 -87 -209 -181 -248c8 -57 17 -110 25 -162 c5 -31 6 -58 6 -80c0 -30 -5 -53 -14 -70c-35 -64 -88 -99 -158 -103c-5 0 -11 -1 -16 -1c-37 0 -72 10 -108 27c-50 24 -77 59 -80 105v11c0 29 7 55 20 76c18 28 45 42 79 44h6c49 0 93 -42 97 -87v-9c0 -51 -34 -86 -105 -106c17 -24 51 -36 102 -36c62 0 116 43 140 85 c9 16 13 41 13 74c0 20 -1 42 -5 67c-8 53 -18 106 -26 159zM461 939c-95 0 -135 -175 -135 -286c0 -24 2 -48 5 -71c50 39 92 82 127 128c40 53 60 100 60 140v8c-4 53 -22 81 -55 81h-2zM406 119l54 -326c73 25 110 78 110 161c0 7 0 15 -1 23c-7 95 -57 142 -151 142h-12 zM382 117c-72 -2 -128 -47 -128 -120v-7c2 -46 43 -99 75 -115c-3 -2 -7 -5 -10 -10c-70 33 -116 88 -123 172v11c0 68 44 126 88 159c23 17 49 29 78 36l-29 170c-21 -13 -52 -37 -92 -73c-50 -44 -86 -84 -109 -119c-45 -69 -67 -130 -67 -182v-13c5 -68 35 -127 93 -176 s125 -73 203 -73c25 0 50 3 75 9c-19 111 -36 221 -54 331z"/></g><g id="E262-b1jxsd8j"><path transform="scale(1,-1)" d="M136 186v169h17v-164l44 14v-91l-44 -14v-165l44 12v-91l-44 -13v-155h-17v150l-76 -22v-155h-17v149l-43 -13v90l43 14v167l-43 -14v92l43 13v169h17v-163zM60 73v-167l76 22v168z"/></g><g id="E08A-b1jxsd8j"><path transform="scale(1,-1)" d="M340 179c-9 24 -56 41 -89 41c-46 0 -81 -28 -100 -58c-17 -28 -25 -78 -25 -150c0 -65 2 -111 8 -135c8 -31 18 -49 40 -67c20 -17 43 -25 70 -25c54 0 92 36 115 75c14 25 23 54 28 88h27c0 -63 -24 -105 -58 -141c-35 -38 -82 -56 -140 -56c-45 0 -83 13 -115 39 c-57 45 -101 130 -101 226c0 59 33 127 68 163c36 37 97 72 160 72c36 0 93 -21 121 -40c11 -8 23 -17 33 -30c19 -23 27 -48 27 -76c0 -51 -35 -88 -86 -88c-43 0 -76 27 -76 68c0 26 7 35 21 51c15 17 32 27 58 32c7 2 14 7 14 11z"/></g><g id="E0A4-b1jxsd8j"><path transform="scale(1,-1)" d="M0 -39c0 68 73 172 200 172c66 0 114 -37 114 -95c0 -84 -106 -171 -218 -171c-64 0 -96 30 -96 94z"/></g><g id="E0A3-b1jxsd8j"><path transform="scale(1,-1)" d="M278 64c0 22 -17 39 -43 39c-12 0 -26 -3 -41 -10c-85 -43 -165 -94 -165 -156c5 -25 15 -32 49 -32c67 11 200 95 200 159zM0 -36c0 68 73 174 200 174c66 0 114 -39 114 -97c0 -84 -106 -173 -218 -173c-64 0 -96 32 -96 96z"/></g><g id="E4C0-b1jxsd8j"><path transform="scale(1,-1)" d="M0 0c0 0 40 320 300 320s300 -320 300 -320h-32s-38 227 -268 227s-268 -227 -268 -227h-32zM355 52c0 -30 -25 -55 -55 -55s-55 25 -55 55s25 55 55 55s55 -25 55 -55z"/></g><g id="E044-b1jxsd8j"><path transform="scale(1,-1)" d="M0 0c0 28 22 50 50 50s50 -22 50 -50s-22 -50 -50 -50s-50 22 -50 50z"/></g></defs><style type="text/css">#b1jxsd8j g.page-margin {font-family:Times,serif;}#b1jxsd8j g.ending, #b1jxsd8j g.fing, #b1jxsd8j g.reh, #b1jxsd8j g.tempo {font-weight:bold;}#b1jxsd8j g.dir, #b1jxsd8j g.dynam, #b1jxsd8j g.mNum {font-style:italic;}#b1jxsd8j g.label {font-weight:normal;}#b1jxsd8j path {stroke:currentColor}</style><svg class="definition-scale" color="black" viewBox="0 0 14000 2100"><g class="page-margin" transform="translate(0, 150)"><g data-id="c1uj3t7k" data-class="mdiv" class="mdiv pageMilestone"/><g data-id="d1p4q2yd" data-class="score" class="score pageMilestone"/><g data-id="i9texel" data-class="system" class="system"><g data-id="fh751de" data-class="section" class="section systemMilestone"/><g data-id="c1tx8z94" data-class="measure" class="measure"><g data-id="r1bohpa1" data-class="staff" class="staff"><path d="M0 540 L4451 540" stroke-width="13"/><path d="M0 720 L4451 720" stroke-width="13"/><path d="M0 900 L4451 900" stroke-width="13"/><path d="M0 1080 L4451 1080" stroke-width="13"/><path d="M0 1260 L4451 1260" stroke-width="13"/><g data-id="o1lnxb16" data-class="clef" class="clef"><use href="#E050-b1jxsd8j" transform="translate(90, 1080) scale(0.72, 0.72)"/></g><g data-id="pv4vrca" data-class="keySig" class="keySig"><g data-id="q1rqb9ti" data-class="keyAccid" class="keyAccid"><use href="#E262-b1jxsd8j" transform="translate(735, 540) scale(0.72, 0.72)"/></g><g data-id="rcc0moo" data-class="keyAccid" class="keyAccid"><use href="#E262-b1jxsd8j" transform="translate(913, 810) scale(0.72, 0.72)"/></g></g><g data-id="s1ia8cjk" data-class="meterSig" class="meterSig"><use href="#E08A-b1jxsd8j" transform="translate(1234, 900) scale(0.72, 0.72)"/></g><g data-id="sznfu3g" data-class="layer" class="layer"><g data-id="d8hu52l" data-class="note" class="note"><g data-class="notehead" class="notehead"><use href="#E0A4-b1jxsd8j" transform="translate(1802, 720) scale(0.72, 0.72)"/></g><g data-id="jfn92nl" data-class="stem" class="stem"><path d="M1811 748 L1811 1350" stroke-width="18"/></g></g><g data-id="qlqso3e" data-class="beam" class="beam"><polygon stroke-opacity="1" fill-opacity="1" points="2492,1440 3090,1530 3090,1440 2492,1350"/><polygon stroke-opacity="1" fill-opacity="1" points="2864,1362 3090,1395 3090,1305 2864,1272"/><g data-id="eec5s1s" data-class="note" class="note"><g data-class="notehead" class="notehead"><use href="#E0A4-b1jxsd8j" transform="translate(2492, 810) scale(0.72, 0.72)"/></g><g data-id="lkq4e0v" data-class="dots" class="dots"><ellipse cx="2808" cy="810" rx="36" ry="36" fill-opacity="1" stroke-opacity="1"/></g><g data-id="kf9mmz6" data-class="stem" class="stem"><path d="M2501 838 L2501 1422" stroke-width="18"/></g><g data-id="toldudu" data-class="accid" class="accid"/></g><g data-id="f12g6t1e" data-class="note" class="note"><g data-class="notehead" class="notehead"><use href="#E0A4-b1jxsd8j" transform="translate(3072, 900) scale(0.72, 0.72)"/></g><g data-id="m69z0ga" data-class="stem" class="stem"><path d="M3081 928 L3081 1512" stroke-width="18"/></g></g></g><g data-id="gesyh6" data-class="note" class="note"><g data-class="notehead" class="notehead"><use href="#E0A3-b1jxsd8j" transform="translate(3388, 540) scale(0.72, 0.72)"/></g><g data-id="n1uzxye3" data-class="stem" class="stem"><path d="M3397 565 L3397 1170" stroke-width="18"/></g><g data-id="utytokv" data-class="accid" class="accid"/></g></g></g><g data-id="k1ro2obg" data-class="barLine" class="barLine"><path d="M4438 540 L4438 1260" stroke-width="27"/></g></g><g data-id="l395dps" data-class="measure" class="measure"><g data-id="t1di3ag8" data-class="staff" class="staff"><path d="M4451 540 L7515 540" stroke-width="13"/><path d="M4451 720 L7515 720" stroke-width="13"/><path d="M4451 900 L7515 900" stroke-width="13"/><path d="M4451 1080 L7515 1080" stroke-width="13"/><path d="M4451 1260 L7515 1260" stroke-width="13"/><g data-id="u1f9yaaz" data-class="layer" class="layer"><g data-id="h1x41l3t" data-class="note" class="note"><g data-class="notehead" class="notehead"><use href="#E0A4-b1jxsd8j" transform="translate(4631, 720) scale(0.72, 0.72)"/></g><g data-id="okbfgz" data-class="stem" class="stem"><path d="M4640 748 L4640 1350" stroke-width="18"/></g></g><g data-id="r1cbetjp" data-class="beam" class="beam"><polygon stroke-opacity="1" fill-opacity="1" points="5321,1440 5919,1530 5919,1440 5321,1350"/><polygon stroke-opacity="1" fill-opacity="1" points="5693,1362 5919,1395 5919,1305 5693,1272"/><g data-id="ip0iras" data-class="note" class="note"><g data-class="notehead" class="notehead"><use href="#E0A4-b1jxsd8j" transform="translate(5321, 810) scale(0.72, 0.72)"/></g><g data-id="q1os8q7q" data-class="dots" class="dots"><ellipse cx="5637" cy="810" rx="36" ry="36" fill-opacity="1" stroke-opacity="1"/></g><g data-id="pwqggu9" data-class="stem" class="stem"><path d="M5330 838 L5330 1422" stroke-width="18"/></g><g data-id="v64xwel" data-class="accid" class="accid"/></g><g data-id="jrntzjl" data-class="note" class="note"><g data-class="notehead" class="notehead"><use href="#E0A4-b1jxsd8j" transform="translate(5901, 900) scale(0.72, 0.72)"/></g><g data-id="r3bwbpl" data-class="stem" class="stem"><path d="M5910 928 L5910 1512" stroke-width="18"/></g></g></g><g data-id="k1ys59la" data-class="note" class="note"><g data-class="notehead" class="notehead"><use href="#E0A3-b1jxsd8j" transform="translate(6217, 540) scale(0.72, 0.72)"/></g><g data-id="s3bv64" data-class="stem" class="stem"><path d="M6226 565 L6226 1170" stroke-width="18"/></g><g data-id="w782ee6" data-class="accid" class="accid"/></g></g></g><g data-id="p1uclv9e" data-class="fermata" class="fermata"><use href="#E4C0-b1jxsd8j" transform="translate(6114, 394) scale(0.72, 0.72)"/></g><g data-id="t1kn8xxa" data-class="barLine" class="barLine"><path d="M7267 540 L7267 1260" stroke-width="90"/><path d="M7397 540 L7397 1260" stroke-width="27"/><use href="#E044-b1jxsd8j" transform="translate(7443, 810) scale(0.72, 0.72)"/><use href="#E044-b1jxsd8j" transform="translate(7443, 990) scale(0.72, 0.72)"/></g></g><g data-id="u1ku686f" data-class="measure" class="measure"><g data-id="v1vns1t9" data-class="staff" class="staff"><path d="M7515 540 L9971 540" stroke-width="13"/><path d="M7515 720 L9971 720" stroke-width="13"/><path d="M7515 900 L9971 900" stroke-width="13"/><path d="M7515 1080 L9971 1080" stroke-width="13"/><path d="M7515 1260 L9971 1260" stroke-width="13"/><g data-id="w1wfbd4f" data-class="layer" class="layer"><g data-id="l1iaffln" data-class="note" class="note"><g data-class="notehead" class="notehead"><use href="#E0A4-b1jxsd8j" transform="translate(7695, 1170) scale(0.72, 0.72)"/></g><g data-id="t6yime" data-class="stem" class="stem"><path d="M7912 1142 L7912 540" stroke-width="18"/></g><g data-id="x11b4irg" data-class="accid" class="accid"/></g><g data-id="s3rbeu5" data-class="beam" class="beam"><polygon stroke-opacity="1" fill-opacity="1" points="8593,540 9191,540 9191,630 8593,630"/><polygon stroke-opacity="1" fill-opacity="1" points="8965,675 9191,675 9191,765 8965,765"/><g data-id="m108c6bl" data-class="note" class="note"><g data-class="notehead" class="notehead"><use href="#E0A4-b1jxsd8j" transform="translate(8385, 1170) scale(0.72, 0.72)"/></g><g data-id="v1xcjgh0" data-class="dots" class="dots"><ellipse cx="8701" cy="1170" rx="36" ry="36" fill-opacity="1" stroke-opacity="1"/></g><g data-id="u1l7mdvb" data-class="stem" class="stem"><path d="M8602 1142 L8602 558" stroke-width="18"/></g><g data-id="y18e8qh8" data-class="accid" class="accid"/></g><g data-id="n1bhlvdn" data-class="note" class="note"><g data-class="notehead" class="notehead"><use href="#E0A4-b1jxsd8j" transform="translate(8965, 1170) scale(0.72, 0.72)"/></g><g data-id="walisdp" data-class="stem" class="stem"><path d="M9182 1142 L9182 558" stroke-width="18"/></g><g data-id="zgyj7wq" data-class="accid" class="accid"/></g></g><g data-id="o8yjt9c" data-class="note" class="note"><g data-class="notehead" class="notehead"><use href="#E0A4-b1jxsd8j" transform="translate(9281, 1170) scale(0.72, 0.72)"/></g><g data-id="x1pa014" data-class="stem" class="stem"><path d="M9498 1142 L9498 540" stroke-width="18"/></g><g data-id="a14sx8cc" data-class="accid" class="accid"/></g></g></g><g data-id="cnjpzct" data-class="barLine" class="barLine"/></g><g data-id="e1grxl75" data-class="systemMilestoneEnd" class="systemMilestoneEnd fh751de"/></g><g data-id="fmvu8gr" data-class="pageMilestoneEnd" class="pageMilestoneEnd d1p4q2yd"/><g data-id="g1ocyxxo" data-class="pageMilestoneEnd" class="pageMilestoneEnd c1uj3t7k"/></g></svg></svg>