<svg viewBox="0 0 560 84" version="1.1" xmlns="http://www.w3.org/2000/svg" xmlns:xlink="http://www.w3.org/1999/xlink" overflow="visible" id="p1fb4fga"><desc>Engraved by Verovio 5.6.0-85e7620</desc><defs><g id="E050-p1fb4fga"><path transform="scale(1,-1)" d="M441 -245c-23 -4 -48 -6 -76 -6c-59 0 -102 7 -130 20c-88 42 -150 93 -187 154c-26 44 -43 103 -48 176c0 6 -1 13 -1 19c0 54 15 111 45 170c29 57 65 106 110 148s96 85 153 127c-3 16 -8 46 -13 92c-4 43 -5 73 -5 89c0 117 16 172 69 257c34 54 64 82 89 82 c21 0 43 -30 69 -92s39 -115 41 -159v-15c0 -109 -21 -162 -67 -241c-13 -20 -63 -90 -98 -118c-13 -9 -25 -19 -37 -29l31 -181c8 1 18 2 28 2c58 0 102 -12 133 -35c59 -43 92 -104 98 -184c1 -7 1 -15 1 -22c0 -123 -87 -209 -181 -248c8 -57 17 -110 25 -162 c5 -31 6 -58 6 -80c0 -30 -5 -53 -14 -70c-35 -64 -88 -99 -158 -103c-5 0 -11 -1 -16 -1c-37 0 -72 10 -108 27c-50 24 -77 59 -80 105v11c0 29 7 55 20 76c18 28 45 42 79 44h6c49 0 93 -42 97 -87v-9c0 -51 -34 -86 -105 -106c17 -24 51 -36 102 -36c62 0 116 43 140 85 c9 16 13 41 13 74c0 20 -1 42 -5 67c-8 53 -18 106 -26 159zM461 939c-95 0 -135 -175 -135 -286c0 -24 2 -48 5 -71c50 39 92 82 127 128c40 53 60 100 60 140v8c-4 53 -22 81 -55 81h-2zM406 119l54 -326c73 25 110 78 110 161c0 7 0 15 -1 23c-7 95 -57 142 -151 142h-12 zM382 117c-72 -2 -128 -47 -128 -120v-7c2 -46 43 -99 75 -115c-3 -2 -7 -5 -10 -10c-70 33 -116 88 -123 172v11c0 68 44 126 88 159c23 17 49 29 78 36l-29 170c-21 -13 -52 -37 -92 -73c-50 -44 -86 -84 -109 -119c-45 -69 -67 -130 -67 -182v-13c5 -68 35 -127 93 -176 s125 -73 203 -73c25 0 50 3 75 9c-19 111 -36 221 -54 331z"/></g><g id="E260-p1fb4fga"><path transform="scale(1,-1)" d="M20 110c32 16 54 27 93 27c26 0 35 -3 54 -13c13 -7 24 -20 27 -38l4 -25c0 -28 -16 -57 -45 -89c-23 -25 -39 -44 -65 -68l-88 -79v644h20v-359zM90 106c-32 0 -48 -10 -70 -29v-194c31 31 54 59 71 84c21 32 32 59 32 84c0 9 1 16 1 20c0 14 -3 21 -11 30l-8 3z"/></g><g id="E08A-p1fb4fga"><path transform="scale(1,-1)" d="M340 179c-9 24 -56 41 -89 41c-46 0 -81 -28 -100 -58c-17 -28 -25 -78 -25 -150c0 -65 2 -111 8 -135c8 -31 18 -49 40 -67c20 -17 43 -25 70 -25c54 0 92 36 115 75c14 25 23 54 28 88h27c0 -63 -24 -105 -58 -141c-35 -38 -82 -56 -140 -56c-45 0 -83 13 -115 39 c-57 45 -101 130 -101 226c0 59 33 127 68 163c36 37 97 72 160 72c36 0 93 -21 121 -40c11 -8 23 -17 33 -30c19 -23 27 -48 27 -76c0 -51 -35 -88 -86 -88c-43 0 -76 27 -76 68c0 26 7 35 21 51c15 17 32 27 58 32c7 2 14 7 14 11z"/></g><g id="E0A3-p1fb4fga"><path transform="scale(1,-1)" d="M278 64c0 22 -17 39 -43 39c-12 0 -26 -3 -41 -10c-85 -43 -165 -94 -165 -156c5 -25 15 -32 49 -32c67 11 200 95 200 159zM0 -36c0 68 73 174 200 174c66 0 114 -39 114 -97c0 -84 -106 -173 -218 -173c-64 0 -96 32 -96 96z"/></g><g id="E0A4-p1fb4fga"><path transform="scale(1,-1)" d="M0 -39c0 68 73 172 200 172c66 0 114 -37 114 -95c0 -84 -106 -171 -218 -171c-64 0 -96 30 -96 94z"/></g><g id="E4E5-p1fb4fga"><path transform="scale(1,-1)" d="M107 292c-13 24 -30 49 -52 71c-1 1 0 2 0 3l-2 2c3 3 4 4 6 4c12 0 26 -7 40 -20s44 -40 89 -81c26 -24 28 -29 46 -47c4 -4 8 -9 10 -14c6 -8 8 -16 8 -27c0 -19 -12 -40 -36 -61c-28 -23 -49 -38 -61 -73c-4 -11 -7 -27 -10 -50c13 -43 34 -83 59 -121 c31 -47 59 -79 101 -129c-8 0 -26 7 -54 20l-62 29l-21 6l-23 1c-25 0 -45 -10 -60 -30l-4 -14l-1 -12c0 -33 20 -56 39 -78c8 -9 17 -18 26 -26c17 -15 27 -24 28 -30l-3 -3c-11 5 -19 10 -25 15c-9 3 -37 21 -45 26c-24 14 -45 32 -63 51c-19 21 -37 44 -37 71 c0 63 27 95 80 95c41 0 86 -18 136 -52c-19 26 -37 48 -55 66c-23 23 -48 44 -73 65c-28 23 -47 40 -58 53s-17 26 -18 39c75 64 113 125 113 183c0 27 -7 48 -18 68z"/></g><g id="E4E4-p1fb4fga"><path transform="scale(1,-1)" d="M0 10v105c0 9 1 10 10 10h280c9 0 10 -1 10 -10v-105c0 -9 -1 -10 -10 -10h-280c-9 0 -10 1 -10 10z"/></g></defs><style type="text/css">#p1fb4fga g.page-margin {font-family:Times,serif;}#p1fb4fga g.ending, #p1fb4fga g.fing, #p1fb4fga g.reh, #p1fb4fga g.tempo {font-weight:bold;}#p1fb4fga g.dir, #p1fb4fga g.dynam, #p1fb4fga g.mNum {font-style:italic;}#p1fb4fga g.label {font-weight:normal;}#p1fb4fga path {stroke:currentColor}</style><svg class="definition-scale" color="black" viewBox="0 0 14000 2100"><g class="page-margin" transform="translate(0, 150)"><g data-id="x13d99na" data-class="mdiv" class="mdiv pageMilestone"/><g data-id="yzy4bph" data-class="score" class="score pageMilestone"/><g data-id="i3di1vt" data-class="system" class="system"><g data-id="a18d23df" data-class="section" class="section systemMilestone"/><g data-id="qy044qi" data-class="measure" class="measure"><g data-id="m8zb1op" data-class="staff" class="staff"><path d="M0 540 L3821 540" stroke-width="13"/><path d="M0 720 L3821 720" stroke-width="13"/><path d="M0 900 L3821 900" stroke-width="13"/><path d="M0 1080 L3821 1080" stroke-width="13"/><path d="M0 1260 L3821 1260" stroke-width="13"/><g data-id="ey1ndu7" data-class="clef" class="clef"><use href="#E050-p1fb4fga" transform="translate(90, 1080) scale(0.72, 0.72)"/></g><g data-id="fcwpund" data-class="keySig" class="keySig"><g data-id="gmx751o" data-class="keyAccid" class="keyAccid"><use href="#E260-p1fb4fga" transform="translate(735, 900) scale(0.72, 0.72)"/></g></g><g data-id="hm4u38g" data-class="meterSig" class="meterSig"><use href="#E08A-p1fb4fga" transform="translate(1057, 900) scale(0.72, 0.72)"/></g><g data-id="n1uarkzc" data-class="layer" class="layer"><g data-id="fjm6asd" data-class="note" class="note"><g data-class="notehead" class="notehead"><use href="#E0A3-p1fb4fga" transform="translate(1635, 720) scale(0.72, 0.72)"/></g><g data-id="l7i4jbt" data-class="stem" class="stem"><path d="M1644 745 L1644 1350" stroke-width="18"/></g></g><g data-id="g1kutovm" data-class="note" class="note"><g data-class="notehead" class="notehead"><use href="#E0A3-p1fb4fga" transform="translate(2721, 720) scale(0.72, 0.72)"/></g><g data-id="m1n8m7zs" data-class="stem" class="stem"><path d="M2730 745 L2730 1350" stroke-width="18"/></g></g></g></g><g data-id="u1h386sr" data-class="tie" class="tie"><path d="M2992,675 C3229,522 3726,522 3966,675 C3714,570 3241,570 2992,675" stroke-linecap="round" stroke-linejoin="round" stroke-width="9"/></g><g data-id="y89w6up" data-class="barLine" class="barLine"><path d="M3808 540 L3808 1260" stroke-width="27"/></g></g><g data-id="z6x2zmp" data-class="measure" class="measure"><g data-id="o8h5z9c" data-class="staff" class="staff"><path d="M3821 540 L6536 540" stroke-width="13"/><path d="M3821 720 L6536 720" stroke-width="13"/><path d="M3821 900 L6536 900" stroke-width="13"/><path d="M3821 1080 L6536 1080" stroke-width="13"/><path d="M3821 1260 L6536 1260" stroke-width="13"/><g data-id="p1gwpik7" data-class="layer" class="layer"><g data-id="hj86u0q" data-class="note" class="note"><g data-class="notehead" class="notehead"><use href="#E0A4-p1fb4fga" transform="translate(4011, 720) scale(0.72, 0.72)"/></g><g data-id="n1tdsldh" data-class="stem" class="stem"><path d="M4020 748 L4020 1350" stroke-width="18"/></g></g><g data-id="b1kgkoyt" data-class="rest" class="rest"><use href="#E4E5-p1fb4fga" transform="translate(4724, 900) scale(0.72, 0.72)"/></g><g data-id="c1g4fh44" data-class="rest" class="rest"><use href="#E4E4-p1fb4fga" transform="translate(5437, 900) scale(0.72, 0.72)"/><g data-class="ledgerLines" class="ledgerLines"/></g></g></g><g data-id="hoi89y7" data-class="barLine" class="barLine"><path d="M6523 540 L6523 1260" stroke-width="27"/></g></g><g data-id="ijx8saj" data-class="measure" class="measure"><g data-id="q10cf0wy" data-class="staff" class="staff"><path d="M6536 540 L8912 540" stroke-width="13"/><path d="M6536 720 L8912 720" stroke-width="13"/><path d="M6536 900 L8912 900" stroke-width="13"/><path d="M6536 1080 L8912 1080" stroke-width="13"/><path d="M6536 1260 L8912 1260" stroke-width="13"/><g data-id="r1hikdhp" data-class="layer" class="layer"><g data-id="i178rwkz" data-class="note" class="note"><g data-class="notehead" class="notehead"><use href="#E0A3-p1fb4fga" transform="translate(6726, 630) scale(0.72, 0.72)"/></g><g data-id="ofknwp3" data-class="stem" class="stem"><path d="M6735 655 L6735 1260" stroke-width="18"/></g></g><g data-id="jma74ub" data-class="note" class="note"><g data-class="notehead" class="notehead"><use href="#E0A3-p1fb4fga" transform="translate(7812, 630) scale(0.72, 0.72)"/></g><g data-id="p54637j" data-class="stem" class="stem"><path d="M7821 655 L7821 1260" stroke-width="18"/></g></g></g></g><g data-id="v1mj5zod" data-class="tie" class="tie"><path d="M8083,585 C8320,432 8817,432 9057,585 C8805,480 8332,480 8083,585" stroke-linecap="round" stroke-linejoin="round" stroke-width="9"/></g><g data-id="q1ihfc23" data-class="barLine" class="barLine"><path d="M8899 540 L8899 1260" stroke-width="27"/></g></g><g data-id="r1sfh3k1" data-class="measure" class="measure"><g data-id="stpsmtl" data-class="staff" class="staff"><path d="M8912 540 L11627 540" stroke-width="13"/><path d="M8912 720 L11627 720" stroke-width="13"/><path d="M8912 900 L11627 900" stroke-width="13"/><path d="M8912 1080 L11627 1080" stroke-width="13"/><path d="M8912 1260 L11627 1260" stroke-width="13"/><g data-id="tfjjlpu" data-class="layer" class="layer"><g data-id="kgdw1v9" data-class="note" class="note"><g data-class="notehead" class="notehead"><use href="#E0A4-p1fb4fga" transform="translate(9102, 630) scale(0.72, 0.72)"/></g><g data-id="q18c95au" data-class="stem" class="stem"><path d="M9111 658 L9111 1260" stroke-width="18"/></g></g><g data-id="d17rkb5z" data-class="rest" class="rest"><use href="#E4E5-p1fb4fga" transform="translate(9815, 900) scale(0.72, 0.72)"/></g><g data-id="e19c0hnt" data-class="rest" class="rest"><use href="#E4E4-p1fb4fga" transform="translate(10528, 900) scale(0.72, 0.72)"/><g data-class="ledgerLines" class="ledgerLines"/></g></g></g><g data-id="z1tlx7im" data-class="barLine" class="barLine"><path d="M11614 540 L11614 1260" stroke-width="27"/></g></g><g data-id="a1u169m0" data-class="measure" class="measure"><g data-id="ud6m9k3" data-class="staff" class="staff"><path d="M11627 540 L14003 540" stroke-width="13"/><path d="M11627 720 L14003 720" stroke-width="13"/><path d="M11627 900 L14003 900" stroke-width="13"/><path d="M11627 1080 L14003 1080" stroke-width="13"/><path d="M11627 1260 L14003 1260" stroke-width="13"/><g data-id="v15aru5l" data-class="layer" class="layer"><g data-id="lg173gz" data-class="note" class="note"><g data-class="notehead" class="notehead"><use href="#E0A3-p1fb4fga" transform="translate(11817, 630) scale(0.72, 0.72)"/></g><g data-id="rlq7gx4" data-class="stem" class="stem"><path d="M11826 655 L11826 1260" stroke-width="18"/></g></g><g data-id="m1hgqu0l" data-class="note" class="note"><g data-class="notehead" class="notehead"><use href="#E0A3-p1fb4fga" transform="translate(12903, 540) scale(0.72, 0.72)"/></g><g data-id="s13zgvck" data-class="stem" class="stem"><path d="M12912 565 L12912 1170" stroke-width="18"/></g></g></g></g><g data-id="i1bywbsr" data-class="barLine" class="barLine"><path d="M13990 540 L13990 1260" stroke-width="27"/></g></g></g></g></svg></svg>