<svg viewBox="0 0 560 84" version="1.1" xmlns="http://www.w3.org/2000/svg" xmlns:xlink="http://www.w3.org/1999/xlink" overflow="visible" id="difp7eo"><desc>Engraved by Verovio 5.6.0-85e7620</desc><defs><g id="E050-difp7eo"><path transform="scale(1,-1)" d="M441 -245c-23 -4 -48 -6 -76 -6c-59 0 -102 7 -130 20c-88 42 -150 93 -187 154c-26 44 -43 103 -48 176c0 6 -1 13 -1 19c0 54 15 111 45 170c29 57 65 106 110 148s96 85 153 127c-3 16 -8 46 -13 92c-4 43 -5 73 -5 89c0 117 16 172 69 257c34 54 64 82 89 82 c21 0 43 -30 69 -92s39 -115 41 -159v-15c0 -109 -21 -162 -67 -241c-13 -20 -63 -90 -98 -118c-13 -9 -25 -19 -37 -29l31 -181c8 1 18 2 28 2c58 0 102 -12 133 -35c59 -43 92 -104 98 -184c1 -7 1 -15 1 -22c0 -123 -87 -209 -181 -248c8 -57 17 -110 25 -162 c5 -31 6 -58 6 -80c0 -30 -5 -53 -14 -70c-35 -64 -88 -99 -158 -103c-5 0 -11 -1 -16 -1c-37 0 -72 10 -108 27c-50 24 -77 59 -80 105v11c0 29 7 55 20 76c18 28 45 42 79 44h6c49 0 93 -42 97 -87v-9c0 -51 -34 -86 -105 -106c17 -24 51 -36 102 -36c62 0 116 43 140 85 c9 16 13 41 13 74c0 20 -1 42 -5 67c-8 53 -18 106 -26 159zM461 939c-95 0 -135 -175 -135 -286c0 -24 2 -48 5 -71c50 39 92 82 127 128c40 53 60 100 60 140v8c-4 53 -22 81 -55 81h-2zM406 119l54 -326c73 25 110 78 110 161c0 7 0 15 -1 23c-7 95 -57 142 -151 142h-12 zM382 117c-72 -2 -128 -47 -128 -120v-7c2 -46 43 -99 75 -115c-3 -2 -7 -5 -10 -10c-70 33 -116 88 -123 172v11c0 68 44 126 88 159c23 17 49 29 78 36l-29 170c-21 -13 -52 -37 -92 -73c-50 -44 -86 -84 -109 -119c-45 -69 -67 -130 -67 -182v-13c5 -68 35 -127 93 -176 s125 -73 203 -73c25 0 50 3 75 9c-19 111 -36 221 -54 331z"/></g><g id="E260-difp7eo"><path transform="scale(1,-1)" d="M20 110c32 16 54 27 93 27c26 0 35 -3 54 -13c13 -7 24 -20 27 -38l4 -25c0 -28 -16 -57 -45 -89c-23 -25 -39 -44 -65 -68l-88 -79v644h20v-359zM90 106c-32 0 -48 -10 -70 -29v-194c31 31 54 59 71 84c21 32 32 59 32 84c0 9 1 16 1 20c0 14 -3 21 -11 30l-8 3z"/></g><g id="E083-difp7eo"><path transform="scale(1,-1)" d="M208 250c97 0 177 -52 177 -116c0 -69 -40 -111 -118 -125c56 -5 125 -44 125 -116c0 -31 -10 -57 -31 -78c-19 -21 -45 -38 -78 -49l-50 -11c-15 -3 -36 -7 -55 -7c-50 0 -86 16 -113 38c-16 10 -23 18 -34 34c-7 13 -11 25 -11 38c0 43 27 83 68 83l3 -2 c61 0 75 -42 75 -70c0 -19 -24 -42 -26 -57c7 -17 20 -25 37 -25c44 0 94 29 94 78c0 75 -34 125 -138 125v36c84 0 131 22 131 98c0 54 -37 88 -87 88c-26 0 -43 -7 -51 -22c15 -22 44 -16 44 -70c0 -37 -37 -62 -71 -62c-22 0 -69 15 -69 76c0 79 101 116 178 116z"/></g><g id="E088-difp7eo"><path transform="scale(1,-1)" d="M195 -214c76 0 88 58 90 68c0 34 -35 60 -57 73l-52 29c-21 10 -32 17 -34 20c-39 -33 -58 -54 -62 -92c5 -23 23 -98 115 -98zM301 135c0 61 -72 76 -113 76c-40 0 -77 -17 -77 -51c3 -21 15 -38 26 -50c17 -15 33 -26 48 -34l65 -28c34 27 51 56 51 87zM176 -250 c-57 0 -166 26 -166 132c0 47 30 86 89 116c-33 15 -79 60 -79 119c0 79 85 132 178 132h18c5 0 21 1 28 -1c25 0 126 -30 126 -110c0 -37 -23 -76 -69 -116c43 -25 83 -71 83 -119c0 -101 -118 -153 -208 -153z"/></g><g id="E0A4-difp7eo"><path transform="scale(1,-1)" d="M0 -39c0 68 73 172 200 172c66 0 114 -37 114 -95c0 -84 -106 -171 -218 -171c-64 0 -96 30 -96 94z"/></g><g id="E240-difp7eo"><path transform="scale(1,-1)" d="M179 -646c15 29 29 55 46 102c18 49 30 108 30 138c0 105 -80 173 -168 200c-18 5 -47 9 -87 16v190h22c8 0 33 -61 71 -95c4 -3 -2 3 61 -56c62 -58 122 -137 122 -241c0 -38 -13 -106 -35 -163c-20 -51 -43 -99 -66 -132c-6 -5 -10 -7 -13 -7s-5 2 -5 5l4 10 c1 3 14 25 18 33z"/></g><g id="E241-difp7eo"><path transform="scale(1,-1)" d="M179 646c-4 8 -17 30 -18 33l-4 10c0 3 2 5 5 5s7 -2 13 -7c23 -33 46 -81 66 -132c22 -57 35 -125 35 -163c0 -104 -60 -183 -122 -241c-63 -59 -57 -53 -61 -56c-38 -34 -63 -95 -71 -95h-22v190c40 7 69 11 87 16c88 27 168 95 168 200c0 30 -12 89 -30 138 c-17 47 -31 73 -46 102z"/></g><g id="E243-difp7eo"><path transform="scale(1,-1)" d="M216 730c-5 8 -10 13 -11 16l-4 10c0 3 2 5 5 5s7 -2 13 -7c35 -42 57 -101 57 -172c0 -34 -6 -65 -17 -94c10 -31 17 -64 17 -96c0 -104 -60 -183 -122 -241c-63 -59 -57 -53 -61 -56c-38 -34 -63 -95 -71 -95h-22v190v190c40 7 69 11 87 16c116 36 175 111 175 197 c0 44 -15 91 -46 137zM248 463c-23 -48 -58 -89 -94 -122c-63 -59 -57 -53 -61 -56c-30 -27 -44 -71 -53 -88c20 3 36 6 47 9c88 27 168 95 168 200c0 19 -3 39 -7 57z"/></g><g id="E242-difp7eo"><path transform="scale(1,-1)" d="M206 -748c32 48 49 100 49 149c0 89 -55 168 -168 203c-18 5 -47 9 -87 16v190v190h22c8 0 33 -61 71 -95c4 -3 -2 3 61 -56c62 -58 122 -137 122 -241c0 -32 -7 -65 -17 -96c11 -29 17 -60 17 -94c0 -71 -32 -148 -67 -190c-6 -5 -10 -7 -13 -7s-5 2 -5 5l4 10 c1 3 6 8 11 16zM248 -463c4 18 7 38 7 57c0 105 -80 173 -168 200c-11 3 -27 6 -47 9c9 -17 23 -61 53 -88c4 -3 -2 3 61 -56c36 -33 71 -74 94 -122z"/></g></defs><style type="text/css">#difp7eo g.page-margin {font-family:Times,serif;}#difp7eo g.ending, #difp7eo g.fing, #difp7eo g.reh, #difp7eo g.tempo {font-weight:bold;}#difp7eo g.dir, #difp7eo g.dynam, #difp7eo g.mNum {font-style:italic;}#difp7eo g.label {font-weight:normal;}#difp7eo path {stroke:currentColor}</style><svg class="definition-scale" color="black" viewBox="0 0 14000 2100"><g class="page-margin" transform="translate(0, 150)"><g data-id="f16ct8gs" data-class="mdiv" class="mdiv pageMilestone"/><g data-id="g15goc0r" data-class="score" class="score pageMilestone"/><g data-id="e1vfm7wv" data-class="system" class="system"><g data-id="iwfzdi" data-class="section" class="section systemMilestone"/><g data-id="e1w1ii3o" data-class="measure" class="measure"><g data-id="um382kp" data-class="staff" class="staff"><path d="M0 540 L2661 540" stroke-width="13"/><path d="M0 720 L2661 720" stroke-width="13"/><path d="M0 900 L2661 900" stroke-width="13"/><path d="M0 1080 L2661 1080" stroke-width="13"/><path d="M0 1260 L2661 1260" stroke-width="13"/><g data-id="i1vo76v0" data-class="clef" class="clef"><use href="#E050-difp7eo" transform="translate(90, 1080) scale(0.72, 0.72)"/></g><g data-id="j11mn593" data-class="keySig" class="keySig"><g data-id="kiyzx6u" data-class="keyAccid" class="keyAccid"><use href="#E260-difp7eo" transform="translate(735, 900) scale(0.72, 0.72)"/></g><g data-id="lifmmez" data-class="keyAccid" class="keyAccid"><use href="#E260-difp7eo" transform="translate(915, 630) scale(0.72, 0.72)"/></g><g data-id="m19v4pib" data-class="keyAccid" class="keyAccid"><use href="#E260-difp7eo" transform="translate(1095, 990) scale(0.72, 0.72)"/></g><g data-id="n16knftq" data-class="keyAccid" class="keyAccid"><use href="#E260-difp7eo" transform="translate(1275, 720) scale(0.72, 0.72)"/></g></g><g data-id="oq5r8cc" data-class="meterSig" class="meterSig"><use href="#E083-difp7eo" transform="translate(1587, 720) scale(0.72, 0.72)"/><use href="#E088-difp7eo" transform="translate(1590, 1080) scale(0.72, 0.72)"/></g><g data-id="v14ojnk3" data-class="layer" class="layer"><g data-id="g1r9451n" data-class="note" class="note"><g data-class="notehead" class="notehead"><use href="#E0A4-difp7eo" transform="translate(2138, 1260) scale(0.72, 0.72)"/></g><g data-id="uoc0zm1" data-class="stem" class="stem"><path d="M2355 1232 L2355 630" stroke-width="18"/><g data-id="v607sx5" data-class="flag" class="flag"><use href="#E240-difp7eo" transform="translate(2346, 630) scale(0.72, 0.72)"/></g></g><g data-id="v1kr77l1" data-class="accid" class="accid"/></g></g></g><g data-id="m114ixmm" data-class="barLine" class="barLine"><path d="M2648 540 L2648 1260" stroke-width="27"/></g></g><g data-id="nva66pw" data-class="measure" class="measure"><g data-id="w1dc60m3" data-class="staff" class="staff"><path d="M2661 540 L3994 540" stroke-width="13"/><path d="M2661 720 L3994 720" stroke-width="13"/><path d="M2661 900 L3994 900" stroke-width="13"/><path d="M2661 1080 L3994 1080" stroke-width="13"/><path d="M2661 1260 L3994 1260" stroke-width="13"/><g data-id="xeh4ih3" data-class="layer" class="layer"><g data-id="huirc2t" data-class="note" class="note"><g data-class="notehead" class="notehead"><use href="#E0A4-difp7eo" transform="translate(2841, 810) scale(0.72, 0.72)"/></g><g data-id="w1aqktyp" data-class="stem" class="stem"><path d="M2850 838 L2850 1440" stroke-width="18"/></g></g><g data-id="i6hu4l1" data-class="note" class="note"><g data-class="notehead" class="notehead"><use href="#E0A4-difp7eo" transform="translate(3531, 900) scale(0.72, 0.72)"/></g><g data-id="x19elocm" data-class="stem" class="stem"><path d="M3540 928 L3540 1500" stroke-width="18"/><g data-id="yak3re" data-class="flag" class="flag"><use href="#E241-difp7eo" transform="translate(3531, 1500) scale(0.72, 0.72)"/></g></g><g data-id="wih7g9i" data-class="accid" class="accid"/></g></g></g><g data-id="vuj8wd9" data-class="barLine" class="barLine"><path d="M3981 540 L3981 1260" stroke-width="27"/></g></g><g data-id="w1irvr88" data-class="measure" class="measure"><g data-id="ymu56v1" data-class="staff" class="staff"><path d="M3994 540 L5729 540" stroke-width="13"/><path d="M3994 720 L5729 720" stroke-width="13"/><path d="M3994 900 L5729 900" stroke-width="13"/><path d="M3994 1080 L5729 1080" stroke-width="13"/><path d="M3994 1260 L5729 1260" stroke-width="13"/><g data-id="z19xspsz" data-class="layer" class="layer"><g data-id="j9u9wir" data-class="note" class="note"><g data-class="notehead" class="notehead"><use href="#E0A4-difp7eo" transform="translate(4174, 990) scale(0.72, 0.72)"/></g><g data-id="a1exi2dr" data-class="dots" class="dots"><ellipse cx="4490" cy="990" rx="36" ry="36" fill-opacity="1" stroke-opacity="1"/></g><g data-id="z1u39s5v" data-class="stem" class="stem"><path d="M4391 962 L4391 360" stroke-width="18"/><g data-id="br7wkkt" data-class="flag" class="flag"><use href="#E240-difp7eo" transform="translate(4382, 360) scale(0.72, 0.72)"/></g></g><g data-id="x18o2s1t" data-class="accid" class="accid"/></g><g data-id="kq3r52u" data-class="note" class="note"><g data-class="notehead" class="notehead"><use href="#E0A4-difp7eo" transform="translate(4754, 900) scale(0.72, 0.72)"/></g><g data-id="c1hzglib" data-class="stem" class="stem"><path d="M4763 928 L4763 1500" stroke-width="18"/><g data-id="d163208u" data-class="flag" class="flag"><use href="#E243-difp7eo" transform="translate(4754, 1500) scale(0.72, 0.72)"/></g></g><g data-id="y1b0bwg7" data-class="accid" class="accid"/></g><g data-id="lips4xb" data-class="note" class="note"><g data-class="notehead" class="notehead"><use href="#E0A4-difp7eo" transform="translate(5070, 810) scale(0.72, 0.72)"/></g><g data-id="e9iqusc" data-class="stem" class="stem"><path d="M5079 838 L5079 1440" stroke-width="18"/><g data-id="fjd4aas" data-class="flag" class="flag"><use href="#E243-difp7eo" transform="translate(5070, 1440) scale(0.72, 0.72)"/></g></g></g><g data-id="magtx7i" data-class="note" class="note"><g data-class="notehead" class="notehead"><use href="#E0A4-difp7eo" transform="translate(5386, 720) scale(0.72, 0.72)"/></g><g data-id="grh3iis" data-class="stem" class="stem"><path d="M5395 748 L5395 1350" stroke-width="18"/><g data-id="h1kxkqf4" data-class="flag" class="flag"><use href="#E243-difp7eo" transform="translate(5386, 1350) scale(0.72, 0.72)"/></g></g><g data-id="zedny3l" data-class="accid" class="accid"/></g></g></g><g data-id="e1oqqn3p" data-class="barLine" class="barLine"><path d="M5716 540 L5716 1260" stroke-width="27"/></g></g><g data-id="f65l1dt" data-class="measure" class="measure"><g data-id="a5kox9r" data-class="staff" class="staff"><path d="M5729 540 L7062 540" stroke-width="13"/><path d="M5729 720 L7062 720" stroke-width="13"/><path d="M5729 900 L7062 900" stroke-width="13"/><path d="M5729 1080 L7062 1080" stroke-width="13"/><path d="M5729 1260 L7062 1260" stroke-width="13"/><g data-id="bmi52x2" data-class="layer" class="layer"><g data-id="n9yas2o" data-class="note" class="note"><g data-class="notehead" class="notehead"><use href="#E0A4-difp7eo" transform="translate(5909, 630) scale(0.72, 0.72)"/></g><g data-id="i1byfxsg" data-class="stem" class="stem"><path d="M5918 658 L5918 1260" stroke-width="18"/></g><g data-id="a1uh1to7" data-class="accid" class="accid"/></g><g data-id="orp0nex" data-class="note" class="note"><g data-class="notehead" class="notehead"><use href="#E0A4-difp7eo" transform="translate(6599, 540) scale(0.72, 0.72)"/></g><g data-id="jizhtle" data-class="stem" class="stem"><path d="M6608 568 L6608 1170" stroke-width="18"/><g data-id="kjrtv7v" data-class="flag" class="flag"><use href="#E241-difp7eo" transform="translate(6599, 1170) scale(0.72, 0.72)"/></g></g></g></g></g><g data-id="nc6f97i" data-class="barLine" class="barLine"><path d="M7049 540 L7049 1260" stroke-width="27"/></g></g><g data-id="o1sx1md6" data-class="measure" class="measure"><g data-id="ci3z1qn" data-class="staff" class="staff"><path d="M7062 540 L8981 540" stroke-width="13"/><path d="M7062 720 L8981 720" stroke-width="13"/><path d="M7062 900 L8981 900" stroke-width="13"/><path d="M7062 1080 L8981 1080" stroke-width="13"/><path d="M7062 1260 L8981 1260" stroke-width="13"/><g data-id="dimv889" data-class="layer" class="layer"><g data-id="p1em7k90" data-class="note" class="note"><g data-class="notehead" class="notehead"><use href="#E0A4-difp7eo" transform="translate(7242, 540) scale(0.72, 0.72)"/></g><g data-id="lmwxwgs" data-class="stem" class="stem"><path d="M7251 568 L7251 1170" stroke-width="18"/><g data-id="m1bggnqv" data-class="flag" class="flag"><use href="#E241-difp7eo" transform="translate(7242, 1170) scale(0.72, 0.72)"/></g></g></g><g data-id="q1x2w2la" data-class="note" class="note"><g data-class="notehead" class="notehead"><use href="#E0A4-difp7eo" transform="translate(7692, 630) scale(0.72, 0.72)"/></g><g data-id="nsodr1r" data-class="stem" class="stem"><path d="M7701 658 L7701 1260" stroke-width="18"/><g data-id="orqxrr7" data-class="flag" class="flag"><use href="#E241-difp7eo" transform="translate(7692, 1260) scale(0.72, 0.72)"/></g></g><g data-id="bogezxl" data-class="accid" class="accid"/></g><g data-id="r1p8xvqt" data-class="note" class="note"><g data-class="notehead" class="notehead"><use href="#E0A4-difp7eo" transform="translate(8142, 810) scale(0.72, 0.72)"/></g><g data-id="pu9w73n" data-class="stem" class="stem"><path d="M8151 838 L8151 1440" stroke-width="18"/><g data-id="q10c6cd0" data-class="flag" class="flag"><use href="#E243-difp7eo" transform="translate(8142, 1440) scale(0.72, 0.72)"/></g></g></g><g data-id="sjpejze" data-class="note" class="note"><g data-class="notehead" class="notehead"><use href="#E0A4-difp7eo" transform="translate(8458, 990) scale(0.72, 0.72)"/></g><g data-id="r1s9ed7b" data-class="stem" class="stem"><path d="M8675 962 L8675 360" stroke-width="18"/><g data-id="s129ap4z" data-class="flag" class="flag"><use href="#E242-difp7eo" transform="translate(8666, 360) scale(0.72, 0.72)"/></g></g><g data-id="c57u4i3" data-class="accid" class="accid"/></g></g></g><g data-id="w1a3ozl2" data-class="barLine" class="barLine"><path d="M8968 540 L8968 1260" stroke-width="27"/></g></g><g data-id="xzestx3" data-class="measure" class="measure"><g data-id="e1ctosmg" data-class="staff" class="staff"><path d="M8981 540 L10314 540" stroke-width="13"/><path d="M8981 720 L10314 720" stroke-width="13"/><path d="M8981 900 L10314 900" stroke-width="13"/><path d="M8981 1080 L10314 1080" stroke-width="13"/><path d="M8981 1260 L10314 1260" stroke-width="13"/><g data-id="fv8sted" data-class="layer" class="layer"><g data-id="t1r5ml1k" data-class="note" class="note"><g data-class="notehead" class="notehead"><use href="#E0A4-difp7eo" transform="translate(9161, 810) scale(0.72, 0.72)"/></g><g data-id="ttonarh" data-class="stem" class="stem"><path d="M9170 838 L9170 1440" stroke-width="18"/><g data-id="utjhm5a" data-class="flag" class="flag"><use href="#E241-difp7eo" transform="translate(9161, 1440) scale(0.72, 0.72)"/></g></g></g><g data-id="u10a75zx" data-class="note" class="note"><g data-class="notehead" class="notehead"><use href="#E0A4-difp7eo" transform="translate(9611, 900) scale(0.72, 0.72)"/></g><g data-id="vp1e6yt" data-class="stem" class="stem"><path d="M9620 928 L9620 1500" stroke-width="18"/></g><g data-id="d1h54w8b" data-class="accid" class="accid"/></g></g></g><g data-id="f1ethlos" data-class="barLine" class="barLine"><path d="M10301 540 L10301 1260" stroke-width="27"/></g></g><g data-id="nrjq465" data-class="systemMilestoneEnd" class="systemMilestoneEnd iwfzdi"/></g><g data-id="orjfva4" data-class="pageMilestoneEnd" class="pageMilestoneEnd g15goc0r"/><g data-id="px1yowt" data-class="pageMilestoneEnd" class="pageMilestoneEnd f16ct8gs"/></g></svg></svg>