<svg viewBox="0 0 560 84" version="1.1" xmlns="http://www.w3.org/2000/svg" xmlns:xlink="http://www.w3.org/1999/xlink" overflow="visible" id="kbvn7hw"><desc>Engraved by Verovio 5.6.0-85e7620</desc><defs><g id="E050-kbvn7hw"><path transform="scale(1,-1)" d="M441 -245c-23 -4 -48 -6 -76 -6c-59 0 -102 7 -130 20c-88 42 -150 93 -187 154c-26 44 -43 103 -48 176c0 6 -1 13 -1 19c0 54 15 111 45 170c29 57 65 106 110 148s96 85 153 127c-3 16 -8 46 -13 92c-4 43 -5 73 -5 89c0 117 16 172 69 257c34 54 64 82 89 82 c21 0 43 -30 69 -92s39 -115 41 -159v-15c0 -109 -21 -162 -67 -241c-13 -20 -63 -90 -98 -118c-13 -9 -25 -19 -37 -29l31 -181c8 1 18 2 28 2c58 0 102 -12 133 -35c59 -43 92 -104 98 -184c1 -7 1 -15 1 -22c0 -123 -87 -209 -181 -248c8 -57 17 -110 25 -162 c5 -31 6 -58 6 -80c0 -30 -5 -53 -14 -70c-35 -64 -88 -99 -158 -103c-5 0 -11 -1 -16 -1c-37 0 -72 10 -108 27c-50 24 -77 59 -80 105v11c0 29 7 55 20 76c18 28 45 42 79 44h6c49 0 93 -42 97 -87v-9c0 -51 -34 -86 -105 -106c17 -24 51 -36 102 -36c62 0 116 43 140 85 c9 16 13 41 13 74c0 20 -1 42 -5 67c-8 53 -18 106 -26 159zM461 939c-95 0 -135 -175 -135 -286c0 -24 2 -48 5 -71c50 39 92 82 127 128c40 53 60 100 60 140v8c-4 53 -22 81 -55 81h-2zM406 119l54 -326c73 25 110 78 110 161c0 7 0 15 -1 23c-7 95 -57 142 -151 142h-12 zM382 117c-72 -2 -128 -47 -128 -120v-7c2 -46 43 -99 75 -115c-3 -2 -7 -5 -10 -10c-70 33 -116 88 -123 172v11c0 68 44 126 88 159c23 17 49 29 78 36l-29 170c-21 -13 -52 -37 -92 -73c-50 -44 -86 -84 -109 -119c-45 -69 -67 -130 -67 -182v-13c5 -68 35 -127 93 -176 s125 -73 203 -73c25 0 50 3 75 9c-19 111 -36 221 -54 331z"/></g><g id="E260-kbvn7hw"><path transform="scale(1,-1)" d="M20 110c32 16 54 27 93 27c26 0 35 -3 54 -13c13 -7 24 -20 27 -38l4 -25c0 -28 -16 -57 -45 -89c-23 -25 -39 -44 -65 -68l-88 -79v644h20v-359zM90 106c-32 0 -48 -10 -70 -29v-194c31 31 54 59 71 84c21 32 32 59 32 84c0 9 1 16 1 20c0 14 -3 21 -11 30l-8 3z"/></g><g id="E082-kbvn7hw"><path transform="scale(1,-1)" d="M124 -185c-18 0 -55 -14 -65 -65h-36l-3 30c0 25 6 45 18 63c11 19 22 30 39 43l121 82l37 29c15 11 27 29 38 54c12 24 18 47 18 70c0 40 -19 88 -94 88c-25 0 -32 0 -50 -8c-14 -5 -23 -12 -26 -22c3 -9 7 -15 10 -18l24 -17c12 -7 17 -11 27 -21c5 -7 7 -16 7 -27 c0 -12 0 -57 -79 -74c-30 0 -76 26 -76 94c0 66 81 135 197 135c72 0 181 -32 181 -150c0 -53 -32 -95 -113 -133l-91 -41c-26 -11 -45 -23 -57 -37l49 7c84 0 115 -41 148 -41c20 0 33 20 39 61h35c0 -152 -68 -168 -114 -168c-17 0 -65 0 -79 7h10l-28 17 c-49 37 -69 40 -87 42z"/></g><g id="E084-kbvn7hw"><path transform="scale(1,-1)" d="M20 -78c84 97 114 180 134 329h170c-13 -32 -82 -132 -99 -151l-84 -97c-33 -36 -59 -63 -80 -81h162v102l127 123v-225h57v-39h-57v-34c0 -43 19 -65 57 -65v-34h-244v36c48 0 60 26 60 70v27h-203v39z"/></g><g id="E4E7-kbvn7hw"><path transform="scale(1,-1)" d="M133 -111c0 -33 -21 -50 -52 -55c10 -3 18 -4 25 -4c40 0 69 24 90 47l66 197c-36 -18 -64 -25 -112 -25c-23 0 -38 3 -45 8c-37 7 -55 27 -55 59c8 35 30 54 68 58c45 -6 49 -13 64 -48c0 -3 1 -5 1 -7c0 -27 -25 -46 -52 -49c6 -4 15 -6 26 -6c32 2 62 14 88 29 c32 19 44 36 59 71l7 1l10 2h4c-72 -220 -143 -439 -215 -659h-37l108 324c-20 -13 -51 -20 -82 -20c-21 0 -35 4 -43 10c-37 6 -55 26 -55 58c8 35 31 56 68 60c43 -8 48 -13 64 -51z"/></g><g id="E0A4-kbvn7hw"><path transform="scale(1,-1)" d="M0 -39c0 68 73 172 200 172c66 0 114 -37 114 -95c0 -84 -106 -171 -218 -171c-64 0 -96 30 -96 94z"/></g><g id="E261-kbvn7hw"><path transform="scale(1,-1)" d="M0 -188v539h18v-191l139 22v-533h-17v186zM18 -100l122 17v176l-122 -19v-174z"/></g><g id="E4E6-kbvn7hw"><path transform="scale(1,-1)" d="M0 123c7 34 33 56 69 60c29 -3 43 -9 53 -29c4 -8 7 -15 10 -22c0 -21 -1 -25 -11 -35c-5 -8 -18 -14 -40 -20l12 -3l15 -1c44 0 97 26 122 56c10 11 18 26 24 42c7 1 15 2 22 3l-140 -424h-36l111 330c-10 -6 -27 -12 -53 -16l-52 -8h-10l-20 1c-1 0 -8 3 -21 6 c-37 9 -55 28 -55 60z"/></g><g id="E240-kbvn7hw"><path transform="scale(1,-1)" d="M179 -646c15 29 29 55 46 102c18 49 30 108 30 138c0 105 -80 173 -168 200c-18 5 -47 9 -87 16v190h22c8 0 33 -61 71 -95c4 -3 -2 3 61 -56c62 -58 122 -137 122 -241c0 -38 -13 -106 -35 -163c-20 -51 -43 -99 -66 -132c-6 -5 -10 -7 -13 -7s-5 2 -5 5l4 10 c1 3 14 25 18 33z"/></g></defs><style type="text/css">#kbvn7hw g.page-margin {font-family:Times,serif;}#kbvn7hw g.ending, #kbvn7hw g.fing, #kbvn7hw g.reh, #kbvn7hw g.tempo {font-weight:bold;}#kbvn7hw g.dir, #kbvn7hw g.dynam, #kbvn7hw g.mNum {font-style:italic;}#kbvn7hw g.label {font-weight:normal;}#kbvn7hw path {stroke:currentColor}</style><svg class="definition-scale" color="black" viewBox="0 0 14000 2100"><g class="page-margin" transform="translate(0, 150)"><g data-id="g1jo9t57" data-class="mdiv" class="mdiv pageMilestone"/><g data-id="h13iw8ag" data-class="score" class="score pageMilestone"/><g data-id="iybgxd7" data-class="system" class="system"><g data-id="j72w7q0" data-class="section" class="section systemMilestone"/><g data-id="lb3iwgj" data-class="measure" class="measure"><g data-id="vsqrhjj" data-class="staff" class="staff"><path d="M0 540 L4339 540" stroke-width="13"/><path d="M0 720 L4339 720" stroke-width="13"/><path d="M0 900 L4339 900" stroke-width="13"/><path d="M0 1080 L4339 1080" stroke-width="13"/><path d="M0 1260 L4339 1260" stroke-width="13"/><g data-id="pfww7ut" data-class="clef" class="clef"><use href="#E050-kbvn7hw" transform="translate(90, 1080) scale(0.72, 0.72)"/></g><g data-id="q9mo2kc" data-class="keySig" class="keySig"><g data-id="r5ipy9r" data-class="keyAccid" class="keyAccid"><use href="#E260-kbvn7hw" transform="translate(735, 900) scale(0.72, 0.72)"/></g></g><g data-id="s11fio3k" data-class="meterSig" class="meterSig"><use href="#E082-kbvn7hw" transform="translate(1043, 720) scale(0.72, 0.72)"/><use href="#E084-kbvn7hw" transform="translate(1048, 1080) scale(0.72, 0.72)"/></g><g data-class="ledgerLines" class="ledgerLines below"><g data-class="lineDash" class="lineDash" data-related="#h1brfa34"><path d="M1868 1440 L2190 1440" stroke-width="22"/></g><g data-class="lineDash" class="lineDash" data-related="#i1k04fb6"><path d="M2386 1440 L2672 1440" stroke-width="22"/></g><g data-class="lineDash" class="lineDash" data-related="#jacnqgw"><path d="M2702 1440 L2988 1440" stroke-width="22"/></g><g data-class="lineDash" class="lineDash" data-related="#ltqbuvw"><path d="M3316 1440 L3638 1440" stroke-width="22"/></g></g><g data-id="w1jqt4gy" data-class="layer" class="layer"><g data-id="eia7enj" data-class="rest" class="rest"><use href="#E4E7-kbvn7hw" transform="translate(1616, 900) scale(0.72, 0.72)"/></g><g data-id="zzmffzr" data-class="beam" class="beam"><polygon stroke-opacity="1" fill-opacity="1" points="2124,855 2958,855 2958,945 2124,945"/><polygon stroke-opacity="1" fill-opacity="1" points="2124,990 2633,990 2633,1080 2124,1080"/><polygon stroke-opacity="1" fill-opacity="1" points="2633,990 2958,990 2958,1080 2633,1080"/><g data-id="h1brfa34" data-class="note" class="note"><g data-class="notehead" class="notehead"><use href="#E0A4-kbvn7hw" transform="translate(1916, 1440) scale(0.72, 0.72)"/></g><g data-id="q1ss5zs8" data-class="stem" class="stem"><path d="M2133 1412 L2133 873" stroke-width="18"/></g></g><g data-id="i1k04fb6" data-class="note" class="note"><g data-class="notehead" class="notehead"><use href="#E0A4-kbvn7hw" transform="translate(2416, 1530) scale(0.72, 0.72)"/></g><g data-id="r1umbr3y" data-class="stem" class="stem"><path d="M2633 1502 L2633 873" stroke-width="18"/></g><g data-id="yzprtkj" data-class="accid" class="accid"><use href="#E261-kbvn7hw" transform="translate(2232, 1530) scale(0.72, 0.72)"/></g></g><g data-id="jacnqgw" data-class="note" class="note"><g data-class="notehead" class="notehead"><use href="#E0A4-kbvn7hw" transform="translate(2732, 1440) scale(0.72, 0.72)"/></g><g data-id="s1f4d23g" data-class="stem" class="stem"><path d="M2949 1412 L2949 873" stroke-width="18"/></g></g></g><g data-id="a18yfb0d" data-class="beam" class="beam"><polygon stroke-opacity="1" fill-opacity="1" points="3256,225 4222,225 4222,315 3256,315"/><polygon stroke-opacity="1" fill-opacity="1" points="3256,360 3581,360 3581,450 3256,450"/><polygon stroke-opacity="1" fill-opacity="1" points="3581,360 3897,360 3897,450 3581,450"/><polygon stroke-opacity="1" fill-opacity="1" points="3897,360 4222,360 4222,450 3897,450"/><g data-id="k1ubfiyi" data-class="note" class="note"><g data-class="notehead" class="notehead"><use href="#E0A4-kbvn7hw" transform="translate(3048, 1350) scale(0.72, 0.72)"/></g><g data-id="t1ogxc7u" data-class="stem" class="stem"><path d="M3265 1322 L3265 243" stroke-width="18"/></g></g><g data-id="ltqbuvw" data-class="note" class="note"><g data-class="notehead" class="notehead"><use href="#E0A4-kbvn7hw" transform="translate(3364, 1440) scale(0.72, 0.72)"/></g><g data-id="u1e5ijh8" data-class="stem" class="stem"><path d="M3581 1412 L3581 243" stroke-width="18"/></g></g><g data-id="mgjc6nx" data-class="note" class="note"><g data-class="notehead" class="notehead"><use href="#E0A4-kbvn7hw" transform="translate(3680, 810) scale(0.72, 0.72)"/></g><g data-id="vyftihl" data-class="stem" class="stem"><path d="M3897 782 L3897 243" stroke-width="18"/></g></g><g data-id="n1j969sf" data-class="note" class="note"><g data-class="notehead" class="notehead"><use href="#E0A4-kbvn7hw" transform="translate(3996, 1170) scale(0.72, 0.72)"/></g><g data-id="w383fvi" data-class="stem" class="stem"><path d="M4213 1142 L4213 243" stroke-width="18"/></g></g></g></g></g><g data-id="tx1dz1" data-class="barLine" class="barLine"><path d="M4326 540 L4326 1260" stroke-width="27"/></g></g><g data-id="uqu35sz" data-class="measure" class="measure"><g data-id="x1b70bwu" data-class="staff" class="staff"><path d="M4339 540 L6182 540" stroke-width="13"/><path d="M4339 720 L6182 720" stroke-width="13"/><path d="M4339 900 L6182 900" stroke-width="13"/><path d="M4339 1080 L6182 1080" stroke-width="13"/><path d="M4339 1260 L6182 1260" stroke-width="13"/><g data-id="yevgfhx" data-class="layer" class="layer"><g data-id="o1s0jog0" data-class="note" class="note"><g data-class="notehead" class="notehead"><use href="#E0A4-kbvn7hw" transform="translate(4519, 1260) scale(0.72, 0.72)"/></g><g data-id="x1ghc87a" data-class="stem" class="stem"><path d="M4736 1232 L4736 630" stroke-width="18"/></g></g><g data-id="f57jb6y" data-class="rest" class="rest"><use href="#E4E6-kbvn7hw" transform="translate(5209, 900) scale(0.72, 0.72)"/></g><g data-id="p1xuy5ge" data-class="note" class="note"><g data-class="notehead" class="notehead"><use href="#E0A4-kbvn7hw" transform="translate(5659, 1170) scale(0.72, 0.72)"/></g><g data-id="y1i0hzr0" data-class="stem" class="stem"><path d="M5876 1142 L5876 540" stroke-width="18"/><g data-id="ztbuvos" data-class="flag" class="flag"><use href="#E240-kbvn7hw" transform="translate(5867, 540) scale(0.72, 0.72)"/></g></g></g></g></g><g data-id="c1fbhvr8" data-class="barLine" class="barLine"><path d="M6169 540 L6169 1260" stroke-width="27"/></g></g><g data-id="d17pxl3c" data-class="measure" class="measure"><g data-id="z1uhdh2l" data-class="staff" class="staff"><path d="M6182 540 L8025 540" stroke-width="13"/><path d="M6182 720 L8025 720" stroke-width="13"/><path d="M6182 900 L8025 900" stroke-width="13"/><path d="M6182 1080 L8025 1080" stroke-width="13"/><path d="M6182 1260 L8025 1260" stroke-width="13"/><g data-id="a16ek8a5" data-class="layer" class="layer"><g data-id="q144z77z" data-class="note" class="note"><g data-class="notehead" class="notehead"><use href="#E0A4-kbvn7hw" transform="translate(6362, 900) scale(0.72, 0.72)"/></g><g data-id="a2co0di" data-class="stem" class="stem"><path d="M6371 928 L6371 1500" stroke-width="18"/></g><g data-id="d1mt4zyi" data-class="accid" class="accid"/></g><g data-id="g1y9hv3q" data-class="rest" class="rest"><use href="#E4E6-kbvn7hw" transform="translate(7052, 900) scale(0.72, 0.72)"/></g><g data-id="r1rs647" data-class="note" class="note"><g data-class="notehead" class="notehead"><use href="#E0A4-kbvn7hw" transform="translate(7502, 990) scale(0.72, 0.72)"/></g><g data-id="bzkj34j" data-class="stem" class="stem"><path d="M7719 962 L7719 360" stroke-width="18"/><g data-id="c5ss8c8" data-class="flag" class="flag"><use href="#E240-kbvn7hw" transform="translate(7710, 360) scale(0.72, 0.72)"/></g></g></g></g></g><g data-id="l167cbe2" data-class="barLine" class="barLine"><path d="M8012 540 L8012 1260" stroke-width="27"/></g></g><g data-id="m1ckl2vz" data-class="measure" class="measure"><g data-id="bu9nk8x" data-class="staff" class="staff"><path d="M8025 540 L10018 540" stroke-width="13"/><path d="M8025 720 L10018 720" stroke-width="13"/><path d="M8025 900 L10018 900" stroke-width="13"/><path d="M8025 1080 L10018 1080" stroke-width="13"/><path d="M8025 1260 L10018 1260" stroke-width="13"/><g data-id="c1tftky1" data-class="layer" class="layer"><g data-id="b1fr9198" data-class="beam" class="beam"><polygon stroke-opacity="1" fill-opacity="1" points="8205,1530 9573,1575 9573,1485 8205,1440"/><g data-id="s5sf9kv" data-class="note" class="note"><g data-class="notehead" class="notehead"><use href="#E0A4-kbvn7hw" transform="translate(8205, 810) scale(0.72, 0.72)"/></g><g data-id="dww3x92" data-class="stem" class="stem"><path d="M8214 838 L8214 1512" stroke-width="18"/></g></g><g data-id="t1tvyjrw" data-class="note" class="note"><g data-class="notehead" class="notehead"><use href="#E0A4-kbvn7hw" transform="translate(8655, 810) scale(0.72, 0.72)"/></g><g data-id="e4o37t5" data-class="stem" class="stem"><path d="M8664 838 L8664 1527" stroke-width="18"/></g></g><g data-id="u1fvbcx8" data-class="note" class="note"><g data-class="notehead" class="notehead"><use href="#E0A4-kbvn7hw" transform="translate(9105, 900) scale(0.72, 0.72)"/></g><g data-id="f1ekm2qu" data-class="stem" class="stem"><path d="M9114 928 L9114 1542" stroke-width="18"/></g><g data-id="epvod0c" data-class="accid" class="accid"/></g><g data-id="v17yv1nh" data-class="note" class="note"><g data-class="notehead" class="notehead"><use href="#E0A4-kbvn7hw" transform="translate(9555, 990) scale(0.72, 0.72)"/></g><g data-id="gj9cix5" data-class="stem" class="stem"><path d="M9564 1018 L9564 1557" stroke-width="18"/></g></g></g></g></g><g data-id="u12lwf5m" data-class="barLine" class="barLine"><path d="M10005 540 L10005 1260" stroke-width="27"/></g></g><g data-id="v2sodbh" data-class="measure" class="measure"><g data-id="dfyh28r" data-class="staff" class="staff"><path d="M10018 540 L11098 540" stroke-width="13"/><path d="M10018 720 L11098 720" stroke-width="13"/><path d="M10018 900 L11098 900" stroke-width="13"/><path d="M10018 1080 L11098 1080" stroke-width="13"/><path d="M10018 1260 L11098 1260" stroke-width="13"/><g data-id="epgdx0y" data-class="layer" class="layer"><g data-id="c1bspm2" data-class="beam" class="beam"><polygon stroke-opacity="1" fill-opacity="1" points="10406,405 10874,450 10874,540 10406,495"/><g data-id="w13j8hqf" data-class="note" class="note"><g data-class="notehead" class="notehead"><use href="#E0A4-kbvn7hw" transform="translate(10198, 1080) scale(0.72, 0.72)"/></g><g data-id="h6r1q7r" data-class="stem" class="stem"><path d="M10415 1052 L10415 423" stroke-width="18"/></g></g><g data-id="x1f84yzk" data-class="note" class="note"><g data-class="notehead" class="notehead"><use href="#E0A4-kbvn7hw" transform="translate(10648, 1170) scale(0.72, 0.72)"/></g><g data-id="i5jpgwa" data-class="stem" class="stem"><path d="M10865 1142 L10865 468" stroke-width="18"/></g></g></g></g></g><g data-id="dd9ftl8" data-class="barLine" class="barLine"/></g><g data-id="mq01bud" data-class="systemMilestoneEnd" class="systemMilestoneEnd j72w7q0"/></g><g data-id="n1xfnc4w" data-class="pageMilestoneEnd" class="pageMilestoneEnd h13iw8ag"/><g data-id="oaiu0wt" data-class="pageMilestoneEnd" class="pageMilestoneEnd g1jo9t57"/></g></svg></svg>