<svg viewBox="0 0 560 84" version="1.1" xmlns="http://www.w3.org/2000/svg" xmlns:xlink="http://www.w3.org/1999/xlink" overflow="visible" id="un2wxx"><desc>Engraved by Verovio 5.6.0-85e7620</desc><defs><g id="E050-un2wxx"><path transform="scale(1,-1)" d="M441 -245c-23 -4 -48 -6 -76 -6c-59 0 -102 7 -130 20c-88 42 -150 93 -187 154c-26 44 -43 103 -48 176c0 6 -1 13 -1 19c0 54 15 111 45 170c29 57 65 106 110 148s96 85 153 127c-3 16 -8 46 -13 92c-4 43 -5 73 -5 89c0 117 16 172 69 257c34 54 64 82 89 82 c21 0 43 -30 69 -92s39 -115 41 -159v-15c0 -109 -21 -162 -67 -241c-13 -20 -63 -90 -98 -118c-13 -9 -25 -19 -37 -29l31 -181c8 1 18 2 28 2c58 0 102 -12 133 -35c59 -43 92 -104 98 -184c1 -7 1 -15 1 -22c0 -123 -87 -209 -181 -248c8 -57 17 -110 25 -162 c5 -31 6 -58 6 -80c0 -30 -5 -53 -14 -70c-35 -64 -88 -99 -158 -103c-5 0 -11 -1 -16 -1c-37 0 -72 10 -108 27c-50 24 -77 59 -80 105v11c0 29 7 55 20 76c18 28 45 42 79 44h6c49 0 93 -42 97 -87v-9c0 -51 -34 -86 -105 -106c17 -24 51 -36 102 -36c62 0 116 43 140 85 c9 16 13 41 13 74c0 20 -1 42 -5 67c-8 53 -18 106 -26 159zM461 939c-95 0 -135 -175 -135 -286c0 -24 2 -48 5 -71c50 39 92 82 127 128c40 53 60 100 60 140v8c-4 53 -22 81 -55 81h-2zM406 119l54 -326c73 25 110 78 110 161c0 7 0 15 -1 23c-7 95 -57 142 -151 142h-12 zM382 117c-72 -2 -128 -47 -128 -120v-7c2 -46 43 -99 75 -115c-3 -2 -7 -5 -10 -10c-70 33 -116 88 -123 172v11c0 68 44 126 88 159c23 17 49 29 78 36l-29 170c-21 -13 -52 -37 -92 -73c-50 -44 -86 -84 -109 -119c-45 -69 -67 -130 -67 -182v-13c5 -68 35 -127 93 -176 s125 -73 203 -73c25 0 50 3 75 9c-19 111 -36 221 -54 331z"/></g><g id="E260-un2wxx"><path transform="scale(1,-1)" d="M20 110c32 16 54 27 93 27c26 0 35 -3 54 -13c13 -7 24 -20 27 -38l4 -25c0 -28 -16 -57 -45 -89c-23 -25 -39 -44 -65 -68l-88 -79v644h20v-359zM90 106c-32 0 -48 -10 -70 -29v-194c31 31 54 59 71 84c21 32 32 59 32 84c0 9 1 16 1 20c0 14 -3 21 -11 30l-8 3z"/></g><g id="E083-un2wxx"><path transform="scale(1,-1)" d="M208 250c97 0 177 -52 177 -116c0 -69 -40 -111 -118 -125c56 -5 125 -44 125 -116c0 -31 -10 -57 -31 -78c-19 -21 -45 -38 -78 -49l-50 -11c-15 -3 -36 -7 -55 -7c-50 0 -86 16 -113 38c-16 10 -23 18 -34 34c-7 13 -11 25 -11 38c0 43 27 83 68 83l3 -2 c61 0 75 -42 75 -70c0 -19 -24 -42 -26 -57c7 -17 20 -25 37 -25c44 0 94 29 94 78c0 75 -34 125 -138 125v36c84 0 131 22 131 98c0 54 -37 88 -87 88c-26 0 -43 -7 -51 -22c15 -22 44 -16 44 -70c0 -37 -37 -62 -71 -62c-22 0 -69 15 -69 76c0 79 101 116 178 116z"/></g><g id="E084-un2wxx"><path transform="scale(1,-1)" d="M20 -78c84 97 114 180 134 329h170c-13 -32 -82 -132 -99 -151l-84 -97c-33 -36 -59 -63 -80 -81h162v102l127 123v-225h57v-39h-57v-34c0 -43 19 -65 57 -65v-34h-244v36c48 0 60 26 60 70v27h-203v39z"/></g><g id="E0A4-un2wxx"><path transform="scale(1,-1)" d="M0 -39c0 68 73 172 200 172c66 0 114 -37 114 -95c0 -84 -106 -171 -218 -171c-64 0 -96 30 -96 94z"/></g><g id="E241-un2wxx"><path transform="scale(1,-1)" d="M179 646c-4 8 -17 30 -18 33l-4 10c0 3 2 5 5 5s7 -2 13 -7c23 -33 46 -81 66 -132c22 -57 35 -125 35 -163c0 -104 -60 -183 -122 -241c-63 -59 -57 -53 -61 -56c-38 -34 -63 -95 -71 -95h-22v190c40 7 69 11 87 16c88 27 168 95 168 200c0 30 -12 89 -30 138 c-17 47 -31 73 -46 102z"/></g><g id="E243-un2wxx"><path transform="scale(1,-1)" d="M216 730c-5 8 -10 13 -11 16l-4 10c0 3 2 5 5 5s7 -2 13 -7c35 -42 57 -101 57 -172c0 -34 -6 -65 -17 -94c10 -31 17 -64 17 -96c0 -104 -60 -183 -122 -241c-63 -59 -57 -53 -61 -56c-38 -34 -63 -95 -71 -95h-22v190v190c40 7 69 11 87 16c116 36 175 111 175 197 c0 44 -15 91 -46 137zM248 463c-23 -48 -58 -89 -94 -122c-63 -59 -57 -53 -61 -56c-30 -27 -44 -71 -53 -88c20 3 36 6 47 9c88 27 168 95 168 200c0 19 -3 39 -7 57z"/></g><g id="E242-un2wxx"><path transform="scale(1,-1)" d="M206 -748c32 48 49 100 49 149c0 89 -55 168 -168 203c-18 5 -47 9 -87 16v190v190h22c8 0 33 -61 71 -95c4 -3 -2 3 61 -56c62 -58 122 -137 122 -241c0 -32 -7 -65 -17 -96c11 -29 17 -60 17 -94c0 -71 -32 -148 -67 -190c-6 -5 -10 -7 -13 -7s-5 2 -5 5l4 10 c1 3 6 8 11 16zM248 -463c4 18 7 38 7 57c0 105 -80 173 -168 200c-11 3 -27 6 -47 9c9 -17 23 -61 53 -88c4 -3 -2 3 61 -56c36 -33 71 -74 94 -122z"/></g></defs><style type="text/css">#un2wxx g.page-margin {font-family:Times,serif;}#un2wxx g.ending, #un2wxx g.fing, #un2wxx g.reh, #un2wxx g.tempo {font-weight:bold;}#un2wxx g.dir, #un2wxx g.dynam, #un2wxx g.mNum {font-style:italic;}#un2wxx g.label {font-weight:normal;}#un2wxx path {stroke:currentColor}</style><svg class="definition-scale" color="black" viewBox="0 0 14000 2100"><g class="page-margin" transform="translate(0, 150)"><g data-id="pofctw0" data-class="mdiv" class="mdiv pageMilestone"/><g data-id="q1grdmlo" data-class="score" class="score pageMilestone"/><g data-id="sdt6mmj" data-class="system" class="system"><g data-id="s1c5n10a" data-class="section" class="section systemMilestone"/><g data-id="vglr15s" data-class="measure" class="measure"><g data-id="egam8xc" data-class="staff" class="staff"><path d="M0 540 L3135 540" stroke-width="13"/><path d="M0 720 L3135 720" stroke-width="13"/><path d="M0 900 L3135 900" stroke-width="13"/><path d="M0 1080 L3135 1080" stroke-width="13"/><path d="M0 1260 L3135 1260" stroke-width="13"/><g data-id="x18r4dvd" data-class="clef" class="clef"><use href="#E050-un2wxx" transform="translate(90, 1080) scale(0.72, 0.72)"/></g><g data-id="y1om789u" data-class="keySig" class="keySig"><g data-id="zz82f7c" data-class="keyAccid" class="keyAccid"><use href="#E260-un2wxx" transform="translate(735, 900) scale(0.72, 0.72)"/></g><g data-id="afbqo2b" data-class="keyAccid" class="keyAccid"><use href="#E260-un2wxx" transform="translate(915, 630) scale(0.72, 0.72)"/></g><g data-id="b1y03ieo" data-class="keyAccid" class="keyAccid"><use href="#E260-un2wxx" transform="translate(1095, 990) scale(0.72, 0.72)"/></g></g><g data-id="c1o8izt3" data-class="meterSig" class="meterSig"><use href="#E083-un2wxx" transform="translate(1409, 720) scale(0.72, 0.72)"/><use href="#E084-un2wxx" transform="translate(1403, 1080) scale(0.72, 0.72)"/></g><g data-id="f1kygouk" data-class="layer" class="layer"><g data-id="oe0912m" data-class="note" class="note"><g data-class="notehead" class="notehead"><use href="#E0A4-un2wxx" transform="translate(2006, 900) scale(0.72, 0.72)"/></g><g data-id="crt5j31" data-class="dots" class="dots"><ellipse cx="2322" cy="810" rx="36" ry="36" fill-opacity="1" stroke-opacity="1"/></g><g data-id="b5ev4t5" data-class="stem" class="stem"><path d="M2015 928 L2015 1500" stroke-width="18"/><g data-id="dw1ox5d" data-class="flag" class="flag"><use href="#E241-un2wxx" transform="translate(2006, 1500) scale(0.72, 0.72)"/></g></g><g data-id="dq6ye1a" data-class="accid" class="accid"/></g><g data-id="p2rtnh9" data-class="note" class="note"><g data-class="notehead" class="notehead"><use href="#E0A4-un2wxx" transform="translate(2717, 630) scale(0.72, 0.72)"/></g><g data-id="e135y82e" data-class="stem" class="stem"><path d="M2726 658 L2726 1260" stroke-width="18"/><g data-id="f163lyjw" data-class="flag" class="flag"><use href="#E243-un2wxx" transform="translate(2717, 1260) scale(0.72, 0.72)"/></g></g><g data-id="emoo6qd" data-class="accid" class="accid"/></g></g></g><g data-id="d1kpjpj6" data-class="barLine" class="barLine"><path d="M3122 540 L3122 1260" stroke-width="27"/></g></g><g data-id="ee3pbch" data-class="measure" class="measure"><g data-id="g1apsfz6" data-class="staff" class="staff"><path d="M3135 540 L6116 540" stroke-width="13"/><path d="M3135 720 L6116 720" stroke-width="13"/><path d="M3135 900 L6116 900" stroke-width="13"/><path d="M3135 1080 L6116 1080" stroke-width="13"/><path d="M3135 1260 L6116 1260" stroke-width="13"/><g data-id="hyb25m9" data-class="layer" class="layer"><g data-id="q7c7e58" data-class="note" class="note"><g data-class="notehead" class="notehead"><use href="#E0A4-un2wxx" transform="translate(3356, 630) scale(0.72, 0.72)"/></g><g data-id="h1vwbm22" data-class="dots" class="dots"><ellipse cx="3672" cy="630" rx="36" ry="36" fill-opacity="1" stroke-opacity="1"/></g><g data-id="g1vq45hq" data-class="stem" class="stem"><path d="M3365 658 L3365 1260" stroke-width="18"/></g><g data-id="f1vsw5zc" data-class="accid" class="accid"/></g><g data-id="rgsh3l1" data-class="note" class="note"><g data-class="notehead" class="notehead"><use href="#E0A4-un2wxx" transform="translate(4435, 720) scale(0.72, 0.72)"/></g><g data-id="ie3zsoo" data-class="stem" class="stem"><path d="M4444 748 L4444 1350" stroke-width="18"/><g data-id="jj2bqqd" data-class="flag" class="flag"><use href="#E241-un2wxx" transform="translate(4435, 1350) scale(0.72, 0.72)"/></g></g></g><g data-id="s1a2h98w" data-class="note" class="note"><g data-class="notehead" class="notehead"><use href="#E0A4-un2wxx" transform="translate(4987, 450) scale(0.72, 0.72)"/></g><g data-id="l1q5ik2u" data-class="dots" class="dots"><ellipse cx="5303" cy="450" rx="36" ry="36" fill-opacity="1" stroke-opacity="1"/></g><g data-id="k1veles8" data-class="stem" class="stem"><path d="M4996 478 L4996 1080" stroke-width="18"/><g data-id="mqn7mtr" data-class="flag" class="flag"><use href="#E241-un2wxx" transform="translate(4987, 1080) scale(0.72, 0.72)"/></g></g></g><g data-id="ts58m0f" data-class="note" class="note"><g data-class="notehead" class="notehead"><use href="#E0A4-un2wxx" transform="translate(5698, 540) scale(0.72, 0.72)"/></g><g data-id="n4pa302" data-class="stem" class="stem"><path d="M5707 568 L5707 1170" stroke-width="18"/><g data-id="ocgkxyv" data-class="flag" class="flag"><use href="#E243-un2wxx" transform="translate(5698, 1170) scale(0.72, 0.72)"/></g></g></g></g></g><g data-id="m1v30lqz" data-class="barLine" class="barLine"><path d="M6103 540 L6103 1260" stroke-width="27"/></g></g><g data-id="n1dcc8ra" data-class="measure" class="measure"><g data-id="ikd0ft5" data-class="staff" class="staff"><path d="M6116 540 L8888 540" stroke-width="13"/><path d="M6116 720 L8888 720" stroke-width="13"/><path d="M6116 900 L8888 900" stroke-width="13"/><path d="M6116 1080 L8888 1080" stroke-width="13"/><path d="M6116 1260 L8888 1260" stroke-width="13"/><g data-id="j5v2cnh" data-class="layer" class="layer"><g data-id="uvpbpxu" data-class="note" class="note"><g data-class="notehead" class="notehead"><use href="#E0A4-un2wxx" transform="translate(6337, 630) scale(0.72, 0.72)"/></g><g data-id="p1ncwtzy" data-class="stem" class="stem"><path d="M6346 658 L6346 1260" stroke-width="18"/></g><g data-id="g5h2qcn" data-class="accid" class="accid"/></g><g data-id="v12hq2l9" data-class="note" class="note"><g data-class="notehead" class="notehead"><use href="#E0A4-un2wxx" transform="translate(7183, 630) scale(0.72, 0.72)"/></g><g data-id="q1av4pt4" data-class="stem" class="stem"><path d="M7192 658 L7192 1260" stroke-width="18"/></g><g data-id="hw3lshb" data-class="accid" class="accid"/></g><g data-id="wjchxr" data-class="note" class="note"><g data-class="notehead" class="notehead"><use href="#E0A4-un2wxx" transform="translate(8029, 630) scale(0.72, 0.72)"/></g><g data-id="rvndgsd" data-class="stem" class="stem"><path d="M8038 658 L8038 1260" stroke-width="18"/></g><g data-id="i5rn54" data-class="accid" class="accid"/></g></g></g><g data-id="v1553je2" data-class="barLine" class="barLine"><path d="M8875 540 L8875 1260" stroke-width="27"/></g></g><g data-id="w16vjshg" data-class="measure" class="measure"><g data-id="kwe7z8b" data-class="staff" class="staff"><path d="M8888 540 L12089 540" stroke-width="13"/><path d="M8888 720 L12089 720" stroke-width="13"/><path d="M8888 900 L12089 900" stroke-width="13"/><path d="M8888 1080 L12089 1080" stroke-width="13"/><path d="M8888 1260 L12089 1260" stroke-width="13"/><g data-id="l1pvo3zx" data-class="layer" class="layer"><g data-id="x1smn3lh" data-class="note" class="note"><g data-class="notehead" class="notehead"><use href="#E0A4-un2wxx" transform="translate(9109, 630) scale(0.72, 0.72)"/></g><g data-id="tiie32y" data-class="dots" class="dots"><ellipse cx="9425" cy="630" rx="36" ry="36" fill-opacity="1" stroke-opacity="1"/></g><g data-id="syvbzsp" data-class="stem" class="stem"><path d="M9118 658 L9118 1260" stroke-width="18"/></g><g data-id="j1cb0i4g" data-class="accid" class="accid"/></g><g data-id="y15xt3k8" data-class="note" class="note"><g data-class="notehead" class="notehead"><use href="#E0A4-un2wxx" transform="translate(10188, 900) scale(0.72, 0.72)"/></g><g data-id="u9py9q3" data-class="stem" class="stem"><path d="M10197 928 L10197 1500" stroke-width="18"/><g data-id="v10xmuuk" data-class="flag" class="flag"><use href="#E241-un2wxx" transform="translate(10188, 1500) scale(0.72, 0.72)"/></g></g><g data-id="krhxn84" data-class="accid" class="accid"/></g><g data-id="z1wh5lgh" data-class="note" class="note"><g data-class="notehead" class="notehead"><use href="#E0A4-un2wxx" transform="translate(10740, 900) scale(0.72, 0.72)"/></g><g data-id="x1rsy8ux" data-class="dots" class="dots"><ellipse cx="11056" cy="810" rx="36" ry="36" fill-opacity="1" stroke-opacity="1"/></g><g data-id="wqyrcvt" data-class="stem" class="stem"><path d="M10749 928 L10749 1500" stroke-width="18"/><g data-id="y1dpi6aa" data-class="flag" class="flag"><use href="#E241-un2wxx" transform="translate(10740, 1500) scale(0.72, 0.72)"/></g></g><g data-id="l1nq2vh1" data-class="accid" class="accid"/></g><g data-id="a1anroh6" data-class="note" class="note"><g data-class="notehead" class="notehead"><use href="#E0A4-un2wxx" transform="translate(11451, 990) scale(0.72, 0.72)"/></g><g data-id="z1ai69wp" data-class="stem" class="stem"><path d="M11668 962 L11668 360" stroke-width="18"/><g data-id="a1ele770" data-class="flag" class="flag"><use href="#E242-un2wxx" transform="translate(11659, 360) scale(0.72, 0.72)"/></g></g><g data-id="m19nq318" data-class="accid" class="accid"/></g></g></g><g data-id="e16jr8sz" data-class="barLine" class="barLine"><path d="M12076 540 L12076 1260" stroke-width="27"/></g></g><g data-id="f18p4tcp" data-class="measure" class="measure"><g data-id="m93vcg" data-class="staff" class="staff"><path d="M12089 540 L14002 540" stroke-width="13"/><path d="M12089 720 L14002 720" stroke-width="13"/><path d="M12089 900 L14002 900" stroke-width="13"/><path d="M12089 1080 L14002 1080" stroke-width="13"/><path d="M12089 1260 L14002 1260" stroke-width="13"/><g data-id="nobv3y7" data-class="layer" class="layer"><g data-id="b9b2e2b" data-class="note" class="note"><g data-class="notehead" class="notehead"><use href="#E0A4-un2wxx" transform="translate(12310, 990) scale(0.72, 0.72)"/></g><g data-id="b1sonp2t" data-class="stem" class="stem"><path d="M12527 962 L12527 360" stroke-width="18"/></g><g data-id="n1gqor27" data-class="accid" class="accid"/></g><g data-id="c1adikec" data-class="note" class="note"><g data-class="notehead" class="notehead"><use href="#E0A4-un2wxx" transform="translate(13156, 1080) scale(0.72, 0.72)"/></g><g data-id="c1bdi5m4" data-class="stem" class="stem"><path d="M13373 1052 L13373 450" stroke-width="18"/></g></g></g></g><g data-id="nukrea9" data-class="barLine" class="barLine"/></g><g data-id="v1xwlbjc" data-class="systemMilestoneEnd" class="systemMilestoneEnd s1c5n10a"/></g><g data-id="w1vsji1u" data-class="pageMilestoneEnd" class="pageMilestoneEnd q1grdmlo"/><g data-id="x10ic0ca" data-class="pageMilestoneEnd" class="pageMilestoneEnd pofctw0"/></g></svg></svg>