<svg viewBox="0 0 560 84" version="1.1" xmlns="http://www.w3.org/2000/svg" xmlns:xlink="http://www.w3.org/1999/xlink" overflow="visible" id="w1vcp1nb"><desc>Engraved by Verovio 5.6.0-85e7620</desc><defs><g id="E050-w1vcp1nb"><path transform="scale(1,-1)" d="M441 -245c-23 -4 -48 -6 -76 -6c-59 0 -102 7 -130 20c-88 42 -150 93 -187 154c-26 44 -43 103 -48 176c0 6 -1 13 -1 19c0 54 15 111 45 170c29 57 65 106 110 148s96 85 153 127c-3 16 -8 46 -13 92c-4 43 -5 73 -5 89c0 117 16 172 69 257c34 54 64 82 89 82 c21 0 43 -30 69 -92s39 -115 41 -159v-15c0 -109 -21 -162 -67 -241c-13 -20 -63 -90 -98 -118c-13 -9 -25 -19 -37 -29l31 -181c8 1 18 2 28 2c58 0 102 -12 133 -35c59 -43 92 -104 98 -184c1 -7 1 -15 1 -22c0 -123 -87 -209 -181 -248c8 -57 17 -110 25 -162 c5 -31 6 -58 6 -80c0 -30 -5 -53 -14 -70c-35 -64 -88 -99 -158 -103c-5 0 -11 -1 -16 -1c-37 0 -72 10 -108 27c-50 24 -77 59 -80 105v11c0 29 7 55 20 76c18 28 45 42 79 44h6c49 0 93 -42 97 -87v-9c0 -51 -34 -86 -105 -106c17 -24 51 -36 102 -36c62 0 116 43 140 85 c9 16 13 41 13 74c0 20 -1 42 -5 67c-8 53 -18 106 -26 159zM461 939c-95 0 -135 -175 -135 -286c0 -24 2 -48 5 -71c50 39 92 82 127 128c40 53 60 100 60 140v8c-4 53 -22 81 -55 81h-2zM406 119l54 -326c73 25 110 78 110 161c0 7 0 15 -1 23c-7 95 -57 142 -151 142h-12 zM382 117c-72 -2 -128 -47 -128 -120v-7c2 -46 43 -99 75 -115c-3 -2 -7 -5 -10 -10c-70 33 -116 88 -123 172v11c0 68 44 126 88 159c23 17 49 29 78 36l-29 170c-21 -13 -52 -37 -92 -73c-50 -44 -86 -84 -109 -119c-45 -69 -67 -130 -67 -182v-13c5 -68 35 -127 93 -176 s125 -73 203 -73c25 0 50 3 75 9c-19 111 -36 221 -54 331z"/></g><g id="E262-w1vcp1nb"><path transform="scale(1,-1)" d="M136 186v169h17v-164l44 14v-91l-44 -14v-165l44 12v-91l-44 -13v-155h-17v150l-76 -22v-155h-17v149l-43 -13v90l43 14v167l-43 -14v92l43 13v169h17v-163zM60 73v-167l76 22v168z"/></g><g id="E083-w1vcp1nb"><path transform="scale(1,-1)" d="M208 250c97 0 177 -52 177 -116c0 -69 -40 -111 -118 -125c56 -5 125 -44 125 -116c0 -31 -10 -57 -31 -78c-19 -21 -45 -38 -78 -49l-50 -11c-15 -3 -36 -7 -55 -7c-50 0 -86 16 -113 38c-16 10 -23 18 -34 34c-7 13 -11 25 -11 38c0 43 27 83 68 83l3 -2 c61 0 75 -42 75 -70c0 -19 -24 -42 -26 -57c7 -17 20 -25 37 -25c44 0 94 29 94 78c0 75 -34 125 -138 125v36c84 0 131 22 131 98c0 54 -37 88 -87 88c-26 0 -43 -7 -51 -22c15 -22 44 -16 44 -70c0 -37 -37 -62 -71 -62c-22 0 -69 15 -69 76c0 79 101 116 178 116z"/></g><g id="E084-w1vcp1nb"><path transform="scale(1,-1)" d="M20 -78c84 97 114 180 134 329h170c-13 -32 -82 -132 -99 -151l-84 -97c-33 -36 -59 -63 -80 -81h162v102l127 123v-225h57v-39h-57v-34c0 -43 19 -65 57 -65v-34h-244v36c48 0 60 26 60 70v27h-203v39z"/></g><g id="E0A4-w1vcp1nb"><path transform="scale(1,-1)" d="M0 -39c0 68 73 172 200 172c66 0 114 -37 114 -95c0 -84 -106 -171 -218 -171c-64 0 -96 30 -96 94z"/></g><g id="E241-w1vcp1nb"><path transform="scale(1,-1)" d="M179 646c-4 8 -17 30 -18 33l-4 10c0 3 2 5 5 5s7 -2 13 -7c23 -33 46 -81 66 -132c22 -57 35 -125 35 -163c0 -104 -60 -183 -122 -241c-63 -59 -57 -53 -61 -56c-38 -34 -63 -95 -71 -95h-22v190c40 7 69 11 87 16c88 27 168 95 168 200c0 30 -12 89 -30 138 c-17 47 -31 73 -46 102z"/></g><g id="E243-w1vcp1nb"><path transform="scale(1,-1)" d="M216 730c-5 8 -10 13 -11 16l-4 10c0 3 2 5 5 5s7 -2 13 -7c35 -42 57 -101 57 -172c0 -34 -6 -65 -17 -94c10 -31 17 -64 17 -96c0 -104 -60 -183 -122 -241c-63 -59 -57 -53 -61 -56c-38 -34 -63 -95 -71 -95h-22v190v190c40 7 69 11 87 16c116 36 175 111 175 197 c0 44 -15 91 -46 137zM248 463c-23 -48 -58 -89 -94 -122c-63 -59 -57 -53 -61 -56c-30 -27 -44 -71 -53 -88c20 3 36 6 47 9c88 27 168 95 168 200c0 19 -3 39 -7 57z"/></g><g id="E0A3-w1vcp1nb"><path transform="scale(1,-1)" d="M278 64c0 22 -17 39 -43 39c-12 0 -26 -3 -41 -10c-85 -43 -165 -94 -165 -156c5 -25 15 -32 49 -32c67 11 200 95 200 159zM0 -36c0 68 73 174 200 174c66 0 114 -39 114 -97c0 -84 -106 -173 -218 -173c-64 0 -96 32 -96 96z"/></g></defs><style type="text/css">#w1vcp1nb g.page-margin {font-family:Times,serif;}#w1vcp1nb g.ending, #w1vcp1nb g.fing, #w1vcp1nb g.reh, #w1vcp1nb g.tempo {font-weight:bold;}#w1vcp1nb g.dir, #w1vcp1nb g.dynam, #w1vcp1nb g.mNum {font-style:italic;}#w1vcp1nb g.label {font-weight:normal;}#w1vcp1nb path {stroke:currentColor}</style><svg class="definition-scale" color="black" viewBox="0 0 14000 2100"><g class="page-margin" transform="translate(0, 150)"><g data-id="q5kz0dx" data-class="mdiv" class="mdiv pageMilestone"/><g data-id="rshbaeb" data-class="score" class="score pageMilestone"/><g data-id="qpm7gdq" data-class="system" class="system"><g data-id="t1ti5wgn" data-class="section" class="section systemMilestone"/><g data-id="xgtym0j" data-class="measure" class="measure"><g data-id="fay4zzw" data-class="staff" class="staff"><path d="M0 540 L2937 540" stroke-width="13"/><path d="M0 720 L2937 720" stroke-width="13"/><path d="M0 900 L2937 900" stroke-width="13"/><path d="M0 1080 L2937 1080" stroke-width="13"/><path d="M0 1260 L2937 1260" stroke-width="13"/><g data-id="u8v2oew" data-class="clef" class="clef"><use href="#E050-w1vcp1nb" transform="translate(90, 1080) scale(0.72, 0.72)"/></g><g data-id="v1cuw43e" data-class="keySig" class="keySig"><g data-id="wm9gw13" data-class="keyAccid" class="keyAccid"><use href="#E262-w1vcp1nb" transform="translate(735, 540) scale(0.72, 0.72)"/></g><g data-id="xvkk9rg" data-class="keyAccid" class="keyAccid"><use href="#E262-w1vcp1nb" transform="translate(913, 810) scale(0.72, 0.72)"/></g><g data-id="y96nt8x" data-class="keyAccid" class="keyAccid"><use href="#E262-w1vcp1nb" transform="translate(1091, 450) scale(0.72, 0.72)"/></g><g data-id="z1l8ym9e" data-class="keyAccid" class="keyAccid"><use href="#E262-w1vcp1nb" transform="translate(1269, 720) scale(0.72, 0.72)"/></g></g><g data-id="amdq8et" data-class="meterSig" class="meterSig"><use href="#E083-w1vcp1nb" transform="translate(1582, 720) scale(0.72, 0.72)"/><use href="#E084-w1vcp1nb" transform="translate(1576, 1080) scale(0.72, 0.72)"/></g><g data-id="g2jqf0h" data-class="layer" class="layer"><g data-id="q1ed1133" data-class="note" class="note"><g data-class="notehead" class="notehead"><use href="#E0A4-w1vcp1nb" transform="translate(2158, 900) scale(0.72, 0.72)"/></g><g data-id="d12ug3i4" data-class="stem" class="stem"><path d="M2167 928 L2167 1500" stroke-width="18"/></g></g></g></g><g data-id="f1inwk25" data-class="barLine" class="barLine"><path d="M2924 540 L2924 1260" stroke-width="27"/></g></g><g data-id="g1i6bfhd" data-class="measure" class="measure"><g data-id="hbey2r" data-class="staff" class="staff"><path d="M2937 540 L6141 540" stroke-width="13"/><path d="M2937 720 L6141 720" stroke-width="13"/><path d="M2937 900 L6141 900" stroke-width="13"/><path d="M2937 1080 L6141 1080" stroke-width="13"/><path d="M2937 1260 L6141 1260" stroke-width="13"/><g data-id="itm6pye" data-class="layer" class="layer"><g data-id="r1r6ezsm" data-class="note" class="note"><g data-class="notehead" class="notehead"><use href="#E0A4-w1vcp1nb" transform="translate(3137, 630) scale(0.72, 0.72)"/></g><g data-id="fhwl0v5" data-class="dots" class="dots"><ellipse cx="3453" cy="630" rx="36" ry="36" fill-opacity="1" stroke-opacity="1"/></g><g data-id="egpga8t" data-class="stem" class="stem"><path d="M3146 658 L3146 1260" stroke-width="18"/><g data-id="g6x4nj8" data-class="flag" class="flag"><use href="#E241-w1vcp1nb" transform="translate(3137, 1260) scale(0.72, 0.72)"/></g></g></g><g data-id="sqcks50" data-class="note" class="note"><g data-class="notehead" class="notehead"><use href="#E0A4-w1vcp1nb" transform="translate(3781, 900) scale(0.72, 0.72)"/></g><g data-id="h7fl2sr" data-class="stem" class="stem"><path d="M3790 928 L3790 1500" stroke-width="18"/><g data-id="i1x92wg3" data-class="flag" class="flag"><use href="#E243-w1vcp1nb" transform="translate(3781, 1500) scale(0.72, 0.72)"/></g></g></g><g data-id="t16zvuwl" data-class="note" class="note"><g data-class="notehead" class="notehead"><use href="#E0A4-w1vcp1nb" transform="translate(4131, 810) scale(0.72, 0.72)"/></g><g data-id="jcxesga" data-class="stem" class="stem"><path d="M4140 838 L4140 1440" stroke-width="18"/><g data-id="k1x67syv" data-class="flag" class="flag"><use href="#E241-w1vcp1nb" transform="translate(4131, 1440) scale(0.72, 0.72)"/></g></g><g data-id="i1qn0ub5" data-class="accid" class="accid"/></g><g data-id="u1c3a3se" data-class="note" class="note"><g data-class="notehead" class="notehead"><use href="#E0A4-w1vcp1nb" transform="translate(4630, 900) scale(0.72, 0.72)"/></g><g data-id="l129jhhh" data-class="stem" class="stem"><path d="M4639 928 L4639 1500" stroke-width="18"/><g data-id="mloyrnp" data-class="flag" class="flag"><use href="#E241-w1vcp1nb" transform="translate(4630, 1500) scale(0.72, 0.72)"/></g></g></g><g data-id="v1o7bfai" data-class="note" class="note"><g data-class="notehead" class="notehead"><use href="#E0A4-w1vcp1nb" transform="translate(5130, 630) scale(0.72, 0.72)"/></g><g data-id="nrms1ss" data-class="stem" class="stem"><path d="M5139 658 L5139 1260" stroke-width="18"/><g data-id="oj8v3fm" data-class="flag" class="flag"><use href="#E241-w1vcp1nb" transform="translate(5130, 1260) scale(0.72, 0.72)"/></g></g></g><g data-id="w1l5rd8u" data-class="note" class="note"><g data-class="notehead" class="notehead"><use href="#E0A4-w1vcp1nb" transform="translate(5629, 720) scale(0.72, 0.72)"/></g><g data-id="pdsbfnv" data-class="stem" class="stem"><path d="M5638 748 L5638 1350" stroke-width="18"/><g data-id="qd9prq4" data-class="flag" class="flag"><use href="#E241-w1vcp1nb" transform="translate(5629, 1350) scale(0.72, 0.72)"/></g></g><g data-id="j127ql5n" data-class="accid" class="accid"/></g></g></g><g data-id="ohdn6cq" data-class="barLine" class="barLine"><path d="M6128 540 L6128 1260" stroke-width="27"/></g></g><g data-id="p1butgse" data-class="measure" class="measure"><g data-id="jvqbgg3" data-class="staff" class="staff"><path d="M6141 540 L8651 540" stroke-width="13"/><path d="M6141 720 L8651 720" stroke-width="13"/><path d="M6141 900 L8651 900" stroke-width="13"/><path d="M6141 1080 L8651 1080" stroke-width="13"/><path d="M6141 1260 L8651 1260" stroke-width="13"/><g data-id="k8aqyag" data-class="layer" class="layer"><g data-id="x881hnq" data-class="note" class="note"><g data-class="notehead" class="notehead"><use href="#E0A4-w1vcp1nb" transform="translate(6341, 450) scale(0.72, 0.72)"/></g><g data-id="r1vxlzp0" data-class="stem" class="stem"><path d="M6350 478 L6350 1080" stroke-width="18"/></g><g data-id="k1t33wi5" data-class="accid" class="accid"/></g><g data-id="y1dmlpr5" data-class="note" class="note"><g data-class="notehead" class="notehead"><use href="#E0A4-w1vcp1nb" transform="translate(7107, 630) scale(0.72, 0.72)"/></g><g data-id="sqmudrf" data-class="stem" class="stem"><path d="M7116 658 L7116 1260" stroke-width="18"/></g></g><g data-id="z11vtuz0" data-class="note" class="note"><g data-class="notehead" class="notehead"><use href="#E0A4-w1vcp1nb" transform="translate(7872, 900) scale(0.72, 0.72)"/></g><g data-id="t7l4zie" data-class="stem" class="stem"><path d="M7881 928 L7881 1500" stroke-width="18"/></g></g></g></g><g data-id="x1dntayf" data-class="barLine" class="barLine"><path d="M8638 540 L8638 1260" stroke-width="27"/></g></g><g data-id="y176vmlm" data-class="measure" class="measure"><g data-id="l1404zr" data-class="staff" class="staff"><path d="M8651 540 L11860 540" stroke-width="13"/><path d="M8651 720 L11860 720" stroke-width="13"/><path d="M8651 900 L11860 900" stroke-width="13"/><path d="M8651 1080 L11860 1080" stroke-width="13"/><path d="M8651 1260 L11860 1260" stroke-width="13"/><g data-id="m1wyqrsn" data-class="layer" class="layer"><g data-id="a70qq6" data-class="note" class="note"><g data-class="notehead" class="notehead"><use href="#E0A4-w1vcp1nb" transform="translate(8851, 900) scale(0.72, 0.72)"/></g><g data-id="u8ip66l" data-class="stem" class="stem"><path d="M8860 928 L8860 1500" stroke-width="18"/><g data-id="vwl6ixr" data-class="flag" class="flag"><use href="#E241-w1vcp1nb" transform="translate(8851, 1500) scale(0.72, 0.72)"/></g></g></g><g data-id="bmnno6o" data-class="note" class="note"><g data-class="notehead" class="notehead"><use href="#E0A4-w1vcp1nb" transform="translate(9350, 450) scale(0.72, 0.72)"/></g><g data-id="w1hrwdqw" data-class="stem" class="stem"><path d="M9359 478 L9359 1080" stroke-width="18"/><g data-id="xkpn49d" data-class="flag" class="flag"><use href="#E241-w1vcp1nb" transform="translate(9350, 1080) scale(0.72, 0.72)"/></g></g><g data-id="l1lllw2t" data-class="accid" class="accid"/></g><g data-id="c1qgl2sr" data-class="note" class="note"><g data-class="notehead" class="notehead"><use href="#E0A4-w1vcp1nb" transform="translate(9850, 540) scale(0.72, 0.72)"/></g><g data-id="y1piinp4" data-class="stem" class="stem"><path d="M9859 568 L9859 1170" stroke-width="18"/><g data-id="z184015d" data-class="flag" class="flag"><use href="#E241-w1vcp1nb" transform="translate(9850, 1170) scale(0.72, 0.72)"/></g></g><g data-id="m1qjbsnt" data-class="accid" class="accid"/></g><g data-id="d1bqrjfe" data-class="note" class="note"><g data-class="notehead" class="notehead"><use href="#E0A4-w1vcp1nb" transform="translate(10349, 630) scale(0.72, 0.72)"/></g><g data-id="a1nij602" data-class="stem" class="stem"><path d="M10358 658 L10358 1260" stroke-width="18"/><g data-id="bzpvw90" data-class="flag" class="flag"><use href="#E241-w1vcp1nb" transform="translate(10349, 1260) scale(0.72, 0.72)"/></g></g></g><g data-id="e4km1j1" data-class="note" class="note"><g data-class="notehead" class="notehead"><use href="#E0A4-w1vcp1nb" transform="translate(10848, 720) scale(0.72, 0.72)"/></g><g data-id="c1q8kzsn" data-class="stem" class="stem"><path d="M10857 748 L10857 1350" stroke-width="18"/><g data-id="d1ir46bw" data-class="flag" class="flag"><use href="#E241-w1vcp1nb" transform="translate(10848, 1350) scale(0.72, 0.72)"/></g></g><g data-id="n1srjic9" data-class="accid" class="accid"/></g><g data-id="f18u9ext" data-class="note" class="note"><g data-class="notehead" class="notehead"><use href="#E0A4-w1vcp1nb" transform="translate(11347, 810) scale(0.72, 0.72)"/></g><g data-id="e1ul2w8b" data-class="stem" class="stem"><path d="M11356 838 L11356 1440" stroke-width="18"/><g data-id="f44d03z" data-class="flag" class="flag"><use href="#E241-w1vcp1nb" transform="translate(11347, 1440) scale(0.72, 0.72)"/></g></g><g data-id="omyj61c" data-class="accid" class="accid"/></g></g></g><g data-id="g9cgyfd" data-class="barLine" class="barLine"><path d="M11847 540 L11847 1260" stroke-width="27"/></g></g><g data-id="hs68g8u" data-class="measure" class="measure"><g data-id="n1d2m612" data-class="staff" class="staff"><path d="M11860 540 L14004 540" stroke-width="13"/><path d="M11860 720 L14004 720" stroke-width="13"/><path d="M11860 900 L14004 900" stroke-width="13"/><path d="M11860 1080 L14004 1080" stroke-width="13"/><path d="M11860 1260 L14004 1260" stroke-width="13"/><g data-id="o1r251qw" data-class="layer" class="layer"><g data-id="gsehf0d" data-class="note" class="note"><g data-class="notehead" class="notehead"><use href="#E0A3-w1vcp1nb" transform="translate(12060, 900) scale(0.72, 0.72)"/></g><g data-id="g1vq4uwr" data-class="stem" class="stem"><path d="M12069 925 L12069 1500" stroke-width="18"/></g></g><g data-id="h1b2o4xa" data-class="note" class="note"><g data-class="notehead" class="notehead"><use href="#E0A4-w1vcp1nb" transform="translate(13225, 900) scale(0.72, 0.72)"/></g><g data-id="h175igc6" data-class="stem" class="stem"><path d="M13234 928 L13234 1500" stroke-width="18"/></g></g></g></g><g data-id="prkgzjb" data-class="barLine" class="barLine"><path d="M13991 540 L13991 1260" stroke-width="27"/></g></g><g data-id="wvlpcei" data-class="systemMilestoneEnd" class="systemMilestoneEnd t1ti5wgn"/></g><g data-id="x4icst1" data-class="pageMilestoneEnd" class="pageMilestoneEnd rshbaeb"/><g data-id="y1vnmf5n" data-class="pageMilestoneEnd" class="pageMilestoneEnd q5kz0dx"/></g></svg></svg>