<svg viewBox="0 0 560 84" version="1.1" xmlns="http://www.w3.org/2000/svg" xmlns:xlink="http://www.w3.org/1999/xlink" overflow="visible" id="r1svnscg"><desc>Engraved by Verovio 5.6.0-85e7620</desc><defs><g id="E050-r1svnscg"><path transform="scale(1,-1)" d="M441 -245c-23 -4 -48 -6 -76 -6c-59 0 -102 7 -130 20c-88 42 -150 93 -187 154c-26 44 -43 103 -48 176c0 6 -1 13 -1 19c0 54 15 111 45 170c29 57 65 106 110 148s96 85 153 127c-3 16 -8 46 -13 92c-4 43 -5 73 -5 89c0 117 16 172 69 257c34 54 64 82 89 82 c21 0 43 -30 69 -92s39 -115 41 -159v-15c0 -109 -21 -162 -67 -241c-13 -20 -63 -90 -98 -118c-13 -9 -25 -19 -37 -29l31 -181c8 1 18 2 28 2c58 0 102 -12 133 -35c59 -43 92 -104 98 -184c1 -7 1 -15 1 -22c0 -123 -87 -209 -181 -248c8 -57 17 -110 25 -162 c5 -31 6 -58 6 -80c0 -30 -5 -53 -14 -70c-35 -64 -88 -99 -158 -103c-5 0 -11 -1 -16 -1c-37 0 -72 10 -108 27c-50 24 -77 59 -80 105v11c0 29 7 55 20 76c18 28 45 42 79 44h6c49 0 93 -42 97 -87v-9c0 -51 -34 -86 -105 -106c17 -24 51 -36 102 -36c62 0 116 43 140 85 c9 16 13 41 13 74c0 20 -1 42 -5 67c-8 53 -18 106 -26 159zM461 939c-95 0 -135 -175 -135 -286c0 -24 2 -48 5 -71c50 39 92 82 127 128c40 53 60 100 60 140v8c-4 53 -22 81 -55 81h-2zM406 119l54 -326c73 25 110 78 110 161c0 7 0 15 -1 23c-7 95 -57 142 -151 142h-12 zM382 117c-72 -2 -128 -47 -128 -120v-7c2 -46 43 -99 75 -115c-3 -2 -7 -5 -10 -10c-70 33 -116 88 -123 172v11c0 68 44 126 88 159c23 17 49 29 78 36l-29 170c-21 -13 -52 -37 -92 -73c-50 -44 -86 -84 -109 -119c-45 -69 -67 -130 -67 -182v-13c5 -68 35 -127 93 -176 s125 -73 203 -73c25 0 50 3 75 9c-19 111 -36 221 -54 331z"/></g><g id="E262-r1svnscg"><path transform="scale(1,-1)" d="M136 186v169h17v-164l44 14v-91l-44 -14v-165l44 12v-91l-44 -13v-155h-17v150l-76 -22v-155h-17v149l-43 -13v90l43 14v167l-43 -14v92l43 13v169h17v-163zM60 73v-167l76 22v168z"/></g><g id="E086-r1svnscg"><path transform="scale(1,-1)" d="M284 -91c0 37 -28 92 -67 92c-35 0 -65 -54 -65 -111c0 -52 22 -104 68 -104c47 0 64 68 64 123zM230 214c-36 0 -90 -33 -90 -184l2 -36c40 24 81 36 120 36c80 0 140 -48 140 -121c0 -99 -99 -159 -182 -159c-160 0 -200 173 -200 244c0 21 2 43 7 71l10 35 c26 85 73 115 98 126c41 19 74 24 103 24c93 0 142 -63 142 -105c0 -58 -52 -72 -73 -72c-33 0 -59 24 -65 35c-3 5 -6 14 -7 25l11 30c6 15 9 27 9 35c0 11 -9 16 -25 16z"/></g><g id="E088-r1svnscg"><path transform="scale(1,-1)" d="M195 -214c76 0 88 58 90 68c0 34 -35 60 -57 73l-52 29c-21 10 -32 17 -34 20c-39 -33 -58 -54 -62 -92c5 -23 23 -98 115 -98zM301 135c0 61 -72 76 -113 76c-40 0 -77 -17 -77 -51c3 -21 15 -38 26 -50c17 -15 33 -26 48 -34l65 -28c34 27 51 56 51 87zM176 -250 c-57 0 -166 26 -166 132c0 47 30 86 89 116c-33 15 -79 60 -79 119c0 79 85 132 178 132h18c5 0 21 1 28 -1c25 0 126 -30 126 -110c0 -37 -23 -76 -69 -116c43 -25 83 -71 83 -119c0 -101 -118 -153 -208 -153z"/></g><g id="E4E6-r1svnscg"><path transform="scale(1,-1)" d="M0 123c7 34 33 56 69 60c29 -3 43 -9 53 -29c4 -8 7 -15 10 -22c0 -21 -1 -25 -11 -35c-5 -8 -18 -14 -40 -20l12 -3l15 -1c44 0 97 26 122 56c10 11 18 26 24 42c7 1 15 2 22 3l-140 -424h-36l111 330c-10 -6 -27 -12 -53 -16l-52 -8h-10l-20 1c-1 0 -8 3 -21 6 c-37 9 -55 28 -55 60z"/></g><g id="E0A4-r1svnscg"><path transform="scale(1,-1)" d="M0 -39c0 68 73 172 200 172c66 0 114 -37 114 -95c0 -84 -106 -171 -218 -171c-64 0 -96 30 -96 94z"/></g></defs><style type="text/css">#r1svnscg g.page-margin {font-family:Times,serif;}#r1svnscg g.ending, #r1svnscg g.fing, #r1svnscg g.reh, #r1svnscg g.tempo {font-weight:bold;}#r1svnscg g.dir, #r1svnscg g.dynam, #r1svnscg g.mNum {font-style:italic;}#r1svnscg g.label {font-weight:normal;}#r1svnscg path {stroke:currentColor}</style><svg class="definition-scale" color="black" viewBox="0 0 14000 2100"><g class="page-margin" transform="translate(0, 150)"><g data-id="f1eqxrjl" data-class="mdiv" class="mdiv pageMilestone"/><g data-id="g1w7gtsa" data-class="score" class="score pageMilestone"/><g data-id="a1dut6ny" data-class="system" class="system"><g data-id="ia25q2o" data-class="section" class="section systemMilestone"/><g data-id="s1wd8swc" data-class="measure" class="measure"><g data-id="u9v8cnn" data-class="staff" class="staff"><path d="M0 540 L4848 540" stroke-width="13"/><path d="M0 720 L4848 720" stroke-width="13"/><path d="M0 900 L4848 900" stroke-width="13"/><path d="M0 1080 L4848 1080" stroke-width="13"/><path d="M0 1260 L4848 1260" stroke-width="13"/><g data-id="e1pw6dn0" data-class="clef" class="clef"><use href="#E050-r1svnscg" transform="translate(90, 1080) scale(0.72, 0.72)"/></g><g data-id="fmxp5ay" data-class="keySig" class="keySig"><g data-id="g5lo993" data-class="keyAccid" class="keyAccid"><use href="#E262-r1svnscg" transform="translate(735, 540) scale(0.72, 0.72)"/></g><g data-id="hbjeb01" data-class="keyAccid" class="keyAccid"><use href="#E262-r1svnscg" transform="translate(913, 810) scale(0.72, 0.72)"/></g><g data-id="i1rneoxy" data-class="keyAccid" class="keyAccid"><use href="#E262-r1svnscg" transform="translate(1091, 450) scale(0.72, 0.72)"/></g><g data-id="j163pa5h" data-class="keyAccid" class="keyAccid"><use href="#E262-r1svnscg" transform="translate(1269, 720) scale(0.72, 0.72)"/></g></g><g data-id="k1xtdf0h" data-class="meterSig" class="meterSig"><use href="#E086-r1svnscg" transform="translate(1576, 720) scale(0.72, 0.72)"/><use href="#E088-r1svnscg" transform="translate(1583, 1080) scale(0.72, 0.72)"/></g><g data-class="ledgerLines" class="ledgerLines below"><g data-class="lineDash" class="lineDash" data-related="#mmngal7"><path d="M2537 1440 L2859 1440" stroke-width="22"/></g><g data-class="lineDash" class="lineDash" data-related="#n1f8rri7"><path d="M2987 1440 L3309 1440" stroke-width="22"/></g><g data-class="lineDash" class="lineDash" data-related="#mmngal7"><path d="M2537 1620 L2859 1620" stroke-width="22"/></g></g><g data-id="v40upup" data-class="layer" class="layer"><g data-id="kf85mlt" data-class="rest" class="rest"><use href="#E4E6-r1svnscg" transform="translate(2135, 900) scale(0.72, 0.72)"/></g><g data-id="w1o1k44u" data-class="beam" class="beam"><polygon stroke-opacity="1" fill-opacity="1" points="2793,855 3261,810 3261,900 2793,945"/><g data-id="mmngal7" data-class="note" class="note"><g data-class="notehead" class="notehead"><use href="#E0A4-r1svnscg" transform="translate(2585, 1710) scale(0.72, 0.72)"/></g><g data-id="m9sk25j" data-class="stem" class="stem"><path d="M2802 1682 L2802 873" stroke-width="18"/></g><g data-id="a1xum63h" data-class="accid" class="accid"/></g><g data-id="n1f8rri7" data-class="note" class="note"><g data-class="notehead" class="notehead"><use href="#E0A4-r1svnscg" transform="translate(3035, 1530) scale(0.72, 0.72)"/></g><g data-id="n7xdlkj" data-class="stem" class="stem"><path d="M3252 1502 L3252 828" stroke-width="18"/></g></g></g><g data-id="xgkk8xl" data-class="beam" class="beam"><polygon stroke-opacity="1" fill-opacity="1" points="3693,495 4611,495 4611,585 3693,585"/><g data-id="ote4sxl" data-class="note" class="note"><g data-class="notehead" class="notehead"><use href="#E0A4-r1svnscg" transform="translate(3485, 1080) scale(0.72, 0.72)"/></g><g data-id="o1pmchds" data-class="stem" class="stem"><path d="M3702 1052 L3702 513" stroke-width="18"/></g><g data-id="bjgib00" data-class="accid" class="accid"/></g><g data-id="p12scasf" data-class="note" class="note"><g data-class="notehead" class="notehead"><use href="#E0A4-r1svnscg" transform="translate(3935, 1080) scale(0.72, 0.72)"/></g><g data-id="p1re9fmg" data-class="stem" class="stem"><path d="M4152 1052 L4152 513" stroke-width="18"/></g><g data-id="csked36" data-class="accid" class="accid"/></g><g data-id="q1u3fnac" data-class="note" class="note"><g data-class="notehead" class="notehead"><use href="#E0A4-r1svnscg" transform="translate(4385, 1080) scale(0.72, 0.72)"/></g><g data-id="q1nf4wqw" data-class="stem" class="stem"><path d="M4602 1052 L4602 513" stroke-width="18"/></g><g data-id="d1s9derb" data-class="accid" class="accid"/></g></g></g></g><g data-id="a77phpw" data-class="barLine" class="barLine"><path d="M4835 540 L4835 1260" stroke-width="27"/></g></g><g data-id="b1rfklyv" data-class="measure" class="measure"><g data-id="w1jygkqy" data-class="staff" class="staff"><path d="M4848 540 L7741 540" stroke-width="13"/><path d="M4848 720 L7741 720" stroke-width="13"/><path d="M4848 900 L7741 900" stroke-width="13"/><path d="M4848 1080 L7741 1080" stroke-width="13"/><path d="M4848 1260 L7741 1260" stroke-width="13"/><g data-class="ledgerLines" class="ledgerLines below"><g data-class="lineDash" class="lineDash" data-related="#r1fc6s53"><path d="M5430 1440 L5752 1440" stroke-width="22"/></g></g><g data-id="x14lpooi" data-class="layer" class="layer"><g data-id="lqj97x9" data-class="rest" class="rest"><use href="#E4E6-r1svnscg" transform="translate(5028, 900) scale(0.72, 0.72)"/></g><g data-id="y1q36cka" data-class="beam" class="beam"><polygon stroke-opacity="1" fill-opacity="1" points="5686,675 6154,630 6154,720 5686,765"/><g data-id="r1fc6s53" data-class="note" class="note"><g data-class="notehead" class="notehead"><use href="#E0A4-r1svnscg" transform="translate(5478, 1530) scale(0.72, 0.72)"/></g><g data-id="r6x2rv2" data-class="stem" class="stem"><path d="M5695 1502 L5695 693" stroke-width="18"/></g></g><g data-id="s1163dj3" data-class="note" class="note"><g data-class="notehead" class="notehead"><use href="#E0A4-r1svnscg" transform="translate(5928, 1260) scale(0.72, 0.72)"/></g><g data-id="s1qd48z1" data-class="stem" class="stem"><path d="M6145 1232 L6145 648" stroke-width="18"/></g></g></g><g data-id="zm6kbql" data-class="beam" class="beam"><polygon stroke-opacity="1" fill-opacity="1" points="6378,1485 7296,1485 7296,1395 6378,1395"/><g data-id="t7ex8ne" data-class="note" class="note"><g data-class="notehead" class="notehead"><use href="#E0A4-r1svnscg" transform="translate(6378, 900) scale(0.72, 0.72)"/></g><g data-id="tk2ba5y" data-class="stem" class="stem"><path d="M6387 928 L6387 1467" stroke-width="18"/></g></g><g data-id="uu438d9" data-class="note" class="note"><g data-class="notehead" class="notehead"><use href="#E0A4-r1svnscg" transform="translate(6828, 900) scale(0.72, 0.72)"/></g><g data-id="uyuwc9s" data-class="stem" class="stem"><path d="M6837 928 L6837 1467" stroke-width="18"/></g></g><g data-id="v1dcz2u" data-class="note" class="note"><g data-class="notehead" class="notehead"><use href="#E0A4-r1svnscg" transform="translate(7278, 900) scale(0.72, 0.72)"/></g><g data-id="vit33ih" data-class="stem" class="stem"><path d="M7287 928 L7287 1467" stroke-width="18"/></g></g></g></g></g><g data-id="jfc5vpa" data-class="barLine" class="barLine"><path d="M7728 540 L7728 1260" stroke-width="27"/></g></g><g data-id="f7ykc3n" data-class="systemMilestoneEnd" class="systemMilestoneEnd ia25q2o"/></g><g data-id="g1woys4v" data-class="pageMilestoneEnd" class="pageMilestoneEnd g1w7gtsa"/><g data-id="ha0m1g" data-class="pageMilestoneEnd" class="pageMilestoneEnd f1eqxrjl"/></g></svg></svg>