<svg viewBox="0 0 560 84" version="1.1" xmlns="http://www.w3.org/2000/svg" xmlns:xlink="http://www.w3.org/1999/xlink" overflow="visible" id="zqj8tg2"><desc>Engraved by Verovio 5.6.0-85e7620</desc><defs><g id="E050-zqj8tg2"><path transform="scale(1,-1)" d="M441 -245c-23 -4 -48 -6 -76 -6c-59 0 -102 7 -130 20c-88 42 -150 93 -187 154c-26 44 -43 103 -48 176c0 6 -1 13 -1 19c0 54 15 111 45 170c29 57 65 106 110 148s96 85 153 127c-3 16 -8 46 -13 92c-4 43 -5 73 -5 89c0 117 16 172 69 257c34 54 64 82 89 82 c21 0 43 -30 69 -92s39 -115 41 -159v-15c0 -109 -21 -162 -67 -241c-13 -20 -63 -90 -98 -118c-13 -9 -25 -19 -37 -29l31 -181c8 1 18 2 28 2c58 0 102 -12 133 -35c59 -43 92 -104 98 -184c1 -7 1 -15 1 -22c0 -123 -87 -209 -181 -248c8 -57 17 -110 25 -162 c5 -31 6 -58 6 -80c0 -30 -5 -53 -14 -70c-35 -64 -88 -99 -158 -103c-5 0 -11 -1 -16 -1c-37 0 -72 10 -108 27c-50 24 -77 59 -80 105v11c0 29 7 55 20 76c18 28 45 42 79 44h6c49 0 93 -42 97 -87v-9c0 -51 -34 -86 -105 -106c17 -24 51 -36 102 -36c62 0 116 43 140 85 c9 16 13 41 13 74c0 20 -1 42 -5 67c-8 53 -18 106 -26 159zM461 939c-95 0 -135 -175 -135 -286c0 -24 2 -48 5 -71c50 39 92 82 127 128c40 53 60 100 60 140v8c-4 53 -22 81 -55 81h-2zM406 119l54 -326c73 25 110 78 110 161c0 7 0 15 -1 23c-7 95 -57 142 -151 142h-12 zM382 117c-72 -2 -128 -47 -128 -120v-7c2 -46 43 -99 75 -115c-3 -2 -7 -5 -10 -10c-70 33 -116 88 -123 172v11c0 68 44 126 88 159c23 17 49 29 78 36l-29 170c-21 -13 -52 -37 -92 -73c-50 -44 -86 -84 -109 -119c-45 -69 -67 -130 -67 -182v-13c5 -68 35 -127 93 -176 s125 -73 203 -73c25 0 50 3 75 9c-19 111 -36 221 -54 331z"/></g><g id="E260-zqj8tg2"><path transform="scale(1,-1)" d="M20 110c32 16 54 27 93 27c26 0 35 -3 54 -13c13 -7 24 -20 27 -38l4 -25c0 -28 -16 -57 -45 -89c-23 -25 -39 -44 -65 -68l-88 -79v644h20v-359zM90 106c-32 0 -48 -10 -70 -29v-194c31 31 54 59 71 84c21 32 32 59 32 84c0 9 1 16 1 20c0 14 -3 21 -11 30l-8 3z"/></g><g id="E083-zqj8tg2"><path transform="scale(1,-1)" d="M208 250c97 0 177 -52 177 -116c0 -69 -40 -111 -118 -125c56 -5 125 -44 125 -116c0 -31 -10 -57 -31 -78c-19 -21 -45 -38 -78 -49l-50 -11c-15 -3 -36 -7 -55 -7c-50 0 -86 16 -113 38c-16 10 -23 18 -34 34c-7 13 -11 25 -11 38c0 43 27 83 68 83l3 -2 c61 0 75 -42 75 -70c0 -19 -24 -42 -26 -57c7 -17 20 -25 37 -25c44 0 94 29 94 78c0 75 -34 125 -138 125v36c84 0 131 22 131 98c0 54 -37 88 -87 88c-26 0 -43 -7 -51 -22c15 -22 44 -16 44 -70c0 -37 -37 -62 -71 -62c-22 0 -69 15 -69 76c0 79 101 116 178 116z"/></g><g id="E084-zqj8tg2"><path transform="scale(1,-1)" d="M20 -78c84 97 114 180 134 329h170c-13 -32 -82 -132 -99 -151l-84 -97c-33 -36 -59 -63 -80 -81h162v102l127 123v-225h57v-39h-57v-34c0 -43 19 -65 57 -65v-34h-244v36c48 0 60 26 60 70v27h-203v39z"/></g><g id="E0A4-zqj8tg2"><path transform="scale(1,-1)" d="M0 -39c0 68 73 172 200 172c66 0 114 -37 114 -95c0 -84 -106 -171 -218 -171c-64 0 -96 30 -96 94z"/></g><g id="E241-zqj8tg2"><path transform="scale(1,-1)" d="M179 646c-4 8 -17 30 -18 33l-4 10c0 3 2 5 5 5s7 -2 13 -7c23 -33 46 -81 66 -132c22 -57 35 -125 35 -163c0 -104 -60 -183 -122 -241c-63 -59 -57 -53 -61 -56c-38 -34 -63 -95 -71 -95h-22v190c40 7 69 11 87 16c88 27 168 95 168 200c0 30 -12 89 -30 138 c-17 47 -31 73 -46 102z"/></g><g id="E243-zqj8tg2"><path transform="scale(1,-1)" d="M216 730c-5 8 -10 13 -11 16l-4 10c0 3 2 5 5 5s7 -2 13 -7c35 -42 57 -101 57 -172c0 -34 -6 -65 -17 -94c10 -31 17 -64 17 -96c0 -104 -60 -183 -122 -241c-63 -59 -57 -53 -61 -56c-38 -34 -63 -95 -71 -95h-22v190v190c40 7 69 11 87 16c116 36 175 111 175 197 c0 44 -15 91 -46 137zM248 463c-23 -48 -58 -89 -94 -122c-63 -59 -57 -53 -61 -56c-30 -27 -44 -71 -53 -88c20 3 36 6 47 9c88 27 168 95 168 200c0 19 -3 39 -7 57z"/></g><g id="E261-zqj8tg2"><path transform="scale(1,-1)" d="M0 -188v539h18v-191l139 22v-533h-17v186zM18 -100l122 17v176l-122 -19v-174z"/></g></defs><style type="text/css">#zqj8tg2 g.page-margin {font-family:Times,serif;}#zqj8tg2 g.ending, #zqj8tg2 g.fing, #zqj8tg2 g.reh, #zqj8tg2 g.tempo {font-weight:bold;}#zqj8tg2 g.dir, #zqj8tg2 g.dynam, #zqj8tg2 g.mNum {font-style:italic;}#zqj8tg2 g.label {font-weight:normal;}#zqj8tg2 path {stroke:currentColor}</style><svg class="definition-scale" color="black" viewBox="0 0 14000 2100"><g class="page-margin" transform="translate(0, 150)"><g data-id="k16yldwo" data-class="mdiv" class="mdiv pageMilestone"/><g data-id="ljrsxux" data-class="score" class="score pageMilestone"/><g data-id="jnn60a5" data-class="system" class="system"><g data-id="n1sjue9m" data-class="section" class="section systemMilestone"/><g data-id="als8jlz" data-class="measure" class="measure"><g data-id="z1lr627l" data-class="staff" class="staff"><path d="M0 540 L2308 540" stroke-width="13"/><path d="M0 720 L2308 720" stroke-width="13"/><path d="M0 900 L2308 900" stroke-width="13"/><path d="M0 1080 L2308 1080" stroke-width="13"/><path d="M0 1260 L2308 1260" stroke-width="13"/><g data-id="q1p0dd72" data-class="clef" class="clef"><use href="#E050-zqj8tg2" transform="translate(90, 1080) scale(0.72, 0.72)"/></g><g data-id="ri1xhan" data-class="keySig" class="keySig"><g data-id="s1n4iais" data-class="keyAccid" class="keyAccid"><use href="#E260-zqj8tg2" transform="translate(735, 900) scale(0.72, 0.72)"/></g></g><g data-id="twbchc7" data-class="meterSig" class="meterSig"><use href="#E083-zqj8tg2" transform="translate(1049, 720) scale(0.72, 0.72)"/><use href="#E084-zqj8tg2" transform="translate(1043, 1080) scale(0.72, 0.72)"/></g><g data-id="a1umbdrl" data-class="layer" class="layer"><g data-id="tuj9993" data-class="note" class="note"><g data-class="notehead" class="notehead"><use href="#E0A4-zqj8tg2" transform="translate(1605, 810) scale(0.72, 0.72)"/></g><g data-id="umrb7dl" data-class="stem" class="stem"><path d="M1614 838 L1614 1440" stroke-width="18"/></g></g></g></g><g data-id="ife2efx" data-class="barLine" class="barLine"><path d="M2295 540 L2295 1260" stroke-width="27"/></g></g><g data-id="jsfn1ms" data-class="measure" class="measure"><g data-id="b1x70swr" data-class="staff" class="staff"><path d="M2308 540 L4731 540" stroke-width="13"/><path d="M2308 720 L4731 720" stroke-width="13"/><path d="M2308 900 L4731 900" stroke-width="13"/><path d="M2308 1080 L4731 1080" stroke-width="13"/><path d="M2308 1260 L4731 1260" stroke-width="13"/><g data-class="ledgerLines" class="ledgerLines above"><g data-class="lineDash" class="lineDash" data-related="#u113xkmp"><path d="M2440 360 L2762 360" stroke-width="22"/></g></g><g data-id="c1w3z0tj" data-class="layer" class="layer"><g data-id="u113xkmp" data-class="note" class="note"><g data-class="notehead" class="notehead"><use href="#E0A4-zqj8tg2" transform="translate(2488, 360) scale(0.72, 0.72)"/></g><g data-id="wvjtp27" data-class="dots" class="dots"><ellipse cx="2804" cy="270" rx="36" ry="36" fill-opacity="1" stroke-opacity="1"/></g><g data-id="vkgluab" data-class="stem" class="stem"><path d="M2497 388 L2497 990" stroke-width="18"/></g></g><g data-id="v1yqk5l8" data-class="note" class="note"><g data-class="notehead" class="notehead"><use href="#E0A4-zqj8tg2" transform="translate(3368, 540) scale(0.72, 0.72)"/></g><g data-id="xuwue6x" data-class="stem" class="stem"><path d="M3377 568 L3377 1170" stroke-width="18"/><g data-id="y1hdmwsv" data-class="flag" class="flag"><use href="#E241-zqj8tg2" transform="translate(3368, 1170) scale(0.72, 0.72)"/></g></g></g><g data-id="wt29z44" data-class="note" class="note"><g data-class="notehead" class="notehead"><use href="#E0A4-zqj8tg2" transform="translate(3818, 630) scale(0.72, 0.72)"/></g><g data-id="z8djreu" data-class="stem" class="stem"><path d="M3827 658 L3827 1260" stroke-width="18"/><g data-id="a17cz89y" data-class="flag" class="flag"><use href="#E241-zqj8tg2" transform="translate(3818, 1260) scale(0.72, 0.72)"/></g></g></g><g data-id="x19v9wvx" data-class="note" class="note"><g data-class="notehead" class="notehead"><use href="#E0A4-zqj8tg2" transform="translate(4268, 720) scale(0.72, 0.72)"/></g><g data-id="bc11gr4" data-class="stem" class="stem"><path d="M4277 748 L4277 1350" stroke-width="18"/><g data-id="c10iox66" data-class="flag" class="flag"><use href="#E241-zqj8tg2" transform="translate(4268, 1350) scale(0.72, 0.72)"/></g></g></g></g></g><g data-id="rui8s7v" data-class="barLine" class="barLine"><path d="M4718 540 L4718 1260" stroke-width="27"/></g></g><g data-id="s10q7uz" data-class="measure" class="measure"><g data-id="dtwvfni" data-class="staff" class="staff"><path d="M4731 540 L7200 540" stroke-width="13"/><path d="M4731 720 L7200 720" stroke-width="13"/><path d="M4731 900 L7200 900" stroke-width="13"/><path d="M4731 1080 L7200 1080" stroke-width="13"/><path d="M4731 1260 L7200 1260" stroke-width="13"/><g data-id="e1bsuwrd" data-class="layer" class="layer"><g data-id="ynpqvya" data-class="note" class="note"><g data-class="notehead" class="notehead"><use href="#E0A4-zqj8tg2" transform="translate(4911, 810) scale(0.72, 0.72)"/></g><g data-id="e1le375s" data-class="dots" class="dots"><ellipse cx="5227" cy="810" rx="36" ry="36" fill-opacity="1" stroke-opacity="1"/></g><g data-id="d1hfgd1k" data-class="stem" class="stem"><path d="M4920 838 L4920 1440" stroke-width="18"/><g data-id="ftre9fu" data-class="flag" class="flag"><use href="#E241-zqj8tg2" transform="translate(4911, 1440) scale(0.72, 0.72)"/></g></g></g><g data-id="zzg58hc" data-class="note" class="note"><g data-class="notehead" class="notehead"><use href="#E0A4-zqj8tg2" transform="translate(5491, 720) scale(0.72, 0.72)"/></g><g data-id="gnrfz2b" data-class="stem" class="stem"><path d="M5500 748 L5500 1350" stroke-width="18"/><g data-id="h6aeta7" data-class="flag" class="flag"><use href="#E243-zqj8tg2" transform="translate(5491, 1350) scale(0.72, 0.72)"/></g></g></g><g data-id="arugt6h" data-class="note" class="note"><g data-class="notehead" class="notehead"><use href="#E0A4-zqj8tg2" transform="translate(5807, 810) scale(0.72, 0.72)"/></g><g data-id="i1lmqms8" data-class="stem" class="stem"><path d="M5816 838 L5816 1440" stroke-width="18"/></g></g><g data-id="b1ekvj19" data-class="note" class="note"><g data-class="notehead" class="notehead"><use href="#E0A4-zqj8tg2" transform="translate(6497, 810) scale(0.72, 0.72)"/></g><g data-id="j1t95gyj" data-class="stem" class="stem"><path d="M6506 838 L6506 1440" stroke-width="18"/></g></g></g></g><g data-id="avj0jja" data-class="barLine" class="barLine"><path d="M7187 540 L7187 1260" stroke-width="27"/></g></g><g data-id="b1m6003r" data-class="measure" class="measure"><g data-id="fgpif4e" data-class="staff" class="staff"><path d="M7200 540 L9647 540" stroke-width="13"/><path d="M7200 720 L9647 720" stroke-width="13"/><path d="M7200 900 L9647 900" stroke-width="13"/><path d="M7200 1080 L9647 1080" stroke-width="13"/><path d="M7200 1260 L9647 1260" stroke-width="13"/><g data-id="g140gwis" data-class="layer" class="layer"><g data-id="cxz3gvq" data-class="note" class="note"><g data-class="notehead" class="notehead"><use href="#E0A4-zqj8tg2" transform="translate(7380, 810) scale(0.72, 0.72)"/></g><g data-id="lyag5km" data-class="dots" class="dots"><ellipse cx="7696" cy="810" rx="36" ry="36" fill-opacity="1" stroke-opacity="1"/></g><g data-id="k1gbrlvf" data-class="stem" class="stem"><path d="M7389 838 L7389 1440" stroke-width="18"/></g></g><g data-id="de5ddwy" data-class="note" class="note"><g data-class="notehead" class="notehead"><use href="#E0A4-zqj8tg2" transform="translate(8260, 810) scale(0.72, 0.72)"/></g><g data-id="m11oh6hd" data-class="stem" class="stem"><path d="M8269 838 L8269 1440" stroke-width="18"/><g data-id="n1lgvfn1" data-class="flag" class="flag"><use href="#E241-zqj8tg2" transform="translate(8260, 1440) scale(0.72, 0.72)"/></g></g></g><g data-id="e1wbjzgg" data-class="note" class="note"><g data-class="notehead" class="notehead"><use href="#E0A4-zqj8tg2" transform="translate(8734, 900) scale(0.72, 0.72)"/></g><g data-id="off3r3y" data-class="stem" class="stem"><path d="M8743 928 L8743 1500" stroke-width="18"/><g data-id="p1iv02j1" data-class="flag" class="flag"><use href="#E241-zqj8tg2" transform="translate(8734, 1500) scale(0.72, 0.72)"/></g></g><g data-id="i1acf0ah" data-class="accid" class="accid"><use href="#E261-zqj8tg2" transform="translate(8576, 900) scale(0.72, 0.72)"/></g></g><g data-id="f156lxvd" data-class="note" class="note"><g data-class="notehead" class="notehead"><use href="#E0A4-zqj8tg2" transform="translate(9184, 540) scale(0.72, 0.72)"/></g><g data-id="q1w0ghv1" data-class="stem" class="stem"><path d="M9193 568 L9193 1170" stroke-width="18"/><g data-id="r1b1xm1l" data-class="flag" class="flag"><use href="#E241-zqj8tg2" transform="translate(9184, 1170) scale(0.72, 0.72)"/></g></g></g></g></g><g data-id="j1sjvb4y" data-class="barLine" class="barLine"><path d="M9634 540 L9634 1260" stroke-width="27"/></g></g><g data-id="kmyf147" data-class="measure" class="measure"><g data-id="h1hajhpc" data-class="staff" class="staff"><path d="M9647 540 L11207 540" stroke-width="13"/><path d="M9647 720 L11207 720" stroke-width="13"/><path d="M9647 900 L11207 900" stroke-width="13"/><path d="M9647 1080 L11207 1080" stroke-width="13"/><path d="M9647 1260 L11207 1260" stroke-width="13"/><g data-id="imj6klh" data-class="layer" class="layer"><g data-id="g1bfpd7h" data-class="note" class="note"><g data-class="notehead" class="notehead"><use href="#E0A4-zqj8tg2" transform="translate(9827, 540) scale(0.72, 0.72)"/></g><g data-id="sa6kpoc" data-class="stem" class="stem"><path d="M9836 568 L9836 1170" stroke-width="18"/></g></g><g data-id="h6wvkn7" data-class="note" class="note"><g data-class="notehead" class="notehead"><use href="#E0A4-zqj8tg2" transform="translate(10517, 630) scale(0.72, 0.72)"/></g><g data-id="t5ev8gk" data-class="stem" class="stem"><path d="M10526 658 L10526 1260" stroke-width="18"/></g></g></g></g><g data-id="sd4rt7v" data-class="barLine" class="barLine"/></g><g data-id="qzol6cj" data-class="systemMilestoneEnd" class="systemMilestoneEnd n1sjue9m"/></g><g data-id="rmfkd3y" data-class="pageMilestoneEnd" class="pageMilestoneEnd ljrsxux"/><g data-id="s1ia5vab" data-class="pageMilestoneEnd" class="pageMilestoneEnd k16yldwo"/></g></svg></svg>