<svg viewBox="0 0 560 84" version="1.1" xmlns="http://www.w3.org/2000/svg" xmlns:xlink="http://www.w3.org/1999/xlink" overflow="visible" id="ckjuax0"><desc>Engraved by Verovio 5.6.0-85e7620</desc><defs><g id="E050-ckjuax0"><path transform="scale(1,-1)" d="M441 -245c-23 -4 -48 -6 -76 -6c-59 0 -102 7 -130 20c-88 42 -150 93 -187 154c-26 44 -43 103 -48 176c0 6 -1 13 -1 19c0 54 15 111 45 170c29 57 65 106 110 148s96 85 153 127c-3 16 -8 46 -13 92c-4 43 -5 73 -5 89c0 117 16 172 69 257c34 54 64 82 89 82 c21 0 43 -30 69 -92s39 -115 41 -159v-15c0 -109 -21 -162 -67 -241c-13 -20 -63 -90 -98 -118c-13 -9 -25 -19 -37 -29l31 -181c8 1 18 2 28 2c58 0 102 -12 133 -35c59 -43 92 -104 98 -184c1 -7 1 -15 1 -22c0 -123 -87 -209 -181 -248c8 -57 17 -110 25 -162 c5 -31 6 -58 6 -80c0 -30 -5 -53 -14 -70c-35 -64 -88 -99 -158 -103c-5 0 -11 -1 -16 -1c-37 0 -72 10 -108 27c-50 24 -77 59 -80 105v11c0 29 7 55 20 76c18 28 45 42 79 44h6c49 0 93 -42 97 -87v-9c0 -51 -34 -86 -105 -106c17 -24 51 -36 102 -36c62 0 116 43 140 85 c9 16 13 41 13 74c0 20 -1 42 -5 67c-8 53 -18 106 -26 159zM461 939c-95 0 -135 -175 -135 -286c0 -24 2 -48 5 -71c50 39 92 82 127 128c40 53 60 100 60 140v8c-4 53 -22 81 -55 81h-2zM406 119l54 -326c73 25 110 78 110 161c0 7 0 15 -1 23c-7 95 -57 142 -151 142h-12 zM382 117c-72 -2 -128 -47 -128 -120v-7c2 -46 43 -99 75 -115c-3 -2 -7 -5 -10 -10c-70 33 -116 88 -123 172v11c0 68 44 126 88 159c23 17 49 29 78 36l-29 170c-21 -13 -52 -37 -92 -73c-50 -44 -86 -84 -109 -119c-45 -69 -67 -130 -67 -182v-13c5 -68 35 -127 93 -176 s125 -73 203 -73c25 0 50 3 75 9c-19 111 -36 221 -54 331z"/></g><g id="E260-ckjuax0"><path transform="scale(1,-1)" d="M20 110c32 16 54 27 93 27c26 0 35 -3 54 -13c13 -7 24 -20 27 -38l4 -25c0 -28 -16 -57 -45 -89c-23 -25 -39 -44 -65 -68l-88 -79v644h20v-359zM90 106c-32 0 -48 -10 -70 -29v-194c31 31 54 59 71 84c21 32 32 59 32 84c0 9 1 16 1 20c0 14 -3 21 -11 30l-8 3z"/></g><g id="E08A-ckjuax0"><path transform="scale(1,-1)" d="M340 179c-9 24 -56 41 -89 41c-46 0 -81 -28 -100 -58c-17 -28 -25 -78 -25 -150c0 -65 2 -111 8 -135c8 -31 18 -49 40 -67c20 -17 43 -25 70 -25c54 0 92 36 115 75c14 25 23 54 28 88h27c0 -63 -24 -105 -58 -141c-35 -38 -82 -56 -140 -56c-45 0 -83 13 -115 39 c-57 45 -101 130 -101 226c0 59 33 127 68 163c36 37 97 72 160 72c36 0 93 -21 121 -40c11 -8 23 -17 33 -30c19 -23 27 -48 27 -76c0 -51 -35 -88 -86 -88c-43 0 -76 27 -76 68c0 26 7 35 21 51c15 17 32 27 58 32c7 2 14 7 14 11z"/></g><g id="E0A4-ckjuax0"><path transform="scale(1,-1)" d="M0 -39c0 68 73 172 200 172c66 0 114 -37 114 -95c0 -84 -106 -171 -218 -171c-64 0 -96 30 -96 94z"/></g><g id="E241-ckjuax0"><path transform="scale(1,-1)" d="M179 646c-4 8 -17 30 -18 33l-4 10c0 3 2 5 5 5s7 -2 13 -7c23 -33 46 -81 66 -132c22 -57 35 -125 35 -163c0 -104 -60 -183 -122 -241c-63 -59 -57 -53 -61 -56c-38 -34 -63 -95 -71 -95h-22v190c40 7 69 11 87 16c88 27 168 95 168 200c0 30 -12 89 -30 138 c-17 47 -31 73 -46 102z"/></g><g id="E261-ckjuax0"><path transform="scale(1,-1)" d="M0 -188v539h18v-191l139 22v-533h-17v186zM18 -100l122 17v176l-122 -19v-174z"/></g><g id="E240-ckjuax0"><path transform="scale(1,-1)" d="M179 -646c15 29 29 55 46 102c18 49 30 108 30 138c0 105 -80 173 -168 200c-18 5 -47 9 -87 16v190h22c8 0 33 -61 71 -95c4 -3 -2 3 61 -56c62 -58 122 -137 122 -241c0 -38 -13 -106 -35 -163c-20 -51 -43 -99 -66 -132c-6 -5 -10 -7 -13 -7s-5 2 -5 5l4 10 c1 3 14 25 18 33z"/></g><g id="E4E6-ckjuax0"><path transform="scale(1,-1)" d="M0 123c7 34 33 56 69 60c29 -3 43 -9 53 -29c4 -8 7 -15 10 -22c0 -21 -1 -25 -11 -35c-5 -8 -18 -14 -40 -20l12 -3l15 -1c44 0 97 26 122 56c10 11 18 26 24 42c7 1 15 2 22 3l-140 -424h-36l111 330c-10 -6 -27 -12 -53 -16l-52 -8h-10l-20 1c-1 0 -8 3 -21 6 c-37 9 -55 28 -55 60z"/></g></defs><style type="text/css">#ckjuax0 g.page-margin {font-family:Times,serif;}#ckjuax0 g.ending, #ckjuax0 g.fing, #ckjuax0 g.reh, #ckjuax0 g.tempo {font-weight:bold;}#ckjuax0 g.dir, #ckjuax0 g.dynam, #ckjuax0 g.mNum {font-style:italic;}#ckjuax0 g.label {font-weight:normal;}#ckjuax0 path {stroke:currentColor}</style><svg class="definition-scale" color="black" viewBox="0 0 14000 2100"><g class="page-margin" transform="translate(0, 150)"><g data-id="xdtets8" data-class="mdiv" class="mdiv pageMilestone"/><g data-id="y1yykdj0" data-class="score" class="score pageMilestone"/><g data-id="f1ut88ma" data-class="system" class="system"><g data-id="arda7by" data-class="section" class="section systemMilestone"/><g data-id="d4shwcf" data-class="measure" class="measure"><g data-id="migf3y6" data-class="staff" class="staff"><path d="M0 540 L2112 540" stroke-width="13"/><path d="M0 720 L2112 720" stroke-width="13"/><path d="M0 900 L2112 900" stroke-width="13"/><path d="M0 1080 L2112 1080" stroke-width="13"/><path d="M0 1260 L2112 1260" stroke-width="13"/><g data-id="m1mufkq2" data-class="clef" class="clef"><use href="#E050-ckjuax0" transform="translate(90, 1080) scale(0.72, 0.72)"/></g><g data-id="n100frmb" data-class="keySig" class="keySig"><g data-id="o1mof0gr" data-class="keyAccid" class="keyAccid"><use href="#E260-ckjuax0" transform="translate(735, 900) scale(0.72, 0.72)"/></g></g><g data-id="p1xg5ev6" data-class="meterSig" class="meterSig"><use href="#E08A-ckjuax0" transform="translate(1057, 900) scale(0.72, 0.72)"/></g><g data-id="ntd6rfo" data-class="layer" class="layer"><g data-id="p13uld3c" data-class="note" class="note"><g data-class="notehead" class="notehead"><use href="#E0A4-ckjuax0" transform="translate(1634, 810) scale(0.72, 0.72)"/></g><g data-id="frwif1a" data-class="stem" class="stem"><path d="M1643 838 L1643 1440" stroke-width="18"/><g data-id="g1k2nl06" data-class="flag" class="flag"><use href="#E241-ckjuax0" transform="translate(1634, 1440) scale(0.72, 0.72)"/></g></g></g></g></g><g data-id="l2oaoym" data-class="barLine" class="barLine"><path d="M2099 540 L2099 1260" stroke-width="27"/></g></g><g data-id="mxc43a7" data-class="measure" class="measure"><g data-id="o1k1x2cx" data-class="staff" class="staff"><path d="M2112 540 L5817 540" stroke-width="13"/><path d="M2112 720 L5817 720" stroke-width="13"/><path d="M2112 900 L5817 900" stroke-width="13"/><path d="M2112 1080 L5817 1080" stroke-width="13"/><path d="M2112 1260 L5817 1260" stroke-width="13"/><g data-class="ledgerLines" class="ledgerLines above"><g data-class="lineDash" class="lineDash" data-related="#q1mqh5x8"><path d="M2253 360 L2575 360" stroke-width="22"/></g></g><g data-id="p1utzk02" data-class="layer" class="layer"><g data-id="nfqxd17" data-class="beam" class="beam"><polygon stroke-opacity="1" fill-opacity="1" points="2301,1080 3714,1260 3714,1170 2301,990"/><g data-id="q1mqh5x8" data-class="note" class="note"><g data-class="notehead" class="notehead"><use href="#E0A4-ckjuax0" transform="translate(2301, 360) scale(0.72, 0.72)"/></g><g data-id="h1ng44pb" data-class="stem" class="stem"><path d="M2310 388 L2310 1062" stroke-width="18"/></g></g><g data-id="r1ifb65r" data-class="note" class="note"><g data-class="notehead" class="notehead"><use href="#E0A4-ckjuax0" transform="translate(2766, 450) scale(0.72, 0.72)"/></g><g data-id="in7pn4y" data-class="stem" class="stem"><path d="M2775 478 L2775 1122" stroke-width="18"/></g></g><g data-id="sw2ac6p" data-class="note" class="note"><g data-class="notehead" class="notehead"><use href="#E0A4-ckjuax0" transform="translate(3231, 540) scale(0.72, 0.72)"/></g><g data-id="j1l9w370" data-class="stem" class="stem"><path d="M3240 568 L3240 1182" stroke-width="18"/></g></g><g data-id="tol3ayl" data-class="note" class="note"><g data-class="notehead" class="notehead"><use href="#E0A4-ckjuax0" transform="translate(3696, 630) scale(0.72, 0.72)"/></g><g data-id="k1odhl96" data-class="stem" class="stem"><path d="M3705 658 L3705 1242" stroke-width="18"/></g></g></g><g data-id="uuiys8c" data-class="note" class="note"><g data-class="notehead" class="notehead"><use href="#E0A4-ckjuax0" transform="translate(4161, 630) scale(0.72, 0.72)"/></g><g data-id="lsw1xkq" data-class="stem" class="stem"><path d="M4170 658 L4170 1260" stroke-width="18"/></g></g><g data-id="oe440ji" data-class="beam" class="beam"><polygon stroke-opacity="1" fill-opacity="1" points="4874,1440 5357,1485 5357,1395 4874,1350"/><g data-id="v1tr3rzh" data-class="note" class="note"><g data-class="notehead" class="notehead"><use href="#E0A4-ckjuax0" transform="translate(4874, 720) scale(0.72, 0.72)"/></g><g data-id="mtc48w6" data-class="stem" class="stem"><path d="M4883 748 L4883 1422" stroke-width="18"/></g></g><g data-id="w6t18ev" data-class="note" class="note"><g data-class="notehead" class="notehead"><use href="#E0A4-ckjuax0" transform="translate(5339, 810) scale(0.72, 0.72)"/></g><g data-id="nxr29ej" data-class="stem" class="stem"><path d="M5348 838 L5348 1467" stroke-width="18"/></g></g></g></g></g><g data-id="udfzrw5" data-class="barLine" class="barLine"><path d="M5804 540 L5804 1260" stroke-width="27"/></g></g><g data-id="v1oom26u" data-class="measure" class="measure"><g data-id="q1am8huw" data-class="staff" class="staff"><path d="M5817 540 L9968 540" stroke-width="13"/><path d="M5817 720 L9968 720" stroke-width="13"/><path d="M5817 900 L9968 900" stroke-width="13"/><path d="M5817 1080 L9968 1080" stroke-width="13"/><path d="M5817 1260 L9968 1260" stroke-width="13"/><g data-id="r1job3bl" data-class="layer" class="layer"><g data-id="phdvhfk" data-class="beam" class="beam"><polygon stroke-opacity="1" fill-opacity="1" points="6172,1485 7585,1485 7585,1395 6172,1395"/><g data-id="x6j4w2q" data-class="note" class="note"><g data-class="notehead" class="notehead"><use href="#E0A4-ckjuax0" transform="translate(6172, 900) scale(0.72, 0.72)"/></g><g data-id="o1rlv6qe" data-class="stem" class="stem"><path d="M6181 928 L6181 1467" stroke-width="18"/></g><g data-id="l1jlnarl" data-class="accid" class="accid"><use href="#E261-ckjuax0" transform="translate(6014, 900) scale(0.72, 0.72)"/></g></g><g data-id="yhw10lf" data-class="note" class="note"><g data-class="notehead" class="notehead"><use href="#E0A4-ckjuax0" transform="translate(6637, 900) scale(0.72, 0.72)"/></g><g data-id="p1crrbbq" data-class="stem" class="stem"><path d="M6646 928 L6646 1467" stroke-width="18"/></g><g data-id="s1v055qa" data-class="accid" class="accid"/></g><g data-id="zh3wxwr" data-class="note" class="note"><g data-class="notehead" class="notehead"><use href="#E0A4-ckjuax0" transform="translate(7102, 900) scale(0.72, 0.72)"/></g><g data-id="q1alhlt3" data-class="stem" class="stem"><path d="M7111 928 L7111 1467" stroke-width="18"/></g><g data-id="tgias7t" data-class="accid" class="accid"/></g><g data-id="a1t0xgn" data-class="note" class="note"><g data-class="notehead" class="notehead"><use href="#E0A4-ckjuax0" transform="translate(7567, 900) scale(0.72, 0.72)"/></g><g data-id="ry2n1us" data-class="stem" class="stem"><path d="M7576 928 L7576 1467" stroke-width="18"/></g><g data-id="uwlifne" data-class="accid" class="accid"/></g></g><g data-id="q17j63oj" data-class="beam" class="beam"><polygon stroke-opacity="1" fill-opacity="1" points="8032,1485 9508,1485 9508,1395 8032,1395"/><g data-id="bqnx2xq" data-class="note" class="note"><g data-class="notehead" class="notehead"><use href="#E0A4-ckjuax0" transform="translate(8032, 720) scale(0.72, 0.72)"/></g><g data-id="shmswyz" data-class="stem" class="stem"><path d="M8041 748 L8041 1467" stroke-width="18"/></g></g><g data-id="clod6sf" data-class="note" class="note"><g data-class="notehead" class="notehead"><use href="#E0A4-ckjuax0" transform="translate(8497, 810) scale(0.72, 0.72)"/></g><g data-id="t10fpsxb" data-class="stem" class="stem"><path d="M8506 838 L8506 1467" stroke-width="18"/></g></g><g data-id="d182sv9v" data-class="note" class="note"><g data-class="notehead" class="notehead"><use href="#E0A4-ckjuax0" transform="translate(8962, 900) scale(0.72, 0.72)"/></g><g data-id="u1ix6hpk" data-class="stem" class="stem"><path d="M8971 928 L8971 1467" stroke-width="18"/></g><g data-id="vutlhgm" data-class="accid" class="accid"/></g><g data-id="e1ab2wa2" data-class="note" class="note"><g data-class="notehead" class="notehead"><use href="#E0A4-ckjuax0" transform="translate(9490, 900) scale(0.72, 0.72)"/></g><g data-id="v1cv0m9l" data-class="stem" class="stem"><path d="M9499 928 L9499 1467" stroke-width="18"/></g><g data-id="mi9fsr7" data-class="accid" class="accid"><use href="#E260-ckjuax0" transform="translate(9303, 900) scale(0.72, 0.72)"/></g></g></g></g></g><g data-id="d12yrptn" data-class="barLine" class="barLine"><path d="M9955 540 L9955 1260" stroke-width="27"/></g></g><g data-id="e67uvru" data-class="measure" class="measure"><g data-id="s117q3b5" data-class="staff" class="staff"><path d="M9968 540 L14002 540" stroke-width="13"/><path d="M9968 720 L14002 720" stroke-width="13"/><path d="M9968 900 L14002 900" stroke-width="13"/><path d="M9968 1080 L14002 1080" stroke-width="13"/><path d="M9968 1260 L14002 1260" stroke-width="13"/><g data-id="t1q5p35f" data-class="layer" class="layer"><g data-id="r1dqg932" data-class="beam" class="beam"><polygon stroke-opacity="1" fill-opacity="1" points="10365,360 11778,360 11778,450 10365,450"/><g data-id="f1d0278b" data-class="note" class="note"><g data-class="notehead" class="notehead"><use href="#E0A4-ckjuax0" transform="translate(10157, 990) scale(0.72, 0.72)"/></g><g data-id="wpl44qg" data-class="stem" class="stem"><path d="M10374 962 L10374 378" stroke-width="18"/></g></g><g data-id="g182f6u3" data-class="note" class="note"><g data-class="notehead" class="notehead"><use href="#E0A4-ckjuax0" transform="translate(10622, 1080) scale(0.72, 0.72)"/></g><g data-id="x1fwbvcm" data-class="stem" class="stem"><path d="M10839 1052 L10839 378" stroke-width="18"/></g></g><g data-id="h1bupfp" data-class="note" class="note"><g data-class="notehead" class="notehead"><use href="#E0A4-ckjuax0" transform="translate(11087, 1170) scale(0.72, 0.72)"/></g><g data-id="yultptg" data-class="stem" class="stem"><path d="M11304 1142 L11304 378" stroke-width="18"/></g></g><g data-id="ilj527e" data-class="note" class="note"><g data-class="notehead" class="notehead"><use href="#E0A4-ckjuax0" transform="translate(11552, 990) scale(0.72, 0.72)"/></g><g data-id="z1iwf0mn" data-class="stem" class="stem"><path d="M11769 962 L11769 378" stroke-width="18"/></g></g></g><g data-id="j1pjst70" data-class="note" class="note"><g data-class="notehead" class="notehead"><use href="#E0A4-ckjuax0" transform="translate(12017, 1080) scale(0.72, 0.72)"/></g><g data-id="atxxevj" data-class="stem" class="stem"><path d="M12234 1052 L12234 450" stroke-width="18"/><g data-id="b1tjfa1q" data-class="flag" class="flag"><use href="#E240-ckjuax0" transform="translate(12225, 450) scale(0.72, 0.72)"/></g></g></g><g data-id="n1jrwsg6" data-class="rest" class="rest"><use href="#E4E6-ckjuax0" transform="translate(12538, 900) scale(0.72, 0.72)"/></g><g data-id="k1u1bexj" data-class="note" class="note"><g data-class="notehead" class="notehead"><use href="#E0A4-ckjuax0" transform="translate(13003, 1260) scale(0.72, 0.72)"/></g><g data-id="cubciil" data-class="stem" class="stem"><path d="M13220 1232 L13220 630" stroke-width="18"/><g data-id="d1qvnwva" data-class="flag" class="flag"><use href="#E240-ckjuax0" transform="translate(13211, 630) scale(0.72, 0.72)"/></g></g></g><g data-id="o1xndxpc" data-class="rest" class="rest"><use href="#E4E6-ckjuax0" transform="translate(13524, 900) scale(0.72, 0.72)"/></g></g></g><g data-id="m1m4whbw" data-class="barLine" class="barLine"><path d="M13989 540 L13989 1260" stroke-width="27"/></g></g><g data-id="by3b18h" data-class="systemMilestoneEnd" class="systemMilestoneEnd arda7by"/></g><g data-id="c41x18r" data-class="pageMilestoneEnd" class="pageMilestoneEnd y1yykdj0"/><g data-id="d1llbg2o" data-class="pageMilestoneEnd" class="pageMilestoneEnd xdtets8"/></g></svg></svg>