<svg viewBox="0 0 560 84" version="1.1" xmlns="http://www.w3.org/2000/svg" xmlns:xlink="http://www.w3.org/1999/xlink" overflow="visible" id="k15bi144"><desc>Engraved by Verovio 5.6.0-85e7620</desc><defs><g id="E050-k15bi144"><path transform="scale(1,-1)" d="M441 -245c-23 -4 -48 -6 -76 -6c-59 0 -102 7 -130 20c-88 42 -150 93 -187 154c-26 44 -43 103 -48 176c0 6 -1 13 -1 19c0 54 15 111 45 170c29 57 65 106 110 148s96 85 153 127c-3 16 -8 46 -13 92c-4 43 -5 73 -5 89c0 117 16 172 69 257c34 54 64 82 89 82 c21 0 43 -30 69 -92s39 -115 41 -159v-15c0 -109 -21 -162 -67 -241c-13 -20 -63 -90 -98 -118c-13 -9 -25 -19 -37 -29l31 -181c8 1 18 2 28 2c58 0 102 -12 133 -35c59 -43 92 -104 98 -184c1 -7 1 -15 1 -22c0 -123 -87 -209 -181 -248c8 -57 17 -110 25 -162 c5 -31 6 -58 6 -80c0 -30 -5 -53 -14 -70c-35 -64 -88 -99 -158 -103c-5 0 -11 -1 -16 -1c-37 0 -72 10 -108 27c-50 24 -77 59 -80 105v11c0 29 7 55 20 76c18 28 45 42 79 44h6c49 0 93 -42 97 -87v-9c0 -51 -34 -86 -105 -106c17 -24 51 -36 102 -36c62 0 116 43 140 85 c9 16 13 41 13 74c0 20 -1 42 -5 67c-8 53 -18 106 -26 159zM461 939c-95 0 -135 -175 -135 -286c0 -24 2 -48 5 -71c50 39 92 82 127 128c40 53 60 100 60 140v8c-4 53 -22 81 -55 81h-2zM406 119l54 -326c73 25 110 78 110 161c0 7 0 15 -1 23c-7 95 -57 142 -151 142h-12 zM382 117c-72 -2 -128 -47 -128 -120v-7c2 -46 43 -99 75 -115c-3 -2 -7 -5 -10 -10c-70 33 -116 88 -123 172v11c0 68 44 126 88 159c23 17 49 29 78 36l-29 170c-21 -13 -52 -37 -92 -73c-50 -44 -86 -84 -109 -119c-45 -69 -67 -130 -67 -182v-13c5 -68 35 -127 93 -176 s125 -73 203 -73c25 0 50 3 75 9c-19 111 -36 221 -54 331z"/></g><g id="E260-k15bi144"><path transform="scale(1,-1)" d="M20 110c32 16 54 27 93 27c26 0 35 -3 54 -13c13 -7 24 -20 27 -38l4 -25c0 -28 -16 -57 -45 -89c-23 -25 -39 -44 -65 -68l-88 -79v644h20v-359zM90 106c-32 0 -48 -10 -70 -29v-194c31 31 54 59 71 84c21 32 32 59 32 84c0 9 1 16 1 20c0 14 -3 21 -11 30l-8 3z"/></g><g id="E08A-k15bi144"><path transform="scale(1,-1)" d="M340 179c-9 24 -56 41 -89 41c-46 0 -81 -28 -100 -58c-17 -28 -25 -78 -25 -150c0 -65 2 -111 8 -135c8 -31 18 -49 40 -67c20 -17 43 -25 70 -25c54 0 92 36 115 75c14 25 23 54 28 88h27c0 -63 -24 -105 -58 -141c-35 -38 -82 -56 -140 -56c-45 0 -83 13 -115 39 c-57 45 -101 130 -101 226c0 59 33 127 68 163c36 37 97 72 160 72c36 0 93 -21 121 -40c11 -8 23 -17 33 -30c19 -23 27 -48 27 -76c0 -51 -35 -88 -86 -88c-43 0 -76 27 -76 68c0 26 7 35 21 51c15 17 32 27 58 32c7 2 14 7 14 11z"/></g><g id="E0A4-k15bi144"><path transform="scale(1,-1)" d="M0 -39c0 68 73 172 200 172c66 0 114 -37 114 -95c0 -84 -106 -171 -218 -171c-64 0 -96 30 -96 94z"/></g><g id="E243-k15bi144"><path transform="scale(1,-1)" d="M216 730c-5 8 -10 13 -11 16l-4 10c0 3 2 5 5 5s7 -2 13 -7c35 -42 57 -101 57 -172c0 -34 -6 -65 -17 -94c10 -31 17 -64 17 -96c0 -104 -60 -183 -122 -241c-63 -59 -57 -53 -61 -56c-38 -34 -63 -95 -71 -95h-22v190v190c40 7 69 11 87 16c116 36 175 111 175 197 c0 44 -15 91 -46 137zM248 463c-23 -48 -58 -89 -94 -122c-63 -59 -57 -53 -61 -56c-30 -27 -44 -71 -53 -88c20 3 36 6 47 9c88 27 168 95 168 200c0 19 -3 39 -7 57z"/></g><g id="E0A3-k15bi144"><path transform="scale(1,-1)" d="M278 64c0 22 -17 39 -43 39c-12 0 -26 -3 -41 -10c-85 -43 -165 -94 -165 -156c5 -25 15 -32 49 -32c67 11 200 95 200 159zM0 -36c0 68 73 174 200 174c66 0 114 -39 114 -97c0 -84 -106 -173 -218 -173c-64 0 -96 32 -96 96z"/></g><g id="E241-k15bi144"><path transform="scale(1,-1)" d="M179 646c-4 8 -17 30 -18 33l-4 10c0 3 2 5 5 5s7 -2 13 -7c23 -33 46 -81 66 -132c22 -57 35 -125 35 -163c0 -104 -60 -183 -122 -241c-63 -59 -57 -53 -61 -56c-38 -34 -63 -95 -71 -95h-22v190c40 7 69 11 87 16c88 27 168 95 168 200c0 30 -12 89 -30 138 c-17 47 -31 73 -46 102z"/></g></defs><style type="text/css">#k15bi144 g.page-margin {font-family:Times,serif;}#k15bi144 g.ending, #k15bi144 g.fing, #k15bi144 g.reh, #k15bi144 g.tempo {font-weight:bold;}#k15bi144 g.dir, #k15bi144 g.dynam, #k15bi144 g.mNum {font-style:italic;}#k15bi144 g.label {font-weight:normal;}#k15bi144 path {stroke:currentColor}</style><svg class="definition-scale" color="black" viewBox="0 0 14000 2100"><g class="page-margin" transform="translate(0, 150)"><g data-id="n8wjn5e" data-class="mdiv" class="mdiv pageMilestone"/><g data-id="o10kzf45" data-class="score" class="score pageMilestone"/><g data-id="z11ld5xz" data-class="system" class="system"><g data-id="q145o939" data-class="section" class="section systemMilestone"/><g data-id="ltsypl6" data-class="measure" class="measure"><g data-id="c1ff4z9o" data-class="staff" class="staff"><path d="M0 540 L2148 540" stroke-width="13"/><path d="M0 720 L2148 720" stroke-width="13"/><path d="M0 900 L2148 900" stroke-width="13"/><path d="M0 1080 L2148 1080" stroke-width="13"/><path d="M0 1260 L2148 1260" stroke-width="13"/><g data-id="fg3vy0g" data-class="clef" class="clef"><use href="#E050-k15bi144" transform="translate(90, 1080) scale(0.72, 0.72)"/></g><g data-id="g1i83vic" data-class="keySig" class="keySig"><g data-id="h1mlzgxz" data-class="keyAccid" class="keyAccid"><use href="#E260-k15bi144" transform="translate(735, 900) scale(0.72, 0.72)"/></g><g data-id="ip0krfo" data-class="keyAccid" class="keyAccid"><use href="#E260-k15bi144" transform="translate(915, 630) scale(0.72, 0.72)"/></g></g><g data-id="j8g4mrr" data-class="meterSig" class="meterSig"><use href="#E08A-k15bi144" transform="translate(1237, 900) scale(0.72, 0.72)"/></g><g data-id="d1mvrh9c" data-class="layer" class="layer"><g data-id="v1uqikk9" data-class="note" class="note"><g data-class="notehead" class="notehead"><use href="#E0A4-k15bi144" transform="translate(1805, 900) scale(0.72, 0.72)"/></g><g data-id="wjrtf4p" data-class="stem" class="stem"><path d="M1814 928 L1814 1500" stroke-width="18"/><g data-id="xxnsxop" data-class="flag" class="flag"><use href="#E243-k15bi144" transform="translate(1805, 1500) scale(0.72, 0.72)"/></g></g><g data-id="h153ii0c" data-class="accid" class="accid"/></g></g></g><g data-id="tenh97d" data-class="barLine" class="barLine"><path d="M2135 540 L2135 1260" stroke-width="27"/></g></g><g data-id="u56kmxh" data-class="measure" class="measure"><g data-id="e1475gnk" data-class="staff" class="staff"><path d="M2148 540 L4441 540" stroke-width="13"/><path d="M2148 720 L4441 720" stroke-width="13"/><path d="M2148 900 L4441 900" stroke-width="13"/><path d="M2148 1080 L4441 1080" stroke-width="13"/><path d="M2148 1260 L4441 1260" stroke-width="13"/><g data-id="fqmt7ua" data-class="layer" class="layer"><g data-id="w1jiohwc" data-class="note" class="note"><g data-class="notehead" class="notehead"><use href="#E0A3-k15bi144" transform="translate(2328, 900) scale(0.72, 0.72)"/></g><g data-id="y1six0ea" data-class="stem" class="stem"><path d="M2337 925 L2337 1500" stroke-width="18"/></g><g data-id="i4motqt" data-class="accid" class="accid"/></g><g data-id="x1cq1fsh" data-class="note" class="note"><g data-class="notehead" class="notehead"><use href="#E0A3-k15bi144" transform="translate(3378, 900) scale(0.72, 0.72)"/></g><g data-id="z1psf0u8" data-class="stem" class="stem"><path d="M3387 925 L3387 1500" stroke-width="18"/></g><g data-id="j1sfyt4f" data-class="accid" class="accid"/></g></g></g><g data-id="cts0gh7" data-class="barLine" class="barLine"><path d="M4428 540 L4428 1260" stroke-width="27"/></g></g><g data-id="d1e8hp21" data-class="measure" class="measure"><g data-id="g6mv65l" data-class="staff" class="staff"><path d="M4441 540 L7284 540" stroke-width="13"/><path d="M4441 720 L7284 720" stroke-width="13"/><path d="M4441 900 L7284 900" stroke-width="13"/><path d="M4441 1080 L7284 1080" stroke-width="13"/><path d="M4441 1260 L7284 1260" stroke-width="13"/><g data-id="h1srw2jp" data-class="layer" class="layer"><g data-id="yreywa2" data-class="note" class="note"><g data-class="notehead" class="notehead"><use href="#E0A3-k15bi144" transform="translate(4621, 720) scale(0.72, 0.72)"/></g><g data-id="amy7uqu" data-class="stem" class="stem"><path d="M4630 745 L4630 1350" stroke-width="18"/></g></g><g data-id="z7p1aav" data-class="note" class="note"><g data-class="notehead" class="notehead"><use href="#E0A4-k15bi144" transform="translate(5671, 720) scale(0.72, 0.72)"/></g><g data-id="by2vzk7" data-class="stem" class="stem"><path d="M5680 748 L5680 1350" stroke-width="18"/></g></g><g data-id="g1l8p2zt" data-class="beam" class="beam"><polygon stroke-opacity="1" fill-opacity="1" points="6361,1485 6959,1485 6959,1395 6361,1395"/><polygon stroke-opacity="1" fill-opacity="1" points="6733,1350 6959,1350 6959,1260 6733,1260"/><g data-id="a1quuwam" data-class="note" class="note"><g data-class="notehead" class="notehead"><use href="#E0A4-k15bi144" transform="translate(6361, 900) scale(0.72, 0.72)"/></g><g data-id="don98sv" data-class="dots" class="dots"><ellipse cx="6677" cy="810" rx="36" ry="36" fill-opacity="1" stroke-opacity="1"/></g><g data-id="c1ska1dv" data-class="stem" class="stem"><path d="M6370 928 L6370 1467" stroke-width="18"/></g><g data-id="kdouiq5" data-class="accid" class="accid"/></g><g data-id="b1dbf39f" data-class="note" class="note"><g data-class="notehead" class="notehead"><use href="#E0A4-k15bi144" transform="translate(6941, 900) scale(0.72, 0.72)"/></g><g data-id="e1fx5dtv" data-class="stem" class="stem"><path d="M6950 928 L6950 1467" stroke-width="18"/></g><g data-id="l7qsnoz" data-class="accid" class="accid"/></g></g></g></g><g data-id="lqz7isw" data-class="barLine" class="barLine"><path d="M7271 540 L7271 1260" stroke-width="27"/></g></g><g data-id="mttuswm" data-class="measure" class="measure"><g data-id="ixmx983" data-class="staff" class="staff"><path d="M7284 540 L10187 540" stroke-width="13"/><path d="M7284 720 L10187 720" stroke-width="13"/><path d="M7284 900 L10187 900" stroke-width="13"/><path d="M7284 1080 L10187 1080" stroke-width="13"/><path d="M7284 1260 L10187 1260" stroke-width="13"/><g data-id="jm8323u" data-class="layer" class="layer"><g data-id="c3xft0d" data-class="note" class="note"><g data-class="notehead" class="notehead"><use href="#E0A4-k15bi144" transform="translate(7464, 720) scale(0.72, 0.72)"/></g><g data-id="f1f8rw29" data-class="stem" class="stem"><path d="M7473 748 L7473 1350" stroke-width="18"/></g></g><g data-id="d14p1s0c" data-class="note" class="note"><g data-class="notehead" class="notehead"><use href="#E0A4-k15bi144" transform="translate(8154, 720) scale(0.72, 0.72)"/></g><g data-id="g1hhl42q" data-class="stem" class="stem"><path d="M8163 748 L8163 1350" stroke-width="18"/></g></g><g data-id="eeu9rjb" data-class="note" class="note"><g data-class="notehead" class="notehead"><use href="#E0A4-k15bi144" transform="translate(8844, 810) scale(0.72, 0.72)"/></g><g data-id="i10zs2rq" data-class="dots" class="dots"><ellipse cx="9160" cy="810" rx="36" ry="36" fill-opacity="1" stroke-opacity="1"/></g><g data-id="hbfn7pu" data-class="stem" class="stem"><path d="M8853 838 L8853 1440" stroke-width="18"/></g></g><g data-id="f5n4sps" data-class="note" class="note"><g data-class="notehead" class="notehead"><use href="#E0A4-k15bi144" transform="translate(9724, 810) scale(0.72, 0.72)"/></g><g data-id="j9yfyv5" data-class="stem" class="stem"><path d="M9733 838 L9733 1440" stroke-width="18"/><g data-id="k1ndj442" data-class="flag" class="flag"><use href="#E241-k15bi144" transform="translate(9724, 1440) scale(0.72, 0.72)"/></g></g></g></g></g><g data-id="u1maoizq" data-class="barLine" class="barLine"><path d="M10174 540 L10174 1260" stroke-width="27"/></g></g><g data-id="r1fvh8w3" data-class="systemMilestoneEnd" class="systemMilestoneEnd q145o939"/></g><g data-id="s1rc1wv7" data-class="pageMilestoneEnd" class="pageMilestoneEnd o10kzf45"/><g data-id="t11x35p4" data-class="pageMilestoneEnd" class="pageMilestoneEnd n8wjn5e"/></g></svg></svg>