<svg viewBox="0 0 560 84" version="1.1" xmlns="http://www.w3.org/2000/svg" xmlns:xlink="http://www.w3.org/1999/xlink" overflow="visible" id="hsbipyl"><desc>Engraved by Verovio 5.6.0-85e7620</desc><defs><g id="E050-hsbipyl"><path transform="scale(1,-1)" d="M441 -245c-23 -4 -48 -6 -76 -6c-59 0 -102 7 -130 20c-88 42 -150 93 -187 154c-26 44 -43 103 -48 176c0 6 -1 13 -1 19c0 54 15 111 45 170c29 57 65 106 110 148s96 85 153 127c-3 16 -8 46 -13 92c-4 43 -5 73 -5 89c0 117 16 172 69 257c34 54 64 82 89 82 c21 0 43 -30 69 -92s39 -115 41 -159v-15c0 -109 -21 -162 -67 -241c-13 -20 -63 -90 -98 -118c-13 -9 -25 -19 -37 -29l31 -181c8 1 18 2 28 2c58 0 102 -12 133 -35c59 -43 92 -104 98 -184c1 -7 1 -15 1 -22c0 -123 -87 -209 -181 -248c8 -57 17 -110 25 -162 c5 -31 6 -58 6 -80c0 -30 -5 -53 -14 -70c-35 -64 -88 -99 -158 -103c-5 0 -11 -1 -16 -1c-37 0 -72 10 -108 27c-50 24 -77 59 -80 105v11c0 29 7 55 20 76c18 28 45 42 79 44h6c49 0 93 -42 97 -87v-9c0 -51 -34 -86 -105 -106c17 -24 51 -36 102 -36c62 0 116 43 140 85 c9 16 13 41 13 74c0 20 -1 42 -5 67c-8 53 -18 106 -26 159zM461 939c-95 0 -135 -175 -135 -286c0 -24 2 -48 5 -71c50 39 92 82 127 128c40 53 60 100 60 140v8c-4 53 -22 81 -55 81h-2zM406 119l54 -326c73 25 110 78 110 161c0 7 0 15 -1 23c-7 95 -57 142 -151 142h-12 zM382 117c-72 -2 -128 -47 -128 -120v-7c2 -46 43 -99 75 -115c-3 -2 -7 -5 -10 -10c-70 33 -116 88 -123 172v11c0 68 44 126 88 159c23 17 49 29 78 36l-29 170c-21 -13 -52 -37 -92 -73c-50 -44 -86 -84 -109 -119c-45 -69 -67 -130 -67 -182v-13c5 -68 35 -127 93 -176 s125 -73 203 -73c25 0 50 3 75 9c-19 111 -36 221 -54 331z"/></g><g id="E262-hsbipyl"><path transform="scale(1,-1)" d="M136 186v169h17v-164l44 14v-91l-44 -14v-165l44 12v-91l-44 -13v-155h-17v150l-76 -22v-155h-17v149l-43 -13v90l43 14v167l-43 -14v92l43 13v169h17v-163zM60 73v-167l76 22v168z"/></g><g id="E082-hsbipyl"><path transform="scale(1,-1)" d="M124 -185c-18 0 -55 -14 -65 -65h-36l-3 30c0 25 6 45 18 63c11 19 22 30 39 43l121 82l37 29c15 11 27 29 38 54c12 24 18 47 18 70c0 40 -19 88 -94 88c-25 0 -32 0 -50 -8c-14 -5 -23 -12 -26 -22c3 -9 7 -15 10 -18l24 -17c12 -7 17 -11 27 -21c5 -7 7 -16 7 -27 c0 -12 0 -57 -79 -74c-30 0 -76 26 -76 94c0 66 81 135 197 135c72 0 181 -32 181 -150c0 -53 -32 -95 -113 -133l-91 -41c-26 -11 -45 -23 -57 -37l49 7c84 0 115 -41 148 -41c20 0 33 20 39 61h35c0 -152 -68 -168 -114 -168c-17 0 -65 0 -79 7h10l-28 17 c-49 37 -69 40 -87 42z"/></g><g id="E084-hsbipyl"><path transform="scale(1,-1)" d="M20 -78c84 97 114 180 134 329h170c-13 -32 -82 -132 -99 -151l-84 -97c-33 -36 -59 -63 -80 -81h162v102l127 123v-225h57v-39h-57v-34c0 -43 19 -65 57 -65v-34h-244v36c48 0 60 26 60 70v27h-203v39z"/></g><g id="E0A4-hsbipyl"><path transform="scale(1,-1)" d="M0 -39c0 68 73 172 200 172c66 0 114 -37 114 -95c0 -84 -106 -171 -218 -171c-64 0 -96 30 -96 94z"/></g><g id="E240-hsbipyl"><path transform="scale(1,-1)" d="M179 -646c15 29 29 55 46 102c18 49 30 108 30 138c0 105 -80 173 -168 200c-18 5 -47 9 -87 16v190h22c8 0 33 -61 71 -95c4 -3 -2 3 61 -56c62 -58 122 -137 122 -241c0 -38 -13 -106 -35 -163c-20 -51 -43 -99 -66 -132c-6 -5 -10 -7 -13 -7s-5 2 -5 5l4 10 c1 3 14 25 18 33z"/></g><g id="E241-hsbipyl"><path transform="scale(1,-1)" d="M179 646c-4 8 -17 30 -18 33l-4 10c0 3 2 5 5 5s7 -2 13 -7c23 -33 46 -81 66 -132c22 -57 35 -125 35 -163c0 -104 -60 -183 -122 -241c-63 -59 -57 -53 -61 -56c-38 -34 -63 -95 -71 -95h-22v190c40 7 69 11 87 16c88 27 168 95 168 200c0 30 -12 89 -30 138 c-17 47 -31 73 -46 102z"/></g><g id="E242-hsbipyl"><path transform="scale(1,-1)" d="M206 -748c32 48 49 100 49 149c0 89 -55 168 -168 203c-18 5 -47 9 -87 16v190v190h22c8 0 33 -61 71 -95c4 -3 -2 3 61 -56c62 -58 122 -137 122 -241c0 -32 -7 -65 -17 -96c11 -29 17 -60 17 -94c0 -71 -32 -148 -67 -190c-6 -5 -10 -7 -13 -7s-5 2 -5 5l4 10 c1 3 6 8 11 16zM248 -463c4 18 7 38 7 57c0 105 -80 173 -168 200c-11 3 -27 6 -47 9c9 -17 23 -61 53 -88c4 -3 -2 3 61 -56c36 -33 71 -74 94 -122z"/></g><g id="E243-hsbipyl"><path transform="scale(1,-1)" d="M216 730c-5 8 -10 13 -11 16l-4 10c0 3 2 5 5 5s7 -2 13 -7c35 -42 57 -101 57 -172c0 -34 -6 -65 -17 -94c10 -31 17 -64 17 -96c0 -104 -60 -183 -122 -241c-63 -59 -57 -53 -61 -56c-38 -34 -63 -95 -71 -95h-22v190v190c40 7 69 11 87 16c116 36 175 111 175 197 c0 44 -15 91 -46 137zM248 463c-23 -48 -58 -89 -94 -122c-63 -59 -57 -53 -61 -56c-30 -27 -44 -71 -53 -88c20 3 36 6 47 9c88 27 168 95 168 200c0 19 -3 39 -7 57z"/></g></defs><style type="text/css">#hsbipyl g.page-margin {font-family:Times,serif;}#hsbipyl g.ending, #hsbipyl g.fing, #hsbipyl g.reh, #hsbipyl g.tempo {font-weight:bold;}#hsbipyl g.dir, #hsbipyl g.dynam, #hsbipyl g.mNum {font-style:italic;}#hsbipyl g.label {font-weight:normal;}#hsbipyl path {stroke:currentColor}</style><svg class="definition-scale" color="black" viewBox="0 0 14000 2100"><g class="page-margin" transform="translate(0, 150)"><g data-id="v3cysm6" data-class="mdiv" class="mdiv pageMilestone"/><g data-id="w8bwfxv" data-class="score" class="score pageMilestone"/><g data-id="a348e1v" data-class="system" class="system"><g data-id="yw7b4h3" data-class="section" class="section systemMilestone"/><g data-id="i1ysa9xq" data-class="measure" class="measure"><g data-id="k1dxscdj" data-class="staff" class="staff"><path d="M0 540 L2344 540" stroke-width="13"/><path d="M0 720 L2344 720" stroke-width="13"/><path d="M0 900 L2344 900" stroke-width="13"/><path d="M0 1080 L2344 1080" stroke-width="13"/><path d="M0 1260 L2344 1260" stroke-width="13"/><g data-id="g17etlcl" data-class="clef" class="clef"><use href="#E050-hsbipyl" transform="translate(90, 1080) scale(0.72, 0.72)"/></g><g data-id="h1ab76o0" data-class="keySig" class="keySig"><g data-id="ix0904y" data-class="keyAccid" class="keyAccid"><use href="#E262-hsbipyl" transform="translate(735, 540) scale(0.72, 0.72)"/></g><g data-id="jg60dc3" data-class="keyAccid" class="keyAccid"><use href="#E262-hsbipyl" transform="translate(913, 810) scale(0.72, 0.72)"/></g></g><g data-id="kxf24fl" data-class="meterSig" class="meterSig"><use href="#E082-hsbipyl" transform="translate(1220, 720) scale(0.72, 0.72)"/><use href="#E084-hsbipyl" transform="translate(1225, 1080) scale(0.72, 0.72)"/></g><g data-id="ljo1846" data-class="layer" class="layer"><g data-id="t1ar420k" data-class="note" class="note"><g data-class="notehead" class="notehead"><use href="#E0A4-hsbipyl" transform="translate(1801, 990) scale(0.72, 0.72)"/></g><g data-id="k1ny6wgi" data-class="stem" class="stem"><path d="M2018 962 L2018 360" stroke-width="18"/><g data-id="l1uxyaby" data-class="flag" class="flag"><use href="#E240-hsbipyl" transform="translate(2009, 360) scale(0.72, 0.72)"/></g></g></g></g></g><g data-id="q1x9go70" data-class="barLine" class="barLine"><path d="M2331 540 L2331 1260" stroke-width="27"/></g></g><g data-id="r19y7edl" data-class="measure" class="measure"><g data-id="m1ovctxd" data-class="staff" class="staff"><path d="M2344 540 L4749 540" stroke-width="13"/><path d="M2344 720 L4749 720" stroke-width="13"/><path d="M2344 900 L4749 900" stroke-width="13"/><path d="M2344 1080 L4749 1080" stroke-width="13"/><path d="M2344 1260 L4749 1260" stroke-width="13"/><g data-id="na68fa7" data-class="layer" class="layer"><g data-id="u1wlzxuk" data-class="note" class="note"><g data-class="notehead" class="notehead"><use href="#E0A4-hsbipyl" transform="translate(2532, 900) scale(0.72, 0.72)"/></g><g data-id="nqer4ql" data-class="dots" class="dots"><ellipse cx="2848" cy="810" rx="36" ry="36" fill-opacity="1" stroke-opacity="1"/></g><g data-id="m15tze61" data-class="stem" class="stem"><path d="M2541 928 L2541 1500" stroke-width="18"/><g data-id="o1ytg518" data-class="flag" class="flag"><use href="#E241-hsbipyl" transform="translate(2532, 1500) scale(0.72, 0.72)"/></g></g></g><g data-id="vrexp05" data-class="note" class="note"><g data-class="notehead" class="notehead"><use href="#E0A4-hsbipyl" transform="translate(3111, 990) scale(0.72, 0.72)"/></g><g data-id="p18o1vqz" data-class="stem" class="stem"><path d="M3328 962 L3328 360" stroke-width="18"/><g data-id="q1g4cs48" data-class="flag" class="flag"><use href="#E242-hsbipyl" transform="translate(3319, 360) scale(0.72, 0.72)"/></g></g></g><g data-id="w1stnhy7" data-class="note" class="note"><g data-class="notehead" class="notehead"><use href="#E0A4-hsbipyl" transform="translate(3626, 900) scale(0.72, 0.72)"/></g><g data-id="sm606l8" data-class="dots" class="dots"><ellipse cx="3942" cy="810" rx="36" ry="36" fill-opacity="1" stroke-opacity="1"/></g><g data-id="r1do40aj" data-class="stem" class="stem"><path d="M3635 928 L3635 1500" stroke-width="18"/><g data-id="t1tzh6hd" data-class="flag" class="flag"><use href="#E241-hsbipyl" transform="translate(3626, 1500) scale(0.72, 0.72)"/></g></g></g><g data-id="x1h3cm78" data-class="note" class="note"><g data-class="notehead" class="notehead"><use href="#E0A4-hsbipyl" transform="translate(4205, 990) scale(0.72, 0.72)"/></g><g data-id="u8u5j53" data-class="stem" class="stem"><path d="M4422 962 L4422 360" stroke-width="18"/><g data-id="vwo2exn" data-class="flag" class="flag"><use href="#E242-hsbipyl" transform="translate(4413, 360) scale(0.72, 0.72)"/></g></g></g></g></g><g data-id="z8q6ftx" data-class="barLine" class="barLine"><path d="M4736 540 L4736 1260" stroke-width="27"/></g></g><g data-id="aau0s02" data-class="measure" class="measure"><g data-id="o6ck6g3" data-class="staff" class="staff"><path d="M4749 540 L6537 540" stroke-width="13"/><path d="M4749 720 L6537 720" stroke-width="13"/><path d="M4749 900 L6537 900" stroke-width="13"/><path d="M4749 1080 L6537 1080" stroke-width="13"/><path d="M4749 1260 L6537 1260" stroke-width="13"/><g data-id="p1y5ogcw" data-class="layer" class="layer"><g data-id="yt5nzi7" data-class="note" class="note"><g data-class="notehead" class="notehead"><use href="#E0A4-hsbipyl" transform="translate(4937, 540) scale(0.72, 0.72)"/></g><g data-id="wovp9i3" data-class="stem" class="stem"><path d="M4946 568 L4946 1170" stroke-width="18"/></g><g data-id="pa2usur" data-class="accid" class="accid"/></g><g data-id="zm9tm0" data-class="note" class="note"><g data-class="notehead" class="notehead"><use href="#E0A4-hsbipyl" transform="translate(5626, 720) scale(0.72, 0.72)"/></g><g data-id="x55vdj1" data-class="stem" class="stem"><path d="M5635 748 L5635 1350" stroke-width="18"/><g data-id="y5oc94c" data-class="flag" class="flag"><use href="#E241-hsbipyl" transform="translate(5626, 1350) scale(0.72, 0.72)"/></g></g></g><g data-id="a1cgap3p" data-class="note" class="note"><g data-class="notehead" class="notehead"><use href="#E0A4-hsbipyl" transform="translate(6075, 720) scale(0.72, 0.72)"/></g><g data-id="z158z2jh" data-class="stem" class="stem"><path d="M6084 748 L6084 1350" stroke-width="18"/><g data-id="al5o5yo" data-class="flag" class="flag"><use href="#E241-hsbipyl" transform="translate(6075, 1350) scale(0.72, 0.72)"/></g></g></g></g></g><g data-id="i7z1k8u" data-class="barLine" class="barLine"><path d="M6524 540 L6524 1260" stroke-width="27"/></g></g><g data-id="jlfrn7a" data-class="measure" class="measure"><g data-id="q1gpujxv" data-class="staff" class="staff"><path d="M6537 540 L8607 540" stroke-width="13"/><path d="M6537 720 L8607 720" stroke-width="13"/><path d="M6537 900 L8607 900" stroke-width="13"/><path d="M6537 1080 L8607 1080" stroke-width="13"/><path d="M6537 1260 L8607 1260" stroke-width="13"/><g data-id="r1mo7c08" data-class="layer" class="layer"><g data-id="b1rodluc" data-class="note" class="note"><g data-class="notehead" class="notehead"><use href="#E0A4-hsbipyl" transform="translate(6725, 450) scale(0.72, 0.72)"/></g><g data-id="bhk7l4i" data-class="stem" class="stem"><path d="M6734 478 L6734 1080" stroke-width="18"/><g data-id="ci0fbk5" data-class="flag" class="flag"><use href="#E241-hsbipyl" transform="translate(6725, 1080) scale(0.72, 0.72)"/></g></g></g><g data-id="c17vne28" data-class="note" class="note"><g data-class="notehead" class="notehead"><use href="#E0A4-hsbipyl" transform="translate(7174, 540) scale(0.72, 0.72)"/></g><g data-id="diys5yf" data-class="stem" class="stem"><path d="M7183 568 L7183 1170" stroke-width="18"/><g data-id="elt61in" data-class="flag" class="flag"><use href="#E241-hsbipyl" transform="translate(7174, 1170) scale(0.72, 0.72)"/></g></g><g data-id="qkbpmkn" data-class="accid" class="accid"/></g><g data-id="dwq1xmi" data-class="note" class="note"><g data-class="notehead" class="notehead"><use href="#E0A4-hsbipyl" transform="translate(7623, 630) scale(0.72, 0.72)"/></g><g data-id="fx04xdz" data-class="stem" class="stem"><path d="M7632 658 L7632 1260" stroke-width="18"/><g data-id="g17nnmw5" data-class="flag" class="flag"><use href="#E241-hsbipyl" transform="translate(7623, 1260) scale(0.72, 0.72)"/></g></g></g><g data-id="e4dkshq" data-class="note" class="note"><g data-class="notehead" class="notehead"><use href="#E0A4-hsbipyl" transform="translate(8145, 720) scale(0.72, 0.72)"/></g><g data-id="hbrw1ut" data-class="stem" class="stem"><path d="M8154 748 L8154 1350" stroke-width="18"/><g data-id="i1k45p8j" data-class="flag" class="flag"><use href="#E241-hsbipyl" transform="translate(8145, 1350) scale(0.72, 0.72)"/></g></g><g data-id="o1rzht0k" data-class="accid" class="accid"><use href="#E262-hsbipyl" transform="translate(7959, 720) scale(0.72, 0.72)"/></g></g></g></g><g data-id="rg067w6" data-class="barLine" class="barLine"><path d="M8594 540 L8594 1260" stroke-width="27"/></g></g><g data-id="s1nvy37c" data-class="measure" class="measure"><g data-id="so8gcx9" data-class="staff" class="staff"><path d="M8607 540 L10186 540" stroke-width="13"/><path d="M8607 720 L10186 720" stroke-width="13"/><path d="M8607 900 L10186 900" stroke-width="13"/><path d="M8607 1080 L10186 1080" stroke-width="13"/><path d="M8607 1260 L10186 1260" stroke-width="13"/><g data-id="t12le1ln" data-class="layer" class="layer"><g data-id="f1cs6ypt" data-class="note" class="note"><g data-class="notehead" class="notehead"><use href="#E0A4-hsbipyl" transform="translate(8795, 630) scale(0.72, 0.72)"/></g><g data-id="j1kie72s" data-class="stem" class="stem"><path d="M8804 658 L8804 1260" stroke-width="18"/></g></g><g data-id="gtelfvx" data-class="note" class="note"><g data-class="notehead" class="notehead"><use href="#E0A4-hsbipyl" transform="translate(9484, 630) scale(0.72, 0.72)"/></g><g data-id="k1bey4hv" data-class="stem" class="stem"><path d="M9493 658 L9493 1260" stroke-width="18"/></g></g></g></g><g data-id="a1xo37qk" data-class="barLine" class="barLine"><path d="M10173 540 L10173 1260" stroke-width="27"/></g></g><g data-id="brrlwu7" data-class="measure" class="measure"><g data-id="u5ek04u" data-class="staff" class="staff"><path d="M10186 540 L12216 540" stroke-width="13"/><path d="M10186 720 L12216 720" stroke-width="13"/><path d="M10186 900 L12216 900" stroke-width="13"/><path d="M10186 1080 L12216 1080" stroke-width="13"/><path d="M10186 1260 L12216 1260" stroke-width="13"/><g data-id="v1q557pn" data-class="layer" class="layer"><g data-id="hwfaexx" data-class="note" class="note"><g data-class="notehead" class="notehead"><use href="#E0A4-hsbipyl" transform="translate(10374, 630) scale(0.72, 0.72)"/></g><g data-id="m4sc0dq" data-class="dots" class="dots"><ellipse cx="10690" cy="630" rx="36" ry="36" fill-opacity="1" stroke-opacity="1"/></g><g data-id="l1jszu94" data-class="stem" class="stem"><path d="M10383 658 L10383 1260" stroke-width="18"/><g data-id="n1jepvi6" data-class="flag" class="flag"><use href="#E241-hsbipyl" transform="translate(10374, 1260) scale(0.72, 0.72)"/></g></g></g><g data-id="i47obah" data-class="note" class="note"><g data-class="notehead" class="notehead"><use href="#E0A4-hsbipyl" transform="translate(10953, 630) scale(0.72, 0.72)"/></g><g data-id="o1dgw4s1" data-class="stem" class="stem"><path d="M10962 658 L10962 1260" stroke-width="18"/><g data-id="p1m8vsvp" data-class="flag" class="flag"><use href="#E243-hsbipyl" transform="translate(10953, 1260) scale(0.72, 0.72)"/></g></g></g><g data-id="j12khcvj" data-class="note" class="note"><g data-class="notehead" class="notehead"><use href="#E0A4-hsbipyl" transform="translate(11281, 540) scale(0.72, 0.72)"/></g><g data-id="r17am1bj" data-class="dots" class="dots"><ellipse cx="11597" cy="450" rx="36" ry="36" fill-opacity="1" stroke-opacity="1"/></g><g data-id="q11r2lpt" data-class="stem" class="stem"><path d="M11290 568 L11290 1170" stroke-width="18"/><g data-id="s4px2yz" data-class="flag" class="flag"><use href="#E241-hsbipyl" transform="translate(11281, 1170) scale(0.72, 0.72)"/></g></g><g data-id="rpkcq52" data-class="accid" class="accid"/></g><g data-id="kb7ecvv" data-class="note" class="note"><g data-class="notehead" class="notehead"><use href="#E0A4-hsbipyl" transform="translate(11860, 540) scale(0.72, 0.72)"/></g><g data-id="t3lp2qc" data-class="stem" class="stem"><path d="M11869 568 L11869 1170" stroke-width="18"/><g data-id="u3cs2zg" data-class="flag" class="flag"><use href="#E243-hsbipyl" transform="translate(11860, 1170) scale(0.72, 0.72)"/></g></g><g data-id="stsyc2w" data-class="accid" class="accid"/></g></g></g><g data-id="j1ows2aq" data-class="barLine" class="barLine"><path d="M12203 540 L12203 1260" stroke-width="27"/></g></g><g data-id="kmwu260" data-class="measure" class="measure"><g data-id="w1sra0xj" data-class="staff" class="staff"><path d="M12216 540 L14004 540" stroke-width="13"/><path d="M12216 720 L14004 720" stroke-width="13"/><path d="M12216 900 L14004 900" stroke-width="13"/><path d="M12216 1080 L14004 1080" stroke-width="13"/><path d="M12216 1260 L14004 1260" stroke-width="13"/><g data-id="xhnt04m" data-class="layer" class="layer"><g data-id="lebdhxd" data-class="note" class="note"><g data-class="notehead" class="notehead"><use href="#E0A4-hsbipyl" transform="translate(12404, 720) scale(0.72, 0.72)"/></g><g data-id="v36jgzg" data-class="stem" class="stem"><path d="M12413 748 L12413 1350" stroke-width="18"/></g></g><g data-id="mv25v9s" data-class="note" class="note"><g data-class="notehead" class="notehead"><use href="#E0A4-hsbipyl" transform="translate(13093, 810) scale(0.72, 0.72)"/></g><g data-id="wqq34vp" data-class="stem" class="stem"><path d="M13102 838 L13102 1440" stroke-width="18"/><g data-id="x1bjlt9i" data-class="flag" class="flag"><use href="#E241-hsbipyl" transform="translate(13093, 1440) scale(0.72, 0.72)"/></g></g><g data-id="t1jp487w" data-class="accid" class="accid"/></g><g data-id="n1wpasis" data-class="note" class="note"><g data-class="notehead" class="notehead"><use href="#E0A4-hsbipyl" transform="translate(13542, 900) scale(0.72, 0.72)"/></g><g data-id="yjpn140" data-class="stem" class="stem"><path d="M13551 928 L13551 1500" stroke-width="18"/><g data-id="zdc9eqx" data-class="flag" class="flag"><use href="#E241-hsbipyl" transform="translate(13542, 1500) scale(0.72, 0.72)"/></g></g></g></g></g><g data-id="s1jtwc57" data-class="barLine" class="barLine"><path d="M13991 540 L13991 1260" stroke-width="27"/></g></g><g data-id="fcnax3s" data-class="systemMilestoneEnd" class="systemMilestoneEnd yw7b4h3"/></g><g data-id="gf1e921" data-class="pageMilestoneEnd" class="pageMilestoneEnd w8bwfxv"/><g data-id="hrwnod3" data-class="pageMilestoneEnd" class="pageMilestoneEnd v3cysm6"/></g></svg></svg>