<svg viewBox="0 0 560 84" version="1.1" xmlns="http://www.w3.org/2000/svg" xmlns:xlink="http://www.w3.org/1999/xlink" overflow="visible" id="v1gyzgo"><desc>Engraved by Verovio 5.6.0-85e7620</desc><defs><g id="E050-v1gyzgo"><path transform="scale(1,-1)" d="M441 -245c-23 -4 -48 -6 -76 -6c-59 0 -102 7 -130 20c-88 42 -150 93 -187 154c-26 44 -43 103 -48 176c0 6 -1 13 -1 19c0 54 15 111 45 170c29 57 65 106 110 148s96 85 153 127c-3 16 -8 46 -13 92c-4 43 -5 73 -5 89c0 117 16 172 69 257c34 54 64 82 89 82 c21 0 43 -30 69 -92s39 -115 41 -159v-15c0 -109 -21 -162 -67 -241c-13 -20 -63 -90 -98 -118c-13 -9 -25 -19 -37 -29l31 -181c8 1 18 2 28 2c58 0 102 -12 133 -35c59 -43 92 -104 98 -184c1 -7 1 -15 1 -22c0 -123 -87 -209 -181 -248c8 -57 17 -110 25 -162 c5 -31 6 -58 6 -80c0 -30 -5 -53 -14 -70c-35 -64 -88 -99 -158 -103c-5 0 -11 -1 -16 -1c-37 0 -72 10 -108 27c-50 24 -77 59 -80 105v11c0 29 7 55 20 76c18 28 45 42 79 44h6c49 0 93 -42 97 -87v-9c0 -51 -34 -86 -105 -106c17 -24 51 -36 102 -36c62 0 116 43 140 85 c9 16 13 41 13 74c0 20 -1 42 -5 67c-8 53 -18 106 -26 159zM461 939c-95 0 -135 -175 -135 -286c0 -24 2 -48 5 -71c50 39 92 82 127 128c40 53 60 100 60 140v8c-4 53 -22 81 -55 81h-2zM406 119l54 -326c73 25 110 78 110 161c0 7 0 15 -1 23c-7 95 -57 142 -151 142h-12 zM382 117c-72 -2 -128 -47 -128 -120v-7c2 -46 43 -99 75 -115c-3 -2 -7 -5 -10 -10c-70 33 -116 88 -123 172v11c0 68 44 126 88 159c23 17 49 29 78 36l-29 170c-21 -13 -52 -37 -92 -73c-50 -44 -86 -84 -109 -119c-45 -69 -67 -130 -67 -182v-13c5 -68 35 -127 93 -176 s125 -73 203 -73c25 0 50 3 75 9c-19 111 -36 221 -54 331z"/></g><g id="E260-v1gyzgo"><path transform="scale(1,-1)" d="M20 110c32 16 54 27 93 27c26 0 35 -3 54 -13c13 -7 24 -20 27 -38l4 -25c0 -28 -16 -57 -45 -89c-23 -25 -39 -44 -65 -68l-88 -79v644h20v-359zM90 106c-32 0 -48 -10 -70 -29v-194c31 31 54 59 71 84c21 32 32 59 32 84c0 9 1 16 1 20c0 14 -3 21 -11 30l-8 3z"/></g><g id="E083-v1gyzgo"><path transform="scale(1,-1)" d="M208 250c97 0 177 -52 177 -116c0 -69 -40 -111 -118 -125c56 -5 125 -44 125 -116c0 -31 -10 -57 -31 -78c-19 -21 -45 -38 -78 -49l-50 -11c-15 -3 -36 -7 -55 -7c-50 0 -86 16 -113 38c-16 10 -23 18 -34 34c-7 13 -11 25 -11 38c0 43 27 83 68 83l3 -2 c61 0 75 -42 75 -70c0 -19 -24 -42 -26 -57c7 -17 20 -25 37 -25c44 0 94 29 94 78c0 75 -34 125 -138 125v36c84 0 131 22 131 98c0 54 -37 88 -87 88c-26 0 -43 -7 -51 -22c15 -22 44 -16 44 -70c0 -37 -37 -62 -71 -62c-22 0 -69 15 -69 76c0 79 101 116 178 116z"/></g><g id="E084-v1gyzgo"><path transform="scale(1,-1)" d="M20 -78c84 97 114 180 134 329h170c-13 -32 -82 -132 -99 -151l-84 -97c-33 -36 -59 -63 -80 -81h162v102l127 123v-225h57v-39h-57v-34c0 -43 19 -65 57 -65v-34h-244v36c48 0 60 26 60 70v27h-203v39z"/></g><g id="E0A4-v1gyzgo"><path transform="scale(1,-1)" d="M0 -39c0 68 73 172 200 172c66 0 114 -37 114 -95c0 -84 -106 -171 -218 -171c-64 0 -96 30 -96 94z"/></g><g id="E240-v1gyzgo"><path transform="scale(1,-1)" d="M179 -646c15 29 29 55 46 102c18 49 30 108 30 138c0 105 -80 173 -168 200c-18 5 -47 9 -87 16v190h22c8 0 33 -61 71 -95c4 -3 -2 3 61 -56c62 -58 122 -137 122 -241c0 -38 -13 -106 -35 -163c-20 -51 -43 -99 -66 -132c-6 -5 -10 -7 -13 -7s-5 2 -5 5l4 10 c1 3 14 25 18 33z"/></g><g id="E241-v1gyzgo"><path transform="scale(1,-1)" d="M179 646c-4 8 -17 30 -18 33l-4 10c0 3 2 5 5 5s7 -2 13 -7c23 -33 46 -81 66 -132c22 -57 35 -125 35 -163c0 -104 -60 -183 -122 -241c-63 -59 -57 -53 -61 -56c-38 -34 -63 -95 -71 -95h-22v190c40 7 69 11 87 16c88 27 168 95 168 200c0 30 -12 89 -30 138 c-17 47 -31 73 -46 102z"/></g><g id="E243-v1gyzgo"><path transform="scale(1,-1)" d="M216 730c-5 8 -10 13 -11 16l-4 10c0 3 2 5 5 5s7 -2 13 -7c35 -42 57 -101 57 -172c0 -34 -6 -65 -17 -94c10 -31 17 -64 17 -96c0 -104 -60 -183 -122 -241c-63 -59 -57 -53 -61 -56c-38 -34 -63 -95 -71 -95h-22v190v190c40 7 69 11 87 16c116 36 175 111 175 197 c0 44 -15 91 -46 137zM248 463c-23 -48 -58 -89 -94 -122c-63 -59 -57 -53 -61 -56c-30 -27 -44 -71 -53 -88c20 3 36 6 47 9c88 27 168 95 168 200c0 19 -3 39 -7 57z"/></g></defs><style type="text/css">#v1gyzgo g.page-margin {font-family:Times,serif;}#v1gyzgo g.ending, #v1gyzgo g.fing, #v1gyzgo g.reh, #v1gyzgo g.tempo {font-weight:bold;}#v1gyzgo g.dir, #v1gyzgo g.dynam, #v1gyzgo g.mNum {font-style:italic;}#v1gyzgo g.label {font-weight:normal;}#v1gyzgo path {stroke:currentColor}</style><svg class="definition-scale" color="black" viewBox="0 0 14000 2100"><g class="page-margin" transform="translate(0, 150)"><g data-id="xji734z" data-class="mdiv" class="mdiv pageMilestone"/><g data-id="y1fdowbx" data-class="score" class="score pageMilestone"/><g data-id="ftot45q" data-class="system" class="system"><g data-id="ah07xei" data-class="section" class="section systemMilestone"/><g data-id="waefin2" data-class="measure" class="measure"><g data-id="mmpzq4j" data-class="staff" class="staff"><path d="M0 540 L3664 540" stroke-width="13"/><path d="M0 720 L3664 720" stroke-width="13"/><path d="M0 900 L3664 900" stroke-width="13"/><path d="M0 1080 L3664 1080" stroke-width="13"/><path d="M0 1260 L3664 1260" stroke-width="13"/><g data-id="j1v03jyr" data-class="clef" class="clef"><use href="#E050-v1gyzgo" transform="translate(90, 1080) scale(0.72, 0.72)"/></g><g data-id="k1srgii7" data-class="keySig" class="keySig"><g data-id="lwsgl7w" data-class="keyAccid" class="keyAccid"><use href="#E260-v1gyzgo" transform="translate(735, 900) scale(0.72, 0.72)"/></g><g data-id="m1jchb7r" data-class="keyAccid" class="keyAccid"><use href="#E260-v1gyzgo" transform="translate(915, 630) scale(0.72, 0.72)"/></g><g data-id="nvzntsb" data-class="keyAccid" class="keyAccid"><use href="#E260-v1gyzgo" transform="translate(1095, 990) scale(0.72, 0.72)"/></g></g><g data-id="omur7vd" data-class="meterSig" class="meterSig"><use href="#E083-v1gyzgo" transform="translate(1409, 720) scale(0.72, 0.72)"/><use href="#E084-v1gyzgo" transform="translate(1403, 1080) scale(0.72, 0.72)"/></g><g data-id="nlpdg9s" data-class="layer" class="layer"><g data-id="qi5hqx9" data-class="note" class="note"><g data-class="notehead" class="notehead"><use href="#E0A4-v1gyzgo" transform="translate(1980, 1080) scale(0.72, 0.72)"/></g><g data-id="j18sjpos" data-class="stem" class="stem"><path d="M2197 1052 L2197 450" stroke-width="18"/><g data-id="k1mgosjk" data-class="flag" class="flag"><use href="#E240-v1gyzgo" transform="translate(2188, 450) scale(0.72, 0.72)"/></g></g></g><g data-id="rln8avl" data-class="note" class="note"><g data-class="notehead" class="notehead"><use href="#E0A4-v1gyzgo" transform="translate(2537, 990) scale(0.72, 0.72)"/></g><g data-id="l1e94nn6" data-class="stem" class="stem"><path d="M2754 962 L2754 360" stroke-width="18"/><g data-id="mslibqa" data-class="flag" class="flag"><use href="#E240-v1gyzgo" transform="translate(2745, 360) scale(0.72, 0.72)"/></g></g><g data-id="m84zbkw" data-class="accid" class="accid"/></g><g data-id="s1pinmk" data-class="note" class="note"><g data-class="notehead" class="notehead"><use href="#E0A4-v1gyzgo" transform="translate(3094, 900) scale(0.72, 0.72)"/></g><g data-id="nneqcoy" data-class="stem" class="stem"><path d="M3103 928 L3103 1500" stroke-width="18"/><g data-id="o129j6hu" data-class="flag" class="flag"><use href="#E241-v1gyzgo" transform="translate(3094, 1500) scale(0.72, 0.72)"/></g></g><g data-id="n1ox0n10" data-class="accid" class="accid"/></g></g></g><g data-id="e1jl4dvb" data-class="barLine" class="barLine"><path d="M3651 540 L3651 1260" stroke-width="27"/></g></g><g data-id="f1e4x7i" data-class="measure" class="measure"><g data-id="ogh01ez" data-class="staff" class="staff"><path d="M3664 540 L7188 540" stroke-width="13"/><path d="M3664 720 L7188 720" stroke-width="13"/><path d="M3664 900 L7188 900" stroke-width="13"/><path d="M3664 1080 L7188 1080" stroke-width="13"/><path d="M3664 1260 L7188 1260" stroke-width="13"/><g data-id="p1qsuvwi" data-class="layer" class="layer"><g data-id="t13gi851" data-class="note" class="note"><g data-class="notehead" class="notehead"><use href="#E0A4-v1gyzgo" transform="translate(3859, 810) scale(0.72, 0.72)"/></g><g data-id="qrfsaza" data-class="dots" class="dots"><ellipse cx="4175" cy="810" rx="36" ry="36" fill-opacity="1" stroke-opacity="1"/></g><g data-id="p12gjjox" data-class="stem" class="stem"><path d="M3868 838 L3868 1440" stroke-width="18"/><g data-id="rilufbv" data-class="flag" class="flag"><use href="#E241-v1gyzgo" transform="translate(3859, 1440) scale(0.72, 0.72)"/></g></g></g><g data-id="u1847c43" data-class="note" class="note"><g data-class="notehead" class="notehead"><use href="#E0A4-v1gyzgo" transform="translate(4577, 900) scale(0.72, 0.72)"/></g><g data-id="sru2eqa" data-class="stem" class="stem"><path d="M4586 928 L4586 1500" stroke-width="18"/><g data-id="t117pwwa" data-class="flag" class="flag"><use href="#E243-v1gyzgo" transform="translate(4577, 1500) scale(0.72, 0.72)"/></g></g><g data-id="o1ux99cs" data-class="accid" class="accid"/></g><g data-id="v8qvuci" data-class="note" class="note"><g data-class="notehead" class="notehead"><use href="#E0A4-v1gyzgo" transform="translate(4948, 990) scale(0.72, 0.72)"/></g><g data-id="u5div7x" data-class="stem" class="stem"><path d="M5165 962 L5165 360" stroke-width="18"/><g data-id="vige8tu" data-class="flag" class="flag"><use href="#E240-v1gyzgo" transform="translate(5156, 360) scale(0.72, 0.72)"/></g></g><g data-id="p812lw6" data-class="accid" class="accid"/></g><g data-id="wm49lg4" data-class="note" class="note"><g data-class="notehead" class="notehead"><use href="#E0A4-v1gyzgo" transform="translate(5505, 900) scale(0.72, 0.72)"/></g><g data-id="w1miei0h" data-class="stem" class="stem"><path d="M5514 928 L5514 1500" stroke-width="18"/><g data-id="xr6r982" data-class="flag" class="flag"><use href="#E241-v1gyzgo" transform="translate(5505, 1500) scale(0.72, 0.72)"/></g></g><g data-id="q1t0h3bq" data-class="accid" class="accid"/></g><g data-id="x1j4e0aa" data-class="note" class="note"><g data-class="notehead" class="notehead"><use href="#E0A4-v1gyzgo" transform="translate(6062, 810) scale(0.72, 0.72)"/></g><g data-id="y1434jed" data-class="stem" class="stem"><path d="M6071 838 L6071 1440" stroke-width="18"/><g data-id="ze4vhi8" data-class="flag" class="flag"><use href="#E241-v1gyzgo" transform="translate(6062, 1440) scale(0.72, 0.72)"/></g></g></g><g data-id="yvuazvy" data-class="note" class="note"><g data-class="notehead" class="notehead"><use href="#E0A4-v1gyzgo" transform="translate(6618, 720) scale(0.72, 0.72)"/></g><g data-id="a16dotor" data-class="stem" class="stem"><path d="M6627 748 L6627 1350" stroke-width="18"/><g data-id="bebq1jj" data-class="flag" class="flag"><use href="#E241-v1gyzgo" transform="translate(6618, 1350) scale(0.72, 0.72)"/></g></g></g></g></g><g data-id="n1r655os" data-class="barLine" class="barLine"><path d="M7175 540 L7175 1260" stroke-width="27"/></g></g><g data-id="o15xzq3n" data-class="measure" class="measure"><g data-id="q13weyzj" data-class="staff" class="staff"><path d="M7188 540 L10478 540" stroke-width="13"/><path d="M7188 720 L10478 720" stroke-width="13"/><path d="M7188 900 L10478 900" stroke-width="13"/><path d="M7188 1080 L10478 1080" stroke-width="13"/><path d="M7188 1260 L10478 1260" stroke-width="13"/><g data-id="rjqj51k" data-class="layer" class="layer"><g data-id="z16bdi06" data-class="note" class="note"><g data-class="notehead" class="notehead"><use href="#E0A4-v1gyzgo" transform="translate(7383, 630) scale(0.72, 0.72)"/></g><g data-id="c14z3h0c" data-class="stem" class="stem"><path d="M7392 658 L7392 1260" stroke-width="18"/></g><g data-id="r1mg2qo7" data-class="accid" class="accid"/></g><g data-id="ab05ivn" data-class="note" class="note"><g data-class="notehead" class="notehead"><use href="#E0A4-v1gyzgo" transform="translate(8237, 900) scale(0.72, 0.72)"/></g><g data-id="d1mnj3wu" data-class="stem" class="stem"><path d="M8246 928 L8246 1500" stroke-width="18"/><g data-id="ek3tfuy" data-class="flag" class="flag"><use href="#E241-v1gyzgo" transform="translate(8237, 1500) scale(0.72, 0.72)"/></g></g><g data-id="s27arqd" data-class="accid" class="accid"/></g><g data-id="b1bjpxl5" data-class="note" class="note"><g data-class="notehead" class="notehead"><use href="#E0A4-v1gyzgo" transform="translate(8794, 900) scale(0.72, 0.72)"/></g><g data-id="fx7fir6" data-class="stem" class="stem"><path d="M8803 928 L8803 1500" stroke-width="18"/><g data-id="g1wlnplp" data-class="flag" class="flag"><use href="#E241-v1gyzgo" transform="translate(8794, 1500) scale(0.72, 0.72)"/></g></g><g data-id="t2o05a3" data-class="accid" class="accid"/></g><g data-id="c1tby8m6" data-class="note" class="note"><g data-class="notehead" class="notehead"><use href="#E0A4-v1gyzgo" transform="translate(9351, 810) scale(0.72, 0.72)"/></g><g data-id="hf1gbgm" data-class="stem" class="stem"><path d="M9360 838 L9360 1440" stroke-width="18"/><g data-id="i1gfsjqj" data-class="flag" class="flag"><use href="#E241-v1gyzgo" transform="translate(9351, 1440) scale(0.72, 0.72)"/></g></g></g><g data-id="dyhf9ul" data-class="note" class="note"><g data-class="notehead" class="notehead"><use href="#E0A4-v1gyzgo" transform="translate(9908, 720) scale(0.72, 0.72)"/></g><g data-id="j1jrqplz" data-class="stem" class="stem"><path d="M9917 748 L9917 1350" stroke-width="18"/><g data-id="k17i3hfl" data-class="flag" class="flag"><use href="#E241-v1gyzgo" transform="translate(9908, 1350) scale(0.72, 0.72)"/></g></g></g></g></g><g data-id="w3p5dbn" data-class="barLine" class="barLine"><path d="M10465 540 L10465 1260" stroke-width="27"/></g></g><g data-id="xrj35rt" data-class="measure" class="measure"><g data-id="s1vi0kda" data-class="staff" class="staff"><path d="M10478 540 L14002 540" stroke-width="13"/><path d="M10478 720 L14002 720" stroke-width="13"/><path d="M10478 900 L14002 900" stroke-width="13"/><path d="M10478 1080 L14002 1080" stroke-width="13"/><path d="M10478 1260 L14002 1260" stroke-width="13"/><g data-id="tinshe4" data-class="layer" class="layer"><g data-id="ecdl3ti" data-class="note" class="note"><g data-class="notehead" class="notehead"><use href="#E0A4-v1gyzgo" transform="translate(10673, 630) scale(0.72, 0.72)"/></g><g data-id="m76kxyo" data-class="dots" class="dots"><ellipse cx="10989" cy="630" rx="36" ry="36" fill-opacity="1" stroke-opacity="1"/></g><g data-id="liqqe1n" data-class="stem" class="stem"><path d="M10682 658 L10682 1260" stroke-width="18"/><g data-id="n1md7sdn" data-class="flag" class="flag"><use href="#E241-v1gyzgo" transform="translate(10673, 1260) scale(0.72, 0.72)"/></g></g><g data-id="uj9ljor" data-class="accid" class="accid"/></g><g data-id="f2ahy8u" data-class="note" class="note"><g data-class="notehead" class="notehead"><use href="#E0A4-v1gyzgo" transform="translate(11391, 720) scale(0.72, 0.72)"/></g><g data-id="o6nu6yw" data-class="stem" class="stem"><path d="M11400 748 L11400 1350" stroke-width="18"/><g data-id="pssqun" data-class="flag" class="flag"><use href="#E243-v1gyzgo" transform="translate(11391, 1350) scale(0.72, 0.72)"/></g></g></g><g data-id="gqway2j" data-class="note" class="note"><g data-class="notehead" class="notehead"><use href="#E0A4-v1gyzgo" transform="translate(11762, 810) scale(0.72, 0.72)"/></g><g data-id="qkj3v78" data-class="stem" class="stem"><path d="M11771 838 L11771 1440" stroke-width="18"/><g data-id="rkupw2y" data-class="flag" class="flag"><use href="#E241-v1gyzgo" transform="translate(11762, 1440) scale(0.72, 0.72)"/></g></g></g><g data-id="h1e3hp5c" data-class="note" class="note"><g data-class="notehead" class="notehead"><use href="#E0A4-v1gyzgo" transform="translate(12319, 720) scale(0.72, 0.72)"/></g><g data-id="s1qxaufl" data-class="stem" class="stem"><path d="M12328 748 L12328 1350" stroke-width="18"/><g data-id="t1ofxmjc" data-class="flag" class="flag"><use href="#E241-v1gyzgo" transform="translate(12319, 1350) scale(0.72, 0.72)"/></g></g></g><g data-id="i1pjdl37" data-class="note" class="note"><g data-class="notehead" class="notehead"><use href="#E0A4-v1gyzgo" transform="translate(12876, 630) scale(0.72, 0.72)"/></g><g data-id="ump3clh" data-class="stem" class="stem"><path d="M12885 658 L12885 1260" stroke-width="18"/><g data-id="v1mmpnnj" data-class="flag" class="flag"><use href="#E241-v1gyzgo" transform="translate(12876, 1260) scale(0.72, 0.72)"/></g></g><g data-id="v1tckzbn" data-class="accid" class="accid"/></g><g data-id="jlruzc0" data-class="note" class="note"><g data-class="notehead" class="notehead"><use href="#E0A4-v1gyzgo" transform="translate(13432, 540) scale(0.72, 0.72)"/></g><g data-id="wwk8ev8" data-class="stem" class="stem"><path d="M13441 568 L13441 1170" stroke-width="18"/><g data-id="xu83gy8" data-class="flag" class="flag"><use href="#E241-v1gyzgo" transform="translate(13432, 1170) scale(0.72, 0.72)"/></g></g></g></g></g><g data-id="f1bjk6bf" data-class="barLine" class="barLine"><path d="M13989 540 L13989 1260" stroke-width="27"/></g></g></g></g></svg></svg>