<svg viewBox="0 0 560 84" version="1.1" xmlns="http://www.w3.org/2000/svg" xmlns:xlink="http://www.w3.org/1999/xlink" overflow="visible" id="o11czls8"><desc>Engraved by Verovio 5.6.0-85e7620</desc><defs><g id="E050-o11czls8"><path transform="scale(1,-1)" d="M441 -245c-23 -4 -48 -6 -76 -6c-59 0 -102 7 -130 20c-88 42 -150 93 -187 154c-26 44 -43 103 -48 176c0 6 -1 13 -1 19c0 54 15 111 45 170c29 57 65 106 110 148s96 85 153 127c-3 16 -8 46 -13 92c-4 43 -5 73 -5 89c0 117 16 172 69 257c34 54 64 82 89 82 c21 0 43 -30 69 -92s39 -115 41 -159v-15c0 -109 -21 -162 -67 -241c-13 -20 -63 -90 -98 -118c-13 -9 -25 -19 -37 -29l31 -181c8 1 18 2 28 2c58 0 102 -12 133 -35c59 -43 92 -104 98 -184c1 -7 1 -15 1 -22c0 -123 -87 -209 -181 -248c8 -57 17 -110 25 -162 c5 -31 6 -58 6 -80c0 -30 -5 -53 -14 -70c-35 -64 -88 -99 -158 -103c-5 0 -11 -1 -16 -1c-37 0 -72 10 -108 27c-50 24 -77 59 -80 105v11c0 29 7 55 20 76c18 28 45 42 79 44h6c49 0 93 -42 97 -87v-9c0 -51 -34 -86 -105 -106c17 -24 51 -36 102 -36c62 0 116 43 140 85 c9 16 13 41 13 74c0 20 -1 42 -5 67c-8 53 -18 106 -26 159zM461 939c-95 0 -135 -175 -135 -286c0 -24 2 -48 5 -71c50 39 92 82 127 128c40 53 60 100 60 140v8c-4 53 -22 81 -55 81h-2zM406 119l54 -326c73 25 110 78 110 161c0 7 0 15 -1 23c-7 95 -57 142 -151 142h-12 zM382 117c-72 -2 -128 -47 -128 -120v-7c2 -46 43 -99 75 -115c-3 -2 -7 -5 -10 -10c-70 33 -116 88 -123 172v11c0 68 44 126 88 159c23 17 49 29 78 36l-29 170c-21 -13 -52 -37 -92 -73c-50 -44 -86 -84 -109 -119c-45 -69 -67 -130 -67 -182v-13c5 -68 35 -127 93 -176 s125 -73 203 -73c25 0 50 3 75 9c-19 111 -36 221 -54 331z"/></g><g id="E262-o11czls8"><path transform="scale(1,-1)" d="M136 186v169h17v-164l44 14v-91l-44 -14v-165l44 12v-91l-44 -13v-155h-17v150l-76 -22v-155h-17v149l-43 -13v90l43 14v167l-43 -14v92l43 13v169h17v-163zM60 73v-167l76 22v168z"/></g><g id="E086-o11czls8"><path transform="scale(1,-1)" d="M284 -91c0 37 -28 92 -67 92c-35 0 -65 -54 -65 -111c0 -52 22 -104 68 -104c47 0 64 68 64 123zM230 214c-36 0 -90 -33 -90 -184l2 -36c40 24 81 36 120 36c80 0 140 -48 140 -121c0 -99 -99 -159 -182 -159c-160 0 -200 173 -200 244c0 21 2 43 7 71l10 35 c26 85 73 115 98 126c41 19 74 24 103 24c93 0 142 -63 142 -105c0 -58 -52 -72 -73 -72c-33 0 -59 24 -65 35c-3 5 -6 14 -7 25l11 30c6 15 9 27 9 35c0 11 -9 16 -25 16z"/></g><g id="E088-o11czls8"><path transform="scale(1,-1)" d="M195 -214c76 0 88 58 90 68c0 34 -35 60 -57 73l-52 29c-21 10 -32 17 -34 20c-39 -33 -58 -54 -62 -92c5 -23 23 -98 115 -98zM301 135c0 61 -72 76 -113 76c-40 0 -77 -17 -77 -51c3 -21 15 -38 26 -50c17 -15 33 -26 48 -34l65 -28c34 27 51 56 51 87zM176 -250 c-57 0 -166 26 -166 132c0 47 30 86 89 116c-33 15 -79 60 -79 119c0 79 85 132 178 132h18c5 0 21 1 28 -1c25 0 126 -30 126 -110c0 -37 -23 -76 -69 -116c43 -25 83 -71 83 -119c0 -101 -118 -153 -208 -153z"/></g><g id="E0A4-o11czls8"><path transform="scale(1,-1)" d="M0 -39c0 68 73 172 200 172c66 0 114 -37 114 -95c0 -84 -106 -171 -218 -171c-64 0 -96 30 -96 94z"/></g><g id="E241-o11czls8"><path transform="scale(1,-1)" d="M179 646c-4 8 -17 30 -18 33l-4 10c0 3 2 5 5 5s7 -2 13 -7c23 -33 46 -81 66 -132c22 -57 35 -125 35 -163c0 -104 -60 -183 -122 -241c-63 -59 -57 -53 -61 -56c-38 -34 -63 -95 -71 -95h-22v190c40 7 69 11 87 16c88 27 168 95 168 200c0 30 -12 89 -30 138 c-17 47 -31 73 -46 102z"/></g><g id="E240-o11czls8"><path transform="scale(1,-1)" d="M179 -646c15 29 29 55 46 102c18 49 30 108 30 138c0 105 -80 173 -168 200c-18 5 -47 9 -87 16v190h22c8 0 33 -61 71 -95c4 -3 -2 3 61 -56c62 -58 122 -137 122 -241c0 -38 -13 -106 -35 -163c-20 -51 -43 -99 -66 -132c-6 -5 -10 -7 -13 -7s-5 2 -5 5l4 10 c1 3 14 25 18 33z"/></g></defs><style type="text/css">#o11czls8 g.page-margin {font-family:Times,serif;}#o11czls8 g.ending, #o11czls8 g.fing, #o11czls8 g.reh, #o11czls8 g.tempo {font-weight:bold;}#o11czls8 g.dir, #o11czls8 g.dynam, #o11czls8 g.mNum {font-style:italic;}#o11czls8 g.label {font-weight:normal;}#o11czls8 path {stroke:currentColor}</style><svg class="definition-scale" color="black" viewBox="0 0 14000 2100"><g class="page-margin" transform="translate(0, 150)"><g data-id="b1jvbnwr" data-class="mdiv" class="mdiv pageMilestone"/><g data-id="c1mx2fd4" data-class="score" class="score pageMilestone"/><g data-id="l1cg45ky" data-class="system" class="system"><g data-id="emqlc0a" data-class="section" class="section systemMilestone"/><g data-id="p1gxjrxp" data-class="measure" class="measure"><g data-id="qlr22fh" data-class="staff" class="staff"><path d="M0 540 L2172 540" stroke-width="13"/><path d="M0 720 L2172 720" stroke-width="13"/><path d="M0 900 L2172 900" stroke-width="13"/><path d="M0 1080 L2172 1080" stroke-width="13"/><path d="M0 1260 L2172 1260" stroke-width="13"/><g data-id="s1hespkr" data-class="clef" class="clef"><use href="#E050-o11czls8" transform="translate(90, 1080) scale(0.72, 0.72)"/></g><g data-id="tzmsngi" data-class="keySig" class="keySig"><g data-id="u16sasod" data-class="keyAccid" class="keyAccid"><use href="#E262-o11czls8" transform="translate(735, 540) scale(0.72, 0.72)"/></g></g><g data-id="vlcaitv" data-class="meterSig" class="meterSig"><use href="#E086-o11czls8" transform="translate(1042, 720) scale(0.72, 0.72)"/><use href="#E088-o11czls8" transform="translate(1049, 1080) scale(0.72, 0.72)"/></g><g data-id="r6c2ne4" data-class="layer" class="layer"><g data-id="i13pixvm" data-class="note" class="note"><g data-class="notehead" class="notehead"><use href="#E0A4-o11czls8" transform="translate(1632, 720) scale(0.72, 0.72)"/></g><g data-id="lpnb91f" data-class="stem" class="stem"><path d="M1641 748 L1641 1350" stroke-width="18"/><g data-id="mk0opfp" data-class="flag" class="flag"><use href="#E241-o11czls8" transform="translate(1632, 1350) scale(0.72, 0.72)"/></g></g></g></g></g><g data-id="x85ma" data-class="barLine" class="barLine"><path d="M2159 540 L2159 1260" stroke-width="27"/></g></g><g data-id="yarhjga" data-class="measure" class="measure"><g data-id="s20oftk" data-class="staff" class="staff"><path d="M2172 540 L5135 540" stroke-width="13"/><path d="M2172 720 L5135 720" stroke-width="13"/><path d="M2172 900 L5135 900" stroke-width="13"/><path d="M2172 1080 L5135 1080" stroke-width="13"/><path d="M2172 1260 L5135 1260" stroke-width="13"/><g data-id="t2a13gx" data-class="layer" class="layer"><g data-id="j1c5ub4" data-class="note" class="note"><g data-class="notehead" class="notehead"><use href="#E0A4-o11czls8" transform="translate(2383, 720) scale(0.72, 0.72)"/></g><g data-id="nbxobgn" data-class="stem" class="stem"><path d="M2392 748 L2392 1350" stroke-width="18"/></g></g><g data-id="km9leqi" data-class="note" class="note"><g data-class="notehead" class="notehead"><use href="#E0A4-o11czls8" transform="translate(3191, 900) scale(0.72, 0.72)"/></g><g data-id="o1w7vxbt" data-class="stem" class="stem"><path d="M3200 928 L3200 1500" stroke-width="18"/><g data-id="pp3r03f" data-class="flag" class="flag"><use href="#E241-o11czls8" transform="translate(3191, 1500) scale(0.72, 0.72)"/></g></g></g><g data-id="l1xvc2d8" data-class="note" class="note"><g data-class="notehead" class="notehead"><use href="#E0A4-o11czls8" transform="translate(3718, 1080) scale(0.72, 0.72)"/></g><g data-id="q1dxggur" data-class="stem" class="stem"><path d="M3935 1052 L3935 450" stroke-width="18"/></g></g><g data-id="m3oklg" data-class="note" class="note"><g data-class="notehead" class="notehead"><use href="#E0A4-o11czls8" transform="translate(4525, 990) scale(0.72, 0.72)"/></g><g data-id="rmu025b" data-class="stem" class="stem"><path d="M4742 962 L4742 360" stroke-width="18"/><g data-id="sehig6z" data-class="flag" class="flag"><use href="#E240-o11czls8" transform="translate(4733, 360) scale(0.72, 0.72)"/></g></g></g></g></g><g data-id="g1h73rvr" data-class="barLine" class="barLine"><path d="M5122 540 L5122 1260" stroke-width="27"/></g></g><g data-id="hc9oj6n" data-class="measure" class="measure"><g data-id="u1q3h0yf" data-class="staff" class="staff"><path d="M5135 540 L8274 540" stroke-width="13"/><path d="M5135 720 L8274 720" stroke-width="13"/><path d="M5135 900 L8274 900" stroke-width="13"/><path d="M5135 1080 L8274 1080" stroke-width="13"/><path d="M5135 1260 L8274 1260" stroke-width="13"/><g data-id="vzt2cxb" data-class="layer" class="layer"><g data-id="ncds823" data-class="note" class="note"><g data-class="notehead" class="notehead"><use href="#E0A4-o11czls8" transform="translate(5346, 900) scale(0.72, 0.72)"/></g><g data-id="t2jnle" data-class="stem" class="stem"><path d="M5355 928 L5355 1500" stroke-width="18"/><g data-id="u1c51oh8" data-class="flag" class="flag"><use href="#E241-o11czls8" transform="translate(5346, 1500) scale(0.72, 0.72)"/></g></g></g><g data-id="o1m8kgiz" data-class="note" class="note"><g data-class="notehead" class="notehead"><use href="#E0A4-o11czls8" transform="translate(5873, 900) scale(0.72, 0.72)"/></g><g data-id="v1vpnd40" data-class="stem" class="stem"><path d="M5882 928 L5882 1500" stroke-width="18"/><g data-id="w4ji0cj" data-class="flag" class="flag"><use href="#E241-o11czls8" transform="translate(5873, 1500) scale(0.72, 0.72)"/></g></g></g><g data-id="p1powwyx" data-class="note" class="note"><g data-class="notehead" class="notehead"><use href="#E0A4-o11czls8" transform="translate(6400, 810) scale(0.72, 0.72)"/></g><g data-id="xdvobgz" data-class="stem" class="stem"><path d="M6409 838 L6409 1440" stroke-width="18"/><g data-id="y1ff6icx" data-class="flag" class="flag"><use href="#E241-o11czls8" transform="translate(6400, 1440) scale(0.72, 0.72)"/></g></g></g><g data-id="q1epk17f" data-class="note" class="note"><g data-class="notehead" class="notehead"><use href="#E0A4-o11czls8" transform="translate(6927, 720) scale(0.72, 0.72)"/></g><g data-id="z1xqpjsp" data-class="stem" class="stem"><path d="M6936 748 L6936 1350" stroke-width="18"/></g></g><g data-id="r1dnr0ur" data-class="note" class="note"><g data-class="notehead" class="notehead"><use href="#E0A4-o11czls8" transform="translate(7734, 720) scale(0.72, 0.72)"/></g><g data-id="a1bivfyo" data-class="stem" class="stem"><path d="M7743 748 L7743 1350" stroke-width="18"/><g data-id="b1g6l2s4" data-class="flag" class="flag"><use href="#E241-o11czls8" transform="translate(7734, 1350) scale(0.72, 0.72)"/></g></g></g></g></g><g data-id="p1nu50hw" data-class="barLine" class="barLine"><path d="M8261 540 L8261 1260" stroke-width="27"/></g></g><g data-id="qtknoul" data-class="measure" class="measure"><g data-id="w1humh7k" data-class="staff" class="staff"><path d="M8274 540 L11167 540" stroke-width="13"/><path d="M8274 720 L11167 720" stroke-width="13"/><path d="M8274 900 L11167 900" stroke-width="13"/><path d="M8274 1080 L11167 1080" stroke-width="13"/><path d="M8274 1260 L11167 1260" stroke-width="13"/><g data-id="x1gowlh6" data-class="layer" class="layer"><g data-id="s1odrmi1" data-class="note" class="note"><g data-class="notehead" class="notehead"><use href="#E0A4-o11czls8" transform="translate(8485, 720) scale(0.72, 0.72)"/></g><g data-id="c1fp4f2r" data-class="stem" class="stem"><path d="M8494 748 L8494 1350" stroke-width="18"/></g></g><g data-id="t1d521fe" data-class="note" class="note"><g data-class="notehead" class="notehead"><use href="#E0A4-o11czls8" transform="translate(9293, 900) scale(0.72, 0.72)"/></g><g data-id="d1m96n85" data-class="stem" class="stem"><path d="M9302 928 L9302 1500" stroke-width="18"/><g data-id="e1hj20xe" data-class="flag" class="flag"><use href="#E241-o11czls8" transform="translate(9293, 1500) scale(0.72, 0.72)"/></g></g></g><g data-id="u11utio8" data-class="note" class="note"><g data-class="notehead" class="notehead"><use href="#E0A4-o11czls8" transform="translate(9820, 990) scale(0.72, 0.72)"/></g><g data-id="f1hb3qk8" data-class="stem" class="stem"><path d="M10037 962 L10037 360" stroke-width="18"/></g></g><g data-id="v13zzewj" data-class="note" class="note"><g data-class="notehead" class="notehead"><use href="#E0A4-o11czls8" transform="translate(10627, 900) scale(0.72, 0.72)"/></g><g data-id="g1m9xp94" data-class="stem" class="stem"><path d="M10636 928 L10636 1500" stroke-width="18"/><g data-id="h1ya0ror" data-class="flag" class="flag"><use href="#E241-o11czls8" transform="translate(10627, 1500) scale(0.72, 0.72)"/></g></g></g></g></g><g data-id="yii8mvz" data-class="barLine" class="barLine"><path d="M11154 540 L11154 1260" stroke-width="27"/></g></g><g data-id="zkkedmj" data-class="measure" class="measure"><g data-id="y1bhxqr9" data-class="staff" class="staff"><path d="M11167 540 L14002 540" stroke-width="13"/><path d="M11167 720 L14002 720" stroke-width="13"/><path d="M11167 900 L14002 900" stroke-width="13"/><path d="M11167 1080 L14002 1080" stroke-width="13"/><path d="M11167 1260 L14002 1260" stroke-width="13"/><g data-id="z87t98h" data-class="layer" class="layer"><g data-id="wzsavip" data-class="note" class="note"><g data-class="notehead" class="notehead"><use href="#E0A4-o11czls8" transform="translate(11378, 810) scale(0.72, 0.72)"/></g><g data-id="i1jdt0hn" data-class="stem" class="stem"><path d="M11387 838 L11387 1440" stroke-width="18"/><g data-id="j1ksvj4y" data-class="flag" class="flag"><use href="#E241-o11czls8" transform="translate(11378, 1440) scale(0.72, 0.72)"/></g></g></g><g data-id="x1htsu8y" data-class="note" class="note"><g data-class="notehead" class="notehead"><use href="#E0A4-o11czls8" transform="translate(11905, 810) scale(0.72, 0.72)"/></g><g data-id="k1nvy5tg" data-class="stem" class="stem"><path d="M11914 838 L11914 1440" stroke-width="18"/><g data-id="l1s1tvhz" data-class="flag" class="flag"><use href="#E241-o11czls8" transform="translate(11905, 1440) scale(0.72, 0.72)"/></g></g></g><g data-id="y145mjs3" data-class="note" class="note"><g data-class="notehead" class="notehead"><use href="#E0A4-o11czls8" transform="translate(12432, 720) scale(0.72, 0.72)"/></g><g data-id="m1f5kcje" data-class="stem" class="stem"><path d="M12441 748 L12441 1350" stroke-width="18"/><g data-id="n1980ioi" data-class="flag" class="flag"><use href="#E241-o11czls8" transform="translate(12432, 1350) scale(0.72, 0.72)"/></g></g></g><g data-id="z1pte9hu" data-class="note" class="note"><g data-class="notehead" class="notehead"><use href="#E0A4-o11czls8" transform="translate(12959, 630) scale(0.72, 0.72)"/></g><g data-id="p1u897go" data-class="dots" class="dots"><ellipse cx="13275" cy="630" rx="36" ry="36" fill-opacity="1" stroke-opacity="1"/></g><g data-id="o2ppk9c" data-class="stem" class="stem"><path d="M12968 658 L12968 1260" stroke-width="18"/></g></g></g></g><g data-id="h58e6xz" data-class="barLine" class="barLine"><path d="M13989 540 L13989 1260" stroke-width="27"/></g></g><g data-id="hxptahy" data-class="systemMilestoneEnd" class="systemMilestoneEnd emqlc0a"/></g><g data-id="ib3kwz8" data-class="pageMilestoneEnd" class="pageMilestoneEnd c1mx2fd4"/><g data-id="j16gbrrw" data-class="pageMilestoneEnd" class="pageMilestoneEnd b1jvbnwr"/></g></svg></svg>