<svg viewBox="0 0 560 84" version="1.1" xmlns="http://www.w3.org/2000/svg" xmlns:xlink="http://www.w3.org/1999/xlink" overflow="visible" id="g17jwaj2"><desc>Engraved by Verovio 5.6.0-85e7620</desc><defs><g id="E062-g17jwaj2"><path transform="scale(1,-1)" d="M582 -120c0 32 26 58 58 58s58 -26 58 -58s-26 -58 -58 -58s-58 26 -58 58zM582 120c0 32 26 58 58 58s58 -26 58 -58s-26 -58 -58 -58s-58 26 -58 58zM158 96c51 0 73 -14 88 -49l16 -39c0 -17 -2 -30 -7 -40c-3 -11 -10 -21 -19 -31c-17 -18 -49 -43 -84 -43 c-55 0 -77 13 -112 44c-24 21 -35 55 -35 100c0 46 14 81 32 112c30 52 71 79 137 93l36 6l26 2c154 0 235 -68 274 -182c11 -32 18 -68 18 -107c0 -103 -26 -182 -68 -250c-89 -145 -234 -230 -412 -288l-30 -5c-9 0 -14 3 -14 8c3 10 5 11 10 16c35 15 70 30 96 44l78 43 c96 57 162 136 197 258c9 33 17 60 22 100c3 22 5 35 6 39c-7 69 -16 115 -23 140s-4 22 -16 40c-8 12 -19 23 -31 34c-24 21 -62 44 -118 44c-48 0 -84 -8 -113 -28c-28 -19 -42 -44 -42 -73v-16c2 -5 3 -9 4 -11c24 22 52 39 84 39z"/></g><g id="E260-g17jwaj2"><path transform="scale(1,-1)" d="M20 110c32 16 54 27 93 27c26 0 35 -3 54 -13c13 -7 24 -20 27 -38l4 -25c0 -28 -16 -57 -45 -89c-23 -25 -39 -44 -65 -68l-88 -79v644h20v-359zM90 106c-32 0 -48 -10 -70 -29v-194c31 31 54 59 71 84c21 32 32 59 32 84c0 9 1 16 1 20c0 14 -3 21 -11 30l-8 3z"/></g><g id="E08A-g17jwaj2"><path transform="scale(1,-1)" d="M340 179c-9 24 -56 41 -89 41c-46 0 -81 -28 -100 -58c-17 -28 -25 -78 -25 -150c0 -65 2 -111 8 -135c8 -31 18 -49 40 -67c20 -17 43 -25 70 -25c54 0 92 36 115 75c14 25 23 54 28 88h27c0 -63 -24 -105 -58 -141c-35 -38 -82 -56 -140 -56c-45 0 -83 13 -115 39 c-57 45 -101 130 -101 226c0 59 33 127 68 163c36 37 97 72 160 72c36 0 93 -21 121 -40c11 -8 23 -17 33 -30c19 -23 27 -48 27 -76c0 -51 -35 -88 -86 -88c-43 0 -76 27 -76 68c0 26 7 35 21 51c15 17 32 27 58 32c7 2 14 7 14 11z"/></g><g id="E0A4-g17jwaj2"><path transform="scale(1,-1)" d="M0 -39c0 68 73 172 200 172c66 0 114 -37 114 -95c0 -84 -106 -171 -218 -171c-64 0 -96 30 -96 94z"/></g><g id="E241-g17jwaj2"><path transform="scale(1,-1)" d="M179 646c-4 8 -17 30 -18 33l-4 10c0 3 2 5 5 5s7 -2 13 -7c23 -33 46 -81 66 -132c22 -57 35 -125 35 -163c0 -104 -60 -183 -122 -241c-63 -59 -57 -53 -61 -56c-38 -34 -63 -95 -71 -95h-22v190c40 7 69 11 87 16c88 27 168 95 168 200c0 30 -12 89 -30 138 c-17 47 -31 73 -46 102z"/></g><g id="E0A3-g17jwaj2"><path transform="scale(1,-1)" d="M278 64c0 22 -17 39 -43 39c-12 0 -26 -3 -41 -10c-85 -43 -165 -94 -165 -156c5 -25 15 -32 49 -32c67 11 200 95 200 159zM0 -36c0 68 73 174 200 174c66 0 114 -39 114 -97c0 -84 -106 -173 -218 -173c-64 0 -96 32 -96 96z"/></g></defs><style type="text/css">#g17jwaj2 g.page-margin {font-family:Times,serif;}#g17jwaj2 g.ending, #g17jwaj2 g.fing, #g17jwaj2 g.reh, #g17jwaj2 g.tempo {font-weight:bold;}#g17jwaj2 g.dir, #g17jwaj2 g.dynam, #g17jwaj2 g.mNum {font-style:italic;}#g17jwaj2 g.label {font-weight:normal;}#g17jwaj2 path {stroke:currentColor}</style><svg class="definition-scale" color="black" viewBox="0 0 14000 2100"><g class="page-margin" transform="translate(0, 150)"><g data-id="gd49u2u" data-class="mdiv" class="mdiv pageMilestone"/><g data-id="hxffmu6" data-class="score" class="score pageMilestone"/><g data-id="v1e6sfkt" data-class="system" class="system"><g data-id="j6s8wsw" data-class="section" class="section systemMilestone"/><g data-id="h1jhlc2w" data-class="measure" class="measure"><g data-id="vdtxp96" data-class="staff" class="staff"><path d="M0 540 L2542 540" stroke-width="13"/><path d="M0 720 L2542 720" stroke-width="13"/><path d="M0 900 L2542 900" stroke-width="13"/><path d="M0 1080 L2542 1080" stroke-width="13"/><path d="M0 1260 L2542 1260" stroke-width="13"/><g data-id="b122lp8i" data-class="clef" class="clef"><use href="#E062-g17jwaj2" transform="translate(88, 720) scale(0.72, 0.72)"/></g><g data-id="cnyspct" data-class="keySig" class="keySig"><g data-id="d106ci5l" data-class="keyAccid" class="keyAccid"><use href="#E260-g17jwaj2" transform="translate(769, 1080) scale(0.72, 0.72)"/></g><g data-id="e8s334j" data-class="keyAccid" class="keyAccid"><use href="#E260-g17jwaj2" transform="translate(949, 810) scale(0.72, 0.72)"/></g></g><g data-id="f1p9bgu0" data-class="meterSig" class="meterSig"><use href="#E08A-g17jwaj2" transform="translate(1271, 900) scale(0.72, 0.72)"/></g><g data-id="wu493lv" data-class="layer" class="layer"><g data-id="r1n67z6t" data-class="note" class="note"><g data-class="notehead" class="notehead"><use href="#E0A4-g17jwaj2" transform="translate(1839, 900) scale(0.72, 0.72)"/></g><g data-id="p9jxnwp" data-class="stem" class="stem"><path d="M1848 928 L1848 1500" stroke-width="18"/></g></g></g></g><g data-id="p1hcg64o" data-class="barLine" class="barLine"><path d="M2529 540 L2529 1260" stroke-width="27"/></g></g><g data-id="q11nkxt6" data-class="measure" class="measure"><g data-id="x2uo1np" data-class="staff" class="staff"><path d="M2542 540 L5445 540" stroke-width="13"/><path d="M2542 720 L5445 720" stroke-width="13"/><path d="M2542 900 L5445 900" stroke-width="13"/><path d="M2542 1080 L5445 1080" stroke-width="13"/><path d="M2542 1260 L5445 1260" stroke-width="13"/><g data-id="y1xwagho" data-class="layer" class="layer"><g data-id="s1mf9b44" data-class="note" class="note"><g data-class="notehead" class="notehead"><use href="#E0A4-g17jwaj2" transform="translate(2722, 630) scale(0.72, 0.72)"/></g><g data-id="rr582p8" data-class="dots" class="dots"><ellipse cx="3038" cy="630" rx="36" ry="36" fill-opacity="1" stroke-opacity="1"/></g><g data-id="qtuidyy" data-class="stem" class="stem"><path d="M2731 658 L2731 1260" stroke-width="18"/></g></g><g data-id="t19yz42e" data-class="note" class="note"><g data-class="notehead" class="notehead"><use href="#E0A4-g17jwaj2" transform="translate(3602, 900) scale(0.72, 0.72)"/></g><g data-id="sl8kjbe" data-class="stem" class="stem"><path d="M3611 928 L3611 1500" stroke-width="18"/><g data-id="tnzo2xy" data-class="flag" class="flag"><use href="#E241-g17jwaj2" transform="translate(3602, 1500) scale(0.72, 0.72)"/></g></g></g><g data-id="ub3jrda" data-class="note" class="note"><g data-class="notehead" class="notehead"><use href="#E0A4-g17jwaj2" transform="translate(4052, 630) scale(0.72, 0.72)"/></g><g data-id="u1vj3jes" data-class="stem" class="stem"><path d="M4061 658 L4061 1260" stroke-width="18"/></g></g><g data-id="v16u2h51" data-class="note" class="note"><g data-class="notehead" class="notehead"><use href="#E0A4-g17jwaj2" transform="translate(4742, 540) scale(0.72, 0.72)"/></g><g data-id="v1pxoyyf" data-class="stem" class="stem"><path d="M4751 568 L4751 1170" stroke-width="18"/></g></g></g></g><g data-id="y1k8ihm6" data-class="barLine" class="barLine"><path d="M5432 540 L5432 1260" stroke-width="27"/></g></g><g data-id="z1brz6qs" data-class="measure" class="measure"><g data-id="z10dznd" data-class="staff" class="staff"><path d="M5445 540 L8068 540" stroke-width="13"/><path d="M5445 720 L8068 720" stroke-width="13"/><path d="M5445 900 L8068 900" stroke-width="13"/><path d="M5445 1080 L8068 1080" stroke-width="13"/><path d="M5445 1260 L8068 1260" stroke-width="13"/><g data-class="ledgerLines" class="ledgerLines above"><g data-class="lineDash" class="lineDash" data-related="#yhaw4kw"><path d="M6957 360 L7279 360" stroke-width="22"/></g></g><g data-id="a5pu375" data-class="layer" class="layer"><g data-id="w193vyw9" data-class="note" class="note"><g data-class="notehead" class="notehead"><use href="#E0A4-g17jwaj2" transform="translate(5625, 450) scale(0.72, 0.72)"/></g><g data-id="wzeod38" data-class="stem" class="stem"><path d="M5634 478 L5634 1080" stroke-width="18"/></g><g data-id="eixdc82" data-class="accid" class="accid"/></g><g data-id="xiprj7d" data-class="note" class="note"><g data-class="notehead" class="notehead"><use href="#E0A4-g17jwaj2" transform="translate(6315, 630) scale(0.72, 0.72)"/></g><g data-id="x155eris" data-class="stem" class="stem"><path d="M6324 658 L6324 1260" stroke-width="18"/></g></g><g data-id="yhaw4kw" data-class="note" class="note"><g data-class="notehead" class="notehead"><use href="#E0A3-g17jwaj2" transform="translate(7005, 270) scale(0.72, 0.72)"/></g><g data-id="y17d4g0k" data-class="stem" class="stem"><path d="M7014 295 L7014 900" stroke-width="18"/></g></g></g></g><g data-id="ddlehd9" data-class="tie" class="tie"><path d="M7276,225 C7500,72 7975,72 8203,225 C7962,120 7513,120 7276,225" stroke-linecap="round" stroke-linejoin="round" stroke-width="9"/></g><g data-id="h1t9qrvp" data-class="barLine" class="barLine"><path d="M8055 540 L8055 1260" stroke-width="27"/></g></g><g data-id="i1l93dmh" data-class="measure" class="measure"><g data-id="b92iee0" data-class="staff" class="staff"><path d="M8068 540 L10971 540" stroke-width="13"/><path d="M8068 720 L10971 720" stroke-width="13"/><path d="M8068 900 L10971 900" stroke-width="13"/><path d="M8068 1080 L10971 1080" stroke-width="13"/><path d="M8068 1260 L10971 1260" stroke-width="13"/><g data-class="ledgerLines" class="ledgerLines above"><g data-class="lineDash" class="lineDash" data-related="#z14y2w1y"><path d="M8200 360 L8522 360" stroke-width="22"/></g></g><g data-id="ctct85v" data-class="layer" class="layer"><g data-id="z14y2w1y" data-class="note" class="note"><g data-class="notehead" class="notehead"><use href="#E0A4-g17jwaj2" transform="translate(8248, 270) scale(0.72, 0.72)"/></g><g data-id="amilwhx" data-class="dots" class="dots"><ellipse cx="8564" cy="270" rx="36" ry="36" fill-opacity="1" stroke-opacity="1"/></g><g data-id="z13hlomq" data-class="stem" class="stem"><path d="M8257 298 L8257 900" stroke-width="18"/></g></g><g data-id="a113dli5" data-class="note" class="note"><g data-class="notehead" class="notehead"><use href="#E0A4-g17jwaj2" transform="translate(9128, 630) scale(0.72, 0.72)"/></g><g data-id="b34op1z" data-class="stem" class="stem"><path d="M9137 658 L9137 1260" stroke-width="18"/><g data-id="ce84fiu" data-class="flag" class="flag"><use href="#E241-g17jwaj2" transform="translate(9128, 1260) scale(0.72, 0.72)"/></g></g></g><g data-id="bh1wqjd" data-class="note" class="note"><g data-class="notehead" class="notehead"><use href="#E0A4-g17jwaj2" transform="translate(9578, 630) scale(0.72, 0.72)"/></g><g data-id="d18aoagr" data-class="stem" class="stem"><path d="M9587 658 L9587 1260" stroke-width="18"/></g></g><g data-id="c1rgwwuk" data-class="note" class="note"><g data-class="notehead" class="notehead"><use href="#E0A4-g17jwaj2" transform="translate(10268, 900) scale(0.72, 0.72)"/></g><g data-id="e19o1sl2" data-class="stem" class="stem"><path d="M10277 928 L10277 1500" stroke-width="18"/></g></g></g></g><g data-id="q1wznxla" data-class="barLine" class="barLine"><path d="M10958 540 L10958 1260" stroke-width="27"/></g></g><g data-id="k145x7sp" data-class="systemMilestoneEnd" class="systemMilestoneEnd j6s8wsw"/></g><g data-id="lzet9dp" data-class="pageMilestoneEnd" class="pageMilestoneEnd hxffmu6"/><g data-id="mb875xu" data-class="pageMilestoneEnd" class="pageMilestoneEnd gd49u2u"/></g></svg></svg>