<svg viewBox="0 0 560 84" version="1.1" xmlns="http://www.w3.org/2000/svg" xmlns:xlink="http://www.w3.org/1999/xlink" overflow="visible" id="dulogbd"><desc>Engraved by Verovio 5.6.0-85e7620</desc><defs><g id="E050-dulogbd"><path transform="scale(1,-1)" d="M441 -245c-23 -4 -48 -6 -76 -6c-59 0 -102 7 -130 20c-88 42 -150 93 -187 154c-26 44 -43 103 -48 176c0 6 -1 13 -1 19c0 54 15 111 45 170c29 57 65 106 110 148s96 85 153 127c-3 16 -8 46 -13 92c-4 43 -5 73 -5 89c0 117 16 172 69 257c34 54 64 82 89 82 c21 0 43 -30 69 -92s39 -115 41 -159v-15c0 -109 -21 -162 -67 -241c-13 -20 -63 -90 -98 -118c-13 -9 -25 -19 -37 -29l31 -181c8 1 18 2 28 2c58 0 102 -12 133 -35c59 -43 92 -104 98 -184c1 -7 1 -15 1 -22c0 -123 -87 -209 -181 -248c8 -57 17 -110 25 -162 c5 -31 6 -58 6 -80c0 -30 -5 -53 -14 -70c-35 -64 -88 -99 -158 -103c-5 0 -11 -1 -16 -1c-37 0 -72 10 -108 27c-50 24 -77 59 -80 105v11c0 29 7 55 20 76c18 28 45 42 79 44h6c49 0 93 -42 97 -87v-9c0 -51 -34 -86 -105 -106c17 -24 51 -36 102 -36c62 0 116 43 140 85 c9 16 13 41 13 74c0 20 -1 42 -5 67c-8 53 -18 106 -26 159zM461 939c-95 0 -135 -175 -135 -286c0 -24 2 -48 5 -71c50 39 92 82 127 128c40 53 60 100 60 140v8c-4 53 -22 81 -55 81h-2zM406 119l54 -326c73 25 110 78 110 161c0 7 0 15 -1 23c-7 95 -57 142 -151 142h-12 zM382 117c-72 -2 -128 -47 -128 -120v-7c2 -46 43 -99 75 -115c-3 -2 -7 -5 -10 -10c-70 33 -116 88 -123 172v11c0 68 44 126 88 159c23 17 49 29 78 36l-29 170c-21 -13 -52 -37 -92 -73c-50 -44 -86 -84 -109 -119c-45 -69 -67 -130 -67 -182v-13c5 -68 35 -127 93 -176 s125 -73 203 -73c25 0 50 3 75 9c-19 111 -36 221 -54 331z"/></g><g id="E086-dulogbd"><path transform="scale(1,-1)" d="M284 -91c0 37 -28 92 -67 92c-35 0 -65 -54 -65 -111c0 -52 22 -104 68 -104c47 0 64 68 64 123zM230 214c-36 0 -90 -33 -90 -184l2 -36c40 24 81 36 120 36c80 0 140 -48 140 -121c0 -99 -99 -159 -182 -159c-160 0 -200 173 -200 244c0 21 2 43 7 71l10 35 c26 85 73 115 98 126c41 19 74 24 103 24c93 0 142 -63 142 -105c0 -58 -52 -72 -73 -72c-33 0 -59 24 -65 35c-3 5 -6 14 -7 25l11 30c6 15 9 27 9 35c0 11 -9 16 -25 16z"/></g><g id="E088-dulogbd"><path transform="scale(1,-1)" d="M195 -214c76 0 88 58 90 68c0 34 -35 60 -57 73l-52 29c-21 10 -32 17 -34 20c-39 -33 -58 -54 -62 -92c5 -23 23 -98 115 -98zM301 135c0 61 -72 76 -113 76c-40 0 -77 -17 -77 -51c3 -21 15 -38 26 -50c17 -15 33 -26 48 -34l65 -28c34 27 51 56 51 87zM176 -250 c-57 0 -166 26 -166 132c0 47 30 86 89 116c-33 15 -79 60 -79 119c0 79 85 132 178 132h18c5 0 21 1 28 -1c25 0 126 -30 126 -110c0 -37 -23 -76 -69 -116c43 -25 83 -71 83 -119c0 -101 -118 -153 -208 -153z"/></g><g id="E0A4-dulogbd"><path transform="scale(1,-1)" d="M0 -39c0 68 73 172 200 172c66 0 114 -37 114 -95c0 -84 -106 -171 -218 -171c-64 0 -96 30 -96 94z"/></g><g id="E241-dulogbd"><path transform="scale(1,-1)" d="M179 646c-4 8 -17 30 -18 33l-4 10c0 3 2 5 5 5s7 -2 13 -7c23 -33 46 -81 66 -132c22 -57 35 -125 35 -163c0 -104 -60 -183 -122 -241c-63 -59 -57 -53 -61 -56c-38 -34 -63 -95 -71 -95h-22v190c40 7 69 11 87 16c88 27 168 95 168 200c0 30 -12 89 -30 138 c-17 47 -31 73 -46 102z"/></g><g id="E4E6-dulogbd"><path transform="scale(1,-1)" d="M0 123c7 34 33 56 69 60c29 -3 43 -9 53 -29c4 -8 7 -15 10 -22c0 -21 -1 -25 -11 -35c-5 -8 -18 -14 -40 -20l12 -3l15 -1c44 0 97 26 122 56c10 11 18 26 24 42c7 1 15 2 22 3l-140 -424h-36l111 330c-10 -6 -27 -12 -53 -16l-52 -8h-10l-20 1c-1 0 -8 3 -21 6 c-37 9 -55 28 -55 60z"/></g><g id="E240-dulogbd"><path transform="scale(1,-1)" d="M179 -646c15 29 29 55 46 102c18 49 30 108 30 138c0 105 -80 173 -168 200c-18 5 -47 9 -87 16v190h22c8 0 33 -61 71 -95c4 -3 -2 3 61 -56c62 -58 122 -137 122 -241c0 -38 -13 -106 -35 -163c-20 -51 -43 -99 -66 -132c-6 -5 -10 -7 -13 -7s-5 2 -5 5l4 10 c1 3 14 25 18 33z"/></g><g id="E262-dulogbd"><path transform="scale(1,-1)" d="M136 186v169h17v-164l44 14v-91l-44 -14v-165l44 12v-91l-44 -13v-155h-17v150l-76 -22v-155h-17v149l-43 -13v90l43 14v167l-43 -14v92l43 13v169h17v-163zM60 73v-167l76 22v168z"/></g></defs><style type="text/css">#dulogbd g.page-margin {font-family:Times,serif;}#dulogbd g.ending, #dulogbd g.fing, #dulogbd g.reh, #dulogbd g.tempo {font-weight:bold;}#dulogbd g.dir, #dulogbd g.dynam, #dulogbd g.mNum {font-style:italic;}#dulogbd g.label {font-weight:normal;}#dulogbd path {stroke:currentColor}</style><svg class="definition-scale" color="black" viewBox="0 0 14000 2100"><g class="page-margin" transform="translate(0, 150)"><g data-id="w1oy0zrs" data-class="mdiv" class="mdiv pageMilestone"/><g data-id="x149y5cj" data-class="score" class="score pageMilestone"/><g data-id="hbx23qy" data-class="system" class="system"><g data-id="z17knphe" data-class="section" class="section systemMilestone"/><g data-id="ekiljty" data-class="measure" class="measure"><g data-id="llb7c91" data-class="staff" class="staff"><path d="M0 540 L2193 540" stroke-width="13"/><path d="M0 720 L2193 720" stroke-width="13"/><path d="M0 900 L2193 900" stroke-width="13"/><path d="M0 1080 L2193 1080" stroke-width="13"/><path d="M0 1260 L2193 1260" stroke-width="13"/><g data-id="p1fut3bh" data-class="clef" class="clef"><use href="#E050-dulogbd" transform="translate(90, 1080) scale(0.72, 0.72)"/></g><g data-id="q5vbq7a" data-class="keySig" class="keySig"/><g data-id="rkb8rma" data-class="meterSig" class="meterSig"><use href="#E086-dulogbd" transform="translate(721, 720) scale(0.72, 0.72)"/><use href="#E088-dulogbd" transform="translate(728, 1080) scale(0.72, 0.72)"/></g><g data-id="m1khnu6c" data-class="layer" class="layer"><g data-id="ut9p769" data-class="beam" class="beam"><polygon stroke-opacity="1" fill-opacity="1" points="1280,1485 1748,1440 1748,1350 1280,1395"/><g data-id="js2gefb" data-class="note" class="note"><g data-class="notehead" class="notehead"><use href="#E0A4-dulogbd" transform="translate(1280, 900) scale(0.72, 0.72)"/></g><g data-id="bvq801w" data-class="stem" class="stem"><path d="M1289 928 L1289 1467" stroke-width="18"/></g></g><g data-id="ko9m4ni" data-class="note" class="note"><g data-class="notehead" class="notehead"><use href="#E0A4-dulogbd" transform="translate(1730, 810) scale(0.72, 0.72)"/></g><g data-id="c1lwtiul" data-class="stem" class="stem"><path d="M1739 838 L1739 1422" stroke-width="18"/></g></g></g></g></g><g data-id="mmve6zy" data-class="barLine" class="barLine"><path d="M2180 540 L2180 1260" stroke-width="27"/></g></g><g data-id="n1wkmpri" data-class="measure" class="measure"><g data-id="noi80sr" data-class="staff" class="staff"><path d="M2193 540 L5146 540" stroke-width="13"/><path d="M2193 720 L5146 720" stroke-width="13"/><path d="M2193 900 L5146 900" stroke-width="13"/><path d="M2193 1080 L5146 1080" stroke-width="13"/><path d="M2193 1260 L5146 1260" stroke-width="13"/><g data-id="olxaan6" data-class="layer" class="layer"><g data-id="l14p6h75" data-class="note" class="note"><g data-class="notehead" class="notehead"><use href="#E0A4-dulogbd" transform="translate(2373, 720) scale(0.72, 0.72)"/></g><g data-id="d1ry0k4p" data-class="stem" class="stem"><path d="M2382 748 L2382 1350" stroke-width="18"/><g data-id="eu0ey01" data-class="flag" class="flag"><use href="#E241-dulogbd" transform="translate(2373, 1350) scale(0.72, 0.72)"/></g></g></g><g data-id="f88nqms" data-class="rest" class="rest"><use href="#E4E6-dulogbd" transform="translate(2823, 900) scale(0.72, 0.72)"/></g><g data-id="miff8u9" data-class="note" class="note"><g data-class="notehead" class="notehead"><use href="#E0A4-dulogbd" transform="translate(3273, 810) scale(0.72, 0.72)"/></g><g data-id="f1f1a3dx" data-class="stem" class="stem"><path d="M3282 838 L3282 1440" stroke-width="18"/><g data-id="g12zc56" data-class="flag" class="flag"><use href="#E241-dulogbd" transform="translate(3273, 1440) scale(0.72, 0.72)"/></g></g></g><g data-id="n1buiam0" data-class="note" class="note"><g data-class="notehead" class="notehead"><use href="#E0A4-dulogbd" transform="translate(3723, 900) scale(0.72, 0.72)"/></g><g data-id="h1oyfrn" data-class="stem" class="stem"><path d="M3732 928 L3732 1500" stroke-width="18"/><g data-id="i9bcyxf" data-class="flag" class="flag"><use href="#E241-dulogbd" transform="translate(3723, 1500) scale(0.72, 0.72)"/></g></g></g><g data-id="g1qw83kd" data-class="rest" class="rest"><use href="#E4E6-dulogbd" transform="translate(4173, 900) scale(0.72, 0.72)"/></g><g data-id="o1seq9in" data-class="note" class="note"><g data-class="notehead" class="notehead"><use href="#E0A4-dulogbd" transform="translate(4623, 990) scale(0.72, 0.72)"/></g><g data-id="j1x7u2iv" data-class="stem" class="stem"><path d="M4840 962 L4840 360" stroke-width="18"/><g data-id="k9rdasa" data-class="flag" class="flag"><use href="#E240-dulogbd" transform="translate(4831, 360) scale(0.72, 0.72)"/></g></g></g></g></g><g data-id="v10vvcce" data-class="barLine" class="barLine"><path d="M5133 540 L5133 1260" stroke-width="27"/></g></g><g data-id="w1ya41gy" data-class="measure" class="measure"><g data-id="pute58g" data-class="staff" class="staff"><path d="M5146 540 L8377 540" stroke-width="13"/><path d="M5146 720 L8377 720" stroke-width="13"/><path d="M5146 900 L8377 900" stroke-width="13"/><path d="M5146 1080 L8377 1080" stroke-width="13"/><path d="M5146 1260 L8377 1260" stroke-width="13"/><g data-id="qh3i7r5" data-class="layer" class="layer"><g data-id="p1llcir1" data-class="note" class="note"><g data-class="notehead" class="notehead"><use href="#E0A4-dulogbd" transform="translate(5512, 1080) scale(0.72, 0.72)"/></g><g data-id="l1lnf148" data-class="stem" class="stem"><path d="M5729 1052 L5729 450" stroke-width="18"/><g data-id="m16us6xe" data-class="flag" class="flag"><use href="#E240-dulogbd" transform="translate(5720, 450) scale(0.72, 0.72)"/></g></g><g data-id="tflf6ci" data-class="accid" class="accid"><use href="#E262-dulogbd" transform="translate(5326, 1080) scale(0.72, 0.72)"/></g></g><g data-id="h1qavfvj" data-class="rest" class="rest"><use href="#E4E6-dulogbd" transform="translate(6008, 900) scale(0.72, 0.72)"/></g><g data-id="q6yr369" data-class="note" class="note"><g data-class="notehead" class="notehead"><use href="#E0A4-dulogbd" transform="translate(6458, 990) scale(0.72, 0.72)"/></g><g data-id="nraq4ir" data-class="stem" class="stem"><path d="M6675 962 L6675 360" stroke-width="18"/><g data-id="o1h5iwzb" data-class="flag" class="flag"><use href="#E240-dulogbd" transform="translate(6666, 360) scale(0.72, 0.72)"/></g></g></g><g data-id="r97tmne" data-class="note" class="note"><g data-class="notehead" class="notehead"><use href="#E0A4-dulogbd" transform="translate(6954, 900) scale(0.72, 0.72)"/></g><g data-id="pfkcncp" data-class="stem" class="stem"><path d="M6963 928 L6963 1500" stroke-width="18"/><g data-id="qt9vko3" data-class="flag" class="flag"><use href="#E241-dulogbd" transform="translate(6954, 1500) scale(0.72, 0.72)"/></g></g></g><g data-id="id4aje2" data-class="rest" class="rest"><use href="#E4E6-dulogbd" transform="translate(7404, 900) scale(0.72, 0.72)"/></g><g data-id="s1vi36n0" data-class="note" class="note"><g data-class="notehead" class="notehead"><use href="#E0A4-dulogbd" transform="translate(7854, 1260) scale(0.72, 0.72)"/></g><g data-id="rm9mpm7" data-class="stem" class="stem"><path d="M8071 1232 L8071 630" stroke-width="18"/><g data-id="s16gt7tx" data-class="flag" class="flag"><use href="#E240-dulogbd" transform="translate(8062, 630) scale(0.72, 0.72)"/></g></g></g></g></g><g data-id="epeejj8" data-class="barLine" class="barLine"><path d="M8364 540 L8364 1260" stroke-width="27"/></g></g><g data-id="yijh7l6" data-class="systemMilestoneEnd" class="systemMilestoneEnd z17knphe"/></g><g data-id="z115uj7h" data-class="pageMilestoneEnd" class="pageMilestoneEnd x149y5cj"/><g data-id="a1r1n1jk" data-class="pageMilestoneEnd" class="pageMilestoneEnd w1oy0zrs"/></g></svg></svg>