<svg viewBox="0 0 560 84" version="1.1" xmlns="http://www.w3.org/2000/svg" xmlns:xlink="http://www.w3.org/1999/xlink" overflow="visible" id="i1t7zvns"><desc>Engraved by Verovio 5.6.0-85e7620</desc><defs><g id="E050-i1t7zvns"><path transform="scale(1,-1)" d="M441 -245c-23 -4 -48 -6 -76 -6c-59 0 -102 7 -130 20c-88 42 -150 93 -187 154c-26 44 -43 103 -48 176c0 6 -1 13 -1 19c0 54 15 111 45 170c29 57 65 106 110 148s96 85 153 127c-3 16 -8 46 -13 92c-4 43 -5 73 -5 89c0 117 16 172 69 257c34 54 64 82 89 82 c21 0 43 -30 69 -92s39 -115 41 -159v-15c0 -109 -21 -162 -67 -241c-13 -20 -63 -90 -98 -118c-13 -9 -25 -19 -37 -29l31 -181c8 1 18 2 28 2c58 0 102 -12 133 -35c59 -43 92 -104 98 -184c1 -7 1 -15 1 -22c0 -123 -87 -209 -181 -248c8 -57 17 -110 25 -162 c5 -31 6 -58 6 -80c0 -30 -5 -53 -14 -70c-35 -64 -88 -99 -158 -103c-5 0 -11 -1 -16 -1c-37 0 -72 10 -108 27c-50 24 -77 59 -80 105v11c0 29 7 55 20 76c18 28 45 42 79 44h6c49 0 93 -42 97 -87v-9c0 -51 -34 -86 -105 -106c17 -24 51 -36 102 -36c62 0 116 43 140 85 c9 16 13 41 13 74c0 20 -1 42 -5 67c-8 53 -18 106 -26 159zM461 939c-95 0 -135 -175 -135 -286c0 -24 2 -48 5 -71c50 39 92 82 127 128c40 53 60 100 60 140v8c-4 53 -22 81 -55 81h-2zM406 119l54 -326c73 25 110 78 110 161c0 7 0 15 -1 23c-7 95 -57 142 -151 142h-12 zM382 117c-72 -2 -128 -47 -128 -120v-7c2 -46 43 -99 75 -115c-3 -2 -7 -5 -10 -10c-70 33 -116 88 -123 172v11c0 68 44 126 88 159c23 17 49 29 78 36l-29 170c-21 -13 -52 -37 -92 -73c-50 -44 -86 -84 -109 -119c-45 -69 -67 -130 -67 -182v-13c5 -68 35 -127 93 -176 s125 -73 203 -73c25 0 50 3 75 9c-19 111 -36 221 -54 331z"/></g><g id="E260-i1t7zvns"><path transform="scale(1,-1)" d="M20 110c32 16 54 27 93 27c26 0 35 -3 54 -13c13 -7 24 -20 27 -38l4 -25c0 -28 -16 -57 -45 -89c-23 -25 -39 -44 -65 -68l-88 -79v644h20v-359zM90 106c-32 0 -48 -10 -70 -29v-194c31 31 54 59 71 84c21 32 32 59 32 84c0 9 1 16 1 20c0 14 -3 21 -11 30l-8 3z"/></g><g id="E08A-i1t7zvns"><path transform="scale(1,-1)" d="M340 179c-9 24 -56 41 -89 41c-46 0 -81 -28 -100 -58c-17 -28 -25 -78 -25 -150c0 -65 2 -111 8 -135c8 -31 18 -49 40 -67c20 -17 43 -25 70 -25c54 0 92 36 115 75c14 25 23 54 28 88h27c0 -63 -24 -105 -58 -141c-35 -38 -82 -56 -140 -56c-45 0 -83 13 -115 39 c-57 45 -101 130 -101 226c0 59 33 127 68 163c36 37 97 72 160 72c36 0 93 -21 121 -40c11 -8 23 -17 33 -30c19 -23 27 -48 27 -76c0 -51 -35 -88 -86 -88c-43 0 -76 27 -76 68c0 26 7 35 21 51c15 17 32 27 58 32c7 2 14 7 14 11z"/></g><g id="E0A4-i1t7zvns"><path transform="scale(1,-1)" d="M0 -39c0 68 73 172 200 172c66 0 114 -37 114 -95c0 -84 -106 -171 -218 -171c-64 0 -96 30 -96 94z"/></g><g id="E240-i1t7zvns"><path transform="scale(1,-1)" d="M179 -646c15 29 29 55 46 102c18 49 30 108 30 138c0 105 -80 173 -168 200c-18 5 -47 9 -87 16v190h22c8 0 33 -61 71 -95c4 -3 -2 3 61 -56c62 -58 122 -137 122 -241c0 -38 -13 -106 -35 -163c-20 -51 -43 -99 -66 -132c-6 -5 -10 -7 -13 -7s-5 2 -5 5l4 10 c1 3 14 25 18 33z"/></g><g id="E0A3-i1t7zvns"><path transform="scale(1,-1)" d="M278 64c0 22 -17 39 -43 39c-12 0 -26 -3 -41 -10c-85 -43 -165 -94 -165 -156c5 -25 15 -32 49 -32c67 11 200 95 200 159zM0 -36c0 68 73 174 200 174c66 0 114 -39 114 -97c0 -84 -106 -173 -218 -173c-64 0 -96 32 -96 96z"/></g></defs><style type="text/css">#i1t7zvns g.page-margin {font-family:Times,serif;}#i1t7zvns g.ending, #i1t7zvns g.fing, #i1t7zvns g.reh, #i1t7zvns g.tempo {font-weight:bold;}#i1t7zvns g.dir, #i1t7zvns g.dynam, #i1t7zvns g.mNum {font-style:italic;}#i1t7zvns g.label {font-weight:normal;}#i1t7zvns path {stroke:currentColor}</style><svg class="definition-scale" color="black" viewBox="0 0 14000 2100"><g class="page-margin" transform="translate(0, 150)"><g data-id="c1gp3ve3" data-class="mdiv" class="mdiv pageMilestone"/><g data-id="d1yj5p6u" data-class="score" class="score pageMilestone"/><g data-id="ntr5s8w" data-class="system" class="system"><g data-id="fkgggj4" data-class="section" class="section systemMilestone"/><g data-id="jp3oxlk" data-class="measure" class="measure"><g data-id="r1mz24hy" data-class="staff" class="staff"><path d="M0 540 L5186 540" stroke-width="13"/><path d="M0 720 L5186 720" stroke-width="13"/><path d="M0 900 L5186 900" stroke-width="13"/><path d="M0 1080 L5186 1080" stroke-width="13"/><path d="M0 1260 L5186 1260" stroke-width="13"/><g data-id="v1o8v4bk" data-class="clef" class="clef"><use href="#E050-i1t7zvns" transform="translate(90, 1080) scale(0.72, 0.72)"/></g><g data-id="w1i9zxmg" data-class="keySig" class="keySig"><g data-id="x13cg0o3" data-class="keyAccid" class="keyAccid"><use href="#E260-i1t7zvns" transform="translate(735, 900) scale(0.72, 0.72)"/></g><g data-id="yyvs5ho" data-class="keyAccid" class="keyAccid"><use href="#E260-i1t7zvns" transform="translate(915, 630) scale(0.72, 0.72)"/></g><g data-id="z9ho9o3" data-class="keyAccid" class="keyAccid"><use href="#E260-i1t7zvns" transform="translate(1095, 990) scale(0.72, 0.72)"/></g><g data-id="a1pj4du8" data-class="keyAccid" class="keyAccid"><use href="#E260-i1t7zvns" transform="translate(1275, 720) scale(0.72, 0.72)"/></g></g><g data-id="b1a33y2c" data-class="meterSig" class="meterSig"><use href="#E08A-i1t7zvns" transform="translate(1597, 900) scale(0.72, 0.72)"/></g><g data-class="ledgerLines" class="ledgerLines above"><g data-class="lineDash" class="lineDash" data-related="#d1qe8f1k"><path d="M2128 360 L2450 360" stroke-width="22"/></g></g><g data-id="s1nc6age" data-class="layer" class="layer"><g data-id="d1qe8f1k" data-class="note" class="note"><g data-class="notehead" class="notehead"><use href="#E0A4-i1t7zvns" transform="translate(2176, 360) scale(0.72, 0.72)"/></g><g data-id="pslce3g" data-class="stem" class="stem"><path d="M2185 388 L2185 990" stroke-width="18"/></g><g data-id="uwxsvja" data-class="accid" class="accid"/></g><g data-id="e1tbphel" data-class="note" class="note"><g data-class="notehead" class="notehead"><use href="#E0A4-i1t7zvns" transform="translate(2926, 450) scale(0.72, 0.72)"/></g><g data-id="qf5q8co" data-class="stem" class="stem"><path d="M2935 478 L2935 1080" stroke-width="18"/></g></g><g data-id="fytui8j" data-class="note" class="note"><g data-class="notehead" class="notehead"><use href="#E0A4-i1t7zvns" transform="translate(3676, 540) scale(0.72, 0.72)"/></g><g data-id="sjq67bh" data-class="dots" class="dots"><ellipse cx="3992" cy="450" rx="36" ry="36" fill-opacity="1" stroke-opacity="1"/></g><g data-id="r1djo03n" data-class="stem" class="stem"><path d="M3685 568 L3685 1170" stroke-width="18"/></g></g><g data-id="g1xg28us" data-class="note" class="note"><g data-class="notehead" class="notehead"><use href="#E0A4-i1t7zvns" transform="translate(4633, 1170) scale(0.72, 0.72)"/></g><g data-id="t1f0s0sl" data-class="stem" class="stem"><path d="M4850 1142 L4850 540" stroke-width="18"/><g data-id="u6tx7xy" data-class="flag" class="flag"><use href="#E240-i1t7zvns" transform="translate(4841, 540) scale(0.72, 0.72)"/></g></g></g></g></g><g data-id="rdfpwcg" data-class="barLine" class="barLine"><path d="M5173 540 L5173 1260" stroke-width="27"/></g></g><g data-id="sktr4rp" data-class="measure" class="measure"><g data-id="t2nxp5l" data-class="staff" class="staff"><path d="M5186 540 L8387 540" stroke-width="13"/><path d="M5186 720 L8387 720" stroke-width="13"/><path d="M5186 900 L8387 900" stroke-width="13"/><path d="M5186 1080 L8387 1080" stroke-width="13"/><path d="M5186 1260 L8387 1260" stroke-width="13"/><g data-id="u1kr8qmy" data-class="layer" class="layer"><g data-id="htiyoit" data-class="note" class="note"><g data-class="notehead" class="notehead"><use href="#E0A4-i1t7zvns" transform="translate(5377, 540) scale(0.72, 0.72)"/></g><g data-id="v6lkxfs" data-class="stem" class="stem"><path d="M5386 568 L5386 1170" stroke-width="18"/></g></g><g data-id="i1mpvp40" data-class="note" class="note"><g data-class="notehead" class="notehead"><use href="#E0A4-i1t7zvns" transform="translate(6127, 630) scale(0.72, 0.72)"/></g><g data-id="w19mb8fw" data-class="stem" class="stem"><path d="M6136 658 L6136 1260" stroke-width="18"/></g><g data-id="v8nl755" data-class="accid" class="accid"/></g><g data-id="j19o54m9" data-class="note" class="note"><g data-class="notehead" class="notehead"><use href="#E0A4-i1t7zvns" transform="translate(6877, 720) scale(0.72, 0.72)"/></g><g data-id="y1jrxhhu" data-class="dots" class="dots"><ellipse cx="7193" cy="630" rx="36" ry="36" fill-opacity="1" stroke-opacity="1"/></g><g data-id="x12yjm7u" data-class="stem" class="stem"><path d="M6886 748 L6886 1350" stroke-width="18"/></g><g data-id="whb7g1n" data-class="accid" class="accid"/></g><g data-id="k15ewqqt" data-class="note" class="note"><g data-class="notehead" class="notehead"><use href="#E0A4-i1t7zvns" transform="translate(7834, 1350) scale(0.72, 0.72)"/></g><g data-id="z1fv8bbe" data-class="stem" class="stem"><path d="M8051 1322 L8051 720" stroke-width="18"/><g data-id="a1ezdekc" data-class="flag" class="flag"><use href="#E240-i1t7zvns" transform="translate(8042, 720) scale(0.72, 0.72)"/></g></g><g data-id="x2s6r1y" data-class="accid" class="accid"/></g></g></g><g data-id="av744uh" data-class="barLine" class="barLine"><path d="M8374 540 L8374 1260" stroke-width="27"/></g></g><g data-id="b122gf8" data-class="measure" class="measure"><g data-id="v1upixz4" data-class="staff" class="staff"><path d="M8387 540 L10799 540" stroke-width="13"/><path d="M8387 720 L10799 720" stroke-width="13"/><path d="M8387 900 L10799 900" stroke-width="13"/><path d="M8387 1080 L10799 1080" stroke-width="13"/><path d="M8387 1260 L10799 1260" stroke-width="13"/><g data-id="wxxd7cl" data-class="layer" class="layer"><g data-id="l1716e0x" data-class="note" class="note"><g data-class="notehead" class="notehead"><use href="#E0A3-i1t7zvns" transform="translate(8578, 720) scale(0.72, 0.72)"/></g><g data-id="c11cpxuq" data-class="dots" class="dots"><ellipse cx="8894" cy="630" rx="36" ry="36" fill-opacity="1" stroke-opacity="1"/></g><g data-id="b1qateuq" data-class="stem" class="stem"><path d="M8587 745 L8587 1350" stroke-width="18"/></g><g data-id="y1txerxh" data-class="accid" class="accid"/></g><g data-id="m1pw4n2h" data-class="note" class="note"><g data-class="notehead" class="notehead"><use href="#E0A4-i1t7zvns" transform="translate(10036, 810) scale(0.72, 0.72)"/></g><g data-id="d5dvp6z" data-class="stem" class="stem"><path d="M10045 838 L10045 1440" stroke-width="18"/></g></g></g></g><g data-id="s1g1rfkz" data-class="tie" class="tie"><path d="M10307,765 C10457,611 10792,611 10945,765 C10775,660 10474,660 10307,765" stroke-linecap="round" stroke-linejoin="round" stroke-width="9"/></g><g data-id="j1y2sr3o" data-class="barLine" class="barLine"><path d="M10786 540 L10786 1260" stroke-width="27"/></g></g><g data-id="kenfk3a" data-class="measure" class="measure"><g data-id="x9743pz" data-class="staff" class="staff"><path d="M10799 540 L14003 540" stroke-width="13"/><path d="M10799 720 L14003 720" stroke-width="13"/><path d="M10799 900 L14003 900" stroke-width="13"/><path d="M10799 1080 L14003 1080" stroke-width="13"/><path d="M10799 1260 L14003 1260" stroke-width="13"/><g data-id="y1ogtla4" data-class="layer" class="layer"><g data-id="n1i58izn" data-class="note" class="note"><g data-class="notehead" class="notehead"><use href="#E0A4-i1t7zvns" transform="translate(10990, 810) scale(0.72, 0.72)"/></g><g data-id="ertbsky" data-class="stem" class="stem"><path d="M10999 838 L10999 1440" stroke-width="18"/></g></g><g data-id="o13qvon3" data-class="note" class="note"><g data-class="notehead" class="notehead"><use href="#E0A4-i1t7zvns" transform="translate(11740, 900) scale(0.72, 0.72)"/></g><g data-id="f1thct8k" data-class="stem" class="stem"><path d="M11749 928 L11749 1500" stroke-width="18"/></g><g data-id="z1ky846v" data-class="accid" class="accid"/></g><g data-id="p18z3nn3" data-class="note" class="note"><g data-class="notehead" class="notehead"><use href="#E0A4-i1t7zvns" transform="translate(12490, 990) scale(0.72, 0.72)"/></g><g data-id="g16l7lxc" data-class="stem" class="stem"><path d="M12707 962 L12707 360" stroke-width="18"/></g><g data-id="a180va2y" data-class="accid" class="accid"/></g><g data-id="q1fhrh6i" data-class="note" class="note"><g data-class="notehead" class="notehead"><use href="#E0A4-i1t7zvns" transform="translate(13240, 1080) scale(0.72, 0.72)"/></g><g data-id="hmz4dpk" data-class="stem" class="stem"><path d="M13457 1052 L13457 450" stroke-width="18"/></g></g></g></g><g data-id="t6d7omd" data-class="tie" class="tie"><path d="M13511,1125 C13627,1230 13814,1230 13932,1125 C13837,1279 13604,1279 13511,1125" stroke-linecap="round" stroke-linejoin="round" stroke-width="9"/></g><g data-id="s1tuonjw" data-class="barLine" class="barLine"><path d="M13990 540 L13990 1260" stroke-width="27"/></g></g></g></g></svg></svg>