<svg viewBox="0 0 560 89" version="1.1" xmlns="http://www.w3.org/2000/svg" xmlns:xlink="http://www.w3.org/1999/xlink" overflow="visible" id="q18lkqqd"><desc>Engraved by Verovio 5.6.0-85e7620</desc><defs><g id="E050-q18lkqqd"><path transform="scale(1,-1)" d="M441 -245c-23 -4 -48 -6 -76 -6c-59 0 -102 7 -130 20c-88 42 -150 93 -187 154c-26 44 -43 103 -48 176c0 6 -1 13 -1 19c0 54 15 111 45 170c29 57 65 106 110 148s96 85 153 127c-3 16 -8 46 -13 92c-4 43 -5 73 -5 89c0 117 16 172 69 257c34 54 64 82 89 82 c21 0 43 -30 69 -92s39 -115 41 -159v-15c0 -109 -21 -162 -67 -241c-13 -20 -63 -90 -98 -118c-13 -9 -25 -19 -37 -29l31 -181c8 1 18 2 28 2c58 0 102 -12 133 -35c59 -43 92 -104 98 -184c1 -7 1 -15 1 -22c0 -123 -87 -209 -181 -248c8 -57 17 -110 25 -162 c5 -31 6 -58 6 -80c0 -30 -5 -53 -14 -70c-35 -64 -88 -99 -158 -103c-5 0 -11 -1 -16 -1c-37 0 -72 10 -108 27c-50 24 -77 59 -80 105v11c0 29 7 55 20 76c18 28 45 42 79 44h6c49 0 93 -42 97 -87v-9c0 -51 -34 -86 -105 -106c17 -24 51 -36 102 -36c62 0 116 43 140 85 c9 16 13 41 13 74c0 20 -1 42 -5 67c-8 53 -18 106 -26 159zM461 939c-95 0 -135 -175 -135 -286c0 -24 2 -48 5 -71c50 39 92 82 127 128c40 53 60 100 60 140v8c-4 53 -22 81 -55 81h-2zM406 119l54 -326c73 25 110 78 110 161c0 7 0 15 -1 23c-7 95 -57 142 -151 142h-12 zM382 117c-72 -2 -128 -47 -128 -120v-7c2 -46 43 -99 75 -115c-3 -2 -7 -5 -10 -10c-70 33 -116 88 -123 172v11c0 68 44 126 88 159c23 17 49 29 78 36l-29 170c-21 -13 -52 -37 -92 -73c-50 -44 -86 -84 -109 -119c-45 -69 -67 -130 -67 -182v-13c5 -68 35 -127 93 -176 s125 -73 203 -73c25 0 50 3 75 9c-19 111 -36 221 -54 331z"/></g><g id="E262-q18lkqqd"><path transform="scale(1,-1)" d="M136 186v169h17v-164l44 14v-91l-44 -14v-165l44 12v-91l-44 -13v-155h-17v150l-76 -22v-155h-17v149l-43 -13v90l43 14v167l-43 -14v92l43 13v169h17v-163zM60 73v-167l76 22v168z"/></g><g id="E08A-q18lkqqd"><path transform="scale(1,-1)" d="M340 179c-9 24 -56 41 -89 41c-46 0 -81 -28 -100 -58c-17 -28 -25 -78 -25 -150c0 -65 2 -111 8 -135c8 -31 18 -49 40 -67c20 -17 43 -25 70 -25c54 0 92 36 115 75c14 25 23 54 28 88h27c0 -63 -24 -105 -58 -141c-35 -38 -82 -56 -140 -56c-45 0 -83 13 -115 39 c-57 45 -101 130 -101 226c0 59 33 127 68 163c36 37 97 72 160 72c36 0 93 -21 121 -40c11 -8 23 -17 33 -30c19 -23 27 -48 27 -76c0 -51 -35 -88 -86 -88c-43 0 -76 27 -76 68c0 26 7 35 21 51c15 17 32 27 58 32c7 2 14 7 14 11z"/></g><g id="E4E5-q18lkqqd"><path transform="scale(1,-1)" d="M107 292c-13 24 -30 49 -52 71c-1 1 0 2 0 3l-2 2c3 3 4 4 6 4c12 0 26 -7 40 -20s44 -40 89 -81c26 -24 28 -29 46 -47c4 -4 8 -9 10 -14c6 -8 8 -16 8 -27c0 -19 -12 -40 -36 -61c-28 -23 -49 -38 -61 -73c-4 -11 -7 -27 -10 -50c13 -43 34 -83 59 -121 c31 -47 59 -79 101 -129c-8 0 -26 7 -54 20l-62 29l-21 6l-23 1c-25 0 -45 -10 -60 -30l-4 -14l-1 -12c0 -33 20 -56 39 -78c8 -9 17 -18 26 -26c17 -15 27 -24 28 -30l-3 -3c-11 5 -19 10 -25 15c-9 3 -37 21 -45 26c-24 14 -45 32 -63 51c-19 21 -37 44 -37 71 c0 63 27 95 80 95c41 0 86 -18 136 -52c-19 26 -37 48 -55 66c-23 23 -48 44 -73 65c-28 23 -47 40 -58 53s-17 26 -18 39c75 64 113 125 113 183c0 27 -7 48 -18 68z"/></g><g id="E4E6-q18lkqqd"><path transform="scale(1,-1)" d="M0 123c7 34 33 56 69 60c29 -3 43 -9 53 -29c4 -8 7 -15 10 -22c0 -21 -1 -25 -11 -35c-5 -8 -18 -14 -40 -20l12 -3l15 -1c44 0 97 26 122 56c10 11 18 26 24 42c7 1 15 2 22 3l-140 -424h-36l111 330c-10 -6 -27 -12 -53 -16l-52 -8h-10l-20 1c-1 0 -8 3 -21 6 c-37 9 -55 28 -55 60z"/></g><g id="E0A4-q18lkqqd"><path transform="scale(1,-1)" d="M0 -39c0 68 73 172 200 172c66 0 114 -37 114 -95c0 -84 -106 -171 -218 -171c-64 0 -96 30 -96 94z"/></g><g id="E883-q18lkqqd"><path transform="scale(1,-1)" d="M161 326c52 0 94 -17 94 -68c0 -50 -40 -76 -82 -94c26 -21 39 -42 39 -64c0 -52 -56 -100 -118 -100h-12c-40 0 -82 23 -82 56c0 30 12 49 37 49c17 0 31 -16 34 -31c0 -5 -4 -12 -11 -21c-7 -5 -13 -10 -13 -21l11 -9l17 -4c21 0 40 12 56 37c13 21 19 45 19 70 c-9 30 -28 35 -66 35l6 23c34 0 60 4 77 13c20 11 30 35 30 70c0 28 -12 38 -39 40l-20 -3c-8 -3 -12 -9 -12 -16c2 -7 4 -11 5 -14l4 -11l3 -10l-3 -12c-5 -6 -11 -11 -20 -13c-2 0 -4 -1 -6 -1c-16 0 -30 13 -30 28c0 39 43 71 82 71z"/></g></defs><style type="text/css">#q18lkqqd g.page-margin {font-family:Times,serif;}#q18lkqqd g.ending, #q18lkqqd g.fing, #q18lkqqd g.reh, #q18lkqqd g.tempo {font-weight:bold;}#q18lkqqd g.dir, #q18lkqqd g.dynam, #q18lkqqd g.mNum {font-style:italic;}#q18lkqqd g.label {font-weight:normal;}#q18lkqqd path {stroke:currentColor}</style><svg class="definition-scale" color="black" viewBox="0 0 14000 2210"><g class="page-margin" transform="translate(0, 150)"><g data-id="z3j0fug" data-class="mdiv" class="mdiv pageMilestone"/><g data-id="a5rnzy2" data-class="score" class="score pageMilestone"/><g data-id="o15wha94" data-class="system" class="system"><g data-id="chaux5n" data-class="section" class="section systemMilestone"/><g data-id="r1cnnroz" data-class="measure" class="measure"><g data-id="op0kmjh" data-class="staff" class="staff"><path d="M0 540 L2821 540" stroke-width="13"/><path d="M0 720 L2821 720" stroke-width="13"/><path d="M0 900 L2821 900" stroke-width="13"/><path d="M0 1080 L2821 1080" stroke-width="13"/><path d="M0 1260 L2821 1260" stroke-width="13"/><g data-id="v1orrbr0" data-class="clef" class="clef"><use href="#E050-q18lkqqd" transform="translate(90, 1080) scale(0.72, 0.72)"/></g><g data-id="wh33drx" data-class="keySig" class="keySig"><g data-id="x1mmh5u5" data-class="keyAccid" class="keyAccid"><use href="#E262-q18lkqqd" transform="translate(735, 540) scale(0.72, 0.72)"/></g></g><g data-id="y16qf1pk" data-class="meterSig" class="meterSig"><use href="#E08A-q18lkqqd" transform="translate(1056, 900) scale(0.72, 0.72)"/></g><g data-id="pqb9i0o" data-class="layer" class="layer"><g data-id="s10bgnzz" data-class="rest" class="rest"><use href="#E4E5-q18lkqqd" transform="translate(1722, 900) scale(0.72, 0.72)"/></g></g></g><g data-id="z1sdff9e" data-class="barLine" class="barLine"><path d="M2808 540 L2808 1260" stroke-width="27"/></g></g><g data-id="a58umx0" data-class="measure" class="measure"><g data-id="q1hzubu8" data-class="staff" class="staff"><path d="M2821 540 L7334 540" stroke-width="13"/><path d="M2821 720 L7334 720" stroke-width="13"/><path d="M2821 900 L7334 900" stroke-width="13"/><path d="M2821 1080 L7334 1080" stroke-width="13"/><path d="M2821 1260 L7334 1260" stroke-width="13"/><g data-id="r19pjtx0" data-class="layer" class="layer"><g data-id="ri631ih" data-class="tuplet" class="tuplet"><g data-id="g15l3p7p" data-class="tupletNum" class="tupletNum"><use href="#E883-q18lkqqd" transform="translate(3382, 399) scale(0.72, 0.72)"/></g><g data-id="fhet483" data-class="tupletBracket" class="tupletBracket"><polyline stroke="currentColor" stroke-width="18" stroke-opacity="1" stroke-linecap="butt" stroke-linejoin="miter" fill="none" points="3010,458 3010,341 3337,300 "/><polyline stroke="currentColor" stroke-width="18" stroke-opacity="1" stroke-linecap="butt" stroke-linejoin="miter" fill="none" points="3938,340 3938,223 3610,265 "/></g><g data-id="tevekrm" data-class="rest" class="rest"><use href="#E4E6-q18lkqqd" transform="translate(3001, 900) scale(0.72, 0.72)"/></g><g data-id="l1vujlyy" data-class="beam" class="beam"><polygon stroke-opacity="1" fill-opacity="1" points="3569,450 3947,405 3947,495 3569,540"/><g data-id="w1tgnmsy" data-class="note" class="note"><g data-class="notehead" class="notehead"><use href="#E0A4-q18lkqqd" transform="translate(3361, 1350) scale(0.72, 0.72)"/></g><g data-id="h1fp3is2" data-class="stem" class="stem"><path d="M3578 1322 L3578 468" stroke-width="18"/></g></g><g data-id="xy04nm" data-class="note" class="note"><g data-class="notehead" class="notehead"><use href="#E0A4-q18lkqqd" transform="translate(3721, 1080) scale(0.72, 0.72)"/></g><g data-id="ik79ivu" data-class="stem" class="stem"><path d="M3938 1052 L3938 423" stroke-width="18"/></g></g></g></g><g data-id="s1shjkrj" data-class="tuplet" class="tuplet"><g data-id="j1wwspni" data-class="tupletNum" class="tupletNum"><use href="#E883-q18lkqqd" transform="translate(4405, 1917) scale(0.72, 0.72)"/></g><g data-id="mu2yvb5" data-class="beam" class="beam"><polygon stroke-opacity="1" fill-opacity="1" points="4081,1620 4819,1620 4819,1530 4081,1530"/><g data-id="yefbv0g" data-class="note" class="note"><g data-class="notehead" class="notehead"><use href="#E0A4-q18lkqqd" transform="translate(4081, 900) scale(0.72, 0.72)"/></g><g data-id="kajtr5f" data-class="stem" class="stem"><path d="M4090 928 L4090 1602" stroke-width="18"/></g></g><g data-id="zwj6oft" data-class="note" class="note"><g data-class="notehead" class="notehead"><use href="#E0A4-q18lkqqd" transform="translate(4441, 1080) scale(0.72, 0.72)"/></g><g data-id="l19ekbdx" data-class="stem" class="stem"><path d="M4450 1108 L4450 1602" stroke-width="18"/></g></g><g data-id="a8nwenr" data-class="note" class="note"><g data-class="notehead" class="notehead"><use href="#E0A4-q18lkqqd" transform="translate(4801, 720) scale(0.72, 0.72)"/></g><g data-id="m5acpgv" data-class="stem" class="stem"><path d="M4810 748 L4810 1602" stroke-width="18"/></g></g></g></g><g data-id="tvashx7" data-class="tuplet" class="tuplet"><g data-id="o1mwc6u" data-class="tupletNum" class="tupletNum"><use href="#E883-q18lkqqd" transform="translate(5542, 309) scale(0.72, 0.72)"/></g><g data-id="n7gt3th" data-class="tupletBracket" class="tupletBracket"><polyline stroke="currentColor" stroke-width="18" stroke-opacity="1" stroke-linecap="butt" stroke-linejoin="miter" fill="none" points="5170,368 5170,251 5497,210 "/><polyline stroke="currentColor" stroke-width="18" stroke-opacity="1" stroke-linecap="butt" stroke-linejoin="miter" fill="none" points="6098,250 6098,133 5770,175 "/></g><g data-id="u1ebp3df" data-class="rest" class="rest"><use href="#E4E6-q18lkqqd" transform="translate(5161, 900) scale(0.72, 0.72)"/></g><g data-id="n15tf78t" data-class="beam" class="beam"><polygon stroke-opacity="1" fill-opacity="1" points="5729,360 6107,315 6107,405 5729,450"/><g data-id="brs99on" data-class="note" class="note"><g data-class="notehead" class="notehead"><use href="#E0A4-q18lkqqd" transform="translate(5521, 1080) scale(0.72, 0.72)"/></g><g data-id="p1xp77m" data-class="stem" class="stem"><path d="M5738 1052 L5738 378" stroke-width="18"/></g></g><g data-id="c185uapu" data-class="note" class="note"><g data-class="notehead" class="notehead"><use href="#E0A4-q18lkqqd" transform="translate(5881, 900) scale(0.72, 0.72)"/></g><g data-id="qds5a1g" data-class="stem" class="stem"><path d="M6098 872 L6098 333" stroke-width="18"/></g></g></g></g><g data-id="u25fru5" data-class="tuplet" class="tuplet"><g data-id="r1c20xdh" data-class="tupletNum" class="tupletNum"><use href="#E883-q18lkqqd" transform="translate(6565, 1782) scale(0.72, 0.72)"/></g><g data-id="ozpuqro" data-class="beam" class="beam"><polygon stroke-opacity="1" fill-opacity="1" points="6241,1485 6979,1485 6979,1395 6241,1395"/><g data-id="d1j0o3oa" data-class="note" class="note"><g data-class="notehead" class="notehead"><use href="#E0A4-q18lkqqd" transform="translate(6241, 720) scale(0.72, 0.72)"/></g><g data-id="s2dpjx0" data-class="stem" class="stem"><path d="M6250 748 L6250 1467" stroke-width="18"/></g></g><g data-id="e1dtoame" data-class="note" class="note"><g data-class="notehead" class="notehead"><use href="#E0A4-q18lkqqd" transform="translate(6601, 900) scale(0.72, 0.72)"/></g><g data-id="ttz799o" data-class="stem" class="stem"><path d="M6610 928 L6610 1467" stroke-width="18"/></g></g><g data-id="f1eciq4e" data-class="note" class="note"><g data-class="notehead" class="notehead"><use href="#E0A4-q18lkqqd" transform="translate(6961, 450) scale(0.72, 0.72)"/></g><g data-id="u4qeayn" data-class="stem" class="stem"><path d="M6970 478 L6970 1467" stroke-width="18"/></g></g></g></g></g></g><g data-id="i10ui0sf" data-class="barLine" class="barLine"><path d="M7321 540 L7321 1260" stroke-width="27"/></g></g><g data-id="jonna8x" data-class="measure" class="measure"><g data-id="s8ikzdr" data-class="staff" class="staff"><path d="M7334 540 L9674 540" stroke-width="13"/><path d="M7334 720 L9674 720" stroke-width="13"/><path d="M7334 900 L9674 900" stroke-width="13"/><path d="M7334 1080 L9674 1080" stroke-width="13"/><path d="M7334 1260 L9674 1260" stroke-width="13"/><g data-id="tnksqum" data-class="layer" class="layer"><g data-id="v31v4mv" data-class="tuplet" class="tuplet"><g data-id="w1i2i0bk" data-class="tupletNum" class="tupletNum"><use href="#E883-q18lkqqd" transform="translate(7895, 309) scale(0.72, 0.72)"/></g><g data-id="v1q21t7t" data-class="tupletBracket" class="tupletBracket"><polyline stroke="currentColor" stroke-width="18" stroke-opacity="1" stroke-linecap="butt" stroke-linejoin="miter" fill="none" points="7523,368 7523,251 7850,210 "/><polyline stroke="currentColor" stroke-width="18" stroke-opacity="1" stroke-linecap="butt" stroke-linejoin="miter" fill="none" points="8451,250 8451,133 8123,175 "/></g><g data-id="v1gqh3k4" data-class="rest" class="rest"><use href="#E4E6-q18lkqqd" transform="translate(7514, 900) scale(0.72, 0.72)"/></g><g data-id="pjzlpn" data-class="beam" class="beam"><polygon stroke-opacity="1" fill-opacity="1" points="8082,360 8460,315 8460,405 8082,450"/><g data-id="gcnd12m" data-class="note" class="note"><g data-class="notehead" class="notehead"><use href="#E0A4-q18lkqqd" transform="translate(7874, 1170) scale(0.72, 0.72)"/></g><g data-id="xo6cuaf" data-class="stem" class="stem"><path d="M8091 1142 L8091 378" stroke-width="18"/></g><g data-id="x491sbu" data-class="accid" class="accid"/></g><g data-id="h1n2860i" data-class="note" class="note"><g data-class="notehead" class="notehead"><use href="#E0A4-q18lkqqd" transform="translate(8234, 990) scale(0.72, 0.72)"/></g><g data-id="y1aa0io" data-class="stem" class="stem"><path d="M8451 962 L8451 333" stroke-width="18"/></g></g></g></g><g data-id="wui1ne7" data-class="tuplet" class="tuplet"><g data-id="zugu3uu" data-class="tupletNum" class="tupletNum"><use href="#E883-q18lkqqd" transform="translate(8918, 1827) scale(0.72, 0.72)"/></g><g data-id="qt1hkn2" data-class="beam" class="beam"><polygon stroke-opacity="1" fill-opacity="1" points="8594,1530 9332,1530 9332,1440 8594,1440"/><g data-id="i1bidvoi" data-class="note" class="note"><g data-class="notehead" class="notehead"><use href="#E0A4-q18lkqqd" transform="translate(8594, 810) scale(0.72, 0.72)"/></g><g data-id="a1kmvk4p" data-class="stem" class="stem"><path d="M8603 838 L8603 1512" stroke-width="18"/></g></g><g data-id="jra5ewa" data-class="note" class="note"><g data-class="notehead" class="notehead"><use href="#E0A4-q18lkqqd" transform="translate(8954, 990) scale(0.72, 0.72)"/></g><g data-id="b1he7xer" data-class="stem" class="stem"><path d="M8963 1018 L8963 1512" stroke-width="18"/></g></g><g data-id="knfq9pt" data-class="note" class="note"><g data-class="notehead" class="notehead"><use href="#E0A4-q18lkqqd" transform="translate(9314, 630) scale(0.72, 0.72)"/></g><g data-id="cn1iaks" data-class="stem" class="stem"><path d="M9323 658 L9323 1512" stroke-width="18"/></g></g></g></g></g></g><g data-id="rx5j2o8" data-class="barLine" class="barLine"/></g><g data-id="b4axtib" data-class="systemMilestoneEnd" class="systemMilestoneEnd chaux5n"/></g><g data-id="c1itlbi3" data-class="pageMilestoneEnd" class="pageMilestoneEnd a5rnzy2"/><g data-id="dwb1m03" data-class="pageMilestoneEnd" class="pageMilestoneEnd z3j0fug"/></g></svg></svg>