<svg viewBox="0 0 560 84" version="1.1" xmlns="http://www.w3.org/2000/svg" xmlns:xlink="http://www.w3.org/1999/xlink" overflow="visible" id="a1oosk2c"><desc>Engraved by Verovio 5.6.0-85e7620</desc><defs><g id="E050-a1oosk2c"><path transform="scale(1,-1)" d="M441 -245c-23 -4 -48 -6 -76 -6c-59 0 -102 7 -130 20c-88 42 -150 93 -187 154c-26 44 -43 103 -48 176c0 6 -1 13 -1 19c0 54 15 111 45 170c29 57 65 106 110 148s96 85 153 127c-3 16 -8 46 -13 92c-4 43 -5 73 -5 89c0 117 16 172 69 257c34 54 64 82 89 82 c21 0 43 -30 69 -92s39 -115 41 -159v-15c0 -109 -21 -162 -67 -241c-13 -20 -63 -90 -98 -118c-13 -9 -25 -19 -37 -29l31 -181c8 1 18 2 28 2c58 0 102 -12 133 -35c59 -43 92 -104 98 -184c1 -7 1 -15 1 -22c0 -123 -87 -209 -181 -248c8 -57 17 -110 25 -162 c5 -31 6 -58 6 -80c0 -30 -5 -53 -14 -70c-35 -64 -88 -99 -158 -103c-5 0 -11 -1 -16 -1c-37 0 -72 10 -108 27c-50 24 -77 59 -80 105v11c0 29 7 55 20 76c18 28 45 42 79 44h6c49 0 93 -42 97 -87v-9c0 -51 -34 -86 -105 -106c17 -24 51 -36 102 -36c62 0 116 43 140 85 c9 16 13 41 13 74c0 20 -1 42 -5 67c-8 53 -18 106 -26 159zM461 939c-95 0 -135 -175 -135 -286c0 -24 2 -48 5 -71c50 39 92 82 127 128c40 53 60 100 60 140v8c-4 53 -22 81 -55 81h-2zM406 119l54 -326c73 25 110 78 110 161c0 7 0 15 -1 23c-7 95 -57 142 -151 142h-12 zM382 117c-72 -2 -128 -47 -128 -120v-7c2 -46 43 -99 75 -115c-3 -2 -7 -5 -10 -10c-70 33 -116 88 -123 172v11c0 68 44 126 88 159c23 17 49 29 78 36l-29 170c-21 -13 -52 -37 -92 -73c-50 -44 -86 -84 -109 -119c-45 -69 -67 -130 -67 -182v-13c5 -68 35 -127 93 -176 s125 -73 203 -73c25 0 50 3 75 9c-19 111 -36 221 -54 331z"/></g><g id="E260-a1oosk2c"><path transform="scale(1,-1)" d="M20 110c32 16 54 27 93 27c26 0 35 -3 54 -13c13 -7 24 -20 27 -38l4 -25c0 -28 -16 -57 -45 -89c-23 -25 -39 -44 -65 -68l-88 -79v644h20v-359zM90 106c-32 0 -48 -10 -70 -29v-194c31 31 54 59 71 84c21 32 32 59 32 84c0 9 1 16 1 20c0 14 -3 21 -11 30l-8 3z"/></g><g id="E08B-a1oosk2c"><path transform="scale(1,-1)" d="M188 200c-42 -22 -63 -69 -63 -141v-119c0 -39 7 -70 19 -94s26 -40 44 -48v402zM0 -0c0 127 80 220 186 246v72h32l-6 -72c33 0 71 0 101 -11c54 -20 102 -65 102 -135c0 -16 -4 -30 -13 -43s-20 -24 -32 -29l-20 -8l-23 -3c-22 2 -41 8 -55 21s-21 31 -26 51 c0 38 45 80 79 80c12 0 19 3 19 10c0 6 -6 12 -15 18c-19 13 -47 24 -79 24c-10 0 -20 -1 -32 -5v-431c15 -3 12 -4 30 -4c57 0 100 51 121 93l17 39c3 13 5 25 5 35h26c-6 -70 -28 -121 -66 -152s-82 -47 -133 -47v-68h-30v72c-57 10 -122 54 -153 109c-7 12 -13 26 -19 42 c-11 29 -16 61 -16 96z"/></g><g id="E081-a1oosk2c"><path transform="scale(1,-1)" d="M68 -250v36c23 0 40 6 49 18c8 14 12 33 12 57v250l-82 -129l-27 13l107 255h128v-394c0 -24 5 -42 14 -53s25 -17 47 -17v-36h-248z"/></g><g id="E085-a1oosk2c"><path transform="scale(1,-1)" d="M161 38c-14 0 -56 -5 -92 -51h-32l5 263c55 -11 108 -18 158 -18c40 0 85 6 134 17c-8 -52 -39 -114 -159 -114l-50 2c-19 2 -31 4 -49 10l-5 -111c38 26 81 39 129 39c94 0 177 -64 177 -159c0 -100 -98 -166 -211 -166c-88 0 -146 53 -146 115c0 53 39 83 75 83 c37 0 69 -32 69 -72c0 -4 -1 -10 -4 -18l-27 -37c-2 -3 -3 -8 -3 -14c0 -15 12 -23 36 -23c74 0 92 77 92 132s-35 122 -97 122z"/></g><g id="E4E4-a1oosk2c"><path transform="scale(1,-1)" d="M0 10v105c0 9 1 10 10 10h280c9 0 10 -1 10 -10v-105c0 -9 -1 -10 -10 -10h-280c-9 0 -10 1 -10 10z"/></g><g id="E0A3-a1oosk2c"><path transform="scale(1,-1)" d="M278 64c0 22 -17 39 -43 39c-12 0 -26 -3 -41 -10c-85 -43 -165 -94 -165 -156c5 -25 15 -32 49 -32c67 11 200 95 200 159zM0 -36c0 68 73 174 200 174c66 0 114 -39 114 -97c0 -84 -106 -173 -218 -173c-64 0 -96 32 -96 96z"/></g><g id="E0A4-a1oosk2c"><path transform="scale(1,-1)" d="M0 -39c0 68 73 172 200 172c66 0 114 -37 114 -95c0 -84 -106 -171 -218 -171c-64 0 -96 30 -96 94z"/></g><g id="E241-a1oosk2c"><path transform="scale(1,-1)" d="M179 646c-4 8 -17 30 -18 33l-4 10c0 3 2 5 5 5s7 -2 13 -7c23 -33 46 -81 66 -132c22 -57 35 -125 35 -163c0 -104 -60 -183 -122 -241c-63 -59 -57 -53 -61 -56c-38 -34 -63 -95 -71 -95h-22v190c40 7 69 11 87 16c88 27 168 95 168 200c0 30 -12 89 -30 138 c-17 47 -31 73 -46 102z"/></g></defs><style type="text/css">#a1oosk2c g.page-margin {font-family:Times,serif;}#a1oosk2c g.ending, #a1oosk2c g.fing, #a1oosk2c g.reh, #a1oosk2c g.tempo {font-weight:bold;}#a1oosk2c g.dir, #a1oosk2c g.dynam, #a1oosk2c g.mNum {font-style:italic;}#a1oosk2c g.label {font-weight:normal;}#a1oosk2c path {stroke:currentColor}</style><svg class="definition-scale" color="black" viewBox="0 0 14000 2100"><g class="page-margin" transform="translate(0, 150)"><g data-id="b17dblv4" data-class="mdiv" class="mdiv pageMilestone"/><g data-id="cjvidsd" data-class="score" class="score pageMilestone"/><g data-id="f8juxrl" data-class="system" class="system"><g data-id="e1jk3iy9" data-class="section" class="section systemMilestone"/><g data-id="bfit9hk" data-class="measure" class="measure"><g data-id="q1ob8953" data-class="staff" class="staff"><path d="M0 540 L4061 540" stroke-width="13"/><path d="M0 720 L4061 720" stroke-width="13"/><path d="M0 900 L4061 900" stroke-width="13"/><path d="M0 1080 L4061 1080" stroke-width="13"/><path d="M0 1260 L4061 1260" stroke-width="13"/><g data-id="jlvp0wv" data-class="clef" class="clef"><use href="#E050-a1oosk2c" transform="translate(90, 1080) scale(0.72, 0.72)"/></g><g data-id="k1d7ma6i" data-class="keySig" class="keySig"><g data-id="l1pnjync" data-class="keyAccid" class="keyAccid"><use href="#E260-a1oosk2c" transform="translate(735, 900) scale(0.72, 0.72)"/></g><g data-id="m1wpo2ni" data-class="keyAccid" class="keyAccid"><use href="#E260-a1oosk2c" transform="translate(915, 630) scale(0.72, 0.72)"/></g><g data-id="nhtq8s5" data-class="keyAccid" class="keyAccid"><use href="#E260-a1oosk2c" transform="translate(1095, 990) scale(0.72, 0.72)"/></g></g><g data-id="omewfeb" data-class="meterSig" class="meterSig"><use href="#E08B-a1oosk2c" transform="translate(1417, 900) scale(0.72, 0.72)"/></g><g data-id="rdedifq" data-class="layer" class="layer"><g data-id="d2j8rv5" data-class="multiRest" class="multiRest"><rect stroke-opacity="1" fill-opacity="1" x="1987" y="810" height="180" width="1866"/><rect stroke-opacity="1" fill-opacity="1" x="1987" y="720" height="360" width="36"/><rect stroke-opacity="1" fill-opacity="1" x="3817" y="720" height="360" width="36"/><use href="#E081-a1oosk2c" transform="translate(2656, 270) scale(0.72, 0.72)"/><use href="#E085-a1oosk2c" transform="translate(2897, 270) scale(0.72, 0.72)"/></g></g></g><g data-id="j4or82v" data-class="barLine" class="barLine"><path d="M4048 540 L4048 1260" stroke-width="27"/></g></g><g data-id="ksbzuc9" data-class="measure" class="measure"><g data-id="s1jyc0nj" data-class="staff" class="staff"><path d="M4061 540 L7101 540" stroke-width="13"/><path d="M4061 720 L7101 720" stroke-width="13"/><path d="M4061 900 L7101 900" stroke-width="13"/><path d="M4061 1080 L7101 1080" stroke-width="13"/><path d="M4061 1260 L7101 1260" stroke-width="13"/><g data-id="t1hdxcjg" data-class="layer" class="layer"><g data-id="eb4vj2d" data-class="rest" class="rest"><use href="#E4E4-a1oosk2c" transform="translate(4258, 900) scale(0.72, 0.72)"/><g data-class="ledgerLines" class="ledgerLines"/></g><g data-id="g1fi8hlq" data-class="note" class="note"><g data-class="notehead" class="notehead"><use href="#E0A3-a1oosk2c" transform="translate(5673, 630) scale(0.72, 0.72)"/></g><g data-id="p18ivvzs" data-class="stem" class="stem"><path d="M5682 655 L5682 1260" stroke-width="18"/></g><g data-id="t1pc7khn" data-class="accid" class="accid"/></g></g></g><g data-id="soxwbu3" data-class="barLine" class="barLine"><path d="M7088 540 L7088 1260" stroke-width="27"/></g></g><g data-id="t1w3jlws" data-class="measure" class="measure"><g data-id="uzdtb6s" data-class="staff" class="staff"><path d="M7101 540 L10518 540" stroke-width="13"/><path d="M7101 720 L10518 720" stroke-width="13"/><path d="M7101 900 L10518 900" stroke-width="13"/><path d="M7101 1080 L10518 1080" stroke-width="13"/><path d="M7101 1260 L10518 1260" stroke-width="13"/><g data-id="vxx5gyj" data-class="layer" class="layer"><g data-id="h1t2pdte" data-class="note" class="note"><g data-class="notehead" class="notehead"><use href="#E0A3-a1oosk2c" transform="translate(7298, 900) scale(0.72, 0.72)"/></g><g data-id="q1eaqmfs" data-class="stem" class="stem"><path d="M7307 925 L7307 1500" stroke-width="18"/></g><g data-id="u4mrjyb" data-class="accid" class="accid"/></g><g data-id="ii9gdzw" data-class="note" class="note"><g data-class="notehead" class="notehead"><use href="#E0A4-a1oosk2c" transform="translate(8713, 810) scale(0.72, 0.72)"/></g><g data-id="swyeh61" data-class="dots" class="dots"><ellipse cx="9029" cy="810" rx="36" ry="36" fill-opacity="1" stroke-opacity="1"/></g><g data-id="r1psta9c" data-class="stem" class="stem"><path d="M8722 838 L8722 1440" stroke-width="18"/></g></g><g data-id="j18sv6be" data-class="note" class="note"><g data-class="notehead" class="notehead"><use href="#E0A4-a1oosk2c" transform="translate(9899, 900) scale(0.72, 0.72)"/></g><g data-id="t1hvf2aj" data-class="stem" class="stem"><path d="M9908 928 L9908 1500" stroke-width="18"/><g data-id="u10u8hao" data-class="flag" class="flag"><use href="#E241-a1oosk2c" transform="translate(9899, 1500) scale(0.72, 0.72)"/></g></g><g data-id="v1y622ch" data-class="accid" class="accid"/></g></g></g><g data-id="bgvb1lz" data-class="barLine" class="barLine"><path d="M10505 540 L10505 1260" stroke-width="27"/></g></g><g data-id="c5gd06s" data-class="measure" class="measure"><g data-id="wjewxxw" data-class="staff" class="staff"><path d="M10518 540 L14002 540" stroke-width="13"/><path d="M10518 720 L14002 720" stroke-width="13"/><path d="M10518 900 L14002 900" stroke-width="13"/><path d="M10518 1080 L14002 1080" stroke-width="13"/><path d="M10518 1260 L14002 1260" stroke-width="13"/><g data-id="xe09jh" data-class="layer" class="layer"><g data-id="krqvf7p" data-class="note" class="note"><g data-class="notehead" class="notehead"><use href="#E0A3-a1oosk2c" transform="translate(10715, 900) scale(0.72, 0.72)"/></g><g data-id="vcxn0sn" data-class="stem" class="stem"><path d="M10724 925 L10724 1500" stroke-width="18"/></g><g data-id="w1r3b0xd" data-class="accid" class="accid"/></g><g data-id="l193djat" data-class="note" class="note"><g data-class="notehead" class="notehead"><use href="#E0A4-a1oosk2c" transform="translate(12130, 1080) scale(0.72, 0.72)"/></g><g data-id="wa85zyu" data-class="stem" class="stem"><path d="M12347 1052 L12347 450" stroke-width="18"/></g></g><g data-id="mh5ieyw" data-class="note" class="note"><g data-class="notehead" class="notehead"><use href="#E0A4-a1oosk2c" transform="translate(13059, 1170) scale(0.72, 0.72)"/></g><g data-id="x1pwafss" data-class="stem" class="stem"><path d="M13276 1142 L13276 540" stroke-width="18"/></g></g></g></g><g data-id="kvfbd12" data-class="barLine" class="barLine"><path d="M13989 540 L13989 1260" stroke-width="27"/></g></g></g></g></svg></svg>