<svg viewBox="0 0 560 84" version="1.1" xmlns="http://www.w3.org/2000/svg" xmlns:xlink="http://www.w3.org/1999/xlink" overflow="visible" id="q1rfrq2l"><desc>Engraved by Verovio 5.6.0-85e7620</desc><defs><g id="E050-q1rfrq2l"><path transform="scale(1,-1)" d="M441 -245c-23 -4 -48 -6 -76 -6c-59 0 -102 7 -130 20c-88 42 -150 93 -187 154c-26 44 -43 103 -48 176c0 6 -1 13 -1 19c0 54 15 111 45 170c29 57 65 106 110 148s96 85 153 127c-3 16 -8 46 -13 92c-4 43 -5 73 -5 89c0 117 16 172 69 257c34 54 64 82 89 82 c21 0 43 -30 69 -92s39 -115 41 -159v-15c0 -109 -21 -162 -67 -241c-13 -20 -63 -90 -98 -118c-13 -9 -25 -19 -37 -29l31 -181c8 1 18 2 28 2c58 0 102 -12 133 -35c59 -43 92 -104 98 -184c1 -7 1 -15 1 -22c0 -123 -87 -209 -181 -248c8 -57 17 -110 25 -162 c5 -31 6 -58 6 -80c0 -30 -5 -53 -14 -70c-35 -64 -88 -99 -158 -103c-5 0 -11 -1 -16 -1c-37 0 -72 10 -108 27c-50 24 -77 59 -80 105v11c0 29 7 55 20 76c18 28 45 42 79 44h6c49 0 93 -42 97 -87v-9c0 -51 -34 -86 -105 -106c17 -24 51 -36 102 -36c62 0 116 43 140 85 c9 16 13 41 13 74c0 20 -1 42 -5 67c-8 53 -18 106 -26 159zM461 939c-95 0 -135 -175 -135 -286c0 -24 2 -48 5 -71c50 39 92 82 127 128c40 53 60 100 60 140v8c-4 53 -22 81 -55 81h-2zM406 119l54 -326c73 25 110 78 110 161c0 7 0 15 -1 23c-7 95 -57 142 -151 142h-12 zM382 117c-72 -2 -128 -47 -128 -120v-7c2 -46 43 -99 75 -115c-3 -2 -7 -5 -10 -10c-70 33 -116 88 -123 172v11c0 68 44 126 88 159c23 17 49 29 78 36l-29 170c-21 -13 -52 -37 -92 -73c-50 -44 -86 -84 -109 -119c-45 -69 -67 -130 -67 -182v-13c5 -68 35 -127 93 -176 s125 -73 203 -73c25 0 50 3 75 9c-19 111 -36 221 -54 331z"/></g><g id="E262-q1rfrq2l"><path transform="scale(1,-1)" d="M136 186v169h17v-164l44 14v-91l-44 -14v-165l44 12v-91l-44 -13v-155h-17v150l-76 -22v-155h-17v149l-43 -13v90l43 14v167l-43 -14v92l43 13v169h17v-163zM60 73v-167l76 22v168z"/></g><g id="E083-q1rfrq2l"><path transform="scale(1,-1)" d="M208 250c97 0 177 -52 177 -116c0 -69 -40 -111 -118 -125c56 -5 125 -44 125 -116c0 -31 -10 -57 -31 -78c-19 -21 -45 -38 -78 -49l-50 -11c-15 -3 -36 -7 -55 -7c-50 0 -86 16 -113 38c-16 10 -23 18 -34 34c-7 13 -11 25 -11 38c0 43 27 83 68 83l3 -2 c61 0 75 -42 75 -70c0 -19 -24 -42 -26 -57c7 -17 20 -25 37 -25c44 0 94 29 94 78c0 75 -34 125 -138 125v36c84 0 131 22 131 98c0 54 -37 88 -87 88c-26 0 -43 -7 -51 -22c15 -22 44 -16 44 -70c0 -37 -37 -62 -71 -62c-22 0 -69 15 -69 76c0 79 101 116 178 116z"/></g><g id="E084-q1rfrq2l"><path transform="scale(1,-1)" d="M20 -78c84 97 114 180 134 329h170c-13 -32 -82 -132 -99 -151l-84 -97c-33 -36 -59 -63 -80 -81h162v102l127 123v-225h57v-39h-57v-34c0 -43 19 -65 57 -65v-34h-244v36c48 0 60 26 60 70v27h-203v39z"/></g><g id="E0A3-q1rfrq2l"><path transform="scale(1,-1)" d="M278 64c0 22 -17 39 -43 39c-12 0 -26 -3 -41 -10c-85 -43 -165 -94 -165 -156c5 -25 15 -32 49 -32c67 11 200 95 200 159zM0 -36c0 68 73 174 200 174c66 0 114 -39 114 -97c0 -84 -106 -173 -218 -173c-64 0 -96 32 -96 96z"/></g><g id="E0A4-q1rfrq2l"><path transform="scale(1,-1)" d="M0 -39c0 68 73 172 200 172c66 0 114 -37 114 -95c0 -84 -106 -171 -218 -171c-64 0 -96 30 -96 94z"/></g></defs><style type="text/css">#q1rfrq2l g.page-margin {font-family:Times,serif;}#q1rfrq2l g.ending, #q1rfrq2l g.fing, #q1rfrq2l g.reh, #q1rfrq2l g.tempo {font-weight:bold;}#q1rfrq2l g.dir, #q1rfrq2l g.dynam, #q1rfrq2l g.mNum {font-style:italic;}#q1rfrq2l g.label {font-weight:normal;}#q1rfrq2l path {stroke:currentColor}</style><svg class="definition-scale" color="black" viewBox="0 0 14000 2100"><g class="page-margin" transform="translate(0, 150)"><g data-id="x1kfufjt" data-class="mdiv" class="mdiv pageMilestone"/><g data-id="y10ifv3x" data-class="score" class="score pageMilestone"/><g data-id="ln701ve" data-class="system" class="system"><g data-id="a1nhiefl" data-class="section" class="section systemMilestone"/><g data-id="rk2tlq8" data-class="measure" class="measure"><g data-id="mf946v5" data-class="staff" class="staff"><path d="M0 540 L4171 540" stroke-width="13"/><path d="M0 720 L4171 720" stroke-width="13"/><path d="M0 900 L4171 900" stroke-width="13"/><path d="M0 1080 L4171 1080" stroke-width="13"/><path d="M0 1260 L4171 1260" stroke-width="13"/><g data-id="p13d5swv" data-class="clef" class="clef"><use href="#E050-q1rfrq2l" transform="translate(90, 1080) scale(0.72, 0.72)"/></g><g data-id="qv2vny8" data-class="keySig" class="keySig"><g data-id="r10utz5" data-class="keyAccid" class="keyAccid"><use href="#E262-q1rfrq2l" transform="translate(735, 540) scale(0.72, 0.72)"/></g><g data-id="s6u6703" data-class="keyAccid" class="keyAccid"><use href="#E262-q1rfrq2l" transform="translate(913, 810) scale(0.72, 0.72)"/></g><g data-id="tz86i7s" data-class="keyAccid" class="keyAccid"><use href="#E262-q1rfrq2l" transform="translate(1091, 450) scale(0.72, 0.72)"/></g></g><g data-id="u1mxtzul" data-class="meterSig" class="meterSig"><use href="#E083-q1rfrq2l" transform="translate(1404, 720) scale(0.72, 0.72)"/><use href="#E084-q1rfrq2l" transform="translate(1398, 1080) scale(0.72, 0.72)"/></g><g data-id="nuzazbi" data-class="layer" class="layer"><g data-id="l46nccm" data-class="note" class="note"><g data-class="notehead" class="notehead"><use href="#E0A3-q1rfrq2l" transform="translate(1971, 630) scale(0.72, 0.72)"/></g><g data-id="p10o3bvu" data-class="stem" class="stem"><path d="M1980 655 L1980 1260" stroke-width="18"/></g></g><g data-id="i1gvvytz" data-class="beam" class="beam"><polygon stroke-opacity="1" fill-opacity="1" points="3149,1485 3671,1440 3671,1350 3149,1395"/><g data-id="mokfeji" data-class="note" class="note"><g data-class="notehead" class="notehead"><use href="#E0A4-q1rfrq2l" transform="translate(3149, 810) scale(0.72, 0.72)"/></g><g data-id="qm4vgs2" data-class="stem" class="stem"><path d="M3158 838 L3158 1467" stroke-width="18"/></g><g data-id="l10y28sx" data-class="accid" class="accid"/></g><g data-id="n1wcgna6" data-class="note" class="note"><g data-class="notehead" class="notehead"><use href="#E0A4-q1rfrq2l" transform="translate(3653, 720) scale(0.72, 0.72)"/></g><g data-id="r1osm22o" data-class="stem" class="stem"><path d="M3662 748 L3662 1422" stroke-width="18"/></g></g></g></g></g><g data-id="z1lcx4dl" data-class="barLine" class="barLine"><path d="M4158 540 L4158 1260" stroke-width="27"/></g></g><g data-id="a1agmjh1" data-class="measure" class="measure"><g data-id="o1e6pk55" data-class="staff" class="staff"><path d="M4171 540 L6931 540" stroke-width="13"/><path d="M4171 720 L6931 720" stroke-width="13"/><path d="M4171 900 L6931 900" stroke-width="13"/><path d="M4171 1080 L6931 1080" stroke-width="13"/><path d="M4171 1260 L6931 1260" stroke-width="13"/><g data-class="ledgerLines" class="ledgerLines above"><g data-class="lineDash" class="lineDash" data-related="#ql61wfw"><path d="M5323 360 L5645 360" stroke-width="22"/></g><g data-class="lineDash" class="lineDash" data-related="#r6mi3ro"><path d="M6097 360 L6419 360" stroke-width="22"/></g></g><g data-id="p1vwrmk7" data-class="layer" class="layer"><g data-id="ja67nf6" data-class="beam" class="beam"><polygon stroke-opacity="1" fill-opacity="1" points="4362,1440 4885,1485 4885,1395 4362,1350"/><g data-id="o1622eww" data-class="note" class="note"><g data-class="notehead" class="notehead"><use href="#E0A4-q1rfrq2l" transform="translate(4362, 630) scale(0.72, 0.72)"/></g><g data-id="sqgsb7a" data-class="stem" class="stem"><path d="M4371 658 L4371 1422" stroke-width="18"/></g></g><g data-id="p1gpjf8m" data-class="note" class="note"><g data-class="notehead" class="notehead"><use href="#E0A4-q1rfrq2l" transform="translate(4867, 810) scale(0.72, 0.72)"/></g><g data-id="tsubi28" data-class="stem" class="stem"><path d="M4876 838 L4876 1467" stroke-width="18"/></g><g data-id="mda7k8m" data-class="accid" class="accid"/></g></g><g data-id="ql61wfw" data-class="note" class="note"><g data-class="notehead" class="notehead"><use href="#E0A4-q1rfrq2l" transform="translate(5371, 360) scale(0.72, 0.72)"/></g><g data-id="uhjtf79" data-class="stem" class="stem"><path d="M5380 388 L5380 990" stroke-width="18"/></g></g><g data-id="r6mi3ro" data-class="note" class="note"><g data-class="notehead" class="notehead"><use href="#E0A4-q1rfrq2l" transform="translate(6145, 360) scale(0.72, 0.72)"/></g><g data-id="vfofl4y" data-class="stem" class="stem"><path d="M6154 388 L6154 990" stroke-width="18"/></g></g></g></g><g data-id="iw4dztj" data-class="barLine" class="barLine"><path d="M6918 540 L6918 1260" stroke-width="27"/></g></g><g data-id="jla0cwf" data-class="measure" class="measure"><g data-id="q1jf11ld" data-class="staff" class="staff"><path d="M6931 540 L9322 540" stroke-width="13"/><path d="M6931 720 L9322 720" stroke-width="13"/><path d="M6931 900 L9322 900" stroke-width="13"/><path d="M6931 1080 L9322 1080" stroke-width="13"/><path d="M6931 1260 L9322 1260" stroke-width="13"/><g data-class="ledgerLines" class="ledgerLines above"><g data-class="lineDash" class="lineDash" data-related="#s160gbe"><path d="M7074 360 L7396 360" stroke-width="22"/></g></g><g data-id="r1lzz4hc" data-class="layer" class="layer"><g data-id="s160gbe" data-class="note" class="note"><g data-class="notehead" class="notehead"><use href="#E0A3-q1rfrq2l" transform="translate(7122, 360) scale(0.72, 0.72)"/></g><g data-id="wusvlak" data-class="stem" class="stem"><path d="M7131 385 L7131 990" stroke-width="18"/></g></g><g data-id="ktpzzrt" data-class="beam" class="beam"><polygon stroke-opacity="1" fill-opacity="1" points="8300,1125 8822,1170 8822,1080 8300,1035"/><g data-id="ty4rjle" data-class="note" class="note"><g data-class="notehead" class="notehead"><use href="#E0A4-q1rfrq2l" transform="translate(8300, 450) scale(0.72, 0.72)"/></g><g data-id="xfo6vk7" data-class="stem" class="stem"><path d="M8309 478 L8309 1107" stroke-width="18"/></g><g data-id="n8e43hs" data-class="accid" class="accid"/></g><g data-id="u1rgs67h" data-class="note" class="note"><g data-class="notehead" class="notehead"><use href="#E0A4-q1rfrq2l" transform="translate(8804, 540) scale(0.72, 0.72)"/></g><g data-id="yaknrv9" data-class="stem" class="stem"><path d="M8813 568 L8813 1152" stroke-width="18"/></g><g data-id="o1hve7ap" data-class="accid" class="accid"/></g></g></g></g><g data-id="r1u6zvt2" data-class="barLine" class="barLine"><path d="M9309 540 L9309 1260" stroke-width="27"/></g></g><g data-id="sve1kg2" data-class="measure" class="measure"><g data-id="swr9wh1" data-class="staff" class="staff"><path d="M9322 540 L11477 540" stroke-width="13"/><path d="M9322 720 L11477 720" stroke-width="13"/><path d="M9322 900 L11477 900" stroke-width="13"/><path d="M9322 1080 L11477 1080" stroke-width="13"/><path d="M9322 1260 L11477 1260" stroke-width="13"/><g data-id="t15gmlv0" data-class="layer" class="layer"><g data-id="v158zfgp" data-class="note" class="note"><g data-class="notehead" class="notehead"><use href="#E0A3-q1rfrq2l" transform="translate(9513, 630) scale(0.72, 0.72)"/></g><g data-id="z2fuedp" data-class="stem" class="stem"><path d="M9522 655 L9522 1260" stroke-width="18"/></g></g><g data-id="wgvtpq5" data-class="note" class="note"><g data-class="notehead" class="notehead"><use href="#E0A4-q1rfrq2l" transform="translate(10691, 720) scale(0.72, 0.72)"/></g><g data-id="a18cqhh7" data-class="stem" class="stem"><path d="M10700 748 L10700 1350" stroke-width="18"/></g></g></g></g><g data-id="a596thq" data-class="barLine" class="barLine"><path d="M11464 540 L11464 1260" stroke-width="27"/></g></g><g data-id="b1ml6dyp" data-class="measure" class="measure"><g data-id="u8b5g5j" data-class="staff" class="staff"><path d="M11477 540 L14001 540" stroke-width="13"/><path d="M11477 720 L14001 720" stroke-width="13"/><path d="M11477 900 L14001 900" stroke-width="13"/><path d="M11477 1080 L14001 1080" stroke-width="13"/><path d="M11477 1260 L14001 1260" stroke-width="13"/><g data-id="vd3awq" data-class="layer" class="layer"><g data-id="x9rupol" data-class="note" class="note"><g data-class="notehead" class="notehead"><use href="#E0A4-q1rfrq2l" transform="translate(11668, 810) scale(0.72, 0.72)"/></g><g data-id="b15qxafr" data-class="stem" class="stem"><path d="M11677 838 L11677 1440" stroke-width="18"/></g><g data-id="p112nvyc" data-class="accid" class="accid"/></g><g data-id="yiklaw" data-class="note" class="note"><g data-class="notehead" class="notehead"><use href="#E0A4-q1rfrq2l" transform="translate(12441, 810) scale(0.72, 0.72)"/></g><g data-id="c155ytir" data-class="stem" class="stem"><path d="M12450 838 L12450 1440" stroke-width="18"/></g><g data-id="q1gt89uo" data-class="accid" class="accid"/></g><g data-id="z1eoa1cx" data-class="note" class="note"><g data-class="notehead" class="notehead"><use href="#E0A4-q1rfrq2l" transform="translate(13215, 810) scale(0.72, 0.72)"/></g><g data-id="d1lrfd57" data-class="stem" class="stem"><path d="M13224 838 L13224 1440" stroke-width="18"/></g><g data-id="rdehlsz" data-class="accid" class="accid"/></g></g></g><g data-id="j2gd0yd" data-class="barLine" class="barLine"><path d="M13988 540 L13988 1260" stroke-width="27"/></g></g></g></g></svg></svg>