<svg viewBox="0 0 560 84" version="1.1" xmlns="http://www.w3.org/2000/svg" xmlns:xlink="http://www.w3.org/1999/xlink" overflow="visible" id="h9sgfz9"><desc>Engraved by Verovio 5.6.0-85e7620</desc><defs><g id="E050-h9sgfz9"><path transform="scale(1,-1)" d="M441 -245c-23 -4 -48 -6 -76 -6c-59 0 -102 7 -130 20c-88 42 -150 93 -187 154c-26 44 -43 103 -48 176c0 6 -1 13 -1 19c0 54 15 111 45 170c29 57 65 106 110 148s96 85 153 127c-3 16 -8 46 -13 92c-4 43 -5 73 -5 89c0 117 16 172 69 257c34 54 64 82 89 82 c21 0 43 -30 69 -92s39 -115 41 -159v-15c0 -109 -21 -162 -67 -241c-13 -20 -63 -90 -98 -118c-13 -9 -25 -19 -37 -29l31 -181c8 1 18 2 28 2c58 0 102 -12 133 -35c59 -43 92 -104 98 -184c1 -7 1 -15 1 -22c0 -123 -87 -209 -181 -248c8 -57 17 -110 25 -162 c5 -31 6 -58 6 -80c0 -30 -5 -53 -14 -70c-35 -64 -88 -99 -158 -103c-5 0 -11 -1 -16 -1c-37 0 -72 10 -108 27c-50 24 -77 59 -80 105v11c0 29 7 55 20 76c18 28 45 42 79 44h6c49 0 93 -42 97 -87v-9c0 -51 -34 -86 -105 -106c17 -24 51 -36 102 -36c62 0 116 43 140 85 c9 16 13 41 13 74c0 20 -1 42 -5 67c-8 53 -18 106 -26 159zM461 939c-95 0 -135 -175 -135 -286c0 -24 2 -48 5 -71c50 39 92 82 127 128c40 53 60 100 60 140v8c-4 53 -22 81 -55 81h-2zM406 119l54 -326c73 25 110 78 110 161c0 7 0 15 -1 23c-7 95 -57 142 -151 142h-12 zM382 117c-72 -2 -128 -47 -128 -120v-7c2 -46 43 -99 75 -115c-3 -2 -7 -5 -10 -10c-70 33 -116 88 -123 172v11c0 68 44 126 88 159c23 17 49 29 78 36l-29 170c-21 -13 -52 -37 -92 -73c-50 -44 -86 -84 -109 -119c-45 -69 -67 -130 -67 -182v-13c5 -68 35 -127 93 -176 s125 -73 203 -73c25 0 50 3 75 9c-19 111 -36 221 -54 331z"/></g><g id="E260-h9sgfz9"><path transform="scale(1,-1)" d="M20 110c32 16 54 27 93 27c26 0 35 -3 54 -13c13 -7 24 -20 27 -38l4 -25c0 -28 -16 -57 -45 -89c-23 -25 -39 -44 -65 -68l-88 -79v644h20v-359zM90 106c-32 0 -48 -10 -70 -29v-194c31 31 54 59 71 84c21 32 32 59 32 84c0 9 1 16 1 20c0 14 -3 21 -11 30l-8 3z"/></g><g id="E086-h9sgfz9"><path transform="scale(1,-1)" d="M284 -91c0 37 -28 92 -67 92c-35 0 -65 -54 -65 -111c0 -52 22 -104 68 -104c47 0 64 68 64 123zM230 214c-36 0 -90 -33 -90 -184l2 -36c40 24 81 36 120 36c80 0 140 -48 140 -121c0 -99 -99 -159 -182 -159c-160 0 -200 173 -200 244c0 21 2 43 7 71l10 35 c26 85 73 115 98 126c41 19 74 24 103 24c93 0 142 -63 142 -105c0 -58 -52 -72 -73 -72c-33 0 -59 24 -65 35c-3 5 -6 14 -7 25l11 30c6 15 9 27 9 35c0 11 -9 16 -25 16z"/></g><g id="E088-h9sgfz9"><path transform="scale(1,-1)" d="M195 -214c76 0 88 58 90 68c0 34 -35 60 -57 73l-52 29c-21 10 -32 17 -34 20c-39 -33 -58 -54 -62 -92c5 -23 23 -98 115 -98zM301 135c0 61 -72 76 -113 76c-40 0 -77 -17 -77 -51c3 -21 15 -38 26 -50c17 -15 33 -26 48 -34l65 -28c34 27 51 56 51 87zM176 -250 c-57 0 -166 26 -166 132c0 47 30 86 89 116c-33 15 -79 60 -79 119c0 79 85 132 178 132h18c5 0 21 1 28 -1c25 0 126 -30 126 -110c0 -37 -23 -76 -69 -116c43 -25 83 -71 83 -119c0 -101 -118 -153 -208 -153z"/></g><g id="E4E5-h9sgfz9"><path transform="scale(1,-1)" d="M107 292c-13 24 -30 49 -52 71c-1 1 0 2 0 3l-2 2c3 3 4 4 6 4c12 0 26 -7 40 -20s44 -40 89 -81c26 -24 28 -29 46 -47c4 -4 8 -9 10 -14c6 -8 8 -16 8 -27c0 -19 -12 -40 -36 -61c-28 -23 -49 -38 -61 -73c-4 -11 -7 -27 -10 -50c13 -43 34 -83 59 -121 c31 -47 59 -79 101 -129c-8 0 -26 7 -54 20l-62 29l-21 6l-23 1c-25 0 -45 -10 -60 -30l-4 -14l-1 -12c0 -33 20 -56 39 -78c8 -9 17 -18 26 -26c17 -15 27 -24 28 -30l-3 -3c-11 5 -19 10 -25 15c-9 3 -37 21 -45 26c-24 14 -45 32 -63 51c-19 21 -37 44 -37 71 c0 63 27 95 80 95c41 0 86 -18 136 -52c-19 26 -37 48 -55 66c-23 23 -48 44 -73 65c-28 23 -47 40 -58 53s-17 26 -18 39c75 64 113 125 113 183c0 27 -7 48 -18 68z"/></g><g id="E0A4-h9sgfz9"><path transform="scale(1,-1)" d="M0 -39c0 68 73 172 200 172c66 0 114 -37 114 -95c0 -84 -106 -171 -218 -171c-64 0 -96 30 -96 94z"/></g><g id="E240-h9sgfz9"><path transform="scale(1,-1)" d="M179 -646c15 29 29 55 46 102c18 49 30 108 30 138c0 105 -80 173 -168 200c-18 5 -47 9 -87 16v190h22c8 0 33 -61 71 -95c4 -3 -2 3 61 -56c62 -58 122 -137 122 -241c0 -38 -13 -106 -35 -163c-20 -51 -43 -99 -66 -132c-6 -5 -10 -7 -13 -7s-5 2 -5 5l4 10 c1 3 14 25 18 33z"/></g><g id="E044-h9sgfz9"><path transform="scale(1,-1)" d="M0 0c0 28 22 50 50 50s50 -22 50 -50s-22 -50 -50 -50s-50 22 -50 50z"/></g><g id="E241-h9sgfz9"><path transform="scale(1,-1)" d="M179 646c-4 8 -17 30 -18 33l-4 10c0 3 2 5 5 5s7 -2 13 -7c23 -33 46 -81 66 -132c22 -57 35 -125 35 -163c0 -104 -60 -183 -122 -241c-63 -59 -57 -53 -61 -56c-38 -34 -63 -95 -71 -95h-22v190c40 7 69 11 87 16c88 27 168 95 168 200c0 30 -12 89 -30 138 c-17 47 -31 73 -46 102z"/></g></defs><style type="text/css">#h9sgfz9 g.page-margin {font-family:Times,serif;}#h9sgfz9 g.ending, #h9sgfz9 g.fing, #h9sgfz9 g.reh, #h9sgfz9 g.tempo {font-weight:bold;}#h9sgfz9 g.dir, #h9sgfz9 g.dynam, #h9sgfz9 g.mNum {font-style:italic;}#h9sgfz9 g.label {font-weight:normal;}#h9sgfz9 path {stroke:currentColor}</style><svg class="definition-scale" color="black" viewBox="0 0 14000 2100"><g class="page-margin" transform="translate(0, 150)"><g data-id="i6adko4" data-class="mdiv" class="mdiv pageMilestone"/><g data-id="j1gcx9c1" data-class="score" class="score pageMilestone"/><g data-id="dkpuac1" data-class="system" class="system"><g data-id="lmsrx7j" data-class="section" class="section systemMilestone"/><g data-id="i1voehv5" data-class="measure" class="measure"><g data-id="xb0xe5s" data-class="staff" class="staff"><path d="M0 540 L4891 540" stroke-width="13"/><path d="M0 720 L4891 720" stroke-width="13"/><path d="M0 900 L4891 900" stroke-width="13"/><path d="M0 1080 L4891 1080" stroke-width="13"/><path d="M0 1260 L4891 1260" stroke-width="13"/><g data-id="l1ve19oy" data-class="clef" class="clef"><use href="#E050-h9sgfz9" transform="translate(90, 1080) scale(0.72, 0.72)"/></g><g data-id="m1fhgi9m" data-class="keySig" class="keySig"><g data-id="n9xk25i" data-class="keyAccid" class="keyAccid"><use href="#E260-h9sgfz9" transform="translate(735, 900) scale(0.72, 0.72)"/></g><g data-id="o149c2g2" data-class="keyAccid" class="keyAccid"><use href="#E260-h9sgfz9" transform="translate(915, 630) scale(0.72, 0.72)"/></g><g data-id="ps6yyf4" data-class="keyAccid" class="keyAccid"><use href="#E260-h9sgfz9" transform="translate(1095, 990) scale(0.72, 0.72)"/></g><g data-id="q20lwkn" data-class="keyAccid" class="keyAccid"><use href="#E260-h9sgfz9" transform="translate(1275, 720) scale(0.72, 0.72)"/></g></g><g data-id="rvklxci" data-class="meterSig" class="meterSig"><use href="#E086-h9sgfz9" transform="translate(1583, 720) scale(0.72, 0.72)"/><use href="#E088-h9sgfz9" transform="translate(1590, 1080) scale(0.72, 0.72)"/></g><g data-id="y1xbhqgf" data-class="layer" class="layer"><g data-id="t1ju6wr0" data-class="rest" class="rest"><use href="#E4E5-h9sgfz9" transform="translate(2156, 900) scale(0.72, 0.72)"/><g data-id="zl98x3" data-class="dots" class="dots"><ellipse cx="2465" cy="810" rx="36" ry="36" fill-opacity="1" stroke-opacity="1"/></g></g><g data-id="ubu48yf" data-class="rest" class="rest"><use href="#E4E5-h9sgfz9" transform="translate(3224, 900) scale(0.72, 0.72)"/></g><g data-id="w14bado" data-class="note" class="note"><g data-class="notehead" class="notehead"><use href="#E0A4-h9sgfz9" transform="translate(4061, 1260) scale(0.72, 0.72)"/></g><g data-id="at9j3j4" data-class="stem" class="stem"><path d="M4278 1232 L4278 630" stroke-width="18"/><g data-id="b4hgd00" data-class="flag" class="flag"><use href="#E240-h9sgfz9" transform="translate(4269, 630) scale(0.72, 0.72)"/></g></g><g data-id="vzcs2qu" data-class="accid" class="accid"/></g></g></g><g data-id="q1l6yh3w" data-class="barLine" class="barLine"><path d="M4643 540 L4643 1260" stroke-width="90"/><path d="M4773 540 L4773 1260" stroke-width="27"/><use href="#E044-h9sgfz9" transform="translate(4819, 810) scale(0.72, 0.72)"/><use href="#E044-h9sgfz9" transform="translate(4819, 990) scale(0.72, 0.72)"/></g></g><g data-id="rowaq5d" data-class="measure" class="measure"><g data-id="ztw8h2d" data-class="staff" class="staff"><path d="M4891 540 L8116 540" stroke-width="13"/><path d="M4891 720 L8116 720" stroke-width="13"/><path d="M4891 900 L8116 900" stroke-width="13"/><path d="M4891 1080 L8116 1080" stroke-width="13"/><path d="M4891 1260 L8116 1260" stroke-width="13"/><g data-id="ag9j9i2" data-class="layer" class="layer"><g data-id="xjmpbel" data-class="note" class="note"><g data-class="notehead" class="notehead"><use href="#E0A4-h9sgfz9" transform="translate(5085, 810) scale(0.72, 0.72)"/></g><g data-id="c1bq9gmr" data-class="stem" class="stem"><path d="M5094 838 L5094 1440" stroke-width="18"/></g></g><g data-id="y1shw6h5" data-class="note" class="note"><g data-class="notehead" class="notehead"><use href="#E0A4-h9sgfz9" transform="translate(5922, 810) scale(0.72, 0.72)"/></g><g data-id="d16bnyy1" data-class="stem" class="stem"><path d="M5931 838 L5931 1440" stroke-width="18"/><g data-id="e1w68las" data-class="flag" class="flag"><use href="#E241-h9sgfz9" transform="translate(5922, 1440) scale(0.72, 0.72)"/></g></g></g><g data-id="u18wlog7" data-class="beam" class="beam"><polygon stroke-opacity="1" fill-opacity="1" points="6467,1440 7031,1350 7031,1260 6467,1350"/><g data-id="z163j5s1" data-class="note" class="note"><g data-class="notehead" class="notehead"><use href="#E0A4-h9sgfz9" transform="translate(6467, 810) scale(0.72, 0.72)"/></g><g data-id="fvrswst" data-class="stem" class="stem"><path d="M6476 838 L6476 1422" stroke-width="18"/></g></g><g data-id="a1y8jky4" data-class="note" class="note"><g data-class="notehead" class="notehead"><use href="#E0A4-h9sgfz9" transform="translate(7013, 720) scale(0.72, 0.72)"/></g><g data-id="gwyp8d1" data-class="stem" class="stem"><path d="M7022 748 L7022 1332" stroke-width="18"/></g><g data-id="w177fznx" data-class="accid" class="accid"/></g></g><g data-id="b1904epj" data-class="note" class="note"><g data-class="notehead" class="notehead"><use href="#E0A4-h9sgfz9" transform="translate(7558, 630) scale(0.72, 0.72)"/></g><g data-id="h819vc0" data-class="stem" class="stem"><path d="M7567 658 L7567 1260" stroke-width="18"/><g data-id="i17ekrnm" data-class="flag" class="flag"><use href="#E241-h9sgfz9" transform="translate(7558, 1260) scale(0.72, 0.72)"/></g></g><g data-id="x1b71twg" data-class="accid" class="accid"/></g></g></g><g data-id="z5mun8n" data-class="barLine" class="barLine"><path d="M8103 540 L8103 1260" stroke-width="27"/></g></g><g data-id="a1jcc9ar" data-class="measure" class="measure"><g data-id="b6hg5f5" data-class="staff" class="staff"><path d="M8116 540 L10777 540" stroke-width="13"/><path d="M8116 720 L10777 720" stroke-width="13"/><path d="M8116 900 L10777 900" stroke-width="13"/><path d="M8116 1080 L10777 1080" stroke-width="13"/><path d="M8116 1260 L10777 1260" stroke-width="13"/><g data-id="c1ly9m4l" data-class="layer" class="layer"><g data-id="c16w1dlw" data-class="note" class="note"><g data-class="notehead" class="notehead"><use href="#E0A4-h9sgfz9" transform="translate(8310, 630) scale(0.72, 0.72)"/></g><g data-id="k174cjtr" data-class="dots" class="dots"><ellipse cx="8626" cy="630" rx="36" ry="36" fill-opacity="1" stroke-opacity="1"/></g><g data-id="jgj6rl2" data-class="stem" class="stem"><path d="M8319 658 L8319 1260" stroke-width="18"/></g><g data-id="y8dqsrj" data-class="accid" class="accid"/></g><g data-id="d1jizn0e" data-class="note" class="note"><g data-class="notehead" class="notehead"><use href="#E0A4-h9sgfz9" transform="translate(9378, 1080) scale(0.72, 0.72)"/></g><g data-id="l4i0nt3" data-class="stem" class="stem"><path d="M9595 1052 L9595 450" stroke-width="18"/></g></g><g data-id="e11vcyhv" data-class="note" class="note"><g data-class="notehead" class="notehead"><use href="#E0A4-h9sgfz9" transform="translate(10215, 1260) scale(0.72, 0.72)"/></g><g data-id="mnwdkd6" data-class="stem" class="stem"><path d="M10432 1232 L10432 630" stroke-width="18"/><g data-id="n1j4pvos" data-class="flag" class="flag"><use href="#E240-h9sgfz9" transform="translate(10423, 630) scale(0.72, 0.72)"/></g></g><g data-id="z1fe5pxa" data-class="accid" class="accid"/></g></g></g><g data-id="in3grcl" data-class="barLine" class="barLine"><path d="M10764 540 L10764 1260" stroke-width="27"/></g></g><g data-id="j9kkm5x" data-class="measure" class="measure"><g data-id="d1cubzb0" data-class="staff" class="staff"><path d="M10777 540 L14002 540" stroke-width="13"/><path d="M10777 720 L14002 720" stroke-width="13"/><path d="M10777 900 L14002 900" stroke-width="13"/><path d="M10777 1080 L14002 1080" stroke-width="13"/><path d="M10777 1260 L14002 1260" stroke-width="13"/><g data-id="ecp0rnq" data-class="layer" class="layer"><g data-id="fdeq4wr" data-class="note" class="note"><g data-class="notehead" class="notehead"><use href="#E0A4-h9sgfz9" transform="translate(10971, 900) scale(0.72, 0.72)"/></g><g data-id="oy7e6mu" data-class="stem" class="stem"><path d="M10980 928 L10980 1500" stroke-width="18"/></g><g data-id="alnx4wk" data-class="accid" class="accid"/></g><g data-id="g1qy6x7r" data-class="note" class="note"><g data-class="notehead" class="notehead"><use href="#E0A4-h9sgfz9" transform="translate(11808, 900) scale(0.72, 0.72)"/></g><g data-id="pf1a7zk" data-class="stem" class="stem"><path d="M11817 928 L11817 1500" stroke-width="18"/><g data-id="q1bsc99o" data-class="flag" class="flag"><use href="#E241-h9sgfz9" transform="translate(11808, 1500) scale(0.72, 0.72)"/></g></g><g data-id="bvqflvt" data-class="accid" class="accid"/></g><g data-id="hsocmsl" data-class="note" class="note"><g data-class="notehead" class="notehead"><use href="#E0A4-h9sgfz9" transform="translate(12353, 900) scale(0.72, 0.72)"/></g><g data-id="r1qoa2fa" data-class="stem" class="stem"><path d="M12362 928 L12362 1500" stroke-width="18"/><g data-id="s1pyqvaz" data-class="flag" class="flag"><use href="#E241-h9sgfz9" transform="translate(12353, 1500) scale(0.72, 0.72)"/></g></g><g data-id="chscmpu" data-class="accid" class="accid"/></g><g data-id="i1eiemp7" data-class="note" class="note"><g data-class="notehead" class="notehead"><use href="#E0A4-h9sgfz9" transform="translate(12899, 810) scale(0.72, 0.72)"/></g><g data-id="tncmk56" data-class="stem" class="stem"><path d="M12908 838 L12908 1440" stroke-width="18"/><g data-id="u23k6v9" data-class="flag" class="flag"><use href="#E241-h9sgfz9" transform="translate(12899, 1440) scale(0.72, 0.72)"/></g></g></g><g data-id="j13g54tl" data-class="note" class="note"><g data-class="notehead" class="notehead"><use href="#E0A4-h9sgfz9" transform="translate(13444, 720) scale(0.72, 0.72)"/></g><g data-id="v1ti5lx5" data-class="stem" class="stem"><path d="M13453 748 L13453 1350" stroke-width="18"/><g data-id="wssvrok" data-class="flag" class="flag"><use href="#E241-h9sgfz9" transform="translate(13444, 1350) scale(0.72, 0.72)"/></g></g><g data-id="d1bb3bt4" data-class="accid" class="accid"/></g></g></g><g data-id="r1lbkpzq" data-class="barLine" class="barLine"><path d="M13989 540 L13989 1260" stroke-width="27"/></g></g></g></g></svg></svg>