<svg viewBox="0 0 560 84" version="1.1" xmlns="http://www.w3.org/2000/svg" xmlns:xlink="http://www.w3.org/1999/xlink" overflow="visible" id="a7yeqnr"><desc>Engraved by Verovio 5.6.0-85e7620</desc><defs><g id="E062-a7yeqnr"><path transform="scale(1,-1)" d="M582 -120c0 32 26 58 58 58s58 -26 58 -58s-26 -58 -58 -58s-58 26 -58 58zM582 120c0 32 26 58 58 58s58 -26 58 -58s-26 -58 -58 -58s-58 26 -58 58zM158 96c51 0 73 -14 88 -49l16 -39c0 -17 -2 -30 -7 -40c-3 -11 -10 -21 -19 -31c-17 -18 -49 -43 -84 -43 c-55 0 -77 13 -112 44c-24 21 -35 55 -35 100c0 46 14 81 32 112c30 52 71 79 137 93l36 6l26 2c154 0 235 -68 274 -182c11 -32 18 -68 18 -107c0 -103 -26 -182 -68 -250c-89 -145 -234 -230 -412 -288l-30 -5c-9 0 -14 3 -14 8c3 10 5 11 10 16c35 15 70 30 96 44l78 43 c96 57 162 136 197 258c9 33 17 60 22 100c3 22 5 35 6 39c-7 69 -16 115 -23 140s-4 22 -16 40c-8 12 -19 23 -31 34c-24 21 -62 44 -118 44c-48 0 -84 -8 -113 -28c-28 -19 -42 -44 -42 -73v-16c2 -5 3 -9 4 -11c24 22 52 39 84 39z"/></g><g id="E262-a7yeqnr"><path transform="scale(1,-1)" d="M136 186v169h17v-164l44 14v-91l-44 -14v-165l44 12v-91l-44 -13v-155h-17v150l-76 -22v-155h-17v149l-43 -13v90l43 14v167l-43 -14v92l43 13v169h17v-163zM60 73v-167l76 22v168z"/></g><g id="E08A-a7yeqnr"><path transform="scale(1,-1)" d="M340 179c-9 24 -56 41 -89 41c-46 0 -81 -28 -100 -58c-17 -28 -25 -78 -25 -150c0 -65 2 -111 8 -135c8 -31 18 -49 40 -67c20 -17 43 -25 70 -25c54 0 92 36 115 75c14 25 23 54 28 88h27c0 -63 -24 -105 -58 -141c-35 -38 -82 -56 -140 -56c-45 0 -83 13 -115 39 c-57 45 -101 130 -101 226c0 59 33 127 68 163c36 37 97 72 160 72c36 0 93 -21 121 -40c11 -8 23 -17 33 -30c19 -23 27 -48 27 -76c0 -51 -35 -88 -86 -88c-43 0 -76 27 -76 68c0 26 7 35 21 51c15 17 32 27 58 32c7 2 14 7 14 11z"/></g><g id="E0A4-a7yeqnr"><path transform="scale(1,-1)" d="M0 -39c0 68 73 172 200 172c66 0 114 -37 114 -95c0 -84 -106 -171 -218 -171c-64 0 -96 30 -96 94z"/></g></defs><style type="text/css">#a7yeqnr g.page-margin {font-family:Times,serif;}#a7yeqnr g.ending, #a7yeqnr g.fing, #a7yeqnr g.reh, #a7yeqnr g.tempo {font-weight:bold;}#a7yeqnr g.dir, #a7yeqnr g.dynam, #a7yeqnr g.mNum {font-style:italic;}#a7yeqnr g.label {font-weight:normal;}#a7yeqnr path {stroke:currentColor}</style><svg class="definition-scale" color="black" viewBox="0 0 14000 2100"><g class="page-margin" transform="translate(0, 150)"><g data-id="l1fdieh8" data-class="mdiv" class="mdiv pageMilestone"/><g data-id="m28ll2n" data-class="score" class="score pageMilestone"/><g data-id="e1be34ic" data-class="system" class="system"><g data-id="oflz7ry" data-class="section" class="section systemMilestone"/><g data-id="b1clfh5k" data-class="measure" class="measure"><g data-id="axflvhs" data-class="staff" class="staff"><path d="M0 540 L7275 540" stroke-width="13"/><path d="M0 720 L7275 720" stroke-width="13"/><path d="M0 900 L7275 900" stroke-width="13"/><path d="M0 1080 L7275 1080" stroke-width="13"/><path d="M0 1260 L7275 1260" stroke-width="13"/><g data-id="i8xqo65" data-class="clef" class="clef"><use href="#E062-a7yeqnr" transform="translate(88, 720) scale(0.72, 0.72)"/></g><g data-id="jpol6ka" data-class="keySig" class="keySig"><g data-id="kssdkak" data-class="keyAccid" class="keyAccid"><use href="#E262-a7yeqnr" transform="translate(769, 720) scale(0.72, 0.72)"/></g><g data-id="l1gi0ut3" data-class="keyAccid" class="keyAccid"><use href="#E262-a7yeqnr" transform="translate(947, 990) scale(0.72, 0.72)"/></g><g data-id="m1xn4hq4" data-class="keyAccid" class="keyAccid"><use href="#E262-a7yeqnr" transform="translate(1125, 630) scale(0.72, 0.72)"/></g><g data-id="n18nsmt5" data-class="keyAccid" class="keyAccid"><use href="#E262-a7yeqnr" transform="translate(1303, 900) scale(0.72, 0.72)"/></g></g><g data-id="ohm2gop" data-class="meterSig" class="meterSig"><use href="#E08A-a7yeqnr" transform="translate(1624, 900) scale(0.72, 0.72)"/></g><g data-id="b1eppot1" data-class="layer" class="layer"><g data-id="v1vcctxv" data-class="beam" class="beam"><polygon stroke-opacity="1" fill-opacity="1" points="2192,1710 3158,1350 3158,1260 2192,1620"/><polygon stroke-opacity="1" fill-opacity="1" points="2192,1575 2517,1455 2517,1365 2192,1485"/><polygon stroke-opacity="1" fill-opacity="1" points="2517,1455 2833,1335 2833,1245 2517,1365"/><polygon stroke-opacity="1" fill-opacity="1" points="2833,1335 3158,1215 3158,1125 2833,1245"/><g data-id="tve1dv6" data-class="note" class="note"><g data-class="notehead" class="notehead"><use href="#E0A4-a7yeqnr" transform="translate(2192, 1080) scale(0.72, 0.72)"/></g><g data-id="s123i8vl" data-class="stem" class="stem"><path d="M2201 1108 L2201 1692" stroke-width="18"/></g></g><g data-id="u1pcr0k0" data-class="note" class="note"><g data-class="notehead" class="notehead"><use href="#E0A4-a7yeqnr" transform="translate(2508, 810) scale(0.72, 0.72)"/></g><g data-id="t17mz74h" data-class="stem" class="stem"><path d="M2517 838 L2517 1572" stroke-width="18"/></g></g><g data-id="vr4hbok" data-class="note" class="note"><g data-class="notehead" class="notehead"><use href="#E0A4-a7yeqnr" transform="translate(2824, 630) scale(0.72, 0.72)"/></g><g data-id="uq24qb" data-class="stem" class="stem"><path d="M2833 658 L2833 1452" stroke-width="18"/></g><g data-id="c152ut9l" data-class="accid" class="accid"/></g><g data-id="wockk9d" data-class="note" class="note"><g data-class="notehead" class="notehead"><use href="#E0A4-a7yeqnr" transform="translate(3140, 450) scale(0.72, 0.72)"/></g><g data-id="v1b2uno3" data-class="stem" class="stem"><path d="M3149 478 L3149 1332" stroke-width="18"/></g></g></g><g data-id="w16xwgay" data-class="beam" class="beam"><polygon stroke-opacity="1" fill-opacity="1" points="3456,1710 4422,1350 4422,1260 3456,1620"/><polygon stroke-opacity="1" fill-opacity="1" points="3456,1575 3781,1455 3781,1365 3456,1485"/><polygon stroke-opacity="1" fill-opacity="1" points="3781,1455 4097,1335 4097,1245 3781,1365"/><polygon stroke-opacity="1" fill-opacity="1" points="4097,1335 4422,1215 4422,1125 4097,1245"/><g data-id="x1y4v8ec" data-class="note" class="note"><g data-class="notehead" class="notehead"><use href="#E0A4-a7yeqnr" transform="translate(3456, 1080) scale(0.72, 0.72)"/></g><g data-id="whxdlgt" data-class="stem" class="stem"><path d="M3465 1108 L3465 1692" stroke-width="18"/></g></g><g data-id="y1o83y1" data-class="note" class="note"><g data-class="notehead" class="notehead"><use href="#E0A4-a7yeqnr" transform="translate(3772, 810) scale(0.72, 0.72)"/></g><g data-id="x1glrh9z" data-class="stem" class="stem"><path d="M3781 838 L3781 1572" stroke-width="18"/></g></g><g data-id="z1jbv69t" data-class="note" class="note"><g data-class="notehead" class="notehead"><use href="#E0A4-a7yeqnr" transform="translate(4088, 630) scale(0.72, 0.72)"/></g><g data-id="yx8nm0q" data-class="stem" class="stem"><path d="M4097 658 L4097 1452" stroke-width="18"/></g><g data-id="d1yzsokz" data-class="accid" class="accid"/></g><g data-id="armoghf" data-class="note" class="note"><g data-class="notehead" class="notehead"><use href="#E0A4-a7yeqnr" transform="translate(4404, 450) scale(0.72, 0.72)"/></g><g data-id="z76r2w8" data-class="stem" class="stem"><path d="M4413 478 L4413 1332" stroke-width="18"/></g></g></g><g data-id="xrwyz3h" data-class="beam" class="beam"><polygon stroke-opacity="1" fill-opacity="1" points="4720,1710 5686,1350 5686,1260 4720,1620"/><polygon stroke-opacity="1" fill-opacity="1" points="4720,1575 5045,1455 5045,1365 4720,1485"/><polygon stroke-opacity="1" fill-opacity="1" points="5045,1455 5361,1335 5361,1245 5045,1365"/><polygon stroke-opacity="1" fill-opacity="1" points="5361,1335 5686,1215 5686,1125 5361,1245"/><g data-id="bm0tdad" data-class="note" class="note"><g data-class="notehead" class="notehead"><use href="#E0A4-a7yeqnr" transform="translate(4720, 1080) scale(0.72, 0.72)"/></g><g data-id="a196xxgz" data-class="stem" class="stem"><path d="M4729 1108 L4729 1692" stroke-width="18"/></g></g><g data-id="cm6g48f" data-class="note" class="note"><g data-class="notehead" class="notehead"><use href="#E0A4-a7yeqnr" transform="translate(5036, 810) scale(0.72, 0.72)"/></g><g data-id="b96fqku" data-class="stem" class="stem"><path d="M5045 838 L5045 1572" stroke-width="18"/></g></g><g data-id="dmrza0i" data-class="note" class="note"><g data-class="notehead" class="notehead"><use href="#E0A4-a7yeqnr" transform="translate(5352, 630) scale(0.72, 0.72)"/></g><g data-id="c14acee7" data-class="stem" class="stem"><path d="M5361 658 L5361 1452" stroke-width="18"/></g><g data-id="e1wyriqz" data-class="accid" class="accid"/></g><g data-id="e1rscnuh" data-class="note" class="note"><g data-class="notehead" class="notehead"><use href="#E0A4-a7yeqnr" transform="translate(5668, 450) scale(0.72, 0.72)"/></g><g data-id="d156sqs7" data-class="stem" class="stem"><path d="M5677 478 L5677 1332" stroke-width="18"/></g></g></g><g data-id="y1gei0wa" data-class="beam" class="beam"><polygon stroke-opacity="1" fill-opacity="1" points="5984,1710 6950,1350 6950,1260 5984,1620"/><polygon stroke-opacity="1" fill-opacity="1" points="5984,1575 6309,1455 6309,1365 5984,1485"/><polygon stroke-opacity="1" fill-opacity="1" points="6309,1455 6625,1335 6625,1245 6309,1365"/><polygon stroke-opacity="1" fill-opacity="1" points="6625,1335 6950,1215 6950,1125 6625,1245"/><g data-id="f11zel7h" data-class="note" class="note"><g data-class="notehead" class="notehead"><use href="#E0A4-a7yeqnr" transform="translate(5984, 1080) scale(0.72, 0.72)"/></g><g data-id="ea3x3mk" data-class="stem" class="stem"><path d="M5993 1108 L5993 1692" stroke-width="18"/></g></g><g data-id="g1rl0ef3" data-class="note" class="note"><g data-class="notehead" class="notehead"><use href="#E0A4-a7yeqnr" transform="translate(6300, 810) scale(0.72, 0.72)"/></g><g data-id="fkv1zdb" data-class="stem" class="stem"><path d="M6309 838 L6309 1572" stroke-width="18"/></g></g><g data-id="h1r8jzfq" data-class="note" class="note"><g data-class="notehead" class="notehead"><use href="#E0A4-a7yeqnr" transform="translate(6616, 630) scale(0.72, 0.72)"/></g><g data-id="g1tn799h" data-class="stem" class="stem"><path d="M6625 658 L6625 1452" stroke-width="18"/></g><g data-id="f19o0hpm" data-class="accid" class="accid"/></g><g data-id="i1tgsmbm" data-class="note" class="note"><g data-class="notehead" class="notehead"><use href="#E0A4-a7yeqnr" transform="translate(6932, 450) scale(0.72, 0.72)"/></g><g data-id="h17k45er" data-class="stem" class="stem"><path d="M6941 478 L6941 1332" stroke-width="18"/></g></g></g></g></g><g data-id="j1wjhbaw" data-class="barLine" class="barLine"><path d="M7262 540 L7262 1260" stroke-width="27"/></g></g><g data-id="kc651ck" data-class="measure" class="measure"><g data-id="c1v9bjfb" data-class="staff" class="staff"><path d="M7275 540 L11231 540" stroke-width="13"/><path d="M7275 720 L11231 720" stroke-width="13"/><path d="M7275 900 L11231 900" stroke-width="13"/><path d="M7275 1080 L11231 1080" stroke-width="13"/><path d="M7275 1260 L11231 1260" stroke-width="13"/><g data-id="dyldvig" data-class="layer" class="layer"><g data-id="zuls8v5" data-class="beam" class="beam"><polygon stroke-opacity="1" fill-opacity="1" points="7455,1710 8421,1350 8421,1260 7455,1620"/><polygon stroke-opacity="1" fill-opacity="1" points="7455,1575 7780,1455 7780,1365 7455,1485"/><polygon stroke-opacity="1" fill-opacity="1" points="7780,1455 8096,1335 8096,1245 7780,1365"/><polygon stroke-opacity="1" fill-opacity="1" points="8096,1335 8421,1215 8421,1125 8096,1245"/><g data-id="jc1cqar" data-class="note" class="note"><g data-class="notehead" class="notehead"><use href="#E0A4-a7yeqnr" transform="translate(7455, 1080) scale(0.72, 0.72)"/></g><g data-id="ilp23wd" data-class="stem" class="stem"><path d="M7464 1108 L7464 1692" stroke-width="18"/></g></g><g data-id="k4aanmj" data-class="note" class="note"><g data-class="notehead" class="notehead"><use href="#E0A4-a7yeqnr" transform="translate(7771, 900) scale(0.72, 0.72)"/></g><g data-id="j1e3xffl" data-class="stem" class="stem"><path d="M7780 928 L7780 1572" stroke-width="18"/></g><g data-id="g1ifovkz" data-class="accid" class="accid"/></g><g data-id="l1vr7k0" data-class="note" class="note"><g data-class="notehead" class="notehead"><use href="#E0A4-a7yeqnr" transform="translate(8087, 540) scale(0.72, 0.72)"/></g><g data-id="kb8h0xc" data-class="stem" class="stem"><path d="M8096 568 L8096 1452" stroke-width="18"/></g></g><g data-id="m16feox" data-class="note" class="note"><g data-class="notehead" class="notehead"><use href="#E0A4-a7yeqnr" transform="translate(8403, 450) scale(0.72, 0.72)"/></g><g data-id="lz7vzt6" data-class="stem" class="stem"><path d="M8412 478 L8412 1332" stroke-width="18"/></g></g></g><g data-id="a1doauej" data-class="beam" class="beam"><polygon stroke-opacity="1" fill-opacity="1" points="8719,1710 9685,1350 9685,1260 8719,1620"/><polygon stroke-opacity="1" fill-opacity="1" points="8719,1575 9044,1455 9044,1365 8719,1485"/><polygon stroke-opacity="1" fill-opacity="1" points="9044,1455 9360,1335 9360,1245 9044,1365"/><polygon stroke-opacity="1" fill-opacity="1" points="9360,1335 9685,1215 9685,1125 9360,1245"/><g data-id="n1n3ufq9" data-class="note" class="note"><g data-class="notehead" class="notehead"><use href="#E0A4-a7yeqnr" transform="translate(8719, 1080) scale(0.72, 0.72)"/></g><g data-id="m1ifyi8s" data-class="stem" class="stem"><path d="M8728 1108 L8728 1692" stroke-width="18"/></g></g><g data-id="ow2mdbr" data-class="note" class="note"><g data-class="notehead" class="notehead"><use href="#E0A4-a7yeqnr" transform="translate(9035, 900) scale(0.72, 0.72)"/></g><g data-id="ngc9ui7" data-class="stem" class="stem"><path d="M9044 928 L9044 1572" stroke-width="18"/></g><g data-id="h1my0x36" data-class="accid" class="accid"/></g><g data-id="pwjavs1" data-class="note" class="note"><g data-class="notehead" class="notehead"><use href="#E0A4-a7yeqnr" transform="translate(9351, 540) scale(0.72, 0.72)"/></g><g data-id="oghuqlr" data-class="stem" class="stem"><path d="M9360 568 L9360 1452" stroke-width="18"/></g></g><g data-id="qmyga1" data-class="note" class="note"><g data-class="notehead" class="notehead"><use href="#E0A4-a7yeqnr" transform="translate(9667, 450) scale(0.72, 0.72)"/></g><g data-id="pcuhewp" data-class="stem" class="stem"><path d="M9676 478 L9676 1332" stroke-width="18"/></g></g></g><g data-id="bdp2gum" data-class="beam" class="beam"><polygon stroke-opacity="1" fill-opacity="1" points="9983,1710 10949,1350 10949,1260 9983,1620"/><polygon stroke-opacity="1" fill-opacity="1" points="9983,1575 10308,1455 10308,1365 9983,1485"/><polygon stroke-opacity="1" fill-opacity="1" points="10308,1455 10624,1335 10624,1245 10308,1365"/><polygon stroke-opacity="1" fill-opacity="1" points="10624,1335 10949,1215 10949,1125 10624,1245"/><g data-id="rosbjst" data-class="note" class="note"><g data-class="notehead" class="notehead"><use href="#E0A4-a7yeqnr" transform="translate(9983, 1080) scale(0.72, 0.72)"/></g><g data-id="q10ho2ta" data-class="stem" class="stem"><path d="M9992 1108 L9992 1692" stroke-width="18"/></g></g><g data-id="s1d4qaiw" data-class="note" class="note"><g data-class="notehead" class="notehead"><use href="#E0A4-a7yeqnr" transform="translate(10299, 900) scale(0.72, 0.72)"/></g><g data-id="r8wzlw6" data-class="stem" class="stem"><path d="M10308 928 L10308 1572" stroke-width="18"/></g><g data-id="iwtizvh" data-class="accid" class="accid"/></g><g data-id="t1latgr8" data-class="note" class="note"><g data-class="notehead" class="notehead"><use href="#E0A4-a7yeqnr" transform="translate(10615, 720) scale(0.72, 0.72)"/></g><g data-id="swnv5a2" data-class="stem" class="stem"><path d="M10624 748 L10624 1452" stroke-width="18"/></g><g data-id="j194imnn" data-class="accid" class="accid"/></g><g data-id="uihz6cn" data-class="note" class="note"><g data-class="notehead" class="notehead"><use href="#E0A4-a7yeqnr" transform="translate(10931, 450) scale(0.72, 0.72)"/></g><g data-id="t1epqubg" data-class="stem" class="stem"><path d="M10940 478 L10940 1332" stroke-width="18"/></g></g></g></g></g><g data-id="sezaox3" data-class="barLine" class="barLine"/></g><g data-id="l7eitpq" data-class="systemMilestoneEnd" class="systemMilestoneEnd oflz7ry"/></g><g data-id="m18b5hml" data-class="pageMilestoneEnd" class="pageMilestoneEnd m28ll2n"/><g data-id="n11o9gio" data-class="pageMilestoneEnd" class="pageMilestoneEnd l1fdieh8"/></g></svg></svg>