<svg viewBox="0 0 560 84" version="1.1" xmlns="http://www.w3.org/2000/svg" xmlns:xlink="http://www.w3.org/1999/xlink" overflow="visible" id="ii2oqxg"><desc>Engraved by Verovio 5.6.0-85e7620</desc><defs><g id="E050-ii2oqxg"><path transform="scale(1,-1)" d="M441 -245c-23 -4 -48 -6 -76 -6c-59 0 -102 7 -130 20c-88 42 -150 93 -187 154c-26 44 -43 103 -48 176c0 6 -1 13 -1 19c0 54 15 111 45 170c29 57 65 106 110 148s96 85 153 127c-3 16 -8 46 -13 92c-4 43 -5 73 -5 89c0 117 16 172 69 257c34 54 64 82 89 82 c21 0 43 -30 69 -92s39 -115 41 -159v-15c0 -109 -21 -162 -67 -241c-13 -20 -63 -90 -98 -118c-13 -9 -25 -19 -37 -29l31 -181c8 1 18 2 28 2c58 0 102 -12 133 -35c59 -43 92 -104 98 -184c1 -7 1 -15 1 -22c0 -123 -87 -209 -181 -248c8 -57 17 -110 25 -162 c5 -31 6 -58 6 -80c0 -30 -5 -53 -14 -70c-35 -64 -88 -99 -158 -103c-5 0 -11 -1 -16 -1c-37 0 -72 10 -108 27c-50 24 -77 59 -80 105v11c0 29 7 55 20 76c18 28 45 42 79 44h6c49 0 93 -42 97 -87v-9c0 -51 -34 -86 -105 -106c17 -24 51 -36 102 -36c62 0 116 43 140 85 c9 16 13 41 13 74c0 20 -1 42 -5 67c-8 53 -18 106 -26 159zM461 939c-95 0 -135 -175 -135 -286c0 -24 2 -48 5 -71c50 39 92 82 127 128c40 53 60 100 60 140v8c-4 53 -22 81 -55 81h-2zM406 119l54 -326c73 25 110 78 110 161c0 7 0 15 -1 23c-7 95 -57 142 -151 142h-12 zM382 117c-72 -2 -128 -47 -128 -120v-7c2 -46 43 -99 75 -115c-3 -2 -7 -5 -10 -10c-70 33 -116 88 -123 172v11c0 68 44 126 88 159c23 17 49 29 78 36l-29 170c-21 -13 -52 -37 -92 -73c-50 -44 -86 -84 -109 -119c-45 -69 -67 -130 -67 -182v-13c5 -68 35 -127 93 -176 s125 -73 203 -73c25 0 50 3 75 9c-19 111 -36 221 -54 331z"/></g><g id="E262-ii2oqxg"><path transform="scale(1,-1)" d="M136 186v169h17v-164l44 14v-91l-44 -14v-165l44 12v-91l-44 -13v-155h-17v150l-76 -22v-155h-17v149l-43 -13v90l43 14v167l-43 -14v92l43 13v169h17v-163zM60 73v-167l76 22v168z"/></g><g id="E082-ii2oqxg"><path transform="scale(1,-1)" d="M124 -185c-18 0 -55 -14 -65 -65h-36l-3 30c0 25 6 45 18 63c11 19 22 30 39 43l121 82l37 29c15 11 27 29 38 54c12 24 18 47 18 70c0 40 -19 88 -94 88c-25 0 -32 0 -50 -8c-14 -5 -23 -12 -26 -22c3 -9 7 -15 10 -18l24 -17c12 -7 17 -11 27 -21c5 -7 7 -16 7 -27 c0 -12 0 -57 -79 -74c-30 0 -76 26 -76 94c0 66 81 135 197 135c72 0 181 -32 181 -150c0 -53 -32 -95 -113 -133l-91 -41c-26 -11 -45 -23 -57 -37l49 7c84 0 115 -41 148 -41c20 0 33 20 39 61h35c0 -152 -68 -168 -114 -168c-17 0 -65 0 -79 7h10l-28 17 c-49 37 -69 40 -87 42z"/></g><g id="E084-ii2oqxg"><path transform="scale(1,-1)" d="M20 -78c84 97 114 180 134 329h170c-13 -32 -82 -132 -99 -151l-84 -97c-33 -36 -59 -63 -80 -81h162v102l127 123v-225h57v-39h-57v-34c0 -43 19 -65 57 -65v-34h-244v36c48 0 60 26 60 70v27h-203v39z"/></g><g id="E4E7-ii2oqxg"><path transform="scale(1,-1)" d="M133 -111c0 -33 -21 -50 -52 -55c10 -3 18 -4 25 -4c40 0 69 24 90 47l66 197c-36 -18 -64 -25 -112 -25c-23 0 -38 3 -45 8c-37 7 -55 27 -55 59c8 35 30 54 68 58c45 -6 49 -13 64 -48c0 -3 1 -5 1 -7c0 -27 -25 -46 -52 -49c6 -4 15 -6 26 -6c32 2 62 14 88 29 c32 19 44 36 59 71l7 1l10 2h4c-72 -220 -143 -439 -215 -659h-37l108 324c-20 -13 -51 -20 -82 -20c-21 0 -35 4 -43 10c-37 6 -55 26 -55 58c8 35 31 56 68 60c43 -8 48 -13 64 -51z"/></g><g id="E0A4-ii2oqxg"><path transform="scale(1,-1)" d="M0 -39c0 68 73 172 200 172c66 0 114 -37 114 -95c0 -84 -106 -171 -218 -171c-64 0 -96 30 -96 94z"/></g></defs><style type="text/css">#ii2oqxg g.page-margin {font-family:Times,serif;}#ii2oqxg g.ending, #ii2oqxg g.fing, #ii2oqxg g.reh, #ii2oqxg g.tempo {font-weight:bold;}#ii2oqxg g.dir, #ii2oqxg g.dynam, #ii2oqxg g.mNum {font-style:italic;}#ii2oqxg g.label {font-weight:normal;}#ii2oqxg path {stroke:currentColor}</style><svg class="definition-scale" color="black" viewBox="0 0 14000 2100"><g class="page-margin" transform="translate(0, 150)"><g data-id="gcs8dua" data-class="mdiv" class="mdiv pageMilestone"/><g data-id="h1irnlts" data-class="score" class="score pageMilestone"/><g data-id="u127nisa" data-class="system" class="system"><g data-id="jo8ivo5" data-class="section" class="section systemMilestone"/><g data-id="jdbcf7p" data-class="measure" class="measure"><g data-id="v1b15yqt" data-class="staff" class="staff"><path d="M0 540 L4719 540" stroke-width="13"/><path d="M0 720 L4719 720" stroke-width="13"/><path d="M0 900 L4719 900" stroke-width="13"/><path d="M0 1080 L4719 1080" stroke-width="13"/><path d="M0 1260 L4719 1260" stroke-width="13"/><g data-id="z1qdoyde" data-class="clef" class="clef"><use href="#E050-ii2oqxg" transform="translate(90, 1080) scale(0.72, 0.72)"/></g><g data-id="ai2ghqc" data-class="keySig" class="keySig"><g data-id="bbrwl3x" data-class="keyAccid" class="keyAccid"><use href="#E262-ii2oqxg" transform="translate(735, 540) scale(0.72, 0.72)"/></g><g data-id="c1o5h2gf" data-class="keyAccid" class="keyAccid"><use href="#E262-ii2oqxg" transform="translate(913, 810) scale(0.72, 0.72)"/></g><g data-id="d1cjt0zh" data-class="keyAccid" class="keyAccid"><use href="#E262-ii2oqxg" transform="translate(1091, 450) scale(0.72, 0.72)"/></g></g><g data-id="ebppotc" data-class="meterSig" class="meterSig"><use href="#E082-ii2oqxg" transform="translate(1398, 720) scale(0.72, 0.72)"/><use href="#E084-ii2oqxg" transform="translate(1403, 1080) scale(0.72, 0.72)"/></g><g data-id="wj7x8uu" data-class="layer" class="layer"><g data-id="s14q9y2d" data-class="rest" class="rest"><use href="#E4E7-ii2oqxg" transform="translate(1971, 900) scale(0.72, 0.72)"/></g><g data-id="bti01mq" data-class="beam" class="beam"><polygon stroke-opacity="1" fill-opacity="1" points="2502,675 3338,675 3338,765 2502,765"/><polygon stroke-opacity="1" fill-opacity="1" points="2502,810 3013,810 3013,900 2502,900"/><polygon stroke-opacity="1" fill-opacity="1" points="3013,810 3338,810 3338,900 3013,900"/><g data-id="t1y7nqy3" data-class="note" class="note"><g data-class="notehead" class="notehead"><use href="#E0A4-ii2oqxg" transform="translate(2294, 1260) scale(0.72, 0.72)"/></g><g data-id="kxsj6vk" data-class="stem" class="stem"><path d="M2511 1232 L2511 693" stroke-width="18"/></g></g><g data-id="u8ewtk3" data-class="note" class="note"><g data-class="notehead" class="notehead"><use href="#E0A4-ii2oqxg" transform="translate(2796, 1350) scale(0.72, 0.72)"/></g><g data-id="l4iug9r" data-class="stem" class="stem"><path d="M3013 1322 L3013 693" stroke-width="18"/></g><g data-id="a1cz27ng" data-class="accid" class="accid"><use href="#E262-ii2oqxg" transform="translate(2610, 1350) scale(0.72, 0.72)"/></g></g><g data-id="v13tkt71" data-class="note" class="note"><g data-class="notehead" class="notehead"><use href="#E0A4-ii2oqxg" transform="translate(3112, 1260) scale(0.72, 0.72)"/></g><g data-id="ms5m2rg" data-class="stem" class="stem"><path d="M3329 1232 L3329 693" stroke-width="18"/></g></g></g><g data-id="clula7s" data-class="beam" class="beam"><polygon stroke-opacity="1" fill-opacity="1" points="3636,540 4602,540 4602,630 3636,630"/><polygon stroke-opacity="1" fill-opacity="1" points="3636,675 3961,675 3961,765 3636,765"/><polygon stroke-opacity="1" fill-opacity="1" points="3961,675 4277,675 4277,765 3961,765"/><polygon stroke-opacity="1" fill-opacity="1" points="4277,675 4602,675 4602,765 4277,765"/><g data-id="w11jupep" data-class="note" class="note"><g data-class="notehead" class="notehead"><use href="#E0A4-ii2oqxg" transform="translate(3428, 1350) scale(0.72, 0.72)"/></g><g data-id="nvebvxq" data-class="stem" class="stem"><path d="M3645 1322 L3645 558" stroke-width="18"/></g><g data-id="dnekqkb" data-class="accid" class="accid"/></g><g data-id="xvjacf1" data-class="note" class="note"><g data-class="notehead" class="notehead"><use href="#E0A4-ii2oqxg" transform="translate(3744, 1260) scale(0.72, 0.72)"/></g><g data-id="o1c40do6" data-class="stem" class="stem"><path d="M3961 1232 L3961 558" stroke-width="18"/></g></g><g data-id="y1vhj4oo" data-class="note" class="note"><g data-class="notehead" class="notehead"><use href="#E0A4-ii2oqxg" transform="translate(4060, 1170) scale(0.72, 0.72)"/></g><g data-id="pommxua" data-class="stem" class="stem"><path d="M4277 1142 L4277 558" stroke-width="18"/></g><g data-id="e1eerthc" data-class="accid" class="accid"/></g><g data-id="z1t3ud64" data-class="note" class="note"><g data-class="notehead" class="notehead"><use href="#E0A4-ii2oqxg" transform="translate(4376, 1260) scale(0.72, 0.72)"/></g><g data-id="qendsxm" data-class="stem" class="stem"><path d="M4593 1232 L4593 558" stroke-width="18"/></g></g></g></g></g><g data-id="r10kksy7" data-class="barLine" class="barLine"><path d="M4706 540 L4706 1260" stroke-width="27"/></g></g><g data-id="e1lrhcmw" data-class="systemMilestoneEnd" class="systemMilestoneEnd jo8ivo5"/></g><g data-id="fxh9bzr" data-class="pageMilestoneEnd" class="pageMilestoneEnd h1irnlts"/><g data-id="gwp0sq9" data-class="pageMilestoneEnd" class="pageMilestoneEnd gcs8dua"/></g></svg></svg>