<svg viewBox="0 0 560 84" version="1.1" xmlns="http://www.w3.org/2000/svg" xmlns:xlink="http://www.w3.org/1999/xlink" overflow="visible" id="z1p6mq6f"><desc>Engraved by Verovio 5.6.0-85e7620</desc><defs><g id="E050-z1p6mq6f"><path transform="scale(1,-1)" d="M441 -245c-23 -4 -48 -6 -76 -6c-59 0 -102 7 -130 20c-88 42 -150 93 -187 154c-26 44 -43 103 -48 176c0 6 -1 13 -1 19c0 54 15 111 45 170c29 57 65 106 110 148s96 85 153 127c-3 16 -8 46 -13 92c-4 43 -5 73 -5 89c0 117 16 172 69 257c34 54 64 82 89 82 c21 0 43 -30 69 -92s39 -115 41 -159v-15c0 -109 -21 -162 -67 -241c-13 -20 -63 -90 -98 -118c-13 -9 -25 -19 -37 -29l31 -181c8 1 18 2 28 2c58 0 102 -12 133 -35c59 -43 92 -104 98 -184c1 -7 1 -15 1 -22c0 -123 -87 -209 -181 -248c8 -57 17 -110 25 -162 c5 -31 6 -58 6 -80c0 -30 -5 -53 -14 -70c-35 -64 -88 -99 -158 -103c-5 0 -11 -1 -16 -1c-37 0 -72 10 -108 27c-50 24 -77 59 -80 105v11c0 29 7 55 20 76c18 28 45 42 79 44h6c49 0 93 -42 97 -87v-9c0 -51 -34 -86 -105 -106c17 -24 51 -36 102 -36c62 0 116 43 140 85 c9 16 13 41 13 74c0 20 -1 42 -5 67c-8 53 -18 106 -26 159zM461 939c-95 0 -135 -175 -135 -286c0 -24 2 -48 5 -71c50 39 92 82 127 128c40 53 60 100 60 140v8c-4 53 -22 81 -55 81h-2zM406 119l54 -326c73 25 110 78 110 161c0 7 0 15 -1 23c-7 95 -57 142 -151 142h-12 zM382 117c-72 -2 -128 -47 -128 -120v-7c2 -46 43 -99 75 -115c-3 -2 -7 -5 -10 -10c-70 33 -116 88 -123 172v11c0 68 44 126 88 159c23 17 49 29 78 36l-29 170c-21 -13 -52 -37 -92 -73c-50 -44 -86 -84 -109 -119c-45 -69 -67 -130 -67 -182v-13c5 -68 35 -127 93 -176 s125 -73 203 -73c25 0 50 3 75 9c-19 111 -36 221 -54 331z"/></g><g id="E260-z1p6mq6f"><path transform="scale(1,-1)" d="M20 110c32 16 54 27 93 27c26 0 35 -3 54 -13c13 -7 24 -20 27 -38l4 -25c0 -28 -16 -57 -45 -89c-23 -25 -39 -44 -65 -68l-88 -79v644h20v-359zM90 106c-32 0 -48 -10 -70 -29v-194c31 31 54 59 71 84c21 32 32 59 32 84c0 9 1 16 1 20c0 14 -3 21 -11 30l-8 3z"/></g><g id="E082-z1p6mq6f"><path transform="scale(1,-1)" d="M124 -185c-18 0 -55 -14 -65 -65h-36l-3 30c0 25 6 45 18 63c11 19 22 30 39 43l121 82l37 29c15 11 27 29 38 54c12 24 18 47 18 70c0 40 -19 88 -94 88c-25 0 -32 0 -50 -8c-14 -5 -23 -12 -26 -22c3 -9 7 -15 10 -18l24 -17c12 -7 17 -11 27 -21c5 -7 7 -16 7 -27 c0 -12 0 -57 -79 -74c-30 0 -76 26 -76 94c0 66 81 135 197 135c72 0 181 -32 181 -150c0 -53 -32 -95 -113 -133l-91 -41c-26 -11 -45 -23 -57 -37l49 7c84 0 115 -41 148 -41c20 0 33 20 39 61h35c0 -152 -68 -168 -114 -168c-17 0 -65 0 -79 7h10l-28 17 c-49 37 -69 40 -87 42z"/></g><g id="E084-z1p6mq6f"><path transform="scale(1,-1)" d="M20 -78c84 97 114 180 134 329h170c-13 -32 -82 -132 -99 -151l-84 -97c-33 -36 -59 -63 -80 -81h162v102l127 123v-225h57v-39h-57v-34c0 -43 19 -65 57 -65v-34h-244v36c48 0 60 26 60 70v27h-203v39z"/></g><g id="E0A4-z1p6mq6f"><path transform="scale(1,-1)" d="M0 -39c0 68 73 172 200 172c66 0 114 -37 114 -95c0 -84 -106 -171 -218 -171c-64 0 -96 30 -96 94z"/></g><g id="E240-z1p6mq6f"><path transform="scale(1,-1)" d="M179 -646c15 29 29 55 46 102c18 49 30 108 30 138c0 105 -80 173 -168 200c-18 5 -47 9 -87 16v190h22c8 0 33 -61 71 -95c4 -3 -2 3 61 -56c62 -58 122 -137 122 -241c0 -38 -13 -106 -35 -163c-20 -51 -43 -99 -66 -132c-6 -5 -10 -7 -13 -7s-5 2 -5 5l4 10 c1 3 14 25 18 33z"/></g><g id="E242-z1p6mq6f"><path transform="scale(1,-1)" d="M206 -748c32 48 49 100 49 149c0 89 -55 168 -168 203c-18 5 -47 9 -87 16v190v190h22c8 0 33 -61 71 -95c4 -3 -2 3 61 -56c62 -58 122 -137 122 -241c0 -32 -7 -65 -17 -96c11 -29 17 -60 17 -94c0 -71 -32 -148 -67 -190c-6 -5 -10 -7 -13 -7s-5 2 -5 5l4 10 c1 3 6 8 11 16zM248 -463c4 18 7 38 7 57c0 105 -80 173 -168 200c-11 3 -27 6 -47 9c9 -17 23 -61 53 -88c4 -3 -2 3 61 -56c36 -33 71 -74 94 -122z"/></g><g id="E241-z1p6mq6f"><path transform="scale(1,-1)" d="M179 646c-4 8 -17 30 -18 33l-4 10c0 3 2 5 5 5s7 -2 13 -7c23 -33 46 -81 66 -132c22 -57 35 -125 35 -163c0 -104 -60 -183 -122 -241c-63 -59 -57 -53 -61 -56c-38 -34 -63 -95 -71 -95h-22v190c40 7 69 11 87 16c88 27 168 95 168 200c0 30 -12 89 -30 138 c-17 47 -31 73 -46 102z"/></g><g id="E243-z1p6mq6f"><path transform="scale(1,-1)" d="M216 730c-5 8 -10 13 -11 16l-4 10c0 3 2 5 5 5s7 -2 13 -7c35 -42 57 -101 57 -172c0 -34 -6 -65 -17 -94c10 -31 17 -64 17 -96c0 -104 -60 -183 -122 -241c-63 -59 -57 -53 -61 -56c-38 -34 -63 -95 -71 -95h-22v190v190c40 7 69 11 87 16c116 36 175 111 175 197 c0 44 -15 91 -46 137zM248 463c-23 -48 -58 -89 -94 -122c-63 -59 -57 -53 -61 -56c-30 -27 -44 -71 -53 -88c20 3 36 6 47 9c88 27 168 95 168 200c0 19 -3 39 -7 57z"/></g></defs><style type="text/css">#z1p6mq6f g.page-margin {font-family:Times,serif;}#z1p6mq6f g.ending, #z1p6mq6f g.fing, #z1p6mq6f g.reh, #z1p6mq6f g.tempo {font-weight:bold;}#z1p6mq6f g.dir, #z1p6mq6f g.dynam, #z1p6mq6f g.mNum {font-style:italic;}#z1p6mq6f g.label {font-weight:normal;}#z1p6mq6f path {stroke:currentColor}</style><svg class="definition-scale" color="black" viewBox="0 0 14000 2100"><g class="page-margin" transform="translate(0, 150)"><g data-id="k1alw4hu" data-class="mdiv" class="mdiv pageMilestone"/><g data-id="lm1y8sr" data-class="score" class="score pageMilestone"/><g data-id="i1s7b006" data-class="system" class="system"><g data-id="ntt7bf7" data-class="section" class="section systemMilestone"/><g data-id="a1ns12ih" data-class="measure" class="measure"><g data-id="zu6lclt" data-class="staff" class="staff"><path d="M0 540 L4208 540" stroke-width="13"/><path d="M0 720 L4208 720" stroke-width="13"/><path d="M0 900 L4208 900" stroke-width="13"/><path d="M0 1080 L4208 1080" stroke-width="13"/><path d="M0 1260 L4208 1260" stroke-width="13"/><g data-id="m1qspwh0" data-class="clef" class="clef"><use href="#E050-z1p6mq6f" transform="translate(90, 1080) scale(0.72, 0.72)"/></g><g data-id="n8v6im4" data-class="keySig" class="keySig"><g data-id="ofwt5t3" data-class="keyAccid" class="keyAccid"><use href="#E260-z1p6mq6f" transform="translate(735, 900) scale(0.72, 0.72)"/></g><g data-id="p1s5ejs5" data-class="keyAccid" class="keyAccid"><use href="#E260-z1p6mq6f" transform="translate(915, 630) scale(0.72, 0.72)"/></g><g data-id="q1nzn0xh" data-class="keyAccid" class="keyAccid"><use href="#E260-z1p6mq6f" transform="translate(1095, 990) scale(0.72, 0.72)"/></g><g data-id="r4t8vgu" data-class="keyAccid" class="keyAccid"><use href="#E260-z1p6mq6f" transform="translate(1275, 720) scale(0.72, 0.72)"/></g></g><g data-id="s17jrbuv" data-class="meterSig" class="meterSig"><use href="#E082-z1p6mq6f" transform="translate(1583, 720) scale(0.72, 0.72)"/><use href="#E084-z1p6mq6f" transform="translate(1588, 1080) scale(0.72, 0.72)"/></g><g data-id="alufoid" data-class="layer" class="layer"><g data-id="c14zas70" data-class="note" class="note"><g data-class="notehead" class="notehead"><use href="#E0A4-z1p6mq6f" transform="translate(2163, 1260) scale(0.72, 0.72)"/></g><g data-id="auibpa7" data-class="dots" class="dots"><ellipse cx="2637" cy="1170" rx="36" ry="36" fill-opacity="1" stroke-opacity="1"/></g><g data-id="z1827sg8" data-class="stem" class="stem"><path d="M2380 1232 L2380 630" stroke-width="18"/><g data-id="b1dqftn9" data-class="flag" class="flag"><use href="#E240-z1p6mq6f" transform="translate(2371, 630) scale(0.72, 0.72)"/></g></g><g data-id="yzaa6cc" data-class="accid" class="accid"/></g><g data-id="d1x84ux9" data-class="note" class="note"><g data-class="notehead" class="notehead"><use href="#E0A4-z1p6mq6f" transform="translate(2736, 990) scale(0.72, 0.72)"/></g><g data-id="cedjxt8" data-class="stem" class="stem"><path d="M2953 962 L2953 360" stroke-width="18"/><g data-id="d1ria56d" data-class="flag" class="flag"><use href="#E242-z1p6mq6f" transform="translate(2944, 360) scale(0.72, 0.72)"/></g></g><g data-id="z1ollq6r" data-class="accid" class="accid"/></g><g data-id="e1hrpeul" data-class="note" class="note"><g data-class="notehead" class="notehead"><use href="#E0A4-z1p6mq6f" transform="translate(3223, 990) scale(0.72, 0.72)"/></g><g data-id="eon18hp" data-class="stem" class="stem"><path d="M3440 962 L3440 360" stroke-width="18"/><g data-id="f3sf4ii" data-class="flag" class="flag"><use href="#E240-z1p6mq6f" transform="translate(3431, 360) scale(0.72, 0.72)"/></g></g><g data-id="ae7d7fy" data-class="accid" class="accid"/></g><g data-id="f1ms0n10" data-class="note" class="note"><g data-class="notehead" class="notehead"><use href="#E0A4-z1p6mq6f" transform="translate(3668, 1080) scale(0.72, 0.72)"/></g><g data-id="g1lz79ap" data-class="stem" class="stem"><path d="M3885 1052 L3885 450" stroke-width="18"/><g data-id="hsep043" data-class="flag" class="flag"><use href="#E240-z1p6mq6f" transform="translate(3876, 450) scale(0.72, 0.72)"/></g></g></g></g></g><g data-id="i1n709oi" data-class="barLine" class="barLine"><path d="M4195 540 L4195 1260" stroke-width="27"/></g></g><g data-id="jopl1ri" data-class="measure" class="measure"><g data-id="b1alzugg" data-class="staff" class="staff"><path d="M4208 540 L6049 540" stroke-width="13"/><path d="M4208 720 L6049 720" stroke-width="13"/><path d="M4208 900 L6049 900" stroke-width="13"/><path d="M4208 1080 L6049 1080" stroke-width="13"/><path d="M4208 1260 L6049 1260" stroke-width="13"/><g data-id="c1af9hay" data-class="layer" class="layer"><g data-id="gvh3jdg" data-class="note" class="note"><g data-class="notehead" class="notehead"><use href="#E0A4-z1p6mq6f" transform="translate(4395, 990) scale(0.72, 0.72)"/></g><g data-id="ipe11k8" data-class="stem" class="stem"><path d="M4612 962 L4612 360" stroke-width="18"/><g data-id="j1y8ndny" data-class="flag" class="flag"><use href="#E240-z1p6mq6f" transform="translate(4603, 360) scale(0.72, 0.72)"/></g></g><g data-id="bkzbhcj" data-class="accid" class="accid"/></g><g data-id="h1to3jfv" data-class="note" class="note"><g data-class="notehead" class="notehead"><use href="#E0A4-z1p6mq6f" transform="translate(4907, 810) scale(0.72, 0.72)"/></g><g data-id="ke2cuny" data-class="stem" class="stem"><path d="M4916 838 L4916 1440" stroke-width="18"/><g data-id="l1tuof7x" data-class="flag" class="flag"><use href="#E241-z1p6mq6f" transform="translate(4907, 1440) scale(0.72, 0.72)"/></g></g></g><g data-id="izwllom" data-class="note" class="note"><g data-class="notehead" class="notehead"><use href="#E0A4-z1p6mq6f" transform="translate(5353, 630) scale(0.72, 0.72)"/></g><g data-id="m15quqy" data-class="stem" class="stem"><path d="M5362 658 L5362 1260" stroke-width="18"/></g><g data-id="cojam38" data-class="accid" class="accid"/></g></g></g><g data-id="rswwqxr" data-class="barLine" class="barLine"><path d="M6036 540 L6036 1260" stroke-width="27"/></g></g><g data-id="sg3ohud" data-class="measure" class="measure"><g data-id="daqgwpj" data-class="staff" class="staff"><path d="M6049 540 L8121 540" stroke-width="13"/><path d="M6049 720 L8121 720" stroke-width="13"/><path d="M6049 900 L8121 900" stroke-width="13"/><path d="M6049 1080 L8121 1080" stroke-width="13"/><path d="M6049 1260 L8121 1260" stroke-width="13"/><g data-id="edwryd5" data-class="layer" class="layer"><g data-id="j19jjfsu" data-class="note" class="note"><g data-class="notehead" class="notehead"><use href="#E0A4-z1p6mq6f" transform="translate(6236, 630) scale(0.72, 0.72)"/></g><g data-id="o1p12xsk" data-class="dots" class="dots"><ellipse cx="6552" cy="630" rx="36" ry="36" fill-opacity="1" stroke-opacity="1"/></g><g data-id="n1strfos" data-class="stem" class="stem"><path d="M6245 658 L6245 1260" stroke-width="18"/><g data-id="p7lt2pf" data-class="flag" class="flag"><use href="#E241-z1p6mq6f" transform="translate(6236, 1260) scale(0.72, 0.72)"/></g></g><g data-id="dv7hfkb" data-class="accid" class="accid"/></g><g data-id="koq3sg9" data-class="note" class="note"><g data-class="notehead" class="notehead"><use href="#E0A4-z1p6mq6f" transform="translate(6809, 810) scale(0.72, 0.72)"/></g><g data-id="qyxu3gc" data-class="stem" class="stem"><path d="M6818 838 L6818 1440" stroke-width="18"/><g data-id="r2lwxab" data-class="flag" class="flag"><use href="#E243-z1p6mq6f" transform="translate(6809, 1440) scale(0.72, 0.72)"/></g></g></g><g data-id="l16gthy9" data-class="note" class="note"><g data-class="notehead" class="notehead"><use href="#E0A4-z1p6mq6f" transform="translate(7136, 810) scale(0.72, 0.72)"/></g><g data-id="s1umf5im" data-class="stem" class="stem"><path d="M7145 838 L7145 1440" stroke-width="18"/><g data-id="t1dmpwai" data-class="flag" class="flag"><use href="#E241-z1p6mq6f" transform="translate(7136, 1440) scale(0.72, 0.72)"/></g></g></g><g data-id="m1y7k7vt" data-class="note" class="note"><g data-class="notehead" class="notehead"><use href="#E0A4-z1p6mq6f" transform="translate(7581, 990) scale(0.72, 0.72)"/></g><g data-id="u3emv2d" data-class="stem" class="stem"><path d="M7798 962 L7798 360" stroke-width="18"/><g data-id="va5j04c" data-class="flag" class="flag"><use href="#E240-z1p6mq6f" transform="translate(7789, 360) scale(0.72, 0.72)"/></g></g><g data-id="e11de9gk" data-class="accid" class="accid"/></g></g></g><g data-id="a1e1ylpi" data-class="barLine" class="barLine"><path d="M8108 540 L8108 1260" stroke-width="27"/></g></g><g data-id="bh1ueou" data-class="measure" class="measure"><g data-id="f7k8njq" data-class="staff" class="staff"><path d="M8121 540 L9904 540" stroke-width="13"/><path d="M8121 720 L9904 720" stroke-width="13"/><path d="M8121 900 L9904 900" stroke-width="13"/><path d="M8121 1080 L9904 1080" stroke-width="13"/><path d="M8121 1260 L9904 1260" stroke-width="13"/><g data-id="g10ode8v" data-class="layer" class="layer"><g data-id="xjyfghz" data-class="beam" class="beam"><polygon stroke-opacity="1" fill-opacity="1" points="8516,360 9107,540 9107,630 8516,450"/><polygon stroke-opacity="1" fill-opacity="1" points="8881,610 9107,675 9107,765 8881,700"/><g data-id="n1nds4rd" data-class="note" class="note"><g data-class="notehead" class="notehead"><use href="#E0A4-z1p6mq6f" transform="translate(8308, 990) scale(0.72, 0.72)"/></g><g data-id="x1aa8em8" data-class="dots" class="dots"><ellipse cx="8624" cy="990" rx="36" ry="36" fill-opacity="1" stroke-opacity="1"/></g><g data-id="w1s17y37" data-class="stem" class="stem"><path d="M8525 962 L8525 378" stroke-width="18"/></g><g data-id="fknpx08" data-class="accid" class="accid"/></g><g data-id="o1wof9di" data-class="note" class="note"><g data-class="notehead" class="notehead"><use href="#E0A4-z1p6mq6f" transform="translate(8881, 1170) scale(0.72, 0.72)"/></g><g data-id="y1tc6w5z" data-class="stem" class="stem"><path d="M9098 1142 L9098 558" stroke-width="18"/></g></g></g><g data-id="p23n3w1" data-class="note" class="note"><g data-class="notehead" class="notehead"><use href="#E0A4-z1p6mq6f" transform="translate(9208, 1170) scale(0.72, 0.72)"/></g><g data-id="zsi0oi5" data-class="stem" class="stem"><path d="M9425 1142 L9425 540" stroke-width="18"/></g></g></g></g><g data-id="jd9a6n3" data-class="barLine" class="barLine"><path d="M9891 540 L9891 1260" stroke-width="27"/></g></g><g data-id="k1so3u1" data-class="measure" class="measure"><g data-id="hayapaj" data-class="staff" class="staff"><path d="M9904 540 L12229 540" stroke-width="13"/><path d="M9904 720 L12229 720" stroke-width="13"/><path d="M9904 900 L12229 900" stroke-width="13"/><path d="M9904 1080 L12229 1080" stroke-width="13"/><path d="M9904 1260 L12229 1260" stroke-width="13"/><g data-id="iw5w2bi" data-class="layer" class="layer"><g data-id="q1sgz1ew" data-class="note" class="note"><g data-class="notehead" class="notehead"><use href="#E0A4-z1p6mq6f" transform="translate(10091, 1170) scale(0.72, 0.72)"/></g><g data-id="b1odtvhy" data-class="dots" class="dots"><ellipse cx="10407" cy="1170" rx="36" ry="36" fill-opacity="1" stroke-opacity="1"/></g><g data-id="a1hg6f7z" data-class="stem" class="stem"><path d="M10308 1142 L10308 540" stroke-width="18"/><g data-id="cdxqzqq" data-class="flag" class="flag"><use href="#E240-z1p6mq6f" transform="translate(10299, 540) scale(0.72, 0.72)"/></g></g></g><g data-id="r1g48q7w" data-class="note" class="note"><g data-class="notehead" class="notehead"><use href="#E0A4-z1p6mq6f" transform="translate(10664, 1170) scale(0.72, 0.72)"/></g><g data-id="d7bfcty" data-class="stem" class="stem"><path d="M10881 1142 L10881 540" stroke-width="18"/><g data-id="e5vtrc" data-class="flag" class="flag"><use href="#E242-z1p6mq6f" transform="translate(10872, 540) scale(0.72, 0.72)"/></g></g></g><g data-id="smctc7e" data-class="note" class="note"><g data-class="notehead" class="notehead"><use href="#E0A4-z1p6mq6f" transform="translate(11177, 1080) scale(0.72, 0.72)"/></g><g data-id="ffagcmr" data-class="stem" class="stem"><path d="M11394 1052 L11394 450" stroke-width="18"/><g data-id="g1sq9nzk" data-class="flag" class="flag"><use href="#E240-z1p6mq6f" transform="translate(11385, 450) scale(0.72, 0.72)"/></g></g></g><g data-id="tb717bg" data-class="note" class="note"><g data-class="notehead" class="notehead"><use href="#E0A4-z1p6mq6f" transform="translate(11689, 990) scale(0.72, 0.72)"/></g><g data-id="h1rv34ks" data-class="stem" class="stem"><path d="M11906 962 L11906 360" stroke-width="18"/><g data-id="isfwrgh" data-class="flag" class="flag"><use href="#E240-z1p6mq6f" transform="translate(11897, 360) scale(0.72, 0.72)"/></g></g><g data-id="g1r29mpu" data-class="accid" class="accid"/></g></g></g><g data-id="s14ao4oo" data-class="barLine" class="barLine"><path d="M12216 540 L12216 1260" stroke-width="27"/></g></g><g data-id="t12up1lk" data-class="measure" class="measure"><g data-id="j1ojfcyu" data-class="staff" class="staff"><path d="M12229 540 L14003 540" stroke-width="13"/><path d="M12229 720 L14003 720" stroke-width="13"/><path d="M12229 900 L14003 900" stroke-width="13"/><path d="M12229 1080 L14003 1080" stroke-width="13"/><path d="M12229 1260 L14003 1260" stroke-width="13"/><g data-id="k1y78ot7" data-class="layer" class="layer"><g data-id="uuyr7cr" data-class="note" class="note"><g data-class="notehead" class="notehead"><use href="#E0A4-z1p6mq6f" transform="translate(12416, 900) scale(0.72, 0.72)"/></g><g data-id="jochyfw" data-class="stem" class="stem"><path d="M12425 928 L12425 1500" stroke-width="18"/><g data-id="kuzlzz7" data-class="flag" class="flag"><use href="#E241-z1p6mq6f" transform="translate(12416, 1500) scale(0.72, 0.72)"/></g></g><g data-id="hza34km" data-class="accid" class="accid"/></g><g data-id="v1atm00p" data-class="note" class="note"><g data-class="notehead" class="notehead"><use href="#E0A4-z1p6mq6f" transform="translate(12861, 810) scale(0.72, 0.72)"/></g><g data-id="l9cwk23" data-class="stem" class="stem"><path d="M12870 838 L12870 1440" stroke-width="18"/><g data-id="m1r9v716" data-class="flag" class="flag"><use href="#E241-z1p6mq6f" transform="translate(12861, 1440) scale(0.72, 0.72)"/></g></g></g><g data-id="w13smyoa" data-class="note" class="note"><g data-class="notehead" class="notehead"><use href="#E0A4-z1p6mq6f" transform="translate(13306, 720) scale(0.72, 0.72)"/></g><g data-id="nsnjzts" data-class="stem" class="stem"><path d="M13315 748 L13315 1350" stroke-width="18"/></g><g data-id="i2h7v50" data-class="accid" class="accid"/></g></g></g><g data-id="b61iz4i" data-class="barLine" class="barLine"><path d="M13990 540 L13990 1260" stroke-width="27"/></g></g><g data-id="s3d22i" data-class="systemMilestoneEnd" class="systemMilestoneEnd ntt7bf7"/></g><g data-id="ta62n6n" data-class="pageMilestoneEnd" class="pageMilestoneEnd lm1y8sr"/><g data-id="u1kdjiuv" data-class="pageMilestoneEnd" class="pageMilestoneEnd k1alw4hu"/></g></svg></svg>