<svg viewBox="0 0 560 84" version="1.1" xmlns="http://www.w3.org/2000/svg" xmlns:xlink="http://www.w3.org/1999/xlink" overflow="visible" id="a1eig9kk"><desc>Engraved by Verovio 5.6.0-85e7620</desc><defs><g id="E062-a1eig9kk"><path transform="scale(1,-1)" d="M582 -120c0 32 26 58 58 58s58 -26 58 -58s-26 -58 -58 -58s-58 26 -58 58zM582 120c0 32 26 58 58 58s58 -26 58 -58s-26 -58 -58 -58s-58 26 -58 58zM158 96c51 0 73 -14 88 -49l16 -39c0 -17 -2 -30 -7 -40c-3 -11 -10 -21 -19 -31c-17 -18 -49 -43 -84 -43 c-55 0 -77 13 -112 44c-24 21 -35 55 -35 100c0 46 14 81 32 112c30 52 71 79 137 93l36 6l26 2c154 0 235 -68 274 -182c11 -32 18 -68 18 -107c0 -103 -26 -182 -68 -250c-89 -145 -234 -230 -412 -288l-30 -5c-9 0 -14 3 -14 8c3 10 5 11 10 16c35 15 70 30 96 44l78 43 c96 57 162 136 197 258c9 33 17 60 22 100c3 22 5 35 6 39c-7 69 -16 115 -23 140s-4 22 -16 40c-8 12 -19 23 -31 34c-24 21 -62 44 -118 44c-48 0 -84 -8 -113 -28c-28 -19 -42 -44 -42 -73v-16c2 -5 3 -9 4 -11c24 22 52 39 84 39z"/></g><g id="E260-a1eig9kk"><path transform="scale(1,-1)" d="M20 110c32 16 54 27 93 27c26 0 35 -3 54 -13c13 -7 24 -20 27 -38l4 -25c0 -28 -16 -57 -45 -89c-23 -25 -39 -44 -65 -68l-88 -79v644h20v-359zM90 106c-32 0 -48 -10 -70 -29v-194c31 31 54 59 71 84c21 32 32 59 32 84c0 9 1 16 1 20c0 14 -3 21 -11 30l-8 3z"/></g><g id="E08A-a1eig9kk"><path transform="scale(1,-1)" d="M340 179c-9 24 -56 41 -89 41c-46 0 -81 -28 -100 -58c-17 -28 -25 -78 -25 -150c0 -65 2 -111 8 -135c8 -31 18 -49 40 -67c20 -17 43 -25 70 -25c54 0 92 36 115 75c14 25 23 54 28 88h27c0 -63 -24 -105 -58 -141c-35 -38 -82 -56 -140 -56c-45 0 -83 13 -115 39 c-57 45 -101 130 -101 226c0 59 33 127 68 163c36 37 97 72 160 72c36 0 93 -21 121 -40c11 -8 23 -17 33 -30c19 -23 27 -48 27 -76c0 -51 -35 -88 -86 -88c-43 0 -76 27 -76 68c0 26 7 35 21 51c15 17 32 27 58 32c7 2 14 7 14 11z"/></g><g id="E0A3-a1eig9kk"><path transform="scale(1,-1)" d="M278 64c0 22 -17 39 -43 39c-12 0 -26 -3 -41 -10c-85 -43 -165 -94 -165 -156c5 -25 15 -32 49 -32c67 11 200 95 200 159zM0 -36c0 68 73 174 200 174c66 0 114 -39 114 -97c0 -84 -106 -173 -218 -173c-64 0 -96 32 -96 96z"/></g><g id="E044-a1eig9kk"><path transform="scale(1,-1)" d="M0 0c0 28 22 50 50 50s50 -22 50 -50s-22 -50 -50 -50s-50 22 -50 50z"/></g><g id="E07A-a1eig9kk"><path transform="scale(1,-1)" d="M343 -190c-18 -3 -37 -5 -59 -5c-46 0 -79 6 -101 16c-68 33 -117 72 -146 119c-20 34 -33 80 -37 137c0 5 -1 10 -1 15c0 42 12 86 35 132c23 44 51 82 86 115s75 65 119 98c-2 12 -7 36 -11 72c-3 33 -3 57 -3 69c0 91 12 134 53 200c26 42 50 63 69 63 c16 0 34 -23 54 -71s30 -90 32 -124v-11c0 -85 -16 -126 -52 -187c-10 -16 -49 -70 -76 -92c-10 -7 -20 -15 -29 -23l24 -140c6 1 14 1 22 1c45 0 79 -9 103 -27c46 -33 71 -81 76 -143c1 -5 1 -12 1 -17c0 -96 -68 -163 -141 -193c6 -44 14 -86 20 -126c4 -24 4 -45 4 -62 c0 -23 -3 -41 -10 -54c-27 -50 -69 -77 -123 -80c-4 0 -9 -1 -13 -1c-29 0 -56 8 -84 21c-39 19 -60 46 -62 82v8c0 23 6 43 16 59c14 22 35 32 61 34h5c38 0 72 -32 75 -67v-7c0 -40 -26 -67 -81 -83c13 -19 39 -28 79 -28c48 0 90 34 109 67c7 12 10 31 10 57 c0 16 -1 33 -4 52c-6 41 -14 83 -20 124zM358 730c-74 0 -105 -137 -105 -223c0 -19 2 -37 4 -55c39 30 72 64 99 100c31 41 46 77 46 108v7c-3 41 -16 63 -42 63h-2zM315 92l42 -253c57 19 86 61 86 125c0 5 0 12 -1 18c-5 74 -44 110 -117 110h-10zM297 91 c-56 -2 -100 -36 -100 -93v-6c2 -36 34 -77 59 -89c-2 -2 -6 -4 -8 -8c-54 26 -91 69 -96 134v8c0 53 35 98 69 124c18 13 37 23 60 28l-22 132c-16 -10 -41 -29 -72 -57c-39 -34 -66 -65 -84 -92c-35 -54 -52 -102 -52 -142v-10c4 -53 27 -99 72 -137s96 -56 157 -56 c19 0 40 2 59 7c-15 86 -28 172 -42 257z"/></g><g id="E0A4-a1eig9kk"><path transform="scale(1,-1)" d="M0 -39c0 68 73 172 200 172c66 0 114 -37 114 -95c0 -84 -106 -171 -218 -171c-64 0 -96 30 -96 94z"/></g><g id="E240-a1eig9kk"><path transform="scale(1,-1)" d="M179 -646c15 29 29 55 46 102c18 49 30 108 30 138c0 105 -80 173 -168 200c-18 5 -47 9 -87 16v190h22c8 0 33 -61 71 -95c4 -3 -2 3 61 -56c62 -58 122 -137 122 -241c0 -38 -13 -106 -35 -163c-20 -51 -43 -99 -66 -132c-6 -5 -10 -7 -13 -7s-5 2 -5 5l4 10 c1 3 14 25 18 33z"/></g><g id="E4E6-a1eig9kk"><path transform="scale(1,-1)" d="M0 123c7 34 33 56 69 60c29 -3 43 -9 53 -29c4 -8 7 -15 10 -22c0 -21 -1 -25 -11 -35c-5 -8 -18 -14 -40 -20l12 -3l15 -1c44 0 97 26 122 56c10 11 18 26 24 42c7 1 15 2 22 3l-140 -424h-36l111 330c-10 -6 -27 -12 -53 -16l-52 -8h-10l-20 1c-1 0 -8 3 -21 6 c-37 9 -55 28 -55 60z"/></g></defs><style type="text/css">#a1eig9kk g.page-margin {font-family:Times,serif;}#a1eig9kk g.ending, #a1eig9kk g.fing, #a1eig9kk g.reh, #a1eig9kk g.tempo {font-weight:bold;}#a1eig9kk g.dir, #a1eig9kk g.dynam, #a1eig9kk g.mNum {font-style:italic;}#a1eig9kk g.label {font-weight:normal;}#a1eig9kk path {stroke:currentColor}</style><svg class="definition-scale" color="black" viewBox="0 0 14000 2100"><g class="page-margin" transform="translate(0, 150)"><g data-id="yhgtnpz" data-class="mdiv" class="mdiv pageMilestone"/><g data-id="zspwnnm" data-class="score" class="score pageMilestone"/><g data-id="hp15y2a" data-class="system" class="system"><g data-id="b13crurp" data-class="section" class="section systemMilestone"/><g data-id="b15vgvr4" data-class="measure" class="measure"><g data-id="nxjgxds" data-class="staff" class="staff"><path d="M0 540 L2957 540" stroke-width="13"/><path d="M0 720 L2957 720" stroke-width="13"/><path d="M0 900 L2957 900" stroke-width="13"/><path d="M0 1080 L2957 1080" stroke-width="13"/><path d="M0 1260 L2957 1260" stroke-width="13"/><g data-id="e2g9d8n" data-class="clef" class="clef"><use href="#E062-a1eig9kk" transform="translate(88, 720) scale(0.72, 0.72)"/></g><g data-id="f3k8mp3" data-class="keySig" class="keySig"><g data-id="g1ntxnn8" data-class="keyAccid" class="keyAccid"><use href="#E260-a1eig9kk" transform="translate(769, 1080) scale(0.72, 0.72)"/></g></g><g data-id="h202ld3" data-class="meterSig" class="meterSig"><use href="#E08A-a1eig9kk" transform="translate(1091, 900) scale(0.72, 0.72)"/></g><g data-id="o1i1i100" data-class="layer" class="layer"><g data-id="n943q4s" data-class="note" class="note"><g data-class="notehead" class="notehead"><use href="#E0A3-a1eig9kk" transform="translate(1659, 1350) scale(0.72, 0.72)"/></g><g data-id="g94u7jv" data-class="stem" class="stem"><path d="M1876 1322 L1876 720" stroke-width="18"/></g></g></g></g><g data-id="jdm4csu" data-class="barLine" class="barLine"><path d="M2709 540 L2709 1260" stroke-width="90"/><path d="M2839 540 L2839 1260" stroke-width="27"/><use href="#E044-a1eig9kk" transform="translate(2885, 810) scale(0.72, 0.72)"/><use href="#E044-a1eig9kk" transform="translate(2885, 990) scale(0.72, 0.72)"/></g></g><g data-id="l11eegyo" data-class="measure" class="measure"><g data-id="p1loxb1s" data-class="staff" class="staff"><path d="M2957 540 L4562 540" stroke-width="13"/><path d="M2957 720 L4562 720" stroke-width="13"/><path d="M2957 900 L4562 900" stroke-width="13"/><path d="M2957 1080 L4562 1080" stroke-width="13"/><path d="M2957 1260 L4562 1260" stroke-width="13"/><g data-id="q1kxnjg8" data-class="layer" class="layer"><g data-id="k12rhslz" data-class="clef" class="clef"><use href="#E07A-a1eig9kk" transform="translate(3047, 1080) scale(0.72, 0.72)"/></g><g data-id="o1lb3abt" data-class="note" class="note"><g data-class="notehead" class="notehead"><use href="#E0A3-a1eig9kk" transform="translate(3499, 1170) scale(0.72, 0.72)"/></g><g data-id="hacm92" data-class="stem" class="stem"><path d="M3716 1142 L3716 540" stroke-width="18"/></g></g></g></g><g data-id="t14hg7u" data-class="barLine" class="barLine"><path d="M4549 540 L4549 1260" stroke-width="27"/></g></g><g data-id="u1739cnp" data-class="measure" class="measure"><g data-id="r1yd2sq" data-class="staff" class="staff"><path d="M4562 540 L7185 540" stroke-width="13"/><path d="M4562 720 L7185 720" stroke-width="13"/><path d="M4562 900 L7185 900" stroke-width="13"/><path d="M4562 1080 L7185 1080" stroke-width="13"/><path d="M4562 1260 L7185 1260" stroke-width="13"/><g data-id="sv3us4y" data-class="layer" class="layer"><g data-id="p3w0z3r" data-class="note" class="note"><g data-class="notehead" class="notehead"><use href="#E0A4-a1eig9kk" transform="translate(4742, 900) scale(0.72, 0.72)"/></g><g data-id="iswczxj" data-class="stem" class="stem"><path d="M4751 928 L4751 1500" stroke-width="18"/></g><g data-id="wl54t1t" data-class="accid" class="accid"/></g><g data-id="q10d8asu" data-class="note" class="note"><g data-class="notehead" class="notehead"><use href="#E0A4-a1eig9kk" transform="translate(5432, 990) scale(0.72, 0.72)"/></g><g data-id="jggetzv" data-class="stem" class="stem"><path d="M5649 962 L5649 360" stroke-width="18"/></g></g><g data-id="rzu3u8" data-class="note" class="note"><g data-class="notehead" class="notehead"><use href="#E0A3-a1eig9kk" transform="translate(6122, 1080) scale(0.72, 0.72)"/></g><g data-id="khoac32" data-class="stem" class="stem"><path d="M6339 1052 L6339 450" stroke-width="18"/></g></g></g></g><g data-id="c1f3a6ug" data-class="barLine" class="barLine"><path d="M7172 540 L7172 1260" stroke-width="27"/></g></g><g data-id="d1ydgzta" data-class="measure" class="measure"><g data-id="tmx35vd" data-class="staff" class="staff"><path d="M7185 540 L10394 540" stroke-width="13"/><path d="M7185 720 L10394 720" stroke-width="13"/><path d="M7185 900 L10394 900" stroke-width="13"/><path d="M7185 1080 L10394 1080" stroke-width="13"/><path d="M7185 1260 L10394 1260" stroke-width="13"/><g data-id="udh5l6m" data-class="layer" class="layer"><g data-id="s1ujxgkc" data-class="note" class="note"><g data-class="notehead" class="notehead"><use href="#E0A4-a1eig9kk" transform="translate(7365, 1080) scale(0.72, 0.72)"/></g><g data-id="l1udx7ti" data-class="stem" class="stem"><path d="M7582 1052 L7582 450" stroke-width="18"/></g></g><g data-id="tjue1un" data-class="note" class="note"><g data-class="notehead" class="notehead"><use href="#E0A4-a1eig9kk" transform="translate(8055, 990) scale(0.72, 0.72)"/></g><g data-id="m12lwne0" data-class="stem" class="stem"><path d="M8272 962 L8272 360" stroke-width="18"/><g data-id="n1hflpon" data-class="flag" class="flag"><use href="#E240-a1eig9kk" transform="translate(8263, 360) scale(0.72, 0.72)"/></g></g></g><g data-id="m1hxagqz" data-class="rest" class="rest"><use href="#E4E6-a1eig9kk" transform="translate(8551, 900) scale(0.72, 0.72)"/></g><g data-id="u1oax6tn" data-class="note" class="note"><g data-class="notehead" class="notehead"><use href="#E0A4-a1eig9kk" transform="translate(9001, 990) scale(0.72, 0.72)"/></g><g data-id="ob6fra9" data-class="stem" class="stem"><path d="M9218 962 L9218 360" stroke-width="18"/></g></g><g data-id="vwgfnl9" data-class="note" class="note"><g data-class="notehead" class="notehead"><use href="#E0A4-a1eig9kk" transform="translate(9691, 810) scale(0.72, 0.72)"/></g><g data-id="p1fwgkh6" data-class="stem" class="stem"><path d="M9700 838 L9700 1440" stroke-width="18"/></g></g></g></g><g data-id="l14orodt" data-class="barLine" class="barLine"><path d="M10381 540 L10381 1260" stroke-width="27"/></g></g><g data-id="c1ik88gb" data-class="systemMilestoneEnd" class="systemMilestoneEnd b13crurp"/></g><g data-id="d1hinn9m" data-class="pageMilestoneEnd" class="pageMilestoneEnd zspwnnm"/><g data-id="e1xprdow" data-class="pageMilestoneEnd" class="pageMilestoneEnd yhgtnpz"/></g></svg></svg>