<svg viewBox="0 0 560 84" version="1.1" xmlns="http://www.w3.org/2000/svg" xmlns:xlink="http://www.w3.org/1999/xlink" overflow="visible" id="r1mgun9r"><desc>Engraved by Verovio 5.6.0-85e7620</desc><defs><g id="E050-r1mgun9r"><path transform="scale(1,-1)" d="M441 -245c-23 -4 -48 -6 -76 -6c-59 0 -102 7 -130 20c-88 42 -150 93 -187 154c-26 44 -43 103 -48 176c0 6 -1 13 -1 19c0 54 15 111 45 170c29 57 65 106 110 148s96 85 153 127c-3 16 -8 46 -13 92c-4 43 -5 73 -5 89c0 117 16 172 69 257c34 54 64 82 89 82 c21 0 43 -30 69 -92s39 -115 41 -159v-15c0 -109 -21 -162 -67 -241c-13 -20 -63 -90 -98 -118c-13 -9 -25 -19 -37 -29l31 -181c8 1 18 2 28 2c58 0 102 -12 133 -35c59 -43 92 -104 98 -184c1 -7 1 -15 1 -22c0 -123 -87 -209 -181 -248c8 -57 17 -110 25 -162 c5 -31 6 -58 6 -80c0 -30 -5 -53 -14 -70c-35 -64 -88 -99 -158 -103c-5 0 -11 -1 -16 -1c-37 0 -72 10 -108 27c-50 24 -77 59 -80 105v11c0 29 7 55 20 76c18 28 45 42 79 44h6c49 0 93 -42 97 -87v-9c0 -51 -34 -86 -105 -106c17 -24 51 -36 102 -36c62 0 116 43 140 85 c9 16 13 41 13 74c0 20 -1 42 -5 67c-8 53 -18 106 -26 159zM461 939c-95 0 -135 -175 -135 -286c0 -24 2 -48 5 -71c50 39 92 82 127 128c40 53 60 100 60 140v8c-4 53 -22 81 -55 81h-2zM406 119l54 -326c73 25 110 78 110 161c0 7 0 15 -1 23c-7 95 -57 142 -151 142h-12 zM382 117c-72 -2 -128 -47 -128 -120v-7c2 -46 43 -99 75 -115c-3 -2 -7 -5 -10 -10c-70 33 -116 88 -123 172v11c0 68 44 126 88 159c23 17 49 29 78 36l-29 170c-21 -13 -52 -37 -92 -73c-50 -44 -86 -84 -109 -119c-45 -69 -67 -130 -67 -182v-13c5 -68 35 -127 93 -176 s125 -73 203 -73c25 0 50 3 75 9c-19 111 -36 221 -54 331z"/></g><g id="E262-r1mgun9r"><path transform="scale(1,-1)" d="M136 186v169h17v-164l44 14v-91l-44 -14v-165l44 12v-91l-44 -13v-155h-17v150l-76 -22v-155h-17v149l-43 -13v90l43 14v167l-43 -14v92l43 13v169h17v-163zM60 73v-167l76 22v168z"/></g><g id="E089-r1mgun9r"><path transform="scale(1,-1)" d="M139 107c0 -51 22 -104 66 -104c38 0 64 48 64 110c0 50 -31 100 -64 100c-40 0 -66 -56 -66 -106zM114 -74c40 0 72 -27 72 -65c0 -8 -3 -19 -9 -34l-7 -16l-5 -15c2 -8 12 -12 31 -12c56 0 84 73 84 219c-32 -24 -71 -36 -119 -36c-29 0 -56 6 -79 20 c-51 26 -57 78 -62 108c0 64 56 155 188 155c158 0 197 -151 197 -237c0 -145 -92 -263 -207 -263c-109 0 -155 68 -155 101c0 46 33 75 71 75z"/></g><g id="E088-r1mgun9r"><path transform="scale(1,-1)" d="M195 -214c76 0 88 58 90 68c0 34 -35 60 -57 73l-52 29c-21 10 -32 17 -34 20c-39 -33 -58 -54 -62 -92c5 -23 23 -98 115 -98zM301 135c0 61 -72 76 -113 76c-40 0 -77 -17 -77 -51c3 -21 15 -38 26 -50c17 -15 33 -26 48 -34l65 -28c34 27 51 56 51 87zM176 -250 c-57 0 -166 26 -166 132c0 47 30 86 89 116c-33 15 -79 60 -79 119c0 79 85 132 178 132h18c5 0 21 1 28 -1c25 0 126 -30 126 -110c0 -37 -23 -76 -69 -116c43 -25 83 -71 83 -119c0 -101 -118 -153 -208 -153z"/></g><g id="E0A3-r1mgun9r"><path transform="scale(1,-1)" d="M278 64c0 22 -17 39 -43 39c-12 0 -26 -3 -41 -10c-85 -43 -165 -94 -165 -156c5 -25 15 -32 49 -32c67 11 200 95 200 159zM0 -36c0 68 73 174 200 174c66 0 114 -39 114 -97c0 -84 -106 -173 -218 -173c-64 0 -96 32 -96 96z"/></g><g id="E0A4-r1mgun9r"><path transform="scale(1,-1)" d="M0 -39c0 68 73 172 200 172c66 0 114 -37 114 -95c0 -84 -106 -171 -218 -171c-64 0 -96 30 -96 94z"/></g></defs><style type="text/css">#r1mgun9r g.page-margin {font-family:Times,serif;}#r1mgun9r g.ending, #r1mgun9r g.fing, #r1mgun9r g.reh, #r1mgun9r g.tempo {font-weight:bold;}#r1mgun9r g.dir, #r1mgun9r g.dynam, #r1mgun9r g.mNum {font-style:italic;}#r1mgun9r g.label {font-weight:normal;}#r1mgun9r path {stroke:currentColor}</style><svg class="definition-scale" color="black" viewBox="0 0 14000 2100"><g class="page-margin" transform="translate(0, 150)"><g data-id="p1gk8tyq" data-class="mdiv" class="mdiv pageMilestone"/><g data-id="qrevzft" data-class="score" class="score pageMilestone"/><g data-id="x1sbvc1y" data-class="system" class="system"><g data-id="sw3p74c" data-class="section" class="section systemMilestone"/><g data-id="s114lupi" data-class="measure" class="measure"><g data-id="e1tz00qr" data-class="staff" class="staff"><path d="M0 540 L5365 540" stroke-width="13"/><path d="M0 720 L5365 720" stroke-width="13"/><path d="M0 900 L5365 900" stroke-width="13"/><path d="M0 1080 L5365 1080" stroke-width="13"/><path d="M0 1260 L5365 1260" stroke-width="13"/><g data-id="x9rzvio" data-class="clef" class="clef"><use href="#E050-r1mgun9r" transform="translate(90, 1080) scale(0.72, 0.72)"/></g><g data-id="yfou3g6" data-class="keySig" class="keySig"><g data-id="z1len3j6" data-class="keyAccid" class="keyAccid"><use href="#E262-r1mgun9r" transform="translate(735, 540) scale(0.72, 0.72)"/></g><g data-id="am77x23" data-class="keyAccid" class="keyAccid"><use href="#E262-r1mgun9r" transform="translate(913, 810) scale(0.72, 0.72)"/></g></g><g data-id="b16kej49" data-class="meterSig" class="meterSig"><use href="#E089-r1mgun9r" transform="translate(1220, 720) scale(0.72, 0.72)"/><use href="#E088-r1mgun9r" transform="translate(1228, 1080) scale(0.72, 0.72)"/></g><g data-id="f1cpt3bg" data-class="layer" class="layer"><g data-id="l1vmrq0y" data-class="note" class="note"><g data-class="notehead" class="notehead"><use href="#E0A3-r1mgun9r" transform="translate(1793, 1350) scale(0.72, 0.72)"/></g><g data-id="blkt6wz" data-class="dots" class="dots"><ellipse cx="2109" cy="1350" rx="36" ry="36" fill-opacity="1" stroke-opacity="1"/></g><g data-id="at6tggi" data-class="stem" class="stem"><path d="M2010 1322 L2010 720" stroke-width="18"/></g></g><g data-id="g1sjg9s8" data-class="beam" class="beam"><polygon stroke-opacity="1" fill-opacity="1" points="3774,540 4982,360 4982,450 3774,630"/><g data-id="mvzhewi" data-class="note" class="note"><g data-class="notehead" class="notehead"><use href="#E0A4-r1mgun9r" transform="translate(3566, 1350) scale(0.72, 0.72)"/></g><g data-id="c1vkemhn" data-class="stem" class="stem"><path d="M3783 1322 L3783 558" stroke-width="18"/></g></g><g data-id="n1iujs8d" data-class="note" class="note"><g data-class="notehead" class="notehead"><use href="#E0A4-r1mgun9r" transform="translate(4161, 1170) scale(0.72, 0.72)"/></g><g data-id="dzvw9re" data-class="stem" class="stem"><path d="M4378 1142 L4378 468" stroke-width="18"/></g><g data-id="jxemyyv" data-class="accid" class="accid"/></g><g data-id="o148evlv" data-class="note" class="note"><g data-class="notehead" class="notehead"><use href="#E0A4-r1mgun9r" transform="translate(4756, 990) scale(0.72, 0.72)"/></g><g data-id="e1c4bcn9" data-class="stem" class="stem"><path d="M4973 962 L4973 378" stroke-width="18"/></g></g></g></g></g><g data-id="a1d65snc" data-class="barLine" class="barLine"><path d="M5352 540 L5352 1260" stroke-width="27"/></g></g><g data-id="b1xxllme" data-class="measure" class="measure"><g data-id="g1br3wp9" data-class="staff" class="staff"><path d="M5365 540 L9683 540" stroke-width="13"/><path d="M5365 720 L9683 720" stroke-width="13"/><path d="M5365 900 L9683 900" stroke-width="13"/><path d="M5365 1080 L9683 1080" stroke-width="13"/><path d="M5365 1260 L9683 1260" stroke-width="13"/><g data-id="h1m24hei" data-class="layer" class="layer"><g data-id="p1eg40dh" data-class="note" class="note"><g data-class="notehead" class="notehead"><use href="#E0A4-r1mgun9r" transform="translate(5557, 900) scale(0.72, 0.72)"/></g><g data-id="gh99evo" data-class="dots" class="dots"><ellipse cx="5873" cy="810" rx="36" ry="36" fill-opacity="1" stroke-opacity="1"/></g><g data-id="fsi9o32" data-class="stem" class="stem"><path d="M5566 928 L5566 1500" stroke-width="18"/></g></g><g data-id="qbzugg6" data-class="note" class="note"><g data-class="notehead" class="notehead"><use href="#E0A4-r1mgun9r" transform="translate(6721, 990) scale(0.72, 0.72)"/></g><g data-id="ii15pdl" data-class="dots" class="dots"><ellipse cx="7037" cy="990" rx="36" ry="36" fill-opacity="1" stroke-opacity="1"/></g><g data-id="h1pxtg05" data-class="stem" class="stem"><path d="M6938 962 L6938 360" stroke-width="18"/></g></g><g data-id="h15g8i1s" data-class="beam" class="beam"><polygon stroke-opacity="1" fill-opacity="1" points="8093,180 9301,540 9301,630 8093,270"/><g data-id="rzf0wor" data-class="note" class="note"><g data-class="notehead" class="notehead"><use href="#E0A4-r1mgun9r" transform="translate(7885, 720) scale(0.72, 0.72)"/></g><g data-id="jx4atjl" data-class="stem" class="stem"><path d="M8102 692 L8102 198" stroke-width="18"/></g></g><g data-id="sg6pcs7" data-class="note" class="note"><g data-class="notehead" class="notehead"><use href="#E0A4-r1mgun9r" transform="translate(8480, 990) scale(0.72, 0.72)"/></g><g data-id="k1vvgrwc" data-class="stem" class="stem"><path d="M8697 962 L8697 378" stroke-width="18"/></g></g><g data-id="t1p2wpb0" data-class="note" class="note"><g data-class="notehead" class="notehead"><use href="#E0A4-r1mgun9r" transform="translate(9075, 1170) scale(0.72, 0.72)"/></g><g data-id="lyysjip" data-class="stem" class="stem"><path d="M9292 1142 L9292 558" stroke-width="18"/></g><g data-id="knfrlha" data-class="accid" class="accid"/></g></g></g></g><g data-id="jnfkda" data-class="barLine" class="barLine"><path d="M9670 540 L9670 1260" stroke-width="27"/></g></g><g data-id="kzpg9ld" data-class="measure" class="measure"><g data-id="ic2yzcm" data-class="staff" class="staff"><path d="M9683 540 L14001 540" stroke-width="13"/><path d="M9683 720 L14001 720" stroke-width="13"/><path d="M9683 900 L14001 900" stroke-width="13"/><path d="M9683 1080 L14001 1080" stroke-width="13"/><path d="M9683 1260 L14001 1260" stroke-width="13"/><g data-id="jonej5b" data-class="layer" class="layer"><g data-id="u1llpjc2" data-class="note" class="note"><g data-class="notehead" class="notehead"><use href="#E0A4-r1mgun9r" transform="translate(9875, 1080) scale(0.72, 0.72)"/></g><g data-id="n1wxfrsd" data-class="dots" class="dots"><ellipse cx="10191" cy="990" rx="36" ry="36" fill-opacity="1" stroke-opacity="1"/></g><g data-id="m1ijdam4" data-class="stem" class="stem"><path d="M10092 1052 L10092 450" stroke-width="18"/></g></g><g data-id="v18s1xau" data-class="note" class="note"><g data-class="notehead" class="notehead"><use href="#E0A4-r1mgun9r" transform="translate(11039, 1170) scale(0.72, 0.72)"/></g><g data-id="pn7njjz" data-class="dots" class="dots"><ellipse cx="11355" cy="1170" rx="36" ry="36" fill-opacity="1" stroke-opacity="1"/></g><g data-id="o1rar56o" data-class="stem" class="stem"><path d="M11256 1142 L11256 540" stroke-width="18"/></g><g data-id="lpfldpx" data-class="accid" class="accid"/></g><g data-id="i1841z0f" data-class="beam" class="beam"><polygon stroke-opacity="1" fill-opacity="1" points="12411,360 13619,540 13619,630 12411,450"/><g data-id="w1od099y" data-class="note" class="note"><g data-class="notehead" class="notehead"><use href="#E0A4-r1mgun9r" transform="translate(12203, 990) scale(0.72, 0.72)"/></g><g data-id="qj301g4" data-class="stem" class="stem"><path d="M12420 962 L12420 378" stroke-width="18"/></g></g><g data-id="xsn072" data-class="note" class="note"><g data-class="notehead" class="notehead"><use href="#E0A4-r1mgun9r" transform="translate(12798, 1170) scale(0.72, 0.72)"/></g><g data-id="rpbdnbw" data-class="stem" class="stem"><path d="M13015 1142 L13015 468" stroke-width="18"/></g><g data-id="m1cn4moh" data-class="accid" class="accid"/></g><g data-id="y1jaerew" data-class="note" class="note"><g data-class="notehead" class="notehead"><use href="#E0A4-r1mgun9r" transform="translate(13393, 1260) scale(0.72, 0.72)"/></g><g data-id="sr4boxk" data-class="stem" class="stem"><path d="M13610 1232 L13610 558" stroke-width="18"/></g></g></g></g></g><g data-id="s1nvrkkh" data-class="barLine" class="barLine"><path d="M13988 540 L13988 1260" stroke-width="27"/></g></g></g></g></svg></svg>