<svg viewBox="0 0 560 84" version="1.1" xmlns="http://www.w3.org/2000/svg" xmlns:xlink="http://www.w3.org/1999/xlink" overflow="visible" id="f4tvlpx"><desc>Engraved by Verovio 5.6.0-85e7620</desc><defs><g id="E050-f4tvlpx"><path transform="scale(1,-1)" d="M441 -245c-23 -4 -48 -6 -76 -6c-59 0 -102 7 -130 20c-88 42 -150 93 -187 154c-26 44 -43 103 -48 176c0 6 -1 13 -1 19c0 54 15 111 45 170c29 57 65 106 110 148s96 85 153 127c-3 16 -8 46 -13 92c-4 43 -5 73 -5 89c0 117 16 172 69 257c34 54 64 82 89 82 c21 0 43 -30 69 -92s39 -115 41 -159v-15c0 -109 -21 -162 -67 -241c-13 -20 -63 -90 -98 -118c-13 -9 -25 -19 -37 -29l31 -181c8 1 18 2 28 2c58 0 102 -12 133 -35c59 -43 92 -104 98 -184c1 -7 1 -15 1 -22c0 -123 -87 -209 -181 -248c8 -57 17 -110 25 -162 c5 -31 6 -58 6 -80c0 -30 -5 -53 -14 -70c-35 -64 -88 -99 -158 -103c-5 0 -11 -1 -16 -1c-37 0 -72 10 -108 27c-50 24 -77 59 -80 105v11c0 29 7 55 20 76c18 28 45 42 79 44h6c49 0 93 -42 97 -87v-9c0 -51 -34 -86 -105 -106c17 -24 51 -36 102 -36c62 0 116 43 140 85 c9 16 13 41 13 74c0 20 -1 42 -5 67c-8 53 -18 106 -26 159zM461 939c-95 0 -135 -175 -135 -286c0 -24 2 -48 5 -71c50 39 92 82 127 128c40 53 60 100 60 140v8c-4 53 -22 81 -55 81h-2zM406 119l54 -326c73 25 110 78 110 161c0 7 0 15 -1 23c-7 95 -57 142 -151 142h-12 zM382 117c-72 -2 -128 -47 -128 -120v-7c2 -46 43 -99 75 -115c-3 -2 -7 -5 -10 -10c-70 33 -116 88 -123 172v11c0 68 44 126 88 159c23 17 49 29 78 36l-29 170c-21 -13 -52 -37 -92 -73c-50 -44 -86 -84 -109 -119c-45 -69 -67 -130 -67 -182v-13c5 -68 35 -127 93 -176 s125 -73 203 -73c25 0 50 3 75 9c-19 111 -36 221 -54 331z"/></g><g id="E262-f4tvlpx"><path transform="scale(1,-1)" d="M136 186v169h17v-164l44 14v-91l-44 -14v-165l44 12v-91l-44 -13v-155h-17v150l-76 -22v-155h-17v149l-43 -13v90l43 14v167l-43 -14v92l43 13v169h17v-163zM60 73v-167l76 22v168z"/></g><g id="E082-f4tvlpx"><path transform="scale(1,-1)" d="M124 -185c-18 0 -55 -14 -65 -65h-36l-3 30c0 25 6 45 18 63c11 19 22 30 39 43l121 82l37 29c15 11 27 29 38 54c12 24 18 47 18 70c0 40 -19 88 -94 88c-25 0 -32 0 -50 -8c-14 -5 -23 -12 -26 -22c3 -9 7 -15 10 -18l24 -17c12 -7 17 -11 27 -21c5 -7 7 -16 7 -27 c0 -12 0 -57 -79 -74c-30 0 -76 26 -76 94c0 66 81 135 197 135c72 0 181 -32 181 -150c0 -53 -32 -95 -113 -133l-91 -41c-26 -11 -45 -23 -57 -37l49 7c84 0 115 -41 148 -41c20 0 33 20 39 61h35c0 -152 -68 -168 -114 -168c-17 0 -65 0 -79 7h10l-28 17 c-49 37 -69 40 -87 42z"/></g><g id="E084-f4tvlpx"><path transform="scale(1,-1)" d="M20 -78c84 97 114 180 134 329h170c-13 -32 -82 -132 -99 -151l-84 -97c-33 -36 -59 -63 -80 -81h162v102l127 123v-225h57v-39h-57v-34c0 -43 19 -65 57 -65v-34h-244v36c48 0 60 26 60 70v27h-203v39z"/></g><g id="E0A4-f4tvlpx"><path transform="scale(1,-1)" d="M0 -39c0 68 73 172 200 172c66 0 114 -37 114 -95c0 -84 -106 -171 -218 -171c-64 0 -96 30 -96 94z"/></g><g id="E241-f4tvlpx"><path transform="scale(1,-1)" d="M179 646c-4 8 -17 30 -18 33l-4 10c0 3 2 5 5 5s7 -2 13 -7c23 -33 46 -81 66 -132c22 -57 35 -125 35 -163c0 -104 -60 -183 -122 -241c-63 -59 -57 -53 -61 -56c-38 -34 -63 -95 -71 -95h-22v190c40 7 69 11 87 16c88 27 168 95 168 200c0 30 -12 89 -30 138 c-17 47 -31 73 -46 102z"/></g></defs><style type="text/css">#f4tvlpx g.page-margin {font-family:Times,serif;}#f4tvlpx g.ending, #f4tvlpx g.fing, #f4tvlpx g.reh, #f4tvlpx g.tempo {font-weight:bold;}#f4tvlpx g.dir, #f4tvlpx g.dynam, #f4tvlpx g.mNum {font-style:italic;}#f4tvlpx g.label {font-weight:normal;}#f4tvlpx path {stroke:currentColor}</style><svg class="definition-scale" color="black" viewBox="0 0 14000 2100"><g class="page-margin" transform="translate(0, 150)"><g data-id="c17s3ngq" data-class="mdiv" class="mdiv pageMilestone"/><g data-id="d121b5mj" data-class="score" class="score pageMilestone"/><g data-id="v1yvns91" data-class="system" class="system"><g data-id="ftubr3g" data-class="section" class="section systemMilestone"/><g data-id="g1v76tus" data-class="measure" class="measure"><g data-id="r4ay73d" data-class="staff" class="staff"><path d="M0 540 L2078 540" stroke-width="13"/><path d="M0 720 L2078 720" stroke-width="13"/><path d="M0 900 L2078 900" stroke-width="13"/><path d="M0 1080 L2078 1080" stroke-width="13"/><path d="M0 1260 L2078 1260" stroke-width="13"/><g data-id="c1kkjy0k" data-class="clef" class="clef"><use href="#E050-f4tvlpx" transform="translate(90, 1080) scale(0.72, 0.72)"/></g><g data-id="d10kc5e4" data-class="keySig" class="keySig"><g data-id="e38ajc7" data-class="keyAccid" class="keyAccid"><use href="#E262-f4tvlpx" transform="translate(735, 540) scale(0.72, 0.72)"/></g></g><g data-id="f16jpnqz" data-class="meterSig" class="meterSig"><use href="#E082-f4tvlpx" transform="translate(1042, 720) scale(0.72, 0.72)"/><use href="#E084-f4tvlpx" transform="translate(1047, 1080) scale(0.72, 0.72)"/></g><g data-id="swxw6xw" data-class="layer" class="layer"><g data-id="qcxvgr3" data-class="note" class="note"><g data-class="notehead" class="notehead"><use href="#E0A4-f4tvlpx" transform="translate(1615, 720) scale(0.72, 0.72)"/></g><g data-id="k1np9xsb" data-class="stem" class="stem"><path d="M1624 748 L1624 1350" stroke-width="18"/><g data-id="lv31aze" data-class="flag" class="flag"><use href="#E241-f4tvlpx" transform="translate(1615, 1350) scale(0.72, 0.72)"/></g></g></g></g></g><g data-id="a811b9p" data-class="tie" class="tie"><path d="M1886,675 C1953,522 2141,522 2213,675 C2116,569 1980,569 1886,675" stroke-linecap="round" stroke-linejoin="round" stroke-width="9"/></g><g data-id="ovx3t3m" data-class="barLine" class="barLine"><path d="M2065 540 L2065 1260" stroke-width="27"/></g></g><g data-id="p6b5rt0" data-class="measure" class="measure"><g data-id="tyrvfjg" data-class="staff" class="staff"><path d="M2078 540 L3601 540" stroke-width="13"/><path d="M2078 720 L3601 720" stroke-width="13"/><path d="M2078 900 L3601 900" stroke-width="13"/><path d="M2078 1080 L3601 1080" stroke-width="13"/><path d="M2078 1260 L3601 1260" stroke-width="13"/><g data-id="u1ihvw3e" data-class="layer" class="layer"><g data-id="r191b6h8" data-class="note" class="note"><g data-class="notehead" class="notehead"><use href="#E0A4-f4tvlpx" transform="translate(2258, 720) scale(0.72, 0.72)"/></g><g data-id="nnec932" data-class="dots" class="dots"><ellipse cx="2574" cy="630" rx="36" ry="36" fill-opacity="1" stroke-opacity="1"/></g><g data-id="micf2o7" data-class="stem" class="stem"><path d="M2267 748 L2267 1350" stroke-width="18"/></g></g><g data-id="sthwd6k" data-class="note" class="note"><g data-class="notehead" class="notehead"><use href="#E0A4-f4tvlpx" transform="translate(3138, 720) scale(0.72, 0.72)"/></g><g data-id="o1xi2a1s" data-class="stem" class="stem"><path d="M3147 748 L3147 1350" stroke-width="18"/><g data-id="p1n6j8j3" data-class="flag" class="flag"><use href="#E241-f4tvlpx" transform="translate(3138, 1350) scale(0.72, 0.72)"/></g></g></g></g></g><g data-id="x16m2dry" data-class="barLine" class="barLine"><path d="M3588 540 L3588 1260" stroke-width="27"/></g></g><g data-id="ydzjoms" data-class="measure" class="measure"><g data-id="vwd1bot" data-class="staff" class="staff"><path d="M3601 540 L5124 540" stroke-width="13"/><path d="M3601 720 L5124 720" stroke-width="13"/><path d="M3601 900 L5124 900" stroke-width="13"/><path d="M3601 1080 L5124 1080" stroke-width="13"/><path d="M3601 1260 L5124 1260" stroke-width="13"/><g data-id="w1opnmkf" data-class="layer" class="layer"><g data-id="t1q7w4in" data-class="note" class="note"><g data-class="notehead" class="notehead"><use href="#E0A4-f4tvlpx" transform="translate(3781, 720) scale(0.72, 0.72)"/></g><g data-id="rmb2epy" data-class="dots" class="dots"><ellipse cx="4097" cy="630" rx="36" ry="36" fill-opacity="1" stroke-opacity="1"/></g><g data-id="qeuxb5b" data-class="stem" class="stem"><path d="M3790 748 L3790 1350" stroke-width="18"/></g></g><g data-id="u890le0" data-class="note" class="note"><g data-class="notehead" class="notehead"><use href="#E0A4-f4tvlpx" transform="translate(4661, 450) scale(0.72, 0.72)"/></g><g data-id="sjseb2e" data-class="stem" class="stem"><path d="M4670 478 L4670 1080" stroke-width="18"/><g data-id="t1mmoa14" data-class="flag" class="flag"><use href="#E241-f4tvlpx" transform="translate(4661, 1080) scale(0.72, 0.72)"/></g></g></g></g></g><g data-id="g1salgm4" data-class="barLine" class="barLine"><path d="M5111 540 L5111 1260" stroke-width="27"/></g></g><g data-id="h1ttib5l" data-class="measure" class="measure"><g data-id="xstmsop" data-class="staff" class="staff"><path d="M5124 540 L7117 540" stroke-width="13"/><path d="M5124 720 L7117 720" stroke-width="13"/><path d="M5124 900 L7117 900" stroke-width="13"/><path d="M5124 1080 L7117 1080" stroke-width="13"/><path d="M5124 1260 L7117 1260" stroke-width="13"/><g data-id="y1a13l2i" data-class="layer" class="layer"><g data-id="z1mdcsi" data-class="beam" class="beam"><polygon stroke-opacity="1" fill-opacity="1" points="5304,1530 6672,1530 6672,1440 5304,1440"/><g data-id="v1yih8jj" data-class="note" class="note"><g data-class="notehead" class="notehead"><use href="#E0A4-f4tvlpx" transform="translate(5304, 720) scale(0.72, 0.72)"/></g><g data-id="u1ezbksc" data-class="stem" class="stem"><path d="M5313 748 L5313 1512" stroke-width="18"/></g></g><g data-id="w1km6iah" data-class="note" class="note"><g data-class="notehead" class="notehead"><use href="#E0A4-f4tvlpx" transform="translate(5754, 900) scale(0.72, 0.72)"/></g><g data-id="v1aulq9r" data-class="stem" class="stem"><path d="M5763 928 L5763 1512" stroke-width="18"/></g></g><g data-id="x1v29snz" data-class="note" class="note"><g data-class="notehead" class="notehead"><use href="#E0A4-f4tvlpx" transform="translate(6204, 990) scale(0.72, 0.72)"/></g><g data-id="wu09erg" data-class="stem" class="stem"><path d="M6213 1018 L6213 1512" stroke-width="18"/></g></g><g data-id="y10pzse2" data-class="note" class="note"><g data-class="notehead" class="notehead"><use href="#E0A4-f4tvlpx" transform="translate(6654, 810) scale(0.72, 0.72)"/></g><g data-id="xqztk2r" data-class="stem" class="stem"><path d="M6663 838 L6663 1512" stroke-width="18"/></g></g></g></g></g><g data-id="p10zhytb" data-class="barLine" class="barLine"><path d="M7104 540 L7104 1260" stroke-width="27"/></g></g><g data-id="g382e4g" data-class="systemMilestoneEnd" class="systemMilestoneEnd ftubr3g"/></g><g data-id="h1juf5w" data-class="pageMilestoneEnd" class="pageMilestoneEnd d121b5mj"/><g data-id="i8aoipl" data-class="pageMilestoneEnd" class="pageMilestoneEnd c17s3ngq"/></g></svg></svg>