<svg viewBox="0 0 560 84" version="1.1" xmlns="http://www.w3.org/2000/svg" xmlns:xlink="http://www.w3.org/1999/xlink" overflow="visible" id="n1hyjyp"><desc>Engraved by Verovio 5.6.0-85e7620</desc><defs><g id="E050-n1hyjyp"><path transform="scale(1,-1)" d="M441 -245c-23 -4 -48 -6 -76 -6c-59 0 -102 7 -130 20c-88 42 -150 93 -187 154c-26 44 -43 103 -48 176c0 6 -1 13 -1 19c0 54 15 111 45 170c29 57 65 106 110 148s96 85 153 127c-3 16 -8 46 -13 92c-4 43 -5 73 -5 89c0 117 16 172 69 257c34 54 64 82 89 82 c21 0 43 -30 69 -92s39 -115 41 -159v-15c0 -109 -21 -162 -67 -241c-13 -20 -63 -90 -98 -118c-13 -9 -25 -19 -37 -29l31 -181c8 1 18 2 28 2c58 0 102 -12 133 -35c59 -43 92 -104 98 -184c1 -7 1 -15 1 -22c0 -123 -87 -209 -181 -248c8 -57 17 -110 25 -162 c5 -31 6 -58 6 -80c0 -30 -5 -53 -14 -70c-35 -64 -88 -99 -158 -103c-5 0 -11 -1 -16 -1c-37 0 -72 10 -108 27c-50 24 -77 59 -80 105v11c0 29 7 55 20 76c18 28 45 42 79 44h6c49 0 93 -42 97 -87v-9c0 -51 -34 -86 -105 -106c17 -24 51 -36 102 -36c62 0 116 43 140 85 c9 16 13 41 13 74c0 20 -1 42 -5 67c-8 53 -18 106 -26 159zM461 939c-95 0 -135 -175 -135 -286c0 -24 2 -48 5 -71c50 39 92 82 127 128c40 53 60 100 60 140v8c-4 53 -22 81 -55 81h-2zM406 119l54 -326c73 25 110 78 110 161c0 7 0 15 -1 23c-7 95 -57 142 -151 142h-12 zM382 117c-72 -2 -128 -47 -128 -120v-7c2 -46 43 -99 75 -115c-3 -2 -7 -5 -10 -10c-70 33 -116 88 -123 172v11c0 68 44 126 88 159c23 17 49 29 78 36l-29 170c-21 -13 -52 -37 -92 -73c-50 -44 -86 -84 -109 -119c-45 -69 -67 -130 -67 -182v-13c5 -68 35 -127 93 -176 s125 -73 203 -73c25 0 50 3 75 9c-19 111 -36 221 -54 331z"/></g><g id="E260-n1hyjyp"><path transform="scale(1,-1)" d="M20 110c32 16 54 27 93 27c26 0 35 -3 54 -13c13 -7 24 -20 27 -38l4 -25c0 -28 -16 -57 -45 -89c-23 -25 -39 -44 -65 -68l-88 -79v644h20v-359zM90 106c-32 0 -48 -10 -70 -29v-194c31 31 54 59 71 84c21 32 32 59 32 84c0 9 1 16 1 20c0 14 -3 21 -11 30l-8 3z"/></g><g id="E086-n1hyjyp"><path transform="scale(1,-1)" d="M284 -91c0 37 -28 92 -67 92c-35 0 -65 -54 -65 -111c0 -52 22 -104 68 -104c47 0 64 68 64 123zM230 214c-36 0 -90 -33 -90 -184l2 -36c40 24 81 36 120 36c80 0 140 -48 140 -121c0 -99 -99 -159 -182 -159c-160 0 -200 173 -200 244c0 21 2 43 7 71l10 35 c26 85 73 115 98 126c41 19 74 24 103 24c93 0 142 -63 142 -105c0 -58 -52 -72 -73 -72c-33 0 -59 24 -65 35c-3 5 -6 14 -7 25l11 30c6 15 9 27 9 35c0 11 -9 16 -25 16z"/></g><g id="E088-n1hyjyp"><path transform="scale(1,-1)" d="M195 -214c76 0 88 58 90 68c0 34 -35 60 -57 73l-52 29c-21 10 -32 17 -34 20c-39 -33 -58 -54 -62 -92c5 -23 23 -98 115 -98zM301 135c0 61 -72 76 -113 76c-40 0 -77 -17 -77 -51c3 -21 15 -38 26 -50c17 -15 33 -26 48 -34l65 -28c34 27 51 56 51 87zM176 -250 c-57 0 -166 26 -166 132c0 47 30 86 89 116c-33 15 -79 60 -79 119c0 79 85 132 178 132h18c5 0 21 1 28 -1c25 0 126 -30 126 -110c0 -37 -23 -76 -69 -116c43 -25 83 -71 83 -119c0 -101 -118 -153 -208 -153z"/></g><g id="E0A4-n1hyjyp"><path transform="scale(1,-1)" d="M0 -39c0 68 73 172 200 172c66 0 114 -37 114 -95c0 -84 -106 -171 -218 -171c-64 0 -96 30 -96 94z"/></g><g id="E241-n1hyjyp"><path transform="scale(1,-1)" d="M179 646c-4 8 -17 30 -18 33l-4 10c0 3 2 5 5 5s7 -2 13 -7c23 -33 46 -81 66 -132c22 -57 35 -125 35 -163c0 -104 -60 -183 -122 -241c-63 -59 -57 -53 -61 -56c-38 -34 -63 -95 -71 -95h-22v190c40 7 69 11 87 16c88 27 168 95 168 200c0 30 -12 89 -30 138 c-17 47 -31 73 -46 102z"/></g><g id="E240-n1hyjyp"><path transform="scale(1,-1)" d="M179 -646c15 29 29 55 46 102c18 49 30 108 30 138c0 105 -80 173 -168 200c-18 5 -47 9 -87 16v190h22c8 0 33 -61 71 -95c4 -3 -2 3 61 -56c62 -58 122 -137 122 -241c0 -38 -13 -106 -35 -163c-20 -51 -43 -99 -66 -132c-6 -5 -10 -7 -13 -7s-5 2 -5 5l4 10 c1 3 14 25 18 33z"/></g></defs><style type="text/css">#n1hyjyp g.page-margin {font-family:Times,serif;}#n1hyjyp g.ending, #n1hyjyp g.fing, #n1hyjyp g.reh, #n1hyjyp g.tempo {font-weight:bold;}#n1hyjyp g.dir, #n1hyjyp g.dynam, #n1hyjyp g.mNum {font-style:italic;}#n1hyjyp g.label {font-weight:normal;}#n1hyjyp path {stroke:currentColor}</style><svg class="definition-scale" color="black" viewBox="0 0 14000 2100"><g class="page-margin" transform="translate(0, 150)"><g data-id="n2wo39e" data-class="mdiv" class="mdiv pageMilestone"/><g data-id="o19dj75a" data-class="score" class="score pageMilestone"/><g data-id="x140zgl3" data-class="system" class="system"><g data-id="q1ur86c1" data-class="section" class="section systemMilestone"/><g data-id="o1r81024" data-class="measure" class="measure"><g data-id="c1tnehja" data-class="staff" class="staff"><path d="M0 540 L4272 540" stroke-width="13"/><path d="M0 720 L4272 720" stroke-width="13"/><path d="M0 900 L4272 900" stroke-width="13"/><path d="M0 1080 L4272 1080" stroke-width="13"/><path d="M0 1260 L4272 1260" stroke-width="13"/><g data-id="c1haz77f" data-class="clef" class="clef"><use href="#E050-n1hyjyp" transform="translate(90, 1080) scale(0.72, 0.72)"/></g><g data-id="dwhgptd" data-class="keySig" class="keySig"><g data-id="e3yhp26" data-class="keyAccid" class="keyAccid"><use href="#E260-n1hyjyp" transform="translate(735, 900) scale(0.72, 0.72)"/></g><g data-id="fzy6b0v" data-class="keyAccid" class="keyAccid"><use href="#E260-n1hyjyp" transform="translate(915, 630) scale(0.72, 0.72)"/></g><g data-id="gf7g4h2" data-class="keyAccid" class="keyAccid"><use href="#E260-n1hyjyp" transform="translate(1095, 990) scale(0.72, 0.72)"/></g></g><g data-id="h1jyrwlt" data-class="meterSig" class="meterSig"><use href="#E086-n1hyjyp" transform="translate(1403, 720) scale(0.72, 0.72)"/><use href="#E088-n1hyjyp" transform="translate(1410, 1080) scale(0.72, 0.72)"/></g><g data-id="ds6layc" data-class="layer" class="layer"><g data-id="hm9u2b5" data-class="note" class="note"><g data-class="notehead" class="notehead"><use href="#E0A4-n1hyjyp" transform="translate(1970, 900) scale(0.72, 0.72)"/></g><g data-id="z1trxw5u" data-class="stem" class="stem"><path d="M1979 928 L1979 1500" stroke-width="18"/></g><g data-id="dldi6vf" data-class="accid" class="accid"/></g><g data-id="i1211etp" data-class="note" class="note"><g data-class="notehead" class="notehead"><use href="#E0A4-n1hyjyp" transform="translate(2663, 810) scale(0.72, 0.72)"/></g><g data-id="a1x40sf3" data-class="stem" class="stem"><path d="M2672 838 L2672 1440" stroke-width="18"/><g data-id="bish9y8" data-class="flag" class="flag"><use href="#E241-n1hyjyp" transform="translate(2663, 1440) scale(0.72, 0.72)"/></g></g></g><g data-id="j1jovkmz" data-class="note" class="note"><g data-class="notehead" class="notehead"><use href="#E0A4-n1hyjyp" transform="translate(3114, 900) scale(0.72, 0.72)"/></g><g data-id="c24uven" data-class="stem" class="stem"><path d="M3123 928 L3123 1500" stroke-width="18"/></g><g data-id="e1gq0q7" data-class="accid" class="accid"/></g><g data-id="k1zwors" data-class="note" class="note"><g data-class="notehead" class="notehead"><use href="#E0A4-n1hyjyp" transform="translate(3807, 630) scale(0.72, 0.72)"/></g><g data-id="d13e8zwa" data-class="stem" class="stem"><path d="M3816 658 L3816 1260" stroke-width="18"/><g data-id="e182v5gp" data-class="flag" class="flag"><use href="#E241-n1hyjyp" transform="translate(3807, 1260) scale(0.72, 0.72)"/></g></g><g data-id="f1n09c6s" data-class="accid" class="accid"/></g></g></g><g data-id="w13rjjcn" data-class="barLine" class="barLine"><path d="M4259 540 L4259 1260" stroke-width="27"/></g></g><g data-id="xk22dyf" data-class="measure" class="measure"><g data-id="er8p5f3" data-class="staff" class="staff"><path d="M4272 540 L6762 540" stroke-width="13"/><path d="M4272 720 L6762 720" stroke-width="13"/><path d="M4272 900 L6762 900" stroke-width="13"/><path d="M4272 1080 L6762 1080" stroke-width="13"/><path d="M4272 1260 L6762 1260" stroke-width="13"/><g data-id="fuclpxt" data-class="layer" class="layer"><g data-id="l1khz58v" data-class="note" class="note"><g data-class="notehead" class="notehead"><use href="#E0A4-n1hyjyp" transform="translate(4460, 900) scale(0.72, 0.72)"/></g><g data-id="f1od4utz" data-class="stem" class="stem"><path d="M4469 928 L4469 1500" stroke-width="18"/></g><g data-id="gc6cwgq" data-class="accid" class="accid"/></g><g data-id="mejtzo9" data-class="note" class="note"><g data-class="notehead" class="notehead"><use href="#E0A4-n1hyjyp" transform="translate(5153, 810) scale(0.72, 0.72)"/></g><g data-id="g1mnvema" data-class="stem" class="stem"><path d="M5162 838 L5162 1440" stroke-width="18"/><g data-id="h13jkfmq" data-class="flag" class="flag"><use href="#E241-n1hyjyp" transform="translate(5153, 1440) scale(0.72, 0.72)"/></g></g></g><g data-id="n1t3djwq" data-class="note" class="note"><g data-class="notehead" class="notehead"><use href="#E0A4-n1hyjyp" transform="translate(5604, 900) scale(0.72, 0.72)"/></g><g data-id="i1xqm8ap" data-class="stem" class="stem"><path d="M5613 928 L5613 1500" stroke-width="18"/><g data-id="j1lha6x7" data-class="flag" class="flag"><use href="#E241-n1hyjyp" transform="translate(5604, 1500) scale(0.72, 0.72)"/></g></g><g data-id="h18r8exq" data-class="accid" class="accid"/></g><g data-id="o19bhwo7" data-class="note" class="note"><g data-class="notehead" class="notehead"><use href="#E0A4-n1hyjyp" transform="translate(6056, 1080) scale(0.72, 0.72)"/></g><g data-id="kplaai6" data-class="stem" class="stem"><path d="M6273 1052 L6273 450" stroke-width="18"/></g></g></g></g><g data-id="fmkr17q" data-class="barLine" class="barLine"><path d="M6749 540 L6749 1260" stroke-width="27"/></g></g><g data-id="g3c6y2s" data-class="measure" class="measure"><g data-id="g1yxt7ks" data-class="staff" class="staff"><path d="M6762 540 L9816 540" stroke-width="13"/><path d="M6762 720 L9816 720" stroke-width="13"/><path d="M6762 900 L9816 900" stroke-width="13"/><path d="M6762 1080 L9816 1080" stroke-width="13"/><path d="M6762 1260 L9816 1260" stroke-width="13"/><g data-id="h6dbl4k" data-class="layer" class="layer"><g data-id="an8bgj5" data-class="beam" class="beam"><polygon stroke-opacity="1" fill-opacity="1" points="7158,540 7627,495 7627,585 7158,630"/><g data-id="p1lxmkvg" data-class="note" class="note"><g data-class="notehead" class="notehead"><use href="#E0A4-n1hyjyp" transform="translate(6950, 1260) scale(0.72, 0.72)"/></g><g data-id="ln7ijya" data-class="stem" class="stem"><path d="M7167 1232 L7167 558" stroke-width="18"/></g><g data-id="i1t9g8ey" data-class="accid" class="accid"/></g><g data-id="q1ilytyf" data-class="note" class="note"><g data-class="notehead" class="notehead"><use href="#E0A4-n1hyjyp" transform="translate(7401, 1170) scale(0.72, 0.72)"/></g><g data-id="mga84rv" data-class="stem" class="stem"><path d="M7618 1142 L7618 513" stroke-width="18"/></g></g></g><g data-id="r1hbmdhf" data-class="note" class="note"><g data-class="notehead" class="notehead"><use href="#E0A4-n1hyjyp" transform="translate(7853, 1080) scale(0.72, 0.72)"/></g><g data-id="n1ft5wxb" data-class="stem" class="stem"><path d="M8070 1052 L8070 450" stroke-width="18"/><g data-id="o16gziof" data-class="flag" class="flag"><use href="#E240-n1hyjyp" transform="translate(8061, 450) scale(0.72, 0.72)"/></g></g></g><g data-id="b7smgwl" data-class="beam" class="beam"><polygon stroke-opacity="1" fill-opacity="1" points="8577,315 9047,360 9047,450 8577,405"/><g data-id="sgo6vl3" data-class="note" class="note"><g data-class="notehead" class="notehead"><use href="#E0A4-n1hyjyp" transform="translate(8369, 900) scale(0.72, 0.72)"/></g><g data-id="p1hv90ej" data-class="stem" class="stem"><path d="M8586 872 L8586 333" stroke-width="18"/></g><g data-id="j1bxy9sc" data-class="accid" class="accid"/></g><g data-id="t9eubos" data-class="note" class="note"><g data-class="notehead" class="notehead"><use href="#E0A4-n1hyjyp" transform="translate(8821, 990) scale(0.72, 0.72)"/></g><g data-id="q1e0mfno" data-class="stem" class="stem"><path d="M9038 962 L9038 378" stroke-width="18"/></g><g data-id="k1sxub24" data-class="accid" class="accid"/></g></g><g data-id="ukyobuy" data-class="note" class="note"><g data-class="notehead" class="notehead"><use href="#E0A4-n1hyjyp" transform="translate(9272, 1080) scale(0.72, 0.72)"/></g><g data-id="r1r518ls" data-class="stem" class="stem"><path d="M9489 1052 L9489 450" stroke-width="18"/><g data-id="s8qtmok" data-class="flag" class="flag"><use href="#E240-n1hyjyp" transform="translate(9480, 450) scale(0.72, 0.72)"/></g></g></g></g></g><g data-id="o14lzw3a" data-class="barLine" class="barLine"><path d="M9803 540 L9803 1260" stroke-width="27"/></g></g><g data-id="pxqltus" data-class="measure" class="measure"><g data-id="imwei5l" data-class="staff" class="staff"><path d="M9816 540 L12595 540" stroke-width="13"/><path d="M9816 720 L12595 720" stroke-width="13"/><path d="M9816 900 L12595 900" stroke-width="13"/><path d="M9816 1080 L12595 1080" stroke-width="13"/><path d="M9816 1260 L12595 1260" stroke-width="13"/><g data-id="j1ebzjas" data-class="layer" class="layer"><g data-id="cxx3hol" data-class="beam" class="beam"><polygon stroke-opacity="1" fill-opacity="1" points="10212,360 10681,315 10681,405 10212,450"/><g data-id="v1wshu5g" data-class="note" class="note"><g data-class="notehead" class="notehead"><use href="#E0A4-n1hyjyp" transform="translate(10004, 1170) scale(0.72, 0.72)"/></g><g data-id="t1msvav9" data-class="stem" class="stem"><path d="M10221 1142 L10221 378" stroke-width="18"/></g></g><g data-id="wf74xsn" data-class="note" class="note"><g data-class="notehead" class="notehead"><use href="#E0A4-n1hyjyp" transform="translate(10455, 990) scale(0.72, 0.72)"/></g><g data-id="u14x17xm" data-class="stem" class="stem"><path d="M10672 962 L10672 333" stroke-width="18"/></g><g data-id="l1s9e1ch" data-class="accid" class="accid"/></g></g><g data-id="x164au14" data-class="note" class="note"><g data-class="notehead" class="notehead"><use href="#E0A4-n1hyjyp" transform="translate(10907, 1080) scale(0.72, 0.72)"/></g><g data-id="vpf13dx" data-class="stem" class="stem"><path d="M11124 1052 L11124 450" stroke-width="18"/><g data-id="w16se2la" data-class="flag" class="flag"><use href="#E240-n1hyjyp" transform="translate(11115, 450) scale(0.72, 0.72)"/></g></g></g><g data-id="y1f1qek6" data-class="note" class="note"><g data-class="notehead" class="notehead"><use href="#E0A4-n1hyjyp" transform="translate(11358, 1080) scale(0.72, 0.72)"/></g><g data-id="xu2d2rk" data-class="stem" class="stem"><path d="M11575 1052 L11575 450" stroke-width="18"/></g></g><g data-id="z14bsjag" data-class="note" class="note"><g data-class="notehead" class="notehead"><use href="#E0A4-n1hyjyp" transform="translate(12051, 1170) scale(0.72, 0.72)"/></g><g data-id="y34uj6z" data-class="stem" class="stem"><path d="M12268 1142 L12268 540" stroke-width="18"/><g data-id="z1nphva9" data-class="flag" class="flag"><use href="#E240-n1hyjyp" transform="translate(12259, 540) scale(0.72, 0.72)"/></g></g></g></g></g><g data-id="xsg7wf" data-class="barLine" class="barLine"><path d="M12582 540 L12582 1260" stroke-width="27"/></g></g><g data-id="y1kvqfd4" data-class="measure" class="measure"><g data-id="k6foz9i" data-class="staff" class="staff"><path d="M12595 540 L14002 540" stroke-width="13"/><path d="M12595 720 L14002 720" stroke-width="13"/><path d="M12595 900 L14002 900" stroke-width="13"/><path d="M12595 1080 L14002 1080" stroke-width="13"/><path d="M12595 1260 L14002 1260" stroke-width="13"/><g data-id="l12wnosa" data-class="layer" class="layer"/></g><g data-id="ga3dwdu" data-class="barLine" class="barLine"/></g><g data-id="t1w3zsod" data-class="systemMilestoneEnd" class="systemMilestoneEnd q1ur86c1"/></g><g data-id="ux4o0el" data-class="pageMilestoneEnd" class="pageMilestoneEnd o19dj75a"/><g data-id="v1623tq9" data-class="pageMilestoneEnd" class="pageMilestoneEnd n2wo39e"/></g></svg></svg>