<svg viewBox="0 0 560 84" version="1.1" xmlns="http://www.w3.org/2000/svg" xmlns:xlink="http://www.w3.org/1999/xlink" overflow="visible" id="o1inndrc"><desc>Engraved by Verovio 5.6.0-85e7620</desc><defs><g id="E050-o1inndrc"><path transform="scale(1,-1)" d="M441 -245c-23 -4 -48 -6 -76 -6c-59 0 -102 7 -130 20c-88 42 -150 93 -187 154c-26 44 -43 103 -48 176c0 6 -1 13 -1 19c0 54 15 111 45 170c29 57 65 106 110 148s96 85 153 127c-3 16 -8 46 -13 92c-4 43 -5 73 -5 89c0 117 16 172 69 257c34 54 64 82 89 82 c21 0 43 -30 69 -92s39 -115 41 -159v-15c0 -109 -21 -162 -67 -241c-13 -20 -63 -90 -98 -118c-13 -9 -25 -19 -37 -29l31 -181c8 1 18 2 28 2c58 0 102 -12 133 -35c59 -43 92 -104 98 -184c1 -7 1 -15 1 -22c0 -123 -87 -209 -181 -248c8 -57 17 -110 25 -162 c5 -31 6 -58 6 -80c0 -30 -5 -53 -14 -70c-35 -64 -88 -99 -158 -103c-5 0 -11 -1 -16 -1c-37 0 -72 10 -108 27c-50 24 -77 59 -80 105v11c0 29 7 55 20 76c18 28 45 42 79 44h6c49 0 93 -42 97 -87v-9c0 -51 -34 -86 -105 -106c17 -24 51 -36 102 -36c62 0 116 43 140 85 c9 16 13 41 13 74c0 20 -1 42 -5 67c-8 53 -18 106 -26 159zM461 939c-95 0 -135 -175 -135 -286c0 -24 2 -48 5 -71c50 39 92 82 127 128c40 53 60 100 60 140v8c-4 53 -22 81 -55 81h-2zM406 119l54 -326c73 25 110 78 110 161c0 7 0 15 -1 23c-7 95 -57 142 -151 142h-12 zM382 117c-72 -2 -128 -47 -128 -120v-7c2 -46 43 -99 75 -115c-3 -2 -7 -5 -10 -10c-70 33 -116 88 -123 172v11c0 68 44 126 88 159c23 17 49 29 78 36l-29 170c-21 -13 -52 -37 -92 -73c-50 -44 -86 -84 -109 -119c-45 -69 -67 -130 -67 -182v-13c5 -68 35 -127 93 -176 s125 -73 203 -73c25 0 50 3 75 9c-19 111 -36 221 -54 331z"/></g><g id="E260-o1inndrc"><path transform="scale(1,-1)" d="M20 110c32 16 54 27 93 27c26 0 35 -3 54 -13c13 -7 24 -20 27 -38l4 -25c0 -28 -16 -57 -45 -89c-23 -25 -39 -44 -65 -68l-88 -79v644h20v-359zM90 106c-32 0 -48 -10 -70 -29v-194c31 31 54 59 71 84c21 32 32 59 32 84c0 9 1 16 1 20c0 14 -3 21 -11 30l-8 3z"/></g><g id="E083-o1inndrc"><path transform="scale(1,-1)" d="M208 250c97 0 177 -52 177 -116c0 -69 -40 -111 -118 -125c56 -5 125 -44 125 -116c0 -31 -10 -57 -31 -78c-19 -21 -45 -38 -78 -49l-50 -11c-15 -3 -36 -7 -55 -7c-50 0 -86 16 -113 38c-16 10 -23 18 -34 34c-7 13 -11 25 -11 38c0 43 27 83 68 83l3 -2 c61 0 75 -42 75 -70c0 -19 -24 -42 -26 -57c7 -17 20 -25 37 -25c44 0 94 29 94 78c0 75 -34 125 -138 125v36c84 0 131 22 131 98c0 54 -37 88 -87 88c-26 0 -43 -7 -51 -22c15 -22 44 -16 44 -70c0 -37 -37 -62 -71 -62c-22 0 -69 15 -69 76c0 79 101 116 178 116z"/></g><g id="E084-o1inndrc"><path transform="scale(1,-1)" d="M20 -78c84 97 114 180 134 329h170c-13 -32 -82 -132 -99 -151l-84 -97c-33 -36 -59 -63 -80 -81h162v102l127 123v-225h57v-39h-57v-34c0 -43 19 -65 57 -65v-34h-244v36c48 0 60 26 60 70v27h-203v39z"/></g><g id="E0A4-o1inndrc"><path transform="scale(1,-1)" d="M0 -39c0 68 73 172 200 172c66 0 114 -37 114 -95c0 -84 -106 -171 -218 -171c-64 0 -96 30 -96 94z"/></g><g id="E241-o1inndrc"><path transform="scale(1,-1)" d="M179 646c-4 8 -17 30 -18 33l-4 10c0 3 2 5 5 5s7 -2 13 -7c23 -33 46 -81 66 -132c22 -57 35 -125 35 -163c0 -104 -60 -183 -122 -241c-63 -59 -57 -53 -61 -56c-38 -34 -63 -95 -71 -95h-22v190c40 7 69 11 87 16c88 27 168 95 168 200c0 30 -12 89 -30 138 c-17 47 -31 73 -46 102z"/></g><g id="E243-o1inndrc"><path transform="scale(1,-1)" d="M216 730c-5 8 -10 13 -11 16l-4 10c0 3 2 5 5 5s7 -2 13 -7c35 -42 57 -101 57 -172c0 -34 -6 -65 -17 -94c10 -31 17 -64 17 -96c0 -104 -60 -183 -122 -241c-63 -59 -57 -53 -61 -56c-38 -34 -63 -95 -71 -95h-22v190v190c40 7 69 11 87 16c116 36 175 111 175 197 c0 44 -15 91 -46 137zM248 463c-23 -48 -58 -89 -94 -122c-63 -59 -57 -53 -61 -56c-30 -27 -44 -71 -53 -88c20 3 36 6 47 9c88 27 168 95 168 200c0 19 -3 39 -7 57z"/></g><g id="E0A3-o1inndrc"><path transform="scale(1,-1)" d="M278 64c0 22 -17 39 -43 39c-12 0 -26 -3 -41 -10c-85 -43 -165 -94 -165 -156c5 -25 15 -32 49 -32c67 11 200 95 200 159zM0 -36c0 68 73 174 200 174c66 0 114 -39 114 -97c0 -84 -106 -173 -218 -173c-64 0 -96 32 -96 96z"/></g></defs><style type="text/css">#o1inndrc g.page-margin {font-family:Times,serif;}#o1inndrc g.ending, #o1inndrc g.fing, #o1inndrc g.reh, #o1inndrc g.tempo {font-weight:bold;}#o1inndrc g.dir, #o1inndrc g.dynam, #o1inndrc g.mNum {font-style:italic;}#o1inndrc g.label {font-weight:normal;}#o1inndrc path {stroke:currentColor}</style><svg class="definition-scale" color="black" viewBox="0 0 14000 2100"><g class="page-margin" transform="translate(0, 150)"><g data-id="e1vo3udu" data-class="mdiv" class="mdiv pageMilestone"/><g data-id="f1l0azvp" data-class="score" class="score pageMilestone"/><g data-id="e1ez562c" data-class="system" class="system"><g data-id="hosijiq" data-class="section" class="section systemMilestone"/><g data-id="ptrk9x6" data-class="measure" class="measure"><g data-id="tn2wvv3" data-class="staff" class="staff"><path d="M0 540 L2873 540" stroke-width="13"/><path d="M0 720 L2873 720" stroke-width="13"/><path d="M0 900 L2873 900" stroke-width="13"/><path d="M0 1080 L2873 1080" stroke-width="13"/><path d="M0 1260 L2873 1260" stroke-width="13"/><g data-id="k1pdmhnt" data-class="clef" class="clef"><use href="#E050-o1inndrc" transform="translate(90, 1080) scale(0.72, 0.72)"/></g><g data-id="lgmn6v" data-class="keySig" class="keySig"><g data-id="m1vvvp7w" data-class="keyAccid" class="keyAccid"><use href="#E260-o1inndrc" transform="translate(735, 900) scale(0.72, 0.72)"/></g><g data-id="n1pwh615" data-class="keyAccid" class="keyAccid"><use href="#E260-o1inndrc" transform="translate(915, 630) scale(0.72, 0.72)"/></g></g><g data-id="o1ijin6t" data-class="meterSig" class="meterSig"><use href="#E083-o1inndrc" transform="translate(1229, 720) scale(0.72, 0.72)"/><use href="#E084-o1inndrc" transform="translate(1223, 1080) scale(0.72, 0.72)"/></g><g data-id="u1q27cum" data-class="layer" class="layer"><g data-id="i152hup6" data-class="note" class="note"><g data-class="notehead" class="notehead"><use href="#E0A4-o1inndrc" transform="translate(1813, 720) scale(0.72, 0.72)"/></g><g data-id="q1tomiez" data-class="dots" class="dots"><ellipse cx="2129" cy="630" rx="36" ry="36" fill-opacity="1" stroke-opacity="1"/></g><g data-id="p12fdisf" data-class="stem" class="stem"><path d="M1822 748 L1822 1350" stroke-width="18"/><g data-id="r12zav7u" data-class="flag" class="flag"><use href="#E241-o1inndrc" transform="translate(1813, 1350) scale(0.72, 0.72)"/></g></g></g><g data-id="jc84n2d" data-class="note" class="note"><g data-class="notehead" class="notehead"><use href="#E0A4-o1inndrc" transform="translate(2480, 720) scale(0.72, 0.72)"/></g><g data-id="s1dh0wzi" data-class="stem" class="stem"><path d="M2489 748 L2489 1350" stroke-width="18"/><g data-id="t7sk6l3" data-class="flag" class="flag"><use href="#E243-o1inndrc" transform="translate(2480, 1350) scale(0.72, 0.72)"/></g></g></g></g></g><g data-id="xx8j7s4" data-class="barLine" class="barLine"><path d="M2860 540 L2860 1260" stroke-width="27"/></g></g><g data-id="yf1zaw8" data-class="measure" class="measure"><g data-id="v1oaelab" data-class="staff" class="staff"><path d="M2873 540 L5730 540" stroke-width="13"/><path d="M2873 720 L5730 720" stroke-width="13"/><path d="M2873 900 L5730 900" stroke-width="13"/><path d="M2873 1080 L5730 1080" stroke-width="13"/><path d="M2873 1260 L5730 1260" stroke-width="13"/><g data-id="weqv308" data-class="layer" class="layer"><g data-id="ksaslgc" data-class="note" class="note"><g data-class="notehead" class="notehead"><use href="#E0A4-o1inndrc" transform="translate(3081, 720) scale(0.72, 0.72)"/></g><g data-id="ujcqkrq" data-class="stem" class="stem"><path d="M3090 748 L3090 1350" stroke-width="18"/></g></g><g data-id="l17khki4" data-class="note" class="note"><g data-class="notehead" class="notehead"><use href="#E0A4-o1inndrc" transform="translate(3875, 810) scale(0.72, 0.72)"/></g><g data-id="v1sgvtc4" data-class="stem" class="stem"><path d="M3884 838 L3884 1440" stroke-width="18"/></g></g><g data-id="m1d2razx" data-class="note" class="note"><g data-class="notehead" class="notehead"><use href="#E0A4-o1inndrc" transform="translate(4669, 540) scale(0.72, 0.72)"/></g><g data-id="xdiwdjw" data-class="dots" class="dots"><ellipse cx="4985" cy="450" rx="36" ry="36" fill-opacity="1" stroke-opacity="1"/></g><g data-id="wn75ozq" data-class="stem" class="stem"><path d="M4678 568 L4678 1170" stroke-width="18"/><g data-id="y1geypx8" data-class="flag" class="flag"><use href="#E241-o1inndrc" transform="translate(4669, 1170) scale(0.72, 0.72)"/></g></g></g><g data-id="n1xoym1t" data-class="note" class="note"><g data-class="notehead" class="notehead"><use href="#E0A4-o1inndrc" transform="translate(5337, 540) scale(0.72, 0.72)"/></g><g data-id="zriprdm" data-class="stem" class="stem"><path d="M5346 568 L5346 1170" stroke-width="18"/><g data-id="avr2mp5" data-class="flag" class="flag"><use href="#E243-o1inndrc" transform="translate(5337, 1170) scale(0.72, 0.72)"/></g></g></g></g></g><g data-id="g1cjo51r" data-class="barLine" class="barLine"><path d="M5717 540 L5717 1260" stroke-width="27"/></g></g><g data-id="hnz4zch" data-class="measure" class="measure"><g data-id="xaha0q3" data-class="staff" class="staff"><path d="M5730 540 L8196 540" stroke-width="13"/><path d="M5730 720 L8196 720" stroke-width="13"/><path d="M5730 900 L8196 900" stroke-width="13"/><path d="M5730 1080 L8196 1080" stroke-width="13"/><path d="M5730 1260 L8196 1260" stroke-width="13"/><g data-id="yrndao7" data-class="layer" class="layer"><g data-id="o1xdp44e" data-class="note" class="note"><g data-class="notehead" class="notehead"><use href="#E0A3-o1inndrc" transform="translate(5938, 540) scale(0.72, 0.72)"/></g><g data-id="b1pubdnw" data-class="stem" class="stem"><path d="M5947 565 L5947 1170" stroke-width="18"/></g></g><g data-id="agw4nf1" data-class="beam" class="beam"><polygon stroke-opacity="1" fill-opacity="1" points="7147,1350 7683,1395 7683,1305 7147,1260"/><g data-id="p1qy7fxt" data-class="note" class="note"><g data-class="notehead" class="notehead"><use href="#E0A4-o1inndrc" transform="translate(7147, 630) scale(0.72, 0.72)"/></g><g data-id="co444kx" data-class="stem" class="stem"><path d="M7156 658 L7156 1332" stroke-width="18"/></g><g data-id="bhrikj6" data-class="accid" class="accid"/></g><g data-id="qm0t3u7" data-class="note" class="note"><g data-class="notehead" class="notehead"><use href="#E0A4-o1inndrc" transform="translate(7665, 720) scale(0.72, 0.72)"/></g><g data-id="d160mbxg" data-class="stem" class="stem"><path d="M7674 748 L7674 1377" stroke-width="18"/></g></g></g></g></g><g data-id="p7s5d7e" data-class="barLine" class="barLine"><path d="M8183 540 L8183 1260" stroke-width="27"/></g></g><g data-id="q18v4p0" data-class="measure" class="measure"><g data-id="zrdyxju" data-class="staff" class="staff"><path d="M8196 540 L11525 540" stroke-width="13"/><path d="M8196 720 L11525 720" stroke-width="13"/><path d="M8196 900 L11525 900" stroke-width="13"/><path d="M8196 1080 L11525 1080" stroke-width="13"/><path d="M8196 1260 L11525 1260" stroke-width="13"/><g data-id="a1lwi0cs" data-class="layer" class="layer"><g data-id="r19vdg3k" data-class="note" class="note"><g data-class="notehead" class="notehead"><use href="#E0A4-o1inndrc" transform="translate(8404, 810) scale(0.72, 0.72)"/></g><g data-id="e9ecc5e" data-class="stem" class="stem"><path d="M8413 838 L8413 1440" stroke-width="18"/><g data-id="f1n9mklt" data-class="flag" class="flag"><use href="#E241-o1inndrc" transform="translate(8404, 1440) scale(0.72, 0.72)"/></g></g></g><g data-id="sum9q6k" data-class="note" class="note"><g data-class="notehead" class="notehead"><use href="#E0A4-o1inndrc" transform="translate(8922, 720) scale(0.72, 0.72)"/></g><g data-id="g1wrg4sv" data-class="stem" class="stem"><path d="M8931 748 L8931 1350" stroke-width="18"/><g data-id="h1on7sd8" data-class="flag" class="flag"><use href="#E241-o1inndrc" transform="translate(8922, 1350) scale(0.72, 0.72)"/></g></g></g><g data-id="t109hm41" data-class="note" class="note"><g data-class="notehead" class="notehead"><use href="#E0A4-o1inndrc" transform="translate(9440, 630) scale(0.72, 0.72)"/></g><g data-id="ie37w42" data-class="stem" class="stem"><path d="M9449 658 L9449 1260" stroke-width="18"/><g data-id="j1iokqm7" data-class="flag" class="flag"><use href="#E241-o1inndrc" transform="translate(9440, 1260) scale(0.72, 0.72)"/></g></g><g data-id="c1dncmx8" data-class="accid" class="accid"/></g><g data-id="uyt3prb" data-class="note" class="note"><g data-class="notehead" class="notehead"><use href="#E0A4-o1inndrc" transform="translate(9958, 450) scale(0.72, 0.72)"/></g><g data-id="k10wcxig" data-class="stem" class="stem"><path d="M9967 478 L9967 1080" stroke-width="18"/><g data-id="l1ykqe07" data-class="flag" class="flag"><use href="#E241-o1inndrc" transform="translate(9958, 1080) scale(0.72, 0.72)"/></g></g></g><g data-id="v10mm5b" data-class="note" class="note"><g data-class="notehead" class="notehead"><use href="#E0A4-o1inndrc" transform="translate(10476, 540) scale(0.72, 0.72)"/></g><g data-id="m1fm9hkd" data-class="stem" class="stem"><path d="M10485 568 L10485 1170" stroke-width="18"/><g data-id="n1iizd7t" data-class="flag" class="flag"><use href="#E241-o1inndrc" transform="translate(10476, 1170) scale(0.72, 0.72)"/></g></g></g><g data-id="w1yxfnir" data-class="note" class="note"><g data-class="notehead" class="notehead"><use href="#E0A4-o1inndrc" transform="translate(10994, 810) scale(0.72, 0.72)"/></g><g data-id="o1qdym2q" data-class="stem" class="stem"><path d="M11003 838 L11003 1440" stroke-width="18"/><g data-id="pdcdkqt" data-class="flag" class="flag"><use href="#E241-o1inndrc" transform="translate(10994, 1440) scale(0.72, 0.72)"/></g></g></g></g></g><g data-id="yrym3sa" data-class="barLine" class="barLine"><path d="M11512 540 L11512 1260" stroke-width="27"/></g></g><g data-id="z1f5iaen" data-class="measure" class="measure"><g data-id="bm54550" data-class="staff" class="staff"><path d="M11525 540 L14002 540" stroke-width="13"/><path d="M11525 720 L14002 720" stroke-width="13"/><path d="M11525 900 L14002 900" stroke-width="13"/><path d="M11525 1080 L14002 1080" stroke-width="13"/><path d="M11525 1260 L14002 1260" stroke-width="13"/><g data-id="cuqrsr0" data-class="layer" class="layer"><g data-id="x15h7zav" data-class="note" class="note"><g data-class="notehead" class="notehead"><use href="#E0A3-o1inndrc" transform="translate(11733, 720) scale(0.72, 0.72)"/></g><g data-id="q1xhkae0" data-class="stem" class="stem"><path d="M11742 745 L11742 1350" stroke-width="18"/></g></g><g data-id="y1e4k3n8" data-class="note" class="note"><g data-class="notehead" class="notehead"><use href="#E0A4-o1inndrc" transform="translate(12942, 720) scale(0.72, 0.72)"/></g><g data-id="shr8y5c" data-class="dots" class="dots"><ellipse cx="13258" cy="630" rx="36" ry="36" fill-opacity="1" stroke-opacity="1"/></g><g data-id="r1t9v11s" data-class="stem" class="stem"><path d="M12951 748 L12951 1350" stroke-width="18"/><g data-id="t18fjjdu" data-class="flag" class="flag"><use href="#E241-o1inndrc" transform="translate(12942, 1350) scale(0.72, 0.72)"/></g></g></g><g data-id="z7sceqr" data-class="note" class="note"><g data-class="notehead" class="notehead"><use href="#E0A4-o1inndrc" transform="translate(13609, 810) scale(0.72, 0.72)"/></g><g data-id="u1y5vw1c" data-class="stem" class="stem"><path d="M13618 838 L13618 1440" stroke-width="18"/><g data-id="v1iju23" data-class="flag" class="flag"><use href="#E243-o1inndrc" transform="translate(13609, 1440) scale(0.72, 0.72)"/></g></g></g></g></g><g data-id="h60skl8" data-class="barLine" class="barLine"><path d="M13989 540 L13989 1260" stroke-width="27"/></g></g><g data-id="k67bnun" data-class="systemMilestoneEnd" class="systemMilestoneEnd hosijiq"/></g><g data-id="l18utoxy" data-class="pageMilestoneEnd" class="pageMilestoneEnd f1l0azvp"/><g data-id="m8kjcww" data-class="pageMilestoneEnd" class="pageMilestoneEnd e1vo3udu"/></g></svg></svg>