<svg viewBox="0 0 560 84" version="1.1" xmlns="http://www.w3.org/2000/svg" xmlns:xlink="http://www.w3.org/1999/xlink" overflow="visible" id="u1r3obvu"><desc>Engraved by Verovio 5.6.0-85e7620</desc><defs><g id="E062-u1r3obvu"><path transform="scale(1,-1)" d="M582 -120c0 32 26 58 58 58s58 -26 58 -58s-26 -58 -58 -58s-58 26 -58 58zM582 120c0 32 26 58 58 58s58 -26 58 -58s-26 -58 -58 -58s-58 26 -58 58zM158 96c51 0 73 -14 88 -49l16 -39c0 -17 -2 -30 -7 -40c-3 -11 -10 -21 -19 -31c-17 -18 -49 -43 -84 -43 c-55 0 -77 13 -112 44c-24 21 -35 55 -35 100c0 46 14 81 32 112c30 52 71 79 137 93l36 6l26 2c154 0 235 -68 274 -182c11 -32 18 -68 18 -107c0 -103 -26 -182 -68 -250c-89 -145 -234 -230 -412 -288l-30 -5c-9 0 -14 3 -14 8c3 10 5 11 10 16c35 15 70 30 96 44l78 43 c96 57 162 136 197 258c9 33 17 60 22 100c3 22 5 35 6 39c-7 69 -16 115 -23 140s-4 22 -16 40c-8 12 -19 23 -31 34c-24 21 -62 44 -118 44c-48 0 -84 -8 -113 -28c-28 -19 -42 -44 -42 -73v-16c2 -5 3 -9 4 -11c24 22 52 39 84 39z"/></g><g id="E262-u1r3obvu"><path transform="scale(1,-1)" d="M136 186v169h17v-164l44 14v-91l-44 -14v-165l44 12v-91l-44 -13v-155h-17v150l-76 -22v-155h-17v149l-43 -13v90l43 14v167l-43 -14v92l43 13v169h17v-163zM60 73v-167l76 22v168z"/></g><g id="E086-u1r3obvu"><path transform="scale(1,-1)" d="M284 -91c0 37 -28 92 -67 92c-35 0 -65 -54 -65 -111c0 -52 22 -104 68 -104c47 0 64 68 64 123zM230 214c-36 0 -90 -33 -90 -184l2 -36c40 24 81 36 120 36c80 0 140 -48 140 -121c0 -99 -99 -159 -182 -159c-160 0 -200 173 -200 244c0 21 2 43 7 71l10 35 c26 85 73 115 98 126c41 19 74 24 103 24c93 0 142 -63 142 -105c0 -58 -52 -72 -73 -72c-33 0 -59 24 -65 35c-3 5 -6 14 -7 25l11 30c6 15 9 27 9 35c0 11 -9 16 -25 16z"/></g><g id="E088-u1r3obvu"><path transform="scale(1,-1)" d="M195 -214c76 0 88 58 90 68c0 34 -35 60 -57 73l-52 29c-21 10 -32 17 -34 20c-39 -33 -58 -54 -62 -92c5 -23 23 -98 115 -98zM301 135c0 61 -72 76 -113 76c-40 0 -77 -17 -77 -51c3 -21 15 -38 26 -50c17 -15 33 -26 48 -34l65 -28c34 27 51 56 51 87zM176 -250 c-57 0 -166 26 -166 132c0 47 30 86 89 116c-33 15 -79 60 -79 119c0 79 85 132 178 132h18c5 0 21 1 28 -1c25 0 126 -30 126 -110c0 -37 -23 -76 -69 -116c43 -25 83 -71 83 -119c0 -101 -118 -153 -208 -153z"/></g><g id="E4E5-u1r3obvu"><path transform="scale(1,-1)" d="M107 292c-13 24 -30 49 -52 71c-1 1 0 2 0 3l-2 2c3 3 4 4 6 4c12 0 26 -7 40 -20s44 -40 89 -81c26 -24 28 -29 46 -47c4 -4 8 -9 10 -14c6 -8 8 -16 8 -27c0 -19 -12 -40 -36 -61c-28 -23 -49 -38 -61 -73c-4 -11 -7 -27 -10 -50c13 -43 34 -83 59 -121 c31 -47 59 -79 101 -129c-8 0 -26 7 -54 20l-62 29l-21 6l-23 1c-25 0 -45 -10 -60 -30l-4 -14l-1 -12c0 -33 20 -56 39 -78c8 -9 17 -18 26 -26c17 -15 27 -24 28 -30l-3 -3c-11 5 -19 10 -25 15c-9 3 -37 21 -45 26c-24 14 -45 32 -63 51c-19 21 -37 44 -37 71 c0 63 27 95 80 95c41 0 86 -18 136 -52c-19 26 -37 48 -55 66c-23 23 -48 44 -73 65c-28 23 -47 40 -58 53s-17 26 -18 39c75 64 113 125 113 183c0 27 -7 48 -18 68z"/></g><g id="E4E6-u1r3obvu"><path transform="scale(1,-1)" d="M0 123c7 34 33 56 69 60c29 -3 43 -9 53 -29c4 -8 7 -15 10 -22c0 -21 -1 -25 -11 -35c-5 -8 -18 -14 -40 -20l12 -3l15 -1c44 0 97 26 122 56c10 11 18 26 24 42c7 1 15 2 22 3l-140 -424h-36l111 330c-10 -6 -27 -12 -53 -16l-52 -8h-10l-20 1c-1 0 -8 3 -21 6 c-37 9 -55 28 -55 60z"/></g><g id="E0A4-u1r3obvu"><path transform="scale(1,-1)" d="M0 -39c0 68 73 172 200 172c66 0 114 -37 114 -95c0 -84 -106 -171 -218 -171c-64 0 -96 30 -96 94z"/></g><g id="E241-u1r3obvu"><path transform="scale(1,-1)" d="M179 646c-4 8 -17 30 -18 33l-4 10c0 3 2 5 5 5s7 -2 13 -7c23 -33 46 -81 66 -132c22 -57 35 -125 35 -163c0 -104 -60 -183 -122 -241c-63 -59 -57 -53 -61 -56c-38 -34 -63 -95 -71 -95h-22v190c40 7 69 11 87 16c88 27 168 95 168 200c0 30 -12 89 -30 138 c-17 47 -31 73 -46 102z"/></g></defs><style type="text/css">#u1r3obvu g.page-margin {font-family:Times,serif;}#u1r3obvu g.ending, #u1r3obvu g.fing, #u1r3obvu g.reh, #u1r3obvu g.tempo {font-weight:bold;}#u1r3obvu g.dir, #u1r3obvu g.dynam, #u1r3obvu g.mNum {font-style:italic;}#u1r3obvu g.label {font-weight:normal;}#u1r3obvu path {stroke:currentColor}</style><svg class="definition-scale" color="black" viewBox="0 0 14000 2100"><g class="page-margin" transform="translate(0, 150)"><g data-id="t1l3jt0z" data-class="mdiv" class="mdiv pageMilestone"/><g data-id="u6pcks9" data-class="score" class="score pageMilestone"/><g data-id="x12fitn2" data-class="system" class="system"><g data-id="w1gh8pnn" data-class="section" class="section systemMilestone"/><g data-id="vqldnwz" data-class="measure" class="measure"><g data-id="i14pazcm" data-class="staff" class="staff"><path d="M0 540 L4284 540" stroke-width="13"/><path d="M0 720 L4284 720" stroke-width="13"/><path d="M0 900 L4284 900" stroke-width="13"/><path d="M0 1080 L4284 1080" stroke-width="13"/><path d="M0 1260 L4284 1260" stroke-width="13"/><g data-id="cx69qvq" data-class="clef" class="clef"><use href="#E062-u1r3obvu" transform="translate(88, 720) scale(0.72, 0.72)"/></g><g data-id="d1liay1k" data-class="keySig" class="keySig"><g data-id="e1on70e" data-class="keyAccid" class="keyAccid"><use href="#E262-u1r3obvu" transform="translate(769, 720) scale(0.72, 0.72)"/></g><g data-id="flp1it6" data-class="keyAccid" class="keyAccid"><use href="#E262-u1r3obvu" transform="translate(947, 990) scale(0.72, 0.72)"/></g><g data-id="g11dsoic" data-class="keyAccid" class="keyAccid"><use href="#E262-u1r3obvu" transform="translate(1125, 630) scale(0.72, 0.72)"/></g></g><g data-id="h7hv7fc" data-class="meterSig" class="meterSig"><use href="#E086-u1r3obvu" transform="translate(1432, 720) scale(0.72, 0.72)"/><use href="#E088-u1r3obvu" transform="translate(1439, 1080) scale(0.72, 0.72)"/></g><g data-class="ledgerLines" class="ledgerLines above"><g data-class="lineDash" class="lineDash" data-related="#i1adns5q"><path d="M3773 360 L4095 360" stroke-width="22"/></g><g data-class="lineDash" class="lineDash" data-related="#i1adns5q"><path d="M3773 180 L4095 180" stroke-width="22"/></g></g><g data-id="jvt1ege" data-class="layer" class="layer"><g data-id="fhuegbd" data-class="rest" class="rest"><use href="#E4E5-u1r3obvu" transform="translate(1991, 900) scale(0.72, 0.72)"/></g><g data-id="g11b11u2" data-class="rest" class="rest"><use href="#E4E6-u1r3obvu" transform="translate(2681, 900) scale(0.72, 0.72)"/></g><g data-id="h12fh3zq" data-class="rest" class="rest"><use href="#E4E5-u1r3obvu" transform="translate(3131, 900) scale(0.72, 0.72)"/></g><g data-id="i1adns5q" data-class="note" class="note"><g data-class="notehead" class="notehead"><use href="#E0A4-u1r3obvu" transform="translate(3821, 180) scale(0.72, 0.72)"/></g><g data-id="d1crpket" data-class="stem" class="stem"><path d="M3830 208 L3830 900" stroke-width="18"/><g data-id="ednofuf" data-class="flag" class="flag"><use href="#E241-u1r3obvu" transform="translate(3821, 900) scale(0.72, 0.72)"/></g></g></g></g></g><g data-id="dp1bfpz" data-class="barLine" class="barLine"><path d="M4271 540 L4271 1260" stroke-width="27"/></g></g><g data-id="edjgwk7" data-class="measure" class="measure"><g data-id="k92nca5" data-class="staff" class="staff"><path d="M4284 540 L6757 540" stroke-width="13"/><path d="M4284 720 L6757 720" stroke-width="13"/><path d="M4284 900 L6757 900" stroke-width="13"/><path d="M4284 1080 L6757 1080" stroke-width="13"/><path d="M4284 1260 L6757 1260" stroke-width="13"/><g data-class="ledgerLines" class="ledgerLines above"><g data-class="lineDash" class="lineDash" data-related="#j1vzbnwq"><path d="M4416 360 L4738 360" stroke-width="22"/></g><g data-class="lineDash" class="lineDash" data-related="#k11t1lzw"><path d="M5106 360 L5428 360" stroke-width="22"/></g><g data-class="lineDash" class="lineDash" data-related="#lnx5xlz"><path d="M5556 360 L5878 360" stroke-width="22"/></g><g data-class="lineDash" class="lineDash" data-related="#mly6yj"><path d="M6246 360 L6568 360" stroke-width="22"/></g><g data-class="lineDash" class="lineDash" data-related="#j1vzbnwq"><path d="M4416 180 L4738 180" stroke-width="22"/></g><g data-class="lineDash" class="lineDash" data-related="#k11t1lzw"><path d="M5106 180 L5428 180" stroke-width="22"/></g><g data-class="lineDash" class="lineDash" data-related="#lnx5xlz"><path d="M5556 180 L5878 180" stroke-width="22"/></g><g data-class="lineDash" class="lineDash" data-related="#mly6yj"><path d="M6246 180 L6568 180" stroke-width="22"/></g></g><g data-id="l5tl13q" data-class="layer" class="layer"><g data-id="j1vzbnwq" data-class="note" class="note"><g data-class="notehead" class="notehead"><use href="#E0A4-u1r3obvu" transform="translate(4464, 180) scale(0.72, 0.72)"/></g><g data-id="f1fb7l66" data-class="stem" class="stem"><path d="M4473 208 L4473 900" stroke-width="18"/></g></g><g data-id="k11t1lzw" data-class="note" class="note"><g data-class="notehead" class="notehead"><use href="#E0A4-u1r3obvu" transform="translate(5154, 180) scale(0.72, 0.72)"/></g><g data-id="g1p8ze23" data-class="stem" class="stem"><path d="M5163 208 L5163 900" stroke-width="18"/><g data-id="hj5ui2k" data-class="flag" class="flag"><use href="#E241-u1r3obvu" transform="translate(5154, 900) scale(0.72, 0.72)"/></g></g></g><g data-id="lnx5xlz" data-class="note" class="note"><g data-class="notehead" class="notehead"><use href="#E0A4-u1r3obvu" transform="translate(5604, 180) scale(0.72, 0.72)"/></g><g data-id="i1xqon6x" data-class="stem" class="stem"><path d="M5613 208 L5613 900" stroke-width="18"/></g></g><g data-id="mly6yj" data-class="note" class="note"><g data-class="notehead" class="notehead"><use href="#E0A4-u1r3obvu" transform="translate(6294, 180) scale(0.72, 0.72)"/></g><g data-id="j11l28jt" data-class="stem" class="stem"><path d="M6303 208 L6303 900" stroke-width="18"/><g data-id="kfxddos" data-class="flag" class="flag"><use href="#E241-u1r3obvu" transform="translate(6294, 900) scale(0.72, 0.72)"/></g></g></g></g></g><g data-id="m13xwwsd" data-class="barLine" class="barLine"><path d="M6744 540 L6744 1260" stroke-width="27"/></g></g><g data-id="n1omqm37" data-class="measure" class="measure"><g data-id="mg387ae" data-class="staff" class="staff"><path d="M6757 540 L9230 540" stroke-width="13"/><path d="M6757 720 L9230 720" stroke-width="13"/><path d="M6757 900 L9230 900" stroke-width="13"/><path d="M6757 1080 L9230 1080" stroke-width="13"/><path d="M6757 1260 L9230 1260" stroke-width="13"/><g data-class="ledgerLines" class="ledgerLines above"><g data-class="lineDash" class="lineDash" data-related="#n8fhzdc"><path d="M6889 360 L7211 360" stroke-width="22"/></g><g data-class="lineDash" class="lineDash" data-related="#ouz89mr"><path d="M7579 360 L7901 360" stroke-width="22"/></g><g data-class="lineDash" class="lineDash" data-related="#prvt7h"><path d="M8029 360 L8351 360" stroke-width="22"/></g><g data-class="lineDash" class="lineDash" data-related="#q1m45b2b"><path d="M8719 360 L9041 360" stroke-width="22"/></g><g data-class="lineDash" class="lineDash" data-related="#n8fhzdc"><path d="M6889 180 L7211 180" stroke-width="22"/></g><g data-class="lineDash" class="lineDash" data-related="#ouz89mr"><path d="M7579 180 L7901 180" stroke-width="22"/></g><g data-class="lineDash" class="lineDash" data-related="#prvt7h"><path d="M8029 180 L8351 180" stroke-width="22"/></g><g data-class="lineDash" class="lineDash" data-related="#q1m45b2b"><path d="M8719 180 L9041 180" stroke-width="22"/></g></g><g data-id="n1y7yf8m" data-class="layer" class="layer"><g data-id="n8fhzdc" data-class="note" class="note"><g data-class="notehead" class="notehead"><use href="#E0A4-u1r3obvu" transform="translate(6937, 180) scale(0.72, 0.72)"/></g><g data-id="l1oevf3d" data-class="stem" class="stem"><path d="M6946 208 L6946 900" stroke-width="18"/></g></g><g data-id="ouz89mr" data-class="note" class="note"><g data-class="notehead" class="notehead"><use href="#E0A4-u1r3obvu" transform="translate(7627, 180) scale(0.72, 0.72)"/></g><g data-id="m1x1gq5i" data-class="stem" class="stem"><path d="M7636 208 L7636 900" stroke-width="18"/><g data-id="n77yjw2" data-class="flag" class="flag"><use href="#E241-u1r3obvu" transform="translate(7627, 900) scale(0.72, 0.72)"/></g></g></g><g data-id="prvt7h" data-class="note" class="note"><g data-class="notehead" class="notehead"><use href="#E0A4-u1r3obvu" transform="translate(8077, 180) scale(0.72, 0.72)"/></g><g data-id="o8cejqo" data-class="stem" class="stem"><path d="M8086 208 L8086 900" stroke-width="18"/></g></g><g data-id="q1m45b2b" data-class="note" class="note"><g data-class="notehead" class="notehead"><use href="#E0A4-u1r3obvu" transform="translate(8767, 180) scale(0.72, 0.72)"/></g><g data-id="pwwcll0" data-class="stem" class="stem"><path d="M8776 208 L8776 900" stroke-width="18"/><g data-id="q1h8kre5" data-class="flag" class="flag"><use href="#E241-u1r3obvu" transform="translate(8767, 900) scale(0.72, 0.72)"/></g></g></g></g></g><g data-id="v1bolq8l" data-class="barLine" class="barLine"><path d="M9217 540 L9217 1260" stroke-width="27"/></g></g><g data-id="w154vdd6" data-class="measure" class="measure"><g data-id="o16cpmip" data-class="staff" class="staff"><path d="M9230 540 L10100 540" stroke-width="13"/><path d="M9230 720 L10100 720" stroke-width="13"/><path d="M9230 900 L10100 900" stroke-width="13"/><path d="M9230 1080 L10100 1080" stroke-width="13"/><path d="M9230 1260 L10100 1260" stroke-width="13"/><g data-class="ledgerLines" class="ledgerLines above"><g data-class="lineDash" class="lineDash" data-related="#r99xqa3"><path d="M9362 360 L9684 360" stroke-width="22"/></g><g data-class="lineDash" class="lineDash" data-related="#r99xqa3"><path d="M9362 180 L9684 180" stroke-width="22"/></g></g><g data-id="p1fa5sn" data-class="layer" class="layer"><g data-id="r99xqa3" data-class="note" class="note"><g data-class="notehead" class="notehead"><use href="#E0A4-u1r3obvu" transform="translate(9410, 180) scale(0.72, 0.72)"/></g><g data-id="rbay2x8" data-class="stem" class="stem"><path d="M9419 208 L9419 900" stroke-width="18"/></g></g></g></g><g data-id="e1eim6x7" data-class="barLine" class="barLine"/></g><g data-id="x1en9cpq" data-class="systemMilestoneEnd" class="systemMilestoneEnd w1gh8pnn"/></g><g data-id="yfjtzy2" data-class="pageMilestoneEnd" class="pageMilestoneEnd u6pcks9"/><g data-id="z1wjyn1s" data-class="pageMilestoneEnd" class="pageMilestoneEnd t1l3jt0z"/></g></svg></svg>