<svg viewBox="0 0 560 84" version="1.1" xmlns="http://www.w3.org/2000/svg" xmlns:xlink="http://www.w3.org/1999/xlink" overflow="visible" id="e1np4c91"><desc>Engraved by Verovio 5.6.0-85e7620</desc><defs><g id="E050-e1np4c91"><path transform="scale(1,-1)" d="M441 -245c-23 -4 -48 -6 -76 -6c-59 0 -102 7 -130 20c-88 42 -150 93 -187 154c-26 44 -43 103 -48 176c0 6 -1 13 -1 19c0 54 15 111 45 170c29 57 65 106 110 148s96 85 153 127c-3 16 -8 46 -13 92c-4 43 -5 73 -5 89c0 117 16 172 69 257c34 54 64 82 89 82 c21 0 43 -30 69 -92s39 -115 41 -159v-15c0 -109 -21 -162 -67 -241c-13 -20 -63 -90 -98 -118c-13 -9 -25 -19 -37 -29l31 -181c8 1 18 2 28 2c58 0 102 -12 133 -35c59 -43 92 -104 98 -184c1 -7 1 -15 1 -22c0 -123 -87 -209 -181 -248c8 -57 17 -110 25 -162 c5 -31 6 -58 6 -80c0 -30 -5 -53 -14 -70c-35 -64 -88 -99 -158 -103c-5 0 -11 -1 -16 -1c-37 0 -72 10 -108 27c-50 24 -77 59 -80 105v11c0 29 7 55 20 76c18 28 45 42 79 44h6c49 0 93 -42 97 -87v-9c0 -51 -34 -86 -105 -106c17 -24 51 -36 102 -36c62 0 116 43 140 85 c9 16 13 41 13 74c0 20 -1 42 -5 67c-8 53 -18 106 -26 159zM461 939c-95 0 -135 -175 -135 -286c0 -24 2 -48 5 -71c50 39 92 82 127 128c40 53 60 100 60 140v8c-4 53 -22 81 -55 81h-2zM406 119l54 -326c73 25 110 78 110 161c0 7 0 15 -1 23c-7 95 -57 142 -151 142h-12 zM382 117c-72 -2 -128 -47 -128 -120v-7c2 -46 43 -99 75 -115c-3 -2 -7 -5 -10 -10c-70 33 -116 88 -123 172v11c0 68 44 126 88 159c23 17 49 29 78 36l-29 170c-21 -13 -52 -37 -92 -73c-50 -44 -86 -84 -109 -119c-45 -69 -67 -130 -67 -182v-13c5 -68 35 -127 93 -176 s125 -73 203 -73c25 0 50 3 75 9c-19 111 -36 221 -54 331z"/></g><g id="E260-e1np4c91"><path transform="scale(1,-1)" d="M20 110c32 16 54 27 93 27c26 0 35 -3 54 -13c13 -7 24 -20 27 -38l4 -25c0 -28 -16 -57 -45 -89c-23 -25 -39 -44 -65 -68l-88 -79v644h20v-359zM90 106c-32 0 -48 -10 -70 -29v-194c31 31 54 59 71 84c21 32 32 59 32 84c0 9 1 16 1 20c0 14 -3 21 -11 30l-8 3z"/></g><g id="E08A-e1np4c91"><path transform="scale(1,-1)" d="M340 179c-9 24 -56 41 -89 41c-46 0 -81 -28 -100 -58c-17 -28 -25 -78 -25 -150c0 -65 2 -111 8 -135c8 -31 18 -49 40 -67c20 -17 43 -25 70 -25c54 0 92 36 115 75c14 25 23 54 28 88h27c0 -63 -24 -105 -58 -141c-35 -38 -82 -56 -140 -56c-45 0 -83 13 -115 39 c-57 45 -101 130 -101 226c0 59 33 127 68 163c36 37 97 72 160 72c36 0 93 -21 121 -40c11 -8 23 -17 33 -30c19 -23 27 -48 27 -76c0 -51 -35 -88 -86 -88c-43 0 -76 27 -76 68c0 26 7 35 21 51c15 17 32 27 58 32c7 2 14 7 14 11z"/></g><g id="E0A4-e1np4c91"><path transform="scale(1,-1)" d="M0 -39c0 68 73 172 200 172c66 0 114 -37 114 -95c0 -84 -106 -171 -218 -171c-64 0 -96 30 -96 94z"/></g><g id="E4C0-e1np4c91"><path transform="scale(1,-1)" d="M0 0c0 0 40 320 300 320s300 -320 300 -320h-32s-38 227 -268 227s-268 -227 -268 -227h-32zM355 52c0 -30 -25 -55 -55 -55s-55 25 -55 55s25 55 55 55s55 -25 55 -55z"/></g></defs><style type="text/css">#e1np4c91 g.page-margin {font-family:Times,serif;}#e1np4c91 g.ending, #e1np4c91 g.fing, #e1np4c91 g.reh, #e1np4c91 g.tempo {font-weight:bold;}#e1np4c91 g.dir, #e1np4c91 g.dynam, #e1np4c91 g.mNum {font-style:italic;}#e1np4c91 g.label {font-weight:normal;}#e1np4c91 path {stroke:currentColor}</style><svg class="definition-scale" color="black" viewBox="0 0 14000 2100"><g class="page-margin" transform="translate(0, 150)"><g data-id="c8lu0je" data-class="mdiv" class="mdiv pageMilestone"/><g data-id="d1gbqhcp" data-class="score" class="score pageMilestone"/><g data-id="m4zuqb1" data-class="system" class="system"><g data-id="f1a95efd" data-class="section" class="section systemMilestone"/><g data-id="f1xaqdix" data-class="measure" class="measure"><g data-id="r11xgymd" data-class="staff" class="staff"><path d="M0 540 L4385 540" stroke-width="13"/><path d="M0 720 L4385 720" stroke-width="13"/><path d="M0 900 L4385 900" stroke-width="13"/><path d="M0 1080 L4385 1080" stroke-width="13"/><path d="M0 1260 L4385 1260" stroke-width="13"/><g data-id="uxk8sj2" data-class="clef" class="clef"><use href="#E050-e1np4c91" transform="translate(90, 1080) scale(0.72, 0.72)"/></g><g data-id="v1bpgp62" data-class="keySig" class="keySig"><g data-id="w1t6tffj" data-class="keyAccid" class="keyAccid"><use href="#E260-e1np4c91" transform="translate(735, 900) scale(0.72, 0.72)"/></g><g data-id="x19y8f3t" data-class="keyAccid" class="keyAccid"><use href="#E260-e1np4c91" transform="translate(915, 630) scale(0.72, 0.72)"/></g><g data-id="yyhipko" data-class="keyAccid" class="keyAccid"><use href="#E260-e1np4c91" transform="translate(1095, 990) scale(0.72, 0.72)"/></g><g data-id="z125ujte" data-class="keyAccid" class="keyAccid"><use href="#E260-e1np4c91" transform="translate(1275, 720) scale(0.72, 0.72)"/></g></g><g data-id="afbpqgs" data-class="meterSig" class="meterSig"><use href="#E08A-e1np4c91" transform="translate(1597, 900) scale(0.72, 0.72)"/></g><g data-id="szdolsz" data-class="layer" class="layer"><g data-id="yg1jc2e" data-class="note" class="note"><g data-class="notehead" class="notehead"><use href="#E0A4-e1np4c91" transform="translate(2175, 810) scale(0.72, 0.72)"/></g><g data-id="p9q6mwd" data-class="stem" class="stem"><path d="M2184 838 L2184 1440" stroke-width="18"/></g></g><g data-id="z17y275o" data-class="note" class="note"><g data-class="notehead" class="notehead"><use href="#E0A4-e1np4c91" transform="translate(2907, 1170) scale(0.72, 0.72)"/></g><g data-id="q1ujftzb" data-class="stem" class="stem"><path d="M3124 1142 L3124 540" stroke-width="18"/></g></g><g data-id="a17rikar" data-class="note" class="note"><g data-class="notehead" class="notehead"><use href="#E0A4-e1np4c91" transform="translate(3639, 810) scale(0.72, 0.72)"/></g><g data-id="r104tvd0" data-class="stem" class="stem"><path d="M3648 838 L3648 1440" stroke-width="18"/></g></g></g></g><g data-id="n1heafzl" data-class="barLine" class="barLine"><path d="M4372 540 L4372 1260" stroke-width="27"/></g></g><g data-id="onml0uz" data-class="measure" class="measure"><g data-id="t1f2cr22" data-class="staff" class="staff"><path d="M4385 540 L7739 540" stroke-width="13"/><path d="M4385 720 L7739 720" stroke-width="13"/><path d="M4385 900 L7739 900" stroke-width="13"/><path d="M4385 1080 L7739 1080" stroke-width="13"/><path d="M4385 1260 L7739 1260" stroke-width="13"/><g data-id="unabolg" data-class="layer" class="layer"><g data-id="btelqgj" data-class="note" class="note"><g data-class="notehead" class="notehead"><use href="#E0A4-e1np4c91" transform="translate(4575, 720) scale(0.72, 0.72)"/></g><g data-id="sslmn8l" data-class="stem" class="stem"><path d="M4584 748 L4584 1350" stroke-width="18"/></g><g data-id="s1yxar2i" data-class="accid" class="accid"/></g><g data-id="r106twl1" data-class="beam" class="beam"><polygon stroke-opacity="1" fill-opacity="1" points="5307,1440 5802,1485 5802,1395 5307,1350"/><g data-id="c1jzdpj6" data-class="note" class="note"><g data-class="notehead" class="notehead"><use href="#E0A4-e1np4c91" transform="translate(5307, 810) scale(0.72, 0.72)"/></g><g data-id="t1aci6qg" data-class="stem" class="stem"><path d="M5316 838 L5316 1422" stroke-width="18"/></g></g><g data-id="de4ynno" data-class="note" class="note"><g data-class="notehead" class="notehead"><use href="#E0A4-e1np4c91" transform="translate(5784, 900) scale(0.72, 0.72)"/></g><g data-id="u1bglcjf" data-class="stem" class="stem"><path d="M5793 928 L5793 1467" stroke-width="18"/></g><g data-id="t1uf9m6z" data-class="accid" class="accid"/></g></g><g data-id="eks3qp6" data-class="note" class="note"><g data-class="notehead" class="notehead"><use href="#E0A4-e1np4c91" transform="translate(6262, 990) scale(0.72, 0.72)"/></g><g data-id="vjky9l3" data-class="stem" class="stem"><path d="M6479 962 L6479 360" stroke-width="18"/></g><g data-id="u1l8v74o" data-class="accid" class="accid"/></g><g data-id="ffyg3qs" data-class="note" class="note"><g data-class="notehead" class="notehead"><use href="#E0A4-e1np4c91" transform="translate(6994, 900) scale(0.72, 0.72)"/></g><g data-id="w9dxtja" data-class="stem" class="stem"><path d="M7003 928 L7003 1500" stroke-width="18"/></g><g data-id="vmwvam4" data-class="accid" class="accid"/></g></g></g><g data-id="w11yx4d9" data-class="barLine" class="barLine"><path d="M7726 540 L7726 1260" stroke-width="27"/></g></g><g data-id="xokte2g" data-class="measure" class="measure"><g data-id="v18zunj7" data-class="staff" class="staff"><path d="M7739 540 L10871 540" stroke-width="13"/><path d="M7739 720 L10871 720" stroke-width="13"/><path d="M7739 900 L10871 900" stroke-width="13"/><path d="M7739 1080 L10871 1080" stroke-width="13"/><path d="M7739 1260 L10871 1260" stroke-width="13"/><g data-id="w1k7e1lq" data-class="layer" class="layer"><g data-id="g1trcfnw" data-class="note" class="note"><g data-class="notehead" class="notehead"><use href="#E0A4-e1np4c91" transform="translate(7929, 810) scale(0.72, 0.72)"/></g><g data-id="xje38mx" data-class="stem" class="stem"><path d="M7938 838 L7938 1440" stroke-width="18"/></g></g><g data-id="h7why5u" data-class="note" class="note"><g data-class="notehead" class="notehead"><use href="#E0A4-e1np4c91" transform="translate(8661, 810) scale(0.72, 0.72)"/></g><g data-id="y1menda4" data-class="stem" class="stem"><path d="M8670 838 L8670 1440" stroke-width="18"/></g></g><g data-id="iyz2ciq" data-class="note" class="note"><g data-class="notehead" class="notehead"><use href="#E0A4-e1np4c91" transform="translate(9393, 720) scale(0.72, 0.72)"/></g><g data-id="z1qa978f" data-class="stem" class="stem"><path d="M9402 748 L9402 1350" stroke-width="18"/></g><g data-id="w1kyprp3" data-class="accid" class="accid"/></g><g data-id="jfrng08" data-class="note" class="note"><g data-class="notehead" class="notehead"><use href="#E0A4-e1np4c91" transform="translate(10126, 630) scale(0.72, 0.72)"/></g><g data-id="a1ig38js" data-class="stem" class="stem"><path d="M10135 658 L10135 1260" stroke-width="18"/></g><g data-id="xu38red" data-class="accid" class="accid"/></g></g></g><g data-id="p3xr01o" data-class="fermata" class="fermata"><use href="#E4C0-e1np4c91" transform="translate(7826, 493) scale(0.72, 0.72)"/></g><g data-id="f6yr56l" data-class="barLine" class="barLine"><path d="M10858 540 L10858 1260" stroke-width="27"/></g></g><g data-id="g10k36rm" data-class="measure" class="measure"><g data-id="x153zrul" data-class="staff" class="staff"><path d="M10871 540 L14003 540" stroke-width="13"/><path d="M10871 720 L14003 720" stroke-width="13"/><path d="M10871 900 L14003 900" stroke-width="13"/><path d="M10871 1080 L14003 1080" stroke-width="13"/><path d="M10871 1260 L14003 1260" stroke-width="13"/><g data-id="y1gzq1n0" data-class="layer" class="layer"><g data-id="k1spjgfw" data-class="note" class="note"><g data-class="notehead" class="notehead"><use href="#E0A4-e1np4c91" transform="translate(11061, 720) scale(0.72, 0.72)"/></g><g data-id="b1y9ttmo" data-class="stem" class="stem"><path d="M11070 748 L11070 1350" stroke-width="18"/></g><g data-id="y1vcma2k" data-class="accid" class="accid"/></g><g data-id="l6iazvq" data-class="note" class="note"><g data-class="notehead" class="notehead"><use href="#E0A4-e1np4c91" transform="translate(11793, 900) scale(0.72, 0.72)"/></g><g data-id="cewftfr" data-class="stem" class="stem"><path d="M11802 928 L11802 1500" stroke-width="18"/></g><g data-id="zg1v4cs" data-class="accid" class="accid"/></g><g data-id="m1pi2elo" data-class="note" class="note"><g data-class="notehead" class="notehead"><use href="#E0A4-e1np4c91" transform="translate(12525, 990) scale(0.72, 0.72)"/></g><g data-id="d122u7tq" data-class="stem" class="stem"><path d="M12742 962 L12742 360" stroke-width="18"/></g><g data-id="a1nq39zd" data-class="accid" class="accid"/></g><g data-id="nh00vxk" data-class="note" class="note"><g data-class="notehead" class="notehead"><use href="#E0A4-e1np4c91" transform="translate(13258, 1080) scale(0.72, 0.72)"/></g><g data-id="ekferpv" data-class="stem" class="stem"><path d="M13475 1052 L13475 450" stroke-width="18"/></g></g></g></g><g data-id="ow20w2s" data-class="barLine" class="barLine"><path d="M13990 540 L13990 1260" stroke-width="27"/></g></g></g></g></svg></svg>