<svg viewBox="0 0 560 84" version="1.1" xmlns="http://www.w3.org/2000/svg" xmlns:xlink="http://www.w3.org/1999/xlink" overflow="visible" id="o15pwt9u"><desc>Engraved by Verovio 5.6.0-85e7620</desc><defs><g id="E050-o15pwt9u"><path transform="scale(1,-1)" d="M441 -245c-23 -4 -48 -6 -76 -6c-59 0 -102 7 -130 20c-88 42 -150 93 -187 154c-26 44 -43 103 -48 176c0 6 -1 13 -1 19c0 54 15 111 45 170c29 57 65 106 110 148s96 85 153 127c-3 16 -8 46 -13 92c-4 43 -5 73 -5 89c0 117 16 172 69 257c34 54 64 82 89 82 c21 0 43 -30 69 -92s39 -115 41 -159v-15c0 -109 -21 -162 -67 -241c-13 -20 -63 -90 -98 -118c-13 -9 -25 -19 -37 -29l31 -181c8 1 18 2 28 2c58 0 102 -12 133 -35c59 -43 92 -104 98 -184c1 -7 1 -15 1 -22c0 -123 -87 -209 -181 -248c8 -57 17 -110 25 -162 c5 -31 6 -58 6 -80c0 -30 -5 -53 -14 -70c-35 -64 -88 -99 -158 -103c-5 0 -11 -1 -16 -1c-37 0 -72 10 -108 27c-50 24 -77 59 -80 105v11c0 29 7 55 20 76c18 28 45 42 79 44h6c49 0 93 -42 97 -87v-9c0 -51 -34 -86 -105 -106c17 -24 51 -36 102 -36c62 0 116 43 140 85 c9 16 13 41 13 74c0 20 -1 42 -5 67c-8 53 -18 106 -26 159zM461 939c-95 0 -135 -175 -135 -286c0 -24 2 -48 5 -71c50 39 92 82 127 128c40 53 60 100 60 140v8c-4 53 -22 81 -55 81h-2zM406 119l54 -326c73 25 110 78 110 161c0 7 0 15 -1 23c-7 95 -57 142 -151 142h-12 zM382 117c-72 -2 -128 -47 -128 -120v-7c2 -46 43 -99 75 -115c-3 -2 -7 -5 -10 -10c-70 33 -116 88 -123 172v11c0 68 44 126 88 159c23 17 49 29 78 36l-29 170c-21 -13 -52 -37 -92 -73c-50 -44 -86 -84 -109 -119c-45 -69 -67 -130 -67 -182v-13c5 -68 35 -127 93 -176 s125 -73 203 -73c25 0 50 3 75 9c-19 111 -36 221 -54 331z"/></g><g id="E08A-o15pwt9u"><path transform="scale(1,-1)" d="M340 179c-9 24 -56 41 -89 41c-46 0 -81 -28 -100 -58c-17 -28 -25 -78 -25 -150c0 -65 2 -111 8 -135c8 -31 18 -49 40 -67c20 -17 43 -25 70 -25c54 0 92 36 115 75c14 25 23 54 28 88h27c0 -63 -24 -105 -58 -141c-35 -38 -82 -56 -140 -56c-45 0 -83 13 -115 39 c-57 45 -101 130 -101 226c0 59 33 127 68 163c36 37 97 72 160 72c36 0 93 -21 121 -40c11 -8 23 -17 33 -30c19 -23 27 -48 27 -76c0 -51 -35 -88 -86 -88c-43 0 -76 27 -76 68c0 26 7 35 21 51c15 17 32 27 58 32c7 2 14 7 14 11z"/></g><g id="E0A4-o15pwt9u"><path transform="scale(1,-1)" d="M0 -39c0 68 73 172 200 172c66 0 114 -37 114 -95c0 -84 -106 -171 -218 -171c-64 0 -96 30 -96 94z"/></g><g id="E240-o15pwt9u"><path transform="scale(1,-1)" d="M179 -646c15 29 29 55 46 102c18 49 30 108 30 138c0 105 -80 173 -168 200c-18 5 -47 9 -87 16v190h22c8 0 33 -61 71 -95c4 -3 -2 3 61 -56c62 -58 122 -137 122 -241c0 -38 -13 -106 -35 -163c-20 -51 -43 -99 -66 -132c-6 -5 -10 -7 -13 -7s-5 2 -5 5l4 10 c1 3 14 25 18 33z"/></g><g id="E0A3-o15pwt9u"><path transform="scale(1,-1)" d="M278 64c0 22 -17 39 -43 39c-12 0 -26 -3 -41 -10c-85 -43 -165 -94 -165 -156c5 -25 15 -32 49 -32c67 11 200 95 200 159zM0 -36c0 68 73 174 200 174c66 0 114 -39 114 -97c0 -84 -106 -173 -218 -173c-64 0 -96 32 -96 96z"/></g><g id="E241-o15pwt9u"><path transform="scale(1,-1)" d="M179 646c-4 8 -17 30 -18 33l-4 10c0 3 2 5 5 5s7 -2 13 -7c23 -33 46 -81 66 -132c22 -57 35 -125 35 -163c0 -104 -60 -183 -122 -241c-63 -59 -57 -53 -61 -56c-38 -34 -63 -95 -71 -95h-22v190c40 7 69 11 87 16c88 27 168 95 168 200c0 30 -12 89 -30 138 c-17 47 -31 73 -46 102z"/></g><g id="E243-o15pwt9u"><path transform="scale(1,-1)" d="M216 730c-5 8 -10 13 -11 16l-4 10c0 3 2 5 5 5s7 -2 13 -7c35 -42 57 -101 57 -172c0 -34 -6 -65 -17 -94c10 -31 17 -64 17 -96c0 -104 -60 -183 -122 -241c-63 -59 -57 -53 -61 -56c-38 -34 -63 -95 -71 -95h-22v190v190c40 7 69 11 87 16c116 36 175 111 175 197 c0 44 -15 91 -46 137zM248 463c-23 -48 -58 -89 -94 -122c-63 -59 -57 -53 -61 -56c-30 -27 -44 -71 -53 -88c20 3 36 6 47 9c88 27 168 95 168 200c0 19 -3 39 -7 57z"/></g></defs><style type="text/css">#o15pwt9u g.page-margin {font-family:Times,serif;}#o15pwt9u g.ending, #o15pwt9u g.fing, #o15pwt9u g.reh, #o15pwt9u g.tempo {font-weight:bold;}#o15pwt9u g.dir, #o15pwt9u g.dynam, #o15pwt9u g.mNum {font-style:italic;}#o15pwt9u g.label {font-weight:normal;}#o15pwt9u path {stroke:currentColor}</style><svg class="definition-scale" color="black" viewBox="0 0 14000 2100"><g class="page-margin" transform="translate(0, 150)"><g data-id="s1leww8p" data-class="mdiv" class="mdiv pageMilestone"/><g data-id="tlsuxb7" data-class="score" class="score pageMilestone"/><g data-id="b1v428nw" data-class="system" class="system"><g data-id="v1v3hy2t" data-class="section" class="section systemMilestone"/><g data-id="p1spu5p8" data-class="measure" class="measure"><g data-id="h1kefwi9" data-class="staff" class="staff"><path d="M0 540 L1865 540" stroke-width="13"/><path d="M0 720 L1865 720" stroke-width="13"/><path d="M0 900 L1865 900" stroke-width="13"/><path d="M0 1080 L1865 1080" stroke-width="13"/><path d="M0 1260 L1865 1260" stroke-width="13"/><g data-id="t1dey8pg" data-class="clef" class="clef"><use href="#E050-o15pwt9u" transform="translate(90, 1080) scale(0.72, 0.72)"/></g><g data-id="u1assno" data-class="keySig" class="keySig"/><g data-id="v177ulnd" data-class="meterSig" class="meterSig"><use href="#E08A-o15pwt9u" transform="translate(735, 900) scale(0.72, 0.72)"/></g><g data-id="i1vxlwrh" data-class="layer" class="layer"><g data-id="rjpcd92" data-class="note" class="note"><g data-class="notehead" class="notehead"><use href="#E0A4-o15pwt9u" transform="translate(1314, 1260) scale(0.72, 0.72)"/></g><g data-id="d630hn3" data-class="stem" class="stem"><path d="M1531 1232 L1531 630" stroke-width="18"/><g data-id="epo8zwy" data-class="flag" class="flag"><use href="#E240-o15pwt9u" transform="translate(1522, 630) scale(0.72, 0.72)"/></g></g></g></g></g><g data-id="xnlc70h" data-class="barLine" class="barLine"><path d="M1852 540 L1852 1260" stroke-width="27"/></g></g><g data-id="y17jhx25" data-class="measure" class="measure"><g data-id="j877czv" data-class="staff" class="staff"><path d="M1865 540 L4653 540" stroke-width="13"/><path d="M1865 720 L4653 720" stroke-width="13"/><path d="M1865 900 L4653 900" stroke-width="13"/><path d="M1865 1080 L4653 1080" stroke-width="13"/><path d="M1865 1260 L4653 1260" stroke-width="13"/><g data-id="k9gyyxn" data-class="layer" class="layer"><g data-id="s1lyg88s" data-class="note" class="note"><g data-class="notehead" class="notehead"><use href="#E0A4-o15pwt9u" transform="translate(2056, 630) scale(0.72, 0.72)"/></g><g data-id="f1mpgdc9" data-class="stem" class="stem"><path d="M2065 658 L2065 1260" stroke-width="18"/></g></g><g data-id="tg6u0zx" data-class="note" class="note"><g data-class="notehead" class="notehead"><use href="#E0A4-o15pwt9u" transform="translate(2789, 630) scale(0.72, 0.72)"/></g><g data-id="gxinivb" data-class="stem" class="stem"><path d="M2798 658 L2798 1260" stroke-width="18"/></g></g><g data-id="ugdq761" data-class="note" class="note"><g data-class="notehead" class="notehead"><use href="#E0A3-o15pwt9u" transform="translate(3523, 630) scale(0.72, 0.72)"/></g><g data-id="hz01gge" data-class="stem" class="stem"><path d="M3532 655 L3532 1260" stroke-width="18"/></g></g></g></g><g data-id="q1f6mrow" data-class="tie" class="tie"><path d="M3794,585 C4039,432 4552,432 4799,585 C4541,480 4050,480 3794,585" stroke-linecap="round" stroke-linejoin="round" stroke-width="9"/></g><g data-id="g10wtfbp" data-class="barLine" class="barLine"><path d="M4640 540 L4640 1260" stroke-width="27"/></g></g><g data-id="h16o23lb" data-class="measure" class="measure"><g data-id="l12eb29" data-class="staff" class="staff"><path d="M4653 540 L6899 540" stroke-width="13"/><path d="M4653 720 L6899 720" stroke-width="13"/><path d="M4653 900 L6899 900" stroke-width="13"/><path d="M4653 1080 L6899 1080" stroke-width="13"/><path d="M4653 1260 L6899 1260" stroke-width="13"/><g data-id="m14oupk8" data-class="layer" class="layer"><g data-id="vc2fbda" data-class="note" class="note"><g data-class="notehead" class="notehead"><use href="#E0A3-o15pwt9u" transform="translate(4844, 630) scale(0.72, 0.72)"/></g><g data-id="j1ya5ptn" data-class="dots" class="dots"><ellipse cx="5160" cy="630" rx="36" ry="36" fill-opacity="1" stroke-opacity="1"/><ellipse cx="5295" cy="630" rx="36" ry="36" fill-opacity="1" stroke-opacity="1"/></g><g data-id="i90emym" data-class="stem" class="stem"><path d="M4853 655 L4853 1260" stroke-width="18"/></g></g><g data-id="w1typwn5" data-class="note" class="note"><g data-class="notehead" class="notehead"><use href="#E0A4-o15pwt9u" transform="translate(6408, 630) scale(0.72, 0.72)"/></g><g data-id="ktf9om2" data-class="stem" class="stem"><path d="M6417 658 L6417 1260" stroke-width="18"/><g data-id="lzkdllr" data-class="flag" class="flag"><use href="#E241-o15pwt9u" transform="translate(6408, 1260) scale(0.72, 0.72)"/></g></g></g></g></g><g data-id="pum15v8" data-class="barLine" class="barLine"><path d="M6886 540 L6886 1260" stroke-width="27"/></g></g><g data-id="qwe2plp" data-class="measure" class="measure"><g data-id="ncs78za" data-class="staff" class="staff"><path d="M6899 540 L9984 540" stroke-width="13"/><path d="M6899 720 L9984 720" stroke-width="13"/><path d="M6899 900 L9984 900" stroke-width="13"/><path d="M6899 1080 L9984 1080" stroke-width="13"/><path d="M6899 1260 L9984 1260" stroke-width="13"/><g data-id="okpjhaw" data-class="layer" class="layer"><g data-id="xtsifw1" data-class="note" class="note"><g data-class="notehead" class="notehead"><use href="#E0A4-o15pwt9u" transform="translate(7090, 630) scale(0.72, 0.72)"/></g><g data-id="mz7t1v6" data-class="stem" class="stem"><path d="M7099 658 L7099 1260" stroke-width="18"/></g></g><g data-id="y4oe42q" data-class="note" class="note"><g data-class="notehead" class="notehead"><use href="#E0A4-o15pwt9u" transform="translate(7823, 630) scale(0.72, 0.72)"/></g><g data-id="ndgsikw" data-class="stem" class="stem"><path d="M7832 658 L7832 1260" stroke-width="18"/></g></g><g data-id="z10094po" data-class="note" class="note"><g data-class="notehead" class="notehead"><use href="#E0A4-o15pwt9u" transform="translate(8557, 630) scale(0.72, 0.72)"/></g><g data-id="pb1z7qd" data-class="dots" class="dots"><ellipse cx="8873" cy="630" rx="36" ry="36" fill-opacity="1" stroke-opacity="1"/></g><g data-id="o1m7hnx2" data-class="stem" class="stem"><path d="M8566 658 L8566 1260" stroke-width="18"/></g></g><g data-id="aflty2x" data-class="note" class="note"><g data-class="notehead" class="notehead"><use href="#E0A4-o15pwt9u" transform="translate(9493, 630) scale(0.72, 0.72)"/></g><g data-id="q1ud0nvf" data-class="stem" class="stem"><path d="M9502 658 L9502 1260" stroke-width="18"/><g data-id="rxms13v" data-class="flag" class="flag"><use href="#E241-o15pwt9u" transform="translate(9493, 1260) scale(0.72, 0.72)"/></g></g></g></g></g><g data-id="y1dh3tla" data-class="barLine" class="barLine"><path d="M9971 540 L9971 1260" stroke-width="27"/></g></g><g data-id="z453irw" data-class="measure" class="measure"><g data-id="pj7sze0" data-class="staff" class="staff"><path d="M9984 540 L14003 540" stroke-width="13"/><path d="M9984 720 L14003 720" stroke-width="13"/><path d="M9984 900 L14003 900" stroke-width="13"/><path d="M9984 1080 L14003 1080" stroke-width="13"/><path d="M9984 1260 L14003 1260" stroke-width="13"/><g data-id="qct8kld" data-class="layer" class="layer"><g data-id="bz9sav8" data-class="note" class="note"><g data-class="notehead" class="notehead"><use href="#E0A4-o15pwt9u" transform="translate(10175, 630) scale(0.72, 0.72)"/></g><g data-id="tk4b117" data-class="dots" class="dots"><ellipse cx="10491" cy="630" rx="36" ry="36" fill-opacity="1" stroke-opacity="1"/></g><g data-id="s3s1up0" data-class="stem" class="stem"><path d="M10184 658 L10184 1260" stroke-width="18"/><g data-id="u6jc6kg" data-class="flag" class="flag"><use href="#E241-o15pwt9u" transform="translate(10175, 1260) scale(0.72, 0.72)"/></g></g></g><g data-id="ch27aje" data-class="note" class="note"><g data-class="notehead" class="notehead"><use href="#E0A4-o15pwt9u" transform="translate(10791, 630) scale(0.72, 0.72)"/></g><g data-id="vw61zc8" data-class="stem" class="stem"><path d="M10800 658 L10800 1260" stroke-width="18"/><g data-id="w1df3lwc" data-class="flag" class="flag"><use href="#E243-o15pwt9u" transform="translate(10791, 1260) scale(0.72, 0.72)"/></g></g></g><g data-id="d14tdzow" data-class="note" class="note"><g data-class="notehead" class="notehead"><use href="#E0A4-o15pwt9u" transform="translate(11125, 630) scale(0.72, 0.72)"/></g><g data-id="yp4htkk" data-class="dots" class="dots"><ellipse cx="11441" cy="630" rx="36" ry="36" fill-opacity="1" stroke-opacity="1"/></g><g data-id="x1jlmjua" data-class="stem" class="stem"><path d="M11134 658 L11134 1260" stroke-width="18"/><g data-id="zeai6ui" data-class="flag" class="flag"><use href="#E241-o15pwt9u" transform="translate(11125, 1260) scale(0.72, 0.72)"/></g></g></g><g data-id="e3nqwv1" data-class="note" class="note"><g data-class="notehead" class="notehead"><use href="#E0A4-o15pwt9u" transform="translate(11741, 630) scale(0.72, 0.72)"/></g><g data-id="ad9mih2" data-class="stem" class="stem"><path d="M11750 658 L11750 1260" stroke-width="18"/><g data-id="b18a1x3e" data-class="flag" class="flag"><use href="#E243-o15pwt9u" transform="translate(11741, 1260) scale(0.72, 0.72)"/></g></g></g><g data-id="f14gi3d" data-class="note" class="note"><g data-class="notehead" class="notehead"><use href="#E0A4-o15pwt9u" transform="translate(12075, 630) scale(0.72, 0.72)"/></g><g data-id="dobabwq" data-class="dots" class="dots"><ellipse cx="12391" cy="630" rx="36" ry="36" fill-opacity="1" stroke-opacity="1"/></g><g data-id="c15q5tyq" data-class="stem" class="stem"><path d="M12084 658 L12084 1260" stroke-width="18"/><g data-id="e1cgp3uv" data-class="flag" class="flag"><use href="#E241-o15pwt9u" transform="translate(12075, 1260) scale(0.72, 0.72)"/></g></g></g><g data-id="gyka7r7" data-class="note" class="note"><g data-class="notehead" class="notehead"><use href="#E0A4-o15pwt9u" transform="translate(12691, 630) scale(0.72, 0.72)"/></g><g data-id="f6vgf6m" data-class="stem" class="stem"><path d="M12700 658 L12700 1260" stroke-width="18"/><g data-id="gn7uanj" data-class="flag" class="flag"><use href="#E243-o15pwt9u" transform="translate(12691, 1260) scale(0.72, 0.72)"/></g></g></g><g data-id="h1xzaylj" data-class="note" class="note"><g data-class="notehead" class="notehead"><use href="#E0A4-o15pwt9u" transform="translate(13025, 630) scale(0.72, 0.72)"/></g><g data-id="idsvye6" data-class="dots" class="dots"><ellipse cx="13341" cy="630" rx="36" ry="36" fill-opacity="1" stroke-opacity="1"/></g><g data-id="h1vnasox" data-class="stem" class="stem"><path d="M13034 658 L13034 1260" stroke-width="18"/><g data-id="j153axim" data-class="flag" class="flag"><use href="#E241-o15pwt9u" transform="translate(13025, 1260) scale(0.72, 0.72)"/></g></g></g><g data-id="i1yvwt9p" data-class="note" class="note"><g data-class="notehead" class="notehead"><use href="#E0A4-o15pwt9u" transform="translate(13641, 630) scale(0.72, 0.72)"/></g><g data-id="kya0rkz" data-class="stem" class="stem"><path d="M13650 658 L13650 1260" stroke-width="18"/><g data-id="l18u7i8z" data-class="flag" class="flag"><use href="#E243-o15pwt9u" transform="translate(13641, 1260) scale(0.72, 0.72)"/></g></g></g></g></g><g data-id="haxwrib" data-class="barLine" class="barLine"><path d="M13990 540 L13990 1260" stroke-width="27"/></g></g></g></g></svg></svg>