<svg viewBox="0 0 560 84" version="1.1" xmlns="http://www.w3.org/2000/svg" xmlns:xlink="http://www.w3.org/1999/xlink" overflow="visible" id="wd88y69"><desc>Engraved by Verovio 5.6.0-85e7620</desc><defs><g id="E052-wd88y69"><path transform="scale(1,-1)" d="M382 117c-72 -2 -128 -47 -128 -120v-7c2 -46 43 -99 75 -115c-3 -2 -7 -5 -10 -10c-70 33 -116 88 -123 172v11c0 68 44 126 88 159c23 17 49 29 78 36l-29 170c-21 -13 -52 -37 -92 -73c-50 -44 -86 -84 -109 -119c-45 -69 -67 -130 -67 -182v-13 c5 -68 35 -127 93 -176s125 -73 203 -73c25 0 50 3 75 9c-19 111 -36 221 -54 331zM406 119l54 -326c73 25 110 78 110 161c0 7 0 15 -1 23c-7 95 -57 142 -151 142h-12zM461 939c-95 0 -135 -175 -135 -286c0 -24 2 -48 5 -71c50 39 92 82 127 128c40 53 60 100 60 140v8 c-4 53 -22 81 -55 81h-2zM441 -245c-23 -4 -48 -6 -76 -6c-59 0 -102 7 -130 20c-88 42 -150 93 -187 154c-26 44 -43 103 -48 176c0 6 -1 13 -1 19c0 54 15 111 45 170c29 57 65 106 110 148s96 85 153 127c-3 16 -8 46 -13 92c-4 43 -5 73 -5 89c0 117 16 172 69 257 c34 54 64 82 89 82c21 0 43 -30 69 -92s39 -115 41 -159v-15c0 -109 -21 -162 -67 -241c-13 -20 -63 -90 -98 -118c-13 -9 -25 -19 -37 -29l31 -181c8 1 18 2 28 2c58 0 102 -12 133 -35c59 -43 92 -104 98 -184c1 -7 1 -15 1 -22c0 -123 -87 -209 -181 -248 c8 -57 17 -110 25 -162c5 -31 6 -58 6 -80c0 -30 -5 -53 -14 -70c-25 -46 -59 -77 -102 -92c21 -1 85 -13 85 -60c0 -35 -22 -43 -31 -50c-6 -5 -8 -10 -8 -16s0 -11 4 -16c6 -11 9 -22 9 -34c0 -27 -18 -53 -46 -65c-11 -4 -27 -6 -41 -6c-34 0 -82 21 -90 58 c-1 5 -2 8 -2 12c0 28 25 57 51 66c4 1 6 2 6 5c0 2 -1 3 -2 3c-11 13 -16 27 -16 41c0 21 11 40 30 51h-5c-5 0 -11 -1 -16 -1c-37 0 -72 10 -108 27c-50 24 -77 59 -80 105v11c0 29 7 55 20 76c18 28 45 42 79 44h6c49 0 93 -42 97 -87v-9c0 -51 -34 -86 -105 -106 c17 -24 51 -36 102 -36c62 0 116 43 140 85c9 16 13 41 13 74c0 20 -1 42 -5 67c-8 53 -18 106 -26 159zM315 -781c-3 -2 -6 -5 -7 -8c-6 -8 -10 -19 -10 -30c0 -2 0 -4 1 -7c7 -32 34 -52 53 -52c20 0 37 20 37 36c0 5 -2 9 -4 14c-5 13 -14 24 -25 34c-6 5 -11 10 -17 14 c-4 2 -9 6 -14 6c-6 0 -11 -3 -14 -7zM349 -685c0 -14 10 -25 18 -34c8 -8 16 -18 26 -25c5 -2 10 -4 13 -4c17 0 22 30 23 48c0 9 -3 20 -9 26c-8 9 -23 14 -40 14c-15 -1 -29 -8 -31 -25z"/></g><g id="E260-wd88y69"><path transform="scale(1,-1)" d="M20 110c32 16 54 27 93 27c26 0 35 -3 54 -13c13 -7 24 -20 27 -38l4 -25c0 -28 -16 -57 -45 -89c-23 -25 -39 -44 -65 -68l-88 -79v644h20v-359zM90 106c-32 0 -48 -10 -70 -29v-194c31 31 54 59 71 84c21 32 32 59 32 84c0 9 1 16 1 20c0 14 -3 21 -11 30l-8 3z"/></g><g id="E08A-wd88y69"><path transform="scale(1,-1)" d="M340 179c-9 24 -56 41 -89 41c-46 0 -81 -28 -100 -58c-17 -28 -25 -78 -25 -150c0 -65 2 -111 8 -135c8 -31 18 -49 40 -67c20 -17 43 -25 70 -25c54 0 92 36 115 75c14 25 23 54 28 88h27c0 -63 -24 -105 -58 -141c-35 -38 -82 -56 -140 -56c-45 0 -83 13 -115 39 c-57 45 -101 130 -101 226c0 59 33 127 68 163c36 37 97 72 160 72c36 0 93 -21 121 -40c11 -8 23 -17 33 -30c19 -23 27 -48 27 -76c0 -51 -35 -88 -86 -88c-43 0 -76 27 -76 68c0 26 7 35 21 51c15 17 32 27 58 32c7 2 14 7 14 11z"/></g><g id="E0A4-wd88y69"><path transform="scale(1,-1)" d="M0 -39c0 68 73 172 200 172c66 0 114 -37 114 -95c0 -84 -106 -171 -218 -171c-64 0 -96 30 -96 94z"/></g><g id="E241-wd88y69"><path transform="scale(1,-1)" d="M179 646c-4 8 -17 30 -18 33l-4 10c0 3 2 5 5 5s7 -2 13 -7c23 -33 46 -81 66 -132c22 -57 35 -125 35 -163c0 -104 -60 -183 -122 -241c-63 -59 -57 -53 -61 -56c-38 -34 -63 -95 -71 -95h-22v190c40 7 69 11 87 16c88 27 168 95 168 200c0 30 -12 89 -30 138 c-17 47 -31 73 -46 102z"/></g><g id="E243-wd88y69"><path transform="scale(1,-1)" d="M216 730c-5 8 -10 13 -11 16l-4 10c0 3 2 5 5 5s7 -2 13 -7c35 -42 57 -101 57 -172c0 -34 -6 -65 -17 -94c10 -31 17 -64 17 -96c0 -104 -60 -183 -122 -241c-63 -59 -57 -53 -61 -56c-38 -34 -63 -95 -71 -95h-22v190v190c40 7 69 11 87 16c116 36 175 111 175 197 c0 44 -15 91 -46 137zM248 463c-23 -48 -58 -89 -94 -122c-63 -59 -57 -53 -61 -56c-30 -27 -44 -71 -53 -88c20 3 36 6 47 9c88 27 168 95 168 200c0 19 -3 39 -7 57z"/></g><g id="E0A3-wd88y69"><path transform="scale(1,-1)" d="M278 64c0 22 -17 39 -43 39c-12 0 -26 -3 -41 -10c-85 -43 -165 -94 -165 -156c5 -25 15 -32 49 -32c67 11 200 95 200 159zM0 -36c0 68 73 174 200 174c66 0 114 -39 114 -97c0 -84 -106 -173 -218 -173c-64 0 -96 32 -96 96z"/></g><g id="E4E4-wd88y69"><path transform="scale(1,-1)" d="M0 10v105c0 9 1 10 10 10h280c9 0 10 -1 10 -10v-105c0 -9 -1 -10 -10 -10h-280c-9 0 -10 1 -10 10z"/></g></defs><style type="text/css">#wd88y69 g.page-margin {font-family:Times,serif;}#wd88y69 g.ending, #wd88y69 g.fing, #wd88y69 g.reh, #wd88y69 g.tempo {font-weight:bold;}#wd88y69 g.dir, #wd88y69 g.dynam, #wd88y69 g.mNum {font-style:italic;}#wd88y69 g.label {font-weight:normal;}#wd88y69 path {stroke:currentColor}</style><svg class="definition-scale" color="black" viewBox="0 0 14000 2100"><g class="page-margin" transform="translate(0, 150)"><g data-id="l1aofiu6" data-class="mdiv" class="mdiv pageMilestone"/><g data-id="mts11y" data-class="score" class="score pageMilestone"/><g data-id="x4ysumn" data-class="system" class="system"><g data-id="o14vium9" data-class="section" class="section systemMilestone"/><g data-id="x1iz9req" data-class="measure" class="measure"><g data-id="amzb22f" data-class="staff" class="staff"><path d="M0 540 L3328 540" stroke-width="13"/><path d="M0 720 L3328 720" stroke-width="13"/><path d="M0 900 L3328 900" stroke-width="13"/><path d="M0 1080 L3328 1080" stroke-width="13"/><path d="M0 1260 L3328 1260" stroke-width="13"/><g data-id="c7nm02a" data-class="clef" class="clef"><use href="#E052-wd88y69" transform="translate(90, 1080) scale(0.72, 0.72)"/></g><g data-id="dxcw28b" data-class="keySig" class="keySig"><g data-id="eixofji" data-class="keyAccid" class="keyAccid"><use href="#E260-wd88y69" transform="translate(735, 900) scale(0.72, 0.72)"/></g><g data-id="f1uz7dn0" data-class="keyAccid" class="keyAccid"><use href="#E260-wd88y69" transform="translate(915, 630) scale(0.72, 0.72)"/></g><g data-id="gdzqjsx" data-class="keyAccid" class="keyAccid"><use href="#E260-wd88y69" transform="translate(1095, 990) scale(0.72, 0.72)"/></g></g><g data-id="h1yznwaz" data-class="meterSig" class="meterSig"><use href="#E08A-wd88y69" transform="translate(1417, 900) scale(0.72, 0.72)"/></g><g data-id="bez5j9m" data-class="layer" class="layer"><g data-id="zw3495i" data-class="note" class="note"><g data-class="notehead" class="notehead"><use href="#E0A4-wd88y69" transform="translate(1985, 630) scale(0.72, 0.72)"/></g><g data-id="u155af3b" data-class="dots" class="dots"><ellipse cx="2301" cy="630" rx="36" ry="36" fill-opacity="1" stroke-opacity="1"/></g><g data-id="t17bkut5" data-class="stem" class="stem"><path d="M1994 658 L1994 1260" stroke-width="18"/></g><g data-id="hs6i2qn" data-class="accid" class="accid"/></g><g data-id="a1nv0pgb" data-class="note" class="note"><g data-class="notehead" class="notehead"><use href="#E0A4-wd88y69" transform="translate(2865, 810) scale(0.72, 0.72)"/></g><g data-id="v1dk911g" data-class="stem" class="stem"><path d="M2874 838 L2874 1440" stroke-width="18"/><g data-id="woc8j2b" data-class="flag" class="flag"><use href="#E241-wd88y69" transform="translate(2865, 1440) scale(0.72, 0.72)"/></g></g></g></g></g><g data-id="f6ba90w" data-class="barLine" class="barLine"><path d="M3315 540 L3315 1260" stroke-width="27"/></g></g><g data-id="gujy51r" data-class="measure" class="measure"><g data-id="cxk203y" data-class="staff" class="staff"><path d="M3328 540 L6487 540" stroke-width="13"/><path d="M3328 720 L6487 720" stroke-width="13"/><path d="M3328 900 L6487 900" stroke-width="13"/><path d="M3328 1080 L6487 1080" stroke-width="13"/><path d="M3328 1260 L6487 1260" stroke-width="13"/><g data-id="d15ayj9o" data-class="layer" class="layer"><g data-id="buhjut2" data-class="note" class="note"><g data-class="notehead" class="notehead"><use href="#E0A4-wd88y69" transform="translate(3508, 630) scale(0.72, 0.72)"/></g><g data-id="xoqxc44" data-class="stem" class="stem"><path d="M3517 658 L3517 1260" stroke-width="18"/></g><g data-id="i1l0x4ue" data-class="accid" class="accid"/></g><g data-id="clm9kuy" data-class="note" class="note"><g data-class="notehead" class="notehead"><use href="#E0A4-wd88y69" transform="translate(4198, 720) scale(0.72, 0.72)"/></g><g data-id="z1x5a25r" data-class="dots" class="dots"><ellipse cx="4514" cy="630" rx="36" ry="36" fill-opacity="1" stroke-opacity="1"/></g><g data-id="y5ic0sm" data-class="stem" class="stem"><path d="M4207 748 L4207 1350" stroke-width="18"/><g data-id="a2mtqo2" data-class="flag" class="flag"><use href="#E241-wd88y69" transform="translate(4198, 1350) scale(0.72, 0.72)"/></g></g></g><g data-id="d1c5hw77" data-class="note" class="note"><g data-class="notehead" class="notehead"><use href="#E0A4-wd88y69" transform="translate(4778, 810) scale(0.72, 0.72)"/></g><g data-id="be4d0s0" data-class="stem" class="stem"><path d="M4787 838 L4787 1440" stroke-width="18"/><g data-id="cv45btb" data-class="flag" class="flag"><use href="#E243-wd88y69" transform="translate(4778, 1440) scale(0.72, 0.72)"/></g></g></g><g data-id="eb5gje6" data-class="note" class="note"><g data-class="notehead" class="notehead"><use href="#E0A4-wd88y69" transform="translate(5094, 810) scale(0.72, 0.72)"/></g><g data-id="d1teqyk4" data-class="stem" class="stem"><path d="M5103 838 L5103 1440" stroke-width="18"/></g></g><g data-id="fgruch1" data-class="note" class="note"><g data-class="notehead" class="notehead"><use href="#E0A4-wd88y69" transform="translate(5784, 990) scale(0.72, 0.72)"/></g><g data-id="e19wlmks" data-class="stem" class="stem"><path d="M6001 962 L6001 360" stroke-width="18"/></g><g data-id="jno7bvt" data-class="accid" class="accid"/></g></g></g><g data-id="o1ux5s3o" data-class="barLine" class="barLine"><path d="M6474 540 L6474 1260" stroke-width="27"/></g></g><g data-id="pjjuwmo" data-class="measure" class="measure"><g data-id="e1mn54uc" data-class="staff" class="staff"><path d="M6487 540 L8780 540" stroke-width="13"/><path d="M6487 720 L8780 720" stroke-width="13"/><path d="M6487 900 L8780 900" stroke-width="13"/><path d="M6487 1080 L8780 1080" stroke-width="13"/><path d="M6487 1260 L8780 1260" stroke-width="13"/><g data-id="f6afhhx" data-class="layer" class="layer"><g data-id="ghct62s" data-class="note" class="note"><g data-class="notehead" class="notehead"><use href="#E0A3-wd88y69" transform="translate(6667, 1080) scale(0.72, 0.72)"/></g><g data-id="f1mf1svw" data-class="stem" class="stem"><path d="M6884 1052 L6884 450" stroke-width="18"/></g></g><g data-id="yvbmkq9" data-class="rest" class="rest"><use href="#E4E4-wd88y69" transform="translate(7717, 900) scale(0.72, 0.72)"/><g data-class="ledgerLines" class="ledgerLines"/></g></g></g><g data-id="x1h4f5dx" data-class="barLine" class="barLine"><path d="M8767 540 L8767 1260" stroke-width="27"/></g></g><g data-id="npkn6io" data-class="systemMilestoneEnd" class="systemMilestoneEnd o14vium9"/></g><g data-id="oi6o81a" data-class="pageMilestoneEnd" class="pageMilestoneEnd mts11y"/><g data-id="p1io2xjv" data-class="pageMilestoneEnd" class="pageMilestoneEnd l1aofiu6"/></g></svg></svg>