<svg viewBox="0 0 560 84" version="1.1" xmlns="http://www.w3.org/2000/svg" xmlns:xlink="http://www.w3.org/1999/xlink" overflow="visible" id="wdc6zpx"><desc>Engraved by Verovio 5.6.0-85e7620</desc><defs><g id="E050-wdc6zpx"><path transform="scale(1,-1)" d="M441 -245c-23 -4 -48 -6 -76 -6c-59 0 -102 7 -130 20c-88 42 -150 93 -187 154c-26 44 -43 103 -48 176c0 6 -1 13 -1 19c0 54 15 111 45 170c29 57 65 106 110 148s96 85 153 127c-3 16 -8 46 -13 92c-4 43 -5 73 -5 89c0 117 16 172 69 257c34 54 64 82 89 82 c21 0 43 -30 69 -92s39 -115 41 -159v-15c0 -109 -21 -162 -67 -241c-13 -20 -63 -90 -98 -118c-13 -9 -25 -19 -37 -29l31 -181c8 1 18 2 28 2c58 0 102 -12 133 -35c59 -43 92 -104 98 -184c1 -7 1 -15 1 -22c0 -123 -87 -209 -181 -248c8 -57 17 -110 25 -162 c5 -31 6 -58 6 -80c0 -30 -5 -53 -14 -70c-35 -64 -88 -99 -158 -103c-5 0 -11 -1 -16 -1c-37 0 -72 10 -108 27c-50 24 -77 59 -80 105v11c0 29 7 55 20 76c18 28 45 42 79 44h6c49 0 93 -42 97 -87v-9c0 -51 -34 -86 -105 -106c17 -24 51 -36 102 -36c62 0 116 43 140 85 c9 16 13 41 13 74c0 20 -1 42 -5 67c-8 53 -18 106 -26 159zM461 939c-95 0 -135 -175 -135 -286c0 -24 2 -48 5 -71c50 39 92 82 127 128c40 53 60 100 60 140v8c-4 53 -22 81 -55 81h-2zM406 119l54 -326c73 25 110 78 110 161c0 7 0 15 -1 23c-7 95 -57 142 -151 142h-12 zM382 117c-72 -2 -128 -47 -128 -120v-7c2 -46 43 -99 75 -115c-3 -2 -7 -5 -10 -10c-70 33 -116 88 -123 172v11c0 68 44 126 88 159c23 17 49 29 78 36l-29 170c-21 -13 -52 -37 -92 -73c-50 -44 -86 -84 -109 -119c-45 -69 -67 -130 -67 -182v-13c5 -68 35 -127 93 -176 s125 -73 203 -73c25 0 50 3 75 9c-19 111 -36 221 -54 331z"/></g><g id="E262-wdc6zpx"><path transform="scale(1,-1)" d="M136 186v169h17v-164l44 14v-91l-44 -14v-165l44 12v-91l-44 -13v-155h-17v150l-76 -22v-155h-17v149l-43 -13v90l43 14v167l-43 -14v92l43 13v169h17v-163zM60 73v-167l76 22v168z"/></g><g id="E086-wdc6zpx"><path transform="scale(1,-1)" d="M284 -91c0 37 -28 92 -67 92c-35 0 -65 -54 -65 -111c0 -52 22 -104 68 -104c47 0 64 68 64 123zM230 214c-36 0 -90 -33 -90 -184l2 -36c40 24 81 36 120 36c80 0 140 -48 140 -121c0 -99 -99 -159 -182 -159c-160 0 -200 173 -200 244c0 21 2 43 7 71l10 35 c26 85 73 115 98 126c41 19 74 24 103 24c93 0 142 -63 142 -105c0 -58 -52 -72 -73 -72c-33 0 -59 24 -65 35c-3 5 -6 14 -7 25l11 30c6 15 9 27 9 35c0 11 -9 16 -25 16z"/></g><g id="E088-wdc6zpx"><path transform="scale(1,-1)" d="M195 -214c76 0 88 58 90 68c0 34 -35 60 -57 73l-52 29c-21 10 -32 17 -34 20c-39 -33 -58 -54 -62 -92c5 -23 23 -98 115 -98zM301 135c0 61 -72 76 -113 76c-40 0 -77 -17 -77 -51c3 -21 15 -38 26 -50c17 -15 33 -26 48 -34l65 -28c34 27 51 56 51 87zM176 -250 c-57 0 -166 26 -166 132c0 47 30 86 89 116c-33 15 -79 60 -79 119c0 79 85 132 178 132h18c5 0 21 1 28 -1c25 0 126 -30 126 -110c0 -37 -23 -76 -69 -116c43 -25 83 -71 83 -119c0 -101 -118 -153 -208 -153z"/></g><g id="E0A4-wdc6zpx"><path transform="scale(1,-1)" d="M0 -39c0 68 73 172 200 172c66 0 114 -37 114 -95c0 -84 -106 -171 -218 -171c-64 0 -96 30 -96 94z"/></g><g id="E240-wdc6zpx"><path transform="scale(1,-1)" d="M179 -646c15 29 29 55 46 102c18 49 30 108 30 138c0 105 -80 173 -168 200c-18 5 -47 9 -87 16v190h22c8 0 33 -61 71 -95c4 -3 -2 3 61 -56c62 -58 122 -137 122 -241c0 -38 -13 -106 -35 -163c-20 -51 -43 -99 -66 -132c-6 -5 -10 -7 -13 -7s-5 2 -5 5l4 10 c1 3 14 25 18 33z"/></g><g id="E241-wdc6zpx"><path transform="scale(1,-1)" d="M179 646c-4 8 -17 30 -18 33l-4 10c0 3 2 5 5 5s7 -2 13 -7c23 -33 46 -81 66 -132c22 -57 35 -125 35 -163c0 -104 -60 -183 -122 -241c-63 -59 -57 -53 -61 -56c-38 -34 -63 -95 -71 -95h-22v190c40 7 69 11 87 16c88 27 168 95 168 200c0 30 -12 89 -30 138 c-17 47 -31 73 -46 102z"/></g></defs><style type="text/css">#wdc6zpx g.page-margin {font-family:Times,serif;}#wdc6zpx g.ending, #wdc6zpx g.fing, #wdc6zpx g.reh, #wdc6zpx g.tempo {font-weight:bold;}#wdc6zpx g.dir, #wdc6zpx g.dynam, #wdc6zpx g.mNum {font-style:italic;}#wdc6zpx g.label {font-weight:normal;}#wdc6zpx path {stroke:currentColor}</style><svg class="definition-scale" color="black" viewBox="0 0 14000 2100"><g class="page-margin" transform="translate(0, 150)"><g data-id="r1by86tw" data-class="mdiv" class="mdiv pageMilestone"/><g data-id="s1mkmdjv" data-class="score" class="score pageMilestone"/><g data-id="e542xft" data-class="system" class="system"><g data-id="u1b1f4vv" data-class="section" class="section systemMilestone"/><g data-id="x1v166ss" data-class="measure" class="measure"><g data-id="gpvclo" data-class="staff" class="staff"><path d="M0 540 L2302 540" stroke-width="13"/><path d="M0 720 L2302 720" stroke-width="13"/><path d="M0 900 L2302 900" stroke-width="13"/><path d="M0 1080 L2302 1080" stroke-width="13"/><path d="M0 1260 L2302 1260" stroke-width="13"/><g data-id="kdt1prv" data-class="clef" class="clef"><use href="#E050-wdc6zpx" transform="translate(90, 1080) scale(0.72, 0.72)"/></g><g data-id="l1i4c3o9" data-class="keySig" class="keySig"><g data-id="mobti6d" data-class="keyAccid" class="keyAccid"><use href="#E262-wdc6zpx" transform="translate(735, 540) scale(0.72, 0.72)"/></g><g data-id="n182eem2" data-class="keyAccid" class="keyAccid"><use href="#E262-wdc6zpx" transform="translate(913, 810) scale(0.72, 0.72)"/></g></g><g data-id="o1epq0mz" data-class="meterSig" class="meterSig"><use href="#E086-wdc6zpx" transform="translate(1220, 720) scale(0.72, 0.72)"/><use href="#E088-wdc6zpx" transform="translate(1227, 1080) scale(0.72, 0.72)"/></g><g data-id="h1lawt9s" data-class="layer" class="layer"><g data-id="hvpb3pf" data-class="note" class="note"><g data-class="notehead" class="notehead"><use href="#E0A4-wdc6zpx" transform="translate(1779, 1170) scale(0.72, 0.72)"/></g><g data-id="a1py0hrr" data-class="stem" class="stem"><path d="M1996 1142 L1996 540" stroke-width="18"/><g data-id="b1nqrnjf" data-class="flag" class="flag"><use href="#E240-wdc6zpx" transform="translate(1987, 540) scale(0.72, 0.72)"/></g></g><g data-id="g1xtbeea" data-class="accid" class="accid"/></g></g></g><g data-id="fpojy64" data-class="barLine" class="barLine"><path d="M2289 540 L2289 1260" stroke-width="27"/></g></g><g data-id="g1usffnd" data-class="measure" class="measure"><g data-id="i1jb7sk4" data-class="staff" class="staff"><path d="M2302 540 L5195 540" stroke-width="13"/><path d="M2302 720 L5195 720" stroke-width="13"/><path d="M2302 900 L5195 900" stroke-width="13"/><path d="M2302 1080 L5195 1080" stroke-width="13"/><path d="M2302 1260 L5195 1260" stroke-width="13"/><g data-id="j9625j6" data-class="layer" class="layer"><g data-id="a1md8zxv" data-class="beam" class="beam"><polygon stroke-opacity="1" fill-opacity="1" points="2690,360 3158,315 3158,405 2690,450"/><g data-id="ipytfjz" data-class="note" class="note"><g data-class="notehead" class="notehead"><use href="#E0A4-wdc6zpx" transform="translate(2482, 1170) scale(0.72, 0.72)"/></g><g data-id="c137mtwv" data-class="stem" class="stem"><path d="M2699 1142 L2699 378" stroke-width="18"/></g><g data-id="h1v910xt" data-class="accid" class="accid"/></g><g data-id="jd1tt67" data-class="note" class="note"><g data-class="notehead" class="notehead"><use href="#E0A4-wdc6zpx" transform="translate(2932, 900) scale(0.72, 0.72)"/></g><g data-id="dk2mhiv" data-class="stem" class="stem"><path d="M3149 872 L3149 333" stroke-width="18"/></g></g></g><g data-id="k1n3kdtq" data-class="note" class="note"><g data-class="notehead" class="notehead"><use href="#E0A4-wdc6zpx" transform="translate(3382, 810) scale(0.72, 0.72)"/></g><g data-id="e16aibpo" data-class="stem" class="stem"><path d="M3391 838 L3391 1440" stroke-width="18"/><g data-id="fwaa2ju" data-class="flag" class="flag"><use href="#E241-wdc6zpx" transform="translate(3382, 1440) scale(0.72, 0.72)"/></g></g><g data-id="i7ik8vk" data-class="accid" class="accid"/></g><g data-id="bh4rb9l" data-class="beam" class="beam"><polygon stroke-opacity="1" fill-opacity="1" points="3832,1440 4300,1485 4300,1395 3832,1350"/><g data-id="l1tnp4jn" data-class="note" class="note"><g data-class="notehead" class="notehead"><use href="#E0A4-wdc6zpx" transform="translate(3832, 720) scale(0.72, 0.72)"/></g><g data-id="g1qe8zgp" data-class="stem" class="stem"><path d="M3841 748 L3841 1422" stroke-width="18"/></g></g><g data-id="m165q8hr" data-class="note" class="note"><g data-class="notehead" class="notehead"><use href="#E0A4-wdc6zpx" transform="translate(4282, 810) scale(0.72, 0.72)"/></g><g data-id="h1xx3zme" data-class="stem" class="stem"><path d="M4291 838 L4291 1467" stroke-width="18"/></g><g data-id="j1czizu9" data-class="accid" class="accid"/></g></g><g data-id="ng7lcun" data-class="note" class="note"><g data-class="notehead" class="notehead"><use href="#E0A4-wdc6zpx" transform="translate(4732, 900) scale(0.72, 0.72)"/></g><g data-id="i1jfe0ql" data-class="stem" class="stem"><path d="M4741 928 L4741 1500" stroke-width="18"/><g data-id="jayujn4" data-class="flag" class="flag"><use href="#E241-wdc6zpx" transform="translate(4732, 1500) scale(0.72, 0.72)"/></g></g></g></g></g><g data-id="orym3jv" data-class="barLine" class="barLine"><path d="M5182 540 L5182 1260" stroke-width="27"/></g></g><g data-id="pdynb5y" data-class="measure" class="measure"><g data-id="k1xp0p8m" data-class="staff" class="staff"><path d="M5195 540 L8088 540" stroke-width="13"/><path d="M5195 720 L8088 720" stroke-width="13"/><path d="M5195 900 L8088 900" stroke-width="13"/><path d="M5195 1080 L8088 1080" stroke-width="13"/><path d="M5195 1260 L8088 1260" stroke-width="13"/><g data-id="l1t55igr" data-class="layer" class="layer"><g data-id="ci7668f" data-class="beam" class="beam"><polygon stroke-opacity="1" fill-opacity="1" points="5583,360 6051,315 6051,405 5583,450"/><g data-id="o1yn2iwn" data-class="note" class="note"><g data-class="notehead" class="notehead"><use href="#E0A4-wdc6zpx" transform="translate(5375, 1170) scale(0.72, 0.72)"/></g><g data-id="k4u2app" data-class="stem" class="stem"><path d="M5592 1142 L5592 378" stroke-width="18"/></g><g data-id="k1l8zq53" data-class="accid" class="accid"/></g><g data-id="pciwxly" data-class="note" class="note"><g data-class="notehead" class="notehead"><use href="#E0A4-wdc6zpx" transform="translate(5825, 900) scale(0.72, 0.72)"/></g><g data-id="l1ym26uu" data-class="stem" class="stem"><path d="M6042 872 L6042 333" stroke-width="18"/></g></g></g><g data-id="q1gtsip0" data-class="note" class="note"><g data-class="notehead" class="notehead"><use href="#E0A4-wdc6zpx" transform="translate(6275, 810) scale(0.72, 0.72)"/></g><g data-id="mf7qmw2" data-class="stem" class="stem"><path d="M6284 838 L6284 1440" stroke-width="18"/><g data-id="n1hq8xby" data-class="flag" class="flag"><use href="#E241-wdc6zpx" transform="translate(6275, 1440) scale(0.72, 0.72)"/></g></g><g data-id="lws3grq" data-class="accid" class="accid"/></g><g data-id="d1lp81vt" data-class="beam" class="beam"><polygon stroke-opacity="1" fill-opacity="1" points="6725,1440 7193,1485 7193,1395 6725,1350"/><g data-id="rmi0s40" data-class="note" class="note"><g data-class="notehead" class="notehead"><use href="#E0A4-wdc6zpx" transform="translate(6725, 720) scale(0.72, 0.72)"/></g><g data-id="o1g7c7bp" data-class="stem" class="stem"><path d="M6734 748 L6734 1422" stroke-width="18"/></g></g><g data-id="sv01elu" data-class="note" class="note"><g data-class="notehead" class="notehead"><use href="#E0A4-wdc6zpx" transform="translate(7175, 810) scale(0.72, 0.72)"/></g><g data-id="p18x1puu" data-class="stem" class="stem"><path d="M7184 838 L7184 1467" stroke-width="18"/></g><g data-id="myf1ekv" data-class="accid" class="accid"/></g></g><g data-id="tyrjbpx" data-class="note" class="note"><g data-class="notehead" class="notehead"><use href="#E0A4-wdc6zpx" transform="translate(7625, 900) scale(0.72, 0.72)"/></g><g data-id="qw3anqd" data-class="stem" class="stem"><path d="M7634 928 L7634 1500" stroke-width="18"/><g data-id="r1oklwuu" data-class="flag" class="flag"><use href="#E241-wdc6zpx" transform="translate(7625, 1500) scale(0.72, 0.72)"/></g></g></g></g></g><g data-id="x168e4c4" data-class="barLine" class="barLine"><path d="M8075 540 L8075 1260" stroke-width="27"/></g></g><g data-id="yh5117o" data-class="measure" class="measure"><g data-id="m6hbzuf" data-class="staff" class="staff"><path d="M8088 540 L10981 540" stroke-width="13"/><path d="M8088 720 L10981 720" stroke-width="13"/><path d="M8088 900 L10981 900" stroke-width="13"/><path d="M8088 1080 L10981 1080" stroke-width="13"/><path d="M8088 1260 L10981 1260" stroke-width="13"/><g data-id="nma2pop" data-class="layer" class="layer"><g data-id="e1v6juw5" data-class="beam" class="beam"><polygon stroke-opacity="1" fill-opacity="1" points="8476,360 8944,315 8944,405 8476,450"/><g data-id="u1abyggq" data-class="note" class="note"><g data-class="notehead" class="notehead"><use href="#E0A4-wdc6zpx" transform="translate(8268, 1170) scale(0.72, 0.72)"/></g><g data-id="slbvwbr" data-class="stem" class="stem"><path d="M8485 1142 L8485 378" stroke-width="18"/></g><g data-id="n15xmdwc" data-class="accid" class="accid"/></g><g data-id="v1sxfzua" data-class="note" class="note"><g data-class="notehead" class="notehead"><use href="#E0A4-wdc6zpx" transform="translate(8718, 900) scale(0.72, 0.72)"/></g><g data-id="t1iwlmff" data-class="stem" class="stem"><path d="M8935 872 L8935 333" stroke-width="18"/></g></g></g><g data-id="wcp5jsy" data-class="note" class="note"><g data-class="notehead" class="notehead"><use href="#E0A4-wdc6zpx" transform="translate(9168, 810) scale(0.72, 0.72)"/></g><g data-id="ul1od6s" data-class="stem" class="stem"><path d="M9177 838 L9177 1440" stroke-width="18"/><g data-id="vt9vj3i" data-class="flag" class="flag"><use href="#E241-wdc6zpx" transform="translate(9168, 1440) scale(0.72, 0.72)"/></g></g><g data-id="o1a3drc5" data-class="accid" class="accid"/></g><g data-id="f1ipvweu" data-class="beam" class="beam"><polygon stroke-opacity="1" fill-opacity="1" points="9618,1440 10086,1485 10086,1395 9618,1350"/><g data-id="xz2c973" data-class="note" class="note"><g data-class="notehead" class="notehead"><use href="#E0A4-wdc6zpx" transform="translate(9618, 720) scale(0.72, 0.72)"/></g><g data-id="wkyc5an" data-class="stem" class="stem"><path d="M9627 748 L9627 1422" stroke-width="18"/></g></g><g data-id="y12zqw8g" data-class="note" class="note"><g data-class="notehead" class="notehead"><use href="#E0A4-wdc6zpx" transform="translate(10068, 810) scale(0.72, 0.72)"/></g><g data-id="x6vztgp" data-class="stem" class="stem"><path d="M10077 838 L10077 1467" stroke-width="18"/></g><g data-id="p45pkna" data-class="accid" class="accid"/></g></g><g data-id="z1tn78ue" data-class="note" class="note"><g data-class="notehead" class="notehead"><use href="#E0A4-wdc6zpx" transform="translate(10518, 900) scale(0.72, 0.72)"/></g><g data-id="y1rlpkme" data-class="stem" class="stem"><path d="M10527 928 L10527 1500" stroke-width="18"/><g data-id="zdqd2k8" data-class="flag" class="flag"><use href="#E241-wdc6zpx" transform="translate(10518, 1500) scale(0.72, 0.72)"/></g></g></g></g></g><g data-id="g13bik1y" data-class="barLine" class="barLine"><path d="M10968 540 L10968 1260" stroke-width="27"/></g></g><g data-id="vnq1h7i" data-class="systemMilestoneEnd" class="systemMilestoneEnd u1b1f4vv"/></g><g data-id="w1j9x9fi" data-class="pageMilestoneEnd" class="pageMilestoneEnd s1mkmdjv"/><g data-id="xln31au" data-class="pageMilestoneEnd" class="pageMilestoneEnd r1by86tw"/></g></svg></svg>