<svg viewBox="0 0 560 84" version="1.1" xmlns="http://www.w3.org/2000/svg" xmlns:xlink="http://www.w3.org/1999/xlink" overflow="visible" id="i1oeodcy"><desc>Engraved by Verovio 5.6.0-85e7620</desc><defs><g id="E050-i1oeodcy"><path transform="scale(1,-1)" d="M441 -245c-23 -4 -48 -6 -76 -6c-59 0 -102 7 -130 20c-88 42 -150 93 -187 154c-26 44 -43 103 -48 176c0 6 -1 13 -1 19c0 54 15 111 45 170c29 57 65 106 110 148s96 85 153 127c-3 16 -8 46 -13 92c-4 43 -5 73 -5 89c0 117 16 172 69 257c34 54 64 82 89 82 c21 0 43 -30 69 -92s39 -115 41 -159v-15c0 -109 -21 -162 -67 -241c-13 -20 -63 -90 -98 -118c-13 -9 -25 -19 -37 -29l31 -181c8 1 18 2 28 2c58 0 102 -12 133 -35c59 -43 92 -104 98 -184c1 -7 1 -15 1 -22c0 -123 -87 -209 -181 -248c8 -57 17 -110 25 -162 c5 -31 6 -58 6 -80c0 -30 -5 -53 -14 -70c-35 -64 -88 -99 -158 -103c-5 0 -11 -1 -16 -1c-37 0 -72 10 -108 27c-50 24 -77 59 -80 105v11c0 29 7 55 20 76c18 28 45 42 79 44h6c49 0 93 -42 97 -87v-9c0 -51 -34 -86 -105 -106c17 -24 51 -36 102 -36c62 0 116 43 140 85 c9 16 13 41 13 74c0 20 -1 42 -5 67c-8 53 -18 106 -26 159zM461 939c-95 0 -135 -175 -135 -286c0 -24 2 -48 5 -71c50 39 92 82 127 128c40 53 60 100 60 140v8c-4 53 -22 81 -55 81h-2zM406 119l54 -326c73 25 110 78 110 161c0 7 0 15 -1 23c-7 95 -57 142 -151 142h-12 zM382 117c-72 -2 -128 -47 -128 -120v-7c2 -46 43 -99 75 -115c-3 -2 -7 -5 -10 -10c-70 33 -116 88 -123 172v11c0 68 44 126 88 159c23 17 49 29 78 36l-29 170c-21 -13 -52 -37 -92 -73c-50 -44 -86 -84 -109 -119c-45 -69 -67 -130 -67 -182v-13c5 -68 35 -127 93 -176 s125 -73 203 -73c25 0 50 3 75 9c-19 111 -36 221 -54 331z"/></g><g id="E260-i1oeodcy"><path transform="scale(1,-1)" d="M20 110c32 16 54 27 93 27c26 0 35 -3 54 -13c13 -7 24 -20 27 -38l4 -25c0 -28 -16 -57 -45 -89c-23 -25 -39 -44 -65 -68l-88 -79v644h20v-359zM90 106c-32 0 -48 -10 -70 -29v-194c31 31 54 59 71 84c21 32 32 59 32 84c0 9 1 16 1 20c0 14 -3 21 -11 30l-8 3z"/></g><g id="E083-i1oeodcy"><path transform="scale(1,-1)" d="M208 250c97 0 177 -52 177 -116c0 -69 -40 -111 -118 -125c56 -5 125 -44 125 -116c0 -31 -10 -57 -31 -78c-19 -21 -45 -38 -78 -49l-50 -11c-15 -3 -36 -7 -55 -7c-50 0 -86 16 -113 38c-16 10 -23 18 -34 34c-7 13 -11 25 -11 38c0 43 27 83 68 83l3 -2 c61 0 75 -42 75 -70c0 -19 -24 -42 -26 -57c7 -17 20 -25 37 -25c44 0 94 29 94 78c0 75 -34 125 -138 125v36c84 0 131 22 131 98c0 54 -37 88 -87 88c-26 0 -43 -7 -51 -22c15 -22 44 -16 44 -70c0 -37 -37 -62 -71 -62c-22 0 -69 15 -69 76c0 79 101 116 178 116z"/></g><g id="E084-i1oeodcy"><path transform="scale(1,-1)" d="M20 -78c84 97 114 180 134 329h170c-13 -32 -82 -132 -99 -151l-84 -97c-33 -36 -59 -63 -80 -81h162v102l127 123v-225h57v-39h-57v-34c0 -43 19 -65 57 -65v-34h-244v36c48 0 60 26 60 70v27h-203v39z"/></g><g id="E0A4-i1oeodcy"><path transform="scale(1,-1)" d="M0 -39c0 68 73 172 200 172c66 0 114 -37 114 -95c0 -84 -106 -171 -218 -171c-64 0 -96 30 -96 94z"/></g><g id="E241-i1oeodcy"><path transform="scale(1,-1)" d="M179 646c-4 8 -17 30 -18 33l-4 10c0 3 2 5 5 5s7 -2 13 -7c23 -33 46 -81 66 -132c22 -57 35 -125 35 -163c0 -104 -60 -183 -122 -241c-63 -59 -57 -53 -61 -56c-38 -34 -63 -95 -71 -95h-22v190c40 7 69 11 87 16c88 27 168 95 168 200c0 30 -12 89 -30 138 c-17 47 -31 73 -46 102z"/></g><g id="E243-i1oeodcy"><path transform="scale(1,-1)" d="M216 730c-5 8 -10 13 -11 16l-4 10c0 3 2 5 5 5s7 -2 13 -7c35 -42 57 -101 57 -172c0 -34 -6 -65 -17 -94c10 -31 17 -64 17 -96c0 -104 -60 -183 -122 -241c-63 -59 -57 -53 -61 -56c-38 -34 -63 -95 -71 -95h-22v190v190c40 7 69 11 87 16c116 36 175 111 175 197 c0 44 -15 91 -46 137zM248 463c-23 -48 -58 -89 -94 -122c-63 -59 -57 -53 -61 -56c-30 -27 -44 -71 -53 -88c20 3 36 6 47 9c88 27 168 95 168 200c0 19 -3 39 -7 57z"/></g><g id="E0A3-i1oeodcy"><path transform="scale(1,-1)" d="M278 64c0 22 -17 39 -43 39c-12 0 -26 -3 -41 -10c-85 -43 -165 -94 -165 -156c5 -25 15 -32 49 -32c67 11 200 95 200 159zM0 -36c0 68 73 174 200 174c66 0 114 -39 114 -97c0 -84 -106 -173 -218 -173c-64 0 -96 32 -96 96z"/></g><g id="E240-i1oeodcy"><path transform="scale(1,-1)" d="M179 -646c15 29 29 55 46 102c18 49 30 108 30 138c0 105 -80 173 -168 200c-18 5 -47 9 -87 16v190h22c8 0 33 -61 71 -95c4 -3 -2 3 61 -56c62 -58 122 -137 122 -241c0 -38 -13 -106 -35 -163c-20 -51 -43 -99 -66 -132c-6 -5 -10 -7 -13 -7s-5 2 -5 5l4 10 c1 3 14 25 18 33z"/></g></defs><style type="text/css">#i1oeodcy g.page-margin {font-family:Times,serif;}#i1oeodcy g.ending, #i1oeodcy g.fing, #i1oeodcy g.reh, #i1oeodcy g.tempo {font-weight:bold;}#i1oeodcy g.dir, #i1oeodcy g.dynam, #i1oeodcy g.mNum {font-style:italic;}#i1oeodcy g.label {font-weight:normal;}#i1oeodcy path {stroke:currentColor}</style><svg class="definition-scale" color="black" viewBox="0 0 14000 2100"><g class="page-margin" transform="translate(0, 150)"><g data-id="a1vn9ehr" data-class="mdiv" class="mdiv pageMilestone"/><g data-id="b1a91s14" data-class="score" class="score pageMilestone"/><g data-id="e82hrqt" data-class="system" class="system"><g data-id="d1vh64ds" data-class="section" class="section systemMilestone"/><g data-id="j12in1ib" data-class="measure" class="measure"><g data-id="p1g7z7vq" data-class="staff" class="staff"><path d="M0 540 L4776 540" stroke-width="13"/><path d="M0 720 L4776 720" stroke-width="13"/><path d="M0 900 L4776 900" stroke-width="13"/><path d="M0 1080 L4776 1080" stroke-width="13"/><path d="M0 1260 L4776 1260" stroke-width="13"/><g data-id="kv2wivr" data-class="clef" class="clef"><use href="#E050-i1oeodcy" transform="translate(90, 1080) scale(0.72, 0.72)"/></g><g data-id="l1ewjlj5" data-class="keySig" class="keySig"><g data-id="m5cqrpk" data-class="keyAccid" class="keyAccid"><use href="#E260-i1oeodcy" transform="translate(735, 900) scale(0.72, 0.72)"/></g><g data-id="n1b5jw1c" data-class="keyAccid" class="keyAccid"><use href="#E260-i1oeodcy" transform="translate(915, 630) scale(0.72, 0.72)"/></g></g><g data-id="o157yehx" data-class="meterSig" class="meterSig"><use href="#E083-i1oeodcy" transform="translate(1229, 720) scale(0.72, 0.72)"/><use href="#E084-i1oeodcy" transform="translate(1223, 1080) scale(0.72, 0.72)"/></g><g data-id="qtr6vnu" data-class="layer" class="layer"><g data-id="cc36eb1" data-class="note" class="note"><g data-class="notehead" class="notehead"><use href="#E0A4-i1oeodcy" transform="translate(1803, 720) scale(0.72, 0.72)"/></g><g data-id="miewi5i" data-class="dots" class="dots"><ellipse cx="2119" cy="630" rx="36" ry="36" fill-opacity="1" stroke-opacity="1"/></g><g data-id="lb4tqnb" data-class="stem" class="stem"><path d="M1812 748 L1812 1350" stroke-width="18"/><g data-id="nwt8bsz" data-class="flag" class="flag"><use href="#E241-i1oeodcy" transform="translate(1803, 1350) scale(0.72, 0.72)"/></g></g></g><g data-id="d1vui4aw" data-class="note" class="note"><g data-class="notehead" class="notehead"><use href="#E0A4-i1oeodcy" transform="translate(2440, 720) scale(0.72, 0.72)"/></g><g data-id="o1x5r184" data-class="stem" class="stem"><path d="M2449 748 L2449 1350" stroke-width="18"/><g data-id="p1nb86n9" data-class="flag" class="flag"><use href="#E243-i1oeodcy" transform="translate(2440, 1350) scale(0.72, 0.72)"/></g></g></g><g data-id="e11pn2pn" data-class="note" class="note"><g data-class="notehead" class="notehead"><use href="#E0A4-i1oeodcy" transform="translate(2787, 720) scale(0.72, 0.72)"/></g><g data-id="qgv64cw" data-class="stem" class="stem"><path d="M2796 748 L2796 1350" stroke-width="18"/><g data-id="rza4sb4" data-class="flag" class="flag"><use href="#E241-i1oeodcy" transform="translate(2787, 1350) scale(0.72, 0.72)"/></g></g></g><g data-id="fwb1pcu" data-class="note" class="note"><g data-class="notehead" class="notehead"><use href="#E0A4-i1oeodcy" transform="translate(3281, 720) scale(0.72, 0.72)"/></g><g data-id="scwfyi9" data-class="stem" class="stem"><path d="M3290 748 L3290 1350" stroke-width="18"/><g data-id="t1rzr8qy" data-class="flag" class="flag"><use href="#E241-i1oeodcy" transform="translate(3281, 1350) scale(0.72, 0.72)"/></g></g></g><g data-id="gd3vt9n" data-class="note" class="note"><g data-class="notehead" class="notehead"><use href="#E0A4-i1oeodcy" transform="translate(3775, 540) scale(0.72, 0.72)"/></g><g data-id="uv27m1s" data-class="stem" class="stem"><path d="M3784 568 L3784 1170" stroke-width="18"/><g data-id="vcwev41" data-class="flag" class="flag"><use href="#E241-i1oeodcy" transform="translate(3775, 1170) scale(0.72, 0.72)"/></g></g></g><g data-id="hu3w20i" data-class="note" class="note"><g data-class="notehead" class="notehead"><use href="#E0A4-i1oeodcy" transform="translate(4269, 630) scale(0.72, 0.72)"/></g><g data-id="wwzp75j" data-class="stem" class="stem"><path d="M4278 658 L4278 1260" stroke-width="18"/><g data-id="x1rx2svl" data-class="flag" class="flag"><use href="#E241-i1oeodcy" transform="translate(4269, 1260) scale(0.72, 0.72)"/></g></g><g data-id="vrmjjny" data-class="accid" class="accid"/></g></g></g><g data-id="r18o4i5o" data-class="barLine" class="barLine"><path d="M4763 540 L4763 1260" stroke-width="27"/></g></g><g data-id="s1qqvi00" data-class="measure" class="measure"><g data-id="r1m5zwgx" data-class="staff" class="staff"><path d="M4776 540 L7128 540" stroke-width="13"/><path d="M4776 720 L7128 720" stroke-width="13"/><path d="M4776 900 L7128 900" stroke-width="13"/><path d="M4776 1080 L7128 1080" stroke-width="13"/><path d="M4776 1260 L7128 1260" stroke-width="13"/><g data-id="s24e08x" data-class="layer" class="layer"><g data-id="ifcp4bj" data-class="note" class="note"><g data-class="notehead" class="notehead"><use href="#E0A3-i1oeodcy" transform="translate(4974, 720) scale(0.72, 0.72)"/></g><g data-id="yrdwfkj" data-class="stem" class="stem"><path d="M4983 745 L4983 1350" stroke-width="18"/></g></g><g data-id="j1frn344" data-class="note" class="note"><g data-class="notehead" class="notehead"><use href="#E0A4-i1oeodcy" transform="translate(6127, 720) scale(0.72, 0.72)"/></g><g data-id="zk8d21q" data-class="stem" class="stem"><path d="M6136 748 L6136 1350" stroke-width="18"/><g data-id="agz0u8m" data-class="flag" class="flag"><use href="#E241-i1oeodcy" transform="translate(6127, 1350) scale(0.72, 0.72)"/></g></g></g><g data-id="k8neggk" data-class="note" class="note"><g data-class="notehead" class="notehead"><use href="#E0A4-i1oeodcy" transform="translate(6621, 720) scale(0.72, 0.72)"/></g><g data-id="bfi1qn3" data-class="stem" class="stem"><path d="M6630 748 L6630 1350" stroke-width="18"/><g data-id="cau0bxe" data-class="flag" class="flag"><use href="#E241-i1oeodcy" transform="translate(6621, 1350) scale(0.72, 0.72)"/></g></g></g></g></g><g data-id="a1pkcdmh" data-class="barLine" class="barLine"><path d="M7115 540 L7115 1260" stroke-width="27"/></g></g><g data-id="b113ytk8" data-class="measure" class="measure"><g data-id="t2w3r4q" data-class="staff" class="staff"><path d="M7128 540 L9788 540" stroke-width="13"/><path d="M7128 720 L9788 720" stroke-width="13"/><path d="M7128 900 L9788 900" stroke-width="13"/><path d="M7128 1080 L9788 1080" stroke-width="13"/><path d="M7128 1260 L9788 1260" stroke-width="13"/><g data-id="up39gu4" data-class="layer" class="layer"><g data-id="l1o5x8sx" data-class="note" class="note"><g data-class="notehead" class="notehead"><use href="#E0A4-i1oeodcy" transform="translate(7326, 720) scale(0.72, 0.72)"/></g><g data-id="e15elwu5" data-class="dots" class="dots"><ellipse cx="7642" cy="630" rx="36" ry="36" fill-opacity="1" stroke-opacity="1"/></g><g data-id="d1jcx2os" data-class="stem" class="stem"><path d="M7335 748 L7335 1350" stroke-width="18"/></g></g><g data-id="mcsw65o" data-class="note" class="note"><g data-class="notehead" class="notehead"><use href="#E0A4-i1oeodcy" transform="translate(8292, 720) scale(0.72, 0.72)"/></g><g data-id="ftv9h1" data-class="stem" class="stem"><path d="M8301 748 L8301 1350" stroke-width="18"/><g data-id="g112zxy1" data-class="flag" class="flag"><use href="#E241-i1oeodcy" transform="translate(8292, 1350) scale(0.72, 0.72)"/></g></g></g><g data-id="n1rwhbb0" data-class="note" class="note"><g data-class="notehead" class="notehead"><use href="#E0A4-i1oeodcy" transform="translate(8786, 810) scale(0.72, 0.72)"/></g><g data-id="hrj3hby" data-class="stem" class="stem"><path d="M8795 838 L8795 1440" stroke-width="18"/><g data-id="ia1grz3" data-class="flag" class="flag"><use href="#E241-i1oeodcy" transform="translate(8786, 1440) scale(0.72, 0.72)"/></g></g></g><g data-id="ouwywd" data-class="note" class="note"><g data-class="notehead" class="notehead"><use href="#E0A4-i1oeodcy" transform="translate(9280, 900) scale(0.72, 0.72)"/></g><g data-id="j1amzh90" data-class="stem" class="stem"><path d="M9289 928 L9289 1500" stroke-width="18"/><g data-id="kdkpyoo" data-class="flag" class="flag"><use href="#E241-i1oeodcy" transform="translate(9280, 1500) scale(0.72, 0.72)"/></g></g><g data-id="we3vk1s" data-class="accid" class="accid"/></g></g></g><g data-id="j1j5c2q1" data-class="barLine" class="barLine"><path d="M9775 540 L9775 1260" stroke-width="27"/></g></g><g data-id="kmg91jh" data-class="measure" class="measure"><g data-id="vgdf0u" data-class="staff" class="staff"><path d="M9788 540 L12289 540" stroke-width="13"/><path d="M9788 720 L12289 720" stroke-width="13"/><path d="M9788 900 L12289 900" stroke-width="13"/><path d="M9788 1080 L12289 1080" stroke-width="13"/><path d="M9788 1260 L12289 1260" stroke-width="13"/><g data-id="wifrrhi" data-class="layer" class="layer"><g data-id="packzsl" data-class="note" class="note"><g data-class="notehead" class="notehead"><use href="#E0A4-i1oeodcy" transform="translate(9986, 900) scale(0.72, 0.72)"/></g><g data-id="lkhsog" data-class="stem" class="stem"><path d="M9995 928 L9995 1500" stroke-width="18"/></g><g data-id="x427te1" data-class="accid" class="accid"/></g><g data-id="q1541ehm" data-class="note" class="note"><g data-class="notehead" class="notehead"><use href="#E0A4-i1oeodcy" transform="translate(10744, 990) scale(0.72, 0.72)"/></g><g data-id="m1if4zjc" data-class="stem" class="stem"><path d="M10961 962 L10961 360" stroke-width="18"/><g data-id="nmk4i3w" data-class="flag" class="flag"><use href="#E240-i1oeodcy" transform="translate(10952, 360) scale(0.72, 0.72)"/></g></g></g><g data-id="r1b0v9wa" data-class="note" class="note"><g data-class="notehead" class="notehead"><use href="#E0A4-i1oeodcy" transform="translate(11288, 720) scale(0.72, 0.72)"/></g><g data-id="oaxluqx" data-class="stem" class="stem"><path d="M11297 748 L11297 1350" stroke-width="18"/><g data-id="pfir2dv" data-class="flag" class="flag"><use href="#E241-i1oeodcy" transform="translate(11288, 1350) scale(0.72, 0.72)"/></g></g></g><g data-id="sogk3vc" data-class="note" class="note"><g data-class="notehead" class="notehead"><use href="#E0A4-i1oeodcy" transform="translate(11782, 810) scale(0.72, 0.72)"/></g><g data-id="qu1evho" data-class="stem" class="stem"><path d="M11791 838 L11791 1440" stroke-width="18"/><g data-id="r2b83y7" data-class="flag" class="flag"><use href="#E241-i1oeodcy" transform="translate(11782, 1440) scale(0.72, 0.72)"/></g></g></g></g></g><g data-id="s1v32fhl" data-class="barLine" class="barLine"><path d="M12276 540 L12276 1260" stroke-width="27"/></g></g><g data-id="t1i1icf1" data-class="measure" class="measure"><g data-id="x6je0lo" data-class="staff" class="staff"><path d="M12289 540 L14002 540" stroke-width="13"/><path d="M12289 720 L14002 720" stroke-width="13"/><path d="M12289 900 L14002 900" stroke-width="13"/><path d="M12289 1080 L14002 1080" stroke-width="13"/><path d="M12289 1260 L14002 1260" stroke-width="13"/><g data-id="y1oc6da4" data-class="layer" class="layer"><g data-id="t1u0cu9j" data-class="note" class="note"><g data-class="notehead" class="notehead"><use href="#E0A4-i1oeodcy" transform="translate(12487, 900) scale(0.72, 0.72)"/></g><g data-id="s16gful7" data-class="stem" class="stem"><path d="M12496 928 L12496 1500" stroke-width="18"/></g><g data-id="yy5ktgg" data-class="accid" class="accid"/></g><g data-id="u1rc3cib" data-class="note" class="note"><g data-class="notehead" class="notehead"><use href="#E0A4-i1oeodcy" transform="translate(13245, 990) scale(0.72, 0.72)"/></g><g data-id="t1acf0w9" data-class="stem" class="stem"><path d="M13462 962 L13462 360" stroke-width="18"/></g></g></g></g><g data-id="bhtzr3j" data-class="barLine" class="barLine"/></g><g data-id="g1ecpruw" data-class="systemMilestoneEnd" class="systemMilestoneEnd d1vh64ds"/></g><g data-id="h28jnj9" data-class="pageMilestoneEnd" class="pageMilestoneEnd b1a91s14"/><g data-id="i1nikbsd" data-class="pageMilestoneEnd" class="pageMilestoneEnd a1vn9ehr"/></g></svg></svg>