<svg viewBox="0 0 560 84" version="1.1" xmlns="http://www.w3.org/2000/svg" xmlns:xlink="http://www.w3.org/1999/xlink" overflow="visible" id="k1wm835u"><desc>Engraved by Verovio 5.6.0-85e7620</desc><defs><g id="E050-k1wm835u"><path transform="scale(1,-1)" d="M441 -245c-23 -4 -48 -6 -76 -6c-59 0 -102 7 -130 20c-88 42 -150 93 -187 154c-26 44 -43 103 -48 176c0 6 -1 13 -1 19c0 54 15 111 45 170c29 57 65 106 110 148s96 85 153 127c-3 16 -8 46 -13 92c-4 43 -5 73 -5 89c0 117 16 172 69 257c34 54 64 82 89 82 c21 0 43 -30 69 -92s39 -115 41 -159v-15c0 -109 -21 -162 -67 -241c-13 -20 -63 -90 -98 -118c-13 -9 -25 -19 -37 -29l31 -181c8 1 18 2 28 2c58 0 102 -12 133 -35c59 -43 92 -104 98 -184c1 -7 1 -15 1 -22c0 -123 -87 -209 -181 -248c8 -57 17 -110 25 -162 c5 -31 6 -58 6 -80c0 -30 -5 -53 -14 -70c-35 -64 -88 -99 -158 -103c-5 0 -11 -1 -16 -1c-37 0 -72 10 -108 27c-50 24 -77 59 -80 105v11c0 29 7 55 20 76c18 28 45 42 79 44h6c49 0 93 -42 97 -87v-9c0 -51 -34 -86 -105 -106c17 -24 51 -36 102 -36c62 0 116 43 140 85 c9 16 13 41 13 74c0 20 -1 42 -5 67c-8 53 -18 106 -26 159zM461 939c-95 0 -135 -175 -135 -286c0 -24 2 -48 5 -71c50 39 92 82 127 128c40 53 60 100 60 140v8c-4 53 -22 81 -55 81h-2zM406 119l54 -326c73 25 110 78 110 161c0 7 0 15 -1 23c-7 95 -57 142 -151 142h-12 zM382 117c-72 -2 -128 -47 -128 -120v-7c2 -46 43 -99 75 -115c-3 -2 -7 -5 -10 -10c-70 33 -116 88 -123 172v11c0 68 44 126 88 159c23 17 49 29 78 36l-29 170c-21 -13 -52 -37 -92 -73c-50 -44 -86 -84 -109 -119c-45 -69 -67 -130 -67 -182v-13c5 -68 35 -127 93 -176 s125 -73 203 -73c25 0 50 3 75 9c-19 111 -36 221 -54 331z"/></g><g id="E262-k1wm835u"><path transform="scale(1,-1)" d="M136 186v169h17v-164l44 14v-91l-44 -14v-165l44 12v-91l-44 -13v-155h-17v150l-76 -22v-155h-17v149l-43 -13v90l43 14v167l-43 -14v92l43 13v169h17v-163zM60 73v-167l76 22v168z"/></g><g id="E08A-k1wm835u"><path transform="scale(1,-1)" d="M340 179c-9 24 -56 41 -89 41c-46 0 -81 -28 -100 -58c-17 -28 -25 -78 -25 -150c0 -65 2 -111 8 -135c8 -31 18 -49 40 -67c20 -17 43 -25 70 -25c54 0 92 36 115 75c14 25 23 54 28 88h27c0 -63 -24 -105 -58 -141c-35 -38 -82 -56 -140 -56c-45 0 -83 13 -115 39 c-57 45 -101 130 -101 226c0 59 33 127 68 163c36 37 97 72 160 72c36 0 93 -21 121 -40c11 -8 23 -17 33 -30c19 -23 27 -48 27 -76c0 -51 -35 -88 -86 -88c-43 0 -76 27 -76 68c0 26 7 35 21 51c15 17 32 27 58 32c7 2 14 7 14 11z"/></g><g id="E0A4-k1wm835u"><path transform="scale(1,-1)" d="M0 -39c0 68 73 172 200 172c66 0 114 -37 114 -95c0 -84 -106 -171 -218 -171c-64 0 -96 30 -96 94z"/></g><g id="E240-k1wm835u"><path transform="scale(1,-1)" d="M179 -646c15 29 29 55 46 102c18 49 30 108 30 138c0 105 -80 173 -168 200c-18 5 -47 9 -87 16v190h22c8 0 33 -61 71 -95c4 -3 -2 3 61 -56c62 -58 122 -137 122 -241c0 -38 -13 -106 -35 -163c-20 -51 -43 -99 -66 -132c-6 -5 -10 -7 -13 -7s-5 2 -5 5l4 10 c1 3 14 25 18 33z"/></g><g id="E4E4-k1wm835u"><path transform="scale(1,-1)" d="M0 10v105c0 9 1 10 10 10h280c9 0 10 -1 10 -10v-105c0 -9 -1 -10 -10 -10h-280c-9 0 -10 1 -10 10z"/></g><g id="E0A3-k1wm835u"><path transform="scale(1,-1)" d="M278 64c0 22 -17 39 -43 39c-12 0 -26 -3 -41 -10c-85 -43 -165 -94 -165 -156c5 -25 15 -32 49 -32c67 11 200 95 200 159zM0 -36c0 68 73 174 200 174c66 0 114 -39 114 -97c0 -84 -106 -173 -218 -173c-64 0 -96 32 -96 96z"/></g></defs><style type="text/css">#k1wm835u g.page-margin {font-family:Times,serif;}#k1wm835u g.ending, #k1wm835u g.fing, #k1wm835u g.reh, #k1wm835u g.tempo {font-weight:bold;}#k1wm835u g.dir, #k1wm835u g.dynam, #k1wm835u g.mNum {font-style:italic;}#k1wm835u g.label {font-weight:normal;}#k1wm835u path {stroke:currentColor}</style><svg class="definition-scale" color="black" viewBox="0 0 14000 2100"><g class="page-margin" transform="translate(0, 150)"><g data-id="n10gwvqq" data-class="mdiv" class="mdiv pageMilestone"/><g data-id="o1r5lnr" data-class="score" class="score pageMilestone"/><g data-id="s1tm85pb" data-class="system" class="system"><g data-id="q1d43lhk" data-class="section" class="section systemMilestone"/><g data-id="l1qrv4hm" data-class="measure" class="measure"><g data-id="c15zd63z" data-class="staff" class="staff"><path d="M0 540 L5026 540" stroke-width="13"/><path d="M0 720 L5026 720" stroke-width="13"/><path d="M0 900 L5026 900" stroke-width="13"/><path d="M0 1080 L5026 1080" stroke-width="13"/><path d="M0 1260 L5026 1260" stroke-width="13"/><g data-id="xsnzmkb" data-class="clef" class="clef"><use href="#E050-k1wm835u" transform="translate(90, 1080) scale(0.72, 0.72)"/></g><g data-id="yapl03i" data-class="keySig" class="keySig"><g data-id="z125zhms" data-class="keyAccid" class="keyAccid"><use href="#E262-k1wm835u" transform="translate(735, 540) scale(0.72, 0.72)"/></g><g data-id="addok5d" data-class="keyAccid" class="keyAccid"><use href="#E262-k1wm835u" transform="translate(913, 810) scale(0.72, 0.72)"/></g><g data-id="b1a295ha" data-class="keyAccid" class="keyAccid"><use href="#E262-k1wm835u" transform="translate(1091, 450) scale(0.72, 0.72)"/></g></g><g data-id="cdu3td4" data-class="meterSig" class="meterSig"><use href="#E08A-k1wm835u" transform="translate(1412, 900) scale(0.72, 0.72)"/></g><g data-id="dpt6mi5" data-class="layer" class="layer"><g data-id="x165spwo" data-class="note" class="note"><g data-class="notehead" class="notehead"><use href="#E0A4-k1wm835u" transform="translate(2001, 1260) scale(0.72, 0.72)"/></g><g data-id="y1pdtykc" data-class="dots" class="dots"><ellipse cx="2317" cy="1170" rx="36" ry="36" fill-opacity="1" stroke-opacity="1"/></g><g data-id="x1fuk9st" data-class="stem" class="stem"><path d="M2218 1232 L2218 630" stroke-width="18"/></g></g><g data-id="yf4kj0g" data-class="note" class="note"><g data-class="notehead" class="notehead"><use href="#E0A4-k1wm835u" transform="translate(2979, 990) scale(0.72, 0.72)"/></g><g data-id="z1fj1o7d" data-class="stem" class="stem"><path d="M3196 962 L3196 360" stroke-width="18"/><g data-id="av2uf3u" data-class="flag" class="flag"><use href="#E240-k1wm835u" transform="translate(3187, 360) scale(0.72, 0.72)"/></g></g></g><g data-id="ztpamci" data-class="note" class="note"><g data-class="notehead" class="notehead"><use href="#E0A4-k1wm835u" transform="translate(3479, 990) scale(0.72, 0.72)"/></g><g data-id="b132p75g" data-class="stem" class="stem"><path d="M3696 962 L3696 360" stroke-width="18"/></g></g><g data-id="am4u3zz" data-class="note" class="note"><g data-class="notehead" class="notehead"><use href="#E0A4-k1wm835u" transform="translate(4246, 900) scale(0.72, 0.72)"/></g><g data-id="c1rec1vb" data-class="stem" class="stem"><path d="M4255 928 L4255 1500" stroke-width="18"/></g></g></g></g><g data-id="tqj1lh2" data-class="barLine" class="barLine"><path d="M5013 540 L5013 1260" stroke-width="27"/></g></g><g data-id="u1k475z6" data-class="measure" class="measure"><g data-id="e1q8a80v" data-class="staff" class="staff"><path d="M5026 540 L8174 540" stroke-width="13"/><path d="M5026 720 L8174 720" stroke-width="13"/><path d="M5026 900 L8174 900" stroke-width="13"/><path d="M5026 1080 L8174 1080" stroke-width="13"/><path d="M5026 1260 L8174 1260" stroke-width="13"/><g data-id="f1oulbbc" data-class="layer" class="layer"><g data-id="j90q6l7" data-class="beam" class="beam"><polygon stroke-opacity="1" fill-opacity="1" points="5227,1440 5745,1485 5745,1395 5227,1350"/><g data-id="bp50608" data-class="note" class="note"><g data-class="notehead" class="notehead"><use href="#E0A4-k1wm835u" transform="translate(5227, 810) scale(0.72, 0.72)"/></g><g data-id="dkjzhsi" data-class="stem" class="stem"><path d="M5236 838 L5236 1422" stroke-width="18"/></g><g data-id="k1yn5et8" data-class="accid" class="accid"/></g><g data-id="cup0vv9" data-class="note" class="note"><g data-class="notehead" class="notehead"><use href="#E0A4-k1wm835u" transform="translate(5727, 900) scale(0.72, 0.72)"/></g><g data-id="e1jsj64n" data-class="stem" class="stem"><path d="M5736 928 L5736 1467" stroke-width="18"/></g></g></g><g data-id="d1ntbg9r" data-class="note" class="note"><g data-class="notehead" class="notehead"><use href="#E0A4-k1wm835u" transform="translate(6227, 990) scale(0.72, 0.72)"/></g><g data-id="fb40d8c" data-class="stem" class="stem"><path d="M6444 962 L6444 360" stroke-width="18"/></g></g><g data-id="vtmnwxc" data-class="rest" class="rest"><use href="#E4E4-k1wm835u" transform="translate(6994, 900) scale(0.72, 0.72)"/><g data-class="ledgerLines" class="ledgerLines"/></g></g></g><g data-id="ct28aez" data-class="barLine" class="barLine"><path d="M8161 540 L8161 1260" stroke-width="27"/></g></g><g data-id="d1467119" data-class="measure" class="measure"><g data-id="g1vhclph" data-class="staff" class="staff"><path d="M8174 540 L11088 540" stroke-width="13"/><path d="M8174 720 L11088 720" stroke-width="13"/><path d="M8174 900 L11088 900" stroke-width="13"/><path d="M8174 1080 L11088 1080" stroke-width="13"/><path d="M8174 1260 L11088 1260" stroke-width="13"/><g data-id="hqf1tp8" data-class="layer" class="layer"><g data-id="e1wqfs1f" data-class="note" class="note"><g data-class="notehead" class="notehead"><use href="#E0A3-k1wm835u" transform="translate(8375, 990) scale(0.72, 0.72)"/></g><g data-id="g13q0201" data-class="stem" class="stem"><path d="M8592 962 L8592 360" stroke-width="18"/></g></g><g data-id="fqk0ean" data-class="note" class="note"><g data-class="notehead" class="notehead"><use href="#E0A4-k1wm835u" transform="translate(9542, 810) scale(0.72, 0.72)"/></g><g data-id="hf4la9" data-class="stem" class="stem"><path d="M9551 838 L9551 1440" stroke-width="18"/></g><g data-id="l1yq3bda" data-class="accid" class="accid"/></g><g data-id="g1ytcrk4" data-class="note" class="note"><g data-class="notehead" class="notehead"><use href="#E0A4-k1wm835u" transform="translate(10308, 720) scale(0.72, 0.72)"/></g><g data-id="i8b20ud" data-class="stem" class="stem"><path d="M10317 748 L10317 1350" stroke-width="18"/></g></g></g></g><g data-id="l8vkq01" data-class="barLine" class="barLine"><path d="M11075 540 L11075 1260" stroke-width="27"/></g></g><g data-id="m1acdivh" data-class="measure" class="measure"><g data-id="ibf3ket" data-class="staff" class="staff"><path d="M11088 540 L14002 540" stroke-width="13"/><path d="M11088 720 L14002 720" stroke-width="13"/><path d="M11088 900 L14002 900" stroke-width="13"/><path d="M11088 1080 L14002 1080" stroke-width="13"/><path d="M11088 1260 L14002 1260" stroke-width="13"/><g data-id="j1ykgcv4" data-class="layer" class="layer"><g data-id="h5paji0" data-class="note" class="note"><g data-class="notehead" class="notehead"><use href="#E0A4-k1wm835u" transform="translate(11289, 630) scale(0.72, 0.72)"/></g><g data-id="jzsvwfr" data-class="stem" class="stem"><path d="M11298 658 L11298 1260" stroke-width="18"/></g></g><g data-id="i16yjjpy" data-class="note" class="note"><g data-class="notehead" class="notehead"><use href="#E0A4-k1wm835u" transform="translate(12055, 990) scale(0.72, 0.72)"/></g><g data-id="k1c6bb7n" data-class="stem" class="stem"><path d="M12272 962 L12272 360" stroke-width="18"/></g></g><g data-id="w17svjr8" data-class="rest" class="rest"><use href="#E4E4-k1wm835u" transform="translate(12822, 900) scale(0.72, 0.72)"/><g data-class="ledgerLines" class="ledgerLines"/></g></g></g><g data-id="u4e04pp" data-class="barLine" class="barLine"><path d="M13989 540 L13989 1260" stroke-width="27"/></g></g><g data-id="rqrwvco" data-class="systemMilestoneEnd" class="systemMilestoneEnd q1d43lhk"/></g><g data-id="s1ijpuaw" data-class="pageMilestoneEnd" class="pageMilestoneEnd o1r5lnr"/><g data-id="t1qgggo0" data-class="pageMilestoneEnd" class="pageMilestoneEnd n10gwvqq"/></g></svg></svg>