<svg viewBox="0 0 560 84" version="1.1" xmlns="http://www.w3.org/2000/svg" xmlns:xlink="http://www.w3.org/1999/xlink" overflow="visible" id="chd3y18"><desc>Engraved by Verovio 5.6.0-85e7620</desc><defs><g id="E062-chd3y18"><path transform="scale(1,-1)" d="M582 -120c0 32 26 58 58 58s58 -26 58 -58s-26 -58 -58 -58s-58 26 -58 58zM582 120c0 32 26 58 58 58s58 -26 58 -58s-26 -58 -58 -58s-58 26 -58 58zM158 96c51 0 73 -14 88 -49l16 -39c0 -17 -2 -30 -7 -40c-3 -11 -10 -21 -19 -31c-17 -18 -49 -43 -84 -43 c-55 0 -77 13 -112 44c-24 21 -35 55 -35 100c0 46 14 81 32 112c30 52 71 79 137 93l36 6l26 2c154 0 235 -68 274 -182c11 -32 18 -68 18 -107c0 -103 -26 -182 -68 -250c-89 -145 -234 -230 -412 -288l-30 -5c-9 0 -14 3 -14 8c3 10 5 11 10 16c35 15 70 30 96 44l78 43 c96 57 162 136 197 258c9 33 17 60 22 100c3 22 5 35 6 39c-7 69 -16 115 -23 140s-4 22 -16 40c-8 12 -19 23 -31 34c-24 21 -62 44 -118 44c-48 0 -84 -8 -113 -28c-28 -19 -42 -44 -42 -73v-16c2 -5 3 -9 4 -11c24 22 52 39 84 39z"/></g><g id="E260-chd3y18"><path transform="scale(1,-1)" d="M20 110c32 16 54 27 93 27c26 0 35 -3 54 -13c13 -7 24 -20 27 -38l4 -25c0 -28 -16 -57 -45 -89c-23 -25 -39 -44 -65 -68l-88 -79v644h20v-359zM90 106c-32 0 -48 -10 -70 -29v-194c31 31 54 59 71 84c21 32 32 59 32 84c0 9 1 16 1 20c0 14 -3 21 -11 30l-8 3z"/></g><g id="E08A-chd3y18"><path transform="scale(1,-1)" d="M340 179c-9 24 -56 41 -89 41c-46 0 -81 -28 -100 -58c-17 -28 -25 -78 -25 -150c0 -65 2 -111 8 -135c8 -31 18 -49 40 -67c20 -17 43 -25 70 -25c54 0 92 36 115 75c14 25 23 54 28 88h27c0 -63 -24 -105 -58 -141c-35 -38 -82 -56 -140 -56c-45 0 -83 13 -115 39 c-57 45 -101 130 -101 226c0 59 33 127 68 163c36 37 97 72 160 72c36 0 93 -21 121 -40c11 -8 23 -17 33 -30c19 -23 27 -48 27 -76c0 -51 -35 -88 -86 -88c-43 0 -76 27 -76 68c0 26 7 35 21 51c15 17 32 27 58 32c7 2 14 7 14 11z"/></g><g id="E0A3-chd3y18"><path transform="scale(1,-1)" d="M278 64c0 22 -17 39 -43 39c-12 0 -26 -3 -41 -10c-85 -43 -165 -94 -165 -156c5 -25 15 -32 49 -32c67 11 200 95 200 159zM0 -36c0 68 73 174 200 174c66 0 114 -39 114 -97c0 -84 -106 -173 -218 -173c-64 0 -96 32 -96 96z"/></g><g id="E0A4-chd3y18"><path transform="scale(1,-1)" d="M0 -39c0 68 73 172 200 172c66 0 114 -37 114 -95c0 -84 -106 -171 -218 -171c-64 0 -96 30 -96 94z"/></g><g id="E261-chd3y18"><path transform="scale(1,-1)" d="M0 -188v539h18v-191l139 22v-533h-17v186zM18 -100l122 17v176l-122 -19v-174z"/></g><g id="E4E5-chd3y18"><path transform="scale(1,-1)" d="M107 292c-13 24 -30 49 -52 71c-1 1 0 2 0 3l-2 2c3 3 4 4 6 4c12 0 26 -7 40 -20s44 -40 89 -81c26 -24 28 -29 46 -47c4 -4 8 -9 10 -14c6 -8 8 -16 8 -27c0 -19 -12 -40 -36 -61c-28 -23 -49 -38 -61 -73c-4 -11 -7 -27 -10 -50c13 -43 34 -83 59 -121 c31 -47 59 -79 101 -129c-8 0 -26 7 -54 20l-62 29l-21 6l-23 1c-25 0 -45 -10 -60 -30l-4 -14l-1 -12c0 -33 20 -56 39 -78c8 -9 17 -18 26 -26c17 -15 27 -24 28 -30l-3 -3c-11 5 -19 10 -25 15c-9 3 -37 21 -45 26c-24 14 -45 32 -63 51c-19 21 -37 44 -37 71 c0 63 27 95 80 95c41 0 86 -18 136 -52c-19 26 -37 48 -55 66c-23 23 -48 44 -73 65c-28 23 -47 40 -58 53s-17 26 -18 39c75 64 113 125 113 183c0 27 -7 48 -18 68z"/></g></defs><style type="text/css">#chd3y18 g.page-margin {font-family:Times,serif;}#chd3y18 g.ending, #chd3y18 g.fing, #chd3y18 g.reh, #chd3y18 g.tempo {font-weight:bold;}#chd3y18 g.dir, #chd3y18 g.dynam, #chd3y18 g.mNum {font-style:italic;}#chd3y18 g.label {font-weight:normal;}#chd3y18 path {stroke:currentColor}</style><svg class="definition-scale" color="black" viewBox="0 0 14000 2100"><g class="page-margin" transform="translate(0, 150)"><g data-id="gd4yltq" data-class="mdiv" class="mdiv pageMilestone"/><g data-id="hgk28cm" data-class="score" class="score pageMilestone"/><g data-id="u10zc1zf" data-class="system" class="system"><g data-id="j1t0lbpm" data-class="section" class="section systemMilestone"/><g data-id="d1ja18nn" data-class="measure" class="measure"><g data-id="v1xbryjy" data-class="staff" class="staff"><path d="M0 540 L4670 540" stroke-width="13"/><path d="M0 720 L4670 720" stroke-width="13"/><path d="M0 900 L4670 900" stroke-width="13"/><path d="M0 1080 L4670 1080" stroke-width="13"/><path d="M0 1260 L4670 1260" stroke-width="13"/><g data-id="a18kt8ph" data-class="clef" class="clef"><use href="#E062-chd3y18" transform="translate(88, 720) scale(0.72, 0.72)"/></g><g data-id="bovm5ju" data-class="keySig" class="keySig"><g data-id="c1v9jpz5" data-class="keyAccid" class="keyAccid"><use href="#E260-chd3y18" transform="translate(769, 1080) scale(0.72, 0.72)"/></g><g data-id="d16g70fs" data-class="keyAccid" class="keyAccid"><use href="#E260-chd3y18" transform="translate(949, 810) scale(0.72, 0.72)"/></g></g><g data-id="e1jqd03l" data-class="meterSig" class="meterSig"><use href="#E08A-chd3y18" transform="translate(1271, 900) scale(0.72, 0.72)"/></g><g data-id="wuftxg1" data-class="layer" class="layer"><g data-id="oarzosi" data-class="note" class="note"><g data-class="notehead" class="notehead"><use href="#E0A3-chd3y18" transform="translate(1866, 1080) scale(0.72, 0.72)"/></g><g data-id="p7p21m8" data-class="stem" class="stem"><path d="M2083 1052 L2083 450" stroke-width="18"/></g><g data-id="b1ot6f7" data-class="accid" class="accid"/></g><g data-id="phzc92n" data-class="note" class="note"><g data-class="notehead" class="notehead"><use href="#E0A4-chd3y18" transform="translate(3072, 1170) scale(0.72, 0.72)"/></g><g data-id="qkbwdof" data-class="stem" class="stem"><path d="M3289 1142 L3289 540" stroke-width="18"/></g></g><g data-id="qgxexms" data-class="note" class="note"><g data-class="notehead" class="notehead"><use href="#E0A4-chd3y18" transform="translate(3865, 810) scale(0.72, 0.72)"/></g><g data-id="revd5vn" data-class="stem" class="stem"><path d="M3874 838 L3874 1440" stroke-width="18"/></g><g data-id="c9zo677" data-class="accid" class="accid"/></g></g></g><g data-id="lbmj746" data-class="barLine" class="barLine"><path d="M4657 540 L4657 1260" stroke-width="27"/></g></g><g data-id="m5oz7j6" data-class="measure" class="measure"><g data-id="xs8l0x9" data-class="staff" class="staff"><path d="M4670 540 L8060 540" stroke-width="13"/><path d="M4670 720 L8060 720" stroke-width="13"/><path d="M4670 900 L8060 900" stroke-width="13"/><path d="M4670 1080 L8060 1080" stroke-width="13"/><path d="M4670 1260 L8060 1260" stroke-width="13"/><g data-id="yrnlfi" data-class="layer" class="layer"><g data-id="rgn23mt" data-class="note" class="note"><g data-class="notehead" class="notehead"><use href="#E0A4-chd3y18" transform="translate(4877, 900) scale(0.72, 0.72)"/></g><g data-id="s2uacx5" data-class="stem" class="stem"><path d="M4886 928 L4886 1500" stroke-width="18"/></g></g><g data-id="s1cgqvyw" data-class="note" class="note"><g data-class="notehead" class="notehead"><use href="#E0A4-chd3y18" transform="translate(5670, 1080) scale(0.72, 0.72)"/></g><g data-id="t14l4gq4" data-class="stem" class="stem"><path d="M5887 1052 L5887 450" stroke-width="18"/></g><g data-id="ayvdqdm" data-class="accid" class="accid"><use href="#E261-chd3y18" transform="translate(5512, 1080) scale(0.72, 0.72)"/></g></g><g data-id="tpt964h" data-class="note" class="note"><g data-class="notehead" class="notehead"><use href="#E0A4-chd3y18" transform="translate(6462, 990) scale(0.72, 0.72)"/></g><g data-id="u1q1gk65" data-class="stem" class="stem"><path d="M6679 962 L6679 360" stroke-width="18"/></g></g><g data-id="uu0a62v" data-class="note" class="note"><g data-class="notehead" class="notehead"><use href="#E0A4-chd3y18" transform="translate(7255, 810) scale(0.72, 0.72)"/></g><g data-id="v12z8k0m" data-class="stem" class="stem"><path d="M7264 838 L7264 1440" stroke-width="18"/></g><g data-id="d1odl1tl" data-class="accid" class="accid"/></g></g></g><g data-id="u1rfcw2n" data-class="barLine" class="barLine"><path d="M8047 540 L8047 1260" stroke-width="27"/></g></g><g data-id="v421333" data-class="measure" class="measure"><g data-id="z66g7wf" data-class="staff" class="staff"><path d="M8060 540 L11450 540" stroke-width="13"/><path d="M8060 720 L11450 720" stroke-width="13"/><path d="M8060 900 L11450 900" stroke-width="13"/><path d="M8060 1080 L11450 1080" stroke-width="13"/><path d="M8060 1260 L11450 1260" stroke-width="13"/><g data-id="aq6om5u" data-class="layer" class="layer"><g data-id="v1l97yq6" data-class="note" class="note"><g data-class="notehead" class="notehead"><use href="#E0A4-chd3y18" transform="translate(8267, 630) scale(0.72, 0.72)"/></g><g data-id="w1kwgk3a" data-class="stem" class="stem"><path d="M8276 658 L8276 1260" stroke-width="18"/></g></g><g data-id="wwcgbdp" data-class="note" class="note"><g data-class="notehead" class="notehead"><use href="#E0A4-chd3y18" transform="translate(9060, 900) scale(0.72, 0.72)"/></g><g data-id="x1q78dt2" data-class="stem" class="stem"><path d="M9069 928 L9069 1500" stroke-width="18"/></g></g><g data-id="x1np1tzd" data-class="note" class="note"><g data-class="notehead" class="notehead"><use href="#E0A4-chd3y18" transform="translate(9852, 810) scale(0.72, 0.72)"/></g><g data-id="y1gyvlrk" data-class="stem" class="stem"><path d="M9861 838 L9861 1440" stroke-width="18"/></g><g data-id="e1ylkajq" data-class="accid" class="accid"/></g><g data-id="yp77wc0" data-class="note" class="note"><g data-class="notehead" class="notehead"><use href="#E0A4-chd3y18" transform="translate(10645, 990) scale(0.72, 0.72)"/></g><g data-id="z4mkxav" data-class="stem" class="stem"><path d="M10862 962 L10862 360" stroke-width="18"/></g></g></g></g><g data-id="dertgdl" data-class="barLine" class="barLine"><path d="M11437 540 L11437 1260" stroke-width="27"/></g></g><g data-id="ev6zv1q" data-class="measure" class="measure"><g data-id="b1ajcjq4" data-class="staff" class="staff"><path d="M11450 540 L14002 540" stroke-width="13"/><path d="M11450 720 L14002 720" stroke-width="13"/><path d="M11450 900 L14002 900" stroke-width="13"/><path d="M11450 1080 L14002 1080" stroke-width="13"/><path d="M11450 1260 L14002 1260" stroke-width="13"/><g data-id="cuko6wj" data-class="layer" class="layer"><g data-id="z7gdl7h" data-class="note" class="note"><g data-class="notehead" class="notehead"><use href="#E0A3-chd3y18" transform="translate(11657, 720) scale(0.72, 0.72)"/></g><g data-id="bk0zuhc" data-class="dots" class="dots"><ellipse cx="11973" cy="630" rx="36" ry="36" fill-opacity="1" stroke-opacity="1"/></g><g data-id="a1z05eqi" data-class="stem" class="stem"><path d="M11666 745 L11666 1350" stroke-width="18"/></g></g><g data-id="n1v5ezku" data-class="rest" class="rest"><use href="#E4E5-chd3y18" transform="translate(13196, 900) scale(0.72, 0.72)"/></g></g></g><g data-id="m1iwxdr2" data-class="barLine" class="barLine"><path d="M13989 540 L13989 1260" stroke-width="27"/></g></g><g data-id="k1feilhl" data-class="systemMilestoneEnd" class="systemMilestoneEnd j1t0lbpm"/></g><g data-id="lwouadx" data-class="pageMilestoneEnd" class="pageMilestoneEnd hgk28cm"/><g data-id="m1gn3y" data-class="pageMilestoneEnd" class="pageMilestoneEnd gd4yltq"/></g></svg></svg>