<svg viewBox="0 0 560 84" version="1.1" xmlns="http://www.w3.org/2000/svg" xmlns:xlink="http://www.w3.org/1999/xlink" overflow="visible" id="h1lm05qd"><desc>Engraved by Verovio 5.6.0-85e7620</desc><defs><g id="E062-h1lm05qd"><path transform="scale(1,-1)" d="M582 -120c0 32 26 58 58 58s58 -26 58 -58s-26 -58 -58 -58s-58 26 -58 58zM582 120c0 32 26 58 58 58s58 -26 58 -58s-26 -58 -58 -58s-58 26 -58 58zM158 96c51 0 73 -14 88 -49l16 -39c0 -17 -2 -30 -7 -40c-3 -11 -10 -21 -19 -31c-17 -18 -49 -43 -84 -43 c-55 0 -77 13 -112 44c-24 21 -35 55 -35 100c0 46 14 81 32 112c30 52 71 79 137 93l36 6l26 2c154 0 235 -68 274 -182c11 -32 18 -68 18 -107c0 -103 -26 -182 -68 -250c-89 -145 -234 -230 -412 -288l-30 -5c-9 0 -14 3 -14 8c3 10 5 11 10 16c35 15 70 30 96 44l78 43 c96 57 162 136 197 258c9 33 17 60 22 100c3 22 5 35 6 39c-7 69 -16 115 -23 140s-4 22 -16 40c-8 12 -19 23 -31 34c-24 21 -62 44 -118 44c-48 0 -84 -8 -113 -28c-28 -19 -42 -44 -42 -73v-16c2 -5 3 -9 4 -11c24 22 52 39 84 39z"/></g><g id="E260-h1lm05qd"><path transform="scale(1,-1)" d="M20 110c32 16 54 27 93 27c26 0 35 -3 54 -13c13 -7 24 -20 27 -38l4 -25c0 -28 -16 -57 -45 -89c-23 -25 -39 -44 -65 -68l-88 -79v644h20v-359zM90 106c-32 0 -48 -10 -70 -29v-194c31 31 54 59 71 84c21 32 32 59 32 84c0 9 1 16 1 20c0 14 -3 21 -11 30l-8 3z"/></g><g id="E086-h1lm05qd"><path transform="scale(1,-1)" d="M284 -91c0 37 -28 92 -67 92c-35 0 -65 -54 -65 -111c0 -52 22 -104 68 -104c47 0 64 68 64 123zM230 214c-36 0 -90 -33 -90 -184l2 -36c40 24 81 36 120 36c80 0 140 -48 140 -121c0 -99 -99 -159 -182 -159c-160 0 -200 173 -200 244c0 21 2 43 7 71l10 35 c26 85 73 115 98 126c41 19 74 24 103 24c93 0 142 -63 142 -105c0 -58 -52 -72 -73 -72c-33 0 -59 24 -65 35c-3 5 -6 14 -7 25l11 30c6 15 9 27 9 35c0 11 -9 16 -25 16z"/></g><g id="E088-h1lm05qd"><path transform="scale(1,-1)" d="M195 -214c76 0 88 58 90 68c0 34 -35 60 -57 73l-52 29c-21 10 -32 17 -34 20c-39 -33 -58 -54 -62 -92c5 -23 23 -98 115 -98zM301 135c0 61 -72 76 -113 76c-40 0 -77 -17 -77 -51c3 -21 15 -38 26 -50c17 -15 33 -26 48 -34l65 -28c34 27 51 56 51 87zM176 -250 c-57 0 -166 26 -166 132c0 47 30 86 89 116c-33 15 -79 60 -79 119c0 79 85 132 178 132h18c5 0 21 1 28 -1c25 0 126 -30 126 -110c0 -37 -23 -76 -69 -116c43 -25 83 -71 83 -119c0 -101 -118 -153 -208 -153z"/></g><g id="E0A4-h1lm05qd"><path transform="scale(1,-1)" d="M0 -39c0 68 73 172 200 172c66 0 114 -37 114 -95c0 -84 -106 -171 -218 -171c-64 0 -96 30 -96 94z"/></g><g id="E241-h1lm05qd"><path transform="scale(1,-1)" d="M179 646c-4 8 -17 30 -18 33l-4 10c0 3 2 5 5 5s7 -2 13 -7c23 -33 46 -81 66 -132c22 -57 35 -125 35 -163c0 -104 -60 -183 -122 -241c-63 -59 -57 -53 -61 -56c-38 -34 -63 -95 -71 -95h-22v190c40 7 69 11 87 16c88 27 168 95 168 200c0 30 -12 89 -30 138 c-17 47 -31 73 -46 102z"/></g><g id="E4E6-h1lm05qd"><path transform="scale(1,-1)" d="M0 123c7 34 33 56 69 60c29 -3 43 -9 53 -29c4 -8 7 -15 10 -22c0 -21 -1 -25 -11 -35c-5 -8 -18 -14 -40 -20l12 -3l15 -1c44 0 97 26 122 56c10 11 18 26 24 42c7 1 15 2 22 3l-140 -424h-36l111 330c-10 -6 -27 -12 -53 -16l-52 -8h-10l-20 1c-1 0 -8 3 -21 6 c-37 9 -55 28 -55 60z"/></g><g id="E07A-h1lm05qd"><path transform="scale(1,-1)" d="M343 -190c-18 -3 -37 -5 -59 -5c-46 0 -79 6 -101 16c-68 33 -117 72 -146 119c-20 34 -33 80 -37 137c0 5 -1 10 -1 15c0 42 12 86 35 132c23 44 51 82 86 115s75 65 119 98c-2 12 -7 36 -11 72c-3 33 -3 57 -3 69c0 91 12 134 53 200c26 42 50 63 69 63 c16 0 34 -23 54 -71s30 -90 32 -124v-11c0 -85 -16 -126 -52 -187c-10 -16 -49 -70 -76 -92c-10 -7 -20 -15 -29 -23l24 -140c6 1 14 1 22 1c45 0 79 -9 103 -27c46 -33 71 -81 76 -143c1 -5 1 -12 1 -17c0 -96 -68 -163 -141 -193c6 -44 14 -86 20 -126c4 -24 4 -45 4 -62 c0 -23 -3 -41 -10 -54c-27 -50 -69 -77 -123 -80c-4 0 -9 -1 -13 -1c-29 0 -56 8 -84 21c-39 19 -60 46 -62 82v8c0 23 6 43 16 59c14 22 35 32 61 34h5c38 0 72 -32 75 -67v-7c0 -40 -26 -67 -81 -83c13 -19 39 -28 79 -28c48 0 90 34 109 67c7 12 10 31 10 57 c0 16 -1 33 -4 52c-6 41 -14 83 -20 124zM358 730c-74 0 -105 -137 -105 -223c0 -19 2 -37 4 -55c39 30 72 64 99 100c31 41 46 77 46 108v7c-3 41 -16 63 -42 63h-2zM315 92l42 -253c57 19 86 61 86 125c0 5 0 12 -1 18c-5 74 -44 110 -117 110h-10zM297 91 c-56 -2 -100 -36 -100 -93v-6c2 -36 34 -77 59 -89c-2 -2 -6 -4 -8 -8c-54 26 -91 69 -96 134v8c0 53 35 98 69 124c18 13 37 23 60 28l-22 132c-16 -10 -41 -29 -72 -57c-39 -34 -66 -65 -84 -92c-35 -54 -52 -102 -52 -142v-10c4 -53 27 -99 72 -137s96 -56 157 -56 c19 0 40 2 59 7c-15 86 -28 172 -42 257z"/></g></defs><style type="text/css">#h1lm05qd g.page-margin {font-family:Times,serif;}#h1lm05qd g.ending, #h1lm05qd g.fing, #h1lm05qd g.reh, #h1lm05qd g.tempo {font-weight:bold;}#h1lm05qd g.dir, #h1lm05qd g.dynam, #h1lm05qd g.mNum {font-style:italic;}#h1lm05qd g.label {font-weight:normal;}#h1lm05qd path {stroke:currentColor}</style><svg class="definition-scale" color="black" viewBox="0 0 14000 2100"><g class="page-margin" transform="translate(0, 150)"><g data-id="c1igizoc" data-class="mdiv" class="mdiv pageMilestone"/><g data-id="dqdpy1h" data-class="score" class="score pageMilestone"/><g data-id="bjw3dvb" data-class="system" class="system"><g data-id="f170vlda" data-class="section" class="section systemMilestone"/><g data-id="i32w7cq" data-class="measure" class="measure"><g data-id="ruusaaz" data-class="staff" class="staff"><path d="M0 540 L2279 540" stroke-width="13"/><path d="M0 720 L2279 720" stroke-width="13"/><path d="M0 900 L2279 900" stroke-width="13"/><path d="M0 1080 L2279 1080" stroke-width="13"/><path d="M0 1260 L2279 1260" stroke-width="13"/><g data-id="z1lrrjk5" data-class="clef" class="clef"><use href="#E062-h1lm05qd" transform="translate(88, 720) scale(0.72, 0.72)"/></g><g data-id="a1v2ka7p" data-class="keySig" class="keySig"><g data-id="b18oyzsn" data-class="keyAccid" class="keyAccid"><use href="#E260-h1lm05qd" transform="translate(769, 1080) scale(0.72, 0.72)"/></g><g data-id="c8ffrdz" data-class="keyAccid" class="keyAccid"><use href="#E260-h1lm05qd" transform="translate(949, 810) scale(0.72, 0.72)"/></g></g><g data-id="d1h5232c" data-class="meterSig" class="meterSig"><use href="#E086-h1lm05qd" transform="translate(1257, 720) scale(0.72, 0.72)"/><use href="#E088-h1lm05qd" transform="translate(1264, 1080) scale(0.72, 0.72)"/></g><g data-class="ledgerLines" class="ledgerLines above"><g data-class="lineDash" class="lineDash" data-related="#m17xtd14"><path d="M1768 360 L2090 360" stroke-width="22"/></g></g><g data-id="smcpm7b" data-class="layer" class="layer"><g data-id="m17xtd14" data-class="note" class="note"><g data-class="notehead" class="notehead"><use href="#E0A4-h1lm05qd" transform="translate(1816, 270) scale(0.72, 0.72)"/></g><g data-id="j5cplzj" data-class="stem" class="stem"><path d="M1825 298 L1825 900" stroke-width="18"/><g data-id="k1ssploq" data-class="flag" class="flag"><use href="#E241-h1lm05qd" transform="translate(1816, 900) scale(0.72, 0.72)"/></g></g></g></g></g><g data-id="qkwm5xc" data-class="barLine" class="barLine"><path d="M2266 540 L2266 1260" stroke-width="27"/></g></g><g data-id="sof9vmp" data-class="measure" class="measure"><g data-id="tsrr18e" data-class="staff" class="staff"><path d="M2279 540 L5462 540" stroke-width="13"/><path d="M2279 720 L5462 720" stroke-width="13"/><path d="M2279 900 L5462 900" stroke-width="13"/><path d="M2279 1080 L5462 1080" stroke-width="13"/><path d="M2279 1260 L5462 1260" stroke-width="13"/><g data-class="ledgerLines" class="ledgerLines above"><g data-class="lineDash" class="lineDash" data-related="#n1uf1oc4"><path d="M2411 360 L2733 360" stroke-width="22"/></g><g data-class="lineDash" class="lineDash" data-related="#pivprh4"><path d="M3311 360 L3633 360" stroke-width="22"/></g></g><g data-class="ledgerLines" class="ledgerLines below"><g data-class="lineDash" class="lineDash" data-related="#q1g68vsf"><path d="M4501 1440 L4823 1440" stroke-width="22"/></g><g data-class="lineDash" class="lineDash" data-related="#q1g68vsf"><path d="M4501 1620 L4823 1620" stroke-width="22"/></g></g><g data-id="upvz3ri" data-class="layer" class="layer"><g data-id="xegb3r5" data-class="beam" class="beam"><polygon stroke-opacity="1" fill-opacity="1" points="2459,1485 3377,1485 3377,1395 2459,1395"/><g data-id="n1uf1oc4" data-class="note" class="note"><g data-class="notehead" class="notehead"><use href="#E0A4-h1lm05qd" transform="translate(2459, 270) scale(0.72, 0.72)"/></g><g data-id="l3g84yd" data-class="stem" class="stem"><path d="M2468 298 L2468 1467" stroke-width="18"/></g></g><g data-id="o1qmp6v9" data-class="note" class="note"><g data-class="notehead" class="notehead"><use href="#E0A4-h1lm05qd" transform="translate(2909, 900) scale(0.72, 0.72)"/></g><g data-id="m9ev1w1" data-class="stem" class="stem"><path d="M2918 928 L2918 1467" stroke-width="18"/></g></g><g data-id="pivprh4" data-class="note" class="note"><g data-class="notehead" class="notehead"><use href="#E0A4-h1lm05qd" transform="translate(3359, 270) scale(0.72, 0.72)"/></g><g data-id="n1c3s8ah" data-class="stem" class="stem"><path d="M3368 298 L3368 1467" stroke-width="18"/></g></g></g><g data-id="kjvh4ih" data-class="rest" class="rest"><use href="#E4E6-h1lm05qd" transform="translate(3809, 900) scale(0.72, 0.72)"/></g><g data-id="rwadfd1" data-class="clef" class="clef"><use href="#E07A-h1lm05qd" transform="translate(4097, 1080) scale(0.72, 0.72)"/></g><g data-id="y1dsgwe8" data-class="beam" class="beam"><polygon stroke-opacity="1" fill-opacity="1" points="4757,450 5225,405 5225,495 4757,540"/><g data-id="q1g68vsf" data-class="note" class="note"><g data-class="notehead" class="notehead"><use href="#E0A4-h1lm05qd" transform="translate(4549, 1710) scale(0.72, 0.72)"/></g><g data-id="owy551a" data-class="stem" class="stem"><path d="M4766 1682 L4766 468" stroke-width="18"/></g></g><g data-id="r8hw43u" data-class="note" class="note"><g data-class="notehead" class="notehead"><use href="#E0A4-h1lm05qd" transform="translate(4999, 1080) scale(0.72, 0.72)"/></g><g data-id="p17jldbw" data-class="stem" class="stem"><path d="M5216 1052 L5216 423" stroke-width="18"/></g></g></g></g></g><g data-id="a155h8rc" data-class="barLine" class="barLine"><path d="M5449 540 L5449 1260" stroke-width="27"/></g></g><g data-id="b1bqxvw1" data-class="measure" class="measure"><g data-id="vfthilf" data-class="staff" class="staff"><path d="M5462 540 L8355 540" stroke-width="13"/><path d="M5462 720 L8355 720" stroke-width="13"/><path d="M5462 900 L8355 900" stroke-width="13"/><path d="M5462 1080 L8355 1080" stroke-width="13"/><path d="M5462 1260 L8355 1260" stroke-width="13"/><g data-class="ledgerLines" class="ledgerLines below"><g data-class="lineDash" class="lineDash" data-related="#t119vags"><path d="M6044 1440 L6366 1440" stroke-width="22"/></g><g data-class="lineDash" class="lineDash" data-related="#vvc72og"><path d="M7394 1440 L7716 1440" stroke-width="22"/></g><g data-class="lineDash" class="lineDash" data-related="#t119vags"><path d="M6044 1620 L6366 1620" stroke-width="22"/></g><g data-class="lineDash" class="lineDash" data-related="#vvc72og"><path d="M7394 1620 L7716 1620" stroke-width="22"/></g></g><g data-id="w8ejnsb" data-class="layer" class="layer"><g data-id="z1i18dxu" data-class="beam" class="beam"><polygon stroke-opacity="1" fill-opacity="1" points="5850,495 6768,495 6768,585 5850,585"/><g data-id="sbo7zsj" data-class="note" class="note"><g data-class="notehead" class="notehead"><use href="#E0A4-h1lm05qd" transform="translate(5642, 1080) scale(0.72, 0.72)"/></g><g data-id="qbom9po" data-class="stem" class="stem"><path d="M5859 1052 L5859 513" stroke-width="18"/></g></g><g data-id="t119vags" data-class="note" class="note"><g data-class="notehead" class="notehead"><use href="#E0A4-h1lm05qd" transform="translate(6092, 1710) scale(0.72, 0.72)"/></g><g data-id="r6oj3bk" data-class="stem" class="stem"><path d="M6309 1682 L6309 513" stroke-width="18"/></g></g><g data-id="u1puiiey" data-class="note" class="note"><g data-class="notehead" class="notehead"><use href="#E0A4-h1lm05qd" transform="translate(6542, 1080) scale(0.72, 0.72)"/></g><g data-id="sykyevl" data-class="stem" class="stem"><path d="M6759 1052 L6759 513" stroke-width="18"/></g></g></g><g data-id="l1iqep2w" data-class="rest" class="rest"><use href="#E4E6-h1lm05qd" transform="translate(6992, 900) scale(0.72, 0.72)"/></g><g data-id="af6mh7e" data-class="beam" class="beam"><polygon stroke-opacity="1" fill-opacity="1" points="7650,360 8118,315 8118,405 7650,450"/><g data-id="vvc72og" data-class="note" class="note"><g data-class="notehead" class="notehead"><use href="#E0A4-h1lm05qd" transform="translate(7442, 1620) scale(0.72, 0.72)"/></g><g data-id="t1wb1svf" data-class="stem" class="stem"><path d="M7659 1592 L7659 378" stroke-width="18"/></g></g><g data-id="w1k3zuha" data-class="note" class="note"><g data-class="notehead" class="notehead"><use href="#E0A4-h1lm05qd" transform="translate(7892, 990) scale(0.72, 0.72)"/></g><g data-id="ub8z3wp" data-class="stem" class="stem"><path d="M8109 962 L8109 333" stroke-width="18"/></g></g></g></g></g><g data-id="jzdiesw" data-class="barLine" class="barLine"><path d="M8342 540 L8342 1260" stroke-width="27"/></g></g><g data-id="eh07rlq" data-class="systemMilestoneEnd" class="systemMilestoneEnd f170vlda"/></g><g data-id="fhtenw5" data-class="pageMilestoneEnd" class="pageMilestoneEnd dqdpy1h"/><g data-id="g1nl2gkz" data-class="pageMilestoneEnd" class="pageMilestoneEnd c1igizoc"/></g></svg></svg>