<svg viewBox="0 0 560 84" version="1.1" xmlns="http://www.w3.org/2000/svg" xmlns:xlink="http://www.w3.org/1999/xlink" overflow="visible" id="ld6eusi"><desc>Engraved by Verovio 5.6.0-85e7620</desc><defs><g id="E052-ld6eusi"><path transform="scale(1,-1)" d="M382 117c-72 -2 -128 -47 -128 -120v-7c2 -46 43 -99 75 -115c-3 -2 -7 -5 -10 -10c-70 33 -116 88 -123 172v11c0 68 44 126 88 159c23 17 49 29 78 36l-29 170c-21 -13 -52 -37 -92 -73c-50 -44 -86 -84 -109 -119c-45 -69 -67 -130 -67 -182v-13 c5 -68 35 -127 93 -176s125 -73 203 -73c25 0 50 3 75 9c-19 111 -36 221 -54 331zM406 119l54 -326c73 25 110 78 110 161c0 7 0 15 -1 23c-7 95 -57 142 -151 142h-12zM461 939c-95 0 -135 -175 -135 -286c0 -24 2 -48 5 -71c50 39 92 82 127 128c40 53 60 100 60 140v8 c-4 53 -22 81 -55 81h-2zM441 -245c-23 -4 -48 -6 -76 -6c-59 0 -102 7 -130 20c-88 42 -150 93 -187 154c-26 44 -43 103 -48 176c0 6 -1 13 -1 19c0 54 15 111 45 170c29 57 65 106 110 148s96 85 153 127c-3 16 -8 46 -13 92c-4 43 -5 73 -5 89c0 117 16 172 69 257 c34 54 64 82 89 82c21 0 43 -30 69 -92s39 -115 41 -159v-15c0 -109 -21 -162 -67 -241c-13 -20 -63 -90 -98 -118c-13 -9 -25 -19 -37 -29l31 -181c8 1 18 2 28 2c58 0 102 -12 133 -35c59 -43 92 -104 98 -184c1 -7 1 -15 1 -22c0 -123 -87 -209 -181 -248 c8 -57 17 -110 25 -162c5 -31 6 -58 6 -80c0 -30 -5 -53 -14 -70c-25 -46 -59 -77 -102 -92c21 -1 85 -13 85 -60c0 -35 -22 -43 -31 -50c-6 -5 -8 -10 -8 -16s0 -11 4 -16c6 -11 9 -22 9 -34c0 -27 -18 -53 -46 -65c-11 -4 -27 -6 -41 -6c-34 0 -82 21 -90 58 c-1 5 -2 8 -2 12c0 28 25 57 51 66c4 1 6 2 6 5c0 2 -1 3 -2 3c-11 13 -16 27 -16 41c0 21 11 40 30 51h-5c-5 0 -11 -1 -16 -1c-37 0 -72 10 -108 27c-50 24 -77 59 -80 105v11c0 29 7 55 20 76c18 28 45 42 79 44h6c49 0 93 -42 97 -87v-9c0 -51 -34 -86 -105 -106 c17 -24 51 -36 102 -36c62 0 116 43 140 85c9 16 13 41 13 74c0 20 -1 42 -5 67c-8 53 -18 106 -26 159zM315 -781c-3 -2 -6 -5 -7 -8c-6 -8 -10 -19 -10 -30c0 -2 0 -4 1 -7c7 -32 34 -52 53 -52c20 0 37 20 37 36c0 5 -2 9 -4 14c-5 13 -14 24 -25 34c-6 5 -11 10 -17 14 c-4 2 -9 6 -14 6c-6 0 -11 -3 -14 -7zM349 -685c0 -14 10 -25 18 -34c8 -8 16 -18 26 -25c5 -2 10 -4 13 -4c17 0 22 30 23 48c0 9 -3 20 -9 26c-8 9 -23 14 -40 14c-15 -1 -29 -8 -31 -25z"/></g><g id="E08A-ld6eusi"><path transform="scale(1,-1)" d="M340 179c-9 24 -56 41 -89 41c-46 0 -81 -28 -100 -58c-17 -28 -25 -78 -25 -150c0 -65 2 -111 8 -135c8 -31 18 -49 40 -67c20 -17 43 -25 70 -25c54 0 92 36 115 75c14 25 23 54 28 88h27c0 -63 -24 -105 -58 -141c-35 -38 -82 -56 -140 -56c-45 0 -83 13 -115 39 c-57 45 -101 130 -101 226c0 59 33 127 68 163c36 37 97 72 160 72c36 0 93 -21 121 -40c11 -8 23 -17 33 -30c19 -23 27 -48 27 -76c0 -51 -35 -88 -86 -88c-43 0 -76 27 -76 68c0 26 7 35 21 51c15 17 32 27 58 32c7 2 14 7 14 11z"/></g><g id="E0A4-ld6eusi"><path transform="scale(1,-1)" d="M0 -39c0 68 73 172 200 172c66 0 114 -37 114 -95c0 -84 -106 -171 -218 -171c-64 0 -96 30 -96 94z"/></g><g id="E0A3-ld6eusi"><path transform="scale(1,-1)" d="M278 64c0 22 -17 39 -43 39c-12 0 -26 -3 -41 -10c-85 -43 -165 -94 -165 -156c5 -25 15 -32 49 -32c67 11 200 95 200 159zM0 -36c0 68 73 174 200 174c66 0 114 -39 114 -97c0 -84 -106 -173 -218 -173c-64 0 -96 32 -96 96z"/></g><g id="E241-ld6eusi"><path transform="scale(1,-1)" d="M179 646c-4 8 -17 30 -18 33l-4 10c0 3 2 5 5 5s7 -2 13 -7c23 -33 46 -81 66 -132c22 -57 35 -125 35 -163c0 -104 -60 -183 -122 -241c-63 -59 -57 -53 -61 -56c-38 -34 -63 -95 -71 -95h-22v190c40 7 69 11 87 16c88 27 168 95 168 200c0 30 -12 89 -30 138 c-17 47 -31 73 -46 102z"/></g></defs><style type="text/css">#ld6eusi g.page-margin {font-family:Times,serif;}#ld6eusi g.ending, #ld6eusi g.fing, #ld6eusi g.reh, #ld6eusi g.tempo {font-weight:bold;}#ld6eusi g.dir, #ld6eusi g.dynam, #ld6eusi g.mNum {font-style:italic;}#ld6eusi g.label {font-weight:normal;}#ld6eusi path {stroke:currentColor}</style><svg class="definition-scale" color="black" viewBox="0 0 14000 2100"><g class="page-margin" transform="translate(0, 150)"><g data-id="v60q3ig" data-class="mdiv" class="mdiv pageMilestone"/><g data-id="wkj1x1d" data-class="score" class="score pageMilestone"/><g data-id="z1y06dsl" data-class="system" class="system"><g data-id="yi5em4h" data-class="section" class="section systemMilestone"/><g data-id="mt7h8fb" data-class="measure" class="measure"><g data-id="k1qs1a0" data-class="staff" class="staff"><path d="M0 540 L2081 540" stroke-width="13"/><path d="M0 720 L2081 720" stroke-width="13"/><path d="M0 900 L2081 900" stroke-width="13"/><path d="M0 1080 L2081 1080" stroke-width="13"/><path d="M0 1260 L2081 1260" stroke-width="13"/><g data-id="h5z54v8" data-class="clef" class="clef"><use href="#E052-ld6eusi" transform="translate(90, 1080) scale(0.72, 0.72)"/></g><g data-id="i1xiwkc8" data-class="keySig" class="keySig"/><g data-id="j1yej5yl" data-class="meterSig" class="meterSig"><use href="#E08A-ld6eusi" transform="translate(735, 900) scale(0.72, 0.72)"/></g><g data-id="lpf47it" data-class="layer" class="layer"><g data-id="fmk85yc" data-class="note" class="note"><g data-class="notehead" class="notehead"><use href="#E0A4-ld6eusi" transform="translate(1319, 630) scale(0.72, 0.72)"/></g><g data-id="e153rjmr" data-class="stem" class="stem"><path d="M1328 658 L1328 1260" stroke-width="18"/></g></g></g></g><g data-id="uqwue1y" data-class="barLine" class="barLine"><path d="M2068 540 L2068 1260" stroke-width="27"/></g></g><g data-id="v1pj8myk" data-class="measure" class="measure"><g data-id="mq2l1bt" data-class="staff" class="staff"><path d="M2081 540 L4570 540" stroke-width="13"/><path d="M2081 720 L4570 720" stroke-width="13"/><path d="M2081 900 L4570 900" stroke-width="13"/><path d="M2081 1080 L4570 1080" stroke-width="13"/><path d="M2081 1260 L4570 1260" stroke-width="13"/><g data-id="n964i65" data-class="layer" class="layer"><g data-id="gjps1zg" data-class="note" class="note"><g data-class="notehead" class="notehead"><use href="#E0A3-ld6eusi" transform="translate(2277, 630) scale(0.72, 0.72)"/></g><g data-id="f18olle" data-class="stem" class="stem"><path d="M2286 655 L2286 1260" stroke-width="18"/></g></g><g data-id="h1pgsp31" data-class="note" class="note"><g data-class="notehead" class="notehead"><use href="#E0A3-ld6eusi" transform="translate(3417, 720) scale(0.72, 0.72)"/></g><g data-id="g14pye4m" data-class="stem" class="stem"><path d="M3426 745 L3426 1350" stroke-width="18"/></g></g></g></g><g data-id="dole4v2" data-class="barLine" class="barLine"><path d="M4557 540 L4557 1260" stroke-width="27"/></g></g><g data-id="e1p9xe65" data-class="measure" class="measure"><g data-id="o1rfozrd" data-class="staff" class="staff"><path d="M4570 540 L7721 540" stroke-width="13"/><path d="M4570 720 L7721 720" stroke-width="13"/><path d="M4570 900 L7721 900" stroke-width="13"/><path d="M4570 1080 L7721 1080" stroke-width="13"/><path d="M4570 1260 L7721 1260" stroke-width="13"/><g data-id="pdqmqw1" data-class="layer" class="layer"><g data-id="i1kwhh49" data-class="note" class="note"><g data-class="notehead" class="notehead"><use href="#E0A4-ld6eusi" transform="translate(4766, 540) scale(0.72, 0.72)"/></g><g data-id="igsbu4r" data-class="dots" class="dots"><ellipse cx="5082" cy="450" rx="36" ry="36" fill-opacity="1" stroke-opacity="1"/></g><g data-id="hc0ylok" data-class="stem" class="stem"><path d="M4775 568 L4775 1170" stroke-width="18"/></g></g><g data-id="j14axy9" data-class="note" class="note"><g data-class="notehead" class="notehead"><use href="#E0A4-ld6eusi" transform="translate(5721, 540) scale(0.72, 0.72)"/></g><g data-id="jkgdckx" data-class="stem" class="stem"><path d="M5730 568 L5730 1170" stroke-width="18"/><g data-id="k1i0judh" data-class="flag" class="flag"><use href="#E241-ld6eusi" transform="translate(5721, 1170) scale(0.72, 0.72)"/></g></g></g><g data-id="kqfpcah" data-class="note" class="note"><g data-class="notehead" class="notehead"><use href="#E0A4-ld6eusi" transform="translate(6210, 630) scale(0.72, 0.72)"/></g><g data-id="lp6l4tw" data-class="stem" class="stem"><path d="M6219 658 L6219 1260" stroke-width="18"/></g></g><g data-id="l19n7wk7" data-class="note" class="note"><g data-class="notehead" class="notehead"><use href="#E0A4-ld6eusi" transform="translate(6959, 810) scale(0.72, 0.72)"/></g><g data-id="mk8xnsl" data-class="stem" class="stem"><path d="M6968 838 L6968 1440" stroke-width="18"/></g></g></g></g><g data-id="m1jbku5i" data-class="barLine" class="barLine"><path d="M7708 540 L7708 1260" stroke-width="27"/></g></g><g data-id="n1caw6pg" data-class="measure" class="measure"><g data-id="q1wkdezj" data-class="staff" class="staff"><path d="M7721 540 L11155 540" stroke-width="13"/><path d="M7721 720 L11155 720" stroke-width="13"/><path d="M7721 900 L11155 900" stroke-width="13"/><path d="M7721 1080 L11155 1080" stroke-width="13"/><path d="M7721 1260 L11155 1260" stroke-width="13"/><g data-id="rlsb667" data-class="layer" class="layer"><g data-id="m1epe37b" data-class="note" class="note"><g data-class="notehead" class="notehead"><use href="#E0A4-ld6eusi" transform="translate(7917, 810) scale(0.72, 0.72)"/></g><g data-id="nf6bryn" data-class="stem" class="stem"><path d="M7926 838 L7926 1440" stroke-width="18"/></g></g><g data-id="n411yrm" data-class="note" class="note"><g data-class="notehead" class="notehead"><use href="#E0A4-ld6eusi" transform="translate(8666, 810) scale(0.72, 0.72)"/></g><g data-id="o3l4xus" data-class="stem" class="stem"><path d="M8675 838 L8675 1440" stroke-width="18"/><g data-id="p19eymet" data-class="flag" class="flag"><use href="#E241-ld6eusi" transform="translate(8666, 1440) scale(0.72, 0.72)"/></g></g></g><g data-id="ox56f8z" data-class="note" class="note"><g data-class="notehead" class="notehead"><use href="#E0A4-ld6eusi" transform="translate(9155, 810) scale(0.72, 0.72)"/></g><g data-id="q1t8ae4s" data-class="stem" class="stem"><path d="M9164 838 L9164 1440" stroke-width="18"/><g data-id="rx2lfct" data-class="flag" class="flag"><use href="#E241-ld6eusi" transform="translate(9155, 1440) scale(0.72, 0.72)"/></g></g></g><g data-id="physap4" data-class="note" class="note"><g data-class="notehead" class="notehead"><use href="#E0A4-ld6eusi" transform="translate(9643, 720) scale(0.72, 0.72)"/></g><g data-id="s189bj95" data-class="stem" class="stem"><path d="M9652 748 L9652 1350" stroke-width="18"/></g></g><g data-id="q1ivv4s5" data-class="note" class="note"><g data-class="notehead" class="notehead"><use href="#E0A4-ld6eusi" transform="translate(10392, 630) scale(0.72, 0.72)"/></g><g data-id="thsgmpf" data-class="stem" class="stem"><path d="M10401 658 L10401 1260" stroke-width="18"/></g></g></g></g><g data-id="v3jiv28" data-class="barLine" class="barLine"><path d="M11142 540 L11142 1260" stroke-width="27"/></g></g><g data-id="wm6wos8" data-class="measure" class="measure"><g data-id="stteqob" data-class="staff" class="staff"><path d="M11155 540 L14002 540" stroke-width="13"/><path d="M11155 720 L14002 720" stroke-width="13"/><path d="M11155 900 L14002 900" stroke-width="13"/><path d="M11155 1080 L14002 1080" stroke-width="13"/><path d="M11155 1260 L14002 1260" stroke-width="13"/><g data-id="t6fa3sc" data-class="layer" class="layer"><g data-id="r1akfemp" data-class="note" class="note"><g data-class="notehead" class="notehead"><use href="#E0A3-ld6eusi" transform="translate(11351, 720) scale(0.72, 0.72)"/></g><g data-id="uxujorf" data-class="stem" class="stem"><path d="M11360 745 L11360 1350" stroke-width="18"/></g></g><g data-id="sf7p4y7" data-class="note" class="note"><g data-class="notehead" class="notehead"><use href="#E0A4-ld6eusi" transform="translate(12491, 1080) scale(0.72, 0.72)"/></g><g data-id="v1k4n2oa" data-class="stem" class="stem"><path d="M12708 1052 L12708 450" stroke-width="18"/></g></g><g data-id="t1wl6m53" data-class="note" class="note"><g data-class="notehead" class="notehead"><use href="#E0A4-ld6eusi" transform="translate(13240, 1080) scale(0.72, 0.72)"/></g><g data-id="w1szq416" data-class="stem" class="stem"><path d="M13457 1052 L13457 450" stroke-width="18"/></g></g></g></g><g data-id="e67g83t" data-class="barLine" class="barLine"><path d="M13989 540 L13989 1260" stroke-width="27"/></g></g><g data-id="be9qh0w" data-class="systemMilestoneEnd" class="systemMilestoneEnd yi5em4h"/></g><g data-id="cezfo09" data-class="pageMilestoneEnd" class="pageMilestoneEnd wkj1x1d"/><g data-id="ddn0r83" data-class="pageMilestoneEnd" class="pageMilestoneEnd v60q3ig"/></g></svg></svg>