<svg viewBox="0 0 560 91" version="1.1" xmlns="http://www.w3.org/2000/svg" xmlns:xlink="http://www.w3.org/1999/xlink" overflow="visible" id="u18q3y"><desc>Engraved by Verovio 5.6.0-85e7620</desc><defs><g id="E050-u18q3y"><path transform="scale(1,-1)" d="M441 -245c-23 -4 -48 -6 -76 -6c-59 0 -102 7 -130 20c-88 42 -150 93 -187 154c-26 44 -43 103 -48 176c0 6 -1 13 -1 19c0 54 15 111 45 170c29 57 65 106 110 148s96 85 153 127c-3 16 -8 46 -13 92c-4 43 -5 73 -5 89c0 117 16 172 69 257c34 54 64 82 89 82 c21 0 43 -30 69 -92s39 -115 41 -159v-15c0 -109 -21 -162 -67 -241c-13 -20 -63 -90 -98 -118c-13 -9 -25 -19 -37 -29l31 -181c8 1 18 2 28 2c58 0 102 -12 133 -35c59 -43 92 -104 98 -184c1 -7 1 -15 1 -22c0 -123 -87 -209 -181 -248c8 -57 17 -110 25 -162 c5 -31 6 -58 6 -80c0 -30 -5 -53 -14 -70c-35 -64 -88 -99 -158 -103c-5 0 -11 -1 -16 -1c-37 0 -72 10 -108 27c-50 24 -77 59 -80 105v11c0 29 7 55 20 76c18 28 45 42 79 44h6c49 0 93 -42 97 -87v-9c0 -51 -34 -86 -105 -106c17 -24 51 -36 102 -36c62 0 116 43 140 85 c9 16 13 41 13 74c0 20 -1 42 -5 67c-8 53 -18 106 -26 159zM461 939c-95 0 -135 -175 -135 -286c0 -24 2 -48 5 -71c50 39 92 82 127 128c40 53 60 100 60 140v8c-4 53 -22 81 -55 81h-2zM406 119l54 -326c73 25 110 78 110 161c0 7 0 15 -1 23c-7 95 -57 142 -151 142h-12 zM382 117c-72 -2 -128 -47 -128 -120v-7c2 -46 43 -99 75 -115c-3 -2 -7 -5 -10 -10c-70 33 -116 88 -123 172v11c0 68 44 126 88 159c23 17 49 29 78 36l-29 170c-21 -13 -52 -37 -92 -73c-50 -44 -86 -84 -109 -119c-45 -69 -67 -130 -67 -182v-13c5 -68 35 -127 93 -176 s125 -73 203 -73c25 0 50 3 75 9c-19 111 -36 221 -54 331z"/></g><g id="E262-u18q3y"><path transform="scale(1,-1)" d="M136 186v169h17v-164l44 14v-91l-44 -14v-165l44 12v-91l-44 -13v-155h-17v150l-76 -22v-155h-17v149l-43 -13v90l43 14v167l-43 -14v92l43 13v169h17v-163zM60 73v-167l76 22v168z"/></g><g id="E086-u18q3y"><path transform="scale(1,-1)" d="M284 -91c0 37 -28 92 -67 92c-35 0 -65 -54 -65 -111c0 -52 22 -104 68 -104c47 0 64 68 64 123zM230 214c-36 0 -90 -33 -90 -184l2 -36c40 24 81 36 120 36c80 0 140 -48 140 -121c0 -99 -99 -159 -182 -159c-160 0 -200 173 -200 244c0 21 2 43 7 71l10 35 c26 85 73 115 98 126c41 19 74 24 103 24c93 0 142 -63 142 -105c0 -58 -52 -72 -73 -72c-33 0 -59 24 -65 35c-3 5 -6 14 -7 25l11 30c6 15 9 27 9 35c0 11 -9 16 -25 16z"/></g><g id="E088-u18q3y"><path transform="scale(1,-1)" d="M195 -214c76 0 88 58 90 68c0 34 -35 60 -57 73l-52 29c-21 10 -32 17 -34 20c-39 -33 -58 -54 -62 -92c5 -23 23 -98 115 -98zM301 135c0 61 -72 76 -113 76c-40 0 -77 -17 -77 -51c3 -21 15 -38 26 -50c17 -15 33 -26 48 -34l65 -28c34 27 51 56 51 87zM176 -250 c-57 0 -166 26 -166 132c0 47 30 86 89 116c-33 15 -79 60 -79 119c0 79 85 132 178 132h18c5 0 21 1 28 -1c25 0 126 -30 126 -110c0 -37 -23 -76 -69 -116c43 -25 83 -71 83 -119c0 -101 -118 -153 -208 -153z"/></g><g id="E0A4-u18q3y"><path transform="scale(1,-1)" d="M0 -39c0 68 73 172 200 172c66 0 114 -37 114 -95c0 -84 -106 -171 -218 -171c-64 0 -96 30 -96 94z"/></g><g id="E240-u18q3y"><path transform="scale(1,-1)" d="M179 -646c15 29 29 55 46 102c18 49 30 108 30 138c0 105 -80 173 -168 200c-18 5 -47 9 -87 16v190h22c8 0 33 -61 71 -95c4 -3 -2 3 61 -56c62 -58 122 -137 122 -241c0 -38 -13 -106 -35 -163c-20 -51 -43 -99 -66 -132c-6 -5 -10 -7 -13 -7s-5 2 -5 5l4 10 c1 3 14 25 18 33z"/></g><g id="E4E5-u18q3y"><path transform="scale(1,-1)" d="M107 292c-13 24 -30 49 -52 71c-1 1 0 2 0 3l-2 2c3 3 4 4 6 4c12 0 26 -7 40 -20s44 -40 89 -81c26 -24 28 -29 46 -47c4 -4 8 -9 10 -14c6 -8 8 -16 8 -27c0 -19 -12 -40 -36 -61c-28 -23 -49 -38 -61 -73c-4 -11 -7 -27 -10 -50c13 -43 34 -83 59 -121 c31 -47 59 -79 101 -129c-8 0 -26 7 -54 20l-62 29l-21 6l-23 1c-25 0 -45 -10 -60 -30l-4 -14l-1 -12c0 -33 20 -56 39 -78c8 -9 17 -18 26 -26c17 -15 27 -24 28 -30l-3 -3c-11 5 -19 10 -25 15c-9 3 -37 21 -45 26c-24 14 -45 32 -63 51c-19 21 -37 44 -37 71 c0 63 27 95 80 95c41 0 86 -18 136 -52c-19 26 -37 48 -55 66c-23 23 -48 44 -73 65c-28 23 -47 40 -58 53s-17 26 -18 39c75 64 113 125 113 183c0 27 -7 48 -18 68z"/></g><g id="E241-u18q3y"><path transform="scale(1,-1)" d="M179 646c-4 8 -17 30 -18 33l-4 10c0 3 2 5 5 5s7 -2 13 -7c23 -33 46 -81 66 -132c22 -57 35 -125 35 -163c0 -104 -60 -183 -122 -241c-63 -59 -57 -53 -61 -56c-38 -34 -63 -95 -71 -95h-22v190c40 7 69 11 87 16c88 27 168 95 168 200c0 30 -12 89 -30 138 c-17 47 -31 73 -46 102z"/></g><g id="E0A3-u18q3y"><path transform="scale(1,-1)" d="M278 64c0 22 -17 39 -43 39c-12 0 -26 -3 -41 -10c-85 -43 -165 -94 -165 -156c5 -25 15 -32 49 -32c67 11 200 95 200 159zM0 -36c0 68 73 174 200 174c66 0 114 -39 114 -97c0 -84 -106 -173 -218 -173c-64 0 -96 32 -96 96z"/></g><g id="E4C0-u18q3y"><path transform="scale(1,-1)" d="M0 0c0 0 40 320 300 320s300 -320 300 -320h-32s-38 227 -268 227s-268 -227 -268 -227h-32zM355 52c0 -30 -25 -55 -55 -55s-55 25 -55 55s25 55 55 55s55 -25 55 -55z"/></g></defs><style type="text/css">#u18q3y g.page-margin {font-family:Times,serif;}#u18q3y g.ending, #u18q3y g.fing, #u18q3y g.reh, #u18q3y g.tempo {font-weight:bold;}#u18q3y g.dir, #u18q3y g.dynam, #u18q3y g.mNum {font-style:italic;}#u18q3y g.label {font-weight:normal;}#u18q3y path {stroke:currentColor}</style><svg class="definition-scale" color="black" viewBox="0 0 14000 2260"><g class="page-margin" transform="translate(0, 150)"><g data-id="t5zgmhm" data-class="mdiv" class="mdiv pageMilestone"/><g data-id="uymo6m9" data-class="score" class="score pageMilestone"/><g data-id="o130by8j" data-class="system" class="system"><g data-id="w66fe3x" data-class="section" class="section systemMilestone"/><g data-id="vlozx9" data-class="measure" class="measure"><g data-id="iizvddw" data-class="staff" class="staff"><path d="M0 707 L2694 707" stroke-width="13"/><path d="M0 887 L2694 887" stroke-width="13"/><path d="M0 1067 L2694 1067" stroke-width="13"/><path d="M0 1247 L2694 1247" stroke-width="13"/><path d="M0 1427 L2694 1427" stroke-width="13"/><g data-id="sqo5fp9" data-class="clef" class="clef"><use href="#E050-u18q3y" transform="translate(90, 1247) scale(0.72, 0.72)"/></g><g data-id="t1t3d265" data-class="keySig" class="keySig"><g data-id="ukx9kij" data-class="keyAccid" class="keyAccid"><use href="#E262-u18q3y" transform="translate(735, 707) scale(0.72, 0.72)"/></g><g data-id="vx5xltu" data-class="keyAccid" class="keyAccid"><use href="#E262-u18q3y" transform="translate(913, 977) scale(0.72, 0.72)"/></g><g data-id="wdnx71u" data-class="keyAccid" class="keyAccid"><use href="#E262-u18q3y" transform="translate(1091, 617) scale(0.72, 0.72)"/></g><g data-id="x1lw4sw" data-class="keyAccid" class="keyAccid"><use href="#E262-u18q3y" transform="translate(1269, 887) scale(0.72, 0.72)"/></g></g><g data-id="ywnev0g" data-class="meterSig" class="meterSig"><use href="#E086-u18q3y" transform="translate(1576, 887) scale(0.72, 0.72)"/><use href="#E088-u18q3y" transform="translate(1583, 1247) scale(0.72, 0.72)"/></g><g data-class="ledgerLines" class="ledgerLines below"><g data-class="lineDash" class="lineDash" data-related="#ytle0o3"><path d="M2097 1607 L2419 1607" stroke-width="22"/></g></g><g data-id="j1siyen" data-class="layer" class="layer"><g data-id="ytle0o3" data-class="note" class="note"><g data-class="notehead" class="notehead"><use href="#E0A4-u18q3y" transform="translate(2145, 1697) scale(0.72, 0.72)"/></g><g data-id="ide9kv7" data-class="stem" class="stem"><path d="M2362 1669 L2362 1067" stroke-width="18"/><g data-id="jrxli0g" data-class="flag" class="flag"><use href="#E240-u18q3y" transform="translate(2353, 1067) scale(0.72, 0.72)"/></g></g></g></g></g><g data-id="d1gftbnf" data-class="barLine" class="barLine"><path d="M2681 707 L2681 1427" stroke-width="27"/></g></g><g data-id="e1uevvmh" data-class="measure" class="measure"><g data-id="ktqsdlr" data-class="staff" class="staff"><path d="M2694 707 L5396 707" stroke-width="13"/><path d="M2694 887 L5396 887" stroke-width="13"/><path d="M2694 1067 L5396 1067" stroke-width="13"/><path d="M2694 1247 L5396 1247" stroke-width="13"/><path d="M2694 1427 L5396 1427" stroke-width="13"/><g data-id="l1qeffca" data-class="layer" class="layer"><g data-id="z1ldw061" data-class="note" class="note"><g data-class="notehead" class="notehead"><use href="#E0A4-u18q3y" transform="translate(2884, 1427) scale(0.72, 0.72)"/></g><g data-id="ksnj9sr" data-class="stem" class="stem"><path d="M3101 1399 L3101 797" stroke-width="18"/></g></g><g data-id="awxoy28" data-class="note" class="note"><g data-class="notehead" class="notehead"><use href="#E0A4-u18q3y" transform="translate(3604, 1427) scale(0.72, 0.72)"/></g><g data-id="lyjv8tq" data-class="stem" class="stem"><path d="M3821 1399 L3821 797" stroke-width="18"/><g data-id="m1j734ax" data-class="flag" class="flag"><use href="#E240-u18q3y" transform="translate(3812, 797) scale(0.72, 0.72)"/></g></g></g><g data-id="b1tp6cac" data-class="note" class="note"><g data-class="notehead" class="notehead"><use href="#E0A4-u18q3y" transform="translate(4126, 1247) scale(0.72, 0.72)"/></g><g data-id="nnube98" data-class="stem" class="stem"><path d="M4343 1219 L4343 617" stroke-width="18"/></g><g data-id="peikq2b" data-class="accid" class="accid"/></g><g data-id="c1n41u74" data-class="note" class="note"><g data-class="notehead" class="notehead"><use href="#E0A4-u18q3y" transform="translate(4846, 1157) scale(0.72, 0.72)"/></g><g data-id="o66d0ho" data-class="stem" class="stem"><path d="M5063 1129 L5063 527" stroke-width="18"/><g data-id="p1y8cyp" data-class="flag" class="flag"><use href="#E240-u18q3y" transform="translate(5054, 527) scale(0.72, 0.72)"/></g></g></g></g></g><g data-id="m1d820i0" data-class="barLine" class="barLine"><path d="M5383 707 L5383 1427" stroke-width="27"/></g></g><g data-id="n1wltv62" data-class="measure" class="measure"><g data-id="m1gbhhf8" data-class="staff" class="staff"><path d="M5396 707 L7980 707" stroke-width="13"/><path d="M5396 887 L7980 887" stroke-width="13"/><path d="M5396 1067 L7980 1067" stroke-width="13"/><path d="M5396 1247 L7980 1247" stroke-width="13"/><path d="M5396 1427 L7980 1427" stroke-width="13"/><g data-class="ledgerLines" class="ledgerLines above"><g data-class="lineDash" class="lineDash" data-related="#fz9quzs"><path d="M7449 527 L7771 527" stroke-width="22"/></g></g><g data-id="n1ub777q" data-class="layer" class="layer"><g data-id="x15dzp1h" data-class="rest" class="rest"><use href="#E4E5-u18q3y" transform="translate(5586, 1067) scale(0.72, 0.72)"/></g><g data-id="dgq0nm4" data-class="note" class="note"><g data-class="notehead" class="notehead"><use href="#E0A4-u18q3y" transform="translate(6306, 797) scale(0.72, 0.72)"/></g><g data-id="qppvoz4" data-class="stem" class="stem"><path d="M6315 825 L6315 1427" stroke-width="18"/><g data-id="rmxhe9j" data-class="flag" class="flag"><use href="#E241-u18q3y" transform="translate(6306, 1427) scale(0.72, 0.72)"/></g></g></g><g data-id="e1e8u0jc" data-class="note" class="note"><g data-class="notehead" class="notehead"><use href="#E0A4-u18q3y" transform="translate(6776, 617) scale(0.72, 0.72)"/></g><g data-id="s1kum4bv" data-class="stem" class="stem"><path d="M6785 645 L6785 1247" stroke-width="18"/></g><g data-id="qcdtfk4" data-class="accid" class="accid"/></g><g data-id="fz9quzs" data-class="note" class="note"><g data-class="notehead" class="notehead"><use href="#E0A4-u18q3y" transform="translate(7497, 527) scale(0.72, 0.72)"/></g><g data-id="t1wcma6x" data-class="stem" class="stem"><path d="M7506 555 L7506 1157" stroke-width="18"/><g data-id="udwz9zr" data-class="flag" class="flag"><use href="#E241-u18q3y" transform="translate(7497, 1157) scale(0.72, 0.72)"/></g></g></g></g></g><g data-id="vbfrrdl" data-class="barLine" class="barLine"><path d="M7967 707 L7967 1427" stroke-width="27"/></g></g><g data-id="wa0a0vi" data-class="measure" class="measure"><g data-id="o139ziga" data-class="staff" class="staff"><path d="M7980 707 L9584 707" stroke-width="13"/><path d="M7980 887 L9584 887" stroke-width="13"/><path d="M7980 1067 L9584 1067" stroke-width="13"/><path d="M7980 1247 L9584 1247" stroke-width="13"/><path d="M7980 1427 L9584 1427" stroke-width="13"/><g data-class="ledgerLines" class="ledgerLines above"><g data-class="lineDash" class="lineDash" data-related="#g6qknr8"><path d="M8122 527 L8444 527" stroke-width="22"/></g></g><g data-id="pn4lgfq" data-class="layer" class="layer"><g data-id="g6qknr8" data-class="note" class="note"><g data-class="notehead" class="notehead"><use href="#E0A3-u18q3y" transform="translate(8170, 437) scale(0.72, 0.72)"/></g><g data-id="w1025tlt" data-class="dots" class="dots"><ellipse cx="8486" cy="437" rx="36" ry="36" fill-opacity="1" stroke-opacity="1"/></g><g data-id="v1faerq9" data-class="stem" class="stem"><path d="M8179 462 L8179 1067" stroke-width="18"/></g></g></g></g><g data-id="n1ktysny" data-class="tie" class="tie"><path d="M8441,325 C8758,172 9411,172 9729,325 C9402,220 8767,220 8441,325" stroke-linecap="round" stroke-linejoin="round" stroke-width="9"/></g><g data-id="ex6mvtt" data-class="barLine" class="barLine"><path d="M9571 707 L9571 1427" stroke-width="27"/></g></g><g data-id="f8c9a7z" data-class="measure" class="measure"><g data-id="q1ju8678" data-class="staff" class="staff"><path d="M9584 707 L11625 707" stroke-width="13"/><path d="M9584 887 L11625 887" stroke-width="13"/><path d="M9584 1067 L11625 1067" stroke-width="13"/><path d="M9584 1247 L11625 1247" stroke-width="13"/><path d="M9584 1427 L11625 1427" stroke-width="13"/><g data-class="ledgerLines" class="ledgerLines above"><g data-class="lineDash" class="lineDash" data-related="#h8txaq2"><path d="M9726 527 L10048 527" stroke-width="22"/></g></g><g data-id="ru6bars" data-class="layer" class="layer"><g data-id="h8txaq2" data-class="note" class="note"><g data-class="notehead" class="notehead"><use href="#E0A4-u18q3y" transform="translate(9774, 437) scale(0.72, 0.72)"/></g><g data-id="y1gn0wet" data-class="dots" class="dots"><ellipse cx="10090" cy="437" rx="36" ry="36" fill-opacity="1" stroke-opacity="1"/></g><g data-id="x172kwke" data-class="stem" class="stem"><path d="M9783 465 L9783 1067" stroke-width="18"/></g></g><g data-id="i2abruc" data-class="note" class="note"><g data-class="notehead" class="notehead"><use href="#E0A4-u18q3y" transform="translate(10693, 617) scale(0.72, 0.72)"/></g><g data-id="agelzts" data-class="dots" class="dots"><ellipse cx="11009" cy="617" rx="36" ry="36" fill-opacity="1" stroke-opacity="1"/></g><g data-id="znb2f6i" data-class="stem" class="stem"><path d="M10702 645 L10702 1247" stroke-width="18"/></g><g data-id="r1lsu3xy" data-class="accid" class="accid"/></g></g></g><g data-id="n1a6lxkl" data-class="barLine" class="barLine"><path d="M11612 707 L11612 1427" stroke-width="27"/></g></g><g data-id="o1y0owt6" data-class="measure" class="measure"><g data-id="so0ut8c" data-class="staff" class="staff"><path d="M11625 707 L14004 707" stroke-width="13"/><path d="M11625 887 L14004 887" stroke-width="13"/><path d="M11625 1067 L14004 1067" stroke-width="13"/><path d="M11625 1247 L14004 1247" stroke-width="13"/><path d="M11625 1427 L14004 1427" stroke-width="13"/><g data-class="ledgerLines" class="ledgerLines above"><g data-class="lineDash" class="lineDash" data-related="#j1y42mi2"><path d="M11767 527 L12089 527" stroke-width="22"/></g><g data-class="lineDash" class="lineDash" data-related="#kjts75t"><path d="M12686 527 L13008 527" stroke-width="22"/></g></g><g data-class="ledgerLines" class="ledgerLines below"><g data-class="lineDash" class="lineDash" data-related="#l19j10be"><path d="M13406 1607 L13728 1607" stroke-width="22"/></g></g><g data-id="t1ls6jgm" data-class="layer" class="layer"><g data-id="j1y42mi2" data-class="note" class="note"><g data-class="notehead" class="notehead"><use href="#E0A4-u18q3y" transform="translate(11815, 437) scale(0.72, 0.72)"/></g><g data-id="c1mio5fu" data-class="dots" class="dots"><ellipse cx="12131" cy="437" rx="36" ry="36" fill-opacity="1" stroke-opacity="1"/></g><g data-id="b1tdcoxv" data-class="stem" class="stem"><path d="M11824 465 L11824 1067" stroke-width="18"/></g></g><g data-id="kjts75t" data-class="note" class="note"><g data-class="notehead" class="notehead"><use href="#E0A4-u18q3y" transform="translate(12734, 437) scale(0.72, 0.72)"/></g><g data-id="djacft8" data-class="stem" class="stem"><path d="M12743 465 L12743 1067" stroke-width="18"/></g></g><g data-id="l19j10be" data-class="note" class="note"><g data-class="notehead" class="notehead"><use href="#E0A4-u18q3y" transform="translate(13454, 1697) scale(0.72, 0.72)"/></g><g data-id="edzg8vy" data-class="stem" class="stem"><path d="M13671 1669 L13671 1067" stroke-width="18"/><g data-id="fz48drk" data-class="flag" class="flag"><use href="#E240-u18q3y" transform="translate(13662, 1067) scale(0.72, 0.72)"/></g></g></g></g></g><g data-id="o1dt9ama" data-class="tie" class="tie"><path d="M12086,325 C12226,171 12544,171 12689,325 C12527,220 12245,220 12086,325" stroke-linecap="round" stroke-linejoin="round" stroke-width="9"/></g><g data-id="mlh4731" data-class="fermata" class="fermata"><use href="#E4C0-u18q3y" transform="translate(12631, 230) scale(0.72, 0.72)"/></g><g data-id="w1nx5htk" data-class="barLine" class="barLine"><path d="M13991 707 L13991 1427" stroke-width="27"/></g></g><g data-id="b4jdjsu" data-class="systemMilestoneEnd" class="systemMilestoneEnd w66fe3x"/></g><g data-id="c1r9stp0" data-class="pageMilestoneEnd" class="pageMilestoneEnd uymo6m9"/><g data-id="d1uba8gy" data-class="pageMilestoneEnd" class="pageMilestoneEnd t5zgmhm"/></g></svg></svg>