<svg viewBox="0 0 560 84" version="1.1" xmlns="http://www.w3.org/2000/svg" xmlns:xlink="http://www.w3.org/1999/xlink" overflow="visible" id="d1qs2d10"><desc>Engraved by Verovio 5.6.0-85e7620</desc><defs><g id="E050-d1qs2d10"><path transform="scale(1,-1)" d="M441 -245c-23 -4 -48 -6 -76 -6c-59 0 -102 7 -130 20c-88 42 -150 93 -187 154c-26 44 -43 103 -48 176c0 6 -1 13 -1 19c0 54 15 111 45 170c29 57 65 106 110 148s96 85 153 127c-3 16 -8 46 -13 92c-4 43 -5 73 -5 89c0 117 16 172 69 257c34 54 64 82 89 82 c21 0 43 -30 69 -92s39 -115 41 -159v-15c0 -109 -21 -162 -67 -241c-13 -20 -63 -90 -98 -118c-13 -9 -25 -19 -37 -29l31 -181c8 1 18 2 28 2c58 0 102 -12 133 -35c59 -43 92 -104 98 -184c1 -7 1 -15 1 -22c0 -123 -87 -209 -181 -248c8 -57 17 -110 25 -162 c5 -31 6 -58 6 -80c0 -30 -5 -53 -14 -70c-35 -64 -88 -99 -158 -103c-5 0 -11 -1 -16 -1c-37 0 -72 10 -108 27c-50 24 -77 59 -80 105v11c0 29 7 55 20 76c18 28 45 42 79 44h6c49 0 93 -42 97 -87v-9c0 -51 -34 -86 -105 -106c17 -24 51 -36 102 -36c62 0 116 43 140 85 c9 16 13 41 13 74c0 20 -1 42 -5 67c-8 53 -18 106 -26 159zM461 939c-95 0 -135 -175 -135 -286c0 -24 2 -48 5 -71c50 39 92 82 127 128c40 53 60 100 60 140v8c-4 53 -22 81 -55 81h-2zM406 119l54 -326c73 25 110 78 110 161c0 7 0 15 -1 23c-7 95 -57 142 -151 142h-12 zM382 117c-72 -2 -128 -47 -128 -120v-7c2 -46 43 -99 75 -115c-3 -2 -7 -5 -10 -10c-70 33 -116 88 -123 172v11c0 68 44 126 88 159c23 17 49 29 78 36l-29 170c-21 -13 -52 -37 -92 -73c-50 -44 -86 -84 -109 -119c-45 -69 -67 -130 -67 -182v-13c5 -68 35 -127 93 -176 s125 -73 203 -73c25 0 50 3 75 9c-19 111 -36 221 -54 331z"/></g><g id="E260-d1qs2d10"><path transform="scale(1,-1)" d="M20 110c32 16 54 27 93 27c26 0 35 -3 54 -13c13 -7 24 -20 27 -38l4 -25c0 -28 -16 -57 -45 -89c-23 -25 -39 -44 -65 -68l-88 -79v644h20v-359zM90 106c-32 0 -48 -10 -70 -29v-194c31 31 54 59 71 84c21 32 32 59 32 84c0 9 1 16 1 20c0 14 -3 21 -11 30l-8 3z"/></g><g id="E083-d1qs2d10"><path transform="scale(1,-1)" d="M208 250c97 0 177 -52 177 -116c0 -69 -40 -111 -118 -125c56 -5 125 -44 125 -116c0 -31 -10 -57 -31 -78c-19 -21 -45 -38 -78 -49l-50 -11c-15 -3 -36 -7 -55 -7c-50 0 -86 16 -113 38c-16 10 -23 18 -34 34c-7 13 -11 25 -11 38c0 43 27 83 68 83l3 -2 c61 0 75 -42 75 -70c0 -19 -24 -42 -26 -57c7 -17 20 -25 37 -25c44 0 94 29 94 78c0 75 -34 125 -138 125v36c84 0 131 22 131 98c0 54 -37 88 -87 88c-26 0 -43 -7 -51 -22c15 -22 44 -16 44 -70c0 -37 -37 -62 -71 -62c-22 0 -69 15 -69 76c0 79 101 116 178 116z"/></g><g id="E084-d1qs2d10"><path transform="scale(1,-1)" d="M20 -78c84 97 114 180 134 329h170c-13 -32 -82 -132 -99 -151l-84 -97c-33 -36 -59 -63 -80 -81h162v102l127 123v-225h57v-39h-57v-34c0 -43 19 -65 57 -65v-34h-244v36c48 0 60 26 60 70v27h-203v39z"/></g><g id="E4E6-d1qs2d10"><path transform="scale(1,-1)" d="M0 123c7 34 33 56 69 60c29 -3 43 -9 53 -29c4 -8 7 -15 10 -22c0 -21 -1 -25 -11 -35c-5 -8 -18 -14 -40 -20l12 -3l15 -1c44 0 97 26 122 56c10 11 18 26 24 42c7 1 15 2 22 3l-140 -424h-36l111 330c-10 -6 -27 -12 -53 -16l-52 -8h-10l-20 1c-1 0 -8 3 -21 6 c-37 9 -55 28 -55 60z"/></g><g id="E0A4-d1qs2d10"><path transform="scale(1,-1)" d="M0 -39c0 68 73 172 200 172c66 0 114 -37 114 -95c0 -84 -106 -171 -218 -171c-64 0 -96 30 -96 94z"/></g><g id="E261-d1qs2d10"><path transform="scale(1,-1)" d="M0 -188v539h18v-191l139 22v-533h-17v186zM18 -100l122 17v176l-122 -19v-174z"/></g></defs><style type="text/css">#d1qs2d10 g.page-margin {font-family:Times,serif;}#d1qs2d10 g.ending, #d1qs2d10 g.fing, #d1qs2d10 g.reh, #d1qs2d10 g.tempo {font-weight:bold;}#d1qs2d10 g.dir, #d1qs2d10 g.dynam, #d1qs2d10 g.mNum {font-style:italic;}#d1qs2d10 g.label {font-weight:normal;}#d1qs2d10 path {stroke:currentColor}</style><svg class="definition-scale" color="black" viewBox="0 0 14000 2100"><g class="page-margin" transform="translate(0, 150)"><g data-id="f1lkfc2b" data-class="mdiv" class="mdiv pageMilestone"/><g data-id="g5xl6dw" data-class="score" class="score pageMilestone"/><g data-id="nabwls" data-class="system" class="system"><g data-id="i1411vsb" data-class="section" class="section systemMilestone"/><g data-id="esxr2re" data-class="measure" class="measure"><g data-id="u11ybkxu" data-class="staff" class="staff"><path d="M0 540 L4833 540" stroke-width="13"/><path d="M0 720 L4833 720" stroke-width="13"/><path d="M0 900 L4833 900" stroke-width="13"/><path d="M0 1080 L4833 1080" stroke-width="13"/><path d="M0 1260 L4833 1260" stroke-width="13"/><g data-id="s1pilsis" data-class="clef" class="clef"><use href="#E050-d1qs2d10" transform="translate(90, 1080) scale(0.72, 0.72)"/></g><g data-id="t1lox67h" data-class="keySig" class="keySig"><g data-id="u1w76usd" data-class="keyAccid" class="keyAccid"><use href="#E260-d1qs2d10" transform="translate(735, 900) scale(0.72, 0.72)"/></g><g data-id="vk1tjcs" data-class="keyAccid" class="keyAccid"><use href="#E260-d1qs2d10" transform="translate(915, 630) scale(0.72, 0.72)"/></g><g data-id="w19ljdwe" data-class="keyAccid" class="keyAccid"><use href="#E260-d1qs2d10" transform="translate(1095, 990) scale(0.72, 0.72)"/></g></g><g data-id="x17gmmzt" data-class="meterSig" class="meterSig"><use href="#E083-d1qs2d10" transform="translate(1409, 720) scale(0.72, 0.72)"/><use href="#E084-d1qs2d10" transform="translate(1403, 1080) scale(0.72, 0.72)"/></g><g data-id="vb6puhj" data-class="layer" class="layer"><g data-id="o1h9mnuc" data-class="rest" class="rest"><use href="#E4E6-d1qs2d10" transform="translate(1975, 900) scale(0.72, 0.72)"/></g><g data-id="n1gsgphe" data-class="beam" class="beam"><polygon stroke-opacity="1" fill-opacity="1" points="2657,675 4572,315 4572,405 2657,765"/><g data-id="p1ds3hl6" data-class="note" class="note"><g data-class="notehead" class="notehead"><use href="#E0A4-d1qs2d10" transform="translate(2449, 1260) scale(0.72, 0.72)"/></g><g data-id="p16bwzh7" data-class="stem" class="stem"><path d="M2666 1232 L2666 693" stroke-width="18"/></g><g data-id="r7ppm8" data-class="accid" class="accid"/></g><g data-id="q9vjo30" data-class="note" class="note"><g data-class="notehead" class="notehead"><use href="#E0A4-d1qs2d10" transform="translate(2923, 1170) scale(0.72, 0.72)"/></g><g data-id="qqrspsx" data-class="stem" class="stem"><path d="M3140 1142 L3140 604" stroke-width="18"/></g></g><g data-id="r189u1pe" data-class="note" class="note"><g data-class="notehead" class="notehead"><use href="#E0A4-d1qs2d10" transform="translate(3398, 1080) scale(0.72, 0.72)"/></g><g data-id="rwte0w" data-class="stem" class="stem"><path d="M3615 1052 L3615 513" stroke-width="18"/></g></g><g data-id="s11wna4r" data-class="note" class="note"><g data-class="notehead" class="notehead"><use href="#E0A4-d1qs2d10" transform="translate(3872, 990) scale(0.72, 0.72)"/></g><g data-id="s4uwtez" data-class="stem" class="stem"><path d="M4089 962 L4089 423" stroke-width="18"/></g><g data-id="s1l4hup8" data-class="accid" class="accid"/></g><g data-id="ty2wc20" data-class="note" class="note"><g data-class="notehead" class="notehead"><use href="#E0A4-d1qs2d10" transform="translate(4346, 810) scale(0.72, 0.72)"/></g><g data-id="t1f17jk1" data-class="stem" class="stem"><path d="M4563 782 L4563 333" stroke-width="18"/></g></g></g></g></g><g data-id="mxxe327" data-class="barLine" class="barLine"><path d="M4820 540 L4820 1260" stroke-width="27"/></g></g><g data-id="n16ekki5" data-class="measure" class="measure"><g data-id="wh5onhe" data-class="staff" class="staff"><path d="M4833 540 L7881 540" stroke-width="13"/><path d="M4833 720 L7881 720" stroke-width="13"/><path d="M4833 900 L7881 900" stroke-width="13"/><path d="M4833 1080 L7881 1080" stroke-width="13"/><path d="M4833 1260 L7881 1260" stroke-width="13"/><g data-class="ledgerLines" class="ledgerLines above"><g data-class="lineDash" class="lineDash" data-related="#x15xktn6"><path d="M6398 360 L6720 360" stroke-width="22"/></g></g><g data-id="x11owxxd" data-class="layer" class="layer"><g data-id="o16wn8pw" data-class="beam" class="beam"><polygon stroke-opacity="1" fill-opacity="1" points="5023,1485 7412,1305 7412,1215 5023,1395"/><g data-id="u10qwf5m" data-class="note" class="note"><g data-class="notehead" class="notehead"><use href="#E0A4-d1qs2d10" transform="translate(5023, 900) scale(0.72, 0.72)"/></g><g data-id="um42bs4" data-class="stem" class="stem"><path d="M5032 928 L5032 1467" stroke-width="18"/></g><g data-id="t1sa4d4s" data-class="accid" class="accid"/></g><g data-id="vakrvrt" data-class="note" class="note"><g data-class="notehead" class="notehead"><use href="#E0A4-d1qs2d10" transform="translate(5497, 720) scale(0.72, 0.72)"/></g><g data-id="vhig012" data-class="stem" class="stem"><path d="M5506 748 L5506 1431" stroke-width="18"/></g></g><g data-id="w1sp89nr" data-class="note" class="note"><g data-class="notehead" class="notehead"><use href="#E0A4-d1qs2d10" transform="translate(5971, 540) scale(0.72, 0.72)"/></g><g data-id="w17ay43a" data-class="stem" class="stem"><path d="M5980 568 L5980 1395" stroke-width="18"/></g></g><g data-id="x15xktn6" data-class="note" class="note"><g data-class="notehead" class="notehead"><use href="#E0A4-d1qs2d10" transform="translate(6446, 360) scale(0.72, 0.72)"/></g><g data-id="xcxp0d5" data-class="stem" class="stem"><path d="M6455 388 L6455 1358" stroke-width="18"/></g><g data-id="ujh1w6w" data-class="accid" class="accid"/></g><g data-id="yhg649i" data-class="note" class="note"><g data-class="notehead" class="notehead"><use href="#E0A4-d1qs2d10" transform="translate(6920, 450) scale(0.72, 0.72)"/></g><g data-id="y1fz4rsq" data-class="stem" class="stem"><path d="M6929 478 L6929 1322" stroke-width="18"/></g></g><g data-id="z1ja5fe8" data-class="note" class="note"><g data-class="notehead" class="notehead"><use href="#E0A4-d1qs2d10" transform="translate(7394, 540) scale(0.72, 0.72)"/></g><g data-id="zk39ulc" data-class="stem" class="stem"><path d="M7403 568 L7403 1287" stroke-width="18"/></g></g></g></g></g><g data-id="v179sp0n" data-class="barLine" class="barLine"><path d="M7868 540 L7868 1260" stroke-width="27"/></g></g><g data-id="w1yo303p" data-class="measure" class="measure"><g data-id="yrcecx0" data-class="staff" class="staff"><path d="M7881 540 L10954 540" stroke-width="13"/><path d="M7881 720 L10954 720" stroke-width="13"/><path d="M7881 900 L10954 900" stroke-width="13"/><path d="M7881 1080 L10954 1080" stroke-width="13"/><path d="M7881 1260 L10954 1260" stroke-width="13"/><g data-id="z1q47qe3" data-class="layer" class="layer"><g data-id="pnyz3nu" data-class="beam" class="beam"><polygon stroke-opacity="1" fill-opacity="1" points="8071,1620 10485,1620 10485,1530 8071,1530"/><g data-id="ajczb7w" data-class="note" class="note"><g data-class="notehead" class="notehead"><use href="#E0A4-d1qs2d10" transform="translate(8071, 630) scale(0.72, 0.72)"/></g><g data-id="a676eo9" data-class="stem" class="stem"><path d="M8080 658 L8080 1602" stroke-width="18"/></g><g data-id="v166wd74" data-class="accid" class="accid"/></g><g data-id="bnp6zst" data-class="note" class="note"><g data-class="notehead" class="notehead"><use href="#E0A4-d1qs2d10" transform="translate(8545, 900) scale(0.72, 0.72)"/></g><g data-id="b19y9id7" data-class="stem" class="stem"><path d="M8554 928 L8554 1602" stroke-width="18"/></g><g data-id="wu9fknc" data-class="accid" class="accid"/></g><g data-id="c16drij0" data-class="note" class="note"><g data-class="notehead" class="notehead"><use href="#E0A4-d1qs2d10" transform="translate(9019, 1080) scale(0.72, 0.72)"/></g><g data-id="c22sacn" data-class="stem" class="stem"><path d="M9028 1108 L9028 1602" stroke-width="18"/></g></g><g data-id="d17fp7np" data-class="note" class="note"><g data-class="notehead" class="notehead"><use href="#E0A4-d1qs2d10" transform="translate(9494, 1080) scale(0.72, 0.72)"/></g><g data-id="dfa433k" data-class="stem" class="stem"><path d="M9503 1108 L9503 1602" stroke-width="18"/></g></g><g data-id="e1u6s4vs" data-class="note" class="note"><g data-class="notehead" class="notehead"><use href="#E0A4-d1qs2d10" transform="translate(9968, 990) scale(0.72, 0.72)"/></g><g data-id="e1ctvljt" data-class="stem" class="stem"><path d="M9977 1018 L9977 1602" stroke-width="18"/></g><g data-id="xqn6lbs" data-class="accid" class="accid"/></g><g data-id="f161fdma" data-class="note" class="note"><g data-class="notehead" class="notehead"><use href="#E0A4-d1qs2d10" transform="translate(10467, 990) scale(0.72, 0.72)"/></g><g data-id="f22fi0e" data-class="stem" class="stem"><path d="M10476 1018 L10476 1602" stroke-width="18"/></g><g data-id="m196c9on" data-class="accid" class="accid"><use href="#E261-d1qs2d10" transform="translate(10309, 990) scale(0.72, 0.72)"/></g></g></g></g></g><g data-id="e1e5fhhb" data-class="barLine" class="barLine"><path d="M10941 540 L10941 1260" stroke-width="27"/></g></g><g data-id="f1gxgy2e" data-class="measure" class="measure"><g data-id="abbl1qu" data-class="staff" class="staff"><path d="M10954 540 L14002 540" stroke-width="13"/><path d="M10954 720 L14002 720" stroke-width="13"/><path d="M10954 900 L14002 900" stroke-width="13"/><path d="M10954 1080 L14002 1080" stroke-width="13"/><path d="M10954 1260 L14002 1260" stroke-width="13"/><g data-id="b5x0f3c" data-class="layer" class="layer"><g data-id="qvp6emf" data-class="beam" class="beam"><polygon stroke-opacity="1" fill-opacity="1" points="11144,1485 13533,1485 13533,1395 11144,1395"/><g data-id="g13tvie2" data-class="note" class="note"><g data-class="notehead" class="notehead"><use href="#E0A4-d1qs2d10" transform="translate(11144, 900) scale(0.72, 0.72)"/></g><g data-id="gvgmipl" data-class="stem" class="stem"><path d="M11153 928 L11153 1467" stroke-width="18"/></g><g data-id="y86hhqi" data-class="accid" class="accid"/></g><g data-id="h165ip2g" data-class="note" class="note"><g data-class="notehead" class="notehead"><use href="#E0A4-d1qs2d10" transform="translate(11618, 900) scale(0.72, 0.72)"/></g><g data-id="hde1ys5" data-class="stem" class="stem"><path d="M11627 928 L11627 1467" stroke-width="18"/></g><g data-id="z35gsu4" data-class="accid" class="accid"/></g><g data-id="izt4mel" data-class="note" class="note"><g data-class="notehead" class="notehead"><use href="#E0A4-d1qs2d10" transform="translate(12092, 900) scale(0.72, 0.72)"/></g><g data-id="ipy698u" data-class="stem" class="stem"><path d="M12101 928 L12101 1467" stroke-width="18"/></g><g data-id="ag1p9r7" data-class="accid" class="accid"/></g><g data-id="jafwk7c" data-class="note" class="note"><g data-class="notehead" class="notehead"><use href="#E0A4-d1qs2d10" transform="translate(12567, 900) scale(0.72, 0.72)"/></g><g data-id="jpczb9c" data-class="stem" class="stem"><path d="M12576 928 L12576 1467" stroke-width="18"/></g><g data-id="bsy0tq" data-class="accid" class="accid"/></g><g data-id="k16xb2vc" data-class="note" class="note"><g data-class="notehead" class="notehead"><use href="#E0A4-d1qs2d10" transform="translate(13041, 900) scale(0.72, 0.72)"/></g><g data-id="k4fz94w" data-class="stem" class="stem"><path d="M13050 928 L13050 1467" stroke-width="18"/></g><g data-id="c1o3suhv" data-class="accid" class="accid"/></g><g data-id="l1u3efu4" data-class="note" class="note"><g data-class="notehead" class="notehead"><use href="#E0A4-d1qs2d10" transform="translate(13515, 900) scale(0.72, 0.72)"/></g><g data-id="l14ep0cr" data-class="stem" class="stem"><path d="M13524 928 L13524 1467" stroke-width="18"/></g><g data-id="d1186oyd" data-class="accid" class="accid"/></g></g></g></g><g data-id="n4b956u" data-class="barLine" class="barLine"><path d="M13989 540 L13989 1260" stroke-width="27"/></g></g><g data-id="jracdj6" data-class="systemMilestoneEnd" class="systemMilestoneEnd i1411vsb"/></g><g data-id="ks1b0iv" data-class="pageMilestoneEnd" class="pageMilestoneEnd g5xl6dw"/><g data-id="l99q1hp" data-class="pageMilestoneEnd" class="pageMilestoneEnd f1lkfc2b"/></g></svg></svg>