<svg viewBox="0 0 560 84" version="1.1" xmlns="http://www.w3.org/2000/svg" xmlns:xlink="http://www.w3.org/1999/xlink" overflow="visible" id="t1yxrfsh"><desc>Engraved by Verovio 5.6.0-85e7620</desc><defs><g id="E050-t1yxrfsh"><path transform="scale(1,-1)" d="M441 -245c-23 -4 -48 -6 -76 -6c-59 0 -102 7 -130 20c-88 42 -150 93 -187 154c-26 44 -43 103 -48 176c0 6 -1 13 -1 19c0 54 15 111 45 170c29 57 65 106 110 148s96 85 153 127c-3 16 -8 46 -13 92c-4 43 -5 73 -5 89c0 117 16 172 69 257c34 54 64 82 89 82 c21 0 43 -30 69 -92s39 -115 41 -159v-15c0 -109 -21 -162 -67 -241c-13 -20 -63 -90 -98 -118c-13 -9 -25 -19 -37 -29l31 -181c8 1 18 2 28 2c58 0 102 -12 133 -35c59 -43 92 -104 98 -184c1 -7 1 -15 1 -22c0 -123 -87 -209 -181 -248c8 -57 17 -110 25 -162 c5 -31 6 -58 6 -80c0 -30 -5 -53 -14 -70c-35 -64 -88 -99 -158 -103c-5 0 -11 -1 -16 -1c-37 0 -72 10 -108 27c-50 24 -77 59 -80 105v11c0 29 7 55 20 76c18 28 45 42 79 44h6c49 0 93 -42 97 -87v-9c0 -51 -34 -86 -105 -106c17 -24 51 -36 102 -36c62 0 116 43 140 85 c9 16 13 41 13 74c0 20 -1 42 -5 67c-8 53 -18 106 -26 159zM461 939c-95 0 -135 -175 -135 -286c0 -24 2 -48 5 -71c50 39 92 82 127 128c40 53 60 100 60 140v8c-4 53 -22 81 -55 81h-2zM406 119l54 -326c73 25 110 78 110 161c0 7 0 15 -1 23c-7 95 -57 142 -151 142h-12 zM382 117c-72 -2 -128 -47 -128 -120v-7c2 -46 43 -99 75 -115c-3 -2 -7 -5 -10 -10c-70 33 -116 88 -123 172v11c0 68 44 126 88 159c23 17 49 29 78 36l-29 170c-21 -13 -52 -37 -92 -73c-50 -44 -86 -84 -109 -119c-45 -69 -67 -130 -67 -182v-13c5 -68 35 -127 93 -176 s125 -73 203 -73c25 0 50 3 75 9c-19 111 -36 221 -54 331z"/></g><g id="E262-t1yxrfsh"><path transform="scale(1,-1)" d="M136 186v169h17v-164l44 14v-91l-44 -14v-165l44 12v-91l-44 -13v-155h-17v150l-76 -22v-155h-17v149l-43 -13v90l43 14v167l-43 -14v92l43 13v169h17v-163zM60 73v-167l76 22v168z"/></g><g id="E081-t1yxrfsh"><path transform="scale(1,-1)" d="M68 -250v36c23 0 40 6 49 18c8 14 12 33 12 57v250l-82 -129l-27 13l107 255h128v-394c0 -24 5 -42 14 -53s25 -17 47 -17v-36h-248z"/></g><g id="E082-t1yxrfsh"><path transform="scale(1,-1)" d="M124 -185c-18 0 -55 -14 -65 -65h-36l-3 30c0 25 6 45 18 63c11 19 22 30 39 43l121 82l37 29c15 11 27 29 38 54c12 24 18 47 18 70c0 40 -19 88 -94 88c-25 0 -32 0 -50 -8c-14 -5 -23 -12 -26 -22c3 -9 7 -15 10 -18l24 -17c12 -7 17 -11 27 -21c5 -7 7 -16 7 -27 c0 -12 0 -57 -79 -74c-30 0 -76 26 -76 94c0 66 81 135 197 135c72 0 181 -32 181 -150c0 -53 -32 -95 -113 -133l-91 -41c-26 -11 -45 -23 -57 -37l49 7c84 0 115 -41 148 -41c20 0 33 20 39 61h35c0 -152 -68 -168 -114 -168c-17 0 -65 0 -79 7h10l-28 17 c-49 37 -69 40 -87 42z"/></g><g id="E088-t1yxrfsh"><path transform="scale(1,-1)" d="M195 -214c76 0 88 58 90 68c0 34 -35 60 -57 73l-52 29c-21 10 -32 17 -34 20c-39 -33 -58 -54 -62 -92c5 -23 23 -98 115 -98zM301 135c0 61 -72 76 -113 76c-40 0 -77 -17 -77 -51c3 -21 15 -38 26 -50c17 -15 33 -26 48 -34l65 -28c34 27 51 56 51 87zM176 -250 c-57 0 -166 26 -166 132c0 47 30 86 89 116c-33 15 -79 60 -79 119c0 79 85 132 178 132h18c5 0 21 1 28 -1c25 0 126 -30 126 -110c0 -37 -23 -76 -69 -116c43 -25 83 -71 83 -119c0 -101 -118 -153 -208 -153z"/></g><g id="E0A4-t1yxrfsh"><path transform="scale(1,-1)" d="M0 -39c0 68 73 172 200 172c66 0 114 -37 114 -95c0 -84 -106 -171 -218 -171c-64 0 -96 30 -96 94z"/></g><g id="E261-t1yxrfsh"><path transform="scale(1,-1)" d="M0 -188v539h18v-191l139 22v-533h-17v186zM18 -100l122 17v176l-122 -19v-174z"/></g></defs><style type="text/css">#t1yxrfsh g.page-margin {font-family:Times,serif;}#t1yxrfsh g.ending, #t1yxrfsh g.fing, #t1yxrfsh g.reh, #t1yxrfsh g.tempo {font-weight:bold;}#t1yxrfsh g.dir, #t1yxrfsh g.dynam, #t1yxrfsh g.mNum {font-style:italic;}#t1yxrfsh g.label {font-weight:normal;}#t1yxrfsh path {stroke:currentColor}</style><svg class="definition-scale" color="black" viewBox="0 0 14000 2100"><g class="page-margin" transform="translate(0, 150)"><g data-id="hyxe8ro" data-class="mdiv" class="mdiv pageMilestone"/><g data-id="i1nxqi4m" data-class="score" class="score pageMilestone"/><g data-id="szftxlb" data-class="system" class="system"><g data-id="k1u9mr28" data-class="section" class="section systemMilestone"/><g data-id="u1eeowg3" data-class="measure" class="measure"><g data-id="w2nz8hl" data-class="staff" class="staff"><path d="M0 540 L14000 540" stroke-width="13"/><path d="M0 720 L14000 720" stroke-width="13"/><path d="M0 900 L14000 900" stroke-width="13"/><path d="M0 1080 L14000 1080" stroke-width="13"/><path d="M0 1260 L14000 1260" stroke-width="13"/><g data-id="o1l72qqj" data-class="clef" class="clef"><use href="#E050-t1yxrfsh" transform="translate(90, 1080) scale(0.72, 0.72)"/></g><g data-id="pnjdr85" data-class="keySig" class="keySig"><g data-id="qhi9atz" data-class="keyAccid" class="keyAccid"><use href="#E262-t1yxrfsh" transform="translate(735, 540) scale(0.72, 0.72)"/></g></g><g data-id="r1s9x50u" data-class="meterSig" class="meterSig"><use href="#E081-t1yxrfsh" transform="translate(1042, 720) scale(0.72, 0.72)"/><use href="#E082-t1yxrfsh" transform="translate(1283, 720) scale(0.72, 0.72)"/><use href="#E088-t1yxrfsh" transform="translate(1177, 1080) scale(0.72, 0.72)"/></g><g data-id="xmsnzky" data-class="layer" class="layer"><g data-id="m2pahm9" data-class="beam" class="beam"><polygon stroke-opacity="1" fill-opacity="1" points="2313,315 4826,315 4826,405 2313,405"/><polygon stroke-opacity="1" fill-opacity="1" points="2313,450 2807,450 2807,540 2313,540"/><polygon stroke-opacity="1" fill-opacity="1" points="2807,450 3292,450 3292,540 2807,540"/><polygon stroke-opacity="1" fill-opacity="1" points="3292,450 3777,450 3777,540 3292,540"/><polygon stroke-opacity="1" fill-opacity="1" points="3777,450 4332,450 4332,540 3777,540"/><polygon stroke-opacity="1" fill-opacity="1" points="4332,450 4826,450 4826,540 4332,540"/><g data-id="msryoa2" data-class="note" class="note"><g data-class="notehead" class="notehead"><use href="#E0A4-t1yxrfsh" transform="translate(2105, 990) scale(0.72, 0.72)"/></g><g data-id="liikk9" data-class="stem" class="stem"><path d="M2322 962 L2322 333" stroke-width="18"/></g><g data-id="iigz7tc" data-class="accid" class="accid"><use href="#E262-t1yxrfsh" transform="translate(1919, 990) scale(0.72, 0.72)"/></g></g><g data-id="n1unnkg8" data-class="note" class="note"><g data-class="notehead" class="notehead"><use href="#E0A4-t1yxrfsh" transform="translate(2590, 900) scale(0.72, 0.72)"/></g><g data-id="mx61bx9" data-class="stem" class="stem"><path d="M2807 872 L2807 333" stroke-width="18"/></g></g><g data-id="o3a1gey" data-class="note" class="note"><g data-class="notehead" class="notehead"><use href="#E0A4-t1yxrfsh" transform="translate(3075, 990) scale(0.72, 0.72)"/></g><g data-id="naoo58e" data-class="stem" class="stem"><path d="M3292 962 L3292 333" stroke-width="18"/></g><g data-id="u4b38k5" data-class="accid" class="accid"/></g><g data-id="pm25b0" data-class="note" class="note"><g data-class="notehead" class="notehead"><use href="#E0A4-t1yxrfsh" transform="translate(3560, 900) scale(0.72, 0.72)"/></g><g data-id="oe2850d" data-class="stem" class="stem"><path d="M3777 872 L3777 333" stroke-width="18"/></g></g><g data-id="q1da6f28" data-class="note" class="note"><g data-class="notehead" class="notehead"><use href="#E0A4-t1yxrfsh" transform="translate(4115, 990) scale(0.72, 0.72)"/></g><g data-id="p1s83vbq" data-class="stem" class="stem"><path d="M4332 962 L4332 333" stroke-width="18"/></g><g data-id="jynfgd4" data-class="accid" class="accid"><use href="#E261-t1yxrfsh" transform="translate(3957, 990) scale(0.72, 0.72)"/></g></g><g data-id="rk17v36" data-class="note" class="note"><g data-class="notehead" class="notehead"><use href="#E0A4-t1yxrfsh" transform="translate(4600, 900) scale(0.72, 0.72)"/></g><g data-id="qj4c7ow" data-class="stem" class="stem"><path d="M4817 872 L4817 333" stroke-width="18"/></g></g></g><g data-id="n1jsr53y" data-class="beam" class="beam"><polygon stroke-opacity="1" fill-opacity="1" points="5293,315 7736,315 7736,405 5293,405"/><polygon stroke-opacity="1" fill-opacity="1" points="5293,450 5787,450 5787,540 5293,540"/><polygon stroke-opacity="1" fill-opacity="1" points="5787,450 6272,450 6272,540 5787,540"/><polygon stroke-opacity="1" fill-opacity="1" points="6272,450 6757,450 6757,540 6272,540"/><polygon stroke-opacity="1" fill-opacity="1" points="6757,450 7242,450 7242,540 6757,540"/><polygon stroke-opacity="1" fill-opacity="1" points="7242,450 7736,450 7736,540 7242,540"/><g data-id="s1cmbbqr" data-class="note" class="note"><g data-class="notehead" class="notehead"><use href="#E0A4-t1yxrfsh" transform="translate(5085, 1080) scale(0.72, 0.72)"/></g><g data-id="r1whjeqm" data-class="stem" class="stem"><path d="M5302 1052 L5302 333" stroke-width="18"/></g></g><g data-id="ty1gkrs" data-class="note" class="note"><g data-class="notehead" class="notehead"><use href="#E0A4-t1yxrfsh" transform="translate(5570, 900) scale(0.72, 0.72)"/></g><g data-id="sgrtelz" data-class="stem" class="stem"><path d="M5787 872 L5787 333" stroke-width="18"/></g></g><g data-id="u1oqni1e" data-class="note" class="note"><g data-class="notehead" class="notehead"><use href="#E0A4-t1yxrfsh" transform="translate(6055, 1170) scale(0.72, 0.72)"/></g><g data-id="t106xy19" data-class="stem" class="stem"><path d="M6272 1142 L6272 333" stroke-width="18"/></g><g data-id="v1u0edp1" data-class="accid" class="accid"/></g><g data-id="v1w3r7um" data-class="note" class="note"><g data-class="notehead" class="notehead"><use href="#E0A4-t1yxrfsh" transform="translate(6540, 900) scale(0.72, 0.72)"/></g><g data-id="u1eofaj1" data-class="stem" class="stem"><path d="M6757 872 L6757 333" stroke-width="18"/></g></g><g data-id="wdeblv7" data-class="note" class="note"><g data-class="notehead" class="notehead"><use href="#E0A4-t1yxrfsh" transform="translate(7025, 1260) scale(0.72, 0.72)"/></g><g data-id="v15llbcg" data-class="stem" class="stem"><path d="M7242 1232 L7242 333" stroke-width="18"/></g></g><g data-id="x1mnsg40" data-class="note" class="note"><g data-class="notehead" class="notehead"><use href="#E0A4-t1yxrfsh" transform="translate(7510, 900) scale(0.72, 0.72)"/></g><g data-id="wfhqvb7" data-class="stem" class="stem"><path d="M7727 872 L7727 333" stroke-width="18"/></g></g></g><g data-id="ofhsm4p" data-class="beam" class="beam"><polygon stroke-opacity="1" fill-opacity="1" points="8306,315 10819,315 10819,405 8306,405"/><polygon stroke-opacity="1" fill-opacity="1" points="8306,450 8800,450 8800,540 8306,540"/><polygon stroke-opacity="1" fill-opacity="1" points="8800,450 9285,450 9285,540 8800,540"/><polygon stroke-opacity="1" fill-opacity="1" points="9285,450 9770,450 9770,540 9285,540"/><polygon stroke-opacity="1" fill-opacity="1" points="9770,450 10325,450 10325,540 9770,540"/><polygon stroke-opacity="1" fill-opacity="1" points="10325,450 10819,450 10819,540 10325,540"/><g data-id="y1uncp55" data-class="note" class="note"><g data-class="notehead" class="notehead"><use href="#E0A4-t1yxrfsh" transform="translate(8098, 990) scale(0.72, 0.72)"/></g><g data-id="x1cg0kki" data-class="stem" class="stem"><path d="M8315 962 L8315 333" stroke-width="18"/></g><g data-id="knk7k0n" data-class="accid" class="accid"><use href="#E262-t1yxrfsh" transform="translate(7912, 990) scale(0.72, 0.72)"/></g></g><g data-id="zbpbkap" data-class="note" class="note"><g data-class="notehead" class="notehead"><use href="#E0A4-t1yxrfsh" transform="translate(8583, 900) scale(0.72, 0.72)"/></g><g data-id="y1utjd8n" data-class="stem" class="stem"><path d="M8800 872 L8800 333" stroke-width="18"/></g></g><g data-id="a1xrdmmw" data-class="note" class="note"><g data-class="notehead" class="notehead"><use href="#E0A4-t1yxrfsh" transform="translate(9068, 990) scale(0.72, 0.72)"/></g><g data-id="z13cc1rb" data-class="stem" class="stem"><path d="M9285 962 L9285 333" stroke-width="18"/></g><g data-id="w1mo2984" data-class="accid" class="accid"/></g><g data-id="bd9mnow" data-class="note" class="note"><g data-class="notehead" class="notehead"><use href="#E0A4-t1yxrfsh" transform="translate(9553, 900) scale(0.72, 0.72)"/></g><g data-id="axhrqul" data-class="stem" class="stem"><path d="M9770 872 L9770 333" stroke-width="18"/></g></g><g data-id="c1blm2o8" data-class="note" class="note"><g data-class="notehead" class="notehead"><use href="#E0A4-t1yxrfsh" transform="translate(10108, 990) scale(0.72, 0.72)"/></g><g data-id="b7xkbin" data-class="stem" class="stem"><path d="M10325 962 L10325 333" stroke-width="18"/></g><g data-id="l1v9gg88" data-class="accid" class="accid"><use href="#E261-t1yxrfsh" transform="translate(9950, 990) scale(0.72, 0.72)"/></g></g><g data-id="druqnel" data-class="note" class="note"><g data-class="notehead" class="notehead"><use href="#E0A4-t1yxrfsh" transform="translate(10593, 900) scale(0.72, 0.72)"/></g><g data-id="cwkkcrh" data-class="stem" class="stem"><path d="M10810 872 L10810 333" stroke-width="18"/></g></g></g><g data-id="p1u24daq" data-class="beam" class="beam"><polygon stroke-opacity="1" fill-opacity="1" points="11286,315 13729,315 13729,405 11286,405"/><polygon stroke-opacity="1" fill-opacity="1" points="11286,450 11780,450 11780,540 11286,540"/><polygon stroke-opacity="1" fill-opacity="1" points="11780,450 12265,450 12265,540 11780,540"/><polygon stroke-opacity="1" fill-opacity="1" points="12265,450 12750,450 12750,540 12265,540"/><polygon stroke-opacity="1" fill-opacity="1" points="12750,450 13235,450 13235,540 12750,540"/><polygon stroke-opacity="1" fill-opacity="1" points="13235,450 13729,450 13729,540 13235,540"/><g data-id="e19nt5rk" data-class="note" class="note"><g data-class="notehead" class="notehead"><use href="#E0A4-t1yxrfsh" transform="translate(11078, 1080) scale(0.72, 0.72)"/></g><g data-id="d16kj4zv" data-class="stem" class="stem"><path d="M11295 1052 L11295 333" stroke-width="18"/></g></g><g data-id="ft2ymaf" data-class="note" class="note"><g data-class="notehead" class="notehead"><use href="#E0A4-t1yxrfsh" transform="translate(11563, 900) scale(0.72, 0.72)"/></g><g data-id="e1pbkevx" data-class="stem" class="stem"><path d="M11780 872 L11780 333" stroke-width="18"/></g></g><g data-id="gjguwrm" data-class="note" class="note"><g data-class="notehead" class="notehead"><use href="#E0A4-t1yxrfsh" transform="translate(12048, 1170) scale(0.72, 0.72)"/></g><g data-id="f1yqgou8" data-class="stem" class="stem"><path d="M12265 1142 L12265 333" stroke-width="18"/></g><g data-id="xulds8g" data-class="accid" class="accid"/></g><g data-id="h1rv4emj" data-class="note" class="note"><g data-class="notehead" class="notehead"><use href="#E0A4-t1yxrfsh" transform="translate(12533, 900) scale(0.72, 0.72)"/></g><g data-id="g18b7ce0" data-class="stem" class="stem"><path d="M12750 872 L12750 333" stroke-width="18"/></g></g><g data-id="i17coglg" data-class="note" class="note"><g data-class="notehead" class="notehead"><use href="#E0A4-t1yxrfsh" transform="translate(13018, 1260) scale(0.72, 0.72)"/></g><g data-id="hjrl57s" data-class="stem" class="stem"><path d="M13235 1232 L13235 333" stroke-width="18"/></g></g><g data-id="j17cekqy" data-class="note" class="note"><g data-class="notehead" class="notehead"><use href="#E0A4-t1yxrfsh" transform="translate(13503, 900) scale(0.72, 0.72)"/></g><g data-id="i1mddp02" data-class="stem" class="stem"><path d="M13720 872 L13720 333" stroke-width="18"/></g></g></g></g></g><g data-id="crj8x22" data-class="barLine" class="barLine"><path d="M13987 540 L13987 1260" stroke-width="27"/></g></g></g></g></svg></svg>