<svg viewBox="0 0 560 84" version="1.1" xmlns="http://www.w3.org/2000/svg" xmlns:xlink="http://www.w3.org/1999/xlink" overflow="visible" id="g779es9"><desc>Engraved by Verovio 5.6.0-85e7620</desc><defs><g id="E050-g779es9"><path transform="scale(1,-1)" d="M441 -245c-23 -4 -48 -6 -76 -6c-59 0 -102 7 -130 20c-88 42 -150 93 -187 154c-26 44 -43 103 -48 176c0 6 -1 13 -1 19c0 54 15 111 45 170c29 57 65 106 110 148s96 85 153 127c-3 16 -8 46 -13 92c-4 43 -5 73 -5 89c0 117 16 172 69 257c34 54 64 82 89 82 c21 0 43 -30 69 -92s39 -115 41 -159v-15c0 -109 -21 -162 -67 -241c-13 -20 -63 -90 -98 -118c-13 -9 -25 -19 -37 -29l31 -181c8 1 18 2 28 2c58 0 102 -12 133 -35c59 -43 92 -104 98 -184c1 -7 1 -15 1 -22c0 -123 -87 -209 -181 -248c8 -57 17 -110 25 -162 c5 -31 6 -58 6 -80c0 -30 -5 -53 -14 -70c-35 -64 -88 -99 -158 -103c-5 0 -11 -1 -16 -1c-37 0 -72 10 -108 27c-50 24 -77 59 -80 105v11c0 29 7 55 20 76c18 28 45 42 79 44h6c49 0 93 -42 97 -87v-9c0 -51 -34 -86 -105 -106c17 -24 51 -36 102 -36c62 0 116 43 140 85 c9 16 13 41 13 74c0 20 -1 42 -5 67c-8 53 -18 106 -26 159zM461 939c-95 0 -135 -175 -135 -286c0 -24 2 -48 5 -71c50 39 92 82 127 128c40 53 60 100 60 140v8c-4 53 -22 81 -55 81h-2zM406 119l54 -326c73 25 110 78 110 161c0 7 0 15 -1 23c-7 95 -57 142 -151 142h-12 zM382 117c-72 -2 -128 -47 -128 -120v-7c2 -46 43 -99 75 -115c-3 -2 -7 -5 -10 -10c-70 33 -116 88 -123 172v11c0 68 44 126 88 159c23 17 49 29 78 36l-29 170c-21 -13 -52 -37 -92 -73c-50 -44 -86 -84 -109 -119c-45 -69 -67 -130 -67 -182v-13c5 -68 35 -127 93 -176 s125 -73 203 -73c25 0 50 3 75 9c-19 111 -36 221 -54 331z"/></g><g id="E262-g779es9"><path transform="scale(1,-1)" d="M136 186v169h17v-164l44 14v-91l-44 -14v-165l44 12v-91l-44 -13v-155h-17v150l-76 -22v-155h-17v149l-43 -13v90l43 14v167l-43 -14v92l43 13v169h17v-163zM60 73v-167l76 22v168z"/></g><g id="E082-g779es9"><path transform="scale(1,-1)" d="M124 -185c-18 0 -55 -14 -65 -65h-36l-3 30c0 25 6 45 18 63c11 19 22 30 39 43l121 82l37 29c15 11 27 29 38 54c12 24 18 47 18 70c0 40 -19 88 -94 88c-25 0 -32 0 -50 -8c-14 -5 -23 -12 -26 -22c3 -9 7 -15 10 -18l24 -17c12 -7 17 -11 27 -21c5 -7 7 -16 7 -27 c0 -12 0 -57 -79 -74c-30 0 -76 26 -76 94c0 66 81 135 197 135c72 0 181 -32 181 -150c0 -53 -32 -95 -113 -133l-91 -41c-26 -11 -45 -23 -57 -37l49 7c84 0 115 -41 148 -41c20 0 33 20 39 61h35c0 -152 -68 -168 -114 -168c-17 0 -65 0 -79 7h10l-28 17 c-49 37 -69 40 -87 42z"/></g><g id="E084-g779es9"><path transform="scale(1,-1)" d="M20 -78c84 97 114 180 134 329h170c-13 -32 -82 -132 -99 -151l-84 -97c-33 -36 -59 -63 -80 -81h162v102l127 123v-225h57v-39h-57v-34c0 -43 19 -65 57 -65v-34h-244v36c48 0 60 26 60 70v27h-203v39z"/></g><g id="E0A4-g779es9"><path transform="scale(1,-1)" d="M0 -39c0 68 73 172 200 172c66 0 114 -37 114 -95c0 -84 -106 -171 -218 -171c-64 0 -96 30 -96 94z"/></g><g id="E241-g779es9"><path transform="scale(1,-1)" d="M179 646c-4 8 -17 30 -18 33l-4 10c0 3 2 5 5 5s7 -2 13 -7c23 -33 46 -81 66 -132c22 -57 35 -125 35 -163c0 -104 -60 -183 -122 -241c-63 -59 -57 -53 -61 -56c-38 -34 -63 -95 -71 -95h-22v190c40 7 69 11 87 16c88 27 168 95 168 200c0 30 -12 89 -30 138 c-17 47 -31 73 -46 102z"/></g><g id="E240-g779es9"><path transform="scale(1,-1)" d="M179 -646c15 29 29 55 46 102c18 49 30 108 30 138c0 105 -80 173 -168 200c-18 5 -47 9 -87 16v190h22c8 0 33 -61 71 -95c4 -3 -2 3 61 -56c62 -58 122 -137 122 -241c0 -38 -13 -106 -35 -163c-20 -51 -43 -99 -66 -132c-6 -5 -10 -7 -13 -7s-5 2 -5 5l4 10 c1 3 14 25 18 33z"/></g></defs><style type="text/css">#g779es9 g.page-margin {font-family:Times,serif;}#g779es9 g.ending, #g779es9 g.fing, #g779es9 g.reh, #g779es9 g.tempo {font-weight:bold;}#g779es9 g.dir, #g779es9 g.dynam, #g779es9 g.mNum {font-style:italic;}#g779es9 g.label {font-weight:normal;}#g779es9 path {stroke:currentColor}</style><svg class="definition-scale" color="black" viewBox="0 0 14000 2100"><g class="page-margin" transform="translate(0, 150)"><g data-id="so3e6ur" data-class="mdiv" class="mdiv pageMilestone"/><g data-id="tewh78y" data-class="score" class="score pageMilestone"/><g data-id="q1jn55ac" data-class="system" class="system"><g data-id="v12rmuk0" data-class="section" class="section systemMilestone"/><g data-id="h1gb0ln8" data-class="measure" class="measure"><g data-id="hx11qg6" data-class="staff" class="staff"><path d="M0 540 L2491 540" stroke-width="13"/><path d="M0 720 L2491 720" stroke-width="13"/><path d="M0 900 L2491 900" stroke-width="13"/><path d="M0 1080 L2491 1080" stroke-width="13"/><path d="M0 1260 L2491 1260" stroke-width="13"/><g data-id="mm46ty4" data-class="clef" class="clef"><use href="#E050-g779es9" transform="translate(90, 1080) scale(0.72, 0.72)"/></g><g data-id="n17rwdfz" data-class="keySig" class="keySig"><g data-id="o5vi7g0" data-class="keyAccid" class="keyAccid"><use href="#E262-g779es9" transform="translate(735, 540) scale(0.72, 0.72)"/></g></g><g data-id="p1l1qflq" data-class="meterSig" class="meterSig"><use href="#E082-g779es9" transform="translate(1042, 720) scale(0.72, 0.72)"/><use href="#E084-g779es9" transform="translate(1047, 1080) scale(0.72, 0.72)"/></g><g data-id="i1hp9xsx" data-class="layer" class="layer"><g data-id="s1tu69f1" data-class="note" class="note"><g data-class="notehead" class="notehead"><use href="#E0A4-g779es9" transform="translate(1631, 720) scale(0.72, 0.72)"/></g><g data-id="gv3jrtz" data-class="stem" class="stem"><path d="M1640 748 L1640 1350" stroke-width="18"/></g></g></g></g><g data-id="pwyafhf" data-class="barLine" class="barLine"><path d="M2478 540 L2478 1260" stroke-width="27"/></g></g><g data-id="q9of6we" data-class="measure" class="measure"><g data-id="j14kmd5z" data-class="staff" class="staff"><path d="M2491 540 L4907 540" stroke-width="13"/><path d="M2491 720 L4907 720" stroke-width="13"/><path d="M2491 900 L4907 900" stroke-width="13"/><path d="M2491 1080 L4907 1080" stroke-width="13"/><path d="M2491 1260 L4907 1260" stroke-width="13"/><g data-id="k1gmqp5x" data-class="layer" class="layer"><g data-id="tfkbxp3" data-class="note" class="note"><g data-class="notehead" class="notehead"><use href="#E0A4-g779es9" transform="translate(2687, 900) scale(0.72, 0.72)"/></g><g data-id="h1wuzgml" data-class="stem" class="stem"><path d="M2696 928 L2696 1500" stroke-width="18"/><g data-id="ixg171c" data-class="flag" class="flag"><use href="#E241-g779es9" transform="translate(2687, 1500) scale(0.72, 0.72)"/></g></g></g><g data-id="u2hhuo5" data-class="note" class="note"><g data-class="notehead" class="notehead"><use href="#E0A4-g779es9" transform="translate(3239, 990) scale(0.72, 0.72)"/></g><g data-id="j110q0pa" data-class="stem" class="stem"><path d="M3456 962 L3456 360" stroke-width="18"/><g data-id="kspvfis" data-class="flag" class="flag"><use href="#E240-g779es9" transform="translate(3447, 360) scale(0.72, 0.72)"/></g></g></g><g data-id="v13nmcxg" data-class="note" class="note"><g data-class="notehead" class="notehead"><use href="#E0A4-g779es9" transform="translate(3791, 900) scale(0.72, 0.72)"/></g><g data-id="l8rn6a6" data-class="stem" class="stem"><path d="M3800 928 L3800 1500" stroke-width="18"/><g data-id="mjzgv5b" data-class="flag" class="flag"><use href="#E241-g779es9" transform="translate(3791, 1500) scale(0.72, 0.72)"/></g></g></g><g data-id="w1fsgzy7" data-class="note" class="note"><g data-class="notehead" class="notehead"><use href="#E0A4-g779es9" transform="translate(4342, 810) scale(0.72, 0.72)"/></g><g data-id="n1hwidw5" data-class="stem" class="stem"><path d="M4351 838 L4351 1440" stroke-width="18"/><g data-id="o191983t" data-class="flag" class="flag"><use href="#E241-g779es9" transform="translate(4342, 1440) scale(0.72, 0.72)"/></g></g></g></g></g><g data-id="yh6by1d" data-class="barLine" class="barLine"><path d="M4894 540 L4894 1260" stroke-width="27"/></g></g><g data-id="zr1bxm" data-class="measure" class="measure"><g data-id="l1o9ep4c" data-class="staff" class="staff"><path d="M4907 540 L7323 540" stroke-width="13"/><path d="M4907 720 L7323 720" stroke-width="13"/><path d="M4907 900 L7323 900" stroke-width="13"/><path d="M4907 1080 L7323 1080" stroke-width="13"/><path d="M4907 1260 L7323 1260" stroke-width="13"/><g data-id="m13cmoxy" data-class="layer" class="layer"><g data-id="xygg9vu" data-class="note" class="note"><g data-class="notehead" class="notehead"><use href="#E0A4-g779es9" transform="translate(5103, 720) scale(0.72, 0.72)"/></g><g data-id="p3ckqq3" data-class="stem" class="stem"><path d="M5112 748 L5112 1350" stroke-width="18"/><g data-id="qdtq6wl" data-class="flag" class="flag"><use href="#E241-g779es9" transform="translate(5103, 1350) scale(0.72, 0.72)"/></g></g></g><g data-id="y1bus1bu" data-class="note" class="note"><g data-class="notehead" class="notehead"><use href="#E0A4-g779es9" transform="translate(5655, 450) scale(0.72, 0.72)"/></g><g data-id="r1pdfl2m" data-class="stem" class="stem"><path d="M5664 478 L5664 1080" stroke-width="18"/><g data-id="s1s2oe2d" data-class="flag" class="flag"><use href="#E241-g779es9" transform="translate(5655, 1080) scale(0.72, 0.72)"/></g></g></g><g data-id="z142m7x2" data-class="note" class="note"><g data-class="notehead" class="notehead"><use href="#E0A4-g779es9" transform="translate(6207, 540) scale(0.72, 0.72)"/></g><g data-id="t6vqmnh" data-class="stem" class="stem"><path d="M6216 568 L6216 1170" stroke-width="18"/><g data-id="u1o97rv1" data-class="flag" class="flag"><use href="#E241-g779es9" transform="translate(6207, 1170) scale(0.72, 0.72)"/></g></g><g data-id="pn74u5v" data-class="accid" class="accid"/></g><g data-id="aa2zfna" data-class="note" class="note"><g data-class="notehead" class="notehead"><use href="#E0A4-g779es9" transform="translate(6758, 630) scale(0.72, 0.72)"/></g><g data-id="v16psrg5" data-class="stem" class="stem"><path d="M6767 658 L6767 1260" stroke-width="18"/><g data-id="w6hee0s" data-class="flag" class="flag"><use href="#E241-g779es9" transform="translate(6758, 1260) scale(0.72, 0.72)"/></g></g></g></g></g><g data-id="h1bm1f2v" data-class="barLine" class="barLine"><path d="M7310 540 L7310 1260" stroke-width="27"/></g></g><g data-id="i1d1bngj" data-class="measure" class="measure"><g data-id="n1lujs01" data-class="staff" class="staff"><path d="M7323 540 L9742 540" stroke-width="13"/><path d="M7323 720 L9742 720" stroke-width="13"/><path d="M7323 900 L9742 900" stroke-width="13"/><path d="M7323 1080 L9742 1080" stroke-width="13"/><path d="M7323 1260 L9742 1260" stroke-width="13"/><g data-id="ossaymk" data-class="layer" class="layer"><g data-id="b9auqr1" data-class="note" class="note"><g data-class="notehead" class="notehead"><use href="#E0A4-g779es9" transform="translate(7519, 720) scale(0.72, 0.72)"/></g><g data-id="xds2jk7" data-class="stem" class="stem"><path d="M7528 748 L7528 1350" stroke-width="18"/><g data-id="y1k7zef0" data-class="flag" class="flag"><use href="#E241-g779es9" transform="translate(7519, 1350) scale(0.72, 0.72)"/></g></g></g><g data-id="c1x4uii5" data-class="note" class="note"><g data-class="notehead" class="notehead"><use href="#E0A4-g779es9" transform="translate(8071, 900) scale(0.72, 0.72)"/></g><g data-id="z3lk2q4" data-class="stem" class="stem"><path d="M8080 928 L8080 1500" stroke-width="18"/><g data-id="ao7e3rz" data-class="flag" class="flag"><use href="#E241-g779es9" transform="translate(8071, 1500) scale(0.72, 0.72)"/></g></g></g><g data-id="d1ni2rua" data-class="note" class="note"><g data-class="notehead" class="notehead"><use href="#E0A4-g779es9" transform="translate(8623, 810) scale(0.72, 0.72)"/></g><g data-id="b151rhb8" data-class="stem" class="stem"><path d="M8632 838 L8632 1440" stroke-width="18"/><g data-id="c1wzhsqr" data-class="flag" class="flag"><use href="#E241-g779es9" transform="translate(8623, 1440) scale(0.72, 0.72)"/></g></g></g><g data-id="e59srzy" data-class="note" class="note"><g data-class="notehead" class="notehead"><use href="#E0A4-g779es9" transform="translate(9174, 990) scale(0.72, 0.72)"/></g><g data-id="d16v9705" data-class="stem" class="stem"><path d="M9391 962 L9391 360" stroke-width="18"/><g data-id="e1i9icam" data-class="flag" class="flag"><use href="#E240-g779es9" transform="translate(9382, 360) scale(0.72, 0.72)"/></g></g></g></g></g><g data-id="qza3sgs" data-class="barLine" class="barLine"><path d="M9729 540 L9729 1260" stroke-width="27"/></g></g><g data-id="r2c0cu8" data-class="measure" class="measure"><g data-id="p1kc89lc" data-class="staff" class="staff"><path d="M9742 540 L11587 540" stroke-width="13"/><path d="M9742 720 L11587 720" stroke-width="13"/><path d="M9742 900 L11587 900" stroke-width="13"/><path d="M9742 1080 L11587 1080" stroke-width="13"/><path d="M9742 1260 L11587 1260" stroke-width="13"/><g data-id="qteuu38" data-class="layer" class="layer"><g data-id="f1nws53h" data-class="note" class="note"><g data-class="notehead" class="notehead"><use href="#E0A4-g779es9" transform="translate(9938, 720) scale(0.72, 0.72)"/></g><g data-id="g16l74fx" data-class="dots" class="dots"><ellipse cx="10254" cy="630" rx="36" ry="36" fill-opacity="1" stroke-opacity="1"/></g><g data-id="ff6w2n3" data-class="stem" class="stem"><path d="M9947 748 L9947 1350" stroke-width="18"/></g></g><g data-id="gjzd3et" data-class="note" class="note"><g data-class="notehead" class="notehead"><use href="#E0A4-g779es9" transform="translate(11019, 990) scale(0.72, 0.72)"/></g><g data-id="h1k7dwj4" data-class="stem" class="stem"><path d="M11236 962 L11236 360" stroke-width="18"/><g data-id="i1ce8pbh" data-class="flag" class="flag"><use href="#E240-g779es9" transform="translate(11227, 360) scale(0.72, 0.72)"/></g></g></g></g></g><g data-id="z2b0nqt" data-class="barLine" class="barLine"><path d="M11574 540 L11574 1260" stroke-width="27"/></g></g><g data-id="a1ek8hme" data-class="measure" class="measure"><g data-id="rk66j84" data-class="staff" class="staff"><path d="M11587 540 L14003 540" stroke-width="13"/><path d="M11587 720 L14003 720" stroke-width="13"/><path d="M11587 900 L14003 900" stroke-width="13"/><path d="M11587 1080 L14003 1080" stroke-width="13"/><path d="M11587 1260 L14003 1260" stroke-width="13"/><g data-id="shzzt33" data-class="layer" class="layer"><g data-id="hj0ngjd" data-class="note" class="note"><g data-class="notehead" class="notehead"><use href="#E0A4-g779es9" transform="translate(11783, 900) scale(0.72, 0.72)"/></g><g data-id="jh5c7gj" data-class="stem" class="stem"><path d="M11792 928 L11792 1500" stroke-width="18"/><g data-id="k6fbld5" data-class="flag" class="flag"><use href="#E241-g779es9" transform="translate(11783, 1500) scale(0.72, 0.72)"/></g></g></g><g data-id="ifrjvmm" data-class="note" class="note"><g data-class="notehead" class="notehead"><use href="#E0A4-g779es9" transform="translate(12335, 990) scale(0.72, 0.72)"/></g><g data-id="l1gntlcw" data-class="stem" class="stem"><path d="M12552 962 L12552 360" stroke-width="18"/><g data-id="mhjj9kd" data-class="flag" class="flag"><use href="#E240-g779es9" transform="translate(12543, 360) scale(0.72, 0.72)"/></g></g></g><g data-id="j1rb32oz" data-class="note" class="note"><g data-class="notehead" class="notehead"><use href="#E0A4-g779es9" transform="translate(12887, 900) scale(0.72, 0.72)"/></g><g data-id="n35xzf8" data-class="stem" class="stem"><path d="M12896 928 L12896 1500" stroke-width="18"/><g data-id="o1nqfcnj" data-class="flag" class="flag"><use href="#E241-g779es9" transform="translate(12887, 1500) scale(0.72, 0.72)"/></g></g></g><g data-id="k1m11yxm" data-class="note" class="note"><g data-class="notehead" class="notehead"><use href="#E0A4-g779es9" transform="translate(13438, 810) scale(0.72, 0.72)"/></g><g data-id="p11j9ae1" data-class="stem" class="stem"><path d="M13447 838 L13447 1440" stroke-width="18"/><g data-id="q1944cip" data-class="flag" class="flag"><use href="#E241-g779es9" transform="translate(13438, 1440) scale(0.72, 0.72)"/></g></g></g></g></g><g data-id="i4wnoa0" data-class="barLine" class="barLine"><path d="M13990 540 L13990 1260" stroke-width="27"/></g></g></g></g></svg></svg>