<svg viewBox="0 0 560 84" version="1.1" xmlns="http://www.w3.org/2000/svg" xmlns:xlink="http://www.w3.org/1999/xlink" overflow="visible" id="by6t10k"><desc>Engraved by Verovio 5.6.0-85e7620</desc><defs><g id="E050-by6t10k"><path transform="scale(1,-1)" d="M441 -245c-23 -4 -48 -6 -76 -6c-59 0 -102 7 -130 20c-88 42 -150 93 -187 154c-26 44 -43 103 -48 176c0 6 -1 13 -1 19c0 54 15 111 45 170c29 57 65 106 110 148s96 85 153 127c-3 16 -8 46 -13 92c-4 43 -5 73 -5 89c0 117 16 172 69 257c34 54 64 82 89 82 c21 0 43 -30 69 -92s39 -115 41 -159v-15c0 -109 -21 -162 -67 -241c-13 -20 -63 -90 -98 -118c-13 -9 -25 -19 -37 -29l31 -181c8 1 18 2 28 2c58 0 102 -12 133 -35c59 -43 92 -104 98 -184c1 -7 1 -15 1 -22c0 -123 -87 -209 -181 -248c8 -57 17 -110 25 -162 c5 -31 6 -58 6 -80c0 -30 -5 -53 -14 -70c-35 -64 -88 -99 -158 -103c-5 0 -11 -1 -16 -1c-37 0 -72 10 -108 27c-50 24 -77 59 -80 105v11c0 29 7 55 20 76c18 28 45 42 79 44h6c49 0 93 -42 97 -87v-9c0 -51 -34 -86 -105 -106c17 -24 51 -36 102 -36c62 0 116 43 140 85 c9 16 13 41 13 74c0 20 -1 42 -5 67c-8 53 -18 106 -26 159zM461 939c-95 0 -135 -175 -135 -286c0 -24 2 -48 5 -71c50 39 92 82 127 128c40 53 60 100 60 140v8c-4 53 -22 81 -55 81h-2zM406 119l54 -326c73 25 110 78 110 161c0 7 0 15 -1 23c-7 95 -57 142 -151 142h-12 zM382 117c-72 -2 -128 -47 -128 -120v-7c2 -46 43 -99 75 -115c-3 -2 -7 -5 -10 -10c-70 33 -116 88 -123 172v11c0 68 44 126 88 159c23 17 49 29 78 36l-29 170c-21 -13 -52 -37 -92 -73c-50 -44 -86 -84 -109 -119c-45 -69 -67 -130 -67 -182v-13c5 -68 35 -127 93 -176 s125 -73 203 -73c25 0 50 3 75 9c-19 111 -36 221 -54 331z"/></g><g id="E260-by6t10k"><path transform="scale(1,-1)" d="M20 110c32 16 54 27 93 27c26 0 35 -3 54 -13c13 -7 24 -20 27 -38l4 -25c0 -28 -16 -57 -45 -89c-23 -25 -39 -44 -65 -68l-88 -79v644h20v-359zM90 106c-32 0 -48 -10 -70 -29v-194c31 31 54 59 71 84c21 32 32 59 32 84c0 9 1 16 1 20c0 14 -3 21 -11 30l-8 3z"/></g><g id="E082-by6t10k"><path transform="scale(1,-1)" d="M124 -185c-18 0 -55 -14 -65 -65h-36l-3 30c0 25 6 45 18 63c11 19 22 30 39 43l121 82l37 29c15 11 27 29 38 54c12 24 18 47 18 70c0 40 -19 88 -94 88c-25 0 -32 0 -50 -8c-14 -5 -23 -12 -26 -22c3 -9 7 -15 10 -18l24 -17c12 -7 17 -11 27 -21c5 -7 7 -16 7 -27 c0 -12 0 -57 -79 -74c-30 0 -76 26 -76 94c0 66 81 135 197 135c72 0 181 -32 181 -150c0 -53 -32 -95 -113 -133l-91 -41c-26 -11 -45 -23 -57 -37l49 7c84 0 115 -41 148 -41c20 0 33 20 39 61h35c0 -152 -68 -168 -114 -168c-17 0 -65 0 -79 7h10l-28 17 c-49 37 -69 40 -87 42z"/></g><g id="E084-by6t10k"><path transform="scale(1,-1)" d="M20 -78c84 97 114 180 134 329h170c-13 -32 -82 -132 -99 -151l-84 -97c-33 -36 -59 -63 -80 -81h162v102l127 123v-225h57v-39h-57v-34c0 -43 19 -65 57 -65v-34h-244v36c48 0 60 26 60 70v27h-203v39z"/></g><g id="E0A4-by6t10k"><path transform="scale(1,-1)" d="M0 -39c0 68 73 172 200 172c66 0 114 -37 114 -95c0 -84 -106 -171 -218 -171c-64 0 -96 30 -96 94z"/></g><g id="E240-by6t10k"><path transform="scale(1,-1)" d="M179 -646c15 29 29 55 46 102c18 49 30 108 30 138c0 105 -80 173 -168 200c-18 5 -47 9 -87 16v190h22c8 0 33 -61 71 -95c4 -3 -2 3 61 -56c62 -58 122 -137 122 -241c0 -38 -13 -106 -35 -163c-20 -51 -43 -99 -66 -132c-6 -5 -10 -7 -13 -7s-5 2 -5 5l4 10 c1 3 14 25 18 33z"/></g><g id="E044-by6t10k"><path transform="scale(1,-1)" d="M0 0c0 28 22 50 50 50s50 -22 50 -50s-22 -50 -50 -50s-50 22 -50 50z"/></g></defs><style type="text/css">#by6t10k g.page-margin {font-family:Times,serif;}#by6t10k g.ending, #by6t10k g.fing, #by6t10k g.reh, #by6t10k g.tempo {font-weight:bold;}#by6t10k g.dir, #by6t10k g.dynam, #by6t10k g.mNum {font-style:italic;}#by6t10k g.label {font-weight:normal;}#by6t10k path {stroke:currentColor}</style><svg class="definition-scale" color="black" viewBox="0 0 14000 2100"><g class="page-margin" transform="translate(0, 150)"><g data-id="urq5cff" data-class="mdiv" class="mdiv pageMilestone"/><g data-id="v181qsql" data-class="score" class="score pageMilestone"/><g data-id="zc3ymwi" data-class="system" class="system"><g data-id="x1mfuehp" data-class="section" class="section systemMilestone"/><g data-id="chbhsww" data-class="measure" class="measure"><g data-id="jwxste1" data-class="staff" class="staff"><path d="M0 540 L2679 540" stroke-width="13"/><path d="M0 720 L2679 720" stroke-width="13"/><path d="M0 900 L2679 900" stroke-width="13"/><path d="M0 1080 L2679 1080" stroke-width="13"/><path d="M0 1260 L2679 1260" stroke-width="13"/><g data-id="d1q5dw5b" data-class="clef" class="clef"><use href="#E050-by6t10k" transform="translate(90, 1080) scale(0.72, 0.72)"/></g><g data-id="ewaow83" data-class="keySig" class="keySig"><g data-id="f1ky49me" data-class="keyAccid" class="keyAccid"><use href="#E260-by6t10k" transform="translate(735, 900) scale(0.72, 0.72)"/></g><g data-id="guk36xp" data-class="keyAccid" class="keyAccid"><use href="#E260-by6t10k" transform="translate(915, 630) scale(0.72, 0.72)"/></g><g data-id="h1omnkji" data-class="keyAccid" class="keyAccid"><use href="#E260-by6t10k" transform="translate(1095, 990) scale(0.72, 0.72)"/></g><g data-id="i1j4m31m" data-class="keyAccid" class="keyAccid"><use href="#E260-by6t10k" transform="translate(1275, 720) scale(0.72, 0.72)"/></g></g><g data-id="jot6vvu" data-class="meterSig" class="meterSig"><use href="#E082-by6t10k" transform="translate(1583, 720) scale(0.72, 0.72)"/><use href="#E084-by6t10k" transform="translate(1588, 1080) scale(0.72, 0.72)"/></g><g data-class="ledgerLines" class="ledgerLines below"><g data-class="lineDash" class="lineDash" data-related="#vlaf3gj"><path d="M2108 1440 L2430 1440" stroke-width="22"/></g></g><g data-id="kbbi94r" data-class="layer" class="layer"><g data-id="vlaf3gj" data-class="note" class="note"><g data-class="notehead" class="notehead"><use href="#E0A4-by6t10k" transform="translate(2156, 1440) scale(0.72, 0.72)"/></g><g data-id="h1ym4scm" data-class="stem" class="stem"><path d="M2373 1412 L2373 810" stroke-width="18"/><g data-id="i45wo9s" data-class="flag" class="flag"><use href="#E240-by6t10k" transform="translate(2364, 810) scale(0.72, 0.72)"/></g></g></g></g></g><g data-id="k1omdwji" data-class="barLine" class="barLine"><path d="M2666 540 L2666 1260" stroke-width="27"/></g></g><g data-id="l1egavhr" data-class="measure" class="measure"><g data-id="l1ddhdkl" data-class="staff" class="staff"><path d="M2679 540 L5134 540" stroke-width="13"/><path d="M2679 720 L5134 720" stroke-width="13"/><path d="M2679 900 L5134 900" stroke-width="13"/><path d="M2679 1080 L5134 1080" stroke-width="13"/><path d="M2679 1260 L5134 1260" stroke-width="13"/><g data-id="mfug1az" data-class="layer" class="layer"><g data-id="k1vglb1y" data-class="beam" class="beam"><polygon stroke-opacity="1" fill-opacity="1" points="2859,1530 3327,1575 3327,1485 2859,1440"/><g data-id="wz1ey69" data-class="note" class="note"><g data-class="notehead" class="notehead"><use href="#E0A4-by6t10k" transform="translate(2859, 810) scale(0.72, 0.72)"/></g><g data-id="j1bybcb5" data-class="stem" class="stem"><path d="M2868 838 L2868 1512" stroke-width="18"/></g></g><g data-id="x12au2ls" data-class="note" class="note"><g data-class="notehead" class="notehead"><use href="#E0A4-by6t10k" transform="translate(3309, 990) scale(0.72, 0.72)"/></g><g data-id="k1jb8gdo" data-class="stem" class="stem"><path d="M3318 1018 L3318 1557" stroke-width="18"/></g><g data-id="p1t9nspm" data-class="accid" class="accid"/></g></g><g data-id="l1w8q7cv" data-class="beam" class="beam"><polygon stroke-opacity="1" fill-opacity="1" points="3967,360 4751,360 4751,450 3967,450"/><polygon stroke-opacity="1" fill-opacity="1" points="4426,495 4751,495 4751,585 4426,585"/><g data-id="y1ke58hv" data-class="note" class="note"><g data-class="notehead" class="notehead"><use href="#E0A4-by6t10k" transform="translate(3759, 1080) scale(0.72, 0.72)"/></g><g data-id="lz7rw88" data-class="stem" class="stem"><path d="M3976 1052 L3976 378" stroke-width="18"/></g></g><g data-id="z5r9i5w" data-class="note" class="note"><g data-class="notehead" class="notehead"><use href="#E0A4-by6t10k" transform="translate(4209, 990) scale(0.72, 0.72)"/></g><g data-id="mffif61" data-class="stem" class="stem"><path d="M4426 962 L4426 378" stroke-width="18"/></g><g data-id="q1e0f9h4" data-class="accid" class="accid"/></g><g data-id="a1wfm3nj" data-class="note" class="note"><g data-class="notehead" class="notehead"><use href="#E0A4-by6t10k" transform="translate(4525, 1080) scale(0.72, 0.72)"/></g><g data-id="n1wdnc0c" data-class="stem" class="stem"><path d="M4742 1052 L4742 378" stroke-width="18"/></g></g></g></g></g><g data-id="t2ls0is" data-class="barLine" class="barLine"><path d="M4886 540 L4886 1260" stroke-width="90"/><path d="M5016 540 L5016 1260" stroke-width="27"/><use href="#E044-by6t10k" transform="translate(5062, 810) scale(0.72, 0.72)"/><use href="#E044-by6t10k" transform="translate(5062, 990) scale(0.72, 0.72)"/></g></g><g data-id="uc3rvds" data-class="measure" class="measure"><g data-id="n103ytp8" data-class="staff" class="staff"><path d="M5134 540 L6917 540" stroke-width="13"/><path d="M5134 720 L6917 720" stroke-width="13"/><path d="M5134 900 L6917 900" stroke-width="13"/><path d="M5134 1080 L6917 1080" stroke-width="13"/><path d="M5134 1260 L6917 1260" stroke-width="13"/><g data-class="ledgerLines" class="ledgerLines below"><g data-class="lineDash" class="lineDash" data-related="#c1dypab3"><path d="M5956 1440 L6278 1440" stroke-width="22"/></g><g data-class="lineDash" class="lineDash" data-related="#d1ne5n59"><path d="M6406 1440 L6728 1440" stroke-width="22"/></g></g><g data-id="o1tg0pqo" data-class="layer" class="layer"><g data-id="bur8c30" data-class="note" class="note"><g data-class="notehead" class="notehead"><use href="#E0A4-by6t10k" transform="translate(5314, 1170) scale(0.72, 0.72)"/></g><g data-id="o1ytu580" data-class="stem" class="stem"><path d="M5531 1142 L5531 540" stroke-width="18"/></g></g><g data-id="m1jdnzd0" data-class="beam" class="beam"><polygon stroke-opacity="1" fill-opacity="1" points="6212,855 6680,855 6680,945 6212,945"/><g data-id="c1dypab3" data-class="note" class="note"><g data-class="notehead" class="notehead"><use href="#E0A4-by6t10k" transform="translate(6004, 1440) scale(0.72, 0.72)"/></g><g data-id="priitv5" data-class="stem" class="stem"><path d="M6221 1412 L6221 873" stroke-width="18"/></g></g><g data-id="d1ne5n59" data-class="note" class="note"><g data-class="notehead" class="notehead"><use href="#E0A4-by6t10k" transform="translate(6454, 1440) scale(0.72, 0.72)"/></g><g data-id="qzumokh" data-class="stem" class="stem"><path d="M6671 1412 L6671 873" stroke-width="18"/></g></g></g></g></g><g data-id="c2fv8nw" data-class="barLine" class="barLine"><path d="M6904 540 L6904 1260" stroke-width="27"/></g></g><g data-id="dqea69c" data-class="measure" class="measure"><g data-id="p11yn0m3" data-class="staff" class="staff"><path d="M6917 540 L9106 540" stroke-width="13"/><path d="M6917 720 L9106 720" stroke-width="13"/><path d="M6917 900 L9106 900" stroke-width="13"/><path d="M6917 1080 L9106 1080" stroke-width="13"/><path d="M6917 1260 L9106 1260" stroke-width="13"/><g data-id="qjdke45" data-class="layer" class="layer"><g data-id="n1ydsxny" data-class="beam" class="beam"><polygon stroke-opacity="1" fill-opacity="1" points="7097,1530 7565,1575 7565,1485 7097,1440"/><g data-id="e52pzd2" data-class="note" class="note"><g data-class="notehead" class="notehead"><use href="#E0A4-by6t10k" transform="translate(7097, 810) scale(0.72, 0.72)"/></g><g data-id="r1wths5o" data-class="stem" class="stem"><path d="M7106 838 L7106 1512" stroke-width="18"/></g></g><g data-id="fgmwcfa" data-class="note" class="note"><g data-class="notehead" class="notehead"><use href="#E0A4-by6t10k" transform="translate(7547, 990) scale(0.72, 0.72)"/></g><g data-id="s18tbz53" data-class="stem" class="stem"><path d="M7556 1018 L7556 1557" stroke-width="18"/></g><g data-id="r8ec1qr" data-class="accid" class="accid"/></g></g><g data-id="o5cyy6q" data-class="beam" class="beam"><polygon stroke-opacity="1" fill-opacity="1" points="8205,360 8989,360 8989,450 8205,450"/><polygon stroke-opacity="1" fill-opacity="1" points="8664,495 8989,495 8989,585 8664,585"/><g data-id="g1dfgagp" data-class="note" class="note"><g data-class="notehead" class="notehead"><use href="#E0A4-by6t10k" transform="translate(7997, 1080) scale(0.72, 0.72)"/></g><g data-id="tai165g" data-class="stem" class="stem"><path d="M8214 1052 L8214 378" stroke-width="18"/></g></g><g data-id="h1p9tli" data-class="note" class="note"><g data-class="notehead" class="notehead"><use href="#E0A4-by6t10k" transform="translate(8447, 990) scale(0.72, 0.72)"/></g><g data-id="urhn6y" data-class="stem" class="stem"><path d="M8664 962 L8664 378" stroke-width="18"/></g><g data-id="s7m266k" data-class="accid" class="accid"/></g><g data-id="ictaszx" data-class="note" class="note"><g data-class="notehead" class="notehead"><use href="#E0A4-by6t10k" transform="translate(8763, 1080) scale(0.72, 0.72)"/></g><g data-id="v1xj3gkx" data-class="stem" class="stem"><path d="M8980 1052 L8980 378" stroke-width="18"/></g></g></g></g></g><g data-id="l1tp9tkg" data-class="barLine" class="barLine"><path d="M9093 540 L9093 1260" stroke-width="27"/></g></g><g data-id="m1namdyr" data-class="measure" class="measure"><g data-id="r1p5r9dg" data-class="staff" class="staff"><path d="M9106 540 L9976 540" stroke-width="13"/><path d="M9106 720 L9976 720" stroke-width="13"/><path d="M9106 900 L9976 900" stroke-width="13"/><path d="M9106 1080 L9976 1080" stroke-width="13"/><path d="M9106 1260 L9976 1260" stroke-width="13"/><g data-id="s130f9su" data-class="layer" class="layer"><g data-id="jzocb22" data-class="note" class="note"><g data-class="notehead" class="notehead"><use href="#E0A4-by6t10k" transform="translate(9286, 1170) scale(0.72, 0.72)"/></g><g data-id="wekkajj" data-class="stem" class="stem"><path d="M9503 1142 L9503 540" stroke-width="18"/></g></g></g></g><g data-id="u1vbd2nu" data-class="barLine" class="barLine"/></g><g data-id="a3y8xg7" data-class="systemMilestoneEnd" class="systemMilestoneEnd x1mfuehp"/></g><g data-id="b16lq88a" data-class="pageMilestoneEnd" class="pageMilestoneEnd v181qsql"/><g data-id="c1rgfvdp" data-class="pageMilestoneEnd" class="pageMilestoneEnd urq5cff"/></g></svg></svg>