<svg viewBox="0 0 560 84" version="1.1" xmlns="http://www.w3.org/2000/svg" xmlns:xlink="http://www.w3.org/1999/xlink" overflow="visible" id="f1injyqw"><desc>Engraved by Verovio 5.6.0-85e7620</desc><defs><g id="E050-f1injyqw"><path transform="scale(1,-1)" d="M441 -245c-23 -4 -48 -6 -76 -6c-59 0 -102 7 -130 20c-88 42 -150 93 -187 154c-26 44 -43 103 -48 176c0 6 -1 13 -1 19c0 54 15 111 45 170c29 57 65 106 110 148s96 85 153 127c-3 16 -8 46 -13 92c-4 43 -5 73 -5 89c0 117 16 172 69 257c34 54 64 82 89 82 c21 0 43 -30 69 -92s39 -115 41 -159v-15c0 -109 -21 -162 -67 -241c-13 -20 -63 -90 -98 -118c-13 -9 -25 -19 -37 -29l31 -181c8 1 18 2 28 2c58 0 102 -12 133 -35c59 -43 92 -104 98 -184c1 -7 1 -15 1 -22c0 -123 -87 -209 -181 -248c8 -57 17 -110 25 -162 c5 -31 6 -58 6 -80c0 -30 -5 -53 -14 -70c-35 -64 -88 -99 -158 -103c-5 0 -11 -1 -16 -1c-37 0 -72 10 -108 27c-50 24 -77 59 -80 105v11c0 29 7 55 20 76c18 28 45 42 79 44h6c49 0 93 -42 97 -87v-9c0 -51 -34 -86 -105 -106c17 -24 51 -36 102 -36c62 0 116 43 140 85 c9 16 13 41 13 74c0 20 -1 42 -5 67c-8 53 -18 106 -26 159zM461 939c-95 0 -135 -175 -135 -286c0 -24 2 -48 5 -71c50 39 92 82 127 128c40 53 60 100 60 140v8c-4 53 -22 81 -55 81h-2zM406 119l54 -326c73 25 110 78 110 161c0 7 0 15 -1 23c-7 95 -57 142 -151 142h-12 zM382 117c-72 -2 -128 -47 -128 -120v-7c2 -46 43 -99 75 -115c-3 -2 -7 -5 -10 -10c-70 33 -116 88 -123 172v11c0 68 44 126 88 159c23 17 49 29 78 36l-29 170c-21 -13 -52 -37 -92 -73c-50 -44 -86 -84 -109 -119c-45 -69 -67 -130 -67 -182v-13c5 -68 35 -127 93 -176 s125 -73 203 -73c25 0 50 3 75 9c-19 111 -36 221 -54 331z"/></g><g id="E262-f1injyqw"><path transform="scale(1,-1)" d="M136 186v169h17v-164l44 14v-91l-44 -14v-165l44 12v-91l-44 -13v-155h-17v150l-76 -22v-155h-17v149l-43 -13v90l43 14v167l-43 -14v92l43 13v169h17v-163zM60 73v-167l76 22v168z"/></g><g id="E082-f1injyqw"><path transform="scale(1,-1)" d="M124 -185c-18 0 -55 -14 -65 -65h-36l-3 30c0 25 6 45 18 63c11 19 22 30 39 43l121 82l37 29c15 11 27 29 38 54c12 24 18 47 18 70c0 40 -19 88 -94 88c-25 0 -32 0 -50 -8c-14 -5 -23 -12 -26 -22c3 -9 7 -15 10 -18l24 -17c12 -7 17 -11 27 -21c5 -7 7 -16 7 -27 c0 -12 0 -57 -79 -74c-30 0 -76 26 -76 94c0 66 81 135 197 135c72 0 181 -32 181 -150c0 -53 -32 -95 -113 -133l-91 -41c-26 -11 -45 -23 -57 -37l49 7c84 0 115 -41 148 -41c20 0 33 20 39 61h35c0 -152 -68 -168 -114 -168c-17 0 -65 0 -79 7h10l-28 17 c-49 37 -69 40 -87 42z"/></g><g id="E084-f1injyqw"><path transform="scale(1,-1)" d="M20 -78c84 97 114 180 134 329h170c-13 -32 -82 -132 -99 -151l-84 -97c-33 -36 -59 -63 -80 -81h162v102l127 123v-225h57v-39h-57v-34c0 -43 19 -65 57 -65v-34h-244v36c48 0 60 26 60 70v27h-203v39z"/></g><g id="E0A4-f1injyqw"><path transform="scale(1,-1)" d="M0 -39c0 68 73 172 200 172c66 0 114 -37 114 -95c0 -84 -106 -171 -218 -171c-64 0 -96 30 -96 94z"/></g><g id="E883-f1injyqw"><path transform="scale(1,-1)" d="M161 326c52 0 94 -17 94 -68c0 -50 -40 -76 -82 -94c26 -21 39 -42 39 -64c0 -52 -56 -100 -118 -100h-12c-40 0 -82 23 -82 56c0 30 12 49 37 49c17 0 31 -16 34 -31c0 -5 -4 -12 -11 -21c-7 -5 -13 -10 -13 -21l11 -9l17 -4c21 0 40 12 56 37c13 21 19 45 19 70 c-9 30 -28 35 -66 35l6 23c34 0 60 4 77 13c20 11 30 35 30 70c0 28 -12 38 -39 40l-20 -3c-8 -3 -12 -9 -12 -16c2 -7 4 -11 5 -14l4 -11l3 -10l-3 -12c-5 -6 -11 -11 -20 -13c-2 0 -4 -1 -6 -1c-16 0 -30 13 -30 28c0 39 43 71 82 71z"/></g><g id="E240-f1injyqw"><path transform="scale(1,-1)" d="M179 -646c15 29 29 55 46 102c18 49 30 108 30 138c0 105 -80 173 -168 200c-18 5 -47 9 -87 16v190h22c8 0 33 -61 71 -95c4 -3 -2 3 61 -56c62 -58 122 -137 122 -241c0 -38 -13 -106 -35 -163c-20 -51 -43 -99 -66 -132c-6 -5 -10 -7 -13 -7s-5 2 -5 5l4 10 c1 3 14 25 18 33z"/></g><g id="E4E7-f1injyqw"><path transform="scale(1,-1)" d="M133 -111c0 -33 -21 -50 -52 -55c10 -3 18 -4 25 -4c40 0 69 24 90 47l66 197c-36 -18 -64 -25 -112 -25c-23 0 -38 3 -45 8c-37 7 -55 27 -55 59c8 35 30 54 68 58c45 -6 49 -13 64 -48c0 -3 1 -5 1 -7c0 -27 -25 -46 -52 -49c6 -4 15 -6 26 -6c32 2 62 14 88 29 c32 19 44 36 59 71l7 1l10 2h4c-72 -220 -143 -439 -215 -659h-37l108 324c-20 -13 -51 -20 -82 -20c-21 0 -35 4 -43 10c-37 6 -55 26 -55 58c8 35 31 56 68 60c43 -8 48 -13 64 -51z"/></g></defs><style type="text/css">#f1injyqw g.page-margin {font-family:Times,serif;}#f1injyqw g.ending, #f1injyqw g.fing, #f1injyqw g.reh, #f1injyqw g.tempo {font-weight:bold;}#f1injyqw g.dir, #f1injyqw g.dynam, #f1injyqw g.mNum {font-style:italic;}#f1injyqw g.label {font-weight:normal;}#f1injyqw path {stroke:currentColor}</style><svg class="definition-scale" color="black" viewBox="0 0 14000 2100"><g class="page-margin" transform="translate(0, 150)"><g data-id="h1nm0wvv" data-class="mdiv" class="mdiv pageMilestone"/><g data-id="i8x03vp" data-class="score" class="score pageMilestone"/><g data-id="tpce6jl" data-class="system" class="system"><g data-id="k1kaygyd" data-class="section" class="section systemMilestone"/><g data-id="goffzby" data-class="measure" class="measure"><g data-id="w13w0kvv" data-class="staff" class="staff"><path d="M0 540 L2590 540" stroke-width="13"/><path d="M0 720 L2590 720" stroke-width="13"/><path d="M0 900 L2590 900" stroke-width="13"/><path d="M0 1080 L2590 1080" stroke-width="13"/><path d="M0 1260 L2590 1260" stroke-width="13"/><g data-id="a1idp96u" data-class="clef" class="clef"><use href="#E050-f1injyqw" transform="translate(90, 1080) scale(0.72, 0.72)"/></g><g data-id="bj8hz7m" data-class="keySig" class="keySig"><g data-id="c9pjkyv" data-class="keyAccid" class="keyAccid"><use href="#E262-f1injyqw" transform="translate(735, 540) scale(0.72, 0.72)"/></g></g><g data-id="d17cj1oz" data-class="meterSig" class="meterSig"><use href="#E082-f1injyqw" transform="translate(1042, 720) scale(0.72, 0.72)"/><use href="#E084-f1injyqw" transform="translate(1047, 1080) scale(0.72, 0.72)"/></g><g data-id="xtcdpo8" data-class="layer" class="layer"><g data-id="y13i8qj7" data-class="beam" class="beam"><polygon stroke-opacity="1" fill-opacity="1" points="1823,540 2473,540 2473,630 1823,630"/><polygon stroke-opacity="1" fill-opacity="1" points="1823,675 2148,675 2148,765 1823,765"/><polygon stroke-opacity="1" fill-opacity="1" points="2148,675 2473,675 2473,765 2148,765"/><polygon stroke-opacity="1" fill-opacity="1" points="1823,810 2148,810 2148,900 1823,900"/><polygon stroke-opacity="1" fill-opacity="1" points="2148,810 2473,810 2473,900 2148,900"/><g data-id="chg1uzg" data-class="tuplet" class="tuplet"><g data-id="nu2f3pe" data-class="tupletNum" class="tupletNum"><use href="#E883-f1injyqw" transform="translate(2008, 477) scale(0.72, 0.72)"/></g><g data-id="i1tbzldh" data-class="note" class="note"><g data-class="notehead" class="notehead"><use href="#E0A4-f1injyqw" transform="translate(1615, 1260) scale(0.72, 0.72)"/></g><g data-id="o14xba53" data-class="stem" class="stem"><path d="M1832 1232 L1832 558" stroke-width="18"/></g></g><g data-id="jmdyesh" data-class="note" class="note"><g data-class="notehead" class="notehead"><use href="#E0A4-f1injyqw" transform="translate(1931, 1260) scale(0.72, 0.72)"/></g><g data-id="p1b6skfk" data-class="stem" class="stem"><path d="M2148 1232 L2148 558" stroke-width="18"/></g></g><g data-id="k120ltjm" data-class="note" class="note"><g data-class="notehead" class="notehead"><use href="#E0A4-f1injyqw" transform="translate(2247, 1260) scale(0.72, 0.72)"/></g><g data-id="qla0t45" data-class="stem" class="stem"><path d="M2464 1232 L2464 558" stroke-width="18"/></g></g></g></g></g></g><g data-id="o14416im" data-class="barLine" class="barLine"><path d="M2577 540 L2577 1260" stroke-width="27"/></g></g><g data-id="py58l4f" data-class="measure" class="measure"><g data-id="y7q779r" data-class="staff" class="staff"><path d="M2590 540 L5853 540" stroke-width="13"/><path d="M2590 720 L5853 720" stroke-width="13"/><path d="M2590 900 L5853 900" stroke-width="13"/><path d="M2590 1080 L5853 1080" stroke-width="13"/><path d="M2590 1260 L5853 1260" stroke-width="13"/><g data-id="z1thn81z" data-class="layer" class="layer"><g data-id="l1xc2wpe" data-class="note" class="note"><g data-class="notehead" class="notehead"><use href="#E0A4-f1injyqw" transform="translate(2770, 1260) scale(0.72, 0.72)"/></g><g data-id="stxkxgr" data-class="dots" class="dots"><ellipse cx="3244" cy="1170" rx="36" ry="36" fill-opacity="1" stroke-opacity="1"/></g><g data-id="r17rvwpo" data-class="stem" class="stem"><path d="M2987 1232 L2987 630" stroke-width="18"/><g data-id="tsjfonf" data-class="flag" class="flag"><use href="#E240-f1injyqw" transform="translate(2978, 630) scale(0.72, 0.72)"/></g></g></g><g data-id="z51belu" data-class="beam" class="beam"><polygon stroke-opacity="1" fill-opacity="1" points="3558,540 4208,540 4208,630 3558,630"/><polygon stroke-opacity="1" fill-opacity="1" points="3558,675 3883,675 3883,765 3558,765"/><polygon stroke-opacity="1" fill-opacity="1" points="3883,675 4208,675 4208,765 3883,765"/><polygon stroke-opacity="1" fill-opacity="1" points="3558,810 3883,810 3883,900 3558,900"/><polygon stroke-opacity="1" fill-opacity="1" points="3883,810 4208,810 4208,900 3883,900"/><g data-id="d8ioo7y" data-class="tuplet" class="tuplet"><g data-id="u11jp389" data-class="tupletNum" class="tupletNum"><use href="#E883-f1injyqw" transform="translate(3743, 477) scale(0.72, 0.72)"/></g><g data-id="md2padl" data-class="note" class="note"><g data-class="notehead" class="notehead"><use href="#E0A4-f1injyqw" transform="translate(3350, 1260) scale(0.72, 0.72)"/></g><g data-id="v1ik5an8" data-class="stem" class="stem"><path d="M3567 1232 L3567 558" stroke-width="18"/></g></g><g data-id="n7undev" data-class="note" class="note"><g data-class="notehead" class="notehead"><use href="#E0A4-f1injyqw" transform="translate(3666, 1260) scale(0.72, 0.72)"/></g><g data-id="w3j85fp" data-class="stem" class="stem"><path d="M3883 1232 L3883 558" stroke-width="18"/></g></g><g data-id="owqkhn2" data-class="note" class="note"><g data-class="notehead" class="notehead"><use href="#E0A4-f1injyqw" transform="translate(3982, 1260) scale(0.72, 0.72)"/></g><g data-id="x1p81apq" data-class="stem" class="stem"><path d="M4199 1232 L4199 558" stroke-width="18"/></g></g></g></g><g data-id="prr2szb" data-class="note" class="note"><g data-class="notehead" class="notehead"><use href="#E0A4-f1injyqw" transform="translate(4298, 1260) scale(0.72, 0.72)"/></g><g data-id="z1a7zg3t" data-class="dots" class="dots"><ellipse cx="4772" cy="1170" rx="36" ry="36" fill-opacity="1" stroke-opacity="1"/></g><g data-id="yvgvcys" data-class="stem" class="stem"><path d="M4515 1232 L4515 630" stroke-width="18"/><g data-id="a1e0m96g" data-class="flag" class="flag"><use href="#E240-f1injyqw" transform="translate(4506, 630) scale(0.72, 0.72)"/></g></g></g><g data-id="acxhbmf" data-class="beam" class="beam"><polygon stroke-opacity="1" fill-opacity="1" points="5086,540 5736,540 5736,630 5086,630"/><polygon stroke-opacity="1" fill-opacity="1" points="5086,675 5411,675 5411,765 5086,765"/><polygon stroke-opacity="1" fill-opacity="1" points="5411,675 5736,675 5736,765 5411,765"/><polygon stroke-opacity="1" fill-opacity="1" points="5086,810 5411,810 5411,900 5086,900"/><polygon stroke-opacity="1" fill-opacity="1" points="5411,810 5736,810 5736,900 5411,900"/><g data-id="enb16s2" data-class="tuplet" class="tuplet"><g data-id="b12wtvz" data-class="tupletNum" class="tupletNum"><use href="#E883-f1injyqw" transform="translate(5271, 477) scale(0.72, 0.72)"/></g><g data-id="qtf5i4c" data-class="note" class="note"><g data-class="notehead" class="notehead"><use href="#E0A4-f1injyqw" transform="translate(4878, 1260) scale(0.72, 0.72)"/></g><g data-id="ciywdbl" data-class="stem" class="stem"><path d="M5095 1232 L5095 558" stroke-width="18"/></g></g><g data-id="rzay7tc" data-class="note" class="note"><g data-class="notehead" class="notehead"><use href="#E0A4-f1injyqw" transform="translate(5194, 1260) scale(0.72, 0.72)"/></g><g data-id="d103wera" data-class="stem" class="stem"><path d="M5411 1232 L5411 558" stroke-width="18"/></g></g><g data-id="s1agpspb" data-class="note" class="note"><g data-class="notehead" class="notehead"><use href="#E0A4-f1injyqw" transform="translate(5510, 1260) scale(0.72, 0.72)"/></g><g data-id="eie8iu6" data-class="stem" class="stem"><path d="M5727 1232 L5727 558" stroke-width="18"/></g></g></g></g></g></g><g data-id="x19ibom7" data-class="barLine" class="barLine"><path d="M5840 540 L5840 1260" stroke-width="27"/></g></g><g data-id="yrre61t" data-class="measure" class="measure"><g data-id="a1r48d45" data-class="staff" class="staff"><path d="M5853 540 L8517 540" stroke-width="13"/><path d="M5853 720 L8517 720" stroke-width="13"/><path d="M5853 900 L8517 900" stroke-width="13"/><path d="M5853 1080 L8517 1080" stroke-width="13"/><path d="M5853 1260 L8517 1260" stroke-width="13"/><g data-class="ledgerLines" class="ledgerLines above"><g data-class="lineDash" class="lineDash" data-related="#v1cxfxxw"><path d="M7512 360 L7798 360" stroke-width="22"/></g><g data-class="lineDash" class="lineDash" data-related="#w1drdo0j"><path d="M7828 360 L8114 360" stroke-width="22"/></g><g data-class="lineDash" class="lineDash" data-related="#xfwax96"><path d="M8144 360 L8430 360" stroke-width="22"/></g></g><g data-id="b1xd6vdz" data-class="layer" class="layer"><g data-id="tajxknp" data-class="note" class="note"><g data-class="notehead" class="notehead"><use href="#E0A4-f1injyqw" transform="translate(6033, 1080) scale(0.72, 0.72)"/></g><g data-id="f1lrecqg" data-class="stem" class="stem"><path d="M6250 1052 L6250 450" stroke-width="18"/></g></g><g data-id="u1hcejdu" data-class="note" class="note"><g data-class="notehead" class="notehead"><use href="#E0A4-f1injyqw" transform="translate(6723, 1260) scale(0.72, 0.72)"/></g><g data-id="gc5jmna" data-class="stem" class="stem"><path d="M6940 1232 L6940 630" stroke-width="18"/><g data-id="hd3v9iz" data-class="flag" class="flag"><use href="#E240-f1injyqw" transform="translate(6931, 630) scale(0.72, 0.72)"/></g></g></g><g data-id="hk7gwkb" data-class="rest" class="rest"><use href="#E4E7-f1injyqw" transform="translate(7219, 900) scale(0.72, 0.72)"/></g><g data-id="b44v4pg" data-class="beam" class="beam"><polygon stroke-opacity="1" fill-opacity="1" points="7542,1080 8192,1080 8192,990 7542,990"/><polygon stroke-opacity="1" fill-opacity="1" points="7542,945 7867,945 7867,855 7542,855"/><polygon stroke-opacity="1" fill-opacity="1" points="7867,945 8192,945 8192,855 7867,855"/><polygon stroke-opacity="1" fill-opacity="1" points="7542,810 7867,810 7867,720 7542,720"/><polygon stroke-opacity="1" fill-opacity="1" points="7867,810 8192,810 8192,720 7867,720"/><g data-id="fr77ln0" data-class="tuplet" class="tuplet"><g data-id="i1qgkjog" data-class="tupletNum" class="tupletNum"><use href="#E883-f1injyqw" transform="translate(7822, 1377) scale(0.72, 0.72)"/></g><g data-id="v1cxfxxw" data-class="note" class="note"><g data-class="notehead" class="notehead"><use href="#E0A4-f1injyqw" transform="translate(7542, 270) scale(0.72, 0.72)"/></g><g data-id="j1k4gjsv" data-class="stem" class="stem"><path d="M7551 298 L7551 1062" stroke-width="18"/></g></g><g data-id="w1drdo0j" data-class="note" class="note"><g data-class="notehead" class="notehead"><use href="#E0A4-f1injyqw" transform="translate(7858, 270) scale(0.72, 0.72)"/></g><g data-id="k14co5br" data-class="stem" class="stem"><path d="M7867 298 L7867 1062" stroke-width="18"/></g></g><g data-id="xfwax96" data-class="note" class="note"><g data-class="notehead" class="notehead"><use href="#E0A4-f1injyqw" transform="translate(8174, 270) scale(0.72, 0.72)"/></g><g data-id="l64txx3" data-class="stem" class="stem"><path d="M8183 298 L8183 1062" stroke-width="18"/></g></g></g></g></g></g><g data-id="g1v5ss2n" data-class="barLine" class="barLine"><path d="M8504 540 L8504 1260" stroke-width="27"/></g></g><g data-id="j4tbxmc" data-class="systemMilestoneEnd" class="systemMilestoneEnd k1kaygyd"/></g><g data-id="kfjeeup" data-class="pageMilestoneEnd" class="pageMilestoneEnd i8x03vp"/><g data-id="l1209lqz" data-class="pageMilestoneEnd" class="pageMilestoneEnd h1nm0wvv"/></g></svg></svg>