<svg viewBox="0 0 560 84" version="1.1" xmlns="http://www.w3.org/2000/svg" xmlns:xlink="http://www.w3.org/1999/xlink" overflow="visible" id="nrqja5j"><desc>Engraved by Verovio 5.6.0-85e7620</desc><defs><g id="E050-nrqja5j"><path transform="scale(1,-1)" d="M441 -245c-23 -4 -48 -6 -76 -6c-59 0 -102 7 -130 20c-88 42 -150 93 -187 154c-26 44 -43 103 -48 176c0 6 -1 13 -1 19c0 54 15 111 45 170c29 57 65 106 110 148s96 85 153 127c-3 16 -8 46 -13 92c-4 43 -5 73 -5 89c0 117 16 172 69 257c34 54 64 82 89 82 c21 0 43 -30 69 -92s39 -115 41 -159v-15c0 -109 -21 -162 -67 -241c-13 -20 -63 -90 -98 -118c-13 -9 -25 -19 -37 -29l31 -181c8 1 18 2 28 2c58 0 102 -12 133 -35c59 -43 92 -104 98 -184c1 -7 1 -15 1 -22c0 -123 -87 -209 -181 -248c8 -57 17 -110 25 -162 c5 -31 6 -58 6 -80c0 -30 -5 -53 -14 -70c-35 -64 -88 -99 -158 -103c-5 0 -11 -1 -16 -1c-37 0 -72 10 -108 27c-50 24 -77 59 -80 105v11c0 29 7 55 20 76c18 28 45 42 79 44h6c49 0 93 -42 97 -87v-9c0 -51 -34 -86 -105 -106c17 -24 51 -36 102 -36c62 0 116 43 140 85 c9 16 13 41 13 74c0 20 -1 42 -5 67c-8 53 -18 106 -26 159zM461 939c-95 0 -135 -175 -135 -286c0 -24 2 -48 5 -71c50 39 92 82 127 128c40 53 60 100 60 140v8c-4 53 -22 81 -55 81h-2zM406 119l54 -326c73 25 110 78 110 161c0 7 0 15 -1 23c-7 95 -57 142 -151 142h-12 zM382 117c-72 -2 -128 -47 -128 -120v-7c2 -46 43 -99 75 -115c-3 -2 -7 -5 -10 -10c-70 33 -116 88 -123 172v11c0 68 44 126 88 159c23 17 49 29 78 36l-29 170c-21 -13 -52 -37 -92 -73c-50 -44 -86 -84 -109 -119c-45 -69 -67 -130 -67 -182v-13c5 -68 35 -127 93 -176 s125 -73 203 -73c25 0 50 3 75 9c-19 111 -36 221 -54 331z"/></g><g id="E262-nrqja5j"><path transform="scale(1,-1)" d="M136 186v169h17v-164l44 14v-91l-44 -14v-165l44 12v-91l-44 -13v-155h-17v150l-76 -22v-155h-17v149l-43 -13v90l43 14v167l-43 -14v92l43 13v169h17v-163zM60 73v-167l76 22v168z"/></g><g id="E086-nrqja5j"><path transform="scale(1,-1)" d="M284 -91c0 37 -28 92 -67 92c-35 0 -65 -54 -65 -111c0 -52 22 -104 68 -104c47 0 64 68 64 123zM230 214c-36 0 -90 -33 -90 -184l2 -36c40 24 81 36 120 36c80 0 140 -48 140 -121c0 -99 -99 -159 -182 -159c-160 0 -200 173 -200 244c0 21 2 43 7 71l10 35 c26 85 73 115 98 126c41 19 74 24 103 24c93 0 142 -63 142 -105c0 -58 -52 -72 -73 -72c-33 0 -59 24 -65 35c-3 5 -6 14 -7 25l11 30c6 15 9 27 9 35c0 11 -9 16 -25 16z"/></g><g id="E088-nrqja5j"><path transform="scale(1,-1)" d="M195 -214c76 0 88 58 90 68c0 34 -35 60 -57 73l-52 29c-21 10 -32 17 -34 20c-39 -33 -58 -54 -62 -92c5 -23 23 -98 115 -98zM301 135c0 61 -72 76 -113 76c-40 0 -77 -17 -77 -51c3 -21 15 -38 26 -50c17 -15 33 -26 48 -34l65 -28c34 27 51 56 51 87zM176 -250 c-57 0 -166 26 -166 132c0 47 30 86 89 116c-33 15 -79 60 -79 119c0 79 85 132 178 132h18c5 0 21 1 28 -1c25 0 126 -30 126 -110c0 -37 -23 -76 -69 -116c43 -25 83 -71 83 -119c0 -101 -118 -153 -208 -153z"/></g><g id="E4E5-nrqja5j"><path transform="scale(1,-1)" d="M107 292c-13 24 -30 49 -52 71c-1 1 0 2 0 3l-2 2c3 3 4 4 6 4c12 0 26 -7 40 -20s44 -40 89 -81c26 -24 28 -29 46 -47c4 -4 8 -9 10 -14c6 -8 8 -16 8 -27c0 -19 -12 -40 -36 -61c-28 -23 -49 -38 -61 -73c-4 -11 -7 -27 -10 -50c13 -43 34 -83 59 -121 c31 -47 59 -79 101 -129c-8 0 -26 7 -54 20l-62 29l-21 6l-23 1c-25 0 -45 -10 -60 -30l-4 -14l-1 -12c0 -33 20 -56 39 -78c8 -9 17 -18 26 -26c17 -15 27 -24 28 -30l-3 -3c-11 5 -19 10 -25 15c-9 3 -37 21 -45 26c-24 14 -45 32 -63 51c-19 21 -37 44 -37 71 c0 63 27 95 80 95c41 0 86 -18 136 -52c-19 26 -37 48 -55 66c-23 23 -48 44 -73 65c-28 23 -47 40 -58 53s-17 26 -18 39c75 64 113 125 113 183c0 27 -7 48 -18 68z"/></g><g id="E4E6-nrqja5j"><path transform="scale(1,-1)" d="M0 123c7 34 33 56 69 60c29 -3 43 -9 53 -29c4 -8 7 -15 10 -22c0 -21 -1 -25 -11 -35c-5 -8 -18 -14 -40 -20l12 -3l15 -1c44 0 97 26 122 56c10 11 18 26 24 42c7 1 15 2 22 3l-140 -424h-36l111 330c-10 -6 -27 -12 -53 -16l-52 -8h-10l-20 1c-1 0 -8 3 -21 6 c-37 9 -55 28 -55 60z"/></g><g id="E4E7-nrqja5j"><path transform="scale(1,-1)" d="M133 -111c0 -33 -21 -50 -52 -55c10 -3 18 -4 25 -4c40 0 69 24 90 47l66 197c-36 -18 -64 -25 -112 -25c-23 0 -38 3 -45 8c-37 7 -55 27 -55 59c8 35 30 54 68 58c45 -6 49 -13 64 -48c0 -3 1 -5 1 -7c0 -27 -25 -46 -52 -49c6 -4 15 -6 26 -6c32 2 62 14 88 29 c32 19 44 36 59 71l7 1l10 2h4c-72 -220 -143 -439 -215 -659h-37l108 324c-20 -13 -51 -20 -82 -20c-21 0 -35 4 -43 10c-37 6 -55 26 -55 58c8 35 31 56 68 60c43 -8 48 -13 64 -51z"/></g><g id="E0A4-nrqja5j"><path transform="scale(1,-1)" d="M0 -39c0 68 73 172 200 172c66 0 114 -37 114 -95c0 -84 -106 -171 -218 -171c-64 0 -96 30 -96 94z"/></g><g id="E242-nrqja5j"><path transform="scale(1,-1)" d="M206 -748c32 48 49 100 49 149c0 89 -55 168 -168 203c-18 5 -47 9 -87 16v190v190h22c8 0 33 -61 71 -95c4 -3 -2 3 61 -56c62 -58 122 -137 122 -241c0 -32 -7 -65 -17 -96c11 -29 17 -60 17 -94c0 -71 -32 -148 -67 -190c-6 -5 -10 -7 -13 -7s-5 2 -5 5l4 10 c1 3 6 8 11 16zM248 -463c4 18 7 38 7 57c0 105 -80 173 -168 200c-11 3 -27 6 -47 9c9 -17 23 -61 53 -88c4 -3 -2 3 61 -56c36 -33 71 -74 94 -122z"/></g></defs><style type="text/css">#nrqja5j g.page-margin {font-family:Times,serif;}#nrqja5j g.ending, #nrqja5j g.fing, #nrqja5j g.reh, #nrqja5j g.tempo {font-weight:bold;}#nrqja5j g.dir, #nrqja5j g.dynam, #nrqja5j g.mNum {font-style:italic;}#nrqja5j g.label {font-weight:normal;}#nrqja5j path {stroke:currentColor}</style><svg class="definition-scale" color="black" viewBox="0 0 14000 2100"><g class="page-margin" transform="translate(0, 150)"><g data-id="hubv0dv" data-class="mdiv" class="mdiv pageMilestone"/><g data-id="i16duktm" data-class="score" class="score pageMilestone"/><g data-id="oiibs3f" data-class="system" class="system"><g data-id="k26bbub" data-class="section" class="section systemMilestone"/><g data-id="o1frl6c7" data-class="measure" class="measure"><g data-id="whu7ys0" data-class="staff" class="staff"><path d="M0 540 L5925 540" stroke-width="13"/><path d="M0 720 L5925 720" stroke-width="13"/><path d="M0 900 L5925 900" stroke-width="13"/><path d="M0 1080 L5925 1080" stroke-width="13"/><path d="M0 1260 L5925 1260" stroke-width="13"/><g data-id="sizzi1n" data-class="clef" class="clef"><use href="#E050-nrqja5j" transform="translate(90, 1080) scale(0.72, 0.72)"/></g><g data-id="t53zzgv" data-class="keySig" class="keySig"><g data-id="u1wpbjyn" data-class="keyAccid" class="keyAccid"><use href="#E262-nrqja5j" transform="translate(735, 540) scale(0.72, 0.72)"/></g><g data-id="vicgl7h" data-class="keyAccid" class="keyAccid"><use href="#E262-nrqja5j" transform="translate(913, 810) scale(0.72, 0.72)"/></g><g data-id="w178bjj" data-class="keyAccid" class="keyAccid"><use href="#E262-nrqja5j" transform="translate(1091, 450) scale(0.72, 0.72)"/></g><g data-id="x1v8xpbw" data-class="keyAccid" class="keyAccid"><use href="#E262-nrqja5j" transform="translate(1269, 720) scale(0.72, 0.72)"/></g></g><g data-id="y1q1mzi4" data-class="meterSig" class="meterSig"><use href="#E086-nrqja5j" transform="translate(1576, 720) scale(0.72, 0.72)"/><use href="#E088-nrqja5j" transform="translate(1583, 1080) scale(0.72, 0.72)"/></g><g data-class="ledgerLines" class="ledgerLines below"><g data-class="lineDash" class="lineDash" data-related="#l1x5jh8p"><path d="M3956 1440 L4278 1440" stroke-width="22"/></g></g><g data-id="x10sbgma" data-class="layer" class="layer"><g data-id="g1r8j46m" data-class="rest" class="rest"><use href="#E4E5-nrqja5j" transform="translate(2135, 900) scale(0.72, 0.72)"/></g><g data-id="hw7a95" data-class="rest" class="rest"><use href="#E4E6-nrqja5j" transform="translate(2825, 900) scale(0.72, 0.72)"/></g><g data-id="i6s6rtx" data-class="rest" class="rest"><use href="#E4E7-nrqja5j" transform="translate(3275, 900) scale(0.72, 0.72)"/></g><g data-id="k1fwb4he" data-class="note" class="note"><g data-class="notehead" class="notehead"><use href="#E0A4-nrqja5j" transform="translate(3598, 1260) scale(0.72, 0.72)"/></g><g data-id="o10fayxs" data-class="stem" class="stem"><path d="M3815 1232 L3815 630" stroke-width="18"/><g data-id="p1e4ts00" data-class="flag" class="flag"><use href="#E242-nrqja5j" transform="translate(3806, 630) scale(0.72, 0.72)"/></g></g></g><g data-id="l1x5jh8p" data-class="note" class="note"><g data-class="notehead" class="notehead"><use href="#E0A4-nrqja5j" transform="translate(4004, 1530) scale(0.72, 0.72)"/></g><g data-id="q6kkl4f" data-class="stem" class="stem"><path d="M4221 1502 L4221 810" stroke-width="18"/><g data-id="r1aladkq" data-class="flag" class="flag"><use href="#E242-nrqja5j" transform="translate(4212, 810) scale(0.72, 0.72)"/></g></g></g><g data-id="mdvmpvd" data-class="note" class="note"><g data-class="notehead" class="notehead"><use href="#E0A4-nrqja5j" transform="translate(4500, 1260) scale(0.72, 0.72)"/></g><g data-id="s2zx6mc" data-class="stem" class="stem"><path d="M4717 1232 L4717 630" stroke-width="18"/><g data-id="twu0th9" data-class="flag" class="flag"><use href="#E242-nrqja5j" transform="translate(4708, 630) scale(0.72, 0.72)"/></g></g></g><g data-id="nvytvnj" data-class="note" class="note"><g data-class="notehead" class="notehead"><use href="#E0A4-nrqja5j" transform="translate(4996, 1080) scale(0.72, 0.72)"/></g><g data-id="u1exzorp" data-class="stem" class="stem"><path d="M5213 1052 L5213 450" stroke-width="18"/><g data-id="v1ixalxg" data-class="flag" class="flag"><use href="#E242-nrqja5j" transform="translate(5204, 450) scale(0.72, 0.72)"/></g></g><g data-id="ainrhr5" data-class="accid" class="accid"/></g><g data-id="oylsyv2" data-class="note" class="note"><g data-class="notehead" class="notehead"><use href="#E0A4-nrqja5j" transform="translate(5402, 1260) scale(0.72, 0.72)"/></g><g data-id="w1phulpu" data-class="stem" class="stem"><path d="M5619 1232 L5619 630" stroke-width="18"/><g data-id="x1k1xcgn" data-class="flag" class="flag"><use href="#E242-nrqja5j" transform="translate(5610, 630) scale(0.72, 0.72)"/></g></g></g></g></g><g data-id="w3492nj" data-class="barLine" class="barLine"><path d="M5912 540 L5912 1260" stroke-width="27"/></g></g><g data-id="x1pz3q1a" data-class="measure" class="measure"><g data-id="y1qxt2kf" data-class="staff" class="staff"><path d="M5925 540 L11461 540" stroke-width="13"/><path d="M5925 720 L11461 720" stroke-width="13"/><path d="M5925 900 L11461 900" stroke-width="13"/><path d="M5925 1080 L11461 1080" stroke-width="13"/><path d="M5925 1260 L11461 1260" stroke-width="13"/><g data-class="ledgerLines" class="ledgerLines below"><g data-class="lineDash" class="lineDash" data-related="#q1utz8ix"><path d="M6786 1440 L7108 1440" stroke-width="22"/></g><g data-class="lineDash" class="lineDash" data-related="#u15dzifc"><path d="M8590 1440 L8912 1440" stroke-width="22"/></g><g data-class="lineDash" class="lineDash" data-related="#x1b7ajdt"><path d="M9988 1440 L10310 1440" stroke-width="22"/></g><g data-class="lineDash" class="lineDash" data-related="#zedh3zb"><path d="M10890 1440 L11212 1440" stroke-width="22"/></g><g data-class="lineDash" class="lineDash" data-related="#x1b7ajdt"><path d="M9988 1620 L10310 1620" stroke-width="22"/></g><g data-class="lineDash" class="lineDash" data-related="#zedh3zb"><path d="M10890 1620 L11212 1620" stroke-width="22"/></g></g><g data-id="z10fw90f" data-class="layer" class="layer"><g data-id="jeo4c7p" data-class="rest" class="rest"><use href="#E4E7-nrqja5j" transform="translate(6105, 900) scale(0.72, 0.72)"/></g><g data-id="phe2jba" data-class="note" class="note"><g data-class="notehead" class="notehead"><use href="#E0A4-nrqja5j" transform="translate(6428, 1260) scale(0.72, 0.72)"/></g><g data-id="yspgm7n" data-class="stem" class="stem"><path d="M6645 1232 L6645 630" stroke-width="18"/><g data-id="zqgp8a4" data-class="flag" class="flag"><use href="#E242-nrqja5j" transform="translate(6636, 630) scale(0.72, 0.72)"/></g></g></g><g data-id="q1utz8ix" data-class="note" class="note"><g data-class="notehead" class="notehead"><use href="#E0A4-nrqja5j" transform="translate(6834, 1530) scale(0.72, 0.72)"/></g><g data-id="a16hqf4r" data-class="stem" class="stem"><path d="M7051 1502 L7051 810" stroke-width="18"/><g data-id="bg24moj" data-class="flag" class="flag"><use href="#E242-nrqja5j" transform="translate(7042, 810) scale(0.72, 0.72)"/></g></g></g><g data-id="rz8jdgl" data-class="note" class="note"><g data-class="notehead" class="notehead"><use href="#E0A4-nrqja5j" transform="translate(7330, 1260) scale(0.72, 0.72)"/></g><g data-id="cbidukj" data-class="stem" class="stem"><path d="M7547 1232 L7547 630" stroke-width="18"/><g data-id="d1097kop" data-class="flag" class="flag"><use href="#E242-nrqja5j" transform="translate(7538, 630) scale(0.72, 0.72)"/></g></g></g><g data-id="sjp7k7c" data-class="note" class="note"><g data-class="notehead" class="notehead"><use href="#E0A4-nrqja5j" transform="translate(7826, 1080) scale(0.72, 0.72)"/></g><g data-id="e1008k00" data-class="stem" class="stem"><path d="M8043 1052 L8043 450" stroke-width="18"/><g data-id="f1nyxo4u" data-class="flag" class="flag"><use href="#E242-nrqja5j" transform="translate(8034, 450) scale(0.72, 0.72)"/></g></g><g data-id="b1iod19a" data-class="accid" class="accid"/></g><g data-id="t4vd0zv" data-class="note" class="note"><g data-class="notehead" class="notehead"><use href="#E0A4-nrqja5j" transform="translate(8232, 1260) scale(0.72, 0.72)"/></g><g data-id="gumg3k4" data-class="stem" class="stem"><path d="M8449 1232 L8449 630" stroke-width="18"/><g data-id="hr8h6yj" data-class="flag" class="flag"><use href="#E242-nrqja5j" transform="translate(8440, 630) scale(0.72, 0.72)"/></g></g></g><g data-id="u15dzifc" data-class="note" class="note"><g data-class="notehead" class="notehead"><use href="#E0A4-nrqja5j" transform="translate(8638, 1530) scale(0.72, 0.72)"/></g><g data-id="i1dl44bd" data-class="stem" class="stem"><path d="M8855 1502 L8855 810" stroke-width="18"/><g data-id="ja06708" data-class="flag" class="flag"><use href="#E242-nrqja5j" transform="translate(8846, 810) scale(0.72, 0.72)"/></g></g></g><g data-id="v6gwchc" data-class="note" class="note"><g data-class="notehead" class="notehead"><use href="#E0A4-nrqja5j" transform="translate(9134, 1260) scale(0.72, 0.72)"/></g><g data-id="kq79pce" data-class="stem" class="stem"><path d="M9351 1232 L9351 630" stroke-width="18"/><g data-id="l1rcrx9g" data-class="flag" class="flag"><use href="#E242-nrqja5j" transform="translate(9342, 630) scale(0.72, 0.72)"/></g></g></g><g data-id="w7hgfdq" data-class="note" class="note"><g data-class="notehead" class="notehead"><use href="#E0A4-nrqja5j" transform="translate(9630, 1080) scale(0.72, 0.72)"/></g><g data-id="m1q81dr3" data-class="stem" class="stem"><path d="M9847 1052 L9847 450" stroke-width="18"/><g data-id="n1ifrdmi" data-class="flag" class="flag"><use href="#E242-nrqja5j" transform="translate(9838, 450) scale(0.72, 0.72)"/></g></g><g data-id="c128b3xi" data-class="accid" class="accid"/></g><g data-id="x1b7ajdt" data-class="note" class="note"><g data-class="notehead" class="notehead"><use href="#E0A4-nrqja5j" transform="translate(10036, 1710) scale(0.72, 0.72)"/></g><g data-id="oqbkcmi" data-class="stem" class="stem"><path d="M10253 1682 L10253 810" stroke-width="18"/><g data-id="p6vl8rb" data-class="flag" class="flag"><use href="#E242-nrqja5j" transform="translate(10244, 810) scale(0.72, 0.72)"/></g></g><g data-id="d1faxyd8" data-class="accid" class="accid"/></g><g data-id="y1eqqkzt" data-class="note" class="note"><g data-class="notehead" class="notehead"><use href="#E0A4-nrqja5j" transform="translate(10532, 1080) scale(0.72, 0.72)"/></g><g data-id="q6ole0i" data-class="stem" class="stem"><path d="M10749 1052 L10749 450" stroke-width="18"/><g data-id="rxqvwpd" data-class="flag" class="flag"><use href="#E242-nrqja5j" transform="translate(10740, 450) scale(0.72, 0.72)"/></g></g><g data-id="e1w7ep31" data-class="accid" class="accid"/></g><g data-id="zedh3zb" data-class="note" class="note"><g data-class="notehead" class="notehead"><use href="#E0A4-nrqja5j" transform="translate(10938, 1710) scale(0.72, 0.72)"/></g><g data-id="ssekxam" data-class="stem" class="stem"><path d="M11155 1682 L11155 810" stroke-width="18"/><g data-id="t1yqmhon" data-class="flag" class="flag"><use href="#E242-nrqja5j" transform="translate(11146, 810) scale(0.72, 0.72)"/></g></g><g data-id="fhn5ku7" data-class="accid" class="accid"/></g></g></g><g data-id="f17grvoe" data-class="barLine" class="barLine"><path d="M11448 540 L11448 1260" stroke-width="27"/></g></g><g data-id="h610wta" data-class="systemMilestoneEnd" class="systemMilestoneEnd k26bbub"/></g><g data-id="i182akj9" data-class="pageMilestoneEnd" class="pageMilestoneEnd i16duktm"/><g data-id="j1rkxh7g" data-class="pageMilestoneEnd" class="pageMilestoneEnd hubv0dv"/></g></svg></svg>