<svg viewBox="0 0 560 84" version="1.1" xmlns="http://www.w3.org/2000/svg" xmlns:xlink="http://www.w3.org/1999/xlink" overflow="visible" id="p1vtuw0b"><desc>Engraved by Verovio 5.6.0-85e7620</desc><defs><g id="E050-p1vtuw0b"><path transform="scale(1,-1)" d="M441 -245c-23 -4 -48 -6 -76 -6c-59 0 -102 7 -130 20c-88 42 -150 93 -187 154c-26 44 -43 103 -48 176c0 6 -1 13 -1 19c0 54 15 111 45 170c29 57 65 106 110 148s96 85 153 127c-3 16 -8 46 -13 92c-4 43 -5 73 -5 89c0 117 16 172 69 257c34 54 64 82 89 82 c21 0 43 -30 69 -92s39 -115 41 -159v-15c0 -109 -21 -162 -67 -241c-13 -20 -63 -90 -98 -118c-13 -9 -25 -19 -37 -29l31 -181c8 1 18 2 28 2c58 0 102 -12 133 -35c59 -43 92 -104 98 -184c1 -7 1 -15 1 -22c0 -123 -87 -209 -181 -248c8 -57 17 -110 25 -162 c5 -31 6 -58 6 -80c0 -30 -5 -53 -14 -70c-35 -64 -88 -99 -158 -103c-5 0 -11 -1 -16 -1c-37 0 -72 10 -108 27c-50 24 -77 59 -80 105v11c0 29 7 55 20 76c18 28 45 42 79 44h6c49 0 93 -42 97 -87v-9c0 -51 -34 -86 -105 -106c17 -24 51 -36 102 -36c62 0 116 43 140 85 c9 16 13 41 13 74c0 20 -1 42 -5 67c-8 53 -18 106 -26 159zM461 939c-95 0 -135 -175 -135 -286c0 -24 2 -48 5 -71c50 39 92 82 127 128c40 53 60 100 60 140v8c-4 53 -22 81 -55 81h-2zM406 119l54 -326c73 25 110 78 110 161c0 7 0 15 -1 23c-7 95 -57 142 -151 142h-12 zM382 117c-72 -2 -128 -47 -128 -120v-7c2 -46 43 -99 75 -115c-3 -2 -7 -5 -10 -10c-70 33 -116 88 -123 172v11c0 68 44 126 88 159c23 17 49 29 78 36l-29 170c-21 -13 -52 -37 -92 -73c-50 -44 -86 -84 -109 -119c-45 -69 -67 -130 -67 -182v-13c5 -68 35 -127 93 -176 s125 -73 203 -73c25 0 50 3 75 9c-19 111 -36 221 -54 331z"/></g><g id="E262-p1vtuw0b"><path transform="scale(1,-1)" d="M136 186v169h17v-164l44 14v-91l-44 -14v-165l44 12v-91l-44 -13v-155h-17v150l-76 -22v-155h-17v149l-43 -13v90l43 14v167l-43 -14v92l43 13v169h17v-163zM60 73v-167l76 22v168z"/></g><g id="E086-p1vtuw0b"><path transform="scale(1,-1)" d="M284 -91c0 37 -28 92 -67 92c-35 0 -65 -54 -65 -111c0 -52 22 -104 68 -104c47 0 64 68 64 123zM230 214c-36 0 -90 -33 -90 -184l2 -36c40 24 81 36 120 36c80 0 140 -48 140 -121c0 -99 -99 -159 -182 -159c-160 0 -200 173 -200 244c0 21 2 43 7 71l10 35 c26 85 73 115 98 126c41 19 74 24 103 24c93 0 142 -63 142 -105c0 -58 -52 -72 -73 -72c-33 0 -59 24 -65 35c-3 5 -6 14 -7 25l11 30c6 15 9 27 9 35c0 11 -9 16 -25 16z"/></g><g id="E088-p1vtuw0b"><path transform="scale(1,-1)" d="M195 -214c76 0 88 58 90 68c0 34 -35 60 -57 73l-52 29c-21 10 -32 17 -34 20c-39 -33 -58 -54 -62 -92c5 -23 23 -98 115 -98zM301 135c0 61 -72 76 -113 76c-40 0 -77 -17 -77 -51c3 -21 15 -38 26 -50c17 -15 33 -26 48 -34l65 -28c34 27 51 56 51 87zM176 -250 c-57 0 -166 26 -166 132c0 47 30 86 89 116c-33 15 -79 60 -79 119c0 79 85 132 178 132h18c5 0 21 1 28 -1c25 0 126 -30 126 -110c0 -37 -23 -76 -69 -116c43 -25 83 -71 83 -119c0 -101 -118 -153 -208 -153z"/></g><g id="E0A4-p1vtuw0b"><path transform="scale(1,-1)" d="M0 -39c0 68 73 172 200 172c66 0 114 -37 114 -95c0 -84 -106 -171 -218 -171c-64 0 -96 30 -96 94z"/></g></defs><style type="text/css">#p1vtuw0b g.page-margin {font-family:Times,serif;}#p1vtuw0b g.ending, #p1vtuw0b g.fing, #p1vtuw0b g.reh, #p1vtuw0b g.tempo {font-weight:bold;}#p1vtuw0b g.dir, #p1vtuw0b g.dynam, #p1vtuw0b g.mNum {font-style:italic;}#p1vtuw0b g.label {font-weight:normal;}#p1vtuw0b path {stroke:currentColor}</style><svg class="definition-scale" color="black" viewBox="0 0 14000 2100"><g class="page-margin" transform="translate(0, 150)"><g data-id="l1rc6g7d" data-class="mdiv" class="mdiv pageMilestone"/><g data-id="m18o8pqx" data-class="score" class="score pageMilestone"/><g data-id="e1b1wck9" data-class="system" class="system"><g data-id="ohdy5ca" data-class="section" class="section systemMilestone"/><g data-id="q1bxmthj" data-class="measure" class="measure"><g data-id="ax4fe6z" data-class="staff" class="staff"><path d="M0 540 L5776 540" stroke-width="13"/><path d="M0 720 L5776 720" stroke-width="13"/><path d="M0 900 L5776 900" stroke-width="13"/><path d="M0 1080 L5776 1080" stroke-width="13"/><path d="M0 1260 L5776 1260" stroke-width="13"/><g data-id="jpitugo" data-class="clef" class="clef"><use href="#E050-p1vtuw0b" transform="translate(90, 1080) scale(0.72, 0.72)"/></g><g data-id="kn306e2" data-class="keySig" class="keySig"><g data-id="l1szzk2u" data-class="keyAccid" class="keyAccid"><use href="#E262-p1vtuw0b" transform="translate(735, 540) scale(0.72, 0.72)"/></g><g data-id="mx7yj2h" data-class="keyAccid" class="keyAccid"><use href="#E262-p1vtuw0b" transform="translate(913, 810) scale(0.72, 0.72)"/></g><g data-id="nsekcxi" data-class="keyAccid" class="keyAccid"><use href="#E262-p1vtuw0b" transform="translate(1091, 450) scale(0.72, 0.72)"/></g></g><g data-id="o1s0lw52" data-class="meterSig" class="meterSig"><use href="#E086-p1vtuw0b" transform="translate(1398, 720) scale(0.72, 0.72)"/><use href="#E088-p1vtuw0b" transform="translate(1405, 1080) scale(0.72, 0.72)"/></g><g data-class="ledgerLines" class="ledgerLines below"><g data-class="lineDash" class="lineDash" data-related="#j1urtko3"><path d="M2225 1440 L2547 1440" stroke-width="22"/></g><g data-class="lineDash" class="lineDash" data-related="#lxfz5bw"><path d="M2857 1440 L3179 1440" stroke-width="22"/></g><g data-class="lineDash" class="lineDash" data-related="#n1870rma"><path d="M3489 1440 L3811 1440" stroke-width="22"/></g><g data-class="lineDash" class="lineDash" data-related="#ptk0pnf"><path d="M4121 1440 L4443 1440" stroke-width="22"/></g><g data-class="lineDash" class="lineDash" data-related="#rijf43u"><path d="M4753 1440 L5075 1440" stroke-width="22"/></g><g data-class="lineDash" class="lineDash" data-related="#tpz8823"><path d="M5385 1440 L5707 1440" stroke-width="22"/></g></g><g data-id="bi3zvrh" data-class="layer" class="layer"><g data-id="g1urfp1m" data-class="beam" class="beam"><polygon stroke-opacity="1" fill-opacity="1" points="2165,675 3763,675 3763,765 2165,765"/><polygon stroke-opacity="1" fill-opacity="1" points="2165,810 2490,810 2490,900 2165,900"/><polygon stroke-opacity="1" fill-opacity="1" points="2490,810 2806,810 2806,900 2490,900"/><polygon stroke-opacity="1" fill-opacity="1" points="2806,810 3122,810 3122,900 2806,900"/><polygon stroke-opacity="1" fill-opacity="1" points="3122,810 3438,810 3438,900 3122,900"/><polygon stroke-opacity="1" fill-opacity="1" points="3438,810 3763,810 3763,900 3438,900"/><g data-id="i1b24wsm" data-class="note" class="note"><g data-class="notehead" class="notehead"><use href="#E0A4-p1vtuw0b" transform="translate(1957, 1260) scale(0.72, 0.72)"/></g><g data-id="r1y8tq8g" data-class="stem" class="stem"><path d="M2174 1232 L2174 693" stroke-width="18"/></g></g><g data-id="j1urtko3" data-class="note" class="note"><g data-class="notehead" class="notehead"><use href="#E0A4-p1vtuw0b" transform="translate(2273, 1530) scale(0.72, 0.72)"/></g><g data-id="s16r8o3x" data-class="stem" class="stem"><path d="M2490 1502 L2490 693" stroke-width="18"/></g></g><g data-id="k1v811il" data-class="note" class="note"><g data-class="notehead" class="notehead"><use href="#E0A4-p1vtuw0b" transform="translate(2589, 1260) scale(0.72, 0.72)"/></g><g data-id="t1qcouyz" data-class="stem" class="stem"><path d="M2806 1232 L2806 693" stroke-width="18"/></g></g><g data-id="lxfz5bw" data-class="note" class="note"><g data-class="notehead" class="notehead"><use href="#E0A4-p1vtuw0b" transform="translate(2905, 1530) scale(0.72, 0.72)"/></g><g data-id="u1okxadu" data-class="stem" class="stem"><path d="M3122 1502 L3122 693" stroke-width="18"/></g></g><g data-id="m1k12rrh" data-class="note" class="note"><g data-class="notehead" class="notehead"><use href="#E0A4-p1vtuw0b" transform="translate(3221, 1260) scale(0.72, 0.72)"/></g><g data-id="vhy1iap" data-class="stem" class="stem"><path d="M3438 1232 L3438 693" stroke-width="18"/></g></g><g data-id="n1870rma" data-class="note" class="note"><g data-class="notehead" class="notehead"><use href="#E0A4-p1vtuw0b" transform="translate(3537, 1530) scale(0.72, 0.72)"/></g><g data-id="wrn8p6p" data-class="stem" class="stem"><path d="M3754 1502 L3754 693" stroke-width="18"/></g></g></g><g data-id="hgyoeoq" data-class="beam" class="beam"><polygon stroke-opacity="1" fill-opacity="1" points="4061,675 5659,675 5659,765 4061,765"/><polygon stroke-opacity="1" fill-opacity="1" points="4061,810 4386,810 4386,900 4061,900"/><polygon stroke-opacity="1" fill-opacity="1" points="4386,810 4702,810 4702,900 4386,900"/><polygon stroke-opacity="1" fill-opacity="1" points="4702,810 5018,810 5018,900 4702,900"/><polygon stroke-opacity="1" fill-opacity="1" points="5018,810 5334,810 5334,900 5018,900"/><polygon stroke-opacity="1" fill-opacity="1" points="5334,810 5659,810 5659,900 5334,900"/><g data-id="o12ljb4" data-class="note" class="note"><g data-class="notehead" class="notehead"><use href="#E0A4-p1vtuw0b" transform="translate(3853, 1260) scale(0.72, 0.72)"/></g><g data-id="xf124ie" data-class="stem" class="stem"><path d="M4070 1232 L4070 693" stroke-width="18"/></g></g><g data-id="ptk0pnf" data-class="note" class="note"><g data-class="notehead" class="notehead"><use href="#E0A4-p1vtuw0b" transform="translate(4169, 1530) scale(0.72, 0.72)"/></g><g data-id="y1p2w8ft" data-class="stem" class="stem"><path d="M4386 1502 L4386 693" stroke-width="18"/></g></g><g data-id="qiesg2r" data-class="note" class="note"><g data-class="notehead" class="notehead"><use href="#E0A4-p1vtuw0b" transform="translate(4485, 1260) scale(0.72, 0.72)"/></g><g data-id="z1in0s1t" data-class="stem" class="stem"><path d="M4702 1232 L4702 693" stroke-width="18"/></g></g><g data-id="rijf43u" data-class="note" class="note"><g data-class="notehead" class="notehead"><use href="#E0A4-p1vtuw0b" transform="translate(4801, 1530) scale(0.72, 0.72)"/></g><g data-id="a8nlaqc" data-class="stem" class="stem"><path d="M5018 1502 L5018 693" stroke-width="18"/></g></g><g data-id="scagrxj" data-class="note" class="note"><g data-class="notehead" class="notehead"><use href="#E0A4-p1vtuw0b" transform="translate(5117, 1260) scale(0.72, 0.72)"/></g><g data-id="b1wh2hof" data-class="stem" class="stem"><path d="M5334 1232 L5334 693" stroke-width="18"/></g></g><g data-id="tpz8823" data-class="note" class="note"><g data-class="notehead" class="notehead"><use href="#E0A4-p1vtuw0b" transform="translate(5433, 1530) scale(0.72, 0.72)"/></g><g data-id="c1admshj" data-class="stem" class="stem"><path d="M5650 1502 L5650 693" stroke-width="18"/></g></g></g></g></g><g data-id="y128l6y" data-class="barLine" class="barLine"><path d="M5763 540 L5763 1260" stroke-width="27"/></g></g><g data-id="z1gkrttk" data-class="measure" class="measure"><g data-id="cqu6ajc" data-class="staff" class="staff"><path d="M5776 540 L9775 540" stroke-width="13"/><path d="M5776 720 L9775 720" stroke-width="13"/><path d="M5776 900 L9775 900" stroke-width="13"/><path d="M5776 1080 L9775 1080" stroke-width="13"/><path d="M5776 1260 L9775 1260" stroke-width="13"/><g data-class="ledgerLines" class="ledgerLines below"><g data-class="lineDash" class="lineDash" data-related="#v1txommj"><path d="M6224 1440 L6546 1440" stroke-width="22"/></g><g data-class="lineDash" class="lineDash" data-related="#xdtg4ls"><path d="M6856 1440 L7178 1440" stroke-width="22"/></g><g data-class="lineDash" class="lineDash" data-related="#z1pfs727"><path d="M7488 1440 L7810 1440" stroke-width="22"/></g><g data-class="lineDash" class="lineDash" data-related="#bjqc6hf"><path d="M8120 1440 L8442 1440" stroke-width="22"/></g><g data-class="lineDash" class="lineDash" data-related="#dc100pl"><path d="M8752 1440 L9074 1440" stroke-width="22"/></g><g data-class="lineDash" class="lineDash" data-related="#f9oseez"><path d="M9384 1440 L9706 1440" stroke-width="22"/></g></g><g data-id="dnbglnn" data-class="layer" class="layer"><g data-id="i1ci80gn" data-class="beam" class="beam"><polygon stroke-opacity="1" fill-opacity="1" points="6164,675 7762,675 7762,765 6164,765"/><polygon stroke-opacity="1" fill-opacity="1" points="6164,810 6489,810 6489,900 6164,900"/><polygon stroke-opacity="1" fill-opacity="1" points="6489,810 6805,810 6805,900 6489,900"/><polygon stroke-opacity="1" fill-opacity="1" points="6805,810 7121,810 7121,900 6805,900"/><polygon stroke-opacity="1" fill-opacity="1" points="7121,810 7437,810 7437,900 7121,900"/><polygon stroke-opacity="1" fill-opacity="1" points="7437,810 7762,810 7762,900 7437,900"/><g data-id="up2knh" data-class="note" class="note"><g data-class="notehead" class="notehead"><use href="#E0A4-p1vtuw0b" transform="translate(5956, 1260) scale(0.72, 0.72)"/></g><g data-id="d1cek50g" data-class="stem" class="stem"><path d="M6173 1232 L6173 693" stroke-width="18"/></g></g><g data-id="v1txommj" data-class="note" class="note"><g data-class="notehead" class="notehead"><use href="#E0A4-p1vtuw0b" transform="translate(6272, 1530) scale(0.72, 0.72)"/></g><g data-id="e1rxc7lc" data-class="stem" class="stem"><path d="M6489 1502 L6489 693" stroke-width="18"/></g></g><g data-id="w14d8egq" data-class="note" class="note"><g data-class="notehead" class="notehead"><use href="#E0A4-p1vtuw0b" transform="translate(6588, 1260) scale(0.72, 0.72)"/></g><g data-id="f5ggyq0" data-class="stem" class="stem"><path d="M6805 1232 L6805 693" stroke-width="18"/></g></g><g data-id="xdtg4ls" data-class="note" class="note"><g data-class="notehead" class="notehead"><use href="#E0A4-p1vtuw0b" transform="translate(6904, 1530) scale(0.72, 0.72)"/></g><g data-id="gaplsul" data-class="stem" class="stem"><path d="M7121 1502 L7121 693" stroke-width="18"/></g></g><g data-id="yurehpz" data-class="note" class="note"><g data-class="notehead" class="notehead"><use href="#E0A4-p1vtuw0b" transform="translate(7220, 1260) scale(0.72, 0.72)"/></g><g data-id="hyepcue" data-class="stem" class="stem"><path d="M7437 1232 L7437 693" stroke-width="18"/></g></g><g data-id="z1pfs727" data-class="note" class="note"><g data-class="notehead" class="notehead"><use href="#E0A4-p1vtuw0b" transform="translate(7536, 1530) scale(0.72, 0.72)"/></g><g data-id="i1w5wob8" data-class="stem" class="stem"><path d="M7753 1502 L7753 693" stroke-width="18"/></g></g></g><g data-id="j7z0smh" data-class="beam" class="beam"><polygon stroke-opacity="1" fill-opacity="1" points="8060,675 9658,675 9658,765 8060,765"/><polygon stroke-opacity="1" fill-opacity="1" points="8060,810 8385,810 8385,900 8060,900"/><polygon stroke-opacity="1" fill-opacity="1" points="8385,810 8701,810 8701,900 8385,900"/><polygon stroke-opacity="1" fill-opacity="1" points="8701,810 9017,810 9017,900 8701,900"/><polygon stroke-opacity="1" fill-opacity="1" points="9017,810 9333,810 9333,900 9017,900"/><polygon stroke-opacity="1" fill-opacity="1" points="9333,810 9658,810 9658,900 9333,900"/><g data-id="a1vtcynw" data-class="note" class="note"><g data-class="notehead" class="notehead"><use href="#E0A4-p1vtuw0b" transform="translate(7852, 1260) scale(0.72, 0.72)"/></g><g data-id="jlu5x01" data-class="stem" class="stem"><path d="M8069 1232 L8069 693" stroke-width="18"/></g></g><g data-id="bjqc6hf" data-class="note" class="note"><g data-class="notehead" class="notehead"><use href="#E0A4-p1vtuw0b" transform="translate(8168, 1530) scale(0.72, 0.72)"/></g><g data-id="kvg0wrq" data-class="stem" class="stem"><path d="M8385 1502 L8385 693" stroke-width="18"/></g></g><g data-id="c1cte24n" data-class="note" class="note"><g data-class="notehead" class="notehead"><use href="#E0A4-p1vtuw0b" transform="translate(8484, 1260) scale(0.72, 0.72)"/></g><g data-id="l1lwcntd" data-class="stem" class="stem"><path d="M8701 1232 L8701 693" stroke-width="18"/></g></g><g data-id="dc100pl" data-class="note" class="note"><g data-class="notehead" class="notehead"><use href="#E0A4-p1vtuw0b" transform="translate(8800, 1530) scale(0.72, 0.72)"/></g><g data-id="m1ktuem5" data-class="stem" class="stem"><path d="M9017 1502 L9017 693" stroke-width="18"/></g></g><g data-id="e1sxwc0i" data-class="note" class="note"><g data-class="notehead" class="notehead"><use href="#E0A4-p1vtuw0b" transform="translate(9116, 1260) scale(0.72, 0.72)"/></g><g data-id="n1t32hxg" data-class="stem" class="stem"><path d="M9333 1232 L9333 693" stroke-width="18"/></g></g><g data-id="f9oseez" data-class="note" class="note"><g data-class="notehead" class="notehead"><use href="#E0A4-p1vtuw0b" transform="translate(9432, 1530) scale(0.72, 0.72)"/></g><g data-id="opnsi9n" data-class="stem" class="stem"><path d="M9649 1502 L9649 693" stroke-width="18"/></g></g></g></g></g><g data-id="hbjqjv9" data-class="barLine" class="barLine"><path d="M9762 540 L9762 1260" stroke-width="27"/></g></g><g data-id="l1ht3flt" data-class="systemMilestoneEnd" class="systemMilestoneEnd ohdy5ca"/></g><g data-id="mymz39p" data-class="pageMilestoneEnd" class="pageMilestoneEnd m18o8pqx"/><g data-id="n12qyp1m" data-class="pageMilestoneEnd" class="pageMilestoneEnd l1rc6g7d"/></g></svg></svg>