<svg viewBox="0 0 560 84" version="1.1" xmlns="http://www.w3.org/2000/svg" xmlns:xlink="http://www.w3.org/1999/xlink" overflow="visible" id="q12hwm7j"><desc>Engraved by Verovio 5.6.0-85e7620</desc><defs><g id="E050-q12hwm7j"><path transform="scale(1,-1)" d="M441 -245c-23 -4 -48 -6 -76 -6c-59 0 -102 7 -130 20c-88 42 -150 93 -187 154c-26 44 -43 103 -48 176c0 6 -1 13 -1 19c0 54 15 111 45 170c29 57 65 106 110 148s96 85 153 127c-3 16 -8 46 -13 92c-4 43 -5 73 -5 89c0 117 16 172 69 257c34 54 64 82 89 82 c21 0 43 -30 69 -92s39 -115 41 -159v-15c0 -109 -21 -162 -67 -241c-13 -20 -63 -90 -98 -118c-13 -9 -25 -19 -37 -29l31 -181c8 1 18 2 28 2c58 0 102 -12 133 -35c59 -43 92 -104 98 -184c1 -7 1 -15 1 -22c0 -123 -87 -209 -181 -248c8 -57 17 -110 25 -162 c5 -31 6 -58 6 -80c0 -30 -5 -53 -14 -70c-35 -64 -88 -99 -158 -103c-5 0 -11 -1 -16 -1c-37 0 -72 10 -108 27c-50 24 -77 59 -80 105v11c0 29 7 55 20 76c18 28 45 42 79 44h6c49 0 93 -42 97 -87v-9c0 -51 -34 -86 -105 -106c17 -24 51 -36 102 -36c62 0 116 43 140 85 c9 16 13 41 13 74c0 20 -1 42 -5 67c-8 53 -18 106 -26 159zM461 939c-95 0 -135 -175 -135 -286c0 -24 2 -48 5 -71c50 39 92 82 127 128c40 53 60 100 60 140v8c-4 53 -22 81 -55 81h-2zM406 119l54 -326c73 25 110 78 110 161c0 7 0 15 -1 23c-7 95 -57 142 -151 142h-12 zM382 117c-72 -2 -128 -47 -128 -120v-7c2 -46 43 -99 75 -115c-3 -2 -7 -5 -10 -10c-70 33 -116 88 -123 172v11c0 68 44 126 88 159c23 17 49 29 78 36l-29 170c-21 -13 -52 -37 -92 -73c-50 -44 -86 -84 -109 -119c-45 -69 -67 -130 -67 -182v-13c5 -68 35 -127 93 -176 s125 -73 203 -73c25 0 50 3 75 9c-19 111 -36 221 -54 331z"/></g><g id="E260-q12hwm7j"><path transform="scale(1,-1)" d="M20 110c32 16 54 27 93 27c26 0 35 -3 54 -13c13 -7 24 -20 27 -38l4 -25c0 -28 -16 -57 -45 -89c-23 -25 -39 -44 -65 -68l-88 -79v644h20v-359zM90 106c-32 0 -48 -10 -70 -29v-194c31 31 54 59 71 84c21 32 32 59 32 84c0 9 1 16 1 20c0 14 -3 21 -11 30l-8 3z"/></g><g id="E08B-q12hwm7j"><path transform="scale(1,-1)" d="M188 200c-42 -22 -63 -69 -63 -141v-119c0 -39 7 -70 19 -94s26 -40 44 -48v402zM0 -0c0 127 80 220 186 246v72h32l-6 -72c33 0 71 0 101 -11c54 -20 102 -65 102 -135c0 -16 -4 -30 -13 -43s-20 -24 -32 -29l-20 -8l-23 -3c-22 2 -41 8 -55 21s-21 31 -26 51 c0 38 45 80 79 80c12 0 19 3 19 10c0 6 -6 12 -15 18c-19 13 -47 24 -79 24c-10 0 -20 -1 -32 -5v-431c15 -3 12 -4 30 -4c57 0 100 51 121 93l17 39c3 13 5 25 5 35h26c-6 -70 -28 -121 -66 -152s-82 -47 -133 -47v-68h-30v72c-57 10 -122 54 -153 109c-7 12 -13 26 -19 42 c-11 29 -16 61 -16 96z"/></g><g id="E0A2-q12hwm7j"><path transform="scale(1,-1)" d="M198 133c102 0 207 -45 207 -133c0 -92 -118 -133 -227 -133c-101 0 -178 46 -178 133c0 88 93 133 198 133zM293 -21c0 14 -3 29 -8 44c-7 20 -18 38 -33 54c-20 21 -43 31 -68 31l-20 -2c-15 -5 -27 -14 -36 -28c-4 -9 -6 -17 -8 -24s-3 -16 -3 -27c0 -15 3 -34 9 -57 s18 -41 34 -55c15 -15 36 -23 62 -23c4 0 10 1 18 2c19 5 32 15 40 30s13 34 13 55z"/></g><g id="E0A3-q12hwm7j"><path transform="scale(1,-1)" d="M278 64c0 22 -17 39 -43 39c-12 0 -26 -3 -41 -10c-85 -43 -165 -94 -165 -156c5 -25 15 -32 49 -32c67 11 200 95 200 159zM0 -36c0 68 73 174 200 174c66 0 114 -39 114 -97c0 -84 -106 -173 -218 -173c-64 0 -96 32 -96 96z"/></g><g id="E0A4-q12hwm7j"><path transform="scale(1,-1)" d="M0 -39c0 68 73 172 200 172c66 0 114 -37 114 -95c0 -84 -106 -171 -218 -171c-64 0 -96 30 -96 94z"/></g><g id="E240-q12hwm7j"><path transform="scale(1,-1)" d="M179 -646c15 29 29 55 46 102c18 49 30 108 30 138c0 105 -80 173 -168 200c-18 5 -47 9 -87 16v190h22c8 0 33 -61 71 -95c4 -3 -2 3 61 -56c62 -58 122 -137 122 -241c0 -38 -13 -106 -35 -163c-20 -51 -43 -99 -66 -132c-6 -5 -10 -7 -13 -7s-5 2 -5 5l4 10 c1 3 14 25 18 33z"/></g></defs><style type="text/css">#q12hwm7j g.page-margin {font-family:Times,serif;}#q12hwm7j g.ending, #q12hwm7j g.fing, #q12hwm7j g.reh, #q12hwm7j g.tempo {font-weight:bold;}#q12hwm7j g.dir, #q12hwm7j g.dynam, #q12hwm7j g.mNum {font-style:italic;}#q12hwm7j g.label {font-weight:normal;}#q12hwm7j path {stroke:currentColor}</style><svg class="definition-scale" color="black" viewBox="0 0 14000 2100"><g class="page-margin" transform="translate(0, 150)"><g data-id="m10yuhlq" data-class="mdiv" class="mdiv pageMilestone"/><g data-id="n1jih89g" data-class="score" class="score pageMilestone"/><g data-id="d1cp1q0" data-class="system" class="system"><g data-id="psd4w63" data-class="section" class="section systemMilestone"/><g data-id="r1ea2ips" data-class="measure" class="measure"><g data-id="bb0uv9" data-class="staff" class="staff"><path d="M0 540 L3707 540" stroke-width="13"/><path d="M0 720 L3707 720" stroke-width="13"/><path d="M0 900 L3707 900" stroke-width="13"/><path d="M0 1080 L3707 1080" stroke-width="13"/><path d="M0 1260 L3707 1260" stroke-width="13"/><g data-id="h1d4vfu9" data-class="clef" class="clef"><use href="#E050-q12hwm7j" transform="translate(90, 1080) scale(0.72, 0.72)"/></g><g data-id="i1x7p7tf" data-class="keySig" class="keySig"><g data-id="j1j3aoqk" data-class="keyAccid" class="keyAccid"><use href="#E260-q12hwm7j" transform="translate(735, 900) scale(0.72, 0.72)"/></g><g data-id="kn46ws9" data-class="keyAccid" class="keyAccid"><use href="#E260-q12hwm7j" transform="translate(915, 630) scale(0.72, 0.72)"/></g><g data-id="l181j6t2" data-class="keyAccid" class="keyAccid"><use href="#E260-q12hwm7j" transform="translate(1095, 990) scale(0.72, 0.72)"/></g></g><g data-id="mcwk688" data-class="meterSig" class="meterSig"><use href="#E08B-q12hwm7j" transform="translate(1417, 900) scale(0.72, 0.72)"/></g><g data-id="c4z7prl" data-class="layer" class="layer"><g data-id="lbxg14v" data-class="note" class="note"><g data-class="notehead" class="notehead"><use href="#E0A2-q12hwm7j" transform="translate(1997, 1260) scale(0.72, 0.72)"/></g><g data-id="btay70a" data-class="accid" class="accid"/></g></g></g><g data-id="zpeptbu" data-class="barLine" class="barLine"><path d="M3694 540 L3694 1260" stroke-width="27"/></g></g><g data-id="ahzerim" data-class="measure" class="measure"><g data-id="d1hxof9j" data-class="staff" class="staff"><path d="M3707 540 L6508 540" stroke-width="13"/><path d="M3707 720 L6508 720" stroke-width="13"/><path d="M3707 900 L6508 900" stroke-width="13"/><path d="M3707 1080 L6508 1080" stroke-width="13"/><path d="M3707 1260 L6508 1260" stroke-width="13"/><g data-id="e14p05mw" data-class="layer" class="layer"><g data-id="mweyc8l" data-class="note" class="note"><g data-class="notehead" class="notehead"><use href="#E0A3-q12hwm7j" transform="translate(3897, 900) scale(0.72, 0.72)"/></g><g data-id="f1b3r7n" data-class="stem" class="stem"><path d="M3906 925 L3906 1500" stroke-width="18"/></g><g data-id="cs78suz" data-class="accid" class="accid"/></g><g data-id="n15w1fv2" data-class="note" class="note"><g data-class="notehead" class="notehead"><use href="#E0A4-q12hwm7j" transform="translate(5018, 990) scale(0.72, 0.72)"/></g><g data-id="h9aou8n" data-class="dots" class="dots"><ellipse cx="5334" cy="990" rx="36" ry="36" fill-opacity="1" stroke-opacity="1"/></g><g data-id="g1qavd81" data-class="stem" class="stem"><path d="M5235 962 L5235 360" stroke-width="18"/></g><g data-id="dvymkhk" data-class="accid" class="accid"/></g><g data-id="onyav6o" data-class="note" class="note"><g data-class="notehead" class="notehead"><use href="#E0A4-q12hwm7j" transform="translate(5957, 990) scale(0.72, 0.72)"/></g><g data-id="i147n6pt" data-class="stem" class="stem"><path d="M6174 962 L6174 360" stroke-width="18"/><g data-id="j4tlr4p" data-class="flag" class="flag"><use href="#E240-q12hwm7j" transform="translate(6165, 360) scale(0.72, 0.72)"/></g></g><g data-id="e1pnyo8u" data-class="accid" class="accid"/></g></g></g><g data-id="i1a9858e" data-class="barLine" class="barLine"><path d="M6495 540 L6495 1260" stroke-width="27"/></g></g><g data-id="jhwsm3q" data-class="measure" class="measure"><g data-id="f1a60vfk" data-class="staff" class="staff"><path d="M6508 540 L8408 540" stroke-width="13"/><path d="M6508 720 L8408 720" stroke-width="13"/><path d="M6508 900 L8408 900" stroke-width="13"/><path d="M6508 1080 L8408 1080" stroke-width="13"/><path d="M6508 1260 L8408 1260" stroke-width="13"/><g data-id="g1lqgnu0" data-class="layer" class="layer"><g data-id="p14ik5t0" data-class="note" class="note"><g data-class="notehead" class="notehead"><use href="#E0A2-q12hwm7j" transform="translate(6698, 1080) scale(0.72, 0.72)"/></g></g></g></g><g data-id="a1u1frrf" data-class="tie" class="tie"><path d="M7033,1125 C7417,1230 8168,1230 8553,1125 C8176,1278 7409,1278 7033,1125" stroke-linecap="round" stroke-linejoin="round" stroke-width="9"/></g><g data-id="rsmw9g2" data-class="barLine" class="barLine"><path d="M8395 540 L8395 1260" stroke-width="27"/></g></g><g data-id="shw6a6s" data-class="measure" class="measure"><g data-id="h158gi9a" data-class="staff" class="staff"><path d="M8408 540 L11205 540" stroke-width="13"/><path d="M8408 720 L11205 720" stroke-width="13"/><path d="M8408 900 L11205 900" stroke-width="13"/><path d="M8408 1080 L11205 1080" stroke-width="13"/><path d="M8408 1260 L11205 1260" stroke-width="13"/><g data-id="i16o8b1j" data-class="layer" class="layer"><g data-id="q1y7q83z" data-class="note" class="note"><g data-class="notehead" class="notehead"><use href="#E0A3-q12hwm7j" transform="translate(8598, 1080) scale(0.72, 0.72)"/></g><g data-id="l1n6hbfi" data-class="stem" class="stem"><path d="M8815 1052 L8815 450" stroke-width="18"/></g></g><g data-id="ra9v3qr" data-class="note" class="note"><g data-class="notehead" class="notehead"><use href="#E0A4-q12hwm7j" transform="translate(9719, 900) scale(0.72, 0.72)"/></g><g data-id="mu3w74j" data-class="stem" class="stem"><path d="M9728 928 L9728 1500" stroke-width="18"/></g><g data-id="f1mau6k1" data-class="accid" class="accid"/></g><g data-id="s1xzh1go" data-class="note" class="note"><g data-class="notehead" class="notehead"><use href="#E0A4-q12hwm7j" transform="translate(10456, 900) scale(0.72, 0.72)"/></g><g data-id="n9873h3" data-class="stem" class="stem"><path d="M10465 928 L10465 1500" stroke-width="18"/></g><g data-id="g1y5x8qr" data-class="accid" class="accid"/></g></g></g><g data-id="actknvz" data-class="barLine" class="barLine"><path d="M11192 540 L11192 1260" stroke-width="27"/></g></g><g data-id="b1i1n33b" data-class="measure" class="measure"><g data-id="j1fi842z" data-class="staff" class="staff"><path d="M11205 540 L14002 540" stroke-width="13"/><path d="M11205 720 L14002 720" stroke-width="13"/><path d="M11205 900 L14002 900" stroke-width="13"/><path d="M11205 1080 L14002 1080" stroke-width="13"/><path d="M11205 1260 L14002 1260" stroke-width="13"/><g data-id="k1serwzi" data-class="layer" class="layer"><g data-id="t14gmmrj" data-class="note" class="note"><g data-class="notehead" class="notehead"><use href="#E0A3-q12hwm7j" transform="translate(11395, 990) scale(0.72, 0.72)"/></g><g data-id="o1cq11sp" data-class="stem" class="stem"><path d="M11612 962 L11612 360" stroke-width="18"/></g><g data-id="h1tcb501" data-class="accid" class="accid"/></g><g data-id="u17y7kv9" data-class="note" class="note"><g data-class="notehead" class="notehead"><use href="#E0A4-q12hwm7j" transform="translate(12516, 1080) scale(0.72, 0.72)"/></g><g data-id="p11h90qq" data-class="stem" class="stem"><path d="M12733 1052 L12733 450" stroke-width="18"/></g></g><g data-id="vnbdjxn" data-class="note" class="note"><g data-class="notehead" class="notehead"><use href="#E0A4-q12hwm7j" transform="translate(13253, 990) scale(0.72, 0.72)"/></g><g data-id="qeq1355" data-class="stem" class="stem"><path d="M13470 962 L13470 360" stroke-width="18"/></g><g data-id="i1hp4ox5" data-class="accid" class="accid"/></g></g></g><g data-id="j9zzcwr" data-class="barLine" class="barLine"><path d="M13989 540 L13989 1260" stroke-width="27"/></g></g></g></g></svg></svg>