<svg viewBox="0 0 560 84" version="1.1" xmlns="http://www.w3.org/2000/svg" xmlns:xlink="http://www.w3.org/1999/xlink" overflow="visible" id="a1edipy6"><desc>Engraved by Verovio 5.6.0-85e7620</desc><defs><g id="E062-a1edipy6"><path transform="scale(1,-1)" d="M582 -120c0 32 26 58 58 58s58 -26 58 -58s-26 -58 -58 -58s-58 26 -58 58zM582 120c0 32 26 58 58 58s58 -26 58 -58s-26 -58 -58 -58s-58 26 -58 58zM158 96c51 0 73 -14 88 -49l16 -39c0 -17 -2 -30 -7 -40c-3 -11 -10 -21 -19 -31c-17 -18 -49 -43 -84 -43 c-55 0 -77 13 -112 44c-24 21 -35 55 -35 100c0 46 14 81 32 112c30 52 71 79 137 93l36 6l26 2c154 0 235 -68 274 -182c11 -32 18 -68 18 -107c0 -103 -26 -182 -68 -250c-89 -145 -234 -230 -412 -288l-30 -5c-9 0 -14 3 -14 8c3 10 5 11 10 16c35 15 70 30 96 44l78 43 c96 57 162 136 197 258c9 33 17 60 22 100c3 22 5 35 6 39c-7 69 -16 115 -23 140s-4 22 -16 40c-8 12 -19 23 -31 34c-24 21 -62 44 -118 44c-48 0 -84 -8 -113 -28c-28 -19 -42 -44 -42 -73v-16c2 -5 3 -9 4 -11c24 22 52 39 84 39z"/></g><g id="E260-a1edipy6"><path transform="scale(1,-1)" d="M20 110c32 16 54 27 93 27c26 0 35 -3 54 -13c13 -7 24 -20 27 -38l4 -25c0 -28 -16 -57 -45 -89c-23 -25 -39 -44 -65 -68l-88 -79v644h20v-359zM90 106c-32 0 -48 -10 -70 -29v-194c31 31 54 59 71 84c21 32 32 59 32 84c0 9 1 16 1 20c0 14 -3 21 -11 30l-8 3z"/></g><g id="E089-a1edipy6"><path transform="scale(1,-1)" d="M139 107c0 -51 22 -104 66 -104c38 0 64 48 64 110c0 50 -31 100 -64 100c-40 0 -66 -56 -66 -106zM114 -74c40 0 72 -27 72 -65c0 -8 -3 -19 -9 -34l-7 -16l-5 -15c2 -8 12 -12 31 -12c56 0 84 73 84 219c-32 -24 -71 -36 -119 -36c-29 0 -56 6 -79 20 c-51 26 -57 78 -62 108c0 64 56 155 188 155c158 0 197 -151 197 -237c0 -145 -92 -263 -207 -263c-109 0 -155 68 -155 101c0 46 33 75 71 75z"/></g><g id="E088-a1edipy6"><path transform="scale(1,-1)" d="M195 -214c76 0 88 58 90 68c0 34 -35 60 -57 73l-52 29c-21 10 -32 17 -34 20c-39 -33 -58 -54 -62 -92c5 -23 23 -98 115 -98zM301 135c0 61 -72 76 -113 76c-40 0 -77 -17 -77 -51c3 -21 15 -38 26 -50c17 -15 33 -26 48 -34l65 -28c34 27 51 56 51 87zM176 -250 c-57 0 -166 26 -166 132c0 47 30 86 89 116c-33 15 -79 60 -79 119c0 79 85 132 178 132h18c5 0 21 1 28 -1c25 0 126 -30 126 -110c0 -37 -23 -76 -69 -116c43 -25 83 -71 83 -119c0 -101 -118 -153 -208 -153z"/></g><g id="E0A4-a1edipy6"><path transform="scale(1,-1)" d="M0 -39c0 68 73 172 200 172c66 0 114 -37 114 -95c0 -84 -106 -171 -218 -171c-64 0 -96 30 -96 94z"/></g><g id="E07A-a1edipy6"><path transform="scale(1,-1)" d="M343 -190c-18 -3 -37 -5 -59 -5c-46 0 -79 6 -101 16c-68 33 -117 72 -146 119c-20 34 -33 80 -37 137c0 5 -1 10 -1 15c0 42 12 86 35 132c23 44 51 82 86 115s75 65 119 98c-2 12 -7 36 -11 72c-3 33 -3 57 -3 69c0 91 12 134 53 200c26 42 50 63 69 63 c16 0 34 -23 54 -71s30 -90 32 -124v-11c0 -85 -16 -126 -52 -187c-10 -16 -49 -70 -76 -92c-10 -7 -20 -15 -29 -23l24 -140c6 1 14 1 22 1c45 0 79 -9 103 -27c46 -33 71 -81 76 -143c1 -5 1 -12 1 -17c0 -96 -68 -163 -141 -193c6 -44 14 -86 20 -126c4 -24 4 -45 4 -62 c0 -23 -3 -41 -10 -54c-27 -50 -69 -77 -123 -80c-4 0 -9 -1 -13 -1c-29 0 -56 8 -84 21c-39 19 -60 46 -62 82v8c0 23 6 43 16 59c14 22 35 32 61 34h5c38 0 72 -32 75 -67v-7c0 -40 -26 -67 -81 -83c13 -19 39 -28 79 -28c48 0 90 34 109 67c7 12 10 31 10 57 c0 16 -1 33 -4 52c-6 41 -14 83 -20 124zM358 730c-74 0 -105 -137 -105 -223c0 -19 2 -37 4 -55c39 30 72 64 99 100c31 41 46 77 46 108v7c-3 41 -16 63 -42 63h-2zM315 92l42 -253c57 19 86 61 86 125c0 5 0 12 -1 18c-5 74 -44 110 -117 110h-10zM297 91 c-56 -2 -100 -36 -100 -93v-6c2 -36 34 -77 59 -89c-2 -2 -6 -4 -8 -8c-54 26 -91 69 -96 134v8c0 53 35 98 69 124c18 13 37 23 60 28l-22 132c-16 -10 -41 -29 -72 -57c-39 -34 -66 -65 -84 -92c-35 -54 -52 -102 -52 -142v-10c4 -53 27 -99 72 -137s96 -56 157 -56 c19 0 40 2 59 7c-15 86 -28 172 -42 257z"/></g></defs><style type="text/css">#a1edipy6 g.page-margin {font-family:Times,serif;}#a1edipy6 g.ending, #a1edipy6 g.fing, #a1edipy6 g.reh, #a1edipy6 g.tempo {font-weight:bold;}#a1edipy6 g.dir, #a1edipy6 g.dynam, #a1edipy6 g.mNum {font-style:italic;}#a1edipy6 g.label {font-weight:normal;}#a1edipy6 path {stroke:currentColor}</style><svg class="definition-scale" color="black" viewBox="0 0 14000 2100"><g class="page-margin" transform="translate(0, 150)"><g data-id="f1tc5pt9" data-class="mdiv" class="mdiv pageMilestone"/><g data-id="gfa6l8w" data-class="score" class="score pageMilestone"/><g data-id="vd3xtku" data-class="system" class="system"><g data-id="i1twk4vx" data-class="section" class="section systemMilestone"/><g data-id="b1gtolkq" data-class="measure" class="measure"><g data-id="uci54ur" data-class="staff" class="staff"><path d="M0 540 L6866 540" stroke-width="13"/><path d="M0 720 L6866 720" stroke-width="13"/><path d="M0 900 L6866 900" stroke-width="13"/><path d="M0 1080 L6866 1080" stroke-width="13"/><path d="M0 1260 L6866 1260" stroke-width="13"/><g data-id="coqm0cs" data-class="clef" class="clef"><use href="#E062-a1edipy6" transform="translate(88, 720) scale(0.72, 0.72)"/></g><g data-id="darwzsy" data-class="keySig" class="keySig"><g data-id="ev43wr7" data-class="keyAccid" class="keyAccid"><use href="#E260-a1edipy6" transform="translate(769, 1080) scale(0.72, 0.72)"/></g><g data-id="flwwt82" data-class="keyAccid" class="keyAccid"><use href="#E260-a1edipy6" transform="translate(949, 810) scale(0.72, 0.72)"/></g></g><g data-id="g1cjjwjg" data-class="meterSig" class="meterSig"><use href="#E089-a1edipy6" transform="translate(1257, 720) scale(0.72, 0.72)"/><use href="#E088-a1edipy6" transform="translate(1265, 1080) scale(0.72, 0.72)"/></g><g data-id="v1yn1wa2" data-class="layer" class="layer"><g data-id="xl3mpop" data-class="beam" class="beam"><polygon stroke-opacity="1" fill-opacity="1" points="1818,1710 2468,1530 2468,1440 1818,1620"/><polygon stroke-opacity="1" fill-opacity="1" points="1818,1575 2143,1485 2143,1395 1818,1485"/><polygon stroke-opacity="1" fill-opacity="1" points="2143,1485 2468,1395 2468,1305 2143,1395"/><g data-id="l1ow76p1" data-class="note" class="note"><g data-class="notehead" class="notehead"><use href="#E0A4-a1edipy6" transform="translate(1818, 1080) scale(0.72, 0.72)"/></g><g data-id="i1mt9gog" data-class="stem" class="stem"><path d="M1827 1108 L1827 1692" stroke-width="18"/></g><g data-id="bjva1wv" data-class="accid" class="accid"/></g><g data-id="m1r4npz4" data-class="note" class="note"><g data-class="notehead" class="notehead"><use href="#E0A4-a1edipy6" transform="translate(2134, 720) scale(0.72, 0.72)"/></g><g data-id="j1bgs5cn" data-class="stem" class="stem"><path d="M2143 748 L2143 1602" stroke-width="18"/></g></g><g data-id="nswrc3e" data-class="note" class="note"><g data-class="notehead" class="notehead"><use href="#E0A4-a1edipy6" transform="translate(2450, 450) scale(0.72, 0.72)"/></g><g data-id="k3vs1kz" data-class="stem" class="stem"><path d="M2459 478 L2459 1512" stroke-width="18"/></g><g data-id="c17az7yx" data-class="accid" class="accid"/></g></g><g data-id="k3xcsbg" data-class="clef" class="clef"><use href="#E07A-a1edipy6" transform="translate(2766, 1080) scale(0.72, 0.72)"/></g><g data-id="ytxf6ow" data-class="beam" class="beam"><polygon stroke-opacity="1" fill-opacity="1" points="3426,450 4076,270 4076,360 3426,540"/><polygon stroke-opacity="1" fill-opacity="1" points="3426,585 3751,495 3751,585 3426,675"/><polygon stroke-opacity="1" fill-opacity="1" points="3751,495 4076,405 4076,495 3751,585"/><g data-id="o1rppl0e" data-class="note" class="note"><g data-class="notehead" class="notehead"><use href="#E0A4-a1edipy6" transform="translate(3218, 1350) scale(0.72, 0.72)"/></g><g data-id="laq8w5w" data-class="stem" class="stem"><path d="M3435 1322 L3435 468" stroke-width="18"/></g></g><g data-id="p97kag8" data-class="note" class="note"><g data-class="notehead" class="notehead"><use href="#E0A4-a1edipy6" transform="translate(3534, 1170) scale(0.72, 0.72)"/></g><g data-id="md4wx8w" data-class="stem" class="stem"><path d="M3751 1142 L3751 378" stroke-width="18"/></g></g><g data-id="qb64vl0" data-class="note" class="note"><g data-class="notehead" class="notehead"><use href="#E0A4-a1edipy6" transform="translate(3850, 900) scale(0.72, 0.72)"/></g><g data-id="n2t7i35" data-class="stem" class="stem"><path d="M4067 872 L4067 288" stroke-width="18"/></g><g data-id="d9g1tgi" data-class="accid" class="accid"/></g></g><g data-id="z1vekokl" data-class="beam" class="beam"><polygon stroke-opacity="1" fill-opacity="1" points="4374,180 5292,360 5292,450 4374,270"/><g data-id="r1h7cyoe" data-class="note" class="note"><g data-class="notehead" class="notehead"><use href="#E0A4-a1edipy6" transform="translate(4166, 720) scale(0.72, 0.72)"/></g><g data-id="ocu3r5g" data-class="stem" class="stem"><path d="M4383 692 L4383 198" stroke-width="18"/></g></g><g data-id="s1os87g8" data-class="note" class="note"><g data-class="notehead" class="notehead"><use href="#E0A4-a1edipy6" transform="translate(4616, 1170) scale(0.72, 0.72)"/></g><g data-id="p1nr2zlc" data-class="stem" class="stem"><path d="M4833 1142 L4833 288" stroke-width="18"/></g></g><g data-id="t1jji7km" data-class="note" class="note"><g data-class="notehead" class="notehead"><use href="#E0A4-a1edipy6" transform="translate(5066, 1170) scale(0.72, 0.72)"/></g><g data-id="q1qlcob4" data-class="stem" class="stem"><path d="M5283 1142 L5283 378" stroke-width="18"/></g></g></g><g data-id="a1wu1w21" data-class="beam" class="beam"><polygon stroke-opacity="1" fill-opacity="1" points="5724,540 6642,540 6642,630 5724,630"/><g data-id="u1gk0bvq" data-class="note" class="note"><g data-class="notehead" class="notehead"><use href="#E0A4-a1edipy6" transform="translate(5516, 1170) scale(0.72, 0.72)"/></g><g data-id="r1bci5ao" data-class="stem" class="stem"><path d="M5733 1142 L5733 558" stroke-width="18"/></g></g><g data-id="v1b57uk" data-class="note" class="note"><g data-class="notehead" class="notehead"><use href="#E0A4-a1edipy6" transform="translate(5966, 1170) scale(0.72, 0.72)"/></g><g data-id="sm4qt8" data-class="stem" class="stem"><path d="M6183 1142 L6183 558" stroke-width="18"/></g></g><g data-id="wj5kp3f" data-class="note" class="note"><g data-class="notehead" class="notehead"><use href="#E0A4-a1edipy6" transform="translate(6416, 1170) scale(0.72, 0.72)"/></g><g data-id="t11xunew" data-class="stem" class="stem"><path d="M6633 1142 L6633 558" stroke-width="18"/></g></g></g></g></g><g data-id="j1jnu8f5" data-class="barLine" class="barLine"/></g><g data-id="d2ffhn2" data-class="systemMilestoneEnd" class="systemMilestoneEnd i1twk4vx"/></g><g data-id="eh0fqi9" data-class="pageMilestoneEnd" class="pageMilestoneEnd gfa6l8w"/><g data-id="ficyxfo" data-class="pageMilestoneEnd" class="pageMilestoneEnd f1tc5pt9"/></g></svg></svg>