<svg viewBox="0 0 560 88" version="1.1" xmlns="http://www.w3.org/2000/svg" xmlns:xlink="http://www.w3.org/1999/xlink" overflow="visible" id="kt3nown"><desc>Engraved by Verovio 5.6.0-85e7620</desc><defs><g id="E062-kt3nown"><path transform="scale(1,-1)" d="M582 -120c0 32 26 58 58 58s58 -26 58 -58s-26 -58 -58 -58s-58 26 -58 58zM582 120c0 32 26 58 58 58s58 -26 58 -58s-26 -58 -58 -58s-58 26 -58 58zM158 96c51 0 73 -14 88 -49l16 -39c0 -17 -2 -30 -7 -40c-3 -11 -10 -21 -19 -31c-17 -18 -49 -43 -84 -43 c-55 0 -77 13 -112 44c-24 21 -35 55 -35 100c0 46 14 81 32 112c30 52 71 79 137 93l36 6l26 2c154 0 235 -68 274 -182c11 -32 18 -68 18 -107c0 -103 -26 -182 -68 -250c-89 -145 -234 -230 -412 -288l-30 -5c-9 0 -14 3 -14 8c3 10 5 11 10 16c35 15 70 30 96 44l78 43 c96 57 162 136 197 258c9 33 17 60 22 100c3 22 5 35 6 39c-7 69 -16 115 -23 140s-4 22 -16 40c-8 12 -19 23 -31 34c-24 21 -62 44 -118 44c-48 0 -84 -8 -113 -28c-28 -19 -42 -44 -42 -73v-16c2 -5 3 -9 4 -11c24 22 52 39 84 39z"/></g><g id="E260-kt3nown"><path transform="scale(1,-1)" d="M20 110c32 16 54 27 93 27c26 0 35 -3 54 -13c13 -7 24 -20 27 -38l4 -25c0 -28 -16 -57 -45 -89c-23 -25 -39 -44 -65 -68l-88 -79v644h20v-359zM90 106c-32 0 -48 -10 -70 -29v-194c31 31 54 59 71 84c21 32 32 59 32 84c0 9 1 16 1 20c0 14 -3 21 -11 30l-8 3z"/></g><g id="E082-kt3nown"><path transform="scale(1,-1)" d="M124 -185c-18 0 -55 -14 -65 -65h-36l-3 30c0 25 6 45 18 63c11 19 22 30 39 43l121 82l37 29c15 11 27 29 38 54c12 24 18 47 18 70c0 40 -19 88 -94 88c-25 0 -32 0 -50 -8c-14 -5 -23 -12 -26 -22c3 -9 7 -15 10 -18l24 -17c12 -7 17 -11 27 -21c5 -7 7 -16 7 -27 c0 -12 0 -57 -79 -74c-30 0 -76 26 -76 94c0 66 81 135 197 135c72 0 181 -32 181 -150c0 -53 -32 -95 -113 -133l-91 -41c-26 -11 -45 -23 -57 -37l49 7c84 0 115 -41 148 -41c20 0 33 20 39 61h35c0 -152 -68 -168 -114 -168c-17 0 -65 0 -79 7h10l-28 17 c-49 37 -69 40 -87 42z"/></g><g id="E084-kt3nown"><path transform="scale(1,-1)" d="M20 -78c84 97 114 180 134 329h170c-13 -32 -82 -132 -99 -151l-84 -97c-33 -36 -59 -63 -80 -81h162v102l127 123v-225h57v-39h-57v-34c0 -43 19 -65 57 -65v-34h-244v36c48 0 60 26 60 70v27h-203v39z"/></g><g id="E0A4-kt3nown"><path transform="scale(1,-1)" d="M0 -39c0 68 73 172 200 172c66 0 114 -37 114 -95c0 -84 -106 -171 -218 -171c-64 0 -96 30 -96 94z"/></g><g id="E07A-kt3nown"><path transform="scale(1,-1)" d="M343 -190c-18 -3 -37 -5 -59 -5c-46 0 -79 6 -101 16c-68 33 -117 72 -146 119c-20 34 -33 80 -37 137c0 5 -1 10 -1 15c0 42 12 86 35 132c23 44 51 82 86 115s75 65 119 98c-2 12 -7 36 -11 72c-3 33 -3 57 -3 69c0 91 12 134 53 200c26 42 50 63 69 63 c16 0 34 -23 54 -71s30 -90 32 -124v-11c0 -85 -16 -126 -52 -187c-10 -16 -49 -70 -76 -92c-10 -7 -20 -15 -29 -23l24 -140c6 1 14 1 22 1c45 0 79 -9 103 -27c46 -33 71 -81 76 -143c1 -5 1 -12 1 -17c0 -96 -68 -163 -141 -193c6 -44 14 -86 20 -126c4 -24 4 -45 4 -62 c0 -23 -3 -41 -10 -54c-27 -50 -69 -77 -123 -80c-4 0 -9 -1 -13 -1c-29 0 -56 8 -84 21c-39 19 -60 46 -62 82v8c0 23 6 43 16 59c14 22 35 32 61 34h5c38 0 72 -32 75 -67v-7c0 -40 -26 -67 -81 -83c13 -19 39 -28 79 -28c48 0 90 34 109 67c7 12 10 31 10 57 c0 16 -1 33 -4 52c-6 41 -14 83 -20 124zM358 730c-74 0 -105 -137 -105 -223c0 -19 2 -37 4 -55c39 30 72 64 99 100c31 41 46 77 46 108v7c-3 41 -16 63 -42 63h-2zM315 92l42 -253c57 19 86 61 86 125c0 5 0 12 -1 18c-5 74 -44 110 -117 110h-10zM297 91 c-56 -2 -100 -36 -100 -93v-6c2 -36 34 -77 59 -89c-2 -2 -6 -4 -8 -8c-54 26 -91 69 -96 134v8c0 53 35 98 69 124c18 13 37 23 60 28l-22 132c-16 -10 -41 -29 -72 -57c-39 -34 -66 -65 -84 -92c-35 -54 -52 -102 -52 -142v-10c4 -53 27 -99 72 -137s96 -56 157 -56 c19 0 40 2 59 7c-15 86 -28 172 -42 257z"/></g><g id="E07C-kt3nown"><path transform="scale(1,-1)" d="M509 -105c0 28 22 51 50 51s51 -23 51 -51s-23 -51 -51 -51s-50 23 -50 51zM509 105c0 28 22 51 50 51s51 -23 51 -51s-23 -51 -51 -51s-50 23 -50 51zM138 84c43 0 63 -11 77 -43l14 -34c0 -16 -2 -27 -6 -35c-2 -9 -8 -17 -17 -27c-22 -24 -49 -38 -73 -38 c-43 0 -63 8 -98 39c-20 18 -31 47 -31 87c0 34 9 65 28 98c26 45 62 69 120 81l32 6l22 1c125 0 203 -51 240 -159c10 -30 15 -61 15 -93c0 -83 -19 -154 -59 -219c-70 -115 -185 -194 -360 -251l-26 -5c-8 0 -13 3 -13 7c2 7 3 8 9 14c47 20 66 30 84 39l68 37 c89 53 143 125 172 226c13 48 17 60 20 87c3 19 4 31 5 34c-5 51 -12 95 -20 123c-8 30 -5 22 -14 35c-6 9 -14 17 -27 29c-29 26 -64 39 -103 39c-44 0 -75 -8 -99 -25c-24 -16 -37 -38 -37 -64v-14c2 -4 3 -7 4 -9c25 23 49 34 73 34z"/></g><g id="E883-kt3nown"><path transform="scale(1,-1)" d="M161 326c52 0 94 -17 94 -68c0 -50 -40 -76 -82 -94c26 -21 39 -42 39 -64c0 -52 -56 -100 -118 -100h-12c-40 0 -82 23 -82 56c0 30 12 49 37 49c17 0 31 -16 34 -31c0 -5 -4 -12 -11 -21c-7 -5 -13 -10 -13 -21l11 -9l17 -4c21 0 40 12 56 37c13 21 19 45 19 70 c-9 30 -28 35 -66 35l6 23c34 0 60 4 77 13c20 11 30 35 30 70c0 28 -12 38 -39 40l-20 -3c-8 -3 -12 -9 -12 -16c2 -7 4 -11 5 -14l4 -11l3 -10l-3 -12c-5 -6 -11 -11 -20 -13c-2 0 -4 -1 -6 -1c-16 0 -30 13 -30 28c0 39 43 71 82 71z"/></g></defs><style type="text/css">#kt3nown g.page-margin {font-family:Times,serif;}#kt3nown g.ending, #kt3nown g.fing, #kt3nown g.reh, #kt3nown g.tempo {font-weight:bold;}#kt3nown g.dir, #kt3nown g.dynam, #kt3nown g.mNum {font-style:italic;}#kt3nown g.label {font-weight:normal;}#kt3nown path {stroke:currentColor}</style><svg class="definition-scale" color="black" viewBox="0 0 14000 2200"><g class="page-margin" transform="translate(0, 150)"><g data-id="w1i7z1av" data-class="mdiv" class="mdiv pageMilestone"/><g data-id="x3udayg" data-class="score" class="score pageMilestone"/><g data-id="voj9nwj" data-class="system" class="system"><g data-id="z47mtll" data-class="section" class="section systemMilestone"/><g data-id="l1ll84nd" data-class="measure" class="measure"><g data-id="l1l96w9w" data-class="staff" class="staff"><path d="M0 647 L7367 647" stroke-width="13"/><path d="M0 827 L7367 827" stroke-width="13"/><path d="M0 1007 L7367 1007" stroke-width="13"/><path d="M0 1187 L7367 1187" stroke-width="13"/><path d="M0 1367 L7367 1367" stroke-width="13"/><g data-id="j1qv3v91" data-class="clef" class="clef"><use href="#E062-kt3nown" transform="translate(88, 827) scale(0.72, 0.72)"/></g><g data-id="kkim7cz" data-class="keySig" class="keySig"><g data-id="l1telrxq" data-class="keyAccid" class="keyAccid"><use href="#E260-kt3nown" transform="translate(769, 1187) scale(0.72, 0.72)"/></g></g><g data-id="m2e2fti" data-class="meterSig" class="meterSig"><use href="#E082-kt3nown" transform="translate(1077, 827) scale(0.72, 0.72)"/><use href="#E084-kt3nown" transform="translate(1082, 1187) scale(0.72, 0.72)"/></g><g data-class="ledgerLines" class="ledgerLines below"><g data-class="lineDash" class="lineDash" data-related="#k1fkca5r"><path d="M3149 1547 L3451 1547" stroke-width="22"/></g><g data-class="lineDash" class="lineDash" data-related="#l3abteg"><path d="M3492 1547 L3794 1547" stroke-width="22"/></g><g data-class="lineDash" class="lineDash" data-related="#q1g31ak6"><path d="M6270 1547 L6574 1547" stroke-width="22"/></g><g data-class="lineDash" class="lineDash" data-related="#r4tqr10"><path d="M6614 1547 L6918 1547" stroke-width="22"/></g><g data-class="lineDash" class="lineDash" data-related="#k1fkca5r"><path d="M3149 1727 L3451 1727" stroke-width="22"/></g><g data-class="lineDash" class="lineDash" data-related="#q1g31ak6"><path d="M6270 1727 L6574 1727" stroke-width="22"/></g></g><g data-id="mv7dauv" data-class="layer" class="layer"><g data-id="hthdunw" data-class="beam" class="beam"><polygon stroke-opacity="1" fill-opacity="1" points="1874,377 2578,197 2578,287 1874,467"/><polygon stroke-opacity="1" fill-opacity="1" points="1874,512 2226,422 2226,512 1874,602"/><polygon stroke-opacity="1" fill-opacity="1" points="2226,422 2578,332 2578,422 2226,512"/><g data-id="p16qox0h" data-class="tuplet" class="tuplet"><g data-id="g1d9zdby" data-class="tupletNum" class="tupletNum"><use href="#E883-kt3nown" transform="translate(2086, 234) scale(0.72, 0.72)"/></g><g data-id="h1fwwv6v" data-class="note" class="note"><g data-class="notehead" class="notehead"><use href="#E0A4-kt3nown" transform="translate(1666, 1457) scale(0.72, 0.72)"/></g><g data-id="hxyv35o" data-class="stem" class="stem"><path d="M1883 1429 L1883 395" stroke-width="18"/></g></g><g data-id="i1ezgyh7" data-class="note" class="note"><g data-class="notehead" class="notehead"><use href="#E0A4-kt3nown" transform="translate(2009, 1097) scale(0.72, 0.72)"/></g><g data-id="i147gdfr" data-class="stem" class="stem"><path d="M2226 1069 L2226 305" stroke-width="18"/></g></g><g data-id="j13wzkpv" data-class="note" class="note"><g data-class="notehead" class="notehead"><use href="#E0A4-kt3nown" transform="translate(2352, 827) scale(0.72, 0.72)"/></g><g data-id="j12py4bo" data-class="stem" class="stem"><path d="M2569 799 L2569 215" stroke-width="18"/></g></g></g></g><g data-id="u1w2qgb2" data-class="clef" class="clef"><use href="#E07A-kt3nown" transform="translate(2735, 1187) scale(0.72, 0.72)"/></g><g data-id="ier4sqd" data-class="beam" class="beam"><polygon stroke-opacity="1" fill-opacity="1" points="3395,827 4099,648 4099,738 3395,917"/><polygon stroke-opacity="1" fill-opacity="1" points="3395,962 3747,872 3747,962 3395,1052"/><polygon stroke-opacity="1" fill-opacity="1" points="3747,872 4099,783 4099,873 3747,962"/><g data-id="q1ogbxjw" data-class="tuplet" class="tuplet"><g data-id="k11957qa" data-class="tupletNum" class="tupletNum"><use href="#E883-kt3nown" transform="translate(3607, 684) scale(0.72, 0.72)"/></g><g data-id="k1fkca5r" data-class="note" class="note"><g data-class="notehead" class="notehead"><use href="#E0A4-kt3nown" transform="translate(3187, 1727) scale(0.72, 0.72)"/></g><g data-id="l8fom4s" data-class="stem" class="stem"><path d="M3404 1699 L3404 845" stroke-width="18"/></g></g><g data-id="l3abteg" data-class="note" class="note"><g data-class="notehead" class="notehead"><use href="#E0A4-kt3nown" transform="translate(3530, 1547) scale(0.72, 0.72)"/></g><g data-id="m134wv8w" data-class="stem" class="stem"><path d="M3747 1519 L3747 755" stroke-width="18"/></g></g><g data-id="m1roycjz" data-class="note" class="note"><g data-class="notehead" class="notehead"><use href="#E0A4-kt3nown" transform="translate(3873, 1277) scale(0.72, 0.72)"/></g><g data-id="nsmn9yi" data-class="stem" class="stem"><path d="M4090 1249 L4090 666" stroke-width="18"/></g></g></g></g><g data-id="v1pevlao" data-class="clef" class="clef"><use href="#E07C-kt3nown" transform="translate(4260, 827) scale(0.72, 0.72)"/></g><g data-id="j1az9ylm" data-class="beam" class="beam"><polygon stroke-opacity="1" fill-opacity="1" points="4997,377 5701,197 5701,287 4997,467"/><polygon stroke-opacity="1" fill-opacity="1" points="4997,512 5349,422 5349,512 4997,602"/><polygon stroke-opacity="1" fill-opacity="1" points="5349,422 5701,332 5701,422 5349,512"/><g data-id="r1wt4ntm" data-class="tuplet" class="tuplet"><g data-id="o11u6jbt" data-class="tupletNum" class="tupletNum"><use href="#E883-kt3nown" transform="translate(5209, 234) scale(0.72, 0.72)"/></g><g data-id="n1igaskh" data-class="note" class="note"><g data-class="notehead" class="notehead"><use href="#E0A4-kt3nown" transform="translate(4789, 1457) scale(0.72, 0.72)"/></g><g data-id="pdrz28y" data-class="stem" class="stem"><path d="M5006 1429 L5006 395" stroke-width="18"/></g></g><g data-id="olm6ef5" data-class="note" class="note"><g data-class="notehead" class="notehead"><use href="#E0A4-kt3nown" transform="translate(5132, 1097) scale(0.72, 0.72)"/></g><g data-id="q2g12ia" data-class="stem" class="stem"><path d="M5349 1069 L5349 305" stroke-width="18"/></g></g><g data-id="ptvdj4m" data-class="note" class="note"><g data-class="notehead" class="notehead"><use href="#E0A4-kt3nown" transform="translate(5475, 827) scale(0.72, 0.72)"/></g><g data-id="rgzd9bi" data-class="stem" class="stem"><path d="M5692 799 L5692 215" stroke-width="18"/></g></g></g></g><g data-id="w1k1e5vr" data-class="clef" class="clef"><use href="#E07A-kt3nown" transform="translate(5857, 1187) scale(0.72, 0.72)"/></g><g data-id="kwmd72u" data-class="beam" class="beam"><polygon stroke-opacity="1" fill-opacity="1" points="6517,827 7222,647 7222,737 6517,917"/><polygon stroke-opacity="1" fill-opacity="1" points="6517,962 6870,871 6870,961 6517,1052"/><polygon stroke-opacity="1" fill-opacity="1" points="6870,871 7222,782 7222,872 6870,961"/><g data-id="s1ufh5ws" data-class="tuplet" class="tuplet"><g data-id="s1mn92gw" data-class="tupletNum" class="tupletNum"><use href="#E883-kt3nown" transform="translate(6730, 684) scale(0.72, 0.72)"/></g><g data-id="q1g31ak6" data-class="note" class="note"><g data-class="notehead" class="notehead"><use href="#E0A4-kt3nown" transform="translate(6309, 1727) scale(0.72, 0.72)"/></g><g data-id="t33a2j3" data-class="stem" class="stem"><path d="M6526 1699 L6526 845" stroke-width="18"/></g></g><g data-id="r4tqr10" data-class="note" class="note"><g data-class="notehead" class="notehead"><use href="#E0A4-kt3nown" transform="translate(6653, 1547) scale(0.72, 0.72)"/></g><g data-id="u132b4r5" data-class="stem" class="stem"><path d="M6870 1519 L6870 754" stroke-width="18"/></g></g><g data-id="sy8zxtz" data-class="note" class="note"><g data-class="notehead" class="notehead"><use href="#E0A4-kt3nown" transform="translate(6996, 1277) scale(0.72, 0.72)"/></g><g data-id="vlgcjfj" data-class="stem" class="stem"><path d="M7213 1249 L7213 665" stroke-width="18"/></g></g></g></g></g></g><g data-id="t1i0zc7z" data-class="barLine" class="barLine"><path d="M7354 647 L7354 1367" stroke-width="27"/></g></g><g data-id="x10mn3sw" data-class="measure" class="measure"><g data-id="ncpgibg" data-class="staff" class="staff"><path d="M7367 647 L9384 647" stroke-width="13"/><path d="M7367 827 L9384 827" stroke-width="13"/><path d="M7367 1007 L9384 1007" stroke-width="13"/><path d="M7367 1187 L9384 1187" stroke-width="13"/><path d="M7367 1367 L9384 1367" stroke-width="13"/><g data-id="o1mic3tl" data-class="layer" class="layer"><g data-id="tydm45b" data-class="note" class="note"><g data-class="notehead" class="notehead"><use href="#E0A4-kt3nown" transform="translate(7563, 917) scale(0.72, 0.72)"/></g><g data-id="w1l0lad4" data-class="stem" class="stem"><path d="M7572 945 L7572 1547" stroke-width="18"/></g></g><g data-id="l1dxfbg9" data-class="beam" class="beam"><polygon stroke-opacity="1" fill-opacity="1" points="8348,1502 8878,1457 8878,1367 8348,1412"/><g data-id="ub8oqw2" data-class="note" class="note"><g data-class="notehead" class="notehead"><use href="#E0A4-kt3nown" transform="translate(8348, 827) scale(0.72, 0.72)"/></g><g data-id="xqlalag" data-class="stem" class="stem"><path d="M8357 855 L8357 1484" stroke-width="18"/></g></g><g data-id="v1iolzxr" data-class="note" class="note"><g data-class="notehead" class="notehead"><use href="#E0A4-kt3nown" transform="translate(8860, 647) scale(0.72, 0.72)"/></g><g data-id="y1wxh4n8" data-class="stem" class="stem"><path d="M8869 675 L8869 1439" stroke-width="18"/></g></g></g></g></g><g data-id="f1fh9ehh" data-class="barLine" class="barLine"><path d="M9371 647 L9371 1367" stroke-width="27"/></g></g><g data-id="gmttrns" data-class="measure" class="measure"><g data-id="p1m44obu" data-class="staff" class="staff"><path d="M9384 647 L11766 647" stroke-width="13"/><path d="M9384 827 L11766 827" stroke-width="13"/><path d="M9384 1007 L11766 1007" stroke-width="13"/><path d="M9384 1187 L11766 1187" stroke-width="13"/><path d="M9384 1367 L11766 1367" stroke-width="13"/><g data-id="q2i9s4o" data-class="layer" class="layer"><g data-id="w1qapb23" data-class="note" class="note"><g data-class="notehead" class="notehead"><use href="#E0A4-kt3nown" transform="translate(9580, 917) scale(0.72, 0.72)"/></g><g data-id="z1j6u9hv" data-class="stem" class="stem"><path d="M9589 945 L9589 1547" stroke-width="18"/></g></g><g data-id="m1heahnh" data-class="beam" class="beam"><polygon stroke-opacity="1" fill-opacity="1" points="10573,287 11621,467 11621,557 10573,377"/><polygon stroke-opacity="1" fill-opacity="1" points="10573,422 10926,483 10926,573 10573,512"/><polygon stroke-opacity="1" fill-opacity="1" points="10926,483 11269,543 11269,633 10926,573"/><polygon stroke-opacity="1" fill-opacity="1" points="11269,543 11621,602 11621,692 11269,633"/><g data-id="xy52gdg" data-class="note" class="note"><g data-class="notehead" class="notehead"><use href="#E0A4-kt3nown" transform="translate(10365, 917) scale(0.72, 0.72)"/></g><g data-id="achel55" data-class="stem" class="stem"><path d="M10582 889 L10582 305" stroke-width="18"/></g></g><g data-id="y41a1mb" data-class="note" class="note"><g data-class="notehead" class="notehead"><use href="#E0A4-kt3nown" transform="translate(10709, 1097) scale(0.72, 0.72)"/></g><g data-id="b1kmcghl" data-class="stem" class="stem"><path d="M10926 1069 L10926 366" stroke-width="18"/></g></g><g data-id="z15fc2eo" data-class="note" class="note"><g data-class="notehead" class="notehead"><use href="#E0A4-kt3nown" transform="translate(11052, 1187) scale(0.72, 0.72)"/></g><g data-id="c1w8lnpa" data-class="stem" class="stem"><path d="M11269 1159 L11269 426" stroke-width="18"/></g></g><g data-id="a18y1jxy" data-class="note" class="note"><g data-class="notehead" class="notehead"><use href="#E0A4-kt3nown" transform="translate(11395, 1277) scale(0.72, 0.72)"/></g><g data-id="dsx3jsc" data-class="stem" class="stem"><path d="M11612 1249 L11612 485" stroke-width="18"/></g></g></g></g></g><g data-id="ofxeul6" data-class="barLine" class="barLine"><path d="M11753 647 L11753 1367" stroke-width="27"/></g></g><g data-id="p8cleup" data-class="measure" class="measure"><g data-id="r1gm6ohn" data-class="staff" class="staff"><path d="M11766 647 L14001 647" stroke-width="13"/><path d="M11766 827 L14001 827" stroke-width="13"/><path d="M11766 1007 L14001 1007" stroke-width="13"/><path d="M11766 1187 L14001 1187" stroke-width="13"/><path d="M11766 1367 L14001 1367" stroke-width="13"/><g data-id="s11x5b5i" data-class="layer" class="layer"><g data-id="n11h3eo6" data-class="beam" class="beam"><polygon stroke-opacity="1" fill-opacity="1" points="12170,737 12847,648 12847,738 12170,827"/><polygon stroke-opacity="1" fill-opacity="1" points="12621,810 12847,783 12847,873 12621,900"/><g data-id="b1e2y7v1" data-class="note" class="note"><g data-class="notehead" class="notehead"><use href="#E0A4-kt3nown" transform="translate(11962, 1367) scale(0.72, 0.72)"/></g><g data-id="f65gpcw" data-class="dots" class="dots"><ellipse cx="12278" cy="1277" rx="36" ry="36" fill-opacity="1" stroke-opacity="1"/></g><g data-id="e1b14a0c" data-class="stem" class="stem"><path d="M12179 1339 L12179 755" stroke-width="18"/></g></g><g data-id="c112vem3" data-class="note" class="note"><g data-class="notehead" class="notehead"><use href="#E0A4-kt3nown" transform="translate(12621, 1277) scale(0.72, 0.72)"/></g><g data-id="gdj7ug2" data-class="stem" class="stem"><path d="M12838 1249 L12838 666" stroke-width="18"/></g></g></g><g data-id="o1uqk9cx" data-class="beam" class="beam"><polygon stroke-opacity="1" fill-opacity="1" points="13173,467 13702,422 13702,512 13173,557"/><g data-id="d1eklbjh" data-class="note" class="note"><g data-class="notehead" class="notehead"><use href="#E0A4-kt3nown" transform="translate(12965, 1187) scale(0.72, 0.72)"/></g><g data-id="hv3zfoj" data-class="stem" class="stem"><path d="M13182 1159 L13182 485" stroke-width="18"/></g></g><g data-id="e1qzyw05" data-class="note" class="note"><g data-class="notehead" class="notehead"><use href="#E0A4-kt3nown" transform="translate(13476, 1007) scale(0.72, 0.72)"/></g><g data-id="i27qvrk" data-class="stem" class="stem"><path d="M13693 979 L13693 440" stroke-width="18"/></g><g data-id="tu6wmys" data-class="accid" class="accid"/></g></g></g></g><g data-id="xvmxxxi" data-class="barLine" class="barLine"><path d="M13988 647 L13988 1367" stroke-width="27"/></g></g></g></g></svg></svg>