<svg viewBox="0 0 560 84" version="1.1" xmlns="http://www.w3.org/2000/svg" xmlns:xlink="http://www.w3.org/1999/xlink" overflow="visible" id="zd0bogc"><desc>Engraved by Verovio 5.6.0-85e7620</desc><defs><g id="E050-zd0bogc"><path transform="scale(1,-1)" d="M441 -245c-23 -4 -48 -6 -76 -6c-59 0 -102 7 -130 20c-88 42 -150 93 -187 154c-26 44 -43 103 -48 176c0 6 -1 13 -1 19c0 54 15 111 45 170c29 57 65 106 110 148s96 85 153 127c-3 16 -8 46 -13 92c-4 43 -5 73 -5 89c0 117 16 172 69 257c34 54 64 82 89 82 c21 0 43 -30 69 -92s39 -115 41 -159v-15c0 -109 -21 -162 -67 -241c-13 -20 -63 -90 -98 -118c-13 -9 -25 -19 -37 -29l31 -181c8 1 18 2 28 2c58 0 102 -12 133 -35c59 -43 92 -104 98 -184c1 -7 1 -15 1 -22c0 -123 -87 -209 -181 -248c8 -57 17 -110 25 -162 c5 -31 6 -58 6 -80c0 -30 -5 -53 -14 -70c-35 -64 -88 -99 -158 -103c-5 0 -11 -1 -16 -1c-37 0 -72 10 -108 27c-50 24 -77 59 -80 105v11c0 29 7 55 20 76c18 28 45 42 79 44h6c49 0 93 -42 97 -87v-9c0 -51 -34 -86 -105 -106c17 -24 51 -36 102 -36c62 0 116 43 140 85 c9 16 13 41 13 74c0 20 -1 42 -5 67c-8 53 -18 106 -26 159zM461 939c-95 0 -135 -175 -135 -286c0 -24 2 -48 5 -71c50 39 92 82 127 128c40 53 60 100 60 140v8c-4 53 -22 81 -55 81h-2zM406 119l54 -326c73 25 110 78 110 161c0 7 0 15 -1 23c-7 95 -57 142 -151 142h-12 zM382 117c-72 -2 -128 -47 -128 -120v-7c2 -46 43 -99 75 -115c-3 -2 -7 -5 -10 -10c-70 33 -116 88 -123 172v11c0 68 44 126 88 159c23 17 49 29 78 36l-29 170c-21 -13 -52 -37 -92 -73c-50 -44 -86 -84 -109 -119c-45 -69 -67 -130 -67 -182v-13c5 -68 35 -127 93 -176 s125 -73 203 -73c25 0 50 3 75 9c-19 111 -36 221 -54 331z"/></g><g id="E262-zd0bogc"><path transform="scale(1,-1)" d="M136 186v169h17v-164l44 14v-91l-44 -14v-165l44 12v-91l-44 -13v-155h-17v150l-76 -22v-155h-17v149l-43 -13v90l43 14v167l-43 -14v92l43 13v169h17v-163zM60 73v-167l76 22v168z"/></g><g id="E089-zd0bogc"><path transform="scale(1,-1)" d="M139 107c0 -51 22 -104 66 -104c38 0 64 48 64 110c0 50 -31 100 -64 100c-40 0 -66 -56 -66 -106zM114 -74c40 0 72 -27 72 -65c0 -8 -3 -19 -9 -34l-7 -16l-5 -15c2 -8 12 -12 31 -12c56 0 84 73 84 219c-32 -24 -71 -36 -119 -36c-29 0 -56 6 -79 20 c-51 26 -57 78 -62 108c0 64 56 155 188 155c158 0 197 -151 197 -237c0 -145 -92 -263 -207 -263c-109 0 -155 68 -155 101c0 46 33 75 71 75z"/></g><g id="E088-zd0bogc"><path transform="scale(1,-1)" d="M195 -214c76 0 88 58 90 68c0 34 -35 60 -57 73l-52 29c-21 10 -32 17 -34 20c-39 -33 -58 -54 -62 -92c5 -23 23 -98 115 -98zM301 135c0 61 -72 76 -113 76c-40 0 -77 -17 -77 -51c3 -21 15 -38 26 -50c17 -15 33 -26 48 -34l65 -28c34 27 51 56 51 87zM176 -250 c-57 0 -166 26 -166 132c0 47 30 86 89 116c-33 15 -79 60 -79 119c0 79 85 132 178 132h18c5 0 21 1 28 -1c25 0 126 -30 126 -110c0 -37 -23 -76 -69 -116c43 -25 83 -71 83 -119c0 -101 -118 -153 -208 -153z"/></g><g id="E0A4-zd0bogc"><path transform="scale(1,-1)" d="M0 -39c0 68 73 172 200 172c66 0 114 -37 114 -95c0 -84 -106 -171 -218 -171c-64 0 -96 30 -96 94z"/></g><g id="E240-zd0bogc"><path transform="scale(1,-1)" d="M179 -646c15 29 29 55 46 102c18 49 30 108 30 138c0 105 -80 173 -168 200c-18 5 -47 9 -87 16v190h22c8 0 33 -61 71 -95c4 -3 -2 3 61 -56c62 -58 122 -137 122 -241c0 -38 -13 -106 -35 -163c-20 -51 -43 -99 -66 -132c-6 -5 -10 -7 -13 -7s-5 2 -5 5l4 10 c1 3 14 25 18 33z"/></g><g id="E241-zd0bogc"><path transform="scale(1,-1)" d="M179 646c-4 8 -17 30 -18 33l-4 10c0 3 2 5 5 5s7 -2 13 -7c23 -33 46 -81 66 -132c22 -57 35 -125 35 -163c0 -104 -60 -183 -122 -241c-63 -59 -57 -53 -61 -56c-38 -34 -63 -95 -71 -95h-22v190c40 7 69 11 87 16c88 27 168 95 168 200c0 30 -12 89 -30 138 c-17 47 -31 73 -46 102z"/></g><g id="E044-zd0bogc"><path transform="scale(1,-1)" d="M0 0c0 28 22 50 50 50s50 -22 50 -50s-22 -50 -50 -50s-50 22 -50 50z"/></g></defs><style type="text/css">#zd0bogc g.page-margin {font-family:Times,serif;}#zd0bogc g.ending, #zd0bogc g.fing, #zd0bogc g.reh, #zd0bogc g.tempo {font-weight:bold;}#zd0bogc g.dir, #zd0bogc g.dynam, #zd0bogc g.mNum {font-style:italic;}#zd0bogc g.label {font-weight:normal;}#zd0bogc path {stroke:currentColor}</style><svg class="definition-scale" color="black" viewBox="0 0 14000 2100"><g class="page-margin" transform="translate(0, 150)"><g data-id="r1szyaev" data-class="mdiv" class="mdiv pageMilestone"/><g data-id="s1hyxoap" data-class="score" class="score pageMilestone"/><g data-id="ic4zpu3" data-class="system" class="system"><g data-id="uiu6a7z" data-class="section" class="section systemMilestone"/><g data-id="a10wvthk" data-class="measure" class="measure"><g data-id="g1pdy0hz" data-class="staff" class="staff"><path d="M0 540 L2852 540" stroke-width="13"/><path d="M0 720 L2852 720" stroke-width="13"/><path d="M0 900 L2852 900" stroke-width="13"/><path d="M0 1080 L2852 1080" stroke-width="13"/><path d="M0 1260 L2852 1260" stroke-width="13"/><g data-id="n17r08it" data-class="clef" class="clef"><use href="#E050-zd0bogc" transform="translate(90, 1080) scale(0.72, 0.72)"/></g><g data-id="o13zlm3s" data-class="keySig" class="keySig"><g data-id="prmajo2" data-class="keyAccid" class="keyAccid"><use href="#E262-zd0bogc" transform="translate(735, 540) scale(0.72, 0.72)"/></g><g data-id="q1bt9nst" data-class="keyAccid" class="keyAccid"><use href="#E262-zd0bogc" transform="translate(913, 810) scale(0.72, 0.72)"/></g><g data-id="r1lr5vio" data-class="keyAccid" class="keyAccid"><use href="#E262-zd0bogc" transform="translate(1091, 450) scale(0.72, 0.72)"/></g></g><g data-id="s1itwupp" data-class="meterSig" class="meterSig"><use href="#E089-zd0bogc" transform="translate(1398, 720) scale(0.72, 0.72)"/><use href="#E088-zd0bogc" transform="translate(1406, 1080) scale(0.72, 0.72)"/></g><g data-id="h1h6k0fw" data-class="layer" class="layer"><g data-id="b1tpyoda" data-class="note" class="note"><g data-class="notehead" class="notehead"><use href="#E0A4-zd0bogc" transform="translate(1959, 1260) scale(0.72, 0.72)"/></g><g data-id="avxh1rg" data-class="dots" class="dots"><ellipse cx="2275" cy="1170" rx="36" ry="36" fill-opacity="1" stroke-opacity="1"/></g><g data-id="z1hldgxj" data-class="stem" class="stem"><path d="M2176 1232 L2176 630" stroke-width="18"/></g></g></g></g><g data-id="i10shs2j" data-class="barLine" class="barLine"><path d="M2839 540 L2839 1260" stroke-width="27"/></g></g><g data-id="j16a8l01" data-class="measure" class="measure"><g data-id="i1iodt7j" data-class="staff" class="staff"><path d="M2852 540 L6486 540" stroke-width="13"/><path d="M2852 720 L6486 720" stroke-width="13"/><path d="M2852 900 L6486 900" stroke-width="13"/><path d="M2852 1080 L6486 1080" stroke-width="13"/><path d="M2852 1260 L6486 1260" stroke-width="13"/><g data-id="jqz93ce" data-class="layer" class="layer"><g data-id="cm79050" data-class="note" class="note"><g data-class="notehead" class="notehead"><use href="#E0A4-zd0bogc" transform="translate(3032, 990) scale(0.72, 0.72)"/></g><g data-id="c1w92zej" data-class="dots" class="dots"><ellipse cx="3348" cy="990" rx="36" ry="36" fill-opacity="1" stroke-opacity="1"/></g><g data-id="b1hg6vvm" data-class="stem" class="stem"><path d="M3249 962 L3249 360" stroke-width="18"/></g></g><g data-id="d1boiz9a" data-class="note" class="note"><g data-class="notehead" class="notehead"><use href="#E0A4-zd0bogc" transform="translate(3912, 990) scale(0.72, 0.72)"/></g><g data-id="d142xi62" data-class="stem" class="stem"><path d="M4129 962 L4129 360" stroke-width="18"/></g></g><g data-id="elbgzxw" data-class="note" class="note"><g data-class="notehead" class="notehead"><use href="#E0A4-zd0bogc" transform="translate(4602, 1080) scale(0.72, 0.72)"/></g><g data-id="e19azvcg" data-class="stem" class="stem"><path d="M4819 1052 L4819 450" stroke-width="18"/><g data-id="f18qyhnr" data-class="flag" class="flag"><use href="#E240-zd0bogc" transform="translate(4810, 450) scale(0.72, 0.72)"/></g></g><g data-id="m11ryh98" data-class="accid" class="accid"/></g><g data-id="f1x8e6xb" data-class="note" class="note"><g data-class="notehead" class="notehead"><use href="#E0A4-zd0bogc" transform="translate(5098, 990) scale(0.72, 0.72)"/></g><g data-id="g1gmzizg" data-class="stem" class="stem"><path d="M5315 962 L5315 360" stroke-width="18"/></g></g><g data-id="g1gu6lw3" data-class="note" class="note"><g data-class="notehead" class="notehead"><use href="#E0A4-zd0bogc" transform="translate(5788, 810) scale(0.72, 0.72)"/></g><g data-id="h1or9blq" data-class="stem" class="stem"><path d="M5797 838 L5797 1440" stroke-width="18"/><g data-id="i1gu3yb8" data-class="flag" class="flag"><use href="#E241-zd0bogc" transform="translate(5788, 1440) scale(0.72, 0.72)"/></g></g><g data-id="nvrci0n" data-class="accid" class="accid"/></g></g></g><g data-id="l1hs2xwu" data-class="tie" class="tie"><path d="M3303,1102 C3453,1207 3716,1207 3867,1102 C3735,1256 3434,1256 3303,1102" stroke-linecap="round" stroke-linejoin="round" stroke-width="9"/></g><g data-id="rme90jk" data-class="barLine" class="barLine"><path d="M6238 540 L6238 1260" stroke-width="90"/><path d="M6368 540 L6368 1260" stroke-width="27"/><use href="#E044-zd0bogc" transform="translate(6414, 810) scale(0.72, 0.72)"/><use href="#E044-zd0bogc" transform="translate(6414, 990) scale(0.72, 0.72)"/></g></g><g data-id="s1lkggi2" data-class="measure" class="measure"><g data-id="kjcsirb" data-class="staff" class="staff"><path d="M6486 540 L9422 540" stroke-width="13"/><path d="M6486 720 L9422 720" stroke-width="13"/><path d="M6486 900 L9422 900" stroke-width="13"/><path d="M6486 1080 L9422 1080" stroke-width="13"/><path d="M6486 1260 L9422 1260" stroke-width="13"/><g data-id="lpgdd3f" data-class="layer" class="layer"><g data-id="h15b4avo" data-class="note" class="note"><g data-class="notehead" class="notehead"><use href="#E0A4-zd0bogc" transform="translate(6666, 810) scale(0.72, 0.72)"/></g><g data-id="kap3nfp" data-class="dots" class="dots"><ellipse cx="6982" cy="810" rx="36" ry="36" fill-opacity="1" stroke-opacity="1"/></g><g data-id="j1u3egf6" data-class="stem" class="stem"><path d="M6675 838 L6675 1440" stroke-width="18"/></g><g data-id="o6t6jud" data-class="accid" class="accid"/></g><g data-id="i1exrxsn" data-class="note" class="note"><g data-class="notehead" class="notehead"><use href="#E0A4-zd0bogc" transform="translate(7546, 990) scale(0.72, 0.72)"/></g><g data-id="lqoz16x" data-class="stem" class="stem"><path d="M7763 962 L7763 360" stroke-width="18"/></g></g><g data-id="j1xvdiq8" data-class="note" class="note"><g data-class="notehead" class="notehead"><use href="#E0A4-zd0bogc" transform="translate(8236, 1080) scale(0.72, 0.72)"/></g><g data-id="mki88v1" data-class="stem" class="stem"><path d="M8453 1052 L8453 450" stroke-width="18"/><g data-id="n1vqsr7g" data-class="flag" class="flag"><use href="#E240-zd0bogc" transform="translate(8444, 450) scale(0.72, 0.72)"/></g></g><g data-id="p1l6tqlh" data-class="accid" class="accid"/></g><g data-id="k6ivdkz" data-class="note" class="note"><g data-class="notehead" class="notehead"><use href="#E0A4-zd0bogc" transform="translate(8732, 990) scale(0.72, 0.72)"/></g><g data-id="o1da04di" data-class="stem" class="stem"><path d="M8949 962 L8949 360" stroke-width="18"/></g></g></g></g><g data-id="ackslpl" data-class="barLine" class="barLine"/></g><g data-id="t134g8vg" data-class="systemMilestoneEnd" class="systemMilestoneEnd uiu6a7z"/></g><g data-id="u1904guw" data-class="pageMilestoneEnd" class="pageMilestoneEnd s1hyxoap"/><g data-id="vtz0076" data-class="pageMilestoneEnd" class="pageMilestoneEnd r1szyaev"/></g></svg></svg>