<svg viewBox="0 0 560 95" version="1.1" xmlns="http://www.w3.org/2000/svg" xmlns:xlink="http://www.w3.org/1999/xlink" overflow="visible" id="azpleeu"><desc>Engraved by Verovio 5.6.0-85e7620</desc><defs><g id="E050-azpleeu"><path transform="scale(1,-1)" d="M441 -245c-23 -4 -48 -6 -76 -6c-59 0 -102 7 -130 20c-88 42 -150 93 -187 154c-26 44 -43 103 -48 176c0 6 -1 13 -1 19c0 54 15 111 45 170c29 57 65 106 110 148s96 85 153 127c-3 16 -8 46 -13 92c-4 43 -5 73 -5 89c0 117 16 172 69 257c34 54 64 82 89 82 c21 0 43 -30 69 -92s39 -115 41 -159v-15c0 -109 -21 -162 -67 -241c-13 -20 -63 -90 -98 -118c-13 -9 -25 -19 -37 -29l31 -181c8 1 18 2 28 2c58 0 102 -12 133 -35c59 -43 92 -104 98 -184c1 -7 1 -15 1 -22c0 -123 -87 -209 -181 -248c8 -57 17 -110 25 -162 c5 -31 6 -58 6 -80c0 -30 -5 -53 -14 -70c-35 -64 -88 -99 -158 -103c-5 0 -11 -1 -16 -1c-37 0 -72 10 -108 27c-50 24 -77 59 -80 105v11c0 29 7 55 20 76c18 28 45 42 79 44h6c49 0 93 -42 97 -87v-9c0 -51 -34 -86 -105 -106c17 -24 51 -36 102 -36c62 0 116 43 140 85 c9 16 13 41 13 74c0 20 -1 42 -5 67c-8 53 -18 106 -26 159zM461 939c-95 0 -135 -175 -135 -286c0 -24 2 -48 5 -71c50 39 92 82 127 128c40 53 60 100 60 140v8c-4 53 -22 81 -55 81h-2zM406 119l54 -326c73 25 110 78 110 161c0 7 0 15 -1 23c-7 95 -57 142 -151 142h-12 zM382 117c-72 -2 -128 -47 -128 -120v-7c2 -46 43 -99 75 -115c-3 -2 -7 -5 -10 -10c-70 33 -116 88 -123 172v11c0 68 44 126 88 159c23 17 49 29 78 36l-29 170c-21 -13 -52 -37 -92 -73c-50 -44 -86 -84 -109 -119c-45 -69 -67 -130 -67 -182v-13c5 -68 35 -127 93 -176 s125 -73 203 -73c25 0 50 3 75 9c-19 111 -36 221 -54 331z"/></g><g id="E262-azpleeu"><path transform="scale(1,-1)" d="M136 186v169h17v-164l44 14v-91l-44 -14v-165l44 12v-91l-44 -13v-155h-17v150l-76 -22v-155h-17v149l-43 -13v90l43 14v167l-43 -14v92l43 13v169h17v-163zM60 73v-167l76 22v168z"/></g><g id="E086-azpleeu"><path transform="scale(1,-1)" d="M284 -91c0 37 -28 92 -67 92c-35 0 -65 -54 -65 -111c0 -52 22 -104 68 -104c47 0 64 68 64 123zM230 214c-36 0 -90 -33 -90 -184l2 -36c40 24 81 36 120 36c80 0 140 -48 140 -121c0 -99 -99 -159 -182 -159c-160 0 -200 173 -200 244c0 21 2 43 7 71l10 35 c26 85 73 115 98 126c41 19 74 24 103 24c93 0 142 -63 142 -105c0 -58 -52 -72 -73 -72c-33 0 -59 24 -65 35c-3 5 -6 14 -7 25l11 30c6 15 9 27 9 35c0 11 -9 16 -25 16z"/></g><g id="E088-azpleeu"><path transform="scale(1,-1)" d="M195 -214c76 0 88 58 90 68c0 34 -35 60 -57 73l-52 29c-21 10 -32 17 -34 20c-39 -33 -58 -54 -62 -92c5 -23 23 -98 115 -98zM301 135c0 61 -72 76 -113 76c-40 0 -77 -17 -77 -51c3 -21 15 -38 26 -50c17 -15 33 -26 48 -34l65 -28c34 27 51 56 51 87zM176 -250 c-57 0 -166 26 -166 132c0 47 30 86 89 116c-33 15 -79 60 -79 119c0 79 85 132 178 132h18c5 0 21 1 28 -1c25 0 126 -30 126 -110c0 -37 -23 -76 -69 -116c43 -25 83 -71 83 -119c0 -101 -118 -153 -208 -153z"/></g><g id="E4E6-azpleeu"><path transform="scale(1,-1)" d="M0 123c7 34 33 56 69 60c29 -3 43 -9 53 -29c4 -8 7 -15 10 -22c0 -21 -1 -25 -11 -35c-5 -8 -18 -14 -40 -20l12 -3l15 -1c44 0 97 26 122 56c10 11 18 26 24 42c7 1 15 2 22 3l-140 -424h-36l111 330c-10 -6 -27 -12 -53 -16l-52 -8h-10l-20 1c-1 0 -8 3 -21 6 c-37 9 -55 28 -55 60z"/></g><g id="E0A4-azpleeu"><path transform="scale(1,-1)" d="M0 -39c0 68 73 172 200 172c66 0 114 -37 114 -95c0 -84 -106 -171 -218 -171c-64 0 -96 30 -96 94z"/></g><g id="E240-azpleeu"><path transform="scale(1,-1)" d="M179 -646c15 29 29 55 46 102c18 49 30 108 30 138c0 105 -80 173 -168 200c-18 5 -47 9 -87 16v190h22c8 0 33 -61 71 -95c4 -3 -2 3 61 -56c62 -58 122 -137 122 -241c0 -38 -13 -106 -35 -163c-20 -51 -43 -99 -66 -132c-6 -5 -10 -7 -13 -7s-5 2 -5 5l4 10 c1 3 14 25 18 33z"/></g><g id="E241-azpleeu"><path transform="scale(1,-1)" d="M179 646c-4 8 -17 30 -18 33l-4 10c0 3 2 5 5 5s7 -2 13 -7c23 -33 46 -81 66 -132c22 -57 35 -125 35 -163c0 -104 -60 -183 -122 -241c-63 -59 -57 -53 -61 -56c-38 -34 -63 -95 -71 -95h-22v190c40 7 69 11 87 16c88 27 168 95 168 200c0 30 -12 89 -30 138 c-17 47 -31 73 -46 102z"/></g></defs><style type="text/css">#azpleeu g.page-margin {font-family:Times,serif;}#azpleeu g.ending, #azpleeu g.fing, #azpleeu g.reh, #azpleeu g.tempo {font-weight:bold;}#azpleeu g.dir, #azpleeu g.dynam, #azpleeu g.mNum {font-style:italic;}#azpleeu g.label {font-weight:normal;}#azpleeu path {stroke:currentColor}</style><svg class="definition-scale" color="black" viewBox="0 0 14000 2370"><g class="page-margin" transform="translate(0, 150)"><g data-id="d97vs6u" data-class="mdiv" class="mdiv pageMilestone"/><g data-id="eps4wpv" data-class="score" class="score pageMilestone"/><g data-id="s1axinfk" data-class="system" class="system"><g data-id="grnnmre" data-class="section" class="section systemMilestone"/><g data-id="b15bndzo" data-class="measure" class="measure"><g data-id="s1a3q9qr" data-class="staff" class="staff"><path d="M0 540 L4164 540" stroke-width="13"/><path d="M0 720 L4164 720" stroke-width="13"/><path d="M0 900 L4164 900" stroke-width="13"/><path d="M0 1080 L4164 1080" stroke-width="13"/><path d="M0 1260 L4164 1260" stroke-width="13"/><g data-id="z3wnrvg" data-class="clef" class="clef"><use href="#E050-azpleeu" transform="translate(90, 1080) scale(0.72, 0.72)"/></g><g data-id="a1bzvp3g" data-class="keySig" class="keySig"><g data-id="b2kwyyd" data-class="keyAccid" class="keyAccid"><use href="#E262-azpleeu" transform="translate(735, 540) scale(0.72, 0.72)"/></g></g><g data-id="c6k7kx7" data-class="meterSig" class="meterSig"><use href="#E086-azpleeu" transform="translate(1042, 720) scale(0.72, 0.72)"/><use href="#E088-azpleeu" transform="translate(1049, 1080) scale(0.72, 0.72)"/></g><g data-class="ledgerLines" class="ledgerLines below"><g data-class="lineDash" class="lineDash" data-related="#n12hivo8"><path d="M2453 1440 L2775 1440" stroke-width="22"/></g><g data-class="lineDash" class="lineDash" data-related="#o1sm1ipz"><path d="M2903 1440 L3225 1440" stroke-width="22"/></g><g data-class="lineDash" class="lineDash" data-related="#provjse"><path d="M3593 1440 L3915 1440" stroke-width="22"/></g><g data-class="lineDash" class="lineDash" data-related="#n12hivo8"><path d="M2453 1620 L2775 1620" stroke-width="22"/></g><g data-class="lineDash" class="lineDash" data-related="#o1sm1ipz"><path d="M2903 1620 L3225 1620" stroke-width="22"/></g><g data-class="lineDash" class="lineDash" data-related="#provjse"><path d="M3593 1620 L3915 1620" stroke-width="22"/></g><g data-class="lineDash" class="lineDash" data-related="#n12hivo8"><path d="M2453 1800 L2775 1800" stroke-width="22"/></g><g data-class="lineDash" class="lineDash" data-related="#n12hivo8"><path d="M2453 1980 L2775 1980" stroke-width="22"/></g></g><g data-id="t1gg9xwb" data-class="layer" class="layer"><g data-id="lxsaw08" data-class="rest" class="rest"><use href="#E4E6-azpleeu" transform="translate(1601, 900) scale(0.72, 0.72)"/></g><g data-id="mim7k2r" data-class="rest" class="rest"><use href="#E4E6-azpleeu" transform="translate(2051, 900) scale(0.72, 0.72)"/></g><g data-id="n12hivo8" data-class="note" class="note"><g data-class="notehead" class="notehead"><use href="#E0A4-azpleeu" transform="translate(2501, 1980) scale(0.72, 0.72)"/></g><g data-id="l1hnd4l2" data-class="stem" class="stem"><path d="M2718 1952 L2718 900" stroke-width="18"/><g data-id="md9y6dj" data-class="flag" class="flag"><use href="#E240-azpleeu" transform="translate(2709, 900) scale(0.72, 0.72)"/></g></g></g><g data-id="o1sm1ipz" data-class="note" class="note"><g data-class="notehead" class="notehead"><use href="#E0A4-azpleeu" transform="translate(2951, 1710) scale(0.72, 0.72)"/></g><g data-id="net1a01" data-class="stem" class="stem"><path d="M3168 1682 L3168 900" stroke-width="18"/></g></g><g data-id="provjse" data-class="note" class="note"><g data-class="notehead" class="notehead"><use href="#E0A4-azpleeu" transform="translate(3641, 1620) scale(0.72, 0.72)"/></g><g data-id="ots7kml" data-class="stem" class="stem"><path d="M3858 1592 L3858 900" stroke-width="18"/><g data-id="p1rufrvs" data-class="flag" class="flag"><use href="#E240-azpleeu" transform="translate(3849, 900) scale(0.72, 0.72)"/></g></g></g></g></g><g data-id="j3qx6e8" data-class="barLine" class="barLine"><path d="M4151 540 L4151 1260" stroke-width="27"/></g></g><g data-id="k1j0914h" data-class="measure" class="measure"><g data-id="uystyca" data-class="staff" class="staff"><path d="M4164 540 L6743 540" stroke-width="13"/><path d="M4164 720 L6743 720" stroke-width="13"/><path d="M4164 900 L6743 900" stroke-width="13"/><path d="M4164 1080 L6743 1080" stroke-width="13"/><path d="M4164 1260 L6743 1260" stroke-width="13"/><g data-class="ledgerLines" class="ledgerLines below"><g data-class="lineDash" class="lineDash" data-related="#q1o2ryu8"><path d="M4296 1440 L4618 1440" stroke-width="22"/></g></g><g data-id="v1hi34q5" data-class="layer" class="layer"><g data-id="q1o2ryu8" data-class="note" class="note"><g data-class="notehead" class="notehead"><use href="#E0A4-azpleeu" transform="translate(4344, 1530) scale(0.72, 0.72)"/></g><g data-id="q17q8wn3" data-class="stem" class="stem"><path d="M4561 1502 L4561 900" stroke-width="18"/></g></g><g data-id="r18rwcl" data-class="note" class="note"><g data-class="notehead" class="notehead"><use href="#E0A4-azpleeu" transform="translate(5034, 1350) scale(0.72, 0.72)"/></g><g data-id="r12jtvu" data-class="stem" class="stem"><path d="M5251 1322 L5251 720" stroke-width="18"/><g data-id="s1i3xqb6" data-class="flag" class="flag"><use href="#E240-azpleeu" transform="translate(5242, 720) scale(0.72, 0.72)"/></g></g></g><g data-id="s1tygh7y" data-class="note" class="note"><g data-class="notehead" class="notehead"><use href="#E0A4-azpleeu" transform="translate(5530, 1080) scale(0.72, 0.72)"/></g><g data-id="tgao8g8" data-class="stem" class="stem"><path d="M5747 1052 L5747 450" stroke-width="18"/></g></g><g data-id="tr3tzq2" data-class="note" class="note"><g data-class="notehead" class="notehead"><use href="#E0A4-azpleeu" transform="translate(6220, 990) scale(0.72, 0.72)"/></g><g data-id="u1q3vkrc" data-class="stem" class="stem"><path d="M6437 962 L6437 360" stroke-width="18"/><g data-id="vv93q4g" data-class="flag" class="flag"><use href="#E240-azpleeu" transform="translate(6428, 360) scale(0.72, 0.72)"/></g></g></g></g></g><g data-id="sczyycj" data-class="barLine" class="barLine"><path d="M6730 540 L6730 1260" stroke-width="27"/></g></g><g data-id="tk9xcsr" data-class="measure" class="measure"><g data-id="w3dz8w7" data-class="staff" class="staff"><path d="M6743 540 L9216 540" stroke-width="13"/><path d="M6743 720 L9216 720" stroke-width="13"/><path d="M6743 900 L9216 900" stroke-width="13"/><path d="M6743 1080 L9216 1080" stroke-width="13"/><path d="M6743 1260 L9216 1260" stroke-width="13"/><g data-id="x1mpdi6h" data-class="layer" class="layer"><g data-id="u1ndledr" data-class="note" class="note"><g data-class="notehead" class="notehead"><use href="#E0A4-azpleeu" transform="translate(6923, 900) scale(0.72, 0.72)"/></g><g data-id="wi6d0np" data-class="stem" class="stem"><path d="M6932 928 L6932 1500" stroke-width="18"/></g></g><g data-id="v1uuxi53" data-class="note" class="note"><g data-class="notehead" class="notehead"><use href="#E0A4-azpleeu" transform="translate(7613, 810) scale(0.72, 0.72)"/></g><g data-id="x4glsud" data-class="stem" class="stem"><path d="M7622 838 L7622 1440" stroke-width="18"/><g data-id="yq3upux" data-class="flag" class="flag"><use href="#E241-azpleeu" transform="translate(7613, 1440) scale(0.72, 0.72)"/></g></g></g><g data-id="wx0k13u" data-class="note" class="note"><g data-class="notehead" class="notehead"><use href="#E0A4-azpleeu" transform="translate(8063, 720) scale(0.72, 0.72)"/></g><g data-id="z1slmm9i" data-class="stem" class="stem"><path d="M8072 748 L8072 1350" stroke-width="18"/></g></g><g data-id="xfhtg4x" data-class="note" class="note"><g data-class="notehead" class="notehead"><use href="#E0A4-azpleeu" transform="translate(8753, 900) scale(0.72, 0.72)"/></g><g data-id="a15el39k" data-class="stem" class="stem"><path d="M8762 928 L8762 1500" stroke-width="18"/><g data-id="b1a326h9" data-class="flag" class="flag"><use href="#E241-azpleeu" transform="translate(8753, 1500) scale(0.72, 0.72)"/></g></g></g></g></g><g data-id="bukwnt4" data-class="barLine" class="barLine"><path d="M9203 540 L9203 1260" stroke-width="27"/></g></g><g data-id="c1abouny" data-class="measure" class="measure"><g data-id="yop02po" data-class="staff" class="staff"><path d="M9216 540 L11429 540" stroke-width="13"/><path d="M9216 720 L11429 720" stroke-width="13"/><path d="M9216 900 L11429 900" stroke-width="13"/><path d="M9216 1080 L11429 1080" stroke-width="13"/><path d="M9216 1260 L11429 1260" stroke-width="13"/><g data-id="z1cdqphm" data-class="layer" class="layer"><g data-id="y1a9ace9" data-class="note" class="note"><g data-class="notehead" class="notehead"><use href="#E0A4-azpleeu" transform="translate(9396, 810) scale(0.72, 0.72)"/></g><g data-id="dhztncd" data-class="dots" class="dots"><ellipse cx="9712" cy="810" rx="36" ry="36" fill-opacity="1" stroke-opacity="1"/></g><g data-id="c14h97sj" data-class="stem" class="stem"><path d="M9405 838 L9405 1440" stroke-width="18"/></g></g><g data-id="z11ikdzk" data-class="note" class="note"><g data-class="notehead" class="notehead"><use href="#E0A4-azpleeu" transform="translate(10276, 810) scale(0.72, 0.72)"/></g><g data-id="e1ietyd6" data-class="stem" class="stem"><path d="M10285 838 L10285 1440" stroke-width="18"/></g></g><g data-id="aln28yb" data-class="note" class="note"><g data-class="notehead" class="notehead"><use href="#E0A4-azpleeu" transform="translate(10966, 900) scale(0.72, 0.72)"/></g><g data-id="f1kpud1" data-class="stem" class="stem"><path d="M10975 928 L10975 1500" stroke-width="18"/><g data-id="g9lx2w6" data-class="flag" class="flag"><use href="#E241-azpleeu" transform="translate(10966, 1500) scale(0.72, 0.72)"/></g></g></g></g></g><g data-id="b3m4dg9" data-class="tie" class="tie"><path d="M9667,698 C9798,544 10099,544 10231,698 C10080,593 9817,593 9667,698" stroke-linecap="round" stroke-linejoin="round" stroke-width="9"/></g><g data-id="k1xhol6f" data-class="barLine" class="barLine"><path d="M11416 540 L11416 1260" stroke-width="27"/></g></g><g data-id="hv5ko8b" data-class="systemMilestoneEnd" class="systemMilestoneEnd grnnmre"/></g><g data-id="i131l0sb" data-class="pageMilestoneEnd" class="pageMilestoneEnd eps4wpv"/><g data-id="jrtntjo" data-class="pageMilestoneEnd" class="pageMilestoneEnd d97vs6u"/></g></svg></svg>