<svg viewBox="0 0 560 84" version="1.1" xmlns="http://www.w3.org/2000/svg" xmlns:xlink="http://www.w3.org/1999/xlink" overflow="visible" id="a1gifhnz"><desc>Engraved by Verovio 5.6.0-85e7620</desc><defs><g id="E050-a1gifhnz"><path transform="scale(1,-1)" d="M441 -245c-23 -4 -48 -6 -76 -6c-59 0 -102 7 -130 20c-88 42 -150 93 -187 154c-26 44 -43 103 -48 176c0 6 -1 13 -1 19c0 54 15 111 45 170c29 57 65 106 110 148s96 85 153 127c-3 16 -8 46 -13 92c-4 43 -5 73 -5 89c0 117 16 172 69 257c34 54 64 82 89 82 c21 0 43 -30 69 -92s39 -115 41 -159v-15c0 -109 -21 -162 -67 -241c-13 -20 -63 -90 -98 -118c-13 -9 -25 -19 -37 -29l31 -181c8 1 18 2 28 2c58 0 102 -12 133 -35c59 -43 92 -104 98 -184c1 -7 1 -15 1 -22c0 -123 -87 -209 -181 -248c8 -57 17 -110 25 -162 c5 -31 6 -58 6 -80c0 -30 -5 -53 -14 -70c-35 -64 -88 -99 -158 -103c-5 0 -11 -1 -16 -1c-37 0 -72 10 -108 27c-50 24 -77 59 -80 105v11c0 29 7 55 20 76c18 28 45 42 79 44h6c49 0 93 -42 97 -87v-9c0 -51 -34 -86 -105 -106c17 -24 51 -36 102 -36c62 0 116 43 140 85 c9 16 13 41 13 74c0 20 -1 42 -5 67c-8 53 -18 106 -26 159zM461 939c-95 0 -135 -175 -135 -286c0 -24 2 -48 5 -71c50 39 92 82 127 128c40 53 60 100 60 140v8c-4 53 -22 81 -55 81h-2zM406 119l54 -326c73 25 110 78 110 161c0 7 0 15 -1 23c-7 95 -57 142 -151 142h-12 zM382 117c-72 -2 -128 -47 -128 -120v-7c2 -46 43 -99 75 -115c-3 -2 -7 -5 -10 -10c-70 33 -116 88 -123 172v11c0 68 44 126 88 159c23 17 49 29 78 36l-29 170c-21 -13 -52 -37 -92 -73c-50 -44 -86 -84 -109 -119c-45 -69 -67 -130 -67 -182v-13c5 -68 35 -127 93 -176 s125 -73 203 -73c25 0 50 3 75 9c-19 111 -36 221 -54 331z"/></g><g id="E262-a1gifhnz"><path transform="scale(1,-1)" d="M136 186v169h17v-164l44 14v-91l-44 -14v-165l44 12v-91l-44 -13v-155h-17v150l-76 -22v-155h-17v149l-43 -13v90l43 14v167l-43 -14v92l43 13v169h17v-163zM60 73v-167l76 22v168z"/></g><g id="E08A-a1gifhnz"><path transform="scale(1,-1)" d="M340 179c-9 24 -56 41 -89 41c-46 0 -81 -28 -100 -58c-17 -28 -25 -78 -25 -150c0 -65 2 -111 8 -135c8 -31 18 -49 40 -67c20 -17 43 -25 70 -25c54 0 92 36 115 75c14 25 23 54 28 88h27c0 -63 -24 -105 -58 -141c-35 -38 -82 -56 -140 -56c-45 0 -83 13 -115 39 c-57 45 -101 130 -101 226c0 59 33 127 68 163c36 37 97 72 160 72c36 0 93 -21 121 -40c11 -8 23 -17 33 -30c19 -23 27 -48 27 -76c0 -51 -35 -88 -86 -88c-43 0 -76 27 -76 68c0 26 7 35 21 51c15 17 32 27 58 32c7 2 14 7 14 11z"/></g><g id="E0A4-a1gifhnz"><path transform="scale(1,-1)" d="M0 -39c0 68 73 172 200 172c66 0 114 -37 114 -95c0 -84 -106 -171 -218 -171c-64 0 -96 30 -96 94z"/></g><g id="E241-a1gifhnz"><path transform="scale(1,-1)" d="M179 646c-4 8 -17 30 -18 33l-4 10c0 3 2 5 5 5s7 -2 13 -7c23 -33 46 -81 66 -132c22 -57 35 -125 35 -163c0 -104 -60 -183 -122 -241c-63 -59 -57 -53 -61 -56c-38 -34 -63 -95 -71 -95h-22v190c40 7 69 11 87 16c88 27 168 95 168 200c0 30 -12 89 -30 138 c-17 47 -31 73 -46 102z"/></g><g id="E240-a1gifhnz"><path transform="scale(1,-1)" d="M179 -646c15 29 29 55 46 102c18 49 30 108 30 138c0 105 -80 173 -168 200c-18 5 -47 9 -87 16v190h22c8 0 33 -61 71 -95c4 -3 -2 3 61 -56c62 -58 122 -137 122 -241c0 -38 -13 -106 -35 -163c-20 -51 -43 -99 -66 -132c-6 -5 -10 -7 -13 -7s-5 2 -5 5l4 10 c1 3 14 25 18 33z"/></g><g id="E0A3-a1gifhnz"><path transform="scale(1,-1)" d="M278 64c0 22 -17 39 -43 39c-12 0 -26 -3 -41 -10c-85 -43 -165 -94 -165 -156c5 -25 15 -32 49 -32c67 11 200 95 200 159zM0 -36c0 68 73 174 200 174c66 0 114 -39 114 -97c0 -84 -106 -173 -218 -173c-64 0 -96 32 -96 96z"/></g><g id="E4E4-a1gifhnz"><path transform="scale(1,-1)" d="M0 10v105c0 9 1 10 10 10h280c9 0 10 -1 10 -10v-105c0 -9 -1 -10 -10 -10h-280c-9 0 -10 1 -10 10z"/></g></defs><style type="text/css">#a1gifhnz g.page-margin {font-family:Times,serif;}#a1gifhnz g.ending, #a1gifhnz g.fing, #a1gifhnz g.reh, #a1gifhnz g.tempo {font-weight:bold;}#a1gifhnz g.dir, #a1gifhnz g.dynam, #a1gifhnz g.mNum {font-style:italic;}#a1gifhnz g.label {font-weight:normal;}#a1gifhnz path {stroke:currentColor}</style><svg class="definition-scale" color="black" viewBox="0 0 14000 2100"><g class="page-margin" transform="translate(0, 150)"><g data-id="wsx64pa" data-class="mdiv" class="mdiv pageMilestone"/><g data-id="x3w9ocg" data-class="score" class="score pageMilestone"/><g data-id="otp5hi8" data-class="system" class="system"><g data-id="z310b7a" data-class="section" class="section systemMilestone"/><g data-id="b1f2lgvd" data-class="measure" class="measure"><g data-id="l3910hs" data-class="staff" class="staff"><path d="M0 540 L2408 540" stroke-width="13"/><path d="M0 720 L2408 720" stroke-width="13"/><path d="M0 900 L2408 900" stroke-width="13"/><path d="M0 1080 L2408 1080" stroke-width="13"/><path d="M0 1260 L2408 1260" stroke-width="13"/><g data-id="ka3jtyj" data-class="clef" class="clef"><use href="#E050-a1gifhnz" transform="translate(90, 1080) scale(0.72, 0.72)"/></g><g data-id="l1m4pl2f" data-class="keySig" class="keySig"><g data-id="m1g7u7or" data-class="keyAccid" class="keyAccid"><use href="#E262-a1gifhnz" transform="translate(735, 540) scale(0.72, 0.72)"/></g></g><g data-id="n15xb92l" data-class="meterSig" class="meterSig"><use href="#E08A-a1gifhnz" transform="translate(1056, 900) scale(0.72, 0.72)"/></g><g data-id="mo32a4m" data-class="layer" class="layer"><g data-id="y1kul2ns" data-class="note" class="note"><g data-class="notehead" class="notehead"><use href="#E0A4-a1gifhnz" transform="translate(1635, 1080) scale(0.72, 0.72)"/></g><g data-id="m1x3l8qj" data-class="stem" class="stem"><path d="M1852 1052 L1852 450" stroke-width="18"/></g></g></g></g><g data-id="j8j8of5" data-class="barLine" class="barLine"><path d="M2395 540 L2395 1260" stroke-width="27"/></g></g><g data-id="krmnv94" data-class="measure" class="measure"><g data-id="n12eswom" data-class="staff" class="staff"><path d="M2408 540 L6159 540" stroke-width="13"/><path d="M2408 720 L6159 720" stroke-width="13"/><path d="M2408 900 L6159 900" stroke-width="13"/><path d="M2408 1080 L6159 1080" stroke-width="13"/><path d="M2408 1260 L6159 1260" stroke-width="13"/><g data-id="o1lc29zx" data-class="layer" class="layer"><g data-id="zvacyca" data-class="note" class="note"><g data-class="notehead" class="notehead"><use href="#E0A4-a1gifhnz" transform="translate(2599, 900) scale(0.72, 0.72)"/></g><g data-id="n165bemc" data-class="stem" class="stem"><path d="M2608 928 L2608 1500" stroke-width="18"/></g></g><g data-id="ar5t4d9" data-class="note" class="note"><g data-class="notehead" class="notehead"><use href="#E0A4-a1gifhnz" transform="translate(3359, 810) scale(0.72, 0.72)"/></g><g data-id="okj0ym0" data-class="stem" class="stem"><path d="M3368 838 L3368 1440" stroke-width="18"/><g data-id="p1m4qn90" data-class="flag" class="flag"><use href="#E241-a1gifhnz" transform="translate(3359, 1440) scale(0.72, 0.72)"/></g></g></g><g data-id="bm4m1o" data-class="note" class="note"><g data-class="notehead" class="notehead"><use href="#E0A4-a1gifhnz" transform="translate(3855, 810) scale(0.72, 0.72)"/></g><g data-id="q1gabejk" data-class="stem" class="stem"><path d="M3864 838 L3864 1440" stroke-width="18"/><g data-id="rgu1ib3" data-class="flag" class="flag"><use href="#E241-a1gifhnz" transform="translate(3855, 1440) scale(0.72, 0.72)"/></g></g></g><g data-id="c1nh8sch" data-class="note" class="note"><g data-class="notehead" class="notehead"><use href="#E0A4-a1gifhnz" transform="translate(4350, 720) scale(0.72, 0.72)"/></g><g data-id="s1k9qhe2" data-class="stem" class="stem"><path d="M4359 748 L4359 1350" stroke-width="18"/></g></g><g data-id="do9bvy8" data-class="note" class="note"><g data-class="notehead" class="notehead"><use href="#E0A4-a1gifhnz" transform="translate(5111, 1080) scale(0.72, 0.72)"/></g><g data-id="t17ixo4a" data-class="stem" class="stem"><path d="M5328 1052 L5328 450" stroke-width="18"/><g data-id="uvmhgy0" data-class="flag" class="flag"><use href="#E240-a1gifhnz" transform="translate(5319, 450) scale(0.72, 0.72)"/></g></g></g><g data-id="e10bmunk" data-class="note" class="note"><g data-class="notehead" class="notehead"><use href="#E0A4-a1gifhnz" transform="translate(5606, 1080) scale(0.72, 0.72)"/></g><g data-id="vp9dxc0" data-class="stem" class="stem"><path d="M5823 1052 L5823 450" stroke-width="18"/><g data-id="wdrloeo" data-class="flag" class="flag"><use href="#E240-a1gifhnz" transform="translate(5814, 450) scale(0.72, 0.72)"/></g></g></g></g></g><g data-id="s1peyg1l" data-class="barLine" class="barLine"><path d="M6146 540 L6146 1260" stroke-width="27"/></g></g><g data-id="tw8ggf2" data-class="measure" class="measure"><g data-id="p1h77a16" data-class="staff" class="staff"><path d="M6159 540 L9041 540" stroke-width="13"/><path d="M6159 720 L9041 720" stroke-width="13"/><path d="M6159 900 L9041 900" stroke-width="13"/><path d="M6159 1080 L9041 1080" stroke-width="13"/><path d="M6159 1260 L9041 1260" stroke-width="13"/><g data-id="q7l2m2n" data-class="layer" class="layer"><g data-id="f1o76ml" data-class="note" class="note"><g data-class="notehead" class="notehead"><use href="#E0A3-a1gifhnz" transform="translate(6350, 990) scale(0.72, 0.72)"/></g><g data-id="x16hr66s" data-class="stem" class="stem"><path d="M6567 962 L6567 360" stroke-width="18"/></g></g><g data-id="gxmt4hf" data-class="note" class="note"><g data-class="notehead" class="notehead"><use href="#E0A4-a1gifhnz" transform="translate(7507, 900) scale(0.72, 0.72)"/></g><g data-id="y72no6g" data-class="stem" class="stem"><path d="M7516 928 L7516 1500" stroke-width="18"/></g></g><g data-id="h1v9b7iz" data-class="note" class="note"><g data-class="notehead" class="notehead"><use href="#E0A4-a1gifhnz" transform="translate(8268, 720) scale(0.72, 0.72)"/></g><g data-id="zie0y89" data-class="stem" class="stem"><path d="M8277 748 L8277 1350" stroke-width="18"/></g></g></g></g><g data-id="b14u89da" data-class="barLine" class="barLine"><path d="M9028 540 L9028 1260" stroke-width="27"/></g></g><g data-id="c1t3mr41" data-class="measure" class="measure"><g data-id="ruluzlu" data-class="staff" class="staff"><path d="M9041 540 L11483 540" stroke-width="13"/><path d="M9041 720 L11483 720" stroke-width="13"/><path d="M9041 900 L11483 900" stroke-width="13"/><path d="M9041 1080 L11483 1080" stroke-width="13"/><path d="M9041 1260 L11483 1260" stroke-width="13"/><g data-id="s1dd2cwi" data-class="layer" class="layer"><g data-id="i1t2zqnu" data-class="note" class="note"><g data-class="notehead" class="notehead"><use href="#E0A3-a1gifhnz" transform="translate(9232, 630) scale(0.72, 0.72)"/></g><g data-id="b182fb0d" data-class="dots" class="dots"><ellipse cx="9548" cy="630" rx="36" ry="36" fill-opacity="1" stroke-opacity="1"/></g><g data-id="ae8xggl" data-class="stem" class="stem"><path d="M9241 655 L9241 1260" stroke-width="18"/></g></g><g data-id="j1ttyhr5" data-class="note" class="note"><g data-class="notehead" class="notehead"><use href="#E0A4-a1gifhnz" transform="translate(10710, 630) scale(0.72, 0.72)"/></g><g data-id="cm1m61c" data-class="stem" class="stem"><path d="M10719 658 L10719 1260" stroke-width="18"/></g></g></g></g><g data-id="k147smk" data-class="barLine" class="barLine"><path d="M11470 540 L11470 1260" stroke-width="27"/></g></g><g data-id="lf8ywd3" data-class="measure" class="measure"><g data-id="t1675tvo" data-class="staff" class="staff"><path d="M11483 540 L14002 540" stroke-width="13"/><path d="M11483 720 L14002 720" stroke-width="13"/><path d="M11483 900 L14002 900" stroke-width="13"/><path d="M11483 1080 L14002 1080" stroke-width="13"/><path d="M11483 1260 L14002 1260" stroke-width="13"/><g data-id="u1angr76" data-class="layer" class="layer"><g data-id="k12uif4n" data-class="note" class="note"><g data-class="notehead" class="notehead"><use href="#E0A3-a1gifhnz" transform="translate(11674, 720) scale(0.72, 0.72)"/></g><g data-id="docda09" data-class="stem" class="stem"><path d="M11683 745 L11683 1350" stroke-width="18"/></g></g><g data-id="v1yl23j3" data-class="rest" class="rest"><use href="#E4E4-a1gifhnz" transform="translate(12831, 900) scale(0.72, 0.72)"/><g data-class="ledgerLines" class="ledgerLines"/></g></g></g><g data-id="t5k2kcq" data-class="barLine" class="barLine"><path d="M13989 540 L13989 1260" stroke-width="27"/></g></g></g></g></svg></svg>