<svg viewBox="0 0 560 84" version="1.1" xmlns="http://www.w3.org/2000/svg" xmlns:xlink="http://www.w3.org/1999/xlink" overflow="visible" id="j1t3j7az"><desc>Engraved by Verovio 5.6.0-85e7620</desc><defs><g id="E050-j1t3j7az"><path transform="scale(1,-1)" d="M441 -245c-23 -4 -48 -6 -76 -6c-59 0 -102 7 -130 20c-88 42 -150 93 -187 154c-26 44 -43 103 -48 176c0 6 -1 13 -1 19c0 54 15 111 45 170c29 57 65 106 110 148s96 85 153 127c-3 16 -8 46 -13 92c-4 43 -5 73 -5 89c0 117 16 172 69 257c34 54 64 82 89 82 c21 0 43 -30 69 -92s39 -115 41 -159v-15c0 -109 -21 -162 -67 -241c-13 -20 -63 -90 -98 -118c-13 -9 -25 -19 -37 -29l31 -181c8 1 18 2 28 2c58 0 102 -12 133 -35c59 -43 92 -104 98 -184c1 -7 1 -15 1 -22c0 -123 -87 -209 -181 -248c8 -57 17 -110 25 -162 c5 -31 6 -58 6 -80c0 -30 -5 -53 -14 -70c-35 -64 -88 -99 -158 -103c-5 0 -11 -1 -16 -1c-37 0 -72 10 -108 27c-50 24 -77 59 -80 105v11c0 29 7 55 20 76c18 28 45 42 79 44h6c49 0 93 -42 97 -87v-9c0 -51 -34 -86 -105 -106c17 -24 51 -36 102 -36c62 0 116 43 140 85 c9 16 13 41 13 74c0 20 -1 42 -5 67c-8 53 -18 106 -26 159zM461 939c-95 0 -135 -175 -135 -286c0 -24 2 -48 5 -71c50 39 92 82 127 128c40 53 60 100 60 140v8c-4 53 -22 81 -55 81h-2zM406 119l54 -326c73 25 110 78 110 161c0 7 0 15 -1 23c-7 95 -57 142 -151 142h-12 zM382 117c-72 -2 -128 -47 -128 -120v-7c2 -46 43 -99 75 -115c-3 -2 -7 -5 -10 -10c-70 33 -116 88 -123 172v11c0 68 44 126 88 159c23 17 49 29 78 36l-29 170c-21 -13 -52 -37 -92 -73c-50 -44 -86 -84 -109 -119c-45 -69 -67 -130 -67 -182v-13c5 -68 35 -127 93 -176 s125 -73 203 -73c25 0 50 3 75 9c-19 111 -36 221 -54 331z"/></g><g id="E08A-j1t3j7az"><path transform="scale(1,-1)" d="M340 179c-9 24 -56 41 -89 41c-46 0 -81 -28 -100 -58c-17 -28 -25 -78 -25 -150c0 -65 2 -111 8 -135c8 -31 18 -49 40 -67c20 -17 43 -25 70 -25c54 0 92 36 115 75c14 25 23 54 28 88h27c0 -63 -24 -105 -58 -141c-35 -38 -82 -56 -140 -56c-45 0 -83 13 -115 39 c-57 45 -101 130 -101 226c0 59 33 127 68 163c36 37 97 72 160 72c36 0 93 -21 121 -40c11 -8 23 -17 33 -30c19 -23 27 -48 27 -76c0 -51 -35 -88 -86 -88c-43 0 -76 27 -76 68c0 26 7 35 21 51c15 17 32 27 58 32c7 2 14 7 14 11z"/></g><g id="E0A4-j1t3j7az"><path transform="scale(1,-1)" d="M0 -39c0 68 73 172 200 172c66 0 114 -37 114 -95c0 -84 -106 -171 -218 -171c-64 0 -96 30 -96 94z"/></g><g id="E241-j1t3j7az"><path transform="scale(1,-1)" d="M179 646c-4 8 -17 30 -18 33l-4 10c0 3 2 5 5 5s7 -2 13 -7c23 -33 46 -81 66 -132c22 -57 35 -125 35 -163c0 -104 -60 -183 -122 -241c-63 -59 -57 -53 -61 -56c-38 -34 -63 -95 -71 -95h-22v190c40 7 69 11 87 16c88 27 168 95 168 200c0 30 -12 89 -30 138 c-17 47 -31 73 -46 102z"/></g></defs><style type="text/css">#j1t3j7az g.page-margin {font-family:Times,serif;}#j1t3j7az g.ending, #j1t3j7az g.fing, #j1t3j7az g.reh, #j1t3j7az g.tempo {font-weight:bold;}#j1t3j7az g.dir, #j1t3j7az g.dynam, #j1t3j7az g.mNum {font-style:italic;}#j1t3j7az g.label {font-weight:normal;}#j1t3j7az path {stroke:currentColor}</style><svg class="definition-scale" color="black" viewBox="0 0 14000 2100"><g class="page-margin" transform="translate(0, 150)"><g data-id="w12f4z0i" data-class="mdiv" class="mdiv pageMilestone"/><g data-id="x1je1g7n" data-class="score" class="score pageMilestone"/><g data-id="b79kc9n" data-class="system" class="system"><g data-id="z5g7qs4" data-class="section" class="section systemMilestone"/><g data-id="k16nbfbd" data-class="measure" class="measure"><g data-id="lr2m115" data-class="staff" class="staff"><path d="M0 540 L2646 540" stroke-width="13"/><path d="M0 720 L2646 720" stroke-width="13"/><path d="M0 900 L2646 900" stroke-width="13"/><path d="M0 1080 L2646 1080" stroke-width="13"/><path d="M0 1260 L2646 1260" stroke-width="13"/><g data-id="ji17l6o" data-class="clef" class="clef"><use href="#E050-j1t3j7az" transform="translate(90, 1080) scale(0.72, 0.72)"/></g><g data-id="k1v2es4n" data-class="keySig" class="keySig"/><g data-id="l1eotzfr" data-class="meterSig" class="meterSig"><use href="#E08A-j1t3j7az" transform="translate(735, 900) scale(0.72, 0.72)"/></g><g data-id="m835ehl" data-class="layer" class="layer"><g data-id="l1msdz6n" data-class="note" class="note"><g data-class="notehead" class="notehead"><use href="#E0A4-j1t3j7az" transform="translate(1303, 810) scale(0.72, 0.72)"/></g><g data-id="czoeosr" data-class="dots" class="dots"><ellipse cx="1619" cy="810" rx="36" ry="36" fill-opacity="1" stroke-opacity="1"/></g><g data-id="b15z7aib" data-class="stem" class="stem"><path d="M1312 838 L1312 1440" stroke-width="18"/></g></g><g data-id="my46j8c" data-class="note" class="note"><g data-class="notehead" class="notehead"><use href="#E0A4-j1t3j7az" transform="translate(2183, 900) scale(0.72, 0.72)"/></g><g data-id="dq458dk" data-class="stem" class="stem"><path d="M2192 928 L2192 1500" stroke-width="18"/><g data-id="e1av9h5y" data-class="flag" class="flag"><use href="#E241-j1t3j7az" transform="translate(2183, 1500) scale(0.72, 0.72)"/></g></g></g></g></g><g data-id="szp4oks" data-class="barLine" class="barLine"><path d="M2633 540 L2633 1260" stroke-width="27"/></g></g><g data-id="t1rr2f48" data-class="measure" class="measure"><g data-id="n7fu550" data-class="staff" class="staff"><path d="M2646 540 L5499 540" stroke-width="13"/><path d="M2646 720 L5499 720" stroke-width="13"/><path d="M2646 900 L5499 900" stroke-width="13"/><path d="M2646 1080 L5499 1080" stroke-width="13"/><path d="M2646 1260 L5499 1260" stroke-width="13"/><g data-id="o1p7ea0g" data-class="layer" class="layer"><g data-id="n163lfvv" data-class="note" class="note"><g data-class="notehead" class="notehead"><use href="#E0A4-j1t3j7az" transform="translate(2826, 720) scale(0.72, 0.72)"/></g><g data-id="g1otyp9h" data-class="dots" class="dots"><ellipse cx="3142" cy="630" rx="36" ry="36" fill-opacity="1" stroke-opacity="1"/></g><g data-id="f5laijt" data-class="stem" class="stem"><path d="M2835 748 L2835 1350" stroke-width="18"/></g></g><g data-id="o9r6bcv" data-class="note" class="note"><g data-class="notehead" class="notehead"><use href="#E0A4-j1t3j7az" transform="translate(3706, 810) scale(0.72, 0.72)"/></g><g data-id="h1mr1wy3" data-class="stem" class="stem"><path d="M3715 838 L3715 1440" stroke-width="18"/><g data-id="i1i47qtk" data-class="flag" class="flag"><use href="#E241-j1t3j7az" transform="translate(3706, 1440) scale(0.72, 0.72)"/></g></g></g><g data-id="p1h9pd5h" data-class="note" class="note"><g data-class="notehead" class="notehead"><use href="#E0A4-j1t3j7az" transform="translate(4156, 540) scale(0.72, 0.72)"/></g><g data-id="k1v52qja" data-class="dots" class="dots"><ellipse cx="4472" cy="450" rx="36" ry="36" fill-opacity="1" stroke-opacity="1"/></g><g data-id="jimk8cr" data-class="stem" class="stem"><path d="M4165 568 L4165 1170" stroke-width="18"/></g></g><g data-id="q1ypmbco" data-class="note" class="note"><g data-class="notehead" class="notehead"><use href="#E0A4-j1t3j7az" transform="translate(5036, 720) scale(0.72, 0.72)"/></g><g data-id="l1j9p8vi" data-class="stem" class="stem"><path d="M5045 748 L5045 1350" stroke-width="18"/><g data-id="m1il81o" data-class="flag" class="flag"><use href="#E241-j1t3j7az" transform="translate(5036, 1350) scale(0.72, 0.72)"/></g></g></g></g></g><g data-id="b1yydis8" data-class="barLine" class="barLine"><path d="M5486 540 L5486 1260" stroke-width="27"/></g></g><g data-id="chiqfoj" data-class="measure" class="measure"><g data-id="pw33aq2" data-class="staff" class="staff"><path d="M5499 540 L8352 540" stroke-width="13"/><path d="M5499 720 L8352 720" stroke-width="13"/><path d="M5499 900 L8352 900" stroke-width="13"/><path d="M5499 1080 L8352 1080" stroke-width="13"/><path d="M5499 1260 L8352 1260" stroke-width="13"/><g data-id="q1485keb" data-class="layer" class="layer"><g data-id="rigmzke" data-class="note" class="note"><g data-class="notehead" class="notehead"><use href="#E0A4-j1t3j7az" transform="translate(5679, 810) scale(0.72, 0.72)"/></g><g data-id="o1njsyxd" data-class="dots" class="dots"><ellipse cx="5995" cy="810" rx="36" ry="36" fill-opacity="1" stroke-opacity="1"/></g><g data-id="nppv4go" data-class="stem" class="stem"><path d="M5688 838 L5688 1440" stroke-width="18"/></g></g><g data-id="s1kd3b0" data-class="note" class="note"><g data-class="notehead" class="notehead"><use href="#E0A4-j1t3j7az" transform="translate(6559, 900) scale(0.72, 0.72)"/></g><g data-id="pfdmt17" data-class="stem" class="stem"><path d="M6568 928 L6568 1500" stroke-width="18"/><g data-id="q1m10ije" data-class="flag" class="flag"><use href="#E241-j1t3j7az" transform="translate(6559, 1500) scale(0.72, 0.72)"/></g></g></g><g data-id="tayi3oe" data-class="note" class="note"><g data-class="notehead" class="notehead"><use href="#E0A4-j1t3j7az" transform="translate(7009, 630) scale(0.72, 0.72)"/></g><g data-id="s1otc59q" data-class="dots" class="dots"><ellipse cx="7325" cy="630" rx="36" ry="36" fill-opacity="1" stroke-opacity="1"/></g><g data-id="rfjflza" data-class="stem" class="stem"><path d="M7018 658 L7018 1260" stroke-width="18"/></g></g><g data-id="u1agv0ty" data-class="note" class="note"><g data-class="notehead" class="notehead"><use href="#E0A4-j1t3j7az" transform="translate(7889, 810) scale(0.72, 0.72)"/></g><g data-id="t1p5qqfo" data-class="stem" class="stem"><path d="M7898 838 L7898 1440" stroke-width="18"/><g data-id="uy3fkq3" data-class="flag" class="flag"><use href="#E241-j1t3j7az" transform="translate(7889, 1440) scale(0.72, 0.72)"/></g></g></g></g></g><g data-id="kqbrk4f" data-class="barLine" class="barLine"><path d="M8339 540 L8339 1260" stroke-width="27"/></g></g><g data-id="ysn8fm1" data-class="systemMilestoneEnd" class="systemMilestoneEnd z5g7qs4"/></g><g data-id="z128mlql" data-class="pageMilestoneEnd" class="pageMilestoneEnd x1je1g7n"/><g data-id="a1d4nmyj" data-class="pageMilestoneEnd" class="pageMilestoneEnd w12f4z0i"/></g></svg></svg>