<svg viewBox="0 0 560 84" version="1.1" xmlns="http://www.w3.org/2000/svg" xmlns:xlink="http://www.w3.org/1999/xlink" overflow="visible" id="gngb1q4"><desc>Engraved by Verovio 5.6.0-85e7620</desc><defs><g id="E062-gngb1q4"><path transform="scale(1,-1)" d="M582 -120c0 32 26 58 58 58s58 -26 58 -58s-26 -58 -58 -58s-58 26 -58 58zM582 120c0 32 26 58 58 58s58 -26 58 -58s-26 -58 -58 -58s-58 26 -58 58zM158 96c51 0 73 -14 88 -49l16 -39c0 -17 -2 -30 -7 -40c-3 -11 -10 -21 -19 -31c-17 -18 -49 -43 -84 -43 c-55 0 -77 13 -112 44c-24 21 -35 55 -35 100c0 46 14 81 32 112c30 52 71 79 137 93l36 6l26 2c154 0 235 -68 274 -182c11 -32 18 -68 18 -107c0 -103 -26 -182 -68 -250c-89 -145 -234 -230 -412 -288l-30 -5c-9 0 -14 3 -14 8c3 10 5 11 10 16c35 15 70 30 96 44l78 43 c96 57 162 136 197 258c9 33 17 60 22 100c3 22 5 35 6 39c-7 69 -16 115 -23 140s-4 22 -16 40c-8 12 -19 23 -31 34c-24 21 -62 44 -118 44c-48 0 -84 -8 -113 -28c-28 -19 -42 -44 -42 -73v-16c2 -5 3 -9 4 -11c24 22 52 39 84 39z"/></g><g id="E260-gngb1q4"><path transform="scale(1,-1)" d="M20 110c32 16 54 27 93 27c26 0 35 -3 54 -13c13 -7 24 -20 27 -38l4 -25c0 -28 -16 -57 -45 -89c-23 -25 -39 -44 -65 -68l-88 -79v644h20v-359zM90 106c-32 0 -48 -10 -70 -29v-194c31 31 54 59 71 84c21 32 32 59 32 84c0 9 1 16 1 20c0 14 -3 21 -11 30l-8 3z"/></g><g id="E08A-gngb1q4"><path transform="scale(1,-1)" d="M340 179c-9 24 -56 41 -89 41c-46 0 -81 -28 -100 -58c-17 -28 -25 -78 -25 -150c0 -65 2 -111 8 -135c8 -31 18 -49 40 -67c20 -17 43 -25 70 -25c54 0 92 36 115 75c14 25 23 54 28 88h27c0 -63 -24 -105 -58 -141c-35 -38 -82 -56 -140 -56c-45 0 -83 13 -115 39 c-57 45 -101 130 -101 226c0 59 33 127 68 163c36 37 97 72 160 72c36 0 93 -21 121 -40c11 -8 23 -17 33 -30c19 -23 27 -48 27 -76c0 -51 -35 -88 -86 -88c-43 0 -76 27 -76 68c0 26 7 35 21 51c15 17 32 27 58 32c7 2 14 7 14 11z"/></g><g id="E4E5-gngb1q4"><path transform="scale(1,-1)" d="M107 292c-13 24 -30 49 -52 71c-1 1 0 2 0 3l-2 2c3 3 4 4 6 4c12 0 26 -7 40 -20s44 -40 89 -81c26 -24 28 -29 46 -47c4 -4 8 -9 10 -14c6 -8 8 -16 8 -27c0 -19 -12 -40 -36 -61c-28 -23 -49 -38 -61 -73c-4 -11 -7 -27 -10 -50c13 -43 34 -83 59 -121 c31 -47 59 -79 101 -129c-8 0 -26 7 -54 20l-62 29l-21 6l-23 1c-25 0 -45 -10 -60 -30l-4 -14l-1 -12c0 -33 20 -56 39 -78c8 -9 17 -18 26 -26c17 -15 27 -24 28 -30l-3 -3c-11 5 -19 10 -25 15c-9 3 -37 21 -45 26c-24 14 -45 32 -63 51c-19 21 -37 44 -37 71 c0 63 27 95 80 95c41 0 86 -18 136 -52c-19 26 -37 48 -55 66c-23 23 -48 44 -73 65c-28 23 -47 40 -58 53s-17 26 -18 39c75 64 113 125 113 183c0 27 -7 48 -18 68z"/></g><g id="E0A4-gngb1q4"><path transform="scale(1,-1)" d="M0 -39c0 68 73 172 200 172c66 0 114 -37 114 -95c0 -84 -106 -171 -218 -171c-64 0 -96 30 -96 94z"/></g><g id="E07A-gngb1q4"><path transform="scale(1,-1)" d="M343 -190c-18 -3 -37 -5 -59 -5c-46 0 -79 6 -101 16c-68 33 -117 72 -146 119c-20 34 -33 80 -37 137c0 5 -1 10 -1 15c0 42 12 86 35 132c23 44 51 82 86 115s75 65 119 98c-2 12 -7 36 -11 72c-3 33 -3 57 -3 69c0 91 12 134 53 200c26 42 50 63 69 63 c16 0 34 -23 54 -71s30 -90 32 -124v-11c0 -85 -16 -126 -52 -187c-10 -16 -49 -70 -76 -92c-10 -7 -20 -15 -29 -23l24 -140c6 1 14 1 22 1c45 0 79 -9 103 -27c46 -33 71 -81 76 -143c1 -5 1 -12 1 -17c0 -96 -68 -163 -141 -193c6 -44 14 -86 20 -126c4 -24 4 -45 4 -62 c0 -23 -3 -41 -10 -54c-27 -50 -69 -77 -123 -80c-4 0 -9 -1 -13 -1c-29 0 -56 8 -84 21c-39 19 -60 46 -62 82v8c0 23 6 43 16 59c14 22 35 32 61 34h5c38 0 72 -32 75 -67v-7c0 -40 -26 -67 -81 -83c13 -19 39 -28 79 -28c48 0 90 34 109 67c7 12 10 31 10 57 c0 16 -1 33 -4 52c-6 41 -14 83 -20 124zM358 730c-74 0 -105 -137 -105 -223c0 -19 2 -37 4 -55c39 30 72 64 99 100c31 41 46 77 46 108v7c-3 41 -16 63 -42 63h-2zM315 92l42 -253c57 19 86 61 86 125c0 5 0 12 -1 18c-5 74 -44 110 -117 110h-10zM297 91 c-56 -2 -100 -36 -100 -93v-6c2 -36 34 -77 59 -89c-2 -2 -6 -4 -8 -8c-54 26 -91 69 -96 134v8c0 53 35 98 69 124c18 13 37 23 60 28l-22 132c-16 -10 -41 -29 -72 -57c-39 -34 -66 -65 -84 -92c-35 -54 -52 -102 -52 -142v-10c4 -53 27 -99 72 -137s96 -56 157 -56 c19 0 40 2 59 7c-15 86 -28 172 -42 257z"/></g><g id="E0A3-gngb1q4"><path transform="scale(1,-1)" d="M278 64c0 22 -17 39 -43 39c-12 0 -26 -3 -41 -10c-85 -43 -165 -94 -165 -156c5 -25 15 -32 49 -32c67 11 200 95 200 159zM0 -36c0 68 73 174 200 174c66 0 114 -39 114 -97c0 -84 -106 -173 -218 -173c-64 0 -96 32 -96 96z"/></g></defs><style type="text/css">#gngb1q4 g.page-margin {font-family:Times,serif;}#gngb1q4 g.ending, #gngb1q4 g.fing, #gngb1q4 g.reh, #gngb1q4 g.tempo {font-weight:bold;}#gngb1q4 g.dir, #gngb1q4 g.dynam, #gngb1q4 g.mNum {font-style:italic;}#gngb1q4 g.label {font-weight:normal;}#gngb1q4 path {stroke:currentColor}</style><svg class="definition-scale" color="black" viewBox="0 0 14000 2100"><g class="page-margin" transform="translate(0, 150)"><g data-id="ax3ibss" data-class="mdiv" class="mdiv pageMilestone"/><g data-id="b1upbtqy" data-class="score" class="score pageMilestone"/><g data-id="tjq4so7" data-class="system" class="system"><g data-id="d1lxtnti" data-class="section" class="section systemMilestone"/><g data-id="h1nzpe5d" data-class="measure" class="measure"><g data-id="pe5yvtp" data-class="staff" class="staff"><path d="M0 540 L5044 540" stroke-width="13"/><path d="M0 720 L5044 720" stroke-width="13"/><path d="M0 900 L5044 900" stroke-width="13"/><path d="M0 1080 L5044 1080" stroke-width="13"/><path d="M0 1260 L5044 1260" stroke-width="13"/><g data-id="rfem2wk" data-class="clef" class="clef"><use href="#E062-gngb1q4" transform="translate(88, 720) scale(0.72, 0.72)"/></g><g data-id="s1wtk1fg" data-class="keySig" class="keySig"><g data-id="tjek5lu" data-class="keyAccid" class="keyAccid"><use href="#E260-gngb1q4" transform="translate(769, 1080) scale(0.72, 0.72)"/></g><g data-id="u1yrjsn4" data-class="keyAccid" class="keyAccid"><use href="#E260-gngb1q4" transform="translate(949, 810) scale(0.72, 0.72)"/></g><g data-id="v9wxoik" data-class="keyAccid" class="keyAccid"><use href="#E260-gngb1q4" transform="translate(1129, 1170) scale(0.72, 0.72)"/></g></g><g data-id="w66zr4g" data-class="meterSig" class="meterSig"><use href="#E08A-gngb1q4" transform="translate(1451, 900) scale(0.72, 0.72)"/></g><g data-id="qdxzwba" data-class="layer" class="layer"><g data-id="t1smrhcm" data-class="rest" class="rest"><use href="#E4E5-gngb1q4" transform="translate(2030, 900) scale(0.72, 0.72)"/></g><g data-id="upx5a0a" data-class="note" class="note"><g data-class="notehead" class="notehead"><use href="#E0A4-gngb1q4" transform="translate(2780, 630) scale(0.72, 0.72)"/></g><g data-id="q1403fvb" data-class="stem" class="stem"><path d="M2789 658 L2789 1260" stroke-width="18"/></g></g><g data-id="vikatqe" data-class="note" class="note"><g data-class="notehead" class="notehead"><use href="#E0A4-gngb1q4" transform="translate(3530, 720) scale(0.72, 0.72)"/></g><g data-id="rlmq9v2" data-class="stem" class="stem"><path d="M3539 748 L3539 1350" stroke-width="18"/></g></g><g data-id="w1fauk0a" data-class="note" class="note"><g data-class="notehead" class="notehead"><use href="#E0A4-gngb1q4" transform="translate(4281, 540) scale(0.72, 0.72)"/></g><g data-id="s1tdv75f" data-class="stem" class="stem"><path d="M4290 568 L4290 1170" stroke-width="18"/></g><g data-id="p1dsfdv5" data-class="accid" class="accid"/></g></g></g><g data-id="pgtamtb" data-class="barLine" class="barLine"><path d="M5031 540 L5031 1260" stroke-width="27"/></g></g><g data-id="rv07f0e" data-class="measure" class="measure"><g data-id="rb0pp4o" data-class="staff" class="staff"><path d="M5044 540 L8310 540" stroke-width="13"/><path d="M5044 720 L8310 720" stroke-width="13"/><path d="M5044 900 L8310 900" stroke-width="13"/><path d="M5044 1080 L8310 1080" stroke-width="13"/><path d="M5044 1260 L8310 1260" stroke-width="13"/><g data-id="s1ejdnj0" data-class="layer" class="layer"><g data-id="x1blyhou" data-class="note" class="note"><g data-class="notehead" class="notehead"><use href="#E0A4-gngb1q4" transform="translate(5235, 630) scale(0.72, 0.72)"/></g><g data-id="tb5pr2i" data-class="stem" class="stem"><path d="M5244 658 L5244 1260" stroke-width="18"/></g></g><g data-id="q17fslcf" data-class="clef" class="clef"><use href="#E07A-gngb1q4" transform="translate(5594, 1080) scale(0.72, 0.72)"/></g><g data-id="yzb3ipz" data-class="note" class="note"><g data-class="notehead" class="notehead"><use href="#E0A4-gngb1q4" transform="translate(6046, 1260) scale(0.72, 0.72)"/></g><g data-id="ur8kov2" data-class="stem" class="stem"><path d="M6263 1232 L6263 630" stroke-width="18"/></g><g data-id="qdzipyi" data-class="accid" class="accid"/></g><g data-id="z1jmat5m" data-class="note" class="note"><g data-class="notehead" class="notehead"><use href="#E0A4-gngb1q4" transform="translate(6797, 1350) scale(0.72, 0.72)"/></g><g data-id="v1uv6kht" data-class="stem" class="stem"><path d="M7014 1322 L7014 720" stroke-width="18"/></g></g><g data-id="a17f0nzi" data-class="note" class="note"><g data-class="notehead" class="notehead"><use href="#E0A4-gngb1q4" transform="translate(7547, 1170) scale(0.72, 0.72)"/></g><g data-id="wbhnmf7" data-class="stem" class="stem"><path d="M7764 1142 L7764 540" stroke-width="18"/></g></g></g></g><g data-id="zesa4k1" data-class="barLine" class="barLine"><path d="M8297 540 L8297 1260" stroke-width="27"/></g></g><g data-id="a1x63e1p" data-class="measure" class="measure"><g data-id="t1a9jte3" data-class="staff" class="staff"><path d="M8310 540 L11515 540" stroke-width="13"/><path d="M8310 720 L11515 720" stroke-width="13"/><path d="M8310 900 L11515 900" stroke-width="13"/><path d="M8310 1080 L11515 1080" stroke-width="13"/><path d="M8310 1260 L11515 1260" stroke-width="13"/><g data-id="unj7m3w" data-class="layer" class="layer"><g data-id="b1646088" data-class="note" class="note"><g data-class="notehead" class="notehead"><use href="#E0A4-gngb1q4" transform="translate(8501, 1260) scale(0.72, 0.72)"/></g><g data-id="x10kdjsy" data-class="stem" class="stem"><path d="M8718 1232 L8718 630" stroke-width="18"/></g><g data-id="r1m0ezvw" data-class="accid" class="accid"/></g><g data-id="c1rxe7kw" data-class="note" class="note"><g data-class="notehead" class="notehead"><use href="#E0A4-gngb1q4" transform="translate(9251, 1170) scale(0.72, 0.72)"/></g><g data-id="y3dt05x" data-class="stem" class="stem"><path d="M9468 1142 L9468 540" stroke-width="18"/></g></g><g data-id="dn9hfir" data-class="note" class="note"><g data-class="notehead" class="notehead"><use href="#E0A4-gngb1q4" transform="translate(10001, 1080) scale(0.72, 0.72)"/></g><g data-id="z1und5tn" data-class="stem" class="stem"><path d="M10218 1052 L10218 450" stroke-width="18"/></g></g><g data-id="e2jwywg" data-class="note" class="note"><g data-class="notehead" class="notehead"><use href="#E0A4-gngb1q4" transform="translate(10752, 900) scale(0.72, 0.72)"/></g><g data-id="a281ysa" data-class="stem" class="stem"><path d="M10761 928 L10761 1500" stroke-width="18"/></g><g data-id="snd8jkf" data-class="accid" class="accid"/></g></g></g><g data-id="i1qwumu9" data-class="barLine" class="barLine"><path d="M11502 540 L11502 1260" stroke-width="27"/></g></g><g data-id="j5x6hli" data-class="measure" class="measure"><g data-id="v1j9glb3" data-class="staff" class="staff"><path d="M11515 540 L14001 540" stroke-width="13"/><path d="M11515 720 L14001 720" stroke-width="13"/><path d="M11515 900 L14001 900" stroke-width="13"/><path d="M11515 1080 L14001 1080" stroke-width="13"/><path d="M11515 1260 L14001 1260" stroke-width="13"/><g data-id="w3efuac" data-class="layer" class="layer"><g data-id="f81oz9m" data-class="note" class="note"><g data-class="notehead" class="notehead"><use href="#E0A3-gngb1q4" transform="translate(11706, 900) scale(0.72, 0.72)"/></g><g data-id="b4w55ne" data-class="stem" class="stem"><path d="M11715 925 L11715 1500" stroke-width="18"/></g><g data-id="ti4n214" data-class="accid" class="accid"/></g><g data-id="gu7b6qe" data-class="note" class="note"><g data-class="notehead" class="notehead"><use href="#E0A3-gngb1q4" transform="translate(12847, 990) scale(0.72, 0.72)"/></g><g data-id="cwmqib5" data-class="stem" class="stem"><path d="M13064 962 L13064 360" stroke-width="18"/></g><g data-id="ufkiqik" data-class="accid" class="accid"/></g></g></g><g data-id="o6kcfbc" data-class="tie" class="tie"><path d="M13118,1035 C13328,1141 13719,1141 13930,1035 C13733,1188 13314,1188 13118,1035" stroke-linecap="round" stroke-linejoin="round" stroke-width="9"/></g><g data-id="r7eqqig" data-class="barLine" class="barLine"><path d="M13988 540 L13988 1260" stroke-width="27"/></g></g></g></g></svg></svg>