<svg viewBox="0 0 560 84" version="1.1" xmlns="http://www.w3.org/2000/svg" xmlns:xlink="http://www.w3.org/1999/xlink" overflow="visible" id="ef1ts9j"><desc>Engraved by Verovio 5.6.0-85e7620</desc><defs><g id="E062-ef1ts9j"><path transform="scale(1,-1)" d="M582 -120c0 32 26 58 58 58s58 -26 58 -58s-26 -58 -58 -58s-58 26 -58 58zM582 120c0 32 26 58 58 58s58 -26 58 -58s-26 -58 -58 -58s-58 26 -58 58zM158 96c51 0 73 -14 88 -49l16 -39c0 -17 -2 -30 -7 -40c-3 -11 -10 -21 -19 -31c-17 -18 -49 -43 -84 -43 c-55 0 -77 13 -112 44c-24 21 -35 55 -35 100c0 46 14 81 32 112c30 52 71 79 137 93l36 6l26 2c154 0 235 -68 274 -182c11 -32 18 -68 18 -107c0 -103 -26 -182 -68 -250c-89 -145 -234 -230 -412 -288l-30 -5c-9 0 -14 3 -14 8c3 10 5 11 10 16c35 15 70 30 96 44l78 43 c96 57 162 136 197 258c9 33 17 60 22 100c3 22 5 35 6 39c-7 69 -16 115 -23 140s-4 22 -16 40c-8 12 -19 23 -31 34c-24 21 -62 44 -118 44c-48 0 -84 -8 -113 -28c-28 -19 -42 -44 -42 -73v-16c2 -5 3 -9 4 -11c24 22 52 39 84 39z"/></g><g id="E262-ef1ts9j"><path transform="scale(1,-1)" d="M136 186v169h17v-164l44 14v-91l-44 -14v-165l44 12v-91l-44 -13v-155h-17v150l-76 -22v-155h-17v149l-43 -13v90l43 14v167l-43 -14v92l43 13v169h17v-163zM60 73v-167l76 22v168z"/></g><g id="E083-ef1ts9j"><path transform="scale(1,-1)" d="M208 250c97 0 177 -52 177 -116c0 -69 -40 -111 -118 -125c56 -5 125 -44 125 -116c0 -31 -10 -57 -31 -78c-19 -21 -45 -38 -78 -49l-50 -11c-15 -3 -36 -7 -55 -7c-50 0 -86 16 -113 38c-16 10 -23 18 -34 34c-7 13 -11 25 -11 38c0 43 27 83 68 83l3 -2 c61 0 75 -42 75 -70c0 -19 -24 -42 -26 -57c7 -17 20 -25 37 -25c44 0 94 29 94 78c0 75 -34 125 -138 125v36c84 0 131 22 131 98c0 54 -37 88 -87 88c-26 0 -43 -7 -51 -22c15 -22 44 -16 44 -70c0 -37 -37 -62 -71 -62c-22 0 -69 15 -69 76c0 79 101 116 178 116z"/></g><g id="E088-ef1ts9j"><path transform="scale(1,-1)" d="M195 -214c76 0 88 58 90 68c0 34 -35 60 -57 73l-52 29c-21 10 -32 17 -34 20c-39 -33 -58 -54 -62 -92c5 -23 23 -98 115 -98zM301 135c0 61 -72 76 -113 76c-40 0 -77 -17 -77 -51c3 -21 15 -38 26 -50c17 -15 33 -26 48 -34l65 -28c34 27 51 56 51 87zM176 -250 c-57 0 -166 26 -166 132c0 47 30 86 89 116c-33 15 -79 60 -79 119c0 79 85 132 178 132h18c5 0 21 1 28 -1c25 0 126 -30 126 -110c0 -37 -23 -76 -69 -116c43 -25 83 -71 83 -119c0 -101 -118 -153 -208 -153z"/></g><g id="E0A4-ef1ts9j"><path transform="scale(1,-1)" d="M0 -39c0 68 73 172 200 172c66 0 114 -37 114 -95c0 -84 -106 -171 -218 -171c-64 0 -96 30 -96 94z"/></g><g id="E07A-ef1ts9j"><path transform="scale(1,-1)" d="M343 -190c-18 -3 -37 -5 -59 -5c-46 0 -79 6 -101 16c-68 33 -117 72 -146 119c-20 34 -33 80 -37 137c0 5 -1 10 -1 15c0 42 12 86 35 132c23 44 51 82 86 115s75 65 119 98c-2 12 -7 36 -11 72c-3 33 -3 57 -3 69c0 91 12 134 53 200c26 42 50 63 69 63 c16 0 34 -23 54 -71s30 -90 32 -124v-11c0 -85 -16 -126 -52 -187c-10 -16 -49 -70 -76 -92c-10 -7 -20 -15 -29 -23l24 -140c6 1 14 1 22 1c45 0 79 -9 103 -27c46 -33 71 -81 76 -143c1 -5 1 -12 1 -17c0 -96 -68 -163 -141 -193c6 -44 14 -86 20 -126c4 -24 4 -45 4 -62 c0 -23 -3 -41 -10 -54c-27 -50 -69 -77 -123 -80c-4 0 -9 -1 -13 -1c-29 0 -56 8 -84 21c-39 19 -60 46 -62 82v8c0 23 6 43 16 59c14 22 35 32 61 34h5c38 0 72 -32 75 -67v-7c0 -40 -26 -67 -81 -83c13 -19 39 -28 79 -28c48 0 90 34 109 67c7 12 10 31 10 57 c0 16 -1 33 -4 52c-6 41 -14 83 -20 124zM358 730c-74 0 -105 -137 -105 -223c0 -19 2 -37 4 -55c39 30 72 64 99 100c31 41 46 77 46 108v7c-3 41 -16 63 -42 63h-2zM315 92l42 -253c57 19 86 61 86 125c0 5 0 12 -1 18c-5 74 -44 110 -117 110h-10zM297 91 c-56 -2 -100 -36 -100 -93v-6c2 -36 34 -77 59 -89c-2 -2 -6 -4 -8 -8c-54 26 -91 69 -96 134v8c0 53 35 98 69 124c18 13 37 23 60 28l-22 132c-16 -10 -41 -29 -72 -57c-39 -34 -66 -65 -84 -92c-35 -54 -52 -102 -52 -142v-10c4 -53 27 -99 72 -137s96 -56 157 -56 c19 0 40 2 59 7c-15 86 -28 172 -42 257z"/></g></defs><style type="text/css">#ef1ts9j g.page-margin {font-family:Times,serif;}#ef1ts9j g.ending, #ef1ts9j g.fing, #ef1ts9j g.reh, #ef1ts9j g.tempo {font-weight:bold;}#ef1ts9j g.dir, #ef1ts9j g.dynam, #ef1ts9j g.mNum {font-style:italic;}#ef1ts9j g.label {font-weight:normal;}#ef1ts9j path {stroke:currentColor}</style><svg class="definition-scale" color="black" viewBox="0 0 14000 2100"><g class="page-margin" transform="translate(0, 150)"><g data-id="t1q4ps4z" data-class="mdiv" class="mdiv pageMilestone"/><g data-id="u4frqja" data-class="score" class="score pageMilestone"/><g data-id="r1m2bsnf" data-class="system" class="system"><g data-id="w1a0b8za" data-class="section" class="section systemMilestone"/><g data-id="fxyeog6" data-class="measure" class="measure"><g data-id="i8nnxlc" data-class="staff" class="staff"><path d="M0 540 L3732 540" stroke-width="13"/><path d="M0 720 L3732 720" stroke-width="13"/><path d="M0 900 L3732 900" stroke-width="13"/><path d="M0 1080 L3732 1080" stroke-width="13"/><path d="M0 1260 L3732 1260" stroke-width="13"/><g data-id="y1tfyaxy" data-class="clef" class="clef"><use href="#E062-ef1ts9j" transform="translate(88, 720) scale(0.72, 0.72)"/></g><g data-id="z6maiqh" data-class="keySig" class="keySig"><g data-id="a1loe2vu" data-class="keyAccid" class="keyAccid"><use href="#E262-ef1ts9j" transform="translate(769, 720) scale(0.72, 0.72)"/></g><g data-id="b1h4n4p5" data-class="keyAccid" class="keyAccid"><use href="#E262-ef1ts9j" transform="translate(947, 990) scale(0.72, 0.72)"/></g></g><g data-id="c1yua4no" data-class="meterSig" class="meterSig"><use href="#E083-ef1ts9j" transform="translate(1258, 720) scale(0.72, 0.72)"/><use href="#E088-ef1ts9j" transform="translate(1261, 1080) scale(0.72, 0.72)"/></g><g data-id="jpxajlu" data-class="layer" class="layer"><g data-id="ky9i0kv" data-class="beam" class="beam"><polygon stroke-opacity="1" fill-opacity="1" points="1809,1305 3407,1305 3407,1215 1809,1215"/><polygon stroke-opacity="1" fill-opacity="1" points="1809,1170 2134,1170 2134,1080 1809,1080"/><polygon stroke-opacity="1" fill-opacity="1" points="2134,1170 2450,1170 2450,1080 2134,1080"/><polygon stroke-opacity="1" fill-opacity="1" points="2450,1170 2766,1170 2766,1080 2450,1080"/><polygon stroke-opacity="1" fill-opacity="1" points="2766,1170 3082,1170 3082,1080 2766,1080"/><polygon stroke-opacity="1" fill-opacity="1" points="3082,1170 3407,1170 3407,1080 3082,1080"/><g data-id="y1yml6xh" data-class="note" class="note"><g data-class="notehead" class="notehead"><use href="#E0A4-ef1ts9j" transform="translate(1809, 720) scale(0.72, 0.72)"/></g><g data-id="y1xac5pi" data-class="stem" class="stem"><path d="M1818 748 L1818 1287" stroke-width="18"/></g><g data-id="m1dbohwp" data-class="accid" class="accid"/></g><g data-id="z17p4khn" data-class="note" class="note"><g data-class="notehead" class="notehead"><use href="#E0A4-ef1ts9j" transform="translate(2125, 720) scale(0.72, 0.72)"/></g><g data-id="z1f23bqf" data-class="stem" class="stem"><path d="M2134 748 L2134 1287" stroke-width="18"/></g><g data-id="n19l1gep" data-class="accid" class="accid"/></g><g data-id="ae6zel7" data-class="note" class="note"><g data-class="notehead" class="notehead"><use href="#E0A4-ef1ts9j" transform="translate(2441, 720) scale(0.72, 0.72)"/></g><g data-id="ay7uen2" data-class="stem" class="stem"><path d="M2450 748 L2450 1287" stroke-width="18"/></g><g data-id="o1045vlx" data-class="accid" class="accid"/></g><g data-id="bp7lyvx" data-class="note" class="note"><g data-class="notehead" class="notehead"><use href="#E0A4-ef1ts9j" transform="translate(2757, 720) scale(0.72, 0.72)"/></g><g data-id="bpm53th" data-class="stem" class="stem"><path d="M2766 748 L2766 1287" stroke-width="18"/></g><g data-id="p1k8252u" data-class="accid" class="accid"/></g><g data-id="cetoynm" data-class="note" class="note"><g data-class="notehead" class="notehead"><use href="#E0A4-ef1ts9j" transform="translate(3073, 720) scale(0.72, 0.72)"/></g><g data-id="c1esj40t" data-class="stem" class="stem"><path d="M3082 748 L3082 1287" stroke-width="18"/></g><g data-id="qwpumal" data-class="accid" class="accid"/></g><g data-id="du4vrz9" data-class="note" class="note"><g data-class="notehead" class="notehead"><use href="#E0A4-ef1ts9j" transform="translate(3389, 720) scale(0.72, 0.72)"/></g><g data-id="d1gjgdvi" data-class="stem" class="stem"><path d="M3398 748 L3398 1287" stroke-width="18"/></g><g data-id="rmlepc4" data-class="accid" class="accid"/></g></g></g></g><g data-id="n1rxxjiw" data-class="barLine" class="barLine"><path d="M3719 540 L3719 1260" stroke-width="27"/></g></g><g data-id="pdtehp3" data-class="measure" class="measure"><g data-id="k1n2td75" data-class="staff" class="staff"><path d="M3732 540 L6197 540" stroke-width="13"/><path d="M3732 720 L6197 720" stroke-width="13"/><path d="M3732 900 L6197 900" stroke-width="13"/><path d="M3732 1080 L6197 1080" stroke-width="13"/><path d="M3732 1260 L6197 1260" stroke-width="13"/><g data-id="lj90vgz" data-class="layer" class="layer"><g data-id="o1njuwpw" data-class="clef" class="clef"><use href="#E07A-ef1ts9j" transform="translate(3822, 1080) scale(0.72, 0.72)"/></g><g data-id="l1p6xtb4" data-class="beam" class="beam"><polygon stroke-opacity="1" fill-opacity="1" points="4482,675 6080,675 6080,765 4482,765"/><polygon stroke-opacity="1" fill-opacity="1" points="4482,810 4807,810 4807,900 4482,900"/><polygon stroke-opacity="1" fill-opacity="1" points="4807,810 5123,810 5123,900 4807,900"/><polygon stroke-opacity="1" fill-opacity="1" points="5123,810 5439,810 5439,900 5123,900"/><polygon stroke-opacity="1" fill-opacity="1" points="5439,810 5755,810 5755,900 5439,900"/><polygon stroke-opacity="1" fill-opacity="1" points="5755,810 6080,810 6080,900 5755,900"/><g data-id="e18t8swn" data-class="note" class="note"><g data-class="notehead" class="notehead"><use href="#E0A4-ef1ts9j" transform="translate(4274, 1260) scale(0.72, 0.72)"/></g><g data-id="e1qm04i2" data-class="stem" class="stem"><path d="M4491 1232 L4491 693" stroke-width="18"/></g></g><g data-id="f3bys3w" data-class="note" class="note"><g data-class="notehead" class="notehead"><use href="#E0A4-ef1ts9j" transform="translate(4590, 1260) scale(0.72, 0.72)"/></g><g data-id="f1kfcucu" data-class="stem" class="stem"><path d="M4807 1232 L4807 693" stroke-width="18"/></g></g><g data-id="g1oeviqa" data-class="note" class="note"><g data-class="notehead" class="notehead"><use href="#E0A4-ef1ts9j" transform="translate(4906, 1260) scale(0.72, 0.72)"/></g><g data-id="g1ird9uo" data-class="stem" class="stem"><path d="M5123 1232 L5123 693" stroke-width="18"/></g></g><g data-id="h1yb5xyl" data-class="note" class="note"><g data-class="notehead" class="notehead"><use href="#E0A4-ef1ts9j" transform="translate(5222, 1260) scale(0.72, 0.72)"/></g><g data-id="hebdbt8" data-class="stem" class="stem"><path d="M5439 1232 L5439 693" stroke-width="18"/></g></g><g data-id="i1uhizrc" data-class="note" class="note"><g data-class="notehead" class="notehead"><use href="#E0A4-ef1ts9j" transform="translate(5538, 1260) scale(0.72, 0.72)"/></g><g data-id="ixqt58t" data-class="stem" class="stem"><path d="M5755 1232 L5755 693" stroke-width="18"/></g></g><g data-id="jawmsez" data-class="note" class="note"><g data-class="notehead" class="notehead"><use href="#E0A4-ef1ts9j" transform="translate(5854, 1260) scale(0.72, 0.72)"/></g><g data-id="j15w320b" data-class="stem" class="stem"><path d="M6071 1232 L6071 693" stroke-width="18"/></g></g></g></g></g><g data-id="x1tj6xqu" data-class="barLine" class="barLine"><path d="M6184 540 L6184 1260" stroke-width="27"/></g></g><g data-id="tlfm8q8" data-class="systemMilestoneEnd" class="systemMilestoneEnd w1a0b8za"/></g><g data-id="uv2dtby" data-class="pageMilestoneEnd" class="pageMilestoneEnd u4frqja"/><g data-id="v1dkc39u" data-class="pageMilestoneEnd" class="pageMilestoneEnd t1q4ps4z"/></g></svg></svg>