<svg viewBox="0 0 560 84" version="1.1" xmlns="http://www.w3.org/2000/svg" xmlns:xlink="http://www.w3.org/1999/xlink" overflow="visible" id="e1td1iuw"><desc>Engraved by Verovio 5.6.0-85e7620</desc><defs><g id="E062-e1td1iuw"><path transform="scale(1,-1)" d="M582 -120c0 32 26 58 58 58s58 -26 58 -58s-26 -58 -58 -58s-58 26 -58 58zM582 120c0 32 26 58 58 58s58 -26 58 -58s-26 -58 -58 -58s-58 26 -58 58zM158 96c51 0 73 -14 88 -49l16 -39c0 -17 -2 -30 -7 -40c-3 -11 -10 -21 -19 -31c-17 -18 -49 -43 -84 -43 c-55 0 -77 13 -112 44c-24 21 -35 55 -35 100c0 46 14 81 32 112c30 52 71 79 137 93l36 6l26 2c154 0 235 -68 274 -182c11 -32 18 -68 18 -107c0 -103 -26 -182 -68 -250c-89 -145 -234 -230 -412 -288l-30 -5c-9 0 -14 3 -14 8c3 10 5 11 10 16c35 15 70 30 96 44l78 43 c96 57 162 136 197 258c9 33 17 60 22 100c3 22 5 35 6 39c-7 69 -16 115 -23 140s-4 22 -16 40c-8 12 -19 23 -31 34c-24 21 -62 44 -118 44c-48 0 -84 -8 -113 -28c-28 -19 -42 -44 -42 -73v-16c2 -5 3 -9 4 -11c24 22 52 39 84 39z"/></g><g id="E262-e1td1iuw"><path transform="scale(1,-1)" d="M136 186v169h17v-164l44 14v-91l-44 -14v-165l44 12v-91l-44 -13v-155h-17v150l-76 -22v-155h-17v149l-43 -13v90l43 14v167l-43 -14v92l43 13v169h17v-163zM60 73v-167l76 22v168z"/></g><g id="E082-e1td1iuw"><path transform="scale(1,-1)" d="M124 -185c-18 0 -55 -14 -65 -65h-36l-3 30c0 25 6 45 18 63c11 19 22 30 39 43l121 82l37 29c15 11 27 29 38 54c12 24 18 47 18 70c0 40 -19 88 -94 88c-25 0 -32 0 -50 -8c-14 -5 -23 -12 -26 -22c3 -9 7 -15 10 -18l24 -17c12 -7 17 -11 27 -21c5 -7 7 -16 7 -27 c0 -12 0 -57 -79 -74c-30 0 -76 26 -76 94c0 66 81 135 197 135c72 0 181 -32 181 -150c0 -53 -32 -95 -113 -133l-91 -41c-26 -11 -45 -23 -57 -37l49 7c84 0 115 -41 148 -41c20 0 33 20 39 61h35c0 -152 -68 -168 -114 -168c-17 0 -65 0 -79 7h10l-28 17 c-49 37 -69 40 -87 42z"/></g><g id="E084-e1td1iuw"><path transform="scale(1,-1)" d="M20 -78c84 97 114 180 134 329h170c-13 -32 -82 -132 -99 -151l-84 -97c-33 -36 -59 -63 -80 -81h162v102l127 123v-225h57v-39h-57v-34c0 -43 19 -65 57 -65v-34h-244v36c48 0 60 26 60 70v27h-203v39z"/></g><g id="E0A4-e1td1iuw"><path transform="scale(1,-1)" d="M0 -39c0 68 73 172 200 172c66 0 114 -37 114 -95c0 -84 -106 -171 -218 -171c-64 0 -96 30 -96 94z"/></g></defs><style type="text/css">#e1td1iuw g.page-margin {font-family:Times,serif;}#e1td1iuw g.ending, #e1td1iuw g.fing, #e1td1iuw g.reh, #e1td1iuw g.tempo {font-weight:bold;}#e1td1iuw g.dir, #e1td1iuw g.dynam, #e1td1iuw g.mNum {font-style:italic;}#e1td1iuw g.label {font-weight:normal;}#e1td1iuw path {stroke:currentColor}</style><svg class="definition-scale" color="black" viewBox="0 0 14000 2100"><g class="page-margin" transform="translate(0, 150)"><g data-id="xyw9nnb" data-class="mdiv" class="mdiv pageMilestone"/><g data-id="y3fbo1g" data-class="score" class="score pageMilestone"/><g data-id="b39mcr1" data-class="system" class="system"><g data-id="a1xfvgo6" data-class="section" class="section systemMilestone"/><g data-id="fe1qz4h" data-class="measure" class="measure"><g data-id="m147opl0" data-class="staff" class="staff"><path d="M0 540 L4066 540" stroke-width="13"/><path d="M0 720 L4066 720" stroke-width="13"/><path d="M0 900 L4066 900" stroke-width="13"/><path d="M0 1080 L4066 1080" stroke-width="13"/><path d="M0 1260 L4066 1260" stroke-width="13"/><g data-id="h14ybi1t" data-class="clef" class="clef"><use href="#E062-e1td1iuw" transform="translate(88, 720) scale(0.72, 0.72)"/></g><g data-id="i1hgne2s" data-class="keySig" class="keySig"><g data-id="j7yk75" data-class="keyAccid" class="keyAccid"><use href="#E262-e1td1iuw" transform="translate(769, 720) scale(0.72, 0.72)"/></g><g data-id="k92a4pr" data-class="keyAccid" class="keyAccid"><use href="#E262-e1td1iuw" transform="translate(947, 990) scale(0.72, 0.72)"/></g></g><g data-id="lhiui9d" data-class="meterSig" class="meterSig"><use href="#E082-e1td1iuw" transform="translate(1254, 720) scale(0.72, 0.72)"/><use href="#E084-e1td1iuw" transform="translate(1259, 1080) scale(0.72, 0.72)"/></g><g data-id="n1nhdh8w" data-class="layer" class="layer"><g data-id="m13yiakt" data-class="beam" class="beam"><polygon stroke-opacity="1" fill-opacity="1" points="2035,180 2685,180 2685,270 2035,270"/><polygon stroke-opacity="1" fill-opacity="1" points="2035,315 2360,315 2360,405 2035,405"/><polygon stroke-opacity="1" fill-opacity="1" points="2360,315 2685,315 2685,405 2360,405"/><polygon stroke-opacity="1" fill-opacity="1" points="2035,450 2360,450 2360,540 2035,540"/><polygon stroke-opacity="1" fill-opacity="1" points="2360,450 2685,450 2685,540 2360,540"/><g data-id="x1iz3u8u" data-class="note" class="note"><g data-class="notehead" class="notehead"><use href="#E0A4-e1td1iuw" transform="translate(1827, 900) scale(0.72, 0.72)"/></g><g data-id="c1t125pq" data-class="stem" class="stem"><path d="M2044 872 L2044 198" stroke-width="18"/></g></g><g data-id="y1txgl7y" data-class="note" class="note"><g data-class="notehead" class="notehead"><use href="#E0A4-e1td1iuw" transform="translate(2143, 990) scale(0.72, 0.72)"/></g><g data-id="d1mtt6yq" data-class="stem" class="stem"><path d="M2360 962 L2360 198" stroke-width="18"/></g><g data-id="q1upczgd" data-class="accid" class="accid"/></g><g data-id="z1fj6c1q" data-class="note" class="note"><g data-class="notehead" class="notehead"><use href="#E0A4-e1td1iuw" transform="translate(2459, 900) scale(0.72, 0.72)"/></g><g data-id="e1qa4to7" data-class="stem" class="stem"><path d="M2676 872 L2676 198" stroke-width="18"/></g></g></g><g data-id="n97id6" data-class="beam" class="beam"><polygon stroke-opacity="1" fill-opacity="1" points="2983,180 3949,180 3949,270 2983,270"/><polygon stroke-opacity="1" fill-opacity="1" points="2983,315 3308,315 3308,405 2983,405"/><polygon stroke-opacity="1" fill-opacity="1" points="3308,315 3624,315 3624,405 3308,405"/><polygon stroke-opacity="1" fill-opacity="1" points="3624,315 3949,315 3949,405 3624,405"/><polygon stroke-opacity="1" fill-opacity="1" points="2983,450 3308,450 3308,540 2983,540"/><polygon stroke-opacity="1" fill-opacity="1" points="3308,450 3624,450 3624,540 3308,540"/><polygon stroke-opacity="1" fill-opacity="1" points="3624,450 3949,450 3949,540 3624,540"/><g data-id="andwfre" data-class="note" class="note"><g data-class="notehead" class="notehead"><use href="#E0A4-e1td1iuw" transform="translate(2775, 990) scale(0.72, 0.72)"/></g><g data-id="f199eimv" data-class="stem" class="stem"><path d="M2992 962 L2992 198" stroke-width="18"/></g><g data-id="r1yp5lam" data-class="accid" class="accid"/></g><g data-id="bttkruz" data-class="note" class="note"><g data-class="notehead" class="notehead"><use href="#E0A4-e1td1iuw" transform="translate(3091, 900) scale(0.72, 0.72)"/></g><g data-id="g1fi7ijy" data-class="stem" class="stem"><path d="M3308 872 L3308 198" stroke-width="18"/></g></g><g data-id="c13alglk" data-class="note" class="note"><g data-class="notehead" class="notehead"><use href="#E0A4-e1td1iuw" transform="translate(3407, 990) scale(0.72, 0.72)"/></g><g data-id="hwwaqdy" data-class="stem" class="stem"><path d="M3624 962 L3624 198" stroke-width="18"/></g><g data-id="sql7ncw" data-class="accid" class="accid"/></g><g data-id="dscku97" data-class="note" class="note"><g data-class="notehead" class="notehead"><use href="#E0A4-e1td1iuw" transform="translate(3723, 900) scale(0.72, 0.72)"/></g><g data-id="i13h8acx" data-class="stem" class="stem"><path d="M3940 872 L3940 198" stroke-width="18"/></g></g></g></g></g><g data-id="n1vrfivi" data-class="barLine" class="barLine"><path d="M4053 540 L4053 1260" stroke-width="27"/></g></g><g data-id="o1ax4wi3" data-class="measure" class="measure"><g data-id="o37jqnz" data-class="staff" class="staff"><path d="M4066 540 L6684 540" stroke-width="13"/><path d="M4066 720 L6684 720" stroke-width="13"/><path d="M4066 900 L6684 900" stroke-width="13"/><path d="M4066 1080 L6684 1080" stroke-width="13"/><path d="M4066 1260 L6684 1260" stroke-width="13"/><g data-class="ledgerLines" class="ledgerLines below"><g data-class="lineDash" class="lineDash" data-related="#i1j6uh36"><path d="M5462 1440 L5784 1440" stroke-width="22"/></g></g><g data-id="py4d0un" data-class="layer" class="layer"><g data-id="of0o0sx" data-class="beam" class="beam"><polygon stroke-opacity="1" fill-opacity="1" points="4246,1710 5212,1710 5212,1620 4246,1620"/><polygon stroke-opacity="1" fill-opacity="1" points="4246,1575 4571,1575 4571,1485 4246,1485"/><polygon stroke-opacity="1" fill-opacity="1" points="4571,1575 4887,1575 4887,1485 4571,1485"/><polygon stroke-opacity="1" fill-opacity="1" points="4887,1575 5212,1575 5212,1485 4887,1485"/><polygon stroke-opacity="1" fill-opacity="1" points="4246,1440 4571,1440 4571,1350 4246,1350"/><polygon stroke-opacity="1" fill-opacity="1" points="4571,1440 4887,1440 4887,1350 4571,1350"/><polygon stroke-opacity="1" fill-opacity="1" points="4887,1440 5212,1440 5212,1350 4887,1350"/><g data-id="e1d8htcg" data-class="note" class="note"><g data-class="notehead" class="notehead"><use href="#E0A4-e1td1iuw" transform="translate(4246, 720) scale(0.72, 0.72)"/></g><g data-id="juuq2q5" data-class="stem" class="stem"><path d="M4255 748 L4255 1692" stroke-width="18"/></g><g data-id="tmu5i9n" data-class="accid" class="accid"/></g><g data-id="f1cttgwq" data-class="note" class="note"><g data-class="notehead" class="notehead"><use href="#E0A4-e1td1iuw" transform="translate(4562, 900) scale(0.72, 0.72)"/></g><g data-id="kgk054x" data-class="stem" class="stem"><path d="M4571 928 L4571 1692" stroke-width="18"/></g></g><g data-id="g8c5zne" data-class="note" class="note"><g data-class="notehead" class="notehead"><use href="#E0A4-e1td1iuw" transform="translate(4878, 990) scale(0.72, 0.72)"/></g><g data-id="lv2mfxt" data-class="stem" class="stem"><path d="M4887 1018 L4887 1692" stroke-width="18"/></g><g data-id="u13hb5gn" data-class="accid" class="accid"/></g><g data-id="h15pmcah" data-class="note" class="note"><g data-class="notehead" class="notehead"><use href="#E0A4-e1td1iuw" transform="translate(5194, 900) scale(0.72, 0.72)"/></g><g data-id="m1an4joh" data-class="stem" class="stem"><path d="M5203 928 L5203 1692" stroke-width="18"/></g></g></g><g data-id="p1g8z1ct" data-class="beam" class="beam"><polygon stroke-opacity="1" fill-opacity="1" points="5718,180 6684,180 6684,270 5718,270"/><polygon stroke-opacity="1" fill-opacity="1" points="5718,315 6043,315 6043,405 5718,405"/><polygon stroke-opacity="1" fill-opacity="1" points="6043,315 6359,315 6359,405 6043,405"/><polygon stroke-opacity="1" fill-opacity="1" points="6359,315 6684,315 6684,405 6359,405"/><polygon stroke-opacity="1" fill-opacity="1" points="5718,450 6043,450 6043,540 5718,540"/><polygon stroke-opacity="1" fill-opacity="1" points="6043,450 6359,450 6359,540 6043,540"/><polygon stroke-opacity="1" fill-opacity="1" points="6359,450 6684,450 6684,540 6359,540"/><g data-id="i1j6uh36" data-class="note" class="note"><g data-class="notehead" class="notehead"><use href="#E0A4-e1td1iuw" transform="translate(5510, 1440) scale(0.72, 0.72)"/></g><g data-id="n1vakr3i" data-class="stem" class="stem"><path d="M5727 1412 L5727 198" stroke-width="18"/></g></g><g data-id="j1wh3t7f" data-class="note" class="note"><g data-class="notehead" class="notehead"><use href="#E0A4-e1td1iuw" transform="translate(5826, 900) scale(0.72, 0.72)"/></g><g data-id="o13u46cc" data-class="stem" class="stem"><path d="M6043 872 L6043 198" stroke-width="18"/></g></g><g data-id="k1xn71v9" data-class="note" class="note"><g data-class="notehead" class="notehead"><use href="#E0A4-e1td1iuw" transform="translate(6142, 990) scale(0.72, 0.72)"/></g><g data-id="p1m6tunr" data-class="stem" class="stem"><path d="M6359 962 L6359 198" stroke-width="18"/></g><g data-id="viyz2gs" data-class="accid" class="accid"/></g><g data-id="l1fbx6z0" data-class="note" class="note"><g data-class="notehead" class="notehead"><use href="#E0A4-e1td1iuw" transform="translate(6458, 900) scale(0.72, 0.72)"/></g><g data-id="q1qdz9fd" data-class="stem" class="stem"><path d="M6675 872 L6675 198" stroke-width="18"/></g></g></g></g></g><g data-id="w1hw2mnh" data-class="barLine" class="barLine"/></g><g data-id="x1yaa4jr" data-class="systemMilestoneEnd" class="systemMilestoneEnd a1xfvgo6"/></g><g data-id="y1vzqg2k" data-class="pageMilestoneEnd" class="pageMilestoneEnd y3fbo1g"/><g data-id="z1jssdui" data-class="pageMilestoneEnd" class="pageMilestoneEnd xyw9nnb"/></g></svg></svg>