<svg viewBox="0 0 560 84" version="1.1" xmlns="http://www.w3.org/2000/svg" xmlns:xlink="http://www.w3.org/1999/xlink" overflow="visible" id="u15p87va"><desc>Engraved by Verovio 5.6.0-85e7620</desc><defs><g id="E05C-u15p87va"><path transform="scale(1,-1)" d="M175 502h43v-456c10 5 18 12 37 29c16 19 22 27 27 38s8 24 14 49c3 22 5 43 5 62c7 -34 31 -54 73 -60c73 18 99 61 100 165c0 46 -10 78 -31 100c-18 23 -41 35 -69 35c-40 0 -65 -32 -66 -84c6 12 11 16 39 24c5 0 2 1 16 -4l17 -10l10 -14l7 -18 c-4 -32 -23 -48 -56 -48c-51 0 -77 33 -77 98c10 35 16 47 30 61c9 9 15 14 23 17c3 3 22 9 27 11l34 3l35 2c123 0 192 -64 192 -178l1 -33c0 -52 -20 -97 -60 -134c-18 -15 -42 -28 -74 -39c-30 -9 -63 -13 -101 -13l-93 -88v-34l93 -88c38 0 71 -4 101 -13 c32 -11 56 -24 74 -39c40 -37 60 -82 60 -134l-3 -33c0 -115 -68 -178 -190 -178l-35 2l-34 3c-5 2 -24 8 -27 11c-26 11 -40 32 -53 78c0 65 26 98 77 98c33 0 52 -16 56 -48l-7 -18l-10 -14l-17 -10c-14 -5 -11 -4 -16 -4c-28 8 -33 12 -39 24c1 -52 26 -84 66 -84 c28 0 51 12 69 35c21 22 31 54 31 100c-1 104 -27 147 -100 165c-42 -6 -66 -26 -73 -60c0 19 -2 40 -5 62c-6 25 -9 38 -14 49s-11 19 -27 38c-19 17 -27 24 -37 29v-456h-43v1004zM0 502h118v-1004h-118v1004z"/></g><g id="E262-u15p87va"><path transform="scale(1,-1)" d="M136 186v169h17v-164l44 14v-91l-44 -14v-165l44 12v-91l-44 -13v-155h-17v150l-76 -22v-155h-17v149l-43 -13v90l43 14v167l-43 -14v92l43 13v169h17v-163zM60 73v-167l76 22v168z"/></g><g id="E08A-u15p87va"><path transform="scale(1,-1)" d="M340 179c-9 24 -56 41 -89 41c-46 0 -81 -28 -100 -58c-17 -28 -25 -78 -25 -150c0 -65 2 -111 8 -135c8 -31 18 -49 40 -67c20 -17 43 -25 70 -25c54 0 92 36 115 75c14 25 23 54 28 88h27c0 -63 -24 -105 -58 -141c-35 -38 -82 -56 -140 -56c-45 0 -83 13 -115 39 c-57 45 -101 130 -101 226c0 59 33 127 68 163c36 37 97 72 160 72c36 0 93 -21 121 -40c11 -8 23 -17 33 -30c19 -23 27 -48 27 -76c0 -51 -35 -88 -86 -88c-43 0 -76 27 -76 68c0 26 7 35 21 51c15 17 32 27 58 32c7 2 14 7 14 11z"/></g><g id="E0A3-u15p87va"><path transform="scale(1,-1)" d="M278 64c0 22 -17 39 -43 39c-12 0 -26 -3 -41 -10c-85 -43 -165 -94 -165 -156c5 -25 15 -32 49 -32c67 11 200 95 200 159zM0 -36c0 68 73 174 200 174c66 0 114 -39 114 -97c0 -84 -106 -173 -218 -173c-64 0 -96 32 -96 96z"/></g></defs><style type="text/css">#u15p87va g.page-margin {font-family:Times,serif;}#u15p87va g.ending, #u15p87va g.fing, #u15p87va g.reh, #u15p87va g.tempo {font-weight:bold;}#u15p87va g.dir, #u15p87va g.dynam, #u15p87va g.mNum {font-style:italic;}#u15p87va g.label {font-weight:normal;}#u15p87va path {stroke:currentColor}</style><svg class="definition-scale" color="black" viewBox="0 0 14000 2100"><g class="page-margin" transform="translate(0, 150)"><g data-id="a1u1617" data-class="mdiv" class="mdiv pageMilestone"/><g data-id="b1oyj6iv" data-class="score" class="score pageMilestone"/><g data-id="y12icvml" data-class="system" class="system"><g data-id="d1os043e" data-class="section" class="section systemMilestone"/><g data-id="vlkjbrd" data-class="measure" class="measure"><g data-id="p1h50c40" data-class="staff" class="staff"><path d="M0 540 L4467 540" stroke-width="13"/><path d="M0 720 L4467 720" stroke-width="13"/><path d="M0 900 L4467 900" stroke-width="13"/><path d="M0 1080 L4467 1080" stroke-width="13"/><path d="M0 1260 L4467 1260" stroke-width="13"/><g data-id="d2h6i80" data-class="clef" class="clef"><use href="#E05C-u15p87va" transform="translate(90, 900) scale(0.72, 0.72)"/></g><g data-id="e5bkcp4" data-class="keySig" class="keySig"><g data-id="ft90jzt" data-class="keyAccid" class="keyAccid"><use href="#E262-u15p87va" transform="translate(706, 630) scale(0.72, 0.72)"/></g><g data-id="g1egzv43" data-class="keyAccid" class="keyAccid"><use href="#E262-u15p87va" transform="translate(884, 900) scale(0.72, 0.72)"/></g><g data-id="hyaj81n" data-class="keyAccid" class="keyAccid"><use href="#E262-u15p87va" transform="translate(1062, 540) scale(0.72, 0.72)"/></g></g><g data-id="i1qqttq8" data-class="meterSig" class="meterSig"><use href="#E08A-u15p87va" transform="translate(1383, 900) scale(0.72, 0.72)"/></g><g data-id="qd8tls7" data-class="layer" class="layer"><g data-id="oexqw8m" data-class="note" class="note"><g data-class="notehead" class="notehead"><use href="#E0A3-u15p87va" transform="translate(1983, 1350) scale(0.72, 0.72)"/></g><g data-id="mclzmsm" data-class="stem" class="stem"><path d="M2200 1322 L2200 720" stroke-width="18"/></g></g><g data-id="p1ohjq9h" data-class="note" class="note"><g data-class="notehead" class="notehead"><use href="#E0A3-u15p87va" transform="translate(3219, 1080) scale(0.72, 0.72)"/></g><g data-id="n74km90" data-class="stem" class="stem"><path d="M3436 1052 L3436 450" stroke-width="18"/></g></g></g></g><g data-id="d1sun69j" data-class="barLine" class="barLine"><path d="M4454 540 L4454 1260" stroke-width="27"/></g></g><g data-id="equw2u1" data-class="measure" class="measure"><g data-id="r1txxgzg" data-class="staff" class="staff"><path d="M4467 540 L7163 540" stroke-width="13"/><path d="M4467 720 L7163 720" stroke-width="13"/><path d="M4467 900 L7163 900" stroke-width="13"/><path d="M4467 1080 L7163 1080" stroke-width="13"/><path d="M4467 1260 L7163 1260" stroke-width="13"/><g data-id="sddj15j" data-class="layer" class="layer"><g data-id="q11u7b1p" data-class="note" class="note"><g data-class="notehead" class="notehead"><use href="#E0A3-u15p87va" transform="translate(4679, 990) scale(0.72, 0.72)"/></g><g data-id="o1xqhp29" data-class="stem" class="stem"><path d="M4896 962 L4896 360" stroke-width="18"/></g></g><g data-id="r4bc3yf" data-class="note" class="note"><g data-class="notehead" class="notehead"><use href="#E0A3-u15p87va" transform="translate(5915, 990) scale(0.72, 0.72)"/></g><g data-id="pbqejvl" data-class="stem" class="stem"><path d="M6132 962 L6132 360" stroke-width="18"/></g></g></g></g><g data-id="m14qx4kb" data-class="barLine" class="barLine"><path d="M7150 540 L7150 1260" stroke-width="27"/></g></g><g data-id="n1kws6cg" data-class="measure" class="measure"><g data-id="t1skvj3e" data-class="staff" class="staff"><path d="M7163 540 L9859 540" stroke-width="13"/><path d="M7163 720 L9859 720" stroke-width="13"/><path d="M7163 900 L9859 900" stroke-width="13"/><path d="M7163 1080 L9859 1080" stroke-width="13"/><path d="M7163 1260 L9859 1260" stroke-width="13"/><g data-id="uhaon6y" data-class="layer" class="layer"><g data-id="s1m2s671" data-class="note" class="note"><g data-class="notehead" class="notehead"><use href="#E0A3-u15p87va" transform="translate(7375, 900) scale(0.72, 0.72)"/></g><g data-id="qetk3pp" data-class="stem" class="stem"><path d="M7384 925 L7384 1500" stroke-width="18"/></g><g data-id="xt42w2v" data-class="accid" class="accid"/></g><g data-id="t117yhgm" data-class="note" class="note"><g data-class="notehead" class="notehead"><use href="#E0A3-u15p87va" transform="translate(8611, 720) scale(0.72, 0.72)"/></g><g data-id="r1le8lam" data-class="stem" class="stem"><path d="M8620 745 L8620 1350" stroke-width="18"/></g></g></g></g><g data-id="v1h2sra6" data-class="barLine" class="barLine"><path d="M9846 540 L9846 1260" stroke-width="27"/></g></g><g data-id="w1rty4tr" data-class="measure" class="measure"><g data-id="vtjashj" data-class="staff" class="staff"><path d="M9859 540 L12555 540" stroke-width="13"/><path d="M9859 720 L12555 720" stroke-width="13"/><path d="M9859 900 L12555 900" stroke-width="13"/><path d="M9859 1080 L12555 1080" stroke-width="13"/><path d="M9859 1260 L12555 1260" stroke-width="13"/><g data-id="wr7ixqz" data-class="layer" class="layer"><g data-id="u1jvs1hc" data-class="note" class="note"><g data-class="notehead" class="notehead"><use href="#E0A3-u15p87va" transform="translate(10071, 720) scale(0.72, 0.72)"/></g><g data-id="sh8dnh2" data-class="stem" class="stem"><path d="M10080 745 L10080 1350" stroke-width="18"/></g></g><g data-id="vwb59yf" data-class="note" class="note"><g data-class="notehead" class="notehead"><use href="#E0A3-u15p87va" transform="translate(11307, 810) scale(0.72, 0.72)"/></g><g data-id="trz09j3" data-class="stem" class="stem"><path d="M11316 835 L11316 1440" stroke-width="18"/></g></g></g></g><g data-id="e1aa4lw8" data-class="barLine" class="barLine"><path d="M12542 540 L12542 1260" stroke-width="27"/></g></g><g data-id="f61ivgl" data-class="measure" class="measure"><g data-id="x93h2q9" data-class="staff" class="staff"><path d="M12555 540 L14003 540" stroke-width="13"/><path d="M12555 720 L14003 720" stroke-width="13"/><path d="M12555 900 L14003 900" stroke-width="13"/><path d="M12555 1080 L14003 1080" stroke-width="13"/><path d="M12555 1260 L14003 1260" stroke-width="13"/><g data-id="yih7bw6" data-class="layer" class="layer"><g data-id="w1sas79r" data-class="note" class="note"><g data-class="notehead" class="notehead"><use href="#E0A3-u15p87va" transform="translate(12767, 900) scale(0.72, 0.72)"/></g><g data-id="ukta6d" data-class="stem" class="stem"><path d="M12776 925 L12776 1500" stroke-width="18"/></g><g data-id="y13hh4n7" data-class="accid" class="accid"/></g></g></g><g data-id="nvfmpxa" data-class="barLine" class="barLine"/></g><g data-id="g17699eo" data-class="systemMilestoneEnd" class="systemMilestoneEnd d1os043e"/></g><g data-id="hlm1tpb" data-class="pageMilestoneEnd" class="pageMilestoneEnd b1oyj6iv"/><g data-id="i1q6rgxq" data-class="pageMilestoneEnd" class="pageMilestoneEnd a1u1617"/></g></svg></svg>