<svg viewBox="0 0 560 104" version="1.1" xmlns="http://www.w3.org/2000/svg" xmlns:xlink="http://www.w3.org/1999/xlink" overflow="visible" id="rze6bsf"><desc>Engraved by Verovio 5.6.0-85e7620</desc><defs><g id="E050-rze6bsf"><path transform="scale(1,-1)" d="M441 -245c-23 -4 -48 -6 -76 -6c-59 0 -102 7 -130 20c-88 42 -150 93 -187 154c-26 44 -43 103 -48 176c0 6 -1 13 -1 19c0 54 15 111 45 170c29 57 65 106 110 148s96 85 153 127c-3 16 -8 46 -13 92c-4 43 -5 73 -5 89c0 117 16 172 69 257c34 54 64 82 89 82 c21 0 43 -30 69 -92s39 -115 41 -159v-15c0 -109 -21 -162 -67 -241c-13 -20 -63 -90 -98 -118c-13 -9 -25 -19 -37 -29l31 -181c8 1 18 2 28 2c58 0 102 -12 133 -35c59 -43 92 -104 98 -184c1 -7 1 -15 1 -22c0 -123 -87 -209 -181 -248c8 -57 17 -110 25 -162 c5 -31 6 -58 6 -80c0 -30 -5 -53 -14 -70c-35 -64 -88 -99 -158 -103c-5 0 -11 -1 -16 -1c-37 0 -72 10 -108 27c-50 24 -77 59 -80 105v11c0 29 7 55 20 76c18 28 45 42 79 44h6c49 0 93 -42 97 -87v-9c0 -51 -34 -86 -105 -106c17 -24 51 -36 102 -36c62 0 116 43 140 85 c9 16 13 41 13 74c0 20 -1 42 -5 67c-8 53 -18 106 -26 159zM461 939c-95 0 -135 -175 -135 -286c0 -24 2 -48 5 -71c50 39 92 82 127 128c40 53 60 100 60 140v8c-4 53 -22 81 -55 81h-2zM406 119l54 -326c73 25 110 78 110 161c0 7 0 15 -1 23c-7 95 -57 142 -151 142h-12 zM382 117c-72 -2 -128 -47 -128 -120v-7c2 -46 43 -99 75 -115c-3 -2 -7 -5 -10 -10c-70 33 -116 88 -123 172v11c0 68 44 126 88 159c23 17 49 29 78 36l-29 170c-21 -13 -52 -37 -92 -73c-50 -44 -86 -84 -109 -119c-45 -69 -67 -130 -67 -182v-13c5 -68 35 -127 93 -176 s125 -73 203 -73c25 0 50 3 75 9c-19 111 -36 221 -54 331z"/></g><g id="E262-rze6bsf"><path transform="scale(1,-1)" d="M136 186v169h17v-164l44 14v-91l-44 -14v-165l44 12v-91l-44 -13v-155h-17v150l-76 -22v-155h-17v149l-43 -13v90l43 14v167l-43 -14v92l43 13v169h17v-163zM60 73v-167l76 22v168z"/></g><g id="E086-rze6bsf"><path transform="scale(1,-1)" d="M284 -91c0 37 -28 92 -67 92c-35 0 -65 -54 -65 -111c0 -52 22 -104 68 -104c47 0 64 68 64 123zM230 214c-36 0 -90 -33 -90 -184l2 -36c40 24 81 36 120 36c80 0 140 -48 140 -121c0 -99 -99 -159 -182 -159c-160 0 -200 173 -200 244c0 21 2 43 7 71l10 35 c26 85 73 115 98 126c41 19 74 24 103 24c93 0 142 -63 142 -105c0 -58 -52 -72 -73 -72c-33 0 -59 24 -65 35c-3 5 -6 14 -7 25l11 30c6 15 9 27 9 35c0 11 -9 16 -25 16z"/></g><g id="E088-rze6bsf"><path transform="scale(1,-1)" d="M195 -214c76 0 88 58 90 68c0 34 -35 60 -57 73l-52 29c-21 10 -32 17 -34 20c-39 -33 -58 -54 -62 -92c5 -23 23 -98 115 -98zM301 135c0 61 -72 76 -113 76c-40 0 -77 -17 -77 -51c3 -21 15 -38 26 -50c17 -15 33 -26 48 -34l65 -28c34 27 51 56 51 87zM176 -250 c-57 0 -166 26 -166 132c0 47 30 86 89 116c-33 15 -79 60 -79 119c0 79 85 132 178 132h18c5 0 21 1 28 -1c25 0 126 -30 126 -110c0 -37 -23 -76 -69 -116c43 -25 83 -71 83 -119c0 -101 -118 -153 -208 -153z"/></g><g id="E4E6-rze6bsf"><path transform="scale(1,-1)" d="M0 123c7 34 33 56 69 60c29 -3 43 -9 53 -29c4 -8 7 -15 10 -22c0 -21 -1 -25 -11 -35c-5 -8 -18 -14 -40 -20l12 -3l15 -1c44 0 97 26 122 56c10 11 18 26 24 42c7 1 15 2 22 3l-140 -424h-36l111 330c-10 -6 -27 -12 -53 -16l-52 -8h-10l-20 1c-1 0 -8 3 -21 6 c-37 9 -55 28 -55 60z"/></g><g id="E0A4-rze6bsf"><path transform="scale(1,-1)" d="M0 -39c0 68 73 172 200 172c66 0 114 -37 114 -95c0 -84 -106 -171 -218 -171c-64 0 -96 30 -96 94z"/></g><g id="E240-rze6bsf"><path transform="scale(1,-1)" d="M179 -646c15 29 29 55 46 102c18 49 30 108 30 138c0 105 -80 173 -168 200c-18 5 -47 9 -87 16v190h22c8 0 33 -61 71 -95c4 -3 -2 3 61 -56c62 -58 122 -137 122 -241c0 -38 -13 -106 -35 -163c-20 -51 -43 -99 -66 -132c-6 -5 -10 -7 -13 -7s-5 2 -5 5l4 10 c1 3 14 25 18 33z"/></g><g id="E044-rze6bsf"><path transform="scale(1,-1)" d="M0 0c0 28 22 50 50 50s50 -22 50 -50s-22 -50 -50 -50s-50 22 -50 50z"/></g></defs><style type="text/css">#rze6bsf g.page-margin {font-family:Times,serif;}#rze6bsf g.ending, #rze6bsf g.fing, #rze6bsf g.reh, #rze6bsf g.tempo {font-weight:bold;}#rze6bsf g.dir, #rze6bsf g.dynam, #rze6bsf g.mNum {font-style:italic;}#rze6bsf g.label {font-weight:normal;}#rze6bsf path {stroke:currentColor}</style><svg class="definition-scale" color="black" viewBox="0 0 14000 2590"><g class="page-margin" transform="translate(0, 150)"><g data-id="s1yx59vt" data-class="mdiv" class="mdiv pageMilestone"/><g data-id="tob833q" data-class="score" class="score pageMilestone"/><g data-id="xzks4ac" data-class="system" class="system"><g data-id="var88bo" data-class="section" class="section systemMilestone"/><g data-id="sjslhf4" data-class="measure" class="measure"><g data-id="h1u1vk9v" data-class="staff" class="staff"><path d="M0 666 L4654 666" stroke-width="13"/><path d="M0 846 L4654 846" stroke-width="13"/><path d="M0 1026 L4654 1026" stroke-width="13"/><path d="M0 1206 L4654 1206" stroke-width="13"/><path d="M0 1386 L4654 1386" stroke-width="13"/><g data-id="bbjevmz" data-class="clef" class="clef"><use href="#E050-rze6bsf" transform="translate(90, 1206) scale(0.72, 0.72)"/></g><g data-id="c4bv4mo" data-class="keySig" class="keySig"><g data-id="d7cl6v0" data-class="keyAccid" class="keyAccid"><use href="#E262-rze6bsf" transform="translate(735, 666) scale(0.72, 0.72)"/></g><g data-id="ero2kr" data-class="keyAccid" class="keyAccid"><use href="#E262-rze6bsf" transform="translate(913, 936) scale(0.72, 0.72)"/></g><g data-id="f3lymfe" data-class="keyAccid" class="keyAccid"><use href="#E262-rze6bsf" transform="translate(1091, 576) scale(0.72, 0.72)"/></g></g><g data-id="gby8al9" data-class="meterSig" class="meterSig"><use href="#E086-rze6bsf" transform="translate(1398, 846) scale(0.72, 0.72)"/><use href="#E088-rze6bsf" transform="translate(1405, 1206) scale(0.72, 0.72)"/></g><g data-class="ledgerLines" class="ledgerLines below"><g data-class="lineDash" class="lineDash" data-related="#p1cznty0"><path d="M2390 1566 L2684 1566" stroke-width="22"/></g><g data-class="lineDash" class="lineDash" data-related="#q1j9kzt8"><path d="M2720 1566 L3014 1566" stroke-width="22"/></g><g data-class="lineDash" class="lineDash" data-related="#r1s0tk4h"><path d="M3050 1566 L3344 1566" stroke-width="22"/></g><g data-class="lineDash" class="lineDash" data-related="#sqmydx7"><path d="M3380 1566 L3674 1566" stroke-width="22"/></g><g data-class="lineDash" class="lineDash" data-related="#p1cznty0"><path d="M2390 1746 L2684 1746" stroke-width="22"/></g><g data-class="lineDash" class="lineDash" data-related="#q1j9kzt8"><path d="M2720 1746 L3014 1746" stroke-width="22"/></g><g data-class="lineDash" class="lineDash" data-related="#r1s0tk4h"><path d="M3050 1746 L3344 1746" stroke-width="22"/></g><g data-class="lineDash" class="lineDash" data-related="#p1cznty0"><path d="M2390 1926 L2684 1926" stroke-width="22"/></g><g data-class="lineDash" class="lineDash" data-related="#q1j9kzt8"><path d="M2720 1926 L3014 1926" stroke-width="22"/></g><g data-class="lineDash" class="lineDash" data-related="#p1cznty0"><path d="M2390 2106 L2684 2106" stroke-width="22"/></g></g><g data-id="i1e4a5xg" data-class="layer" class="layer"><g data-id="mb1lt75" data-class="rest" class="rest"><use href="#E4E6-rze6bsf" transform="translate(1965, 1026) scale(0.72, 0.72)"/></g><g data-id="w1tju806" data-class="beam" class="beam"><polygon stroke-opacity="1" fill-opacity="1" points="2632,1026 3640,936 3640,1026 2632,1116"/><polygon stroke-opacity="1" fill-opacity="1" points="2632,1161 2971,1131 2971,1221 2632,1251"/><polygon stroke-opacity="1" fill-opacity="1" points="2971,1131 3301,1101 3301,1191 2971,1221"/><polygon stroke-opacity="1" fill-opacity="1" points="3301,1101 3640,1071 3640,1161 3301,1191"/><g data-id="p1cznty0" data-class="note" class="note"><g data-class="notehead" class="notehead"><use href="#E0A4-rze6bsf" transform="translate(2424, 2196) scale(0.72, 0.72)"/></g><g data-id="k13vof8m" data-class="stem" class="stem"><path d="M2641 2168 L2641 1044" stroke-width="18"/></g><g data-id="f1n63qwq" data-class="accid" class="accid"/></g><g data-id="q1j9kzt8" data-class="note" class="note"><g data-class="notehead" class="notehead"><use href="#E0A4-rze6bsf" transform="translate(2754, 2016) scale(0.72, 0.72)"/></g><g data-id="l19j6brd" data-class="stem" class="stem"><path d="M2971 1988 L2971 1014" stroke-width="18"/></g></g><g data-id="r1s0tk4h" data-class="note" class="note"><g data-class="notehead" class="notehead"><use href="#E0A4-rze6bsf" transform="translate(3084, 1746) scale(0.72, 0.72)"/></g><g data-id="m15n9ogc" data-class="stem" class="stem"><path d="M3301 1718 L3301 984" stroke-width="18"/></g></g><g data-id="sqmydx7" data-class="note" class="note"><g data-class="notehead" class="notehead"><use href="#E0A4-rze6bsf" transform="translate(3414, 1566) scale(0.72, 0.72)"/></g><g data-id="n8tw2xx" data-class="stem" class="stem"><path d="M3631 1538 L3631 954" stroke-width="18"/></g><g data-id="g8n2d55" data-class="accid" class="accid"/></g></g><g data-id="t112wy97" data-class="note" class="note"><g data-class="notehead" class="notehead"><use href="#E0A4-rze6bsf" transform="translate(3743, 1386) scale(0.72, 0.72)"/></g><g data-id="p1xfhd8c" data-class="dots" class="dots"><ellipse cx="4059" cy="1296" rx="36" ry="36" fill-opacity="1" stroke-opacity="1"/></g><g data-id="ogeqmd1" data-class="stem" class="stem"><path d="M3960 1358 L3960 756" stroke-width="18"/></g></g></g></g><g data-id="d9zufnt" data-class="tie" class="tie"><path d="M4014,1431 C4216,1537 4591,1537 4797,1431 C4605,1583 4202,1583 4014,1431" stroke-linecap="round" stroke-linejoin="round" stroke-width="9"/></g><g data-id="a1d73qlf" data-class="barLine" class="barLine"><path d="M4641 666 L4641 1386" stroke-width="27"/></g></g><g data-id="b18yv0mw" data-class="measure" class="measure"><g data-id="j40d5c0" data-class="staff" class="staff"><path d="M4654 666 L7531 666" stroke-width="13"/><path d="M4654 846 L7531 846" stroke-width="13"/><path d="M4654 1026 L7531 1026" stroke-width="13"/><path d="M4654 1206 L7531 1206" stroke-width="13"/><path d="M4654 1386 L7531 1386" stroke-width="13"/><g data-class="ledgerLines" class="ledgerLines below"><g data-class="lineDash" class="lineDash" data-related="#v6hc092"><path d="M5253 1566 L5575 1566" stroke-width="22"/></g></g><g data-id="k1emnzmn" data-class="layer" class="layer"><g data-id="uz08qoq" data-class="note" class="note"><g data-class="notehead" class="notehead"><use href="#E0A4-rze6bsf" transform="translate(4842, 1386) scale(0.72, 0.72)"/></g><g data-id="qcwz0zw" data-class="stem" class="stem"><path d="M5059 1358 L5059 756" stroke-width="18"/><g data-id="r1n0sh16" data-class="flag" class="flag"><use href="#E240-rze6bsf" transform="translate(5050, 756) scale(0.72, 0.72)"/></g></g></g><g data-id="x13tdujv" data-class="beam" class="beam"><polygon stroke-opacity="1" fill-opacity="1" points="5509,666 6517,306 6517,396 5509,756"/><polygon stroke-opacity="1" fill-opacity="1" points="5509,801 5848,681 5848,771 5509,891"/><polygon stroke-opacity="1" fill-opacity="1" points="5848,681 6178,561 6178,651 5848,771"/><polygon stroke-opacity="1" fill-opacity="1" points="6178,561 6517,441 6517,531 6178,651"/><g data-id="v6hc092" data-class="note" class="note"><g data-class="notehead" class="notehead"><use href="#E0A4-rze6bsf" transform="translate(5301, 1566) scale(0.72, 0.72)"/></g><g data-id="s55rzy4" data-class="stem" class="stem"><path d="M5518 1538 L5518 684" stroke-width="18"/></g><g data-id="h8am3ff" data-class="accid" class="accid"/></g><g data-id="wlxezai" data-class="note" class="note"><g data-class="notehead" class="notehead"><use href="#E0A4-rze6bsf" transform="translate(5631, 1386) scale(0.72, 0.72)"/></g><g data-id="t914k7e" data-class="stem" class="stem"><path d="M5848 1358 L5848 564" stroke-width="18"/></g></g><g data-id="xjc9xmc" data-class="note" class="note"><g data-class="notehead" class="notehead"><use href="#E0A4-rze6bsf" transform="translate(5961, 1116) scale(0.72, 0.72)"/></g><g data-id="ua4bjn4" data-class="stem" class="stem"><path d="M6178 1088 L6178 444" stroke-width="18"/></g></g><g data-id="y10jtwmc" data-class="note" class="note"><g data-class="notehead" class="notehead"><use href="#E0A4-rze6bsf" transform="translate(6291, 936) scale(0.72, 0.72)"/></g><g data-id="vimm6zv" data-class="stem" class="stem"><path d="M6508 908 L6508 324" stroke-width="18"/></g><g data-id="i1gjzjaw" data-class="accid" class="accid"/></g></g><g data-id="z6cgv0x" data-class="note" class="note"><g data-class="notehead" class="notehead"><use href="#E0A4-rze6bsf" transform="translate(6620, 756) scale(0.72, 0.72)"/></g><g data-id="x17dorwe" data-class="dots" class="dots"><ellipse cx="6936" cy="756" rx="36" ry="36" fill-opacity="1" stroke-opacity="1"/></g><g data-id="wz4nw3p" data-class="stem" class="stem"><path d="M6629 784 L6629 1386" stroke-width="18"/></g></g></g></g><g data-id="e1x1yyc3" data-class="tie" class="tie"><path d="M6891,644 C7079,492 7482,492 7674,644 C7468,538 7093,538 6891,644" stroke-linecap="round" stroke-linejoin="round" stroke-width="9"/></g><g data-id="j1hy616r" data-class="barLine" class="barLine"><path d="M7518 666 L7518 1386" stroke-width="27"/></g></g><g data-id="k114t5ji" data-class="measure" class="measure"><g data-id="l4lxt1m" data-class="staff" class="staff"><path d="M7531 666 L10408 666" stroke-width="13"/><path d="M7531 846 L10408 846" stroke-width="13"/><path d="M7531 1026 L10408 1026" stroke-width="13"/><path d="M7531 1206 L10408 1206" stroke-width="13"/><path d="M7531 1386 L10408 1386" stroke-width="13"/><g data-class="ledgerLines" class="ledgerLines above"><g data-class="lineDash" class="lineDash" data-related="#d10lbdz0"><path d="M8804 486 L9098 486" stroke-width="22"/></g><g data-class="lineDash" class="lineDash" data-related="#e99rn9c"><path d="M9134 486 L9428 486" stroke-width="22"/></g><g data-class="lineDash" class="lineDash" data-related="#f1csg7x4"><path d="M9463 486 L9757 486" stroke-width="22"/></g><g data-class="lineDash" class="lineDash" data-related="#e99rn9c"><path d="M9134 306 L9428 306" stroke-width="22"/></g><g data-class="lineDash" class="lineDash" data-related="#f1csg7x4"><path d="M9463 306 L9757 306" stroke-width="22"/></g><g data-class="lineDash" class="lineDash" data-related="#f1csg7x4"><path d="M9463 126 L9757 126" stroke-width="22"/></g></g><g data-id="mhg2b81" data-class="layer" class="layer"><g data-id="y1njoowj" data-class="beam" class="beam"><polygon stroke-opacity="1" fill-opacity="1" points="7719,1566 9186,1566 9186,1476 7719,1476"/><polygon stroke-opacity="1" fill-opacity="1" points="8187,1431 8517,1431 8517,1341 8187,1341"/><polygon stroke-opacity="1" fill-opacity="1" points="8517,1431 8847,1431 8847,1341 8517,1341"/><polygon stroke-opacity="1" fill-opacity="1" points="8847,1431 9186,1431 9186,1341 8847,1341"/><g data-id="ayn1y7k" data-class="note" class="note"><g data-class="notehead" class="notehead"><use href="#E0A4-rze6bsf" transform="translate(7719, 756) scale(0.72, 0.72)"/></g><g data-id="y2a76j7" data-class="stem" class="stem"><path d="M7728 784 L7728 1548" stroke-width="18"/></g></g><g data-id="b1afijr9" data-class="note" class="note"><g data-class="notehead" class="notehead"><use href="#E0A4-rze6bsf" transform="translate(8178, 936) scale(0.72, 0.72)"/></g><g data-id="z1thlea7" data-class="stem" class="stem"><path d="M8187 964 L8187 1548" stroke-width="18"/></g><g data-id="j1k3kd2n" data-class="accid" class="accid"/></g><g data-id="cdv5hbh" data-class="note" class="note"><g data-class="notehead" class="notehead"><use href="#E0A4-rze6bsf" transform="translate(8508, 756) scale(0.72, 0.72)"/></g><g data-id="a7tj93l" data-class="stem" class="stem"><path d="M8517 784 L8517 1548" stroke-width="18"/></g></g><g data-id="d10lbdz0" data-class="note" class="note"><g data-class="notehead" class="notehead"><use href="#E0A4-rze6bsf" transform="translate(8838, 486) scale(0.72, 0.72)"/></g><g data-id="b1azsdk3" data-class="stem" class="stem"><path d="M8847 514 L8847 1548" stroke-width="18"/></g></g><g data-id="e99rn9c" data-class="note" class="note"><g data-class="notehead" class="notehead"><use href="#E0A4-rze6bsf" transform="translate(9168, 306) scale(0.72, 0.72)"/></g><g data-id="cy8d1ne" data-class="stem" class="stem"><path d="M9177 334 L9177 1548" stroke-width="18"/></g><g data-id="k8gv05v" data-class="accid" class="accid"/></g></g><g data-id="f1csg7x4" data-class="note" class="note"><g data-class="notehead" class="notehead"><use href="#E0A4-rze6bsf" transform="translate(9497, 126) scale(0.72, 0.72)"/></g><g data-id="e17wml9y" data-class="dots" class="dots"><ellipse cx="9813" cy="36" rx="36" ry="36" fill-opacity="1" stroke-opacity="1"/></g><g data-id="d7hotyg" data-class="stem" class="stem"><path d="M9506 154 L9506 1026" stroke-width="18"/></g></g></g></g><g data-id="s1rxjawq" data-class="barLine" class="barLine"><path d="M10395 666 L10395 1386" stroke-width="27"/></g></g><g data-id="t1e10ys3" data-class="measure" class="measure"><g data-id="nfalaud" data-class="staff" class="staff"><path d="M10408 666 L12404 666" stroke-width="13"/><path d="M10408 846 L12404 846" stroke-width="13"/><path d="M10408 1026 L12404 1026" stroke-width="13"/><path d="M10408 1206 L12404 1206" stroke-width="13"/><path d="M10408 1386 L12404 1386" stroke-width="13"/><g data-class="ledgerLines" class="ledgerLines above"><g data-class="lineDash" class="lineDash" data-related="#g1d5sj91"><path d="M10548 486 L10870 486" stroke-width="22"/></g><g data-class="lineDash" class="lineDash" data-related="#h6q1ca6"><path d="M11446 486 L11768 486" stroke-width="22"/></g><g data-class="lineDash" class="lineDash" data-related="#g1d5sj91"><path d="M10548 306 L10870 306" stroke-width="22"/></g><g data-class="lineDash" class="lineDash" data-related="#h6q1ca6"><path d="M11446 306 L11768 306" stroke-width="22"/></g><g data-class="lineDash" class="lineDash" data-related="#g1d5sj91"><path d="M10548 126 L10870 126" stroke-width="22"/></g><g data-class="lineDash" class="lineDash" data-related="#h6q1ca6"><path d="M11446 126 L11768 126" stroke-width="22"/></g></g><g data-id="o1iexeb4" data-class="layer" class="layer"><g data-id="g1d5sj91" data-class="note" class="note"><g data-class="notehead" class="notehead"><use href="#E0A4-rze6bsf" transform="translate(10596, 126) scale(0.72, 0.72)"/></g><g data-id="g16ce2n6" data-class="dots" class="dots"><ellipse cx="10912" cy="36" rx="36" ry="36" fill-opacity="1" stroke-opacity="1"/></g><g data-id="f1ygfnw" data-class="stem" class="stem"><path d="M10605 154 L10605 1026" stroke-width="18"/></g></g><g data-id="h6q1ca6" data-class="note" class="note"><g data-class="notehead" class="notehead"><use href="#E0A4-rze6bsf" transform="translate(11494, 126) scale(0.72, 0.72)"/></g><g data-id="i3weki1" data-class="dots" class="dots"><ellipse cx="11810" cy="36" rx="36" ry="36" fill-opacity="1" stroke-opacity="1"/></g><g data-id="hs33a4x" data-class="stem" class="stem"><path d="M11503 154 L11503 1026" stroke-width="18"/></g></g></g></g><g data-id="bp3ektt" data-class="barLine" class="barLine"><path d="M12391 666 L12391 1386" stroke-width="27"/></g></g><g data-id="c16stnx7" data-class="measure" class="measure"><g data-id="p1kqxv8j" data-class="staff" class="staff"><path d="M12404 666 L14003 666" stroke-width="13"/><path d="M12404 846 L14003 846" stroke-width="13"/><path d="M12404 1026 L14003 1026" stroke-width="13"/><path d="M12404 1206 L14003 1206" stroke-width="13"/><path d="M12404 1386 L14003 1386" stroke-width="13"/><g data-class="ledgerLines" class="ledgerLines above"><g data-class="lineDash" class="lineDash" data-related="#i11jdzz"><path d="M12544 486 L12866 486" stroke-width="22"/></g><g data-class="lineDash" class="lineDash" data-related="#i11jdzz"><path d="M12544 306 L12866 306" stroke-width="22"/></g><g data-class="lineDash" class="lineDash" data-related="#i11jdzz"><path d="M12544 126 L12866 126" stroke-width="22"/></g></g><g data-id="q2ojy8o" data-class="layer" class="layer"><g data-id="i11jdzz" data-class="note" class="note"><g data-class="notehead" class="notehead"><use href="#E0A4-rze6bsf" transform="translate(12592, 126) scale(0.72, 0.72)"/></g><g data-id="j18b1cbg" data-class="stem" class="stem"><path d="M12601 154 L12601 1026" stroke-width="18"/></g></g><g data-id="nir9bgd" data-class="rest" class="rest"><use href="#E4E6-rze6bsf" transform="translate(13296, 1026) scale(0.72, 0.72)"/></g></g></g><g data-id="k1vj9j1x" data-class="barLine" class="barLine"><path d="M13755 666 L13755 1386" stroke-width="90"/><path d="M13885 666 L13885 1386" stroke-width="27"/><use href="#E044-rze6bsf" transform="translate(13931, 936) scale(0.72, 0.72)"/><use href="#E044-rze6bsf" transform="translate(13931, 1116) scale(0.72, 0.72)"/></g></g></g></g></svg></svg>