<svg viewBox="0 0 560 84" version="1.1" xmlns="http://www.w3.org/2000/svg" xmlns:xlink="http://www.w3.org/1999/xlink" overflow="visible" id="qf9r91o"><desc>Engraved by Verovio 5.6.0-85e7620</desc><defs><g id="E052-qf9r91o"><path transform="scale(1,-1)" d="M382 117c-72 -2 -128 -47 -128 -120v-7c2 -46 43 -99 75 -115c-3 -2 -7 -5 -10 -10c-70 33 -116 88 -123 172v11c0 68 44 126 88 159c23 17 49 29 78 36l-29 170c-21 -13 -52 -37 -92 -73c-50 -44 -86 -84 -109 -119c-45 -69 -67 -130 -67 -182v-13 c5 -68 35 -127 93 -176s125 -73 203 -73c25 0 50 3 75 9c-19 111 -36 221 -54 331zM406 119l54 -326c73 25 110 78 110 161c0 7 0 15 -1 23c-7 95 -57 142 -151 142h-12zM461 939c-95 0 -135 -175 -135 -286c0 -24 2 -48 5 -71c50 39 92 82 127 128c40 53 60 100 60 140v8 c-4 53 -22 81 -55 81h-2zM441 -245c-23 -4 -48 -6 -76 -6c-59 0 -102 7 -130 20c-88 42 -150 93 -187 154c-26 44 -43 103 -48 176c0 6 -1 13 -1 19c0 54 15 111 45 170c29 57 65 106 110 148s96 85 153 127c-3 16 -8 46 -13 92c-4 43 -5 73 -5 89c0 117 16 172 69 257 c34 54 64 82 89 82c21 0 43 -30 69 -92s39 -115 41 -159v-15c0 -109 -21 -162 -67 -241c-13 -20 -63 -90 -98 -118c-13 -9 -25 -19 -37 -29l31 -181c8 1 18 2 28 2c58 0 102 -12 133 -35c59 -43 92 -104 98 -184c1 -7 1 -15 1 -22c0 -123 -87 -209 -181 -248 c8 -57 17 -110 25 -162c5 -31 6 -58 6 -80c0 -30 -5 -53 -14 -70c-25 -46 -59 -77 -102 -92c21 -1 85 -13 85 -60c0 -35 -22 -43 -31 -50c-6 -5 -8 -10 -8 -16s0 -11 4 -16c6 -11 9 -22 9 -34c0 -27 -18 -53 -46 -65c-11 -4 -27 -6 -41 -6c-34 0 -82 21 -90 58 c-1 5 -2 8 -2 12c0 28 25 57 51 66c4 1 6 2 6 5c0 2 -1 3 -2 3c-11 13 -16 27 -16 41c0 21 11 40 30 51h-5c-5 0 -11 -1 -16 -1c-37 0 -72 10 -108 27c-50 24 -77 59 -80 105v11c0 29 7 55 20 76c18 28 45 42 79 44h6c49 0 93 -42 97 -87v-9c0 -51 -34 -86 -105 -106 c17 -24 51 -36 102 -36c62 0 116 43 140 85c9 16 13 41 13 74c0 20 -1 42 -5 67c-8 53 -18 106 -26 159zM315 -781c-3 -2 -6 -5 -7 -8c-6 -8 -10 -19 -10 -30c0 -2 0 -4 1 -7c7 -32 34 -52 53 -52c20 0 37 20 37 36c0 5 -2 9 -4 14c-5 13 -14 24 -25 34c-6 5 -11 10 -17 14 c-4 2 -9 6 -14 6c-6 0 -11 -3 -14 -7zM349 -685c0 -14 10 -25 18 -34c8 -8 16 -18 26 -25c5 -2 10 -4 13 -4c17 0 22 30 23 48c0 9 -3 20 -9 26c-8 9 -23 14 -40 14c-15 -1 -29 -8 -31 -25z"/></g><g id="E262-qf9r91o"><path transform="scale(1,-1)" d="M136 186v169h17v-164l44 14v-91l-44 -14v-165l44 12v-91l-44 -13v-155h-17v150l-76 -22v-155h-17v149l-43 -13v90l43 14v167l-43 -14v92l43 13v169h17v-163zM60 73v-167l76 22v168z"/></g><g id="E08A-qf9r91o"><path transform="scale(1,-1)" d="M340 179c-9 24 -56 41 -89 41c-46 0 -81 -28 -100 -58c-17 -28 -25 -78 -25 -150c0 -65 2 -111 8 -135c8 -31 18 -49 40 -67c20 -17 43 -25 70 -25c54 0 92 36 115 75c14 25 23 54 28 88h27c0 -63 -24 -105 -58 -141c-35 -38 -82 -56 -140 -56c-45 0 -83 13 -115 39 c-57 45 -101 130 -101 226c0 59 33 127 68 163c36 37 97 72 160 72c36 0 93 -21 121 -40c11 -8 23 -17 33 -30c19 -23 27 -48 27 -76c0 -51 -35 -88 -86 -88c-43 0 -76 27 -76 68c0 26 7 35 21 51c15 17 32 27 58 32c7 2 14 7 14 11z"/></g><g id="E0A4-qf9r91o"><path transform="scale(1,-1)" d="M0 -39c0 68 73 172 200 172c66 0 114 -37 114 -95c0 -84 -106 -171 -218 -171c-64 0 -96 30 -96 94z"/></g><g id="E241-qf9r91o"><path transform="scale(1,-1)" d="M179 646c-4 8 -17 30 -18 33l-4 10c0 3 2 5 5 5s7 -2 13 -7c23 -33 46 -81 66 -132c22 -57 35 -125 35 -163c0 -104 -60 -183 -122 -241c-63 -59 -57 -53 -61 -56c-38 -34 -63 -95 -71 -95h-22v190c40 7 69 11 87 16c88 27 168 95 168 200c0 30 -12 89 -30 138 c-17 47 -31 73 -46 102z"/></g><g id="E0A3-qf9r91o"><path transform="scale(1,-1)" d="M278 64c0 22 -17 39 -43 39c-12 0 -26 -3 -41 -10c-85 -43 -165 -94 -165 -156c5 -25 15 -32 49 -32c67 11 200 95 200 159zM0 -36c0 68 73 174 200 174c66 0 114 -39 114 -97c0 -84 -106 -173 -218 -173c-64 0 -96 32 -96 96z"/></g><g id="E260-qf9r91o"><path transform="scale(1,-1)" d="M20 110c32 16 54 27 93 27c26 0 35 -3 54 -13c13 -7 24 -20 27 -38l4 -25c0 -28 -16 -57 -45 -89c-23 -25 -39 -44 -65 -68l-88 -79v644h20v-359zM90 106c-32 0 -48 -10 -70 -29v-194c31 31 54 59 71 84c21 32 32 59 32 84c0 9 1 16 1 20c0 14 -3 21 -11 30l-8 3z"/></g><g id="E240-qf9r91o"><path transform="scale(1,-1)" d="M179 -646c15 29 29 55 46 102c18 49 30 108 30 138c0 105 -80 173 -168 200c-18 5 -47 9 -87 16v190h22c8 0 33 -61 71 -95c4 -3 -2 3 61 -56c62 -58 122 -137 122 -241c0 -38 -13 -106 -35 -163c-20 -51 -43 -99 -66 -132c-6 -5 -10 -7 -13 -7s-5 2 -5 5l4 10 c1 3 14 25 18 33z"/></g></defs><style type="text/css">#qf9r91o g.page-margin {font-family:Times,serif;}#qf9r91o g.ending, #qf9r91o g.fing, #qf9r91o g.reh, #qf9r91o g.tempo {font-weight:bold;}#qf9r91o g.dir, #qf9r91o g.dynam, #qf9r91o g.mNum {font-style:italic;}#qf9r91o g.label {font-weight:normal;}#qf9r91o path {stroke:currentColor}</style><svg class="definition-scale" color="black" viewBox="0 0 14000 2100"><g class="page-margin" transform="translate(0, 150)"><g data-id="efe21lx" data-class="mdiv" class="mdiv pageMilestone"/><g data-id="fw67gl6" data-class="score" class="score pageMilestone"/><g data-id="jpe25lb" data-class="system" class="system"><g data-id="hvib2wr" data-class="section" class="section systemMilestone"/><g data-id="rucfa5c" data-class="measure" class="measure"><g data-id="t1emtk57" data-class="staff" class="staff"><path d="M0 540 L2563 540" stroke-width="13"/><path d="M0 720 L2563 720" stroke-width="13"/><path d="M0 900 L2563 900" stroke-width="13"/><path d="M0 1080 L2563 1080" stroke-width="13"/><path d="M0 1260 L2563 1260" stroke-width="13"/><g data-id="p1u2vj5l" data-class="clef" class="clef"><use href="#E052-qf9r91o" transform="translate(90, 1080) scale(0.72, 0.72)"/></g><g data-id="qd1gxek" data-class="keySig" class="keySig"><g data-id="r1faf88" data-class="keyAccid" class="keyAccid"><use href="#E262-qf9r91o" transform="translate(735, 540) scale(0.72, 0.72)"/></g><g data-id="s150idik" data-class="keyAccid" class="keyAccid"><use href="#E262-qf9r91o" transform="translate(913, 810) scale(0.72, 0.72)"/></g></g><g data-id="t1tbv8nq" data-class="meterSig" class="meterSig"><use href="#E08A-qf9r91o" transform="translate(1234, 900) scale(0.72, 0.72)"/></g><g data-id="u1b6qqs0" data-class="layer" class="layer"><g data-id="k3mibuu" data-class="note" class="note"><g data-class="notehead" class="notehead"><use href="#E0A4-qf9r91o" transform="translate(1814, 1350) scale(0.72, 0.72)"/></g><g data-id="p1gw0zqu" data-class="stem" class="stem"><path d="M2031 1322 L2031 720" stroke-width="18"/></g></g></g></g><g data-id="z15n3259" data-class="barLine" class="barLine"><path d="M2550 540 L2550 1260" stroke-width="27"/></g></g><g data-id="azw5hvh" data-class="measure" class="measure"><g data-id="vw1ewgn" data-class="staff" class="staff"><path d="M2563 540 L5657 540" stroke-width="13"/><path d="M2563 720 L5657 720" stroke-width="13"/><path d="M2563 900 L5657 900" stroke-width="13"/><path d="M2563 1080 L5657 1080" stroke-width="13"/><path d="M2563 1260 L5657 1260" stroke-width="13"/><g data-id="w4awy8i" data-class="layer" class="layer"><g data-id="l1ausuv6" data-class="note" class="note"><g data-class="notehead" class="notehead"><use href="#E0A4-qf9r91o" transform="translate(2755, 1170) scale(0.72, 0.72)"/></g><g data-id="q1n4ivaw" data-class="stem" class="stem"><path d="M2972 1142 L2972 540" stroke-width="18"/></g><g data-id="bpso29u" data-class="accid" class="accid"/></g><g data-id="mm2oyid" data-class="note" class="note"><g data-class="notehead" class="notehead"><use href="#E0A4-qf9r91o" transform="translate(3491, 990) scale(0.72, 0.72)"/></g><g data-id="r16p5901" data-class="stem" class="stem"><path d="M3708 962 L3708 360" stroke-width="18"/></g></g><g data-id="n1hts8ok" data-class="note" class="note"><g data-class="notehead" class="notehead"><use href="#E0A4-qf9r91o" transform="translate(4226, 720) scale(0.72, 0.72)"/></g><g data-id="toz7doz" data-class="dots" class="dots"><ellipse cx="4542" cy="630" rx="36" ry="36" fill-opacity="1" stroke-opacity="1"/></g><g data-id="s1wk8tvu" data-class="stem" class="stem"><path d="M4235 748 L4235 1350" stroke-width="18"/></g></g><g data-id="o1ipe8wt" data-class="note" class="note"><g data-class="notehead" class="notehead"><use href="#E0A4-qf9r91o" transform="translate(5165, 630) scale(0.72, 0.72)"/></g><g data-id="u1ogjamv" data-class="stem" class="stem"><path d="M5174 658 L5174 1260" stroke-width="18"/><g data-id="v1k1n63w" data-class="flag" class="flag"><use href="#E241-qf9r91o" transform="translate(5165, 1260) scale(0.72, 0.72)"/></g></g></g></g></g><g data-id="i365dwl" data-class="barLine" class="barLine"><path d="M5644 540 L5644 1260" stroke-width="27"/></g></g><g data-id="j1xpmrzs" data-class="measure" class="measure"><g data-id="x1wz39yv" data-class="staff" class="staff"><path d="M5657 540 L8453 540" stroke-width="13"/><path d="M5657 720 L8453 720" stroke-width="13"/><path d="M5657 900 L8453 900" stroke-width="13"/><path d="M5657 1080 L8453 1080" stroke-width="13"/><path d="M5657 1260 L8453 1260" stroke-width="13"/><g data-id="y1vnke71" data-class="layer" class="layer"><g data-id="p62xjqp" data-class="note" class="note"><g data-class="notehead" class="notehead"><use href="#E0A3-qf9r91o" transform="translate(5849, 720) scale(0.72, 0.72)"/></g><g data-id="wrcvxp3" data-class="stem" class="stem"><path d="M5858 745 L5858 1350" stroke-width="18"/></g></g><g data-id="qtaeksr" data-class="note" class="note"><g data-class="notehead" class="notehead"><use href="#E0A4-qf9r91o" transform="translate(6969, 810) scale(0.72, 0.72)"/></g><g data-id="xcier82" data-class="stem" class="stem"><path d="M6978 838 L6978 1440" stroke-width="18"/></g><g data-id="cyhw388" data-class="accid" class="accid"/></g><g data-id="r5ho2h4" data-class="note" class="note"><g data-class="notehead" class="notehead"><use href="#E0A4-qf9r91o" transform="translate(7704, 990) scale(0.72, 0.72)"/></g><g data-id="yk03p6t" data-class="stem" class="stem"><path d="M7921 962 L7921 360" stroke-width="18"/></g></g></g></g><g data-id="rux854p" data-class="barLine" class="barLine"><path d="M8440 540 L8440 1260" stroke-width="27"/></g></g><g data-id="smj9w07" data-class="measure" class="measure"><g data-id="z1dn5mzz" data-class="staff" class="staff"><path d="M8453 540 L11757 540" stroke-width="13"/><path d="M8453 720 L11757 720" stroke-width="13"/><path d="M8453 900 L11757 900" stroke-width="13"/><path d="M8453 1080 L11757 1080" stroke-width="13"/><path d="M8453 1260 L11757 1260" stroke-width="13"/><g data-id="a1evj97l" data-class="layer" class="layer"><g data-id="spyza5b" data-class="note" class="note"><g data-class="notehead" class="notehead"><use href="#E0A4-qf9r91o" transform="translate(8845, 900) scale(0.72, 0.72)"/></g><g data-id="a1ignl9q" data-class="dots" class="dots"><ellipse cx="9161" cy="810" rx="36" ry="36" fill-opacity="1" stroke-opacity="1"/></g><g data-id="ztjpc0e" data-class="stem" class="stem"><path d="M8854 928 L8854 1500" stroke-width="18"/></g><g data-id="y1no8n2y" data-class="accid" class="accid"><use href="#E260-qf9r91o" transform="translate(8658, 900) scale(0.72, 0.72)"/></g></g><g data-id="t16vluld" data-class="note" class="note"><g data-class="notehead" class="notehead"><use href="#E0A4-qf9r91o" transform="translate(9783, 990) scale(0.72, 0.72)"/></g><g data-id="bcnu7hd" data-class="stem" class="stem"><path d="M10000 962 L10000 360" stroke-width="18"/><g data-id="cd84pxy" data-class="flag" class="flag"><use href="#E240-qf9r91o" transform="translate(9991, 360) scale(0.72, 0.72)"/></g></g></g><g data-id="usd2do1" data-class="note" class="note"><g data-class="notehead" class="notehead"><use href="#E0A4-qf9r91o" transform="translate(10262, 990) scale(0.72, 0.72)"/></g><g data-id="e4bd4cg" data-class="dots" class="dots"><ellipse cx="10578" cy="990" rx="36" ry="36" fill-opacity="1" stroke-opacity="1"/></g><g data-id="d1tqj28h" data-class="stem" class="stem"><path d="M10479 962 L10479 360" stroke-width="18"/></g></g><g data-id="vqi4fyh" data-class="note" class="note"><g data-class="notehead" class="notehead"><use href="#E0A4-qf9r91o" transform="translate(11201, 1080) scale(0.72, 0.72)"/></g><g data-id="f11glstu" data-class="stem" class="stem"><path d="M11418 1052 L11418 450" stroke-width="18"/><g data-id="gkxiy1t" data-class="flag" class="flag"><use href="#E240-qf9r91o" transform="translate(11409, 450) scale(0.72, 0.72)"/></g></g><g data-id="z1iitd63" data-class="accid" class="accid"><use href="#E262-qf9r91o" transform="translate(11015, 1080) scale(0.72, 0.72)"/></g></g></g></g><g data-id="aixlm66" data-class="barLine" class="barLine"><path d="M11744 540 L11744 1260" stroke-width="27"/></g></g><g data-id="b1dybicz" data-class="measure" class="measure"><g data-id="b1lxfg4f" data-class="staff" class="staff"><path d="M11757 540 L14002 540" stroke-width="13"/><path d="M11757 720 L14002 720" stroke-width="13"/><path d="M11757 900 L14002 900" stroke-width="13"/><path d="M11757 1080 L14002 1080" stroke-width="13"/><path d="M11757 1260 L14002 1260" stroke-width="13"/><g data-id="cwv3ebq" data-class="layer" class="layer"><g data-id="w16wyuds" data-class="note" class="note"><g data-class="notehead" class="notehead"><use href="#E0A3-qf9r91o" transform="translate(12148, 1080) scale(0.72, 0.72)"/></g><g data-id="h1iperzh" data-class="stem" class="stem"><path d="M12365 1052 L12365 450" stroke-width="18"/></g><g data-id="a1rzwtcq" data-class="accid" class="accid"><use href="#E262-qf9r91o" transform="translate(11962, 1080) scale(0.72, 0.72)"/></g></g><g data-id="xgl0hq8" data-class="note" class="note"><g data-class="notehead" class="notehead"><use href="#E0A4-qf9r91o" transform="translate(13267, 990) scale(0.72, 0.72)"/></g><g data-id="i1d1maqk" data-class="stem" class="stem"><path d="M13484 962 L13484 360" stroke-width="18"/></g></g></g></g><g data-id="jojw4ok" data-class="barLine" class="barLine"/></g><g data-id="ki0g4j9" data-class="systemMilestoneEnd" class="systemMilestoneEnd hvib2wr"/></g><g data-id="l1jk4uyo" data-class="pageMilestoneEnd" class="pageMilestoneEnd fw67gl6"/><g data-id="m1ed5scf" data-class="pageMilestoneEnd" class="pageMilestoneEnd efe21lx"/></g></svg></svg>