<svg viewBox="0 0 560 84" version="1.1" xmlns="http://www.w3.org/2000/svg" xmlns:xlink="http://www.w3.org/1999/xlink" overflow="visible" id="nlcvoa1"><desc>Engraved by Verovio 5.6.0-85e7620</desc><defs><g id="E050-nlcvoa1"><path transform="scale(1,-1)" d="M441 -245c-23 -4 -48 -6 -76 -6c-59 0 -102 7 -130 20c-88 42 -150 93 -187 154c-26 44 -43 103 -48 176c0 6 -1 13 -1 19c0 54 15 111 45 170c29 57 65 106 110 148s96 85 153 127c-3 16 -8 46 -13 92c-4 43 -5 73 -5 89c0 117 16 172 69 257c34 54 64 82 89 82 c21 0 43 -30 69 -92s39 -115 41 -159v-15c0 -109 -21 -162 -67 -241c-13 -20 -63 -90 -98 -118c-13 -9 -25 -19 -37 -29l31 -181c8 1 18 2 28 2c58 0 102 -12 133 -35c59 -43 92 -104 98 -184c1 -7 1 -15 1 -22c0 -123 -87 -209 -181 -248c8 -57 17 -110 25 -162 c5 -31 6 -58 6 -80c0 -30 -5 -53 -14 -70c-35 -64 -88 -99 -158 -103c-5 0 -11 -1 -16 -1c-37 0 -72 10 -108 27c-50 24 -77 59 -80 105v11c0 29 7 55 20 76c18 28 45 42 79 44h6c49 0 93 -42 97 -87v-9c0 -51 -34 -86 -105 -106c17 -24 51 -36 102 -36c62 0 116 43 140 85 c9 16 13 41 13 74c0 20 -1 42 -5 67c-8 53 -18 106 -26 159zM461 939c-95 0 -135 -175 -135 -286c0 -24 2 -48 5 -71c50 39 92 82 127 128c40 53 60 100 60 140v8c-4 53 -22 81 -55 81h-2zM406 119l54 -326c73 25 110 78 110 161c0 7 0 15 -1 23c-7 95 -57 142 -151 142h-12 zM382 117c-72 -2 -128 -47 -128 -120v-7c2 -46 43 -99 75 -115c-3 -2 -7 -5 -10 -10c-70 33 -116 88 -123 172v11c0 68 44 126 88 159c23 17 49 29 78 36l-29 170c-21 -13 -52 -37 -92 -73c-50 -44 -86 -84 -109 -119c-45 -69 -67 -130 -67 -182v-13c5 -68 35 -127 93 -176 s125 -73 203 -73c25 0 50 3 75 9c-19 111 -36 221 -54 331z"/></g><g id="E260-nlcvoa1"><path transform="scale(1,-1)" d="M20 110c32 16 54 27 93 27c26 0 35 -3 54 -13c13 -7 24 -20 27 -38l4 -25c0 -28 -16 -57 -45 -89c-23 -25 -39 -44 -65 -68l-88 -79v644h20v-359zM90 106c-32 0 -48 -10 -70 -29v-194c31 31 54 59 71 84c21 32 32 59 32 84c0 9 1 16 1 20c0 14 -3 21 -11 30l-8 3z"/></g><g id="E08A-nlcvoa1"><path transform="scale(1,-1)" d="M340 179c-9 24 -56 41 -89 41c-46 0 -81 -28 -100 -58c-17 -28 -25 -78 -25 -150c0 -65 2 -111 8 -135c8 -31 18 -49 40 -67c20 -17 43 -25 70 -25c54 0 92 36 115 75c14 25 23 54 28 88h27c0 -63 -24 -105 -58 -141c-35 -38 -82 -56 -140 -56c-45 0 -83 13 -115 39 c-57 45 -101 130 -101 226c0 59 33 127 68 163c36 37 97 72 160 72c36 0 93 -21 121 -40c11 -8 23 -17 33 -30c19 -23 27 -48 27 -76c0 -51 -35 -88 -86 -88c-43 0 -76 27 -76 68c0 26 7 35 21 51c15 17 32 27 58 32c7 2 14 7 14 11z"/></g><g id="E0A3-nlcvoa1"><path transform="scale(1,-1)" d="M278 64c0 22 -17 39 -43 39c-12 0 -26 -3 -41 -10c-85 -43 -165 -94 -165 -156c5 -25 15 -32 49 -32c67 11 200 95 200 159zM0 -36c0 68 73 174 200 174c66 0 114 -39 114 -97c0 -84 -106 -173 -218 -173c-64 0 -96 32 -96 96z"/></g><g id="E0A4-nlcvoa1"><path transform="scale(1,-1)" d="M0 -39c0 68 73 172 200 172c66 0 114 -37 114 -95c0 -84 -106 -171 -218 -171c-64 0 -96 30 -96 94z"/></g><g id="E240-nlcvoa1"><path transform="scale(1,-1)" d="M179 -646c15 29 29 55 46 102c18 49 30 108 30 138c0 105 -80 173 -168 200c-18 5 -47 9 -87 16v190h22c8 0 33 -61 71 -95c4 -3 -2 3 61 -56c62 -58 122 -137 122 -241c0 -38 -13 -106 -35 -163c-20 -51 -43 -99 -66 -132c-6 -5 -10 -7 -13 -7s-5 2 -5 5l4 10 c1 3 14 25 18 33z"/></g><g id="E4E6-nlcvoa1"><path transform="scale(1,-1)" d="M0 123c7 34 33 56 69 60c29 -3 43 -9 53 -29c4 -8 7 -15 10 -22c0 -21 -1 -25 -11 -35c-5 -8 -18 -14 -40 -20l12 -3l15 -1c44 0 97 26 122 56c10 11 18 26 24 42c7 1 15 2 22 3l-140 -424h-36l111 330c-10 -6 -27 -12 -53 -16l-52 -8h-10l-20 1c-1 0 -8 3 -21 6 c-37 9 -55 28 -55 60z"/></g></defs><style type="text/css">#nlcvoa1 g.page-margin {font-family:Times,serif;}#nlcvoa1 g.ending, #nlcvoa1 g.fing, #nlcvoa1 g.reh, #nlcvoa1 g.tempo {font-weight:bold;}#nlcvoa1 g.dir, #nlcvoa1 g.dynam, #nlcvoa1 g.mNum {font-style:italic;}#nlcvoa1 g.label {font-weight:normal;}#nlcvoa1 path {stroke:currentColor}</style><svg class="definition-scale" color="black" viewBox="0 0 14000 2100"><g class="page-margin" transform="translate(0, 150)"><g data-id="pidifyp" data-class="mdiv" class="mdiv pageMilestone"/><g data-id="qvcg6jr" data-class="score" class="score pageMilestone"/><g data-id="hhd576b" data-class="system" class="system"><g data-id="snri2m8" data-class="section" class="section systemMilestone"/><g data-id="o200uxu" data-class="measure" class="measure"><g data-id="e11xcljs" data-class="staff" class="staff"><path d="M0 540 L4260 540" stroke-width="13"/><path d="M0 720 L4260 720" stroke-width="13"/><path d="M0 900 L4260 900" stroke-width="13"/><path d="M0 1080 L4260 1080" stroke-width="13"/><path d="M0 1260 L4260 1260" stroke-width="13"/><g data-id="d1a1gfut" data-class="clef" class="clef"><use href="#E050-nlcvoa1" transform="translate(90, 1080) scale(0.72, 0.72)"/></g><g data-id="ekhizrm" data-class="keySig" class="keySig"><g data-id="fn335xt" data-class="keyAccid" class="keyAccid"><use href="#E260-nlcvoa1" transform="translate(735, 900) scale(0.72, 0.72)"/></g></g><g data-id="g1o548ad" data-class="meterSig" class="meterSig"><use href="#E08A-nlcvoa1" transform="translate(1057, 900) scale(0.72, 0.72)"/></g><g data-id="f1njjluu" data-class="layer" class="layer"><g data-id="r1doc5i2" data-class="note" class="note"><g data-class="notehead" class="notehead"><use href="#E0A3-nlcvoa1" transform="translate(1636, 990) scale(0.72, 0.72)"/></g><g data-id="b341s77" data-class="stem" class="stem"><path d="M1853 962 L1853 360" stroke-width="18"/></g></g><g data-id="s13z0e84" data-class="note" class="note"><g data-class="notehead" class="notehead"><use href="#E0A4-nlcvoa1" transform="translate(2764, 1350) scale(0.72, 0.72)"/></g><g data-id="c4y6ov1" data-class="stem" class="stem"><path d="M2981 1322 L2981 720" stroke-width="18"/></g></g><g data-id="tu752oy" data-class="note" class="note"><g data-class="notehead" class="notehead"><use href="#E0A4-nlcvoa1" transform="translate(3506, 900) scale(0.72, 0.72)"/></g><g data-id="d1e21xfn" data-class="stem" class="stem"><path d="M3515 928 L3515 1500" stroke-width="18"/></g><g data-id="m4h2k4p" data-class="accid" class="accid"/></g></g></g><g data-id="w17kzxy3" data-class="barLine" class="barLine"><path d="M4247 540 L4247 1260" stroke-width="27"/></g></g><g data-id="x14gxsjf" data-class="measure" class="measure"><g data-id="g1h8j40v" data-class="staff" class="staff"><path d="M4260 540 L7340 540" stroke-width="13"/><path d="M4260 720 L7340 720" stroke-width="13"/><path d="M4260 900 L7340 900" stroke-width="13"/><path d="M4260 1080 L7340 1080" stroke-width="13"/><path d="M4260 1260 L7340 1260" stroke-width="13"/><g data-id="h1794mf0" data-class="layer" class="layer"><g data-id="u1tiwrd6" data-class="note" class="note"><g data-class="notehead" class="notehead"><use href="#E0A3-nlcvoa1" transform="translate(4451, 990) scale(0.72, 0.72)"/></g><g data-id="e12o8k59" data-class="stem" class="stem"><path d="M4668 962 L4668 360" stroke-width="18"/></g></g><g data-id="vnw0soa" data-class="note" class="note"><g data-class="notehead" class="notehead"><use href="#E0A4-nlcvoa1" transform="translate(5579, 990) scale(0.72, 0.72)"/></g><g data-id="fvm6t9b" data-class="stem" class="stem"><path d="M5796 962 L5796 360" stroke-width="18"/><g data-id="grmzs3a" data-class="flag" class="flag"><use href="#E240-nlcvoa1" transform="translate(5787, 360) scale(0.72, 0.72)"/></g></g></g><g data-id="q1unxjqo" data-class="rest" class="rest"><use href="#E4E6-nlcvoa1" transform="translate(6103, 900) scale(0.72, 0.72)"/></g><g data-id="w18n8f3v" data-class="note" class="note"><g data-class="notehead" class="notehead"><use href="#E0A4-nlcvoa1" transform="translate(6586, 720) scale(0.72, 0.72)"/></g><g data-id="hjdv7yu" data-class="stem" class="stem"><path d="M6595 748 L6595 1350" stroke-width="18"/></g></g></g></g><g data-id="lnz6adn" data-class="tie" class="tie"><path d="M4722,1035 C4932,1141 5323,1141 5534,1035 C5337,1188 4918,1188 4722,1035" stroke-linecap="round" stroke-linejoin="round" stroke-width="9"/></g><g data-id="firs44w" data-class="barLine" class="barLine"><path d="M7327 540 L7327 1260" stroke-width="27"/></g></g><g data-id="gg2gl7m" data-class="measure" class="measure"><g data-id="is9t1j" data-class="staff" class="staff"><path d="M7340 540 L10510 540" stroke-width="13"/><path d="M7340 720 L10510 720" stroke-width="13"/><path d="M7340 900 L10510 900" stroke-width="13"/><path d="M7340 1080 L10510 1080" stroke-width="13"/><path d="M7340 1260 L10510 1260" stroke-width="13"/><g data-id="j1gcrvji" data-class="layer" class="layer"><g data-id="xbzu6oo" data-class="note" class="note"><g data-class="notehead" class="notehead"><use href="#E0A4-nlcvoa1" transform="translate(7531, 810) scale(0.72, 0.72)"/></g><g data-id="i18nvz2f" data-class="stem" class="stem"><path d="M7540 838 L7540 1440" stroke-width="18"/></g></g><g data-id="y1yddhrn" data-class="note" class="note"><g data-class="notehead" class="notehead"><use href="#E0A4-nlcvoa1" transform="translate(8272, 990) scale(0.72, 0.72)"/></g><g data-id="juaeqtt" data-class="stem" class="stem"><path d="M8489 962 L8489 360" stroke-width="18"/></g></g><g data-id="zowe5k7" data-class="note" class="note"><g data-class="notehead" class="notehead"><use href="#E0A4-nlcvoa1" transform="translate(9014, 1170) scale(0.72, 0.72)"/></g><g data-id="kivm6sd" data-class="stem" class="stem"><path d="M9231 1142 L9231 540" stroke-width="18"/></g></g><g data-id="aripjxv" data-class="note" class="note"><g data-class="notehead" class="notehead"><use href="#E0A4-nlcvoa1" transform="translate(9756, 1080) scale(0.72, 0.72)"/></g><g data-id="l8xrr6c" data-class="stem" class="stem"><path d="M9973 1052 L9973 450" stroke-width="18"/></g></g></g></g><g data-id="oavumc6" data-class="barLine" class="barLine"><path d="M10497 540 L10497 1260" stroke-width="27"/></g></g><g data-id="p1ymxv0h" data-class="measure" class="measure"><g data-id="k5wcogz" data-class="staff" class="staff"><path d="M10510 540 L14001 540" stroke-width="13"/><path d="M10510 720 L14001 720" stroke-width="13"/><path d="M10510 900 L14001 900" stroke-width="13"/><path d="M10510 1080 L14001 1080" stroke-width="13"/><path d="M10510 1260 L14001 1260" stroke-width="13"/><g data-id="l5sn6ux" data-class="layer" class="layer"><g data-id="bxnu72p" data-class="note" class="note"><g data-class="notehead" class="notehead"><use href="#E0A4-nlcvoa1" transform="translate(10701, 990) scale(0.72, 0.72)"/></g><g data-id="m17kp25a" data-class="stem" class="stem"><path d="M10918 962 L10918 360" stroke-width="18"/></g></g><g data-id="c1gtrvxn" data-class="note" class="note"><g data-class="notehead" class="notehead"><use href="#E0A4-nlcvoa1" transform="translate(11442, 1170) scale(0.72, 0.72)"/></g><g data-id="n1j3wvi5" data-class="stem" class="stem"><path d="M11659 1142 L11659 540" stroke-width="18"/></g></g><g data-id="d143iqch" data-class="note" class="note"><g data-class="notehead" class="notehead"><use href="#E0A4-nlcvoa1" transform="translate(12184, 1350) scale(0.72, 0.72)"/></g><g data-id="op7qds7" data-class="stem" class="stem"><path d="M12401 1322 L12401 720" stroke-width="18"/></g></g><g data-id="e1v1ao1m" data-class="note" class="note"><g data-class="notehead" class="notehead"><use href="#E0A4-nlcvoa1" transform="translate(12926, 1260) scale(0.72, 0.72)"/></g><g data-id="p1trljbg" data-class="stem" class="stem"><path d="M13143 1232 L13143 630" stroke-width="18"/><g data-id="qp09mpk" data-class="flag" class="flag"><use href="#E240-nlcvoa1" transform="translate(13134, 630) scale(0.72, 0.72)"/></g></g></g><g data-id="f152itfm" data-class="note" class="note"><g data-class="notehead" class="notehead"><use href="#E0A4-nlcvoa1" transform="translate(13450, 1170) scale(0.72, 0.72)"/></g><g data-id="r1rgradx" data-class="stem" class="stem"><path d="M13667 1142 L13667 540" stroke-width="18"/><g data-id="s1dixt0n" data-class="flag" class="flag"><use href="#E240-nlcvoa1" transform="translate(13658, 540) scale(0.72, 0.72)"/></g></g></g></g></g><g data-id="x11sxvir" data-class="barLine" class="barLine"><path d="M13988 540 L13988 1260" stroke-width="27"/></g></g></g></g></svg></svg>