<svg viewBox="0 0 560 84" version="1.1" xmlns="http://www.w3.org/2000/svg" xmlns:xlink="http://www.w3.org/1999/xlink" overflow="visible" id="b1s0irm5"><desc>Engraved by Verovio 5.6.0-85e7620</desc><defs><g id="E050-b1s0irm5"><path transform="scale(1,-1)" d="M441 -245c-23 -4 -48 -6 -76 -6c-59 0 -102 7 -130 20c-88 42 -150 93 -187 154c-26 44 -43 103 -48 176c0 6 -1 13 -1 19c0 54 15 111 45 170c29 57 65 106 110 148s96 85 153 127c-3 16 -8 46 -13 92c-4 43 -5 73 -5 89c0 117 16 172 69 257c34 54 64 82 89 82 c21 0 43 -30 69 -92s39 -115 41 -159v-15c0 -109 -21 -162 -67 -241c-13 -20 -63 -90 -98 -118c-13 -9 -25 -19 -37 -29l31 -181c8 1 18 2 28 2c58 0 102 -12 133 -35c59 -43 92 -104 98 -184c1 -7 1 -15 1 -22c0 -123 -87 -209 -181 -248c8 -57 17 -110 25 -162 c5 -31 6 -58 6 -80c0 -30 -5 -53 -14 -70c-35 -64 -88 -99 -158 -103c-5 0 -11 -1 -16 -1c-37 0 -72 10 -108 27c-50 24 -77 59 -80 105v11c0 29 7 55 20 76c18 28 45 42 79 44h6c49 0 93 -42 97 -87v-9c0 -51 -34 -86 -105 -106c17 -24 51 -36 102 -36c62 0 116 43 140 85 c9 16 13 41 13 74c0 20 -1 42 -5 67c-8 53 -18 106 -26 159zM461 939c-95 0 -135 -175 -135 -286c0 -24 2 -48 5 -71c50 39 92 82 127 128c40 53 60 100 60 140v8c-4 53 -22 81 -55 81h-2zM406 119l54 -326c73 25 110 78 110 161c0 7 0 15 -1 23c-7 95 -57 142 -151 142h-12 zM382 117c-72 -2 -128 -47 -128 -120v-7c2 -46 43 -99 75 -115c-3 -2 -7 -5 -10 -10c-70 33 -116 88 -123 172v11c0 68 44 126 88 159c23 17 49 29 78 36l-29 170c-21 -13 -52 -37 -92 -73c-50 -44 -86 -84 -109 -119c-45 -69 -67 -130 -67 -182v-13c5 -68 35 -127 93 -176 s125 -73 203 -73c25 0 50 3 75 9c-19 111 -36 221 -54 331z"/></g><g id="E262-b1s0irm5"><path transform="scale(1,-1)" d="M136 186v169h17v-164l44 14v-91l-44 -14v-165l44 12v-91l-44 -13v-155h-17v150l-76 -22v-155h-17v149l-43 -13v90l43 14v167l-43 -14v92l43 13v169h17v-163zM60 73v-167l76 22v168z"/></g><g id="E086-b1s0irm5"><path transform="scale(1,-1)" d="M284 -91c0 37 -28 92 -67 92c-35 0 -65 -54 -65 -111c0 -52 22 -104 68 -104c47 0 64 68 64 123zM230 214c-36 0 -90 -33 -90 -184l2 -36c40 24 81 36 120 36c80 0 140 -48 140 -121c0 -99 -99 -159 -182 -159c-160 0 -200 173 -200 244c0 21 2 43 7 71l10 35 c26 85 73 115 98 126c41 19 74 24 103 24c93 0 142 -63 142 -105c0 -58 -52 -72 -73 -72c-33 0 -59 24 -65 35c-3 5 -6 14 -7 25l11 30c6 15 9 27 9 35c0 11 -9 16 -25 16z"/></g><g id="E084-b1s0irm5"><path transform="scale(1,-1)" d="M20 -78c84 97 114 180 134 329h170c-13 -32 -82 -132 -99 -151l-84 -97c-33 -36 -59 -63 -80 -81h162v102l127 123v-225h57v-39h-57v-34c0 -43 19 -65 57 -65v-34h-244v36c48 0 60 26 60 70v27h-203v39z"/></g><g id="E0A4-b1s0irm5"><path transform="scale(1,-1)" d="M0 -39c0 68 73 172 200 172c66 0 114 -37 114 -95c0 -84 -106 -171 -218 -171c-64 0 -96 30 -96 94z"/></g><g id="E0A3-b1s0irm5"><path transform="scale(1,-1)" d="M278 64c0 22 -17 39 -43 39c-12 0 -26 -3 -41 -10c-85 -43 -165 -94 -165 -156c5 -25 15 -32 49 -32c67 11 200 95 200 159zM0 -36c0 68 73 174 200 174c66 0 114 -39 114 -97c0 -84 -106 -173 -218 -173c-64 0 -96 32 -96 96z"/></g></defs><style type="text/css">#b1s0irm5 g.page-margin {font-family:Times,serif;}#b1s0irm5 g.ending, #b1s0irm5 g.fing, #b1s0irm5 g.reh, #b1s0irm5 g.tempo {font-weight:bold;}#b1s0irm5 g.dir, #b1s0irm5 g.dynam, #b1s0irm5 g.mNum {font-style:italic;}#b1s0irm5 g.label {font-weight:normal;}#b1s0irm5 path {stroke:currentColor}</style><svg class="definition-scale" color="black" viewBox="0 0 14000 2100"><g class="page-margin" transform="translate(0, 150)"><g data-id="f1aocroe" data-class="mdiv" class="mdiv pageMilestone"/><g data-id="g10k06d8" data-class="score" class="score pageMilestone"/><g data-id="y1mtrmxw" data-class="system" class="system"><g data-id="ieo3322" data-class="section" class="section systemMilestone"/><g data-id="c5diqs3" data-class="measure" class="measure"><g data-id="u2hnmkl" data-class="staff" class="staff"><path d="M0 540 L2663 540" stroke-width="13"/><path d="M0 720 L2663 720" stroke-width="13"/><path d="M0 900 L2663 900" stroke-width="13"/><path d="M0 1080 L2663 1080" stroke-width="13"/><path d="M0 1260 L2663 1260" stroke-width="13"/><g data-id="d1y98qyn" data-class="clef" class="clef"><use href="#E050-b1s0irm5" transform="translate(90, 1080) scale(0.72, 0.72)"/></g><g data-id="ee1jo4h" data-class="keySig" class="keySig"><g data-id="fc9vdyw" data-class="keyAccid" class="keyAccid"><use href="#E262-b1s0irm5" transform="translate(735, 540) scale(0.72, 0.72)"/></g><g data-id="g1ovjr6s" data-class="keyAccid" class="keyAccid"><use href="#E262-b1s0irm5" transform="translate(913, 810) scale(0.72, 0.72)"/></g><g data-id="hwj1bfn" data-class="keyAccid" class="keyAccid"><use href="#E262-b1s0irm5" transform="translate(1091, 450) scale(0.72, 0.72)"/></g></g><g data-id="i11m67j5" data-class="meterSig" class="meterSig"><use href="#E086-b1s0irm5" transform="translate(1400, 720) scale(0.72, 0.72)"/><use href="#E084-b1s0irm5" transform="translate(1398, 1080) scale(0.72, 0.72)"/></g><g data-class="ledgerLines" class="ledgerLines below"><g data-class="lineDash" class="lineDash" data-related="#m1gc4a8o"><path d="M1912 1440 L2234 1440" stroke-width="22"/></g></g><g data-id="v13giegf" data-class="layer" class="layer"><g data-id="m1gc4a8o" data-class="note" class="note"><g data-class="notehead" class="notehead"><use href="#E0A4-b1s0irm5" transform="translate(1960, 1440) scale(0.72, 0.72)"/></g><g data-id="pk7dhy0" data-class="stem" class="stem"><path d="M2177 1412 L2177 810" stroke-width="18"/></g><g data-id="x1l22gsv" data-class="accid" class="accid"/></g></g></g><g data-id="k1y01ocz" data-class="barLine" class="barLine"><path d="M2650 540 L2650 1260" stroke-width="27"/></g></g><g data-id="l5t1lkl" data-class="measure" class="measure"><g data-id="w14prw9b" data-class="staff" class="staff"><path d="M2663 540 L6336 540" stroke-width="13"/><path d="M2663 720 L6336 720" stroke-width="13"/><path d="M2663 900 L6336 900" stroke-width="13"/><path d="M2663 1080 L6336 1080" stroke-width="13"/><path d="M2663 1260 L6336 1260" stroke-width="13"/><g data-class="ledgerLines" class="ledgerLines below"><g data-class="lineDash" class="lineDash" data-related="#n1ahnpgx"><path d="M2795 1440 L3117 1440" stroke-width="22"/></g></g><g data-id="xujynj" data-class="layer" class="layer"><g data-id="n1ahnpgx" data-class="note" class="note"><g data-class="notehead" class="notehead"><use href="#E0A3-b1s0irm5" transform="translate(2843, 1440) scale(0.72, 0.72)"/></g><g data-id="q137spa8" data-class="stem" class="stem"><path d="M3060 1412 L3060 810" stroke-width="18"/></g><g data-id="yxrj7ha" data-class="accid" class="accid"/></g><g data-id="o15ycxqs" data-class="note" class="note"><g data-class="notehead" class="notehead"><use href="#E0A4-b1s0irm5" transform="translate(3893, 1170) scale(0.72, 0.72)"/></g><g data-id="row74mw" data-class="stem" class="stem"><path d="M4110 1142 L4110 540" stroke-width="18"/></g><g data-id="zmrri5u" data-class="accid" class="accid"/></g><g data-id="pxea4qw" data-class="note" class="note"><g data-class="notehead" class="notehead"><use href="#E0A3-b1s0irm5" transform="translate(4583, 1170) scale(0.72, 0.72)"/></g><g data-id="sywge1y" data-class="stem" class="stem"><path d="M4800 1142 L4800 540" stroke-width="18"/></g><g data-id="a17qq6o9" data-class="accid" class="accid"/></g><g data-id="q1kemzly" data-class="note" class="note"><g data-class="notehead" class="notehead"><use href="#E0A4-b1s0irm5" transform="translate(5633, 990) scale(0.72, 0.72)"/></g><g data-id="t13zsvly" data-class="stem" class="stem"><path d="M5850 962 L5850 360" stroke-width="18"/></g></g></g></g><g data-id="txfjy7u" data-class="barLine" class="barLine"><path d="M6323 540 L6323 1260" stroke-width="27"/></g></g><g data-id="u1h9i9qk" data-class="measure" class="measure"><g data-id="y16g89zt" data-class="staff" class="staff"><path d="M6336 540 L10009 540" stroke-width="13"/><path d="M6336 720 L10009 720" stroke-width="13"/><path d="M6336 900 L10009 900" stroke-width="13"/><path d="M6336 1080 L10009 1080" stroke-width="13"/><path d="M6336 1260 L10009 1260" stroke-width="13"/><g data-id="z181xomi" data-class="layer" class="layer"><g data-id="r182j9kx" data-class="note" class="note"><g data-class="notehead" class="notehead"><use href="#E0A3-b1s0irm5" transform="translate(6516, 720) scale(0.72, 0.72)"/></g><g data-id="u13hg9x2" data-class="stem" class="stem"><path d="M6525 745 L6525 1350" stroke-width="18"/></g></g><g data-id="s1ldhtne" data-class="note" class="note"><g data-class="notehead" class="notehead"><use href="#E0A4-b1s0irm5" transform="translate(7566, 810) scale(0.72, 0.72)"/></g><g data-id="vx6948y" data-class="stem" class="stem"><path d="M7575 838 L7575 1440" stroke-width="18"/></g><g data-id="bz46cvx" data-class="accid" class="accid"/></g><g data-id="tpvn5w6" data-class="note" class="note"><g data-class="notehead" class="notehead"><use href="#E0A3-b1s0irm5" transform="translate(8256, 900) scale(0.72, 0.72)"/></g><g data-id="w1ef5rsi" data-class="stem" class="stem"><path d="M8265 925 L8265 1500" stroke-width="18"/></g><g data-id="wni1sgy" data-class="accid" class="accid"><use href="#E262-b1s0irm5" transform="translate(8070, 900) scale(0.72, 0.72)"/></g></g><g data-id="u1r4ass0" data-class="note" class="note"><g data-class="notehead" class="notehead"><use href="#E0A4-b1s0irm5" transform="translate(9306, 900) scale(0.72, 0.72)"/></g><g data-id="x19q63n" data-class="stem" class="stem"><path d="M9315 928 L9315 1500" stroke-width="18"/></g><g data-id="c1egy9oz" data-class="accid" class="accid"/></g></g></g><g data-id="cm7p5n3" data-class="barLine" class="barLine"><path d="M9996 540 L9996 1260" stroke-width="27"/></g></g><g data-id="d1gh5now" data-class="measure" class="measure"><g data-id="a1q29l9x" data-class="staff" class="staff"><path d="M10009 540 L11239 540" stroke-width="13"/><path d="M10009 720 L11239 720" stroke-width="13"/><path d="M10009 900 L11239 900" stroke-width="13"/><path d="M10009 1080 L11239 1080" stroke-width="13"/><path d="M10009 1260 L11239 1260" stroke-width="13"/><g data-id="b14fyqc8" data-class="layer" class="layer"><g data-id="v1i2rz4j" data-class="note" class="note"><g data-class="notehead" class="notehead"><use href="#E0A3-b1s0irm5" transform="translate(10189, 810) scale(0.72, 0.72)"/></g><g data-id="y1vjrwuk" data-class="stem" class="stem"><path d="M10198 835 L10198 1440" stroke-width="18"/></g><g data-id="d109yltf" data-class="accid" class="accid"/></g></g></g><g data-id="l14thjcl" data-class="barLine" class="barLine"/></g><g data-id="jkmlquh" data-class="systemMilestoneEnd" class="systemMilestoneEnd ieo3322"/></g><g data-id="kh8rmcz" data-class="pageMilestoneEnd" class="pageMilestoneEnd g10k06d8"/><g data-id="lqk4far" data-class="pageMilestoneEnd" class="pageMilestoneEnd f1aocroe"/></g></svg></svg>