<svg viewBox="0 0 560 84" version="1.1" xmlns="http://www.w3.org/2000/svg" xmlns:xlink="http://www.w3.org/1999/xlink" overflow="visible" id="f1hh2yfb"><desc>Engraved by Verovio 5.6.0-85e7620</desc><defs><g id="E062-f1hh2yfb"><path transform="scale(1,-1)" d="M582 -120c0 32 26 58 58 58s58 -26 58 -58s-26 -58 -58 -58s-58 26 -58 58zM582 120c0 32 26 58 58 58s58 -26 58 -58s-26 -58 -58 -58s-58 26 -58 58zM158 96c51 0 73 -14 88 -49l16 -39c0 -17 -2 -30 -7 -40c-3 -11 -10 -21 -19 -31c-17 -18 -49 -43 -84 -43 c-55 0 -77 13 -112 44c-24 21 -35 55 -35 100c0 46 14 81 32 112c30 52 71 79 137 93l36 6l26 2c154 0 235 -68 274 -182c11 -32 18 -68 18 -107c0 -103 -26 -182 -68 -250c-89 -145 -234 -230 -412 -288l-30 -5c-9 0 -14 3 -14 8c3 10 5 11 10 16c35 15 70 30 96 44l78 43 c96 57 162 136 197 258c9 33 17 60 22 100c3 22 5 35 6 39c-7 69 -16 115 -23 140s-4 22 -16 40c-8 12 -19 23 -31 34c-24 21 -62 44 -118 44c-48 0 -84 -8 -113 -28c-28 -19 -42 -44 -42 -73v-16c2 -5 3 -9 4 -11c24 22 52 39 84 39z"/></g><g id="E260-f1hh2yfb"><path transform="scale(1,-1)" d="M20 110c32 16 54 27 93 27c26 0 35 -3 54 -13c13 -7 24 -20 27 -38l4 -25c0 -28 -16 -57 -45 -89c-23 -25 -39 -44 -65 -68l-88 -79v644h20v-359zM90 106c-32 0 -48 -10 -70 -29v-194c31 31 54 59 71 84c21 32 32 59 32 84c0 9 1 16 1 20c0 14 -3 21 -11 30l-8 3z"/></g><g id="E081-f1hh2yfb"><path transform="scale(1,-1)" d="M68 -250v36c23 0 40 6 49 18c8 14 12 33 12 57v250l-82 -129l-27 13l107 255h128v-394c0 -24 5 -42 14 -53s25 -17 47 -17v-36h-248z"/></g><g id="E082-f1hh2yfb"><path transform="scale(1,-1)" d="M124 -185c-18 0 -55 -14 -65 -65h-36l-3 30c0 25 6 45 18 63c11 19 22 30 39 43l121 82l37 29c15 11 27 29 38 54c12 24 18 47 18 70c0 40 -19 88 -94 88c-25 0 -32 0 -50 -8c-14 -5 -23 -12 -26 -22c3 -9 7 -15 10 -18l24 -17c12 -7 17 -11 27 -21c5 -7 7 -16 7 -27 c0 -12 0 -57 -79 -74c-30 0 -76 26 -76 94c0 66 81 135 197 135c72 0 181 -32 181 -150c0 -53 -32 -95 -113 -133l-91 -41c-26 -11 -45 -23 -57 -37l49 7c84 0 115 -41 148 -41c20 0 33 20 39 61h35c0 -152 -68 -168 -114 -168c-17 0 -65 0 -79 7h10l-28 17 c-49 37 -69 40 -87 42z"/></g><g id="E088-f1hh2yfb"><path transform="scale(1,-1)" d="M195 -214c76 0 88 58 90 68c0 34 -35 60 -57 73l-52 29c-21 10 -32 17 -34 20c-39 -33 -58 -54 -62 -92c5 -23 23 -98 115 -98zM301 135c0 61 -72 76 -113 76c-40 0 -77 -17 -77 -51c3 -21 15 -38 26 -50c17 -15 33 -26 48 -34l65 -28c34 27 51 56 51 87zM176 -250 c-57 0 -166 26 -166 132c0 47 30 86 89 116c-33 15 -79 60 -79 119c0 79 85 132 178 132h18c5 0 21 1 28 -1c25 0 126 -30 126 -110c0 -37 -23 -76 -69 -116c43 -25 83 -71 83 -119c0 -101 -118 -153 -208 -153z"/></g><g id="E0A3-f1hh2yfb"><path transform="scale(1,-1)" d="M278 64c0 22 -17 39 -43 39c-12 0 -26 -3 -41 -10c-85 -43 -165 -94 -165 -156c5 -25 15 -32 49 -32c67 11 200 95 200 159zM0 -36c0 68 73 174 200 174c66 0 114 -39 114 -97c0 -84 -106 -173 -218 -173c-64 0 -96 32 -96 96z"/></g></defs><style type="text/css">#f1hh2yfb g.page-margin {font-family:Times,serif;}#f1hh2yfb g.ending, #f1hh2yfb g.fing, #f1hh2yfb g.reh, #f1hh2yfb g.tempo {font-weight:bold;}#f1hh2yfb g.dir, #f1hh2yfb g.dynam, #f1hh2yfb g.mNum {font-style:italic;}#f1hh2yfb g.label {font-weight:normal;}#f1hh2yfb path {stroke:currentColor}</style><svg class="definition-scale" color="black" viewBox="0 0 14000 2100"><g class="page-margin" transform="translate(0, 150)"><g data-id="g15r7kx6" data-class="mdiv" class="mdiv pageMilestone"/><g data-id="h1c2etz7" data-class="score" class="score pageMilestone"/><g data-id="j18dvs4w" data-class="system" class="system"><g data-id="jsiv8r7" data-class="section" class="section systemMilestone"/><g data-id="g1jkze6y" data-class="measure" class="measure"><g data-id="v7p6o1t" data-class="staff" class="staff"><path d="M0 540 L5124 540" stroke-width="13"/><path d="M0 720 L5124 720" stroke-width="13"/><path d="M0 900 L5124 900" stroke-width="13"/><path d="M0 1080 L5124 1080" stroke-width="13"/><path d="M0 1260 L5124 1260" stroke-width="13"/><g data-id="n19ti37k" data-class="clef" class="clef"><use href="#E062-f1hh2yfb" transform="translate(88, 720) scale(0.72, 0.72)"/></g><g data-id="o8slwkm" data-class="keySig" class="keySig"><g data-id="pkvamej" data-class="keyAccid" class="keyAccid"><use href="#E260-f1hh2yfb" transform="translate(769, 1080) scale(0.72, 0.72)"/></g><g data-id="qt4dg8e" data-class="keyAccid" class="keyAccid"><use href="#E260-f1hh2yfb" transform="translate(949, 810) scale(0.72, 0.72)"/></g><g data-id="r1l42t1q" data-class="keyAccid" class="keyAccid"><use href="#E260-f1hh2yfb" transform="translate(1129, 1170) scale(0.72, 0.72)"/></g><g data-id="sgnpm9j" data-class="keyAccid" class="keyAccid"><use href="#E260-f1hh2yfb" transform="translate(1309, 900) scale(0.72, 0.72)"/></g></g><g data-id="tqvdab8" data-class="meterSig" class="meterSig"><use href="#E081-f1hh2yfb" transform="translate(1617, 720) scale(0.72, 0.72)"/><use href="#E082-f1hh2yfb" transform="translate(1858, 720) scale(0.72, 0.72)"/><use href="#E088-f1hh2yfb" transform="translate(1752, 1080) scale(0.72, 0.72)"/></g><g data-id="wbf8foa" data-class="layer" class="layer"><g data-id="yzcg4d7" data-class="note" class="note"><g data-class="notehead" class="notehead"><use href="#E0A3-f1hh2yfb" transform="translate(2431, 1170) scale(0.72, 0.72)"/></g><g data-id="o19pw0ma" data-class="dots" class="dots"><ellipse cx="2747" cy="1170" rx="36" ry="36" fill-opacity="1" stroke-opacity="1"/></g><g data-id="n5fbyn1" data-class="stem" class="stem"><path d="M2648 1142 L2648 540" stroke-width="18"/></g><g data-id="c1vcjpyk" data-class="accid" class="accid"/></g><g data-id="z2h8jw1" data-class="note" class="note"><g data-class="notehead" class="notehead"><use href="#E0A3-f1hh2yfb" transform="translate(3771, 990) scale(0.72, 0.72)"/></g><g data-id="qu83kjv" data-class="dots" class="dots"><ellipse cx="4087" cy="990" rx="36" ry="36" fill-opacity="1" stroke-opacity="1"/></g><g data-id="pjfrooc" data-class="stem" class="stem"><path d="M3988 962 L3988 360" stroke-width="18"/></g></g></g></g><g data-id="o1eazxk9" data-class="barLine" class="barLine"><path d="M5111 540 L5111 1260" stroke-width="27"/></g></g><g data-id="pbfgfpv" data-class="measure" class="measure"><g data-id="x1wgf5dl" data-class="staff" class="staff"><path d="M5124 540 L7997 540" stroke-width="13"/><path d="M5124 720 L7997 720" stroke-width="13"/><path d="M5124 900 L7997 900" stroke-width="13"/><path d="M5124 1080 L7997 1080" stroke-width="13"/><path d="M5124 1260 L7997 1260" stroke-width="13"/><g data-class="ledgerLines" class="ledgerLines below"><g data-class="lineDash" class="lineDash" data-related="#b1ubihho"><path d="M6596 1440 L6918 1440" stroke-width="22"/></g></g><g data-id="yip9c5c" data-class="layer" class="layer"><g data-id="aed5m6m" data-class="note" class="note"><g data-class="notehead" class="notehead"><use href="#E0A3-f1hh2yfb" transform="translate(5304, 1080) scale(0.72, 0.72)"/></g><g data-id="sn6qjyo" data-class="dots" class="dots"><ellipse cx="5620" cy="990" rx="36" ry="36" fill-opacity="1" stroke-opacity="1"/></g><g data-id="r154myyl" data-class="stem" class="stem"><path d="M5521 1052 L5521 450" stroke-width="18"/></g><g data-id="dcovr6g" data-class="accid" class="accid"/></g><g data-id="b1ubihho" data-class="note" class="note"><g data-class="notehead" class="notehead"><use href="#E0A3-f1hh2yfb" transform="translate(6644, 1440) scale(0.72, 0.72)"/></g><g data-id="uzkpwx5" data-class="dots" class="dots"><ellipse cx="6960" cy="1350" rx="36" ry="36" fill-opacity="1" stroke-opacity="1"/></g><g data-id="tg2ef97" data-class="stem" class="stem"><path d="M6861 1412 L6861 810" stroke-width="18"/></g><g data-id="eo82osc" data-class="accid" class="accid"/></g></g></g><g data-id="xnurowu" data-class="barLine" class="barLine"><path d="M7984 540 L7984 1260" stroke-width="27"/></g></g><g data-id="g1kz4376" data-class="systemMilestoneEnd" class="systemMilestoneEnd jsiv8r7"/></g><g data-id="h1atwf6i" data-class="pageMilestoneEnd" class="pageMilestoneEnd h1c2etz7"/><g data-id="i1tmoec2" data-class="pageMilestoneEnd" class="pageMilestoneEnd g15r7kx6"/></g></svg></svg>