<svg viewBox="0 0 560 99" version="1.1" xmlns="http://www.w3.org/2000/svg" xmlns:xlink="http://www.w3.org/1999/xlink" overflow="visible" id="lesomu3"><desc>Engraved by Verovio 5.6.0-85e7620</desc><defs><g id="E062-lesomu3"><path transform="scale(1,-1)" d="M582 -120c0 32 26 58 58 58s58 -26 58 -58s-26 -58 -58 -58s-58 26 -58 58zM582 120c0 32 26 58 58 58s58 -26 58 -58s-26 -58 -58 -58s-58 26 -58 58zM158 96c51 0 73 -14 88 -49l16 -39c0 -17 -2 -30 -7 -40c-3 -11 -10 -21 -19 -31c-17 -18 -49 -43 -84 -43 c-55 0 -77 13 -112 44c-24 21 -35 55 -35 100c0 46 14 81 32 112c30 52 71 79 137 93l36 6l26 2c154 0 235 -68 274 -182c11 -32 18 -68 18 -107c0 -103 -26 -182 -68 -250c-89 -145 -234 -230 -412 -288l-30 -5c-9 0 -14 3 -14 8c3 10 5 11 10 16c35 15 70 30 96 44l78 43 c96 57 162 136 197 258c9 33 17 60 22 100c3 22 5 35 6 39c-7 69 -16 115 -23 140s-4 22 -16 40c-8 12 -19 23 -31 34c-24 21 -62 44 -118 44c-48 0 -84 -8 -113 -28c-28 -19 -42 -44 -42 -73v-16c2 -5 3 -9 4 -11c24 22 52 39 84 39z"/></g><g id="E262-lesomu3"><path transform="scale(1,-1)" d="M136 186v169h17v-164l44 14v-91l-44 -14v-165l44 12v-91l-44 -13v-155h-17v150l-76 -22v-155h-17v149l-43 -13v90l43 14v167l-43 -14v92l43 13v169h17v-163zM60 73v-167l76 22v168z"/></g><g id="E08A-lesomu3"><path transform="scale(1,-1)" d="M340 179c-9 24 -56 41 -89 41c-46 0 -81 -28 -100 -58c-17 -28 -25 -78 -25 -150c0 -65 2 -111 8 -135c8 -31 18 -49 40 -67c20 -17 43 -25 70 -25c54 0 92 36 115 75c14 25 23 54 28 88h27c0 -63 -24 -105 -58 -141c-35 -38 -82 -56 -140 -56c-45 0 -83 13 -115 39 c-57 45 -101 130 -101 226c0 59 33 127 68 163c36 37 97 72 160 72c36 0 93 -21 121 -40c11 -8 23 -17 33 -30c19 -23 27 -48 27 -76c0 -51 -35 -88 -86 -88c-43 0 -76 27 -76 68c0 26 7 35 21 51c15 17 32 27 58 32c7 2 14 7 14 11z"/></g><g id="E4E8-lesomu3"><path transform="scale(1,-1)" d="M69 -54c44 -9 49 -10 63 -50c0 -14 -1 -24 -4 -29c-7 -11 -23 -20 -47 -26c6 -3 15 -4 25 -4c18 0 39 7 61 22c18 12 30 26 30 26l61 187c-22 -12 -48 -21 -81 -21c-18 0 -34 3 -46 9c-36 9 -54 29 -54 61c8 34 31 58 68 58c34 0 63 -24 63 -57c0 -11 -4 -21 -10 -30 c-4 -5 -16 -12 -39 -18c8 -3 16 -5 24 -5c35 0 71 25 88 45l66 198c-12 -11 -33 -12 -55 -17c-18 -4 -29 -8 -35 -8h-15l-28 2c-10 1 -17 3 -23 6c-37 7 -56 26 -56 59c9 33 33 59 72 59c33 0 53 -21 61 -49c0 -37 -17 -47 -51 -55c5 -4 13 -6 24 -6c14 0 29 3 45 8 c47 15 89 43 101 92l18 2l4 -1l-288 -889h-37l106 318c-17 -10 -43 -15 -72 -15c-22 0 -40 3 -52 9c-35 8 -55 23 -55 61c8 35 31 54 68 58z"/></g><g id="E0A4-lesomu3"><path transform="scale(1,-1)" d="M0 -39c0 68 73 172 200 172c66 0 114 -37 114 -95c0 -84 -106 -171 -218 -171c-64 0 -96 30 -96 94z"/></g><g id="E241-lesomu3"><path transform="scale(1,-1)" d="M179 646c-4 8 -17 30 -18 33l-4 10c0 3 2 5 5 5s7 -2 13 -7c23 -33 46 -81 66 -132c22 -57 35 -125 35 -163c0 -104 -60 -183 -122 -241c-63 -59 -57 -53 -61 -56c-38 -34 -63 -95 -71 -95h-22v190c40 7 69 11 87 16c88 27 168 95 168 200c0 30 -12 89 -30 138 c-17 47 -31 73 -46 102z"/></g></defs><style type="text/css">#lesomu3 g.page-margin {font-family:Times,serif;}#lesomu3 g.ending, #lesomu3 g.fing, #lesomu3 g.reh, #lesomu3 g.tempo {font-weight:bold;}#lesomu3 g.dir, #lesomu3 g.dynam, #lesomu3 g.mNum {font-style:italic;}#lesomu3 g.label {font-weight:normal;}#lesomu3 path {stroke:currentColor}</style><svg class="definition-scale" color="black" viewBox="0 0 14000 2460"><g class="page-margin" transform="translate(0, 150)"><g data-id="kp5e12l" data-class="mdiv" class="mdiv pageMilestone"/><g data-id="l16jgvr0" data-class="score" class="score pageMilestone"/><g data-id="b1rnbymw" data-class="system" class="system"><g data-id="n1jsnjz9" data-class="section" class="section systemMilestone"/><g data-id="mlk6q7w" data-class="measure" class="measure"><g data-id="z1kdwxy8" data-class="staff" class="staff"><path d="M0 906 L10631 906" stroke-width="13"/><path d="M0 1086 L10631 1086" stroke-width="13"/><path d="M0 1266 L10631 1266" stroke-width="13"/><path d="M0 1446 L10631 1446" stroke-width="13"/><path d="M0 1626 L10631 1626" stroke-width="13"/><g data-id="g18d63m7" data-class="clef" class="clef"><use href="#E062-lesomu3" transform="translate(88, 1086) scale(0.72, 0.72)"/></g><g data-id="hekfziq" data-class="keySig" class="keySig"><g data-id="i1unsax6" data-class="keyAccid" class="keyAccid"><use href="#E262-lesomu3" transform="translate(769, 1086) scale(0.72, 0.72)"/></g><g data-id="jx0rc3p" data-class="keyAccid" class="keyAccid"><use href="#E262-lesomu3" transform="translate(947, 1356) scale(0.72, 0.72)"/></g><g data-id="k1loy3gl" data-class="keyAccid" class="keyAccid"><use href="#E262-lesomu3" transform="translate(1125, 996) scale(0.72, 0.72)"/></g></g><g data-id="l1l098cf" data-class="meterSig" class="meterSig"><use href="#E08A-lesomu3" transform="translate(1446, 1266) scale(0.72, 0.72)"/></g><g data-class="ledgerLines" class="ledgerLines above"><g data-class="lineDash" class="lineDash" data-related="#z1od34qe"><path d="M2992 726 L3278 726" stroke-width="22"/></g><g data-class="lineDash" class="lineDash" data-related="#a14zsw4w"><path d="M3308 726 L3594 726" stroke-width="22"/></g><g data-class="lineDash" class="lineDash" data-related="#b15xhnw2"><path d="M3624 726 L3910 726" stroke-width="22"/></g><g data-class="lineDash" class="lineDash" data-related="#f10c5fgf"><path d="M4888 726 L5174 726" stroke-width="22"/></g><g data-class="lineDash" class="lineDash" data-related="#gktoxwz"><path d="M5204 726 L5490 726" stroke-width="22"/></g><g data-class="lineDash" class="lineDash" data-related="#hsgzz8r"><path d="M5520 726 L5806 726" stroke-width="22"/></g><g data-class="lineDash" class="lineDash" data-related="#i14xsw33"><path d="M5836 726 L6122 726" stroke-width="22"/></g><g data-class="lineDash" class="lineDash" data-related="#l1qsma7w"><path d="M7294 726 L7580 726" stroke-width="22"/></g><g data-class="lineDash" class="lineDash" data-related="#m1j65jik"><path d="M7610 726 L7896 726" stroke-width="22"/></g><g data-class="lineDash" class="lineDash" data-related="#n1mmv3av"><path d="M7926 726 L8212 726" stroke-width="22"/></g><g data-class="lineDash" class="lineDash" data-related="#r18gwc9r"><path d="M9190 726 L9476 726" stroke-width="22"/></g><g data-class="lineDash" class="lineDash" data-related="#s1enf7w0"><path d="M9506 726 L9792 726" stroke-width="22"/></g><g data-class="lineDash" class="lineDash" data-related="#t1gfli99"><path d="M9822 726 L10108 726" stroke-width="22"/></g><g data-class="lineDash" class="lineDash" data-related="#uqc55z4"><path d="M10138 726 L10424 726" stroke-width="22"/></g><g data-class="lineDash" class="lineDash" data-related="#a14zsw4w"><path d="M3308 546 L3594 546" stroke-width="22"/></g><g data-class="lineDash" class="lineDash" data-related="#gktoxwz"><path d="M5204 546 L5490 546" stroke-width="22"/></g><g data-class="lineDash" class="lineDash" data-related="#hsgzz8r"><path d="M5520 546 L5806 546" stroke-width="22"/></g><g data-class="lineDash" class="lineDash" data-related="#i14xsw33"><path d="M5836 546 L6122 546" stroke-width="22"/></g><g data-class="lineDash" class="lineDash" data-related="#m1j65jik"><path d="M7610 546 L7896 546" stroke-width="22"/></g><g data-class="lineDash" class="lineDash" data-related="#s1enf7w0"><path d="M9506 546 L9792 546" stroke-width="22"/></g><g data-class="lineDash" class="lineDash" data-related="#t1gfli99"><path d="M9822 546 L10108 546" stroke-width="22"/></g><g data-class="lineDash" class="lineDash" data-related="#uqc55z4"><path d="M10138 546 L10424 546" stroke-width="22"/></g><g data-class="lineDash" class="lineDash" data-related="#hsgzz8r"><path d="M5520 366 L5806 366" stroke-width="22"/></g><g data-class="lineDash" class="lineDash" data-related="#i14xsw33"><path d="M5836 366 L6122 366" stroke-width="22"/></g><g data-class="lineDash" class="lineDash" data-related="#t1gfli99"><path d="M9822 366 L10108 366" stroke-width="22"/></g><g data-class="lineDash" class="lineDash" data-related="#uqc55z4"><path d="M10138 366 L10424 366" stroke-width="22"/></g><g data-class="lineDash" class="lineDash" data-related="#i14xsw33"><path d="M5836 186 L6122 186" stroke-width="22"/></g><g data-class="lineDash" class="lineDash" data-related="#uqc55z4"><path d="M10138 186 L10424 186" stroke-width="22"/></g></g><g data-id="anmu71d" data-class="layer" class="layer"><g data-id="vcmb7a8" data-class="rest" class="rest"><use href="#E4E8-lesomu3" transform="translate(2014, 1266) scale(0.72, 0.72)"/></g><g data-id="v1xo6xg5" data-class="beam" class="beam"><polygon stroke-opacity="1" fill-opacity="1" points="2390,1986 3040,1806 3040,1716 2390,1896"/><polygon stroke-opacity="1" fill-opacity="1" points="2390,1851 2715,1761 2715,1671 2390,1761"/><polygon stroke-opacity="1" fill-opacity="1" points="2715,1761 3040,1671 3040,1581 2715,1671"/><polygon stroke-opacity="1" fill-opacity="1" points="2390,1716 2715,1626 2715,1536 2390,1626"/><polygon stroke-opacity="1" fill-opacity="1" points="2715,1626 3040,1536 3040,1446 2715,1536"/><g data-id="xmlravd" data-class="note" class="note"><g data-class="notehead" class="notehead"><use href="#E0A4-lesomu3" transform="translate(2390, 1176) scale(0.72, 0.72)"/></g><g data-id="o129by9d" data-class="stem" class="stem"><path d="M2399 1204 L2399 1968" stroke-width="18"/></g></g><g data-id="y1i8u9pk" data-class="note" class="note"><g data-class="notehead" class="notehead"><use href="#E0A4-lesomu3" transform="translate(2706, 906) scale(0.72, 0.72)"/></g><g data-id="pzlskjc" data-class="stem" class="stem"><path d="M2715 934 L2715 1878" stroke-width="18"/></g></g><g data-id="z1od34qe" data-class="note" class="note"><g data-class="notehead" class="notehead"><use href="#E0A4-lesomu3" transform="translate(3022, 726) scale(0.72, 0.72)"/></g><g data-id="q68y90o" data-class="stem" class="stem"><path d="M3031 754 L3031 1788" stroke-width="18"/></g><g data-id="bi019gf" data-class="accid" class="accid"/></g></g><g data-id="w1rnmvzg" data-class="beam" class="beam"><polygon stroke-opacity="1" fill-opacity="1" points="3338,1626 4304,1986 4304,1896 3338,1536"/><polygon stroke-opacity="1" fill-opacity="1" points="3338,1491 3663,1611 3663,1521 3338,1401"/><polygon stroke-opacity="1" fill-opacity="1" points="3663,1611 3979,1731 3979,1641 3663,1521"/><polygon stroke-opacity="1" fill-opacity="1" points="3979,1731 4304,1851 4304,1761 3979,1641"/><polygon stroke-opacity="1" fill-opacity="1" points="3338,1356 3663,1476 3663,1386 3338,1266"/><polygon stroke-opacity="1" fill-opacity="1" points="3663,1476 3979,1596 3979,1506 3663,1386"/><polygon stroke-opacity="1" fill-opacity="1" points="3979,1596 4304,1716 4304,1626 3979,1506"/><g data-id="a14zsw4w" data-class="note" class="note"><g data-class="notehead" class="notehead"><use href="#E0A4-lesomu3" transform="translate(3338, 546) scale(0.72, 0.72)"/></g><g data-id="r17i7yql" data-class="stem" class="stem"><path d="M3347 574 L3347 1608" stroke-width="18"/></g></g><g data-id="b15xhnw2" data-class="note" class="note"><g data-class="notehead" class="notehead"><use href="#E0A4-lesomu3" transform="translate(3654, 726) scale(0.72, 0.72)"/></g><g data-id="s13a16jq" data-class="stem" class="stem"><path d="M3663 754 L3663 1728" stroke-width="18"/></g><g data-id="c1p93zte" data-class="accid" class="accid"/></g><g data-id="c16jrapv" data-class="note" class="note"><g data-class="notehead" class="notehead"><use href="#E0A4-lesomu3" transform="translate(3970, 906) scale(0.72, 0.72)"/></g><g data-id="t1v9eq4k" data-class="stem" class="stem"><path d="M3979 934 L3979 1848" stroke-width="18"/></g></g><g data-id="dgapm4u" data-class="note" class="note"><g data-class="notehead" class="notehead"><use href="#E0A4-lesomu3" transform="translate(4286, 1176) scale(0.72, 0.72)"/></g><g data-id="u18eeb90" data-class="stem" class="stem"><path d="M4295 1204 L4295 1968" stroke-width="18"/></g></g></g><g data-id="x1aykxhj" data-class="beam" class="beam"><polygon stroke-opacity="1" fill-opacity="1" points="4602,1716 5568,1356 5568,1266 4602,1626"/><polygon stroke-opacity="1" fill-opacity="1" points="4602,1581 4927,1461 4927,1371 4602,1491"/><polygon stroke-opacity="1" fill-opacity="1" points="4927,1461 5243,1341 5243,1251 4927,1371"/><polygon stroke-opacity="1" fill-opacity="1" points="5243,1341 5568,1221 5568,1131 5243,1251"/><polygon stroke-opacity="1" fill-opacity="1" points="4602,1446 4927,1326 4927,1236 4602,1356"/><polygon stroke-opacity="1" fill-opacity="1" points="4927,1326 5243,1206 5243,1116 4927,1236"/><polygon stroke-opacity="1" fill-opacity="1" points="5243,1206 5568,1086 5568,996 5243,1116"/><g data-id="ea0t7lm" data-class="note" class="note"><g data-class="notehead" class="notehead"><use href="#E0A4-lesomu3" transform="translate(4602, 906) scale(0.72, 0.72)"/></g><g data-id="vz9re8h" data-class="stem" class="stem"><path d="M4611 934 L4611 1698" stroke-width="18"/></g></g><g data-id="f10c5fgf" data-class="note" class="note"><g data-class="notehead" class="notehead"><use href="#E0A4-lesomu3" transform="translate(4918, 726) scale(0.72, 0.72)"/></g><g data-id="wxls3j2" data-class="stem" class="stem"><path d="M4927 754 L4927 1578" stroke-width="18"/></g><g data-id="d1g3yvgd" data-class="accid" class="accid"/></g><g data-id="gktoxwz" data-class="note" class="note"><g data-class="notehead" class="notehead"><use href="#E0A4-lesomu3" transform="translate(5234, 546) scale(0.72, 0.72)"/></g><g data-id="xztazoj" data-class="stem" class="stem"><path d="M5243 574 L5243 1458" stroke-width="18"/></g></g><g data-id="hsgzz8r" data-class="note" class="note"><g data-class="notehead" class="notehead"><use href="#E0A4-lesomu3" transform="translate(5550, 276) scale(0.72, 0.72)"/></g><g data-id="yslnubr" data-class="stem" class="stem"><path d="M5559 304 L5559 1338" stroke-width="18"/></g></g></g><g data-id="i14xsw33" data-class="note" class="note"><g data-class="notehead" class="notehead"><use href="#E0A4-lesomu3" transform="translate(5866, 96) scale(0.72, 0.72)"/></g><g data-id="z1l6yf5o" data-class="stem" class="stem"><path d="M5875 124 L5875 1266" stroke-width="18"/><g data-id="aumccu0" data-class="flag" class="flag"><use href="#E241-lesomu3" transform="translate(5866, 1266) scale(0.72, 0.72)"/></g></g><g data-id="eytjvx6" data-class="accid" class="accid"/></g><g data-id="w137q7g9" data-class="rest" class="rest"><use href="#E4E8-lesomu3" transform="translate(6316, 1266) scale(0.72, 0.72)"/></g><g data-id="y88ttjk" data-class="beam" class="beam"><polygon stroke-opacity="1" fill-opacity="1" points="6692,1986 7342,1806 7342,1716 6692,1896"/><polygon stroke-opacity="1" fill-opacity="1" points="6692,1851 7017,1761 7017,1671 6692,1761"/><polygon stroke-opacity="1" fill-opacity="1" points="7017,1761 7342,1671 7342,1581 7017,1671"/><polygon stroke-opacity="1" fill-opacity="1" points="6692,1716 7017,1626 7017,1536 6692,1626"/><polygon stroke-opacity="1" fill-opacity="1" points="7017,1626 7342,1536 7342,1446 7017,1536"/><g data-id="jxza4eo" data-class="note" class="note"><g data-class="notehead" class="notehead"><use href="#E0A4-lesomu3" transform="translate(6692, 1176) scale(0.72, 0.72)"/></g><g data-id="bzpkhjy" data-class="stem" class="stem"><path d="M6701 1204 L6701 1968" stroke-width="18"/></g></g><g data-id="k1yhknww" data-class="note" class="note"><g data-class="notehead" class="notehead"><use href="#E0A4-lesomu3" transform="translate(7008, 906) scale(0.72, 0.72)"/></g><g data-id="ca7n02c" data-class="stem" class="stem"><path d="M7017 934 L7017 1878" stroke-width="18"/></g></g><g data-id="l1qsma7w" data-class="note" class="note"><g data-class="notehead" class="notehead"><use href="#E0A4-lesomu3" transform="translate(7324, 726) scale(0.72, 0.72)"/></g><g data-id="d1km118a" data-class="stem" class="stem"><path d="M7333 754 L7333 1788" stroke-width="18"/></g><g data-id="f16rqxbl" data-class="accid" class="accid"/></g></g><g data-id="zkgc6he" data-class="beam" class="beam"><polygon stroke-opacity="1" fill-opacity="1" points="7640,1626 8606,1986 8606,1896 7640,1536"/><polygon stroke-opacity="1" fill-opacity="1" points="7640,1491 7965,1611 7965,1521 7640,1401"/><polygon stroke-opacity="1" fill-opacity="1" points="7965,1611 8281,1731 8281,1641 7965,1521"/><polygon stroke-opacity="1" fill-opacity="1" points="8281,1731 8606,1851 8606,1761 8281,1641"/><polygon stroke-opacity="1" fill-opacity="1" points="7640,1356 7965,1476 7965,1386 7640,1266"/><polygon stroke-opacity="1" fill-opacity="1" points="7965,1476 8281,1596 8281,1506 7965,1386"/><polygon stroke-opacity="1" fill-opacity="1" points="8281,1596 8606,1716 8606,1626 8281,1506"/><g data-id="m1j65jik" data-class="note" class="note"><g data-class="notehead" class="notehead"><use href="#E0A4-lesomu3" transform="translate(7640, 546) scale(0.72, 0.72)"/></g><g data-id="euy8l4o" data-class="stem" class="stem"><path d="M7649 574 L7649 1608" stroke-width="18"/></g></g><g data-id="n1mmv3av" data-class="note" class="note"><g data-class="notehead" class="notehead"><use href="#E0A4-lesomu3" transform="translate(7956, 726) scale(0.72, 0.72)"/></g><g data-id="frr26kj" data-class="stem" class="stem"><path d="M7965 754 L7965 1728" stroke-width="18"/></g><g data-id="g1lya6wm" data-class="accid" class="accid"/></g><g data-id="o1ok8la6" data-class="note" class="note"><g data-class="notehead" class="notehead"><use href="#E0A4-lesomu3" transform="translate(8272, 906) scale(0.72, 0.72)"/></g><g data-id="gvqeu8d" data-class="stem" class="stem"><path d="M8281 934 L8281 1848" stroke-width="18"/></g></g><g data-id="pbv4jzb" data-class="note" class="note"><g data-class="notehead" class="notehead"><use href="#E0A4-lesomu3" transform="translate(8588, 1176) scale(0.72, 0.72)"/></g><g data-id="h1atz4ny" data-class="stem" class="stem"><path d="M8597 1204 L8597 1968" stroke-width="18"/></g></g></g><g data-id="a1v2grdh" data-class="beam" class="beam"><polygon stroke-opacity="1" fill-opacity="1" points="8904,1716 9870,1356 9870,1266 8904,1626"/><polygon stroke-opacity="1" fill-opacity="1" points="8904,1581 9229,1461 9229,1371 8904,1491"/><polygon stroke-opacity="1" fill-opacity="1" points="9229,1461 9545,1341 9545,1251 9229,1371"/><polygon stroke-opacity="1" fill-opacity="1" points="9545,1341 9870,1221 9870,1131 9545,1251"/><polygon stroke-opacity="1" fill-opacity="1" points="8904,1446 9229,1326 9229,1236 8904,1356"/><polygon stroke-opacity="1" fill-opacity="1" points="9229,1326 9545,1206 9545,1116 9229,1236"/><polygon stroke-opacity="1" fill-opacity="1" points="9545,1206 9870,1086 9870,996 9545,1116"/><g data-id="q1id9oj3" data-class="note" class="note"><g data-class="notehead" class="notehead"><use href="#E0A4-lesomu3" transform="translate(8904, 906) scale(0.72, 0.72)"/></g><g data-id="i9v5xpy" data-class="stem" class="stem"><path d="M8913 934 L8913 1698" stroke-width="18"/></g></g><g data-id="r18gwc9r" data-class="note" class="note"><g data-class="notehead" class="notehead"><use href="#E0A4-lesomu3" transform="translate(9220, 726) scale(0.72, 0.72)"/></g><g data-id="j7bilzl" data-class="stem" class="stem"><path d="M9229 754 L9229 1578" stroke-width="18"/></g><g data-id="hyh9d8s" data-class="accid" class="accid"/></g><g data-id="s1enf7w0" data-class="note" class="note"><g data-class="notehead" class="notehead"><use href="#E0A4-lesomu3" transform="translate(9536, 546) scale(0.72, 0.72)"/></g><g data-id="k10qmc86" data-class="stem" class="stem"><path d="M9545 574 L9545 1458" stroke-width="18"/></g></g><g data-id="t1gfli99" data-class="note" class="note"><g data-class="notehead" class="notehead"><use href="#E0A4-lesomu3" transform="translate(9852, 276) scale(0.72, 0.72)"/></g><g data-id="l7rju35" data-class="stem" class="stem"><path d="M9861 304 L9861 1338" stroke-width="18"/></g></g></g><g data-id="uqc55z4" data-class="note" class="note"><g data-class="notehead" class="notehead"><use href="#E0A4-lesomu3" transform="translate(10168, 96) scale(0.72, 0.72)"/></g><g data-id="mi8oozv" data-class="stem" class="stem"><path d="M10177 124 L10177 1266" stroke-width="18"/><g data-id="n8hw4wt" data-class="flag" class="flag"><use href="#E241-lesomu3" transform="translate(10168, 1266) scale(0.72, 0.72)"/></g></g><g data-id="i121y88o" data-class="accid" class="accid"/></g></g></g><g data-id="uj1yxd1" data-class="barLine" class="barLine"><path d="M10618 906 L10618 1626" stroke-width="27"/></g></g><g data-id="i1h7mjhf" data-class="systemMilestoneEnd" class="systemMilestoneEnd n1jsnjz9"/></g><g data-id="j1yvx3cc" data-class="pageMilestoneEnd" class="pageMilestoneEnd l16jgvr0"/><g data-id="k14pqrm4" data-class="pageMilestoneEnd" class="pageMilestoneEnd kp5e12l"/></g></svg></svg>