<svg viewBox="0 0 560 88" version="1.1" xmlns="http://www.w3.org/2000/svg" xmlns:xlink="http://www.w3.org/1999/xlink" overflow="visible" id="b1p1csq4"><desc>Engraved by Verovio 5.6.0-85e7620</desc><defs><g id="E062-b1p1csq4"><path transform="scale(1,-1)" d="M582 -120c0 32 26 58 58 58s58 -26 58 -58s-26 -58 -58 -58s-58 26 -58 58zM582 120c0 32 26 58 58 58s58 -26 58 -58s-26 -58 -58 -58s-58 26 -58 58zM158 96c51 0 73 -14 88 -49l16 -39c0 -17 -2 -30 -7 -40c-3 -11 -10 -21 -19 -31c-17 -18 -49 -43 -84 -43 c-55 0 -77 13 -112 44c-24 21 -35 55 -35 100c0 46 14 81 32 112c30 52 71 79 137 93l36 6l26 2c154 0 235 -68 274 -182c11 -32 18 -68 18 -107c0 -103 -26 -182 -68 -250c-89 -145 -234 -230 -412 -288l-30 -5c-9 0 -14 3 -14 8c3 10 5 11 10 16c35 15 70 30 96 44l78 43 c96 57 162 136 197 258c9 33 17 60 22 100c3 22 5 35 6 39c-7 69 -16 115 -23 140s-4 22 -16 40c-8 12 -19 23 -31 34c-24 21 -62 44 -118 44c-48 0 -84 -8 -113 -28c-28 -19 -42 -44 -42 -73v-16c2 -5 3 -9 4 -11c24 22 52 39 84 39z"/></g><g id="E262-b1p1csq4"><path transform="scale(1,-1)" d="M136 186v169h17v-164l44 14v-91l-44 -14v-165l44 12v-91l-44 -13v-155h-17v150l-76 -22v-155h-17v149l-43 -13v90l43 14v167l-43 -14v92l43 13v169h17v-163zM60 73v-167l76 22v168z"/></g><g id="E08A-b1p1csq4"><path transform="scale(1,-1)" d="M340 179c-9 24 -56 41 -89 41c-46 0 -81 -28 -100 -58c-17 -28 -25 -78 -25 -150c0 -65 2 -111 8 -135c8 -31 18 -49 40 -67c20 -17 43 -25 70 -25c54 0 92 36 115 75c14 25 23 54 28 88h27c0 -63 -24 -105 -58 -141c-35 -38 -82 -56 -140 -56c-45 0 -83 13 -115 39 c-57 45 -101 130 -101 226c0 59 33 127 68 163c36 37 97 72 160 72c36 0 93 -21 121 -40c11 -8 23 -17 33 -30c19 -23 27 -48 27 -76c0 -51 -35 -88 -86 -88c-43 0 -76 27 -76 68c0 26 7 35 21 51c15 17 32 27 58 32c7 2 14 7 14 11z"/></g><g id="E0A4-b1p1csq4"><path transform="scale(1,-1)" d="M0 -39c0 68 73 172 200 172c66 0 114 -37 114 -95c0 -84 -106 -171 -218 -171c-64 0 -96 30 -96 94z"/></g><g id="E07A-b1p1csq4"><path transform="scale(1,-1)" d="M343 -190c-18 -3 -37 -5 -59 -5c-46 0 -79 6 -101 16c-68 33 -117 72 -146 119c-20 34 -33 80 -37 137c0 5 -1 10 -1 15c0 42 12 86 35 132c23 44 51 82 86 115s75 65 119 98c-2 12 -7 36 -11 72c-3 33 -3 57 -3 69c0 91 12 134 53 200c26 42 50 63 69 63 c16 0 34 -23 54 -71s30 -90 32 -124v-11c0 -85 -16 -126 -52 -187c-10 -16 -49 -70 -76 -92c-10 -7 -20 -15 -29 -23l24 -140c6 1 14 1 22 1c45 0 79 -9 103 -27c46 -33 71 -81 76 -143c1 -5 1 -12 1 -17c0 -96 -68 -163 -141 -193c6 -44 14 -86 20 -126c4 -24 4 -45 4 -62 c0 -23 -3 -41 -10 -54c-27 -50 -69 -77 -123 -80c-4 0 -9 -1 -13 -1c-29 0 -56 8 -84 21c-39 19 -60 46 -62 82v8c0 23 6 43 16 59c14 22 35 32 61 34h5c38 0 72 -32 75 -67v-7c0 -40 -26 -67 -81 -83c13 -19 39 -28 79 -28c48 0 90 34 109 67c7 12 10 31 10 57 c0 16 -1 33 -4 52c-6 41 -14 83 -20 124zM358 730c-74 0 -105 -137 -105 -223c0 -19 2 -37 4 -55c39 30 72 64 99 100c31 41 46 77 46 108v7c-3 41 -16 63 -42 63h-2zM315 92l42 -253c57 19 86 61 86 125c0 5 0 12 -1 18c-5 74 -44 110 -117 110h-10zM297 91 c-56 -2 -100 -36 -100 -93v-6c2 -36 34 -77 59 -89c-2 -2 -6 -4 -8 -8c-54 26 -91 69 -96 134v8c0 53 35 98 69 124c18 13 37 23 60 28l-22 132c-16 -10 -41 -29 -72 -57c-39 -34 -66 -65 -84 -92c-35 -54 -52 -102 -52 -142v-10c4 -53 27 -99 72 -137s96 -56 157 -56 c19 0 40 2 59 7c-15 86 -28 172 -42 257z"/></g><g id="E07C-b1p1csq4"><path transform="scale(1,-1)" d="M509 -105c0 28 22 51 50 51s51 -23 51 -51s-23 -51 -51 -51s-50 23 -50 51zM509 105c0 28 22 51 50 51s51 -23 51 -51s-23 -51 -51 -51s-50 23 -50 51zM138 84c43 0 63 -11 77 -43l14 -34c0 -16 -2 -27 -6 -35c-2 -9 -8 -17 -17 -27c-22 -24 -49 -38 -73 -38 c-43 0 -63 8 -98 39c-20 18 -31 47 -31 87c0 34 9 65 28 98c26 45 62 69 120 81l32 6l22 1c125 0 203 -51 240 -159c10 -30 15 -61 15 -93c0 -83 -19 -154 -59 -219c-70 -115 -185 -194 -360 -251l-26 -5c-8 0 -13 3 -13 7c2 7 3 8 9 14c47 20 66 30 84 39l68 37 c89 53 143 125 172 226c13 48 17 60 20 87c3 19 4 31 5 34c-5 51 -12 95 -20 123c-8 30 -5 22 -14 35c-6 9 -14 17 -27 29c-29 26 -64 39 -103 39c-44 0 -75 -8 -99 -25c-24 -16 -37 -38 -37 -64v-14c2 -4 3 -7 4 -9c25 23 49 34 73 34z"/></g></defs><style type="text/css">#b1p1csq4 g.page-margin {font-family:Times,serif;}#b1p1csq4 g.ending, #b1p1csq4 g.fing, #b1p1csq4 g.reh, #b1p1csq4 g.tempo {font-weight:bold;}#b1p1csq4 g.dir, #b1p1csq4 g.dynam, #b1p1csq4 g.mNum {font-style:italic;}#b1p1csq4 g.label {font-weight:normal;}#b1p1csq4 path {stroke:currentColor}</style><svg class="definition-scale" color="black" viewBox="0 0 14000 2190"><g class="page-margin" transform="translate(0, 150)"><g data-id="m4jdxje" data-class="mdiv" class="mdiv pageMilestone"/><g data-id="nmfjvbr" data-class="score" class="score pageMilestone"/><g data-id="o11m4ds3" data-class="system" class="system"><g data-id="pul9ei1" data-class="section" class="section systemMilestone"/><g data-id="ce5n1w5" data-class="measure" class="measure"><g data-id="b1weu4sf" data-class="staff" class="staff"><path d="M0 636 L14000 636" stroke-width="13"/><path d="M0 816 L14000 816" stroke-width="13"/><path d="M0 996 L14000 996" stroke-width="13"/><path d="M0 1176 L14000 1176" stroke-width="13"/><path d="M0 1356 L14000 1356" stroke-width="13"/><g data-id="u10qk0io" data-class="clef" class="clef"><use href="#E062-b1p1csq4" transform="translate(88, 816) scale(0.72, 0.72)"/></g><g data-id="vpz664n" data-class="keySig" class="keySig"><g data-id="w1uy7drs" data-class="keyAccid" class="keyAccid"><use href="#E262-b1p1csq4" transform="translate(769, 816) scale(0.72, 0.72)"/></g><g data-id="x1omn2yw" data-class="keyAccid" class="keyAccid"><use href="#E262-b1p1csq4" transform="translate(947, 1086) scale(0.72, 0.72)"/></g><g data-id="y1ftyq7n" data-class="keyAccid" class="keyAccid"><use href="#E262-b1p1csq4" transform="translate(1125, 726) scale(0.72, 0.72)"/></g><g data-id="zwq8f2k" data-class="keyAccid" class="keyAccid"><use href="#E262-b1p1csq4" transform="translate(1303, 996) scale(0.72, 0.72)"/></g></g><g data-id="aijr2ye" data-class="meterSig" class="meterSig"><use href="#E08A-b1p1csq4" transform="translate(1624, 996) scale(0.72, 0.72)"/></g><g data-class="ledgerLines" class="ledgerLines above"><g data-class="lineDash" class="lineDash" data-related="#r12jch8h"><path d="M9616 456 L9938 456" stroke-width="22"/></g><g data-class="lineDash" class="lineDash" data-related="#su870zw"><path d="M10280 456 L10602 456" stroke-width="22"/></g><g data-class="lineDash" class="lineDash" data-related="#w1oyzn2d"><path d="M13275 456 L13597 456" stroke-width="22"/></g><g data-class="lineDash" class="lineDash" data-related="#r12jch8h"><path d="M9616 276 L9938 276" stroke-width="22"/></g><g data-class="lineDash" class="lineDash" data-related="#su870zw"><path d="M10280 276 L10602 276" stroke-width="22"/></g><g data-class="lineDash" class="lineDash" data-related="#su870zw"><path d="M10280 96 L10602 96" stroke-width="22"/></g></g><g data-class="ledgerLines" class="ledgerLines below"><g data-class="lineDash" class="lineDash" data-related="#hgit8g8"><path d="M2199 1536 L2521 1536" stroke-width="22"/></g><g data-class="lineDash" class="lineDash" data-related="#l862rp5"><path d="M5194 1536 L5516 1536" stroke-width="22"/></g></g><g data-id="cghuegs" data-class="layer" class="layer"><g data-id="ea7uo76" data-class="beam" class="beam"><polygon stroke-opacity="1" fill-opacity="1" points="2455,456 4467,96 4467,186 2455,546"/><polygon stroke-opacity="1" fill-opacity="1" points="2455,591 3129,471 3129,561 2455,681"/><polygon stroke-opacity="1" fill-opacity="1" points="3129,471 3793,352 3793,442 3129,561"/><polygon stroke-opacity="1" fill-opacity="1" points="3793,352 4467,231 4467,321 3793,442"/><g data-id="hgit8g8" data-class="note" class="note"><g data-class="notehead" class="notehead"><use href="#E0A4-b1p1csq4" transform="translate(2247, 1536) scale(0.72, 0.72)"/></g><g data-id="fg6fcpm" data-class="stem" class="stem"><path d="M2464 1508 L2464 474" stroke-width="18"/></g></g><g data-id="i14qc5zr" data-class="note" class="note"><g data-class="notehead" class="notehead"><use href="#E0A4-b1p1csq4" transform="translate(2912, 1176) scale(0.72, 0.72)"/></g><g data-id="gtsdflc" data-class="stem" class="stem"><path d="M3129 1148 L3129 354" stroke-width="18"/></g></g><g data-id="jvvh9mk" data-class="note" class="note"><g data-class="notehead" class="notehead"><use href="#E0A4-b1p1csq4" transform="translate(3576, 906) scale(0.72, 0.72)"/></g><g data-id="h1jgj9al" data-class="stem" class="stem"><path d="M3793 878 L3793 235" stroke-width="18"/></g></g><g data-id="kxmbs4t" data-class="note" class="note"><g data-class="notehead" class="notehead"><use href="#E0A4-b1p1csq4" transform="translate(4241, 726) scale(0.72, 0.72)"/></g><g data-id="ipmsyex" data-class="stem" class="stem"><path d="M4458 698 L4458 114" stroke-width="18"/></g><g data-id="om65lt7" data-class="accid" class="accid"/></g></g><g data-id="locb8lc" data-class="clef" class="clef"><use href="#E07A-b1p1csq4" transform="translate(4790, 1176) scale(0.72, 0.72)"/></g><g data-id="f1f49j49" data-class="beam" class="beam"><polygon stroke-opacity="1" fill-opacity="1" points="5450,771 7462,411 7462,501 5450,861"/><polygon stroke-opacity="1" fill-opacity="1" points="5450,906 6123,787 6123,877 5450,996"/><polygon stroke-opacity="1" fill-opacity="1" points="6123,787 6788,667 6788,757 6123,877"/><polygon stroke-opacity="1" fill-opacity="1" points="6788,667 7462,546 7462,636 6788,757"/><g data-id="l862rp5" data-class="note" class="note"><g data-class="notehead" class="notehead"><use href="#E0A4-b1p1csq4" transform="translate(5242, 1626) scale(0.72, 0.72)"/></g><g data-id="jmmwey4" data-class="stem" class="stem"><path d="M5459 1598 L5459 789" stroke-width="18"/></g></g><g data-id="m68x4bx" data-class="note" class="note"><g data-class="notehead" class="notehead"><use href="#E0A4-b1p1csq4" transform="translate(5906, 1356) scale(0.72, 0.72)"/></g><g data-id="k9srzf3" data-class="stem" class="stem"><path d="M6123 1328 L6123 670" stroke-width="18"/></g></g><g data-id="nkqn1d7" data-class="note" class="note"><g data-class="notehead" class="notehead"><use href="#E0A4-b1p1csq4" transform="translate(6571, 1176) scale(0.72, 0.72)"/></g><g data-id="lte2u5u" data-class="stem" class="stem"><path d="M6788 1148 L6788 550" stroke-width="18"/></g><g data-id="pyppimw" data-class="accid" class="accid"/></g><g data-id="o3xpv4r" data-class="note" class="note"><g data-class="notehead" class="notehead"><use href="#E0A4-b1p1csq4" transform="translate(7236, 996) scale(0.72, 0.72)"/></g><g data-id="m1mbje17" data-class="stem" class="stem"><path d="M7453 968 L7453 429" stroke-width="18"/></g></g></g><g data-id="mtscs6e" data-class="clef" class="clef"><use href="#E07C-b1p1csq4" transform="translate(7805, 816) scale(0.72, 0.72)"/></g><g data-id="gwy4o2i" data-class="beam" class="beam"><polygon stroke-opacity="1" fill-opacity="1" points="8334,1536 10346,1176 10346,1086 8334,1446"/><polygon stroke-opacity="1" fill-opacity="1" points="8334,1401 9008,1280 9008,1190 8334,1311"/><polygon stroke-opacity="1" fill-opacity="1" points="9008,1280 9673,1160 9673,1070 9008,1190"/><polygon stroke-opacity="1" fill-opacity="1" points="9673,1160 10346,1041 10346,951 9673,1070"/><g data-id="p1ia3q2w" data-class="note" class="note"><g data-class="notehead" class="notehead"><use href="#E0A4-b1p1csq4" transform="translate(8334, 906) scale(0.72, 0.72)"/></g><g data-id="n11vxmtx" data-class="stem" class="stem"><path d="M8343 934 L8343 1518" stroke-width="18"/></g></g><g data-id="q4122wr" data-class="note" class="note"><g data-class="notehead" class="notehead"><use href="#E0A4-b1p1csq4" transform="translate(8999, 546) scale(0.72, 0.72)"/></g><g data-id="o11c8fod" data-class="stem" class="stem"><path d="M9008 574 L9008 1397" stroke-width="18"/></g></g><g data-id="r12jch8h" data-class="note" class="note"><g data-class="notehead" class="notehead"><use href="#E0A4-b1p1csq4" transform="translate(9664, 276) scale(0.72, 0.72)"/></g><g data-id="p1a2awpd" data-class="stem" class="stem"><path d="M9673 304 L9673 1277" stroke-width="18"/></g></g><g data-id="su870zw" data-class="note" class="note"><g data-class="notehead" class="notehead"><use href="#E0A4-b1p1csq4" transform="translate(10328, 96) scale(0.72, 0.72)"/></g><g data-id="q1gp2eyh" data-class="stem" class="stem"><path d="M10337 124 L10337 1158" stroke-width="18"/></g><g data-id="q4itwrj" data-class="accid" class="accid"/></g></g><g data-id="n9607oq" data-class="clef" class="clef"><use href="#E07A-b1p1csq4" transform="translate(10877, 1176) scale(0.72, 0.72)"/></g><g data-id="hplsk2j" data-class="beam" class="beam"><polygon stroke-opacity="1" fill-opacity="1" points="11329,1626 13341,1266 13341,1176 11329,1536"/><polygon stroke-opacity="1" fill-opacity="1" points="11329,1491 12003,1370 12003,1280 11329,1401"/><polygon stroke-opacity="1" fill-opacity="1" points="12003,1370 12667,1251 12667,1161 12003,1280"/><polygon stroke-opacity="1" fill-opacity="1" points="12667,1251 13341,1131 13341,1041 12667,1161"/><g data-id="te19q0f" data-class="note" class="note"><g data-class="notehead" class="notehead"><use href="#E0A4-b1p1csq4" transform="translate(11329, 996) scale(0.72, 0.72)"/></g><g data-id="ryzios2" data-class="stem" class="stem"><path d="M11338 1024 L11338 1608" stroke-width="18"/></g></g><g data-id="u1e6u84f" data-class="note" class="note"><g data-class="notehead" class="notehead"><use href="#E0A4-b1p1csq4" transform="translate(11994, 726) scale(0.72, 0.72)"/></g><g data-id="s1spwlp9" data-class="stem" class="stem"><path d="M12003 754 L12003 1487" stroke-width="18"/></g></g><g data-id="vptkdya" data-class="note" class="note"><g data-class="notehead" class="notehead"><use href="#E0A4-b1p1csq4" transform="translate(12658, 546) scale(0.72, 0.72)"/></g><g data-id="t1n1hcwh" data-class="stem" class="stem"><path d="M12667 574 L12667 1368" stroke-width="18"/></g><g data-id="rjihyhj" data-class="accid" class="accid"/></g><g data-id="w1oyzn2d" data-class="note" class="note"><g data-class="notehead" class="notehead"><use href="#E0A4-b1p1csq4" transform="translate(13323, 366) scale(0.72, 0.72)"/></g><g data-id="u1o66q52" data-class="stem" class="stem"><path d="M13332 394 L13332 1248" stroke-width="18"/></g></g></g></g></g><g data-id="kvbcyqa" data-class="barLine" class="barLine"><path d="M13987 636 L13987 1356" stroke-width="27"/></g></g></g></g></svg></svg>