<svg viewBox="0 0 560 84" version="1.1" xmlns="http://www.w3.org/2000/svg" xmlns:xlink="http://www.w3.org/1999/xlink" overflow="visible" id="w1jml4ua"><desc>Engraved by Verovio 5.6.0-85e7620</desc><defs><g id="E050-w1jml4ua"><path transform="scale(1,-1)" d="M441 -245c-23 -4 -48 -6 -76 -6c-59 0 -102 7 -130 20c-88 42 -150 93 -187 154c-26 44 -43 103 -48 176c0 6 -1 13 -1 19c0 54 15 111 45 170c29 57 65 106 110 148s96 85 153 127c-3 16 -8 46 -13 92c-4 43 -5 73 -5 89c0 117 16 172 69 257c34 54 64 82 89 82 c21 0 43 -30 69 -92s39 -115 41 -159v-15c0 -109 -21 -162 -67 -241c-13 -20 -63 -90 -98 -118c-13 -9 -25 -19 -37 -29l31 -181c8 1 18 2 28 2c58 0 102 -12 133 -35c59 -43 92 -104 98 -184c1 -7 1 -15 1 -22c0 -123 -87 -209 -181 -248c8 -57 17 -110 25 -162 c5 -31 6 -58 6 -80c0 -30 -5 -53 -14 -70c-35 -64 -88 -99 -158 -103c-5 0 -11 -1 -16 -1c-37 0 -72 10 -108 27c-50 24 -77 59 -80 105v11c0 29 7 55 20 76c18 28 45 42 79 44h6c49 0 93 -42 97 -87v-9c0 -51 -34 -86 -105 -106c17 -24 51 -36 102 -36c62 0 116 43 140 85 c9 16 13 41 13 74c0 20 -1 42 -5 67c-8 53 -18 106 -26 159zM461 939c-95 0 -135 -175 -135 -286c0 -24 2 -48 5 -71c50 39 92 82 127 128c40 53 60 100 60 140v8c-4 53 -22 81 -55 81h-2zM406 119l54 -326c73 25 110 78 110 161c0 7 0 15 -1 23c-7 95 -57 142 -151 142h-12 zM382 117c-72 -2 -128 -47 -128 -120v-7c2 -46 43 -99 75 -115c-3 -2 -7 -5 -10 -10c-70 33 -116 88 -123 172v11c0 68 44 126 88 159c23 17 49 29 78 36l-29 170c-21 -13 -52 -37 -92 -73c-50 -44 -86 -84 -109 -119c-45 -69 -67 -130 -67 -182v-13c5 -68 35 -127 93 -176 s125 -73 203 -73c25 0 50 3 75 9c-19 111 -36 221 -54 331z"/></g><g id="E260-w1jml4ua"><path transform="scale(1,-1)" d="M20 110c32 16 54 27 93 27c26 0 35 -3 54 -13c13 -7 24 -20 27 -38l4 -25c0 -28 -16 -57 -45 -89c-23 -25 -39 -44 -65 -68l-88 -79v644h20v-359zM90 106c-32 0 -48 -10 -70 -29v-194c31 31 54 59 71 84c21 32 32 59 32 84c0 9 1 16 1 20c0 14 -3 21 -11 30l-8 3z"/></g><g id="E08A-w1jml4ua"><path transform="scale(1,-1)" d="M340 179c-9 24 -56 41 -89 41c-46 0 -81 -28 -100 -58c-17 -28 -25 -78 -25 -150c0 -65 2 -111 8 -135c8 -31 18 -49 40 -67c20 -17 43 -25 70 -25c54 0 92 36 115 75c14 25 23 54 28 88h27c0 -63 -24 -105 -58 -141c-35 -38 -82 -56 -140 -56c-45 0 -83 13 -115 39 c-57 45 -101 130 -101 226c0 59 33 127 68 163c36 37 97 72 160 72c36 0 93 -21 121 -40c11 -8 23 -17 33 -30c19 -23 27 -48 27 -76c0 -51 -35 -88 -86 -88c-43 0 -76 27 -76 68c0 26 7 35 21 51c15 17 32 27 58 32c7 2 14 7 14 11z"/></g><g id="E4E6-w1jml4ua"><path transform="scale(1,-1)" d="M0 123c7 34 33 56 69 60c29 -3 43 -9 53 -29c4 -8 7 -15 10 -22c0 -21 -1 -25 -11 -35c-5 -8 -18 -14 -40 -20l12 -3l15 -1c44 0 97 26 122 56c10 11 18 26 24 42c7 1 15 2 22 3l-140 -424h-36l111 330c-10 -6 -27 -12 -53 -16l-52 -8h-10l-20 1c-1 0 -8 3 -21 6 c-37 9 -55 28 -55 60z"/></g><g id="E0A4-w1jml4ua"><path transform="scale(1,-1)" d="M0 -39c0 68 73 172 200 172c66 0 114 -37 114 -95c0 -84 -106 -171 -218 -171c-64 0 -96 30 -96 94z"/></g><g id="E883-w1jml4ua"><path transform="scale(1,-1)" d="M161 326c52 0 94 -17 94 -68c0 -50 -40 -76 -82 -94c26 -21 39 -42 39 -64c0 -52 -56 -100 -118 -100h-12c-40 0 -82 23 -82 56c0 30 12 49 37 49c17 0 31 -16 34 -31c0 -5 -4 -12 -11 -21c-7 -5 -13 -10 -13 -21l11 -9l17 -4c21 0 40 12 56 37c13 21 19 45 19 70 c-9 30 -28 35 -66 35l6 23c34 0 60 4 77 13c20 11 30 35 30 70c0 28 -12 38 -39 40l-20 -3c-8 -3 -12 -9 -12 -16c2 -7 4 -11 5 -14l4 -11l3 -10l-3 -12c-5 -6 -11 -11 -20 -13c-2 0 -4 -1 -6 -1c-16 0 -30 13 -30 28c0 39 43 71 82 71z"/></g><g id="E240-w1jml4ua"><path transform="scale(1,-1)" d="M179 -646c15 29 29 55 46 102c18 49 30 108 30 138c0 105 -80 173 -168 200c-18 5 -47 9 -87 16v190h22c8 0 33 -61 71 -95c4 -3 -2 3 61 -56c62 -58 122 -137 122 -241c0 -38 -13 -106 -35 -163c-20 -51 -43 -99 -66 -132c-6 -5 -10 -7 -13 -7s-5 2 -5 5l4 10 c1 3 14 25 18 33z"/></g></defs><style type="text/css">#w1jml4ua g.page-margin {font-family:Times,serif;}#w1jml4ua g.ending, #w1jml4ua g.fing, #w1jml4ua g.reh, #w1jml4ua g.tempo {font-weight:bold;}#w1jml4ua g.dir, #w1jml4ua g.dynam, #w1jml4ua g.mNum {font-style:italic;}#w1jml4ua g.label {font-weight:normal;}#w1jml4ua path {stroke:currentColor}</style><svg class="definition-scale" color="black" viewBox="0 0 14000 2100"><g class="page-margin" transform="translate(0, 150)"><g data-id="rohlg3c" data-class="mdiv" class="mdiv pageMilestone"/><g data-id="s1tj4539" data-class="score" class="score pageMilestone"/><g data-id="rdd5ncf" data-class="system" class="system"><g data-id="u1gizfh4" data-class="section" class="section systemMilestone"/><g data-id="x1ioea3t" data-class="measure" class="measure"><g data-id="g7m537y" data-class="staff" class="staff"><path d="M0 540 L6337 540" stroke-width="13"/><path d="M0 720 L6337 720" stroke-width="13"/><path d="M0 900 L6337 900" stroke-width="13"/><path d="M0 1080 L6337 1080" stroke-width="13"/><path d="M0 1260 L6337 1260" stroke-width="13"/><g data-id="w1ss5xkp" data-class="clef" class="clef"><use href="#E050-w1jml4ua" transform="translate(90, 1080) scale(0.72, 0.72)"/></g><g data-id="xhicvay" data-class="keySig" class="keySig"><g data-id="yjw1byh" data-class="keyAccid" class="keyAccid"><use href="#E260-w1jml4ua" transform="translate(735, 900) scale(0.72, 0.72)"/></g><g data-id="z1mm1pc0" data-class="keyAccid" class="keyAccid"><use href="#E260-w1jml4ua" transform="translate(915, 630) scale(0.72, 0.72)"/></g><g data-id="a18mzgf4" data-class="keyAccid" class="keyAccid"><use href="#E260-w1jml4ua" transform="translate(1095, 990) scale(0.72, 0.72)"/></g></g><g data-id="b1edwctj" data-class="meterSig" class="meterSig"><use href="#E08A-w1jml4ua" transform="translate(1417, 900) scale(0.72, 0.72)"/></g><g data-class="ledgerLines" class="ledgerLines below"><g data-class="lineDash" class="lineDash" data-related="#jm37uzh"><path d="M2351 1440 L2673 1440" stroke-width="22"/></g><g data-class="lineDash" class="lineDash" data-related="#k1k3fqui"><path d="M2747 1440 L3069 1440" stroke-width="22"/></g><g data-class="lineDash" class="lineDash" data-related="#m657eyh"><path d="M3539 1440 L3861 1440" stroke-width="22"/></g><g data-class="lineDash" class="lineDash" data-related="#n1n68jwn"><path d="M3934 1440 L4256 1440" stroke-width="22"/></g><g data-class="lineDash" class="lineDash" data-related="#o1te3en3"><path d="M4726 1440 L5048 1440" stroke-width="22"/></g><g data-class="lineDash" class="lineDash" data-related="#p1figv0i"><path d="M5122 1440 L5444 1440" stroke-width="22"/></g><g data-class="lineDash" class="lineDash" data-related="#jm37uzh"><path d="M2351 1620 L2673 1620" stroke-width="22"/></g><g data-class="lineDash" class="lineDash" data-related="#n1n68jwn"><path d="M3934 1620 L4256 1620" stroke-width="22"/></g><g data-class="lineDash" class="lineDash" data-related="#o1te3en3"><path d="M4726 1620 L5048 1620" stroke-width="22"/></g></g><g data-id="ho1yilp" data-class="layer" class="layer"><g data-id="a1owpluv" data-class="beam" class="beam"><polygon stroke-opacity="1" fill-opacity="1" points="2107,911 3021,810 3021,900 2107,1001"/><g data-id="d1rfvs13" data-class="tuplet" class="tuplet"><g data-id="b10nu5xr" data-class="tupletNum" class="tupletNum"><use href="#E883-w1jml4ua" transform="translate(2476, 657) scale(0.72, 0.72)"/></g><g data-id="hgf45dd" data-class="rest" class="rest"><use href="#E4E6-w1jml4ua" transform="translate(2003, 1260) scale(0.72, 0.72)"/></g><g data-id="jm37uzh" data-class="note" class="note"><g data-class="notehead" class="notehead"><use href="#E0A4-w1jml4ua" transform="translate(2399, 1710) scale(0.72, 0.72)"/></g><g data-id="cjuz73i" data-class="stem" class="stem"><path d="M2616 1682 L2616 873" stroke-width="18"/></g></g><g data-id="k1k3fqui" data-class="note" class="note"><g data-class="notehead" class="notehead"><use href="#E0A4-w1jml4ua" transform="translate(2795, 1530) scale(0.72, 0.72)"/></g><g data-id="d16ksszl" data-class="stem" class="stem"><path d="M3012 1502 L3012 828" stroke-width="18"/></g><g data-id="g13tolwf" data-class="accid" class="accid"/></g></g></g><g data-id="bjtv5hm" data-class="beam" class="beam"><polygon stroke-opacity="1" fill-opacity="1" points="3399,630 4208,810 4208,900 3399,720"/><g data-id="emgswt9" data-class="tuplet" class="tuplet"><g data-id="e11bcn60" data-class="tupletNum" class="tupletNum"><use href="#E883-w1jml4ua" transform="translate(3664, 648) scale(0.72, 0.72)"/></g><g data-id="l141bq7c" data-class="note" class="note"><g data-class="notehead" class="notehead"><use href="#E0A4-w1jml4ua" transform="translate(3191, 1260) scale(0.72, 0.72)"/></g><g data-id="f1r89qlx" data-class="stem" class="stem"><path d="M3408 1232 L3408 648" stroke-width="18"/></g><g data-id="h1us9hc2" data-class="accid" class="accid"/></g><g data-id="m657eyh" data-class="note" class="note"><g data-class="notehead" class="notehead"><use href="#E0A4-w1jml4ua" transform="translate(3587, 1530) scale(0.72, 0.72)"/></g><g data-id="g1a22tg5" data-class="stem" class="stem"><path d="M3804 1502 L3804 738" stroke-width="18"/></g><g data-id="i1imncyt" data-class="accid" class="accid"/></g><g data-id="n1n68jwn" data-class="note" class="note"><g data-class="notehead" class="notehead"><use href="#E0A4-w1jml4ua" transform="translate(3982, 1710) scale(0.72, 0.72)"/></g><g data-id="hma5ldj" data-class="stem" class="stem"><path d="M4199 1682 L4199 828" stroke-width="18"/></g></g></g></g><g data-id="cdfirf6" data-class="beam" class="beam"><polygon stroke-opacity="1" fill-opacity="1" points="4482,911 5396,810 5396,900 4482,1001"/><g data-id="f4h1cso" data-class="tuplet" class="tuplet"><g data-id="i1xx1okj" data-class="tupletNum" class="tupletNum"><use href="#E883-w1jml4ua" transform="translate(4851, 657) scale(0.72, 0.72)"/></g><g data-id="i13p0v5f" data-class="rest" class="rest"><use href="#E4E6-w1jml4ua" transform="translate(4378, 1260) scale(0.72, 0.72)"/></g><g data-id="o1te3en3" data-class="note" class="note"><g data-class="notehead" class="notehead"><use href="#E0A4-w1jml4ua" transform="translate(4774, 1710) scale(0.72, 0.72)"/></g><g data-id="jxz39s4" data-class="stem" class="stem"><path d="M4991 1682 L4991 873" stroke-width="18"/></g></g><g data-id="p1figv0i" data-class="note" class="note"><g data-class="notehead" class="notehead"><use href="#E0A4-w1jml4ua" transform="translate(5170, 1530) scale(0.72, 0.72)"/></g><g data-id="k1tcx3mv" data-class="stem" class="stem"><path d="M5387 1502 L5387 828" stroke-width="18"/></g><g data-id="j1odvxrg" data-class="accid" class="accid"/></g></g></g><g data-id="q8d750l" data-class="note" class="note"><g data-class="notehead" class="notehead"><use href="#E0A4-w1jml4ua" transform="translate(5566, 1260) scale(0.72, 0.72)"/></g><g data-id="lllw0of" data-class="stem" class="stem"><path d="M5783 1232 L5783 630" stroke-width="18"/></g><g data-id="k7baxr1" data-class="accid" class="accid"/></g></g></g><g data-id="f1u4iyc5" data-class="barLine" class="barLine"><path d="M6324 540 L6324 1260" stroke-width="27"/></g></g><g data-id="g1x69ccu" data-class="measure" class="measure"><g data-id="i7jy4an" data-class="staff" class="staff"><path d="M6337 540 L9579 540" stroke-width="13"/><path d="M6337 720 L9579 720" stroke-width="13"/><path d="M6337 900 L9579 900" stroke-width="13"/><path d="M6337 1080 L9579 1080" stroke-width="13"/><path d="M6337 1260 L9579 1260" stroke-width="13"/><g data-id="j1tmxekh" data-class="layer" class="layer"><g data-id="rr0ciea" data-class="note" class="note"><g data-class="notehead" class="notehead"><use href="#E0A4-w1jml4ua" transform="translate(6535, 1080) scale(0.72, 0.72)"/></g><g data-id="n1vl6kcv" data-class="dots" class="dots"><ellipse cx="6851" cy="990" rx="36" ry="36" fill-opacity="1" stroke-opacity="1"/></g><g data-id="m19owfnx" data-class="stem" class="stem"><path d="M6752 1052 L6752 450" stroke-width="18"/></g></g><g data-id="s12i7c3u" data-class="note" class="note"><g data-class="notehead" class="notehead"><use href="#E0A4-w1jml4ua" transform="translate(7503, 990) scale(0.72, 0.72)"/></g><g data-id="o1ssi85d" data-class="stem" class="stem"><path d="M7720 962 L7720 360" stroke-width="18"/><g data-id="pfjz7xh" data-class="flag" class="flag"><use href="#E240-w1jml4ua" transform="translate(7711, 360) scale(0.72, 0.72)"/></g></g><g data-id="l1onc2sb" data-class="accid" class="accid"/></g><g data-id="tsfp2eg" data-class="note" class="note"><g data-class="notehead" class="notehead"><use href="#E0A4-w1jml4ua" transform="translate(8048, 900) scale(0.72, 0.72)"/></g><g data-id="q1bexf2n" data-class="stem" class="stem"><path d="M8057 928 L8057 1500" stroke-width="18"/></g><g data-id="m12xnp22" data-class="accid" class="accid"/></g><g data-id="u10llujf" data-class="note" class="note"><g data-class="notehead" class="notehead"><use href="#E0A4-w1jml4ua" transform="translate(8807, 1260) scale(0.72, 0.72)"/></g><g data-id="r16f2n26" data-class="stem" class="stem"><path d="M9024 1232 L9024 630" stroke-width="18"/></g><g data-id="n1vawogg" data-class="accid" class="accid"/></g></g></g><g data-id="o1dr3s3r" data-class="barLine" class="barLine"><path d="M9566 540 L9566 1260" stroke-width="27"/></g></g><g data-id="pssyyut" data-class="measure" class="measure"><g data-id="k13s55u1" data-class="staff" class="staff"><path d="M9579 540 L12836 540" stroke-width="13"/><path d="M9579 720 L12836 720" stroke-width="13"/><path d="M9579 900 L12836 900" stroke-width="13"/><path d="M9579 1080 L12836 1080" stroke-width="13"/><path d="M9579 1260 L12836 1260" stroke-width="13"/><g data-class="ledgerLines" class="ledgerLines below"><g data-class="lineDash" class="lineDash" data-related="#y2t8axv"><path d="M12214 1440 L12536 1440" stroke-width="22"/></g></g><g data-id="l1ctxkna" data-class="layer" class="layer"><g data-id="vhocr1w" data-class="note" class="note"><g data-class="notehead" class="notehead"><use href="#E0A4-w1jml4ua" transform="translate(9777, 990) scale(0.72, 0.72)"/></g><g data-id="sypw15" data-class="stem" class="stem"><path d="M9994 962 L9994 360" stroke-width="18"/></g><g data-id="o11eq95g" data-class="accid" class="accid"/></g><g data-id="wiaan0h" data-class="note" class="note"><g data-class="notehead" class="notehead"><use href="#E0A4-w1jml4ua" transform="translate(10536, 1350) scale(0.72, 0.72)"/></g><g data-id="t19ddwrx" data-class="stem" class="stem"><path d="M10753 1322 L10753 720" stroke-width="18"/></g></g><g data-id="xeea3do" data-class="note" class="note"><g data-class="notehead" class="notehead"><use href="#E0A4-w1jml4ua" transform="translate(11295, 1260) scale(0.72, 0.72)"/></g><g data-id="vpe9w2e" data-class="dots" class="dots"><ellipse cx="11611" cy="1170" rx="36" ry="36" fill-opacity="1" stroke-opacity="1"/></g><g data-id="u1myf298" data-class="stem" class="stem"><path d="M11512 1232 L11512 630" stroke-width="18"/></g><g data-id="p1xbdkvo" data-class="accid" class="accid"/></g><g data-id="y2t8axv" data-class="note" class="note"><g data-class="notehead" class="notehead"><use href="#E0A4-w1jml4ua" transform="translate(12262, 1440) scale(0.72, 0.72)"/></g><g data-id="w1q8avjl" data-class="stem" class="stem"><path d="M12479 1412 L12479 810" stroke-width="18"/><g data-id="x1or3odu" data-class="flag" class="flag"><use href="#E240-w1jml4ua" transform="translate(12470, 810) scale(0.72, 0.72)"/></g></g></g></g></g><g data-id="x18x8yj2" data-class="barLine" class="barLine"><path d="M12823 540 L12823 1260" stroke-width="27"/></g></g><g data-id="yft12ra" data-class="measure" class="measure"><g data-id="m3w15jc" data-class="staff" class="staff"><path d="M12836 540 L14002 540" stroke-width="13"/><path d="M12836 720 L14002 720" stroke-width="13"/><path d="M12836 900 L14002 900" stroke-width="13"/><path d="M12836 1080 L14002 1080" stroke-width="13"/><path d="M12836 1260 L14002 1260" stroke-width="13"/><g data-class="ledgerLines" class="ledgerLines below"><g data-class="lineDash" class="lineDash" data-related="#zjcch69"><path d="M12986 1440 L13308 1440" stroke-width="22"/></g></g><g data-id="n1eii6q2" data-class="layer" class="layer"><g data-id="zjcch69" data-class="note" class="note"><g data-class="notehead" class="notehead"><use href="#E0A4-w1jml4ua" transform="translate(13034, 1440) scale(0.72, 0.72)"/></g><g data-id="z14n56o2" data-class="dots" class="dots"><ellipse cx="13350" cy="1350" rx="36" ry="36" fill-opacity="1" stroke-opacity="1"/></g><g data-id="yp8ox6g" data-class="stem" class="stem"><path d="M13251 1412 L13251 810" stroke-width="18"/></g></g></g></g><g data-id="g3o8zjt" data-class="barLine" class="barLine"/></g><g data-id="v1c4g4rd" data-class="systemMilestoneEnd" class="systemMilestoneEnd u1gizfh4"/></g><g data-id="wiv7d3a" data-class="pageMilestoneEnd" class="pageMilestoneEnd s1tj4539"/><g data-id="x1tdkkjt" data-class="pageMilestoneEnd" class="pageMilestoneEnd rohlg3c"/></g></svg></svg>