<svg viewBox="0 0 560 84" version="1.1" xmlns="http://www.w3.org/2000/svg" xmlns:xlink="http://www.w3.org/1999/xlink" overflow="visible" id="jaepa14"><desc>Engraved by Verovio 5.6.0-85e7620</desc><defs><g id="E050-jaepa14"><path transform="scale(1,-1)" d="M441 -245c-23 -4 -48 -6 -76 -6c-59 0 -102 7 -130 20c-88 42 -150 93 -187 154c-26 44 -43 103 -48 176c0 6 -1 13 -1 19c0 54 15 111 45 170c29 57 65 106 110 148s96 85 153 127c-3 16 -8 46 -13 92c-4 43 -5 73 -5 89c0 117 16 172 69 257c34 54 64 82 89 82 c21 0 43 -30 69 -92s39 -115 41 -159v-15c0 -109 -21 -162 -67 -241c-13 -20 -63 -90 -98 -118c-13 -9 -25 -19 -37 -29l31 -181c8 1 18 2 28 2c58 0 102 -12 133 -35c59 -43 92 -104 98 -184c1 -7 1 -15 1 -22c0 -123 -87 -209 -181 -248c8 -57 17 -110 25 -162 c5 -31 6 -58 6 -80c0 -30 -5 -53 -14 -70c-35 -64 -88 -99 -158 -103c-5 0 -11 -1 -16 -1c-37 0 -72 10 -108 27c-50 24 -77 59 -80 105v11c0 29 7 55 20 76c18 28 45 42 79 44h6c49 0 93 -42 97 -87v-9c0 -51 -34 -86 -105 -106c17 -24 51 -36 102 -36c62 0 116 43 140 85 c9 16 13 41 13 74c0 20 -1 42 -5 67c-8 53 -18 106 -26 159zM461 939c-95 0 -135 -175 -135 -286c0 -24 2 -48 5 -71c50 39 92 82 127 128c40 53 60 100 60 140v8c-4 53 -22 81 -55 81h-2zM406 119l54 -326c73 25 110 78 110 161c0 7 0 15 -1 23c-7 95 -57 142 -151 142h-12 zM382 117c-72 -2 -128 -47 -128 -120v-7c2 -46 43 -99 75 -115c-3 -2 -7 -5 -10 -10c-70 33 -116 88 -123 172v11c0 68 44 126 88 159c23 17 49 29 78 36l-29 170c-21 -13 -52 -37 -92 -73c-50 -44 -86 -84 -109 -119c-45 -69 -67 -130 -67 -182v-13c5 -68 35 -127 93 -176 s125 -73 203 -73c25 0 50 3 75 9c-19 111 -36 221 -54 331z"/></g><g id="E262-jaepa14"><path transform="scale(1,-1)" d="M136 186v169h17v-164l44 14v-91l-44 -14v-165l44 12v-91l-44 -13v-155h-17v150l-76 -22v-155h-17v149l-43 -13v90l43 14v167l-43 -14v92l43 13v169h17v-163zM60 73v-167l76 22v168z"/></g><g id="E083-jaepa14"><path transform="scale(1,-1)" d="M208 250c97 0 177 -52 177 -116c0 -69 -40 -111 -118 -125c56 -5 125 -44 125 -116c0 -31 -10 -57 -31 -78c-19 -21 -45 -38 -78 -49l-50 -11c-15 -3 -36 -7 -55 -7c-50 0 -86 16 -113 38c-16 10 -23 18 -34 34c-7 13 -11 25 -11 38c0 43 27 83 68 83l3 -2 c61 0 75 -42 75 -70c0 -19 -24 -42 -26 -57c7 -17 20 -25 37 -25c44 0 94 29 94 78c0 75 -34 125 -138 125v36c84 0 131 22 131 98c0 54 -37 88 -87 88c-26 0 -43 -7 -51 -22c15 -22 44 -16 44 -70c0 -37 -37 -62 -71 -62c-22 0 -69 15 -69 76c0 79 101 116 178 116z"/></g><g id="E084-jaepa14"><path transform="scale(1,-1)" d="M20 -78c84 97 114 180 134 329h170c-13 -32 -82 -132 -99 -151l-84 -97c-33 -36 -59 -63 -80 -81h162v102l127 123v-225h57v-39h-57v-34c0 -43 19 -65 57 -65v-34h-244v36c48 0 60 26 60 70v27h-203v39z"/></g><g id="E0A4-jaepa14"><path transform="scale(1,-1)" d="M0 -39c0 68 73 172 200 172c66 0 114 -37 114 -95c0 -84 -106 -171 -218 -171c-64 0 -96 30 -96 94z"/></g><g id="E886-jaepa14"><path transform="scale(1,-1)" d="M154 326c35 0 57 -16 60 -49c0 -7 -1 -13 -2 -16l-8 -14c-4 -7 -13 -12 -28 -15l-13 1l-12 7c-4 4 -7 11 -6 20l1 11l8 10l17 16c-2 7 -9 10 -20 10c-30 0 -53 -25 -69 -74l-9 -31l-6 -36c25 21 42 34 83 34c28 0 56 -29 56 -61c0 -65 -45 -139 -118 -139 c-69 0 -88 38 -88 108v18c0 6 1 13 3 20c0 21 2 20 9 39c17 50 45 95 83 120c20 13 39 21 59 21zM58 58c0 -24 5 -39 27 -39c18 0 35 15 48 47c10 25 16 42 16 72l-3 10l-6 12c-6 7 -14 12 -26 12c-11 0 -24 -11 -37 -33l-14 -40c-3 -15 -5 -28 -5 -41z"/></g></defs><style type="text/css">#jaepa14 g.page-margin {font-family:Times,serif;}#jaepa14 g.ending, #jaepa14 g.fing, #jaepa14 g.reh, #jaepa14 g.tempo {font-weight:bold;}#jaepa14 g.dir, #jaepa14 g.dynam, #jaepa14 g.mNum {font-style:italic;}#jaepa14 g.label {font-weight:normal;}#jaepa14 path {stroke:currentColor}</style><svg class="definition-scale" color="black" viewBox="0 0 14000 2100"><g class="page-margin" transform="translate(0, 150)"><g data-id="y12n8jmm" data-class="mdiv" class="mdiv pageMilestone"/><g data-id="z1h0ehg7" data-class="score" class="score pageMilestone"/><g data-id="i1tcl37r" data-class="system" class="system"><g data-id="btdh3dn" data-class="section" class="section systemMilestone"/><g data-id="k1mr8scf" data-class="measure" class="measure"><g data-id="nsi0heb" data-class="staff" class="staff"><path d="M0 540 L7853 540" stroke-width="13"/><path d="M0 720 L7853 720" stroke-width="13"/><path d="M0 900 L7853 900" stroke-width="13"/><path d="M0 1080 L7853 1080" stroke-width="13"/><path d="M0 1260 L7853 1260" stroke-width="13"/><g data-id="m38bl2q" data-class="clef" class="clef"><use href="#E050-jaepa14" transform="translate(90, 1080) scale(0.72, 0.72)"/></g><g data-id="nc02xqg" data-class="keySig" class="keySig"><g data-id="o1ifx1x" data-class="keyAccid" class="keyAccid"><use href="#E262-jaepa14" transform="translate(735, 540) scale(0.72, 0.72)"/></g><g data-id="p1pbd2vg" data-class="keyAccid" class="keyAccid"><use href="#E262-jaepa14" transform="translate(913, 810) scale(0.72, 0.72)"/></g><g data-id="qetxvaz" data-class="keyAccid" class="keyAccid"><use href="#E262-jaepa14" transform="translate(1091, 450) scale(0.72, 0.72)"/></g><g data-id="r1adtarm" data-class="keyAccid" class="keyAccid"><use href="#E262-jaepa14" transform="translate(1269, 720) scale(0.72, 0.72)"/></g></g><g data-id="s1euu6u" data-class="meterSig" class="meterSig"><use href="#E083-jaepa14" transform="translate(1582, 720) scale(0.72, 0.72)"/><use href="#E084-jaepa14" transform="translate(1576, 1080) scale(0.72, 0.72)"/></g><g data-class="ledgerLines" class="ledgerLines below"><g data-class="lineDash" class="lineDash" data-related="#t1duyhev"><path d="M2108 1440 L2394 1440" stroke-width="22"/></g><g data-class="lineDash" class="lineDash" data-related="#u132l9hf"><path d="M2424 1440 L2710 1440" stroke-width="22"/></g><g data-class="lineDash" class="lineDash" data-related="#yezttf0"><path d="M3688 1440 L3974 1440" stroke-width="22"/></g><g data-class="lineDash" class="lineDash" data-related="#z14e29xn"><path d="M4004 1440 L4290 1440" stroke-width="22"/></g><g data-class="lineDash" class="lineDash" data-related="#acrybwa"><path d="M4320 1440 L4606 1440" stroke-width="22"/></g><g data-class="lineDash" class="lineDash" data-related="#e11hob67"><path d="M5584 1440 L5870 1440" stroke-width="22"/></g><g data-class="lineDash" class="lineDash" data-related="#f1f5ojse"><path d="M5900 1440 L6186 1440" stroke-width="22"/></g><g data-class="lineDash" class="lineDash" data-related="#g1dvyb3o"><path d="M6216 1440 L6502 1440" stroke-width="22"/></g><g data-class="lineDash" class="lineDash" data-related="#k9pscb8"><path d="M7462 1440 L7784 1440" stroke-width="22"/></g><g data-class="lineDash" class="lineDash" data-related="#t1duyhev"><path d="M2108 1620 L2394 1620" stroke-width="22"/></g><g data-class="lineDash" class="lineDash" data-related="#z14e29xn"><path d="M4004 1620 L4290 1620" stroke-width="22"/></g><g data-class="lineDash" class="lineDash" data-related="#f1f5ojse"><path d="M5900 1620 L6186 1620" stroke-width="22"/></g></g><g data-id="ot95tck" data-class="layer" class="layer"><g data-id="o14kpan5" data-class="tuplet" class="tuplet"><g data-id="d110j302" data-class="tupletNum" class="tupletNum"><use href="#E886-jaepa14" transform="translate(3020, 432) scale(0.72, 0.72)"/></g><g data-id="lzusg29" data-class="beam" class="beam"><polygon stroke-opacity="1" fill-opacity="1" points="2346,495 3944,495 3944,585 2346,585"/><polygon stroke-opacity="1" fill-opacity="1" points="2346,630 2671,630 2671,720 2346,720"/><polygon stroke-opacity="1" fill-opacity="1" points="2671,630 2987,630 2987,720 2671,720"/><polygon stroke-opacity="1" fill-opacity="1" points="2987,630 3303,630 3303,720 2987,720"/><polygon stroke-opacity="1" fill-opacity="1" points="3303,630 3619,630 3619,720 3303,720"/><polygon stroke-opacity="1" fill-opacity="1" points="3619,630 3944,630 3944,720 3619,720"/><g data-id="t1duyhev" data-class="note" class="note"><g data-class="notehead" class="notehead"><use href="#E0A4-jaepa14" transform="translate(2138, 1710) scale(0.72, 0.72)"/></g><g data-id="e11cyu63" data-class="stem" class="stem"><path d="M2355 1682 L2355 513" stroke-width="18"/></g><g data-id="r192foy7" data-class="accid" class="accid"/></g><g data-id="u132l9hf" data-class="note" class="note"><g data-class="notehead" class="notehead"><use href="#E0A4-jaepa14" transform="translate(2454, 1530) scale(0.72, 0.72)"/></g><g data-id="f1fbyrx8" data-class="stem" class="stem"><path d="M2671 1502 L2671 513" stroke-width="18"/></g></g><g data-id="v1y1w1n7" data-class="note" class="note"><g data-class="notehead" class="notehead"><use href="#E0A4-jaepa14" transform="translate(2770, 1260) scale(0.72, 0.72)"/></g><g data-id="gjthz6s" data-class="stem" class="stem"><path d="M2987 1232 L2987 513" stroke-width="18"/></g></g><g data-id="w11whtyv" data-class="note" class="note"><g data-class="notehead" class="notehead"><use href="#E0A4-jaepa14" transform="translate(3086, 1080) scale(0.72, 0.72)"/></g><g data-id="hjhqkde" data-class="stem" class="stem"><path d="M3303 1052 L3303 513" stroke-width="18"/></g><g data-id="s1txzrsv" data-class="accid" class="accid"/></g><g data-id="x4jsykd" data-class="note" class="note"><g data-class="notehead" class="notehead"><use href="#E0A4-jaepa14" transform="translate(3402, 1260) scale(0.72, 0.72)"/></g><g data-id="i1rz3wlj" data-class="stem" class="stem"><path d="M3619 1232 L3619 513" stroke-width="18"/></g></g><g data-id="yezttf0" data-class="note" class="note"><g data-class="notehead" class="notehead"><use href="#E0A4-jaepa14" transform="translate(3718, 1530) scale(0.72, 0.72)"/></g><g data-id="j1og8x8d" data-class="stem" class="stem"><path d="M3935 1502 L3935 513" stroke-width="18"/></g></g></g></g><g data-id="pi7f88n" data-class="tuplet" class="tuplet"><g data-id="kwaxjlv" data-class="tupletNum" class="tupletNum"><use href="#E886-jaepa14" transform="translate(4916, 432) scale(0.72, 0.72)"/></g><g data-id="m1w66bae" data-class="beam" class="beam"><polygon stroke-opacity="1" fill-opacity="1" points="4242,495 5840,495 5840,585 4242,585"/><polygon stroke-opacity="1" fill-opacity="1" points="4242,630 4567,630 4567,720 4242,720"/><polygon stroke-opacity="1" fill-opacity="1" points="4567,630 4883,630 4883,720 4567,720"/><polygon stroke-opacity="1" fill-opacity="1" points="4883,630 5199,630 5199,720 4883,720"/><polygon stroke-opacity="1" fill-opacity="1" points="5199,630 5515,630 5515,720 5199,720"/><polygon stroke-opacity="1" fill-opacity="1" points="5515,630 5840,630 5840,720 5515,720"/><g data-id="z14e29xn" data-class="note" class="note"><g data-class="notehead" class="notehead"><use href="#E0A4-jaepa14" transform="translate(4034, 1710) scale(0.72, 0.72)"/></g><g data-id="l1mhfy38" data-class="stem" class="stem"><path d="M4251 1682 L4251 513" stroke-width="18"/></g><g data-id="t1obh2pv" data-class="accid" class="accid"/></g><g data-id="acrybwa" data-class="note" class="note"><g data-class="notehead" class="notehead"><use href="#E0A4-jaepa14" transform="translate(4350, 1530) scale(0.72, 0.72)"/></g><g data-id="mpyb23r" data-class="stem" class="stem"><path d="M4567 1502 L4567 513" stroke-width="18"/></g></g><g data-id="b1w7sfh7" data-class="note" class="note"><g data-class="notehead" class="notehead"><use href="#E0A4-jaepa14" transform="translate(4666, 1260) scale(0.72, 0.72)"/></g><g data-id="nx2q7m5" data-class="stem" class="stem"><path d="M4883 1232 L4883 513" stroke-width="18"/></g></g><g data-id="cgeusl5" data-class="note" class="note"><g data-class="notehead" class="notehead"><use href="#E0A4-jaepa14" transform="translate(4982, 1080) scale(0.72, 0.72)"/></g><g data-id="o1v03s64" data-class="stem" class="stem"><path d="M5199 1052 L5199 513" stroke-width="18"/></g><g data-id="u1i2lfpd" data-class="accid" class="accid"/></g><g data-id="da6yn9h" data-class="note" class="note"><g data-class="notehead" class="notehead"><use href="#E0A4-jaepa14" transform="translate(5298, 1260) scale(0.72, 0.72)"/></g><g data-id="p1nn3436" data-class="stem" class="stem"><path d="M5515 1232 L5515 513" stroke-width="18"/></g></g><g data-id="e11hob67" data-class="note" class="note"><g data-class="notehead" class="notehead"><use href="#E0A4-jaepa14" transform="translate(5614, 1530) scale(0.72, 0.72)"/></g><g data-id="qs9a9g9" data-class="stem" class="stem"><path d="M5831 1502 L5831 513" stroke-width="18"/></g></g></g></g><g data-id="qwcka52" data-class="tuplet" class="tuplet"><g data-id="r3f9qa9" data-class="tupletNum" class="tupletNum"><use href="#E886-jaepa14" transform="translate(6812, 432) scale(0.72, 0.72)"/></g><g data-id="n18mw5aj" data-class="beam" class="beam"><polygon stroke-opacity="1" fill-opacity="1" points="6138,495 7736,495 7736,585 6138,585"/><polygon stroke-opacity="1" fill-opacity="1" points="6138,630 6463,630 6463,720 6138,720"/><polygon stroke-opacity="1" fill-opacity="1" points="6463,630 6779,630 6779,720 6463,720"/><polygon stroke-opacity="1" fill-opacity="1" points="6779,630 7095,630 7095,720 6779,720"/><polygon stroke-opacity="1" fill-opacity="1" points="7095,630 7411,630 7411,720 7095,720"/><polygon stroke-opacity="1" fill-opacity="1" points="7411,630 7736,630 7736,720 7411,720"/><g data-id="f1f5ojse" data-class="note" class="note"><g data-class="notehead" class="notehead"><use href="#E0A4-jaepa14" transform="translate(5930, 1710) scale(0.72, 0.72)"/></g><g data-id="s15xg3zh" data-class="stem" class="stem"><path d="M6147 1682 L6147 513" stroke-width="18"/></g><g data-id="vlk7jsd" data-class="accid" class="accid"/></g><g data-id="g1dvyb3o" data-class="note" class="note"><g data-class="notehead" class="notehead"><use href="#E0A4-jaepa14" transform="translate(6246, 1530) scale(0.72, 0.72)"/></g><g data-id="taqx4e7" data-class="stem" class="stem"><path d="M6463 1502 L6463 513" stroke-width="18"/></g></g><g data-id="h1ao8qk" data-class="note" class="note"><g data-class="notehead" class="notehead"><use href="#E0A4-jaepa14" transform="translate(6562, 1260) scale(0.72, 0.72)"/></g><g data-id="utf3yhk" data-class="stem" class="stem"><path d="M6779 1232 L6779 513" stroke-width="18"/></g></g><g data-id="i8uitx0" data-class="note" class="note"><g data-class="notehead" class="notehead"><use href="#E0A4-jaepa14" transform="translate(6878, 1080) scale(0.72, 0.72)"/></g><g data-id="ve4xues" data-class="stem" class="stem"><path d="M7095 1052 L7095 513" stroke-width="18"/></g><g data-id="w1gqfmn4" data-class="accid" class="accid"/></g><g data-id="jawrqkt" data-class="note" class="note"><g data-class="notehead" class="notehead"><use href="#E0A4-jaepa14" transform="translate(7194, 1260) scale(0.72, 0.72)"/></g><g data-id="w19c99xn" data-class="stem" class="stem"><path d="M7411 1232 L7411 513" stroke-width="18"/></g></g><g data-id="k9pscb8" data-class="note" class="note"><g data-class="notehead" class="notehead"><use href="#E0A4-jaepa14" transform="translate(7510, 1530) scale(0.72, 0.72)"/></g><g data-id="xq7fcpb" data-class="stem" class="stem"><path d="M7727 1502 L7727 513" stroke-width="18"/></g></g></g></g></g></g><g data-id="swzy6d4" data-class="barLine" class="barLine"><path d="M7840 540 L7840 1260" stroke-width="27"/></g></g><g data-id="w1t0gncr" data-class="systemMilestoneEnd" class="systemMilestoneEnd btdh3dn"/></g><g data-id="x10v2njx" data-class="pageMilestoneEnd" class="pageMilestoneEnd z1h0ehg7"/><g data-id="yk34s6c" data-class="pageMilestoneEnd" class="pageMilestoneEnd y12n8jmm"/></g></svg></svg>