<svg viewBox="0 0 560 84" version="1.1" xmlns="http://www.w3.org/2000/svg" xmlns:xlink="http://www.w3.org/1999/xlink" overflow="visible" id="r1phsrar"><desc>Engraved by Verovio 5.6.0-85e7620</desc><defs><g id="E050-r1phsrar"><path transform="scale(1,-1)" d="M441 -245c-23 -4 -48 -6 -76 -6c-59 0 -102 7 -130 20c-88 42 -150 93 -187 154c-26 44 -43 103 -48 176c0 6 -1 13 -1 19c0 54 15 111 45 170c29 57 65 106 110 148s96 85 153 127c-3 16 -8 46 -13 92c-4 43 -5 73 -5 89c0 117 16 172 69 257c34 54 64 82 89 82 c21 0 43 -30 69 -92s39 -115 41 -159v-15c0 -109 -21 -162 -67 -241c-13 -20 -63 -90 -98 -118c-13 -9 -25 -19 -37 -29l31 -181c8 1 18 2 28 2c58 0 102 -12 133 -35c59 -43 92 -104 98 -184c1 -7 1 -15 1 -22c0 -123 -87 -209 -181 -248c8 -57 17 -110 25 -162 c5 -31 6 -58 6 -80c0 -30 -5 -53 -14 -70c-35 -64 -88 -99 -158 -103c-5 0 -11 -1 -16 -1c-37 0 -72 10 -108 27c-50 24 -77 59 -80 105v11c0 29 7 55 20 76c18 28 45 42 79 44h6c49 0 93 -42 97 -87v-9c0 -51 -34 -86 -105 -106c17 -24 51 -36 102 -36c62 0 116 43 140 85 c9 16 13 41 13 74c0 20 -1 42 -5 67c-8 53 -18 106 -26 159zM461 939c-95 0 -135 -175 -135 -286c0 -24 2 -48 5 -71c50 39 92 82 127 128c40 53 60 100 60 140v8c-4 53 -22 81 -55 81h-2zM406 119l54 -326c73 25 110 78 110 161c0 7 0 15 -1 23c-7 95 -57 142 -151 142h-12 zM382 117c-72 -2 -128 -47 -128 -120v-7c2 -46 43 -99 75 -115c-3 -2 -7 -5 -10 -10c-70 33 -116 88 -123 172v11c0 68 44 126 88 159c23 17 49 29 78 36l-29 170c-21 -13 -52 -37 -92 -73c-50 -44 -86 -84 -109 -119c-45 -69 -67 -130 -67 -182v-13c5 -68 35 -127 93 -176 s125 -73 203 -73c25 0 50 3 75 9c-19 111 -36 221 -54 331z"/></g><g id="E260-r1phsrar"><path transform="scale(1,-1)" d="M20 110c32 16 54 27 93 27c26 0 35 -3 54 -13c13 -7 24 -20 27 -38l4 -25c0 -28 -16 -57 -45 -89c-23 -25 -39 -44 -65 -68l-88 -79v644h20v-359zM90 106c-32 0 -48 -10 -70 -29v-194c31 31 54 59 71 84c21 32 32 59 32 84c0 9 1 16 1 20c0 14 -3 21 -11 30l-8 3z"/></g><g id="E086-r1phsrar"><path transform="scale(1,-1)" d="M284 -91c0 37 -28 92 -67 92c-35 0 -65 -54 -65 -111c0 -52 22 -104 68 -104c47 0 64 68 64 123zM230 214c-36 0 -90 -33 -90 -184l2 -36c40 24 81 36 120 36c80 0 140 -48 140 -121c0 -99 -99 -159 -182 -159c-160 0 -200 173 -200 244c0 21 2 43 7 71l10 35 c26 85 73 115 98 126c41 19 74 24 103 24c93 0 142 -63 142 -105c0 -58 -52 -72 -73 -72c-33 0 -59 24 -65 35c-3 5 -6 14 -7 25l11 30c6 15 9 27 9 35c0 11 -9 16 -25 16z"/></g><g id="E081-r1phsrar"><path transform="scale(1,-1)" d="M68 -250v36c23 0 40 6 49 18c8 14 12 33 12 57v250l-82 -129l-27 13l107 255h128v-394c0 -24 5 -42 14 -53s25 -17 47 -17v-36h-248z"/></g><g id="E0A4-r1phsrar"><path transform="scale(1,-1)" d="M0 -39c0 68 73 172 200 172c66 0 114 -37 114 -95c0 -84 -106 -171 -218 -171c-64 0 -96 30 -96 94z"/></g><g id="E243-r1phsrar"><path transform="scale(1,-1)" d="M216 730c-5 8 -10 13 -11 16l-4 10c0 3 2 5 5 5s7 -2 13 -7c35 -42 57 -101 57 -172c0 -34 -6 -65 -17 -94c10 -31 17 -64 17 -96c0 -104 -60 -183 -122 -241c-63 -59 -57 -53 -61 -56c-38 -34 -63 -95 -71 -95h-22v190v190c40 7 69 11 87 16c116 36 175 111 175 197 c0 44 -15 91 -46 137zM248 463c-23 -48 -58 -89 -94 -122c-63 -59 -57 -53 -61 -56c-30 -27 -44 -71 -53 -88c20 3 36 6 47 9c88 27 168 95 168 200c0 19 -3 39 -7 57z"/></g><g id="E044-r1phsrar"><path transform="scale(1,-1)" d="M0 0c0 28 22 50 50 50s50 -22 50 -50s-22 -50 -50 -50s-50 22 -50 50z"/></g></defs><style type="text/css">#r1phsrar g.page-margin {font-family:Times,serif;}#r1phsrar g.ending, #r1phsrar g.fing, #r1phsrar g.reh, #r1phsrar g.tempo {font-weight:bold;}#r1phsrar g.dir, #r1phsrar g.dynam, #r1phsrar g.mNum {font-style:italic;}#r1phsrar g.label {font-weight:normal;}#r1phsrar path {stroke:currentColor}</style><svg class="definition-scale" color="black" viewBox="0 0 14000 2100"><g class="page-margin" transform="translate(0, 150)"><g data-id="c1shgrnj" data-class="mdiv" class="mdiv pageMilestone"/><g data-id="d1duuoof" data-class="score" class="score pageMilestone"/><g data-id="q1icy7ea" data-class="system" class="system"><g data-id="f1rt2lhu" data-class="section" class="section systemMilestone"/><g data-id="sfegzif" data-class="measure" class="measure"><g data-id="r10icq0n" data-class="staff" class="staff"><path d="M0 540 L3172 540" stroke-width="13"/><path d="M0 720 L3172 720" stroke-width="13"/><path d="M0 900 L3172 900" stroke-width="13"/><path d="M0 1080 L3172 1080" stroke-width="13"/><path d="M0 1260 L3172 1260" stroke-width="13"/><g data-id="t1ervm97" data-class="clef" class="clef"><use href="#E050-r1phsrar" transform="translate(90, 1080) scale(0.72, 0.72)"/></g><g data-id="uwm0j1h" data-class="keySig" class="keySig"><g data-id="v4v1rym" data-class="keyAccid" class="keyAccid"><use href="#E260-r1phsrar" transform="translate(735, 900) scale(0.72, 0.72)"/></g><g data-id="w71ctiy" data-class="keyAccid" class="keyAccid"><use href="#E260-r1phsrar" transform="translate(915, 630) scale(0.72, 0.72)"/></g><g data-id="x1bwcuf2" data-class="keyAccid" class="keyAccid"><use href="#E260-r1phsrar" transform="translate(1095, 990) scale(0.72, 0.72)"/></g><g data-id="yxls15p" data-class="keyAccid" class="keyAccid"><use href="#E260-r1phsrar" transform="translate(1275, 720) scale(0.72, 0.72)"/></g><g data-id="z1xyv2pm" data-class="keyAccid" class="keyAccid"><use href="#E260-r1phsrar" transform="translate(1455, 1080) scale(0.72, 0.72)"/></g></g><g data-id="a1qfyg8l" data-class="meterSig" class="meterSig"><use href="#E086-r1phsrar" transform="translate(1884, 720) scale(0.72, 0.72)"/><use href="#E081-r1phsrar" transform="translate(1763, 1080) scale(0.72, 0.72)"/><use href="#E086-r1phsrar" transform="translate(2004, 1080) scale(0.72, 0.72)"/></g><g data-id="s1kb8s5t" data-class="layer" class="layer"><g data-id="lz14f2f" data-class="note" class="note"><g data-class="notehead" class="notehead"><use href="#E0A4-r1phsrar" transform="translate(2563, 540) scale(0.72, 0.72)"/></g><g data-id="q13dl6hb" data-class="stem" class="stem"><path d="M2572 568 L2572 1170" stroke-width="18"/><g data-id="r1cnshc2" data-class="flag" class="flag"><use href="#E243-r1phsrar" transform="translate(2563, 1170) scale(0.72, 0.72)"/></g></g></g></g></g><g data-id="a1hrf8xg" data-class="barLine" class="barLine"><path d="M2924 540 L2924 1260" stroke-width="90"/><path d="M3054 540 L3054 1260" stroke-width="27"/><use href="#E044-r1phsrar" transform="translate(3100, 810) scale(0.72, 0.72)"/><use href="#E044-r1phsrar" transform="translate(3100, 990) scale(0.72, 0.72)"/></g></g><g data-id="bfilo60" data-class="measure" class="measure"><g data-id="t2k1dt7" data-class="staff" class="staff"><path d="M3172 540 L5275 540" stroke-width="13"/><path d="M3172 720 L5275 720" stroke-width="13"/><path d="M3172 900 L5275 900" stroke-width="13"/><path d="M3172 1080 L5275 1080" stroke-width="13"/><path d="M3172 1260 L5275 1260" stroke-width="13"/><g data-id="u5mq72p" data-class="layer" class="layer"><g data-id="h1kqwjts" data-class="beam" class="beam"><polygon stroke-opacity="1" fill-opacity="1" points="3352,1305 4002,1305 4002,1215 3352,1215"/><polygon stroke-opacity="1" fill-opacity="1" points="3352,1170 3677,1170 3677,1080 3352,1080"/><polygon stroke-opacity="1" fill-opacity="1" points="3677,1170 4002,1170 4002,1080 3677,1080"/><g data-id="m5p5n4l" data-class="note" class="note"><g data-class="notehead" class="notehead"><use href="#E0A4-r1phsrar" transform="translate(3352, 540) scale(0.72, 0.72)"/></g><g data-id="scst7nr" data-class="stem" class="stem"><path d="M3361 568 L3361 1287" stroke-width="18"/></g></g><g data-id="nxfl7nb" data-class="note" class="note"><g data-class="notehead" class="notehead"><use href="#E0A4-r1phsrar" transform="translate(3668, 720) scale(0.72, 0.72)"/></g><g data-id="tc8iqra" data-class="stem" class="stem"><path d="M3677 748 L3677 1287" stroke-width="18"/></g><g data-id="o1c9efzt" data-class="accid" class="accid"/></g><g data-id="o125hyzz" data-class="note" class="note"><g data-class="notehead" class="notehead"><use href="#E0A4-r1phsrar" transform="translate(3984, 540) scale(0.72, 0.72)"/></g><g data-id="u1f2my6g" data-class="stem" class="stem"><path d="M3993 568 L3993 1287" stroke-width="18"/></g></g></g><g data-id="it14t8z" data-class="beam" class="beam"><polygon stroke-opacity="1" fill-opacity="1" points="4300,1305 4950,1305 4950,1215 4300,1215"/><polygon stroke-opacity="1" fill-opacity="1" points="4300,1170 4625,1170 4625,1080 4300,1080"/><polygon stroke-opacity="1" fill-opacity="1" points="4625,1170 4950,1170 4950,1080 4625,1080"/><g data-id="psbfcma" data-class="note" class="note"><g data-class="notehead" class="notehead"><use href="#E0A4-r1phsrar" transform="translate(4300, 540) scale(0.72, 0.72)"/></g><g data-id="vtswypm" data-class="stem" class="stem"><path d="M4309 568 L4309 1287" stroke-width="18"/></g></g><g data-id="q1t69khr" data-class="note" class="note"><g data-class="notehead" class="notehead"><use href="#E0A4-r1phsrar" transform="translate(4616, 720) scale(0.72, 0.72)"/></g><g data-id="w1cor1o6" data-class="stem" class="stem"><path d="M4625 748 L4625 1287" stroke-width="18"/></g><g data-id="plg7026" data-class="accid" class="accid"/></g><g data-id="ris1kwl" data-class="note" class="note"><g data-class="notehead" class="notehead"><use href="#E0A4-r1phsrar" transform="translate(4932, 540) scale(0.72, 0.72)"/></g><g data-id="x1c85ht5" data-class="stem" class="stem"><path d="M4941 568 L4941 1287" stroke-width="18"/></g></g></g></g></g><g data-id="j1g9pdwh" data-class="barLine" class="barLine"><path d="M5262 540 L5262 1260" stroke-width="27"/></g></g><g data-id="k1e8a7no" data-class="measure" class="measure"><g data-id="v5kqg73" data-class="staff" class="staff"><path d="M5275 540 L7378 540" stroke-width="13"/><path d="M5275 720 L7378 720" stroke-width="13"/><path d="M5275 900 L7378 900" stroke-width="13"/><path d="M5275 1080 L7378 1080" stroke-width="13"/><path d="M5275 1260 L7378 1260" stroke-width="13"/><g data-id="wl4vbv3" data-class="layer" class="layer"><g data-id="jwkp3f1" data-class="beam" class="beam"><polygon stroke-opacity="1" fill-opacity="1" points="5455,1305 6105,1305 6105,1215 5455,1215"/><polygon stroke-opacity="1" fill-opacity="1" points="5455,1170 5780,1170 5780,1080 5455,1080"/><polygon stroke-opacity="1" fill-opacity="1" points="5780,1170 6105,1170 6105,1080 5780,1080"/><g data-id="s1j2oqe2" data-class="note" class="note"><g data-class="notehead" class="notehead"><use href="#E0A4-r1phsrar" transform="translate(5455, 540) scale(0.72, 0.72)"/></g><g data-id="y3dt6cw" data-class="stem" class="stem"><path d="M5464 568 L5464 1287" stroke-width="18"/></g></g><g data-id="tlazifo" data-class="note" class="note"><g data-class="notehead" class="notehead"><use href="#E0A4-r1phsrar" transform="translate(5771, 720) scale(0.72, 0.72)"/></g><g data-id="z2aomme" data-class="stem" class="stem"><path d="M5780 748 L5780 1287" stroke-width="18"/></g><g data-id="q1ylcy8z" data-class="accid" class="accid"/></g><g data-id="usyexz2" data-class="note" class="note"><g data-class="notehead" class="notehead"><use href="#E0A4-r1phsrar" transform="translate(6087, 540) scale(0.72, 0.72)"/></g><g data-id="aot8yvm" data-class="stem" class="stem"><path d="M6096 568 L6096 1287" stroke-width="18"/></g></g></g><g data-id="ktgcik0" data-class="beam" class="beam"><polygon stroke-opacity="1" fill-opacity="1" points="6403,1305 7053,1305 7053,1215 6403,1215"/><polygon stroke-opacity="1" fill-opacity="1" points="6403,1170 6728,1170 6728,1080 6403,1080"/><polygon stroke-opacity="1" fill-opacity="1" points="6728,1170 7053,1170 7053,1080 6728,1080"/><g data-id="v1lqdh4e" data-class="note" class="note"><g data-class="notehead" class="notehead"><use href="#E0A4-r1phsrar" transform="translate(6403, 540) scale(0.72, 0.72)"/></g><g data-id="blfdqhm" data-class="stem" class="stem"><path d="M6412 568 L6412 1287" stroke-width="18"/></g></g><g data-id="w1gpdqs8" data-class="note" class="note"><g data-class="notehead" class="notehead"><use href="#E0A4-r1phsrar" transform="translate(6719, 720) scale(0.72, 0.72)"/></g><g data-id="c1kt7eav" data-class="stem" class="stem"><path d="M6728 748 L6728 1287" stroke-width="18"/></g><g data-id="r3lz90h" data-class="accid" class="accid"/></g><g data-id="x1q4sjlx" data-class="note" class="note"><g data-class="notehead" class="notehead"><use href="#E0A4-r1phsrar" transform="translate(7035, 540) scale(0.72, 0.72)"/></g><g data-id="do2xas0" data-class="stem" class="stem"><path d="M7044 568 L7044 1287" stroke-width="18"/></g></g></g></g></g><g data-id="s7be9ku" data-class="barLine" class="barLine"><path d="M7365 540 L7365 1260" stroke-width="27"/></g></g><g data-id="t1s1x0qg" data-class="measure" class="measure"><g data-id="xr3qwy9" data-class="staff" class="staff"><path d="M7378 540 L9481 540" stroke-width="13"/><path d="M7378 720 L9481 720" stroke-width="13"/><path d="M7378 900 L9481 900" stroke-width="13"/><path d="M7378 1080 L9481 1080" stroke-width="13"/><path d="M7378 1260 L9481 1260" stroke-width="13"/><g data-id="y1mqb0r3" data-class="layer" class="layer"><g data-id="l16m630p" data-class="beam" class="beam"><polygon stroke-opacity="1" fill-opacity="1" points="7558,1485 8208,1485 8208,1395 7558,1395"/><polygon stroke-opacity="1" fill-opacity="1" points="7558,1350 7883,1350 7883,1260 7558,1260"/><polygon stroke-opacity="1" fill-opacity="1" points="7883,1350 8208,1350 8208,1260 7883,1260"/><g data-id="y1juymo6" data-class="note" class="note"><g data-class="notehead" class="notehead"><use href="#E0A4-r1phsrar" transform="translate(7558, 720) scale(0.72, 0.72)"/></g><g data-id="ex1npnd" data-class="stem" class="stem"><path d="M7567 748 L7567 1467" stroke-width="18"/></g><g data-id="saucy98" data-class="accid" class="accid"/></g><g data-id="z11hvejh" data-class="note" class="note"><g data-class="notehead" class="notehead"><use href="#E0A4-r1phsrar" transform="translate(7874, 900) scale(0.72, 0.72)"/></g><g data-id="ffv230u" data-class="stem" class="stem"><path d="M7883 928 L7883 1467" stroke-width="18"/></g><g data-id="tfnwxzt" data-class="accid" class="accid"/></g><g data-id="a1kr9lxj" data-class="note" class="note"><g data-class="notehead" class="notehead"><use href="#E0A4-r1phsrar" transform="translate(8190, 720) scale(0.72, 0.72)"/></g><g data-id="gja2cim" data-class="stem" class="stem"><path d="M8199 748 L8199 1467" stroke-width="18"/></g><g data-id="uymes8d" data-class="accid" class="accid"/></g></g><g data-id="mdrb7q6" data-class="beam" class="beam"><polygon stroke-opacity="1" fill-opacity="1" points="8506,1485 9156,1485 9156,1395 8506,1395"/><polygon stroke-opacity="1" fill-opacity="1" points="8506,1350 8831,1350 8831,1260 8506,1260"/><polygon stroke-opacity="1" fill-opacity="1" points="8831,1350 9156,1350 9156,1260 8831,1260"/><g data-id="bw7h35c" data-class="note" class="note"><g data-class="notehead" class="notehead"><use href="#E0A4-r1phsrar" transform="translate(8506, 720) scale(0.72, 0.72)"/></g><g data-id="h3t4l6q" data-class="stem" class="stem"><path d="M8515 748 L8515 1467" stroke-width="18"/></g><g data-id="vnlloym" data-class="accid" class="accid"/></g><g data-id="cfyvk6z" data-class="note" class="note"><g data-class="notehead" class="notehead"><use href="#E0A4-r1phsrar" transform="translate(8822, 900) scale(0.72, 0.72)"/></g><g data-id="iq9lgu5" data-class="stem" class="stem"><path d="M8831 928 L8831 1467" stroke-width="18"/></g><g data-id="wltamg1" data-class="accid" class="accid"/></g><g data-id="d8vukm6" data-class="note" class="note"><g data-class="notehead" class="notehead"><use href="#E0A4-r1phsrar" transform="translate(9138, 720) scale(0.72, 0.72)"/></g><g data-id="j1jr8x2t" data-class="stem" class="stem"><path d="M9147 748 L9147 1467" stroke-width="18"/></g><g data-id="x1ebpuuv" data-class="accid" class="accid"/></g></g></g></g><g data-id="b1imqnws" data-class="barLine" class="barLine"><path d="M9468 540 L9468 1260" stroke-width="27"/></g></g><g data-id="cakj49y" data-class="measure" class="measure"><g data-id="z1y40xrl" data-class="staff" class="staff"><path d="M9481 540 L10593 540" stroke-width="13"/><path d="M9481 720 L10593 720" stroke-width="13"/><path d="M9481 900 L10593 900" stroke-width="13"/><path d="M9481 1080 L10593 1080" stroke-width="13"/><path d="M9481 1260 L10593 1260" stroke-width="13"/><g data-id="a14dm49s" data-class="layer" class="layer"><g data-id="n1fnhzj5" data-class="beam" class="beam"><polygon stroke-opacity="1" fill-opacity="1" points="9661,1485 10311,1485 10311,1395 9661,1395"/><polygon stroke-opacity="1" fill-opacity="1" points="9661,1350 9986,1350 9986,1260 9661,1260"/><polygon stroke-opacity="1" fill-opacity="1" points="9986,1350 10311,1350 10311,1260 9986,1260"/><g data-id="edlw147" data-class="note" class="note"><g data-class="notehead" class="notehead"><use href="#E0A4-r1phsrar" transform="translate(9661, 720) scale(0.72, 0.72)"/></g><g data-id="khjp7wt" data-class="stem" class="stem"><path d="M9670 748 L9670 1467" stroke-width="18"/></g><g data-id="yvv86lu" data-class="accid" class="accid"/></g><g data-id="feaue1c" data-class="note" class="note"><g data-class="notehead" class="notehead"><use href="#E0A4-r1phsrar" transform="translate(9977, 900) scale(0.72, 0.72)"/></g><g data-id="ls48fuv" data-class="stem" class="stem"><path d="M9986 928 L9986 1467" stroke-width="18"/></g><g data-id="z3ughzp" data-class="accid" class="accid"/></g><g data-id="g1kh0622" data-class="note" class="note"><g data-class="notehead" class="notehead"><use href="#E0A4-r1phsrar" transform="translate(10293, 720) scale(0.72, 0.72)"/></g><g data-id="mrwget" data-class="stem" class="stem"><path d="M10302 748 L10302 1467" stroke-width="18"/></g><g data-id="apcxe0z" data-class="accid" class="accid"/></g></g></g></g><g data-id="k33u3q1" data-class="barLine" class="barLine"/></g><g data-id="i1ppt531" data-class="systemMilestoneEnd" class="systemMilestoneEnd f1rt2lhu"/></g><g data-id="jnd62z9" data-class="pageMilestoneEnd" class="pageMilestoneEnd d1duuoof"/><g data-id="k1hptkcl" data-class="pageMilestoneEnd" class="pageMilestoneEnd c1shgrnj"/></g></svg></svg>