<svg viewBox="0 0 560 84" version="1.1" xmlns="http://www.w3.org/2000/svg" xmlns:xlink="http://www.w3.org/1999/xlink" overflow="visible" id="a18yyhbt"><desc>Engraved by Verovio 5.6.0-85e7620</desc><defs><g id="E062-a18yyhbt"><path transform="scale(1,-1)" d="M582 -120c0 32 26 58 58 58s58 -26 58 -58s-26 -58 -58 -58s-58 26 -58 58zM582 120c0 32 26 58 58 58s58 -26 58 -58s-26 -58 -58 -58s-58 26 -58 58zM158 96c51 0 73 -14 88 -49l16 -39c0 -17 -2 -30 -7 -40c-3 -11 -10 -21 -19 -31c-17 -18 -49 -43 -84 -43 c-55 0 -77 13 -112 44c-24 21 -35 55 -35 100c0 46 14 81 32 112c30 52 71 79 137 93l36 6l26 2c154 0 235 -68 274 -182c11 -32 18 -68 18 -107c0 -103 -26 -182 -68 -250c-89 -145 -234 -230 -412 -288l-30 -5c-9 0 -14 3 -14 8c3 10 5 11 10 16c35 15 70 30 96 44l78 43 c96 57 162 136 197 258c9 33 17 60 22 100c3 22 5 35 6 39c-7 69 -16 115 -23 140s-4 22 -16 40c-8 12 -19 23 -31 34c-24 21 -62 44 -118 44c-48 0 -84 -8 -113 -28c-28 -19 -42 -44 -42 -73v-16c2 -5 3 -9 4 -11c24 22 52 39 84 39z"/></g><g id="E262-a18yyhbt"><path transform="scale(1,-1)" d="M136 186v169h17v-164l44 14v-91l-44 -14v-165l44 12v-91l-44 -13v-155h-17v150l-76 -22v-155h-17v149l-43 -13v90l43 14v167l-43 -14v92l43 13v169h17v-163zM60 73v-167l76 22v168z"/></g><g id="E086-a18yyhbt"><path transform="scale(1,-1)" d="M284 -91c0 37 -28 92 -67 92c-35 0 -65 -54 -65 -111c0 -52 22 -104 68 -104c47 0 64 68 64 123zM230 214c-36 0 -90 -33 -90 -184l2 -36c40 24 81 36 120 36c80 0 140 -48 140 -121c0 -99 -99 -159 -182 -159c-160 0 -200 173 -200 244c0 21 2 43 7 71l10 35 c26 85 73 115 98 126c41 19 74 24 103 24c93 0 142 -63 142 -105c0 -58 -52 -72 -73 -72c-33 0 -59 24 -65 35c-3 5 -6 14 -7 25l11 30c6 15 9 27 9 35c0 11 -9 16 -25 16z"/></g><g id="E088-a18yyhbt"><path transform="scale(1,-1)" d="M195 -214c76 0 88 58 90 68c0 34 -35 60 -57 73l-52 29c-21 10 -32 17 -34 20c-39 -33 -58 -54 -62 -92c5 -23 23 -98 115 -98zM301 135c0 61 -72 76 -113 76c-40 0 -77 -17 -77 -51c3 -21 15 -38 26 -50c17 -15 33 -26 48 -34l65 -28c34 27 51 56 51 87zM176 -250 c-57 0 -166 26 -166 132c0 47 30 86 89 116c-33 15 -79 60 -79 119c0 79 85 132 178 132h18c5 0 21 1 28 -1c25 0 126 -30 126 -110c0 -37 -23 -76 -69 -116c43 -25 83 -71 83 -119c0 -101 -118 -153 -208 -153z"/></g><g id="E4E7-a18yyhbt"><path transform="scale(1,-1)" d="M133 -111c0 -33 -21 -50 -52 -55c10 -3 18 -4 25 -4c40 0 69 24 90 47l66 197c-36 -18 -64 -25 -112 -25c-23 0 -38 3 -45 8c-37 7 -55 27 -55 59c8 35 30 54 68 58c45 -6 49 -13 64 -48c0 -3 1 -5 1 -7c0 -27 -25 -46 -52 -49c6 -4 15 -6 26 -6c32 2 62 14 88 29 c32 19 44 36 59 71l7 1l10 2h4c-72 -220 -143 -439 -215 -659h-37l108 324c-20 -13 -51 -20 -82 -20c-21 0 -35 4 -43 10c-37 6 -55 26 -55 58c8 35 31 56 68 60c43 -8 48 -13 64 -51z"/></g><g id="E0A4-a18yyhbt"><path transform="scale(1,-1)" d="M0 -39c0 68 73 172 200 172c66 0 114 -37 114 -95c0 -84 -106 -171 -218 -171c-64 0 -96 30 -96 94z"/></g></defs><style type="text/css">#a18yyhbt g.page-margin {font-family:Times,serif;}#a18yyhbt g.ending, #a18yyhbt g.fing, #a18yyhbt g.reh, #a18yyhbt g.tempo {font-weight:bold;}#a18yyhbt g.dir, #a18yyhbt g.dynam, #a18yyhbt g.mNum {font-style:italic;}#a18yyhbt g.label {font-weight:normal;}#a18yyhbt path {stroke:currentColor}</style><svg class="definition-scale" color="black" viewBox="0 0 14000 2100"><g class="page-margin" transform="translate(0, 150)"><g data-id="e19omtww" data-class="mdiv" class="mdiv pageMilestone"/><g data-id="fychni8" data-class="score" class="score pageMilestone"/><g data-id="ei94o1k" data-class="system" class="system"><g data-id="h1dg78of" data-class="section" class="section systemMilestone"/><g data-id="b170h2ja" data-class="measure" class="measure"><g data-id="tlcjq3z" data-class="staff" class="staff"><path d="M0 540 L5817 540" stroke-width="13"/><path d="M0 720 L5817 720" stroke-width="13"/><path d="M0 900 L5817 900" stroke-width="13"/><path d="M0 1080 L5817 1080" stroke-width="13"/><path d="M0 1260 L5817 1260" stroke-width="13"/><g data-id="jvn28rj" data-class="clef" class="clef"><use href="#E062-a18yyhbt" transform="translate(88, 720) scale(0.72, 0.72)"/></g><g data-id="kcewm85" data-class="keySig" class="keySig"><g data-id="l1db9qyy" data-class="keyAccid" class="keyAccid"><use href="#E262-a18yyhbt" transform="translate(769, 720) scale(0.72, 0.72)"/></g><g data-id="mfbfrw2" data-class="keyAccid" class="keyAccid"><use href="#E262-a18yyhbt" transform="translate(947, 990) scale(0.72, 0.72)"/></g><g data-id="ngxy3q" data-class="keyAccid" class="keyAccid"><use href="#E262-a18yyhbt" transform="translate(1125, 630) scale(0.72, 0.72)"/></g></g><g data-id="odbceum" data-class="meterSig" class="meterSig"><use href="#E086-a18yyhbt" transform="translate(1432, 720) scale(0.72, 0.72)"/><use href="#E088-a18yyhbt" transform="translate(1439, 1080) scale(0.72, 0.72)"/></g><g data-id="u1ksuoxr" data-class="layer" class="layer"><g data-id="k75w6f0" data-class="rest" class="rest"><use href="#E4E7-a18yyhbt" transform="translate(1991, 900) scale(0.72, 0.72)"/></g><g data-id="xt3dq1l" data-class="beam" class="beam"><polygon stroke-opacity="1" fill-opacity="1" points="2314,1665 3596,1665 3596,1575 2314,1575"/><polygon stroke-opacity="1" fill-opacity="1" points="2314,1530 2639,1530 2639,1440 2314,1440"/><polygon stroke-opacity="1" fill-opacity="1" points="2639,1530 2955,1530 2955,1440 2639,1440"/><polygon stroke-opacity="1" fill-opacity="1" points="2955,1530 3271,1530 3271,1440 2955,1440"/><polygon stroke-opacity="1" fill-opacity="1" points="3271,1530 3596,1530 3596,1440 3271,1440"/><g data-id="l1esoghq" data-class="note" class="note"><g data-class="notehead" class="notehead"><use href="#E0A4-a18yyhbt" transform="translate(2314, 540) scale(0.72, 0.72)"/></g><g data-id="i622wyi" data-class="stem" class="stem"><path d="M2323 568 L2323 1647" stroke-width="18"/></g></g><g data-id="mykz7uh" data-class="note" class="note"><g data-class="notehead" class="notehead"><use href="#E0A4-a18yyhbt" transform="translate(2630, 1080) scale(0.72, 0.72)"/></g><g data-id="j1v5mtyd" data-class="stem" class="stem"><path d="M2639 1108 L2639 1647" stroke-width="18"/></g><g data-id="w16fb6e5" data-class="accid" class="accid"><use href="#E262-a18yyhbt" transform="translate(2444, 1080) scale(0.72, 0.72)"/></g></g><g data-id="nkklzvb" data-class="note" class="note"><g data-class="notehead" class="notehead"><use href="#E0A4-a18yyhbt" transform="translate(2946, 540) scale(0.72, 0.72)"/></g><g data-id="k1axbo05" data-class="stem" class="stem"><path d="M2955 568 L2955 1647" stroke-width="18"/></g></g><g data-id="o97z554" data-class="note" class="note"><g data-class="notehead" class="notehead"><use href="#E0A4-a18yyhbt" transform="translate(3262, 1080) scale(0.72, 0.72)"/></g><g data-id="lv9405t" data-class="stem" class="stem"><path d="M3271 1108 L3271 1647" stroke-width="18"/></g><g data-id="z1nq74o3" data-class="accid" class="accid"/></g><g data-id="p1jc8gqd" data-class="note" class="note"><g data-class="notehead" class="notehead"><use href="#E0A4-a18yyhbt" transform="translate(3578, 540) scale(0.72, 0.72)"/></g><g data-id="m1wowl" data-class="stem" class="stem"><path d="M3587 568 L3587 1647" stroke-width="18"/></g></g></g><g data-id="ym7z2ji" data-class="beam" class="beam"><polygon stroke-opacity="1" fill-opacity="1" points="3894,1665 5492,1665 5492,1575 3894,1575"/><polygon stroke-opacity="1" fill-opacity="1" points="3894,1530 4219,1530 4219,1440 3894,1440"/><polygon stroke-opacity="1" fill-opacity="1" points="4219,1530 4535,1530 4535,1440 4219,1440"/><polygon stroke-opacity="1" fill-opacity="1" points="4535,1530 4851,1530 4851,1440 4535,1440"/><polygon stroke-opacity="1" fill-opacity="1" points="4851,1530 5167,1530 5167,1440 4851,1440"/><polygon stroke-opacity="1" fill-opacity="1" points="5167,1530 5492,1530 5492,1440 5167,1440"/><g data-id="q26mmmk" data-class="note" class="note"><g data-class="notehead" class="notehead"><use href="#E0A4-a18yyhbt" transform="translate(3894, 1080) scale(0.72, 0.72)"/></g><g data-id="n1tcw9id" data-class="stem" class="stem"><path d="M3903 1108 L3903 1647" stroke-width="18"/></g><g data-id="asj5dyj" data-class="accid" class="accid"/></g><g data-id="rcsl07h" data-class="note" class="note"><g data-class="notehead" class="notehead"><use href="#E0A4-a18yyhbt" transform="translate(4210, 540) scale(0.72, 0.72)"/></g><g data-id="omh8d9j" data-class="stem" class="stem"><path d="M4219 568 L4219 1647" stroke-width="18"/></g></g><g data-id="s1l8alo5" data-class="note" class="note"><g data-class="notehead" class="notehead"><use href="#E0A4-a18yyhbt" transform="translate(4526, 1080) scale(0.72, 0.72)"/></g><g data-id="pegobkm" data-class="stem" class="stem"><path d="M4535 1108 L4535 1647" stroke-width="18"/></g><g data-id="bsc69ni" data-class="accid" class="accid"/></g><g data-id="t129zflw" data-class="note" class="note"><g data-class="notehead" class="notehead"><use href="#E0A4-a18yyhbt" transform="translate(4842, 540) scale(0.72, 0.72)"/></g><g data-id="qz8ybvk" data-class="stem" class="stem"><path d="M4851 568 L4851 1647" stroke-width="18"/></g></g><g data-id="u1o8a5r1" data-class="note" class="note"><g data-class="notehead" class="notehead"><use href="#E0A4-a18yyhbt" transform="translate(5158, 1080) scale(0.72, 0.72)"/></g><g data-id="r14zv5yf" data-class="stem" class="stem"><path d="M5167 1108 L5167 1647" stroke-width="18"/></g><g data-id="cfmb7c" data-class="accid" class="accid"/></g><g data-id="v1dxs07q" data-class="note" class="note"><g data-class="notehead" class="notehead"><use href="#E0A4-a18yyhbt" transform="translate(5474, 540) scale(0.72, 0.72)"/></g><g data-id="s7ruzkv" data-class="stem" class="stem"><path d="M5483 568 L5483 1647" stroke-width="18"/></g></g></g></g></g><g data-id="j1gei9rr" data-class="barLine" class="barLine"><path d="M5804 540 L5804 1260" stroke-width="27"/></g></g><g data-id="c19b6k5g" data-class="systemMilestoneEnd" class="systemMilestoneEnd h1dg78of"/></g><g data-id="dav36kc" data-class="pageMilestoneEnd" class="pageMilestoneEnd fychni8"/><g data-id="e152hib3" data-class="pageMilestoneEnd" class="pageMilestoneEnd e19omtww"/></g></svg></svg>