<svg viewBox="0 0 560 84" version="1.1" xmlns="http://www.w3.org/2000/svg" xmlns:xlink="http://www.w3.org/1999/xlink" overflow="visible" id="w6hg5gx"><desc>Engraved by Verovio 5.6.0-85e7620</desc><defs><g id="E050-w6hg5gx"><path transform="scale(1,-1)" d="M441 -245c-23 -4 -48 -6 -76 -6c-59 0 -102 7 -130 20c-88 42 -150 93 -187 154c-26 44 -43 103 -48 176c0 6 -1 13 -1 19c0 54 15 111 45 170c29 57 65 106 110 148s96 85 153 127c-3 16 -8 46 -13 92c-4 43 -5 73 -5 89c0 117 16 172 69 257c34 54 64 82 89 82 c21 0 43 -30 69 -92s39 -115 41 -159v-15c0 -109 -21 -162 -67 -241c-13 -20 -63 -90 -98 -118c-13 -9 -25 -19 -37 -29l31 -181c8 1 18 2 28 2c58 0 102 -12 133 -35c59 -43 92 -104 98 -184c1 -7 1 -15 1 -22c0 -123 -87 -209 -181 -248c8 -57 17 -110 25 -162 c5 -31 6 -58 6 -80c0 -30 -5 -53 -14 -70c-35 -64 -88 -99 -158 -103c-5 0 -11 -1 -16 -1c-37 0 -72 10 -108 27c-50 24 -77 59 -80 105v11c0 29 7 55 20 76c18 28 45 42 79 44h6c49 0 93 -42 97 -87v-9c0 -51 -34 -86 -105 -106c17 -24 51 -36 102 -36c62 0 116 43 140 85 c9 16 13 41 13 74c0 20 -1 42 -5 67c-8 53 -18 106 -26 159zM461 939c-95 0 -135 -175 -135 -286c0 -24 2 -48 5 -71c50 39 92 82 127 128c40 53 60 100 60 140v8c-4 53 -22 81 -55 81h-2zM406 119l54 -326c73 25 110 78 110 161c0 7 0 15 -1 23c-7 95 -57 142 -151 142h-12 zM382 117c-72 -2 -128 -47 -128 -120v-7c2 -46 43 -99 75 -115c-3 -2 -7 -5 -10 -10c-70 33 -116 88 -123 172v11c0 68 44 126 88 159c23 17 49 29 78 36l-29 170c-21 -13 -52 -37 -92 -73c-50 -44 -86 -84 -109 -119c-45 -69 -67 -130 -67 -182v-13c5 -68 35 -127 93 -176 s125 -73 203 -73c25 0 50 3 75 9c-19 111 -36 221 -54 331z"/></g><g id="E08A-w6hg5gx"><path transform="scale(1,-1)" d="M340 179c-9 24 -56 41 -89 41c-46 0 -81 -28 -100 -58c-17 -28 -25 -78 -25 -150c0 -65 2 -111 8 -135c8 -31 18 -49 40 -67c20 -17 43 -25 70 -25c54 0 92 36 115 75c14 25 23 54 28 88h27c0 -63 -24 -105 -58 -141c-35 -38 -82 -56 -140 -56c-45 0 -83 13 -115 39 c-57 45 -101 130 -101 226c0 59 33 127 68 163c36 37 97 72 160 72c36 0 93 -21 121 -40c11 -8 23 -17 33 -30c19 -23 27 -48 27 -76c0 -51 -35 -88 -86 -88c-43 0 -76 27 -76 68c0 26 7 35 21 51c15 17 32 27 58 32c7 2 14 7 14 11z"/></g><g id="E0A4-w6hg5gx"><path transform="scale(1,-1)" d="M0 -39c0 68 73 172 200 172c66 0 114 -37 114 -95c0 -84 -106 -171 -218 -171c-64 0 -96 30 -96 94z"/></g><g id="E4E7-w6hg5gx"><path transform="scale(1,-1)" d="M133 -111c0 -33 -21 -50 -52 -55c10 -3 18 -4 25 -4c40 0 69 24 90 47l66 197c-36 -18 -64 -25 -112 -25c-23 0 -38 3 -45 8c-37 7 -55 27 -55 59c8 35 30 54 68 58c45 -6 49 -13 64 -48c0 -3 1 -5 1 -7c0 -27 -25 -46 -52 -49c6 -4 15 -6 26 -6c32 2 62 14 88 29 c32 19 44 36 59 71l7 1l10 2h4c-72 -220 -143 -439 -215 -659h-37l108 324c-20 -13 -51 -20 -82 -20c-21 0 -35 4 -43 10c-37 6 -55 26 -55 58c8 35 31 56 68 60c43 -8 48 -13 64 -51z"/></g><g id="E262-w6hg5gx"><path transform="scale(1,-1)" d="M136 186v169h17v-164l44 14v-91l-44 -14v-165l44 12v-91l-44 -13v-155h-17v150l-76 -22v-155h-17v149l-43 -13v90l43 14v167l-43 -14v92l43 13v169h17v-163zM60 73v-167l76 22v168z"/></g></defs><style type="text/css">#w6hg5gx g.page-margin {font-family:Times,serif;}#w6hg5gx g.ending, #w6hg5gx g.fing, #w6hg5gx g.reh, #w6hg5gx g.tempo {font-weight:bold;}#w6hg5gx g.dir, #w6hg5gx g.dynam, #w6hg5gx g.mNum {font-style:italic;}#w6hg5gx g.label {font-weight:normal;}#w6hg5gx path {stroke:currentColor}</style><svg class="definition-scale" color="black" viewBox="0 0 14000 2100"><g class="page-margin" transform="translate(0, 150)"><g data-id="f12vodmd" data-class="mdiv" class="mdiv pageMilestone"/><g data-id="g1jzdtgp" data-class="score" class="score pageMilestone"/><g data-id="k1kp7onf" data-class="system" class="system"><g data-id="i182101q" data-class="section" class="section systemMilestone"/><g data-id="x16tkeu4" data-class="measure" class="measure"><g data-id="u1rjnwlp" data-class="staff" class="staff"><path d="M0 540 L1962 540" stroke-width="13"/><path d="M0 720 L1962 720" stroke-width="13"/><path d="M0 900 L1962 900" stroke-width="13"/><path d="M0 1080 L1962 1080" stroke-width="13"/><path d="M0 1260 L1962 1260" stroke-width="13"/><g data-id="sraun64" data-class="clef" class="clef"><use href="#E050-w6hg5gx" transform="translate(90, 1080) scale(0.72, 0.72)"/></g><g data-id="t1kjtm1z" data-class="keySig" class="keySig"/><g data-id="ufevotu" data-class="meterSig" class="meterSig"><use href="#E08A-w6hg5gx" transform="translate(735, 900) scale(0.72, 0.72)"/></g><g data-id="v1wrty9j" data-class="layer" class="layer"><g data-id="wh94fzh" data-class="beam" class="beam"><polygon stroke-opacity="1" fill-opacity="1" points="1303,1485 1637,1440 1637,1350 1303,1395"/><polygon stroke-opacity="1" fill-opacity="1" points="1303,1350 1637,1305 1637,1215 1303,1260"/><g data-id="blrrdb7" data-class="note" class="note"><g data-class="notehead" class="notehead"><use href="#E0A4-w6hg5gx" transform="translate(1303, 810) scale(0.72, 0.72)"/></g><g data-id="kongoj5" data-class="stem" class="stem"><path d="M1312 838 L1312 1467" stroke-width="18"/></g></g><g data-id="cx4qrve" data-class="note" class="note"><g data-class="notehead" class="notehead"><use href="#E0A4-w6hg5gx" transform="translate(1619, 720) scale(0.72, 0.72)"/></g><g data-id="lol7azb" data-class="stem" class="stem"><path d="M1628 748 L1628 1422" stroke-width="18"/></g></g></g></g></g><g data-id="f1dxtg17" data-class="barLine" class="barLine"><path d="M1949 540 L1949 1260" stroke-width="27"/></g></g><g data-id="g3jm4ye" data-class="measure" class="measure"><g data-id="w1rrgtd6" data-class="staff" class="staff"><path d="M1962 540 L6875 540" stroke-width="13"/><path d="M1962 720 L6875 720" stroke-width="13"/><path d="M1962 900 L6875 900" stroke-width="13"/><path d="M1962 1080 L6875 1080" stroke-width="13"/><path d="M1962 1260 L6875 1260" stroke-width="13"/><g data-id="xe94405" data-class="layer" class="layer"><g data-id="x12y2no7" data-class="beam" class="beam"><polygon stroke-opacity="1" fill-opacity="1" points="2142,1350 2792,1530 2792,1440 2142,1260"/><polygon stroke-opacity="1" fill-opacity="1" points="2142,1215 2467,1305 2467,1215 2142,1125"/><g data-id="dm2hwe6" data-class="note" class="note"><g data-class="notehead" class="notehead"><use href="#E0A4-w6hg5gx" transform="translate(2142, 630) scale(0.72, 0.72)"/></g><g data-id="m1ycxskq" data-class="stem" class="stem"><path d="M2151 658 L2151 1332" stroke-width="18"/></g></g><g data-id="e7bdgvy" data-class="note" class="note"><g data-class="notehead" class="notehead"><use href="#E0A4-w6hg5gx" transform="translate(2458, 810) scale(0.72, 0.72)"/></g><g data-id="n1hh6ro1" data-class="stem" class="stem"><path d="M2467 838 L2467 1422" stroke-width="18"/></g></g><g data-id="f1nduln8" data-class="note" class="note"><g data-class="notehead" class="notehead"><use href="#E0A4-w6hg5gx" transform="translate(2774, 990) scale(0.72, 0.72)"/></g><g data-id="o1vths3a" data-class="stem" class="stem"><path d="M2783 1018 L2783 1512" stroke-width="18"/></g></g></g><g data-id="y16jab5t" data-class="rest" class="rest"><use href="#E4E7-w6hg5gx" transform="translate(3224, 900) scale(0.72, 0.72)"/></g><g data-id="y1d4cafo" data-class="beam" class="beam"><polygon stroke-opacity="1" fill-opacity="1" points="3547,1440 4197,1620 4197,1530 3547,1350"/><polygon stroke-opacity="1" fill-opacity="1" points="3547,1305 3872,1395 3872,1305 3547,1215"/><polygon stroke-opacity="1" fill-opacity="1" points="3872,1395 4197,1485 4197,1395 3872,1305"/><g data-id="giicvb7" data-class="note" class="note"><g data-class="notehead" class="notehead"><use href="#E0A4-w6hg5gx" transform="translate(3547, 630) scale(0.72, 0.72)"/></g><g data-id="pbo8nhx" data-class="stem" class="stem"><path d="M3556 658 L3556 1422" stroke-width="18"/></g></g><g data-id="hbga2yi" data-class="note" class="note"><g data-class="notehead" class="notehead"><use href="#E0A4-w6hg5gx" transform="translate(3863, 810) scale(0.72, 0.72)"/></g><g data-id="q6rjb96" data-class="stem" class="stem"><path d="M3872 838 L3872 1512" stroke-width="18"/></g></g><g data-id="i10fdter" data-class="note" class="note"><g data-class="notehead" class="notehead"><use href="#E0A4-w6hg5gx" transform="translate(4179, 990) scale(0.72, 0.72)"/></g><g data-id="r16psmoh" data-class="stem" class="stem"><path d="M4188 1018 L4188 1602" stroke-width="18"/></g></g></g><g data-id="z1pdeori" data-class="beam" class="beam"><polygon stroke-opacity="1" fill-opacity="1" points="4495,1350 5145,1530 5145,1440 4495,1260"/><polygon stroke-opacity="1" fill-opacity="1" points="4495,1215 4820,1305 4820,1215 4495,1125"/><g data-id="j366igy" data-class="note" class="note"><g data-class="notehead" class="notehead"><use href="#E0A4-w6hg5gx" transform="translate(4495, 540) scale(0.72, 0.72)"/></g><g data-id="sgjvxtx" data-class="stem" class="stem"><path d="M4504 568 L4504 1332" stroke-width="18"/></g></g><g data-id="kwlfjyi" data-class="note" class="note"><g data-class="notehead" class="notehead"><use href="#E0A4-w6hg5gx" transform="translate(4811, 720) scale(0.72, 0.72)"/></g><g data-id="t181el3w" data-class="stem" class="stem"><path d="M4820 748 L4820 1422" stroke-width="18"/></g></g><g data-id="l624rbp" data-class="note" class="note"><g data-class="notehead" class="notehead"><use href="#E0A4-w6hg5gx" transform="translate(5127, 990) scale(0.72, 0.72)"/></g><g data-id="u11v1u4u" data-class="stem" class="stem"><path d="M5136 1018 L5136 1512" stroke-width="18"/></g></g></g><g data-id="z11hztjr" data-class="rest" class="rest"><use href="#E4E7-w6hg5gx" transform="translate(5577, 900) scale(0.72, 0.72)"/></g><g data-id="anizj0a" data-class="beam" class="beam"><polygon stroke-opacity="1" fill-opacity="1" points="5900,1440 6550,1620 6550,1530 5900,1350"/><polygon stroke-opacity="1" fill-opacity="1" points="5900,1305 6225,1395 6225,1305 5900,1215"/><polygon stroke-opacity="1" fill-opacity="1" points="6225,1395 6550,1485 6550,1395 6225,1305"/><g data-id="m1t4ih5v" data-class="note" class="note"><g data-class="notehead" class="notehead"><use href="#E0A4-w6hg5gx" transform="translate(5900, 540) scale(0.72, 0.72)"/></g><g data-id="vll3hso" data-class="stem" class="stem"><path d="M5909 568 L5909 1422" stroke-width="18"/></g></g><g data-id="nz2bn76" data-class="note" class="note"><g data-class="notehead" class="notehead"><use href="#E0A4-w6hg5gx" transform="translate(6216, 720) scale(0.72, 0.72)"/></g><g data-id="w1qidiht" data-class="stem" class="stem"><path d="M6225 748 L6225 1512" stroke-width="18"/></g></g><g data-id="o1m0y56z" data-class="note" class="note"><g data-class="notehead" class="notehead"><use href="#E0A4-w6hg5gx" transform="translate(6532, 990) scale(0.72, 0.72)"/></g><g data-id="x1n4372u" data-class="stem" class="stem"><path d="M6541 1018 L6541 1602" stroke-width="18"/></g></g></g></g></g><g data-id="o1wyx8o3" data-class="barLine" class="barLine"><path d="M6862 540 L6862 1260" stroke-width="27"/></g></g><g data-id="ps4mhig" data-class="measure" class="measure"><g data-id="yc1nl52" data-class="staff" class="staff"><path d="M6875 540 L9550 540" stroke-width="13"/><path d="M6875 720 L9550 720" stroke-width="13"/><path d="M6875 900 L9550 900" stroke-width="13"/><path d="M6875 1080 L9550 1080" stroke-width="13"/><path d="M6875 1260 L9550 1260" stroke-width="13"/><g data-id="z6jcqzq" data-class="layer" class="layer"><g data-id="bpwm8ek" data-class="beam" class="beam"><polygon stroke-opacity="1" fill-opacity="1" points="7055,1440 7863,1620 7863,1530 7055,1350"/><polygon stroke-opacity="1" fill-opacity="1" points="7055,1305 7380,1377 7380,1287 7055,1215"/><g data-id="pzzfr7r" data-class="note" class="note"><g data-class="notehead" class="notehead"><use href="#E0A4-w6hg5gx" transform="translate(7055, 720) scale(0.72, 0.72)"/></g><g data-id="ypwvfko" data-class="stem" class="stem"><path d="M7064 748 L7064 1422" stroke-width="18"/></g></g><g data-id="q5xz7i7" data-class="note" class="note"><g data-class="notehead" class="notehead"><use href="#E0A4-w6hg5gx" transform="translate(7371, 900) scale(0.72, 0.72)"/></g><g data-id="zlrjmdl" data-class="stem" class="stem"><path d="M7380 928 L7380 1494" stroke-width="18"/></g></g><g data-id="r1efstkf" data-class="note" class="note"><g data-class="notehead" class="notehead"><use href="#E0A4-w6hg5gx" transform="translate(7845, 1080) scale(0.72, 0.72)"/></g><g data-id="a17zcvj8" data-class="stem" class="stem"><path d="M7854 1108 L7854 1602" stroke-width="18"/></g><g data-id="v1jmt21x" data-class="accid" class="accid"><use href="#E262-w6hg5gx" transform="translate(7659, 1080) scale(0.72, 0.72)"/></g></g></g><g data-id="a1xiez2v" data-class="rest" class="rest"><use href="#E4E7-w6hg5gx" transform="translate(8295, 900) scale(0.72, 0.72)"/></g><g data-id="cdxrevh" data-class="beam" class="beam"><polygon stroke-opacity="1" fill-opacity="1" points="8618,1530 9268,1710 9268,1620 8618,1440"/><polygon stroke-opacity="1" fill-opacity="1" points="8618,1395 8943,1485 8943,1395 8618,1305"/><polygon stroke-opacity="1" fill-opacity="1" points="8943,1485 9268,1575 9268,1485 8943,1395"/><g data-id="sb7ztp5" data-class="note" class="note"><g data-class="notehead" class="notehead"><use href="#E0A4-w6hg5gx" transform="translate(8618, 720) scale(0.72, 0.72)"/></g><g data-id="b1kpuw6d" data-class="stem" class="stem"><path d="M8627 748 L8627 1512" stroke-width="18"/></g></g><g data-id="t1pwlifi" data-class="note" class="note"><g data-class="notehead" class="notehead"><use href="#E0A4-w6hg5gx" transform="translate(8934, 900) scale(0.72, 0.72)"/></g><g data-id="c1vbt2p3" data-class="stem" class="stem"><path d="M8943 928 L8943 1602" stroke-width="18"/></g></g><g data-id="u3q4320" data-class="note" class="note"><g data-class="notehead" class="notehead"><use href="#E0A4-w6hg5gx" transform="translate(9250, 1080) scale(0.72, 0.72)"/></g><g data-id="d1vi0qf0" data-class="stem" class="stem"><path d="M9259 1108 L9259 1692" stroke-width="18"/></g><g data-id="d1xikqf9" data-class="accid" class="accid"/></g></g></g></g><g data-id="xkqx711" data-class="barLine" class="barLine"/></g><g data-id="h11fk1dw" data-class="systemMilestoneEnd" class="systemMilestoneEnd i182101q"/></g><g data-id="ise0hjf" data-class="pageMilestoneEnd" class="pageMilestoneEnd g1jzdtgp"/><g data-id="jrobd8o" data-class="pageMilestoneEnd" class="pageMilestoneEnd f12vodmd"/></g></svg></svg>