<svg viewBox="0 0 560 84" version="1.1" xmlns="http://www.w3.org/2000/svg" xmlns:xlink="http://www.w3.org/1999/xlink" overflow="visible" id="n6l2frv"><desc>Engraved by Verovio 5.6.0-85e7620</desc><defs><g id="E050-n6l2frv"><path transform="scale(1,-1)" d="M441 -245c-23 -4 -48 -6 -76 -6c-59 0 -102 7 -130 20c-88 42 -150 93 -187 154c-26 44 -43 103 -48 176c0 6 -1 13 -1 19c0 54 15 111 45 170c29 57 65 106 110 148s96 85 153 127c-3 16 -8 46 -13 92c-4 43 -5 73 -5 89c0 117 16 172 69 257c34 54 64 82 89 82 c21 0 43 -30 69 -92s39 -115 41 -159v-15c0 -109 -21 -162 -67 -241c-13 -20 -63 -90 -98 -118c-13 -9 -25 -19 -37 -29l31 -181c8 1 18 2 28 2c58 0 102 -12 133 -35c59 -43 92 -104 98 -184c1 -7 1 -15 1 -22c0 -123 -87 -209 -181 -248c8 -57 17 -110 25 -162 c5 -31 6 -58 6 -80c0 -30 -5 -53 -14 -70c-35 -64 -88 -99 -158 -103c-5 0 -11 -1 -16 -1c-37 0 -72 10 -108 27c-50 24 -77 59 -80 105v11c0 29 7 55 20 76c18 28 45 42 79 44h6c49 0 93 -42 97 -87v-9c0 -51 -34 -86 -105 -106c17 -24 51 -36 102 -36c62 0 116 43 140 85 c9 16 13 41 13 74c0 20 -1 42 -5 67c-8 53 -18 106 -26 159zM461 939c-95 0 -135 -175 -135 -286c0 -24 2 -48 5 -71c50 39 92 82 127 128c40 53 60 100 60 140v8c-4 53 -22 81 -55 81h-2zM406 119l54 -326c73 25 110 78 110 161c0 7 0 15 -1 23c-7 95 -57 142 -151 142h-12 zM382 117c-72 -2 -128 -47 -128 -120v-7c2 -46 43 -99 75 -115c-3 -2 -7 -5 -10 -10c-70 33 -116 88 -123 172v11c0 68 44 126 88 159c23 17 49 29 78 36l-29 170c-21 -13 -52 -37 -92 -73c-50 -44 -86 -84 -109 -119c-45 -69 -67 -130 -67 -182v-13c5 -68 35 -127 93 -176 s125 -73 203 -73c25 0 50 3 75 9c-19 111 -36 221 -54 331z"/></g><g id="E260-n6l2frv"><path transform="scale(1,-1)" d="M20 110c32 16 54 27 93 27c26 0 35 -3 54 -13c13 -7 24 -20 27 -38l4 -25c0 -28 -16 -57 -45 -89c-23 -25 -39 -44 -65 -68l-88 -79v644h20v-359zM90 106c-32 0 -48 -10 -70 -29v-194c31 31 54 59 71 84c21 32 32 59 32 84c0 9 1 16 1 20c0 14 -3 21 -11 30l-8 3z"/></g><g id="E083-n6l2frv"><path transform="scale(1,-1)" d="M208 250c97 0 177 -52 177 -116c0 -69 -40 -111 -118 -125c56 -5 125 -44 125 -116c0 -31 -10 -57 -31 -78c-19 -21 -45 -38 -78 -49l-50 -11c-15 -3 -36 -7 -55 -7c-50 0 -86 16 -113 38c-16 10 -23 18 -34 34c-7 13 -11 25 -11 38c0 43 27 83 68 83l3 -2 c61 0 75 -42 75 -70c0 -19 -24 -42 -26 -57c7 -17 20 -25 37 -25c44 0 94 29 94 78c0 75 -34 125 -138 125v36c84 0 131 22 131 98c0 54 -37 88 -87 88c-26 0 -43 -7 -51 -22c15 -22 44 -16 44 -70c0 -37 -37 -62 -71 -62c-22 0 -69 15 -69 76c0 79 101 116 178 116z"/></g><g id="E084-n6l2frv"><path transform="scale(1,-1)" d="M20 -78c84 97 114 180 134 329h170c-13 -32 -82 -132 -99 -151l-84 -97c-33 -36 -59 -63 -80 -81h162v102l127 123v-225h57v-39h-57v-34c0 -43 19 -65 57 -65v-34h-244v36c48 0 60 26 60 70v27h-203v39z"/></g><g id="E4E5-n6l2frv"><path transform="scale(1,-1)" d="M107 292c-13 24 -30 49 -52 71c-1 1 0 2 0 3l-2 2c3 3 4 4 6 4c12 0 26 -7 40 -20s44 -40 89 -81c26 -24 28 -29 46 -47c4 -4 8 -9 10 -14c6 -8 8 -16 8 -27c0 -19 -12 -40 -36 -61c-28 -23 -49 -38 -61 -73c-4 -11 -7 -27 -10 -50c13 -43 34 -83 59 -121 c31 -47 59 -79 101 -129c-8 0 -26 7 -54 20l-62 29l-21 6l-23 1c-25 0 -45 -10 -60 -30l-4 -14l-1 -12c0 -33 20 -56 39 -78c8 -9 17 -18 26 -26c17 -15 27 -24 28 -30l-3 -3c-11 5 -19 10 -25 15c-9 3 -37 21 -45 26c-24 14 -45 32 -63 51c-19 21 -37 44 -37 71 c0 63 27 95 80 95c41 0 86 -18 136 -52c-19 26 -37 48 -55 66c-23 23 -48 44 -73 65c-28 23 -47 40 -58 53s-17 26 -18 39c75 64 113 125 113 183c0 27 -7 48 -18 68z"/></g><g id="E4E6-n6l2frv"><path transform="scale(1,-1)" d="M0 123c7 34 33 56 69 60c29 -3 43 -9 53 -29c4 -8 7 -15 10 -22c0 -21 -1 -25 -11 -35c-5 -8 -18 -14 -40 -20l12 -3l15 -1c44 0 97 26 122 56c10 11 18 26 24 42c7 1 15 2 22 3l-140 -424h-36l111 330c-10 -6 -27 -12 -53 -16l-52 -8h-10l-20 1c-1 0 -8 3 -21 6 c-37 9 -55 28 -55 60z"/></g><g id="E0A4-n6l2frv"><path transform="scale(1,-1)" d="M0 -39c0 68 73 172 200 172c66 0 114 -37 114 -95c0 -84 -106 -171 -218 -171c-64 0 -96 30 -96 94z"/></g><g id="E261-n6l2frv"><path transform="scale(1,-1)" d="M0 -188v539h18v-191l139 22v-533h-17v186zM18 -100l122 17v176l-122 -19v-174z"/></g></defs><style type="text/css">#n6l2frv g.page-margin {font-family:Times,serif;}#n6l2frv g.ending, #n6l2frv g.fing, #n6l2frv g.reh, #n6l2frv g.tempo {font-weight:bold;}#n6l2frv g.dir, #n6l2frv g.dynam, #n6l2frv g.mNum {font-style:italic;}#n6l2frv g.label {font-weight:normal;}#n6l2frv path {stroke:currentColor}</style><svg class="definition-scale" color="black" viewBox="0 0 14000 2100"><g class="page-margin" transform="translate(0, 150)"><g data-id="pfht4cu" data-class="mdiv" class="mdiv pageMilestone"/><g data-id="qdj8yz2" data-class="score" class="score pageMilestone"/><g data-id="u13mboxl" data-class="system" class="system"><g data-id="s15cs00b" data-class="section" class="section systemMilestone"/><g data-id="o14sj0ir" data-class="measure" class="measure"><g data-id="e947uuo" data-class="staff" class="staff"><path d="M0 540 L4688 540" stroke-width="13"/><path d="M0 720 L4688 720" stroke-width="13"/><path d="M0 900 L4688 900" stroke-width="13"/><path d="M0 1080 L4688 1080" stroke-width="13"/><path d="M0 1260 L4688 1260" stroke-width="13"/><g data-id="z1dkv2zj" data-class="clef" class="clef"><use href="#E050-n6l2frv" transform="translate(90, 1080) scale(0.72, 0.72)"/></g><g data-id="a14zp658" data-class="keySig" class="keySig"><g data-id="bobrkac" data-class="keyAccid" class="keyAccid"><use href="#E260-n6l2frv" transform="translate(735, 900) scale(0.72, 0.72)"/></g><g data-id="cxphzsu" data-class="keyAccid" class="keyAccid"><use href="#E260-n6l2frv" transform="translate(915, 630) scale(0.72, 0.72)"/></g><g data-id="dtq873i" data-class="keyAccid" class="keyAccid"><use href="#E260-n6l2frv" transform="translate(1095, 990) scale(0.72, 0.72)"/></g></g><g data-id="e1c6ydrw" data-class="meterSig" class="meterSig"><use href="#E083-n6l2frv" transform="translate(1409, 720) scale(0.72, 0.72)"/><use href="#E084-n6l2frv" transform="translate(1403, 1080) scale(0.72, 0.72)"/></g><g data-id="fb0ev02" data-class="layer" class="layer"><g data-id="h1eeqsmo" data-class="rest" class="rest"><use href="#E4E5-n6l2frv" transform="translate(1979, 900) scale(0.72, 0.72)"/></g><g data-id="ilb23dc" data-class="rest" class="rest"><use href="#E4E6-n6l2frv" transform="translate(2719, 900) scale(0.72, 0.72)"/></g><g data-id="e1chf8dp" data-class="beam" class="beam"><polygon stroke-opacity="1" fill-opacity="1" points="3409,360 4418,360 4418,450 3409,450"/><g data-id="j14qz8sv" data-class="note" class="note"><g data-class="notehead" class="notehead"><use href="#E0A4-n6l2frv" transform="translate(3201, 1080) scale(0.72, 0.72)"/></g><g data-id="buro01r" data-class="stem" class="stem"><path d="M3418 1052 L3418 378" stroke-width="18"/></g></g><g data-id="kz4e0sx" data-class="note" class="note"><g data-class="notehead" class="notehead"><use href="#E0A4-n6l2frv" transform="translate(3684, 990) scale(0.72, 0.72)"/></g><g data-id="ce9lmtj" data-class="stem" class="stem"><path d="M3901 962 L3901 378" stroke-width="18"/></g><g data-id="i1n2izve" data-class="accid" class="accid"/></g><g data-id="lkm6fv" data-class="note" class="note"><g data-class="notehead" class="notehead"><use href="#E0A4-n6l2frv" transform="translate(4192, 990) scale(0.72, 0.72)"/></g><g data-id="d1ld8t4l" data-class="stem" class="stem"><path d="M4409 962 L4409 378" stroke-width="18"/></g><g data-id="bi5m9ya" data-class="accid" class="accid"><use href="#E261-n6l2frv" transform="translate(4034, 990) scale(0.72, 0.72)"/></g></g></g></g></g><g data-id="wsww9o3" data-class="barLine" class="barLine"><path d="M4675 540 L4675 1260" stroke-width="27"/></g></g><g data-id="xfa0i4u" data-class="measure" class="measure"><g data-id="gy5ch53" data-class="staff" class="staff"><path d="M4688 540 L7286 540" stroke-width="13"/><path d="M4688 720 L7286 720" stroke-width="13"/><path d="M4688 900 L7286 900" stroke-width="13"/><path d="M4688 1080 L7286 1080" stroke-width="13"/><path d="M4688 1260 L7286 1260" stroke-width="13"/><g data-id="h10oecgb" data-class="layer" class="layer"><g data-id="mw6fgd9" data-class="note" class="note"><g data-class="notehead" class="notehead"><use href="#E0A4-n6l2frv" transform="translate(4882, 900) scale(0.72, 0.72)"/></g><g data-id="f1x3s275" data-class="dots" class="dots"><ellipse cx="5198" cy="810" rx="36" ry="36" fill-opacity="1" stroke-opacity="1"/></g><g data-id="eaa5ks8" data-class="stem" class="stem"><path d="M4891 928 L4891 1500" stroke-width="18"/></g><g data-id="j1rcj13t" data-class="accid" class="accid"/></g><g data-id="f1tujvj5" data-class="beam" class="beam"><polygon stroke-opacity="1" fill-opacity="1" points="5825,1440 6809,1260 6809,1170 5825,1350"/><g data-id="n1kpuq3a" data-class="note" class="note"><g data-class="notehead" class="notehead"><use href="#E0A4-n6l2frv" transform="translate(5825, 810) scale(0.72, 0.72)"/></g><g data-id="gj0zmh6" data-class="stem" class="stem"><path d="M5834 838 L5834 1422" stroke-width="18"/></g></g><g data-id="owulav6" data-class="note" class="note"><g data-class="notehead" class="notehead"><use href="#E0A4-n6l2frv" transform="translate(6308, 720) scale(0.72, 0.72)"/></g><g data-id="h1ns8tao" data-class="stem" class="stem"><path d="M6317 748 L6317 1332" stroke-width="18"/></g></g><g data-id="p1pbxm90" data-class="note" class="note"><g data-class="notehead" class="notehead"><use href="#E0A4-n6l2frv" transform="translate(6791, 630) scale(0.72, 0.72)"/></g><g data-id="i1kohofb" data-class="stem" class="stem"><path d="M6800 658 L6800 1242" stroke-width="18"/></g><g data-id="keqx5jr" data-class="accid" class="accid"/></g></g></g></g><g data-id="f5b76gz" data-class="barLine" class="barLine"><path d="M7273 540 L7273 1260" stroke-width="27"/></g></g><g data-id="ggedaft" data-class="measure" class="measure"><g data-id="i1gif9w5" data-class="staff" class="staff"><path d="M7286 540 L9884 540" stroke-width="13"/><path d="M7286 720 L9884 720" stroke-width="13"/><path d="M7286 900 L9884 900" stroke-width="13"/><path d="M7286 1080 L9884 1080" stroke-width="13"/><path d="M7286 1260 L9884 1260" stroke-width="13"/><g data-id="jahl941" data-class="layer" class="layer"><g data-id="q3065r1" data-class="note" class="note"><g data-class="notehead" class="notehead"><use href="#E0A4-n6l2frv" transform="translate(7480, 450) scale(0.72, 0.72)"/></g><g data-id="k5msf0y" data-class="dots" class="dots"><ellipse cx="7796" cy="450" rx="36" ry="36" fill-opacity="1" stroke-opacity="1"/></g><g data-id="j1ddyn6v" data-class="stem" class="stem"><path d="M7489 478 L7489 1080" stroke-width="18"/></g></g><g data-id="gyoi0g2" data-class="beam" class="beam"><polygon stroke-opacity="1" fill-opacity="1" points="8423,1125 9407,1305 9407,1215 8423,1035"/><g data-id="r1xnqswl" data-class="note" class="note"><g data-class="notehead" class="notehead"><use href="#E0A4-n6l2frv" transform="translate(8423, 540) scale(0.72, 0.72)"/></g><g data-id="l1jbsyue" data-class="stem" class="stem"><path d="M8432 568 L8432 1107" stroke-width="18"/></g></g><g data-id="ss0t8cy" data-class="note" class="note"><g data-class="notehead" class="notehead"><use href="#E0A4-n6l2frv" transform="translate(8906, 630) scale(0.72, 0.72)"/></g><g data-id="m1bocdwt" data-class="stem" class="stem"><path d="M8915 658 L8915 1197" stroke-width="18"/></g><g data-id="l1b5s61b" data-class="accid" class="accid"/></g><g data-id="tyw5f51" data-class="note" class="note"><g data-class="notehead" class="notehead"><use href="#E0A4-n6l2frv" transform="translate(9389, 720) scale(0.72, 0.72)"/></g><g data-id="n1e1lliz" data-class="stem" class="stem"><path d="M9398 748 L9398 1287" stroke-width="18"/></g></g></g></g></g><g data-id="ocmx8vh" data-class="barLine" class="barLine"><path d="M9871 540 L9871 1260" stroke-width="27"/></g></g><g data-id="p8xzpfd" data-class="measure" class="measure"><g data-id="k1jaollc" data-class="staff" class="staff"><path d="M9884 540 L13069 540" stroke-width="13"/><path d="M9884 720 L13069 720" stroke-width="13"/><path d="M9884 900 L13069 900" stroke-width="13"/><path d="M9884 1080 L13069 1080" stroke-width="13"/><path d="M9884 1260 L13069 1260" stroke-width="13"/><g data-id="lw7kw9b" data-class="layer" class="layer"><g data-id="h1i8fbzb" data-class="beam" class="beam"><polygon stroke-opacity="1" fill-opacity="1" points="10078,1530 12591,1530 12591,1440 10078,1440"/><g data-id="u1yf0jea" data-class="note" class="note"><g data-class="notehead" class="notehead"><use href="#E0A4-n6l2frv" transform="translate(10078, 810) scale(0.72, 0.72)"/></g><g data-id="opz365p" data-class="stem" class="stem"><path d="M10087 838 L10087 1512" stroke-width="18"/></g></g><g data-id="vjupn0c" data-class="note" class="note"><g data-class="notehead" class="notehead"><use href="#E0A4-n6l2frv" transform="translate(10560, 900) scale(0.72, 0.72)"/></g><g data-id="p1r34992" data-class="stem" class="stem"><path d="M10569 928 L10569 1512" stroke-width="18"/></g><g data-id="m1kdc6jm" data-class="accid" class="accid"/></g><g data-id="w1sv5qn2" data-class="note" class="note"><g data-class="notehead" class="notehead"><use href="#E0A4-n6l2frv" transform="translate(11069, 990) scale(0.72, 0.72)"/></g><g data-id="qlw4ez5" data-class="stem" class="stem"><path d="M11078 1018 L11078 1512" stroke-width="18"/></g><g data-id="cp8pg2r" data-class="accid" class="accid"><use href="#E261-n6l2frv" transform="translate(10911, 990) scale(0.72, 0.72)"/></g></g><g data-id="x1aegyh6" data-class="note" class="note"><g data-class="notehead" class="notehead"><use href="#E0A4-n6l2frv" transform="translate(11608, 990) scale(0.72, 0.72)"/></g><g data-id="r15ze1ui" data-class="stem" class="stem"><path d="M11617 1018 L11617 1512" stroke-width="18"/></g><g data-id="d1d4rwjl" data-class="accid" class="accid"><use href="#E260-n6l2frv" transform="translate(11421, 990) scale(0.72, 0.72)"/></g></g><g data-id="yptgzjh" data-class="note" class="note"><g data-class="notehead" class="notehead"><use href="#E0A4-n6l2frv" transform="translate(12091, 810) scale(0.72, 0.72)"/></g><g data-id="s192h8lo" data-class="stem" class="stem"><path d="M12100 838 L12100 1512" stroke-width="18"/></g></g><g data-id="ze0lqos" data-class="note" class="note"><g data-class="notehead" class="notehead"><use href="#E0A4-n6l2frv" transform="translate(12573, 990) scale(0.72, 0.72)"/></g><g data-id="t1d0fib2" data-class="stem" class="stem"><path d="M12582 1018 L12582 1512" stroke-width="18"/></g><g data-id="njq3532" data-class="accid" class="accid"/></g></g></g></g><g data-id="xumwlek" data-class="barLine" class="barLine"><path d="M13056 540 L13056 1260" stroke-width="27"/></g></g><g data-id="yx2dx54" data-class="measure" class="measure"><g data-id="m17piv7d" data-class="staff" class="staff"><path d="M13069 540 L14003 540" stroke-width="13"/><path d="M13069 720 L14003 720" stroke-width="13"/><path d="M13069 900 L14003 900" stroke-width="13"/><path d="M13069 1080 L14003 1080" stroke-width="13"/><path d="M13069 1260 L14003 1260" stroke-width="13"/><g data-id="ndycejw" data-class="layer" class="layer"><g data-id="acl9dqn" data-class="note" class="note"><g data-class="notehead" class="notehead"><use href="#E0A4-n6l2frv" transform="translate(13263, 1080) scale(0.72, 0.72)"/></g><g data-id="u1t31l3l" data-class="stem" class="stem"><path d="M13480 1052 L13480 450" stroke-width="18"/></g></g></g></g><g data-id="gno40m9" data-class="barLine" class="barLine"/></g><g data-id="v1nndrf4" data-class="systemMilestoneEnd" class="systemMilestoneEnd s15cs00b"/></g><g data-id="wyjg40b" data-class="pageMilestoneEnd" class="pageMilestoneEnd qdj8yz2"/><g data-id="x1uums1m" data-class="pageMilestoneEnd" class="pageMilestoneEnd pfht4cu"/></g></svg></svg>