<svg viewBox="0 0 560 84" version="1.1" xmlns="http://www.w3.org/2000/svg" xmlns:xlink="http://www.w3.org/1999/xlink" overflow="visible" id="nv900f6"><desc>Engraved by Verovio 5.6.0-85e7620</desc><defs><g id="E050-nv900f6"><path transform="scale(1,-1)" d="M441 -245c-23 -4 -48 -6 -76 -6c-59 0 -102 7 -130 20c-88 42 -150 93 -187 154c-26 44 -43 103 -48 176c0 6 -1 13 -1 19c0 54 15 111 45 170c29 57 65 106 110 148s96 85 153 127c-3 16 -8 46 -13 92c-4 43 -5 73 -5 89c0 117 16 172 69 257c34 54 64 82 89 82 c21 0 43 -30 69 -92s39 -115 41 -159v-15c0 -109 -21 -162 -67 -241c-13 -20 -63 -90 -98 -118c-13 -9 -25 -19 -37 -29l31 -181c8 1 18 2 28 2c58 0 102 -12 133 -35c59 -43 92 -104 98 -184c1 -7 1 -15 1 -22c0 -123 -87 -209 -181 -248c8 -57 17 -110 25 -162 c5 -31 6 -58 6 -80c0 -30 -5 -53 -14 -70c-35 -64 -88 -99 -158 -103c-5 0 -11 -1 -16 -1c-37 0 -72 10 -108 27c-50 24 -77 59 -80 105v11c0 29 7 55 20 76c18 28 45 42 79 44h6c49 0 93 -42 97 -87v-9c0 -51 -34 -86 -105 -106c17 -24 51 -36 102 -36c62 0 116 43 140 85 c9 16 13 41 13 74c0 20 -1 42 -5 67c-8 53 -18 106 -26 159zM461 939c-95 0 -135 -175 -135 -286c0 -24 2 -48 5 -71c50 39 92 82 127 128c40 53 60 100 60 140v8c-4 53 -22 81 -55 81h-2zM406 119l54 -326c73 25 110 78 110 161c0 7 0 15 -1 23c-7 95 -57 142 -151 142h-12 zM382 117c-72 -2 -128 -47 -128 -120v-7c2 -46 43 -99 75 -115c-3 -2 -7 -5 -10 -10c-70 33 -116 88 -123 172v11c0 68 44 126 88 159c23 17 49 29 78 36l-29 170c-21 -13 -52 -37 -92 -73c-50 -44 -86 -84 -109 -119c-45 -69 -67 -130 -67 -182v-13c5 -68 35 -127 93 -176 s125 -73 203 -73c25 0 50 3 75 9c-19 111 -36 221 -54 331z"/></g><g id="E086-nv900f6"><path transform="scale(1,-1)" d="M284 -91c0 37 -28 92 -67 92c-35 0 -65 -54 -65 -111c0 -52 22 -104 68 -104c47 0 64 68 64 123zM230 214c-36 0 -90 -33 -90 -184l2 -36c40 24 81 36 120 36c80 0 140 -48 140 -121c0 -99 -99 -159 -182 -159c-160 0 -200 173 -200 244c0 21 2 43 7 71l10 35 c26 85 73 115 98 126c41 19 74 24 103 24c93 0 142 -63 142 -105c0 -58 -52 -72 -73 -72c-33 0 -59 24 -65 35c-3 5 -6 14 -7 25l11 30c6 15 9 27 9 35c0 11 -9 16 -25 16z"/></g><g id="E088-nv900f6"><path transform="scale(1,-1)" d="M195 -214c76 0 88 58 90 68c0 34 -35 60 -57 73l-52 29c-21 10 -32 17 -34 20c-39 -33 -58 -54 -62 -92c5 -23 23 -98 115 -98zM301 135c0 61 -72 76 -113 76c-40 0 -77 -17 -77 -51c3 -21 15 -38 26 -50c17 -15 33 -26 48 -34l65 -28c34 27 51 56 51 87zM176 -250 c-57 0 -166 26 -166 132c0 47 30 86 89 116c-33 15 -79 60 -79 119c0 79 85 132 178 132h18c5 0 21 1 28 -1c25 0 126 -30 126 -110c0 -37 -23 -76 -69 -116c43 -25 83 -71 83 -119c0 -101 -118 -153 -208 -153z"/></g><g id="E0A4-nv900f6"><path transform="scale(1,-1)" d="M0 -39c0 68 73 172 200 172c66 0 114 -37 114 -95c0 -84 -106 -171 -218 -171c-64 0 -96 30 -96 94z"/></g><g id="E260-nv900f6"><path transform="scale(1,-1)" d="M20 110c32 16 54 27 93 27c26 0 35 -3 54 -13c13 -7 24 -20 27 -38l4 -25c0 -28 -16 -57 -45 -89c-23 -25 -39 -44 -65 -68l-88 -79v644h20v-359zM90 106c-32 0 -48 -10 -70 -29v-194c31 31 54 59 71 84c21 32 32 59 32 84c0 9 1 16 1 20c0 14 -3 21 -11 30l-8 3z"/></g><g id="E262-nv900f6"><path transform="scale(1,-1)" d="M136 186v169h17v-164l44 14v-91l-44 -14v-165l44 12v-91l-44 -13v-155h-17v150l-76 -22v-155h-17v149l-43 -13v90l43 14v167l-43 -14v92l43 13v169h17v-163zM60 73v-167l76 22v168z"/></g><g id="E261-nv900f6"><path transform="scale(1,-1)" d="M0 -188v539h18v-191l139 22v-533h-17v186zM18 -100l122 17v176l-122 -19v-174z"/></g><g id="E241-nv900f6"><path transform="scale(1,-1)" d="M179 646c-4 8 -17 30 -18 33l-4 10c0 3 2 5 5 5s7 -2 13 -7c23 -33 46 -81 66 -132c22 -57 35 -125 35 -163c0 -104 -60 -183 -122 -241c-63 -59 -57 -53 -61 -56c-38 -34 -63 -95 -71 -95h-22v190c40 7 69 11 87 16c88 27 168 95 168 200c0 30 -12 89 -30 138 c-17 47 -31 73 -46 102z"/></g></defs><style type="text/css">#nv900f6 g.page-margin {font-family:Times,serif;}#nv900f6 g.ending, #nv900f6 g.fing, #nv900f6 g.reh, #nv900f6 g.tempo {font-weight:bold;}#nv900f6 g.dir, #nv900f6 g.dynam, #nv900f6 g.mNum {font-style:italic;}#nv900f6 g.label {font-weight:normal;}#nv900f6 path {stroke:currentColor}</style><svg class="definition-scale" color="black" viewBox="0 0 14000 2100"><g class="page-margin" transform="translate(0, 150)"><g data-id="wpf9rmc" data-class="mdiv" class="mdiv pageMilestone"/><g data-id="x1pa3v5k" data-class="score" class="score pageMilestone"/><g data-id="xj5cmc8" data-class="system" class="system"><g data-id="zpzwxeg" data-class="section" class="section systemMilestone"/><g data-id="og0n8r3" data-class="measure" class="measure"><g data-id="luq1hm6" data-class="staff" class="staff"><path d="M0 540 L5658 540" stroke-width="13"/><path d="M0 720 L5658 720" stroke-width="13"/><path d="M0 900 L5658 900" stroke-width="13"/><path d="M0 1080 L5658 1080" stroke-width="13"/><path d="M0 1260 L5658 1260" stroke-width="13"/><g data-id="f1ljupka" data-class="clef" class="clef"><use href="#E050-nv900f6" transform="translate(90, 1080) scale(0.72, 0.72)"/></g><g data-id="gwmg0j1" data-class="keySig" class="keySig"/><g data-id="h1jgczrj" data-class="meterSig" class="meterSig"><use href="#E086-nv900f6" transform="translate(721, 720) scale(0.72, 0.72)"/><use href="#E088-nv900f6" transform="translate(728, 1080) scale(0.72, 0.72)"/></g><g data-id="m1cu17zi" data-class="layer" class="layer"><g data-id="l1tudlb" data-class="beam" class="beam"><polygon stroke-opacity="1" fill-opacity="1" points="1488,360 3645,360 3645,450 1488,450"/><polygon stroke-opacity="1" fill-opacity="1" points="1488,495 2000,495 2000,585 1488,585"/><polygon stroke-opacity="1" fill-opacity="1" points="2000,495 2316,495 2316,585 2000,585"/><polygon stroke-opacity="1" fill-opacity="1" points="2316,495 2818,495 2818,585 2316,585"/><polygon stroke-opacity="1" fill-opacity="1" points="2818,495 3320,495 3320,585 2818,585"/><polygon stroke-opacity="1" fill-opacity="1" points="3320,495 3645,495 3645,585 3320,585"/><g data-id="gd6ckra" data-class="note" class="note"><g data-class="notehead" class="notehead"><use href="#E0A4-nv900f6" transform="translate(1280, 1080) scale(0.72, 0.72)"/></g><g data-id="zqmi6jo" data-class="stem" class="stem"><path d="M1497 1052 L1497 378" stroke-width="18"/></g></g><g data-id="hos3mm2" data-class="note" class="note"><g data-class="notehead" class="notehead"><use href="#E0A4-nv900f6" transform="translate(1783, 990) scale(0.72, 0.72)"/></g><g data-id="a10lby53" data-class="stem" class="stem"><path d="M2000 962 L2000 378" stroke-width="18"/></g><g data-id="dbbndps" data-class="accid" class="accid"><use href="#E260-nv900f6" transform="translate(1596, 990) scale(0.72, 0.72)"/></g></g><g data-id="i1sxlis4" data-class="note" class="note"><g data-class="notehead" class="notehead"><use href="#E0A4-nv900f6" transform="translate(2099, 1080) scale(0.72, 0.72)"/></g><g data-id="b1lukmc" data-class="stem" class="stem"><path d="M2316 1052 L2316 378" stroke-width="18"/></g></g><g data-id="j1wm8nh6" data-class="note" class="note"><g data-class="notehead" class="notehead"><use href="#E0A4-nv900f6" transform="translate(2601, 1170) scale(0.72, 0.72)"/></g><g data-id="c1tb1fxu" data-class="stem" class="stem"><path d="M2818 1142 L2818 378" stroke-width="18"/></g><g data-id="e1l25ktx" data-class="accid" class="accid"><use href="#E262-nv900f6" transform="translate(2415, 1170) scale(0.72, 0.72)"/></g></g><g data-id="k7n1vya" data-class="note" class="note"><g data-class="notehead" class="notehead"><use href="#E0A4-nv900f6" transform="translate(3103, 1260) scale(0.72, 0.72)"/></g><g data-id="d1cmj0xs" data-class="stem" class="stem"><path d="M3320 1232 L3320 378" stroke-width="18"/></g><g data-id="f1j5413o" data-class="accid" class="accid"><use href="#E262-nv900f6" transform="translate(2917, 1260) scale(0.72, 0.72)"/></g></g><g data-id="l13hswdr" data-class="note" class="note"><g data-class="notehead" class="notehead"><use href="#E0A4-nv900f6" transform="translate(3419, 1170) scale(0.72, 0.72)"/></g><g data-id="e49aln2" data-class="stem" class="stem"><path d="M3636 1142 L3636 378" stroke-width="18"/></g><g data-id="phn5v05" data-class="accid" class="accid"/></g></g><g data-id="mtq9s6a" data-class="beam" class="beam"><polygon stroke-opacity="1" fill-opacity="1" points="3943,360 5541,360 5541,450 3943,450"/><polygon stroke-opacity="1" fill-opacity="1" points="3943,495 4268,495 4268,585 3943,585"/><polygon stroke-opacity="1" fill-opacity="1" points="4268,495 4584,495 4584,585 4268,585"/><polygon stroke-opacity="1" fill-opacity="1" points="4584,495 4900,495 4900,585 4584,585"/><polygon stroke-opacity="1" fill-opacity="1" points="4900,495 5216,495 5216,585 4900,585"/><polygon stroke-opacity="1" fill-opacity="1" points="5216,495 5541,495 5541,585 5216,585"/><g data-id="mofgudd" data-class="note" class="note"><g data-class="notehead" class="notehead"><use href="#E0A4-nv900f6" transform="translate(3735, 1080) scale(0.72, 0.72)"/></g><g data-id="f4la9c2" data-class="stem" class="stem"><path d="M3952 1052 L3952 378" stroke-width="18"/></g></g><g data-id="ndwk4ud" data-class="note" class="note"><g data-class="notehead" class="notehead"><use href="#E0A4-nv900f6" transform="translate(4051, 990) scale(0.72, 0.72)"/></g><g data-id="gyiihdh" data-class="stem" class="stem"><path d="M4268 962 L4268 378" stroke-width="18"/></g><g data-id="q1k0egiy" data-class="accid" class="accid"/></g><g data-id="o6bavov" data-class="note" class="note"><g data-class="notehead" class="notehead"><use href="#E0A4-nv900f6" transform="translate(4367, 1080) scale(0.72, 0.72)"/></g><g data-id="h1m2gg9u" data-class="stem" class="stem"><path d="M4584 1052 L4584 378" stroke-width="18"/></g></g><g data-id="pob0ezj" data-class="note" class="note"><g data-class="notehead" class="notehead"><use href="#E0A4-nv900f6" transform="translate(4683, 1170) scale(0.72, 0.72)"/></g><g data-id="iuea49s" data-class="stem" class="stem"><path d="M4900 1142 L4900 378" stroke-width="18"/></g><g data-id="r9z1u26" data-class="accid" class="accid"/></g><g data-id="q1eits1b" data-class="note" class="note"><g data-class="notehead" class="notehead"><use href="#E0A4-nv900f6" transform="translate(4999, 1260) scale(0.72, 0.72)"/></g><g data-id="jzqen5i" data-class="stem" class="stem"><path d="M5216 1232 L5216 378" stroke-width="18"/></g><g data-id="sxc719l" data-class="accid" class="accid"/></g><g data-id="r1ha6n00" data-class="note" class="note"><g data-class="notehead" class="notehead"><use href="#E0A4-nv900f6" transform="translate(5315, 1170) scale(0.72, 0.72)"/></g><g data-id="k1gjder5" data-class="stem" class="stem"><path d="M5532 1142 L5532 378" stroke-width="18"/></g><g data-id="t1nx9jph" data-class="accid" class="accid"/></g></g></g></g><g data-id="wesc307" data-class="barLine" class="barLine"><path d="M5645 540 L5645 1260" stroke-width="27"/></g></g><g data-id="x1r5vv0e" data-class="measure" class="measure"><g data-id="n19el17a" data-class="staff" class="staff"><path d="M5658 540 L10336 540" stroke-width="13"/><path d="M5658 720 L10336 720" stroke-width="13"/><path d="M5658 900 L10336 900" stroke-width="13"/><path d="M5658 1080 L10336 1080" stroke-width="13"/><path d="M5658 1260 L10336 1260" stroke-width="13"/><g data-id="o1y2rkvv" data-class="layer" class="layer"><g data-id="n1ur1b6a" data-class="beam" class="beam"><polygon stroke-opacity="1" fill-opacity="1" points="6046,360 8203,360 8203,450 6046,450"/><polygon stroke-opacity="1" fill-opacity="1" points="6046,495 6558,495 6558,585 6046,585"/><polygon stroke-opacity="1" fill-opacity="1" points="6558,495 6874,495 6874,585 6558,585"/><polygon stroke-opacity="1" fill-opacity="1" points="6874,495 7376,495 7376,585 6874,585"/><polygon stroke-opacity="1" fill-opacity="1" points="7376,495 7878,495 7878,585 7376,585"/><polygon stroke-opacity="1" fill-opacity="1" points="7878,495 8203,495 8203,585 7878,585"/><g data-id="s1lk571" data-class="note" class="note"><g data-class="notehead" class="notehead"><use href="#E0A4-nv900f6" transform="translate(5838, 1080) scale(0.72, 0.72)"/></g><g data-id="l134ywo3" data-class="stem" class="stem"><path d="M6055 1052 L6055 378" stroke-width="18"/></g></g><g data-id="t12metqr" data-class="note" class="note"><g data-class="notehead" class="notehead"><use href="#E0A4-nv900f6" transform="translate(6341, 990) scale(0.72, 0.72)"/></g><g data-id="mhzh7mv" data-class="stem" class="stem"><path d="M6558 962 L6558 378" stroke-width="18"/></g><g data-id="g1x96s0e" data-class="accid" class="accid"><use href="#E260-nv900f6" transform="translate(6154, 990) scale(0.72, 0.72)"/></g></g><g data-id="u163hs2p" data-class="note" class="note"><g data-class="notehead" class="notehead"><use href="#E0A4-nv900f6" transform="translate(6657, 1080) scale(0.72, 0.72)"/></g><g data-id="n17l0yhf" data-class="stem" class="stem"><path d="M6874 1052 L6874 378" stroke-width="18"/></g></g><g data-id="v192rw53" data-class="note" class="note"><g data-class="notehead" class="notehead"><use href="#E0A4-nv900f6" transform="translate(7159, 1170) scale(0.72, 0.72)"/></g><g data-id="o10ttkqb" data-class="stem" class="stem"><path d="M7376 1142 L7376 378" stroke-width="18"/></g><g data-id="h9dcxkw" data-class="accid" class="accid"><use href="#E262-nv900f6" transform="translate(6973, 1170) scale(0.72, 0.72)"/></g></g><g data-id="wx4m7v4" data-class="note" class="note"><g data-class="notehead" class="notehead"><use href="#E0A4-nv900f6" transform="translate(7661, 1260) scale(0.72, 0.72)"/></g><g data-id="p1ufzgm8" data-class="stem" class="stem"><path d="M7878 1232 L7878 378" stroke-width="18"/></g><g data-id="ii5zk49" data-class="accid" class="accid"><use href="#E262-nv900f6" transform="translate(7475, 1260) scale(0.72, 0.72)"/></g></g><g data-id="xs9e9gd" data-class="note" class="note"><g data-class="notehead" class="notehead"><use href="#E0A4-nv900f6" transform="translate(7977, 1170) scale(0.72, 0.72)"/></g><g data-id="q12tsvwo" data-class="stem" class="stem"><path d="M8194 1142 L8194 378" stroke-width="18"/></g><g data-id="u1mztxp1" data-class="accid" class="accid"/></g></g><g data-id="oty5sgu" data-class="beam" class="beam"><polygon stroke-opacity="1" fill-opacity="1" points="8501,360 9783,360 9783,450 8501,450"/><polygon stroke-opacity="1" fill-opacity="1" points="8501,495 8984,495 8984,585 8501,585"/><polygon stroke-opacity="1" fill-opacity="1" points="8984,495 9300,495 9300,585 8984,585"/><polygon stroke-opacity="1" fill-opacity="1" points="9300,495 9783,495 9783,585 9300,585"/><g data-id="y1q9b3vm" data-class="note" class="note"><g data-class="notehead" class="notehead"><use href="#E0A4-nv900f6" transform="translate(8293, 1080) scale(0.72, 0.72)"/></g><g data-id="rqktt6i" data-class="stem" class="stem"><path d="M8510 1052 L8510 378" stroke-width="18"/></g></g><g data-id="zvpg1ir" data-class="note" class="note"><g data-class="notehead" class="notehead"><use href="#E0A4-nv900f6" transform="translate(8767, 990) scale(0.72, 0.72)"/></g><g data-id="s1ir13a4" data-class="stem" class="stem"><path d="M8984 962 L8984 378" stroke-width="18"/></g><g data-id="j1ktn4co" data-class="accid" class="accid"><use href="#E261-nv900f6" transform="translate(8609, 990) scale(0.72, 0.72)"/></g></g><g data-id="ae4dzo" data-class="note" class="note"><g data-class="notehead" class="notehead"><use href="#E0A4-nv900f6" transform="translate(9083, 1080) scale(0.72, 0.72)"/></g><g data-id="t1d6jjsf" data-class="stem" class="stem"><path d="M9300 1052 L9300 378" stroke-width="18"/></g></g><g data-id="bo5horq" data-class="note" class="note"><g data-class="notehead" class="notehead"><use href="#E0A4-nv900f6" transform="translate(9557, 1170) scale(0.72, 0.72)"/></g><g data-id="ucj4l69" data-class="stem" class="stem"><path d="M9774 1142 L9774 378" stroke-width="18"/></g><g data-id="k1nv2br4" data-class="accid" class="accid"><use href="#E261-nv900f6" transform="translate(9399, 1170) scale(0.72, 0.72)"/></g></g></g><g data-id="cv4p902" data-class="note" class="note"><g data-class="notehead" class="notehead"><use href="#E0A4-nv900f6" transform="translate(9873, 630) scale(0.72, 0.72)"/></g><g data-id="v1hgm6m5" data-class="stem" class="stem"><path d="M9882 658 L9882 1260" stroke-width="18"/><g data-id="w1i41scx" data-class="flag" class="flag"><use href="#E241-nv900f6" transform="translate(9873, 1260) scale(0.72, 0.72)"/></g></g></g></g></g><g data-id="fubrmxk" data-class="barLine" class="barLine"><path d="M10323 540 L10323 1260" stroke-width="27"/></g></g><g data-id="w13uplnl" data-class="systemMilestoneEnd" class="systemMilestoneEnd zpzwxeg"/></g><g data-id="x118hruu" data-class="pageMilestoneEnd" class="pageMilestoneEnd x1pa3v5k"/><g data-id="y1vnvvdb" data-class="pageMilestoneEnd" class="pageMilestoneEnd wpf9rmc"/></g></svg></svg>