<svg viewBox="0 0 560 84" version="1.1" xmlns="http://www.w3.org/2000/svg" xmlns:xlink="http://www.w3.org/1999/xlink" overflow="visible" id="v1dmkurf"><desc>Engraved by Verovio 5.6.0-85e7620</desc><defs><g id="E050-v1dmkurf"><path transform="scale(1,-1)" d="M441 -245c-23 -4 -48 -6 -76 -6c-59 0 -102 7 -130 20c-88 42 -150 93 -187 154c-26 44 -43 103 -48 176c0 6 -1 13 -1 19c0 54 15 111 45 170c29 57 65 106 110 148s96 85 153 127c-3 16 -8 46 -13 92c-4 43 -5 73 -5 89c0 117 16 172 69 257c34 54 64 82 89 82 c21 0 43 -30 69 -92s39 -115 41 -159v-15c0 -109 -21 -162 -67 -241c-13 -20 -63 -90 -98 -118c-13 -9 -25 -19 -37 -29l31 -181c8 1 18 2 28 2c58 0 102 -12 133 -35c59 -43 92 -104 98 -184c1 -7 1 -15 1 -22c0 -123 -87 -209 -181 -248c8 -57 17 -110 25 -162 c5 -31 6 -58 6 -80c0 -30 -5 -53 -14 -70c-35 -64 -88 -99 -158 -103c-5 0 -11 -1 -16 -1c-37 0 -72 10 -108 27c-50 24 -77 59 -80 105v11c0 29 7 55 20 76c18 28 45 42 79 44h6c49 0 93 -42 97 -87v-9c0 -51 -34 -86 -105 -106c17 -24 51 -36 102 -36c62 0 116 43 140 85 c9 16 13 41 13 74c0 20 -1 42 -5 67c-8 53 -18 106 -26 159zM461 939c-95 0 -135 -175 -135 -286c0 -24 2 -48 5 -71c50 39 92 82 127 128c40 53 60 100 60 140v8c-4 53 -22 81 -55 81h-2zM406 119l54 -326c73 25 110 78 110 161c0 7 0 15 -1 23c-7 95 -57 142 -151 142h-12 zM382 117c-72 -2 -128 -47 -128 -120v-7c2 -46 43 -99 75 -115c-3 -2 -7 -5 -10 -10c-70 33 -116 88 -123 172v11c0 68 44 126 88 159c23 17 49 29 78 36l-29 170c-21 -13 -52 -37 -92 -73c-50 -44 -86 -84 -109 -119c-45 -69 -67 -130 -67 -182v-13c5 -68 35 -127 93 -176 s125 -73 203 -73c25 0 50 3 75 9c-19 111 -36 221 -54 331z"/></g><g id="E083-v1dmkurf"><path transform="scale(1,-1)" d="M208 250c97 0 177 -52 177 -116c0 -69 -40 -111 -118 -125c56 -5 125 -44 125 -116c0 -31 -10 -57 -31 -78c-19 -21 -45 -38 -78 -49l-50 -11c-15 -3 -36 -7 -55 -7c-50 0 -86 16 -113 38c-16 10 -23 18 -34 34c-7 13 -11 25 -11 38c0 43 27 83 68 83l3 -2 c61 0 75 -42 75 -70c0 -19 -24 -42 -26 -57c7 -17 20 -25 37 -25c44 0 94 29 94 78c0 75 -34 125 -138 125v36c84 0 131 22 131 98c0 54 -37 88 -87 88c-26 0 -43 -7 -51 -22c15 -22 44 -16 44 -70c0 -37 -37 -62 -71 -62c-22 0 -69 15 -69 76c0 79 101 116 178 116z"/></g><g id="E084-v1dmkurf"><path transform="scale(1,-1)" d="M20 -78c84 97 114 180 134 329h170c-13 -32 -82 -132 -99 -151l-84 -97c-33 -36 -59 -63 -80 -81h162v102l127 123v-225h57v-39h-57v-34c0 -43 19 -65 57 -65v-34h-244v36c48 0 60 26 60 70v27h-203v39z"/></g><g id="E4E4-v1dmkurf"><path transform="scale(1,-1)" d="M0 10v105c0 9 1 10 10 10h280c9 0 10 -1 10 -10v-105c0 -9 -1 -10 -10 -10h-280c-9 0 -10 1 -10 10z"/></g><g id="E4E5-v1dmkurf"><path transform="scale(1,-1)" d="M107 292c-13 24 -30 49 -52 71c-1 1 0 2 0 3l-2 2c3 3 4 4 6 4c12 0 26 -7 40 -20s44 -40 89 -81c26 -24 28 -29 46 -47c4 -4 8 -9 10 -14c6 -8 8 -16 8 -27c0 -19 -12 -40 -36 -61c-28 -23 -49 -38 -61 -73c-4 -11 -7 -27 -10 -50c13 -43 34 -83 59 -121 c31 -47 59 -79 101 -129c-8 0 -26 7 -54 20l-62 29l-21 6l-23 1c-25 0 -45 -10 -60 -30l-4 -14l-1 -12c0 -33 20 -56 39 -78c8 -9 17 -18 26 -26c17 -15 27 -24 28 -30l-3 -3c-11 5 -19 10 -25 15c-9 3 -37 21 -45 26c-24 14 -45 32 -63 51c-19 21 -37 44 -37 71 c0 63 27 95 80 95c41 0 86 -18 136 -52c-19 26 -37 48 -55 66c-23 23 -48 44 -73 65c-28 23 -47 40 -58 53s-17 26 -18 39c75 64 113 125 113 183c0 27 -7 48 -18 68z"/></g><g id="E0A4-v1dmkurf"><path transform="scale(1,-1)" d="M0 -39c0 68 73 172 200 172c66 0 114 -37 114 -95c0 -84 -106 -171 -218 -171c-64 0 -96 30 -96 94z"/></g><g id="E240-v1dmkurf"><path transform="scale(1,-1)" d="M179 -646c15 29 29 55 46 102c18 49 30 108 30 138c0 105 -80 173 -168 200c-18 5 -47 9 -87 16v190h22c8 0 33 -61 71 -95c4 -3 -2 3 61 -56c62 -58 122 -137 122 -241c0 -38 -13 -106 -35 -163c-20 -51 -43 -99 -66 -132c-6 -5 -10 -7 -13 -7s-5 2 -5 5l4 10 c1 3 14 25 18 33z"/></g><g id="E4E6-v1dmkurf"><path transform="scale(1,-1)" d="M0 123c7 34 33 56 69 60c29 -3 43 -9 53 -29c4 -8 7 -15 10 -22c0 -21 -1 -25 -11 -35c-5 -8 -18 -14 -40 -20l12 -3l15 -1c44 0 97 26 122 56c10 11 18 26 24 42c7 1 15 2 22 3l-140 -424h-36l111 330c-10 -6 -27 -12 -53 -16l-52 -8h-10l-20 1c-1 0 -8 3 -21 6 c-37 9 -55 28 -55 60z"/></g><g id="E0A3-v1dmkurf"><path transform="scale(1,-1)" d="M278 64c0 22 -17 39 -43 39c-12 0 -26 -3 -41 -10c-85 -43 -165 -94 -165 -156c5 -25 15 -32 49 -32c67 11 200 95 200 159zM0 -36c0 68 73 174 200 174c66 0 114 -39 114 -97c0 -84 -106 -173 -218 -173c-64 0 -96 32 -96 96z"/></g></defs><style type="text/css">#v1dmkurf g.page-margin {font-family:Times,serif;}#v1dmkurf g.ending, #v1dmkurf g.fing, #v1dmkurf g.reh, #v1dmkurf g.tempo {font-weight:bold;}#v1dmkurf g.dir, #v1dmkurf g.dynam, #v1dmkurf g.mNum {font-style:italic;}#v1dmkurf g.label {font-weight:normal;}#v1dmkurf path {stroke:currentColor}</style><svg class="definition-scale" color="black" viewBox="0 0 14000 2100"><g class="page-margin" transform="translate(0, 150)"><g data-id="h18nrsy2" data-class="mdiv" class="mdiv pageMilestone"/><g data-id="i2ftghl" data-class="score" class="score pageMilestone"/><g data-id="odwucs5" data-class="system" class="system"><g data-id="k11oq6o1" data-class="section" class="section systemMilestone"/><g data-id="w1qlax8u" data-class="measure" class="measure"><g data-id="w1ttvyc9" data-class="staff" class="staff"><path d="M0 540 L2866 540" stroke-width="13"/><path d="M0 720 L2866 720" stroke-width="13"/><path d="M0 900 L2866 900" stroke-width="13"/><path d="M0 1080 L2866 1080" stroke-width="13"/><path d="M0 1260 L2866 1260" stroke-width="13"/><g data-id="guq962b" data-class="clef" class="clef"><use href="#E050-v1dmkurf" transform="translate(90, 1080) scale(0.72, 0.72)"/></g><g data-id="hzdf06" data-class="keySig" class="keySig"/><g data-id="i1wlmzf8" data-class="meterSig" class="meterSig"><use href="#E083-v1dmkurf" transform="translate(727, 720) scale(0.72, 0.72)"/><use href="#E084-v1dmkurf" transform="translate(721, 1080) scale(0.72, 0.72)"/></g><g data-id="xwsennh" data-class="layer" class="layer"><g data-id="h15qxclu" data-class="rest" class="rest"><use href="#E4E4-v1dmkurf" transform="translate(1297, 900) scale(0.72, 0.72)"/><g data-class="ledgerLines" class="ledgerLines"/><g data-id="u7dllc7" data-class="dots" class="dots"><ellipse cx="1612" cy="810" rx="36" ry="36" fill-opacity="1" stroke-opacity="1"/></g></g></g></g><g data-id="e1d9un3b" data-class="barLine" class="barLine"><path d="M2853 540 L2853 1260" stroke-width="27"/></g></g><g data-id="f1dc7rk9" data-class="measure" class="measure"><g data-id="y1ta5a0" data-class="staff" class="staff"><path d="M2866 540 L6072 540" stroke-width="13"/><path d="M2866 720 L6072 720" stroke-width="13"/><path d="M2866 900 L6072 900" stroke-width="13"/><path d="M2866 1080 L6072 1080" stroke-width="13"/><path d="M2866 1260 L6072 1260" stroke-width="13"/><g data-class="ledgerLines" class="ledgerLines below"><g data-class="lineDash" class="lineDash" data-related="#rmq52cl"><path d="M5318 1440 L5624 1440" stroke-width="22"/></g><g data-class="lineDash" class="lineDash" data-related="#sntt9j"><path d="M5665 1440 L5971 1440" stroke-width="22"/></g></g><g data-id="z1snzirg" data-class="layer" class="layer"><g data-id="ibfwv0f" data-class="rest" class="rest"><use href="#E4E5-v1dmkurf" transform="translate(3060, 900) scale(0.72, 0.72)"/></g><g data-id="j1i3l948" data-class="rest" class="rest"><use href="#E4E5-v1dmkurf" transform="translate(3861, 900) scale(0.72, 0.72)"/></g><g data-id="d1glpdp1" data-class="beam" class="beam"><polygon stroke-opacity="1" fill-opacity="1" points="4871,630 5931,810 5931,900 4871,720"/><polygon stroke-opacity="1" fill-opacity="1" points="4871,765 5227,825 5227,915 4871,855"/><polygon stroke-opacity="1" fill-opacity="1" points="5227,825 5575,885 5575,975 5227,915"/><polygon stroke-opacity="1" fill-opacity="1" points="5575,885 5931,945 5931,1035 5575,975"/><g data-id="p1h6isvv" data-class="note" class="note"><g data-class="notehead" class="notehead"><use href="#E0A4-v1dmkurf" transform="translate(4663, 1260) scale(0.72, 0.72)"/></g><g data-id="vuspmgb" data-class="stem" class="stem"><path d="M4880 1232 L4880 648" stroke-width="18"/></g></g><g data-id="q1u0ipkx" data-class="note" class="note"><g data-class="notehead" class="notehead"><use href="#E0A4-v1dmkurf" transform="translate(5010, 1350) scale(0.72, 0.72)"/></g><g data-id="w13nlpmh" data-class="stem" class="stem"><path d="M5227 1322 L5227 708" stroke-width="18"/></g></g><g data-id="rmq52cl" data-class="note" class="note"><g data-class="notehead" class="notehead"><use href="#E0A4-v1dmkurf" transform="translate(5358, 1440) scale(0.72, 0.72)"/></g><g data-id="x76x0c1" data-class="stem" class="stem"><path d="M5575 1412 L5575 768" stroke-width="18"/></g></g><g data-id="sntt9j" data-class="note" class="note"><g data-class="notehead" class="notehead"><use href="#E0A4-v1dmkurf" transform="translate(5705, 1530) scale(0.72, 0.72)"/></g><g data-id="yl8aumh" data-class="stem" class="stem"><path d="M5922 1502 L5922 828" stroke-width="18"/></g></g></g></g></g><g data-id="n1os2raq" data-class="barLine" class="barLine"><path d="M6059 540 L6059 1260" stroke-width="27"/></g></g><g data-id="od6jyy1" data-class="measure" class="measure"><g data-id="an0n5q9" data-class="staff" class="staff"><path d="M6072 540 L8936 540" stroke-width="13"/><path d="M6072 720 L8936 720" stroke-width="13"/><path d="M6072 900 L8936 900" stroke-width="13"/><path d="M6072 1080 L8936 1080" stroke-width="13"/><path d="M6072 1260 L8936 1260" stroke-width="13"/><g data-class="ledgerLines" class="ledgerLines below"><g data-class="lineDash" class="lineDash" data-related="#tkosdtj"><path d="M6218 1440 L6540 1440" stroke-width="22"/></g><g data-class="lineDash" class="lineDash" data-related="#tkosdtj"><path d="M6218 1620 L6540 1620" stroke-width="22"/></g></g><g data-id="bjr87e8" data-class="layer" class="layer"><g data-id="tkosdtj" data-class="note" class="note"><g data-class="notehead" class="notehead"><use href="#E0A4-v1dmkurf" transform="translate(6266, 1620) scale(0.72, 0.72)"/></g><g data-id="zpdsubx" data-class="stem" class="stem"><path d="M6483 1592 L6483 900" stroke-width="18"/><g data-id="a1iv7ze7" data-class="flag" class="flag"><use href="#E240-v1dmkurf" transform="translate(6474, 900) scale(0.72, 0.72)"/></g></g></g><g data-id="k18mbwjp" data-class="rest" class="rest"><use href="#E4E6-v1dmkurf" transform="translate(6798, 900) scale(0.72, 0.72)"/></g><g data-id="lhwi86a" data-class="rest" class="rest"><use href="#E4E5-v1dmkurf" transform="translate(7320, 900) scale(0.72, 0.72)"/></g><g data-id="mk141w9" data-class="rest" class="rest"><use href="#E4E5-v1dmkurf" transform="translate(8122, 900) scale(0.72, 0.72)"/></g></g></g><g data-id="wqb26re" data-class="barLine" class="barLine"><path d="M8923 540 L8923 1260" stroke-width="27"/></g></g><g data-id="x3v3j4e" data-class="measure" class="measure"><g data-id="c1xlkp7v" data-class="staff" class="staff"><path d="M8936 540 L11547 540" stroke-width="13"/><path d="M8936 720 L11547 720" stroke-width="13"/><path d="M8936 900 L11547 900" stroke-width="13"/><path d="M8936 1080 L11547 1080" stroke-width="13"/><path d="M8936 1260 L11547 1260" stroke-width="13"/><g data-id="drlqbh4" data-class="layer" class="layer"><g data-id="nnp6t99" data-class="rest" class="rest"><use href="#E4E5-v1dmkurf" transform="translate(9130, 900) scale(0.72, 0.72)"/></g><g data-id="of76w7o" data-class="rest" class="rest"><use href="#E4E5-v1dmkurf" transform="translate(9931, 900) scale(0.72, 0.72)"/></g><g data-id="u1gk8new" data-class="note" class="note"><g data-class="notehead" class="notehead"><use href="#E0A4-v1dmkurf" transform="translate(10733, 1260) scale(0.72, 0.72)"/></g><g data-id="b147bv7a" data-class="stem" class="stem"><path d="M10950 1232 L10950 630" stroke-width="18"/></g></g></g></g><g data-id="f1shz9ge" data-class="barLine" class="barLine"><path d="M11534 540 L11534 1260" stroke-width="27"/></g></g><g data-id="g63d46i" data-class="measure" class="measure"><g data-id="ec674jh" data-class="staff" class="staff"><path d="M11547 540 L14001 540" stroke-width="13"/><path d="M11547 720 L14001 720" stroke-width="13"/><path d="M11547 900 L14001 900" stroke-width="13"/><path d="M11547 1080 L14001 1080" stroke-width="13"/><path d="M11547 1260 L14001 1260" stroke-width="13"/><g data-id="f15d1fds" data-class="layer" class="layer"><g data-id="vcq83zc" data-class="note" class="note"><g data-class="notehead" class="notehead"><use href="#E0A3-v1dmkurf" transform="translate(11741, 1260) scale(0.72, 0.72)"/></g><g data-id="cv6ut7y" data-class="stem" class="stem"><path d="M11958 1232 L11958 630" stroke-width="18"/></g></g><g data-id="eqj72kv" data-class="beam" class="beam"><polygon stroke-opacity="1" fill-opacity="1" points="13169,360 13860,270 13860,360 13169,450"/><polygon stroke-opacity="1" fill-opacity="1" points="13634,433 13860,405 13860,495 13634,523"/><g data-id="w16jzbtj" data-class="note" class="note"><g data-class="notehead" class="notehead"><use href="#E0A4-v1dmkurf" transform="translate(12961, 990) scale(0.72, 0.72)"/></g><g data-id="e15hj408" data-class="dots" class="dots"><ellipse cx="13277" cy="990" rx="36" ry="36" fill-opacity="1" stroke-opacity="1"/></g><g data-id="d18n8iqa" data-class="stem" class="stem"><path d="M13178 962 L13178 378" stroke-width="18"/></g></g><g data-id="xiu4rrn" data-class="note" class="note"><g data-class="notehead" class="notehead"><use href="#E0A4-v1dmkurf" transform="translate(13634, 900) scale(0.72, 0.72)"/></g><g data-id="f5wuodc" data-class="stem" class="stem"><path d="M13851 872 L13851 288" stroke-width="18"/></g></g></g></g></g><g data-id="o2tsxom" data-class="barLine" class="barLine"><path d="M13988 540 L13988 1260" stroke-width="27"/></g></g></g></g></svg></svg>