<svg viewBox="0 0 560 84" version="1.1" xmlns="http://www.w3.org/2000/svg" xmlns:xlink="http://www.w3.org/1999/xlink" overflow="visible" id="rxykrh8"><desc>Engraved by Verovio 5.6.0-85e7620</desc><defs><g id="E050-rxykrh8"><path transform="scale(1,-1)" d="M441 -245c-23 -4 -48 -6 -76 -6c-59 0 -102 7 -130 20c-88 42 -150 93 -187 154c-26 44 -43 103 -48 176c0 6 -1 13 -1 19c0 54 15 111 45 170c29 57 65 106 110 148s96 85 153 127c-3 16 -8 46 -13 92c-4 43 -5 73 -5 89c0 117 16 172 69 257c34 54 64 82 89 82 c21 0 43 -30 69 -92s39 -115 41 -159v-15c0 -109 -21 -162 -67 -241c-13 -20 -63 -90 -98 -118c-13 -9 -25 -19 -37 -29l31 -181c8 1 18 2 28 2c58 0 102 -12 133 -35c59 -43 92 -104 98 -184c1 -7 1 -15 1 -22c0 -123 -87 -209 -181 -248c8 -57 17 -110 25 -162 c5 -31 6 -58 6 -80c0 -30 -5 -53 -14 -70c-35 -64 -88 -99 -158 -103c-5 0 -11 -1 -16 -1c-37 0 -72 10 -108 27c-50 24 -77 59 -80 105v11c0 29 7 55 20 76c18 28 45 42 79 44h6c49 0 93 -42 97 -87v-9c0 -51 -34 -86 -105 -106c17 -24 51 -36 102 -36c62 0 116 43 140 85 c9 16 13 41 13 74c0 20 -1 42 -5 67c-8 53 -18 106 -26 159zM461 939c-95 0 -135 -175 -135 -286c0 -24 2 -48 5 -71c50 39 92 82 127 128c40 53 60 100 60 140v8c-4 53 -22 81 -55 81h-2zM406 119l54 -326c73 25 110 78 110 161c0 7 0 15 -1 23c-7 95 -57 142 -151 142h-12 zM382 117c-72 -2 -128 -47 -128 -120v-7c2 -46 43 -99 75 -115c-3 -2 -7 -5 -10 -10c-70 33 -116 88 -123 172v11c0 68 44 126 88 159c23 17 49 29 78 36l-29 170c-21 -13 -52 -37 -92 -73c-50 -44 -86 -84 -109 -119c-45 -69 -67 -130 -67 -182v-13c5 -68 35 -127 93 -176 s125 -73 203 -73c25 0 50 3 75 9c-19 111 -36 221 -54 331z"/></g><g id="E262-rxykrh8"><path transform="scale(1,-1)" d="M136 186v169h17v-164l44 14v-91l-44 -14v-165l44 12v-91l-44 -13v-155h-17v150l-76 -22v-155h-17v149l-43 -13v90l43 14v167l-43 -14v92l43 13v169h17v-163zM60 73v-167l76 22v168z"/></g><g id="E086-rxykrh8"><path transform="scale(1,-1)" d="M284 -91c0 37 -28 92 -67 92c-35 0 -65 -54 -65 -111c0 -52 22 -104 68 -104c47 0 64 68 64 123zM230 214c-36 0 -90 -33 -90 -184l2 -36c40 24 81 36 120 36c80 0 140 -48 140 -121c0 -99 -99 -159 -182 -159c-160 0 -200 173 -200 244c0 21 2 43 7 71l10 35 c26 85 73 115 98 126c41 19 74 24 103 24c93 0 142 -63 142 -105c0 -58 -52 -72 -73 -72c-33 0 -59 24 -65 35c-3 5 -6 14 -7 25l11 30c6 15 9 27 9 35c0 11 -9 16 -25 16z"/></g><g id="E088-rxykrh8"><path transform="scale(1,-1)" d="M195 -214c76 0 88 58 90 68c0 34 -35 60 -57 73l-52 29c-21 10 -32 17 -34 20c-39 -33 -58 -54 -62 -92c5 -23 23 -98 115 -98zM301 135c0 61 -72 76 -113 76c-40 0 -77 -17 -77 -51c3 -21 15 -38 26 -50c17 -15 33 -26 48 -34l65 -28c34 27 51 56 51 87zM176 -250 c-57 0 -166 26 -166 132c0 47 30 86 89 116c-33 15 -79 60 -79 119c0 79 85 132 178 132h18c5 0 21 1 28 -1c25 0 126 -30 126 -110c0 -37 -23 -76 -69 -116c43 -25 83 -71 83 -119c0 -101 -118 -153 -208 -153z"/></g><g id="E4E2-rxykrh8"><path transform="scale(1,-1)" d="M0 10v230c0 8 2 10 10 10h105c8 0 10 -2 10 -10v-230c0 -8 -2 -10 -10 -10h-105c-8 0 -10 2 -10 10z"/></g><g id="E082-rxykrh8"><path transform="scale(1,-1)" d="M124 -185c-18 0 -55 -14 -65 -65h-36l-3 30c0 25 6 45 18 63c11 19 22 30 39 43l121 82l37 29c15 11 27 29 38 54c12 24 18 47 18 70c0 40 -19 88 -94 88c-25 0 -32 0 -50 -8c-14 -5 -23 -12 -26 -22c3 -9 7 -15 10 -18l24 -17c12 -7 17 -11 27 -21c5 -7 7 -16 7 -27 c0 -12 0 -57 -79 -74c-30 0 -76 26 -76 94c0 66 81 135 197 135c72 0 181 -32 181 -150c0 -53 -32 -95 -113 -133l-91 -41c-26 -11 -45 -23 -57 -37l49 7c84 0 115 -41 148 -41c20 0 33 20 39 61h35c0 -152 -68 -168 -114 -168c-17 0 -65 0 -79 7h10l-28 17 c-49 37 -69 40 -87 42z"/></g><g id="E0A4-rxykrh8"><path transform="scale(1,-1)" d="M0 -39c0 68 73 172 200 172c66 0 114 -37 114 -95c0 -84 -106 -171 -218 -171c-64 0 -96 30 -96 94z"/></g><g id="E240-rxykrh8"><path transform="scale(1,-1)" d="M179 -646c15 29 29 55 46 102c18 49 30 108 30 138c0 105 -80 173 -168 200c-18 5 -47 9 -87 16v190h22c8 0 33 -61 71 -95c4 -3 -2 3 61 -56c62 -58 122 -137 122 -241c0 -38 -13 -106 -35 -163c-20 -51 -43 -99 -66 -132c-6 -5 -10 -7 -13 -7s-5 2 -5 5l4 10 c1 3 14 25 18 33z"/></g><g id="E4E6-rxykrh8"><path transform="scale(1,-1)" d="M0 123c7 34 33 56 69 60c29 -3 43 -9 53 -29c4 -8 7 -15 10 -22c0 -21 -1 -25 -11 -35c-5 -8 -18 -14 -40 -20l12 -3l15 -1c44 0 97 26 122 56c10 11 18 26 24 42c7 1 15 2 22 3l-140 -424h-36l111 330c-10 -6 -27 -12 -53 -16l-52 -8h-10l-20 1c-1 0 -8 3 -21 6 c-37 9 -55 28 -55 60z"/></g></defs><style type="text/css">#rxykrh8 g.page-margin {font-family:Times,serif;}#rxykrh8 g.ending, #rxykrh8 g.fing, #rxykrh8 g.reh, #rxykrh8 g.tempo {font-weight:bold;}#rxykrh8 g.dir, #rxykrh8 g.dynam, #rxykrh8 g.mNum {font-style:italic;}#rxykrh8 g.label {font-weight:normal;}#rxykrh8 path {stroke:currentColor}</style><svg class="definition-scale" color="black" viewBox="0 0 14000 2100"><g class="page-margin" transform="translate(0, 150)"><g data-id="y1uvqrg8" data-class="mdiv" class="mdiv pageMilestone"/><g data-id="zqk2sr" data-class="score" class="score pageMilestone"/><g data-id="g1o9c6wx" data-class="system" class="system"><g data-id="b4nmghx" data-class="section" class="section systemMilestone"/><g data-id="s9ogahg" data-class="measure" class="measure"><g data-id="n79ylcn" data-class="staff" class="staff"><path d="M0 540 L3624 540" stroke-width="13"/><path d="M0 720 L3624 720" stroke-width="13"/><path d="M0 900 L3624 900" stroke-width="13"/><path d="M0 1080 L3624 1080" stroke-width="13"/><path d="M0 1260 L3624 1260" stroke-width="13"/><g data-id="srv3dvc" data-class="clef" class="clef"><use href="#E050-rxykrh8" transform="translate(90, 1080) scale(0.72, 0.72)"/></g><g data-id="t1lmmgi3" data-class="keySig" class="keySig"><g data-id="u3vpjo2" data-class="keyAccid" class="keyAccid"><use href="#E262-rxykrh8" transform="translate(735, 540) scale(0.72, 0.72)"/></g><g data-id="v57paha" data-class="keyAccid" class="keyAccid"><use href="#E262-rxykrh8" transform="translate(913, 810) scale(0.72, 0.72)"/></g><g data-id="w1ptwu18" data-class="keyAccid" class="keyAccid"><use href="#E262-rxykrh8" transform="translate(1091, 450) scale(0.72, 0.72)"/></g><g data-id="x7cqkn" data-class="keyAccid" class="keyAccid"><use href="#E262-rxykrh8" transform="translate(1269, 720) scale(0.72, 0.72)"/></g><g data-id="yxn2bw2" data-class="keyAccid" class="keyAccid"><use href="#E262-rxykrh8" transform="translate(1447, 990) scale(0.72, 0.72)"/></g></g><g data-id="z1ccycn3" data-class="meterSig" class="meterSig"><use href="#E086-rxykrh8" transform="translate(1754, 720) scale(0.72, 0.72)"/><use href="#E088-rxykrh8" transform="translate(1761, 1080) scale(0.72, 0.72)"/></g><g data-id="o8nd8yl" data-class="layer" class="layer"><g data-id="vdhao1v" data-class="multiRest" class="multiRest"><use href="#E4E2-rxykrh8" transform="translate(2820, 900) scale(0.72, 0.72)"/><use href="#E082-rxykrh8" transform="translate(2706, 270) scale(0.72, 0.72)"/></g></g></g><g data-id="a13l94bc" data-class="barLine" class="barLine"><path d="M3611 540 L3611 1260" stroke-width="27"/></g></g><g data-id="b1dwidid" data-class="measure" class="measure"><g data-id="pfc1wdg" data-class="staff" class="staff"><path d="M3624 540 L6254 540" stroke-width="13"/><path d="M3624 720 L6254 720" stroke-width="13"/><path d="M3624 900 L6254 900" stroke-width="13"/><path d="M3624 1080 L6254 1080" stroke-width="13"/><path d="M3624 1260 L6254 1260" stroke-width="13"/><g data-id="q1j7sy7r" data-class="layer" class="layer"><g data-id="blr1qum" data-class="note" class="note"><g data-class="notehead" class="notehead"><use href="#E0A4-rxykrh8" transform="translate(3813, 1170) scale(0.72, 0.72)"/></g><g data-id="vdyc8fq" data-class="dots" class="dots"><ellipse cx="4129" cy="1170" rx="36" ry="36" fill-opacity="1" stroke-opacity="1"/></g><g data-id="uxy8b2h" data-class="stem" class="stem"><path d="M4030 1142 L4030 540" stroke-width="18"/></g><g data-id="e19ppw8b" data-class="accid" class="accid"/></g><g data-id="c1wmvcvh" data-class="note" class="note"><g data-class="notehead" class="notehead"><use href="#E0A4-rxykrh8" transform="translate(4722, 1170) scale(0.72, 0.72)"/></g><g data-id="wnbp6uy" data-class="stem" class="stem"><path d="M4939 1142 L4939 540" stroke-width="18"/><g data-id="xsuybuw" data-class="flag" class="flag"><use href="#E240-rxykrh8" transform="translate(4930, 540) scale(0.72, 0.72)"/></g></g><g data-id="f1dlkgj9" data-class="accid" class="accid"/></g><g data-id="d38w686" data-class="note" class="note"><g data-class="notehead" class="notehead"><use href="#E0A4-rxykrh8" transform="translate(5242, 1080) scale(0.72, 0.72)"/></g><g data-id="y7trc7e" data-class="stem" class="stem"><path d="M5459 1052 L5459 450" stroke-width="18"/><g data-id="z18ahegi" data-class="flag" class="flag"><use href="#E240-rxykrh8" transform="translate(5450, 450) scale(0.72, 0.72)"/></g></g><g data-id="gt0z11q" data-class="accid" class="accid"/></g><g data-id="e5cw6il" data-class="note" class="note"><g data-class="notehead" class="notehead"><use href="#E0A4-rxykrh8" transform="translate(5706, 1170) scale(0.72, 0.72)"/></g><g data-id="a5exj87" data-class="stem" class="stem"><path d="M5923 1142 L5923 540" stroke-width="18"/><g data-id="b4sl8y2" data-class="flag" class="flag"><use href="#E240-rxykrh8" transform="translate(5914, 540) scale(0.72, 0.72)"/></g></g><g data-id="hoq1jxw" data-class="accid" class="accid"/></g></g></g><g data-id="axop7i8" data-class="tie" class="tie"><path d="M4084,1282 C4241,1387 4518,1387 4677,1282 C4537,1436 4222,1436 4084,1282" stroke-linecap="round" stroke-linejoin="round" stroke-width="9"/></g><g data-id="j1jh7g8c" data-class="barLine" class="barLine"><path d="M6241 540 L6241 1260" stroke-width="27"/></g></g><g data-id="k127h0qy" data-class="measure" class="measure"><g data-id="rp82ueu" data-class="staff" class="staff"><path d="M6254 540 L8813 540" stroke-width="13"/><path d="M6254 720 L8813 720" stroke-width="13"/><path d="M6254 900 L8813 900" stroke-width="13"/><path d="M6254 1080 L8813 1080" stroke-width="13"/><path d="M6254 1260 L8813 1260" stroke-width="13"/><g data-id="s15hvjd9" data-class="layer" class="layer"><g data-id="fx1i3h9" data-class="note" class="note"><g data-class="notehead" class="notehead"><use href="#E0A4-rxykrh8" transform="translate(6443, 900) scale(0.72, 0.72)"/></g><g data-id="d15wbqks" data-class="dots" class="dots"><ellipse cx="6759" cy="810" rx="36" ry="36" fill-opacity="1" stroke-opacity="1"/></g><g data-id="c5kfeqy" data-class="stem" class="stem"><path d="M6452 928 L6452 1500" stroke-width="18"/></g></g><g data-id="g4vuqhp" data-class="note" class="note"><g data-class="notehead" class="notehead"><use href="#E0A4-rxykrh8" transform="translate(7352, 990) scale(0.72, 0.72)"/></g><g data-id="e6puzv1" data-class="stem" class="stem"><path d="M7569 962 L7569 360" stroke-width="18"/><g data-id="f123u3pc" data-class="flag" class="flag"><use href="#E240-rxykrh8" transform="translate(7560, 360) scale(0.72, 0.72)"/></g></g><g data-id="i1ltietv" data-class="accid" class="accid"/></g><g data-id="wv1d6el" data-class="rest" class="rest"><use href="#E4E6-rxykrh8" transform="translate(7872, 900) scale(0.72, 0.72)"/></g><g data-id="xvk3wvg" data-class="rest" class="rest"><use href="#E4E6-rxykrh8" transform="translate(8336, 900) scale(0.72, 0.72)"/></g></g></g><g data-id="s14d624x" data-class="barLine" class="barLine"><path d="M8800 540 L8800 1260" stroke-width="27"/></g></g><g data-id="tf1tzjp" data-class="measure" class="measure"><g data-id="ttxxbyc" data-class="staff" class="staff"><path d="M8813 540 L11443 540" stroke-width="13"/><path d="M8813 720 L11443 720" stroke-width="13"/><path d="M8813 900 L11443 900" stroke-width="13"/><path d="M8813 1080 L11443 1080" stroke-width="13"/><path d="M8813 1260 L11443 1260" stroke-width="13"/><g data-id="u1hchsnx" data-class="layer" class="layer"><g data-id="h1xn93ns" data-class="note" class="note"><g data-class="notehead" class="notehead"><use href="#E0A4-rxykrh8" transform="translate(9002, 1170) scale(0.72, 0.72)"/></g><g data-id="hna7lhf" data-class="dots" class="dots"><ellipse cx="9318" cy="1170" rx="36" ry="36" fill-opacity="1" stroke-opacity="1"/></g><g data-id="g1ovpyi7" data-class="stem" class="stem"><path d="M9219 1142 L9219 540" stroke-width="18"/></g><g data-id="jq7l6cm" data-class="accid" class="accid"/></g><g data-id="i10gn3w5" data-class="note" class="note"><g data-class="notehead" class="notehead"><use href="#E0A4-rxykrh8" transform="translate(9911, 1170) scale(0.72, 0.72)"/></g><g data-id="i82itjg" data-class="stem" class="stem"><path d="M10128 1142 L10128 540" stroke-width="18"/><g data-id="jofyka4" data-class="flag" class="flag"><use href="#E240-rxykrh8" transform="translate(10119, 540) scale(0.72, 0.72)"/></g></g><g data-id="k1bwiytv" data-class="accid" class="accid"/></g><g data-id="jk1cftu" data-class="note" class="note"><g data-class="notehead" class="notehead"><use href="#E0A4-rxykrh8" transform="translate(10431, 1080) scale(0.72, 0.72)"/></g><g data-id="kuq6m9h" data-class="stem" class="stem"><path d="M10648 1052 L10648 450" stroke-width="18"/><g data-id="l1kmk84d" data-class="flag" class="flag"><use href="#E240-rxykrh8" transform="translate(10639, 450) scale(0.72, 0.72)"/></g></g><g data-id="lzq0ymz" data-class="accid" class="accid"/></g><g data-id="k237smt" data-class="note" class="note"><g data-class="notehead" class="notehead"><use href="#E0A4-rxykrh8" transform="translate(10895, 1170) scale(0.72, 0.72)"/></g><g data-id="mfql82t" data-class="stem" class="stem"><path d="M11112 1142 L11112 540" stroke-width="18"/><g data-id="n1irdxw9" data-class="flag" class="flag"><use href="#E240-rxykrh8" transform="translate(11103, 540) scale(0.72, 0.72)"/></g></g><g data-id="m1g18gaz" data-class="accid" class="accid"/></g></g></g><g data-id="bbi2ap2" data-class="tie" class="tie"><path d="M9273,1282 C9430,1387 9707,1387 9866,1282 C9726,1436 9411,1436 9273,1282" stroke-linecap="round" stroke-linejoin="round" stroke-width="9"/></g><g data-id="b105ti42" data-class="barLine" class="barLine"><path d="M11430 540 L11430 1260" stroke-width="27"/></g></g><g data-id="chwjsnn" data-class="measure" class="measure"><g data-id="v1x84pfr" data-class="staff" class="staff"><path d="M11443 540 L14002 540" stroke-width="13"/><path d="M11443 720 L14002 720" stroke-width="13"/><path d="M11443 900 L14002 900" stroke-width="13"/><path d="M11443 1080 L14002 1080" stroke-width="13"/><path d="M11443 1260 L14002 1260" stroke-width="13"/><g data-id="w1q1rehi" data-class="layer" class="layer"><g data-id="l90joqx" data-class="note" class="note"><g data-class="notehead" class="notehead"><use href="#E0A4-rxykrh8" transform="translate(11632, 900) scale(0.72, 0.72)"/></g><g data-id="pwycnws" data-class="dots" class="dots"><ellipse cx="11948" cy="810" rx="36" ry="36" fill-opacity="1" stroke-opacity="1"/></g><g data-id="opm26gi" data-class="stem" class="stem"><path d="M11641 928 L11641 1500" stroke-width="18"/></g></g><g data-id="m1gnekma" data-class="note" class="note"><g data-class="notehead" class="notehead"><use href="#E0A4-rxykrh8" transform="translate(12541, 990) scale(0.72, 0.72)"/></g><g data-id="q1rr80qu" data-class="stem" class="stem"><path d="M12758 962 L12758 360" stroke-width="18"/><g data-id="recj9d5" data-class="flag" class="flag"><use href="#E240-rxykrh8" transform="translate(12749, 360) scale(0.72, 0.72)"/></g></g><g data-id="nh830m6" data-class="accid" class="accid"/></g><g data-id="y1dw1fy8" data-class="rest" class="rest"><use href="#E4E6-rxykrh8" transform="translate(13061, 900) scale(0.72, 0.72)"/></g><g data-id="z109tzbc" data-class="rest" class="rest"><use href="#E4E6-rxykrh8" transform="translate(13525, 900) scale(0.72, 0.72)"/></g></g></g><g data-id="k1xnuge4" data-class="barLine" class="barLine"><path d="M13989 540 L13989 1260" stroke-width="27"/></g></g></g></g></svg></svg>