<svg viewBox="0 0 560 84" version="1.1" xmlns="http://www.w3.org/2000/svg" xmlns:xlink="http://www.w3.org/1999/xlink" overflow="visible" id="x1hcqr7g"><desc>Engraved by Verovio 5.6.0-85e7620</desc><defs><g id="E050-x1hcqr7g"><path transform="scale(1,-1)" d="M441 -245c-23 -4 -48 -6 -76 -6c-59 0 -102 7 -130 20c-88 42 -150 93 -187 154c-26 44 -43 103 -48 176c0 6 -1 13 -1 19c0 54 15 111 45 170c29 57 65 106 110 148s96 85 153 127c-3 16 -8 46 -13 92c-4 43 -5 73 -5 89c0 117 16 172 69 257c34 54 64 82 89 82 c21 0 43 -30 69 -92s39 -115 41 -159v-15c0 -109 -21 -162 -67 -241c-13 -20 -63 -90 -98 -118c-13 -9 -25 -19 -37 -29l31 -181c8 1 18 2 28 2c58 0 102 -12 133 -35c59 -43 92 -104 98 -184c1 -7 1 -15 1 -22c0 -123 -87 -209 -181 -248c8 -57 17 -110 25 -162 c5 -31 6 -58 6 -80c0 -30 -5 -53 -14 -70c-35 -64 -88 -99 -158 -103c-5 0 -11 -1 -16 -1c-37 0 -72 10 -108 27c-50 24 -77 59 -80 105v11c0 29 7 55 20 76c18 28 45 42 79 44h6c49 0 93 -42 97 -87v-9c0 -51 -34 -86 -105 -106c17 -24 51 -36 102 -36c62 0 116 43 140 85 c9 16 13 41 13 74c0 20 -1 42 -5 67c-8 53 -18 106 -26 159zM461 939c-95 0 -135 -175 -135 -286c0 -24 2 -48 5 -71c50 39 92 82 127 128c40 53 60 100 60 140v8c-4 53 -22 81 -55 81h-2zM406 119l54 -326c73 25 110 78 110 161c0 7 0 15 -1 23c-7 95 -57 142 -151 142h-12 zM382 117c-72 -2 -128 -47 -128 -120v-7c2 -46 43 -99 75 -115c-3 -2 -7 -5 -10 -10c-70 33 -116 88 -123 172v11c0 68 44 126 88 159c23 17 49 29 78 36l-29 170c-21 -13 -52 -37 -92 -73c-50 -44 -86 -84 -109 -119c-45 -69 -67 -130 -67 -182v-13c5 -68 35 -127 93 -176 s125 -73 203 -73c25 0 50 3 75 9c-19 111 -36 221 -54 331z"/></g><g id="E262-x1hcqr7g"><path transform="scale(1,-1)" d="M136 186v169h17v-164l44 14v-91l-44 -14v-165l44 12v-91l-44 -13v-155h-17v150l-76 -22v-155h-17v149l-43 -13v90l43 14v167l-43 -14v92l43 13v169h17v-163zM60 73v-167l76 22v168z"/></g><g id="E08A-x1hcqr7g"><path transform="scale(1,-1)" d="M340 179c-9 24 -56 41 -89 41c-46 0 -81 -28 -100 -58c-17 -28 -25 -78 -25 -150c0 -65 2 -111 8 -135c8 -31 18 -49 40 -67c20 -17 43 -25 70 -25c54 0 92 36 115 75c14 25 23 54 28 88h27c0 -63 -24 -105 -58 -141c-35 -38 -82 -56 -140 -56c-45 0 -83 13 -115 39 c-57 45 -101 130 -101 226c0 59 33 127 68 163c36 37 97 72 160 72c36 0 93 -21 121 -40c11 -8 23 -17 33 -30c19 -23 27 -48 27 -76c0 -51 -35 -88 -86 -88c-43 0 -76 27 -76 68c0 26 7 35 21 51c15 17 32 27 58 32c7 2 14 7 14 11z"/></g><g id="E4E3-x1hcqr7g"><path transform="scale(1,-1)" d="M0 -115v105c0 9 1 10 10 10h280c9 0 10 -1 10 -10v-105c0 -9 -1 -10 -10 -10h-280c-9 0 -10 1 -10 10z"/></g><g id="E0A4-x1hcqr7g"><path transform="scale(1,-1)" d="M0 -39c0 68 73 172 200 172c66 0 114 -37 114 -95c0 -84 -106 -171 -218 -171c-64 0 -96 30 -96 94z"/></g><g id="E240-x1hcqr7g"><path transform="scale(1,-1)" d="M179 -646c15 29 29 55 46 102c18 49 30 108 30 138c0 105 -80 173 -168 200c-18 5 -47 9 -87 16v190h22c8 0 33 -61 71 -95c4 -3 -2 3 61 -56c62 -58 122 -137 122 -241c0 -38 -13 -106 -35 -163c-20 -51 -43 -99 -66 -132c-6 -5 -10 -7 -13 -7s-5 2 -5 5l4 10 c1 3 14 25 18 33z"/></g><g id="E0A3-x1hcqr7g"><path transform="scale(1,-1)" d="M278 64c0 22 -17 39 -43 39c-12 0 -26 -3 -41 -10c-85 -43 -165 -94 -165 -156c5 -25 15 -32 49 -32c67 11 200 95 200 159zM0 -36c0 68 73 174 200 174c66 0 114 -39 114 -97c0 -84 -106 -173 -218 -173c-64 0 -96 32 -96 96z"/></g><g id="E4E5-x1hcqr7g"><path transform="scale(1,-1)" d="M107 292c-13 24 -30 49 -52 71c-1 1 0 2 0 3l-2 2c3 3 4 4 6 4c12 0 26 -7 40 -20s44 -40 89 -81c26 -24 28 -29 46 -47c4 -4 8 -9 10 -14c6 -8 8 -16 8 -27c0 -19 -12 -40 -36 -61c-28 -23 -49 -38 -61 -73c-4 -11 -7 -27 -10 -50c13 -43 34 -83 59 -121 c31 -47 59 -79 101 -129c-8 0 -26 7 -54 20l-62 29l-21 6l-23 1c-25 0 -45 -10 -60 -30l-4 -14l-1 -12c0 -33 20 -56 39 -78c8 -9 17 -18 26 -26c17 -15 27 -24 28 -30l-3 -3c-11 5 -19 10 -25 15c-9 3 -37 21 -45 26c-24 14 -45 32 -63 51c-19 21 -37 44 -37 71 c0 63 27 95 80 95c41 0 86 -18 136 -52c-19 26 -37 48 -55 66c-23 23 -48 44 -73 65c-28 23 -47 40 -58 53s-17 26 -18 39c75 64 113 125 113 183c0 27 -7 48 -18 68z"/></g></defs><style type="text/css">#x1hcqr7g g.page-margin {font-family:Times,serif;}#x1hcqr7g g.ending, #x1hcqr7g g.fing, #x1hcqr7g g.reh, #x1hcqr7g g.tempo {font-weight:bold;}#x1hcqr7g g.dir, #x1hcqr7g g.dynam, #x1hcqr7g g.mNum {font-style:italic;}#x1hcqr7g g.label {font-weight:normal;}#x1hcqr7g path {stroke:currentColor}</style><svg class="definition-scale" color="black" viewBox="0 0 14000 2100"><g class="page-margin" transform="translate(0, 150)"><g data-id="nrs3p6r" data-class="mdiv" class="mdiv pageMilestone"/><g data-id="o1apb7kp" data-class="score" class="score pageMilestone"/><g data-id="r3bh0tp" data-class="system" class="system"><g data-id="q1dfsawo" data-class="section" class="section systemMilestone"/><g data-id="y1j6q3n8" data-class="measure" class="measure"><g data-id="crg4et6" data-class="staff" class="staff"><path d="M0 540 L3666 540" stroke-width="13"/><path d="M0 720 L3666 720" stroke-width="13"/><path d="M0 900 L3666 900" stroke-width="13"/><path d="M0 1080 L3666 1080" stroke-width="13"/><path d="M0 1260 L3666 1260" stroke-width="13"/><g data-id="rrh3t47" data-class="clef" class="clef"><use href="#E050-x1hcqr7g" transform="translate(90, 1080) scale(0.72, 0.72)"/></g><g data-id="sqvsp9y" data-class="keySig" class="keySig"><g data-id="t2j8but" data-class="keyAccid" class="keyAccid"><use href="#E262-x1hcqr7g" transform="translate(735, 540) scale(0.72, 0.72)"/></g><g data-id="u1pd1scc" data-class="keyAccid" class="keyAccid"><use href="#E262-x1hcqr7g" transform="translate(913, 810) scale(0.72, 0.72)"/></g></g><g data-id="vc6au5k" data-class="meterSig" class="meterSig"><use href="#E08A-x1hcqr7g" transform="translate(1234, 900) scale(0.72, 0.72)"/></g><g data-id="d1km5t8l" data-class="layer" class="layer"><g data-id="r4l1t9o" data-class="mRest" class="mRest"><use href="#E4E3-x1hcqr7g" transform="translate(2522, 720) scale(0.72, 0.72)"/></g></g></g><g data-id="gaoyf1y" data-class="barLine" class="barLine"><path d="M3653 540 L3653 1260" stroke-width="27"/></g></g><g data-id="h1baylnt" data-class="measure" class="measure"><g data-id="e1vfbenc" data-class="staff" class="staff"><path d="M3666 540 L7680 540" stroke-width="13"/><path d="M3666 720 L7680 720" stroke-width="13"/><path d="M3666 900 L7680 900" stroke-width="13"/><path d="M3666 1080 L7680 1080" stroke-width="13"/><path d="M3666 1260 L7680 1260" stroke-width="13"/><g data-class="ledgerLines" class="ledgerLines below"><g data-class="lineDash" class="lineDash" data-related="#ywe8iho"><path d="M6523 1440 L6845 1440" stroke-width="22"/></g><g data-class="lineDash" class="lineDash" data-related="#z1yvp0q2"><path d="M7071 1440 L7393 1440" stroke-width="22"/></g></g><g data-id="f73n0nw" data-class="layer" class="layer"><g data-id="u17l72ur" data-class="note" class="note"><g data-class="notehead" class="notehead"><use href="#E0A4-x1hcqr7g" transform="translate(3858, 900) scale(0.72, 0.72)"/></g><g data-id="z1kmyrkr" data-class="dots" class="dots"><ellipse cx="4174" cy="810" rx="36" ry="36" fill-opacity="1" stroke-opacity="1"/></g><g data-id="y2t3tav" data-class="stem" class="stem"><path d="M3867 928 L3867 1500" stroke-width="18"/></g></g><g data-id="v1hpmfk1" data-class="note" class="note"><g data-class="notehead" class="notehead"><use href="#E0A4-x1hcqr7g" transform="translate(4928, 1170) scale(0.72, 0.72)"/></g><g data-id="ad2uddo" data-class="stem" class="stem"><path d="M5145 1142 L5145 540" stroke-width="18"/><g data-id="bana3nm" data-class="flag" class="flag"><use href="#E240-x1hcqr7g" transform="translate(5136, 540) scale(0.72, 0.72)"/></g></g><g data-id="j144jpm8" data-class="accid" class="accid"/></g><g data-id="h1elgbwh" data-class="beam" class="beam"><polygon stroke-opacity="1" fill-opacity="1" points="5684,630 6250,720 6250,810 5684,720"/><g data-id="wlhm4bk" data-class="note" class="note"><g data-class="notehead" class="notehead"><use href="#E0A4-x1hcqr7g" transform="translate(5476, 1260) scale(0.72, 0.72)"/></g><g data-id="chmozi8" data-class="stem" class="stem"><path d="M5693 1232 L5693 648" stroke-width="18"/></g></g><g data-id="xn89mdu" data-class="note" class="note"><g data-class="notehead" class="notehead"><use href="#E0A4-x1hcqr7g" transform="translate(6024, 1350) scale(0.72, 0.72)"/></g><g data-id="dfh0vzl" data-class="stem" class="stem"><path d="M6241 1322 L6241 738" stroke-width="18"/></g></g></g><g data-id="isw9lv2" data-class="beam" class="beam"><polygon stroke-opacity="1" fill-opacity="1" points="6779,810 7345,900 7345,990 6779,900"/><g data-id="ywe8iho" data-class="note" class="note"><g data-class="notehead" class="notehead"><use href="#E0A4-x1hcqr7g" transform="translate(6571, 1440) scale(0.72, 0.72)"/></g><g data-id="e1rfeeto" data-class="stem" class="stem"><path d="M6788 1412 L6788 828" stroke-width="18"/></g><g data-id="k7ddoo8" data-class="accid" class="accid"/></g><g data-id="z1yvp0q2" data-class="note" class="note"><g data-class="notehead" class="notehead"><use href="#E0A4-x1hcqr7g" transform="translate(7119, 1530) scale(0.72, 0.72)"/></g><g data-id="f1kld3rk" data-class="stem" class="stem"><path d="M7336 1502 L7336 918" stroke-width="18"/></g></g></g></g></g><g data-id="p1jdp83t" data-class="barLine" class="barLine"><path d="M7667 540 L7667 1260" stroke-width="27"/></g></g><g data-id="qwcgi99" data-class="measure" class="measure"><g data-id="g1bzoxup" data-class="staff" class="staff"><path d="M7680 540 L10841 540" stroke-width="13"/><path d="M7680 720 L10841 720" stroke-width="13"/><path d="M7680 900 L10841 900" stroke-width="13"/><path d="M7680 1080 L10841 1080" stroke-width="13"/><path d="M7680 1260 L10841 1260" stroke-width="13"/><g data-id="h3rmncx" data-class="layer" class="layer"><g data-id="a13km2w4" data-class="note" class="note"><g data-class="notehead" class="notehead"><use href="#E0A3-x1hcqr7g" transform="translate(7872, 1080) scale(0.72, 0.72)"/></g><g data-id="ghh2v61" data-class="stem" class="stem"><path d="M8089 1052 L8089 450" stroke-width="18"/></g></g><g data-id="sganpbv" data-class="rest" class="rest"><use href="#E4E5-x1hcqr7g" transform="translate(9149, 900) scale(0.72, 0.72)"/></g><g data-id="bazuceh" data-class="note" class="note"><g data-class="notehead" class="notehead"><use href="#E0A4-x1hcqr7g" transform="translate(9989, 1080) scale(0.72, 0.72)"/></g><g data-id="h1ku5fyd" data-class="stem" class="stem"><path d="M10206 1052 L10206 450" stroke-width="18"/></g></g></g></g><g data-id="y1i1ipy8" data-class="barLine" class="barLine"><path d="M10828 540 L10828 1260" stroke-width="27"/></g></g><g data-id="z833hdj" data-class="measure" class="measure"><g data-id="i1lkvb4n" data-class="staff" class="staff"><path d="M10841 540 L14002 540" stroke-width="13"/><path d="M10841 720 L14002 720" stroke-width="13"/><path d="M10841 900 L14002 900" stroke-width="13"/><path d="M10841 1080 L14002 1080" stroke-width="13"/><path d="M10841 1260 L14002 1260" stroke-width="13"/><g data-id="j4jh8fr" data-class="layer" class="layer"><g data-id="c1iduhov" data-class="note" class="note"><g data-class="notehead" class="notehead"><use href="#E0A4-x1hcqr7g" transform="translate(11033, 1080) scale(0.72, 0.72)"/></g><g data-id="i1atmebu" data-class="stem" class="stem"><path d="M11250 1052 L11250 450" stroke-width="18"/></g></g><g data-id="dm8vre3" data-class="note" class="note"><g data-class="notehead" class="notehead"><use href="#E0A3-x1hcqr7g" transform="translate(11872, 1170) scale(0.72, 0.72)"/></g><g data-id="j4qgprm" data-class="stem" class="stem"><path d="M12089 1142 L12089 540" stroke-width="18"/></g><g data-id="l1r8g6bx" data-class="accid" class="accid"/></g><g data-id="e68hao0" data-class="note" class="note"><g data-class="notehead" class="notehead"><use href="#E0A4-x1hcqr7g" transform="translate(13150, 1260) scale(0.72, 0.72)"/></g><g data-id="k1dlosi8" data-class="stem" class="stem"><path d="M13367 1232 L13367 630" stroke-width="18"/></g></g></g></g><g data-id="ho0473" data-class="barLine" class="barLine"><path d="M13989 540 L13989 1260" stroke-width="27"/></g></g></g></g></svg></svg>