<svg viewBox="0 0 560 84" version="1.1" xmlns="http://www.w3.org/2000/svg" xmlns:xlink="http://www.w3.org/1999/xlink" overflow="visible" id="rieod5s"><desc>Engraved by Verovio 5.6.0-85e7620</desc><defs><g id="E050-rieod5s"><path transform="scale(1,-1)" d="M441 -245c-23 -4 -48 -6 -76 -6c-59 0 -102 7 -130 20c-88 42 -150 93 -187 154c-26 44 -43 103 -48 176c0 6 -1 13 -1 19c0 54 15 111 45 170c29 57 65 106 110 148s96 85 153 127c-3 16 -8 46 -13 92c-4 43 -5 73 -5 89c0 117 16 172 69 257c34 54 64 82 89 82 c21 0 43 -30 69 -92s39 -115 41 -159v-15c0 -109 -21 -162 -67 -241c-13 -20 -63 -90 -98 -118c-13 -9 -25 -19 -37 -29l31 -181c8 1 18 2 28 2c58 0 102 -12 133 -35c59 -43 92 -104 98 -184c1 -7 1 -15 1 -22c0 -123 -87 -209 -181 -248c8 -57 17 -110 25 -162 c5 -31 6 -58 6 -80c0 -30 -5 -53 -14 -70c-35 -64 -88 -99 -158 -103c-5 0 -11 -1 -16 -1c-37 0 -72 10 -108 27c-50 24 -77 59 -80 105v11c0 29 7 55 20 76c18 28 45 42 79 44h6c49 0 93 -42 97 -87v-9c0 -51 -34 -86 -105 -106c17 -24 51 -36 102 -36c62 0 116 43 140 85 c9 16 13 41 13 74c0 20 -1 42 -5 67c-8 53 -18 106 -26 159zM461 939c-95 0 -135 -175 -135 -286c0 -24 2 -48 5 -71c50 39 92 82 127 128c40 53 60 100 60 140v8c-4 53 -22 81 -55 81h-2zM406 119l54 -326c73 25 110 78 110 161c0 7 0 15 -1 23c-7 95 -57 142 -151 142h-12 zM382 117c-72 -2 -128 -47 -128 -120v-7c2 -46 43 -99 75 -115c-3 -2 -7 -5 -10 -10c-70 33 -116 88 -123 172v11c0 68 44 126 88 159c23 17 49 29 78 36l-29 170c-21 -13 -52 -37 -92 -73c-50 -44 -86 -84 -109 -119c-45 -69 -67 -130 -67 -182v-13c5 -68 35 -127 93 -176 s125 -73 203 -73c25 0 50 3 75 9c-19 111 -36 221 -54 331z"/></g><g id="E260-rieod5s"><path transform="scale(1,-1)" d="M20 110c32 16 54 27 93 27c26 0 35 -3 54 -13c13 -7 24 -20 27 -38l4 -25c0 -28 -16 -57 -45 -89c-23 -25 -39 -44 -65 -68l-88 -79v644h20v-359zM90 106c-32 0 -48 -10 -70 -29v-194c31 31 54 59 71 84c21 32 32 59 32 84c0 9 1 16 1 20c0 14 -3 21 -11 30l-8 3z"/></g><g id="E08A-rieod5s"><path transform="scale(1,-1)" d="M340 179c-9 24 -56 41 -89 41c-46 0 -81 -28 -100 -58c-17 -28 -25 -78 -25 -150c0 -65 2 -111 8 -135c8 -31 18 -49 40 -67c20 -17 43 -25 70 -25c54 0 92 36 115 75c14 25 23 54 28 88h27c0 -63 -24 -105 -58 -141c-35 -38 -82 -56 -140 -56c-45 0 -83 13 -115 39 c-57 45 -101 130 -101 226c0 59 33 127 68 163c36 37 97 72 160 72c36 0 93 -21 121 -40c11 -8 23 -17 33 -30c19 -23 27 -48 27 -76c0 -51 -35 -88 -86 -88c-43 0 -76 27 -76 68c0 26 7 35 21 51c15 17 32 27 58 32c7 2 14 7 14 11z"/></g><g id="E4E4-rieod5s"><path transform="scale(1,-1)" d="M0 10v105c0 9 1 10 10 10h280c9 0 10 -1 10 -10v-105c0 -9 -1 -10 -10 -10h-280c-9 0 -10 1 -10 10z"/></g><g id="E4E5-rieod5s"><path transform="scale(1,-1)" d="M107 292c-13 24 -30 49 -52 71c-1 1 0 2 0 3l-2 2c3 3 4 4 6 4c12 0 26 -7 40 -20s44 -40 89 -81c26 -24 28 -29 46 -47c4 -4 8 -9 10 -14c6 -8 8 -16 8 -27c0 -19 -12 -40 -36 -61c-28 -23 -49 -38 -61 -73c-4 -11 -7 -27 -10 -50c13 -43 34 -83 59 -121 c31 -47 59 -79 101 -129c-8 0 -26 7 -54 20l-62 29l-21 6l-23 1c-25 0 -45 -10 -60 -30l-4 -14l-1 -12c0 -33 20 -56 39 -78c8 -9 17 -18 26 -26c17 -15 27 -24 28 -30l-3 -3c-11 5 -19 10 -25 15c-9 3 -37 21 -45 26c-24 14 -45 32 -63 51c-19 21 -37 44 -37 71 c0 63 27 95 80 95c41 0 86 -18 136 -52c-19 26 -37 48 -55 66c-23 23 -48 44 -73 65c-28 23 -47 40 -58 53s-17 26 -18 39c75 64 113 125 113 183c0 27 -7 48 -18 68z"/></g><g id="E0A4-rieod5s"><path transform="scale(1,-1)" d="M0 -39c0 68 73 172 200 172c66 0 114 -37 114 -95c0 -84 -106 -171 -218 -171c-64 0 -96 30 -96 94z"/></g><g id="E240-rieod5s"><path transform="scale(1,-1)" d="M179 -646c15 29 29 55 46 102c18 49 30 108 30 138c0 105 -80 173 -168 200c-18 5 -47 9 -87 16v190h22c8 0 33 -61 71 -95c4 -3 -2 3 61 -56c62 -58 122 -137 122 -241c0 -38 -13 -106 -35 -163c-20 -51 -43 -99 -66 -132c-6 -5 -10 -7 -13 -7s-5 2 -5 5l4 10 c1 3 14 25 18 33z"/></g><g id="E242-rieod5s"><path transform="scale(1,-1)" d="M206 -748c32 48 49 100 49 149c0 89 -55 168 -168 203c-18 5 -47 9 -87 16v190v190h22c8 0 33 -61 71 -95c4 -3 -2 3 61 -56c62 -58 122 -137 122 -241c0 -32 -7 -65 -17 -96c11 -29 17 -60 17 -94c0 -71 -32 -148 -67 -190c-6 -5 -10 -7 -13 -7s-5 2 -5 5l4 10 c1 3 6 8 11 16zM248 -463c4 18 7 38 7 57c0 105 -80 173 -168 200c-11 3 -27 6 -47 9c9 -17 23 -61 53 -88c4 -3 -2 3 61 -56c36 -33 71 -74 94 -122z"/></g><g id="E241-rieod5s"><path transform="scale(1,-1)" d="M179 646c-4 8 -17 30 -18 33l-4 10c0 3 2 5 5 5s7 -2 13 -7c23 -33 46 -81 66 -132c22 -57 35 -125 35 -163c0 -104 -60 -183 -122 -241c-63 -59 -57 -53 -61 -56c-38 -34 -63 -95 -71 -95h-22v190c40 7 69 11 87 16c88 27 168 95 168 200c0 30 -12 89 -30 138 c-17 47 -31 73 -46 102z"/></g><g id="E243-rieod5s"><path transform="scale(1,-1)" d="M216 730c-5 8 -10 13 -11 16l-4 10c0 3 2 5 5 5s7 -2 13 -7c35 -42 57 -101 57 -172c0 -34 -6 -65 -17 -94c10 -31 17 -64 17 -96c0 -104 -60 -183 -122 -241c-63 -59 -57 -53 -61 -56c-38 -34 -63 -95 -71 -95h-22v190v190c40 7 69 11 87 16c116 36 175 111 175 197 c0 44 -15 91 -46 137zM248 463c-23 -48 -58 -89 -94 -122c-63 -59 -57 -53 -61 -56c-30 -27 -44 -71 -53 -88c20 3 36 6 47 9c88 27 168 95 168 200c0 19 -3 39 -7 57z"/></g></defs><style type="text/css">#rieod5s g.page-margin {font-family:Times,serif;}#rieod5s g.ending, #rieod5s g.fing, #rieod5s g.reh, #rieod5s g.tempo {font-weight:bold;}#rieod5s g.dir, #rieod5s g.dynam, #rieod5s g.mNum {font-style:italic;}#rieod5s g.label {font-weight:normal;}#rieod5s path {stroke:currentColor}</style><svg class="definition-scale" color="black" viewBox="0 0 14000 2100"><g class="page-margin" transform="translate(0, 150)"><g data-id="d1bi6ntk" data-class="mdiv" class="mdiv pageMilestone"/><g data-id="el5ad1a" data-class="score" class="score pageMilestone"/><g data-id="cqqtjga" data-class="system" class="system"><g data-id="g1ams94n" data-class="section" class="section systemMilestone"/><g data-id="s2nild0" data-class="measure" class="measure"><g data-id="s1sbgw6w" data-class="staff" class="staff"><path d="M0 540 L5195 540" stroke-width="13"/><path d="M0 720 L5195 720" stroke-width="13"/><path d="M0 900 L5195 900" stroke-width="13"/><path d="M0 1080 L5195 1080" stroke-width="13"/><path d="M0 1260 L5195 1260" stroke-width="13"/><g data-id="gdjc2r7" data-class="clef" class="clef"><use href="#E050-rieod5s" transform="translate(90, 1080) scale(0.72, 0.72)"/></g><g data-id="h10wxbdu" data-class="keySig" class="keySig"><g data-id="is31uo6" data-class="keyAccid" class="keyAccid"><use href="#E260-rieod5s" transform="translate(735, 900) scale(0.72, 0.72)"/></g><g data-id="jv8edee" data-class="keyAccid" class="keyAccid"><use href="#E260-rieod5s" transform="translate(915, 630) scale(0.72, 0.72)"/></g><g data-id="k1lr4iw5" data-class="keyAccid" class="keyAccid"><use href="#E260-rieod5s" transform="translate(1095, 990) scale(0.72, 0.72)"/></g></g><g data-id="lu2vjh" data-class="meterSig" class="meterSig"><use href="#E08A-rieod5s" transform="translate(1417, 900) scale(0.72, 0.72)"/></g><g data-id="t94s927" data-class="layer" class="layer"><g data-id="lunegid" data-class="rest" class="rest"><use href="#E4E4-rieod5s" transform="translate(2001, 900) scale(0.72, 0.72)"/><g data-class="ledgerLines" class="ledgerLines"/></g><g data-id="mbblere" data-class="rest" class="rest"><use href="#E4E5-rieod5s" transform="translate(3376, 900) scale(0.72, 0.72)"/></g><g data-id="pi9pepl" data-class="note" class="note"><g data-class="notehead" class="notehead"><use href="#E0A4-rieod5s" transform="translate(4279, 1260) scale(0.72, 0.72)"/></g><g data-id="p1jeprpa" data-class="stem" class="stem"><path d="M4496 1232 L4496 630" stroke-width="18"/></g><g data-id="p7wl0ui" data-class="accid" class="accid"/></g></g></g><g data-id="anumq7r" data-class="barLine" class="barLine"><path d="M5182 540 L5182 1260" stroke-width="27"/></g></g><g data-id="bkpwfpw" data-class="measure" class="measure"><g data-id="uqusrtk" data-class="staff" class="staff"><path d="M5195 540 L10181 540" stroke-width="13"/><path d="M5195 720 L10181 720" stroke-width="13"/><path d="M5195 900 L10181 900" stroke-width="13"/><path d="M5195 1080 L10181 1080" stroke-width="13"/><path d="M5195 1260 L10181 1260" stroke-width="13"/><g data-id="v8sst8c" data-class="layer" class="layer"><g data-id="q11eeebv" data-class="note" class="note"><g data-class="notehead" class="notehead"><use href="#E0A4-rieod5s" transform="translate(5391, 1080) scale(0.72, 0.72)"/></g><g data-id="r1lasqmv" data-class="dots" class="dots"><ellipse cx="5865" cy="990" rx="36" ry="36" fill-opacity="1" stroke-opacity="1"/></g><g data-id="qczyo2q" data-class="stem" class="stem"><path d="M5608 1052 L5608 450" stroke-width="18"/><g data-id="s98ok85" data-class="flag" class="flag"><use href="#E240-rieod5s" transform="translate(5599, 450) scale(0.72, 0.72)"/></g></g></g><g data-id="r1sscucj" data-class="note" class="note"><g data-class="notehead" class="notehead"><use href="#E0A4-rieod5s" transform="translate(6150, 1080) scale(0.72, 0.72)"/></g><g data-id="to19gwp" data-class="stem" class="stem"><path d="M6367 1052 L6367 450" stroke-width="18"/><g data-id="uizdnx2" data-class="flag" class="flag"><use href="#E242-rieod5s" transform="translate(6358, 450) scale(0.72, 0.72)"/></g></g></g><g data-id="s14cfmau" data-class="note" class="note"><g data-class="notehead" class="notehead"><use href="#E0A4-rieod5s" transform="translate(6661, 1080) scale(0.72, 0.72)"/></g><g data-id="vxi9uzt" data-class="stem" class="stem"><path d="M6878 1052 L6878 450" stroke-width="18"/><g data-id="w109cu1f" data-class="flag" class="flag"><use href="#E240-rieod5s" transform="translate(6869, 450) scale(0.72, 0.72)"/></g></g></g><g data-id="tli204q" data-class="note" class="note"><g data-class="notehead" class="notehead"><use href="#E0A4-rieod5s" transform="translate(7250, 990) scale(0.72, 0.72)"/></g><g data-id="x3s9r81" data-class="stem" class="stem"><path d="M7467 962 L7467 360" stroke-width="18"/><g data-id="y8kzerg" data-class="flag" class="flag"><use href="#E240-rieod5s" transform="translate(7458, 360) scale(0.72, 0.72)"/></g></g><g data-id="q1qecjxc" data-class="accid" class="accid"/></g><g data-id="uzx1pps" data-class="note" class="note"><g data-class="notehead" class="notehead"><use href="#E0A4-rieod5s" transform="translate(7839, 900) scale(0.72, 0.72)"/></g><g data-id="z1hwl9ge" data-class="stem" class="stem"><path d="M7848 928 L7848 1500" stroke-width="18"/><g data-id="a5n0lod" data-class="flag" class="flag"><use href="#E241-rieod5s" transform="translate(7839, 1500) scale(0.72, 0.72)"/></g></g><g data-id="r14orct7" data-class="accid" class="accid"/></g><g data-id="v1b7s0l4" data-class="note" class="note"><g data-class="notehead" class="notehead"><use href="#E0A4-rieod5s" transform="translate(8428, 900) scale(0.72, 0.72)"/></g><g data-id="b15grhe6" data-class="stem" class="stem"><path d="M8437 928 L8437 1500" stroke-width="18"/><g data-id="c8cnvr6" data-class="flag" class="flag"><use href="#E241-rieod5s" transform="translate(8428, 1500) scale(0.72, 0.72)"/></g></g><g data-id="stgw2q5" data-class="accid" class="accid"/></g><g data-id="w1vn1kor" data-class="note" class="note"><g data-class="notehead" class="notehead"><use href="#E0A4-rieod5s" transform="translate(9017, 810) scale(0.72, 0.72)"/></g><g data-id="e1srehkn" data-class="dots" class="dots"><ellipse cx="9333" cy="810" rx="36" ry="36" fill-opacity="1" stroke-opacity="1"/></g><g data-id="d1mx3x5a" data-class="stem" class="stem"><path d="M9026 838 L9026 1440" stroke-width="18"/><g data-id="f25yuko" data-class="flag" class="flag"><use href="#E241-rieod5s" transform="translate(9017, 1440) scale(0.72, 0.72)"/></g></g></g><g data-id="xbia0lv" data-class="note" class="note"><g data-class="notehead" class="notehead"><use href="#E0A4-rieod5s" transform="translate(9776, 900) scale(0.72, 0.72)"/></g><g data-id="gf7x7z7" data-class="stem" class="stem"><path d="M9785 928 L9785 1500" stroke-width="18"/><g data-id="hlcxvi1" data-class="flag" class="flag"><use href="#E243-rieod5s" transform="translate(9776, 1500) scale(0.72, 0.72)"/></g></g><g data-id="t1ocglqb" data-class="accid" class="accid"/></g></g></g><g data-id="jr38pgv" data-class="barLine" class="barLine"><path d="M10168 540 L10168 1260" stroke-width="27"/></g></g><g data-id="k1jzdxj5" data-class="measure" class="measure"><g data-id="w2e5smv" data-class="staff" class="staff"><path d="M10181 540 L14002 540" stroke-width="13"/><path d="M10181 720 L14002 720" stroke-width="13"/><path d="M10181 900 L14002 900" stroke-width="13"/><path d="M10181 1080 L14002 1080" stroke-width="13"/><path d="M10181 1260 L14002 1260" stroke-width="13"/><g data-id="xe13xm2" data-class="layer" class="layer"><g data-id="y16l55rk" data-class="note" class="note"><g data-class="notehead" class="notehead"><use href="#E0A4-rieod5s" transform="translate(10377, 900) scale(0.72, 0.72)"/></g><g data-id="i1s252qy" data-class="stem" class="stem"><path d="M10386 928 L10386 1500" stroke-width="18"/></g><g data-id="u1ul9sxq" data-class="accid" class="accid"/></g><g data-id="z1iuou84" data-class="note" class="note"><g data-class="notehead" class="notehead"><use href="#E0A4-rieod5s" transform="translate(11280, 990) scale(0.72, 0.72)"/></g><g data-id="joufisz" data-class="stem" class="stem"><path d="M11497 962 L11497 360" stroke-width="18"/></g><g data-id="v1ktkdmk" data-class="accid" class="accid"/></g><g data-id="n1txey5a" data-class="rest" class="rest"><use href="#E4E5-rieod5s" transform="translate(12183, 900) scale(0.72, 0.72)"/></g><g data-id="askw6t8" data-class="note" class="note"><g data-class="notehead" class="notehead"><use href="#E0A4-rieod5s" transform="translate(13086, 990) scale(0.72, 0.72)"/></g><g data-id="k1ftz9ol" data-class="stem" class="stem"><path d="M13303 962 L13303 360" stroke-width="18"/></g><g data-id="w1uc178v" data-class="accid" class="accid"/></g></g></g><g data-id="s9acavs" data-class="barLine" class="barLine"><path d="M13989 540 L13989 1260" stroke-width="27"/></g></g></g></g></svg></svg>