<svg viewBox="0 0 560 88" version="1.1" xmlns="http://www.w3.org/2000/svg" xmlns:xlink="http://www.w3.org/1999/xlink" overflow="visible" id="m1tgsbtk"><desc>Engraved by Verovio 5.6.0-85e7620</desc><defs><g id="E062-m1tgsbtk"><path transform="scale(1,-1)" d="M582 -120c0 32 26 58 58 58s58 -26 58 -58s-26 -58 -58 -58s-58 26 -58 58zM582 120c0 32 26 58 58 58s58 -26 58 -58s-26 -58 -58 -58s-58 26 -58 58zM158 96c51 0 73 -14 88 -49l16 -39c0 -17 -2 -30 -7 -40c-3 -11 -10 -21 -19 -31c-17 -18 -49 -43 -84 -43 c-55 0 -77 13 -112 44c-24 21 -35 55 -35 100c0 46 14 81 32 112c30 52 71 79 137 93l36 6l26 2c154 0 235 -68 274 -182c11 -32 18 -68 18 -107c0 -103 -26 -182 -68 -250c-89 -145 -234 -230 -412 -288l-30 -5c-9 0 -14 3 -14 8c3 10 5 11 10 16c35 15 70 30 96 44l78 43 c96 57 162 136 197 258c9 33 17 60 22 100c3 22 5 35 6 39c-7 69 -16 115 -23 140s-4 22 -16 40c-8 12 -19 23 -31 34c-24 21 -62 44 -118 44c-48 0 -84 -8 -113 -28c-28 -19 -42 -44 -42 -73v-16c2 -5 3 -9 4 -11c24 22 52 39 84 39z"/></g><g id="E260-m1tgsbtk"><path transform="scale(1,-1)" d="M20 110c32 16 54 27 93 27c26 0 35 -3 54 -13c13 -7 24 -20 27 -38l4 -25c0 -28 -16 -57 -45 -89c-23 -25 -39 -44 -65 -68l-88 -79v644h20v-359zM90 106c-32 0 -48 -10 -70 -29v-194c31 31 54 59 71 84c21 32 32 59 32 84c0 9 1 16 1 20c0 14 -3 21 -11 30l-8 3z"/></g><g id="E083-m1tgsbtk"><path transform="scale(1,-1)" d="M208 250c97 0 177 -52 177 -116c0 -69 -40 -111 -118 -125c56 -5 125 -44 125 -116c0 -31 -10 -57 -31 -78c-19 -21 -45 -38 -78 -49l-50 -11c-15 -3 -36 -7 -55 -7c-50 0 -86 16 -113 38c-16 10 -23 18 -34 34c-7 13 -11 25 -11 38c0 43 27 83 68 83l3 -2 c61 0 75 -42 75 -70c0 -19 -24 -42 -26 -57c7 -17 20 -25 37 -25c44 0 94 29 94 78c0 75 -34 125 -138 125v36c84 0 131 22 131 98c0 54 -37 88 -87 88c-26 0 -43 -7 -51 -22c15 -22 44 -16 44 -70c0 -37 -37 -62 -71 -62c-22 0 -69 15 -69 76c0 79 101 116 178 116z"/></g><g id="E084-m1tgsbtk"><path transform="scale(1,-1)" d="M20 -78c84 97 114 180 134 329h170c-13 -32 -82 -132 -99 -151l-84 -97c-33 -36 -59 -63 -80 -81h162v102l127 123v-225h57v-39h-57v-34c0 -43 19 -65 57 -65v-34h-244v36c48 0 60 26 60 70v27h-203v39z"/></g><g id="E0A4-m1tgsbtk"><path transform="scale(1,-1)" d="M0 -39c0 68 73 172 200 172c66 0 114 -37 114 -95c0 -84 -106 -171 -218 -171c-64 0 -96 30 -96 94z"/></g><g id="E241-m1tgsbtk"><path transform="scale(1,-1)" d="M179 646c-4 8 -17 30 -18 33l-4 10c0 3 2 5 5 5s7 -2 13 -7c23 -33 46 -81 66 -132c22 -57 35 -125 35 -163c0 -104 -60 -183 -122 -241c-63 -59 -57 -53 -61 -56c-38 -34 -63 -95 -71 -95h-22v190c40 7 69 11 87 16c88 27 168 95 168 200c0 30 -12 89 -30 138 c-17 47 -31 73 -46 102z"/></g></defs><style type="text/css">#m1tgsbtk g.page-margin {font-family:Times,serif;}#m1tgsbtk g.ending, #m1tgsbtk g.fing, #m1tgsbtk g.reh, #m1tgsbtk g.tempo {font-weight:bold;}#m1tgsbtk g.dir, #m1tgsbtk g.dynam, #m1tgsbtk g.mNum {font-style:italic;}#m1tgsbtk g.label {font-weight:normal;}#m1tgsbtk path {stroke:currentColor}</style><svg class="definition-scale" color="black" viewBox="0 0 14000 2190"><g class="page-margin" transform="translate(0, 150)"><g data-id="k1sqcgjc" data-class="mdiv" class="mdiv pageMilestone"/><g data-id="l1isgtcl" data-class="score" class="score pageMilestone"/><g data-id="quf8vo8" data-class="system" class="system"><g data-id="nlrh950" data-class="section" class="section systemMilestone"/><g data-id="nab0suh" data-class="measure" class="measure"><g data-id="z1cc88sc" data-class="staff" class="staff"><path d="M0 636 L3182 636" stroke-width="13"/><path d="M0 816 L3182 816" stroke-width="13"/><path d="M0 996 L3182 996" stroke-width="13"/><path d="M0 1176 L3182 1176" stroke-width="13"/><path d="M0 1356 L3182 1356" stroke-width="13"/><g data-id="w1u13qtt" data-class="clef" class="clef"><use href="#E062-m1tgsbtk" transform="translate(88, 816) scale(0.72, 0.72)"/></g><g data-id="x1518jw7" data-class="keySig" class="keySig"><g data-id="y2e9ujc" data-class="keyAccid" class="keyAccid"><use href="#E260-m1tgsbtk" transform="translate(769, 1176) scale(0.72, 0.72)"/></g><g data-id="z1rqpkn" data-class="keyAccid" class="keyAccid"><use href="#E260-m1tgsbtk" transform="translate(949, 906) scale(0.72, 0.72)"/></g></g><g data-id="a9i4ib0" data-class="meterSig" class="meterSig"><use href="#E083-m1tgsbtk" transform="translate(1263, 816) scale(0.72, 0.72)"/><use href="#E084-m1tgsbtk" transform="translate(1257, 1176) scale(0.72, 0.72)"/></g><g data-class="ledgerLines" class="ledgerLines above"><g data-class="lineDash" class="lineDash" data-related="#o1u423l8"><path d="M1771 456 L2093 456" stroke-width="22"/></g><g data-class="lineDash" class="lineDash" data-related="#p10thapl"><path d="M2221 456 L2543 456" stroke-width="22"/></g><g data-class="lineDash" class="lineDash" data-related="#q1oj1jju"><path d="M2671 456 L2993 456" stroke-width="22"/></g><g data-class="lineDash" class="lineDash" data-related="#q1oj1jju"><path d="M2671 276 L2993 276" stroke-width="22"/></g><g data-class="lineDash" class="lineDash" data-related="#q1oj1jju"><path d="M2671 96 L2993 96" stroke-width="22"/></g></g><g data-id="au5ulyv" data-class="layer" class="layer"><g data-id="aaf74sp" data-class="beam" class="beam"><polygon stroke-opacity="1" fill-opacity="1" points="1819,996 2737,996 2737,906 1819,906"/><g data-id="o1u423l8" data-class="note" class="note"><g data-class="notehead" class="notehead"><use href="#E0A4-m1tgsbtk" transform="translate(1819, 366) scale(0.72, 0.72)"/></g><g data-id="r1qkv15v" data-class="stem" class="stem"><path d="M1828 394 L1828 978" stroke-width="18"/></g></g><g data-id="p10thapl" data-class="note" class="note"><g data-class="notehead" class="notehead"><use href="#E0A4-m1tgsbtk" transform="translate(2269, 366) scale(0.72, 0.72)"/></g><g data-id="sisg4pl" data-class="stem" class="stem"><path d="M2278 394 L2278 978" stroke-width="18"/></g></g><g data-id="q1oj1jju" data-class="note" class="note"><g data-class="notehead" class="notehead"><use href="#E0A4-m1tgsbtk" transform="translate(2719, 96) scale(0.72, 0.72)"/></g><g data-id="tc66u1d" data-class="stem" class="stem"><path d="M2728 124 L2728 978" stroke-width="18"/></g></g></g></g></g><g data-id="v141jwnd" data-class="barLine" class="barLine"><path d="M3169 636 L3169 1356" stroke-width="27"/></g></g><g data-id="w17kfk7m" data-class="measure" class="measure"><g data-id="bz9mh28" data-class="staff" class="staff"><path d="M3182 636 L6071 636" stroke-width="13"/><path d="M3182 816 L6071 816" stroke-width="13"/><path d="M3182 996 L6071 996" stroke-width="13"/><path d="M3182 1176 L6071 1176" stroke-width="13"/><path d="M3182 1356 L6071 1356" stroke-width="13"/><g data-class="ledgerLines" class="ledgerLines above"><g data-class="lineDash" class="lineDash" data-related="#r1cy1tyq"><path d="M3314 456 L3636 456" stroke-width="22"/></g><g data-class="lineDash" class="lineDash" data-related="#s78d4ul"><path d="M3912 456 L4198 456" stroke-width="22"/></g><g data-class="lineDash" class="lineDash" data-related="#t8wmmw0"><path d="M4228 456 L4514 456" stroke-width="22"/></g><g data-class="lineDash" class="lineDash" data-related="#wptop15"><path d="M5560 456 L5882 456" stroke-width="22"/></g><g data-class="lineDash" class="lineDash" data-related="#r1cy1tyq"><path d="M3314 276 L3636 276" stroke-width="22"/></g><g data-class="lineDash" class="lineDash" data-related="#s78d4ul"><path d="M3912 276 L4198 276" stroke-width="22"/></g><g data-class="lineDash" class="lineDash" data-related="#wptop15"><path d="M5560 276 L5882 276" stroke-width="22"/></g></g><g data-id="c1poaiyo" data-class="layer" class="layer"><g data-id="bun34gq" data-class="beam" class="beam"><polygon stroke-opacity="1" fill-opacity="1" points="3362,996 3960,1176 3960,1086 3362,906"/><polygon stroke-opacity="1" fill-opacity="1" points="3734,976 3960,1041 3960,951 3734,886"/><g data-id="r1cy1tyq" data-class="note" class="note"><g data-class="notehead" class="notehead"><use href="#E0A4-m1tgsbtk" transform="translate(3362, 186) scale(0.72, 0.72)"/></g><g data-id="vi0petb" data-class="dots" class="dots"><ellipse cx="3678" cy="186" rx="36" ry="36" fill-opacity="1" stroke-opacity="1"/></g><g data-id="u5vdem" data-class="stem" class="stem"><path d="M3371 214 L3371 978" stroke-width="18"/></g></g><g data-id="s78d4ul" data-class="note" class="note"><g data-class="notehead" class="notehead"><use href="#E0A4-m1tgsbtk" transform="translate(3942, 276) scale(0.72, 0.72)"/></g><g data-id="w1qckut3" data-class="stem" class="stem"><path d="M3951 304 L3951 1158" stroke-width="18"/></g><g data-id="e1cer07o" data-class="accid" class="accid"/></g></g><g data-id="c1i69owt" data-class="beam" class="beam"><polygon stroke-opacity="1" fill-opacity="1" points="4258,1176 5626,1176 5626,1086 4258,1086"/><g data-id="t8wmmw0" data-class="note" class="note"><g data-class="notehead" class="notehead"><use href="#E0A4-m1tgsbtk" transform="translate(4258, 366) scale(0.72, 0.72)"/></g><g data-id="x1v1szrh" data-class="stem" class="stem"><path d="M4267 394 L4267 1158" stroke-width="18"/></g></g><g data-id="u154xw4r" data-class="note" class="note"><g data-class="notehead" class="notehead"><use href="#E0A4-m1tgsbtk" transform="translate(4708, 546) scale(0.72, 0.72)"/></g><g data-id="y1gqpo14" data-class="stem" class="stem"><path d="M4717 574 L4717 1158" stroke-width="18"/></g><g data-id="fg67951" data-class="accid" class="accid"/></g><g data-id="v2qa4gi" data-class="note" class="note"><g data-class="notehead" class="notehead"><use href="#E0A4-m1tgsbtk" transform="translate(5158, 546) scale(0.72, 0.72)"/></g><g data-id="z1lcsgc6" data-class="stem" class="stem"><path d="M5167 574 L5167 1158" stroke-width="18"/></g><g data-id="g9vob6o" data-class="accid" class="accid"/></g><g data-id="wptop15" data-class="note" class="note"><g data-class="notehead" class="notehead"><use href="#E0A4-m1tgsbtk" transform="translate(5608, 276) scale(0.72, 0.72)"/></g><g data-id="alc536s" data-class="stem" class="stem"><path d="M5617 304 L5617 1158" stroke-width="18"/></g><g data-id="h1ubyv7u" data-class="accid" class="accid"/></g></g></g></g><g data-id="e284u1" data-class="barLine" class="barLine"><path d="M6058 636 L6058 1356" stroke-width="27"/></g></g><g data-id="fm3d5py" data-class="measure" class="measure"><g data-id="dylt1c5" data-class="staff" class="staff"><path d="M6071 636 L7597 636" stroke-width="13"/><path d="M6071 816 L7597 816" stroke-width="13"/><path d="M6071 996 L7597 996" stroke-width="13"/><path d="M6071 1176 L7597 1176" stroke-width="13"/><path d="M6071 1356 L7597 1356" stroke-width="13"/><g data-class="ledgerLines" class="ledgerLines above"><g data-class="lineDash" class="lineDash" data-related="#x1rdarjx"><path d="M6203 456 L6525 456" stroke-width="22"/></g><g data-class="lineDash" class="lineDash" data-related="#ym4y8oh"><path d="M6783 456 L7105 456" stroke-width="22"/></g></g><g data-id="epehlo7" data-class="layer" class="layer"><g data-id="dv7pjhg" data-class="beam" class="beam"><polygon stroke-opacity="1" fill-opacity="1" points="6251,996 6849,1086 6849,996 6251,906"/><polygon stroke-opacity="1" fill-opacity="1" points="6623,918 6849,951 6849,861 6623,828"/><g data-id="x1rdarjx" data-class="note" class="note"><g data-class="notehead" class="notehead"><use href="#E0A4-m1tgsbtk" transform="translate(6251, 366) scale(0.72, 0.72)"/></g><g data-id="c1a6owy9" data-class="dots" class="dots"><ellipse cx="6567" cy="366" rx="36" ry="36" fill-opacity="1" stroke-opacity="1"/></g><g data-id="bl1yrab" data-class="stem" class="stem"><path d="M6260 394 L6260 978" stroke-width="18"/></g></g><g data-id="ym4y8oh" data-class="note" class="note"><g data-class="notehead" class="notehead"><use href="#E0A4-m1tgsbtk" transform="translate(6831, 456) scale(0.72, 0.72)"/></g><g data-id="d114llo2" data-class="stem" class="stem"><path d="M6840 484 L6840 1068" stroke-width="18"/></g></g></g><g data-id="zdslm17" data-class="note" class="note"><g data-class="notehead" class="notehead"><use href="#E0A4-m1tgsbtk" transform="translate(7147, 546) scale(0.72, 0.72)"/></g><g data-id="e1l3kpps" data-class="stem" class="stem"><path d="M7156 574 L7156 1176" stroke-width="18"/><g data-id="f6urtlh" data-class="flag" class="flag"><use href="#E241-m1tgsbtk" transform="translate(7147, 1176) scale(0.72, 0.72)"/></g></g><g data-id="ikl7ga8" data-class="accid" class="accid"/></g></g></g><g data-id="n1ht32o0" data-class="barLine" class="barLine"/></g><g data-id="mft9x4a" data-class="systemMilestoneEnd" class="systemMilestoneEnd nlrh950"/></g><g data-id="n14jy993" data-class="pageMilestoneEnd" class="pageMilestoneEnd l1isgtcl"/><g data-id="orl9aag" data-class="pageMilestoneEnd" class="pageMilestoneEnd k1sqcgjc"/></g></svg></svg>