<svg viewBox="0 0 560 84" version="1.1" xmlns="http://www.w3.org/2000/svg" xmlns:xlink="http://www.w3.org/1999/xlink" overflow="visible" id="c1ionm4a"><desc>Engraved by Verovio 5.6.0-85e7620</desc><defs><g id="E062-c1ionm4a"><path transform="scale(1,-1)" d="M582 -120c0 32 26 58 58 58s58 -26 58 -58s-26 -58 -58 -58s-58 26 -58 58zM582 120c0 32 26 58 58 58s58 -26 58 -58s-26 -58 -58 -58s-58 26 -58 58zM158 96c51 0 73 -14 88 -49l16 -39c0 -17 -2 -30 -7 -40c-3 -11 -10 -21 -19 -31c-17 -18 -49 -43 -84 -43 c-55 0 -77 13 -112 44c-24 21 -35 55 -35 100c0 46 14 81 32 112c30 52 71 79 137 93l36 6l26 2c154 0 235 -68 274 -182c11 -32 18 -68 18 -107c0 -103 -26 -182 -68 -250c-89 -145 -234 -230 -412 -288l-30 -5c-9 0 -14 3 -14 8c3 10 5 11 10 16c35 15 70 30 96 44l78 43 c96 57 162 136 197 258c9 33 17 60 22 100c3 22 5 35 6 39c-7 69 -16 115 -23 140s-4 22 -16 40c-8 12 -19 23 -31 34c-24 21 -62 44 -118 44c-48 0 -84 -8 -113 -28c-28 -19 -42 -44 -42 -73v-16c2 -5 3 -9 4 -11c24 22 52 39 84 39z"/></g><g id="E262-c1ionm4a"><path transform="scale(1,-1)" d="M136 186v169h17v-164l44 14v-91l-44 -14v-165l44 12v-91l-44 -13v-155h-17v150l-76 -22v-155h-17v149l-43 -13v90l43 14v167l-43 -14v92l43 13v169h17v-163zM60 73v-167l76 22v168z"/></g><g id="E086-c1ionm4a"><path transform="scale(1,-1)" d="M284 -91c0 37 -28 92 -67 92c-35 0 -65 -54 -65 -111c0 -52 22 -104 68 -104c47 0 64 68 64 123zM230 214c-36 0 -90 -33 -90 -184l2 -36c40 24 81 36 120 36c80 0 140 -48 140 -121c0 -99 -99 -159 -182 -159c-160 0 -200 173 -200 244c0 21 2 43 7 71l10 35 c26 85 73 115 98 126c41 19 74 24 103 24c93 0 142 -63 142 -105c0 -58 -52 -72 -73 -72c-33 0 -59 24 -65 35c-3 5 -6 14 -7 25l11 30c6 15 9 27 9 35c0 11 -9 16 -25 16z"/></g><g id="E088-c1ionm4a"><path transform="scale(1,-1)" d="M195 -214c76 0 88 58 90 68c0 34 -35 60 -57 73l-52 29c-21 10 -32 17 -34 20c-39 -33 -58 -54 -62 -92c5 -23 23 -98 115 -98zM301 135c0 61 -72 76 -113 76c-40 0 -77 -17 -77 -51c3 -21 15 -38 26 -50c17 -15 33 -26 48 -34l65 -28c34 27 51 56 51 87zM176 -250 c-57 0 -166 26 -166 132c0 47 30 86 89 116c-33 15 -79 60 -79 119c0 79 85 132 178 132h18c5 0 21 1 28 -1c25 0 126 -30 126 -110c0 -37 -23 -76 -69 -116c43 -25 83 -71 83 -119c0 -101 -118 -153 -208 -153z"/></g><g id="E0A4-c1ionm4a"><path transform="scale(1,-1)" d="M0 -39c0 68 73 172 200 172c66 0 114 -37 114 -95c0 -84 -106 -171 -218 -171c-64 0 -96 30 -96 94z"/></g><g id="E241-c1ionm4a"><path transform="scale(1,-1)" d="M179 646c-4 8 -17 30 -18 33l-4 10c0 3 2 5 5 5s7 -2 13 -7c23 -33 46 -81 66 -132c22 -57 35 -125 35 -163c0 -104 -60 -183 -122 -241c-63 -59 -57 -53 -61 -56c-38 -34 -63 -95 -71 -95h-22v190c40 7 69 11 87 16c88 27 168 95 168 200c0 30 -12 89 -30 138 c-17 47 -31 73 -46 102z"/></g></defs><style type="text/css">#c1ionm4a g.page-margin {font-family:Times,serif;}#c1ionm4a g.ending, #c1ionm4a g.fing, #c1ionm4a g.reh, #c1ionm4a g.tempo {font-weight:bold;}#c1ionm4a g.dir, #c1ionm4a g.dynam, #c1ionm4a g.mNum {font-style:italic;}#c1ionm4a g.label {font-weight:normal;}#c1ionm4a path {stroke:currentColor}</style><svg class="definition-scale" color="black" viewBox="0 0 14000 2100"><g class="page-margin" transform="translate(0, 150)"><g data-id="fqndzzk" data-class="mdiv" class="mdiv pageMilestone"/><g data-id="gdcm8ta" data-class="score" class="score pageMilestone"/><g data-id="m1eu16c3" data-class="system" class="system"><g data-id="i89eq7b" data-class="section" class="section systemMilestone"/><g data-id="dptlc1g" data-class="measure" class="measure"><g data-id="u1llk6ut" data-class="staff" class="staff"><path d="M0 546 L2276 546" stroke-width="13"/><path d="M0 726 L2276 726" stroke-width="13"/><path d="M0 906 L2276 906" stroke-width="13"/><path d="M0 1086 L2276 1086" stroke-width="13"/><path d="M0 1266 L2276 1266" stroke-width="13"/><g data-id="shpe507" data-class="clef" class="clef"><use href="#E062-c1ionm4a" transform="translate(88, 726) scale(0.72, 0.72)"/></g><g data-id="tqoxscz" data-class="keySig" class="keySig"><g data-id="u1ec5guh" data-class="keyAccid" class="keyAccid"><use href="#E262-c1ionm4a" transform="translate(769, 726) scale(0.72, 0.72)"/></g><g data-id="vimkrug" data-class="keyAccid" class="keyAccid"><use href="#E262-c1ionm4a" transform="translate(947, 996) scale(0.72, 0.72)"/></g></g><g data-id="w1p1lc2k" data-class="meterSig" class="meterSig"><use href="#E086-c1ionm4a" transform="translate(1254, 726) scale(0.72, 0.72)"/><use href="#E088-c1ionm4a" transform="translate(1261, 1086) scale(0.72, 0.72)"/></g><g data-id="v1bta1fs" data-class="layer" class="layer"><g data-id="e1cu70ta" data-class="note" class="note"><g data-class="notehead" class="notehead"><use href="#E0A4-c1ionm4a" transform="translate(1813, 726) scale(0.72, 0.72)"/></g><g data-id="mg3dnz3" data-class="stem" class="stem"><path d="M1822 754 L1822 1356" stroke-width="18"/><g data-id="n1dg5dyi" data-class="flag" class="flag"><use href="#E241-c1ionm4a" transform="translate(1813, 1356) scale(0.72, 0.72)"/></g></g><g data-id="vlvwf5x" data-class="accid" class="accid"/></g></g></g><g data-id="ltnm02y" data-class="barLine" class="barLine"><path d="M2263 546 L2263 1266" stroke-width="27"/></g></g><g data-id="miabeyr" data-class="measure" class="measure"><g data-id="w24xsfi" data-class="staff" class="staff"><path d="M2276 546 L5169 546" stroke-width="13"/><path d="M2276 726 L5169 726" stroke-width="13"/><path d="M2276 906 L5169 906" stroke-width="13"/><path d="M2276 1086 L5169 1086" stroke-width="13"/><path d="M2276 1266 L5169 1266" stroke-width="13"/><g data-class="ledgerLines" class="ledgerLines above"><g data-class="lineDash" class="lineDash" data-related="#h1ttq8ne"><path d="M3308 366 L3630 366" stroke-width="22"/></g><g data-class="lineDash" class="lineDash" data-related="#ivh9su"><path d="M3758 366 L4080 366" stroke-width="22"/></g><g data-class="lineDash" class="lineDash" data-related="#h1ttq8ne"><path d="M3308 186 L3630 186" stroke-width="22"/></g><g data-class="lineDash" class="lineDash" data-related="#ivh9su"><path d="M3758 186 L4080 186" stroke-width="22"/></g></g><g data-id="xvhi4ah" data-class="layer" class="layer"><g data-id="r1v9byq7" data-class="beam" class="beam"><polygon stroke-opacity="1" fill-opacity="1" points="2456,1356 3374,1176 3374,1086 2456,1266"/><g data-id="foy5zd5" data-class="note" class="note"><g data-class="notehead" class="notehead"><use href="#E0A4-c1ionm4a" transform="translate(2456, 726) scale(0.72, 0.72)"/></g><g data-id="o555hqk" data-class="stem" class="stem"><path d="M2465 754 L2465 1338" stroke-width="18"/></g><g data-id="w14p52ny" data-class="accid" class="accid"/></g><g data-id="g1s9uhb4" data-class="note" class="note"><g data-class="notehead" class="notehead"><use href="#E0A4-c1ionm4a" transform="translate(2906, 456) scale(0.72, 0.72)"/></g><g data-id="p1o5x85v" data-class="stem" class="stem"><path d="M2915 484 L2915 1248" stroke-width="18"/></g></g><g data-id="h1ttq8ne" data-class="note" class="note"><g data-class="notehead" class="notehead"><use href="#E0A4-c1ionm4a" transform="translate(3356, 96) scale(0.72, 0.72)"/></g><g data-id="q1kq582r" data-class="stem" class="stem"><path d="M3365 124 L3365 1158" stroke-width="18"/></g><g data-id="x18neiem" data-class="accid" class="accid"/></g></g><g data-id="s1tu76kq" data-class="beam" class="beam"><polygon stroke-opacity="1" fill-opacity="1" points="3806,1131 4724,1311 4724,1221 3806,1041"/><g data-id="ivh9su" data-class="note" class="note"><g data-class="notehead" class="notehead"><use href="#E0A4-c1ionm4a" transform="translate(3806, 96) scale(0.72, 0.72)"/></g><g data-id="r166rms6" data-class="stem" class="stem"><path d="M3815 124 L3815 1113" stroke-width="18"/></g><g data-id="y1f078tt" data-class="accid" class="accid"/></g><g data-id="jgggjeo" data-class="note" class="note"><g data-class="notehead" class="notehead"><use href="#E0A4-c1ionm4a" transform="translate(4256, 456) scale(0.72, 0.72)"/></g><g data-id="s1tgqz1p" data-class="stem" class="stem"><path d="M4265 484 L4265 1203" stroke-width="18"/></g></g><g data-id="k7mm460" data-class="note" class="note"><g data-class="notehead" class="notehead"><use href="#E0A4-c1ionm4a" transform="translate(4706, 726) scale(0.72, 0.72)"/></g><g data-id="t1luf5cl" data-class="stem" class="stem"><path d="M4715 754 L4715 1293" stroke-width="18"/></g><g data-id="z1in5otm" data-class="accid" class="accid"/></g></g></g></g><g data-id="u1qqcn3y" data-class="barLine" class="barLine"><path d="M5156 546 L5156 1266" stroke-width="27"/></g></g><g data-id="vh384la" data-class="measure" class="measure"><g data-id="yhn8jr3" data-class="staff" class="staff"><path d="M5169 546 L8049 546" stroke-width="13"/><path d="M5169 726 L8049 726" stroke-width="13"/><path d="M5169 906 L8049 906" stroke-width="13"/><path d="M5169 1086 L8049 1086" stroke-width="13"/><path d="M5169 1266 L8049 1266" stroke-width="13"/><g data-class="ledgerLines" class="ledgerLines above"><g data-class="lineDash" class="lineDash" data-related="#n15pfbvy"><path d="M6201 366 L6523 366" stroke-width="22"/></g><g data-class="lineDash" class="lineDash" data-related="#onzgwtz"><path d="M6651 366 L6973 366" stroke-width="22"/></g><g data-class="lineDash" class="lineDash" data-related="#n15pfbvy"><path d="M6201 186 L6523 186" stroke-width="22"/></g><g data-class="lineDash" class="lineDash" data-related="#onzgwtz"><path d="M6651 186 L6973 186" stroke-width="22"/></g></g><g data-id="zj43xok" data-class="layer" class="layer"><g data-id="t1yehwy" data-class="beam" class="beam"><polygon stroke-opacity="1" fill-opacity="1" points="5349,1356 6267,1176 6267,1086 5349,1266"/><g data-id="l14akwbb" data-class="note" class="note"><g data-class="notehead" class="notehead"><use href="#E0A4-c1ionm4a" transform="translate(5349, 726) scale(0.72, 0.72)"/></g><g data-id="utklis4" data-class="stem" class="stem"><path d="M5358 754 L5358 1338" stroke-width="18"/></g><g data-id="a1ulis15" data-class="accid" class="accid"/></g><g data-id="mj7z1jp" data-class="note" class="note"><g data-class="notehead" class="notehead"><use href="#E0A4-c1ionm4a" transform="translate(5799, 456) scale(0.72, 0.72)"/></g><g data-id="vfbtb2e" data-class="stem" class="stem"><path d="M5808 484 L5808 1248" stroke-width="18"/></g></g><g data-id="n15pfbvy" data-class="note" class="note"><g data-class="notehead" class="notehead"><use href="#E0A4-c1ionm4a" transform="translate(6249, 96) scale(0.72, 0.72)"/></g><g data-id="w1081rbn" data-class="stem" class="stem"><path d="M6258 124 L6258 1158" stroke-width="18"/></g><g data-id="b1sua1nw" data-class="accid" class="accid"/></g></g><g data-id="ucob95e" data-class="beam" class="beam"><polygon stroke-opacity="1" fill-opacity="1" points="6699,1131 7617,1311 7617,1221 6699,1041"/><g data-id="onzgwtz" data-class="note" class="note"><g data-class="notehead" class="notehead"><use href="#E0A4-c1ionm4a" transform="translate(6699, 96) scale(0.72, 0.72)"/></g><g data-id="x19qd11a" data-class="stem" class="stem"><path d="M6708 124 L6708 1113" stroke-width="18"/></g><g data-id="c17884ax" data-class="accid" class="accid"/></g><g data-id="pp016tg" data-class="note" class="note"><g data-class="notehead" class="notehead"><use href="#E0A4-c1ionm4a" transform="translate(7149, 456) scale(0.72, 0.72)"/></g><g data-id="y1fkqid5" data-class="stem" class="stem"><path d="M7158 484 L7158 1203" stroke-width="18"/></g></g><g data-id="qnya2k2" data-class="note" class="note"><g data-class="notehead" class="notehead"><use href="#E0A4-c1ionm4a" transform="translate(7599, 726) scale(0.72, 0.72)"/></g><g data-id="zyvr6bi" data-class="stem" class="stem"><path d="M7608 754 L7608 1293" stroke-width="18"/></g><g data-id="d8gxris" data-class="accid" class="accid"/></g></g></g></g><g data-id="dvr510x" data-class="barLine" class="barLine"/></g><g data-id="hg71d94" data-class="systemMilestoneEnd" class="systemMilestoneEnd i89eq7b"/></g><g data-id="i1qa1vlo" data-class="pageMilestoneEnd" class="pageMilestoneEnd gdcm8ta"/><g data-id="j1iifa81" data-class="pageMilestoneEnd" class="pageMilestoneEnd fqndzzk"/></g></svg></svg>