<svg viewBox="0 0 560 84" version="1.1" xmlns="http://www.w3.org/2000/svg" xmlns:xlink="http://www.w3.org/1999/xlink" overflow="visible" id="eoecrvb"><desc>Engraved by Verovio 5.6.0-85e7620</desc><defs><g id="E050-eoecrvb"><path transform="scale(1,-1)" d="M441 -245c-23 -4 -48 -6 -76 -6c-59 0 -102 7 -130 20c-88 42 -150 93 -187 154c-26 44 -43 103 -48 176c0 6 -1 13 -1 19c0 54 15 111 45 170c29 57 65 106 110 148s96 85 153 127c-3 16 -8 46 -13 92c-4 43 -5 73 -5 89c0 117 16 172 69 257c34 54 64 82 89 82 c21 0 43 -30 69 -92s39 -115 41 -159v-15c0 -109 -21 -162 -67 -241c-13 -20 -63 -90 -98 -118c-13 -9 -25 -19 -37 -29l31 -181c8 1 18 2 28 2c58 0 102 -12 133 -35c59 -43 92 -104 98 -184c1 -7 1 -15 1 -22c0 -123 -87 -209 -181 -248c8 -57 17 -110 25 -162 c5 -31 6 -58 6 -80c0 -30 -5 -53 -14 -70c-35 -64 -88 -99 -158 -103c-5 0 -11 -1 -16 -1c-37 0 -72 10 -108 27c-50 24 -77 59 -80 105v11c0 29 7 55 20 76c18 28 45 42 79 44h6c49 0 93 -42 97 -87v-9c0 -51 -34 -86 -105 -106c17 -24 51 -36 102 -36c62 0 116 43 140 85 c9 16 13 41 13 74c0 20 -1 42 -5 67c-8 53 -18 106 -26 159zM461 939c-95 0 -135 -175 -135 -286c0 -24 2 -48 5 -71c50 39 92 82 127 128c40 53 60 100 60 140v8c-4 53 -22 81 -55 81h-2zM406 119l54 -326c73 25 110 78 110 161c0 7 0 15 -1 23c-7 95 -57 142 -151 142h-12 zM382 117c-72 -2 -128 -47 -128 -120v-7c2 -46 43 -99 75 -115c-3 -2 -7 -5 -10 -10c-70 33 -116 88 -123 172v11c0 68 44 126 88 159c23 17 49 29 78 36l-29 170c-21 -13 -52 -37 -92 -73c-50 -44 -86 -84 -109 -119c-45 -69 -67 -130 -67 -182v-13c5 -68 35 -127 93 -176 s125 -73 203 -73c25 0 50 3 75 9c-19 111 -36 221 -54 331z"/></g><g id="E262-eoecrvb"><path transform="scale(1,-1)" d="M136 186v169h17v-164l44 14v-91l-44 -14v-165l44 12v-91l-44 -13v-155h-17v150l-76 -22v-155h-17v149l-43 -13v90l43 14v167l-43 -14v92l43 13v169h17v-163zM60 73v-167l76 22v168z"/></g><g id="E086-eoecrvb"><path transform="scale(1,-1)" d="M284 -91c0 37 -28 92 -67 92c-35 0 -65 -54 -65 -111c0 -52 22 -104 68 -104c47 0 64 68 64 123zM230 214c-36 0 -90 -33 -90 -184l2 -36c40 24 81 36 120 36c80 0 140 -48 140 -121c0 -99 -99 -159 -182 -159c-160 0 -200 173 -200 244c0 21 2 43 7 71l10 35 c26 85 73 115 98 126c41 19 74 24 103 24c93 0 142 -63 142 -105c0 -58 -52 -72 -73 -72c-33 0 -59 24 -65 35c-3 5 -6 14 -7 25l11 30c6 15 9 27 9 35c0 11 -9 16 -25 16z"/></g><g id="E088-eoecrvb"><path transform="scale(1,-1)" d="M195 -214c76 0 88 58 90 68c0 34 -35 60 -57 73l-52 29c-21 10 -32 17 -34 20c-39 -33 -58 -54 -62 -92c5 -23 23 -98 115 -98zM301 135c0 61 -72 76 -113 76c-40 0 -77 -17 -77 -51c3 -21 15 -38 26 -50c17 -15 33 -26 48 -34l65 -28c34 27 51 56 51 87zM176 -250 c-57 0 -166 26 -166 132c0 47 30 86 89 116c-33 15 -79 60 -79 119c0 79 85 132 178 132h18c5 0 21 1 28 -1c25 0 126 -30 126 -110c0 -37 -23 -76 -69 -116c43 -25 83 -71 83 -119c0 -101 -118 -153 -208 -153z"/></g><g id="E4E7-eoecrvb"><path transform="scale(1,-1)" d="M133 -111c0 -33 -21 -50 -52 -55c10 -3 18 -4 25 -4c40 0 69 24 90 47l66 197c-36 -18 -64 -25 -112 -25c-23 0 -38 3 -45 8c-37 7 -55 27 -55 59c8 35 30 54 68 58c45 -6 49 -13 64 -48c0 -3 1 -5 1 -7c0 -27 -25 -46 -52 -49c6 -4 15 -6 26 -6c32 2 62 14 88 29 c32 19 44 36 59 71l7 1l10 2h4c-72 -220 -143 -439 -215 -659h-37l108 324c-20 -13 -51 -20 -82 -20c-21 0 -35 4 -43 10c-37 6 -55 26 -55 58c8 35 31 56 68 60c43 -8 48 -13 64 -51z"/></g><g id="E0A4-eoecrvb"><path transform="scale(1,-1)" d="M0 -39c0 68 73 172 200 172c66 0 114 -37 114 -95c0 -84 -106 -171 -218 -171c-64 0 -96 30 -96 94z"/></g></defs><style type="text/css">#eoecrvb g.page-margin {font-family:Times,serif;}#eoecrvb g.ending, #eoecrvb g.fing, #eoecrvb g.reh, #eoecrvb g.tempo {font-weight:bold;}#eoecrvb g.dir, #eoecrvb g.dynam, #eoecrvb g.mNum {font-style:italic;}#eoecrvb g.label {font-weight:normal;}#eoecrvb path {stroke:currentColor}</style><svg class="definition-scale" color="black" viewBox="0 0 14000 2100"><g class="page-margin" transform="translate(0, 150)"><g data-id="ojw35j" data-class="mdiv" class="mdiv pageMilestone"/><g data-id="p61qhor" data-class="score" class="score pageMilestone"/><g data-id="d1ag61hw" data-class="system" class="system"><g data-id="r1miree4" data-class="section" class="section systemMilestone"/><g data-id="f12zpn9m" data-class="measure" class="measure"><g data-id="d1o4uha9" data-class="staff" class="staff"><path d="M0 540 L4730 540" stroke-width="13"/><path d="M0 720 L4730 720" stroke-width="13"/><path d="M0 900 L4730 900" stroke-width="13"/><path d="M0 1080 L4730 1080" stroke-width="13"/><path d="M0 1260 L4730 1260" stroke-width="13"/><g data-id="i1cbhgd0" data-class="clef" class="clef"><use href="#E050-eoecrvb" transform="translate(90, 1080) scale(0.72, 0.72)"/></g><g data-id="j1lfgwix" data-class="keySig" class="keySig"><g data-id="k10omt81" data-class="keyAccid" class="keyAccid"><use href="#E262-eoecrvb" transform="translate(735, 540) scale(0.72, 0.72)"/></g><g data-id="l1lu3ek" data-class="keyAccid" class="keyAccid"><use href="#E262-eoecrvb" transform="translate(913, 810) scale(0.72, 0.72)"/></g><g data-id="m3lkixk" data-class="keyAccid" class="keyAccid"><use href="#E262-eoecrvb" transform="translate(1091, 450) scale(0.72, 0.72)"/></g></g><g data-id="na9xaoi" data-class="meterSig" class="meterSig"><use href="#E086-eoecrvb" transform="translate(1398, 720) scale(0.72, 0.72)"/><use href="#E088-eoecrvb" transform="translate(1405, 1080) scale(0.72, 0.72)"/></g><g data-class="ledgerLines" class="ledgerLines below"><g data-class="lineDash" class="lineDash" data-related="#i1xm3km"><path d="M2227 1440 L2513 1440" stroke-width="22"/></g><g data-class="lineDash" class="lineDash" data-related="#j19a71hz"><path d="M2543 1440 L2829 1440" stroke-width="22"/></g><g data-class="lineDash" class="lineDash" data-related="#kit6mzo"><path d="M2859 1440 L3145 1440" stroke-width="22"/></g><g data-class="lineDash" class="lineDash" data-related="#m1tvir1h"><path d="M3473 1440 L3795 1440" stroke-width="22"/></g><g data-class="lineDash" class="lineDash" data-related="#j19a71hz"><path d="M2543 1620 L2829 1620" stroke-width="22"/></g></g><g data-id="e7l0sex" data-class="layer" class="layer"><g data-id="g1r38nvv" data-class="rest" class="rest"><use href="#E4E7-eoecrvb" transform="translate(1957, 900) scale(0.72, 0.72)"/></g><g data-id="azi1ef3" data-class="beam" class="beam"><polygon stroke-opacity="1" fill-opacity="1" points="2465,360 3747,360 3747,450 2465,450"/><polygon stroke-opacity="1" fill-opacity="1" points="2465,495 2790,495 2790,585 2465,585"/><polygon stroke-opacity="1" fill-opacity="1" points="2790,495 3106,495 3106,585 2790,585"/><polygon stroke-opacity="1" fill-opacity="1" points="3106,495 3422,495 3422,585 3106,585"/><polygon stroke-opacity="1" fill-opacity="1" points="3422,495 3747,495 3747,585 3422,585"/><g data-id="i1xm3km" data-class="note" class="note"><g data-class="notehead" class="notehead"><use href="#E0A4-eoecrvb" transform="translate(2257, 1440) scale(0.72, 0.72)"/></g><g data-id="wp474xe" data-class="stem" class="stem"><path d="M2474 1412 L2474 378" stroke-width="18"/></g><g data-id="e1oralsc" data-class="accid" class="accid"/></g><g data-id="j19a71hz" data-class="note" class="note"><g data-class="notehead" class="notehead"><use href="#E0A4-eoecrvb" transform="translate(2573, 1620) scale(0.72, 0.72)"/></g><g data-id="x2lguyv" data-class="stem" class="stem"><path d="M2790 1592 L2790 378" stroke-width="18"/></g></g><g data-id="kit6mzo" data-class="note" class="note"><g data-class="notehead" class="notehead"><use href="#E0A4-eoecrvb" transform="translate(2889, 1440) scale(0.72, 0.72)"/></g><g data-id="yf208qw" data-class="stem" class="stem"><path d="M3106 1412 L3106 378" stroke-width="18"/></g><g data-id="fg0cdhe" data-class="accid" class="accid"/></g><g data-id="l10hbrqi" data-class="note" class="note"><g data-class="notehead" class="notehead"><use href="#E0A4-eoecrvb" transform="translate(3205, 990) scale(0.72, 0.72)"/></g><g data-id="z1emql2g" data-class="stem" class="stem"><path d="M3422 962 L3422 378" stroke-width="18"/></g></g><g data-id="m1tvir1h" data-class="note" class="note"><g data-class="notehead" class="notehead"><use href="#E0A4-eoecrvb" transform="translate(3521, 1440) scale(0.72, 0.72)"/></g><g data-id="ad02dug" data-class="stem" class="stem"><path d="M3738 1412 L3738 378" stroke-width="18"/></g><g data-id="g1qhh2ju" data-class="accid" class="accid"/></g></g><g data-id="n6zzc3m" data-class="note" class="note"><g data-class="notehead" class="notehead"><use href="#E0A4-eoecrvb" transform="translate(3837, 990) scale(0.72, 0.72)"/></g><g data-id="cpuzz2l" data-class="dots" class="dots"><ellipse cx="4153" cy="990" rx="36" ry="36" fill-opacity="1" stroke-opacity="1"/></g><g data-id="be689gi" data-class="stem" class="stem"><path d="M4054 962 L4054 360" stroke-width="18"/></g></g></g></g><g data-id="n127zo85" data-class="barLine" class="barLine"><path d="M4717 540 L4717 1260" stroke-width="27"/></g></g><g data-id="o1etp5zi" data-class="measure" class="measure"><g data-id="f1gs8ybo" data-class="staff" class="staff"><path d="M4730 540 L7683 540" stroke-width="13"/><path d="M4730 720 L7683 720" stroke-width="13"/><path d="M4730 900 L7683 900" stroke-width="13"/><path d="M4730 1080 L7683 1080" stroke-width="13"/><path d="M4730 1260 L7683 1260" stroke-width="13"/><g data-class="ledgerLines" class="ledgerLines below"><g data-class="lineDash" class="lineDash" data-related="#oosookp"><path d="M5180 1440 L5466 1440" stroke-width="22"/></g><g data-class="lineDash" class="lineDash" data-related="#psh80o0"><path d="M5496 1440 L5782 1440" stroke-width="22"/></g><g data-class="lineDash" class="lineDash" data-related="#q1dtbu7q"><path d="M5812 1440 L6098 1440" stroke-width="22"/></g><g data-class="lineDash" class="lineDash" data-related="#sdxevg2"><path d="M6426 1440 L6748 1440" stroke-width="22"/></g><g data-class="lineDash" class="lineDash" data-related="#psh80o0"><path d="M5496 1620 L5782 1620" stroke-width="22"/></g></g><g data-id="g3ka24u" data-class="layer" class="layer"><g data-id="hwh7jdt" data-class="rest" class="rest"><use href="#E4E7-eoecrvb" transform="translate(4910, 900) scale(0.72, 0.72)"/></g><g data-id="b10r5fgh" data-class="beam" class="beam"><polygon stroke-opacity="1" fill-opacity="1" points="5418,360 6700,360 6700,450 5418,450"/><polygon stroke-opacity="1" fill-opacity="1" points="5418,495 5743,495 5743,585 5418,585"/><polygon stroke-opacity="1" fill-opacity="1" points="5743,495 6059,495 6059,585 5743,585"/><polygon stroke-opacity="1" fill-opacity="1" points="6059,495 6375,495 6375,585 6059,585"/><polygon stroke-opacity="1" fill-opacity="1" points="6375,495 6700,495 6700,585 6375,585"/><g data-id="oosookp" data-class="note" class="note"><g data-class="notehead" class="notehead"><use href="#E0A4-eoecrvb" transform="translate(5210, 1440) scale(0.72, 0.72)"/></g><g data-id="dr959ww" data-class="stem" class="stem"><path d="M5427 1412 L5427 378" stroke-width="18"/></g><g data-id="hqqmwav" data-class="accid" class="accid"/></g><g data-id="psh80o0" data-class="note" class="note"><g data-class="notehead" class="notehead"><use href="#E0A4-eoecrvb" transform="translate(5526, 1620) scale(0.72, 0.72)"/></g><g data-id="e1b0poew" data-class="stem" class="stem"><path d="M5743 1592 L5743 378" stroke-width="18"/></g></g><g data-id="q1dtbu7q" data-class="note" class="note"><g data-class="notehead" class="notehead"><use href="#E0A4-eoecrvb" transform="translate(5842, 1440) scale(0.72, 0.72)"/></g><g data-id="fc20ico" data-class="stem" class="stem"><path d="M6059 1412 L6059 378" stroke-width="18"/></g><g data-id="i9jxfgg" data-class="accid" class="accid"/></g><g data-id="red779t" data-class="note" class="note"><g data-class="notehead" class="notehead"><use href="#E0A4-eoecrvb" transform="translate(6158, 990) scale(0.72, 0.72)"/></g><g data-id="g1sag5i8" data-class="stem" class="stem"><path d="M6375 962 L6375 378" stroke-width="18"/></g></g><g data-id="sdxevg2" data-class="note" class="note"><g data-class="notehead" class="notehead"><use href="#E0A4-eoecrvb" transform="translate(6474, 1440) scale(0.72, 0.72)"/></g><g data-id="hbejg68" data-class="stem" class="stem"><path d="M6691 1412 L6691 378" stroke-width="18"/></g><g data-id="j17k33my" data-class="accid" class="accid"/></g></g><g data-id="t1mqgll" data-class="note" class="note"><g data-class="notehead" class="notehead"><use href="#E0A4-eoecrvb" transform="translate(6790, 990) scale(0.72, 0.72)"/></g><g data-id="j1r5dub9" data-class="dots" class="dots"><ellipse cx="7106" cy="990" rx="36" ry="36" fill-opacity="1" stroke-opacity="1"/></g><g data-id="ir171ic" data-class="stem" class="stem"><path d="M7007 962 L7007 360" stroke-width="18"/></g></g></g></g><g data-id="d1jkaipf" data-class="tie" class="tie"><path d="M7061,1102 C7257,1208 7620,1208 7818,1102 C7635,1255 7242,1255 7061,1102" stroke-linecap="round" stroke-linejoin="round" stroke-width="9"/></g><g data-id="w1o1qspz" data-class="barLine" class="barLine"><path d="M7670 540 L7670 1260" stroke-width="27"/></g></g><g data-id="x14igoj8" data-class="measure" class="measure"><g data-id="h1go7g5q" data-class="staff" class="staff"><path d="M7683 540 L9743 540" stroke-width="13"/><path d="M7683 720 L9743 720" stroke-width="13"/><path d="M7683 900 L9743 900" stroke-width="13"/><path d="M7683 1080 L9743 1080" stroke-width="13"/><path d="M7683 1260 L9743 1260" stroke-width="13"/><g data-class="ledgerLines" class="ledgerLines below"><g data-class="lineDash" class="lineDash" data-related="#v1vu7hc0"><path d="M8149 1440 L8435 1440" stroke-width="22"/></g><g data-class="lineDash" class="lineDash" data-related="#wzon2d7"><path d="M8465 1440 L8751 1440" stroke-width="22"/></g><g data-class="lineDash" class="lineDash" data-related="#xbla1yk"><path d="M8781 1440 L9067 1440" stroke-width="22"/></g><g data-class="lineDash" class="lineDash" data-related="#zjz6g3u"><path d="M9395 1440 L9717 1440" stroke-width="22"/></g><g data-class="lineDash" class="lineDash" data-related="#wzon2d7"><path d="M8465 1620 L8751 1620" stroke-width="22"/></g></g><g data-id="i1v3498s" data-class="layer" class="layer"><g data-id="c1qw4qj" data-class="beam" class="beam"><polygon stroke-opacity="1" fill-opacity="1" points="8071,360 9669,360 9669,450 8071,450"/><polygon stroke-opacity="1" fill-opacity="1" points="8071,495 8396,495 8396,585 8071,585"/><polygon stroke-opacity="1" fill-opacity="1" points="8396,495 8712,495 8712,585 8396,585"/><polygon stroke-opacity="1" fill-opacity="1" points="8712,495 9028,495 9028,585 8712,585"/><polygon stroke-opacity="1" fill-opacity="1" points="9028,495 9344,495 9344,585 9028,585"/><polygon stroke-opacity="1" fill-opacity="1" points="9344,495 9669,495 9669,585 9344,585"/><g data-id="ugszod2" data-class="note" class="note"><g data-class="notehead" class="notehead"><use href="#E0A4-eoecrvb" transform="translate(7863, 990) scale(0.72, 0.72)"/></g><g data-id="k1oj2byl" data-class="stem" class="stem"><path d="M8080 962 L8080 378" stroke-width="18"/></g></g><g data-id="v1vu7hc0" data-class="note" class="note"><g data-class="notehead" class="notehead"><use href="#E0A4-eoecrvb" transform="translate(8179, 1440) scale(0.72, 0.72)"/></g><g data-id="l7tel9c" data-class="stem" class="stem"><path d="M8396 1412 L8396 378" stroke-width="18"/></g><g data-id="ke28u53" data-class="accid" class="accid"/></g><g data-id="wzon2d7" data-class="note" class="note"><g data-class="notehead" class="notehead"><use href="#E0A4-eoecrvb" transform="translate(8495, 1620) scale(0.72, 0.72)"/></g><g data-id="m10jdytw" data-class="stem" class="stem"><path d="M8712 1592 L8712 378" stroke-width="18"/></g></g><g data-id="xbla1yk" data-class="note" class="note"><g data-class="notehead" class="notehead"><use href="#E0A4-eoecrvb" transform="translate(8811, 1440) scale(0.72, 0.72)"/></g><g data-id="nregzso" data-class="stem" class="stem"><path d="M9028 1412 L9028 378" stroke-width="18"/></g><g data-id="l1lr6267" data-class="accid" class="accid"/></g><g data-id="yt2dz81" data-class="note" class="note"><g data-class="notehead" class="notehead"><use href="#E0A4-eoecrvb" transform="translate(9127, 990) scale(0.72, 0.72)"/></g><g data-id="ofwohns" data-class="stem" class="stem"><path d="M9344 962 L9344 378" stroke-width="18"/></g></g><g data-id="zjz6g3u" data-class="note" class="note"><g data-class="notehead" class="notehead"><use href="#E0A4-eoecrvb" transform="translate(9443, 1440) scale(0.72, 0.72)"/></g><g data-id="pk4jjwd" data-class="stem" class="stem"><path d="M9660 1412 L9660 378" stroke-width="18"/></g><g data-id="m9g4q6b" data-class="accid" class="accid"/></g></g></g></g><g data-id="f1u5a4bs" data-class="barLine" class="barLine"/></g><g data-id="q19zxla2" data-class="systemMilestoneEnd" class="systemMilestoneEnd r1miree4"/></g><g data-id="r15esq8a" data-class="pageMilestoneEnd" class="pageMilestoneEnd p61qhor"/><g data-id="sm8hh0h" data-class="pageMilestoneEnd" class="pageMilestoneEnd ojw35j"/></g></svg></svg>