<svg viewBox="0 0 560 84" version="1.1" xmlns="http://www.w3.org/2000/svg" xmlns:xlink="http://www.w3.org/1999/xlink" overflow="visible" id="t4rfb49"><desc>Engraved by Verovio 5.6.0-85e7620</desc><defs><g id="E050-t4rfb49"><path transform="scale(1,-1)" d="M441 -245c-23 -4 -48 -6 -76 -6c-59 0 -102 7 -130 20c-88 42 -150 93 -187 154c-26 44 -43 103 -48 176c0 6 -1 13 -1 19c0 54 15 111 45 170c29 57 65 106 110 148s96 85 153 127c-3 16 -8 46 -13 92c-4 43 -5 73 -5 89c0 117 16 172 69 257c34 54 64 82 89 82 c21 0 43 -30 69 -92s39 -115 41 -159v-15c0 -109 -21 -162 -67 -241c-13 -20 -63 -90 -98 -118c-13 -9 -25 -19 -37 -29l31 -181c8 1 18 2 28 2c58 0 102 -12 133 -35c59 -43 92 -104 98 -184c1 -7 1 -15 1 -22c0 -123 -87 -209 -181 -248c8 -57 17 -110 25 -162 c5 -31 6 -58 6 -80c0 -30 -5 -53 -14 -70c-35 -64 -88 -99 -158 -103c-5 0 -11 -1 -16 -1c-37 0 -72 10 -108 27c-50 24 -77 59 -80 105v11c0 29 7 55 20 76c18 28 45 42 79 44h6c49 0 93 -42 97 -87v-9c0 -51 -34 -86 -105 -106c17 -24 51 -36 102 -36c62 0 116 43 140 85 c9 16 13 41 13 74c0 20 -1 42 -5 67c-8 53 -18 106 -26 159zM461 939c-95 0 -135 -175 -135 -286c0 -24 2 -48 5 -71c50 39 92 82 127 128c40 53 60 100 60 140v8c-4 53 -22 81 -55 81h-2zM406 119l54 -326c73 25 110 78 110 161c0 7 0 15 -1 23c-7 95 -57 142 -151 142h-12 zM382 117c-72 -2 -128 -47 -128 -120v-7c2 -46 43 -99 75 -115c-3 -2 -7 -5 -10 -10c-70 33 -116 88 -123 172v11c0 68 44 126 88 159c23 17 49 29 78 36l-29 170c-21 -13 -52 -37 -92 -73c-50 -44 -86 -84 -109 -119c-45 -69 -67 -130 -67 -182v-13c5 -68 35 -127 93 -176 s125 -73 203 -73c25 0 50 3 75 9c-19 111 -36 221 -54 331z"/></g><g id="E260-t4rfb49"><path transform="scale(1,-1)" d="M20 110c32 16 54 27 93 27c26 0 35 -3 54 -13c13 -7 24 -20 27 -38l4 -25c0 -28 -16 -57 -45 -89c-23 -25 -39 -44 -65 -68l-88 -79v644h20v-359zM90 106c-32 0 -48 -10 -70 -29v-194c31 31 54 59 71 84c21 32 32 59 32 84c0 9 1 16 1 20c0 14 -3 21 -11 30l-8 3z"/></g><g id="E08A-t4rfb49"><path transform="scale(1,-1)" d="M340 179c-9 24 -56 41 -89 41c-46 0 -81 -28 -100 -58c-17 -28 -25 -78 -25 -150c0 -65 2 -111 8 -135c8 -31 18 -49 40 -67c20 -17 43 -25 70 -25c54 0 92 36 115 75c14 25 23 54 28 88h27c0 -63 -24 -105 -58 -141c-35 -38 -82 -56 -140 -56c-45 0 -83 13 -115 39 c-57 45 -101 130 -101 226c0 59 33 127 68 163c36 37 97 72 160 72c36 0 93 -21 121 -40c11 -8 23 -17 33 -30c19 -23 27 -48 27 -76c0 -51 -35 -88 -86 -88c-43 0 -76 27 -76 68c0 26 7 35 21 51c15 17 32 27 58 32c7 2 14 7 14 11z"/></g><g id="E0A3-t4rfb49"><path transform="scale(1,-1)" d="M278 64c0 22 -17 39 -43 39c-12 0 -26 -3 -41 -10c-85 -43 -165 -94 -165 -156c5 -25 15 -32 49 -32c67 11 200 95 200 159zM0 -36c0 68 73 174 200 174c66 0 114 -39 114 -97c0 -84 -106 -173 -218 -173c-64 0 -96 32 -96 96z"/></g><g id="E0A4-t4rfb49"><path transform="scale(1,-1)" d="M0 -39c0 68 73 172 200 172c66 0 114 -37 114 -95c0 -84 -106 -171 -218 -171c-64 0 -96 30 -96 94z"/></g><g id="E243-t4rfb49"><path transform="scale(1,-1)" d="M216 730c-5 8 -10 13 -11 16l-4 10c0 3 2 5 5 5s7 -2 13 -7c35 -42 57 -101 57 -172c0 -34 -6 -65 -17 -94c10 -31 17 -64 17 -96c0 -104 -60 -183 -122 -241c-63 -59 -57 -53 -61 -56c-38 -34 -63 -95 -71 -95h-22v190v190c40 7 69 11 87 16c116 36 175 111 175 197 c0 44 -15 91 -46 137zM248 463c-23 -48 -58 -89 -94 -122c-63 -59 -57 -53 -61 -56c-30 -27 -44 -71 -53 -88c20 3 36 6 47 9c88 27 168 95 168 200c0 19 -3 39 -7 57z"/></g><g id="E261-t4rfb49"><path transform="scale(1,-1)" d="M0 -188v539h18v-191l139 22v-533h-17v186zM18 -100l122 17v176l-122 -19v-174z"/></g><g id="E4E5-t4rfb49"><path transform="scale(1,-1)" d="M107 292c-13 24 -30 49 -52 71c-1 1 0 2 0 3l-2 2c3 3 4 4 6 4c12 0 26 -7 40 -20s44 -40 89 -81c26 -24 28 -29 46 -47c4 -4 8 -9 10 -14c6 -8 8 -16 8 -27c0 -19 -12 -40 -36 -61c-28 -23 -49 -38 -61 -73c-4 -11 -7 -27 -10 -50c13 -43 34 -83 59 -121 c31 -47 59 -79 101 -129c-8 0 -26 7 -54 20l-62 29l-21 6l-23 1c-25 0 -45 -10 -60 -30l-4 -14l-1 -12c0 -33 20 -56 39 -78c8 -9 17 -18 26 -26c17 -15 27 -24 28 -30l-3 -3c-11 5 -19 10 -25 15c-9 3 -37 21 -45 26c-24 14 -45 32 -63 51c-19 21 -37 44 -37 71 c0 63 27 95 80 95c41 0 86 -18 136 -52c-19 26 -37 48 -55 66c-23 23 -48 44 -73 65c-28 23 -47 40 -58 53s-17 26 -18 39c75 64 113 125 113 183c0 27 -7 48 -18 68z"/></g></defs><style type="text/css">#t4rfb49 g.page-margin {font-family:Times,serif;}#t4rfb49 g.ending, #t4rfb49 g.fing, #t4rfb49 g.reh, #t4rfb49 g.tempo {font-weight:bold;}#t4rfb49 g.dir, #t4rfb49 g.dynam, #t4rfb49 g.mNum {font-style:italic;}#t4rfb49 g.label {font-weight:normal;}#t4rfb49 path {stroke:currentColor}</style><svg class="definition-scale" color="black" viewBox="0 0 14000 2100"><g class="page-margin" transform="translate(0, 150)"><g data-id="rcqzciv" data-class="mdiv" class="mdiv pageMilestone"/><g data-id="sk8g93y" data-class="score" class="score pageMilestone"/><g data-id="n1iaqiuc" data-class="system" class="system"><g data-id="u7u43zm" data-class="section" class="section systemMilestone"/><g data-id="unpqxx3" data-class="measure" class="measure"><g data-id="goqj5pf" data-class="staff" class="staff"><path d="M0 540 L4788 540" stroke-width="13"/><path d="M0 720 L4788 720" stroke-width="13"/><path d="M0 900 L4788 900" stroke-width="13"/><path d="M0 1080 L4788 1080" stroke-width="13"/><path d="M0 1260 L4788 1260" stroke-width="13"/><g data-id="rcem6rr" data-class="clef" class="clef"><use href="#E050-t4rfb49" transform="translate(90, 1080) scale(0.72, 0.72)"/></g><g data-id="sngafbs" data-class="keySig" class="keySig"><g data-id="t6a2grm" data-class="keyAccid" class="keyAccid"><use href="#E260-t4rfb49" transform="translate(735, 900) scale(0.72, 0.72)"/></g><g data-id="umvny2q" data-class="keyAccid" class="keyAccid"><use href="#E260-t4rfb49" transform="translate(915, 630) scale(0.72, 0.72)"/></g><g data-id="v1dt4729" data-class="keyAccid" class="keyAccid"><use href="#E260-t4rfb49" transform="translate(1095, 990) scale(0.72, 0.72)"/></g></g><g data-id="w136pyv2" data-class="meterSig" class="meterSig"><use href="#E08A-t4rfb49" transform="translate(1417, 900) scale(0.72, 0.72)"/></g><g data-id="h1n5ylj2" data-class="layer" class="layer"><g data-id="r1narb3z" data-class="note" class="note"><g data-class="notehead" class="notehead"><use href="#E0A3-t4rfb49" transform="translate(1998, 810) scale(0.72, 0.72)"/></g><g data-id="j1j34sgs" data-class="stem" class="stem"><path d="M2007 835 L2007 1440" stroke-width="18"/></g></g><g data-id="s1fd7cku" data-class="note" class="note"><g data-class="notehead" class="notehead"><use href="#E0A4-t4rfb49" transform="translate(3255, 810) scale(0.72, 0.72)"/></g><g data-id="l16dkdam" data-class="dots" class="dots"><ellipse cx="3571" cy="810" rx="36" ry="36" fill-opacity="1" stroke-opacity="1"/><ellipse cx="3706" cy="810" rx="36" ry="36" fill-opacity="1" stroke-opacity="1"/></g><g data-id="k1c3ltrt" data-class="stem" class="stem"><path d="M3264 838 L3264 1440" stroke-width="18"/></g></g><g data-id="tymu0lx" data-class="note" class="note"><g data-class="notehead" class="notehead"><use href="#E0A4-t4rfb49" transform="translate(4416, 810) scale(0.72, 0.72)"/></g><g data-id="mu2gf5" data-class="stem" class="stem"><path d="M4425 838 L4425 1440" stroke-width="18"/><g data-id="nzi7ys9" data-class="flag" class="flag"><use href="#E243-t4rfb49" transform="translate(4416, 1440) scale(0.72, 0.72)"/></g></g></g></g></g><g data-id="c1qhe7o9" data-class="barLine" class="barLine"><path d="M4775 540 L4775 1260" stroke-width="27"/></g></g><g data-id="d48yld5" data-class="measure" class="measure"><g data-id="i8yyepc" data-class="staff" class="staff"><path d="M4788 540 L7903 540" stroke-width="13"/><path d="M4788 720 L7903 720" stroke-width="13"/><path d="M4788 900 L7903 900" stroke-width="13"/><path d="M4788 1080 L7903 1080" stroke-width="13"/><path d="M4788 1260 L7903 1260" stroke-width="13"/><g data-id="j13swry7" data-class="layer" class="layer"><g data-id="upyt9sm" data-class="note" class="note"><g data-class="notehead" class="notehead"><use href="#E0A3-t4rfb49" transform="translate(4981, 810) scale(0.72, 0.72)"/></g><g data-id="o16nf757" data-class="stem" class="stem"><path d="M4990 835 L4990 1440" stroke-width="18"/></g></g><g data-id="v1ikjmmo" data-class="note" class="note"><g data-class="notehead" class="notehead"><use href="#E0A4-t4rfb49" transform="translate(6238, 900) scale(0.72, 0.72)"/></g><g data-id="pp2zm93" data-class="stem" class="stem"><path d="M6247 928 L6247 1500" stroke-width="18"/></g><g data-id="mtfienl" data-class="accid" class="accid"><use href="#E261-t4rfb49" transform="translate(6080, 900) scale(0.72, 0.72)"/></g></g><g data-id="o12txj5v" data-class="rest" class="rest"><use href="#E4E5-t4rfb49" transform="translate(7064, 900) scale(0.72, 0.72)"/></g></g></g><g data-id="l1o6ejo2" data-class="barLine" class="barLine"><path d="M7890 540 L7890 1260" stroke-width="27"/></g></g><g data-id="mluy8ca" data-class="measure" class="measure"><g data-id="krwgcmt" data-class="staff" class="staff"><path d="M7903 540 L10886 540" stroke-width="13"/><path d="M7903 720 L10886 720" stroke-width="13"/><path d="M7903 900 L10886 900" stroke-width="13"/><path d="M7903 1080 L10886 1080" stroke-width="13"/><path d="M7903 1260 L10886 1260" stroke-width="13"/><g data-id="l1rjiz4y" data-class="layer" class="layer"><g data-id="wvmxwyo" data-class="note" class="note"><g data-class="notehead" class="notehead"><use href="#E0A3-t4rfb49" transform="translate(8096, 810) scale(0.72, 0.72)"/></g><g data-id="q1aftg1k" data-class="stem" class="stem"><path d="M8105 835 L8105 1440" stroke-width="18"/></g></g><g data-id="x1621xa3" data-class="note" class="note"><g data-class="notehead" class="notehead"><use href="#E0A4-t4rfb49" transform="translate(9353, 810) scale(0.72, 0.72)"/></g><g data-id="swuk24o" data-class="dots" class="dots"><ellipse cx="9669" cy="810" rx="36" ry="36" fill-opacity="1" stroke-opacity="1"/><ellipse cx="9804" cy="810" rx="36" ry="36" fill-opacity="1" stroke-opacity="1"/></g><g data-id="r1570wr" data-class="stem" class="stem"><path d="M9362 838 L9362 1440" stroke-width="18"/></g></g><g data-id="y1ajbr5u" data-class="note" class="note"><g data-class="notehead" class="notehead"><use href="#E0A4-t4rfb49" transform="translate(10514, 810) scale(0.72, 0.72)"/></g><g data-id="t9h1kku" data-class="stem" class="stem"><path d="M10523 838 L10523 1440" stroke-width="18"/><g data-id="u9tfegt" data-class="flag" class="flag"><use href="#E243-t4rfb49" transform="translate(10514, 1440) scale(0.72, 0.72)"/></g></g></g></g></g><g data-id="u1kpgpyz" data-class="barLine" class="barLine"><path d="M10873 540 L10873 1260" stroke-width="27"/></g></g><g data-id="v1vgd3mu" data-class="measure" class="measure"><g data-id="m104mjgy" data-class="staff" class="staff"><path d="M10886 540 L14001 540" stroke-width="13"/><path d="M10886 720 L14001 720" stroke-width="13"/><path d="M10886 900 L14001 900" stroke-width="13"/><path d="M10886 1080 L14001 1080" stroke-width="13"/><path d="M10886 1260 L14001 1260" stroke-width="13"/><g data-class="ledgerLines" class="ledgerLines above"><g data-class="lineDash" class="lineDash" data-related="#z1hf3avl"><path d="M11031 360 L11353 360" stroke-width="22"/></g></g><g data-id="ni2rf60" data-class="layer" class="layer"><g data-id="z1hf3avl" data-class="note" class="note"><g data-class="notehead" class="notehead"><use href="#E0A3-t4rfb49" transform="translate(11079, 360) scale(0.72, 0.72)"/></g><g data-id="v4h5c53" data-class="stem" class="stem"><path d="M11088 385 L11088 990" stroke-width="18"/></g><g data-id="oqrvddr" data-class="accid" class="accid"/></g><g data-id="ahk5c61" data-class="note" class="note"><g data-class="notehead" class="notehead"><use href="#E0A4-t4rfb49" transform="translate(12336, 450) scale(0.72, 0.72)"/></g><g data-id="w1ta8l1z" data-class="stem" class="stem"><path d="M12345 478 L12345 1080" stroke-width="18"/></g></g><g data-id="p9u567p" data-class="rest" class="rest"><use href="#E4E5-t4rfb49" transform="translate(13162, 900) scale(0.72, 0.72)"/></g></g></g><g data-id="dym6wtn" data-class="barLine" class="barLine"><path d="M13988 540 L13988 1260" stroke-width="27"/></g></g></g></g></svg></svg>