<svg viewBox="0 0 560 84" version="1.1" xmlns="http://www.w3.org/2000/svg" xmlns:xlink="http://www.w3.org/1999/xlink" overflow="visible" id="z11oi5cj"><desc>Engraved by Verovio 5.6.0-85e7620</desc><defs><g id="E050-z11oi5cj"><path transform="scale(1,-1)" d="M441 -245c-23 -4 -48 -6 -76 -6c-59 0 -102 7 -130 20c-88 42 -150 93 -187 154c-26 44 -43 103 -48 176c0 6 -1 13 -1 19c0 54 15 111 45 170c29 57 65 106 110 148s96 85 153 127c-3 16 -8 46 -13 92c-4 43 -5 73 -5 89c0 117 16 172 69 257c34 54 64 82 89 82 c21 0 43 -30 69 -92s39 -115 41 -159v-15c0 -109 -21 -162 -67 -241c-13 -20 -63 -90 -98 -118c-13 -9 -25 -19 -37 -29l31 -181c8 1 18 2 28 2c58 0 102 -12 133 -35c59 -43 92 -104 98 -184c1 -7 1 -15 1 -22c0 -123 -87 -209 -181 -248c8 -57 17 -110 25 -162 c5 -31 6 -58 6 -80c0 -30 -5 -53 -14 -70c-35 -64 -88 -99 -158 -103c-5 0 -11 -1 -16 -1c-37 0 -72 10 -108 27c-50 24 -77 59 -80 105v11c0 29 7 55 20 76c18 28 45 42 79 44h6c49 0 93 -42 97 -87v-9c0 -51 -34 -86 -105 -106c17 -24 51 -36 102 -36c62 0 116 43 140 85 c9 16 13 41 13 74c0 20 -1 42 -5 67c-8 53 -18 106 -26 159zM461 939c-95 0 -135 -175 -135 -286c0 -24 2 -48 5 -71c50 39 92 82 127 128c40 53 60 100 60 140v8c-4 53 -22 81 -55 81h-2zM406 119l54 -326c73 25 110 78 110 161c0 7 0 15 -1 23c-7 95 -57 142 -151 142h-12 zM382 117c-72 -2 -128 -47 -128 -120v-7c2 -46 43 -99 75 -115c-3 -2 -7 -5 -10 -10c-70 33 -116 88 -123 172v11c0 68 44 126 88 159c23 17 49 29 78 36l-29 170c-21 -13 -52 -37 -92 -73c-50 -44 -86 -84 -109 -119c-45 -69 -67 -130 -67 -182v-13c5 -68 35 -127 93 -176 s125 -73 203 -73c25 0 50 3 75 9c-19 111 -36 221 -54 331z"/></g><g id="E260-z11oi5cj"><path transform="scale(1,-1)" d="M20 110c32 16 54 27 93 27c26 0 35 -3 54 -13c13 -7 24 -20 27 -38l4 -25c0 -28 -16 -57 -45 -89c-23 -25 -39 -44 -65 -68l-88 -79v644h20v-359zM90 106c-32 0 -48 -10 -70 -29v-194c31 31 54 59 71 84c21 32 32 59 32 84c0 9 1 16 1 20c0 14 -3 21 -11 30l-8 3z"/></g><g id="E0A3-z11oi5cj"><path transform="scale(1,-1)" d="M278 64c0 22 -17 39 -43 39c-12 0 -26 -3 -41 -10c-85 -43 -165 -94 -165 -156c5 -25 15 -32 49 -32c67 11 200 95 200 159zM0 -36c0 68 73 174 200 174c66 0 114 -39 114 -97c0 -84 -106 -173 -218 -173c-64 0 -96 32 -96 96z"/></g><g id="E0A4-z11oi5cj"><path transform="scale(1,-1)" d="M0 -39c0 68 73 172 200 172c66 0 114 -37 114 -95c0 -84 -106 -171 -218 -171c-64 0 -96 30 -96 94z"/></g><g id="E241-z11oi5cj"><path transform="scale(1,-1)" d="M179 646c-4 8 -17 30 -18 33l-4 10c0 3 2 5 5 5s7 -2 13 -7c23 -33 46 -81 66 -132c22 -57 35 -125 35 -163c0 -104 -60 -183 -122 -241c-63 -59 -57 -53 -61 -56c-38 -34 -63 -95 -71 -95h-22v190c40 7 69 11 87 16c88 27 168 95 168 200c0 30 -12 89 -30 138 c-17 47 -31 73 -46 102z"/></g><g id="E4E5-z11oi5cj"><path transform="scale(1,-1)" d="M107 292c-13 24 -30 49 -52 71c-1 1 0 2 0 3l-2 2c3 3 4 4 6 4c12 0 26 -7 40 -20s44 -40 89 -81c26 -24 28 -29 46 -47c4 -4 8 -9 10 -14c6 -8 8 -16 8 -27c0 -19 -12 -40 -36 -61c-28 -23 -49 -38 -61 -73c-4 -11 -7 -27 -10 -50c13 -43 34 -83 59 -121 c31 -47 59 -79 101 -129c-8 0 -26 7 -54 20l-62 29l-21 6l-23 1c-25 0 -45 -10 -60 -30l-4 -14l-1 -12c0 -33 20 -56 39 -78c8 -9 17 -18 26 -26c17 -15 27 -24 28 -30l-3 -3c-11 5 -19 10 -25 15c-9 3 -37 21 -45 26c-24 14 -45 32 -63 51c-19 21 -37 44 -37 71 c0 63 27 95 80 95c41 0 86 -18 136 -52c-19 26 -37 48 -55 66c-23 23 -48 44 -73 65c-28 23 -47 40 -58 53s-17 26 -18 39c75 64 113 125 113 183c0 27 -7 48 -18 68z"/></g></defs><style type="text/css">#z11oi5cj g.page-margin {font-family:Times,serif;}#z11oi5cj g.ending, #z11oi5cj g.fing, #z11oi5cj g.reh, #z11oi5cj g.tempo {font-weight:bold;}#z11oi5cj g.dir, #z11oi5cj g.dynam, #z11oi5cj g.mNum {font-style:italic;}#z11oi5cj g.label {font-weight:normal;}#z11oi5cj path {stroke:currentColor}</style><svg class="definition-scale" color="black" viewBox="0 0 14000 2100"><g class="page-margin" transform="translate(0, 150)"><g data-id="pxdnz33" data-class="mdiv" class="mdiv pageMilestone"/><g data-id="q1xl46xr" data-class="score" class="score pageMilestone"/><g data-id="zhbqrcb" data-class="system" class="system"><g data-id="sibf73t" data-class="section" class="section systemMilestone"/><g data-id="am1w4vy" data-class="measure" class="measure"><g data-id="de0jaot" data-class="staff" class="staff"><path d="M0 540 L3440 540" stroke-width="13"/><path d="M0 720 L3440 720" stroke-width="13"/><path d="M0 900 L3440 900" stroke-width="13"/><path d="M0 1080 L3440 1080" stroke-width="13"/><path d="M0 1260 L3440 1260" stroke-width="13"/><g data-id="k2z7euw" data-class="clef" class="clef"><use href="#E050-z11oi5cj" transform="translate(90, 1080) scale(0.72, 0.72)"/></g><g data-id="l7pmz8q" data-class="keySig" class="keySig"><g data-id="muejuy" data-class="keyAccid" class="keyAccid"><use href="#E260-z11oi5cj" transform="translate(735, 900) scale(0.72, 0.72)"/></g><g data-id="n1toany9" data-class="keyAccid" class="keyAccid"><use href="#E260-z11oi5cj" transform="translate(915, 630) scale(0.72, 0.72)"/></g></g><g data-id="e1jx4321" data-class="layer" class="layer"><g data-id="c1ab7jn3" data-class="note" class="note"><g data-class="notehead" class="notehead"><use href="#E0A3-z11oi5cj" transform="translate(1327, 1080) scale(0.72, 0.72)"/></g><g data-id="vkrprde" data-class="stem" class="stem"><path d="M1544 1052 L1544 450" stroke-width="18"/></g></g><g data-id="d10wrwky" data-class="note" class="note"><g data-class="notehead" class="notehead"><use href="#E0A3-z11oi5cj" transform="translate(2377, 900) scale(0.72, 0.72)"/></g><g data-id="w10t98np" data-class="stem" class="stem"><path d="M2386 925 L2386 1500" stroke-width="18"/></g><g data-id="m1dczyu5" data-class="accid" class="accid"/></g></g></g><g data-id="ikkcalc" data-class="barLine" class="barLine"><path d="M3427 540 L3427 1260" stroke-width="27"/></g></g><g data-id="j1nhnbry" data-class="measure" class="measure"><g data-id="f13fpynd" data-class="staff" class="staff"><path d="M3440 540 L6813 540" stroke-width="13"/><path d="M3440 720 L6813 720" stroke-width="13"/><path d="M3440 900 L6813 900" stroke-width="13"/><path d="M3440 1080 L6813 1080" stroke-width="13"/><path d="M3440 1260 L6813 1260" stroke-width="13"/><g data-id="gwxqx2z" data-class="layer" class="layer"><g data-id="l3rjl8" data-class="beam" class="beam"><polygon stroke-opacity="1" fill-opacity="1" points="3828,360 4296,315 4296,405 3828,450"/><g data-id="e8lwyd0" data-class="note" class="note"><g data-class="notehead" class="notehead"><use href="#E0A4-z11oi5cj" transform="translate(3620, 990) scale(0.72, 0.72)"/></g><g data-id="x1qmadsy" data-class="stem" class="stem"><path d="M3837 962 L3837 378" stroke-width="18"/></g></g><g data-id="f1rzlo9g" data-class="note" class="note"><g data-class="notehead" class="notehead"><use href="#E0A4-z11oi5cj" transform="translate(4070, 900) scale(0.72, 0.72)"/></g><g data-id="y15kq529" data-class="stem" class="stem"><path d="M4287 872 L4287 333" stroke-width="18"/></g><g data-id="nv6nx7t" data-class="accid" class="accid"/></g></g><g data-id="g1pr80kf" data-class="note" class="note"><g data-class="notehead" class="notehead"><use href="#E0A4-z11oi5cj" transform="translate(4520, 810) scale(0.72, 0.72)"/></g><g data-id="zpp8c3y" data-class="stem" class="stem"><path d="M4529 838 L4529 1440" stroke-width="18"/></g></g><g data-id="h48jx6e" data-class="note" class="note"><g data-class="notehead" class="notehead"><use href="#E0A4-z11oi5cj" transform="translate(5210, 720) scale(0.72, 0.72)"/></g><g data-id="a3y8ad0" data-class="stem" class="stem"><path d="M5219 748 L5219 1350" stroke-width="18"/></g></g><g data-id="ie28jxu" data-class="note" class="note"><g data-class="notehead" class="notehead"><use href="#E0A4-z11oi5cj" transform="translate(5900, 720) scale(0.72, 0.72)"/></g><g data-id="b2arq4i" data-class="stem" class="stem"><path d="M5909 748 L5909 1350" stroke-width="18"/><g data-id="c9rbhrr" data-class="flag" class="flag"><use href="#E241-z11oi5cj" transform="translate(5900, 1350) scale(0.72, 0.72)"/></g></g></g><g data-id="jn3ltav" data-class="note" class="note"><g data-class="notehead" class="notehead"><use href="#E0A4-z11oi5cj" transform="translate(6350, 720) scale(0.72, 0.72)"/></g><g data-id="d1jv6bdo" data-class="stem" class="stem"><path d="M6359 748 L6359 1350" stroke-width="18"/><g data-id="e1jo8v78" data-class="flag" class="flag"><use href="#E241-z11oi5cj" transform="translate(6350, 1350) scale(0.72, 0.72)"/></g></g></g></g></g><g data-id="r8f8kly" data-class="barLine" class="barLine"><path d="M6800 540 L6800 1260" stroke-width="27"/></g></g><g data-id="s9k07ph" data-class="measure" class="measure"><g data-id="h1iudb33" data-class="staff" class="staff"><path d="M6813 540 L8733 540" stroke-width="13"/><path d="M6813 720 L8733 720" stroke-width="13"/><path d="M6813 900 L8733 900" stroke-width="13"/><path d="M6813 1080 L8733 1080" stroke-width="13"/><path d="M6813 1260 L8733 1260" stroke-width="13"/><g data-id="i1sxazjp" data-class="layer" class="layer"><g data-id="kazfjo2" data-class="note" class="note"><g data-class="notehead" class="notehead"><use href="#E0A3-z11oi5cj" transform="translate(6993, 1080) scale(0.72, 0.72)"/></g><g data-id="fomdlq3" data-class="stem" class="stem"><path d="M7210 1052 L7210 450" stroke-width="18"/></g></g><g data-id="b29papa" data-class="rest" class="rest"><use href="#E4E5-z11oi5cj" transform="translate(8043, 900) scale(0.72, 0.72)"/></g></g></g><g data-id="a1cqtage" data-class="barLine" class="barLine"/></g><g data-id="q1rdqnwj" data-class="systemMilestoneEnd" class="systemMilestoneEnd sibf73t"/></g><g data-id="rkx8ms3" data-class="pageMilestoneEnd" class="pageMilestoneEnd q1xl46xr"/><g data-id="s1u3auta" data-class="pageMilestoneEnd" class="pageMilestoneEnd pxdnz33"/></g></svg></svg>