<svg viewBox="0 0 560 90" version="1.1" xmlns="http://www.w3.org/2000/svg" xmlns:xlink="http://www.w3.org/1999/xlink" overflow="visible" id="dzyvpze"><desc>Engraved by Verovio 5.6.0-85e7620</desc><defs><g id="E050-dzyvpze"><path transform="scale(1,-1)" d="M441 -245c-23 -4 -48 -6 -76 -6c-59 0 -102 7 -130 20c-88 42 -150 93 -187 154c-26 44 -43 103 -48 176c0 6 -1 13 -1 19c0 54 15 111 45 170c29 57 65 106 110 148s96 85 153 127c-3 16 -8 46 -13 92c-4 43 -5 73 -5 89c0 117 16 172 69 257c34 54 64 82 89 82 c21 0 43 -30 69 -92s39 -115 41 -159v-15c0 -109 -21 -162 -67 -241c-13 -20 -63 -90 -98 -118c-13 -9 -25 -19 -37 -29l31 -181c8 1 18 2 28 2c58 0 102 -12 133 -35c59 -43 92 -104 98 -184c1 -7 1 -15 1 -22c0 -123 -87 -209 -181 -248c8 -57 17 -110 25 -162 c5 -31 6 -58 6 -80c0 -30 -5 -53 -14 -70c-35 -64 -88 -99 -158 -103c-5 0 -11 -1 -16 -1c-37 0 -72 10 -108 27c-50 24 -77 59 -80 105v11c0 29 7 55 20 76c18 28 45 42 79 44h6c49 0 93 -42 97 -87v-9c0 -51 -34 -86 -105 -106c17 -24 51 -36 102 -36c62 0 116 43 140 85 c9 16 13 41 13 74c0 20 -1 42 -5 67c-8 53 -18 106 -26 159zM461 939c-95 0 -135 -175 -135 -286c0 -24 2 -48 5 -71c50 39 92 82 127 128c40 53 60 100 60 140v8c-4 53 -22 81 -55 81h-2zM406 119l54 -326c73 25 110 78 110 161c0 7 0 15 -1 23c-7 95 -57 142 -151 142h-12 zM382 117c-72 -2 -128 -47 -128 -120v-7c2 -46 43 -99 75 -115c-3 -2 -7 -5 -10 -10c-70 33 -116 88 -123 172v11c0 68 44 126 88 159c23 17 49 29 78 36l-29 170c-21 -13 -52 -37 -92 -73c-50 -44 -86 -84 -109 -119c-45 -69 -67 -130 -67 -182v-13c5 -68 35 -127 93 -176 s125 -73 203 -73c25 0 50 3 75 9c-19 111 -36 221 -54 331z"/></g><g id="E262-dzyvpze"><path transform="scale(1,-1)" d="M136 186v169h17v-164l44 14v-91l-44 -14v-165l44 12v-91l-44 -13v-155h-17v150l-76 -22v-155h-17v149l-43 -13v90l43 14v167l-43 -14v92l43 13v169h17v-163zM60 73v-167l76 22v168z"/></g><g id="E086-dzyvpze"><path transform="scale(1,-1)" d="M284 -91c0 37 -28 92 -67 92c-35 0 -65 -54 -65 -111c0 -52 22 -104 68 -104c47 0 64 68 64 123zM230 214c-36 0 -90 -33 -90 -184l2 -36c40 24 81 36 120 36c80 0 140 -48 140 -121c0 -99 -99 -159 -182 -159c-160 0 -200 173 -200 244c0 21 2 43 7 71l10 35 c26 85 73 115 98 126c41 19 74 24 103 24c93 0 142 -63 142 -105c0 -58 -52 -72 -73 -72c-33 0 -59 24 -65 35c-3 5 -6 14 -7 25l11 30c6 15 9 27 9 35c0 11 -9 16 -25 16z"/></g><g id="E088-dzyvpze"><path transform="scale(1,-1)" d="M195 -214c76 0 88 58 90 68c0 34 -35 60 -57 73l-52 29c-21 10 -32 17 -34 20c-39 -33 -58 -54 -62 -92c5 -23 23 -98 115 -98zM301 135c0 61 -72 76 -113 76c-40 0 -77 -17 -77 -51c3 -21 15 -38 26 -50c17 -15 33 -26 48 -34l65 -28c34 27 51 56 51 87zM176 -250 c-57 0 -166 26 -166 132c0 47 30 86 89 116c-33 15 -79 60 -79 119c0 79 85 132 178 132h18c5 0 21 1 28 -1c25 0 126 -30 126 -110c0 -37 -23 -76 -69 -116c43 -25 83 -71 83 -119c0 -101 -118 -153 -208 -153z"/></g><g id="E0A4-dzyvpze"><path transform="scale(1,-1)" d="M0 -39c0 68 73 172 200 172c66 0 114 -37 114 -95c0 -84 -106 -171 -218 -171c-64 0 -96 30 -96 94z"/></g><g id="E241-dzyvpze"><path transform="scale(1,-1)" d="M179 646c-4 8 -17 30 -18 33l-4 10c0 3 2 5 5 5s7 -2 13 -7c23 -33 46 -81 66 -132c22 -57 35 -125 35 -163c0 -104 -60 -183 -122 -241c-63 -59 -57 -53 -61 -56c-38 -34 -63 -95 -71 -95h-22v190c40 7 69 11 87 16c88 27 168 95 168 200c0 30 -12 89 -30 138 c-17 47 -31 73 -46 102z"/></g><g id="E4E6-dzyvpze"><path transform="scale(1,-1)" d="M0 123c7 34 33 56 69 60c29 -3 43 -9 53 -29c4 -8 7 -15 10 -22c0 -21 -1 -25 -11 -35c-5 -8 -18 -14 -40 -20l12 -3l15 -1c44 0 97 26 122 56c10 11 18 26 24 42c7 1 15 2 22 3l-140 -424h-36l111 330c-10 -6 -27 -12 -53 -16l-52 -8h-10l-20 1c-1 0 -8 3 -21 6 c-37 9 -55 28 -55 60z"/></g></defs><style type="text/css">#dzyvpze g.page-margin {font-family:Times,serif;}#dzyvpze g.ending, #dzyvpze g.fing, #dzyvpze g.reh, #dzyvpze g.tempo {font-weight:bold;}#dzyvpze g.dir, #dzyvpze g.dynam, #dzyvpze g.mNum {font-style:italic;}#dzyvpze g.label {font-weight:normal;}#dzyvpze path {stroke:currentColor}</style><svg class="definition-scale" color="black" viewBox="0 0 14000 2230"><g class="page-margin" transform="translate(0, 150)"><g data-id="wai5gdw" data-class="mdiv" class="mdiv pageMilestone"/><g data-id="xitwicy" data-class="score" class="score pageMilestone"/><g data-id="tipnvmt" data-class="system" class="system"><g data-id="z3dnilp" data-class="section" class="section systemMilestone"/><g data-id="e1335z7r" data-class="measure" class="measure"><g data-id="lhk45rm" data-class="staff" class="staff"><path d="M0 678 L3415 678" stroke-width="13"/><path d="M0 858 L3415 858" stroke-width="13"/><path d="M0 1038 L3415 1038" stroke-width="13"/><path d="M0 1218 L3415 1218" stroke-width="13"/><path d="M0 1398 L3415 1398" stroke-width="13"/><g data-id="y1v4amot" data-class="clef" class="clef"><use href="#E050-dzyvpze" transform="translate(90, 1218) scale(0.72, 0.72)"/></g><g data-id="z3z0u2r" data-class="keySig" class="keySig"><g data-id="a1k18qk6" data-class="keyAccid" class="keyAccid"><use href="#E262-dzyvpze" transform="translate(735, 678) scale(0.72, 0.72)"/></g><g data-id="b1p4c3e7" data-class="keyAccid" class="keyAccid"><use href="#E262-dzyvpze" transform="translate(913, 948) scale(0.72, 0.72)"/></g><g data-id="c1ajq3n5" data-class="keyAccid" class="keyAccid"><use href="#E262-dzyvpze" transform="translate(1091, 588) scale(0.72, 0.72)"/></g></g><g data-id="d1ohho5a" data-class="meterSig" class="meterSig"><use href="#E086-dzyvpze" transform="translate(1398, 858) scale(0.72, 0.72)"/><use href="#E088-dzyvpze" transform="translate(1405, 1218) scale(0.72, 0.72)"/></g><g data-id="muv88du" data-class="layer" class="layer"><g data-id="x18ttp57" data-class="multiRest" class="multiRest"><rect stroke-opacity="1" fill-opacity="1" x="1957" y="948" height="180" width="1250"/><rect stroke-opacity="1" fill-opacity="1" x="1957" y="858" height="360" width="36"/><rect stroke-opacity="1" fill-opacity="1" x="3171" y="858" height="360" width="36"/><use href="#E086-dzyvpze" transform="translate(2430, 408) scale(0.72, 0.72)"/></g></g></g><g data-id="m1uetand" data-class="barLine" class="barLine"><path d="M3402 678 L3402 1398" stroke-width="27"/></g></g><g data-id="n118rxtu" data-class="measure" class="measure"><g data-id="n1dri1aw" data-class="staff" class="staff"><path d="M3415 678 L5928 678" stroke-width="13"/><path d="M3415 858 L5928 858" stroke-width="13"/><path d="M3415 1038 L5928 1038" stroke-width="13"/><path d="M3415 1218 L5928 1218" stroke-width="13"/><path d="M3415 1398 L5928 1398" stroke-width="13"/><g data-class="ledgerLines" class="ledgerLines above"><g data-class="lineDash" class="lineDash" data-related="#b1hvpzbf"><path d="M5356 498 L5678 498" stroke-width="22"/></g><g data-class="lineDash" class="lineDash" data-related="#b1hvpzbf"><path d="M5356 318 L5678 318" stroke-width="22"/></g></g><g data-id="o10hmb07" data-class="layer" class="layer"><g data-id="zuwxlld" data-class="note" class="note"><g data-class="notehead" class="notehead"><use href="#E0A4-dzyvpze" transform="translate(3620, 768) scale(0.72, 0.72)"/></g><g data-id="j5bn2ev" data-class="dots" class="dots"><ellipse cx="3936" cy="768" rx="36" ry="36" fill-opacity="1" stroke-opacity="1"/></g><g data-id="i1o7193m" data-class="stem" class="stem"><path d="M3629 796 L3629 1398" stroke-width="18"/></g></g><g data-id="a1meazsq" data-class="note" class="note"><g data-class="notehead" class="notehead"><use href="#E0A4-dzyvpze" transform="translate(4620, 948) scale(0.72, 0.72)"/></g><g data-id="k6rft7c" data-class="stem" class="stem"><path d="M4629 976 L4629 1578" stroke-width="18"/></g><g data-id="o1n22tjf" data-class="accid" class="accid"/></g><g data-id="b1hvpzbf" data-class="note" class="note"><g data-class="notehead" class="notehead"><use href="#E0A4-dzyvpze" transform="translate(5404, 318) scale(0.72, 0.72)"/></g><g data-id="l1unbb1w" data-class="stem" class="stem"><path d="M5413 346 L5413 1038" stroke-width="18"/><g data-id="m1ewuv5x" data-class="flag" class="flag"><use href="#E241-dzyvpze" transform="translate(5404, 1038) scale(0.72, 0.72)"/></g></g><g data-id="pxqu7ce" data-class="accid" class="accid"/></g></g></g><g data-id="vfrj5rq" data-class="barLine" class="barLine"><path d="M5915 678 L5915 1398" stroke-width="27"/></g></g><g data-id="w4hkqt2" data-class="measure" class="measure"><g data-id="pcoxfwd" data-class="staff" class="staff"><path d="M5928 678 L8441 678" stroke-width="13"/><path d="M5928 858 L8441 858" stroke-width="13"/><path d="M5928 1038 L8441 1038" stroke-width="13"/><path d="M5928 1218 L8441 1218" stroke-width="13"/><path d="M5928 1398 L8441 1398" stroke-width="13"/><g data-class="ledgerLines" class="ledgerLines above"><g data-class="lineDash" class="lineDash" data-related="#csu5lk2"><path d="M6085 498 L6407 498" stroke-width="22"/></g><g data-class="lineDash" class="lineDash" data-related="#ddru17r"><path d="M7085 498 L7407 498" stroke-width="22"/></g><g data-class="lineDash" class="lineDash" data-related="#eo4jjtx"><path d="M7869 498 L8191 498" stroke-width="22"/></g><g data-class="lineDash" class="lineDash" data-related="#csu5lk2"><path d="M6085 318 L6407 318" stroke-width="22"/></g><g data-class="lineDash" class="lineDash" data-related="#ddru17r"><path d="M7085 318 L7407 318" stroke-width="22"/></g></g><g data-id="q25rxvq" data-class="layer" class="layer"><g data-id="csu5lk2" data-class="note" class="note"><g data-class="notehead" class="notehead"><use href="#E0A4-dzyvpze" transform="translate(6133, 318) scale(0.72, 0.72)"/></g><g data-id="owqlje8" data-class="dots" class="dots"><ellipse cx="6449" cy="228" rx="36" ry="36" fill-opacity="1" stroke-opacity="1"/></g><g data-id="n1nh0jhr" data-class="stem" class="stem"><path d="M6142 346 L6142 1038" stroke-width="18"/></g><g data-id="qo6h2be" data-class="accid" class="accid"/></g><g data-id="ddru17r" data-class="note" class="note"><g data-class="notehead" class="notehead"><use href="#E0A4-dzyvpze" transform="translate(7133, 318) scale(0.72, 0.72)"/></g><g data-id="p14toq3o" data-class="stem" class="stem"><path d="M7142 346 L7142 1038" stroke-width="18"/></g><g data-id="rzomcf" data-class="accid" class="accid"/></g><g data-id="eo4jjtx" data-class="note" class="note"><g data-class="notehead" class="notehead"><use href="#E0A4-dzyvpze" transform="translate(7917, 498) scale(0.72, 0.72)"/></g><g data-id="q1ra68bu" data-class="stem" class="stem"><path d="M7926 526 L7926 1128" stroke-width="18"/><g data-id="r3v9vym" data-class="flag" class="flag"><use href="#E241-dzyvpze" transform="translate(7917, 1128) scale(0.72, 0.72)"/></g></g></g></g></g><g data-id="m14uf5j6" data-class="tie" class="tie"><path d="M6404,116 C6566,-38 6925,-38 7088,116 C6908,11 6583,11 6404,116" stroke-linecap="round" stroke-linejoin="round" stroke-width="9"/></g><g data-id="em51i5y" data-class="barLine" class="barLine"><path d="M8428 678 L8428 1398" stroke-width="27"/></g></g><g data-id="f1q7i717" data-class="measure" class="measure"><g data-id="r1eqmjmn" data-class="staff" class="staff"><path d="M8441 678 L11250 678" stroke-width="13"/><path d="M8441 858 L11250 858" stroke-width="13"/><path d="M8441 1038 L11250 1038" stroke-width="13"/><path d="M8441 1218 L11250 1218" stroke-width="13"/><path d="M8441 1398 L11250 1398" stroke-width="13"/><g data-class="ledgerLines" class="ledgerLines above"><g data-class="lineDash" class="lineDash" data-related="#hwkcoqf"><path d="M9893 498 L10215 498" stroke-width="22"/></g><g data-class="lineDash" class="lineDash" data-related="#i1xpnt1l"><path d="M10677 498 L10999 498" stroke-width="22"/></g></g><g data-id="s1pxhpod" data-class="layer" class="layer"><g data-id="f1ekheqn" data-class="note" class="note"><g data-class="notehead" class="notehead"><use href="#E0A4-dzyvpze" transform="translate(8646, 678) scale(0.72, 0.72)"/></g><g data-id="s1g4y26w" data-class="stem" class="stem"><path d="M8655 706 L8655 1308" stroke-width="18"/></g><g data-id="sc2w3nn" data-class="accid" class="accid"/></g><g data-id="g1vnh9bv" data-class="note" class="note"><g data-class="notehead" class="notehead"><use href="#E0A4-dzyvpze" transform="translate(9430, 588) scale(0.72, 0.72)"/></g><g data-id="t16z82ir" data-class="stem" class="stem"><path d="M9439 616 L9439 1218" stroke-width="18"/><g data-id="ut8oe46" data-class="flag" class="flag"><use href="#E241-dzyvpze" transform="translate(9430, 1218) scale(0.72, 0.72)"/></g></g><g data-id="tupon03" data-class="accid" class="accid"/></g><g data-id="hwkcoqf" data-class="note" class="note"><g data-class="notehead" class="notehead"><use href="#E0A4-dzyvpze" transform="translate(9941, 498) scale(0.72, 0.72)"/></g><g data-id="v101ogv1" data-class="stem" class="stem"><path d="M9950 526 L9950 1128" stroke-width="18"/></g></g><g data-id="i1xpnt1l" data-class="note" class="note"><g data-class="notehead" class="notehead"><use href="#E0A4-dzyvpze" transform="translate(10725, 408) scale(0.72, 0.72)"/></g><g data-id="w14nbhw4" data-class="stem" class="stem"><path d="M10734 436 L10734 1038" stroke-width="18"/><g data-id="xcb6tlv" data-class="flag" class="flag"><use href="#E241-dzyvpze" transform="translate(10725, 1038) scale(0.72, 0.72)"/></g></g></g></g></g><g data-id="n1b0wijh" data-class="barLine" class="barLine"><path d="M11237 678 L11237 1398" stroke-width="27"/></g></g><g data-id="o12726z9" data-class="measure" class="measure"><g data-id="tpdlpf4" data-class="staff" class="staff"><path d="M11250 678 L14002 678" stroke-width="13"/><path d="M11250 858 L14002 858" stroke-width="13"/><path d="M11250 1038 L14002 1038" stroke-width="13"/><path d="M11250 1218 L14002 1218" stroke-width="13"/><path d="M11250 1398 L14002 1398" stroke-width="13"/><g data-id="u17dr58b" data-class="layer" class="layer"><g data-id="j7noqcn" data-class="note" class="note"><g data-class="notehead" class="notehead"><use href="#E0A4-dzyvpze" transform="translate(11455, 768) scale(0.72, 0.72)"/></g><g data-id="z1hhn0ne" data-class="dots" class="dots"><ellipse cx="11771" cy="768" rx="36" ry="36" fill-opacity="1" stroke-opacity="1"/></g><g data-id="y1jpg7u7" data-class="stem" class="stem"><path d="M11464 796 L11464 1398" stroke-width="18"/></g></g><g data-id="kq1osau" data-class="note" class="note"><g data-class="notehead" class="notehead"><use href="#E0A4-dzyvpze" transform="translate(12455, 768) scale(0.72, 0.72)"/></g><g data-id="a9phfbd" data-class="stem" class="stem"><path d="M12464 796 L12464 1398" stroke-width="18"/><g data-id="bq6i3hq" data-class="flag" class="flag"><use href="#E241-dzyvpze" transform="translate(12455, 1398) scale(0.72, 0.72)"/></g></g></g><g data-id="y1ka73bx" data-class="rest" class="rest"><use href="#E4E6-dzyvpze" transform="translate(12966, 1038) scale(0.72, 0.72)"/></g><g data-id="l1fwuzdf" data-class="note" class="note"><g data-class="notehead" class="notehead"><use href="#E0A4-dzyvpze" transform="translate(13478, 948) scale(0.72, 0.72)"/></g><g data-id="catjadu" data-class="stem" class="stem"><path d="M13487 976 L13487 1578" stroke-width="18"/><g data-id="d2hyhe3" data-class="flag" class="flag"><use href="#E241-dzyvpze" transform="translate(13478, 1578) scale(0.72, 0.72)"/></g></g><g data-id="u1w3a4zj" data-class="accid" class="accid"/></g></g></g><g data-id="n1fz1bo5" data-class="tie" class="tie"><path d="M11726,656 C11888,502 12247,502 12410,656 C12230,551 11905,551 11726,656" stroke-linecap="round" stroke-linejoin="round" stroke-width="9"/></g><g data-id="wccl07b" data-class="barLine" class="barLine"><path d="M13989 678 L13989 1398" stroke-width="27"/></g></g><g data-id="c1w9tjvp" data-class="systemMilestoneEnd" class="systemMilestoneEnd z3dnilp"/></g><g data-id="d1xdfiz2" data-class="pageMilestoneEnd" class="pageMilestoneEnd xitwicy"/><g data-id="efuyz2z" data-class="pageMilestoneEnd" class="pageMilestoneEnd wai5gdw"/></g></svg></svg>