<svg viewBox="0 0 560 98" version="1.1" xmlns="http://www.w3.org/2000/svg" xmlns:xlink="http://www.w3.org/1999/xlink" overflow="visible" id="pwjpqzb"><desc>Engraved by Verovio 5.6.0-85e7620</desc><defs><g id="E050-pwjpqzb"><path transform="scale(1,-1)" d="M441 -245c-23 -4 -48 -6 -76 -6c-59 0 -102 7 -130 20c-88 42 -150 93 -187 154c-26 44 -43 103 -48 176c0 6 -1 13 -1 19c0 54 15 111 45 170c29 57 65 106 110 148s96 85 153 127c-3 16 -8 46 -13 92c-4 43 -5 73 -5 89c0 117 16 172 69 257c34 54 64 82 89 82 c21 0 43 -30 69 -92s39 -115 41 -159v-15c0 -109 -21 -162 -67 -241c-13 -20 -63 -90 -98 -118c-13 -9 -25 -19 -37 -29l31 -181c8 1 18 2 28 2c58 0 102 -12 133 -35c59 -43 92 -104 98 -184c1 -7 1 -15 1 -22c0 -123 -87 -209 -181 -248c8 -57 17 -110 25 -162 c5 -31 6 -58 6 -80c0 -30 -5 -53 -14 -70c-35 -64 -88 -99 -158 -103c-5 0 -11 -1 -16 -1c-37 0 -72 10 -108 27c-50 24 -77 59 -80 105v11c0 29 7 55 20 76c18 28 45 42 79 44h6c49 0 93 -42 97 -87v-9c0 -51 -34 -86 -105 -106c17 -24 51 -36 102 -36c62 0 116 43 140 85 c9 16 13 41 13 74c0 20 -1 42 -5 67c-8 53 -18 106 -26 159zM461 939c-95 0 -135 -175 -135 -286c0 -24 2 -48 5 -71c50 39 92 82 127 128c40 53 60 100 60 140v8c-4 53 -22 81 -55 81h-2zM406 119l54 -326c73 25 110 78 110 161c0 7 0 15 -1 23c-7 95 -57 142 -151 142h-12 zM382 117c-72 -2 -128 -47 -128 -120v-7c2 -46 43 -99 75 -115c-3 -2 -7 -5 -10 -10c-70 33 -116 88 -123 172v11c0 68 44 126 88 159c23 17 49 29 78 36l-29 170c-21 -13 -52 -37 -92 -73c-50 -44 -86 -84 -109 -119c-45 -69 -67 -130 -67 -182v-13c5 -68 35 -127 93 -176 s125 -73 203 -73c25 0 50 3 75 9c-19 111 -36 221 -54 331z"/></g><g id="E262-pwjpqzb"><path transform="scale(1,-1)" d="M136 186v169h17v-164l44 14v-91l-44 -14v-165l44 12v-91l-44 -13v-155h-17v150l-76 -22v-155h-17v149l-43 -13v90l43 14v167l-43 -14v92l43 13v169h17v-163zM60 73v-167l76 22v168z"/></g><g id="E08B-pwjpqzb"><path transform="scale(1,-1)" d="M188 200c-42 -22 -63 -69 -63 -141v-119c0 -39 7 -70 19 -94s26 -40 44 -48v402zM0 -0c0 127 80 220 186 246v72h32l-6 -72c33 0 71 0 101 -11c54 -20 102 -65 102 -135c0 -16 -4 -30 -13 -43s-20 -24 -32 -29l-20 -8l-23 -3c-22 2 -41 8 -55 21s-21 31 -26 51 c0 38 45 80 79 80c12 0 19 3 19 10c0 6 -6 12 -15 18c-19 13 -47 24 -79 24c-10 0 -20 -1 -32 -5v-431c15 -3 12 -4 30 -4c57 0 100 51 121 93l17 39c3 13 5 25 5 35h26c-6 -70 -28 -121 -66 -152s-82 -47 -133 -47v-68h-30v72c-57 10 -122 54 -153 109c-7 12 -13 26 -19 42 c-11 29 -16 61 -16 96z"/></g><g id="E0A2-pwjpqzb"><path transform="scale(1,-1)" d="M198 133c102 0 207 -45 207 -133c0 -92 -118 -133 -227 -133c-101 0 -178 46 -178 133c0 88 93 133 198 133zM293 -21c0 14 -3 29 -8 44c-7 20 -18 38 -33 54c-20 21 -43 31 -68 31l-20 -2c-15 -5 -27 -14 -36 -28c-4 -9 -6 -17 -8 -24s-3 -16 -3 -27c0 -15 3 -34 9 -57 s18 -41 34 -55c15 -15 36 -23 62 -23c4 0 10 1 18 2c19 5 32 15 40 30s13 34 13 55z"/></g></defs><style type="text/css">#pwjpqzb g.page-margin {font-family:Times,serif;}#pwjpqzb g.ending, #pwjpqzb g.fing, #pwjpqzb g.reh, #pwjpqzb g.tempo {font-weight:bold;}#pwjpqzb g.dir, #pwjpqzb g.dynam, #pwjpqzb g.mNum {font-style:italic;}#pwjpqzb g.label {font-weight:normal;}#pwjpqzb path {stroke:currentColor}</style><svg class="definition-scale" color="black" viewBox="0 0 14000 2440"><g class="page-margin" transform="translate(0, 150)"><g data-id="tpfjl0j" data-class="mdiv" class="mdiv pageMilestone"/><g data-id="u95nx0k" data-class="score" class="score pageMilestone"/><g data-id="t515ax0" data-class="system" class="system"><g data-id="w1jf0ihh" data-class="section" class="section systemMilestone"/><g data-id="q8te3x7" data-class="measure" class="measure"><g data-id="i10zqpw8" data-class="staff" class="staff"><path d="M0 880 L3763 880" stroke-width="13"/><path d="M0 1060 L3763 1060" stroke-width="13"/><path d="M0 1240 L3763 1240" stroke-width="13"/><path d="M0 1420 L3763 1420" stroke-width="13"/><path d="M0 1600 L3763 1600" stroke-width="13"/><g data-id="xzgejz4" data-class="clef" class="clef"><use href="#E050-pwjpqzb" transform="translate(90, 1420) scale(0.72, 0.72)"/></g><g data-id="yt1ly82" data-class="keySig" class="keySig"><g data-id="z1orqk3x" data-class="keyAccid" class="keyAccid"><use href="#E262-pwjpqzb" transform="translate(735, 880) scale(0.72, 0.72)"/></g><g data-id="a1pd7oc1" data-class="keyAccid" class="keyAccid"><use href="#E262-pwjpqzb" transform="translate(913, 1150) scale(0.72, 0.72)"/></g><g data-id="b1nta8lr" data-class="keyAccid" class="keyAccid"><use href="#E262-pwjpqzb" transform="translate(1091, 790) scale(0.72, 0.72)"/></g><g data-id="c6lp8p5" data-class="keyAccid" class="keyAccid"><use href="#E262-pwjpqzb" transform="translate(1269, 1060) scale(0.72, 0.72)"/></g></g><g data-id="d14erwgy" data-class="meterSig" class="meterSig"><use href="#E08B-pwjpqzb" transform="translate(1590, 1240) scale(0.72, 0.72)"/></g><g data-id="j1ix3ijr" data-class="layer" class="layer"><g data-id="j9cu0o3" data-class="note" class="note"><g data-class="notehead" class="notehead"><use href="#E0A2-pwjpqzb" transform="translate(2160, 790) scale(0.72, 0.72)"/></g><g data-id="p181u7oq" data-class="accid" class="accid"/></g></g></g><g data-id="y1hznr8z" data-class="barLine" class="barLine"><path d="M3750 880 L3750 1600" stroke-width="27"/></g></g><g data-id="z9ts59y" data-class="measure" class="measure"><g data-id="k1o71iek" data-class="staff" class="staff"><path d="M3763 880 L5546 880" stroke-width="13"/><path d="M3763 1060 L5546 1060" stroke-width="13"/><path d="M3763 1240 L5546 1240" stroke-width="13"/><path d="M3763 1420 L5546 1420" stroke-width="13"/><path d="M3763 1600 L5546 1600" stroke-width="13"/><g data-class="ledgerLines" class="ledgerLines above"><g data-class="lineDash" class="lineDash" data-related="#k153wlj8"><path d="M3895 700 L4281 700" stroke-width="22"/></g></g><g data-id="lbwedye" data-class="layer" class="layer"><g data-id="k153wlj8" data-class="note" class="note"><g data-class="notehead" class="notehead"><use href="#E0A2-pwjpqzb" transform="translate(3943, 610) scale(0.72, 0.72)"/></g></g></g></g><g data-id="h1ksftbg" data-class="barLine" class="barLine"><path d="M5533 880 L5533 1600" stroke-width="27"/></g></g><g data-id="iv6tb1u" data-class="measure" class="measure"><g data-id="mn4ho22" data-class="staff" class="staff"><path d="M5546 880 L7329 880" stroke-width="13"/><path d="M5546 1060 L7329 1060" stroke-width="13"/><path d="M5546 1240 L7329 1240" stroke-width="13"/><path d="M5546 1420 L7329 1420" stroke-width="13"/><path d="M5546 1600 L7329 1600" stroke-width="13"/><g data-class="ledgerLines" class="ledgerLines above"><g data-class="lineDash" class="lineDash" data-related="#lbvdyzx"><path d="M5678 700 L6064 700" stroke-width="22"/></g><g data-class="lineDash" class="lineDash" data-related="#lbvdyzx"><path d="M5678 520 L6064 520" stroke-width="22"/></g><g data-class="lineDash" class="lineDash" data-related="#lbvdyzx"><path d="M5678 340 L6064 340" stroke-width="22"/></g></g><g data-id="n1n9d155" data-class="layer" class="layer"><g data-id="lbvdyzx" data-class="note" class="note"><g data-class="notehead" class="notehead"><use href="#E0A2-pwjpqzb" transform="translate(5726, 340) scale(0.72, 0.72)"/></g></g></g></g><g data-id="q1fy3fxn" data-class="barLine" class="barLine"><path d="M7316 880 L7316 1600" stroke-width="27"/></g></g><g data-id="rbi65av" data-class="measure" class="measure"><g data-id="o1h89h6z" data-class="staff" class="staff"><path d="M7329 880 L9112 880" stroke-width="13"/><path d="M7329 1060 L9112 1060" stroke-width="13"/><path d="M7329 1240 L9112 1240" stroke-width="13"/><path d="M7329 1420 L9112 1420" stroke-width="13"/><path d="M7329 1600 L9112 1600" stroke-width="13"/><g data-class="ledgerLines" class="ledgerLines above"><g data-class="lineDash" class="lineDash" data-related="#m6s06hi"><path d="M7461 700 L7847 700" stroke-width="22"/></g><g data-class="lineDash" class="lineDash" data-related="#m6s06hi"><path d="M7461 520 L7847 520" stroke-width="22"/></g><g data-class="lineDash" class="lineDash" data-related="#m6s06hi"><path d="M7461 340 L7847 340" stroke-width="22"/></g><g data-class="lineDash" class="lineDash" data-related="#m6s06hi"><path d="M7461 160 L7847 160" stroke-width="22"/></g></g><g data-id="px2uhbf" data-class="layer" class="layer"><g data-id="m6s06hi" data-class="note" class="note"><g data-class="notehead" class="notehead"><use href="#E0A2-pwjpqzb" transform="translate(7509, 160) scale(0.72, 0.72)"/></g><g data-id="q1uhjmdy" data-class="accid" class="accid"/></g></g></g><g data-id="orqdiqd" data-class="tie" class="tie"><path d="M7844,115 C8189,-38 8898,-38 9247,115 C8889,10 8198,10 7844,115" stroke-linecap="round" stroke-linejoin="round" stroke-width="9"/></g><g data-id="zdtetd3" data-class="barLine" class="barLine"><path d="M9099 880 L9099 1600" stroke-width="27"/></g></g><g data-id="amse8t2" data-class="measure" class="measure"><g data-id="qt5wfhw" data-class="staff" class="staff"><path d="M9112 880 L10895 880" stroke-width="13"/><path d="M9112 1060 L10895 1060" stroke-width="13"/><path d="M9112 1240 L10895 1240" stroke-width="13"/><path d="M9112 1420 L10895 1420" stroke-width="13"/><path d="M9112 1600 L10895 1600" stroke-width="13"/><g data-class="ledgerLines" class="ledgerLines above"><g data-class="lineDash" class="lineDash" data-related="#nnj9elq"><path d="M9244 700 L9630 700" stroke-width="22"/></g><g data-class="lineDash" class="lineDash" data-related="#nnj9elq"><path d="M9244 520 L9630 520" stroke-width="22"/></g><g data-class="lineDash" class="lineDash" data-related="#nnj9elq"><path d="M9244 340 L9630 340" stroke-width="22"/></g><g data-class="lineDash" class="lineDash" data-related="#nnj9elq"><path d="M9244 160 L9630 160" stroke-width="22"/></g></g><g data-id="ra4hlch" data-class="layer" class="layer"><g data-id="nnj9elq" data-class="note" class="note"><g data-class="notehead" class="notehead"><use href="#E0A2-pwjpqzb" transform="translate(9292, 160) scale(0.72, 0.72)"/></g><g data-id="rdopqtd" data-class="accid" class="accid"/></g></g></g><g data-id="i29645k" data-class="barLine" class="barLine"><path d="M10882 880 L10882 1600" stroke-width="27"/></g></g><g data-id="zpmasba" data-class="systemMilestoneEnd" class="systemMilestoneEnd w1jf0ihh"/></g><g data-id="a17ihrzo" data-class="pageMilestoneEnd" class="pageMilestoneEnd u95nx0k"/><g data-id="b1rzw4ri" data-class="pageMilestoneEnd" class="pageMilestoneEnd tpfjl0j"/></g></svg></svg>