<svg viewBox="0 0 560 84" version="1.1" xmlns="http://www.w3.org/2000/svg" xmlns:xlink="http://www.w3.org/1999/xlink" overflow="visible" id="ithzg3h"><desc>Engraved by Verovio 5.6.0-85e7620</desc><defs><g id="E050-ithzg3h"><path transform="scale(1,-1)" d="M441 -245c-23 -4 -48 -6 -76 -6c-59 0 -102 7 -130 20c-88 42 -150 93 -187 154c-26 44 -43 103 -48 176c0 6 -1 13 -1 19c0 54 15 111 45 170c29 57 65 106 110 148s96 85 153 127c-3 16 -8 46 -13 92c-4 43 -5 73 -5 89c0 117 16 172 69 257c34 54 64 82 89 82 c21 0 43 -30 69 -92s39 -115 41 -159v-15c0 -109 -21 -162 -67 -241c-13 -20 -63 -90 -98 -118c-13 -9 -25 -19 -37 -29l31 -181c8 1 18 2 28 2c58 0 102 -12 133 -35c59 -43 92 -104 98 -184c1 -7 1 -15 1 -22c0 -123 -87 -209 -181 -248c8 -57 17 -110 25 -162 c5 -31 6 -58 6 -80c0 -30 -5 -53 -14 -70c-35 -64 -88 -99 -158 -103c-5 0 -11 -1 -16 -1c-37 0 -72 10 -108 27c-50 24 -77 59 -80 105v11c0 29 7 55 20 76c18 28 45 42 79 44h6c49 0 93 -42 97 -87v-9c0 -51 -34 -86 -105 -106c17 -24 51 -36 102 -36c62 0 116 43 140 85 c9 16 13 41 13 74c0 20 -1 42 -5 67c-8 53 -18 106 -26 159zM461 939c-95 0 -135 -175 -135 -286c0 -24 2 -48 5 -71c50 39 92 82 127 128c40 53 60 100 60 140v8c-4 53 -22 81 -55 81h-2zM406 119l54 -326c73 25 110 78 110 161c0 7 0 15 -1 23c-7 95 -57 142 -151 142h-12 zM382 117c-72 -2 -128 -47 -128 -120v-7c2 -46 43 -99 75 -115c-3 -2 -7 -5 -10 -10c-70 33 -116 88 -123 172v11c0 68 44 126 88 159c23 17 49 29 78 36l-29 170c-21 -13 -52 -37 -92 -73c-50 -44 -86 -84 -109 -119c-45 -69 -67 -130 -67 -182v-13c5 -68 35 -127 93 -176 s125 -73 203 -73c25 0 50 3 75 9c-19 111 -36 221 -54 331z"/></g><g id="E260-ithzg3h"><path transform="scale(1,-1)" d="M20 110c32 16 54 27 93 27c26 0 35 -3 54 -13c13 -7 24 -20 27 -38l4 -25c0 -28 -16 -57 -45 -89c-23 -25 -39 -44 -65 -68l-88 -79v644h20v-359zM90 106c-32 0 -48 -10 -70 -29v-194c31 31 54 59 71 84c21 32 32 59 32 84c0 9 1 16 1 20c0 14 -3 21 -11 30l-8 3z"/></g><g id="E08A-ithzg3h"><path transform="scale(1,-1)" d="M340 179c-9 24 -56 41 -89 41c-46 0 -81 -28 -100 -58c-17 -28 -25 -78 -25 -150c0 -65 2 -111 8 -135c8 -31 18 -49 40 -67c20 -17 43 -25 70 -25c54 0 92 36 115 75c14 25 23 54 28 88h27c0 -63 -24 -105 -58 -141c-35 -38 -82 -56 -140 -56c-45 0 -83 13 -115 39 c-57 45 -101 130 -101 226c0 59 33 127 68 163c36 37 97 72 160 72c36 0 93 -21 121 -40c11 -8 23 -17 33 -30c19 -23 27 -48 27 -76c0 -51 -35 -88 -86 -88c-43 0 -76 27 -76 68c0 26 7 35 21 51c15 17 32 27 58 32c7 2 14 7 14 11z"/></g><g id="E4E6-ithzg3h"><path transform="scale(1,-1)" d="M0 123c7 34 33 56 69 60c29 -3 43 -9 53 -29c4 -8 7 -15 10 -22c0 -21 -1 -25 -11 -35c-5 -8 -18 -14 -40 -20l12 -3l15 -1c44 0 97 26 122 56c10 11 18 26 24 42c7 1 15 2 22 3l-140 -424h-36l111 330c-10 -6 -27 -12 -53 -16l-52 -8h-10l-20 1c-1 0 -8 3 -21 6 c-37 9 -55 28 -55 60z"/></g><g id="E0A4-ithzg3h"><path transform="scale(1,-1)" d="M0 -39c0 68 73 172 200 172c66 0 114 -37 114 -95c0 -84 -106 -171 -218 -171c-64 0 -96 30 -96 94z"/></g><g id="E0A3-ithzg3h"><path transform="scale(1,-1)" d="M278 64c0 22 -17 39 -43 39c-12 0 -26 -3 -41 -10c-85 -43 -165 -94 -165 -156c5 -25 15 -32 49 -32c67 11 200 95 200 159zM0 -36c0 68 73 174 200 174c66 0 114 -39 114 -97c0 -84 -106 -173 -218 -173c-64 0 -96 32 -96 96z"/></g></defs><style type="text/css">#ithzg3h g.page-margin {font-family:Times,serif;}#ithzg3h g.ending, #ithzg3h g.fing, #ithzg3h g.reh, #ithzg3h g.tempo {font-weight:bold;}#ithzg3h g.dir, #ithzg3h g.dynam, #ithzg3h g.mNum {font-style:italic;}#ithzg3h g.label {font-weight:normal;}#ithzg3h path {stroke:currentColor}</style><svg class="definition-scale" color="black" viewBox="0 0 14000 2100"><g class="page-margin" transform="translate(0, 150)"><g data-id="l1njq1wg" data-class="mdiv" class="mdiv pageMilestone"/><g data-id="mud64wq" data-class="score" class="score pageMilestone"/><g data-id="hxurlxf" data-class="system" class="system"><g data-id="o12cqki9" data-class="section" class="section systemMilestone"/><g data-id="j1clq33m" data-class="measure" class="measure"><g data-id="a1155a23" data-class="staff" class="staff"><path d="M0 540 L4901 540" stroke-width="13"/><path d="M0 720 L4901 720" stroke-width="13"/><path d="M0 900 L4901 900" stroke-width="13"/><path d="M0 1080 L4901 1080" stroke-width="13"/><path d="M0 1260 L4901 1260" stroke-width="13"/><g data-id="m12cr0ob" data-class="clef" class="clef"><use href="#E050-ithzg3h" transform="translate(90, 1080) scale(0.72, 0.72)"/></g><g data-id="n1sw335q" data-class="keySig" class="keySig"><g data-id="o10s7t97" data-class="keyAccid" class="keyAccid"><use href="#E260-ithzg3h" transform="translate(735, 900) scale(0.72, 0.72)"/></g><g data-id="p102bxea" data-class="keyAccid" class="keyAccid"><use href="#E260-ithzg3h" transform="translate(915, 630) scale(0.72, 0.72)"/></g><g data-id="qddg47g" data-class="keyAccid" class="keyAccid"><use href="#E260-ithzg3h" transform="translate(1095, 990) scale(0.72, 0.72)"/></g></g><g data-id="r3j7oor" data-class="meterSig" class="meterSig"><use href="#E08A-ithzg3h" transform="translate(1417, 900) scale(0.72, 0.72)"/></g><g data-class="ledgerLines" class="ledgerLines below"><g data-class="lineDash" class="lineDash" data-related="#lurf7et"><path d="M2387 1440 L2709 1440" stroke-width="22"/></g><g data-class="lineDash" class="lineDash" data-related="#mnzv2es"><path d="M2837 1440 L3159 1440" stroke-width="22"/></g><g data-class="lineDash" class="lineDash" data-related="#n1kjx8cw"><path d="M3287 1440 L3609 1440" stroke-width="22"/></g><g data-class="lineDash" class="lineDash" data-related="#mnzv2es"><path d="M2837 1620 L3159 1620" stroke-width="22"/></g></g><g data-id="b1kdh99m" data-class="layer" class="layer"><g data-id="kgk65dr" data-class="rest" class="rest"><use href="#E4E6-ithzg3h" transform="translate(1985, 900) scale(0.72, 0.72)"/></g><g data-id="zd12kmx" data-class="beam" class="beam"><polygon stroke-opacity="1" fill-opacity="1" points="2643,900 3561,900 3561,990 2643,990"/><g data-id="lurf7et" data-class="note" class="note"><g data-class="notehead" class="notehead"><use href="#E0A4-ithzg3h" transform="translate(2435, 1530) scale(0.72, 0.72)"/></g><g data-id="tcyvbp9" data-class="stem" class="stem"><path d="M2652 1502 L2652 918" stroke-width="18"/></g><g data-id="e18qevaa" data-class="accid" class="accid"/></g><g data-id="mnzv2es" data-class="note" class="note"><g data-class="notehead" class="notehead"><use href="#E0A4-ithzg3h" transform="translate(2885, 1710) scale(0.72, 0.72)"/></g><g data-id="u2k32pr" data-class="stem" class="stem"><path d="M3102 1682 L3102 918" stroke-width="18"/></g></g><g data-id="n1kjx8cw" data-class="note" class="note"><g data-class="notehead" class="notehead"><use href="#E0A4-ithzg3h" transform="translate(3335, 1530) scale(0.72, 0.72)"/></g><g data-id="v57ir7z" data-class="stem" class="stem"><path d="M3552 1502 L3552 918" stroke-width="18"/></g><g data-id="fgf5m6t" data-class="accid" class="accid"/></g></g><g data-id="o1fqvmoa" data-class="note" class="note"><g data-class="notehead" class="notehead"><use href="#E0A3-ithzg3h" transform="translate(3838, 1350) scale(0.72, 0.72)"/></g><g data-id="w1a6sl8v" data-class="stem" class="stem"><path d="M4055 1322 L4055 720" stroke-width="18"/></g><g data-id="ybxhhfq" data-class="accid" class="accid"><use href="#E260-ithzg3h" transform="translate(3651, 1350) scale(0.72, 0.72)"/></g></g></g></g><g data-id="c1fou8pu" data-class="tie" class="tie"><path d="M4109,1395 C4346,1500 4795,1500 5036,1395 C4808,1548 4333,1548 4109,1395" stroke-linecap="round" stroke-linejoin="round" stroke-width="9"/></g><g data-id="rhvtmke" data-class="barLine" class="barLine"><path d="M4888 540 L4888 1260" stroke-width="27"/></g></g><g data-id="sne4szn" data-class="measure" class="measure"><g data-id="coj7l37" data-class="staff" class="staff"><path d="M4901 540 L7944 540" stroke-width="13"/><path d="M4901 720 L7944 720" stroke-width="13"/><path d="M4901 900 L7944 900" stroke-width="13"/><path d="M4901 1080 L7944 1080" stroke-width="13"/><path d="M4901 1260 L7944 1260" stroke-width="13"/><g data-class="ledgerLines" class="ledgerLines below"><g data-class="lineDash" class="lineDash" data-related="#q14y65of"><path d="M5483 1440 L5805 1440" stroke-width="22"/></g><g data-class="lineDash" class="lineDash" data-related="#r9hrc71"><path d="M5933 1440 L6255 1440" stroke-width="22"/></g><g data-class="lineDash" class="lineDash" data-related="#sanrktw"><path d="M6383 1440 L6705 1440" stroke-width="22"/></g><g data-class="lineDash" class="lineDash" data-related="#sanrktw"><path d="M6383 1620 L6705 1620" stroke-width="22"/></g></g><g data-id="d1hto4by" data-class="layer" class="layer"><g data-id="az2ukgr" data-class="beam" class="beam"><polygon stroke-opacity="1" fill-opacity="1" points="5289,720 6657,900 6657,990 5289,810"/><g data-id="pkz6et3" data-class="note" class="note"><g data-class="notehead" class="notehead"><use href="#E0A4-ithzg3h" transform="translate(5081, 1350) scale(0.72, 0.72)"/></g><g data-id="xvng1p6" data-class="stem" class="stem"><path d="M5298 1322 L5298 738" stroke-width="18"/></g><g data-id="g76xlcw" data-class="accid" class="accid"/></g><g data-id="q14y65of" data-class="note" class="note"><g data-class="notehead" class="notehead"><use href="#E0A4-ithzg3h" transform="translate(5531, 1440) scale(0.72, 0.72)"/></g><g data-id="y1owbun" data-class="stem" class="stem"><path d="M5748 1412 L5748 798" stroke-width="18"/></g></g><g data-id="r9hrc71" data-class="note" class="note"><g data-class="notehead" class="notehead"><use href="#E0A4-ithzg3h" transform="translate(5981, 1530) scale(0.72, 0.72)"/></g><g data-id="zzstu54" data-class="stem" class="stem"><path d="M6198 1502 L6198 858" stroke-width="18"/></g><g data-id="h5nrrrn" data-class="accid" class="accid"/></g><g data-id="sanrktw" data-class="note" class="note"><g data-class="notehead" class="notehead"><use href="#E0A4-ithzg3h" transform="translate(6431, 1620) scale(0.72, 0.72)"/></g><g data-id="a119hado" data-class="stem" class="stem"><path d="M6648 1592 L6648 918" stroke-width="18"/></g><g data-id="ifh5yei" data-class="accid" class="accid"/></g></g><g data-id="to2jcfo" data-class="note" class="note"><g data-class="notehead" class="notehead"><use href="#E0A3-ithzg3h" transform="translate(6881, 1170) scale(0.72, 0.72)"/></g><g data-id="bbok02n" data-class="stem" class="stem"><path d="M7098 1142 L7098 540" stroke-width="18"/></g></g></g></g><g data-id="dgjoaw6" data-class="tie" class="tie"><path d="M7152,1215 C7389,1320 7838,1320 8079,1215 C7851,1368 7376,1368 7152,1215" stroke-linecap="round" stroke-linejoin="round" stroke-width="9"/></g><g data-id="a1ebdp6f" data-class="barLine" class="barLine"><path d="M7931 540 L7931 1260" stroke-width="27"/></g></g><g data-id="b231f05" data-class="measure" class="measure"><g data-id="eb908vy" data-class="staff" class="staff"><path d="M7944 540 L9924 540" stroke-width="13"/><path d="M7944 720 L9924 720" stroke-width="13"/><path d="M7944 900 L9924 900" stroke-width="13"/><path d="M7944 1080 L9924 1080" stroke-width="13"/><path d="M7944 1260 L9924 1260" stroke-width="13"/><g data-id="fdoso54" data-class="layer" class="layer"><g data-id="budbknh" data-class="beam" class="beam"><polygon stroke-opacity="1" fill-opacity="1" points="8332,360 9700,315 9700,405 8332,450"/><g data-id="u1qsk8sd" data-class="note" class="note"><g data-class="notehead" class="notehead"><use href="#E0A4-ithzg3h" transform="translate(8124, 1170) scale(0.72, 0.72)"/></g><g data-id="cb26add" data-class="stem" class="stem"><path d="M8341 1142 L8341 378" stroke-width="18"/></g></g><g data-id="v10lnf7m" data-class="note" class="note"><g data-class="notehead" class="notehead"><use href="#E0A4-ithzg3h" transform="translate(8574, 1170) scale(0.72, 0.72)"/></g><g data-id="da6qt9" data-class="stem" class="stem"><path d="M8791 1142 L8791 363" stroke-width="18"/></g></g><g data-id="w1d297tb" data-class="note" class="note"><g data-class="notehead" class="notehead"><use href="#E0A4-ithzg3h" transform="translate(9024, 1080) scale(0.72, 0.72)"/></g><g data-id="e2lanhc" data-class="stem" class="stem"><path d="M9241 1052 L9241 348" stroke-width="18"/></g></g><g data-id="x19srbf" data-class="note" class="note"><g data-class="notehead" class="notehead"><use href="#E0A4-ithzg3h" transform="translate(9474, 990) scale(0.72, 0.72)"/></g><g data-id="f1ga07w4" data-class="stem" class="stem"><path d="M9691 962 L9691 333" stroke-width="18"/></g><g data-id="jwyff2" data-class="accid" class="accid"/></g></g></g></g><g data-id="j3cm8lg" data-class="barLine" class="barLine"/></g><g data-id="ns2cdx4" data-class="systemMilestoneEnd" class="systemMilestoneEnd o12cqki9"/></g><g data-id="o18lu4s2" data-class="pageMilestoneEnd" class="pageMilestoneEnd mud64wq"/><g data-id="po7bpyt" data-class="pageMilestoneEnd" class="pageMilestoneEnd l1njq1wg"/></g></svg></svg>