<svg viewBox="0 0 560 84" version="1.1" xmlns="http://www.w3.org/2000/svg" xmlns:xlink="http://www.w3.org/1999/xlink" overflow="visible" id="i1osb4a5"><desc>Engraved by Verovio 5.6.0-85e7620</desc><defs><g id="E062-i1osb4a5"><path transform="scale(1,-1)" d="M582 -120c0 32 26 58 58 58s58 -26 58 -58s-26 -58 -58 -58s-58 26 -58 58zM582 120c0 32 26 58 58 58s58 -26 58 -58s-26 -58 -58 -58s-58 26 -58 58zM158 96c51 0 73 -14 88 -49l16 -39c0 -17 -2 -30 -7 -40c-3 -11 -10 -21 -19 -31c-17 -18 -49 -43 -84 -43 c-55 0 -77 13 -112 44c-24 21 -35 55 -35 100c0 46 14 81 32 112c30 52 71 79 137 93l36 6l26 2c154 0 235 -68 274 -182c11 -32 18 -68 18 -107c0 -103 -26 -182 -68 -250c-89 -145 -234 -230 -412 -288l-30 -5c-9 0 -14 3 -14 8c3 10 5 11 10 16c35 15 70 30 96 44l78 43 c96 57 162 136 197 258c9 33 17 60 22 100c3 22 5 35 6 39c-7 69 -16 115 -23 140s-4 22 -16 40c-8 12 -19 23 -31 34c-24 21 -62 44 -118 44c-48 0 -84 -8 -113 -28c-28 -19 -42 -44 -42 -73v-16c2 -5 3 -9 4 -11c24 22 52 39 84 39z"/></g><g id="E260-i1osb4a5"><path transform="scale(1,-1)" d="M20 110c32 16 54 27 93 27c26 0 35 -3 54 -13c13 -7 24 -20 27 -38l4 -25c0 -28 -16 -57 -45 -89c-23 -25 -39 -44 -65 -68l-88 -79v644h20v-359zM90 106c-32 0 -48 -10 -70 -29v-194c31 31 54 59 71 84c21 32 32 59 32 84c0 9 1 16 1 20c0 14 -3 21 -11 30l-8 3z"/></g><g id="E083-i1osb4a5"><path transform="scale(1,-1)" d="M208 250c97 0 177 -52 177 -116c0 -69 -40 -111 -118 -125c56 -5 125 -44 125 -116c0 -31 -10 -57 -31 -78c-19 -21 -45 -38 -78 -49l-50 -11c-15 -3 -36 -7 -55 -7c-50 0 -86 16 -113 38c-16 10 -23 18 -34 34c-7 13 -11 25 -11 38c0 43 27 83 68 83l3 -2 c61 0 75 -42 75 -70c0 -19 -24 -42 -26 -57c7 -17 20 -25 37 -25c44 0 94 29 94 78c0 75 -34 125 -138 125v36c84 0 131 22 131 98c0 54 -37 88 -87 88c-26 0 -43 -7 -51 -22c15 -22 44 -16 44 -70c0 -37 -37 -62 -71 -62c-22 0 -69 15 -69 76c0 79 101 116 178 116z"/></g><g id="E084-i1osb4a5"><path transform="scale(1,-1)" d="M20 -78c84 97 114 180 134 329h170c-13 -32 -82 -132 -99 -151l-84 -97c-33 -36 -59 -63 -80 -81h162v102l127 123v-225h57v-39h-57v-34c0 -43 19 -65 57 -65v-34h-244v36c48 0 60 26 60 70v27h-203v39z"/></g><g id="E0A4-i1osb4a5"><path transform="scale(1,-1)" d="M0 -39c0 68 73 172 200 172c66 0 114 -37 114 -95c0 -84 -106 -171 -218 -171c-64 0 -96 30 -96 94z"/></g><g id="E07A-i1osb4a5"><path transform="scale(1,-1)" d="M343 -190c-18 -3 -37 -5 -59 -5c-46 0 -79 6 -101 16c-68 33 -117 72 -146 119c-20 34 -33 80 -37 137c0 5 -1 10 -1 15c0 42 12 86 35 132c23 44 51 82 86 115s75 65 119 98c-2 12 -7 36 -11 72c-3 33 -3 57 -3 69c0 91 12 134 53 200c26 42 50 63 69 63 c16 0 34 -23 54 -71s30 -90 32 -124v-11c0 -85 -16 -126 -52 -187c-10 -16 -49 -70 -76 -92c-10 -7 -20 -15 -29 -23l24 -140c6 1 14 1 22 1c45 0 79 -9 103 -27c46 -33 71 -81 76 -143c1 -5 1 -12 1 -17c0 -96 -68 -163 -141 -193c6 -44 14 -86 20 -126c4 -24 4 -45 4 -62 c0 -23 -3 -41 -10 -54c-27 -50 -69 -77 -123 -80c-4 0 -9 -1 -13 -1c-29 0 -56 8 -84 21c-39 19 -60 46 -62 82v8c0 23 6 43 16 59c14 22 35 32 61 34h5c38 0 72 -32 75 -67v-7c0 -40 -26 -67 -81 -83c13 -19 39 -28 79 -28c48 0 90 34 109 67c7 12 10 31 10 57 c0 16 -1 33 -4 52c-6 41 -14 83 -20 124zM358 730c-74 0 -105 -137 -105 -223c0 -19 2 -37 4 -55c39 30 72 64 99 100c31 41 46 77 46 108v7c-3 41 -16 63 -42 63h-2zM315 92l42 -253c57 19 86 61 86 125c0 5 0 12 -1 18c-5 74 -44 110 -117 110h-10zM297 91 c-56 -2 -100 -36 -100 -93v-6c2 -36 34 -77 59 -89c-2 -2 -6 -4 -8 -8c-54 26 -91 69 -96 134v8c0 53 35 98 69 124c18 13 37 23 60 28l-22 132c-16 -10 -41 -29 -72 -57c-39 -34 -66 -65 -84 -92c-35 -54 -52 -102 -52 -142v-10c4 -53 27 -99 72 -137s96 -56 157 -56 c19 0 40 2 59 7c-15 86 -28 172 -42 257z"/></g><g id="E0A3-i1osb4a5"><path transform="scale(1,-1)" d="M278 64c0 22 -17 39 -43 39c-12 0 -26 -3 -41 -10c-85 -43 -165 -94 -165 -156c5 -25 15 -32 49 -32c67 11 200 95 200 159zM0 -36c0 68 73 174 200 174c66 0 114 -39 114 -97c0 -84 -106 -173 -218 -173c-64 0 -96 32 -96 96z"/></g></defs><style type="text/css">#i1osb4a5 g.page-margin {font-family:Times,serif;}#i1osb4a5 g.ending, #i1osb4a5 g.fing, #i1osb4a5 g.reh, #i1osb4a5 g.tempo {font-weight:bold;}#i1osb4a5 g.dir, #i1osb4a5 g.dynam, #i1osb4a5 g.mNum {font-style:italic;}#i1osb4a5 g.label {font-weight:normal;}#i1osb4a5 path {stroke:currentColor}</style><svg class="definition-scale" color="black" viewBox="0 0 14000 2100"><g class="page-margin" transform="translate(0, 150)"><g data-id="uuglokj" data-class="mdiv" class="mdiv pageMilestone"/><g data-id="vivs2t8" data-class="score" class="score pageMilestone"/><g data-id="ykwxbqe" data-class="system" class="system"><g data-id="x1va9pqu" data-class="section" class="section systemMilestone"/><g data-id="jkvzbcb" data-class="measure" class="measure"><g data-id="j1eq3ib6" data-class="staff" class="staff"><path d="M0 540 L4712 540" stroke-width="13"/><path d="M0 720 L4712 720" stroke-width="13"/><path d="M0 900 L4712 900" stroke-width="13"/><path d="M0 1080 L4712 1080" stroke-width="13"/><path d="M0 1260 L4712 1260" stroke-width="13"/><g data-id="xe2h2v4" data-class="clef" class="clef"><use href="#E062-i1osb4a5" transform="translate(88, 720) scale(0.72, 0.72)"/></g><g data-id="y9h66f8" data-class="keySig" class="keySig"><g data-id="z1694rx9" data-class="keyAccid" class="keyAccid"><use href="#E260-i1osb4a5" transform="translate(769, 1080) scale(0.72, 0.72)"/></g><g data-id="a1qydjg9" data-class="keyAccid" class="keyAccid"><use href="#E260-i1osb4a5" transform="translate(949, 810) scale(0.72, 0.72)"/></g><g data-id="b40guki" data-class="keyAccid" class="keyAccid"><use href="#E260-i1osb4a5" transform="translate(1129, 1170) scale(0.72, 0.72)"/></g></g><g data-id="c14boxgu" data-class="meterSig" class="meterSig"><use href="#E083-i1osb4a5" transform="translate(1443, 720) scale(0.72, 0.72)"/><use href="#E084-i1osb4a5" transform="translate(1437, 1080) scale(0.72, 0.72)"/></g><g data-class="ledgerLines" class="ledgerLines below"><g data-class="lineDash" class="lineDash" data-related="#u1la90fj"><path d="M1951 1440 L2273 1440" stroke-width="22"/></g><g data-class="lineDash" class="lineDash" data-related="#vcgv599"><path d="M2401 1440 L2723 1440" stroke-width="22"/></g><g data-class="lineDash" class="lineDash" data-related="#w178n2cm"><path d="M2851 1440 L3173 1440" stroke-width="22"/></g><g data-class="lineDash" class="lineDash" data-related="#xa7fdgl"><path d="M3301 1440 L3623 1440" stroke-width="22"/></g><g data-class="lineDash" class="lineDash" data-related="#yj9vwgy"><path d="M3751 1440 L4073 1440" stroke-width="22"/></g><g data-class="lineDash" class="lineDash" data-related="#z15x5qbr"><path d="M4201 1440 L4523 1440" stroke-width="22"/></g></g><g data-id="k8te3j7" data-class="layer" class="layer"><g data-id="i11z5j81" data-class="beam" class="beam"><polygon stroke-opacity="1" fill-opacity="1" points="2207,855 4475,855 4475,945 2207,945"/><g data-id="u1la90fj" data-class="note" class="note"><g data-class="notehead" class="notehead"><use href="#E0A4-i1osb4a5" transform="translate(1999, 1440) scale(0.72, 0.72)"/></g><g data-id="eyarvdp" data-class="stem" class="stem"><path d="M2216 1412 L2216 873" stroke-width="18"/></g><g data-id="k5go8nk" data-class="accid" class="accid"/></g><g data-id="vcgv599" data-class="note" class="note"><g data-class="notehead" class="notehead"><use href="#E0A4-i1osb4a5" transform="translate(2449, 1440) scale(0.72, 0.72)"/></g><g data-id="f1tuk14n" data-class="stem" class="stem"><path d="M2666 1412 L2666 873" stroke-width="18"/></g><g data-id="l1o1zwtg" data-class="accid" class="accid"/></g><g data-id="w178n2cm" data-class="note" class="note"><g data-class="notehead" class="notehead"><use href="#E0A4-i1osb4a5" transform="translate(2899, 1440) scale(0.72, 0.72)"/></g><g data-id="gjrigt5" data-class="stem" class="stem"><path d="M3116 1412 L3116 873" stroke-width="18"/></g><g data-id="m121xzgk" data-class="accid" class="accid"/></g><g data-id="xa7fdgl" data-class="note" class="note"><g data-class="notehead" class="notehead"><use href="#E0A4-i1osb4a5" transform="translate(3349, 1440) scale(0.72, 0.72)"/></g><g data-id="hvm7n3g" data-class="stem" class="stem"><path d="M3566 1412 L3566 873" stroke-width="18"/></g><g data-id="nuu0n1r" data-class="accid" class="accid"/></g><g data-id="yj9vwgy" data-class="note" class="note"><g data-class="notehead" class="notehead"><use href="#E0A4-i1osb4a5" transform="translate(3799, 1440) scale(0.72, 0.72)"/></g><g data-id="i4uj0cw" data-class="stem" class="stem"><path d="M4016 1412 L4016 873" stroke-width="18"/></g><g data-id="o11u0xpc" data-class="accid" class="accid"/></g><g data-id="z15x5qbr" data-class="note" class="note"><g data-class="notehead" class="notehead"><use href="#E0A4-i1osb4a5" transform="translate(4249, 1440) scale(0.72, 0.72)"/></g><g data-id="jgt0t6f" data-class="stem" class="stem"><path d="M4466 1412 L4466 873" stroke-width="18"/></g><g data-id="p11kt6xc" data-class="accid" class="accid"/></g></g></g></g><g data-id="rys3rpv" data-class="barLine" class="barLine"><path d="M4699 540 L4699 1260" stroke-width="27"/></g></g><g data-id="t1poccmd" data-class="measure" class="measure"><g data-id="lz1bwbf" data-class="staff" class="staff"><path d="M4712 540 L7963 540" stroke-width="13"/><path d="M4712 720 L7963 720" stroke-width="13"/><path d="M4712 900 L7963 900" stroke-width="13"/><path d="M4712 1080 L7963 1080" stroke-width="13"/><path d="M4712 1260 L7963 1260" stroke-width="13"/><g data-id="m4tiwxx" data-class="layer" class="layer"><g data-id="s1hi1623" data-class="clef" class="clef"><use href="#E07A-i1osb4a5" transform="translate(4802, 1080) scale(0.72, 0.72)"/></g><g data-id="j1ssyv1k" data-class="beam" class="beam"><polygon stroke-opacity="1" fill-opacity="1" points="5462,360 7726,360 7726,450 5462,450"/><polygon stroke-opacity="1" fill-opacity="1" points="5825,495 6051,495 6051,585 5825,585"/><g data-id="a8yvor1" data-class="note" class="note"><g data-class="notehead" class="notehead"><use href="#E0A4-i1osb4a5" transform="translate(5254, 1080) scale(0.72, 0.72)"/></g><g data-id="l1pk7m6u" data-class="dots" class="dots"><ellipse cx="5570" cy="990" rx="36" ry="36" fill-opacity="1" stroke-opacity="1"/></g><g data-id="kkqmqua" data-class="stem" class="stem"><path d="M5471 1052 L5471 378" stroke-width="18"/></g></g><g data-id="b1yvy7ur" data-class="note" class="note"><g data-class="notehead" class="notehead"><use href="#E0A4-i1osb4a5" transform="translate(5834, 1170) scale(0.72, 0.72)"/></g><g data-id="m12gpjy9" data-class="stem" class="stem"><path d="M6051 1142 L6051 378" stroke-width="18"/></g></g><g data-id="c1nrkbkp" data-class="note" class="note"><g data-class="notehead" class="notehead"><use href="#E0A4-i1osb4a5" transform="translate(6150, 990) scale(0.72, 0.72)"/></g><g data-id="nbirmqe" data-class="stem" class="stem"><path d="M6367 962 L6367 378" stroke-width="18"/></g><g data-id="q2iye4r" data-class="accid" class="accid"/></g><g data-id="d1esqx7m" data-class="note" class="note"><g data-class="notehead" class="notehead"><use href="#E0A4-i1osb4a5" transform="translate(6600, 1080) scale(0.72, 0.72)"/></g><g data-id="o5p7dwc" data-class="stem" class="stem"><path d="M6817 1052 L6817 378" stroke-width="18"/></g></g><g data-id="ezp4mj5" data-class="note" class="note"><g data-class="notehead" class="notehead"><use href="#E0A4-i1osb4a5" transform="translate(7050, 1170) scale(0.72, 0.72)"/></g><g data-id="pyp0jxg" data-class="stem" class="stem"><path d="M7267 1142 L7267 378" stroke-width="18"/></g></g><g data-id="f11k4511" data-class="note" class="note"><g data-class="notehead" class="notehead"><use href="#E0A4-i1osb4a5" transform="translate(7500, 1260) scale(0.72, 0.72)"/></g><g data-id="q1kz5xaw" data-class="stem" class="stem"><path d="M7717 1232 L7717 378" stroke-width="18"/></g><g data-id="r13ppxhk" data-class="accid" class="accid"/></g></g></g></g><g data-id="boi7c1x" data-class="barLine" class="barLine"><path d="M7950 540 L7950 1260" stroke-width="27"/></g></g><g data-id="c17xwnlh" data-class="measure" class="measure"><g data-id="n10xkvgn" data-class="staff" class="staff"><path d="M7963 540 L9496 540" stroke-width="13"/><path d="M7963 720 L9496 720" stroke-width="13"/><path d="M7963 900 L9496 900" stroke-width="13"/><path d="M7963 1080 L9496 1080" stroke-width="13"/><path d="M7963 1260 L9496 1260" stroke-width="13"/><g data-id="ons3ror" data-class="layer" class="layer"><g data-id="g2h18xz" data-class="note" class="note"><g data-class="notehead" class="notehead"><use href="#E0A3-i1osb4a5" transform="translate(8143, 990) scale(0.72, 0.72)"/></g><g data-id="s1tboei0" data-class="dots" class="dots"><ellipse cx="8459" cy="990" rx="36" ry="36" fill-opacity="1" stroke-opacity="1"/></g><g data-id="r19hwrux" data-class="stem" class="stem"><path d="M8360 962 L8360 360" stroke-width="18"/></g><g data-id="s1lto4uj" data-class="accid" class="accid"/></g></g></g><g data-id="k418jvq" data-class="barLine" class="barLine"><path d="M9483 540 L9483 1260" stroke-width="27"/></g></g><g data-id="lg25uof" data-class="measure" class="measure"><g data-id="p1l1iufa" data-class="staff" class="staff"><path d="M9496 540 L11016 540" stroke-width="13"/><path d="M9496 720 L11016 720" stroke-width="13"/><path d="M9496 900 L11016 900" stroke-width="13"/><path d="M9496 1080 L11016 1080" stroke-width="13"/><path d="M9496 1260 L11016 1260" stroke-width="13"/><g data-id="qzdful4" data-class="layer" class="layer"><g data-id="h7s3hci" data-class="note" class="note"><g data-class="notehead" class="notehead"><use href="#E0A3-i1osb4a5" transform="translate(9676, 810) scale(0.72, 0.72)"/></g><g data-id="u1ikz3h6" data-class="dots" class="dots"><ellipse cx="9992" cy="810" rx="36" ry="36" fill-opacity="1" stroke-opacity="1"/></g><g data-id="tiyy933" data-class="stem" class="stem"><path d="M9685 835 L9685 1440" stroke-width="18"/></g></g></g></g><g data-id="t1617hi8" data-class="barLine" class="barLine"/></g><g data-id="yqzwdql" data-class="systemMilestoneEnd" class="systemMilestoneEnd x1va9pqu"/></g><g data-id="zif9py6" data-class="pageMilestoneEnd" class="pageMilestoneEnd vivs2t8"/><g data-id="apxv6ei" data-class="pageMilestoneEnd" class="pageMilestoneEnd uuglokj"/></g></svg></svg>