<svg viewBox="0 0 560 84" version="1.1" xmlns="http://www.w3.org/2000/svg" xmlns:xlink="http://www.w3.org/1999/xlink" overflow="visible" id="nwxxrun"><desc>Engraved by Verovio 5.6.0-85e7620</desc><defs><g id="E050-nwxxrun"><path transform="scale(1,-1)" d="M441 -245c-23 -4 -48 -6 -76 -6c-59 0 -102 7 -130 20c-88 42 -150 93 -187 154c-26 44 -43 103 -48 176c0 6 -1 13 -1 19c0 54 15 111 45 170c29 57 65 106 110 148s96 85 153 127c-3 16 -8 46 -13 92c-4 43 -5 73 -5 89c0 117 16 172 69 257c34 54 64 82 89 82 c21 0 43 -30 69 -92s39 -115 41 -159v-15c0 -109 -21 -162 -67 -241c-13 -20 -63 -90 -98 -118c-13 -9 -25 -19 -37 -29l31 -181c8 1 18 2 28 2c58 0 102 -12 133 -35c59 -43 92 -104 98 -184c1 -7 1 -15 1 -22c0 -123 -87 -209 -181 -248c8 -57 17 -110 25 -162 c5 -31 6 -58 6 -80c0 -30 -5 -53 -14 -70c-35 -64 -88 -99 -158 -103c-5 0 -11 -1 -16 -1c-37 0 -72 10 -108 27c-50 24 -77 59 -80 105v11c0 29 7 55 20 76c18 28 45 42 79 44h6c49 0 93 -42 97 -87v-9c0 -51 -34 -86 -105 -106c17 -24 51 -36 102 -36c62 0 116 43 140 85 c9 16 13 41 13 74c0 20 -1 42 -5 67c-8 53 -18 106 -26 159zM461 939c-95 0 -135 -175 -135 -286c0 -24 2 -48 5 -71c50 39 92 82 127 128c40 53 60 100 60 140v8c-4 53 -22 81 -55 81h-2zM406 119l54 -326c73 25 110 78 110 161c0 7 0 15 -1 23c-7 95 -57 142 -151 142h-12 zM382 117c-72 -2 -128 -47 -128 -120v-7c2 -46 43 -99 75 -115c-3 -2 -7 -5 -10 -10c-70 33 -116 88 -123 172v11c0 68 44 126 88 159c23 17 49 29 78 36l-29 170c-21 -13 -52 -37 -92 -73c-50 -44 -86 -84 -109 -119c-45 -69 -67 -130 -67 -182v-13c5 -68 35 -127 93 -176 s125 -73 203 -73c25 0 50 3 75 9c-19 111 -36 221 -54 331z"/></g><g id="E262-nwxxrun"><path transform="scale(1,-1)" d="M136 186v169h17v-164l44 14v-91l-44 -14v-165l44 12v-91l-44 -13v-155h-17v150l-76 -22v-155h-17v149l-43 -13v90l43 14v167l-43 -14v92l43 13v169h17v-163zM60 73v-167l76 22v168z"/></g><g id="E08B-nwxxrun"><path transform="scale(1,-1)" d="M188 200c-42 -22 -63 -69 -63 -141v-119c0 -39 7 -70 19 -94s26 -40 44 -48v402zM0 -0c0 127 80 220 186 246v72h32l-6 -72c33 0 71 0 101 -11c54 -20 102 -65 102 -135c0 -16 -4 -30 -13 -43s-20 -24 -32 -29l-20 -8l-23 -3c-22 2 -41 8 -55 21s-21 31 -26 51 c0 38 45 80 79 80c12 0 19 3 19 10c0 6 -6 12 -15 18c-19 13 -47 24 -79 24c-10 0 -20 -1 -32 -5v-431c15 -3 12 -4 30 -4c57 0 100 51 121 93l17 39c3 13 5 25 5 35h26c-6 -70 -28 -121 -66 -152s-82 -47 -133 -47v-68h-30v72c-57 10 -122 54 -153 109c-7 12 -13 26 -19 42 c-11 29 -16 61 -16 96z"/></g><g id="E0A4-nwxxrun"><path transform="scale(1,-1)" d="M0 -39c0 68 73 172 200 172c66 0 114 -37 114 -95c0 -84 -106 -171 -218 -171c-64 0 -96 30 -96 94z"/></g></defs><style type="text/css">#nwxxrun g.page-margin {font-family:Times,serif;}#nwxxrun g.ending, #nwxxrun g.fing, #nwxxrun g.reh, #nwxxrun g.tempo {font-weight:bold;}#nwxxrun g.dir, #nwxxrun g.dynam, #nwxxrun g.mNum {font-style:italic;}#nwxxrun g.label {font-weight:normal;}#nwxxrun path {stroke:currentColor}</style><svg class="definition-scale" color="black" viewBox="0 0 14000 2100"><g class="page-margin" transform="translate(0, 150)"><g data-id="n15rb8yz" data-class="mdiv" class="mdiv pageMilestone"/><g data-id="ogdbldv" data-class="score" class="score pageMilestone"/><g data-id="s1iyg2d2" data-class="system" class="system"><g data-id="qr7vaqk" data-class="section" class="section systemMilestone"/><g data-id="oa541wf" data-class="measure" class="measure"><g data-id="c1s9blvg" data-class="staff" class="staff"><path d="M0 540 L5631 540" stroke-width="13"/><path d="M0 720 L5631 720" stroke-width="13"/><path d="M0 900 L5631 900" stroke-width="13"/><path d="M0 1080 L5631 1080" stroke-width="13"/><path d="M0 1260 L5631 1260" stroke-width="13"/><g data-id="o1q7ab3d" data-class="clef" class="clef"><use href="#E050-nwxxrun" transform="translate(90, 1080) scale(0.72, 0.72)"/></g><g data-id="p8h9iv8" data-class="keySig" class="keySig"><g data-id="qjsh1gs" data-class="keyAccid" class="keyAccid"><use href="#E262-nwxxrun" transform="translate(735, 540) scale(0.72, 0.72)"/></g></g><g data-id="r1b9afbf" data-class="meterSig" class="meterSig"><use href="#E08B-nwxxrun" transform="translate(1056, 900) scale(0.72, 0.72)"/></g><g data-class="ledgerLines" class="ledgerLines below"><g data-class="lineDash" class="lineDash" data-related="#agp5473"><path d="M2584 1440 L2906 1440" stroke-width="22"/></g></g><g data-id="d7w88jt" data-class="layer" class="layer"><g data-id="e1jvd00u" data-class="beam" class="beam"><polygon stroke-opacity="1" fill-opacity="1" points="1845,405 3356,450 3356,540 1845,495"/><g data-id="y1jg2f7n" data-class="note" class="note"><g data-class="notehead" class="notehead"><use href="#E0A4-nwxxrun" transform="translate(1637, 1080) scale(0.72, 0.72)"/></g><g data-id="v1307h30" data-class="stem" class="stem"><path d="M1854 1052 L1854 423" stroke-width="18"/></g></g><g data-id="z1612auc" data-class="note" class="note"><g data-class="notehead" class="notehead"><use href="#E0A4-nwxxrun" transform="translate(2134, 1260) scale(0.72, 0.72)"/></g><g data-id="w1ywz7nl" data-class="stem" class="stem"><path d="M2351 1232 L2351 438" stroke-width="18"/></g></g><g data-id="agp5473" data-class="note" class="note"><g data-class="notehead" class="notehead"><use href="#E0A4-nwxxrun" transform="translate(2632, 1530) scale(0.72, 0.72)"/></g><g data-id="x17gec24" data-class="stem" class="stem"><path d="M2849 1502 L2849 453" stroke-width="18"/></g></g><g data-id="bm21b2c" data-class="note" class="note"><g data-class="notehead" class="notehead"><use href="#E0A4-nwxxrun" transform="translate(3130, 1260) scale(0.72, 0.72)"/></g><g data-id="y91igyw" data-class="stem" class="stem"><path d="M3347 1232 L3347 468" stroke-width="18"/></g></g></g><g data-id="fg4gac6" data-class="beam" class="beam"><polygon stroke-opacity="1" fill-opacity="1" points="3835,495 5346,495 5346,585 3835,585"/><g data-id="c4pakry" data-class="note" class="note"><g data-class="notehead" class="notehead"><use href="#E0A4-nwxxrun" transform="translate(3627, 1080) scale(0.72, 0.72)"/></g><g data-id="z1izd70b" data-class="stem" class="stem"><path d="M3844 1052 L3844 513" stroke-width="18"/></g></g><g data-id="d1rmmhtp" data-class="note" class="note"><g data-class="notehead" class="notehead"><use href="#E0A4-nwxxrun" transform="translate(4125, 1260) scale(0.72, 0.72)"/></g><g data-id="a1bzotwp" data-class="stem" class="stem"><path d="M4342 1232 L4342 513" stroke-width="18"/></g></g><g data-id="ei6m01n" data-class="note" class="note"><g data-class="notehead" class="notehead"><use href="#E0A4-nwxxrun" transform="translate(4623, 1080) scale(0.72, 0.72)"/></g><g data-id="b7dvxrm" data-class="stem" class="stem"><path d="M4840 1052 L4840 513" stroke-width="18"/></g></g><g data-id="fzhnqss" data-class="note" class="note"><g data-class="notehead" class="notehead"><use href="#E0A4-nwxxrun" transform="translate(5120, 1260) scale(0.72, 0.72)"/></g><g data-id="c120h0bi" data-class="stem" class="stem"><path d="M5337 1232 L5337 513" stroke-width="18"/></g></g></g></g></g><g data-id="w18nuvz2" data-class="barLine" class="barLine"><path d="M5618 540 L5618 1260" stroke-width="27"/></g></g><g data-id="x9i5dhn" data-class="measure" class="measure"><g data-id="e1syxwia" data-class="staff" class="staff"><path d="M5631 540 L9816 540" stroke-width="13"/><path d="M5631 720 L9816 720" stroke-width="13"/><path d="M5631 900 L9816 900" stroke-width="13"/><path d="M5631 1080 L9816 1080" stroke-width="13"/><path d="M5631 1260 L9816 1260" stroke-width="13"/><g data-class="ledgerLines" class="ledgerLines below"><g data-class="lineDash" class="lineDash" data-related="#i77qrc0"><path d="M6769 1440 L7091 1440" stroke-width="22"/></g></g><g data-id="f1ts3wgt" data-class="layer" class="layer"><g data-id="g9etqxi" data-class="beam" class="beam"><polygon stroke-opacity="1" fill-opacity="1" points="6030,405 7541,450 7541,540 6030,495"/><g data-id="g11cu9nj" data-class="note" class="note"><g data-class="notehead" class="notehead"><use href="#E0A4-nwxxrun" transform="translate(5822, 1080) scale(0.72, 0.72)"/></g><g data-id="d8s9pms" data-class="stem" class="stem"><path d="M6039 1052 L6039 423" stroke-width="18"/></g></g><g data-id="h1j4ttqj" data-class="note" class="note"><g data-class="notehead" class="notehead"><use href="#E0A4-nwxxrun" transform="translate(6319, 1260) scale(0.72, 0.72)"/></g><g data-id="e928bwy" data-class="stem" class="stem"><path d="M6536 1232 L6536 438" stroke-width="18"/></g></g><g data-id="i77qrc0" data-class="note" class="note"><g data-class="notehead" class="notehead"><use href="#E0A4-nwxxrun" transform="translate(6817, 1530) scale(0.72, 0.72)"/></g><g data-id="fktbhva" data-class="stem" class="stem"><path d="M7034 1502 L7034 453" stroke-width="18"/></g></g><g data-id="j1ocpegb" data-class="note" class="note"><g data-class="notehead" class="notehead"><use href="#E0A4-nwxxrun" transform="translate(7315, 1260) scale(0.72, 0.72)"/></g><g data-id="g1w28ep5" data-class="stem" class="stem"><path d="M7532 1232 L7532 468" stroke-width="18"/></g></g></g><g data-id="h15687r9" data-class="beam" class="beam"><polygon stroke-opacity="1" fill-opacity="1" points="8020,495 9531,495 9531,585 8020,585"/><g data-id="k1rynbpy" data-class="note" class="note"><g data-class="notehead" class="notehead"><use href="#E0A4-nwxxrun" transform="translate(7812, 1080) scale(0.72, 0.72)"/></g><g data-id="h15f5tzg" data-class="stem" class="stem"><path d="M8029 1052 L8029 513" stroke-width="18"/></g></g><g data-id="l1jgzigk" data-class="note" class="note"><g data-class="notehead" class="notehead"><use href="#E0A4-nwxxrun" transform="translate(8310, 1260) scale(0.72, 0.72)"/></g><g data-id="i1brd902" data-class="stem" class="stem"><path d="M8527 1232 L8527 513" stroke-width="18"/></g></g><g data-id="mwyd33r" data-class="note" class="note"><g data-class="notehead" class="notehead"><use href="#E0A4-nwxxrun" transform="translate(8808, 1080) scale(0.72, 0.72)"/></g><g data-id="j19kgd7i" data-class="stem" class="stem"><path d="M9025 1052 L9025 513" stroke-width="18"/></g></g><g data-id="n1khhljm" data-class="note" class="note"><g data-class="notehead" class="notehead"><use href="#E0A4-nwxxrun" transform="translate(9305, 1260) scale(0.72, 0.72)"/></g><g data-id="k1735pk7" data-class="stem" class="stem"><path d="M9522 1232 L9522 513" stroke-width="18"/></g></g></g></g></g><g data-id="f5uri71" data-class="barLine" class="barLine"><path d="M9803 540 L9803 1260" stroke-width="27"/></g></g><g data-id="g13t77s5" data-class="measure" class="measure"><g data-id="g1yrw79p" data-class="staff" class="staff"><path d="M9816 540 L14001 540" stroke-width="13"/><path d="M9816 720 L14001 720" stroke-width="13"/><path d="M9816 900 L14001 900" stroke-width="13"/><path d="M9816 1080 L14001 1080" stroke-width="13"/><path d="M9816 1260 L14001 1260" stroke-width="13"/><g data-class="ledgerLines" class="ledgerLines below"><g data-class="lineDash" class="lineDash" data-related="#qw6r966"><path d="M10954 1440 L11276 1440" stroke-width="22"/></g></g><g data-id="h594q7d" data-class="layer" class="layer"><g data-id="i1qbd9yu" data-class="beam" class="beam"><polygon stroke-opacity="1" fill-opacity="1" points="10215,405 11726,450 11726,540 10215,495"/><g data-id="o1amrq01" data-class="note" class="note"><g data-class="notehead" class="notehead"><use href="#E0A4-nwxxrun" transform="translate(10007, 1080) scale(0.72, 0.72)"/></g><g data-id="l1ujj99g" data-class="stem" class="stem"><path d="M10224 1052 L10224 423" stroke-width="18"/></g></g><g data-id="pind5la" data-class="note" class="note"><g data-class="notehead" class="notehead"><use href="#E0A4-nwxxrun" transform="translate(10504, 1260) scale(0.72, 0.72)"/></g><g data-id="mael7bl" data-class="stem" class="stem"><path d="M10721 1232 L10721 438" stroke-width="18"/></g></g><g data-id="qw6r966" data-class="note" class="note"><g data-class="notehead" class="notehead"><use href="#E0A4-nwxxrun" transform="translate(11002, 1530) scale(0.72, 0.72)"/></g><g data-id="nk5btxa" data-class="stem" class="stem"><path d="M11219 1502 L11219 453" stroke-width="18"/></g></g><g data-id="r13hoduk" data-class="note" class="note"><g data-class="notehead" class="notehead"><use href="#E0A4-nwxxrun" transform="translate(11500, 1260) scale(0.72, 0.72)"/></g><g data-id="o1lpmeur" data-class="stem" class="stem"><path d="M11717 1232 L11717 468" stroke-width="18"/></g></g></g><g data-id="j82jy51" data-class="beam" class="beam"><polygon stroke-opacity="1" fill-opacity="1" points="12205,495 13716,495 13716,585 12205,585"/><g data-id="s1p0bfom" data-class="note" class="note"><g data-class="notehead" class="notehead"><use href="#E0A4-nwxxrun" transform="translate(11997, 1080) scale(0.72, 0.72)"/></g><g data-id="p1lp3uqo" data-class="stem" class="stem"><path d="M12214 1052 L12214 513" stroke-width="18"/></g></g><g data-id="t1aa3g6l" data-class="note" class="note"><g data-class="notehead" class="notehead"><use href="#E0A4-nwxxrun" transform="translate(12495, 1260) scale(0.72, 0.72)"/></g><g data-id="q17r7aro" data-class="stem" class="stem"><path d="M12712 1232 L12712 513" stroke-width="18"/></g></g><g data-id="u10rmm1m" data-class="note" class="note"><g data-class="notehead" class="notehead"><use href="#E0A4-nwxxrun" transform="translate(12993, 1080) scale(0.72, 0.72)"/></g><g data-id="rxnib3r" data-class="stem" class="stem"><path d="M13210 1052 L13210 513" stroke-width="18"/></g></g><g data-id="v1jh6bya" data-class="note" class="note"><g data-class="notehead" class="notehead"><use href="#E0A4-nwxxrun" transform="translate(13490, 1260) scale(0.72, 0.72)"/></g><g data-id="svdbjt7" data-class="stem" class="stem"><path d="M13707 1232 L13707 513" stroke-width="18"/></g></g></g></g></g><g data-id="olb0pak" data-class="barLine" class="barLine"><path d="M13988 540 L13988 1260" stroke-width="27"/></g></g></g></g></svg></svg>