<svg viewBox="0 0 560 92" version="1.1" xmlns="http://www.w3.org/2000/svg" xmlns:xlink="http://www.w3.org/1999/xlink" overflow="visible" id="z1ncjrzd"><desc>Engraved by Verovio 5.6.0-85e7620</desc><defs><g id="E062-z1ncjrzd"><path transform="scale(1,-1)" d="M582 -120c0 32 26 58 58 58s58 -26 58 -58s-26 -58 -58 -58s-58 26 -58 58zM582 120c0 32 26 58 58 58s58 -26 58 -58s-26 -58 -58 -58s-58 26 -58 58zM158 96c51 0 73 -14 88 -49l16 -39c0 -17 -2 -30 -7 -40c-3 -11 -10 -21 -19 -31c-17 -18 -49 -43 -84 -43 c-55 0 -77 13 -112 44c-24 21 -35 55 -35 100c0 46 14 81 32 112c30 52 71 79 137 93l36 6l26 2c154 0 235 -68 274 -182c11 -32 18 -68 18 -107c0 -103 -26 -182 -68 -250c-89 -145 -234 -230 -412 -288l-30 -5c-9 0 -14 3 -14 8c3 10 5 11 10 16c35 15 70 30 96 44l78 43 c96 57 162 136 197 258c9 33 17 60 22 100c3 22 5 35 6 39c-7 69 -16 115 -23 140s-4 22 -16 40c-8 12 -19 23 -31 34c-24 21 -62 44 -118 44c-48 0 -84 -8 -113 -28c-28 -19 -42 -44 -42 -73v-16c2 -5 3 -9 4 -11c24 22 52 39 84 39z"/></g><g id="E262-z1ncjrzd"><path transform="scale(1,-1)" d="M136 186v169h17v-164l44 14v-91l-44 -14v-165l44 12v-91l-44 -13v-155h-17v150l-76 -22v-155h-17v149l-43 -13v90l43 14v167l-43 -14v92l43 13v169h17v-163zM60 73v-167l76 22v168z"/></g><g id="E083-z1ncjrzd"><path transform="scale(1,-1)" d="M208 250c97 0 177 -52 177 -116c0 -69 -40 -111 -118 -125c56 -5 125 -44 125 -116c0 -31 -10 -57 -31 -78c-19 -21 -45 -38 -78 -49l-50 -11c-15 -3 -36 -7 -55 -7c-50 0 -86 16 -113 38c-16 10 -23 18 -34 34c-7 13 -11 25 -11 38c0 43 27 83 68 83l3 -2 c61 0 75 -42 75 -70c0 -19 -24 -42 -26 -57c7 -17 20 -25 37 -25c44 0 94 29 94 78c0 75 -34 125 -138 125v36c84 0 131 22 131 98c0 54 -37 88 -87 88c-26 0 -43 -7 -51 -22c15 -22 44 -16 44 -70c0 -37 -37 -62 -71 -62c-22 0 -69 15 -69 76c0 79 101 116 178 116z"/></g><g id="E084-z1ncjrzd"><path transform="scale(1,-1)" d="M20 -78c84 97 114 180 134 329h170c-13 -32 -82 -132 -99 -151l-84 -97c-33 -36 -59 -63 -80 -81h162v102l127 123v-225h57v-39h-57v-34c0 -43 19 -65 57 -65v-34h-244v36c48 0 60 26 60 70v27h-203v39z"/></g><g id="E0A4-z1ncjrzd"><path transform="scale(1,-1)" d="M0 -39c0 68 73 172 200 172c66 0 114 -37 114 -95c0 -84 -106 -171 -218 -171c-64 0 -96 30 -96 94z"/></g><g id="E07A-z1ncjrzd"><path transform="scale(1,-1)" d="M343 -190c-18 -3 -37 -5 -59 -5c-46 0 -79 6 -101 16c-68 33 -117 72 -146 119c-20 34 -33 80 -37 137c0 5 -1 10 -1 15c0 42 12 86 35 132c23 44 51 82 86 115s75 65 119 98c-2 12 -7 36 -11 72c-3 33 -3 57 -3 69c0 91 12 134 53 200c26 42 50 63 69 63 c16 0 34 -23 54 -71s30 -90 32 -124v-11c0 -85 -16 -126 -52 -187c-10 -16 -49 -70 -76 -92c-10 -7 -20 -15 -29 -23l24 -140c6 1 14 1 22 1c45 0 79 -9 103 -27c46 -33 71 -81 76 -143c1 -5 1 -12 1 -17c0 -96 -68 -163 -141 -193c6 -44 14 -86 20 -126c4 -24 4 -45 4 -62 c0 -23 -3 -41 -10 -54c-27 -50 -69 -77 -123 -80c-4 0 -9 -1 -13 -1c-29 0 -56 8 -84 21c-39 19 -60 46 -62 82v8c0 23 6 43 16 59c14 22 35 32 61 34h5c38 0 72 -32 75 -67v-7c0 -40 -26 -67 -81 -83c13 -19 39 -28 79 -28c48 0 90 34 109 67c7 12 10 31 10 57 c0 16 -1 33 -4 52c-6 41 -14 83 -20 124zM358 730c-74 0 -105 -137 -105 -223c0 -19 2 -37 4 -55c39 30 72 64 99 100c31 41 46 77 46 108v7c-3 41 -16 63 -42 63h-2zM315 92l42 -253c57 19 86 61 86 125c0 5 0 12 -1 18c-5 74 -44 110 -117 110h-10zM297 91 c-56 -2 -100 -36 -100 -93v-6c2 -36 34 -77 59 -89c-2 -2 -6 -4 -8 -8c-54 26 -91 69 -96 134v8c0 53 35 98 69 124c18 13 37 23 60 28l-22 132c-16 -10 -41 -29 -72 -57c-39 -34 -66 -65 -84 -92c-35 -54 -52 -102 -52 -142v-10c4 -53 27 -99 72 -137s96 -56 157 -56 c19 0 40 2 59 7c-15 86 -28 172 -42 257z"/></g><g id="E241-z1ncjrzd"><path transform="scale(1,-1)" d="M179 646c-4 8 -17 30 -18 33l-4 10c0 3 2 5 5 5s7 -2 13 -7c23 -33 46 -81 66 -132c22 -57 35 -125 35 -163c0 -104 -60 -183 -122 -241c-63 -59 -57 -53 -61 -56c-38 -34 -63 -95 -71 -95h-22v190c40 7 69 11 87 16c88 27 168 95 168 200c0 30 -12 89 -30 138 c-17 47 -31 73 -46 102z"/></g></defs><style type="text/css">#z1ncjrzd g.page-margin {font-family:Times,serif;}#z1ncjrzd g.ending, #z1ncjrzd g.fing, #z1ncjrzd g.reh, #z1ncjrzd g.tempo {font-weight:bold;}#z1ncjrzd g.dir, #z1ncjrzd g.dynam, #z1ncjrzd g.mNum {font-style:italic;}#z1ncjrzd g.label {font-weight:normal;}#z1ncjrzd path {stroke:currentColor}</style><svg class="definition-scale" color="black" viewBox="0 0 14000 2280"><g class="page-margin" transform="translate(0, 150)"><g data-id="j27e10r" data-class="mdiv" class="mdiv pageMilestone"/><g data-id="kdqf3ku" data-class="score" class="score pageMilestone"/><g data-id="eihv1py" data-class="system" class="system"><g data-id="mg0hfxq" data-class="section" class="section systemMilestone"/><g data-id="agvj4tl" data-class="measure" class="measure"><g data-id="ygp5hm9" data-class="staff" class="staff"><path d="M0 630 L6051 630" stroke-width="13"/><path d="M0 810 L6051 810" stroke-width="13"/><path d="M0 990 L6051 990" stroke-width="13"/><path d="M0 1170 L6051 1170" stroke-width="13"/><path d="M0 1350 L6051 1350" stroke-width="13"/><g data-id="cq06i46" data-class="clef" class="clef"><use href="#E062-z1ncjrzd" transform="translate(88, 810) scale(0.72, 0.72)"/></g><g data-id="d1r72vnm" data-class="keySig" class="keySig"><g data-id="e1h39bg9" data-class="keyAccid" class="keyAccid"><use href="#E262-z1ncjrzd" transform="translate(769, 810) scale(0.72, 0.72)"/></g><g data-id="fy5lden" data-class="keyAccid" class="keyAccid"><use href="#E262-z1ncjrzd" transform="translate(947, 1080) scale(0.72, 0.72)"/></g><g data-id="g14bsobr" data-class="keyAccid" class="keyAccid"><use href="#E262-z1ncjrzd" transform="translate(1125, 720) scale(0.72, 0.72)"/></g></g><g data-id="h1nah8i9" data-class="meterSig" class="meterSig"><use href="#E083-z1ncjrzd" transform="translate(1438, 810) scale(0.72, 0.72)"/><use href="#E084-z1ncjrzd" transform="translate(1432, 1170) scale(0.72, 0.72)"/></g><g data-class="ledgerLines" class="ledgerLines below"><g data-class="lineDash" class="lineDash" data-related="#u1oqarcc"><path d="M1954 1530 L2276 1530" stroke-width="22"/></g><g data-class="lineDash" class="lineDash" data-related="#y1odwfs6"><path d="M3742 1530 L4064 1530" stroke-width="22"/></g><g data-class="lineDash" class="lineDash" data-related="#u1oqarcc"><path d="M1954 1710 L2276 1710" stroke-width="22"/></g><g data-class="lineDash" class="lineDash" data-related="#u1oqarcc"><path d="M1954 1890 L2276 1890" stroke-width="22"/></g></g><g data-id="z18tk1te" data-class="layer" class="layer"><g data-id="t1ituan5" data-class="beam" class="beam"><polygon stroke-opacity="1" fill-opacity="1" points="2210,360 3216,0 3216,90 2210,450"/><polygon stroke-opacity="1" fill-opacity="1" points="2210,495 2548,376 2548,466 2210,585"/><polygon stroke-opacity="1" fill-opacity="1" points="2548,376 2878,255 2878,345 2548,466"/><polygon stroke-opacity="1" fill-opacity="1" points="2878,255 3216,135 3216,225 2878,345"/><g data-id="u1oqarcc" data-class="note" class="note"><g data-class="notehead" class="notehead"><use href="#E0A4-z1ncjrzd" transform="translate(2002, 1890) scale(0.72, 0.72)"/></g><g data-id="vmce3we" data-class="stem" class="stem"><path d="M2219 1862 L2219 378" stroke-width="18"/></g></g><g data-id="v1fyrrbf" data-class="note" class="note"><g data-class="notehead" class="notehead"><use href="#E0A4-z1ncjrzd" transform="translate(2331, 1260) scale(0.72, 0.72)"/></g><g data-id="we20iiu" data-class="stem" class="stem"><path d="M2548 1232 L2548 259" stroke-width="18"/></g></g><g data-id="wfucozg" data-class="note" class="note"><g data-class="notehead" class="notehead"><use href="#E0A4-z1ncjrzd" transform="translate(2661, 900) scale(0.72, 0.72)"/></g><g data-id="x9dcx4q" data-class="stem" class="stem"><path d="M2878 872 L2878 138" stroke-width="18"/></g></g><g data-id="x1t44ppa" data-class="note" class="note"><g data-class="notehead" class="notehead"><use href="#E0A4-z1ncjrzd" transform="translate(2990, 630) scale(0.72, 0.72)"/></g><g data-id="yw2nvwz" data-class="stem" class="stem"><path d="M3207 602 L3207 18" stroke-width="18"/></g></g></g><g data-id="j1jq7ids" data-class="clef" class="clef"><use href="#E07A-z1ncjrzd" transform="translate(3338, 1170) scale(0.72, 0.72)"/></g><g data-id="u1bitg1a" data-class="beam" class="beam"><polygon stroke-opacity="1" fill-opacity="1" points="3998,450 5004,450 5004,540 3998,540"/><polygon stroke-opacity="1" fill-opacity="1" points="3998,585 4336,585 4336,675 3998,675"/><polygon stroke-opacity="1" fill-opacity="1" points="4336,585 4665,585 4665,675 4336,675"/><polygon stroke-opacity="1" fill-opacity="1" points="4665,585 5004,585 5004,675 4665,675"/><g data-id="y1odwfs6" data-class="note" class="note"><g data-class="notehead" class="notehead"><use href="#E0A4-z1ncjrzd" transform="translate(3790, 1530) scale(0.72, 0.72)"/></g><g data-id="z1iyon2m" data-class="stem" class="stem"><path d="M4007 1502 L4007 468" stroke-width="18"/></g><g data-id="ztn65yg" data-class="accid" class="accid"/></g><g data-id="z1w9qb2o" data-class="note" class="note"><g data-class="notehead" class="notehead"><use href="#E0A4-z1ncjrzd" transform="translate(4119, 1350) scale(0.72, 0.72)"/></g><g data-id="a1vzqxv8" data-class="stem" class="stem"><path d="M4336 1322 L4336 468" stroke-width="18"/></g></g><g data-id="aunzbza" data-class="note" class="note"><g data-class="notehead" class="notehead"><use href="#E0A4-z1ncjrzd" transform="translate(4448, 1080) scale(0.72, 0.72)"/></g><g data-id="b20o1r1" data-class="stem" class="stem"><path d="M4665 1052 L4665 468" stroke-width="18"/></g></g><g data-id="b1x2erze" data-class="note" class="note"><g data-class="notehead" class="notehead"><use href="#E0A4-z1ncjrzd" transform="translate(4778, 1350) scale(0.72, 0.72)"/></g><g data-id="cn9yp6w" data-class="stem" class="stem"><path d="M4995 1322 L4995 468" stroke-width="18"/></g></g></g><g data-id="vyt55k4" data-class="beam" class="beam"><polygon stroke-opacity="1" fill-opacity="1" points="5107,1530 5713,1530 5713,1440 5107,1440"/><polygon stroke-opacity="1" fill-opacity="1" points="5487,1395 5713,1395 5713,1305 5487,1305"/><g data-id="c1r8cm5h" data-class="note" class="note"><g data-class="notehead" class="notehead"><use href="#E0A4-z1ncjrzd" transform="translate(5107, 900) scale(0.72, 0.72)"/></g><g data-id="exmj22z" data-class="dots" class="dots"><ellipse cx="5423" cy="900" rx="36" ry="36" fill-opacity="1" stroke-opacity="1"/></g><g data-id="d1ewwz0" data-class="stem" class="stem"><path d="M5116 928 L5116 1512" stroke-width="18"/></g><g data-id="al301ic" data-class="accid" class="accid"/></g><g data-id="dfbw734" data-class="note" class="note"><g data-class="notehead" class="notehead"><use href="#E0A4-z1ncjrzd" transform="translate(5695, 900) scale(0.72, 0.72)"/></g><g data-id="f1u6mye7" data-class="stem" class="stem"><path d="M5704 928 L5704 1512" stroke-width="18"/></g><g data-id="br1czwb" data-class="accid" class="accid"/></g></g></g></g><g data-id="i18aqso7" data-class="barLine" class="barLine"><path d="M6038 630 L6038 1350" stroke-width="27"/></g></g><g data-id="k1exxee" data-class="measure" class="measure"><g data-id="amkgo1e" data-class="staff" class="staff"><path d="M6051 630 L8532 630" stroke-width="13"/><path d="M6051 810 L8532 810" stroke-width="13"/><path d="M6051 990 L8532 990" stroke-width="13"/><path d="M6051 1170 L8532 1170" stroke-width="13"/><path d="M6051 1350 L8532 1350" stroke-width="13"/><g data-id="bpgtujp" data-class="layer" class="layer"><g data-id="e119n36y" data-class="note" class="note"><g data-class="notehead" class="notehead"><use href="#E0A4-z1ncjrzd" transform="translate(6239, 900) scale(0.72, 0.72)"/></g><g data-id="h16na8i3" data-class="dots" class="dots"><ellipse cx="6555" cy="900" rx="36" ry="36" fill-opacity="1" stroke-opacity="1"/></g><g data-id="g1kl34m8" data-class="stem" class="stem"><path d="M6248 928 L6248 1530" stroke-width="18"/></g><g data-id="c13oj1vm" data-class="accid" class="accid"/></g><g data-id="fajiddo" data-class="note" class="note"><g data-class="notehead" class="notehead"><use href="#E0A4-z1ncjrzd" transform="translate(7131, 990) scale(0.72, 0.72)"/></g><g data-id="i13wz6oi" data-class="stem" class="stem"><path d="M7140 1018 L7140 1590" stroke-width="18"/><g data-id="jblvthg" data-class="flag" class="flag"><use href="#E241-z1ncjrzd" transform="translate(7131, 1590) scale(0.72, 0.72)"/></g></g></g><g data-id="w7d9mc9" data-class="beam" class="beam"><polygon stroke-opacity="1" fill-opacity="1" points="7795,630 8401,540 8401,630 7795,720"/><polygon stroke-opacity="1" fill-opacity="1" points="8175,706 8401,675 8401,765 8175,796"/><g data-id="g1gq2ork" data-class="note" class="note"><g data-class="notehead" class="notehead"><use href="#E0A4-z1ncjrzd" transform="translate(7587, 1260) scale(0.72, 0.72)"/></g><g data-id="lbnxknp" data-class="dots" class="dots"><ellipse cx="7903" cy="1260" rx="36" ry="36" fill-opacity="1" stroke-opacity="1"/></g><g data-id="kmje4aq" data-class="stem" class="stem"><path d="M7804 1232 L7804 648" stroke-width="18"/></g><g data-id="d15gfqjq" data-class="accid" class="accid"/></g><g data-id="h1ajymvy" data-class="note" class="note"><g data-class="notehead" class="notehead"><use href="#E0A4-z1ncjrzd" transform="translate(8175, 1170) scale(0.72, 0.72)"/></g><g data-id="m153j4wu" data-class="stem" class="stem"><path d="M8392 1142 L8392 558" stroke-width="18"/></g><g data-id="epd2n8h" data-class="accid" class="accid"/></g></g></g></g><g data-id="s1xhaoop" data-class="barLine" class="barLine"><path d="M8519 630 L8519 1350" stroke-width="27"/></g></g><g data-id="t14ua0wp" data-class="measure" class="measure"><g data-id="c6idza5" data-class="staff" class="staff"><path d="M8532 630 L11063 630" stroke-width="13"/><path d="M8532 810 L11063 810" stroke-width="13"/><path d="M8532 990 L11063 990" stroke-width="13"/><path d="M8532 1170 L11063 1170" stroke-width="13"/><path d="M8532 1350 L11063 1350" stroke-width="13"/><g data-id="d14g9ntk" data-class="layer" class="layer"><g data-id="i1ug0m1s" data-class="note" class="note"><g data-class="notehead" class="notehead"><use href="#E0A4-z1ncjrzd" transform="translate(8720, 1170) scale(0.72, 0.72)"/></g><g data-id="nk7tu5n" data-class="stem" class="stem"><path d="M8937 1142 L8937 540" stroke-width="18"/></g><g data-id="f1rxqii6" data-class="accid" class="accid"/></g><g data-id="j1d510yy" data-class="note" class="note"><g data-class="notehead" class="notehead"><use href="#E0A4-z1ncjrzd" transform="translate(9419, 1080) scale(0.72, 0.72)"/></g><g data-id="o16wzaut" data-class="stem" class="stem"><path d="M9636 1052 L9636 450" stroke-width="18"/></g></g><g data-id="xuxk576" data-class="beam" class="beam"><polygon stroke-opacity="1" fill-opacity="1" points="10118,1350 10724,1350 10724,1260 10118,1260"/><polygon stroke-opacity="1" fill-opacity="1" points="10498,1215 10724,1215 10724,1125 10498,1125"/><g data-id="k17z9rnr" data-class="note" class="note"><g data-class="notehead" class="notehead"><use href="#E0A4-z1ncjrzd" transform="translate(10118, 720) scale(0.72, 0.72)"/></g><g data-id="q1dqo1i7" data-class="dots" class="dots"><ellipse cx="10434" cy="720" rx="36" ry="36" fill-opacity="1" stroke-opacity="1"/></g><g data-id="pwxgrd5" data-class="stem" class="stem"><path d="M10127 748 L10127 1332" stroke-width="18"/></g></g><g data-id="l13p1lzz" data-class="note" class="note"><g data-class="notehead" class="notehead"><use href="#E0A4-z1ncjrzd" transform="translate(10706, 720) scale(0.72, 0.72)"/></g><g data-id="r1y0ot6q" data-class="stem" class="stem"><path d="M10715 748 L10715 1332" stroke-width="18"/></g></g></g></g></g><g data-id="b17ld84u" data-class="barLine" class="barLine"><path d="M11050 630 L11050 1350" stroke-width="27"/></g></g><g data-id="cftr2hq" data-class="measure" class="measure"><g data-id="e5cbpg4" data-class="staff" class="staff"><path d="M11063 630 L14002 630" stroke-width="13"/><path d="M11063 810 L14002 810" stroke-width="13"/><path d="M11063 990 L14002 990" stroke-width="13"/><path d="M11063 1170 L14002 1170" stroke-width="13"/><path d="M11063 1350 L14002 1350" stroke-width="13"/><g data-id="fjywfv7" data-class="layer" class="layer"><g data-id="y18vnmft" data-class="beam" class="beam"><polygon stroke-opacity="1" fill-opacity="1" points="11251,1530 13551,1530 13551,1440 11251,1440"/><g data-id="m7ojxwc" data-class="note" class="note"><g data-class="notehead" class="notehead"><use href="#E0A4-z1ncjrzd" transform="translate(11251, 720) scale(0.72, 0.72)"/></g><g data-id="s9b5nzb" data-class="stem" class="stem"><path d="M11260 748 L11260 1512" stroke-width="18"/></g></g><g data-id="n12p435i" data-class="note" class="note"><g data-class="notehead" class="notehead"><use href="#E0A4-z1ncjrzd" transform="translate(11707, 810) scale(0.72, 0.72)"/></g><g data-id="t1oqz90j" data-class="stem" class="stem"><path d="M11716 838 L11716 1512" stroke-width="18"/></g></g><g data-id="of9sd4c" data-class="note" class="note"><g data-class="notehead" class="notehead"><use href="#E0A4-z1ncjrzd" transform="translate(12164, 900) scale(0.72, 0.72)"/></g><g data-id="u16n0cmx" data-class="stem" class="stem"><path d="M12173 928 L12173 1512" stroke-width="18"/></g><g data-id="g1nju9k7" data-class="accid" class="accid"/></g><g data-id="p1u7c8ro" data-class="note" class="note"><g data-class="notehead" class="notehead"><use href="#E0A4-z1ncjrzd" transform="translate(12620, 810) scale(0.72, 0.72)"/></g><g data-id="vra9bdz" data-class="stem" class="stem"><path d="M12629 838 L12629 1512" stroke-width="18"/></g></g><g data-id="q10bkxye" data-class="note" class="note"><g data-class="notehead" class="notehead"><use href="#E0A4-z1ncjrzd" transform="translate(13076, 720) scale(0.72, 0.72)"/></g><g data-id="wvhhaqf" data-class="stem" class="stem"><path d="M13085 748 L13085 1512" stroke-width="18"/></g></g><g data-id="r1k4w9jq" data-class="note" class="note"><g data-class="notehead" class="notehead"><use href="#E0A4-z1ncjrzd" transform="translate(13533, 630) scale(0.72, 0.72)"/></g><g data-id="x18jmqt9" data-class="stem" class="stem"><path d="M13542 658 L13542 1512" stroke-width="18"/></g><g data-id="haouale" data-class="accid" class="accid"/></g></g></g></g><g data-id="k1dugdjs" data-class="barLine" class="barLine"><path d="M13989 630 L13989 1350" stroke-width="27"/></g></g></g></g></svg></svg>