<svg viewBox="0 0 560 84" version="1.1" xmlns="http://www.w3.org/2000/svg" xmlns:xlink="http://www.w3.org/1999/xlink" overflow="visible" id="c1flhw01"><desc>Engraved by Verovio 5.6.0-85e7620</desc><defs><g id="E050-c1flhw01"><path transform="scale(1,-1)" d="M441 -245c-23 -4 -48 -6 -76 -6c-59 0 -102 7 -130 20c-88 42 -150 93 -187 154c-26 44 -43 103 -48 176c0 6 -1 13 -1 19c0 54 15 111 45 170c29 57 65 106 110 148s96 85 153 127c-3 16 -8 46 -13 92c-4 43 -5 73 -5 89c0 117 16 172 69 257c34 54 64 82 89 82 c21 0 43 -30 69 -92s39 -115 41 -159v-15c0 -109 -21 -162 -67 -241c-13 -20 -63 -90 -98 -118c-13 -9 -25 -19 -37 -29l31 -181c8 1 18 2 28 2c58 0 102 -12 133 -35c59 -43 92 -104 98 -184c1 -7 1 -15 1 -22c0 -123 -87 -209 -181 -248c8 -57 17 -110 25 -162 c5 -31 6 -58 6 -80c0 -30 -5 -53 -14 -70c-35 -64 -88 -99 -158 -103c-5 0 -11 -1 -16 -1c-37 0 -72 10 -108 27c-50 24 -77 59 -80 105v11c0 29 7 55 20 76c18 28 45 42 79 44h6c49 0 93 -42 97 -87v-9c0 -51 -34 -86 -105 -106c17 -24 51 -36 102 -36c62 0 116 43 140 85 c9 16 13 41 13 74c0 20 -1 42 -5 67c-8 53 -18 106 -26 159zM461 939c-95 0 -135 -175 -135 -286c0 -24 2 -48 5 -71c50 39 92 82 127 128c40 53 60 100 60 140v8c-4 53 -22 81 -55 81h-2zM406 119l54 -326c73 25 110 78 110 161c0 7 0 15 -1 23c-7 95 -57 142 -151 142h-12 zM382 117c-72 -2 -128 -47 -128 -120v-7c2 -46 43 -99 75 -115c-3 -2 -7 -5 -10 -10c-70 33 -116 88 -123 172v11c0 68 44 126 88 159c23 17 49 29 78 36l-29 170c-21 -13 -52 -37 -92 -73c-50 -44 -86 -84 -109 -119c-45 -69 -67 -130 -67 -182v-13c5 -68 35 -127 93 -176 s125 -73 203 -73c25 0 50 3 75 9c-19 111 -36 221 -54 331z"/></g><g id="E262-c1flhw01"><path transform="scale(1,-1)" d="M136 186v169h17v-164l44 14v-91l-44 -14v-165l44 12v-91l-44 -13v-155h-17v150l-76 -22v-155h-17v149l-43 -13v90l43 14v167l-43 -14v92l43 13v169h17v-163zM60 73v-167l76 22v168z"/></g><g id="E08B-c1flhw01"><path transform="scale(1,-1)" d="M188 200c-42 -22 -63 -69 -63 -141v-119c0 -39 7 -70 19 -94s26 -40 44 -48v402zM0 -0c0 127 80 220 186 246v72h32l-6 -72c33 0 71 0 101 -11c54 -20 102 -65 102 -135c0 -16 -4 -30 -13 -43s-20 -24 -32 -29l-20 -8l-23 -3c-22 2 -41 8 -55 21s-21 31 -26 51 c0 38 45 80 79 80c12 0 19 3 19 10c0 6 -6 12 -15 18c-19 13 -47 24 -79 24c-10 0 -20 -1 -32 -5v-431c15 -3 12 -4 30 -4c57 0 100 51 121 93l17 39c3 13 5 25 5 35h26c-6 -70 -28 -121 -66 -152s-82 -47 -133 -47v-68h-30v72c-57 10 -122 54 -153 109c-7 12 -13 26 -19 42 c-11 29 -16 61 -16 96z"/></g><g id="E0A2-c1flhw01"><path transform="scale(1,-1)" d="M198 133c102 0 207 -45 207 -133c0 -92 -118 -133 -227 -133c-101 0 -178 46 -178 133c0 88 93 133 198 133zM293 -21c0 14 -3 29 -8 44c-7 20 -18 38 -33 54c-20 21 -43 31 -68 31l-20 -2c-15 -5 -27 -14 -36 -28c-4 -9 -6 -17 -8 -24s-3 -16 -3 -27c0 -15 3 -34 9 -57 s18 -41 34 -55c15 -15 36 -23 62 -23c4 0 10 1 18 2c19 5 32 15 40 30s13 34 13 55z"/></g><g id="E0A3-c1flhw01"><path transform="scale(1,-1)" d="M278 64c0 22 -17 39 -43 39c-12 0 -26 -3 -41 -10c-85 -43 -165 -94 -165 -156c5 -25 15 -32 49 -32c67 11 200 95 200 159zM0 -36c0 68 73 174 200 174c66 0 114 -39 114 -97c0 -84 -106 -173 -218 -173c-64 0 -96 32 -96 96z"/></g><g id="E0A4-c1flhw01"><path transform="scale(1,-1)" d="M0 -39c0 68 73 172 200 172c66 0 114 -37 114 -95c0 -84 -106 -171 -218 -171c-64 0 -96 30 -96 94z"/></g><g id="E0A1-c1flhw01"><path transform="scale(1,-1)" d="M0 165c0 5 6 5 12 5s13 0 13 -5v-40h298v40c0 5 7 5 13 5s12 0 12 -5v-330c0 -5 -6 -5 -12 -5s-13 0 -13 5v40h-298v-40c0 -5 -7 -5 -13 -5s-12 0 -12 5v330zM25 0c0 -29 1 -55 25 -55h248c24 0 25 26 25 55s-1 55 -25 55h-248c-24 0 -25 -26 -25 -55z"/></g></defs><style type="text/css">#c1flhw01 g.page-margin {font-family:Times,serif;}#c1flhw01 g.ending, #c1flhw01 g.fing, #c1flhw01 g.reh, #c1flhw01 g.tempo {font-weight:bold;}#c1flhw01 g.dir, #c1flhw01 g.dynam, #c1flhw01 g.mNum {font-style:italic;}#c1flhw01 g.label {font-weight:normal;}#c1flhw01 path {stroke:currentColor}</style><svg class="definition-scale" color="black" viewBox="0 0 14000 2100"><g class="page-margin" transform="translate(0, 150)"><g data-id="lzzzuvm" data-class="mdiv" class="mdiv pageMilestone"/><g data-id="m18p7s8x" data-class="score" class="score pageMilestone"/><g data-id="l1cpqwv1" data-class="system" class="system"><g data-id="o1aeima9" data-class="section" class="section systemMilestone"/><g data-id="d4gs9tg" data-class="measure" class="measure"><g data-id="a5sctdx" data-class="staff" class="staff"><path d="M0 540 L6348 540" stroke-width="13"/><path d="M0 720 L6348 720" stroke-width="13"/><path d="M0 900 L6348 900" stroke-width="13"/><path d="M0 1080 L6348 1080" stroke-width="13"/><path d="M0 1260 L6348 1260" stroke-width="13"/><g data-id="pjuquw0" data-class="clef" class="clef"><use href="#E050-c1flhw01" transform="translate(90, 1080) scale(0.72, 0.72)"/></g><g data-id="qo0zbhw" data-class="keySig" class="keySig"><g data-id="rdf45zm" data-class="keyAccid" class="keyAccid"><use href="#E262-c1flhw01" transform="translate(735, 540) scale(0.72, 0.72)"/></g><g data-id="s1fny793" data-class="keyAccid" class="keyAccid"><use href="#E262-c1flhw01" transform="translate(913, 810) scale(0.72, 0.72)"/></g><g data-id="t1m2qeq5" data-class="keyAccid" class="keyAccid"><use href="#E262-c1flhw01" transform="translate(1091, 450) scale(0.72, 0.72)"/></g></g><g data-id="u1i55uxj" data-class="meterSig" class="meterSig"><use href="#E08B-c1flhw01" transform="translate(1412, 900) scale(0.72, 0.72)"/></g><g data-id="bhr69qj" data-class="layer" class="layer"><g data-id="waojlo2" data-class="note" class="note"><g data-class="notehead" class="notehead"><use href="#E0A2-c1flhw01" transform="translate(1993, 630) scale(0.72, 0.72)"/></g></g><g data-id="x1b8b3zl" data-class="note" class="note"><g data-class="notehead" class="notehead"><use href="#E0A3-c1flhw01" transform="translate(3900, 810) scale(0.72, 0.72)"/></g><g data-id="z1ii0tnt" data-class="dots" class="dots"><ellipse cx="4216" cy="810" rx="36" ry="36" fill-opacity="1" stroke-opacity="1"/></g><g data-id="ymz8bau" data-class="stem" class="stem"><path d="M3909 835 L3909 1440" stroke-width="18"/></g><g data-id="g1p9w1jn" data-class="accid" class="accid"/></g><g data-id="y1832ri1" data-class="note" class="note"><g data-class="notehead" class="notehead"><use href="#E0A4-c1flhw01" transform="translate(5508, 720) scale(0.72, 0.72)"/></g><g data-id="a17bilki" data-class="stem" class="stem"><path d="M5517 748 L5517 1350" stroke-width="18"/></g></g></g></g><g data-id="l1ht246h" data-class="barLine" class="barLine"><path d="M6335 540 L6335 1260" stroke-width="27"/></g></g><g data-id="m17iyji5" data-class="measure" class="measure"><g data-id="coclrv7" data-class="staff" class="staff"><path d="M6348 540 L10894 540" stroke-width="13"/><path d="M6348 720 L10894 720" stroke-width="13"/><path d="M6348 900 L10894 900" stroke-width="13"/><path d="M6348 1080 L10894 1080" stroke-width="13"/><path d="M6348 1260 L10894 1260" stroke-width="13"/><g data-id="d1cb16xh" data-class="layer" class="layer"><g data-id="zcsuwq9" data-class="note" class="note"><g data-class="notehead" class="notehead"><use href="#E0A2-c1flhw01" transform="translate(6539, 630) scale(0.72, 0.72)"/></g></g><g data-id="az87vci" data-class="note" class="note"><g data-class="notehead" class="notehead"><use href="#E0A3-c1flhw01" transform="translate(8446, 540) scale(0.72, 0.72)"/></g><g data-id="d105sp0z" data-class="dots" class="dots"><ellipse cx="8762" cy="450" rx="36" ry="36" fill-opacity="1" stroke-opacity="1"/></g><g data-id="c19f3max" data-class="stem" class="stem"><path d="M8455 565 L8455 1170" stroke-width="18"/></g><g data-id="h1h1yu2l" data-class="accid" class="accid"/></g><g data-id="bbo6w13" data-class="note" class="note"><g data-class="notehead" class="notehead"><use href="#E0A4-c1flhw01" transform="translate(10054, 450) scale(0.72, 0.72)"/></g><g data-id="etoto1i" data-class="stem" class="stem"><path d="M10063 478 L10063 1080" stroke-width="18"/></g><g data-id="iq9k1n1" data-class="accid" class="accid"/></g></g></g><g data-id="u18qgpjn" data-class="barLine" class="barLine"><path d="M10881 540 L10881 1260" stroke-width="27"/></g></g><g data-id="v1bklejt" data-class="measure" class="measure"><g data-id="e41tizr" data-class="staff" class="staff"><path d="M10894 540 L14001 540" stroke-width="13"/><path d="M10894 720 L14001 720" stroke-width="13"/><path d="M10894 900 L14001 900" stroke-width="13"/><path d="M10894 1080 L14001 1080" stroke-width="13"/><path d="M10894 1260 L14001 1260" stroke-width="13"/><g data-class="ledgerLines" class="ledgerLines above"><g data-class="lineDash" class="lineDash" data-related="#cw44cpj"><path d="M11037 360 L11383 360" stroke-width="22"/></g></g><g data-id="facm9p8" data-class="layer" class="layer"><g data-id="cw44cpj" data-class="note" class="note"><g data-class="notehead" class="notehead"><use href="#E0A1-c1flhw01" transform="translate(11085, 360) scale(0.72, 0.72)"/></g></g></g></g><g data-id="d15s0gsd" data-class="barLine" class="barLine"><path d="M13988 540 L13988 1260" stroke-width="27"/></g></g></g></g></svg></svg>