<svg viewBox="0 0 560 84" version="1.1" xmlns="http://www.w3.org/2000/svg" xmlns:xlink="http://www.w3.org/1999/xlink" overflow="visible" id="jkzr4v7"><desc>Engraved by Verovio 5.6.0-85e7620</desc><defs><g id="E050-jkzr4v7"><path transform="scale(1,-1)" d="M441 -245c-23 -4 -48 -6 -76 -6c-59 0 -102 7 -130 20c-88 42 -150 93 -187 154c-26 44 -43 103 -48 176c0 6 -1 13 -1 19c0 54 15 111 45 170c29 57 65 106 110 148s96 85 153 127c-3 16 -8 46 -13 92c-4 43 -5 73 -5 89c0 117 16 172 69 257c34 54 64 82 89 82 c21 0 43 -30 69 -92s39 -115 41 -159v-15c0 -109 -21 -162 -67 -241c-13 -20 -63 -90 -98 -118c-13 -9 -25 -19 -37 -29l31 -181c8 1 18 2 28 2c58 0 102 -12 133 -35c59 -43 92 -104 98 -184c1 -7 1 -15 1 -22c0 -123 -87 -209 -181 -248c8 -57 17 -110 25 -162 c5 -31 6 -58 6 -80c0 -30 -5 -53 -14 -70c-35 -64 -88 -99 -158 -103c-5 0 -11 -1 -16 -1c-37 0 -72 10 -108 27c-50 24 -77 59 -80 105v11c0 29 7 55 20 76c18 28 45 42 79 44h6c49 0 93 -42 97 -87v-9c0 -51 -34 -86 -105 -106c17 -24 51 -36 102 -36c62 0 116 43 140 85 c9 16 13 41 13 74c0 20 -1 42 -5 67c-8 53 -18 106 -26 159zM461 939c-95 0 -135 -175 -135 -286c0 -24 2 -48 5 -71c50 39 92 82 127 128c40 53 60 100 60 140v8c-4 53 -22 81 -55 81h-2zM406 119l54 -326c73 25 110 78 110 161c0 7 0 15 -1 23c-7 95 -57 142 -151 142h-12 zM382 117c-72 -2 -128 -47 -128 -120v-7c2 -46 43 -99 75 -115c-3 -2 -7 -5 -10 -10c-70 33 -116 88 -123 172v11c0 68 44 126 88 159c23 17 49 29 78 36l-29 170c-21 -13 -52 -37 -92 -73c-50 -44 -86 -84 -109 -119c-45 -69 -67 -130 -67 -182v-13c5 -68 35 -127 93 -176 s125 -73 203 -73c25 0 50 3 75 9c-19 111 -36 221 -54 331z"/></g><g id="E262-jkzr4v7"><path transform="scale(1,-1)" d="M136 186v169h17v-164l44 14v-91l-44 -14v-165l44 12v-91l-44 -13v-155h-17v150l-76 -22v-155h-17v149l-43 -13v90l43 14v167l-43 -14v92l43 13v169h17v-163zM60 73v-167l76 22v168z"/></g><g id="E08B-jkzr4v7"><path transform="scale(1,-1)" d="M188 200c-42 -22 -63 -69 -63 -141v-119c0 -39 7 -70 19 -94s26 -40 44 -48v402zM0 -0c0 127 80 220 186 246v72h32l-6 -72c33 0 71 0 101 -11c54 -20 102 -65 102 -135c0 -16 -4 -30 -13 -43s-20 -24 -32 -29l-20 -8l-23 -3c-22 2 -41 8 -55 21s-21 31 -26 51 c0 38 45 80 79 80c12 0 19 3 19 10c0 6 -6 12 -15 18c-19 13 -47 24 -79 24c-10 0 -20 -1 -32 -5v-431c15 -3 12 -4 30 -4c57 0 100 51 121 93l17 39c3 13 5 25 5 35h26c-6 -70 -28 -121 -66 -152s-82 -47 -133 -47v-68h-30v72c-57 10 -122 54 -153 109c-7 12 -13 26 -19 42 c-11 29 -16 61 -16 96z"/></g><g id="E4E4-jkzr4v7"><path transform="scale(1,-1)" d="M0 10v105c0 9 1 10 10 10h280c9 0 10 -1 10 -10v-105c0 -9 -1 -10 -10 -10h-280c-9 0 -10 1 -10 10z"/></g><g id="E4E5-jkzr4v7"><path transform="scale(1,-1)" d="M107 292c-13 24 -30 49 -52 71c-1 1 0 2 0 3l-2 2c3 3 4 4 6 4c12 0 26 -7 40 -20s44 -40 89 -81c26 -24 28 -29 46 -47c4 -4 8 -9 10 -14c6 -8 8 -16 8 -27c0 -19 -12 -40 -36 -61c-28 -23 -49 -38 -61 -73c-4 -11 -7 -27 -10 -50c13 -43 34 -83 59 -121 c31 -47 59 -79 101 -129c-8 0 -26 7 -54 20l-62 29l-21 6l-23 1c-25 0 -45 -10 -60 -30l-4 -14l-1 -12c0 -33 20 -56 39 -78c8 -9 17 -18 26 -26c17 -15 27 -24 28 -30l-3 -3c-11 5 -19 10 -25 15c-9 3 -37 21 -45 26c-24 14 -45 32 -63 51c-19 21 -37 44 -37 71 c0 63 27 95 80 95c41 0 86 -18 136 -52c-19 26 -37 48 -55 66c-23 23 -48 44 -73 65c-28 23 -47 40 -58 53s-17 26 -18 39c75 64 113 125 113 183c0 27 -7 48 -18 68z"/></g><g id="E0A4-jkzr4v7"><path transform="scale(1,-1)" d="M0 -39c0 68 73 172 200 172c66 0 114 -37 114 -95c0 -84 -106 -171 -218 -171c-64 0 -96 30 -96 94z"/></g><g id="E044-jkzr4v7"><path transform="scale(1,-1)" d="M0 0c0 28 22 50 50 50s50 -22 50 -50s-22 -50 -50 -50s-50 22 -50 50z"/></g><g id="E0A3-jkzr4v7"><path transform="scale(1,-1)" d="M278 64c0 22 -17 39 -43 39c-12 0 -26 -3 -41 -10c-85 -43 -165 -94 -165 -156c5 -25 15 -32 49 -32c67 11 200 95 200 159zM0 -36c0 68 73 174 200 174c66 0 114 -39 114 -97c0 -84 -106 -173 -218 -173c-64 0 -96 32 -96 96z"/></g><g id="E240-jkzr4v7"><path transform="scale(1,-1)" d="M179 -646c15 29 29 55 46 102c18 49 30 108 30 138c0 105 -80 173 -168 200c-18 5 -47 9 -87 16v190h22c8 0 33 -61 71 -95c4 -3 -2 3 61 -56c62 -58 122 -137 122 -241c0 -38 -13 -106 -35 -163c-20 -51 -43 -99 -66 -132c-6 -5 -10 -7 -13 -7s-5 2 -5 5l4 10 c1 3 14 25 18 33z"/></g><g id="E241-jkzr4v7"><path transform="scale(1,-1)" d="M179 646c-4 8 -17 30 -18 33l-4 10c0 3 2 5 5 5s7 -2 13 -7c23 -33 46 -81 66 -132c22 -57 35 -125 35 -163c0 -104 -60 -183 -122 -241c-63 -59 -57 -53 -61 -56c-38 -34 -63 -95 -71 -95h-22v190c40 7 69 11 87 16c88 27 168 95 168 200c0 30 -12 89 -30 138 c-17 47 -31 73 -46 102z"/></g></defs><style type="text/css">#jkzr4v7 g.page-margin {font-family:Times,serif;}#jkzr4v7 g.ending, #jkzr4v7 g.fing, #jkzr4v7 g.reh, #jkzr4v7 g.tempo {font-weight:bold;}#jkzr4v7 g.dir, #jkzr4v7 g.dynam, #jkzr4v7 g.mNum {font-style:italic;}#jkzr4v7 g.label {font-weight:normal;}#jkzr4v7 path {stroke:currentColor}</style><svg class="definition-scale" color="black" viewBox="0 0 14000 2100"><g class="page-margin" transform="translate(0, 150)"><g data-id="y1xnak89" data-class="mdiv" class="mdiv pageMilestone"/><g data-id="z1ifa72p" data-class="score" class="score pageMilestone"/><g data-id="titfniq" data-class="system" class="system"><g data-id="b68wswa" data-class="section" class="section systemMilestone"/><g data-id="k152im6h" data-class="measure" class="measure"><g data-id="nfjj3iy" data-class="staff" class="staff"><path d="M0 540 L4364 540" stroke-width="13"/><path d="M0 720 L4364 720" stroke-width="13"/><path d="M0 900 L4364 900" stroke-width="13"/><path d="M0 1080 L4364 1080" stroke-width="13"/><path d="M0 1260 L4364 1260" stroke-width="13"/><g data-id="p17bvj8b" data-class="clef" class="clef"><use href="#E050-jkzr4v7" transform="translate(90, 1080) scale(0.72, 0.72)"/></g><g data-id="q1lzrxie" data-class="keySig" class="keySig"><g data-id="r1xitkcd" data-class="keyAccid" class="keyAccid"><use href="#E262-jkzr4v7" transform="translate(735, 540) scale(0.72, 0.72)"/></g></g><g data-id="s5tlh0h" data-class="meterSig" class="meterSig"><use href="#E08B-jkzr4v7" transform="translate(1056, 900) scale(0.72, 0.72)"/></g><g data-class="ledgerLines" class="ledgerLines below"><g data-class="lineDash" class="lineDash" data-related="#g1gcbq8y"><path d="M3533 1440 L3855 1440" stroke-width="22"/></g></g><g data-id="o11phjev" data-class="layer" class="layer"><g data-id="devxwim" data-class="rest" class="rest"><use href="#E4E4-jkzr4v7" transform="translate(1637, 900) scale(0.72, 0.72)"/><g data-class="ledgerLines" class="ledgerLines"/></g><g data-id="exuhvmy" data-class="rest" class="rest"><use href="#E4E5-jkzr4v7" transform="translate(2810, 900) scale(0.72, 0.72)"/></g><g data-id="g1gcbq8y" data-class="note" class="note"><g data-class="notehead" class="notehead"><use href="#E0A4-jkzr4v7" transform="translate(3581, 1530) scale(0.72, 0.72)"/></g><g data-id="i6drwsd" data-class="stem" class="stem"><path d="M3798 1502 L3798 900" stroke-width="18"/></g></g></g></g><g data-id="s14fn7ic" data-class="barLine" class="barLine"><path d="M4351 540 L4351 1260" stroke-width="27"/></g></g><g data-id="t1b5en2x" data-class="measure" class="measure"><g data-id="p1tcupn0" data-class="staff" class="staff"><path d="M4364 540 L7885 540" stroke-width="13"/><path d="M4364 720 L7885 720" stroke-width="13"/><path d="M4364 900 L7885 900" stroke-width="13"/><path d="M4364 1080 L7885 1080" stroke-width="13"/><path d="M4364 1260 L7885 1260" stroke-width="13"/><g data-id="q3791xr" data-class="layer" class="layer"><g data-id="h11ht948" data-class="note" class="note"><g data-class="notehead" class="notehead"><use href="#E0A4-jkzr4v7" transform="translate(4555, 1260) scale(0.72, 0.72)"/></g><g data-id="jpuvath" data-class="stem" class="stem"><path d="M4772 1232 L4772 630" stroke-width="18"/></g></g><g data-id="i1vantfr" data-class="note" class="note"><g data-class="notehead" class="notehead"><use href="#E0A4-jkzr4v7" transform="translate(5326, 1080) scale(0.72, 0.72)"/></g><g data-id="k15v4gqq" data-class="stem" class="stem"><path d="M5543 1052 L5543 450" stroke-width="18"/></g></g><g data-id="j1dthxiw" data-class="note" class="note"><g data-class="notehead" class="notehead"><use href="#E0A4-jkzr4v7" transform="translate(6096, 900) scale(0.72, 0.72)"/></g><g data-id="lmlwlt4" data-class="stem" class="stem"><path d="M6105 928 L6105 1500" stroke-width="18"/></g></g><g data-id="k14lem7w" data-class="note" class="note"><g data-class="notehead" class="notehead"><use href="#E0A4-jkzr4v7" transform="translate(6866, 630) scale(0.72, 0.72)"/></g><g data-id="mn9ufjx" data-class="stem" class="stem"><path d="M6875 658 L6875 1260" stroke-width="18"/></g></g></g></g><g data-id="br6s7dn" data-class="barLine" class="barLine"><path d="M7637 540 L7637 1260" stroke-width="90"/><path d="M7767 540 L7767 1260" stroke-width="27"/><use href="#E044-jkzr4v7" transform="translate(7813, 810) scale(0.72, 0.72)"/><use href="#E044-jkzr4v7" transform="translate(7813, 990) scale(0.72, 0.72)"/></g></g><g data-id="cqi8kup" data-class="measure" class="measure"><g data-id="rogxf3a" data-class="staff" class="staff"><path d="M7885 540 L10803 540" stroke-width="13"/><path d="M7885 720 L10803 720" stroke-width="13"/><path d="M7885 900 L10803 900" stroke-width="13"/><path d="M7885 1080 L10803 1080" stroke-width="13"/><path d="M7885 1260 L10803 1260" stroke-width="13"/><g data-id="skgc05w" data-class="layer" class="layer"><g data-id="l8m9ye8" data-class="note" class="note"><g data-class="notehead" class="notehead"><use href="#E0A3-jkzr4v7" transform="translate(8076, 450) scale(0.72, 0.72)"/></g><g data-id="n1ckb329" data-class="stem" class="stem"><path d="M8085 475 L8085 1080" stroke-width="18"/></g></g><g data-id="m1g6qv1d" data-class="note" class="note"><g data-class="notehead" class="notehead"><use href="#E0A4-jkzr4v7" transform="translate(9249, 540) scale(0.72, 0.72)"/></g><g data-id="ovmhqu3" data-class="stem" class="stem"><path d="M9258 568 L9258 1170" stroke-width="18"/></g><g data-id="u15u48v4" data-class="accid" class="accid"/></g><g data-id="n15oazvh" data-class="note" class="note"><g data-class="notehead" class="notehead"><use href="#E0A4-jkzr4v7" transform="translate(10020, 630) scale(0.72, 0.72)"/></g><g data-id="p1ozj0ds" data-class="stem" class="stem"><path d="M10029 658 L10029 1260" stroke-width="18"/></g></g></g></g><g data-id="ki7ft0s" data-class="barLine" class="barLine"><path d="M10790 540 L10790 1260" stroke-width="27"/></g></g><g data-id="lyik9g1" data-class="measure" class="measure"><g data-id="t3ihe7f" data-class="staff" class="staff"><path d="M10803 540 L14002 540" stroke-width="13"/><path d="M10803 720 L14002 720" stroke-width="13"/><path d="M10803 900 L14002 900" stroke-width="13"/><path d="M10803 1080 L14002 1080" stroke-width="13"/><path d="M10803 1260 L14002 1260" stroke-width="13"/><g data-id="u1kqxrg3" data-class="layer" class="layer"><g data-id="o3kywkx" data-class="note" class="note"><g data-class="notehead" class="notehead"><use href="#E0A4-jkzr4v7" transform="translate(10994, 1170) scale(0.72, 0.72)"/></g><g data-id="r1mz5y8d" data-class="dots" class="dots"><ellipse cx="11310" cy="1170" rx="36" ry="36" fill-opacity="1" stroke-opacity="1"/></g><g data-id="q1ely63s" data-class="stem" class="stem"><path d="M11211 1142 L11211 540" stroke-width="18"/></g><g data-id="vre0ngb" data-class="accid" class="accid"/></g><g data-id="p1dwmj9g" data-class="note" class="note"><g data-class="notehead" class="notehead"><use href="#E0A4-jkzr4v7" transform="translate(11978, 1170) scale(0.72, 0.72)"/></g><g data-id="sps6wwz" data-class="stem" class="stem"><path d="M12195 1142 L12195 540" stroke-width="18"/><g data-id="t1u1uc5r" data-class="flag" class="flag"><use href="#E240-jkzr4v7" transform="translate(12186, 540) scale(0.72, 0.72)"/></g></g><g data-id="wm0zq3a" data-class="accid" class="accid"/></g><g data-id="q3yri9o" data-class="note" class="note"><g data-class="notehead" class="notehead"><use href="#E0A4-jkzr4v7" transform="translate(12503, 900) scale(0.72, 0.72)"/></g><g data-id="vsxzwoc" data-class="dots" class="dots"><ellipse cx="12819" cy="810" rx="36" ry="36" fill-opacity="1" stroke-opacity="1"/></g><g data-id="u6fy32l" data-class="stem" class="stem"><path d="M12512 928 L12512 1500" stroke-width="18"/></g></g><g data-id="re28lk" data-class="note" class="note"><g data-class="notehead" class="notehead"><use href="#E0A4-jkzr4v7" transform="translate(13487, 900) scale(0.72, 0.72)"/></g><g data-id="wh5l29q" data-class="stem" class="stem"><path d="M13496 928 L13496 1500" stroke-width="18"/><g data-id="xgi4a6x" data-class="flag" class="flag"><use href="#E241-jkzr4v7" transform="translate(13487, 1500) scale(0.72, 0.72)"/></g></g></g></g></g><g data-id="ti220un" data-class="barLine" class="barLine"><path d="M13989 540 L13989 1260" stroke-width="27"/></g></g></g></g></svg></svg>