<svg viewBox="0 0 560 84" version="1.1" xmlns="http://www.w3.org/2000/svg" xmlns:xlink="http://www.w3.org/1999/xlink" overflow="visible" id="c1xdyop"><desc>Engraved by Verovio 5.6.0-85e7620</desc><defs><g id="E050-c1xdyop"><path transform="scale(1,-1)" d="M441 -245c-23 -4 -48 -6 -76 -6c-59 0 -102 7 -130 20c-88 42 -150 93 -187 154c-26 44 -43 103 -48 176c0 6 -1 13 -1 19c0 54 15 111 45 170c29 57 65 106 110 148s96 85 153 127c-3 16 -8 46 -13 92c-4 43 -5 73 -5 89c0 117 16 172 69 257c34 54 64 82 89 82 c21 0 43 -30 69 -92s39 -115 41 -159v-15c0 -109 -21 -162 -67 -241c-13 -20 -63 -90 -98 -118c-13 -9 -25 -19 -37 -29l31 -181c8 1 18 2 28 2c58 0 102 -12 133 -35c59 -43 92 -104 98 -184c1 -7 1 -15 1 -22c0 -123 -87 -209 -181 -248c8 -57 17 -110 25 -162 c5 -31 6 -58 6 -80c0 -30 -5 -53 -14 -70c-35 -64 -88 -99 -158 -103c-5 0 -11 -1 -16 -1c-37 0 -72 10 -108 27c-50 24 -77 59 -80 105v11c0 29 7 55 20 76c18 28 45 42 79 44h6c49 0 93 -42 97 -87v-9c0 -51 -34 -86 -105 -106c17 -24 51 -36 102 -36c62 0 116 43 140 85 c9 16 13 41 13 74c0 20 -1 42 -5 67c-8 53 -18 106 -26 159zM461 939c-95 0 -135 -175 -135 -286c0 -24 2 -48 5 -71c50 39 92 82 127 128c40 53 60 100 60 140v8c-4 53 -22 81 -55 81h-2zM406 119l54 -326c73 25 110 78 110 161c0 7 0 15 -1 23c-7 95 -57 142 -151 142h-12 zM382 117c-72 -2 -128 -47 -128 -120v-7c2 -46 43 -99 75 -115c-3 -2 -7 -5 -10 -10c-70 33 -116 88 -123 172v11c0 68 44 126 88 159c23 17 49 29 78 36l-29 170c-21 -13 -52 -37 -92 -73c-50 -44 -86 -84 -109 -119c-45 -69 -67 -130 -67 -182v-13c5 -68 35 -127 93 -176 s125 -73 203 -73c25 0 50 3 75 9c-19 111 -36 221 -54 331z"/></g><g id="E260-c1xdyop"><path transform="scale(1,-1)" d="M20 110c32 16 54 27 93 27c26 0 35 -3 54 -13c13 -7 24 -20 27 -38l4 -25c0 -28 -16 -57 -45 -89c-23 -25 -39 -44 -65 -68l-88 -79v644h20v-359zM90 106c-32 0 -48 -10 -70 -29v-194c31 31 54 59 71 84c21 32 32 59 32 84c0 9 1 16 1 20c0 14 -3 21 -11 30l-8 3z"/></g><g id="E082-c1xdyop"><path transform="scale(1,-1)" d="M124 -185c-18 0 -55 -14 -65 -65h-36l-3 30c0 25 6 45 18 63c11 19 22 30 39 43l121 82l37 29c15 11 27 29 38 54c12 24 18 47 18 70c0 40 -19 88 -94 88c-25 0 -32 0 -50 -8c-14 -5 -23 -12 -26 -22c3 -9 7 -15 10 -18l24 -17c12 -7 17 -11 27 -21c5 -7 7 -16 7 -27 c0 -12 0 -57 -79 -74c-30 0 -76 26 -76 94c0 66 81 135 197 135c72 0 181 -32 181 -150c0 -53 -32 -95 -113 -133l-91 -41c-26 -11 -45 -23 -57 -37l49 7c84 0 115 -41 148 -41c20 0 33 20 39 61h35c0 -152 -68 -168 -114 -168c-17 0 -65 0 -79 7h10l-28 17 c-49 37 -69 40 -87 42z"/></g><g id="E084-c1xdyop"><path transform="scale(1,-1)" d="M20 -78c84 97 114 180 134 329h170c-13 -32 -82 -132 -99 -151l-84 -97c-33 -36 -59 -63 -80 -81h162v102l127 123v-225h57v-39h-57v-34c0 -43 19 -65 57 -65v-34h-244v36c48 0 60 26 60 70v27h-203v39z"/></g><g id="E0A4-c1xdyop"><path transform="scale(1,-1)" d="M0 -39c0 68 73 172 200 172c66 0 114 -37 114 -95c0 -84 -106 -171 -218 -171c-64 0 -96 30 -96 94z"/></g><g id="E240-c1xdyop"><path transform="scale(1,-1)" d="M179 -646c15 29 29 55 46 102c18 49 30 108 30 138c0 105 -80 173 -168 200c-18 5 -47 9 -87 16v190h22c8 0 33 -61 71 -95c4 -3 -2 3 61 -56c62 -58 122 -137 122 -241c0 -38 -13 -106 -35 -163c-20 -51 -43 -99 -66 -132c-6 -5 -10 -7 -13 -7s-5 2 -5 5l4 10 c1 3 14 25 18 33z"/></g><g id="E241-c1xdyop"><path transform="scale(1,-1)" d="M179 646c-4 8 -17 30 -18 33l-4 10c0 3 2 5 5 5s7 -2 13 -7c23 -33 46 -81 66 -132c22 -57 35 -125 35 -163c0 -104 -60 -183 -122 -241c-63 -59 -57 -53 -61 -56c-38 -34 -63 -95 -71 -95h-22v190c40 7 69 11 87 16c88 27 168 95 168 200c0 30 -12 89 -30 138 c-17 47 -31 73 -46 102z"/></g><g id="E242-c1xdyop"><path transform="scale(1,-1)" d="M206 -748c32 48 49 100 49 149c0 89 -55 168 -168 203c-18 5 -47 9 -87 16v190v190h22c8 0 33 -61 71 -95c4 -3 -2 3 61 -56c62 -58 122 -137 122 -241c0 -32 -7 -65 -17 -96c11 -29 17 -60 17 -94c0 -71 -32 -148 -67 -190c-6 -5 -10 -7 -13 -7s-5 2 -5 5l4 10 c1 3 6 8 11 16zM248 -463c4 18 7 38 7 57c0 105 -80 173 -168 200c-11 3 -27 6 -47 9c9 -17 23 -61 53 -88c4 -3 -2 3 61 -56c36 -33 71 -74 94 -122z"/></g><g id="E4E6-c1xdyop"><path transform="scale(1,-1)" d="M0 123c7 34 33 56 69 60c29 -3 43 -9 53 -29c4 -8 7 -15 10 -22c0 -21 -1 -25 -11 -35c-5 -8 -18 -14 -40 -20l12 -3l15 -1c44 0 97 26 122 56c10 11 18 26 24 42c7 1 15 2 22 3l-140 -424h-36l111 330c-10 -6 -27 -12 -53 -16l-52 -8h-10l-20 1c-1 0 -8 3 -21 6 c-37 9 -55 28 -55 60z"/></g></defs><style type="text/css">#c1xdyop g.page-margin {font-family:Times,serif;}#c1xdyop g.ending, #c1xdyop g.fing, #c1xdyop g.reh, #c1xdyop g.tempo {font-weight:bold;}#c1xdyop g.dir, #c1xdyop g.dynam, #c1xdyop g.mNum {font-style:italic;}#c1xdyop g.label {font-weight:normal;}#c1xdyop path {stroke:currentColor}</style><svg class="definition-scale" color="black" viewBox="0 0 14000 2100"><g class="page-margin" transform="translate(0, 150)"><g data-id="r4h8sc5" data-class="mdiv" class="mdiv pageMilestone"/><g data-id="s2omehm" data-class="score" class="score pageMilestone"/><g data-id="h1iik11m" data-class="system" class="system"><g data-id="u1a3vcbz" data-class="section" class="section systemMilestone"/><g data-id="dmikiow" data-class="measure" class="measure"><g data-id="g1b6j7g0" data-class="staff" class="staff"><path d="M0 540 L2319 540" stroke-width="13"/><path d="M0 720 L2319 720" stroke-width="13"/><path d="M0 900 L2319 900" stroke-width="13"/><path d="M0 1080 L2319 1080" stroke-width="13"/><path d="M0 1260 L2319 1260" stroke-width="13"/><g data-id="n3klivu" data-class="clef" class="clef"><use href="#E050-c1xdyop" transform="translate(90, 1080) scale(0.72, 0.72)"/></g><g data-id="o17oz4vo" data-class="keySig" class="keySig"><g data-id="p1vl4x6a" data-class="keyAccid" class="keyAccid"><use href="#E260-c1xdyop" transform="translate(735, 900) scale(0.72, 0.72)"/></g><g data-id="q15l9lgu" data-class="keyAccid" class="keyAccid"><use href="#E260-c1xdyop" transform="translate(915, 630) scale(0.72, 0.72)"/></g></g><g data-id="r1qmqp3l" data-class="meterSig" class="meterSig"><use href="#E082-c1xdyop" transform="translate(1223, 720) scale(0.72, 0.72)"/><use href="#E084-c1xdyop" transform="translate(1228, 1080) scale(0.72, 0.72)"/></g><g data-id="h5azu4k" data-class="layer" class="layer"><g data-id="x1qx7xg2" data-class="note" class="note"><g data-class="notehead" class="notehead"><use href="#E0A4-c1xdyop" transform="translate(1796, 1350) scale(0.72, 0.72)"/></g><g data-id="cp05vzq" data-class="stem" class="stem"><path d="M2013 1322 L2013 720" stroke-width="18"/><g data-id="d1g3cppq" data-class="flag" class="flag"><use href="#E240-c1xdyop" transform="translate(2004, 720) scale(0.72, 0.72)"/></g></g></g></g></g><g data-id="lir32i8" data-class="barLine" class="barLine"><path d="M2306 540 L2306 1260" stroke-width="27"/></g></g><g data-id="m10ty7a4" data-class="measure" class="measure"><g data-id="i1uf4lxp" data-class="staff" class="staff"><path d="M2319 540 L4554 540" stroke-width="13"/><path d="M2319 720 L4554 720" stroke-width="13"/><path d="M2319 900 L4554 900" stroke-width="13"/><path d="M2319 1080 L4554 1080" stroke-width="13"/><path d="M2319 1260 L4554 1260" stroke-width="13"/><g data-id="jzuhs8b" data-class="layer" class="layer"><g data-id="y1fkqsb3" data-class="note" class="note"><g data-class="notehead" class="notehead"><use href="#E0A4-c1xdyop" transform="translate(2499, 720) scale(0.72, 0.72)"/></g><g data-id="e17278xb" data-class="stem" class="stem"><path d="M2508 748 L2508 1350" stroke-width="18"/><g data-id="f1xzjmj2" data-class="flag" class="flag"><use href="#E241-c1xdyop" transform="translate(2499, 1350) scale(0.72, 0.72)"/></g></g></g><g data-id="z1wz9tpn" data-class="note" class="note"><g data-class="notehead" class="notehead"><use href="#E0A4-c1xdyop" transform="translate(2949, 900) scale(0.72, 0.72)"/></g><g data-id="g107x9dh" data-class="stem" class="stem"><path d="M2958 928 L2958 1500" stroke-width="18"/><g data-id="hub3fnt" data-class="flag" class="flag"><use href="#E241-c1xdyop" transform="translate(2949, 1500) scale(0.72, 0.72)"/></g></g><g data-id="ndqw1mk" data-class="accid" class="accid"/></g><g data-id="a11k717x" data-class="note" class="note"><g data-class="notehead" class="notehead"><use href="#E0A4-c1xdyop" transform="translate(3399, 990) scale(0.72, 0.72)"/></g><g data-id="idu7v7p" data-class="stem" class="stem"><path d="M3616 962 L3616 360" stroke-width="18"/><g data-id="jyy25b3" data-class="flag" class="flag"><use href="#E240-c1xdyop" transform="translate(3607, 360) scale(0.72, 0.72)"/></g></g></g><g data-id="m1u8175y" data-class="beam" class="beam"><polygon stroke-opacity="1" fill-opacity="1" points="4103,225 4437,270 4437,360 4103,315"/><polygon stroke-opacity="1" fill-opacity="1" points="4103,360 4437,405 4437,495 4103,450"/><g data-id="biwpjv" data-class="note" class="note"><g data-class="notehead" class="notehead"><use href="#E0A4-c1xdyop" transform="translate(3895, 900) scale(0.72, 0.72)"/></g><g data-id="k88rir3" data-class="stem" class="stem"><path d="M4112 872 L4112 243" stroke-width="18"/></g><g data-id="oe5uba1" data-class="accid" class="accid"/></g><g data-id="c4w07fq" data-class="note" class="note"><g data-class="notehead" class="notehead"><use href="#E0A4-c1xdyop" transform="translate(4211, 990) scale(0.72, 0.72)"/></g><g data-id="l1t1xx65" data-class="stem" class="stem"><path d="M4428 962 L4428 288" stroke-width="18"/></g></g></g></g></g><g data-id="ucrq7c5" data-class="barLine" class="barLine"><path d="M4541 540 L4541 1260" stroke-width="27"/></g></g><g data-id="v1fciqqk" data-class="measure" class="measure"><g data-id="ks4ct10" data-class="staff" class="staff"><path d="M4554 540 L6397 540" stroke-width="13"/><path d="M4554 720 L6397 720" stroke-width="13"/><path d="M4554 900 L6397 900" stroke-width="13"/><path d="M4554 1080 L6397 1080" stroke-width="13"/><path d="M4554 1260 L6397 1260" stroke-width="13"/><g data-id="l1bdsjht" data-class="layer" class="layer"><g data-id="d1uzdkxi" data-class="note" class="note"><g data-class="notehead" class="notehead"><use href="#E0A4-c1xdyop" transform="translate(4734, 1080) scale(0.72, 0.72)"/></g><g data-id="m3v27fo" data-class="stem" class="stem"><path d="M4951 1052 L4951 450" stroke-width="18"/></g></g><g data-id="e1lgr3m2" data-class="note" class="note"><g data-class="notehead" class="notehead"><use href="#E0A4-c1xdyop" transform="translate(5424, 1350) scale(0.72, 0.72)"/></g><g data-id="n1x94x7y" data-class="stem" class="stem"><path d="M5641 1322 L5641 720" stroke-width="18"/><g data-id="ocq46v1" data-class="flag" class="flag"><use href="#E240-c1xdyop" transform="translate(5632, 720) scale(0.72, 0.72)"/></g></g></g><g data-id="fswtvub" data-class="note" class="note"><g data-class="notehead" class="notehead"><use href="#E0A4-c1xdyop" transform="translate(5874, 1350) scale(0.72, 0.72)"/></g><g data-id="p9qm8x4" data-class="stem" class="stem"><path d="M6091 1322 L6091 720" stroke-width="18"/><g data-id="q1sgika1" data-class="flag" class="flag"><use href="#E240-c1xdyop" transform="translate(6082, 720) scale(0.72, 0.72)"/></g></g></g></g></g><g data-id="de659pw" data-class="barLine" class="barLine"><path d="M6384 540 L6384 1260" stroke-width="27"/></g></g><g data-id="errxioq" data-class="measure" class="measure"><g data-id="m17bpmaf" data-class="staff" class="staff"><path d="M6397 540 L8586 540" stroke-width="13"/><path d="M6397 720 L8586 720" stroke-width="13"/><path d="M6397 900 L8586 900" stroke-width="13"/><path d="M6397 1080 L8586 1080" stroke-width="13"/><path d="M6397 1260 L8586 1260" stroke-width="13"/><g data-id="nbi9zki" data-class="layer" class="layer"><g data-id="gpj9pqp" data-class="note" class="note"><g data-class="notehead" class="notehead"><use href="#E0A4-c1xdyop" transform="translate(6577, 1080) scale(0.72, 0.72)"/></g><g data-id="s1eumm1f" data-class="dots" class="dots"><ellipse cx="7051" cy="990" rx="36" ry="36" fill-opacity="1" stroke-opacity="1"/></g><g data-id="r2nmv5n" data-class="stem" class="stem"><path d="M6794 1052 L6794 450" stroke-width="18"/><g data-id="to69zdr" data-class="flag" class="flag"><use href="#E240-c1xdyop" transform="translate(6785, 450) scale(0.72, 0.72)"/></g></g></g><g data-id="hkxsdsh" data-class="note" class="note"><g data-class="notehead" class="notehead"><use href="#E0A4-c1xdyop" transform="translate(7177, 990) scale(0.72, 0.72)"/></g><g data-id="u1smpw1r" data-class="stem" class="stem"><path d="M7394 962 L7394 360" stroke-width="18"/><g data-id="vo6kni" data-class="flag" class="flag"><use href="#E242-c1xdyop" transform="translate(7385, 360) scale(0.72, 0.72)"/></g></g></g><g data-id="i167o5ts" data-class="note" class="note"><g data-class="notehead" class="notehead"><use href="#E0A4-c1xdyop" transform="translate(7673, 900) scale(0.72, 0.72)"/></g><g data-id="wlprmlq" data-class="stem" class="stem"><path d="M7682 928 L7682 1500" stroke-width="18"/><g data-id="x1rogbuh" data-class="flag" class="flag"><use href="#E241-c1xdyop" transform="translate(7673, 1500) scale(0.72, 0.72)"/></g></g><g data-id="p1vjl4sg" data-class="accid" class="accid"/></g><g data-id="j1k9fkt3" data-class="note" class="note"><g data-class="notehead" class="notehead"><use href="#E0A4-c1xdyop" transform="translate(8123, 810) scale(0.72, 0.72)"/></g><g data-id="y1y2s90y" data-class="stem" class="stem"><path d="M8132 838 L8132 1440" stroke-width="18"/><g data-id="zpjmcnz" data-class="flag" class="flag"><use href="#E241-c1xdyop" transform="translate(8123, 1440) scale(0.72, 0.72)"/></g></g></g></g></g><g data-id="m1l346vw" data-class="barLine" class="barLine"><path d="M8573 540 L8573 1260" stroke-width="27"/></g></g><g data-id="namidbs" data-class="measure" class="measure"><g data-id="os9xfnj" data-class="staff" class="staff"><path d="M8586 540 L10369 540" stroke-width="13"/><path d="M8586 720 L10369 720" stroke-width="13"/><path d="M8586 900 L10369 900" stroke-width="13"/><path d="M8586 1080 L10369 1080" stroke-width="13"/><path d="M8586 1260 L10369 1260" stroke-width="13"/><g data-id="pb0v3ad" data-class="layer" class="layer"><g data-id="k1ex42oh" data-class="note" class="note"><g data-class="notehead" class="notehead"><use href="#E0A4-c1xdyop" transform="translate(8766, 720) scale(0.72, 0.72)"/></g><g data-id="a1d4rij7" data-class="stem" class="stem"><path d="M8775 748 L8775 1350" stroke-width="18"/></g></g><g data-id="w10bo0fm" data-class="rest" class="rest"><use href="#E4E6-c1xdyop" transform="translate(9456, 900) scale(0.72, 0.72)"/></g><g data-id="llbre7l" data-class="note" class="note"><g data-class="notehead" class="notehead"><use href="#E0A4-c1xdyop" transform="translate(9906, 720) scale(0.72, 0.72)"/></g><g data-id="bwdszkw" data-class="stem" class="stem"><path d="M9915 748 L9915 1350" stroke-width="18"/><g data-id="ck0oagf" data-class="flag" class="flag"><use href="#E241-c1xdyop" transform="translate(9906, 1350) scale(0.72, 0.72)"/></g></g></g></g></g><g data-id="v180m418" data-class="barLine" class="barLine"><path d="M10356 540 L10356 1260" stroke-width="27"/></g></g><g data-id="x8sv045" data-class="systemMilestoneEnd" class="systemMilestoneEnd u1a3vcbz"/></g><g data-id="y1m5agxm" data-class="pageMilestoneEnd" class="pageMilestoneEnd s2omehm"/><g data-id="z194hlm9" data-class="pageMilestoneEnd" class="pageMilestoneEnd r4h8sc5"/></g></svg></svg>