<svg viewBox="0 0 560 84" version="1.1" xmlns="http://www.w3.org/2000/svg" xmlns:xlink="http://www.w3.org/1999/xlink" overflow="visible" id="hu0hphg"><desc>Engraved by Verovio 5.6.0-85e7620</desc><defs><g id="E050-hu0hphg"><path transform="scale(1,-1)" d="M441 -245c-23 -4 -48 -6 -76 -6c-59 0 -102 7 -130 20c-88 42 -150 93 -187 154c-26 44 -43 103 -48 176c0 6 -1 13 -1 19c0 54 15 111 45 170c29 57 65 106 110 148s96 85 153 127c-3 16 -8 46 -13 92c-4 43 -5 73 -5 89c0 117 16 172 69 257c34 54 64 82 89 82 c21 0 43 -30 69 -92s39 -115 41 -159v-15c0 -109 -21 -162 -67 -241c-13 -20 -63 -90 -98 -118c-13 -9 -25 -19 -37 -29l31 -181c8 1 18 2 28 2c58 0 102 -12 133 -35c59 -43 92 -104 98 -184c1 -7 1 -15 1 -22c0 -123 -87 -209 -181 -248c8 -57 17 -110 25 -162 c5 -31 6 -58 6 -80c0 -30 -5 -53 -14 -70c-35 -64 -88 -99 -158 -103c-5 0 -11 -1 -16 -1c-37 0 -72 10 -108 27c-50 24 -77 59 -80 105v11c0 29 7 55 20 76c18 28 45 42 79 44h6c49 0 93 -42 97 -87v-9c0 -51 -34 -86 -105 -106c17 -24 51 -36 102 -36c62 0 116 43 140 85 c9 16 13 41 13 74c0 20 -1 42 -5 67c-8 53 -18 106 -26 159zM461 939c-95 0 -135 -175 -135 -286c0 -24 2 -48 5 -71c50 39 92 82 127 128c40 53 60 100 60 140v8c-4 53 -22 81 -55 81h-2zM406 119l54 -326c73 25 110 78 110 161c0 7 0 15 -1 23c-7 95 -57 142 -151 142h-12 zM382 117c-72 -2 -128 -47 -128 -120v-7c2 -46 43 -99 75 -115c-3 -2 -7 -5 -10 -10c-70 33 -116 88 -123 172v11c0 68 44 126 88 159c23 17 49 29 78 36l-29 170c-21 -13 -52 -37 -92 -73c-50 -44 -86 -84 -109 -119c-45 -69 -67 -130 -67 -182v-13c5 -68 35 -127 93 -176 s125 -73 203 -73c25 0 50 3 75 9c-19 111 -36 221 -54 331z"/></g><g id="E260-hu0hphg"><path transform="scale(1,-1)" d="M20 110c32 16 54 27 93 27c26 0 35 -3 54 -13c13 -7 24 -20 27 -38l4 -25c0 -28 -16 -57 -45 -89c-23 -25 -39 -44 -65 -68l-88 -79v644h20v-359zM90 106c-32 0 -48 -10 -70 -29v-194c31 31 54 59 71 84c21 32 32 59 32 84c0 9 1 16 1 20c0 14 -3 21 -11 30l-8 3z"/></g><g id="E08A-hu0hphg"><path transform="scale(1,-1)" d="M340 179c-9 24 -56 41 -89 41c-46 0 -81 -28 -100 -58c-17 -28 -25 -78 -25 -150c0 -65 2 -111 8 -135c8 -31 18 -49 40 -67c20 -17 43 -25 70 -25c54 0 92 36 115 75c14 25 23 54 28 88h27c0 -63 -24 -105 -58 -141c-35 -38 -82 -56 -140 -56c-45 0 -83 13 -115 39 c-57 45 -101 130 -101 226c0 59 33 127 68 163c36 37 97 72 160 72c36 0 93 -21 121 -40c11 -8 23 -17 33 -30c19 -23 27 -48 27 -76c0 -51 -35 -88 -86 -88c-43 0 -76 27 -76 68c0 26 7 35 21 51c15 17 32 27 58 32c7 2 14 7 14 11z"/></g><g id="E0A4-hu0hphg"><path transform="scale(1,-1)" d="M0 -39c0 68 73 172 200 172c66 0 114 -37 114 -95c0 -84 -106 -171 -218 -171c-64 0 -96 30 -96 94z"/></g><g id="E240-hu0hphg"><path transform="scale(1,-1)" d="M179 -646c15 29 29 55 46 102c18 49 30 108 30 138c0 105 -80 173 -168 200c-18 5 -47 9 -87 16v190h22c8 0 33 -61 71 -95c4 -3 -2 3 61 -56c62 -58 122 -137 122 -241c0 -38 -13 -106 -35 -163c-20 -51 -43 -99 -66 -132c-6 -5 -10 -7 -13 -7s-5 2 -5 5l4 10 c1 3 14 25 18 33z"/></g><g id="E0A3-hu0hphg"><path transform="scale(1,-1)" d="M278 64c0 22 -17 39 -43 39c-12 0 -26 -3 -41 -10c-85 -43 -165 -94 -165 -156c5 -25 15 -32 49 -32c67 11 200 95 200 159zM0 -36c0 68 73 174 200 174c66 0 114 -39 114 -97c0 -84 -106 -173 -218 -173c-64 0 -96 32 -96 96z"/></g><g id="E262-hu0hphg"><path transform="scale(1,-1)" d="M136 186v169h17v-164l44 14v-91l-44 -14v-165l44 12v-91l-44 -13v-155h-17v150l-76 -22v-155h-17v149l-43 -13v90l43 14v167l-43 -14v92l43 13v169h17v-163zM60 73v-167l76 22v168z"/></g><g id="E4E5-hu0hphg"><path transform="scale(1,-1)" d="M107 292c-13 24 -30 49 -52 71c-1 1 0 2 0 3l-2 2c3 3 4 4 6 4c12 0 26 -7 40 -20s44 -40 89 -81c26 -24 28 -29 46 -47c4 -4 8 -9 10 -14c6 -8 8 -16 8 -27c0 -19 -12 -40 -36 -61c-28 -23 -49 -38 -61 -73c-4 -11 -7 -27 -10 -50c13 -43 34 -83 59 -121 c31 -47 59 -79 101 -129c-8 0 -26 7 -54 20l-62 29l-21 6l-23 1c-25 0 -45 -10 -60 -30l-4 -14l-1 -12c0 -33 20 -56 39 -78c8 -9 17 -18 26 -26c17 -15 27 -24 28 -30l-3 -3c-11 5 -19 10 -25 15c-9 3 -37 21 -45 26c-24 14 -45 32 -63 51c-19 21 -37 44 -37 71 c0 63 27 95 80 95c41 0 86 -18 136 -52c-19 26 -37 48 -55 66c-23 23 -48 44 -73 65c-28 23 -47 40 -58 53s-17 26 -18 39c75 64 113 125 113 183c0 27 -7 48 -18 68z"/></g><g id="E261-hu0hphg"><path transform="scale(1,-1)" d="M0 -188v539h18v-191l139 22v-533h-17v186zM18 -100l122 17v176l-122 -19v-174z"/></g></defs><style type="text/css">#hu0hphg g.page-margin {font-family:Times,serif;}#hu0hphg g.ending, #hu0hphg g.fing, #hu0hphg g.reh, #hu0hphg g.tempo {font-weight:bold;}#hu0hphg g.dir, #hu0hphg g.dynam, #hu0hphg g.mNum {font-style:italic;}#hu0hphg g.label {font-weight:normal;}#hu0hphg path {stroke:currentColor}</style><svg class="definition-scale" color="black" viewBox="0 0 14000 2100"><g class="page-margin" transform="translate(0, 150)"><g data-id="zm4atm2" data-class="mdiv" class="mdiv pageMilestone"/><g data-id="agyj02i" data-class="score" class="score pageMilestone"/><g data-id="t32uknc" data-class="system" class="system"><g data-id="cixdayb" data-class="section" class="section systemMilestone"/><g data-id="i1jpm4ci" data-class="measure" class="measure"><g data-id="o19umss7" data-class="staff" class="staff"><path d="M0 540 L4985 540" stroke-width="13"/><path d="M0 720 L4985 720" stroke-width="13"/><path d="M0 900 L4985 900" stroke-width="13"/><path d="M0 1080 L4985 1080" stroke-width="13"/><path d="M0 1260 L4985 1260" stroke-width="13"/><g data-id="x1xwk2qt" data-class="clef" class="clef"><use href="#E050-hu0hphg" transform="translate(90, 1080) scale(0.72, 0.72)"/></g><g data-id="y1izxeui" data-class="keySig" class="keySig"><g data-id="zjgftit" data-class="keyAccid" class="keyAccid"><use href="#E260-hu0hphg" transform="translate(735, 900) scale(0.72, 0.72)"/></g><g data-id="a17101z3" data-class="keyAccid" class="keyAccid"><use href="#E260-hu0hphg" transform="translate(915, 630) scale(0.72, 0.72)"/></g><g data-id="bpcxvfa" data-class="keyAccid" class="keyAccid"><use href="#E260-hu0hphg" transform="translate(1095, 990) scale(0.72, 0.72)"/></g></g><g data-id="c1ihhb36" data-class="meterSig" class="meterSig"><use href="#E08A-hu0hphg" transform="translate(1417, 900) scale(0.72, 0.72)"/></g><g data-id="p1ye0t8w" data-class="layer" class="layer"><g data-id="c1g22s14" data-class="note" class="note"><g data-class="notehead" class="notehead"><use href="#E0A4-hu0hphg" transform="translate(1996, 1080) scale(0.72, 0.72)"/></g><g data-id="m1khu7uu" data-class="dots" class="dots"><ellipse cx="2312" cy="990" rx="36" ry="36" fill-opacity="1" stroke-opacity="1"/></g><g data-id="lemhehe" data-class="stem" class="stem"><path d="M2213 1052 L2213 450" stroke-width="18"/></g></g><g data-id="d1old09w" data-class="note" class="note"><g data-class="notehead" class="notehead"><use href="#E0A4-hu0hphg" transform="translate(2963, 1170) scale(0.72, 0.72)"/></g><g data-id="ny5mya" data-class="stem" class="stem"><path d="M3180 1142 L3180 540" stroke-width="18"/><g data-id="o1dtyug7" data-class="flag" class="flag"><use href="#E240-hu0hphg" transform="translate(3171, 540) scale(0.72, 0.72)"/></g></g></g><g data-id="elg8al9" data-class="note" class="note"><g data-class="notehead" class="notehead"><use href="#E0A4-hu0hphg" transform="translate(3457, 1260) scale(0.72, 0.72)"/></g><g data-id="p1tsys6v" data-class="stem" class="stem"><path d="M3674 1232 L3674 630" stroke-width="18"/></g><g data-id="vsa0l62" data-class="accid" class="accid"/></g><g data-id="fr72a3i" data-class="note" class="note"><g data-class="notehead" class="notehead"><use href="#E0A4-hu0hphg" transform="translate(4215, 1080) scale(0.72, 0.72)"/></g><g data-id="qzvr30o" data-class="stem" class="stem"><path d="M4432 1052 L4432 450" stroke-width="18"/></g></g></g></g><g data-id="q13hx5lj" data-class="barLine" class="barLine"><path d="M4972 540 L4972 1260" stroke-width="27"/></g></g><g data-id="rudlgfs" data-class="measure" class="measure"><g data-id="q14floim" data-class="staff" class="staff"><path d="M4985 540 L7858 540" stroke-width="13"/><path d="M4985 720 L7858 720" stroke-width="13"/><path d="M4985 900 L7858 900" stroke-width="13"/><path d="M4985 1080 L7858 1080" stroke-width="13"/><path d="M4985 1260 L7858 1260" stroke-width="13"/><g data-id="r1h9ku8d" data-class="layer" class="layer"><g data-id="g1dyu5xm" data-class="note" class="note"><g data-class="notehead" class="notehead"><use href="#E0A3-hu0hphg" transform="translate(5176, 1080) scale(0.72, 0.72)"/></g><g data-id="r1jubmu8" data-class="stem" class="stem"><path d="M5393 1052 L5393 450" stroke-width="18"/></g></g><g data-id="hqeuzzm" data-class="note" class="note"><g data-class="notehead" class="notehead"><use href="#E0A4-hu0hphg" transform="translate(6330, 1170) scale(0.72, 0.72)"/></g><g data-id="s15mtjpk" data-class="stem" class="stem"><path d="M6547 1142 L6547 540" stroke-width="18"/></g><g data-id="r1n8t016" data-class="accid" class="accid"><use href="#E262-hu0hphg" transform="translate(6144, 1170) scale(0.72, 0.72)"/></g></g><g data-id="b1lyakgc" data-class="rest" class="rest"><use href="#E4E5-hu0hphg" transform="translate(7087, 900) scale(0.72, 0.72)"/></g></g></g><g data-id="zyd5y7h" data-class="barLine" class="barLine"><path d="M7845 540 L7845 1260" stroke-width="27"/></g></g><g data-id="a1cq5gho" data-class="measure" class="measure"><g data-id="s1x9ot7h" data-class="staff" class="staff"><path d="M7858 540 L11129 540" stroke-width="13"/><path d="M7858 720 L11129 720" stroke-width="13"/><path d="M7858 900 L11129 900" stroke-width="13"/><path d="M7858 1080 L11129 1080" stroke-width="13"/><path d="M7858 1260 L11129 1260" stroke-width="13"/><g data-id="t1xmiedi" data-class="layer" class="layer"><g data-id="iz7q4x2" data-class="note" class="note"><g data-class="notehead" class="notehead"><use href="#E0A4-hu0hphg" transform="translate(8216, 1170) scale(0.72, 0.72)"/></g><g data-id="tg5i3zl" data-class="stem" class="stem"><path d="M8433 1142 L8433 540" stroke-width="18"/></g><g data-id="s1atjf9y" data-class="accid" class="accid"><use href="#E261-hu0hphg" transform="translate(8058, 1170) scale(0.72, 0.72)"/></g></g><g data-id="j1ft6k1q" data-class="note" class="note"><g data-class="notehead" class="notehead"><use href="#E0A3-hu0hphg" transform="translate(8973, 990) scale(0.72, 0.72)"/></g><g data-id="u1691i6a" data-class="stem" class="stem"><path d="M9190 962 L9190 360" stroke-width="18"/></g><g data-id="w103s6wm" data-class="accid" class="accid"/></g><g data-id="t1q6nw3d" data-class="beam" class="beam"><polygon stroke-opacity="1" fill-opacity="1" points="10335,405 10848,450 10848,540 10335,495"/><g data-id="kw58ox5" data-class="note" class="note"><g data-class="notehead" class="notehead"><use href="#E0A4-hu0hphg" transform="translate(10127, 1080) scale(0.72, 0.72)"/></g><g data-id="v1678s2s" data-class="stem" class="stem"><path d="M10344 1052 L10344 423" stroke-width="18"/></g></g><g data-id="l1m2fa6v" data-class="note" class="note"><g data-class="notehead" class="notehead"><use href="#E0A4-hu0hphg" transform="translate(10622, 1170) scale(0.72, 0.72)"/></g><g data-id="w6npes4" data-class="stem" class="stem"><path d="M10839 1142 L10839 468" stroke-width="18"/></g></g></g></g></g><g data-id="i1omjy4x" data-class="barLine" class="barLine"><path d="M11116 540 L11116 1260" stroke-width="27"/></g></g><g data-id="j6cp8dz" data-class="measure" class="measure"><g data-id="uq1g01z" data-class="staff" class="staff"><path d="M11129 540 L14002 540" stroke-width="13"/><path d="M11129 720 L14002 720" stroke-width="13"/><path d="M11129 900 L14002 900" stroke-width="13"/><path d="M11129 1080 L14002 1080" stroke-width="13"/><path d="M11129 1260 L14002 1260" stroke-width="13"/><g data-id="vsv83in" data-class="layer" class="layer"><g data-id="mty0tsr" data-class="note" class="note"><g data-class="notehead" class="notehead"><use href="#E0A4-hu0hphg" transform="translate(11320, 1260) scale(0.72, 0.72)"/></g><g data-id="x1jvilfc" data-class="stem" class="stem"><path d="M11537 1232 L11537 630" stroke-width="18"/></g><g data-id="xi18bf3" data-class="accid" class="accid"/></g><g data-id="n4yd28u" data-class="note" class="note"><g data-class="notehead" class="notehead"><use href="#E0A4-hu0hphg" transform="translate(12077, 1080) scale(0.72, 0.72)"/></g><g data-id="y85oqix" data-class="stem" class="stem"><path d="M12294 1052 L12294 450" stroke-width="18"/></g></g><g data-id="o1ezb0oh" data-class="note" class="note"><g data-class="notehead" class="notehead"><use href="#E0A3-hu0hphg" transform="translate(12835, 810) scale(0.72, 0.72)"/></g><g data-id="z15f8mon" data-class="stem" class="stem"><path d="M12844 835 L12844 1440" stroke-width="18"/></g></g></g></g><g data-id="u10rn46z" data-class="tie" class="tie"><path d="M13106,765 C13305,612 13730,612 13931,765 C13717,660 13318,660 13106,765" stroke-linecap="round" stroke-linejoin="round" stroke-width="9"/></g><g data-id="r1a9dg4o" data-class="barLine" class="barLine"><path d="M13989 540 L13989 1260" stroke-width="27"/></g></g></g></g></svg></svg>