<svg viewBox="0 0 560 84" version="1.1" xmlns="http://www.w3.org/2000/svg" xmlns:xlink="http://www.w3.org/1999/xlink" overflow="visible" id="htl10js"><desc>Engraved by Verovio 5.6.0-85e7620</desc><defs><g id="E062-htl10js"><path transform="scale(1,-1)" d="M582 -120c0 32 26 58 58 58s58 -26 58 -58s-26 -58 -58 -58s-58 26 -58 58zM582 120c0 32 26 58 58 58s58 -26 58 -58s-26 -58 -58 -58s-58 26 -58 58zM158 96c51 0 73 -14 88 -49l16 -39c0 -17 -2 -30 -7 -40c-3 -11 -10 -21 -19 -31c-17 -18 -49 -43 -84 -43 c-55 0 -77 13 -112 44c-24 21 -35 55 -35 100c0 46 14 81 32 112c30 52 71 79 137 93l36 6l26 2c154 0 235 -68 274 -182c11 -32 18 -68 18 -107c0 -103 -26 -182 -68 -250c-89 -145 -234 -230 -412 -288l-30 -5c-9 0 -14 3 -14 8c3 10 5 11 10 16c35 15 70 30 96 44l78 43 c96 57 162 136 197 258c9 33 17 60 22 100c3 22 5 35 6 39c-7 69 -16 115 -23 140s-4 22 -16 40c-8 12 -19 23 -31 34c-24 21 -62 44 -118 44c-48 0 -84 -8 -113 -28c-28 -19 -42 -44 -42 -73v-16c2 -5 3 -9 4 -11c24 22 52 39 84 39z"/></g><g id="E262-htl10js"><path transform="scale(1,-1)" d="M136 186v169h17v-164l44 14v-91l-44 -14v-165l44 12v-91l-44 -13v-155h-17v150l-76 -22v-155h-17v149l-43 -13v90l43 14v167l-43 -14v92l43 13v169h17v-163zM60 73v-167l76 22v168z"/></g><g id="E083-htl10js"><path transform="scale(1,-1)" d="M208 250c97 0 177 -52 177 -116c0 -69 -40 -111 -118 -125c56 -5 125 -44 125 -116c0 -31 -10 -57 -31 -78c-19 -21 -45 -38 -78 -49l-50 -11c-15 -3 -36 -7 -55 -7c-50 0 -86 16 -113 38c-16 10 -23 18 -34 34c-7 13 -11 25 -11 38c0 43 27 83 68 83l3 -2 c61 0 75 -42 75 -70c0 -19 -24 -42 -26 -57c7 -17 20 -25 37 -25c44 0 94 29 94 78c0 75 -34 125 -138 125v36c84 0 131 22 131 98c0 54 -37 88 -87 88c-26 0 -43 -7 -51 -22c15 -22 44 -16 44 -70c0 -37 -37 -62 -71 -62c-22 0 -69 15 -69 76c0 79 101 116 178 116z"/></g><g id="E084-htl10js"><path transform="scale(1,-1)" d="M20 -78c84 97 114 180 134 329h170c-13 -32 -82 -132 -99 -151l-84 -97c-33 -36 -59 -63 -80 -81h162v102l127 123v-225h57v-39h-57v-34c0 -43 19 -65 57 -65v-34h-244v36c48 0 60 26 60 70v27h-203v39z"/></g><g id="E0A3-htl10js"><path transform="scale(1,-1)" d="M278 64c0 22 -17 39 -43 39c-12 0 -26 -3 -41 -10c-85 -43 -165 -94 -165 -156c5 -25 15 -32 49 -32c67 11 200 95 200 159zM0 -36c0 68 73 174 200 174c66 0 114 -39 114 -97c0 -84 -106 -173 -218 -173c-64 0 -96 32 -96 96z"/></g><g id="E0A4-htl10js"><path transform="scale(1,-1)" d="M0 -39c0 68 73 172 200 172c66 0 114 -37 114 -95c0 -84 -106 -171 -218 -171c-64 0 -96 30 -96 94z"/></g><g id="E07A-htl10js"><path transform="scale(1,-1)" d="M343 -190c-18 -3 -37 -5 -59 -5c-46 0 -79 6 -101 16c-68 33 -117 72 -146 119c-20 34 -33 80 -37 137c0 5 -1 10 -1 15c0 42 12 86 35 132c23 44 51 82 86 115s75 65 119 98c-2 12 -7 36 -11 72c-3 33 -3 57 -3 69c0 91 12 134 53 200c26 42 50 63 69 63 c16 0 34 -23 54 -71s30 -90 32 -124v-11c0 -85 -16 -126 -52 -187c-10 -16 -49 -70 -76 -92c-10 -7 -20 -15 -29 -23l24 -140c6 1 14 1 22 1c45 0 79 -9 103 -27c46 -33 71 -81 76 -143c1 -5 1 -12 1 -17c0 -96 -68 -163 -141 -193c6 -44 14 -86 20 -126c4 -24 4 -45 4 -62 c0 -23 -3 -41 -10 -54c-27 -50 -69 -77 -123 -80c-4 0 -9 -1 -13 -1c-29 0 -56 8 -84 21c-39 19 -60 46 -62 82v8c0 23 6 43 16 59c14 22 35 32 61 34h5c38 0 72 -32 75 -67v-7c0 -40 -26 -67 -81 -83c13 -19 39 -28 79 -28c48 0 90 34 109 67c7 12 10 31 10 57 c0 16 -1 33 -4 52c-6 41 -14 83 -20 124zM358 730c-74 0 -105 -137 -105 -223c0 -19 2 -37 4 -55c39 30 72 64 99 100c31 41 46 77 46 108v7c-3 41 -16 63 -42 63h-2zM315 92l42 -253c57 19 86 61 86 125c0 5 0 12 -1 18c-5 74 -44 110 -117 110h-10zM297 91 c-56 -2 -100 -36 -100 -93v-6c2 -36 34 -77 59 -89c-2 -2 -6 -4 -8 -8c-54 26 -91 69 -96 134v8c0 53 35 98 69 124c18 13 37 23 60 28l-22 132c-16 -10 -41 -29 -72 -57c-39 -34 -66 -65 -84 -92c-35 -54 -52 -102 -52 -142v-10c4 -53 27 -99 72 -137s96 -56 157 -56 c19 0 40 2 59 7c-15 86 -28 172 -42 257z"/></g></defs><style type="text/css">#htl10js g.page-margin {font-family:Times,serif;}#htl10js g.ending, #htl10js g.fing, #htl10js g.reh, #htl10js g.tempo {font-weight:bold;}#htl10js g.dir, #htl10js g.dynam, #htl10js g.mNum {font-style:italic;}#htl10js g.label {font-weight:normal;}#htl10js path {stroke:currentColor}</style><svg class="definition-scale" color="black" viewBox="0 0 14000 2100"><g class="page-margin" transform="translate(0, 150)"><g data-id="h1biina" data-class="mdiv" class="mdiv pageMilestone"/><g data-id="i1qgtwlf" data-class="score" class="score pageMilestone"/><g data-id="rtsv1v4" data-class="system" class="system"><g data-id="k1sj9xlk" data-class="section" class="section systemMilestone"/><g data-id="iofir1i" data-class="measure" class="measure"><g data-id="w1kml0u5" data-class="staff" class="staff"><path d="M0 540 L3292 540" stroke-width="13"/><path d="M0 720 L3292 720" stroke-width="13"/><path d="M0 900 L3292 900" stroke-width="13"/><path d="M0 1080 L3292 1080" stroke-width="13"/><path d="M0 1260 L3292 1260" stroke-width="13"/><g data-id="jdajf87" data-class="clef" class="clef"><use href="#E062-htl10js" transform="translate(88, 720) scale(0.72, 0.72)"/></g><g data-id="k4rbei6" data-class="keySig" class="keySig"><g data-id="lctlzqu" data-class="keyAccid" class="keyAccid"><use href="#E262-htl10js" transform="translate(769, 720) scale(0.72, 0.72)"/></g><g data-id="m154zb85" data-class="keyAccid" class="keyAccid"><use href="#E262-htl10js" transform="translate(947, 990) scale(0.72, 0.72)"/></g></g><g data-id="n1gfkhyu" data-class="meterSig" class="meterSig"><use href="#E083-htl10js" transform="translate(1260, 720) scale(0.72, 0.72)"/><use href="#E084-htl10js" transform="translate(1254, 1080) scale(0.72, 0.72)"/></g><g data-id="x1tmwl7v" data-class="layer" class="layer"><g data-id="d123dluu" data-class="note" class="note"><g data-class="notehead" class="notehead"><use href="#E0A3-htl10js" transform="translate(1827, 450) scale(0.72, 0.72)"/></g><g data-id="z1m49i24" data-class="dots" class="dots"><ellipse cx="2143" cy="450" rx="36" ry="36" fill-opacity="1" stroke-opacity="1"/></g><g data-id="y1iy6g4o" data-class="stem" class="stem"><path d="M1836 475 L1836 1080" stroke-width="18"/></g></g></g></g><g data-id="ql8sq8i" data-class="barLine" class="barLine"><path d="M3279 540 L3279 1260" stroke-width="27"/></g></g><g data-id="ssq5bad" data-class="measure" class="measure"><g data-id="yu9fv8j" data-class="staff" class="staff"><path d="M3292 540 L5651 540" stroke-width="13"/><path d="M3292 720 L5651 720" stroke-width="13"/><path d="M3292 900 L5651 900" stroke-width="13"/><path d="M3292 1080 L5651 1080" stroke-width="13"/><path d="M3292 1260 L5651 1260" stroke-width="13"/><g data-class="ledgerLines" class="ledgerLines above"><g data-class="lineDash" class="lineDash" data-related="#eoyyquc"><path d="M3435 360 L3757 360" stroke-width="22"/></g></g><g data-id="z1d5kr5e" data-class="layer" class="layer"><g data-id="eoyyquc" data-class="note" class="note"><g data-class="notehead" class="notehead"><use href="#E0A3-htl10js" transform="translate(3483, 360) scale(0.72, 0.72)"/></g><g data-id="a9pt2xk" data-class="stem" class="stem"><path d="M3492 385 L3492 990" stroke-width="18"/></g><g data-id="c1n5oe91" data-class="accid" class="accid"/></g><g data-id="z1iykaia" data-class="beam" class="beam"><polygon stroke-opacity="1" fill-opacity="1" points="4620,1125 5168,1170 5168,1080 4620,1035"/><g data-id="fsoq3v2" data-class="note" class="note"><g data-class="notehead" class="notehead"><use href="#E0A4-htl10js" transform="translate(4620, 450) scale(0.72, 0.72)"/></g><g data-id="b1590ars" data-class="stem" class="stem"><path d="M4629 478 L4629 1107" stroke-width="18"/></g></g><g data-id="g1fxxnn2" data-class="note" class="note"><g data-class="notehead" class="notehead"><use href="#E0A4-htl10js" transform="translate(5150, 540) scale(0.72, 0.72)"/></g><g data-id="cc2rza9" data-class="stem" class="stem"><path d="M5159 568 L5159 1152" stroke-width="18"/></g><g data-id="xkvka7" data-class="accid" class="accid"><use href="#E262-htl10js" transform="translate(4964, 540) scale(0.72, 0.72)"/></g></g></g></g></g><g data-id="aep4yo5" data-class="barLine" class="barLine"><path d="M5638 540 L5638 1260" stroke-width="27"/></g></g><g data-id="bdnkjaa" data-class="measure" class="measure"><g data-id="a1f3460z" data-class="staff" class="staff"><path d="M5651 540 L7739 540" stroke-width="13"/><path d="M5651 720 L7739 720" stroke-width="13"/><path d="M5651 900 L7739 900" stroke-width="13"/><path d="M5651 1080 L7739 1080" stroke-width="13"/><path d="M5651 1260 L7739 1260" stroke-width="13"/><g data-id="b94aus1" data-class="layer" class="layer"><g data-id="h18wootj" data-class="note" class="note"><g data-class="notehead" class="notehead"><use href="#E0A3-htl10js" transform="translate(5842, 450) scale(0.72, 0.72)"/></g><g data-id="d1o9v0ze" data-class="stem" class="stem"><path d="M5851 475 L5851 1080" stroke-width="18"/></g></g><g data-id="r41tu9f" data-class="clef" class="clef"><use href="#E07A-htl10js" transform="translate(6527, 1080) scale(0.72, 0.72)"/></g><g data-id="ibkpy8h" data-class="note" class="note"><g data-class="notehead" class="notehead"><use href="#E0A4-htl10js" transform="translate(6979, 1350) scale(0.72, 0.72)"/></g><g data-id="e1yn5mck" data-class="stem" class="stem"><path d="M7196 1322 L7196 720" stroke-width="18"/></g></g></g></g><g data-id="jjiz5xp" data-class="barLine" class="barLine"><path d="M7726 540 L7726 1260" stroke-width="27"/></g></g><g data-id="k1fx7nyz" data-class="measure" class="measure"><g data-id="c8d18wz" data-class="staff" class="staff"><path d="M7739 540 L9827 540" stroke-width="13"/><path d="M7739 720 L9827 720" stroke-width="13"/><path d="M7739 900 L9827 900" stroke-width="13"/><path d="M7739 1080 L9827 1080" stroke-width="13"/><path d="M7739 1260 L9827 1260" stroke-width="13"/><g data-id="d2ey5i0" data-class="layer" class="layer"><g data-id="jviswdc" data-class="note" class="note"><g data-class="notehead" class="notehead"><use href="#E0A3-htl10js" transform="translate(7930, 1170) scale(0.72, 0.72)"/></g><g data-id="f7kbwth" data-class="stem" class="stem"><path d="M8147 1142 L8147 540" stroke-width="18"/></g><g data-id="dy40nyw" data-class="accid" class="accid"/></g><g data-id="k1s500iu" data-class="note" class="note"><g data-class="notehead" class="notehead"><use href="#E0A4-htl10js" transform="translate(9067, 1260) scale(0.72, 0.72)"/></g><g data-id="g1vfhedg" data-class="stem" class="stem"><path d="M9284 1232 L9284 630" stroke-width="18"/></g></g></g></g><g data-id="s1paiw1t" data-class="barLine" class="barLine"><path d="M9814 540 L9814 1260" stroke-width="27"/></g></g><g data-id="t1cr02zb" data-class="measure" class="measure"><g data-id="eso41zd" data-class="staff" class="staff"><path d="M9827 540 L11915 540" stroke-width="13"/><path d="M9827 720 L11915 720" stroke-width="13"/><path d="M9827 900 L11915 900" stroke-width="13"/><path d="M9827 1080 L11915 1080" stroke-width="13"/><path d="M9827 1260 L11915 1260" stroke-width="13"/><g data-id="f1f0lw1o" data-class="layer" class="layer"><g data-id="lienwsq" data-class="note" class="note"><g data-class="notehead" class="notehead"><use href="#E0A4-htl10js" transform="translate(10018, 1350) scale(0.72, 0.72)"/></g><g data-id="hs3vuhq" data-class="stem" class="stem"><path d="M10235 1322 L10235 720" stroke-width="18"/></g></g><g data-id="m1q224fm" data-class="note" class="note"><g data-class="notehead" class="notehead"><use href="#E0A3-htl10js" transform="translate(10765, 1080) scale(0.72, 0.72)"/></g><g data-id="i4q60d9" data-class="stem" class="stem"><path d="M10982 1052 L10982 450" stroke-width="18"/></g></g></g></g><g data-id="bccdqg7" data-class="barLine" class="barLine"><path d="M11902 540 L11902 1260" stroke-width="27"/></g></g><g data-id="cp9rmd4" data-class="measure" class="measure"><g data-id="g1cwnofa" data-class="staff" class="staff"><path d="M11915 540 L14003 540" stroke-width="13"/><path d="M11915 720 L14003 720" stroke-width="13"/><path d="M11915 900 L14003 900" stroke-width="13"/><path d="M11915 1080 L14003 1080" stroke-width="13"/><path d="M11915 1260 L14003 1260" stroke-width="13"/><g data-id="h1mxp2bf" data-class="layer" class="layer"><g data-id="nswn0t8" data-class="note" class="note"><g data-class="notehead" class="notehead"><use href="#E0A4-htl10js" transform="translate(12106, 1170) scale(0.72, 0.72)"/></g><g data-id="j7ltirt" data-class="stem" class="stem"><path d="M12323 1142 L12323 540" stroke-width="18"/></g><g data-id="e279jsg" data-class="accid" class="accid"/></g><g data-id="oyc9uld" data-class="note" class="note"><g data-class="notehead" class="notehead"><use href="#E0A3-htl10js" transform="translate(12853, 990) scale(0.72, 0.72)"/></g><g data-id="k1iutg3v" data-class="stem" class="stem"><path d="M13070 962 L13070 360" stroke-width="18"/></g></g></g></g><g data-id="bbczucl" data-class="tie" class="tie"><path d="M13124,1035 C13333,1141 13722,1141 13932,1035 C13736,1188 13319,1188 13124,1035" stroke-linecap="round" stroke-linejoin="round" stroke-width="9"/></g><g data-id="k12iy7zt" data-class="barLine" class="barLine"><path d="M13990 540 L13990 1260" stroke-width="27"/></g></g></g></g></svg></svg>