<svg viewBox="0 0 560 84" version="1.1" xmlns="http://www.w3.org/2000/svg" xmlns:xlink="http://www.w3.org/1999/xlink" overflow="visible" id="q1hwosv4"><desc>Engraved by Verovio 5.6.0-85e7620</desc><defs><g id="E050-q1hwosv4"><path transform="scale(1,-1)" d="M441 -245c-23 -4 -48 -6 -76 -6c-59 0 -102 7 -130 20c-88 42 -150 93 -187 154c-26 44 -43 103 -48 176c0 6 -1 13 -1 19c0 54 15 111 45 170c29 57 65 106 110 148s96 85 153 127c-3 16 -8 46 -13 92c-4 43 -5 73 -5 89c0 117 16 172 69 257c34 54 64 82 89 82 c21 0 43 -30 69 -92s39 -115 41 -159v-15c0 -109 -21 -162 -67 -241c-13 -20 -63 -90 -98 -118c-13 -9 -25 -19 -37 -29l31 -181c8 1 18 2 28 2c58 0 102 -12 133 -35c59 -43 92 -104 98 -184c1 -7 1 -15 1 -22c0 -123 -87 -209 -181 -248c8 -57 17 -110 25 -162 c5 -31 6 -58 6 -80c0 -30 -5 -53 -14 -70c-35 -64 -88 -99 -158 -103c-5 0 -11 -1 -16 -1c-37 0 -72 10 -108 27c-50 24 -77 59 -80 105v11c0 29 7 55 20 76c18 28 45 42 79 44h6c49 0 93 -42 97 -87v-9c0 -51 -34 -86 -105 -106c17 -24 51 -36 102 -36c62 0 116 43 140 85 c9 16 13 41 13 74c0 20 -1 42 -5 67c-8 53 -18 106 -26 159zM461 939c-95 0 -135 -175 -135 -286c0 -24 2 -48 5 -71c50 39 92 82 127 128c40 53 60 100 60 140v8c-4 53 -22 81 -55 81h-2zM406 119l54 -326c73 25 110 78 110 161c0 7 0 15 -1 23c-7 95 -57 142 -151 142h-12 zM382 117c-72 -2 -128 -47 -128 -120v-7c2 -46 43 -99 75 -115c-3 -2 -7 -5 -10 -10c-70 33 -116 88 -123 172v11c0 68 44 126 88 159c23 17 49 29 78 36l-29 170c-21 -13 -52 -37 -92 -73c-50 -44 -86 -84 -109 -119c-45 -69 -67 -130 -67 -182v-13c5 -68 35 -127 93 -176 s125 -73 203 -73c25 0 50 3 75 9c-19 111 -36 221 -54 331z"/></g><g id="E08A-q1hwosv4"><path transform="scale(1,-1)" d="M340 179c-9 24 -56 41 -89 41c-46 0 -81 -28 -100 -58c-17 -28 -25 -78 -25 -150c0 -65 2 -111 8 -135c8 -31 18 -49 40 -67c20 -17 43 -25 70 -25c54 0 92 36 115 75c14 25 23 54 28 88h27c0 -63 -24 -105 -58 -141c-35 -38 -82 -56 -140 -56c-45 0 -83 13 -115 39 c-57 45 -101 130 -101 226c0 59 33 127 68 163c36 37 97 72 160 72c36 0 93 -21 121 -40c11 -8 23 -17 33 -30c19 -23 27 -48 27 -76c0 -51 -35 -88 -86 -88c-43 0 -76 27 -76 68c0 26 7 35 21 51c15 17 32 27 58 32c7 2 14 7 14 11z"/></g><g id="E4E4-q1hwosv4"><path transform="scale(1,-1)" d="M0 10v105c0 9 1 10 10 10h280c9 0 10 -1 10 -10v-105c0 -9 -1 -10 -10 -10h-280c-9 0 -10 1 -10 10z"/></g><g id="E4E6-q1hwosv4"><path transform="scale(1,-1)" d="M0 123c7 34 33 56 69 60c29 -3 43 -9 53 -29c4 -8 7 -15 10 -22c0 -21 -1 -25 -11 -35c-5 -8 -18 -14 -40 -20l12 -3l15 -1c44 0 97 26 122 56c10 11 18 26 24 42c7 1 15 2 22 3l-140 -424h-36l111 330c-10 -6 -27 -12 -53 -16l-52 -8h-10l-20 1c-1 0 -8 3 -21 6 c-37 9 -55 28 -55 60z"/></g><g id="E0A4-q1hwosv4"><path transform="scale(1,-1)" d="M0 -39c0 68 73 172 200 172c66 0 114 -37 114 -95c0 -84 -106 -171 -218 -171c-64 0 -96 30 -96 94z"/></g><g id="E262-q1hwosv4"><path transform="scale(1,-1)" d="M136 186v169h17v-164l44 14v-91l-44 -14v-165l44 12v-91l-44 -13v-155h-17v150l-76 -22v-155h-17v149l-43 -13v90l43 14v167l-43 -14v92l43 13v169h17v-163zM60 73v-167l76 22v168z"/></g></defs><style type="text/css">#q1hwosv4 g.page-margin {font-family:Times,serif;}#q1hwosv4 g.ending, #q1hwosv4 g.fing, #q1hwosv4 g.reh, #q1hwosv4 g.tempo {font-weight:bold;}#q1hwosv4 g.dir, #q1hwosv4 g.dynam, #q1hwosv4 g.mNum {font-style:italic;}#q1hwosv4 g.label {font-weight:normal;}#q1hwosv4 path {stroke:currentColor}</style><svg class="definition-scale" color="black" viewBox="0 0 14000 2100"><g class="page-margin" transform="translate(0, 150)"><g data-id="k4ze2qj" data-class="mdiv" class="mdiv pageMilestone"/><g data-id="l1c23pp8" data-class="score" class="score pageMilestone"/><g data-id="l1cebx0u" data-class="system" class="system"><g data-id="nvhzyr9" data-class="section" class="section systemMilestone"/><g data-id="r11xo91w" data-class="measure" class="measure"><g data-id="z3qzzqo" data-class="staff" class="staff"><path d="M0 540 L4166 540" stroke-width="13"/><path d="M0 720 L4166 720" stroke-width="13"/><path d="M0 900 L4166 900" stroke-width="13"/><path d="M0 1080 L4166 1080" stroke-width="13"/><path d="M0 1260 L4166 1260" stroke-width="13"/><g data-id="toxukj8" data-class="clef" class="clef"><use href="#E050-q1hwosv4" transform="translate(90, 1080) scale(0.72, 0.72)"/></g><g data-id="uaoj1of" data-class="keySig" class="keySig"/><g data-id="vet7ubm" data-class="meterSig" class="meterSig"><use href="#E08A-q1hwosv4" transform="translate(735, 900) scale(0.72, 0.72)"/></g><g data-class="ledgerLines" class="ledgerLines below"><g data-class="lineDash" class="lineDash" data-related="#wpqts2c"><path d="M2755 1440 L3077 1440" stroke-width="22"/></g></g><g data-id="a16te2n8" data-class="layer" class="layer"><g data-id="s1inpb7f" data-class="rest" class="rest"><use href="#E4E4-q1hwosv4" transform="translate(1303, 900) scale(0.72, 0.72)"/><g data-class="ledgerLines" class="ledgerLines"/></g><g data-id="t1ppa262" data-class="rest" class="rest"><use href="#E4E6-q1hwosv4" transform="translate(2353, 900) scale(0.72, 0.72)"/></g><g data-id="g1ha7ml3" data-class="beam" class="beam"><polygon stroke-opacity="1" fill-opacity="1" points="3011,720 3929,720 3929,810 3011,810"/><g data-id="wpqts2c" data-class="note" class="note"><g data-class="notehead" class="notehead"><use href="#E0A4-q1hwosv4" transform="translate(2803, 1440) scale(0.72, 0.72)"/></g><g data-id="p1ll1hl8" data-class="stem" class="stem"><path d="M3020 1412 L3020 738" stroke-width="18"/></g><g data-id="f1ykaxio" data-class="accid" class="accid"><use href="#E262-q1hwosv4" transform="translate(2591, 1440) scale(0.72, 0.72)"/></g></g><g data-id="xn4pq3p" data-class="note" class="note"><g data-class="notehead" class="notehead"><use href="#E0A4-q1hwosv4" transform="translate(3253, 1350) scale(0.72, 0.72)"/></g><g data-id="q1w2a6zg" data-class="stem" class="stem"><path d="M3470 1322 L3470 738" stroke-width="18"/></g></g><g data-id="yp5mp7h" data-class="note" class="note"><g data-class="notehead" class="notehead"><use href="#E0A4-q1hwosv4" transform="translate(3703, 1350) scale(0.72, 0.72)"/></g><g data-id="r62ben8" data-class="stem" class="stem"><path d="M3920 1322 L3920 738" stroke-width="18"/></g></g></g></g></g><g data-id="zfhrvv6" data-class="barLine" class="barLine"><path d="M4153 540 L4153 1260" stroke-width="27"/></g></g><g data-id="a123zlxk" data-class="measure" class="measure"><g data-id="b18jfqds" data-class="staff" class="staff"><path d="M4166 540 L7209 540" stroke-width="13"/><path d="M4166 720 L7209 720" stroke-width="13"/><path d="M4166 900 L7209 900" stroke-width="13"/><path d="M4166 1080 L7209 1080" stroke-width="13"/><path d="M4166 1260 L7209 1260" stroke-width="13"/><g data-id="cskp6j1" data-class="layer" class="layer"><g data-id="u1rd1d7g" data-class="rest" class="rest"><use href="#E4E4-q1hwosv4" transform="translate(4346, 900) scale(0.72, 0.72)"/><g data-class="ledgerLines" class="ledgerLines"/></g><g data-id="vhxj4kl" data-class="rest" class="rest"><use href="#E4E6-q1hwosv4" transform="translate(5396, 900) scale(0.72, 0.72)"/></g><g data-id="h247wq1" data-class="beam" class="beam"><polygon stroke-opacity="1" fill-opacity="1" points="6054,540 6972,540 6972,630 6054,630"/><g data-id="z1i7cd4l" data-class="note" class="note"><g data-class="notehead" class="notehead"><use href="#E0A4-q1hwosv4" transform="translate(5846, 1260) scale(0.72, 0.72)"/></g><g data-id="s1bd14n5" data-class="stem" class="stem"><path d="M6063 1232 L6063 558" stroke-width="18"/></g></g><g data-id="a5ux231" data-class="note" class="note"><g data-class="notehead" class="notehead"><use href="#E0A4-q1hwosv4" transform="translate(6296, 1170) scale(0.72, 0.72)"/></g><g data-id="t1eeizpy" data-class="stem" class="stem"><path d="M6513 1142 L6513 558" stroke-width="18"/></g></g><g data-id="b18p6xe2" data-class="note" class="note"><g data-class="notehead" class="notehead"><use href="#E0A4-q1hwosv4" transform="translate(6746, 1170) scale(0.72, 0.72)"/></g><g data-id="umttuiy" data-class="stem" class="stem"><path d="M6963 1142 L6963 558" stroke-width="18"/></g></g></g></g></g><g data-id="iol7s7q" data-class="barLine" class="barLine"><path d="M7196 540 L7196 1260" stroke-width="27"/></g></g><g data-id="j1pehrz9" data-class="measure" class="measure"><g data-id="d12vs5l2" data-class="staff" class="staff"><path d="M7209 540 L8811 540" stroke-width="13"/><path d="M7209 720 L8811 720" stroke-width="13"/><path d="M7209 900 L8811 900" stroke-width="13"/><path d="M7209 1080 L8811 1080" stroke-width="13"/><path d="M7209 1260 L8811 1260" stroke-width="13"/><g data-id="euecfio" data-class="layer" class="layer"><g data-id="cxqwx1r" data-class="note" class="note"><g data-class="notehead" class="notehead"><use href="#E0A4-q1hwosv4" transform="translate(7389, 1170) scale(0.72, 0.72)"/></g><g data-id="wtfycej" data-class="dots" class="dots"><ellipse cx="7705" cy="1170" rx="36" ry="36" fill-opacity="1" stroke-opacity="1"/></g><g data-id="v1hym3uy" data-class="stem" class="stem"><path d="M7606 1142 L7606 540" stroke-width="18"/></g></g><g data-id="i14tpuv8" data-class="beam" class="beam"><polygon stroke-opacity="1" fill-opacity="1" points="8477,540 8811,540 8811,630 8477,630"/><polygon stroke-opacity="1" fill-opacity="1" points="8477,675 8811,675 8811,765 8477,765"/><polygon stroke-opacity="1" fill-opacity="1" points="8477,810 8811,810 8811,900 8477,900"/><g data-id="d14yp44k" data-class="note" class="note"><g data-class="notehead" class="notehead"><use href="#E0A4-q1hwosv4" transform="translate(8269, 1260) scale(0.72, 0.72)"/></g><g data-id="x1jrmwwz" data-class="stem" class="stem"><path d="M8486 1232 L8486 558" stroke-width="18"/></g></g><g data-id="e1mrrn1c" data-class="note" class="note"><g data-class="notehead" class="notehead"><use href="#E0A4-q1hwosv4" transform="translate(8585, 1350) scale(0.72, 0.72)"/></g><g data-id="ynql58f" data-class="stem" class="stem"><path d="M8802 1322 L8802 558" stroke-width="18"/></g></g></g></g></g><g data-id="rpc01pr" data-class="barLine" class="barLine"/></g><g data-id="m1i4bpfs" data-class="systemMilestoneEnd" class="systemMilestoneEnd nvhzyr9"/></g><g data-id="n8jh6dw" data-class="pageMilestoneEnd" class="pageMilestoneEnd l1c23pp8"/><g data-id="o2lii8f" data-class="pageMilestoneEnd" class="pageMilestoneEnd k4ze2qj"/></g></svg></svg>