<svg viewBox="0 0 560 84" version="1.1" xmlns="http://www.w3.org/2000/svg" xmlns:xlink="http://www.w3.org/1999/xlink" overflow="visible" id="m1wz2san"><desc>Engraved by Verovio 5.6.0-85e7620</desc><defs><g id="E05C-m1wz2san"><path transform="scale(1,-1)" d="M175 502h43v-456c10 5 18 12 37 29c16 19 22 27 27 38s8 24 14 49c3 22 5 43 5 62c7 -34 31 -54 73 -60c73 18 99 61 100 165c0 46 -10 78 -31 100c-18 23 -41 35 -69 35c-40 0 -65 -32 -66 -84c6 12 11 16 39 24c5 0 2 1 16 -4l17 -10l10 -14l7 -18 c-4 -32 -23 -48 -56 -48c-51 0 -77 33 -77 98c10 35 16 47 30 61c9 9 15 14 23 17c3 3 22 9 27 11l34 3l35 2c123 0 192 -64 192 -178l1 -33c0 -52 -20 -97 -60 -134c-18 -15 -42 -28 -74 -39c-30 -9 -63 -13 -101 -13l-93 -88v-34l93 -88c38 0 71 -4 101 -13 c32 -11 56 -24 74 -39c40 -37 60 -82 60 -134l-3 -33c0 -115 -68 -178 -190 -178l-35 2l-34 3c-5 2 -24 8 -27 11c-26 11 -40 32 -53 78c0 65 26 98 77 98c33 0 52 -16 56 -48l-7 -18l-10 -14l-17 -10c-14 -5 -11 -4 -16 -4c-28 8 -33 12 -39 24c1 -52 26 -84 66 -84 c28 0 51 12 69 35c21 22 31 54 31 100c-1 104 -27 147 -100 165c-42 -6 -66 -26 -73 -60c0 19 -2 40 -5 62c-6 25 -9 38 -14 49s-11 19 -27 38c-19 17 -27 24 -37 29v-456h-43v1004zM0 502h118v-1004h-118v1004z"/></g><g id="E260-m1wz2san"><path transform="scale(1,-1)" d="M20 110c32 16 54 27 93 27c26 0 35 -3 54 -13c13 -7 24 -20 27 -38l4 -25c0 -28 -16 -57 -45 -89c-23 -25 -39 -44 -65 -68l-88 -79v644h20v-359zM90 106c-32 0 -48 -10 -70 -29v-194c31 31 54 59 71 84c21 32 32 59 32 84c0 9 1 16 1 20c0 14 -3 21 -11 30l-8 3z"/></g><g id="E08A-m1wz2san"><path transform="scale(1,-1)" d="M340 179c-9 24 -56 41 -89 41c-46 0 -81 -28 -100 -58c-17 -28 -25 -78 -25 -150c0 -65 2 -111 8 -135c8 -31 18 -49 40 -67c20 -17 43 -25 70 -25c54 0 92 36 115 75c14 25 23 54 28 88h27c0 -63 -24 -105 -58 -141c-35 -38 -82 -56 -140 -56c-45 0 -83 13 -115 39 c-57 45 -101 130 -101 226c0 59 33 127 68 163c36 37 97 72 160 72c36 0 93 -21 121 -40c11 -8 23 -17 33 -30c19 -23 27 -48 27 -76c0 -51 -35 -88 -86 -88c-43 0 -76 27 -76 68c0 26 7 35 21 51c15 17 32 27 58 32c7 2 14 7 14 11z"/></g><g id="E0A3-m1wz2san"><path transform="scale(1,-1)" d="M278 64c0 22 -17 39 -43 39c-12 0 -26 -3 -41 -10c-85 -43 -165 -94 -165 -156c5 -25 15 -32 49 -32c67 11 200 95 200 159zM0 -36c0 68 73 174 200 174c66 0 114 -39 114 -97c0 -84 -106 -173 -218 -173c-64 0 -96 32 -96 96z"/></g><g id="E0A4-m1wz2san"><path transform="scale(1,-1)" d="M0 -39c0 68 73 172 200 172c66 0 114 -37 114 -95c0 -84 -106 -171 -218 -171c-64 0 -96 30 -96 94z"/></g></defs><style type="text/css">#m1wz2san g.page-margin {font-family:Times,serif;}#m1wz2san g.ending, #m1wz2san g.fing, #m1wz2san g.reh, #m1wz2san g.tempo {font-weight:bold;}#m1wz2san g.dir, #m1wz2san g.dynam, #m1wz2san g.mNum {font-style:italic;}#m1wz2san g.label {font-weight:normal;}#m1wz2san path {stroke:currentColor}</style><svg class="definition-scale" color="black" viewBox="0 0 14000 2100"><g class="page-margin" transform="translate(0, 150)"><g data-id="h1nodoo5" data-class="mdiv" class="mdiv pageMilestone"/><g data-id="i28wa3r" data-class="score" class="score pageMilestone"/><g data-id="y1il0xpf" data-class="system" class="system"><g data-id="kkzolbq" data-class="section" class="section systemMilestone"/><g data-id="n1tb032f" data-class="measure" class="measure"><g data-id="w1xvn9b9" data-class="staff" class="staff"><path d="M0 540 L4552 540" stroke-width="13"/><path d="M0 720 L4552 720" stroke-width="13"/><path d="M0 900 L4552 900" stroke-width="13"/><path d="M0 1080 L4552 1080" stroke-width="13"/><path d="M0 1260 L4552 1260" stroke-width="13"/><g data-id="clcta5s" data-class="clef" class="clef"><use href="#E05C-m1wz2san" transform="translate(90, 900) scale(0.72, 0.72)"/></g><g data-id="dphxwx9" data-class="keySig" class="keySig"><g data-id="e1f890id" data-class="keyAccid" class="keyAccid"><use href="#E260-m1wz2san" transform="translate(706, 990) scale(0.72, 0.72)"/></g><g data-id="f12a8mrz" data-class="keyAccid" class="keyAccid"><use href="#E260-m1wz2san" transform="translate(886, 720) scale(0.72, 0.72)"/></g><g data-id="g1nlef0q" data-class="keyAccid" class="keyAccid"><use href="#E260-m1wz2san" transform="translate(1066, 1080) scale(0.72, 0.72)"/></g></g><g data-id="h1huh1ap" data-class="meterSig" class="meterSig"><use href="#E08A-m1wz2san" transform="translate(1388, 900) scale(0.72, 0.72)"/></g><g data-id="x13tx04u" data-class="layer" class="layer"><g data-id="g6rt5n1" data-class="note" class="note"><g data-class="notehead" class="notehead"><use href="#E0A3-m1wz2san" transform="translate(1968, 1350) scale(0.72, 0.72)"/></g><g data-id="t5ic6dk" data-class="stem" class="stem"><path d="M2185 1322 L2185 720" stroke-width="18"/></g><g data-id="y733zwb" data-class="accid" class="accid"/></g><g data-id="h1310b8z" data-class="note" class="note"><g data-class="notehead" class="notehead"><use href="#E0A3-m1wz2san" transform="translate(3253, 1260) scale(0.72, 0.72)"/></g><g data-id="ufe6392" data-class="stem" class="stem"><path d="M3470 1232 L3470 630" stroke-width="18"/></g></g></g></g><g data-id="v1j03ob6" data-class="barLine" class="barLine"><path d="M4539 540 L4539 1260" stroke-width="27"/></g></g><g data-id="w7skmq8" data-class="measure" class="measure"><g data-id="y13a3859" data-class="staff" class="staff"><path d="M4552 540 L7242 540" stroke-width="13"/><path d="M4552 720 L7242 720" stroke-width="13"/><path d="M4552 900 L7242 900" stroke-width="13"/><path d="M4552 1080 L7242 1080" stroke-width="13"/><path d="M4552 1260 L7242 1260" stroke-width="13"/><g data-id="zk68djk" data-class="layer" class="layer"><g data-id="ixu4zxz" data-class="note" class="note"><g data-class="notehead" class="notehead"><use href="#E0A3-m1wz2san" transform="translate(4744, 1080) scale(0.72, 0.72)"/></g><g data-id="wa4xkgv" data-class="dots" class="dots"><ellipse cx="5060" cy="990" rx="36" ry="36" fill-opacity="1" stroke-opacity="1"/></g><g data-id="vmyyrah" data-class="stem" class="stem"><path d="M4961 1052 L4961 450" stroke-width="18"/></g><g data-id="z1sf2rix" data-class="accid" class="accid"/></g><g data-id="jrbnafm" data-class="note" class="note"><g data-class="notehead" class="notehead"><use href="#E0A4-m1wz2san" transform="translate(6384, 1170) scale(0.72, 0.72)"/></g><g data-id="x1y4ep31" data-class="stem" class="stem"><path d="M6601 1142 L6601 540" stroke-width="18"/></g></g></g></g><g data-id="ebo52f8" data-class="barLine" class="barLine"><path d="M7229 540 L7229 1260" stroke-width="27"/></g></g><g data-id="f1q7gl7f" data-class="measure" class="measure"><g data-id="a3c1uxj" data-class="staff" class="staff"><path d="M7242 540 L10421 540" stroke-width="13"/><path d="M7242 720 L10421 720" stroke-width="13"/><path d="M7242 900 L10421 900" stroke-width="13"/><path d="M7242 1080 L10421 1080" stroke-width="13"/><path d="M7242 1260 L10421 1260" stroke-width="13"/><g data-id="bojwi5" data-class="layer" class="layer"><g data-id="kulv9kw" data-class="note" class="note"><g data-class="notehead" class="notehead"><use href="#E0A4-m1wz2san" transform="translate(7434, 1260) scale(0.72, 0.72)"/></g><g data-id="ytak9ht" data-class="stem" class="stem"><path d="M7651 1232 L7651 630" stroke-width="18"/></g></g><g data-id="l1b3pr8u" data-class="note" class="note"><g data-class="notehead" class="notehead"><use href="#E0A4-m1wz2san" transform="translate(8278, 1350) scale(0.72, 0.72)"/></g><g data-id="z157aiji" data-class="stem" class="stem"><path d="M8495 1322 L8495 720" stroke-width="18"/></g><g data-id="alwxl5q" data-class="accid" class="accid"/></g><g data-id="msm8zby" data-class="note" class="note"><g data-class="notehead" class="notehead"><use href="#E0A3-m1wz2san" transform="translate(9122, 810) scale(0.72, 0.72)"/></g><g data-id="a1a52ok5" data-class="stem" class="stem"><path d="M9131 835 L9131 1440" stroke-width="18"/></g><g data-id="vfb93y4" data-class="accid" class="accid"><use href="#E260-m1wz2san" transform="translate(8935, 810) scale(0.72, 0.72)"/></g></g></g></g><g data-id="wpanoeg" data-class="tie" class="tie"><path d="M9393,765 C9681,612 10276,612 10568,765 C10266,660 9691,660 9393,765" stroke-linecap="round" stroke-linejoin="round" stroke-width="9"/></g><g data-id="n7x5w2o" data-class="barLine" class="barLine"><path d="M10408 540 L10408 1260" stroke-width="27"/></g></g><g data-id="o1y5mav7" data-class="measure" class="measure"><g data-id="c1nqajii" data-class="staff" class="staff"><path d="M10421 540 L14003 540" stroke-width="13"/><path d="M10421 720 L14003 720" stroke-width="13"/><path d="M10421 900 L14003 900" stroke-width="13"/><path d="M10421 1080 L14003 1080" stroke-width="13"/><path d="M10421 1260 L14003 1260" stroke-width="13"/><g data-id="d19304li" data-class="layer" class="layer"><g data-id="n1humxb0" data-class="note" class="note"><g data-class="notehead" class="notehead"><use href="#E0A4-m1wz2san" transform="translate(10613, 810) scale(0.72, 0.72)"/></g><g data-id="bvtresy" data-class="stem" class="stem"><path d="M10622 838 L10622 1440" stroke-width="18"/></g><g data-id="bj7z1x1" data-class="accid" class="accid"/></g><g data-id="o19hwvjj" data-class="note" class="note"><g data-class="notehead" class="notehead"><use href="#E0A4-m1wz2san" transform="translate(11457, 900) scale(0.72, 0.72)"/></g><g data-id="c1f883xc" data-class="stem" class="stem"><path d="M11466 928 L11466 1500" stroke-width="18"/></g></g><g data-id="pt5at2q" data-class="note" class="note"><g data-class="notehead" class="notehead"><use href="#E0A4-m1wz2san" transform="translate(12301, 990) scale(0.72, 0.72)"/></g><g data-id="dw91yf2" data-class="stem" class="stem"><path d="M12518 962 L12518 360" stroke-width="18"/></g><g data-id="c12sovkn" data-class="accid" class="accid"/></g><g data-id="qts04yy" data-class="note" class="note"><g data-class="notehead" class="notehead"><use href="#E0A4-m1wz2san" transform="translate(13146, 1080) scale(0.72, 0.72)"/></g><g data-id="e1sgwlp6" data-class="stem" class="stem"><path d="M13363 1052 L13363 450" stroke-width="18"/></g><g data-id="d1g84ffu" data-class="accid" class="accid"/></g></g></g><g data-id="x5sb6tn" data-class="tie" class="tie"><path d="M13417,1125 C13555,1231 13791,1230 13932,1125 C13810,1279 13534,1278 13417,1125" stroke-linecap="round" stroke-linejoin="round" stroke-width="9"/></g><g data-id="wrd0owk" data-class="barLine" class="barLine"><path d="M13990 540 L13990 1260" stroke-width="27"/></g></g></g></g></svg></svg>