<svg viewBox="0 0 560 84" version="1.1" xmlns="http://www.w3.org/2000/svg" xmlns:xlink="http://www.w3.org/1999/xlink" overflow="visible" id="a1rc1fgz"><desc>Engraved by Verovio 5.6.0-85e7620</desc><defs><g id="E050-a1rc1fgz"><path transform="scale(1,-1)" d="M441 -245c-23 -4 -48 -6 -76 -6c-59 0 -102 7 -130 20c-88 42 -150 93 -187 154c-26 44 -43 103 -48 176c0 6 -1 13 -1 19c0 54 15 111 45 170c29 57 65 106 110 148s96 85 153 127c-3 16 -8 46 -13 92c-4 43 -5 73 -5 89c0 117 16 172 69 257c34 54 64 82 89 82 c21 0 43 -30 69 -92s39 -115 41 -159v-15c0 -109 -21 -162 -67 -241c-13 -20 -63 -90 -98 -118c-13 -9 -25 -19 -37 -29l31 -181c8 1 18 2 28 2c58 0 102 -12 133 -35c59 -43 92 -104 98 -184c1 -7 1 -15 1 -22c0 -123 -87 -209 -181 -248c8 -57 17 -110 25 -162 c5 -31 6 -58 6 -80c0 -30 -5 -53 -14 -70c-35 -64 -88 -99 -158 -103c-5 0 -11 -1 -16 -1c-37 0 -72 10 -108 27c-50 24 -77 59 -80 105v11c0 29 7 55 20 76c18 28 45 42 79 44h6c49 0 93 -42 97 -87v-9c0 -51 -34 -86 -105 -106c17 -24 51 -36 102 -36c62 0 116 43 140 85 c9 16 13 41 13 74c0 20 -1 42 -5 67c-8 53 -18 106 -26 159zM461 939c-95 0 -135 -175 -135 -286c0 -24 2 -48 5 -71c50 39 92 82 127 128c40 53 60 100 60 140v8c-4 53 -22 81 -55 81h-2zM406 119l54 -326c73 25 110 78 110 161c0 7 0 15 -1 23c-7 95 -57 142 -151 142h-12 zM382 117c-72 -2 -128 -47 -128 -120v-7c2 -46 43 -99 75 -115c-3 -2 -7 -5 -10 -10c-70 33 -116 88 -123 172v11c0 68 44 126 88 159c23 17 49 29 78 36l-29 170c-21 -13 -52 -37 -92 -73c-50 -44 -86 -84 -109 -119c-45 -69 -67 -130 -67 -182v-13c5 -68 35 -127 93 -176 s125 -73 203 -73c25 0 50 3 75 9c-19 111 -36 221 -54 331z"/></g><g id="E083-a1rc1fgz"><path transform="scale(1,-1)" d="M208 250c97 0 177 -52 177 -116c0 -69 -40 -111 -118 -125c56 -5 125 -44 125 -116c0 -31 -10 -57 -31 -78c-19 -21 -45 -38 -78 -49l-50 -11c-15 -3 -36 -7 -55 -7c-50 0 -86 16 -113 38c-16 10 -23 18 -34 34c-7 13 -11 25 -11 38c0 43 27 83 68 83l3 -2 c61 0 75 -42 75 -70c0 -19 -24 -42 -26 -57c7 -17 20 -25 37 -25c44 0 94 29 94 78c0 75 -34 125 -138 125v36c84 0 131 22 131 98c0 54 -37 88 -87 88c-26 0 -43 -7 -51 -22c15 -22 44 -16 44 -70c0 -37 -37 -62 -71 -62c-22 0 -69 15 -69 76c0 79 101 116 178 116z"/></g><g id="E084-a1rc1fgz"><path transform="scale(1,-1)" d="M20 -78c84 97 114 180 134 329h170c-13 -32 -82 -132 -99 -151l-84 -97c-33 -36 -59 -63 -80 -81h162v102l127 123v-225h57v-39h-57v-34c0 -43 19 -65 57 -65v-34h-244v36c48 0 60 26 60 70v27h-203v39z"/></g><g id="E0A4-a1rc1fgz"><path transform="scale(1,-1)" d="M0 -39c0 68 73 172 200 172c66 0 114 -37 114 -95c0 -84 -106 -171 -218 -171c-64 0 -96 30 -96 94z"/></g><g id="E0A3-a1rc1fgz"><path transform="scale(1,-1)" d="M278 64c0 22 -17 39 -43 39c-12 0 -26 -3 -41 -10c-85 -43 -165 -94 -165 -156c5 -25 15 -32 49 -32c67 11 200 95 200 159zM0 -36c0 68 73 174 200 174c66 0 114 -39 114 -97c0 -84 -106 -173 -218 -173c-64 0 -96 32 -96 96z"/></g></defs><style type="text/css">#a1rc1fgz g.page-margin {font-family:Times,serif;}#a1rc1fgz g.ending, #a1rc1fgz g.fing, #a1rc1fgz g.reh, #a1rc1fgz g.tempo {font-weight:bold;}#a1rc1fgz g.dir, #a1rc1fgz g.dynam, #a1rc1fgz g.mNum {font-style:italic;}#a1rc1fgz g.label {font-weight:normal;}#a1rc1fgz path {stroke:currentColor}</style><svg class="definition-scale" color="black" viewBox="0 0 14000 2100"><g class="page-margin" transform="translate(0, 150)"><g data-id="c1vjhpwe" data-class="mdiv" class="mdiv pageMilestone"/><g data-id="djte5uw" data-class="score" class="score pageMilestone"/><g data-id="isolon6" data-class="system" class="system"><g data-id="ft1ofbw" data-class="section" class="section systemMilestone"/><g data-id="b4dl7nw" data-class="measure" class="measure"><g data-id="r1tzi2ui" data-class="staff" class="staff"><path d="M0 540 L3366 540" stroke-width="13"/><path d="M0 720 L3366 720" stroke-width="13"/><path d="M0 900 L3366 900" stroke-width="13"/><path d="M0 1080 L3366 1080" stroke-width="13"/><path d="M0 1260 L3366 1260" stroke-width="13"/><g data-id="qozicud" data-class="clef" class="clef"><use href="#E050-a1rc1fgz" transform="translate(90, 1080) scale(0.72, 0.72)"/></g><g data-id="r16dd42z" data-class="keySig" class="keySig"/><g data-id="sqlkcvo" data-class="meterSig" class="meterSig"><use href="#E083-a1rc1fgz" transform="translate(727, 720) scale(0.72, 0.72)"/><use href="#E084-a1rc1fgz" transform="translate(721, 1080) scale(0.72, 0.72)"/></g><g data-id="sv8lva2" data-class="layer" class="layer"><g data-id="u1oceff1" data-class="note" class="note"><g data-class="notehead" class="notehead"><use href="#E0A4-a1rc1fgz" transform="translate(1283, 1260) scale(0.72, 0.72)"/></g><g data-id="l1jbean6" data-class="stem" class="stem"><path d="M1500 1232 L1500 630" stroke-width="18"/></g></g><g data-id="v1e1dp5v" data-class="note" class="note"><g data-class="notehead" class="notehead"><use href="#E0A4-a1rc1fgz" transform="translate(1973, 1260) scale(0.72, 0.72)"/></g><g data-id="mohop5b" data-class="stem" class="stem"><path d="M2190 1232 L2190 630" stroke-width="18"/></g></g><g data-id="w1r32pqm" data-class="note" class="note"><g data-class="notehead" class="notehead"><use href="#E0A4-a1rc1fgz" transform="translate(2663, 1260) scale(0.72, 0.72)"/></g><g data-id="nm82h8e" data-class="stem" class="stem"><path d="M2880 1232 L2880 630" stroke-width="18"/></g></g></g></g><g data-id="jp8cice" data-class="barLine" class="barLine"><path d="M3353 540 L3353 1260" stroke-width="27"/></g></g><g data-id="k19auv9v" data-class="measure" class="measure"><g data-id="t1ovd4bc" data-class="staff" class="staff"><path d="M3366 540 L4899 540" stroke-width="13"/><path d="M3366 720 L4899 720" stroke-width="13"/><path d="M3366 900 L4899 900" stroke-width="13"/><path d="M3366 1080 L4899 1080" stroke-width="13"/><path d="M3366 1260 L4899 1260" stroke-width="13"/><g data-id="uy0d00u" data-class="layer" class="layer"><g data-id="x4u7sp8" data-class="note" class="note"><g data-class="notehead" class="notehead"><use href="#E0A3-a1rc1fgz" transform="translate(3546, 1260) scale(0.72, 0.72)"/></g><g data-id="puxblth" data-class="dots" class="dots"><ellipse cx="3862" cy="1170" rx="36" ry="36" fill-opacity="1" stroke-opacity="1"/></g><g data-id="oc6unsm" data-class="stem" class="stem"><path d="M3763 1232 L3763 630" stroke-width="18"/></g></g></g></g><g data-id="s10g6nia" data-class="barLine" class="barLine"><path d="M4886 540 L4886 1260" stroke-width="27"/></g></g><g data-id="t66pbl8" data-class="measure" class="measure"><g data-id="v1l1rzd1" data-class="staff" class="staff"><path d="M4899 540 L6432 540" stroke-width="13"/><path d="M4899 720 L6432 720" stroke-width="13"/><path d="M4899 900 L6432 900" stroke-width="13"/><path d="M4899 1080 L6432 1080" stroke-width="13"/><path d="M4899 1260 L6432 1260" stroke-width="13"/><g data-id="wo4j3dm" data-class="layer" class="layer"><g data-id="y1wabdeg" data-class="note" class="note"><g data-class="notehead" class="notehead"><use href="#E0A3-a1rc1fgz" transform="translate(5079, 1170) scale(0.72, 0.72)"/></g><g data-id="r14bur92" data-class="dots" class="dots"><ellipse cx="5395" cy="1170" rx="36" ry="36" fill-opacity="1" stroke-opacity="1"/></g><g data-id="q13xo1re" data-class="stem" class="stem"><path d="M5296 1142 L5296 540" stroke-width="18"/></g></g></g></g><g data-id="b1pd7v2d" data-class="barLine" class="barLine"><path d="M6419 540 L6419 1260" stroke-width="27"/></g></g><g data-id="cg3ezjk" data-class="measure" class="measure"><g data-id="xfssx2t" data-class="staff" class="staff"><path d="M6432 540 L7965 540" stroke-width="13"/><path d="M6432 720 L7965 720" stroke-width="13"/><path d="M6432 900 L7965 900" stroke-width="13"/><path d="M6432 1080 L7965 1080" stroke-width="13"/><path d="M6432 1260 L7965 1260" stroke-width="13"/><g data-id="y12n3fyq" data-class="layer" class="layer"><g data-id="z3t8jxa" data-class="note" class="note"><g data-class="notehead" class="notehead"><use href="#E0A3-a1rc1fgz" transform="translate(6612, 1170) scale(0.72, 0.72)"/></g><g data-id="tagvar8" data-class="dots" class="dots"><ellipse cx="6928" cy="1170" rx="36" ry="36" fill-opacity="1" stroke-opacity="1"/></g><g data-id="sbr6tr9" data-class="stem" class="stem"><path d="M6829 1142 L6829 540" stroke-width="18"/></g></g></g></g><g data-id="ksd5ukl" data-class="barLine" class="barLine"><path d="M7952 540 L7952 1260" stroke-width="27"/></g></g><g data-id="laz3q54" data-class="measure" class="measure"><g data-id="z1gboq5q" data-class="staff" class="staff"><path d="M7965 540 L9498 540" stroke-width="13"/><path d="M7965 720 L9498 720" stroke-width="13"/><path d="M7965 900 L9498 900" stroke-width="13"/><path d="M7965 1080 L9498 1080" stroke-width="13"/><path d="M7965 1260 L9498 1260" stroke-width="13"/><g data-id="a1lrolah" data-class="layer" class="layer"><g data-id="a13d69t0" data-class="note" class="note"><g data-class="notehead" class="notehead"><use href="#E0A3-a1rc1fgz" transform="translate(8145, 1260) scale(0.72, 0.72)"/></g><g data-id="v1k8ua27" data-class="dots" class="dots"><ellipse cx="8461" cy="1170" rx="36" ry="36" fill-opacity="1" stroke-opacity="1"/></g><g data-id="um2lj9g" data-class="stem" class="stem"><path d="M8362 1232 L8362 630" stroke-width="18"/></g></g></g></g><g data-id="t9zar55" data-class="barLine" class="barLine"><path d="M9485 540 L9485 1260" stroke-width="27"/></g></g><g data-id="i16cre97" data-class="systemMilestoneEnd" class="systemMilestoneEnd ft1ofbw"/></g><g data-id="jlcmbcu" data-class="pageMilestoneEnd" class="pageMilestoneEnd djte5uw"/><g data-id="k1mvvjup" data-class="pageMilestoneEnd" class="pageMilestoneEnd c1vjhpwe"/></g></svg></svg>