<svg viewBox="0 0 560 86" version="1.1" xmlns="http://www.w3.org/2000/svg" xmlns:xlink="http://www.w3.org/1999/xlink" overflow="visible" id="r6gmmmc"><desc>Engraved by Verovio 5.6.0-85e7620</desc><defs><g id="E050-r6gmmmc"><path transform="scale(1,-1)" d="M441 -245c-23 -4 -48 -6 -76 -6c-59 0 -102 7 -130 20c-88 42 -150 93 -187 154c-26 44 -43 103 -48 176c0 6 -1 13 -1 19c0 54 15 111 45 170c29 57 65 106 110 148s96 85 153 127c-3 16 -8 46 -13 92c-4 43 -5 73 -5 89c0 117 16 172 69 257c34 54 64 82 89 82 c21 0 43 -30 69 -92s39 -115 41 -159v-15c0 -109 -21 -162 -67 -241c-13 -20 -63 -90 -98 -118c-13 -9 -25 -19 -37 -29l31 -181c8 1 18 2 28 2c58 0 102 -12 133 -35c59 -43 92 -104 98 -184c1 -7 1 -15 1 -22c0 -123 -87 -209 -181 -248c8 -57 17 -110 25 -162 c5 -31 6 -58 6 -80c0 -30 -5 -53 -14 -70c-35 -64 -88 -99 -158 -103c-5 0 -11 -1 -16 -1c-37 0 -72 10 -108 27c-50 24 -77 59 -80 105v11c0 29 7 55 20 76c18 28 45 42 79 44h6c49 0 93 -42 97 -87v-9c0 -51 -34 -86 -105 -106c17 -24 51 -36 102 -36c62 0 116 43 140 85 c9 16 13 41 13 74c0 20 -1 42 -5 67c-8 53 -18 106 -26 159zM461 939c-95 0 -135 -175 -135 -286c0 -24 2 -48 5 -71c50 39 92 82 127 128c40 53 60 100 60 140v8c-4 53 -22 81 -55 81h-2zM406 119l54 -326c73 25 110 78 110 161c0 7 0 15 -1 23c-7 95 -57 142 -151 142h-12 zM382 117c-72 -2 -128 -47 -128 -120v-7c2 -46 43 -99 75 -115c-3 -2 -7 -5 -10 -10c-70 33 -116 88 -123 172v11c0 68 44 126 88 159c23 17 49 29 78 36l-29 170c-21 -13 -52 -37 -92 -73c-50 -44 -86 -84 -109 -119c-45 -69 -67 -130 -67 -182v-13c5 -68 35 -127 93 -176 s125 -73 203 -73c25 0 50 3 75 9c-19 111 -36 221 -54 331z"/></g><g id="E262-r6gmmmc"><path transform="scale(1,-1)" d="M136 186v169h17v-164l44 14v-91l-44 -14v-165l44 12v-91l-44 -13v-155h-17v150l-76 -22v-155h-17v149l-43 -13v90l43 14v167l-43 -14v92l43 13v169h17v-163zM60 73v-167l76 22v168z"/></g><g id="E08A-r6gmmmc"><path transform="scale(1,-1)" d="M340 179c-9 24 -56 41 -89 41c-46 0 -81 -28 -100 -58c-17 -28 -25 -78 -25 -150c0 -65 2 -111 8 -135c8 -31 18 -49 40 -67c20 -17 43 -25 70 -25c54 0 92 36 115 75c14 25 23 54 28 88h27c0 -63 -24 -105 -58 -141c-35 -38 -82 -56 -140 -56c-45 0 -83 13 -115 39 c-57 45 -101 130 -101 226c0 59 33 127 68 163c36 37 97 72 160 72c36 0 93 -21 121 -40c11 -8 23 -17 33 -30c19 -23 27 -48 27 -76c0 -51 -35 -88 -86 -88c-43 0 -76 27 -76 68c0 26 7 35 21 51c15 17 32 27 58 32c7 2 14 7 14 11z"/></g><g id="E0A3-r6gmmmc"><path transform="scale(1,-1)" d="M278 64c0 22 -17 39 -43 39c-12 0 -26 -3 -41 -10c-85 -43 -165 -94 -165 -156c5 -25 15 -32 49 -32c67 11 200 95 200 159zM0 -36c0 68 73 174 200 174c66 0 114 -39 114 -97c0 -84 -106 -173 -218 -173c-64 0 -96 32 -96 96z"/></g><g id="E0A4-r6gmmmc"><path transform="scale(1,-1)" d="M0 -39c0 68 73 172 200 172c66 0 114 -37 114 -95c0 -84 -106 -171 -218 -171c-64 0 -96 30 -96 94z"/></g><g id="E240-r6gmmmc"><path transform="scale(1,-1)" d="M179 -646c15 29 29 55 46 102c18 49 30 108 30 138c0 105 -80 173 -168 200c-18 5 -47 9 -87 16v190h22c8 0 33 -61 71 -95c4 -3 -2 3 61 -56c62 -58 122 -137 122 -241c0 -38 -13 -106 -35 -163c-20 -51 -43 -99 -66 -132c-6 -5 -10 -7 -13 -7s-5 2 -5 5l4 10 c1 3 14 25 18 33z"/></g></defs><style type="text/css">#r6gmmmc g.page-margin {font-family:Times,serif;}#r6gmmmc g.ending, #r6gmmmc g.fing, #r6gmmmc g.reh, #r6gmmmc g.tempo {font-weight:bold;}#r6gmmmc g.dir, #r6gmmmc g.dynam, #r6gmmmc g.mNum {font-style:italic;}#r6gmmmc g.label {font-weight:normal;}#r6gmmmc path {stroke:currentColor}</style><svg class="definition-scale" color="black" viewBox="0 0 14000 2130"><g class="page-margin" transform="translate(0, 150)"><g data-id="pbqqxql" data-class="mdiv" class="mdiv pageMilestone"/><g data-id="q1sb95u9" data-class="score" class="score pageMilestone"/><g data-id="bh0w09s" data-class="system" class="system"><g data-id="srmkof4" data-class="section" class="section systemMilestone"/><g data-id="s1g5fmo0" data-class="measure" class="measure"><g data-id="e1uelgwa" data-class="staff" class="staff"><path d="M0 571 L3915 571" stroke-width="13"/><path d="M0 751 L3915 751" stroke-width="13"/><path d="M0 931 L3915 931" stroke-width="13"/><path d="M0 1111 L3915 1111" stroke-width="13"/><path d="M0 1291 L3915 1291" stroke-width="13"/><g data-id="h1wz72x" data-class="clef" class="clef"><use href="#E050-r6gmmmc" transform="translate(90, 1111) scale(0.72, 0.72)"/></g><g data-id="iqjcaz1" data-class="keySig" class="keySig"><g data-id="j1sc6ca0" data-class="keyAccid" class="keyAccid"><use href="#E262-r6gmmmc" transform="translate(735, 571) scale(0.72, 0.72)"/></g><g data-id="k1qjidv5" data-class="keyAccid" class="keyAccid"><use href="#E262-r6gmmmc" transform="translate(913, 841) scale(0.72, 0.72)"/></g></g><g data-id="l1tfuspl" data-class="meterSig" class="meterSig"><use href="#E08A-r6gmmmc" transform="translate(1234, 931) scale(0.72, 0.72)"/></g><g data-id="f1bcwf4t" data-class="layer" class="layer"><g data-id="tt8l56x" data-class="note" class="note"><g data-class="notehead" class="notehead"><use href="#E0A3-r6gmmmc" transform="translate(1802, 1021) scale(0.72, 0.72)"/></g><g data-id="w30m9pe" data-class="stem" class="stem"><path d="M2019 993 L2019 391" stroke-width="18"/></g></g><g data-id="ujqp4ls" data-class="note" class="note"><g data-class="notehead" class="notehead"><use href="#E0A3-r6gmmmc" transform="translate(2852, 751) scale(0.72, 0.72)"/></g><g data-id="xy28lsr" data-class="stem" class="stem"><path d="M2861 776 L2861 1381" stroke-width="18"/></g></g></g></g><g data-id="ajhtjv3" data-class="barLine" class="barLine"><path d="M3902 571 L3902 1291" stroke-width="27"/></g></g><g data-id="b4z95t2" data-class="measure" class="measure"><g data-id="g124h9nc" data-class="staff" class="staff"><path d="M3915 571 L6950 571" stroke-width="13"/><path d="M3915 751 L6950 751" stroke-width="13"/><path d="M3915 931 L6950 931" stroke-width="13"/><path d="M3915 1111 L6950 1111" stroke-width="13"/><path d="M3915 1291 L6950 1291" stroke-width="13"/><g data-id="h1lsmzv2" data-class="layer" class="layer"><g data-id="gt4ct5x" data-class="beam" class="beam"><polygon stroke-opacity="1" fill-opacity="1" points="4095,1471 5589,1291 5589,1201 4095,1381"/><polygon stroke-opacity="1" fill-opacity="1" points="4458,1291 4684,1265 4684,1175 4458,1201"/><polygon stroke-opacity="1" fill-opacity="1" points="5363,1181 5589,1156 5589,1066 5363,1091"/><g data-id="v1yn38ar" data-class="note" class="note"><g data-class="notehead" class="notehead"><use href="#E0A4-r6gmmmc" transform="translate(4095, 841) scale(0.72, 0.72)"/></g><g data-id="z1svqswh" data-class="dots" class="dots"><ellipse cx="4411" cy="841" rx="36" ry="36" fill-opacity="1" stroke-opacity="1"/></g><g data-id="yec4ywu" data-class="stem" class="stem"><path d="M4104 869 L4104 1453" stroke-width="18"/></g><g data-id="i1sqh8zs" data-class="accid" class="accid"/></g><g data-id="wgjfesz" data-class="note" class="note"><g data-class="notehead" class="notehead"><use href="#E0A4-r6gmmmc" transform="translate(4675, 751) scale(0.72, 0.72)"/></g><g data-id="a1xijo41" data-class="stem" class="stem"><path d="M4684 779 L4684 1382" stroke-width="18"/></g></g><g data-id="x1g8mm0" data-class="note" class="note"><g data-class="notehead" class="notehead"><use href="#E0A4-r6gmmmc" transform="translate(4991, 661) scale(0.72, 0.72)"/></g><g data-id="cp0ac1s" data-class="dots" class="dots"><ellipse cx="5307" cy="661" rx="36" ry="36" fill-opacity="1" stroke-opacity="1"/></g><g data-id="b1ehr15g" data-class="stem" class="stem"><path d="M5000 689 L5000 1343" stroke-width="18"/></g></g><g data-id="ynw8os" data-class="note" class="note"><g data-class="notehead" class="notehead"><use href="#E0A4-r6gmmmc" transform="translate(5571, 571) scale(0.72, 0.72)"/></g><g data-id="d1qjl6rd" data-class="stem" class="stem"><path d="M5580 599 L5580 1273" stroke-width="18"/></g><g data-id="j1myvfc9" data-class="accid" class="accid"/></g></g><g data-id="zcbqgip" data-class="note" class="note"><g data-class="notehead" class="notehead"><use href="#E0A3-r6gmmmc" transform="translate(5887, 481) scale(0.72, 0.72)"/></g><g data-id="exsmiui" data-class="stem" class="stem"><path d="M5896 506 L5896 1111" stroke-width="18"/></g></g></g></g><g data-id="jxn3ahp" data-class="barLine" class="barLine"><path d="M6937 571 L6937 1291" stroke-width="27"/></g></g><g data-id="k1lm7a14" data-class="measure" class="measure"><g data-id="i1rkhtqz" data-class="staff" class="staff"><path d="M6950 571 L10123 571" stroke-width="13"/><path d="M6950 751 L10123 751" stroke-width="13"/><path d="M6950 931 L10123 931" stroke-width="13"/><path d="M6950 1111 L10123 1111" stroke-width="13"/><path d="M6950 1291 L10123 1291" stroke-width="13"/><g data-class="ledgerLines" class="ledgerLines above cue"><g data-class="lineDash" class="lineDash" data-related="#dtmv8u1"><path d="M8793 391 L9033 391" stroke-width="16"/></g></g><g data-id="jtlqkr0" data-class="layer" class="layer"><g data-id="aae8fwd" data-class="note" class="note"><g data-class="notehead" class="notehead"><use href="#E0A4-r6gmmmc" transform="translate(7130, 571) scale(0.72, 0.72)"/></g><g data-id="f1e16gdp" data-class="stem" class="stem"><path d="M7139 599 L7139 1201" stroke-width="18"/></g><g data-id="k1xujadg" data-class="accid" class="accid"/></g><g data-id="b1z0hp1c" data-class="note" class="note"><g data-class="notehead" class="notehead"><use href="#E0A4-r6gmmmc" transform="translate(7820, 571) scale(0.72, 0.72)"/></g><g data-id="g7hlm51" data-class="stem" class="stem"><path d="M7829 599 L7829 1201" stroke-width="18"/></g><g data-id="l1x296xe" data-class="accid" class="accid"/></g><g data-id="c13kspdo" data-class="note" class="note"><g data-class="notehead" class="notehead"><use href="#E0A4-r6gmmmc" transform="translate(8510, 571) scale(0.72, 0.72)"/></g><g data-id="h1phgliq" data-class="stem" class="stem"><path d="M8519 599 L8519 1201" stroke-width="18"/></g><g data-id="m1oemjzs" data-class="accid" class="accid"/></g><g data-id="dtmv8u1" data-class="note" class="note"><g data-class="notehead" class="notehead"><use href="#E0A4-r6gmmmc" transform="translate(8829, 391) scale(0.54, 0.54)"/></g><g data-id="i1yr1ytf" data-class="stem" class="stem"><path d="M8989 370 L8989 9" stroke-width="18"/><path d="M8922 277 L9123 76" stroke-width="21"/><g data-id="js5ao1w" data-class="flag" class="flag"><use href="#E240-r6gmmmc" transform="translate(8980, 9) scale(0.54, 0.54)"/></g></g></g><g data-id="h1lc5ehx" data-class="beam" class="beam"><polygon stroke-opacity="1" fill-opacity="1" points="9200,1111 9798,1201 9798,1111 9200,1021"/><polygon stroke-opacity="1" fill-opacity="1" points="9572,1033 9798,1066 9798,976 9572,943"/><g data-id="e1dnb1ly" data-class="note" class="note"><g data-class="notehead" class="notehead"><use href="#E0A4-r6gmmmc" transform="translate(9200, 481) scale(0.72, 0.72)"/></g><g data-id="l51cp2g" data-class="dots" class="dots"><ellipse cx="9516" cy="481" rx="36" ry="36" fill-opacity="1" stroke-opacity="1"/></g><g data-id="klfn58i" data-class="stem" class="stem"><path d="M9209 509 L9209 1093" stroke-width="18"/></g></g><g data-id="f3j53vn" data-class="note" class="note"><g data-class="notehead" class="notehead"><use href="#E0A4-r6gmmmc" transform="translate(9780, 571) scale(0.72, 0.72)"/></g><g data-id="m2ail35" data-class="stem" class="stem"><path d="M9789 599 L9789 1183" stroke-width="18"/></g><g data-id="n7vet73" data-class="accid" class="accid"/></g></g></g></g><g data-id="s1e07gyo" data-class="barLine" class="barLine"><path d="M10110 571 L10110 1291" stroke-width="27"/></g></g><g data-id="rcn8pkr" data-class="systemMilestoneEnd" class="systemMilestoneEnd srmkof4"/></g><g data-id="s69auf" data-class="pageMilestoneEnd" class="pageMilestoneEnd q1sb95u9"/><g data-id="tf6aftb" data-class="pageMilestoneEnd" class="pageMilestoneEnd pbqqxql"/></g></svg></svg>