<svg viewBox="0 0 560 84" version="1.1" xmlns="http://www.w3.org/2000/svg" xmlns:xlink="http://www.w3.org/1999/xlink" overflow="visible" id="i1ol3hpj"><desc>Engraved by Verovio 5.6.0-85e7620</desc><defs><g id="E050-i1ol3hpj"><path transform="scale(1,-1)" d="M441 -245c-23 -4 -48 -6 -76 -6c-59 0 -102 7 -130 20c-88 42 -150 93 -187 154c-26 44 -43 103 -48 176c0 6 -1 13 -1 19c0 54 15 111 45 170c29 57 65 106 110 148s96 85 153 127c-3 16 -8 46 -13 92c-4 43 -5 73 -5 89c0 117 16 172 69 257c34 54 64 82 89 82 c21 0 43 -30 69 -92s39 -115 41 -159v-15c0 -109 -21 -162 -67 -241c-13 -20 -63 -90 -98 -118c-13 -9 -25 -19 -37 -29l31 -181c8 1 18 2 28 2c58 0 102 -12 133 -35c59 -43 92 -104 98 -184c1 -7 1 -15 1 -22c0 -123 -87 -209 -181 -248c8 -57 17 -110 25 -162 c5 -31 6 -58 6 -80c0 -30 -5 -53 -14 -70c-35 -64 -88 -99 -158 -103c-5 0 -11 -1 -16 -1c-37 0 -72 10 -108 27c-50 24 -77 59 -80 105v11c0 29 7 55 20 76c18 28 45 42 79 44h6c49 0 93 -42 97 -87v-9c0 -51 -34 -86 -105 -106c17 -24 51 -36 102 -36c62 0 116 43 140 85 c9 16 13 41 13 74c0 20 -1 42 -5 67c-8 53 -18 106 -26 159zM461 939c-95 0 -135 -175 -135 -286c0 -24 2 -48 5 -71c50 39 92 82 127 128c40 53 60 100 60 140v8c-4 53 -22 81 -55 81h-2zM406 119l54 -326c73 25 110 78 110 161c0 7 0 15 -1 23c-7 95 -57 142 -151 142h-12 zM382 117c-72 -2 -128 -47 -128 -120v-7c2 -46 43 -99 75 -115c-3 -2 -7 -5 -10 -10c-70 33 -116 88 -123 172v11c0 68 44 126 88 159c23 17 49 29 78 36l-29 170c-21 -13 -52 -37 -92 -73c-50 -44 -86 -84 -109 -119c-45 -69 -67 -130 -67 -182v-13c5 -68 35 -127 93 -176 s125 -73 203 -73c25 0 50 3 75 9c-19 111 -36 221 -54 331z"/></g><g id="E260-i1ol3hpj"><path transform="scale(1,-1)" d="M20 110c32 16 54 27 93 27c26 0 35 -3 54 -13c13 -7 24 -20 27 -38l4 -25c0 -28 -16 -57 -45 -89c-23 -25 -39 -44 -65 -68l-88 -79v644h20v-359zM90 106c-32 0 -48 -10 -70 -29v-194c31 31 54 59 71 84c21 32 32 59 32 84c0 9 1 16 1 20c0 14 -3 21 -11 30l-8 3z"/></g><g id="E08A-i1ol3hpj"><path transform="scale(1,-1)" d="M340 179c-9 24 -56 41 -89 41c-46 0 -81 -28 -100 -58c-17 -28 -25 -78 -25 -150c0 -65 2 -111 8 -135c8 -31 18 -49 40 -67c20 -17 43 -25 70 -25c54 0 92 36 115 75c14 25 23 54 28 88h27c0 -63 -24 -105 -58 -141c-35 -38 -82 -56 -140 -56c-45 0 -83 13 -115 39 c-57 45 -101 130 -101 226c0 59 33 127 68 163c36 37 97 72 160 72c36 0 93 -21 121 -40c11 -8 23 -17 33 -30c19 -23 27 -48 27 -76c0 -51 -35 -88 -86 -88c-43 0 -76 27 -76 68c0 26 7 35 21 51c15 17 32 27 58 32c7 2 14 7 14 11z"/></g><g id="E0A3-i1ol3hpj"><path transform="scale(1,-1)" d="M278 64c0 22 -17 39 -43 39c-12 0 -26 -3 -41 -10c-85 -43 -165 -94 -165 -156c5 -25 15 -32 49 -32c67 11 200 95 200 159zM0 -36c0 68 73 174 200 174c66 0 114 -39 114 -97c0 -84 -106 -173 -218 -173c-64 0 -96 32 -96 96z"/></g><g id="E0A4-i1ol3hpj"><path transform="scale(1,-1)" d="M0 -39c0 68 73 172 200 172c66 0 114 -37 114 -95c0 -84 -106 -171 -218 -171c-64 0 -96 30 -96 94z"/></g></defs><style type="text/css">#i1ol3hpj g.page-margin {font-family:Times,serif;}#i1ol3hpj g.ending, #i1ol3hpj g.fing, #i1ol3hpj g.reh, #i1ol3hpj g.tempo {font-weight:bold;}#i1ol3hpj g.dir, #i1ol3hpj g.dynam, #i1ol3hpj g.mNum {font-style:italic;}#i1ol3hpj g.label {font-weight:normal;}#i1ol3hpj path {stroke:currentColor}</style><svg class="definition-scale" color="black" viewBox="0 0 14000 2100"><g class="page-margin" transform="translate(0, 150)"><g data-id="q485awu" data-class="mdiv" class="mdiv pageMilestone"/><g data-id="r1cx2hcy" data-class="score" class="score pageMilestone"/><g data-id="s1t72v07" data-class="system" class="system"><g data-id="t1wz1bxq" data-class="section" class="section systemMilestone"/><g data-id="jyihq9x" data-class="measure" class="measure"><g data-id="fo7hgtg" data-class="staff" class="staff"><path d="M0 540 L4512 540" stroke-width="13"/><path d="M0 720 L4512 720" stroke-width="13"/><path d="M0 900 L4512 900" stroke-width="13"/><path d="M0 1080 L4512 1080" stroke-width="13"/><path d="M0 1260 L4512 1260" stroke-width="13"/><g data-id="xcneywx" data-class="clef" class="clef"><use href="#E050-i1ol3hpj" transform="translate(90, 1080) scale(0.72, 0.72)"/></g><g data-id="y78oyp4" data-class="keySig" class="keySig"><g data-id="z7iqonf" data-class="keyAccid" class="keyAccid"><use href="#E260-i1ol3hpj" transform="translate(735, 900) scale(0.72, 0.72)"/></g><g data-id="avdutqa" data-class="keyAccid" class="keyAccid"><use href="#E260-i1ol3hpj" transform="translate(915, 630) scale(0.72, 0.72)"/></g><g data-id="bwt31vp" data-class="keyAccid" class="keyAccid"><use href="#E260-i1ol3hpj" transform="translate(1095, 990) scale(0.72, 0.72)"/></g></g><g data-id="c9hxx6s" data-class="meterSig" class="meterSig"><use href="#E08A-i1ol3hpj" transform="translate(1417, 900) scale(0.72, 0.72)"/></g><g data-id="g1xjl03n" data-class="layer" class="layer"><g data-id="tfepb1r" data-class="note" class="note"><g data-class="notehead" class="notehead"><use href="#E0A3-i1ol3hpj" transform="translate(2018, 1260) scale(0.72, 0.72)"/></g><g data-id="a1xi9n6p" data-class="stem" class="stem"><path d="M2235 1232 L2235 630" stroke-width="18"/></g><g data-id="i1bv7nc8" data-class="accid" class="accid"/></g><g data-id="u5k2exz" data-class="note" class="note"><g data-class="notehead" class="notehead"><use href="#E0A3-i1ol3hpj" transform="translate(3259, 1080) scale(0.72, 0.72)"/></g><g data-id="b163d10f" data-class="stem" class="stem"><path d="M3476 1052 L3476 450" stroke-width="18"/></g></g></g></g><g data-id="r13mqoug" data-class="barLine" class="barLine"><path d="M4499 540 L4499 1260" stroke-width="27"/></g></g><g data-id="snypm1g" data-class="measure" class="measure"><g data-id="h128cj78" data-class="staff" class="staff"><path d="M4512 540 L7609 540" stroke-width="13"/><path d="M4512 720 L7609 720" stroke-width="13"/><path d="M4512 900 L7609 900" stroke-width="13"/><path d="M4512 1080 L7609 1080" stroke-width="13"/><path d="M4512 1260 L7609 1260" stroke-width="13"/><g data-id="iin5jh4" data-class="layer" class="layer"><g data-id="vce8opm" data-class="note" class="note"><g data-class="notehead" class="notehead"><use href="#E0A3-i1ol3hpj" transform="translate(4725, 900) scale(0.72, 0.72)"/></g><g data-id="cqk2uvu" data-class="stem" class="stem"><path d="M4734 925 L4734 1500" stroke-width="18"/></g><g data-id="j1b8r7l9" data-class="accid" class="accid"/></g><g data-id="wc4vytx" data-class="note" class="note"><g data-class="notehead" class="notehead"><use href="#E0A4-i1ol3hpj" transform="translate(5966, 630) scale(0.72, 0.72)"/></g><g data-id="d17sjpa8" data-class="stem" class="stem"><path d="M5975 658 L5975 1260" stroke-width="18"/></g><g data-id="kay7th5" data-class="accid" class="accid"/></g><g data-id="x1d0rr50" data-class="note" class="note"><g data-class="notehead" class="notehead"><use href="#E0A4-i1ol3hpj" transform="translate(6781, 900) scale(0.72, 0.72)"/></g><g data-id="eo3nken" data-class="stem" class="stem"><path d="M6790 928 L6790 1500" stroke-width="18"/></g><g data-id="lsp12on" data-class="accid" class="accid"/></g></g></g><g data-id="a1q9gzcx" data-class="barLine" class="barLine"><path d="M7596 540 L7596 1260" stroke-width="27"/></g></g><g data-id="b1op6qd5" data-class="measure" class="measure"><g data-id="jlm1ukt" data-class="staff" class="staff"><path d="M7609 540 L12159 540" stroke-width="13"/><path d="M7609 720 L12159 720" stroke-width="13"/><path d="M7609 900 L12159 900" stroke-width="13"/><path d="M7609 1080 L12159 1080" stroke-width="13"/><path d="M7609 1260 L12159 1260" stroke-width="13"/><g data-id="kavzs9k" data-class="layer" class="layer"><g data-id="y12mw9k1" data-class="note" class="note"><g data-class="notehead" class="notehead"><use href="#E0A4-i1ol3hpj" transform="translate(7822, 810) scale(0.72, 0.72)"/></g><g data-id="f1dl1f4w" data-class="stem" class="stem"><path d="M7831 838 L7831 1440" stroke-width="18"/></g></g><g data-id="ghoe6a5" data-class="beam" class="beam"><polygon stroke-opacity="1" fill-opacity="1" points="8637,1530 9470,1440 9470,1350 8637,1440"/><g data-id="z17q2d4q" data-class="note" class="note"><g data-class="notehead" class="notehead"><use href="#E0A4-i1ol3hpj" transform="translate(8637, 900) scale(0.72, 0.72)"/></g><g data-id="gy0bt8x" data-class="stem" class="stem"><path d="M8646 928 L8646 1512" stroke-width="18"/></g><g data-id="m175qcmf" data-class="accid" class="accid"/></g><g data-id="a1bdavxu" data-class="note" class="note"><g data-class="notehead" class="notehead"><use href="#E0A4-i1ol3hpj" transform="translate(9452, 810) scale(0.72, 0.72)"/></g><g data-id="hdfjrdy" data-class="stem" class="stem"><path d="M9461 838 L9461 1422" stroke-width="18"/></g></g></g><g data-id="bcik7cx" data-class="note" class="note"><g data-class="notehead" class="notehead"><use href="#E0A4-i1ol3hpj" transform="translate(10268, 720) scale(0.72, 0.72)"/></g><g data-id="ir7prq1" data-class="stem" class="stem"><path d="M10277 748 L10277 1350" stroke-width="18"/></g></g><g data-id="h1xfs9as" data-class="beam" class="beam"><polygon stroke-opacity="1" fill-opacity="1" points="11083,1485 11632,1440 11632,1350 11083,1395"/><g data-id="c1123e9u" data-class="note" class="note"><g data-class="notehead" class="notehead"><use href="#E0A4-i1ol3hpj" transform="translate(11083, 810) scale(0.72, 0.72)"/></g><g data-id="jzz50yg" data-class="stem" class="stem"><path d="M11092 838 L11092 1467" stroke-width="18"/></g></g><g data-id="d1ow0r1y" data-class="note" class="note"><g data-class="notehead" class="notehead"><use href="#E0A4-i1ol3hpj" transform="translate(11614, 720) scale(0.72, 0.72)"/></g><g data-id="kuxu0d0" data-class="stem" class="stem"><path d="M11623 748 L11623 1422" stroke-width="18"/></g></g></g></g></g><g data-id="j16wd5sd" data-class="barLine" class="barLine"><path d="M12146 540 L12146 1260" stroke-width="27"/></g></g><g data-id="kw6jtth" data-class="measure" class="measure"><g data-id="lfobokv" data-class="staff" class="staff"><path d="M12159 540 L14002 540" stroke-width="13"/><path d="M12159 720 L14002 720" stroke-width="13"/><path d="M12159 900 L14002 900" stroke-width="13"/><path d="M12159 1080 L14002 1080" stroke-width="13"/><path d="M12159 1260 L14002 1260" stroke-width="13"/><g data-id="muhir4f" data-class="layer" class="layer"><g data-id="e1qiidkc" data-class="note" class="note"><g data-class="notehead" class="notehead"><use href="#E0A4-i1ol3hpj" transform="translate(12372, 630) scale(0.72, 0.72)"/></g><g data-id="l10jhrj2" data-class="stem" class="stem"><path d="M12381 658 L12381 1260" stroke-width="18"/></g><g data-id="n1m4eecy" data-class="accid" class="accid"/></g><g data-id="f1cm7b6b" data-class="note" class="note"><g data-class="notehead" class="notehead"><use href="#E0A4-i1ol3hpj" transform="translate(13187, 900) scale(0.72, 0.72)"/></g><g data-id="m1jgjm4y" data-class="stem" class="stem"><path d="M13196 928 L13196 1500" stroke-width="18"/></g><g data-id="o1vinjsj" data-class="accid" class="accid"/></g></g></g><g data-id="sxsxj9q" data-class="barLine" class="barLine"/></g><g data-id="u34jbfg" data-class="systemMilestoneEnd" class="systemMilestoneEnd t1wz1bxq"/></g><g data-id="v1x80set" data-class="pageMilestoneEnd" class="pageMilestoneEnd r1cx2hcy"/><g data-id="w1ya1nsr" data-class="pageMilestoneEnd" class="pageMilestoneEnd q485awu"/></g></svg></svg>