<svg viewBox="0 0 560 84" version="1.1" xmlns="http://www.w3.org/2000/svg" xmlns:xlink="http://www.w3.org/1999/xlink" overflow="visible" id="y1le8hoz"><desc>Engraved by Verovio 5.6.0-85e7620</desc><defs><g id="E050-y1le8hoz"><path transform="scale(1,-1)" d="M441 -245c-23 -4 -48 -6 -76 -6c-59 0 -102 7 -130 20c-88 42 -150 93 -187 154c-26 44 -43 103 -48 176c0 6 -1 13 -1 19c0 54 15 111 45 170c29 57 65 106 110 148s96 85 153 127c-3 16 -8 46 -13 92c-4 43 -5 73 -5 89c0 117 16 172 69 257c34 54 64 82 89 82 c21 0 43 -30 69 -92s39 -115 41 -159v-15c0 -109 -21 -162 -67 -241c-13 -20 -63 -90 -98 -118c-13 -9 -25 -19 -37 -29l31 -181c8 1 18 2 28 2c58 0 102 -12 133 -35c59 -43 92 -104 98 -184c1 -7 1 -15 1 -22c0 -123 -87 -209 -181 -248c8 -57 17 -110 25 -162 c5 -31 6 -58 6 -80c0 -30 -5 -53 -14 -70c-35 -64 -88 -99 -158 -103c-5 0 -11 -1 -16 -1c-37 0 -72 10 -108 27c-50 24 -77 59 -80 105v11c0 29 7 55 20 76c18 28 45 42 79 44h6c49 0 93 -42 97 -87v-9c0 -51 -34 -86 -105 -106c17 -24 51 -36 102 -36c62 0 116 43 140 85 c9 16 13 41 13 74c0 20 -1 42 -5 67c-8 53 -18 106 -26 159zM461 939c-95 0 -135 -175 -135 -286c0 -24 2 -48 5 -71c50 39 92 82 127 128c40 53 60 100 60 140v8c-4 53 -22 81 -55 81h-2zM406 119l54 -326c73 25 110 78 110 161c0 7 0 15 -1 23c-7 95 -57 142 -151 142h-12 zM382 117c-72 -2 -128 -47 -128 -120v-7c2 -46 43 -99 75 -115c-3 -2 -7 -5 -10 -10c-70 33 -116 88 -123 172v11c0 68 44 126 88 159c23 17 49 29 78 36l-29 170c-21 -13 -52 -37 -92 -73c-50 -44 -86 -84 -109 -119c-45 -69 -67 -130 -67 -182v-13c5 -68 35 -127 93 -176 s125 -73 203 -73c25 0 50 3 75 9c-19 111 -36 221 -54 331z"/></g><g id="E262-y1le8hoz"><path transform="scale(1,-1)" d="M136 186v169h17v-164l44 14v-91l-44 -14v-165l44 12v-91l-44 -13v-155h-17v150l-76 -22v-155h-17v149l-43 -13v90l43 14v167l-43 -14v92l43 13v169h17v-163zM60 73v-167l76 22v168z"/></g><g id="E08A-y1le8hoz"><path transform="scale(1,-1)" d="M340 179c-9 24 -56 41 -89 41c-46 0 -81 -28 -100 -58c-17 -28 -25 -78 -25 -150c0 -65 2 -111 8 -135c8 -31 18 -49 40 -67c20 -17 43 -25 70 -25c54 0 92 36 115 75c14 25 23 54 28 88h27c0 -63 -24 -105 -58 -141c-35 -38 -82 -56 -140 -56c-45 0 -83 13 -115 39 c-57 45 -101 130 -101 226c0 59 33 127 68 163c36 37 97 72 160 72c36 0 93 -21 121 -40c11 -8 23 -17 33 -30c19 -23 27 -48 27 -76c0 -51 -35 -88 -86 -88c-43 0 -76 27 -76 68c0 26 7 35 21 51c15 17 32 27 58 32c7 2 14 7 14 11z"/></g><g id="E0A4-y1le8hoz"><path transform="scale(1,-1)" d="M0 -39c0 68 73 172 200 172c66 0 114 -37 114 -95c0 -84 -106 -171 -218 -171c-64 0 -96 30 -96 94z"/></g><g id="E241-y1le8hoz"><path transform="scale(1,-1)" d="M179 646c-4 8 -17 30 -18 33l-4 10c0 3 2 5 5 5s7 -2 13 -7c23 -33 46 -81 66 -132c22 -57 35 -125 35 -163c0 -104 -60 -183 -122 -241c-63 -59 -57 -53 -61 -56c-38 -34 -63 -95 -71 -95h-22v190c40 7 69 11 87 16c88 27 168 95 168 200c0 30 -12 89 -30 138 c-17 47 -31 73 -46 102z"/></g></defs><style type="text/css">#y1le8hoz g.page-margin {font-family:Times,serif;}#y1le8hoz g.ending, #y1le8hoz g.fing, #y1le8hoz g.reh, #y1le8hoz g.tempo {font-weight:bold;}#y1le8hoz g.dir, #y1le8hoz g.dynam, #y1le8hoz g.mNum {font-style:italic;}#y1le8hoz g.label {font-weight:normal;}#y1le8hoz path {stroke:currentColor}</style><svg class="definition-scale" color="black" viewBox="0 0 14000 2100"><g class="page-margin" transform="translate(0, 150)"><g data-id="vlfmvwo" data-class="mdiv" class="mdiv pageMilestone"/><g data-id="w1xqckgb" data-class="score" class="score pageMilestone"/><g data-id="r5wic32" data-class="system" class="system"><g data-id="y197na7d" data-class="section" class="section systemMilestone"/><g data-id="zn30uev" data-class="measure" class="measure"><g data-id="k7fdr88" data-class="staff" class="staff"><path d="M0 540 L2691 540" stroke-width="13"/><path d="M0 720 L2691 720" stroke-width="13"/><path d="M0 900 L2691 900" stroke-width="13"/><path d="M0 1080 L2691 1080" stroke-width="13"/><path d="M0 1260 L2691 1260" stroke-width="13"/><g data-id="r7wdygf" data-class="clef" class="clef"><use href="#E050-y1le8hoz" transform="translate(90, 1080) scale(0.72, 0.72)"/></g><g data-id="sz02p7i" data-class="keySig" class="keySig"><g data-id="t1oh5hyp" data-class="keyAccid" class="keyAccid"><use href="#E262-y1le8hoz" transform="translate(735, 540) scale(0.72, 0.72)"/></g><g data-id="u1wsf34z" data-class="keyAccid" class="keyAccid"><use href="#E262-y1le8hoz" transform="translate(913, 810) scale(0.72, 0.72)"/></g></g><g data-id="v3bnwnc" data-class="meterSig" class="meterSig"><use href="#E08A-y1le8hoz" transform="translate(1234, 900) scale(0.72, 0.72)"/></g><g data-id="l1m5dkng" data-class="layer" class="layer"><g data-id="t1ko3pr8" data-class="note" class="note"><g data-class="notehead" class="notehead"><use href="#E0A4-y1le8hoz" transform="translate(1815, 1170) scale(0.72, 0.72)"/></g><g data-id="g1h3pji5" data-class="stem" class="stem"><path d="M2032 1142 L2032 540" stroke-width="18"/></g><g data-id="oxzvs5r" data-class="accid" class="accid"/></g></g></g><g data-id="h1ibhf38" data-class="barLine" class="barLine"><path d="M2678 540 L2678 1260" stroke-width="27"/></g></g><g data-id="i1kore48" data-class="measure" class="measure"><g data-id="mob4s3c" data-class="staff" class="staff"><path d="M2691 540 L6223 540" stroke-width="13"/><path d="M2691 720 L6223 720" stroke-width="13"/><path d="M2691 900 L6223 900" stroke-width="13"/><path d="M2691 1080 L6223 1080" stroke-width="13"/><path d="M2691 1260 L6223 1260" stroke-width="13"/><g data-id="n5ww9k1" data-class="layer" class="layer"><g data-id="u6drugm" data-class="note" class="note"><g data-class="notehead" class="notehead"><use href="#E0A4-y1le8hoz" transform="translate(2884, 900) scale(0.72, 0.72)"/></g><g data-id="i1wodqgj" data-class="dots" class="dots"><ellipse cx="3200" cy="810" rx="36" ry="36" fill-opacity="1" stroke-opacity="1"/></g><g data-id="h6psk8s" data-class="stem" class="stem"><path d="M2893 928 L2893 1500" stroke-width="18"/></g></g><g data-id="v176u0oj" data-class="note" class="note"><g data-class="notehead" class="notehead"><use href="#E0A4-y1le8hoz" transform="translate(3985, 900) scale(0.72, 0.72)"/></g><g data-id="j1j1zz7j" data-class="stem" class="stem"><path d="M3994 928 L3994 1500" stroke-width="18"/><g data-id="kdl2ymx" data-class="flag" class="flag"><use href="#E241-y1le8hoz" transform="translate(3985, 1500) scale(0.72, 0.72)"/></g></g></g><g data-id="w1jzlofq" data-class="note" class="note"><g data-class="notehead" class="notehead"><use href="#E0A4-y1le8hoz" transform="translate(4547, 720) scale(0.72, 0.72)"/></g><g data-id="mspryb3" data-class="dots" class="dots"><ellipse cx="4863" cy="630" rx="36" ry="36" fill-opacity="1" stroke-opacity="1"/></g><g data-id="l1pqrx2p" data-class="stem" class="stem"><path d="M4556 748 L4556 1350" stroke-width="18"/></g></g><g data-id="x1i7ikxg" data-class="note" class="note"><g data-class="notehead" class="notehead"><use href="#E0A4-y1le8hoz" transform="translate(5648, 720) scale(0.72, 0.72)"/></g><g data-id="n19gsq3h" data-class="stem" class="stem"><path d="M5657 748 L5657 1350" stroke-width="18"/><g data-id="o134dh0g" data-class="flag" class="flag"><use href="#E241-y1le8hoz" transform="translate(5648, 1350) scale(0.72, 0.72)"/></g></g></g></g></g><g data-id="qi5szav" data-class="barLine" class="barLine"><path d="M6210 540 L6210 1260" stroke-width="27"/></g></g><g data-id="rqun5s1" data-class="measure" class="measure"><g data-id="o149ogc7" data-class="staff" class="staff"><path d="M6223 540 L9882 540" stroke-width="13"/><path d="M6223 720 L9882 720" stroke-width="13"/><path d="M6223 900 L9882 900" stroke-width="13"/><path d="M6223 1080 L9882 1080" stroke-width="13"/><path d="M6223 1260 L9882 1260" stroke-width="13"/><g data-id="pr9q9u3" data-class="layer" class="layer"><g data-id="yzdt4s1" data-class="note" class="note"><g data-class="notehead" class="notehead"><use href="#E0A4-y1le8hoz" transform="translate(6416, 540) scale(0.72, 0.72)"/></g><g data-id="p1neb3ud" data-class="stem" class="stem"><path d="M6425 568 L6425 1170" stroke-width="18"/></g><g data-id="pdid849" data-class="accid" class="accid"/></g><g data-id="z3230ff" data-class="note" class="note"><g data-class="notehead" class="notehead"><use href="#E0A4-y1le8hoz" transform="translate(7279, 900) scale(0.72, 0.72)"/></g><g data-id="q1rr6fim" data-class="stem" class="stem"><path d="M7288 928 L7288 1500" stroke-width="18"/></g></g><g data-id="al704yz" data-class="note" class="note"><g data-class="notehead" class="notehead"><use href="#E0A4-y1le8hoz" transform="translate(8142, 810) scale(0.72, 0.72)"/></g><g data-id="rf791oe" data-class="stem" class="stem"><path d="M8151 838 L8151 1440" stroke-width="18"/></g><g data-id="q1kth5q1" data-class="accid" class="accid"/></g><g data-id="b1t2ofxs" data-class="note" class="note"><g data-class="notehead" class="notehead"><use href="#E0A4-y1le8hoz" transform="translate(9006, 1170) scale(0.72, 0.72)"/></g><g data-id="s1nymdwj" data-class="stem" class="stem"><path d="M9223 1142 L9223 540" stroke-width="18"/></g><g data-id="r1eqrmj8" data-class="accid" class="accid"/></g></g></g><g data-id="z1vdftyv" data-class="barLine" class="barLine"><path d="M9869 540 L9869 1260" stroke-width="27"/></g></g><g data-id="a1mjll4m" data-class="measure" class="measure"><g data-id="qasj37t" data-class="staff" class="staff"><path d="M9882 540 L14002 540" stroke-width="13"/><path d="M9882 720 L14002 720" stroke-width="13"/><path d="M9882 900 L14002 900" stroke-width="13"/><path d="M9882 1080 L14002 1080" stroke-width="13"/><path d="M9882 1260 L14002 1260" stroke-width="13"/><g data-id="r1a0hm80" data-class="layer" class="layer"><g data-id="c19i11uj" data-class="note" class="note"><g data-class="notehead" class="notehead"><use href="#E0A4-y1le8hoz" transform="translate(10075, 900) scale(0.72, 0.72)"/></g><g data-id="uyts51c" data-class="dots" class="dots"><ellipse cx="10391" cy="810" rx="36" ry="36" fill-opacity="1" stroke-opacity="1"/></g><g data-id="t8phqbj" data-class="stem" class="stem"><path d="M10084 928 L10084 1500" stroke-width="18"/></g></g><g data-id="dw1ou8g" data-class="note" class="note"><g data-class="notehead" class="notehead"><use href="#E0A4-y1le8hoz" transform="translate(11176, 900) scale(0.72, 0.72)"/></g><g data-id="v37pzlm" data-class="stem" class="stem"><path d="M11185 928 L11185 1500" stroke-width="18"/><g data-id="w1ewr3j7" data-class="flag" class="flag"><use href="#E241-y1le8hoz" transform="translate(11176, 1500) scale(0.72, 0.72)"/></g></g></g><g data-id="ma5hdhv" data-class="beam" class="beam"><polygon stroke-opacity="1" fill-opacity="1" points="11946,315 12527,405 12527,495 11946,405"/><g data-id="erg6n3i" data-class="note" class="note"><g data-class="notehead" class="notehead"><use href="#E0A4-y1le8hoz" transform="translate(11738, 900) scale(0.72, 0.72)"/></g><g data-id="x110rk6v" data-class="stem" class="stem"><path d="M11955 872 L11955 333" stroke-width="18"/></g></g><g data-id="f38tseg" data-class="note" class="note"><g data-class="notehead" class="notehead"><use href="#E0A4-y1le8hoz" transform="translate(12301, 990) scale(0.72, 0.72)"/></g><g data-id="y1fvkwth" data-class="stem" class="stem"><path d="M12518 962 L12518 423" stroke-width="18"/></g><g data-id="l8rpwcp" data-class="accid" class="accid"><use href="#E262-y1le8hoz" transform="translate(12115, 990) scale(0.72, 0.72)"/></g></g></g><g data-id="gqgbjfq" data-class="note" class="note"><g data-class="notehead" class="notehead"><use href="#E0A4-y1le8hoz" transform="translate(12863, 900) scale(0.72, 0.72)"/></g><g data-id="z1amp32p" data-class="stem" class="stem"><path d="M12872 928 L12872 1500" stroke-width="18"/><g data-id="a76bebh" data-class="flag" class="flag"><use href="#E241-y1le8hoz" transform="translate(12863, 1500) scale(0.72, 0.72)"/></g></g></g><g data-id="h1ftzyfe" data-class="note" class="note"><g data-class="notehead" class="notehead"><use href="#E0A4-y1le8hoz" transform="translate(13426, 810) scale(0.72, 0.72)"/></g><g data-id="bo94nrt" data-class="stem" class="stem"><path d="M13435 838 L13435 1440" stroke-width="18"/><g data-id="cade8fb" data-class="flag" class="flag"><use href="#E241-y1le8hoz" transform="translate(13426, 1440) scale(0.72, 0.72)"/></g></g><g data-id="s1cw7j9t" data-class="accid" class="accid"/></g></g></g><g data-id="iwqnvyd" data-class="barLine" class="barLine"><path d="M13989 540 L13989 1260" stroke-width="27"/></g></g></g></g></svg></svg>