<svg viewBox="0 0 560 84" version="1.1" xmlns="http://www.w3.org/2000/svg" xmlns:xlink="http://www.w3.org/1999/xlink" overflow="visible" id="c1tsfzfi"><desc>Engraved by Verovio 5.6.0-85e7620</desc><defs><g id="E050-c1tsfzfi"><path transform="scale(1,-1)" d="M441 -245c-23 -4 -48 -6 -76 -6c-59 0 -102 7 -130 20c-88 42 -150 93 -187 154c-26 44 -43 103 -48 176c0 6 -1 13 -1 19c0 54 15 111 45 170c29 57 65 106 110 148s96 85 153 127c-3 16 -8 46 -13 92c-4 43 -5 73 -5 89c0 117 16 172 69 257c34 54 64 82 89 82 c21 0 43 -30 69 -92s39 -115 41 -159v-15c0 -109 -21 -162 -67 -241c-13 -20 -63 -90 -98 -118c-13 -9 -25 -19 -37 -29l31 -181c8 1 18 2 28 2c58 0 102 -12 133 -35c59 -43 92 -104 98 -184c1 -7 1 -15 1 -22c0 -123 -87 -209 -181 -248c8 -57 17 -110 25 -162 c5 -31 6 -58 6 -80c0 -30 -5 -53 -14 -70c-35 -64 -88 -99 -158 -103c-5 0 -11 -1 -16 -1c-37 0 -72 10 -108 27c-50 24 -77 59 -80 105v11c0 29 7 55 20 76c18 28 45 42 79 44h6c49 0 93 -42 97 -87v-9c0 -51 -34 -86 -105 -106c17 -24 51 -36 102 -36c62 0 116 43 140 85 c9 16 13 41 13 74c0 20 -1 42 -5 67c-8 53 -18 106 -26 159zM461 939c-95 0 -135 -175 -135 -286c0 -24 2 -48 5 -71c50 39 92 82 127 128c40 53 60 100 60 140v8c-4 53 -22 81 -55 81h-2zM406 119l54 -326c73 25 110 78 110 161c0 7 0 15 -1 23c-7 95 -57 142 -151 142h-12 zM382 117c-72 -2 -128 -47 -128 -120v-7c2 -46 43 -99 75 -115c-3 -2 -7 -5 -10 -10c-70 33 -116 88 -123 172v11c0 68 44 126 88 159c23 17 49 29 78 36l-29 170c-21 -13 -52 -37 -92 -73c-50 -44 -86 -84 -109 -119c-45 -69 -67 -130 -67 -182v-13c5 -68 35 -127 93 -176 s125 -73 203 -73c25 0 50 3 75 9c-19 111 -36 221 -54 331z"/></g><g id="E262-c1tsfzfi"><path transform="scale(1,-1)" d="M136 186v169h17v-164l44 14v-91l-44 -14v-165l44 12v-91l-44 -13v-155h-17v150l-76 -22v-155h-17v149l-43 -13v90l43 14v167l-43 -14v92l43 13v169h17v-163zM60 73v-167l76 22v168z"/></g><g id="E08A-c1tsfzfi"><path transform="scale(1,-1)" d="M340 179c-9 24 -56 41 -89 41c-46 0 -81 -28 -100 -58c-17 -28 -25 -78 -25 -150c0 -65 2 -111 8 -135c8 -31 18 -49 40 -67c20 -17 43 -25 70 -25c54 0 92 36 115 75c14 25 23 54 28 88h27c0 -63 -24 -105 -58 -141c-35 -38 -82 -56 -140 -56c-45 0 -83 13 -115 39 c-57 45 -101 130 -101 226c0 59 33 127 68 163c36 37 97 72 160 72c36 0 93 -21 121 -40c11 -8 23 -17 33 -30c19 -23 27 -48 27 -76c0 -51 -35 -88 -86 -88c-43 0 -76 27 -76 68c0 26 7 35 21 51c15 17 32 27 58 32c7 2 14 7 14 11z"/></g><g id="E0A4-c1tsfzfi"><path transform="scale(1,-1)" d="M0 -39c0 68 73 172 200 172c66 0 114 -37 114 -95c0 -84 -106 -171 -218 -171c-64 0 -96 30 -96 94z"/></g><g id="E241-c1tsfzfi"><path transform="scale(1,-1)" d="M179 646c-4 8 -17 30 -18 33l-4 10c0 3 2 5 5 5s7 -2 13 -7c23 -33 46 -81 66 -132c22 -57 35 -125 35 -163c0 -104 -60 -183 -122 -241c-63 -59 -57 -53 -61 -56c-38 -34 -63 -95 -71 -95h-22v190c40 7 69 11 87 16c88 27 168 95 168 200c0 30 -12 89 -30 138 c-17 47 -31 73 -46 102z"/></g><g id="E243-c1tsfzfi"><path transform="scale(1,-1)" d="M216 730c-5 8 -10 13 -11 16l-4 10c0 3 2 5 5 5s7 -2 13 -7c35 -42 57 -101 57 -172c0 -34 -6 -65 -17 -94c10 -31 17 -64 17 -96c0 -104 -60 -183 -122 -241c-63 -59 -57 -53 -61 -56c-38 -34 -63 -95 -71 -95h-22v190v190c40 7 69 11 87 16c116 36 175 111 175 197 c0 44 -15 91 -46 137zM248 463c-23 -48 -58 -89 -94 -122c-63 -59 -57 -53 -61 -56c-30 -27 -44 -71 -53 -88c20 3 36 6 47 9c88 27 168 95 168 200c0 19 -3 39 -7 57z"/></g><g id="E261-c1tsfzfi"><path transform="scale(1,-1)" d="M0 -188v539h18v-191l139 22v-533h-17v186zM18 -100l122 17v176l-122 -19v-174z"/></g></defs><style type="text/css">#c1tsfzfi g.page-margin {font-family:Times,serif;}#c1tsfzfi g.ending, #c1tsfzfi g.fing, #c1tsfzfi g.reh, #c1tsfzfi g.tempo {font-weight:bold;}#c1tsfzfi g.dir, #c1tsfzfi g.dynam, #c1tsfzfi g.mNum {font-style:italic;}#c1tsfzfi g.label {font-weight:normal;}#c1tsfzfi path {stroke:currentColor}</style><svg class="definition-scale" color="black" viewBox="0 0 14000 2100"><g class="page-margin" transform="translate(0, 150)"><g data-id="suufwaw" data-class="mdiv" class="mdiv pageMilestone"/><g data-id="tkr1u9j" data-class="score" class="score pageMilestone"/><g data-id="qgqsfl" data-class="system" class="system"><g data-id="vdousm8" data-class="section" class="section systemMilestone"/><g data-id="d1lx0el2" data-class="measure" class="measure"><g data-id="h1h9ueux" data-class="staff" class="staff"><path d="M0 540 L2087 540" stroke-width="13"/><path d="M0 720 L2087 720" stroke-width="13"/><path d="M0 900 L2087 900" stroke-width="13"/><path d="M0 1080 L2087 1080" stroke-width="13"/><path d="M0 1260 L2087 1260" stroke-width="13"/><g data-id="xo7p61h" data-class="clef" class="clef"><use href="#E050-c1tsfzfi" transform="translate(90, 1080) scale(0.72, 0.72)"/></g><g data-id="ydy34xe" data-class="keySig" class="keySig"><g data-id="znchstj" data-class="keyAccid" class="keyAccid"><use href="#E262-c1tsfzfi" transform="translate(735, 540) scale(0.72, 0.72)"/></g></g><g data-id="a1nmrcsn" data-class="meterSig" class="meterSig"><use href="#E08A-c1tsfzfi" transform="translate(1056, 900) scale(0.72, 0.72)"/></g><g data-id="i4vbe17" data-class="layer" class="layer"><g data-id="e1cyout0" data-class="note" class="note"><g data-class="notehead" class="notehead"><use href="#E0A4-c1tsfzfi" transform="translate(1624, 720) scale(0.72, 0.72)"/></g><g data-id="yp0h5bl" data-class="stem" class="stem"><path d="M1633 748 L1633 1350" stroke-width="18"/><g data-id="z9pz5vs" data-class="flag" class="flag"><use href="#E241-c1tsfzfi" transform="translate(1624, 1350) scale(0.72, 0.72)"/></g></g></g></g></g><g data-id="l1wanakf" data-class="barLine" class="barLine"><path d="M2074 540 L2074 1260" stroke-width="27"/></g></g><g data-id="mo7kdtx" data-class="measure" class="measure"><g data-id="j14p7yrs" data-class="staff" class="staff"><path d="M2087 540 L5952 540" stroke-width="13"/><path d="M2087 720 L5952 720" stroke-width="13"/><path d="M2087 900 L5952 900" stroke-width="13"/><path d="M2087 1080 L5952 1080" stroke-width="13"/><path d="M2087 1260 L5952 1260" stroke-width="13"/><g data-id="k1r99lhg" data-class="layer" class="layer"><g data-id="f5d53ab" data-class="note" class="note"><g data-class="notehead" class="notehead"><use href="#E0A4-c1tsfzfi" transform="translate(2267, 630) scale(0.72, 0.72)"/></g><g data-id="bmck7v3" data-class="dots" class="dots"><ellipse cx="2583" cy="630" rx="36" ry="36" fill-opacity="1" stroke-opacity="1"/></g><g data-id="ad9hx7w" data-class="stem" class="stem"><path d="M2276 658 L2276 1260" stroke-width="18"/><g data-id="cm4avwc" data-class="flag" class="flag"><use href="#E241-c1tsfzfi" transform="translate(2267, 1260) scale(0.72, 0.72)"/></g></g></g><g data-id="ghvry7l" data-class="note" class="note"><g data-class="notehead" class="notehead"><use href="#E0A4-c1tsfzfi" transform="translate(2847, 720) scale(0.72, 0.72)"/></g><g data-id="d1v402vg" data-class="stem" class="stem"><path d="M2856 748 L2856 1350" stroke-width="18"/><g data-id="e1wmz90s" data-class="flag" class="flag"><use href="#E243-c1tsfzfi" transform="translate(2847, 1350) scale(0.72, 0.72)"/></g></g></g><g data-id="h11g2u1g" data-class="note" class="note"><g data-class="notehead" class="notehead"><use href="#E0A4-c1tsfzfi" transform="translate(3163, 810) scale(0.72, 0.72)"/></g><g data-id="ftbu5bb" data-class="stem" class="stem"><path d="M3172 838 L3172 1440" stroke-width="18"/><g data-id="gb1met" data-class="flag" class="flag"><use href="#E241-c1tsfzfi" transform="translate(3163, 1440) scale(0.72, 0.72)"/></g></g></g><g data-id="i1w6okmw" data-class="note" class="note"><g data-class="notehead" class="notehead"><use href="#E0A4-c1tsfzfi" transform="translate(3665, 900) scale(0.72, 0.72)"/></g><g data-id="h97i25u" data-class="stem" class="stem"><path d="M3674 928 L3674 1500" stroke-width="18"/><g data-id="i1cpy2sj" data-class="flag" class="flag"><use href="#E241-c1tsfzfi" transform="translate(3665, 1500) scale(0.72, 0.72)"/></g></g><g data-id="p1uer6wi" data-class="accid" class="accid"><use href="#E262-c1tsfzfi" transform="translate(3479, 900) scale(0.72, 0.72)"/></g></g><g data-id="j1pajfxl" data-class="note" class="note"><g data-class="notehead" class="notehead"><use href="#E0A4-c1tsfzfi" transform="translate(4115, 810) scale(0.72, 0.72)"/></g><g data-id="j1oq1shy" data-class="stem" class="stem"><path d="M4124 838 L4124 1440" stroke-width="18"/><g data-id="kf0b9v" data-class="flag" class="flag"><use href="#E241-c1tsfzfi" transform="translate(4115, 1440) scale(0.72, 0.72)"/></g></g></g><g data-id="k14txdck" data-class="note" class="note"><g data-class="notehead" class="notehead"><use href="#E0A4-c1tsfzfi" transform="translate(4589, 900) scale(0.72, 0.72)"/></g><g data-id="l48t5vk" data-class="stem" class="stem"><path d="M4598 928 L4598 1500" stroke-width="18"/><g data-id="mvdnwzf" data-class="flag" class="flag"><use href="#E241-c1tsfzfi" transform="translate(4589, 1500) scale(0.72, 0.72)"/></g></g><g data-id="qrv6zkj" data-class="accid" class="accid"><use href="#E261-c1tsfzfi" transform="translate(4431, 900) scale(0.72, 0.72)"/></g></g><g data-id="lvhijmy" data-class="note" class="note"><g data-class="notehead" class="notehead"><use href="#E0A4-c1tsfzfi" transform="translate(5039, 810) scale(0.72, 0.72)"/></g><g data-id="n1bj5ks2" data-class="stem" class="stem"><path d="M5048 838 L5048 1440" stroke-width="18"/><g data-id="o6riv4k" data-class="flag" class="flag"><use href="#E241-c1tsfzfi" transform="translate(5039, 1440) scale(0.72, 0.72)"/></g></g></g><g data-id="m1bzir10" data-class="note" class="note"><g data-class="notehead" class="notehead"><use href="#E0A4-c1tsfzfi" transform="translate(5489, 720) scale(0.72, 0.72)"/></g><g data-id="psq1e3n" data-class="stem" class="stem"><path d="M5498 748 L5498 1350" stroke-width="18"/><g data-id="qv0voep" data-class="flag" class="flag"><use href="#E241-c1tsfzfi" transform="translate(5489, 1350) scale(0.72, 0.72)"/></g></g></g></g></g><g data-id="u1ifbf4c" data-class="barLine" class="barLine"><path d="M5939 540 L5939 1260" stroke-width="27"/></g></g><g data-id="v58qfwv" data-class="measure" class="measure"><g data-id="l1okjdt9" data-class="staff" class="staff"><path d="M5952 540 L7032 540" stroke-width="13"/><path d="M5952 720 L7032 720" stroke-width="13"/><path d="M5952 900 L7032 900" stroke-width="13"/><path d="M5952 1080 L7032 1080" stroke-width="13"/><path d="M5952 1260 L7032 1260" stroke-width="13"/><g data-id="mx4jzp9" data-class="layer" class="layer"><g data-id="ny9bes6" data-class="note" class="note"><g data-class="notehead" class="notehead"><use href="#E0A4-c1tsfzfi" transform="translate(6132, 900) scale(0.72, 0.72)"/></g><g data-id="rgz9wnl" data-class="stem" class="stem"><path d="M6141 928 L6141 1500" stroke-width="18"/><g data-id="scha0qt" data-class="flag" class="flag"><use href="#E241-c1tsfzfi" transform="translate(6132, 1500) scale(0.72, 0.72)"/></g></g></g><g data-id="o1pmnqyk" data-class="note" class="note"><g data-class="notehead" class="notehead"><use href="#E0A4-c1tsfzfi" transform="translate(6582, 810) scale(0.72, 0.72)"/></g><g data-id="t9nvqff" data-class="stem" class="stem"><path d="M6591 838 L6591 1440" stroke-width="18"/><g data-id="ux3gnsw" data-class="flag" class="flag"><use href="#E241-c1tsfzfi" transform="translate(6582, 1440) scale(0.72, 0.72)"/></g></g></g></g></g><g data-id="d1qfz5mq" data-class="barLine" class="barLine"/></g><g data-id="u1wd35zz" data-class="systemMilestoneEnd" class="systemMilestoneEnd vdousm8"/></g><g data-id="v1g1fp1k" data-class="pageMilestoneEnd" class="pageMilestoneEnd tkr1u9j"/><g data-id="w175ycpf" data-class="pageMilestoneEnd" class="pageMilestoneEnd suufwaw"/></g></svg></svg>