<svg viewBox="0 0 560 84" version="1.1" xmlns="http://www.w3.org/2000/svg" xmlns:xlink="http://www.w3.org/1999/xlink" overflow="visible" id="t1a191xj"><desc>Engraved by Verovio 5.6.0-85e7620</desc><defs><g id="E050-t1a191xj"><path transform="scale(1,-1)" d="M441 -245c-23 -4 -48 -6 -76 -6c-59 0 -102 7 -130 20c-88 42 -150 93 -187 154c-26 44 -43 103 -48 176c0 6 -1 13 -1 19c0 54 15 111 45 170c29 57 65 106 110 148s96 85 153 127c-3 16 -8 46 -13 92c-4 43 -5 73 -5 89c0 117 16 172 69 257c34 54 64 82 89 82 c21 0 43 -30 69 -92s39 -115 41 -159v-15c0 -109 -21 -162 -67 -241c-13 -20 -63 -90 -98 -118c-13 -9 -25 -19 -37 -29l31 -181c8 1 18 2 28 2c58 0 102 -12 133 -35c59 -43 92 -104 98 -184c1 -7 1 -15 1 -22c0 -123 -87 -209 -181 -248c8 -57 17 -110 25 -162 c5 -31 6 -58 6 -80c0 -30 -5 -53 -14 -70c-35 -64 -88 -99 -158 -103c-5 0 -11 -1 -16 -1c-37 0 -72 10 -108 27c-50 24 -77 59 -80 105v11c0 29 7 55 20 76c18 28 45 42 79 44h6c49 0 93 -42 97 -87v-9c0 -51 -34 -86 -105 -106c17 -24 51 -36 102 -36c62 0 116 43 140 85 c9 16 13 41 13 74c0 20 -1 42 -5 67c-8 53 -18 106 -26 159zM461 939c-95 0 -135 -175 -135 -286c0 -24 2 -48 5 -71c50 39 92 82 127 128c40 53 60 100 60 140v8c-4 53 -22 81 -55 81h-2zM406 119l54 -326c73 25 110 78 110 161c0 7 0 15 -1 23c-7 95 -57 142 -151 142h-12 zM382 117c-72 -2 -128 -47 -128 -120v-7c2 -46 43 -99 75 -115c-3 -2 -7 -5 -10 -10c-70 33 -116 88 -123 172v11c0 68 44 126 88 159c23 17 49 29 78 36l-29 170c-21 -13 -52 -37 -92 -73c-50 -44 -86 -84 -109 -119c-45 -69 -67 -130 -67 -182v-13c5 -68 35 -127 93 -176 s125 -73 203 -73c25 0 50 3 75 9c-19 111 -36 221 -54 331z"/></g><g id="E260-t1a191xj"><path transform="scale(1,-1)" d="M20 110c32 16 54 27 93 27c26 0 35 -3 54 -13c13 -7 24 -20 27 -38l4 -25c0 -28 -16 -57 -45 -89c-23 -25 -39 -44 -65 -68l-88 -79v644h20v-359zM90 106c-32 0 -48 -10 -70 -29v-194c31 31 54 59 71 84c21 32 32 59 32 84c0 9 1 16 1 20c0 14 -3 21 -11 30l-8 3z"/></g><g id="E086-t1a191xj"><path transform="scale(1,-1)" d="M284 -91c0 37 -28 92 -67 92c-35 0 -65 -54 -65 -111c0 -52 22 -104 68 -104c47 0 64 68 64 123zM230 214c-36 0 -90 -33 -90 -184l2 -36c40 24 81 36 120 36c80 0 140 -48 140 -121c0 -99 -99 -159 -182 -159c-160 0 -200 173 -200 244c0 21 2 43 7 71l10 35 c26 85 73 115 98 126c41 19 74 24 103 24c93 0 142 -63 142 -105c0 -58 -52 -72 -73 -72c-33 0 -59 24 -65 35c-3 5 -6 14 -7 25l11 30c6 15 9 27 9 35c0 11 -9 16 -25 16z"/></g><g id="E088-t1a191xj"><path transform="scale(1,-1)" d="M195 -214c76 0 88 58 90 68c0 34 -35 60 -57 73l-52 29c-21 10 -32 17 -34 20c-39 -33 -58 -54 -62 -92c5 -23 23 -98 115 -98zM301 135c0 61 -72 76 -113 76c-40 0 -77 -17 -77 -51c3 -21 15 -38 26 -50c17 -15 33 -26 48 -34l65 -28c34 27 51 56 51 87zM176 -250 c-57 0 -166 26 -166 132c0 47 30 86 89 116c-33 15 -79 60 -79 119c0 79 85 132 178 132h18c5 0 21 1 28 -1c25 0 126 -30 126 -110c0 -37 -23 -76 -69 -116c43 -25 83 -71 83 -119c0 -101 -118 -153 -208 -153z"/></g><g id="E4E6-t1a191xj"><path transform="scale(1,-1)" d="M0 123c7 34 33 56 69 60c29 -3 43 -9 53 -29c4 -8 7 -15 10 -22c0 -21 -1 -25 -11 -35c-5 -8 -18 -14 -40 -20l12 -3l15 -1c44 0 97 26 122 56c10 11 18 26 24 42c7 1 15 2 22 3l-140 -424h-36l111 330c-10 -6 -27 -12 -53 -16l-52 -8h-10l-20 1c-1 0 -8 3 -21 6 c-37 9 -55 28 -55 60z"/></g><g id="E0A4-t1a191xj"><path transform="scale(1,-1)" d="M0 -39c0 68 73 172 200 172c66 0 114 -37 114 -95c0 -84 -106 -171 -218 -171c-64 0 -96 30 -96 94z"/></g><g id="E240-t1a191xj"><path transform="scale(1,-1)" d="M179 -646c15 29 29 55 46 102c18 49 30 108 30 138c0 105 -80 173 -168 200c-18 5 -47 9 -87 16v190h22c8 0 33 -61 71 -95c4 -3 -2 3 61 -56c62 -58 122 -137 122 -241c0 -38 -13 -106 -35 -163c-20 -51 -43 -99 -66 -132c-6 -5 -10 -7 -13 -7s-5 2 -5 5l4 10 c1 3 14 25 18 33z"/></g><g id="E241-t1a191xj"><path transform="scale(1,-1)" d="M179 646c-4 8 -17 30 -18 33l-4 10c0 3 2 5 5 5s7 -2 13 -7c23 -33 46 -81 66 -132c22 -57 35 -125 35 -163c0 -104 -60 -183 -122 -241c-63 -59 -57 -53 -61 -56c-38 -34 -63 -95 -71 -95h-22v190c40 7 69 11 87 16c88 27 168 95 168 200c0 30 -12 89 -30 138 c-17 47 -31 73 -46 102z"/></g></defs><style type="text/css">#t1a191xj g.page-margin {font-family:Times,serif;}#t1a191xj g.ending, #t1a191xj g.fing, #t1a191xj g.reh, #t1a191xj g.tempo {font-weight:bold;}#t1a191xj g.dir, #t1a191xj g.dynam, #t1a191xj g.mNum {font-style:italic;}#t1a191xj g.label {font-weight:normal;}#t1a191xj path {stroke:currentColor}</style><svg class="definition-scale" color="black" viewBox="0 0 14000 2100"><g class="page-margin" transform="translate(0, 150)"><g data-id="n1b3l5oi" data-class="mdiv" class="mdiv pageMilestone"/><g data-id="o1q0jklh" data-class="score" class="score pageMilestone"/><g data-id="mfokzc3" data-class="system" class="system"><g data-id="qhesosh" data-class="section" class="section systemMilestone"/><g data-id="urmy28i" data-class="measure" class="measure"><g data-id="cz3z5w3" data-class="staff" class="staff"><path d="M0 540 L4911 540" stroke-width="13"/><path d="M0 720 L4911 720" stroke-width="13"/><path d="M0 900 L4911 900" stroke-width="13"/><path d="M0 1080 L4911 1080" stroke-width="13"/><path d="M0 1260 L4911 1260" stroke-width="13"/><g data-id="r14tgzpj" data-class="clef" class="clef"><use href="#E050-t1a191xj" transform="translate(90, 1080) scale(0.72, 0.72)"/></g><g data-id="s6wsjh3" data-class="keySig" class="keySig"><g data-id="t2b0aw4" data-class="keyAccid" class="keyAccid"><use href="#E260-t1a191xj" transform="translate(735, 900) scale(0.72, 0.72)"/></g><g data-id="umg5l90" data-class="keyAccid" class="keyAccid"><use href="#E260-t1a191xj" transform="translate(915, 630) scale(0.72, 0.72)"/></g><g data-id="vcv4b3n" data-class="keyAccid" class="keyAccid"><use href="#E260-t1a191xj" transform="translate(1095, 990) scale(0.72, 0.72)"/></g></g><g data-id="wj7h4ts" data-class="meterSig" class="meterSig"><use href="#E086-t1a191xj" transform="translate(1403, 720) scale(0.72, 0.72)"/><use href="#E088-t1a191xj" transform="translate(1410, 1080) scale(0.72, 0.72)"/></g><g data-id="da5lrmq" data-class="layer" class="layer"><g data-id="ec37itz" data-class="rest" class="rest"><use href="#E4E6-t1a191xj" transform="translate(1988, 900) scale(0.72, 0.72)"/></g><g data-id="y1ydy31o" data-class="beam" class="beam"><polygon stroke-opacity="1" fill-opacity="1" points="2709,315 3241,360 3241,450 2709,405"/><g data-id="fnub32l" data-class="note" class="note"><g data-class="notehead" class="notehead"><use href="#E0A4-t1a191xj" transform="translate(2501, 900) scale(0.72, 0.72)"/></g><g data-id="x1hpdcfn" data-class="stem" class="stem"><path d="M2718 872 L2718 333" stroke-width="18"/></g><g data-id="dkqezo7" data-class="accid" class="accid"/></g><g data-id="gpo146e" data-class="note" class="note"><g data-class="notehead" class="notehead"><use href="#E0A4-t1a191xj" transform="translate(3015, 1350) scale(0.72, 0.72)"/></g><g data-id="y1lacohp" data-class="stem" class="stem"><path d="M3232 1322 L3232 378" stroke-width="18"/></g></g></g><g data-id="h1h041hl" data-class="note" class="note"><g data-class="notehead" class="notehead"><use href="#E0A4-t1a191xj" transform="translate(3528, 1260) scale(0.72, 0.72)"/></g><g data-id="z1pfmar9" data-class="stem" class="stem"><path d="M3745 1232 L3745 630" stroke-width="18"/></g><g data-id="e1bri1cg" data-class="accid" class="accid"/></g><g data-id="ilnx064" data-class="note" class="note"><g data-class="notehead" class="notehead"><use href="#E0A4-t1a191xj" transform="translate(4316, 990) scale(0.72, 0.72)"/></g><g data-id="a1uxcvnf" data-class="stem" class="stem"><path d="M4533 962 L4533 360" stroke-width="18"/><g data-id="b1lcoeds" data-class="flag" class="flag"><use href="#E240-t1a191xj" transform="translate(4524, 360) scale(0.72, 0.72)"/></g></g><g data-id="f1qyklo" data-class="accid" class="accid"/></g></g></g><g data-id="csds1br" data-class="barLine" class="barLine"><path d="M4898 540 L4898 1260" stroke-width="27"/></g></g><g data-id="d7u3j7v" data-class="measure" class="measure"><g data-id="e18je1vv" data-class="staff" class="staff"><path d="M4911 540 L7971 540" stroke-width="13"/><path d="M4911 720 L7971 720" stroke-width="13"/><path d="M4911 900 L7971 900" stroke-width="13"/><path d="M4911 1080 L7971 1080" stroke-width="13"/><path d="M4911 1260 L7971 1260" stroke-width="13"/><g data-id="f1u1ry77" data-class="layer" class="layer"><g data-id="z11x56gf" data-class="beam" class="beam"><polygon stroke-opacity="1" fill-opacity="1" points="5325,450 6370,270 6370,360 5325,540"/><g data-id="jph1ekx" data-class="note" class="note"><g data-class="notehead" class="notehead"><use href="#E0A4-t1a191xj" transform="translate(5117, 1080) scale(0.72, 0.72)"/></g><g data-id="c1si50eu" data-class="stem" class="stem"><path d="M5334 1052 L5334 468" stroke-width="18"/></g></g><g data-id="k12fselc" data-class="note" class="note"><g data-class="notehead" class="notehead"><use href="#E0A4-t1a191xj" transform="translate(5630, 1170) scale(0.72, 0.72)"/></g><g data-id="d1xppka2" data-class="stem" class="stem"><path d="M5847 1142 L5847 379" stroke-width="18"/></g></g><g data-id="l1qj7zb" data-class="note" class="note"><g data-class="notehead" class="notehead"><use href="#E0A4-t1a191xj" transform="translate(6144, 810) scale(0.72, 0.72)"/></g><g data-id="eja7zhb" data-class="stem" class="stem"><path d="M6361 782 L6361 288" stroke-width="18"/></g></g></g><g data-id="m15rn385" data-class="note" class="note"><g data-class="notehead" class="notehead"><use href="#E0A4-t1a191xj" transform="translate(6657, 810) scale(0.72, 0.72)"/></g><g data-id="f17iyd5d" data-class="stem" class="stem"><path d="M6666 838 L6666 1440" stroke-width="18"/><g data-id="g1m3vzkl" data-class="flag" class="flag"><use href="#E241-t1a191xj" transform="translate(6657, 1440) scale(0.72, 0.72)"/></g></g></g><g data-id="nct13u6" data-class="note" class="note"><g data-class="notehead" class="notehead"><use href="#E0A4-t1a191xj" transform="translate(7171, 900) scale(0.72, 0.72)"/></g><g data-id="h1wi9pd1" data-class="stem" class="stem"><path d="M7180 928 L7180 1500" stroke-width="18"/></g><g data-id="glzz8iw" data-class="accid" class="accid"/></g></g></g><g data-id="lpmva" data-class="barLine" class="barLine"><path d="M7958 540 L7958 1260" stroke-width="27"/></g></g><g data-id="m1dhk2mg" data-class="measure" class="measure"><g data-id="gnaipt1" data-class="staff" class="staff"><path d="M7971 540 L11271 540" stroke-width="13"/><path d="M7971 720 L11271 720" stroke-width="13"/><path d="M7971 900 L11271 900" stroke-width="13"/><path d="M7971 1080 L11271 1080" stroke-width="13"/><path d="M7971 1260 L11271 1260" stroke-width="13"/><g data-id="hg3xaep" data-class="layer" class="layer"><g data-id="a7m4u6q" data-class="beam" class="beam"><polygon stroke-opacity="1" fill-opacity="1" points="8177,1440 9222,1620 9222,1530 8177,1350"/><g data-id="o95hqxm" data-class="note" class="note"><g data-class="notehead" class="notehead"><use href="#E0A4-t1a191xj" transform="translate(8177, 630) scale(0.72, 0.72)"/></g><g data-id="i1wombsv" data-class="stem" class="stem"><path d="M8186 658 L8186 1422" stroke-width="18"/></g><g data-id="hu8zku0" data-class="accid" class="accid"/></g><g data-id="pebaypy" data-class="note" class="note"><g data-class="notehead" class="notehead"><use href="#E0A4-t1a191xj" transform="translate(8690, 990) scale(0.72, 0.72)"/></g><g data-id="j110xuy5" data-class="stem" class="stem"><path d="M8699 1018 L8699 1511" stroke-width="18"/></g><g data-id="ib1yt3x" data-class="accid" class="accid"/></g><g data-id="qse337p" data-class="note" class="note"><g data-class="notehead" class="notehead"><use href="#E0A4-t1a191xj" transform="translate(9204, 1080) scale(0.72, 0.72)"/></g><g data-id="kg7jy01" data-class="stem" class="stem"><path d="M9213 1108 L9213 1602" stroke-width="18"/></g></g></g><g data-id="b2pjzyf" data-class="beam" class="beam"><polygon stroke-opacity="1" fill-opacity="1" points="9925,450 10970,270 10970,360 9925,540"/><g data-id="r103rxcc" data-class="note" class="note"><g data-class="notehead" class="notehead"><use href="#E0A4-t1a191xj" transform="translate(9717, 1170) scale(0.72, 0.72)"/></g><g data-id="lg7pl43" data-class="stem" class="stem"><path d="M9934 1142 L9934 468" stroke-width="18"/></g></g><g data-id="s1rjbkw" data-class="note" class="note"><g data-class="notehead" class="notehead"><use href="#E0A4-t1a191xj" transform="translate(10231, 990) scale(0.72, 0.72)"/></g><g data-id="m2czohg" data-class="stem" class="stem"><path d="M10448 962 L10448 378" stroke-width="18"/></g><g data-id="jzaehsz" data-class="accid" class="accid"/></g><g data-id="t3lj96" data-class="note" class="note"><g data-class="notehead" class="notehead"><use href="#E0A4-t1a191xj" transform="translate(10744, 810) scale(0.72, 0.72)"/></g><g data-id="n1jd77tc" data-class="stem" class="stem"><path d="M10961 782 L10961 288" stroke-width="18"/></g></g></g></g></g><g data-id="u1b28hdz" data-class="barLine" class="barLine"><path d="M11258 540 L11258 1260" stroke-width="27"/></g></g><g data-id="v1mpsp89" data-class="measure" class="measure"><g data-id="ikgj430" data-class="staff" class="staff"><path d="M11271 540 L14003 540" stroke-width="13"/><path d="M11271 720 L14003 720" stroke-width="13"/><path d="M11271 900 L14003 900" stroke-width="13"/><path d="M11271 1080 L14003 1080" stroke-width="13"/><path d="M11271 1260 L14003 1260" stroke-width="13"/><g data-id="j1o87zpa" data-class="layer" class="layer"><g data-id="ua2h1mw" data-class="note" class="note"><g data-class="notehead" class="notehead"><use href="#E0A4-t1a191xj" transform="translate(11477, 1260) scale(0.72, 0.72)"/></g><g data-id="o19a4csm" data-class="stem" class="stem"><path d="M11694 1232 L11694 630" stroke-width="18"/></g><g data-id="klp1m8y" data-class="accid" class="accid"/></g><g data-id="c1fcse8q" data-class="beam" class="beam"><polygon stroke-opacity="1" fill-opacity="1" points="12472,405 12851,450 12851,540 12472,495"/><polygon stroke-opacity="1" fill-opacity="1" points="12472,540 12851,585 12851,675 12472,630"/><g data-id="v12534zn" data-class="note" class="note"><g data-class="notehead" class="notehead"><use href="#E0A4-t1a191xj" transform="translate(12264, 1080) scale(0.72, 0.72)"/></g><g data-id="p1qyoixz" data-class="stem" class="stem"><path d="M12481 1052 L12481 423" stroke-width="18"/></g></g><g data-id="w1dw7v3i" data-class="note" class="note"><g data-class="notehead" class="notehead"><use href="#E0A4-t1a191xj" transform="translate(12625, 1170) scale(0.72, 0.72)"/></g><g data-id="q2wz3r2" data-class="stem" class="stem"><path d="M12842 1142 L12842 468" stroke-width="18"/></g></g></g><g data-id="x1a5ekuf" data-class="note" class="note"><g data-class="notehead" class="notehead"><use href="#E0A4-t1a191xj" transform="translate(12985, 1260) scale(0.72, 0.72)"/></g><g data-id="spcv08q" data-class="dots" class="dots"><ellipse cx="13301" cy="1170" rx="36" ry="36" fill-opacity="1" stroke-opacity="1"/></g><g data-id="r54lrb6" data-class="stem" class="stem"><path d="M13202 1232 L13202 630" stroke-width="18"/></g><g data-id="l1ewuvt5" data-class="accid" class="accid"/></g></g></g><g data-id="dzq7aer" data-class="barLine" class="barLine"><path d="M13990 540 L13990 1260" stroke-width="27"/></g></g><g data-id="r1gbjaxf" data-class="systemMilestoneEnd" class="systemMilestoneEnd qhesosh"/></g><g data-id="s18rddgu" data-class="pageMilestoneEnd" class="pageMilestoneEnd o1q0jklh"/><g data-id="t15dbxgf" data-class="pageMilestoneEnd" class="pageMilestoneEnd n1b3l5oi"/></g></svg></svg>