<svg viewBox="0 0 560 84" version="1.1" xmlns="http://www.w3.org/2000/svg" xmlns:xlink="http://www.w3.org/1999/xlink" overflow="visible" id="b160k9k4"><desc>Engraved by Verovio 5.6.0-85e7620</desc><defs><g id="E050-b160k9k4"><path transform="scale(1,-1)" d="M441 -245c-23 -4 -48 -6 -76 -6c-59 0 -102 7 -130 20c-88 42 -150 93 -187 154c-26 44 -43 103 -48 176c0 6 -1 13 -1 19c0 54 15 111 45 170c29 57 65 106 110 148s96 85 153 127c-3 16 -8 46 -13 92c-4 43 -5 73 -5 89c0 117 16 172 69 257c34 54 64 82 89 82 c21 0 43 -30 69 -92s39 -115 41 -159v-15c0 -109 -21 -162 -67 -241c-13 -20 -63 -90 -98 -118c-13 -9 -25 -19 -37 -29l31 -181c8 1 18 2 28 2c58 0 102 -12 133 -35c59 -43 92 -104 98 -184c1 -7 1 -15 1 -22c0 -123 -87 -209 -181 -248c8 -57 17 -110 25 -162 c5 -31 6 -58 6 -80c0 -30 -5 -53 -14 -70c-35 -64 -88 -99 -158 -103c-5 0 -11 -1 -16 -1c-37 0 -72 10 -108 27c-50 24 -77 59 -80 105v11c0 29 7 55 20 76c18 28 45 42 79 44h6c49 0 93 -42 97 -87v-9c0 -51 -34 -86 -105 -106c17 -24 51 -36 102 -36c62 0 116 43 140 85 c9 16 13 41 13 74c0 20 -1 42 -5 67c-8 53 -18 106 -26 159zM461 939c-95 0 -135 -175 -135 -286c0 -24 2 -48 5 -71c50 39 92 82 127 128c40 53 60 100 60 140v8c-4 53 -22 81 -55 81h-2zM406 119l54 -326c73 25 110 78 110 161c0 7 0 15 -1 23c-7 95 -57 142 -151 142h-12 zM382 117c-72 -2 -128 -47 -128 -120v-7c2 -46 43 -99 75 -115c-3 -2 -7 -5 -10 -10c-70 33 -116 88 -123 172v11c0 68 44 126 88 159c23 17 49 29 78 36l-29 170c-21 -13 -52 -37 -92 -73c-50 -44 -86 -84 -109 -119c-45 -69 -67 -130 -67 -182v-13c5 -68 35 -127 93 -176 s125 -73 203 -73c25 0 50 3 75 9c-19 111 -36 221 -54 331z"/></g><g id="E262-b160k9k4"><path transform="scale(1,-1)" d="M136 186v169h17v-164l44 14v-91l-44 -14v-165l44 12v-91l-44 -13v-155h-17v150l-76 -22v-155h-17v149l-43 -13v90l43 14v167l-43 -14v92l43 13v169h17v-163zM60 73v-167l76 22v168z"/></g><g id="E08A-b160k9k4"><path transform="scale(1,-1)" d="M340 179c-9 24 -56 41 -89 41c-46 0 -81 -28 -100 -58c-17 -28 -25 -78 -25 -150c0 -65 2 -111 8 -135c8 -31 18 -49 40 -67c20 -17 43 -25 70 -25c54 0 92 36 115 75c14 25 23 54 28 88h27c0 -63 -24 -105 -58 -141c-35 -38 -82 -56 -140 -56c-45 0 -83 13 -115 39 c-57 45 -101 130 -101 226c0 59 33 127 68 163c36 37 97 72 160 72c36 0 93 -21 121 -40c11 -8 23 -17 33 -30c19 -23 27 -48 27 -76c0 -51 -35 -88 -86 -88c-43 0 -76 27 -76 68c0 26 7 35 21 51c15 17 32 27 58 32c7 2 14 7 14 11z"/></g><g id="E0A4-b160k9k4"><path transform="scale(1,-1)" d="M0 -39c0 68 73 172 200 172c66 0 114 -37 114 -95c0 -84 -106 -171 -218 -171c-64 0 -96 30 -96 94z"/></g><g id="E261-b160k9k4"><path transform="scale(1,-1)" d="M0 -188v539h18v-191l139 22v-533h-17v186zM18 -100l122 17v176l-122 -19v-174z"/></g><g id="E4C0-b160k9k4"><path transform="scale(1,-1)" d="M0 0c0 0 40 320 300 320s300 -320 300 -320h-32s-38 227 -268 227s-268 -227 -268 -227h-32zM355 52c0 -30 -25 -55 -55 -55s-55 25 -55 55s25 55 55 55s55 -25 55 -55z"/></g></defs><style type="text/css">#b160k9k4 g.page-margin {font-family:Times,serif;}#b160k9k4 g.ending, #b160k9k4 g.fing, #b160k9k4 g.reh, #b160k9k4 g.tempo {font-weight:bold;}#b160k9k4 g.dir, #b160k9k4 g.dynam, #b160k9k4 g.mNum {font-style:italic;}#b160k9k4 g.label {font-weight:normal;}#b160k9k4 path {stroke:currentColor}</style><svg class="definition-scale" color="black" viewBox="0 0 14000 2100"><g class="page-margin" transform="translate(0, 150)"><g data-id="cxz3xgj" data-class="mdiv" class="mdiv pageMilestone"/><g data-id="d1xec04s" data-class="score" class="score pageMilestone"/><g data-id="z5i2vsr" data-class="system" class="system"><g data-id="ffi4fm5" data-class="section" class="section systemMilestone"/><g data-id="c13b9tee" data-class="measure" class="measure"><g data-id="r15a759p" data-class="staff" class="staff"><path d="M0 540 L2327 540" stroke-width="13"/><path d="M0 720 L2327 720" stroke-width="13"/><path d="M0 900 L2327 900" stroke-width="13"/><path d="M0 1080 L2327 1080" stroke-width="13"/><path d="M0 1260 L2327 1260" stroke-width="13"/><g data-id="gqlje5x" data-class="clef" class="clef"><use href="#E050-b160k9k4" transform="translate(90, 1080) scale(0.72, 0.72)"/></g><g data-id="h1btf8nz" data-class="keySig" class="keySig"><g data-id="i50nkcj" data-class="keyAccid" class="keyAccid"><use href="#E262-b160k9k4" transform="translate(735, 540) scale(0.72, 0.72)"/></g></g><g data-id="j3mbgyf" data-class="meterSig" class="meterSig"><use href="#E08A-b160k9k4" transform="translate(1056, 900) scale(0.72, 0.72)"/></g><g data-id="so09c9h" data-class="layer" class="layer"><g data-id="mmz46h5" data-class="note" class="note"><g data-class="notehead" class="notehead"><use href="#E0A4-b160k9k4" transform="translate(1624, 720) scale(0.72, 0.72)"/></g><g data-id="kyfjp4q" data-class="stem" class="stem"><path d="M1633 748 L1633 1350" stroke-width="18"/></g></g></g></g><g data-id="k9vp0mg" data-class="barLine" class="barLine"><path d="M2314 540 L2314 1260" stroke-width="27"/></g></g><g data-id="l1xuumpl" data-class="measure" class="measure"><g data-id="t5ojajd" data-class="staff" class="staff"><path d="M2327 540 L5514 540" stroke-width="13"/><path d="M2327 720 L5514 720" stroke-width="13"/><path d="M2327 900 L5514 900" stroke-width="13"/><path d="M2327 1080 L5514 1080" stroke-width="13"/><path d="M2327 1260 L5514 1260" stroke-width="13"/><g data-id="uz8rld5" data-class="layer" class="layer"><g data-id="n1xp8hfv" data-class="note" class="note"><g data-class="notehead" class="notehead"><use href="#E0A4-b160k9k4" transform="translate(2507, 720) scale(0.72, 0.72)"/></g><g data-id="l20lu19" data-class="stem" class="stem"><path d="M2516 748 L2516 1350" stroke-width="18"/></g></g><g data-id="o1qgbagt" data-class="note" class="note"><g data-class="notehead" class="notehead"><use href="#E0A4-b160k9k4" transform="translate(3197, 720) scale(0.72, 0.72)"/></g><g data-id="mvvszti" data-class="stem" class="stem"><path d="M3206 748 L3206 1350" stroke-width="18"/></g></g><g data-id="a1oprgbe" data-class="beam" class="beam"><polygon stroke-opacity="1" fill-opacity="1" points="3887,1395 4355,1350 4355,1260 3887,1305"/><g data-id="p1dthpv7" data-class="note" class="note"><g data-class="notehead" class="notehead"><use href="#E0A4-b160k9k4" transform="translate(3887, 720) scale(0.72, 0.72)"/></g><g data-id="n38315c" data-class="stem" class="stem"><path d="M3896 748 L3896 1377" stroke-width="18"/></g></g><g data-id="q1eg7163" data-class="note" class="note"><g data-class="notehead" class="notehead"><use href="#E0A4-b160k9k4" transform="translate(4337, 630) scale(0.72, 0.72)"/></g><g data-id="o1psq98y" data-class="stem" class="stem"><path d="M4346 658 L4346 1332" stroke-width="18"/></g></g></g><g data-id="r1dbf0hg" data-class="note" class="note"><g data-class="notehead" class="notehead"><use href="#E0A4-b160k9k4" transform="translate(4811, 540) scale(0.72, 0.72)"/></g><g data-id="pvzeogy" data-class="stem" class="stem"><path d="M4820 568 L4820 1170" stroke-width="18"/></g><g data-id="z4pc375" data-class="accid" class="accid"><use href="#E261-b160k9k4" transform="translate(4653, 540) scale(0.72, 0.72)"/></g></g></g></g><g data-id="t1mm6ekn" data-class="barLine" class="barLine"><path d="M5501 540 L5501 1260" stroke-width="27"/></g></g><g data-id="u19e1k9r" data-class="measure" class="measure"><g data-id="v1bfanzz" data-class="staff" class="staff"><path d="M5514 540 L8467 540" stroke-width="13"/><path d="M5514 720 L8467 720" stroke-width="13"/><path d="M5514 900 L8467 900" stroke-width="13"/><path d="M5514 1080 L8467 1080" stroke-width="13"/><path d="M5514 1260 L8467 1260" stroke-width="13"/><g data-id="w13sx9ag" data-class="layer" class="layer"><g data-id="s1tbocxr" data-class="note" class="note"><g data-class="notehead" class="notehead"><use href="#E0A4-b160k9k4" transform="translate(5694, 630) scale(0.72, 0.72)"/></g><g data-id="q131b0vf" data-class="stem" class="stem"><path d="M5703 658 L5703 1260" stroke-width="18"/></g></g><g data-id="t12z1bbv" data-class="note" class="note"><g data-class="notehead" class="notehead"><use href="#E0A4-b160k9k4" transform="translate(6384, 720) scale(0.72, 0.72)"/></g><g data-id="r1wskml5" data-class="stem" class="stem"><path d="M6393 748 L6393 1350" stroke-width="18"/></g></g><g data-id="unbbf98" data-class="note" class="note"><g data-class="notehead" class="notehead"><use href="#E0A4-b160k9k4" transform="translate(7074, 810) scale(0.72, 0.72)"/></g><g data-id="s1gmnnr8" data-class="stem" class="stem"><path d="M7083 838 L7083 1440" stroke-width="18"/></g></g><g data-id="v1rsy8ck" data-class="note" class="note"><g data-class="notehead" class="notehead"><use href="#E0A4-b160k9k4" transform="translate(7764, 720) scale(0.72, 0.72)"/></g><g data-id="t1btemcn" data-class="stem" class="stem"><path d="M7773 748 L7773 1350" stroke-width="18"/></g></g></g></g><g data-id="y1f6uedd" data-class="fermata" class="fermata"><use href="#E4C0-b160k9k4" transform="translate(6971, 493) scale(0.72, 0.72)"/></g><g data-id="c12q3kua" data-class="barLine" class="barLine"><path d="M8454 540 L8454 1260" stroke-width="27"/></g></g><g data-id="dgly9lf" data-class="measure" class="measure"><g data-id="x1v477k1" data-class="staff" class="staff"><path d="M8467 540 L10027 540" stroke-width="13"/><path d="M8467 720 L10027 720" stroke-width="13"/><path d="M8467 900 L10027 900" stroke-width="13"/><path d="M8467 1080 L10027 1080" stroke-width="13"/><path d="M8467 1260 L10027 1260" stroke-width="13"/><g data-id="yk4gzoq" data-class="layer" class="layer"><g data-id="w462geh" data-class="note" class="note"><g data-class="notehead" class="notehead"><use href="#E0A4-b160k9k4" transform="translate(8647, 900) scale(0.72, 0.72)"/></g><g data-id="uk9v0dw" data-class="stem" class="stem"><path d="M8656 928 L8656 1500" stroke-width="18"/></g></g><g data-id="x5c3q00" data-class="note" class="note"><g data-class="notehead" class="notehead"><use href="#E0A4-b160k9k4" transform="translate(9337, 1080) scale(0.72, 0.72)"/></g><g data-id="vz2liha" data-class="stem" class="stem"><path d="M9554 1052 L9554 450" stroke-width="18"/></g></g></g></g><g data-id="l19m6ron" data-class="barLine" class="barLine"/></g><g data-id="g1uo2dnn" data-class="systemMilestoneEnd" class="systemMilestoneEnd ffi4fm5"/></g><g data-id="hn0wiht" data-class="pageMilestoneEnd" class="pageMilestoneEnd d1xec04s"/><g data-id="i1t1mn2p" data-class="pageMilestoneEnd" class="pageMilestoneEnd cxz3xgj"/></g></svg></svg>