<svg viewBox="0 0 560 84" version="1.1" xmlns="http://www.w3.org/2000/svg" xmlns:xlink="http://www.w3.org/1999/xlink" overflow="visible" id="b41cz6a"><desc>Engraved by Verovio 5.6.0-85e7620</desc><defs><g id="E050-b41cz6a"><path transform="scale(1,-1)" d="M441 -245c-23 -4 -48 -6 -76 -6c-59 0 -102 7 -130 20c-88 42 -150 93 -187 154c-26 44 -43 103 -48 176c0 6 -1 13 -1 19c0 54 15 111 45 170c29 57 65 106 110 148s96 85 153 127c-3 16 -8 46 -13 92c-4 43 -5 73 -5 89c0 117 16 172 69 257c34 54 64 82 89 82 c21 0 43 -30 69 -92s39 -115 41 -159v-15c0 -109 -21 -162 -67 -241c-13 -20 -63 -90 -98 -118c-13 -9 -25 -19 -37 -29l31 -181c8 1 18 2 28 2c58 0 102 -12 133 -35c59 -43 92 -104 98 -184c1 -7 1 -15 1 -22c0 -123 -87 -209 -181 -248c8 -57 17 -110 25 -162 c5 -31 6 -58 6 -80c0 -30 -5 -53 -14 -70c-35 -64 -88 -99 -158 -103c-5 0 -11 -1 -16 -1c-37 0 -72 10 -108 27c-50 24 -77 59 -80 105v11c0 29 7 55 20 76c18 28 45 42 79 44h6c49 0 93 -42 97 -87v-9c0 -51 -34 -86 -105 -106c17 -24 51 -36 102 -36c62 0 116 43 140 85 c9 16 13 41 13 74c0 20 -1 42 -5 67c-8 53 -18 106 -26 159zM461 939c-95 0 -135 -175 -135 -286c0 -24 2 -48 5 -71c50 39 92 82 127 128c40 53 60 100 60 140v8c-4 53 -22 81 -55 81h-2zM406 119l54 -326c73 25 110 78 110 161c0 7 0 15 -1 23c-7 95 -57 142 -151 142h-12 zM382 117c-72 -2 -128 -47 -128 -120v-7c2 -46 43 -99 75 -115c-3 -2 -7 -5 -10 -10c-70 33 -116 88 -123 172v11c0 68 44 126 88 159c23 17 49 29 78 36l-29 170c-21 -13 -52 -37 -92 -73c-50 -44 -86 -84 -109 -119c-45 -69 -67 -130 -67 -182v-13c5 -68 35 -127 93 -176 s125 -73 203 -73c25 0 50 3 75 9c-19 111 -36 221 -54 331z"/></g><g id="E260-b41cz6a"><path transform="scale(1,-1)" d="M20 110c32 16 54 27 93 27c26 0 35 -3 54 -13c13 -7 24 -20 27 -38l4 -25c0 -28 -16 -57 -45 -89c-23 -25 -39 -44 -65 -68l-88 -79v644h20v-359zM90 106c-32 0 -48 -10 -70 -29v-194c31 31 54 59 71 84c21 32 32 59 32 84c0 9 1 16 1 20c0 14 -3 21 -11 30l-8 3z"/></g><g id="E08A-b41cz6a"><path transform="scale(1,-1)" d="M340 179c-9 24 -56 41 -89 41c-46 0 -81 -28 -100 -58c-17 -28 -25 -78 -25 -150c0 -65 2 -111 8 -135c8 -31 18 -49 40 -67c20 -17 43 -25 70 -25c54 0 92 36 115 75c14 25 23 54 28 88h27c0 -63 -24 -105 -58 -141c-35 -38 -82 -56 -140 -56c-45 0 -83 13 -115 39 c-57 45 -101 130 -101 226c0 59 33 127 68 163c36 37 97 72 160 72c36 0 93 -21 121 -40c11 -8 23 -17 33 -30c19 -23 27 -48 27 -76c0 -51 -35 -88 -86 -88c-43 0 -76 27 -76 68c0 26 7 35 21 51c15 17 32 27 58 32c7 2 14 7 14 11z"/></g><g id="E0A4-b41cz6a"><path transform="scale(1,-1)" d="M0 -39c0 68 73 172 200 172c66 0 114 -37 114 -95c0 -84 -106 -171 -218 -171c-64 0 -96 30 -96 94z"/></g><g id="E240-b41cz6a"><path transform="scale(1,-1)" d="M179 -646c15 29 29 55 46 102c18 49 30 108 30 138c0 105 -80 173 -168 200c-18 5 -47 9 -87 16v190h22c8 0 33 -61 71 -95c4 -3 -2 3 61 -56c62 -58 122 -137 122 -241c0 -38 -13 -106 -35 -163c-20 -51 -43 -99 -66 -132c-6 -5 -10 -7 -13 -7s-5 2 -5 5l4 10 c1 3 14 25 18 33z"/></g><g id="E261-b41cz6a"><path transform="scale(1,-1)" d="M0 -188v539h18v-191l139 22v-533h-17v186zM18 -100l122 17v176l-122 -19v-174z"/></g><g id="E241-b41cz6a"><path transform="scale(1,-1)" d="M179 646c-4 8 -17 30 -18 33l-4 10c0 3 2 5 5 5s7 -2 13 -7c23 -33 46 -81 66 -132c22 -57 35 -125 35 -163c0 -104 -60 -183 -122 -241c-63 -59 -57 -53 -61 -56c-38 -34 -63 -95 -71 -95h-22v190c40 7 69 11 87 16c88 27 168 95 168 200c0 30 -12 89 -30 138 c-17 47 -31 73 -46 102z"/></g></defs><style type="text/css">#b41cz6a g.page-margin {font-family:Times,serif;}#b41cz6a g.ending, #b41cz6a g.fing, #b41cz6a g.reh, #b41cz6a g.tempo {font-weight:bold;}#b41cz6a g.dir, #b41cz6a g.dynam, #b41cz6a g.mNum {font-style:italic;}#b41cz6a g.label {font-weight:normal;}#b41cz6a path {stroke:currentColor}</style><svg class="definition-scale" color="black" viewBox="0 0 14000 2100"><g class="page-margin" transform="translate(0, 150)"><g data-id="b17mkbvc" data-class="mdiv" class="mdiv pageMilestone"/><g data-id="c15uefgb" data-class="score" class="score pageMilestone"/><g data-id="c1c4a56u" data-class="system" class="system"><g data-id="eyz26c9" data-class="section" class="section systemMilestone"/><g data-id="c1fw64kv" data-class="measure" class="measure"><g data-id="q1e9vxu8" data-class="staff" class="staff"><path d="M0 540 L5427 540" stroke-width="13"/><path d="M0 720 L5427 720" stroke-width="13"/><path d="M0 900 L5427 900" stroke-width="13"/><path d="M0 1080 L5427 1080" stroke-width="13"/><path d="M0 1260 L5427 1260" stroke-width="13"/><g data-id="clpsglr" data-class="clef" class="clef"><use href="#E050-b41cz6a" transform="translate(90, 1080) scale(0.72, 0.72)"/></g><g data-id="dv92d9s" data-class="keySig" class="keySig"><g data-id="e1vqfi0q" data-class="keyAccid" class="keyAccid"><use href="#E260-b41cz6a" transform="translate(735, 900) scale(0.72, 0.72)"/></g><g data-id="f1lkeoxi" data-class="keyAccid" class="keyAccid"><use href="#E260-b41cz6a" transform="translate(915, 630) scale(0.72, 0.72)"/></g></g><g data-id="g1nj85eo" data-class="meterSig" class="meterSig"><use href="#E08A-b41cz6a" transform="translate(1237, 900) scale(0.72, 0.72)"/></g><g data-id="r18u9x8s" data-class="layer" class="layer"><g data-id="v145ic9t" data-class="note" class="note"><g data-class="notehead" class="notehead"><use href="#E0A4-b41cz6a" transform="translate(1819, 720) scale(0.72, 0.72)"/></g><g data-id="maruu4r" data-class="stem" class="stem"><path d="M1828 748 L1828 1350" stroke-width="18"/></g></g><g data-id="wi5ldq6" data-class="note" class="note"><g data-class="notehead" class="notehead"><use href="#E0A4-b41cz6a" transform="translate(2734, 900) scale(0.72, 0.72)"/></g><g data-id="nc0mzpl" data-class="stem" class="stem"><path d="M2743 928 L2743 1500" stroke-width="18"/></g><g data-id="ukzje9u" data-class="accid" class="accid"/></g><g data-id="x1hhtfpp" data-class="note" class="note"><g data-class="notehead" class="notehead"><use href="#E0A4-b41cz6a" transform="translate(3649, 1080) scale(0.72, 0.72)"/></g><g data-id="p1r2x99u" data-class="dots" class="dots"><ellipse cx="3965" cy="990" rx="36" ry="36" fill-opacity="1" stroke-opacity="1"/></g><g data-id="o1ptsrxu" data-class="stem" class="stem"><path d="M3866 1052 L3866 450" stroke-width="18"/></g></g><g data-id="y1eh5bf6" data-class="note" class="note"><g data-class="notehead" class="notehead"><use href="#E0A4-b41cz6a" transform="translate(4817, 1080) scale(0.72, 0.72)"/></g><g data-id="quibe2r" data-class="stem" class="stem"><path d="M5034 1052 L5034 450" stroke-width="18"/><g data-id="r117yz9o" data-class="flag" class="flag"><use href="#E240-b41cz6a" transform="translate(5025, 450) scale(0.72, 0.72)"/></g></g></g></g></g><g data-id="kkeekui" data-class="barLine" class="barLine"><path d="M5414 540 L5414 1260" stroke-width="27"/></g></g><g data-id="lozduwd" data-class="measure" class="measure"><g data-id="s6k95kw" data-class="staff" class="staff"><path d="M5427 540 L9854 540" stroke-width="13"/><path d="M5427 720 L9854 720" stroke-width="13"/><path d="M5427 900 L9854 900" stroke-width="13"/><path d="M5427 1080 L9854 1080" stroke-width="13"/><path d="M5427 1260 L9854 1260" stroke-width="13"/><g data-id="t17tnx0u" data-class="layer" class="layer"><g data-id="zyki9of" data-class="note" class="note"><g data-class="notehead" class="notehead"><use href="#E0A4-b41cz6a" transform="translate(5621, 1080) scale(0.72, 0.72)"/></g><g data-id="sn8dlk3" data-class="stem" class="stem"><path d="M5838 1052 L5838 450" stroke-width="18"/></g></g><g data-id="a1qxyxec" data-class="note" class="note"><g data-class="notehead" class="notehead"><use href="#E0A4-b41cz6a" transform="translate(6536, 990) scale(0.72, 0.72)"/></g><g data-id="tn2c839" data-class="stem" class="stem"><path d="M6753 962 L6753 360" stroke-width="18"/><g data-id="u12tnln2" data-class="flag" class="flag"><use href="#E240-b41cz6a" transform="translate(6744, 360) scale(0.72, 0.72)"/></g></g></g><g data-id="b1sklwpk" data-class="note" class="note"><g data-class="notehead" class="notehead"><use href="#E0A4-b41cz6a" transform="translate(7133, 990) scale(0.72, 0.72)"/></g><g data-id="vs3el83" data-class="stem" class="stem"><path d="M7350 962 L7350 360" stroke-width="18"/><g data-id="w11w9qtd" data-class="flag" class="flag"><use href="#E240-b41cz6a" transform="translate(7341, 360) scale(0.72, 0.72)"/></g></g></g><g data-id="s1o0fub1" data-class="beam" class="beam"><polygon stroke-opacity="1" fill-opacity="1" points="7939,405 8554,315 8554,405 7939,495"/><g data-id="c1wv3tbi" data-class="note" class="note"><g data-class="notehead" class="notehead"><use href="#E0A4-b41cz6a" transform="translate(7731, 990) scale(0.72, 0.72)"/></g><g data-id="xb0q76j" data-class="stem" class="stem"><path d="M7948 962 L7948 423" stroke-width="18"/></g></g><g data-id="d1obsxv8" data-class="note" class="note"><g data-class="notehead" class="notehead"><use href="#E0A4-b41cz6a" transform="translate(8328, 900) scale(0.72, 0.72)"/></g><g data-id="yo6ndur" data-class="stem" class="stem"><path d="M8545 872 L8545 333" stroke-width="18"/></g><g data-id="pb1we6r" data-class="accid" class="accid"><use href="#E261-b41cz6a" transform="translate(8170, 900) scale(0.72, 0.72)"/></g></g></g><g data-id="e45hbmw" data-class="note" class="note"><g data-class="notehead" class="notehead"><use href="#E0A4-b41cz6a" transform="translate(8925, 900) scale(0.72, 0.72)"/></g><g data-id="z54911l" data-class="stem" class="stem"><path d="M8934 928 L8934 1500" stroke-width="18"/></g><g data-id="v1fs6o" data-class="accid" class="accid"/></g></g></g><g data-id="td189mn" data-class="tie" class="tie"><path d="M9196,855 C9389,701 9805,700 10003,855 C9792,748 9403,748 9196,855" stroke-linecap="round" stroke-linejoin="round" stroke-width="9"/></g><g data-id="tluy588" data-class="barLine" class="barLine"><path d="M9841 540 L9841 1260" stroke-width="27"/></g></g><g data-id="u1op88wq" data-class="measure" class="measure"><g data-id="u1ebwidi" data-class="staff" class="staff"><path d="M9854 540 L14001 540" stroke-width="13"/><path d="M9854 720 L14001 720" stroke-width="13"/><path d="M9854 900 L14001 900" stroke-width="13"/><path d="M9854 1080 L14001 1080" stroke-width="13"/><path d="M9854 1260 L14001 1260" stroke-width="13"/><g data-id="v1tyen1b" data-class="layer" class="layer"><g data-id="f15076sr" data-class="note" class="note"><g data-class="notehead" class="notehead"><use href="#E0A4-b41cz6a" transform="translate(10048, 900) scale(0.72, 0.72)"/></g><g data-id="a1ptguvn" data-class="stem" class="stem"><path d="M10057 928 L10057 1500" stroke-width="18"/></g><g data-id="w13hkjvj" data-class="accid" class="accid"/></g><g data-id="g1d14t3q" data-class="note" class="note"><g data-class="notehead" class="notehead"><use href="#E0A4-b41cz6a" transform="translate(10963, 900) scale(0.72, 0.72)"/></g><g data-id="bg7cuug" data-class="stem" class="stem"><path d="M10972 928 L10972 1500" stroke-width="18"/><g data-id="c1yxaeas" data-class="flag" class="flag"><use href="#E241-b41cz6a" transform="translate(10963, 1500) scale(0.72, 0.72)"/></g></g><g data-id="q17lgs7y" data-class="accid" class="accid"><use href="#E261-b41cz6a" transform="translate(10805, 900) scale(0.72, 0.72)"/></g></g><g data-id="habcacw" data-class="note" class="note"><g data-class="notehead" class="notehead"><use href="#E0A4-b41cz6a" transform="translate(11560, 900) scale(0.72, 0.72)"/></g><g data-id="d14zyue0" data-class="stem" class="stem"><path d="M11569 928 L11569 1500" stroke-width="18"/><g data-id="e1v7zqzt" data-class="flag" class="flag"><use href="#E241-b41cz6a" transform="translate(11560, 1500) scale(0.72, 0.72)"/></g></g><g data-id="x1svwbqh" data-class="accid" class="accid"/></g><g data-id="ia4kihx" data-class="note" class="note"><g data-class="notehead" class="notehead"><use href="#E0A4-b41cz6a" transform="translate(12158, 810) scale(0.72, 0.72)"/></g><g data-id="f2ke5ja" data-class="stem" class="stem"><path d="M12167 838 L12167 1440" stroke-width="18"/></g></g><g data-id="j1t51ipa" data-class="note" class="note"><g data-class="notehead" class="notehead"><use href="#E0A4-b41cz6a" transform="translate(13073, 720) scale(0.72, 0.72)"/></g><g data-id="gxbyqrc" data-class="stem" class="stem"><path d="M13082 748 L13082 1350" stroke-width="18"/></g></g></g></g><g data-id="c1c6c8xv" data-class="barLine" class="barLine"><path d="M13988 540 L13988 1260" stroke-width="27"/></g></g></g></g></svg></svg>