<svg viewBox="0 0 560 84" version="1.1" xmlns="http://www.w3.org/2000/svg" xmlns:xlink="http://www.w3.org/1999/xlink" overflow="visible" id="o1v283p7"><desc>Engraved by Verovio 5.6.0-85e7620</desc><defs><g id="E050-o1v283p7"><path transform="scale(1,-1)" d="M441 -245c-23 -4 -48 -6 -76 -6c-59 0 -102 7 -130 20c-88 42 -150 93 -187 154c-26 44 -43 103 -48 176c0 6 -1 13 -1 19c0 54 15 111 45 170c29 57 65 106 110 148s96 85 153 127c-3 16 -8 46 -13 92c-4 43 -5 73 -5 89c0 117 16 172 69 257c34 54 64 82 89 82 c21 0 43 -30 69 -92s39 -115 41 -159v-15c0 -109 -21 -162 -67 -241c-13 -20 -63 -90 -98 -118c-13 -9 -25 -19 -37 -29l31 -181c8 1 18 2 28 2c58 0 102 -12 133 -35c59 -43 92 -104 98 -184c1 -7 1 -15 1 -22c0 -123 -87 -209 -181 -248c8 -57 17 -110 25 -162 c5 -31 6 -58 6 -80c0 -30 -5 -53 -14 -70c-35 -64 -88 -99 -158 -103c-5 0 -11 -1 -16 -1c-37 0 -72 10 -108 27c-50 24 -77 59 -80 105v11c0 29 7 55 20 76c18 28 45 42 79 44h6c49 0 93 -42 97 -87v-9c0 -51 -34 -86 -105 -106c17 -24 51 -36 102 -36c62 0 116 43 140 85 c9 16 13 41 13 74c0 20 -1 42 -5 67c-8 53 -18 106 -26 159zM461 939c-95 0 -135 -175 -135 -286c0 -24 2 -48 5 -71c50 39 92 82 127 128c40 53 60 100 60 140v8c-4 53 -22 81 -55 81h-2zM406 119l54 -326c73 25 110 78 110 161c0 7 0 15 -1 23c-7 95 -57 142 -151 142h-12 zM382 117c-72 -2 -128 -47 -128 -120v-7c2 -46 43 -99 75 -115c-3 -2 -7 -5 -10 -10c-70 33 -116 88 -123 172v11c0 68 44 126 88 159c23 17 49 29 78 36l-29 170c-21 -13 -52 -37 -92 -73c-50 -44 -86 -84 -109 -119c-45 -69 -67 -130 -67 -182v-13c5 -68 35 -127 93 -176 s125 -73 203 -73c25 0 50 3 75 9c-19 111 -36 221 -54 331z"/></g><g id="E262-o1v283p7"><path transform="scale(1,-1)" d="M136 186v169h17v-164l44 14v-91l-44 -14v-165l44 12v-91l-44 -13v-155h-17v150l-76 -22v-155h-17v149l-43 -13v90l43 14v167l-43 -14v92l43 13v169h17v-163zM60 73v-167l76 22v168z"/></g><g id="E082-o1v283p7"><path transform="scale(1,-1)" d="M124 -185c-18 0 -55 -14 -65 -65h-36l-3 30c0 25 6 45 18 63c11 19 22 30 39 43l121 82l37 29c15 11 27 29 38 54c12 24 18 47 18 70c0 40 -19 88 -94 88c-25 0 -32 0 -50 -8c-14 -5 -23 -12 -26 -22c3 -9 7 -15 10 -18l24 -17c12 -7 17 -11 27 -21c5 -7 7 -16 7 -27 c0 -12 0 -57 -79 -74c-30 0 -76 26 -76 94c0 66 81 135 197 135c72 0 181 -32 181 -150c0 -53 -32 -95 -113 -133l-91 -41c-26 -11 -45 -23 -57 -37l49 7c84 0 115 -41 148 -41c20 0 33 20 39 61h35c0 -152 -68 -168 -114 -168c-17 0 -65 0 -79 7h10l-28 17 c-49 37 -69 40 -87 42z"/></g><g id="E084-o1v283p7"><path transform="scale(1,-1)" d="M20 -78c84 97 114 180 134 329h170c-13 -32 -82 -132 -99 -151l-84 -97c-33 -36 -59 -63 -80 -81h162v102l127 123v-225h57v-39h-57v-34c0 -43 19 -65 57 -65v-34h-244v36c48 0 60 26 60 70v27h-203v39z"/></g><g id="E0A4-o1v283p7"><path transform="scale(1,-1)" d="M0 -39c0 68 73 172 200 172c66 0 114 -37 114 -95c0 -84 -106 -171 -218 -171c-64 0 -96 30 -96 94z"/></g><g id="E241-o1v283p7"><path transform="scale(1,-1)" d="M179 646c-4 8 -17 30 -18 33l-4 10c0 3 2 5 5 5s7 -2 13 -7c23 -33 46 -81 66 -132c22 -57 35 -125 35 -163c0 -104 -60 -183 -122 -241c-63 -59 -57 -53 -61 -56c-38 -34 -63 -95 -71 -95h-22v190c40 7 69 11 87 16c88 27 168 95 168 200c0 30 -12 89 -30 138 c-17 47 -31 73 -46 102z"/></g><g id="E242-o1v283p7"><path transform="scale(1,-1)" d="M206 -748c32 48 49 100 49 149c0 89 -55 168 -168 203c-18 5 -47 9 -87 16v190v190h22c8 0 33 -61 71 -95c4 -3 -2 3 61 -56c62 -58 122 -137 122 -241c0 -32 -7 -65 -17 -96c11 -29 17 -60 17 -94c0 -71 -32 -148 -67 -190c-6 -5 -10 -7 -13 -7s-5 2 -5 5l4 10 c1 3 6 8 11 16zM248 -463c4 18 7 38 7 57c0 105 -80 173 -168 200c-11 3 -27 6 -47 9c9 -17 23 -61 53 -88c4 -3 -2 3 61 -56c36 -33 71 -74 94 -122z"/></g><g id="E240-o1v283p7"><path transform="scale(1,-1)" d="M179 -646c15 29 29 55 46 102c18 49 30 108 30 138c0 105 -80 173 -168 200c-18 5 -47 9 -87 16v190h22c8 0 33 -61 71 -95c4 -3 -2 3 61 -56c62 -58 122 -137 122 -241c0 -38 -13 -106 -35 -163c-20 -51 -43 -99 -66 -132c-6 -5 -10 -7 -13 -7s-5 2 -5 5l4 10 c1 3 14 25 18 33z"/></g><g id="E4E7-o1v283p7"><path transform="scale(1,-1)" d="M133 -111c0 -33 -21 -50 -52 -55c10 -3 18 -4 25 -4c40 0 69 24 90 47l66 197c-36 -18 -64 -25 -112 -25c-23 0 -38 3 -45 8c-37 7 -55 27 -55 59c8 35 30 54 68 58c45 -6 49 -13 64 -48c0 -3 1 -5 1 -7c0 -27 -25 -46 -52 -49c6 -4 15 -6 26 -6c32 2 62 14 88 29 c32 19 44 36 59 71l7 1l10 2h4c-72 -220 -143 -439 -215 -659h-37l108 324c-20 -13 -51 -20 -82 -20c-21 0 -35 4 -43 10c-37 6 -55 26 -55 58c8 35 31 56 68 60c43 -8 48 -13 64 -51z"/></g><g id="E243-o1v283p7"><path transform="scale(1,-1)" d="M216 730c-5 8 -10 13 -11 16l-4 10c0 3 2 5 5 5s7 -2 13 -7c35 -42 57 -101 57 -172c0 -34 -6 -65 -17 -94c10 -31 17 -64 17 -96c0 -104 -60 -183 -122 -241c-63 -59 -57 -53 -61 -56c-38 -34 -63 -95 -71 -95h-22v190v190c40 7 69 11 87 16c116 36 175 111 175 197 c0 44 -15 91 -46 137zM248 463c-23 -48 -58 -89 -94 -122c-63 -59 -57 -53 -61 -56c-30 -27 -44 -71 -53 -88c20 3 36 6 47 9c88 27 168 95 168 200c0 19 -3 39 -7 57z"/></g></defs><style type="text/css">#o1v283p7 g.page-margin {font-family:Times,serif;}#o1v283p7 g.ending, #o1v283p7 g.fing, #o1v283p7 g.reh, #o1v283p7 g.tempo {font-weight:bold;}#o1v283p7 g.dir, #o1v283p7 g.dynam, #o1v283p7 g.mNum {font-style:italic;}#o1v283p7 g.label {font-weight:normal;}#o1v283p7 path {stroke:currentColor}</style><svg class="definition-scale" color="black" viewBox="0 0 14000 2100"><g class="page-margin" transform="translate(0, 150)"><g data-id="ta9i3c6" data-class="mdiv" class="mdiv pageMilestone"/><g data-id="uj1f59u" data-class="score" class="score pageMilestone"/><g data-id="g1tgoxga" data-class="system" class="system"><g data-id="wtvf1si" data-class="section" class="section systemMilestone"/><g data-id="pdnc74i" data-class="measure" class="measure"><g data-id="isl2p0y" data-class="staff" class="staff"><path d="M0 540 L4107 540" stroke-width="13"/><path d="M0 720 L4107 720" stroke-width="13"/><path d="M0 900 L4107 900" stroke-width="13"/><path d="M0 1080 L4107 1080" stroke-width="13"/><path d="M0 1260 L4107 1260" stroke-width="13"/><g data-id="nsl04xo" data-class="clef" class="clef"><use href="#E050-o1v283p7" transform="translate(90, 1080) scale(0.72, 0.72)"/></g><g data-id="o1vqqzfd" data-class="keySig" class="keySig"><g data-id="p15f3hzq" data-class="keyAccid" class="keyAccid"><use href="#E262-o1v283p7" transform="translate(735, 540) scale(0.72, 0.72)"/></g></g><g data-id="q1g5u0zr" data-class="meterSig" class="meterSig"><use href="#E082-o1v283p7" transform="translate(1042, 720) scale(0.72, 0.72)"/><use href="#E084-o1v283p7" transform="translate(1047, 1080) scale(0.72, 0.72)"/></g><g data-id="j1dq0cjq" data-class="layer" class="layer"><g data-id="swzx27v" data-class="note" class="note"><g data-class="notehead" class="notehead"><use href="#E0A4-o1v283p7" transform="translate(1623, 900) scale(0.72, 0.72)"/></g><g data-id="f117s453" data-class="stem" class="stem"><path d="M1632 928 L1632 1500" stroke-width="18"/><g data-id="g1co5evk" data-class="flag" class="flag"><use href="#E241-o1v283p7" transform="translate(1623, 1500) scale(0.72, 0.72)"/></g></g></g><g data-id="tld9vi2" data-class="note" class="note"><g data-class="notehead" class="notehead"><use href="#E0A4-o1v283p7" transform="translate(2077, 1080) scale(0.72, 0.72)"/></g><g data-id="ho0vhql" data-class="stem" class="stem"><path d="M2294 1052 L2294 450" stroke-width="18"/><g data-id="i99lv6" data-class="flag" class="flag"><use href="#E242-o1v283p7" transform="translate(2285, 450) scale(0.72, 0.72)"/></g></g></g><g data-id="u16679f0" data-class="note" class="note"><g data-class="notehead" class="notehead"><use href="#E0A4-o1v283p7" transform="translate(2593, 990) scale(0.72, 0.72)"/></g><g data-id="j3jpl2w" data-class="stem" class="stem"><path d="M2810 962 L2810 360" stroke-width="18"/><g data-id="k1xfr15r" data-class="flag" class="flag"><use href="#E242-o1v283p7" transform="translate(2801, 360) scale(0.72, 0.72)"/></g></g></g><g data-id="vr503an" data-class="note" class="note"><g data-class="notehead" class="notehead"><use href="#E0A4-o1v283p7" transform="translate(3109, 900) scale(0.72, 0.72)"/></g><g data-id="l1mh3ngy" data-class="stem" class="stem"><path d="M3118 928 L3118 1500" stroke-width="18"/><g data-id="m1grhkgs" data-class="flag" class="flag"><use href="#E241-o1v283p7" transform="translate(3109, 1500) scale(0.72, 0.72)"/></g></g></g><g data-id="w1rgagjs" data-class="note" class="note"><g data-class="notehead" class="notehead"><use href="#E0A4-o1v283p7" transform="translate(3563, 990) scale(0.72, 0.72)"/></g><g data-id="nsrppzb" data-class="stem" class="stem"><path d="M3780 962 L3780 360" stroke-width="18"/><g data-id="oi3wisz" data-class="flag" class="flag"><use href="#E240-o1v283p7" transform="translate(3771, 360) scale(0.72, 0.72)"/></g></g></g></g></g><g data-id="xrhwmid" data-class="barLine" class="barLine"><path d="M4094 540 L4094 1260" stroke-width="27"/></g></g><g data-id="y15vpgh4" data-class="measure" class="measure"><g data-id="kfmtcay" data-class="staff" class="staff"><path d="M4107 540 L5912 540" stroke-width="13"/><path d="M4107 720 L5912 720" stroke-width="13"/><path d="M4107 900 L5912 900" stroke-width="13"/><path d="M4107 1080 L5912 1080" stroke-width="13"/><path d="M4107 1260 L5912 1260" stroke-width="13"/><g data-id="le71v0j" data-class="layer" class="layer"><g data-id="x10icjws" data-class="note" class="note"><g data-class="notehead" class="notehead"><use href="#E0A4-o1v283p7" transform="translate(4295, 810) scale(0.72, 0.72)"/></g><g data-id="p1cctja" data-class="stem" class="stem"><path d="M4304 838 L4304 1440" stroke-width="18"/></g></g><g data-id="ylwyowa" data-class="note" class="note"><g data-class="notehead" class="notehead"><use href="#E0A4-o1v283p7" transform="translate(4991, 900) scale(0.72, 0.72)"/></g><g data-id="qn3do0d" data-class="stem" class="stem"><path d="M5000 928 L5000 1500" stroke-width="18"/><g data-id="rph2au9" data-class="flag" class="flag"><use href="#E241-o1v283p7" transform="translate(4991, 1500) scale(0.72, 0.72)"/></g></g></g><g data-id="zane99z" data-class="note" class="note"><g data-class="notehead" class="notehead"><use href="#E0A4-o1v283p7" transform="translate(5445, 630) scale(0.72, 0.72)"/></g><g data-id="sig3xn1" data-class="stem" class="stem"><path d="M5454 658 L5454 1260" stroke-width="18"/><g data-id="t1er9e6c" data-class="flag" class="flag"><use href="#E241-o1v283p7" transform="translate(5445, 1260) scale(0.72, 0.72)"/></g></g></g></g></g><g data-id="g15g5dbx" data-class="barLine" class="barLine"><path d="M5899 540 L5899 1260" stroke-width="27"/></g></g><g data-id="h16ip9jw" data-class="measure" class="measure"><g data-id="m1p5ctn3" data-class="staff" class="staff"><path d="M5912 540 L7928 540" stroke-width="13"/><path d="M5912 720 L7928 720" stroke-width="13"/><path d="M5912 900 L7928 900" stroke-width="13"/><path d="M5912 1080 L7928 1080" stroke-width="13"/><path d="M5912 1260 L7928 1260" stroke-width="13"/><g data-id="n1wr88vv" data-class="layer" class="layer"><g data-id="a1ca3v2k" data-class="note" class="note"><g data-class="notehead" class="notehead"><use href="#E0A4-o1v283p7" transform="translate(6100, 720) scale(0.72, 0.72)"/></g><g data-id="ucy1ms4" data-class="stem" class="stem"><path d="M6109 748 L6109 1350" stroke-width="18"/><g data-id="v1ky42jl" data-class="flag" class="flag"><use href="#E241-o1v283p7" transform="translate(6100, 1350) scale(0.72, 0.72)"/></g></g></g><g data-id="bzd3yn2" data-class="note" class="note"><g data-class="notehead" class="notehead"><use href="#E0A4-o1v283p7" transform="translate(6554, 810) scale(0.72, 0.72)"/></g><g data-id="w1g5gyxi" data-class="stem" class="stem"><path d="M6563 838 L6563 1440" stroke-width="18"/><g data-id="x1r4yanz" data-class="flag" class="flag"><use href="#E241-o1v283p7" transform="translate(6554, 1440) scale(0.72, 0.72)"/></g></g></g><g data-id="c1qfdyg6" data-class="note" class="note"><g data-class="notehead" class="notehead"><use href="#E0A4-o1v283p7" transform="translate(7007, 900) scale(0.72, 0.72)"/></g><g data-id="y1st9woy" data-class="stem" class="stem"><path d="M7016 928 L7016 1500" stroke-width="18"/><g data-id="z4tb05a" data-class="flag" class="flag"><use href="#E241-o1v283p7" transform="translate(7007, 1500) scale(0.72, 0.72)"/></g></g></g><g data-id="d14wgwbk" data-class="note" class="note"><g data-class="notehead" class="notehead"><use href="#E0A4-o1v283p7" transform="translate(7461, 810) scale(0.72, 0.72)"/></g><g data-id="ayc4mmg" data-class="stem" class="stem"><path d="M7470 838 L7470 1440" stroke-width="18"/><g data-id="b1n4b8ud" data-class="flag" class="flag"><use href="#E241-o1v283p7" transform="translate(7461, 1440) scale(0.72, 0.72)"/></g></g></g></g></g><g data-id="p84vyn" data-class="barLine" class="barLine"><path d="M7915 540 L7915 1260" stroke-width="27"/></g></g><g data-id="q1o9q6p0" data-class="measure" class="measure"><g data-id="owz918b" data-class="staff" class="staff"><path d="M7928 540 L9697 540" stroke-width="13"/><path d="M7928 720 L9697 720" stroke-width="13"/><path d="M7928 900 L9697 900" stroke-width="13"/><path d="M7928 1080 L9697 1080" stroke-width="13"/><path d="M7928 1260 L9697 1260" stroke-width="13"/><g data-id="p12abor8" data-class="layer" class="layer"><g data-id="exujxjk" data-class="note" class="note"><g data-class="notehead" class="notehead"><use href="#E0A4-o1v283p7" transform="translate(8116, 1170) scale(0.72, 0.72)"/></g><g data-id="dqwhqyt" data-class="dots" class="dots"><ellipse cx="8432" cy="1170" rx="36" ry="36" fill-opacity="1" stroke-opacity="1"/></g><g data-id="cs36gbs" data-class="stem" class="stem"><path d="M8333 1142 L8333 540" stroke-width="18"/></g><g data-id="r1xbfxh7" data-class="accid" class="accid"/></g><g data-id="r1p289jm" data-class="rest" class="rest"><use href="#E4E7-o1v283p7" transform="translate(9005, 900) scale(0.72, 0.72)"/></g><g data-id="fa8bgc9" data-class="note" class="note"><g data-class="notehead" class="notehead"><use href="#E0A4-o1v283p7" transform="translate(9341, 900) scale(0.72, 0.72)"/></g><g data-id="ew0vr35" data-class="stem" class="stem"><path d="M9350 928 L9350 1500" stroke-width="18"/><g data-id="f1dh8a0h" data-class="flag" class="flag"><use href="#E243-o1v283p7" transform="translate(9341, 1500) scale(0.72, 0.72)"/></g></g></g></g></g><g data-id="y41dxms" data-class="barLine" class="barLine"><path d="M9684 540 L9684 1260" stroke-width="27"/></g></g><g data-id="z2ybbeu" data-class="measure" class="measure"><g data-id="q1bew5t2" data-class="staff" class="staff"><path d="M9697 540 L12136 540" stroke-width="13"/><path d="M9697 720 L12136 720" stroke-width="13"/><path d="M9697 900 L12136 900" stroke-width="13"/><path d="M9697 1080 L12136 1080" stroke-width="13"/><path d="M9697 1260 L12136 1260" stroke-width="13"/><g data-id="rfaqqno" data-class="layer" class="layer"><g data-id="g2axc2c" data-class="note" class="note"><g data-class="notehead" class="notehead"><use href="#E0A4-o1v283p7" transform="translate(9885, 900) scale(0.72, 0.72)"/></g><g data-id="gh92ljt" data-class="stem" class="stem"><path d="M9894 928 L9894 1500" stroke-width="18"/><g data-id="h1k5mf9r" data-class="flag" class="flag"><use href="#E241-o1v283p7" transform="translate(9885, 1500) scale(0.72, 0.72)"/></g></g></g><g data-id="p10nwuv0" data-class="beam" class="beam"><polygon stroke-opacity="1" fill-opacity="1" points="10547,360 10894,315 10894,405 10547,450"/><polygon stroke-opacity="1" fill-opacity="1" points="10547,495 10894,450 10894,540 10547,585"/><g data-id="h30spja" data-class="note" class="note"><g data-class="notehead" class="notehead"><use href="#E0A4-o1v283p7" transform="translate(10339, 1080) scale(0.72, 0.72)"/></g><g data-id="idrorho" data-class="stem" class="stem"><path d="M10556 1052 L10556 378" stroke-width="18"/></g></g><g data-id="i1cnpsej" data-class="note" class="note"><g data-class="notehead" class="notehead"><use href="#E0A4-o1v283p7" transform="translate(10668, 990) scale(0.72, 0.72)"/></g><g data-id="j1k2rukm" data-class="stem" class="stem"><path d="M10885 962 L10885 333" stroke-width="18"/></g></g></g><g data-id="jc6lk9b" data-class="note" class="note"><g data-class="notehead" class="notehead"><use href="#E0A4-o1v283p7" transform="translate(10996, 900) scale(0.72, 0.72)"/></g><g data-id="k35i8uv" data-class="stem" class="stem"><path d="M11005 928 L11005 1500" stroke-width="18"/><g data-id="l1th832n" data-class="flag" class="flag"><use href="#E241-o1v283p7" transform="translate(10996, 1500) scale(0.72, 0.72)"/></g></g></g><g data-id="q1gxbd2n" data-class="beam" class="beam"><polygon stroke-opacity="1" fill-opacity="1" points="11450,1440 11797,1485 11797,1395 11450,1350"/><polygon stroke-opacity="1" fill-opacity="1" points="11450,1305 11797,1350 11797,1260 11450,1215"/><g data-id="k1mffmj3" data-class="note" class="note"><g data-class="notehead" class="notehead"><use href="#E0A4-o1v283p7" transform="translate(11450, 720) scale(0.72, 0.72)"/></g><g data-id="m168euyr" data-class="stem" class="stem"><path d="M11459 748 L11459 1422" stroke-width="18"/></g></g><g data-id="l1602ir9" data-class="note" class="note"><g data-class="notehead" class="notehead"><use href="#E0A4-o1v283p7" transform="translate(11779, 810) scale(0.72, 0.72)"/></g><g data-id="n1mksj7u" data-class="stem" class="stem"><path d="M11788 838 L11788 1467" stroke-width="18"/></g></g></g></g></g><g data-id="hsvzrfa" data-class="barLine" class="barLine"><path d="M12123 540 L12123 1260" stroke-width="27"/></g></g><g data-id="i1d819sr" data-class="measure" class="measure"><g data-id="s1js8su4" data-class="staff" class="staff"><path d="M12136 540 L14003 540" stroke-width="13"/><path d="M12136 720 L14003 720" stroke-width="13"/><path d="M12136 900 L14003 900" stroke-width="13"/><path d="M12136 1080 L14003 1080" stroke-width="13"/><path d="M12136 1260 L14003 1260" stroke-width="13"/><g data-id="tfn45sz" data-class="layer" class="layer"><g data-id="mcdbhs8" data-class="note" class="note"><g data-class="notehead" class="notehead"><use href="#E0A4-o1v283p7" transform="translate(12324, 900) scale(0.72, 0.72)"/></g><g data-id="onyve3l" data-class="stem" class="stem"><path d="M12333 928 L12333 1500" stroke-width="18"/></g></g><g data-id="njap2lf" data-class="note" class="note"><g data-class="notehead" class="notehead"><use href="#E0A4-o1v283p7" transform="translate(13020, 990) scale(0.72, 0.72)"/></g><g data-id="p15gmlmj" data-class="stem" class="stem"><path d="M13237 962 L13237 360" stroke-width="18"/><g data-id="q1kb4iw3" data-class="flag" class="flag"><use href="#E240-o1v283p7" transform="translate(13228, 360) scale(0.72, 0.72)"/></g></g></g><g data-id="o12zq70o" data-class="note" class="note"><g data-class="notehead" class="notehead"><use href="#E0A4-o1v283p7" transform="translate(13536, 720) scale(0.72, 0.72)"/></g><g data-id="r7ou0hz" data-class="stem" class="stem"><path d="M13545 748 L13545 1350" stroke-width="18"/><g data-id="scubbdl" data-class="flag" class="flag"><use href="#E241-o1v283p7" transform="translate(13536, 1350) scale(0.72, 0.72)"/></g></g></g></g></g><g data-id="qb1mpeh" data-class="barLine" class="barLine"><path d="M13990 540 L13990 1260" stroke-width="27"/></g></g><g data-id="b1wgmu6d" data-class="systemMilestoneEnd" class="systemMilestoneEnd wtvf1si"/></g><g data-id="c18uiqjx" data-class="pageMilestoneEnd" class="pageMilestoneEnd uj1f59u"/><g data-id="dwo40ba" data-class="pageMilestoneEnd" class="pageMilestoneEnd ta9i3c6"/></g></svg></svg>