<svg viewBox="0 0 560 88" version="1.1" xmlns="http://www.w3.org/2000/svg" xmlns:xlink="http://www.w3.org/1999/xlink" overflow="visible" id="i1wk8sy4"><desc>Engraved by Verovio 5.6.0-85e7620</desc><defs><g id="E062-i1wk8sy4"><path transform="scale(1,-1)" d="M582 -120c0 32 26 58 58 58s58 -26 58 -58s-26 -58 -58 -58s-58 26 -58 58zM582 120c0 32 26 58 58 58s58 -26 58 -58s-26 -58 -58 -58s-58 26 -58 58zM158 96c51 0 73 -14 88 -49l16 -39c0 -17 -2 -30 -7 -40c-3 -11 -10 -21 -19 -31c-17 -18 -49 -43 -84 -43 c-55 0 -77 13 -112 44c-24 21 -35 55 -35 100c0 46 14 81 32 112c30 52 71 79 137 93l36 6l26 2c154 0 235 -68 274 -182c11 -32 18 -68 18 -107c0 -103 -26 -182 -68 -250c-89 -145 -234 -230 -412 -288l-30 -5c-9 0 -14 3 -14 8c3 10 5 11 10 16c35 15 70 30 96 44l78 43 c96 57 162 136 197 258c9 33 17 60 22 100c3 22 5 35 6 39c-7 69 -16 115 -23 140s-4 22 -16 40c-8 12 -19 23 -31 34c-24 21 -62 44 -118 44c-48 0 -84 -8 -113 -28c-28 -19 -42 -44 -42 -73v-16c2 -5 3 -9 4 -11c24 22 52 39 84 39z"/></g><g id="E262-i1wk8sy4"><path transform="scale(1,-1)" d="M136 186v169h17v-164l44 14v-91l-44 -14v-165l44 12v-91l-44 -13v-155h-17v150l-76 -22v-155h-17v149l-43 -13v90l43 14v167l-43 -14v92l43 13v169h17v-163zM60 73v-167l76 22v168z"/></g><g id="E086-i1wk8sy4"><path transform="scale(1,-1)" d="M284 -91c0 37 -28 92 -67 92c-35 0 -65 -54 -65 -111c0 -52 22 -104 68 -104c47 0 64 68 64 123zM230 214c-36 0 -90 -33 -90 -184l2 -36c40 24 81 36 120 36c80 0 140 -48 140 -121c0 -99 -99 -159 -182 -159c-160 0 -200 173 -200 244c0 21 2 43 7 71l10 35 c26 85 73 115 98 126c41 19 74 24 103 24c93 0 142 -63 142 -105c0 -58 -52 -72 -73 -72c-33 0 -59 24 -65 35c-3 5 -6 14 -7 25l11 30c6 15 9 27 9 35c0 11 -9 16 -25 16z"/></g><g id="E088-i1wk8sy4"><path transform="scale(1,-1)" d="M195 -214c76 0 88 58 90 68c0 34 -35 60 -57 73l-52 29c-21 10 -32 17 -34 20c-39 -33 -58 -54 -62 -92c5 -23 23 -98 115 -98zM301 135c0 61 -72 76 -113 76c-40 0 -77 -17 -77 -51c3 -21 15 -38 26 -50c17 -15 33 -26 48 -34l65 -28c34 27 51 56 51 87zM176 -250 c-57 0 -166 26 -166 132c0 47 30 86 89 116c-33 15 -79 60 -79 119c0 79 85 132 178 132h18c5 0 21 1 28 -1c25 0 126 -30 126 -110c0 -37 -23 -76 -69 -116c43 -25 83 -71 83 -119c0 -101 -118 -153 -208 -153z"/></g><g id="E0A4-i1wk8sy4"><path transform="scale(1,-1)" d="M0 -39c0 68 73 172 200 172c66 0 114 -37 114 -95c0 -84 -106 -171 -218 -171c-64 0 -96 30 -96 94z"/></g><g id="E07A-i1wk8sy4"><path transform="scale(1,-1)" d="M343 -190c-18 -3 -37 -5 -59 -5c-46 0 -79 6 -101 16c-68 33 -117 72 -146 119c-20 34 -33 80 -37 137c0 5 -1 10 -1 15c0 42 12 86 35 132c23 44 51 82 86 115s75 65 119 98c-2 12 -7 36 -11 72c-3 33 -3 57 -3 69c0 91 12 134 53 200c26 42 50 63 69 63 c16 0 34 -23 54 -71s30 -90 32 -124v-11c0 -85 -16 -126 -52 -187c-10 -16 -49 -70 -76 -92c-10 -7 -20 -15 -29 -23l24 -140c6 1 14 1 22 1c45 0 79 -9 103 -27c46 -33 71 -81 76 -143c1 -5 1 -12 1 -17c0 -96 -68 -163 -141 -193c6 -44 14 -86 20 -126c4 -24 4 -45 4 -62 c0 -23 -3 -41 -10 -54c-27 -50 -69 -77 -123 -80c-4 0 -9 -1 -13 -1c-29 0 -56 8 -84 21c-39 19 -60 46 -62 82v8c0 23 6 43 16 59c14 22 35 32 61 34h5c38 0 72 -32 75 -67v-7c0 -40 -26 -67 -81 -83c13 -19 39 -28 79 -28c48 0 90 34 109 67c7 12 10 31 10 57 c0 16 -1 33 -4 52c-6 41 -14 83 -20 124zM358 730c-74 0 -105 -137 -105 -223c0 -19 2 -37 4 -55c39 30 72 64 99 100c31 41 46 77 46 108v7c-3 41 -16 63 -42 63h-2zM315 92l42 -253c57 19 86 61 86 125c0 5 0 12 -1 18c-5 74 -44 110 -117 110h-10zM297 91 c-56 -2 -100 -36 -100 -93v-6c2 -36 34 -77 59 -89c-2 -2 -6 -4 -8 -8c-54 26 -91 69 -96 134v8c0 53 35 98 69 124c18 13 37 23 60 28l-22 132c-16 -10 -41 -29 -72 -57c-39 -34 -66 -65 -84 -92c-35 -54 -52 -102 -52 -142v-10c4 -53 27 -99 72 -137s96 -56 157 -56 c19 0 40 2 59 7c-15 86 -28 172 -42 257z"/></g><g id="E07C-i1wk8sy4"><path transform="scale(1,-1)" d="M509 -105c0 28 22 51 50 51s51 -23 51 -51s-23 -51 -51 -51s-50 23 -50 51zM509 105c0 28 22 51 50 51s51 -23 51 -51s-23 -51 -51 -51s-50 23 -50 51zM138 84c43 0 63 -11 77 -43l14 -34c0 -16 -2 -27 -6 -35c-2 -9 -8 -17 -17 -27c-22 -24 -49 -38 -73 -38 c-43 0 -63 8 -98 39c-20 18 -31 47 -31 87c0 34 9 65 28 98c26 45 62 69 120 81l32 6l22 1c125 0 203 -51 240 -159c10 -30 15 -61 15 -93c0 -83 -19 -154 -59 -219c-70 -115 -185 -194 -360 -251l-26 -5c-8 0 -13 3 -13 7c2 7 3 8 9 14c47 20 66 30 84 39l68 37 c89 53 143 125 172 226c13 48 17 60 20 87c3 19 4 31 5 34c-5 51 -12 95 -20 123c-8 30 -5 22 -14 35c-6 9 -14 17 -27 29c-29 26 -64 39 -103 39c-44 0 -75 -8 -99 -25c-24 -16 -37 -38 -37 -64v-14c2 -4 3 -7 4 -9c25 23 49 34 73 34z"/></g></defs><style type="text/css">#i1wk8sy4 g.page-margin {font-family:Times,serif;}#i1wk8sy4 g.ending, #i1wk8sy4 g.fing, #i1wk8sy4 g.reh, #i1wk8sy4 g.tempo {font-weight:bold;}#i1wk8sy4 g.dir, #i1wk8sy4 g.dynam, #i1wk8sy4 g.mNum {font-style:italic;}#i1wk8sy4 g.label {font-weight:normal;}#i1wk8sy4 path {stroke:currentColor}</style><svg class="definition-scale" color="black" viewBox="0 0 14000 2190"><g class="page-margin" transform="translate(0, 150)"><g data-id="p5usiej" data-class="mdiv" class="mdiv pageMilestone"/><g data-id="q1c80zp1" data-class="score" class="score pageMilestone"/><g data-id="r1lm48qe" data-class="system" class="system"><g data-id="s1a5qgf0" data-class="section" class="section systemMilestone"/><g data-id="ju5xvrg" data-class="measure" class="measure"><g data-id="ea06g28" data-class="staff" class="staff"><path d="M0 540 L6270 540" stroke-width="13"/><path d="M0 720 L6270 720" stroke-width="13"/><path d="M0 900 L6270 900" stroke-width="13"/><path d="M0 1080 L6270 1080" stroke-width="13"/><path d="M0 1260 L6270 1260" stroke-width="13"/><g data-id="q1hj0cow" data-class="clef" class="clef"><use href="#E062-i1wk8sy4" transform="translate(88, 720) scale(0.72, 0.72)"/></g><g data-id="r12h6up5" data-class="keySig" class="keySig"><g data-id="swqkqjj" data-class="keyAccid" class="keyAccid"><use href="#E262-i1wk8sy4" transform="translate(769, 720) scale(0.72, 0.72)"/></g><g data-id="t17sued8" data-class="keyAccid" class="keyAccid"><use href="#E262-i1wk8sy4" transform="translate(947, 990) scale(0.72, 0.72)"/></g></g><g data-id="urnx3bn" data-class="meterSig" class="meterSig"><use href="#E086-i1wk8sy4" transform="translate(1254, 720) scale(0.72, 0.72)"/><use href="#E088-i1wk8sy4" transform="translate(1261, 1080) scale(0.72, 0.72)"/></g><g data-id="f1x1qmrx" data-class="layer" class="layer"><g data-id="e1yjvzvm" data-class="beam" class="beam"><polygon stroke-opacity="1" fill-opacity="1" points="1813,1755 3597,1755 3597,1665 1813,1665"/><polygon stroke-opacity="1" fill-opacity="1" points="1813,1620 2324,1620 2324,1530 1813,1530"/><polygon stroke-opacity="1" fill-opacity="1" points="2324,1620 2640,1620 2640,1530 2324,1530"/><polygon stroke-opacity="1" fill-opacity="1" points="2640,1620 2956,1620 2956,1530 2640,1530"/><polygon stroke-opacity="1" fill-opacity="1" points="2956,1620 3272,1620 3272,1530 2956,1530"/><polygon stroke-opacity="1" fill-opacity="1" points="3272,1620 3597,1620 3597,1530 3272,1530"/><g data-id="d1og7aks" data-class="note" class="note"><g data-class="notehead" class="notehead"><use href="#E0A4-i1wk8sy4" transform="translate(1813, 1080) scale(0.72, 0.72)"/></g><g data-id="u17d8s34" data-class="stem" class="stem"><path d="M1822 1108 L1822 1737" stroke-width="18"/></g></g><g data-id="e1dmz5e8" data-class="note" class="note"><g data-class="notehead" class="notehead"><use href="#E0A4-i1wk8sy4" transform="translate(2315, 1170) scale(0.72, 0.72)"/></g><g data-id="v19sb63y" data-class="stem" class="stem"><path d="M2324 1198 L2324 1737" stroke-width="18"/></g><g data-id="b2b358t" data-class="accid" class="accid"><use href="#E262-i1wk8sy4" transform="translate(2129, 1170) scale(0.72, 0.72)"/></g></g><g data-id="fm5br4u" data-class="note" class="note"><g data-class="notehead" class="notehead"><use href="#E0A4-i1wk8sy4" transform="translate(2631, 1080) scale(0.72, 0.72)"/></g><g data-id="w22ed4f" data-class="stem" class="stem"><path d="M2640 1108 L2640 1737" stroke-width="18"/></g></g><g data-id="g1uw38w7" data-class="note" class="note"><g data-class="notehead" class="notehead"><use href="#E0A4-i1wk8sy4" transform="translate(2947, 900) scale(0.72, 0.72)"/></g><g data-id="xl65qm7" data-class="stem" class="stem"><path d="M2956 928 L2956 1737" stroke-width="18"/></g></g><g data-id="h1z21z2" data-class="note" class="note"><g data-class="notehead" class="notehead"><use href="#E0A4-i1wk8sy4" transform="translate(3263, 720) scale(0.72, 0.72)"/></g><g data-id="y4mvc1s" data-class="stem" class="stem"><path d="M3272 748 L3272 1737" stroke-width="18"/></g><g data-id="ir6o87o" data-class="accid" class="accid"/></g><g data-id="i1qk7xn1" data-class="note" class="note"><g data-class="notehead" class="notehead"><use href="#E0A4-i1wk8sy4" transform="translate(3579, 450) scale(0.72, 0.72)"/></g><g data-id="z13a2j3w" data-class="stem" class="stem"><path d="M3588 478 L3588 1737" stroke-width="18"/></g></g></g><g data-id="s19harcs" data-class="clef" class="clef"><use href="#E07A-i1wk8sy4" transform="translate(3895, 1080) scale(0.72, 0.72)"/></g><g data-id="f8kbbmz" data-class="beam" class="beam"><polygon stroke-opacity="1" fill-opacity="1" points="4555,135 6153,135 6153,225 4555,225"/><polygon stroke-opacity="1" fill-opacity="1" points="4555,270 4880,270 4880,360 4555,360"/><polygon stroke-opacity="1" fill-opacity="1" points="4880,270 5196,270 5196,360 4880,360"/><polygon stroke-opacity="1" fill-opacity="1" points="5196,270 5512,270 5512,360 5196,360"/><polygon stroke-opacity="1" fill-opacity="1" points="5512,270 5828,270 5828,360 5512,360"/><polygon stroke-opacity="1" fill-opacity="1" points="5828,270 6153,270 6153,360 5828,360"/><g data-id="joyx1lf" data-class="note" class="note"><g data-class="notehead" class="notehead"><use href="#E0A4-i1wk8sy4" transform="translate(4347, 1350) scale(0.72, 0.72)"/></g><g data-id="anurj6r" data-class="stem" class="stem"><path d="M4564 1322 L4564 153" stroke-width="18"/></g></g><g data-id="k1hcup08" data-class="note" class="note"><g data-class="notehead" class="notehead"><use href="#E0A4-i1wk8sy4" transform="translate(4663, 1170) scale(0.72, 0.72)"/></g><g data-id="b19y6gvq" data-class="stem" class="stem"><path d="M4880 1142 L4880 153" stroke-width="18"/></g><g data-id="j1iigrc" data-class="accid" class="accid"/></g><g data-id="l3une8b" data-class="note" class="note"><g data-class="notehead" class="notehead"><use href="#E0A4-i1wk8sy4" transform="translate(4979, 900) scale(0.72, 0.72)"/></g><g data-id="c1us6t0" data-class="stem" class="stem"><path d="M5196 872 L5196 153" stroke-width="18"/></g></g><g data-id="m1bhdff0" data-class="note" class="note"><g data-class="notehead" class="notehead"><use href="#E0A4-i1wk8sy4" transform="translate(5295, 720) scale(0.72, 0.72)"/></g><g data-id="d82j3zi" data-class="stem" class="stem"><path d="M5512 692 L5512 153" stroke-width="18"/></g></g><g data-id="n69ajcr" data-class="note" class="note"><g data-class="notehead" class="notehead"><use href="#E0A4-i1wk8sy4" transform="translate(5611, 810) scale(0.72, 0.72)"/></g><g data-id="ew2skvs" data-class="stem" class="stem"><path d="M5828 782 L5828 153" stroke-width="18"/></g><g data-id="k1wsy818" data-class="accid" class="accid"/></g><g data-id="ooeaekf" data-class="note" class="note"><g data-class="notehead" class="notehead"><use href="#E0A4-i1wk8sy4" transform="translate(5927, 900) scale(0.72, 0.72)"/></g><g data-id="f8foewk" data-class="stem" class="stem"><path d="M6144 872 L6144 153" stroke-width="18"/></g></g></g></g></g><g data-id="r13mvyjs" data-class="barLine" class="barLine"><path d="M6257 540 L6257 1260" stroke-width="27"/></g></g><g data-id="u45uyoz" data-class="measure" class="measure"><g data-id="g2tje69" data-class="staff" class="staff"><path d="M6270 540 L11097 540" stroke-width="13"/><path d="M6270 720 L11097 720" stroke-width="13"/><path d="M6270 900 L11097 900" stroke-width="13"/><path d="M6270 1080 L11097 1080" stroke-width="13"/><path d="M6270 1260 L11097 1260" stroke-width="13"/><g data-class="ledgerLines" class="ledgerLines above"><g data-class="lineDash" class="lineDash" data-related="#v1v7y6em"><path d="M8983 360 L9305 360" stroke-width="22"/></g></g><g data-id="h1h83ce3" data-class="layer" class="layer"><g data-id="gql82kl" data-class="beam" class="beam"><polygon stroke-opacity="1" fill-opacity="1" points="6450,1530 8206,1890 8206,1800 6450,1440"/><polygon stroke-opacity="1" fill-opacity="1" points="6450,1395 6775,1460 6775,1370 6450,1305"/><polygon stroke-opacity="1" fill-opacity="1" points="6775,1460 7091,1525 7091,1435 6775,1370"/><polygon stroke-opacity="1" fill-opacity="1" points="7091,1525 7565,1624 7565,1534 7091,1435"/><polygon stroke-opacity="1" fill-opacity="1" points="7565,1624 7881,1689 7881,1599 7565,1534"/><polygon stroke-opacity="1" fill-opacity="1" points="7881,1689 8206,1755 8206,1665 7881,1599"/><g data-id="p1asn62b" data-class="note" class="note"><g data-class="notehead" class="notehead"><use href="#E0A4-i1wk8sy4" transform="translate(6450, 450) scale(0.72, 0.72)"/></g><g data-id="g1ls6c9h" data-class="stem" class="stem"><path d="M6459 478 L6459 1512" stroke-width="18"/></g></g><g data-id="q12u8c3c" data-class="note" class="note"><g data-class="notehead" class="notehead"><use href="#E0A4-i1wk8sy4" transform="translate(6766, 630) scale(0.72, 0.72)"/></g><g data-id="h58lpho" data-class="stem" class="stem"><path d="M6775 658 L6775 1577" stroke-width="18"/></g></g><g data-id="r1vv7jzq" data-class="note" class="note"><g data-class="notehead" class="notehead"><use href="#E0A4-i1wk8sy4" transform="translate(7082, 810) scale(0.72, 0.72)"/></g><g data-id="i1wa54jh" data-class="stem" class="stem"><path d="M7091 838 L7091 1642" stroke-width="18"/></g><g data-id="l8hwo6w" data-class="accid" class="accid"/></g><g data-id="sycovs3" data-class="note" class="note"><g data-class="notehead" class="notehead"><use href="#E0A4-i1wk8sy4" transform="translate(7556, 990) scale(0.72, 0.72)"/></g><g data-id="js5xyxx" data-class="stem" class="stem"><path d="M7565 1018 L7565 1741" stroke-width="18"/></g><g data-id="c1gqexd9" data-class="accid" class="accid"><use href="#E262-i1wk8sy4" transform="translate(7370, 990) scale(0.72, 0.72)"/></g></g><g data-id="tmhtqwx" data-class="note" class="note"><g data-class="notehead" class="notehead"><use href="#E0A4-i1wk8sy4" transform="translate(7872, 1080) scale(0.72, 0.72)"/></g><g data-id="k139e2zo" data-class="stem" class="stem"><path d="M7881 1108 L7881 1806" stroke-width="18"/></g></g><g data-id="uowl8xh" data-class="note" class="note"><g data-class="notehead" class="notehead"><use href="#E0A4-i1wk8sy4" transform="translate(8188, 1260) scale(0.72, 0.72)"/></g><g data-id="l1tcknn7" data-class="stem" class="stem"><path d="M8197 1288 L8197 1872" stroke-width="18"/></g></g></g><g data-id="tr9qwty" data-class="clef" class="clef"><use href="#E07C-i1wk8sy4" transform="translate(8502, 720) scale(0.72, 0.72)"/></g><g data-id="h15u22fm" data-class="beam" class="beam"><polygon stroke-opacity="1" fill-opacity="1" points="9031,1260 10815,1440 10815,1350 9031,1170"/><polygon stroke-opacity="1" fill-opacity="1" points="9031,1125 9542,1176 9542,1086 9031,1035"/><polygon stroke-opacity="1" fill-opacity="1" points="9542,1176 9858,1208 9858,1118 9542,1086"/><polygon stroke-opacity="1" fill-opacity="1" points="9858,1208 10174,1240 10174,1150 9858,1118"/><polygon stroke-opacity="1" fill-opacity="1" points="10174,1240 10490,1272 10490,1182 10174,1150"/><polygon stroke-opacity="1" fill-opacity="1" points="10490,1272 10815,1305 10815,1215 10490,1182"/><g data-id="v1v7y6em" data-class="note" class="note"><g data-class="notehead" class="notehead"><use href="#E0A4-i1wk8sy4" transform="translate(9031, 360) scale(0.72, 0.72)"/></g><g data-id="msfcbfu" data-class="stem" class="stem"><path d="M9040 388 L9040 1242" stroke-width="18"/></g><g data-id="mly2xg7" data-class="accid" class="accid"/></g><g data-id="wdgxvtt" data-class="note" class="note"><g data-class="notehead" class="notehead"><use href="#E0A4-i1wk8sy4" transform="translate(9533, 540) scale(0.72, 0.72)"/></g><g data-id="npxnspz" data-class="stem" class="stem"><path d="M9542 568 L9542 1293" stroke-width="18"/></g><g data-id="d1wob0u9" data-class="accid" class="accid"><use href="#E262-i1wk8sy4" transform="translate(9347, 540) scale(0.72, 0.72)"/></g></g><g data-id="xknrrvn" data-class="note" class="note"><g data-class="notehead" class="notehead"><use href="#E0A4-i1wk8sy4" transform="translate(9849, 630) scale(0.72, 0.72)"/></g><g data-id="odn18h4" data-class="stem" class="stem"><path d="M9858 658 L9858 1325" stroke-width="18"/></g></g><g data-id="y8mp9ag" data-class="note" class="note"><g data-class="notehead" class="notehead"><use href="#E0A4-i1wk8sy4" transform="translate(10165, 720) scale(0.72, 0.72)"/></g><g data-id="p10eofq9" data-class="stem" class="stem"><path d="M10174 748 L10174 1357" stroke-width="18"/></g><g data-id="ntgzbyo" data-class="accid" class="accid"/></g><g data-id="z179s3tj" data-class="note" class="note"><g data-class="notehead" class="notehead"><use href="#E0A4-i1wk8sy4" transform="translate(10481, 630) scale(0.72, 0.72)"/></g><g data-id="q75jyy9" data-class="stem" class="stem"><path d="M10490 658 L10490 1389" stroke-width="18"/></g></g><g data-id="abecx4i" data-class="note" class="note"><g data-class="notehead" class="notehead"><use href="#E0A4-i1wk8sy4" transform="translate(10797, 810) scale(0.72, 0.72)"/></g><g data-id="r1uq5jno" data-class="stem" class="stem"><path d="M10806 838 L10806 1422" stroke-width="18"/></g></g></g></g></g><g data-id="c1tmepaj" data-class="barLine" class="barLine"/></g><g data-id="puzqr0a" data-class="systemMilestoneEnd" class="systemMilestoneEnd s1a5qgf0"/></g><g data-id="qza7f0w" data-class="pageMilestoneEnd" class="pageMilestoneEnd q1c80zp1"/><g data-id="ru4juyv" data-class="pageMilestoneEnd" class="pageMilestoneEnd p5usiej"/></g></svg></svg>