<svg viewBox="0 0 560 84" version="1.1" xmlns="http://www.w3.org/2000/svg" xmlns:xlink="http://www.w3.org/1999/xlink" overflow="visible" id="o18pedop"><desc>Engraved by Verovio 5.6.0-85e7620</desc><defs><g id="E050-o18pedop"><path transform="scale(1,-1)" d="M441 -245c-23 -4 -48 -6 -76 -6c-59 0 -102 7 -130 20c-88 42 -150 93 -187 154c-26 44 -43 103 -48 176c0 6 -1 13 -1 19c0 54 15 111 45 170c29 57 65 106 110 148s96 85 153 127c-3 16 -8 46 -13 92c-4 43 -5 73 -5 89c0 117 16 172 69 257c34 54 64 82 89 82 c21 0 43 -30 69 -92s39 -115 41 -159v-15c0 -109 -21 -162 -67 -241c-13 -20 -63 -90 -98 -118c-13 -9 -25 -19 -37 -29l31 -181c8 1 18 2 28 2c58 0 102 -12 133 -35c59 -43 92 -104 98 -184c1 -7 1 -15 1 -22c0 -123 -87 -209 -181 -248c8 -57 17 -110 25 -162 c5 -31 6 -58 6 -80c0 -30 -5 -53 -14 -70c-35 -64 -88 -99 -158 -103c-5 0 -11 -1 -16 -1c-37 0 -72 10 -108 27c-50 24 -77 59 -80 105v11c0 29 7 55 20 76c18 28 45 42 79 44h6c49 0 93 -42 97 -87v-9c0 -51 -34 -86 -105 -106c17 -24 51 -36 102 -36c62 0 116 43 140 85 c9 16 13 41 13 74c0 20 -1 42 -5 67c-8 53 -18 106 -26 159zM461 939c-95 0 -135 -175 -135 -286c0 -24 2 -48 5 -71c50 39 92 82 127 128c40 53 60 100 60 140v8c-4 53 -22 81 -55 81h-2zM406 119l54 -326c73 25 110 78 110 161c0 7 0 15 -1 23c-7 95 -57 142 -151 142h-12 zM382 117c-72 -2 -128 -47 -128 -120v-7c2 -46 43 -99 75 -115c-3 -2 -7 -5 -10 -10c-70 33 -116 88 -123 172v11c0 68 44 126 88 159c23 17 49 29 78 36l-29 170c-21 -13 -52 -37 -92 -73c-50 -44 -86 -84 -109 -119c-45 -69 -67 -130 -67 -182v-13c5 -68 35 -127 93 -176 s125 -73 203 -73c25 0 50 3 75 9c-19 111 -36 221 -54 331z"/></g><g id="E260-o18pedop"><path transform="scale(1,-1)" d="M20 110c32 16 54 27 93 27c26 0 35 -3 54 -13c13 -7 24 -20 27 -38l4 -25c0 -28 -16 -57 -45 -89c-23 -25 -39 -44 -65 -68l-88 -79v644h20v-359zM90 106c-32 0 -48 -10 -70 -29v-194c31 31 54 59 71 84c21 32 32 59 32 84c0 9 1 16 1 20c0 14 -3 21 -11 30l-8 3z"/></g><g id="E08A-o18pedop"><path transform="scale(1,-1)" d="M340 179c-9 24 -56 41 -89 41c-46 0 -81 -28 -100 -58c-17 -28 -25 -78 -25 -150c0 -65 2 -111 8 -135c8 -31 18 -49 40 -67c20 -17 43 -25 70 -25c54 0 92 36 115 75c14 25 23 54 28 88h27c0 -63 -24 -105 -58 -141c-35 -38 -82 -56 -140 -56c-45 0 -83 13 -115 39 c-57 45 -101 130 -101 226c0 59 33 127 68 163c36 37 97 72 160 72c36 0 93 -21 121 -40c11 -8 23 -17 33 -30c19 -23 27 -48 27 -76c0 -51 -35 -88 -86 -88c-43 0 -76 27 -76 68c0 26 7 35 21 51c15 17 32 27 58 32c7 2 14 7 14 11z"/></g><g id="E0A4-o18pedop"><path transform="scale(1,-1)" d="M0 -39c0 68 73 172 200 172c66 0 114 -37 114 -95c0 -84 -106 -171 -218 -171c-64 0 -96 30 -96 94z"/></g><g id="E4E6-o18pedop"><path transform="scale(1,-1)" d="M0 123c7 34 33 56 69 60c29 -3 43 -9 53 -29c4 -8 7 -15 10 -22c0 -21 -1 -25 -11 -35c-5 -8 -18 -14 -40 -20l12 -3l15 -1c44 0 97 26 122 56c10 11 18 26 24 42c7 1 15 2 22 3l-140 -424h-36l111 330c-10 -6 -27 -12 -53 -16l-52 -8h-10l-20 1c-1 0 -8 3 -21 6 c-37 9 -55 28 -55 60z"/></g></defs><style type="text/css">#o18pedop g.page-margin {font-family:Times,serif;}#o18pedop g.ending, #o18pedop g.fing, #o18pedop g.reh, #o18pedop g.tempo {font-weight:bold;}#o18pedop g.dir, #o18pedop g.dynam, #o18pedop g.mNum {font-style:italic;}#o18pedop g.label {font-weight:normal;}#o18pedop path {stroke:currentColor}</style><svg class="definition-scale" color="black" viewBox="0 0 14000 2100"><g class="page-margin" transform="translate(0, 150)"><g data-id="gy40sj7" data-class="mdiv" class="mdiv pageMilestone"/><g data-id="h10qu0zz" data-class="score" class="score pageMilestone"/><g data-id="m1ir2u7j" data-class="system" class="system"><g data-id="j6dmger" data-class="section" class="section systemMilestone"/><g data-id="p6hvwy8" data-class="measure" class="measure"><g data-id="vsnlkec" data-class="staff" class="staff"><path d="M0 540 L6132 540" stroke-width="13"/><path d="M0 720 L6132 720" stroke-width="13"/><path d="M0 900 L6132 900" stroke-width="13"/><path d="M0 1080 L6132 1080" stroke-width="13"/><path d="M0 1260 L6132 1260" stroke-width="13"/><g data-id="s1fbmpdo" data-class="clef" class="clef"><use href="#E050-o18pedop" transform="translate(90, 1080) scale(0.72, 0.72)"/></g><g data-id="t1imiij7" data-class="keySig" class="keySig"><g data-id="uhxcc9s" data-class="keyAccid" class="keyAccid"><use href="#E260-o18pedop" transform="translate(735, 900) scale(0.72, 0.72)"/></g><g data-id="v851s5b" data-class="keyAccid" class="keyAccid"><use href="#E260-o18pedop" transform="translate(915, 630) scale(0.72, 0.72)"/></g></g><g data-id="w8r7a0w" data-class="meterSig" class="meterSig"><use href="#E08A-o18pedop" transform="translate(1237, 900) scale(0.72, 0.72)"/></g><g data-class="ledgerLines" class="ledgerLines below"><g data-class="lineDash" class="lineDash" data-related="#i15jthey"><path d="M1757 1440 L2079 1440" stroke-width="22"/></g><g data-class="lineDash" class="lineDash" data-related="#jcw08xd"><path d="M2915 1440 L3201 1440" stroke-width="22"/></g><g data-class="lineDash" class="lineDash" data-related="#k14dxwwa"><path d="M3231 1440 L3517 1440" stroke-width="22"/></g><g data-class="lineDash" class="lineDash" data-related="#l1hsv38w"><path d="M3547 1440 L3833 1440" stroke-width="22"/></g></g><g data-id="wj4zfyk" data-class="layer" class="layer"><g data-id="i15jthey" data-class="note" class="note"><g data-class="notehead" class="notehead"><use href="#E0A4-o18pedop" transform="translate(1805, 1440) scale(0.72, 0.72)"/></g><g data-id="l1h93zat" data-class="stem" class="stem"><path d="M2022 1412 L2022 810" stroke-width="18"/></g></g><g data-id="h1h90afr" data-class="rest" class="rest"><use href="#E4E6-o18pedop" transform="translate(2495, 900) scale(0.72, 0.72)"/></g><g data-id="xo6ighh" data-class="beam" class="beam"><polygon stroke-opacity="1" fill-opacity="1" points="3153,855 3487,855 3487,945 3153,945"/><polygon stroke-opacity="1" fill-opacity="1" points="3153,990 3487,990 3487,1080 3153,1080"/><g data-id="jcw08xd" data-class="note" class="note"><g data-class="notehead" class="notehead"><use href="#E0A4-o18pedop" transform="translate(2945, 1440) scale(0.72, 0.72)"/></g><g data-id="moandhz" data-class="stem" class="stem"><path d="M3162 1412 L3162 873" stroke-width="18"/></g></g><g data-id="k14dxwwa" data-class="note" class="note"><g data-class="notehead" class="notehead"><use href="#E0A4-o18pedop" transform="translate(3261, 1440) scale(0.72, 0.72)"/></g><g data-id="ndk11tq" data-class="stem" class="stem"><path d="M3478 1412 L3478 873" stroke-width="18"/></g></g></g><g data-id="yt2kore" data-class="beam" class="beam"><polygon stroke-opacity="1" fill-opacity="1" points="3785,675 4751,675 4751,765 3785,765"/><polygon stroke-opacity="1" fill-opacity="1" points="3785,810 4110,810 4110,900 3785,900"/><polygon stroke-opacity="1" fill-opacity="1" points="4110,810 4426,810 4426,900 4110,900"/><polygon stroke-opacity="1" fill-opacity="1" points="4426,810 4751,810 4751,900 4426,900"/><g data-id="l1hsv38w" data-class="note" class="note"><g data-class="notehead" class="notehead"><use href="#E0A4-o18pedop" transform="translate(3577, 1440) scale(0.72, 0.72)"/></g><g data-id="o1q80xrn" data-class="stem" class="stem"><path d="M3794 1412 L3794 693" stroke-width="18"/></g></g><g data-id="m3eq4iy" data-class="note" class="note"><g data-class="notehead" class="notehead"><use href="#E0A4-o18pedop" transform="translate(3893, 1260) scale(0.72, 0.72)"/></g><g data-id="p1iqs9nb" data-class="stem" class="stem"><path d="M4110 1232 L4110 693" stroke-width="18"/></g><g data-id="b1c7dqtq" data-class="accid" class="accid"/></g><g data-id="nc5hmq5" data-class="note" class="note"><g data-class="notehead" class="notehead"><use href="#E0A4-o18pedop" transform="translate(4209, 1260) scale(0.72, 0.72)"/></g><g data-id="q1vpuv4y" data-class="stem" class="stem"><path d="M4426 1232 L4426 693" stroke-width="18"/></g><g data-id="c1lvc3qk" data-class="accid" class="accid"/></g><g data-id="o1rceu16" data-class="note" class="note"><g data-class="notehead" class="notehead"><use href="#E0A4-o18pedop" transform="translate(4525, 1260) scale(0.72, 0.72)"/></g><g data-id="r10gqfro" data-class="stem" class="stem"><path d="M4742 1232 L4742 693" stroke-width="18"/></g><g data-id="d10ezfj0" data-class="accid" class="accid"/></g></g><g data-id="z1gbxkz3" data-class="beam" class="beam"><polygon stroke-opacity="1" fill-opacity="1" points="5049,360 6015,360 6015,450 5049,450"/><polygon stroke-opacity="1" fill-opacity="1" points="5049,495 5374,495 5374,585 5049,585"/><polygon stroke-opacity="1" fill-opacity="1" points="5374,495 5690,495 5690,585 5374,585"/><polygon stroke-opacity="1" fill-opacity="1" points="5690,495 6015,495 6015,585 5690,585"/><g data-id="p1b96n4h" data-class="note" class="note"><g data-class="notehead" class="notehead"><use href="#E0A4-o18pedop" transform="translate(4841, 1260) scale(0.72, 0.72)"/></g><g data-id="s1w4w4gb" data-class="stem" class="stem"><path d="M5058 1232 L5058 378" stroke-width="18"/></g><g data-id="e1r0bcbe" data-class="accid" class="accid"/></g><g data-id="q3p11ps" data-class="note" class="note"><g data-class="notehead" class="notehead"><use href="#E0A4-o18pedop" transform="translate(5157, 990) scale(0.72, 0.72)"/></g><g data-id="t1pv90po" data-class="stem" class="stem"><path d="M5374 962 L5374 378" stroke-width="18"/></g></g><g data-id="r1htnq9v" data-class="note" class="note"><g data-class="notehead" class="notehead"><use href="#E0A4-o18pedop" transform="translate(5473, 990) scale(0.72, 0.72)"/></g><g data-id="u1r1zzk3" data-class="stem" class="stem"><path d="M5690 962 L5690 378" stroke-width="18"/></g></g><g data-id="sowacci" data-class="note" class="note"><g data-class="notehead" class="notehead"><use href="#E0A4-o18pedop" transform="translate(5789, 990) scale(0.72, 0.72)"/></g><g data-id="vtbtft5" data-class="stem" class="stem"><path d="M6006 962 L6006 378" stroke-width="18"/></g></g></g></g></g><g data-id="x1h7tjwr" data-class="barLine" class="barLine"><path d="M6119 540 L6119 1260" stroke-width="27"/></g></g><g data-id="yeyvvb" data-class="measure" class="measure"><g data-id="x1auug83" data-class="staff" class="staff"><path d="M6132 540 L7560 540" stroke-width="13"/><path d="M6132 720 L7560 720" stroke-width="13"/><path d="M6132 900 L7560 900" stroke-width="13"/><path d="M6132 1080 L7560 1080" stroke-width="13"/><path d="M6132 1260 L7560 1260" stroke-width="13"/><g data-id="y1xv3d50" data-class="layer" class="layer"><g data-id="agmplgy" data-class="beam" class="beam"><polygon stroke-opacity="1" fill-opacity="1" points="6312,1665 7278,1620 7278,1530 6312,1575"/><polygon stroke-opacity="1" fill-opacity="1" points="6312,1530 6637,1515 6637,1425 6312,1440"/><polygon stroke-opacity="1" fill-opacity="1" points="6637,1515 6953,1500 6953,1410 6637,1425"/><polygon stroke-opacity="1" fill-opacity="1" points="6953,1500 7278,1485 7278,1395 6953,1410"/><g data-id="tszxwub" data-class="note" class="note"><g data-class="notehead" class="notehead"><use href="#E0A4-o18pedop" transform="translate(6312, 990) scale(0.72, 0.72)"/></g><g data-id="wwbjg0h" data-class="stem" class="stem"><path d="M6321 1018 L6321 1647" stroke-width="18"/></g></g><g data-id="ur98jwe" data-class="note" class="note"><g data-class="notehead" class="notehead"><use href="#E0A4-o18pedop" transform="translate(6628, 810) scale(0.72, 0.72)"/></g><g data-id="x1eqi4no" data-class="stem" class="stem"><path d="M6637 838 L6637 1632" stroke-width="18"/></g></g><g data-id="vuywwm0" data-class="note" class="note"><g data-class="notehead" class="notehead"><use href="#E0A4-o18pedop" transform="translate(6944, 810) scale(0.72, 0.72)"/></g><g data-id="y1itjj7c" data-class="stem" class="stem"><path d="M6953 838 L6953 1617" stroke-width="18"/></g></g><g data-id="wh1utsl" data-class="note" class="note"><g data-class="notehead" class="notehead"><use href="#E0A4-o18pedop" transform="translate(7260, 810) scale(0.72, 0.72)"/></g><g data-id="zk9tyjs" data-class="stem" class="stem"><path d="M7269 838 L7269 1602" stroke-width="18"/></g></g></g></g></g><g data-id="g1ig8ze4" data-class="barLine" class="barLine"/></g><g data-id="gaewydj" data-class="systemMilestoneEnd" class="systemMilestoneEnd j6dmger"/></g><g data-id="h1hl9sr8" data-class="pageMilestoneEnd" class="pageMilestoneEnd h10qu0zz"/><g data-id="i1bcbn06" data-class="pageMilestoneEnd" class="pageMilestoneEnd gy40sj7"/></g></svg></svg>