<svg viewBox="0 0 560 84" version="1.1" xmlns="http://www.w3.org/2000/svg" xmlns:xlink="http://www.w3.org/1999/xlink" overflow="visible" id="s3uozof"><desc>Engraved by Verovio 5.6.0-85e7620</desc><defs><g id="E050-s3uozof"><path transform="scale(1,-1)" d="M441 -245c-23 -4 -48 -6 -76 -6c-59 0 -102 7 -130 20c-88 42 -150 93 -187 154c-26 44 -43 103 -48 176c0 6 -1 13 -1 19c0 54 15 111 45 170c29 57 65 106 110 148s96 85 153 127c-3 16 -8 46 -13 92c-4 43 -5 73 -5 89c0 117 16 172 69 257c34 54 64 82 89 82 c21 0 43 -30 69 -92s39 -115 41 -159v-15c0 -109 -21 -162 -67 -241c-13 -20 -63 -90 -98 -118c-13 -9 -25 -19 -37 -29l31 -181c8 1 18 2 28 2c58 0 102 -12 133 -35c59 -43 92 -104 98 -184c1 -7 1 -15 1 -22c0 -123 -87 -209 -181 -248c8 -57 17 -110 25 -162 c5 -31 6 -58 6 -80c0 -30 -5 -53 -14 -70c-35 -64 -88 -99 -158 -103c-5 0 -11 -1 -16 -1c-37 0 -72 10 -108 27c-50 24 -77 59 -80 105v11c0 29 7 55 20 76c18 28 45 42 79 44h6c49 0 93 -42 97 -87v-9c0 -51 -34 -86 -105 -106c17 -24 51 -36 102 -36c62 0 116 43 140 85 c9 16 13 41 13 74c0 20 -1 42 -5 67c-8 53 -18 106 -26 159zM461 939c-95 0 -135 -175 -135 -286c0 -24 2 -48 5 -71c50 39 92 82 127 128c40 53 60 100 60 140v8c-4 53 -22 81 -55 81h-2zM406 119l54 -326c73 25 110 78 110 161c0 7 0 15 -1 23c-7 95 -57 142 -151 142h-12 zM382 117c-72 -2 -128 -47 -128 -120v-7c2 -46 43 -99 75 -115c-3 -2 -7 -5 -10 -10c-70 33 -116 88 -123 172v11c0 68 44 126 88 159c23 17 49 29 78 36l-29 170c-21 -13 -52 -37 -92 -73c-50 -44 -86 -84 -109 -119c-45 -69 -67 -130 -67 -182v-13c5 -68 35 -127 93 -176 s125 -73 203 -73c25 0 50 3 75 9c-19 111 -36 221 -54 331z"/></g><g id="E260-s3uozof"><path transform="scale(1,-1)" d="M20 110c32 16 54 27 93 27c26 0 35 -3 54 -13c13 -7 24 -20 27 -38l4 -25c0 -28 -16 -57 -45 -89c-23 -25 -39 -44 -65 -68l-88 -79v644h20v-359zM90 106c-32 0 -48 -10 -70 -29v-194c31 31 54 59 71 84c21 32 32 59 32 84c0 9 1 16 1 20c0 14 -3 21 -11 30l-8 3z"/></g><g id="E083-s3uozof"><path transform="scale(1,-1)" d="M208 250c97 0 177 -52 177 -116c0 -69 -40 -111 -118 -125c56 -5 125 -44 125 -116c0 -31 -10 -57 -31 -78c-19 -21 -45 -38 -78 -49l-50 -11c-15 -3 -36 -7 -55 -7c-50 0 -86 16 -113 38c-16 10 -23 18 -34 34c-7 13 -11 25 -11 38c0 43 27 83 68 83l3 -2 c61 0 75 -42 75 -70c0 -19 -24 -42 -26 -57c7 -17 20 -25 37 -25c44 0 94 29 94 78c0 75 -34 125 -138 125v36c84 0 131 22 131 98c0 54 -37 88 -87 88c-26 0 -43 -7 -51 -22c15 -22 44 -16 44 -70c0 -37 -37 -62 -71 -62c-22 0 -69 15 -69 76c0 79 101 116 178 116z"/></g><g id="E088-s3uozof"><path transform="scale(1,-1)" d="M195 -214c76 0 88 58 90 68c0 34 -35 60 -57 73l-52 29c-21 10 -32 17 -34 20c-39 -33 -58 -54 -62 -92c5 -23 23 -98 115 -98zM301 135c0 61 -72 76 -113 76c-40 0 -77 -17 -77 -51c3 -21 15 -38 26 -50c17 -15 33 -26 48 -34l65 -28c34 27 51 56 51 87zM176 -250 c-57 0 -166 26 -166 132c0 47 30 86 89 116c-33 15 -79 60 -79 119c0 79 85 132 178 132h18c5 0 21 1 28 -1c25 0 126 -30 126 -110c0 -37 -23 -76 -69 -116c43 -25 83 -71 83 -119c0 -101 -118 -153 -208 -153z"/></g><g id="E4E6-s3uozof"><path transform="scale(1,-1)" d="M0 123c7 34 33 56 69 60c29 -3 43 -9 53 -29c4 -8 7 -15 10 -22c0 -21 -1 -25 -11 -35c-5 -8 -18 -14 -40 -20l12 -3l15 -1c44 0 97 26 122 56c10 11 18 26 24 42c7 1 15 2 22 3l-140 -424h-36l111 330c-10 -6 -27 -12 -53 -16l-52 -8h-10l-20 1c-1 0 -8 3 -21 6 c-37 9 -55 28 -55 60z"/></g><g id="E0A4-s3uozof"><path transform="scale(1,-1)" d="M0 -39c0 68 73 172 200 172c66 0 114 -37 114 -95c0 -84 -106 -171 -218 -171c-64 0 -96 30 -96 94z"/></g><g id="E242-s3uozof"><path transform="scale(1,-1)" d="M206 -748c32 48 49 100 49 149c0 89 -55 168 -168 203c-18 5 -47 9 -87 16v190v190h22c8 0 33 -61 71 -95c4 -3 -2 3 61 -56c62 -58 122 -137 122 -241c0 -32 -7 -65 -17 -96c11 -29 17 -60 17 -94c0 -71 -32 -148 -67 -190c-6 -5 -10 -7 -13 -7s-5 2 -5 5l4 10 c1 3 6 8 11 16zM248 -463c4 18 7 38 7 57c0 105 -80 173 -168 200c-11 3 -27 6 -47 9c9 -17 23 -61 53 -88c4 -3 -2 3 61 -56c36 -33 71 -74 94 -122z"/></g><g id="E240-s3uozof"><path transform="scale(1,-1)" d="M179 -646c15 29 29 55 46 102c18 49 30 108 30 138c0 105 -80 173 -168 200c-18 5 -47 9 -87 16v190h22c8 0 33 -61 71 -95c4 -3 -2 3 61 -56c62 -58 122 -137 122 -241c0 -38 -13 -106 -35 -163c-20 -51 -43 -99 -66 -132c-6 -5 -10 -7 -13 -7s-5 2 -5 5l4 10 c1 3 14 25 18 33z"/></g><g id="E241-s3uozof"><path transform="scale(1,-1)" d="M179 646c-4 8 -17 30 -18 33l-4 10c0 3 2 5 5 5s7 -2 13 -7c23 -33 46 -81 66 -132c22 -57 35 -125 35 -163c0 -104 -60 -183 -122 -241c-63 -59 -57 -53 -61 -56c-38 -34 -63 -95 -71 -95h-22v190c40 7 69 11 87 16c88 27 168 95 168 200c0 30 -12 89 -30 138 c-17 47 -31 73 -46 102z"/></g></defs><style type="text/css">#s3uozof g.page-margin {font-family:Times,serif;}#s3uozof g.ending, #s3uozof g.fing, #s3uozof g.reh, #s3uozof g.tempo {font-weight:bold;}#s3uozof g.dir, #s3uozof g.dynam, #s3uozof g.mNum {font-style:italic;}#s3uozof g.label {font-weight:normal;}#s3uozof path {stroke:currentColor}</style><svg class="definition-scale" color="black" viewBox="0 0 14000 2100"><g class="page-margin" transform="translate(0, 150)"><g data-id="c1ngavrl" data-class="mdiv" class="mdiv pageMilestone"/><g data-id="day94mt" data-class="score" class="score pageMilestone"/><g data-id="b1795v53" data-class="system" class="system"><g data-id="f14k5y3o" data-class="section" class="section systemMilestone"/><g data-id="tv3cxy5" data-class="measure" class="measure"><g data-id="rphxu1s" data-class="staff" class="staff"><path d="M0 540 L4032 540" stroke-width="13"/><path d="M0 720 L4032 720" stroke-width="13"/><path d="M0 900 L4032 900" stroke-width="13"/><path d="M0 1080 L4032 1080" stroke-width="13"/><path d="M0 1260 L4032 1260" stroke-width="13"/><g data-id="f1ebcqh7" data-class="clef" class="clef"><use href="#E050-s3uozof" transform="translate(90, 1080) scale(0.72, 0.72)"/></g><g data-id="ggme64b" data-class="keySig" class="keySig"><g data-id="h1xxvw40" data-class="keyAccid" class="keyAccid"><use href="#E260-s3uozof" transform="translate(735, 900) scale(0.72, 0.72)"/></g><g data-id="i17jpsjq" data-class="keyAccid" class="keyAccid"><use href="#E260-s3uozof" transform="translate(915, 630) scale(0.72, 0.72)"/></g><g data-id="jh0p5rf" data-class="keyAccid" class="keyAccid"><use href="#E260-s3uozof" transform="translate(1095, 990) scale(0.72, 0.72)"/></g><g data-id="k12ly1xv" data-class="keyAccid" class="keyAccid"><use href="#E260-s3uozof" transform="translate(1275, 720) scale(0.72, 0.72)"/></g></g><g data-id="l1hb92jm" data-class="meterSig" class="meterSig"><use href="#E083-s3uozof" transform="translate(1587, 720) scale(0.72, 0.72)"/><use href="#E088-s3uozof" transform="translate(1590, 1080) scale(0.72, 0.72)"/></g><g data-id="sayb457" data-class="layer" class="layer"><g data-id="maq0ej7" data-class="rest" class="rest"><use href="#E4E6-s3uozof" transform="translate(2138, 900) scale(0.72, 0.72)"/></g><g data-id="nsngesc" data-class="rest" class="rest"><use href="#E4E6-s3uozof" transform="translate(2588, 900) scale(0.72, 0.72)"/></g><g data-id="p1qhf2ya" data-class="note" class="note"><g data-class="notehead" class="notehead"><use href="#E0A4-s3uozof" transform="translate(3038, 1170) scale(0.72, 0.72)"/></g><g data-id="p1ydwxhh" data-class="stem" class="stem"><path d="M3255 1142 L3255 540" stroke-width="18"/><g data-id="q7641o8" data-class="flag" class="flag"><use href="#E242-s3uozof" transform="translate(3246, 540) scale(0.72, 0.72)"/></g></g></g><g data-id="q1bwh18b" data-class="note" class="note"><g data-class="notehead" class="notehead"><use href="#E0A4-s3uozof" transform="translate(3509, 1170) scale(0.72, 0.72)"/></g><g data-id="r9g4pe2" data-class="stem" class="stem"><path d="M3726 1142 L3726 540" stroke-width="18"/><g data-id="s3x7syr" data-class="flag" class="flag"><use href="#E242-s3uozof" transform="translate(3717, 540) scale(0.72, 0.72)"/></g></g></g></g></g><g data-id="bisxovy" data-class="barLine" class="barLine"><path d="M4019 540 L4019 1260" stroke-width="27"/></g></g><g data-id="csxk6du" data-class="measure" class="measure"><g data-id="t1gv1nj0" data-class="staff" class="staff"><path d="M4032 540 L5425 540" stroke-width="13"/><path d="M4032 720 L5425 720" stroke-width="13"/><path d="M4032 900 L5425 900" stroke-width="13"/><path d="M4032 1080 L5425 1080" stroke-width="13"/><path d="M4032 1260 L5425 1260" stroke-width="13"/><g data-id="u1r1i3pf" data-class="layer" class="layer"><g data-id="r1vxwfqy" data-class="note" class="note"><g data-class="notehead" class="notehead"><use href="#E0A4-s3uozof" transform="translate(4212, 990) scale(0.72, 0.72)"/></g><g data-id="t48zbcf" data-class="stem" class="stem"><path d="M4429 962 L4429 360" stroke-width="18"/></g><g data-id="y1nkxc8a" data-class="accid" class="accid"/></g><g data-id="s11ww9ho" data-class="note" class="note"><g data-class="notehead" class="notehead"><use href="#E0A4-s3uozof" transform="translate(4902, 1080) scale(0.72, 0.72)"/></g><g data-id="u1y0yp2i" data-class="stem" class="stem"><path d="M5119 1052 L5119 450" stroke-width="18"/><g data-id="v1wz28s0" data-class="flag" class="flag"><use href="#E240-s3uozof" transform="translate(5110, 450) scale(0.72, 0.72)"/></g></g></g></g></g><g data-id="kinty89" data-class="barLine" class="barLine"><path d="M5412 540 L5412 1260" stroke-width="27"/></g></g><g data-id="l1oik4fl" data-class="measure" class="measure"><g data-id="vetak8f" data-class="staff" class="staff"><path d="M5425 540 L7074 540" stroke-width="13"/><path d="M5425 720 L7074 720" stroke-width="13"/><path d="M5425 900 L7074 900" stroke-width="13"/><path d="M5425 1080 L7074 1080" stroke-width="13"/><path d="M5425 1260 L7074 1260" stroke-width="13"/><g data-id="w3grgcn" data-class="layer" class="layer"><g data-id="t1qu4a4a" data-class="note" class="note"><g data-class="notehead" class="notehead"><use href="#E0A4-s3uozof" transform="translate(5605, 1170) scale(0.72, 0.72)"/></g><g data-id="wrm0w3j" data-class="stem" class="stem"><path d="M5822 1142 L5822 540" stroke-width="18"/><g data-id="xl55viy" data-class="flag" class="flag"><use href="#E240-s3uozof" transform="translate(5813, 540) scale(0.72, 0.72)"/></g></g></g><g data-id="o13n8f4x" data-class="rest" class="rest"><use href="#E4E6-s3uozof" transform="translate(6101, 900) scale(0.72, 0.72)"/></g><g data-id="u1yblpyf" data-class="note" class="note"><g data-class="notehead" class="notehead"><use href="#E0A4-s3uozof" transform="translate(6551, 1170) scale(0.72, 0.72)"/></g><g data-id="y178nwpl" data-class="stem" class="stem"><path d="M6768 1142 L6768 540" stroke-width="18"/><g data-id="z1iph6av" data-class="flag" class="flag"><use href="#E240-s3uozof" transform="translate(6759, 540) scale(0.72, 0.72)"/></g></g></g></g></g><g data-id="t1emeyyq" data-class="barLine" class="barLine"><path d="M7061 540 L7061 1260" stroke-width="27"/></g></g><g data-id="u1ulc27q" data-class="measure" class="measure"><g data-id="x1b3jqdo" data-class="staff" class="staff"><path d="M7074 540 L8407 540" stroke-width="13"/><path d="M7074 720 L8407 720" stroke-width="13"/><path d="M7074 900 L8407 900" stroke-width="13"/><path d="M7074 1080 L8407 1080" stroke-width="13"/><path d="M7074 1260 L8407 1260" stroke-width="13"/><g data-id="yfglft8" data-class="layer" class="layer"><g data-id="v62ugl4" data-class="note" class="note"><g data-class="notehead" class="notehead"><use href="#E0A4-s3uozof" transform="translate(7254, 810) scale(0.72, 0.72)"/></g><g data-id="a1ef60ar" data-class="stem" class="stem"><path d="M7263 838 L7263 1440" stroke-width="18"/></g></g><g data-id="w1np4f9p" data-class="note" class="note"><g data-class="notehead" class="notehead"><use href="#E0A4-s3uozof" transform="translate(7944, 900) scale(0.72, 0.72)"/></g><g data-id="bbqak2m" data-class="stem" class="stem"><path d="M7953 928 L7953 1500" stroke-width="18"/><g data-id="ce6e6km" data-class="flag" class="flag"><use href="#E241-s3uozof" transform="translate(7944, 1500) scale(0.72, 0.72)"/></g></g><g data-id="z1ll88ki" data-class="accid" class="accid"/></g></g></g><g data-id="c1e0h246" data-class="barLine" class="barLine"><path d="M8394 540 L8394 1260" stroke-width="27"/></g></g><g data-id="dyscny3" data-class="measure" class="measure"><g data-id="zfzet3x" data-class="staff" class="staff"><path d="M8407 540 L9037 540" stroke-width="13"/><path d="M8407 720 L9037 720" stroke-width="13"/><path d="M8407 900 L9037 900" stroke-width="13"/><path d="M8407 1080 L9037 1080" stroke-width="13"/><path d="M8407 1260 L9037 1260" stroke-width="13"/><g data-id="a10gl1hl" data-class="layer" class="layer"><g data-id="x1gwl5r1" data-class="note" class="note"><g data-class="notehead" class="notehead"><use href="#E0A4-s3uozof" transform="translate(8587, 990) scale(0.72, 0.72)"/></g><g data-id="d152ts9v" data-class="stem" class="stem"><path d="M8804 962 L8804 360" stroke-width="18"/><g data-id="esja4g" data-class="flag" class="flag"><use href="#E240-s3uozof" transform="translate(8795, 360) scale(0.72, 0.72)"/></g></g><g data-id="abgdwe2" data-class="accid" class="accid"/></g></g></g><g data-id="lmskcw6" data-class="barLine" class="barLine"/></g><g data-id="itr6utp" data-class="systemMilestoneEnd" class="systemMilestoneEnd f14k5y3o"/></g><g data-id="jruuen7" data-class="pageMilestoneEnd" class="pageMilestoneEnd day94mt"/><g data-id="k1c3qy9j" data-class="pageMilestoneEnd" class="pageMilestoneEnd c1ngavrl"/></g></svg></svg>