<svg viewBox="0 0 560 84" version="1.1" xmlns="http://www.w3.org/2000/svg" xmlns:xlink="http://www.w3.org/1999/xlink" overflow="visible" id="h1n4ndqy"><desc>Engraved by Verovio 5.6.0-85e7620</desc><defs><g id="E050-h1n4ndqy"><path transform="scale(1,-1)" d="M441 -245c-23 -4 -48 -6 -76 -6c-59 0 -102 7 -130 20c-88 42 -150 93 -187 154c-26 44 -43 103 -48 176c0 6 -1 13 -1 19c0 54 15 111 45 170c29 57 65 106 110 148s96 85 153 127c-3 16 -8 46 -13 92c-4 43 -5 73 -5 89c0 117 16 172 69 257c34 54 64 82 89 82 c21 0 43 -30 69 -92s39 -115 41 -159v-15c0 -109 -21 -162 -67 -241c-13 -20 -63 -90 -98 -118c-13 -9 -25 -19 -37 -29l31 -181c8 1 18 2 28 2c58 0 102 -12 133 -35c59 -43 92 -104 98 -184c1 -7 1 -15 1 -22c0 -123 -87 -209 -181 -248c8 -57 17 -110 25 -162 c5 -31 6 -58 6 -80c0 -30 -5 -53 -14 -70c-35 -64 -88 -99 -158 -103c-5 0 -11 -1 -16 -1c-37 0 -72 10 -108 27c-50 24 -77 59 -80 105v11c0 29 7 55 20 76c18 28 45 42 79 44h6c49 0 93 -42 97 -87v-9c0 -51 -34 -86 -105 -106c17 -24 51 -36 102 -36c62 0 116 43 140 85 c9 16 13 41 13 74c0 20 -1 42 -5 67c-8 53 -18 106 -26 159zM461 939c-95 0 -135 -175 -135 -286c0 -24 2 -48 5 -71c50 39 92 82 127 128c40 53 60 100 60 140v8c-4 53 -22 81 -55 81h-2zM406 119l54 -326c73 25 110 78 110 161c0 7 0 15 -1 23c-7 95 -57 142 -151 142h-12 zM382 117c-72 -2 -128 -47 -128 -120v-7c2 -46 43 -99 75 -115c-3 -2 -7 -5 -10 -10c-70 33 -116 88 -123 172v11c0 68 44 126 88 159c23 17 49 29 78 36l-29 170c-21 -13 -52 -37 -92 -73c-50 -44 -86 -84 -109 -119c-45 -69 -67 -130 -67 -182v-13c5 -68 35 -127 93 -176 s125 -73 203 -73c25 0 50 3 75 9c-19 111 -36 221 -54 331z"/></g><g id="E262-h1n4ndqy"><path transform="scale(1,-1)" d="M136 186v169h17v-164l44 14v-91l-44 -14v-165l44 12v-91l-44 -13v-155h-17v150l-76 -22v-155h-17v149l-43 -13v90l43 14v167l-43 -14v92l43 13v169h17v-163zM60 73v-167l76 22v168z"/></g><g id="E08A-h1n4ndqy"><path transform="scale(1,-1)" d="M340 179c-9 24 -56 41 -89 41c-46 0 -81 -28 -100 -58c-17 -28 -25 -78 -25 -150c0 -65 2 -111 8 -135c8 -31 18 -49 40 -67c20 -17 43 -25 70 -25c54 0 92 36 115 75c14 25 23 54 28 88h27c0 -63 -24 -105 -58 -141c-35 -38 -82 -56 -140 -56c-45 0 -83 13 -115 39 c-57 45 -101 130 -101 226c0 59 33 127 68 163c36 37 97 72 160 72c36 0 93 -21 121 -40c11 -8 23 -17 33 -30c19 -23 27 -48 27 -76c0 -51 -35 -88 -86 -88c-43 0 -76 27 -76 68c0 26 7 35 21 51c15 17 32 27 58 32c7 2 14 7 14 11z"/></g><g id="E0A3-h1n4ndqy"><path transform="scale(1,-1)" d="M278 64c0 22 -17 39 -43 39c-12 0 -26 -3 -41 -10c-85 -43 -165 -94 -165 -156c5 -25 15 -32 49 -32c67 11 200 95 200 159zM0 -36c0 68 73 174 200 174c66 0 114 -39 114 -97c0 -84 -106 -173 -218 -173c-64 0 -96 32 -96 96z"/></g><g id="E0A4-h1n4ndqy"><path transform="scale(1,-1)" d="M0 -39c0 68 73 172 200 172c66 0 114 -37 114 -95c0 -84 -106 -171 -218 -171c-64 0 -96 30 -96 94z"/></g></defs><style type="text/css">#h1n4ndqy g.page-margin {font-family:Times,serif;}#h1n4ndqy g.ending, #h1n4ndqy g.fing, #h1n4ndqy g.reh, #h1n4ndqy g.tempo {font-weight:bold;}#h1n4ndqy g.dir, #h1n4ndqy g.dynam, #h1n4ndqy g.mNum {font-style:italic;}#h1n4ndqy g.label {font-weight:normal;}#h1n4ndqy path {stroke:currentColor}</style><svg class="definition-scale" color="black" viewBox="0 0 14000 2100"><g class="page-margin" transform="translate(0, 150)"><g data-id="a1tksd1m" data-class="mdiv" class="mdiv pageMilestone"/><g data-id="b6f69ed" data-class="score" class="score pageMilestone"/><g data-id="xc2e0na" data-class="system" class="system"><g data-id="d11g9j78" data-class="section" class="section systemMilestone"/><g data-id="im34qph" data-class="measure" class="measure"><g data-id="p158xv0r" data-class="staff" class="staff"><path d="M0 540 L4505 540" stroke-width="13"/><path d="M0 720 L4505 720" stroke-width="13"/><path d="M0 900 L4505 900" stroke-width="13"/><path d="M0 1080 L4505 1080" stroke-width="13"/><path d="M0 1260 L4505 1260" stroke-width="13"/><g data-id="r17o6zgm" data-class="clef" class="clef"><use href="#E050-h1n4ndqy" transform="translate(90, 1080) scale(0.72, 0.72)"/></g><g data-id="s1tzj1vi" data-class="keySig" class="keySig"><g data-id="td6q3lj" data-class="keyAccid" class="keyAccid"><use href="#E262-h1n4ndqy" transform="translate(735, 540) scale(0.72, 0.72)"/></g><g data-id="uj4exml" data-class="keyAccid" class="keyAccid"><use href="#E262-h1n4ndqy" transform="translate(913, 810) scale(0.72, 0.72)"/></g></g><g data-id="vupyjd2" data-class="meterSig" class="meterSig"><use href="#E08A-h1n4ndqy" transform="translate(1234, 900) scale(0.72, 0.72)"/></g><g data-id="qce374w" data-class="layer" class="layer"><g data-id="v1j6qjr8" data-class="note" class="note"><g data-class="notehead" class="notehead"><use href="#E0A3-h1n4ndqy" transform="translate(1812, 540) scale(0.72, 0.72)"/></g><g data-id="vy6n1fx" data-class="stem" class="stem"><path d="M1821 565 L1821 1170" stroke-width="18"/></g><g data-id="i1759yla" data-class="accid" class="accid"/></g><g data-id="w1eyaed7" data-class="note" class="note"><g data-class="notehead" class="notehead"><use href="#E0A4-h1n4ndqy" transform="translate(2928, 900) scale(0.72, 0.72)"/></g><g data-id="w1wwtz15" data-class="stem" class="stem"><path d="M2937 928 L2937 1500" stroke-width="18"/></g></g><g data-id="xujifv2" data-class="note" class="note"><g data-class="notehead" class="notehead"><use href="#E0A4-h1n4ndqy" transform="translate(3660, 810) scale(0.72, 0.72)"/></g><g data-id="xtbirfc" data-class="stem" class="stem"><path d="M3669 838 L3669 1440" stroke-width="18"/></g><g data-id="j1dgrvr5" data-class="accid" class="accid"/></g></g></g><g data-id="q1wnlus6" data-class="barLine" class="barLine"><path d="M4393 540 L4393 1260" stroke-width="27"/><path d="M4492 540 L4492 1260" stroke-width="27"/></g></g><g data-id="r4xsfz3" data-class="measure" class="measure"><g data-id="r1tk774u" data-class="staff" class="staff"><path d="M4505 540 L7861 540" stroke-width="13"/><path d="M4505 720 L7861 720" stroke-width="13"/><path d="M4505 900 L7861 900" stroke-width="13"/><path d="M4505 1080 L7861 1080" stroke-width="13"/><path d="M4505 1260 L7861 1260" stroke-width="13"/><g data-id="s1a7zpou" data-class="layer" class="layer"><g data-id="y1eo8bjo" data-class="note" class="note"><g data-class="notehead" class="notehead"><use href="#E0A4-h1n4ndqy" transform="translate(4695, 720) scale(0.72, 0.72)"/></g><g data-id="yxqr5nk" data-class="stem" class="stem"><path d="M4704 748 L4704 1350" stroke-width="18"/></g></g><g data-id="eibrss4" data-class="beam" class="beam"><polygon stroke-opacity="1" fill-opacity="1" points="5428,1305 5924,1260 5924,1170 5428,1215"/><g data-id="zlgzemd" data-class="note" class="note"><g data-class="notehead" class="notehead"><use href="#E0A4-h1n4ndqy" transform="translate(5428, 630) scale(0.72, 0.72)"/></g><g data-id="zg1x6j3" data-class="stem" class="stem"><path d="M5437 658 L5437 1287" stroke-width="18"/></g></g><g data-id="a1181uyw" data-class="note" class="note"><g data-class="notehead" class="notehead"><use href="#E0A4-h1n4ndqy" transform="translate(5906, 540) scale(0.72, 0.72)"/></g><g data-id="a11x9f7h" data-class="stem" class="stem"><path d="M5915 568 L5915 1242" stroke-width="18"/></g><g data-id="kw538fe" data-class="accid" class="accid"/></g></g><g data-id="b1xz0c3e" data-class="note" class="note"><g data-class="notehead" class="notehead"><use href="#E0A4-h1n4ndqy" transform="translate(6383, 450) scale(0.72, 0.72)"/></g><g data-id="b19juok1" data-class="stem" class="stem"><path d="M6392 478 L6392 1080" stroke-width="18"/></g></g><g data-id="cf3t6xf" data-class="note" class="note"><g data-class="notehead" class="notehead"><use href="#E0A4-h1n4ndqy" transform="translate(7116, 540) scale(0.72, 0.72)"/></g><g data-id="cftecql" data-class="stem" class="stem"><path d="M7125 568 L7125 1170" stroke-width="18"/></g><g data-id="l7zfbtw" data-class="accid" class="accid"/></g></g></g><g data-id="z1473g8r" data-class="barLine" class="barLine"><path d="M7848 540 L7848 1260" stroke-width="27"/></g></g><g data-id="a5a1m5g" data-class="measure" class="measure"><g data-id="t7sxinj" data-class="staff" class="staff"><path d="M7861 540 L10645 540" stroke-width="13"/><path d="M7861 720 L10645 720" stroke-width="13"/><path d="M7861 900 L10645 900" stroke-width="13"/><path d="M7861 1080 L10645 1080" stroke-width="13"/><path d="M7861 1260 L10645 1260" stroke-width="13"/><g data-id="uqnmv6l" data-class="layer" class="layer"><g data-id="d1efjox4" data-class="note" class="note"><g data-class="notehead" class="notehead"><use href="#E0A3-h1n4ndqy" transform="translate(8051, 630) scale(0.72, 0.72)"/></g><g data-id="d11v0m3k" data-class="stem" class="stem"><path d="M8060 655 L8060 1260" stroke-width="18"/></g></g><g data-id="e9yd0i" data-class="note" class="note"><g data-class="notehead" class="notehead"><use href="#E0A4-h1n4ndqy" transform="translate(9167, 810) scale(0.72, 0.72)"/></g><g data-id="eoerc7m" data-class="stem" class="stem"><path d="M9176 838 L9176 1440" stroke-width="18"/></g><g data-id="msoz6qm" data-class="accid" class="accid"/></g><g data-id="f22k4z4" data-class="note" class="note"><g data-class="notehead" class="notehead"><use href="#E0A4-h1n4ndqy" transform="translate(9899, 720) scale(0.72, 0.72)"/></g><g data-id="fh9ola" data-class="stem" class="stem"><path d="M9908 748 L9908 1350" stroke-width="18"/></g></g></g></g><g data-id="i8us2g8" data-class="barLine" class="barLine"><path d="M10632 540 L10632 1260" stroke-width="27"/></g></g><g data-id="jobpqph" data-class="measure" class="measure"><g data-id="v8xnlb9" data-class="staff" class="staff"><path d="M10645 540 L14001 540" stroke-width="13"/><path d="M10645 720 L14001 720" stroke-width="13"/><path d="M10645 900 L14001 900" stroke-width="13"/><path d="M10645 1080 L14001 1080" stroke-width="13"/><path d="M10645 1260 L14001 1260" stroke-width="13"/><g data-class="ledgerLines" class="ledgerLines above"><g data-class="lineDash" class="lineDash" data-related="#jes9zyf"><path d="M12475 360 L12797 360" stroke-width="22"/></g></g><g data-id="w1bs70za" data-class="layer" class="layer"><g data-id="gpp90xd" data-class="note" class="note"><g data-class="notehead" class="notehead"><use href="#E0A4-h1n4ndqy" transform="translate(10835, 630) scale(0.72, 0.72)"/></g><g data-id="g36ow2o" data-class="stem" class="stem"><path d="M10844 658 L10844 1260" stroke-width="18"/></g></g><g data-id="f17btjb7" data-class="beam" class="beam"><polygon stroke-opacity="1" fill-opacity="1" points="11568,1170 12064,1125 12064,1035 11568,1080"/><g data-id="h15nn0wa" data-class="note" class="note"><g data-class="notehead" class="notehead"><use href="#E0A4-h1n4ndqy" transform="translate(11568, 540) scale(0.72, 0.72)"/></g><g data-id="h2zi02u" data-class="stem" class="stem"><path d="M11577 568 L11577 1152" stroke-width="18"/></g><g data-id="nnbz3cr" data-class="accid" class="accid"/></g><g data-id="i1ldnk4b" data-class="note" class="note"><g data-class="notehead" class="notehead"><use href="#E0A4-h1n4ndqy" transform="translate(12046, 450) scale(0.72, 0.72)"/></g><g data-id="ilo85um" data-class="stem" class="stem"><path d="M12055 478 L12055 1107" stroke-width="18"/></g></g></g><g data-id="jes9zyf" data-class="note" class="note"><g data-class="notehead" class="notehead"><use href="#E0A4-h1n4ndqy" transform="translate(12523, 360) scale(0.72, 0.72)"/></g><g data-id="j19n0n23" data-class="stem" class="stem"><path d="M12532 388 L12532 990" stroke-width="18"/></g></g><g data-id="k1uk15va" data-class="note" class="note"><g data-class="notehead" class="notehead"><use href="#E0A4-h1n4ndqy" transform="translate(13256, 450) scale(0.72, 0.72)"/></g><g data-id="kjz91iy" data-class="stem" class="stem"><path d="M13265 478 L13265 1080" stroke-width="18"/></g></g></g></g><g data-id="r14egt0r" data-class="barLine" class="barLine"><path d="M13988 540 L13988 1260" stroke-width="27"/></g></g></g></g></svg></svg>