<svg viewBox="0 0 560 84" version="1.1" xmlns="http://www.w3.org/2000/svg" xmlns:xlink="http://www.w3.org/1999/xlink" overflow="visible" id="w1bsptlt"><desc>Engraved by Verovio 5.6.0-85e7620</desc><defs><g id="E050-w1bsptlt"><path transform="scale(1,-1)" d="M441 -245c-23 -4 -48 -6 -76 -6c-59 0 -102 7 -130 20c-88 42 -150 93 -187 154c-26 44 -43 103 -48 176c0 6 -1 13 -1 19c0 54 15 111 45 170c29 57 65 106 110 148s96 85 153 127c-3 16 -8 46 -13 92c-4 43 -5 73 -5 89c0 117 16 172 69 257c34 54 64 82 89 82 c21 0 43 -30 69 -92s39 -115 41 -159v-15c0 -109 -21 -162 -67 -241c-13 -20 -63 -90 -98 -118c-13 -9 -25 -19 -37 -29l31 -181c8 1 18 2 28 2c58 0 102 -12 133 -35c59 -43 92 -104 98 -184c1 -7 1 -15 1 -22c0 -123 -87 -209 -181 -248c8 -57 17 -110 25 -162 c5 -31 6 -58 6 -80c0 -30 -5 -53 -14 -70c-35 -64 -88 -99 -158 -103c-5 0 -11 -1 -16 -1c-37 0 -72 10 -108 27c-50 24 -77 59 -80 105v11c0 29 7 55 20 76c18 28 45 42 79 44h6c49 0 93 -42 97 -87v-9c0 -51 -34 -86 -105 -106c17 -24 51 -36 102 -36c62 0 116 43 140 85 c9 16 13 41 13 74c0 20 -1 42 -5 67c-8 53 -18 106 -26 159zM461 939c-95 0 -135 -175 -135 -286c0 -24 2 -48 5 -71c50 39 92 82 127 128c40 53 60 100 60 140v8c-4 53 -22 81 -55 81h-2zM406 119l54 -326c73 25 110 78 110 161c0 7 0 15 -1 23c-7 95 -57 142 -151 142h-12 zM382 117c-72 -2 -128 -47 -128 -120v-7c2 -46 43 -99 75 -115c-3 -2 -7 -5 -10 -10c-70 33 -116 88 -123 172v11c0 68 44 126 88 159c23 17 49 29 78 36l-29 170c-21 -13 -52 -37 -92 -73c-50 -44 -86 -84 -109 -119c-45 -69 -67 -130 -67 -182v-13c5 -68 35 -127 93 -176 s125 -73 203 -73c25 0 50 3 75 9c-19 111 -36 221 -54 331z"/></g><g id="E08A-w1bsptlt"><path transform="scale(1,-1)" d="M340 179c-9 24 -56 41 -89 41c-46 0 -81 -28 -100 -58c-17 -28 -25 -78 -25 -150c0 -65 2 -111 8 -135c8 -31 18 -49 40 -67c20 -17 43 -25 70 -25c54 0 92 36 115 75c14 25 23 54 28 88h27c0 -63 -24 -105 -58 -141c-35 -38 -82 -56 -140 -56c-45 0 -83 13 -115 39 c-57 45 -101 130 -101 226c0 59 33 127 68 163c36 37 97 72 160 72c36 0 93 -21 121 -40c11 -8 23 -17 33 -30c19 -23 27 -48 27 -76c0 -51 -35 -88 -86 -88c-43 0 -76 27 -76 68c0 26 7 35 21 51c15 17 32 27 58 32c7 2 14 7 14 11z"/></g><g id="E0A4-w1bsptlt"><path transform="scale(1,-1)" d="M0 -39c0 68 73 172 200 172c66 0 114 -37 114 -95c0 -84 -106 -171 -218 -171c-64 0 -96 30 -96 94z"/></g><g id="E262-w1bsptlt"><path transform="scale(1,-1)" d="M136 186v169h17v-164l44 14v-91l-44 -14v-165l44 12v-91l-44 -13v-155h-17v150l-76 -22v-155h-17v149l-43 -13v90l43 14v167l-43 -14v92l43 13v169h17v-163zM60 73v-167l76 22v168z"/></g><g id="E240-w1bsptlt"><path transform="scale(1,-1)" d="M179 -646c15 29 29 55 46 102c18 49 30 108 30 138c0 105 -80 173 -168 200c-18 5 -47 9 -87 16v190h22c8 0 33 -61 71 -95c4 -3 -2 3 61 -56c62 -58 122 -137 122 -241c0 -38 -13 -106 -35 -163c-20 -51 -43 -99 -66 -132c-6 -5 -10 -7 -13 -7s-5 2 -5 5l4 10 c1 3 14 25 18 33z"/></g><g id="E261-w1bsptlt"><path transform="scale(1,-1)" d="M0 -188v539h18v-191l139 22v-533h-17v186zM18 -100l122 17v176l-122 -19v-174z"/></g></defs><style type="text/css">#w1bsptlt g.page-margin {font-family:Times,serif;}#w1bsptlt g.ending, #w1bsptlt g.fing, #w1bsptlt g.reh, #w1bsptlt g.tempo {font-weight:bold;}#w1bsptlt g.dir, #w1bsptlt g.dynam, #w1bsptlt g.mNum {font-style:italic;}#w1bsptlt g.label {font-weight:normal;}#w1bsptlt path {stroke:currentColor}</style><svg class="definition-scale" color="black" viewBox="0 0 14000 2100"><g class="page-margin" transform="translate(0, 150)"><g data-id="a8yiciy" data-class="mdiv" class="mdiv pageMilestone"/><g data-id="bp3sw59" data-class="score" class="score pageMilestone"/><g data-id="zrcto90" data-class="system" class="system"><g data-id="d1ok88o7" data-class="section" class="section systemMilestone"/><g data-id="xiao4jn" data-class="measure" class="measure"><g data-id="p1brwqxa" data-class="staff" class="staff"><path d="M0 540 L2186 540" stroke-width="13"/><path d="M0 720 L2186 720" stroke-width="13"/><path d="M0 900 L2186 900" stroke-width="13"/><path d="M0 1080 L2186 1080" stroke-width="13"/><path d="M0 1260 L2186 1260" stroke-width="13"/><g data-id="r1to99kd" data-class="clef" class="clef"><use href="#E050-w1bsptlt" transform="translate(90, 1080) scale(0.72, 0.72)"/></g><g data-id="s26mv5o" data-class="keySig" class="keySig"/><g data-id="t102qd9k" data-class="meterSig" class="meterSig"><use href="#E08A-w1bsptlt" transform="translate(735, 900) scale(0.72, 0.72)"/></g><g data-id="qc8kr45" data-class="layer" class="layer"><g data-id="l1lw4ucn" data-class="beam" class="beam"><polygon stroke-opacity="1" fill-opacity="1" points="1310,1350 1849,1395 1849,1305 1310,1260"/><polygon stroke-opacity="1" fill-opacity="1" points="1310,1215 1849,1260 1849,1170 1310,1125"/><g data-id="h1kx3faz" data-class="note" class="note"><g data-class="notehead" class="notehead"><use href="#E0A4-w1bsptlt" transform="translate(1310, 630) scale(0.72, 0.72)"/></g><g data-id="h1idds6v" data-class="stem" class="stem"><path d="M1319 658 L1319 1332" stroke-width="18"/></g></g><g data-id="i1tep3if" data-class="note" class="note"><g data-class="notehead" class="notehead"><use href="#E0A4-w1bsptlt" transform="translate(1831, 720) scale(0.72, 0.72)"/></g><g data-id="i1xhs2a8" data-class="stem" class="stem"><path d="M1840 748 L1840 1377" stroke-width="18"/></g><g data-id="ggrqmel" data-class="accid" class="accid"><use href="#E262-w1bsptlt" transform="translate(1645, 720) scale(0.72, 0.72)"/></g></g></g></g></g><g data-id="flmidc6" data-class="barLine" class="barLine"><path d="M2173 540 L2173 1260" stroke-width="27"/></g></g><g data-id="ggk3k8s" data-class="measure" class="measure"><g data-id="rf08f89" data-class="staff" class="staff"><path d="M2186 540 L8353 540" stroke-width="13"/><path d="M2186 720 L8353 720" stroke-width="13"/><path d="M2186 900 L8353 900" stroke-width="13"/><path d="M2186 1080 L8353 1080" stroke-width="13"/><path d="M2186 1260 L8353 1260" stroke-width="13"/><g data-class="ledgerLines" class="ledgerLines below"><g data-class="lineDash" class="lineDash" data-related="#whfyc6d"><path d="M6967 1440 L7289 1440" stroke-width="22"/></g><g data-class="lineDash" class="lineDash" data-related="#y1rbfv72"><path d="M7622 1440 L7944 1440" stroke-width="22"/></g><g data-class="lineDash" class="lineDash" data-related="#y1rbfv72"><path d="M7622 1620 L7944 1620" stroke-width="22"/></g></g><g data-id="sejledk" data-class="layer" class="layer"><g data-id="m1ib1v5r" data-class="beam" class="beam"><polygon stroke-opacity="1" fill-opacity="1" points="2373,1440 3374,1620 3374,1530 2373,1350"/><polygon stroke-opacity="1" fill-opacity="1" points="2373,1305 2710,1365 2710,1275 2373,1215"/><polygon stroke-opacity="1" fill-opacity="1" points="2710,1365 3037,1424 3037,1334 2710,1275"/><polygon stroke-opacity="1" fill-opacity="1" points="3037,1424 3374,1485 3374,1395 3037,1334"/><g data-id="j147ohqj" data-class="note" class="note"><g data-class="notehead" class="notehead"><use href="#E0A4-w1bsptlt" transform="translate(2373, 630) scale(0.72, 0.72)"/></g><g data-id="j14f8qpj" data-class="stem" class="stem"><path d="M2382 658 L2382 1422" stroke-width="18"/></g></g><g data-id="k6rxeq1" data-class="note" class="note"><g data-class="notehead" class="notehead"><use href="#E0A4-w1bsptlt" transform="translate(2701, 810) scale(0.72, 0.72)"/></g><g data-id="k4losrx" data-class="stem" class="stem"><path d="M2710 838 L2710 1482" stroke-width="18"/></g></g><g data-id="l1yeog2j" data-class="note" class="note"><g data-class="notehead" class="notehead"><use href="#E0A4-w1bsptlt" transform="translate(3028, 900) scale(0.72, 0.72)"/></g><g data-id="l1c1mh75" data-class="stem" class="stem"><path d="M3037 928 L3037 1541" stroke-width="18"/></g></g><g data-id="m8c99k2" data-class="note" class="note"><g data-class="notehead" class="notehead"><use href="#E0A4-w1bsptlt" transform="translate(3356, 990) scale(0.72, 0.72)"/></g><g data-id="m15fg51q" data-class="stem" class="stem"><path d="M3365 1018 L3365 1602" stroke-width="18"/></g></g></g><g data-id="n1d61sdm" data-class="beam" class="beam"><polygon stroke-opacity="1" fill-opacity="1" points="4084,315 5085,315 5085,405 4084,405"/><polygon stroke-opacity="1" fill-opacity="1" points="4084,450 4421,450 4421,540 4084,540"/><polygon stroke-opacity="1" fill-opacity="1" points="4421,450 4748,450 4748,540 4421,540"/><polygon stroke-opacity="1" fill-opacity="1" points="4748,450 5085,450 5085,540 4748,540"/><g data-id="nlghfru" data-class="note" class="note"><g data-class="notehead" class="notehead"><use href="#E0A4-w1bsptlt" transform="translate(3876, 1080) scale(0.72, 0.72)"/></g><g data-id="nc0z126" data-class="stem" class="stem"><path d="M4093 1052 L4093 333" stroke-width="18"/></g><g data-id="h14305oi" data-class="accid" class="accid"><use href="#E262-w1bsptlt" transform="translate(3690, 1080) scale(0.72, 0.72)"/></g></g><g data-id="owrz3v5" data-class="note" class="note"><g data-class="notehead" class="notehead"><use href="#E0A4-w1bsptlt" transform="translate(4204, 900) scale(0.72, 0.72)"/></g><g data-id="o1jdie1m" data-class="stem" class="stem"><path d="M4421 872 L4421 333" stroke-width="18"/></g></g><g data-id="p1810rwp" data-class="note" class="note"><g data-class="notehead" class="notehead"><use href="#E0A4-w1bsptlt" transform="translate(4531, 1350) scale(0.72, 0.72)"/></g><g data-id="pygdmuc" data-class="stem" class="stem"><path d="M4748 1322 L4748 333" stroke-width="18"/></g></g><g data-id="qo94k01" data-class="note" class="note"><g data-class="notehead" class="notehead"><use href="#E0A4-w1bsptlt" transform="translate(4859, 1260) scale(0.72, 0.72)"/></g><g data-id="q1h2p14n" data-class="stem" class="stem"><path d="M5076 1232 L5076 333" stroke-width="18"/></g></g></g><g data-id="r11sc980" data-class="note" class="note"><g data-class="notehead" class="notehead"><use href="#E0A4-w1bsptlt" transform="translate(5334, 1080) scale(0.54, 0.54)"/></g><g data-id="r12pv1yl" data-class="stem" class="stem"><path d="M5494 1059 L5494 608" stroke-width="18"/><path d="M5427 876 L5628 675" stroke-width="21"/><g data-id="ss2z0gi" data-class="flag" class="flag"><use href="#E240-w1bsptlt" transform="translate(5485, 608) scale(0.54, 0.54)"/></g></g><g data-id="i1gidqxv" data-class="accid" class="accid"><use href="#E261-w1bsptlt" transform="translate(5205, 1080) scale(0.54, 0.54)"/></g></g><g data-id="o37vo3c" data-class="beam" class="beam"><polygon stroke-opacity="1" fill-opacity="1" points="5913,540 6914,540 6914,630 5913,630"/><polygon stroke-opacity="1" fill-opacity="1" points="5913,675 6250,675 6250,765 5913,765"/><polygon stroke-opacity="1" fill-opacity="1" points="6250,675 6577,675 6577,765 6250,765"/><polygon stroke-opacity="1" fill-opacity="1" points="6577,675 6914,675 6914,765 6577,765"/><g data-id="s1tyjsyu" data-class="note" class="note"><g data-class="notehead" class="notehead"><use href="#E0A4-w1bsptlt" transform="translate(5705, 1170) scale(0.72, 0.72)"/></g><g data-id="tw29xw2" data-class="stem" class="stem"><path d="M5922 1142 L5922 558" stroke-width="18"/></g></g><g data-id="t10ru79x" data-class="note" class="note"><g data-class="notehead" class="notehead"><use href="#E0A4-w1bsptlt" transform="translate(6033, 1260) scale(0.72, 0.72)"/></g><g data-id="u1f0mamt" data-class="stem" class="stem"><path d="M6250 1232 L6250 558" stroke-width="18"/></g></g><g data-id="u1fnqdtw" data-class="note" class="note"><g data-class="notehead" class="notehead"><use href="#E0A4-w1bsptlt" transform="translate(6360, 1170) scale(0.72, 0.72)"/></g><g data-id="v5t3qmq" data-class="stem" class="stem"><path d="M6577 1142 L6577 558" stroke-width="18"/></g></g><g data-id="v1mey1lm" data-class="note" class="note"><g data-class="notehead" class="notehead"><use href="#E0A4-w1bsptlt" transform="translate(6688, 1350) scale(0.72, 0.72)"/></g><g data-id="w1qg4a7e" data-class="stem" class="stem"><path d="M6905 1322 L6905 558" stroke-width="18"/></g></g></g><g data-id="p1y7htef" data-class="beam" class="beam"><polygon stroke-opacity="1" fill-opacity="1" points="7223,720 8224,360 8224,450 7223,810"/><polygon stroke-opacity="1" fill-opacity="1" points="7223,855 7560,735 7560,825 7223,945"/><polygon stroke-opacity="1" fill-opacity="1" points="7560,735 7887,616 7887,706 7560,825"/><polygon stroke-opacity="1" fill-opacity="1" points="7887,616 8224,495 8224,585 7887,706"/><g data-id="whfyc6d" data-class="note" class="note"><g data-class="notehead" class="notehead"><use href="#E0A4-w1bsptlt" transform="translate(7015, 1440) scale(0.72, 0.72)"/></g><g data-id="x15oiykw" data-class="stem" class="stem"><path d="M7232 1412 L7232 738" stroke-width="18"/></g></g><g data-id="x16r9hfn" data-class="note" class="note"><g data-class="notehead" class="notehead"><use href="#E0A4-w1bsptlt" transform="translate(7343, 1260) scale(0.72, 0.72)"/></g><g data-id="y9ri86v" data-class="stem" class="stem"><path d="M7560 1232 L7560 618" stroke-width="18"/></g></g><g data-id="y1rbfv72" data-class="note" class="note"><g data-class="notehead" class="notehead"><use href="#E0A4-w1bsptlt" transform="translate(7670, 1620) scale(0.72, 0.72)"/></g><g data-id="z133h7zd" data-class="stem" class="stem"><path d="M7887 1592 L7887 499" stroke-width="18"/></g></g><g data-id="zlrzprn" data-class="note" class="note"><g data-class="notehead" class="notehead"><use href="#E0A4-w1bsptlt" transform="translate(7998, 990) scale(0.72, 0.72)"/></g><g data-id="aughry4" data-class="stem" class="stem"><path d="M8215 962 L8215 378" stroke-width="18"/></g></g></g></g></g><g data-id="o1qdqfml" data-class="barLine" class="barLine"><path d="M8340 540 L8340 1260" stroke-width="27"/></g></g><g data-id="pc35x3a" data-class="measure" class="measure"><g data-id="t19b1flg" data-class="staff" class="staff"><path d="M8353 540 L14002 540" stroke-width="13"/><path d="M8353 720 L14002 720" stroke-width="13"/><path d="M8353 900 L14002 900" stroke-width="13"/><path d="M8353 1080 L14002 1080" stroke-width="13"/><path d="M8353 1260 L14002 1260" stroke-width="13"/><g data-id="u3blurw" data-class="layer" class="layer"><g data-id="q1s0vizr" data-class="beam" class="beam"><polygon stroke-opacity="1" fill-opacity="1" points="8941,315 9942,315 9942,405 8941,405"/><polygon stroke-opacity="1" fill-opacity="1" points="8941,450 9278,450 9278,540 8941,540"/><polygon stroke-opacity="1" fill-opacity="1" points="9278,450 9605,450 9605,540 9278,540"/><polygon stroke-opacity="1" fill-opacity="1" points="9605,450 9942,450 9942,540 9605,540"/><g data-id="a1wf2olp" data-class="note" class="note"><g data-class="notehead" class="notehead"><use href="#E0A4-w1bsptlt" transform="translate(8733, 1080) scale(0.72, 0.72)"/></g><g data-id="bkgi5gd" data-class="stem" class="stem"><path d="M8950 1052 L8950 333" stroke-width="18"/></g><g data-id="jyi7a4p" data-class="accid" class="accid"><use href="#E262-w1bsptlt" transform="translate(8547, 1080) scale(0.72, 0.72)"/></g></g><g data-id="b1kzmbqs" data-class="note" class="note"><g data-class="notehead" class="notehead"><use href="#E0A4-w1bsptlt" transform="translate(9061, 900) scale(0.72, 0.72)"/></g><g data-id="c1tgfypl" data-class="stem" class="stem"><path d="M9278 872 L9278 333" stroke-width="18"/></g></g><g data-id="c1m04197" data-class="note" class="note"><g data-class="notehead" class="notehead"><use href="#E0A4-w1bsptlt" transform="translate(9388, 1260) scale(0.72, 0.72)"/></g><g data-id="d3m5rb3" data-class="stem" class="stem"><path d="M9605 1232 L9605 333" stroke-width="18"/></g></g><g data-id="dh5ueoz" data-class="note" class="note"><g data-class="notehead" class="notehead"><use href="#E0A4-w1bsptlt" transform="translate(9716, 900) scale(0.72, 0.72)"/></g><g data-id="ez5lu9n" data-class="stem" class="stem"><path d="M9933 872 L9933 333" stroke-width="18"/></g></g></g><g data-id="r164o452" data-class="beam" class="beam"><polygon stroke-opacity="1" fill-opacity="1" points="10251,225 11252,225 11252,315 10251,315"/><polygon stroke-opacity="1" fill-opacity="1" points="10251,360 10588,360 10588,450 10251,450"/><polygon stroke-opacity="1" fill-opacity="1" points="10588,360 10915,360 10915,450 10588,450"/><polygon stroke-opacity="1" fill-opacity="1" points="10915,360 11252,360 11252,450 10915,450"/><g data-id="e1lcfjos" data-class="note" class="note"><g data-class="notehead" class="notehead"><use href="#E0A4-w1bsptlt" transform="translate(10043, 990) scale(0.72, 0.72)"/></g><g data-id="f18ohxqf" data-class="stem" class="stem"><path d="M10260 962 L10260 243" stroke-width="18"/></g></g><g data-id="f1o18j3e" data-class="note" class="note"><g data-class="notehead" class="notehead"><use href="#E0A4-w1bsptlt" transform="translate(10371, 810) scale(0.72, 0.72)"/></g><g data-id="g1vrv0du" data-class="stem" class="stem"><path d="M10588 782 L10588 243" stroke-width="18"/></g></g><g data-id="g1h0b8kp" data-class="note" class="note"><g data-class="notehead" class="notehead"><use href="#E0A4-w1bsptlt" transform="translate(10698, 1260) scale(0.72, 0.72)"/></g><g data-id="hz3ha3p" data-class="stem" class="stem"><path d="M10915 1232 L10915 243" stroke-width="18"/></g></g><g data-id="h6nyxi4" data-class="note" class="note"><g data-class="notehead" class="notehead"><use href="#E0A4-w1bsptlt" transform="translate(11026, 810) scale(0.72, 0.72)"/></g><g data-id="i1sds848" data-class="stem" class="stem"><path d="M11243 782 L11243 243" stroke-width="18"/></g></g></g><g data-id="s12b4q7n" data-class="beam" class="beam"><polygon stroke-opacity="1" fill-opacity="1" points="11562,135 12562,135 12562,225 11562,225"/><polygon stroke-opacity="1" fill-opacity="1" points="11562,270 11898,270 11898,360 11562,360"/><polygon stroke-opacity="1" fill-opacity="1" points="11898,270 12226,270 12226,360 11898,360"/><polygon stroke-opacity="1" fill-opacity="1" points="12226,270 12562,270 12562,360 12226,360"/><g data-id="ixpl65f" data-class="note" class="note"><g data-class="notehead" class="notehead"><use href="#E0A4-w1bsptlt" transform="translate(11354, 900) scale(0.72, 0.72)"/></g><g data-id="jfacibh" data-class="stem" class="stem"><path d="M11571 872 L11571 153" stroke-width="18"/></g></g><g data-id="jtmnlj6" data-class="note" class="note"><g data-class="notehead" class="notehead"><use href="#E0A4-w1bsptlt" transform="translate(11681, 720) scale(0.72, 0.72)"/></g><g data-id="k1qgzyje" data-class="stem" class="stem"><path d="M11898 692 L11898 153" stroke-width="18"/></g></g><g data-id="k12r9y7n" data-class="note" class="note"><g data-class="notehead" class="notehead"><use href="#E0A4-w1bsptlt" transform="translate(12009, 1260) scale(0.72, 0.72)"/></g><g data-id="lnvb0l4" data-class="stem" class="stem"><path d="M12226 1232 L12226 153" stroke-width="18"/></g></g><g data-id="l1y9zsgc" data-class="note" class="note"><g data-class="notehead" class="notehead"><use href="#E0A4-w1bsptlt" transform="translate(12336, 720) scale(0.72, 0.72)"/></g><g data-id="mjb7zw9" data-class="stem" class="stem"><path d="M12553 692 L12553 153" stroke-width="18"/></g></g></g><g data-id="t1mecpsl" data-class="beam" class="beam"><polygon stroke-opacity="1" fill-opacity="1" points="12664,1575 13665,1575 13665,1485 12664,1485"/><polygon stroke-opacity="1" fill-opacity="1" points="12664,1440 13001,1440 13001,1350 12664,1350"/><polygon stroke-opacity="1" fill-opacity="1" points="13001,1440 13328,1440 13328,1350 13001,1350"/><polygon stroke-opacity="1" fill-opacity="1" points="13328,1440 13665,1440 13665,1350 13328,1350"/><g data-id="moh12j9" data-class="note" class="note"><g data-class="notehead" class="notehead"><use href="#E0A4-w1bsptlt" transform="translate(12664, 810) scale(0.72, 0.72)"/></g><g data-id="nhvi42a" data-class="stem" class="stem"><path d="M12673 838 L12673 1557" stroke-width="18"/></g></g><g data-id="n1qqb8ot" data-class="note" class="note"><g data-class="notehead" class="notehead"><use href="#E0A4-w1bsptlt" transform="translate(12992, 630) scale(0.72, 0.72)"/></g><g data-id="o1d2w87e" data-class="stem" class="stem"><path d="M13001 658 L13001 1557" stroke-width="18"/></g></g><g data-id="obgnneo" data-class="note" class="note"><g data-class="notehead" class="notehead"><use href="#E0A4-w1bsptlt" transform="translate(13319, 990) scale(0.72, 0.72)"/></g><g data-id="p4skqr1" data-class="stem" class="stem"><path d="M13328 1018 L13328 1557" stroke-width="18"/></g></g><g data-id="p15ddnsi" data-class="note" class="note"><g data-class="notehead" class="notehead"><use href="#E0A4-w1bsptlt" transform="translate(13647, 630) scale(0.72, 0.72)"/></g><g data-id="q1kl77zw" data-class="stem" class="stem"><path d="M13656 658 L13656 1557" stroke-width="18"/></g></g></g></g></g><g data-id="xf0of2l" data-class="barLine" class="barLine"><path d="M13989 540 L13989 1260" stroke-width="27"/></g></g></g></g></svg></svg>