<svg viewBox="0 0 560 84" version="1.1" xmlns="http://www.w3.org/2000/svg" xmlns:xlink="http://www.w3.org/1999/xlink" overflow="visible" id="rdm730b"><desc>Engraved by Verovio 5.6.0-85e7620</desc><defs><g id="E050-rdm730b"><path transform="scale(1,-1)" d="M441 -245c-23 -4 -48 -6 -76 -6c-59 0 -102 7 -130 20c-88 42 -150 93 -187 154c-26 44 -43 103 -48 176c0 6 -1 13 -1 19c0 54 15 111 45 170c29 57 65 106 110 148s96 85 153 127c-3 16 -8 46 -13 92c-4 43 -5 73 -5 89c0 117 16 172 69 257c34 54 64 82 89 82 c21 0 43 -30 69 -92s39 -115 41 -159v-15c0 -109 -21 -162 -67 -241c-13 -20 -63 -90 -98 -118c-13 -9 -25 -19 -37 -29l31 -181c8 1 18 2 28 2c58 0 102 -12 133 -35c59 -43 92 -104 98 -184c1 -7 1 -15 1 -22c0 -123 -87 -209 -181 -248c8 -57 17 -110 25 -162 c5 -31 6 -58 6 -80c0 -30 -5 -53 -14 -70c-35 -64 -88 -99 -158 -103c-5 0 -11 -1 -16 -1c-37 0 -72 10 -108 27c-50 24 -77 59 -80 105v11c0 29 7 55 20 76c18 28 45 42 79 44h6c49 0 93 -42 97 -87v-9c0 -51 -34 -86 -105 -106c17 -24 51 -36 102 -36c62 0 116 43 140 85 c9 16 13 41 13 74c0 20 -1 42 -5 67c-8 53 -18 106 -26 159zM461 939c-95 0 -135 -175 -135 -286c0 -24 2 -48 5 -71c50 39 92 82 127 128c40 53 60 100 60 140v8c-4 53 -22 81 -55 81h-2zM406 119l54 -326c73 25 110 78 110 161c0 7 0 15 -1 23c-7 95 -57 142 -151 142h-12 zM382 117c-72 -2 -128 -47 -128 -120v-7c2 -46 43 -99 75 -115c-3 -2 -7 -5 -10 -10c-70 33 -116 88 -123 172v11c0 68 44 126 88 159c23 17 49 29 78 36l-29 170c-21 -13 -52 -37 -92 -73c-50 -44 -86 -84 -109 -119c-45 -69 -67 -130 -67 -182v-13c5 -68 35 -127 93 -176 s125 -73 203 -73c25 0 50 3 75 9c-19 111 -36 221 -54 331z"/></g><g id="E08A-rdm730b"><path transform="scale(1,-1)" d="M340 179c-9 24 -56 41 -89 41c-46 0 -81 -28 -100 -58c-17 -28 -25 -78 -25 -150c0 -65 2 -111 8 -135c8 -31 18 -49 40 -67c20 -17 43 -25 70 -25c54 0 92 36 115 75c14 25 23 54 28 88h27c0 -63 -24 -105 -58 -141c-35 -38 -82 -56 -140 -56c-45 0 -83 13 -115 39 c-57 45 -101 130 -101 226c0 59 33 127 68 163c36 37 97 72 160 72c36 0 93 -21 121 -40c11 -8 23 -17 33 -30c19 -23 27 -48 27 -76c0 -51 -35 -88 -86 -88c-43 0 -76 27 -76 68c0 26 7 35 21 51c15 17 32 27 58 32c7 2 14 7 14 11z"/></g><g id="E0A4-rdm730b"><path transform="scale(1,-1)" d="M0 -39c0 68 73 172 200 172c66 0 114 -37 114 -95c0 -84 -106 -171 -218 -171c-64 0 -96 30 -96 94z"/></g><g id="E0A3-rdm730b"><path transform="scale(1,-1)" d="M278 64c0 22 -17 39 -43 39c-12 0 -26 -3 -41 -10c-85 -43 -165 -94 -165 -156c5 -25 15 -32 49 -32c67 11 200 95 200 159zM0 -36c0 68 73 174 200 174c66 0 114 -39 114 -97c0 -84 -106 -173 -218 -173c-64 0 -96 32 -96 96z"/></g><g id="E241-rdm730b"><path transform="scale(1,-1)" d="M179 646c-4 8 -17 30 -18 33l-4 10c0 3 2 5 5 5s7 -2 13 -7c23 -33 46 -81 66 -132c22 -57 35 -125 35 -163c0 -104 -60 -183 -122 -241c-63 -59 -57 -53 -61 -56c-38 -34 -63 -95 -71 -95h-22v190c40 7 69 11 87 16c88 27 168 95 168 200c0 30 -12 89 -30 138 c-17 47 -31 73 -46 102z"/></g></defs><style type="text/css">#rdm730b g.page-margin {font-family:Times,serif;}#rdm730b g.ending, #rdm730b g.fing, #rdm730b g.reh, #rdm730b g.tempo {font-weight:bold;}#rdm730b g.dir, #rdm730b g.dynam, #rdm730b g.mNum {font-style:italic;}#rdm730b g.label {font-weight:normal;}#rdm730b path {stroke:currentColor}</style><svg class="definition-scale" color="black" viewBox="0 0 14000 2100"><g class="page-margin" transform="translate(0, 150)"><g data-id="p1bpgg6n" data-class="mdiv" class="mdiv pageMilestone"/><g data-id="q1qse6v7" data-class="score" class="score pageMilestone"/><g data-id="s1h788y0" data-class="system" class="system"><g data-id="so6je8u" data-class="section" class="section systemMilestone"/><g data-id="s13yef4q" data-class="measure" class="measure"><g data-id="eps6njd" data-class="staff" class="staff"><path d="M0 540 L3077 540" stroke-width="13"/><path d="M0 720 L3077 720" stroke-width="13"/><path d="M0 900 L3077 900" stroke-width="13"/><path d="M0 1080 L3077 1080" stroke-width="13"/><path d="M0 1260 L3077 1260" stroke-width="13"/><g data-id="kta1ztw" data-class="clef" class="clef"><use href="#E050-rdm730b" transform="translate(90, 1080) scale(0.72, 0.72)"/></g><g data-id="l1smp6dp" data-class="keySig" class="keySig"/><g data-id="m14rc65t" data-class="meterSig" class="meterSig"><use href="#E08A-rdm730b" transform="translate(735, 900) scale(0.72, 0.72)"/></g><g data-id="fropj2t" data-class="layer" class="layer"><g data-id="m9llyd9" data-class="note" class="note"><g data-class="notehead" class="notehead"><use href="#E0A4-rdm730b" transform="translate(1314, 900) scale(0.72, 0.72)"/></g><g data-id="y18bqfcc" data-class="stem" class="stem"><path d="M1323 928 L1323 1500" stroke-width="18"/></g></g><g data-id="j7qb4k9" data-class="beam" class="beam"><polygon stroke-opacity="1" fill-opacity="1" points="2281,315 2794,360 2794,450 2281,405"/><g data-id="n5p257e" data-class="note" class="note"><g data-class="notehead" class="notehead"><use href="#E0A4-rdm730b" transform="translate(2073, 990) scale(0.72, 0.72)"/></g><g data-id="z1o4jt4m" data-class="stem" class="stem"><path d="M2290 962 L2290 333" stroke-width="18"/></g></g><g data-id="osedq5b" data-class="note" class="note"><g data-class="notehead" class="notehead"><use href="#E0A4-rdm730b" transform="translate(2568, 1080) scale(0.72, 0.72)"/></g><g data-id="a1al954n" data-class="stem" class="stem"><path d="M2785 1052 L2785 378" stroke-width="18"/></g></g></g></g></g><g data-id="aomxccw" data-class="barLine" class="barLine"><path d="M3064 540 L3064 1260" stroke-width="27"/></g></g><g data-id="bnvcrkw" data-class="measure" class="measure"><g data-id="goyfg17" data-class="staff" class="staff"><path d="M3077 540 L6187 540" stroke-width="13"/><path d="M3077 720 L6187 720" stroke-width="13"/><path d="M3077 900 L6187 900" stroke-width="13"/><path d="M3077 1080 L6187 1080" stroke-width="13"/><path d="M3077 1260 L6187 1260" stroke-width="13"/><g data-id="hltcb4f" data-class="layer" class="layer"><g data-id="p1tr3u5z" data-class="note" class="note"><g data-class="notehead" class="notehead"><use href="#E0A3-rdm730b" transform="translate(3268, 810) scale(0.72, 0.72)"/></g><g data-id="buxp7qz" data-class="stem" class="stem"><path d="M3277 835 L3277 1440" stroke-width="18"/></g></g><g data-id="qlizzdf" data-class="note" class="note"><g data-class="notehead" class="notehead"><use href="#E0A4-rdm730b" transform="translate(4424, 810) scale(0.72, 0.72)"/></g><g data-id="c4vstkr" data-class="stem" class="stem"><path d="M4433 838 L4433 1440" stroke-width="18"/></g></g><g data-id="k6bw6ml" data-class="beam" class="beam"><polygon stroke-opacity="1" fill-opacity="1" points="5391,315 5905,360 5905,450 5391,405"/><g data-id="r1knimn2" data-class="note" class="note"><g data-class="notehead" class="notehead"><use href="#E0A4-rdm730b" transform="translate(5183, 900) scale(0.72, 0.72)"/></g><g data-id="d110hgda" data-class="stem" class="stem"><path d="M5400 872 L5400 333" stroke-width="18"/></g></g><g data-id="skj86v2" data-class="note" class="note"><g data-class="notehead" class="notehead"><use href="#E0A4-rdm730b" transform="translate(5679, 990) scale(0.72, 0.72)"/></g><g data-id="e1wk99m5" data-class="stem" class="stem"><path d="M5896 962 L5896 378" stroke-width="18"/></g></g></g></g></g><g data-id="j5pls0s" data-class="barLine" class="barLine"><path d="M6174 540 L6174 1260" stroke-width="27"/></g></g><g data-id="kd6144a" data-class="measure" class="measure"><g data-id="i146e2sr" data-class="staff" class="staff"><path d="M6187 540 L9836 540" stroke-width="13"/><path d="M6187 720 L9836 720" stroke-width="13"/><path d="M6187 900 L9836 900" stroke-width="13"/><path d="M6187 1080 L9836 1080" stroke-width="13"/><path d="M6187 1260 L9836 1260" stroke-width="13"/><g data-class="ledgerLines" class="ledgerLines above"><g data-class="lineDash" class="lineDash" data-related="#tqdg159"><path d="M6330 360 L6652 360" stroke-width="22"/></g></g><g data-id="jn7vfkp" data-class="layer" class="layer"><g data-id="tqdg159" data-class="note" class="note"><g data-class="notehead" class="notehead"><use href="#E0A4-rdm730b" transform="translate(6378, 360) scale(0.72, 0.72)"/></g><g data-id="gpfzyz7" data-class="dots" class="dots"><ellipse cx="6694" cy="270" rx="36" ry="36" fill-opacity="1" stroke-opacity="1"/></g><g data-id="fi5eyll" data-class="stem" class="stem"><path d="M6387 388 L6387 990" stroke-width="18"/></g></g><g data-id="uqkcxsh" data-class="note" class="note"><g data-class="notehead" class="notehead"><use href="#E0A4-rdm730b" transform="translate(7346, 540) scale(0.72, 0.72)"/></g><g data-id="hde8vfh" data-class="stem" class="stem"><path d="M7355 568 L7355 1170" stroke-width="18"/><g data-id="iuzj4fh" data-class="flag" class="flag"><use href="#E241-rdm730b" transform="translate(7346, 1170) scale(0.72, 0.72)"/></g></g></g><g data-id="l1bjvnb5" data-class="beam" class="beam"><polygon stroke-opacity="1" fill-opacity="1" points="7841,1350 9345,1530 9345,1440 7841,1260"/><g data-id="vjcil7c" data-class="note" class="note"><g data-class="notehead" class="notehead"><use href="#E0A4-rdm730b" transform="translate(7841, 720) scale(0.72, 0.72)"/></g><g data-id="jt6ypyp" data-class="stem" class="stem"><path d="M7850 748 L7850 1332" stroke-width="18"/></g></g><g data-id="w1r7vheo" data-class="note" class="note"><g data-class="notehead" class="notehead"><use href="#E0A4-rdm730b" transform="translate(8337, 810) scale(0.72, 0.72)"/></g><g data-id="k1pujrux" data-class="stem" class="stem"><path d="M8346 838 L8346 1392" stroke-width="18"/></g></g><g data-id="xte3oi8" data-class="note" class="note"><g data-class="notehead" class="notehead"><use href="#E0A4-rdm730b" transform="translate(8832, 900) scale(0.72, 0.72)"/></g><g data-id="l5nuci1" data-class="stem" class="stem"><path d="M8841 928 L8841 1452" stroke-width="18"/></g></g><g data-id="y1ektp9d" data-class="note" class="note"><g data-class="notehead" class="notehead"><use href="#E0A4-rdm730b" transform="translate(9327, 990) scale(0.72, 0.72)"/></g><g data-id="m1b7f6nw" data-class="stem" class="stem"><path d="M9336 1018 L9336 1512" stroke-width="18"/></g></g></g></g></g><g data-id="s1mnj3sp" data-class="barLine" class="barLine"><path d="M9823 540 L9823 1260" stroke-width="27"/></g></g><g data-id="tnbdl71" data-class="measure" class="measure"><g data-id="k15jfvke" data-class="staff" class="staff"><path d="M9836 540 L14002 540" stroke-width="13"/><path d="M9836 720 L14002 720" stroke-width="13"/><path d="M9836 900 L14002 900" stroke-width="13"/><path d="M9836 1080 L14002 1080" stroke-width="13"/><path d="M9836 1260 L14002 1260" stroke-width="13"/><g data-id="l1fksyuo" data-class="layer" class="layer"><g data-id="m1mlumu6" data-class="beam" class="beam"><polygon stroke-opacity="1" fill-opacity="1" points="10027,1620 11531,1620 11531,1530 10027,1530"/><g data-id="zbfke9p" data-class="note" class="note"><g data-class="notehead" class="notehead"><use href="#E0A4-rdm730b" transform="translate(10027, 990) scale(0.72, 0.72)"/></g><g data-id="ntuwb5c" data-class="stem" class="stem"><path d="M10036 1018 L10036 1602" stroke-width="18"/></g></g><g data-id="a1vocxdr" data-class="note" class="note"><g data-class="notehead" class="notehead"><use href="#E0A4-rdm730b" transform="translate(10522, 1080) scale(0.72, 0.72)"/></g><g data-id="o1xmcupd" data-class="stem" class="stem"><path d="M10531 1108 L10531 1602" stroke-width="18"/></g></g><g data-id="b1aga0z3" data-class="note" class="note"><g data-class="notehead" class="notehead"><use href="#E0A4-rdm730b" transform="translate(11017, 630) scale(0.72, 0.72)"/></g><g data-id="pmqouxx" data-class="stem" class="stem"><path d="M11026 658 L11026 1602" stroke-width="18"/></g></g><g data-id="c1b3g9ym" data-class="note" class="note"><g data-class="notehead" class="notehead"><use href="#E0A4-rdm730b" transform="translate(11513, 900) scale(0.72, 0.72)"/></g><g data-id="q10ocykg" data-class="stem" class="stem"><path d="M11522 928 L11522 1602" stroke-width="18"/></g></g></g><g data-id="n1yd8sh8" data-class="beam" class="beam"><polygon stroke-opacity="1" fill-opacity="1" points="12008,1350 13512,1530 13512,1440 12008,1260"/><g data-id="drebrxx" data-class="note" class="note"><g data-class="notehead" class="notehead"><use href="#E0A4-rdm730b" transform="translate(12008, 720) scale(0.72, 0.72)"/></g><g data-id="rdbb7wb" data-class="stem" class="stem"><path d="M12017 748 L12017 1332" stroke-width="18"/></g></g><g data-id="ehhshrv" data-class="note" class="note"><g data-class="notehead" class="notehead"><use href="#E0A4-rdm730b" transform="translate(12503, 810) scale(0.72, 0.72)"/></g><g data-id="sipqjns" data-class="stem" class="stem"><path d="M12512 838 L12512 1391" stroke-width="18"/></g></g><g data-id="frgzxf1" data-class="note" class="note"><g data-class="notehead" class="notehead"><use href="#E0A4-rdm730b" transform="translate(12999, 900) scale(0.72, 0.72)"/></g><g data-id="t10ayi69" data-class="stem" class="stem"><path d="M13008 928 L13008 1452" stroke-width="18"/></g></g><g data-id="groyduu" data-class="note" class="note"><g data-class="notehead" class="notehead"><use href="#E0A4-rdm730b" transform="translate(13494, 990) scale(0.72, 0.72)"/></g><g data-id="u1e1wj2o" data-class="stem" class="stem"><path d="M13503 1018 L13503 1512" stroke-width="18"/></g></g></g></g></g><g data-id="b6yru4h" data-class="barLine" class="barLine"><path d="M13989 540 L13989 1260" stroke-width="27"/></g></g></g></g></svg></svg>