<svg viewBox="0 0 560 84" version="1.1" xmlns="http://www.w3.org/2000/svg" xmlns:xlink="http://www.w3.org/1999/xlink" overflow="visible" id="z1ualmrk"><desc>Engraved by Verovio 5.6.0-85e7620</desc><defs><g id="E050-z1ualmrk"><path transform="scale(1,-1)" d="M441 -245c-23 -4 -48 -6 -76 -6c-59 0 -102 7 -130 20c-88 42 -150 93 -187 154c-26 44 -43 103 -48 176c0 6 -1 13 -1 19c0 54 15 111 45 170c29 57 65 106 110 148s96 85 153 127c-3 16 -8 46 -13 92c-4 43 -5 73 -5 89c0 117 16 172 69 257c34 54 64 82 89 82 c21 0 43 -30 69 -92s39 -115 41 -159v-15c0 -109 -21 -162 -67 -241c-13 -20 -63 -90 -98 -118c-13 -9 -25 -19 -37 -29l31 -181c8 1 18 2 28 2c58 0 102 -12 133 -35c59 -43 92 -104 98 -184c1 -7 1 -15 1 -22c0 -123 -87 -209 -181 -248c8 -57 17 -110 25 -162 c5 -31 6 -58 6 -80c0 -30 -5 -53 -14 -70c-35 -64 -88 -99 -158 -103c-5 0 -11 -1 -16 -1c-37 0 -72 10 -108 27c-50 24 -77 59 -80 105v11c0 29 7 55 20 76c18 28 45 42 79 44h6c49 0 93 -42 97 -87v-9c0 -51 -34 -86 -105 -106c17 -24 51 -36 102 -36c62 0 116 43 140 85 c9 16 13 41 13 74c0 20 -1 42 -5 67c-8 53 -18 106 -26 159zM461 939c-95 0 -135 -175 -135 -286c0 -24 2 -48 5 -71c50 39 92 82 127 128c40 53 60 100 60 140v8c-4 53 -22 81 -55 81h-2zM406 119l54 -326c73 25 110 78 110 161c0 7 0 15 -1 23c-7 95 -57 142 -151 142h-12 zM382 117c-72 -2 -128 -47 -128 -120v-7c2 -46 43 -99 75 -115c-3 -2 -7 -5 -10 -10c-70 33 -116 88 -123 172v11c0 68 44 126 88 159c23 17 49 29 78 36l-29 170c-21 -13 -52 -37 -92 -73c-50 -44 -86 -84 -109 -119c-45 -69 -67 -130 -67 -182v-13c5 -68 35 -127 93 -176 s125 -73 203 -73c25 0 50 3 75 9c-19 111 -36 221 -54 331z"/></g><g id="E086-z1ualmrk"><path transform="scale(1,-1)" d="M284 -91c0 37 -28 92 -67 92c-35 0 -65 -54 -65 -111c0 -52 22 -104 68 -104c47 0 64 68 64 123zM230 214c-36 0 -90 -33 -90 -184l2 -36c40 24 81 36 120 36c80 0 140 -48 140 -121c0 -99 -99 -159 -182 -159c-160 0 -200 173 -200 244c0 21 2 43 7 71l10 35 c26 85 73 115 98 126c41 19 74 24 103 24c93 0 142 -63 142 -105c0 -58 -52 -72 -73 -72c-33 0 -59 24 -65 35c-3 5 -6 14 -7 25l11 30c6 15 9 27 9 35c0 11 -9 16 -25 16z"/></g><g id="E088-z1ualmrk"><path transform="scale(1,-1)" d="M195 -214c76 0 88 58 90 68c0 34 -35 60 -57 73l-52 29c-21 10 -32 17 -34 20c-39 -33 -58 -54 -62 -92c5 -23 23 -98 115 -98zM301 135c0 61 -72 76 -113 76c-40 0 -77 -17 -77 -51c3 -21 15 -38 26 -50c17 -15 33 -26 48 -34l65 -28c34 27 51 56 51 87zM176 -250 c-57 0 -166 26 -166 132c0 47 30 86 89 116c-33 15 -79 60 -79 119c0 79 85 132 178 132h18c5 0 21 1 28 -1c25 0 126 -30 126 -110c0 -37 -23 -76 -69 -116c43 -25 83 -71 83 -119c0 -101 -118 -153 -208 -153z"/></g><g id="E0A4-z1ualmrk"><path transform="scale(1,-1)" d="M0 -39c0 68 73 172 200 172c66 0 114 -37 114 -95c0 -84 -106 -171 -218 -171c-64 0 -96 30 -96 94z"/></g><g id="E240-z1ualmrk"><path transform="scale(1,-1)" d="M179 -646c15 29 29 55 46 102c18 49 30 108 30 138c0 105 -80 173 -168 200c-18 5 -47 9 -87 16v190h22c8 0 33 -61 71 -95c4 -3 -2 3 61 -56c62 -58 122 -137 122 -241c0 -38 -13 -106 -35 -163c-20 -51 -43 -99 -66 -132c-6 -5 -10 -7 -13 -7s-5 2 -5 5l4 10 c1 3 14 25 18 33z"/></g><g id="E244-z1ualmrk"><path transform="scale(1,-1)" d="M248 -463c4 18 7 38 7 57c0 105 -80 173 -168 200c-11 3 -27 6 -47 9c9 -17 23 -61 53 -88c4 -3 -2 3 61 -56c36 -33 71 -74 94 -122zM206 -748c32 48 49 100 49 149c0 89 -55 168 -168 203c-18 5 -47 9 -87 16v190v190v190h22c8 0 33 -61 71 -95c4 -3 -2 3 61 -56 c61 -57 122 -134 122 -235v-6c-1 -59 -10 -80 -19 -91c12 -30 19 -63 19 -99c0 -32 -7 -65 -17 -96c11 -29 17 -60 17 -94c0 -71 -32 -148 -67 -190c-6 -5 -10 -7 -13 -7s-5 2 -5 5l4 10c1 3 6 8 11 16zM247 -270c4 11 8 28 8 54c0 105 -80 173 -168 200c-11 3 -27 6 -47 9 c9 -17 23 -61 53 -88c4 -3 -2 3 61 -56c35 -33 70 -72 93 -119z"/></g></defs><style type="text/css">#z1ualmrk g.page-margin {font-family:Times,serif;}#z1ualmrk g.ending, #z1ualmrk g.fing, #z1ualmrk g.reh, #z1ualmrk g.tempo {font-weight:bold;}#z1ualmrk g.dir, #z1ualmrk g.dynam, #z1ualmrk g.mNum {font-style:italic;}#z1ualmrk g.label {font-weight:normal;}#z1ualmrk path {stroke:currentColor}</style><svg class="definition-scale" color="black" viewBox="0 0 14000 2100"><g class="page-margin" transform="translate(0, 150)"><g data-id="wq88cb0" data-class="mdiv" class="mdiv pageMilestone"/><g data-id="x1xh1gxc" data-class="score" class="score pageMilestone"/><g data-id="n1hoys9z" data-class="system" class="system"><g data-id="z1vyor4q" data-class="section" class="section systemMilestone"/><g data-id="a1u3n1we" data-class="measure" class="measure"><g data-id="l1o3b2mx" data-class="staff" class="staff"><path d="M0 540 L1803 540" stroke-width="13"/><path d="M0 720 L1803 720" stroke-width="13"/><path d="M0 900 L1803 900" stroke-width="13"/><path d="M0 1080 L1803 1080" stroke-width="13"/><path d="M0 1260 L1803 1260" stroke-width="13"/><g data-id="vcykm7u" data-class="clef" class="clef"><use href="#E050-z1ualmrk" transform="translate(90, 1080) scale(0.72, 0.72)"/></g><g data-id="w1i6hin" data-class="keySig" class="keySig"/><g data-id="x96ou9h" data-class="meterSig" class="meterSig"><use href="#E086-z1ualmrk" transform="translate(721, 720) scale(0.72, 0.72)"/><use href="#E088-z1ualmrk" transform="translate(728, 1080) scale(0.72, 0.72)"/></g><g data-id="m82bqxp" data-class="layer" class="layer"><g data-id="bolpolf" data-class="note" class="note"><g data-class="notehead" class="notehead"><use href="#E0A4-z1ualmrk" transform="translate(1280, 1260) scale(0.72, 0.72)"/></g><g data-id="b1wqgga1" data-class="stem" class="stem"><path d="M1497 1232 L1497 630" stroke-width="18"/><g data-id="cfppkb1" data-class="flag" class="flag"><use href="#E240-z1ualmrk" transform="translate(1488, 630) scale(0.72, 0.72)"/></g></g></g></g></g><g data-id="i13mvi3t" data-class="barLine" class="barLine"><path d="M1790 540 L1790 1260" stroke-width="27"/></g></g><g data-id="j1gsr8h3" data-class="measure" class="measure"><g data-id="n139cbzf" data-class="staff" class="staff"><path d="M1803 540 L4692 540" stroke-width="13"/><path d="M1803 720 L4692 720" stroke-width="13"/><path d="M1803 900 L4692 900" stroke-width="13"/><path d="M1803 1080 L4692 1080" stroke-width="13"/><path d="M1803 1260 L4692 1260" stroke-width="13"/><g data-id="oiy7jni" data-class="layer" class="layer"><g data-id="q1kmtb3p" data-class="beam" class="beam"><polygon stroke-opacity="1" fill-opacity="1" points="2191,495 3109,315 3109,405 2191,585"/><g data-id="c12h2r92" data-class="note" class="note"><g data-class="notehead" class="notehead"><use href="#E0A4-z1ualmrk" transform="translate(1983, 1260) scale(0.72, 0.72)"/></g><g data-id="d1pjukma" data-class="stem" class="stem"><path d="M2200 1232 L2200 513" stroke-width="18"/></g></g><g data-id="d8fqnin" data-class="note" class="note"><g data-class="notehead" class="notehead"><use href="#E0A4-z1ualmrk" transform="translate(2433, 990) scale(0.72, 0.72)"/></g><g data-id="emwem1c" data-class="stem" class="stem"><path d="M2650 962 L2650 423" stroke-width="18"/></g></g><g data-id="e1i6rje3" data-class="note" class="note"><g data-class="notehead" class="notehead"><use href="#E0A4-z1ualmrk" transform="translate(2883, 900) scale(0.72, 0.72)"/></g><g data-id="f19bt8fu" data-class="stem" class="stem"><path d="M3100 872 L3100 333" stroke-width="18"/></g></g></g><g data-id="r1dguza7" data-class="beam" class="beam"><polygon stroke-opacity="1" fill-opacity="1" points="3333,1350 4247,1530 4247,1440 3333,1260"/><polygon stroke-opacity="1" fill-opacity="1" points="3696,1287 3922,1331 3922,1241 3696,1197"/><g data-id="fl4b0ks" data-class="note" class="note"><g data-class="notehead" class="notehead"><use href="#E0A4-z1ualmrk" transform="translate(3333, 810) scale(0.72, 0.72)"/></g><g data-id="h2chsiv" data-class="dots" class="dots"><ellipse cx="3649" cy="810" rx="36" ry="36" fill-opacity="1" stroke-opacity="1"/></g><g data-id="gpaaphu" data-class="stem" class="stem"><path d="M3342 838 L3342 1332" stroke-width="18"/></g></g><g data-id="g1kpbjcl" data-class="note" class="note"><g data-class="notehead" class="notehead"><use href="#E0A4-z1ualmrk" transform="translate(3913, 900) scale(0.72, 0.72)"/></g><g data-id="im2ln4o" data-class="stem" class="stem"><path d="M3922 928 L3922 1448" stroke-width="18"/></g></g><g data-id="h109548h" data-class="note" class="note"><g data-class="notehead" class="notehead"><use href="#E0A4-z1ualmrk" transform="translate(4229, 990) scale(0.72, 0.72)"/></g><g data-id="j169savo" data-class="stem" class="stem"><path d="M4238 1018 L4238 1512" stroke-width="18"/></g></g></g></g></g><g data-id="r1h70me9" data-class="barLine" class="barLine"><path d="M4679 540 L4679 1260" stroke-width="27"/></g></g><g data-id="s6c4cvb" data-class="measure" class="measure"><g data-id="p1fy4b2o" data-class="staff" class="staff"><path d="M4692 540 L8181 540" stroke-width="13"/><path d="M4692 720 L8181 720" stroke-width="13"/><path d="M4692 900 L8181 900" stroke-width="13"/><path d="M4692 1080 L8181 1080" stroke-width="13"/><path d="M4692 1260 L8181 1260" stroke-width="13"/><g data-id="qaxt07x" data-class="layer" class="layer"><g data-id="s10ylhvw" data-class="beam" class="beam"><polygon stroke-opacity="1" fill-opacity="1" points="4872,1530 5790,1530 5790,1440 4872,1440"/><g data-id="iov4iq2" data-class="note" class="note"><g data-class="notehead" class="notehead"><use href="#E0A4-z1ualmrk" transform="translate(4872, 630) scale(0.72, 0.72)"/></g><g data-id="kk37dzw" data-class="stem" class="stem"><path d="M4881 658 L4881 1512" stroke-width="18"/></g></g><g data-id="jqsnbi7" data-class="note" class="note"><g data-class="notehead" class="notehead"><use href="#E0A4-z1ualmrk" transform="translate(5322, 990) scale(0.72, 0.72)"/></g><g data-id="l4w25r0" data-class="stem" class="stem"><path d="M5331 1018 L5331 1512" stroke-width="18"/></g></g><g data-id="k7590iz" data-class="note" class="note"><g data-class="notehead" class="notehead"><use href="#E0A4-z1ualmrk" transform="translate(5772, 900) scale(0.72, 0.72)"/></g><g data-id="ma9b9h" data-class="stem" class="stem"><path d="M5781 928 L5781 1512" stroke-width="18"/></g></g></g><g data-id="u1dfebmy" data-class="graceGrp" class="graceGrp"><g data-id="leacsr6" data-class="note" class="note"><g data-class="notehead" class="notehead"><use href="#E0A4-z1ualmrk" transform="translate(6088, 990) scale(0.54, 0.54)"/></g><g data-id="n2zttnf" data-class="stem" class="stem"><path d="M6248 969 L6248 518" stroke-width="18"/><g data-id="o2aq37e" data-class="flag" class="flag"><use href="#E244-z1ualmrk" transform="translate(6239, 518) scale(0.54, 0.54)"/></g></g></g><g data-id="mj1ptfh" data-class="note" class="note"><g data-class="notehead" class="notehead"><use href="#E0A4-z1ualmrk" transform="translate(6455, 900) scale(0.54, 0.54)"/></g><g data-id="p1qk849h" data-class="stem" class="stem"><path d="M6615 879 L6615 450" stroke-width="18"/><g data-id="q1wmj4qe" data-class="flag" class="flag"><use href="#E244-z1ualmrk" transform="translate(6606, 450) scale(0.54, 0.54)"/></g></g></g></g><g data-id="tshl30l" data-class="beam" class="beam"><polygon stroke-opacity="1" fill-opacity="1" points="6822,1350 7736,1530 7736,1440 6822,1260"/><polygon stroke-opacity="1" fill-opacity="1" points="7185,1287 7411,1331 7411,1241 7185,1197"/><g data-id="n140qdu2" data-class="note" class="note"><g data-class="notehead" class="notehead"><use href="#E0A4-z1ualmrk" transform="translate(6822, 810) scale(0.72, 0.72)"/></g><g data-id="sas4dsa" data-class="dots" class="dots"><ellipse cx="7138" cy="810" rx="36" ry="36" fill-opacity="1" stroke-opacity="1"/></g><g data-id="rsd4j1w" data-class="stem" class="stem"><path d="M6831 838 L6831 1332" stroke-width="18"/></g></g><g data-id="onwjpo2" data-class="note" class="note"><g data-class="notehead" class="notehead"><use href="#E0A4-z1ualmrk" transform="translate(7402, 900) scale(0.72, 0.72)"/></g><g data-id="t1hpooo7" data-class="stem" class="stem"><path d="M7411 928 L7411 1448" stroke-width="18"/></g></g><g data-id="pd7q9zt" data-class="note" class="note"><g data-class="notehead" class="notehead"><use href="#E0A4-z1ualmrk" transform="translate(7718, 990) scale(0.72, 0.72)"/></g><g data-id="u1hlbkvk" data-class="stem" class="stem"><path d="M7727 1018 L7727 1512" stroke-width="18"/></g></g></g></g></g><g data-id="a710fsf" data-class="barLine" class="barLine"><path d="M8168 540 L8168 1260" stroke-width="27"/></g></g><g data-id="y3wuqnl" data-class="systemMilestoneEnd" class="systemMilestoneEnd z1vyor4q"/></g><g data-id="z66hq4r" data-class="pageMilestoneEnd" class="pageMilestoneEnd x1xh1gxc"/><g data-id="a1f5aoi4" data-class="pageMilestoneEnd" class="pageMilestoneEnd wq88cb0"/></g></svg></svg>