<svg viewBox="0 0 560 84" version="1.1" xmlns="http://www.w3.org/2000/svg" xmlns:xlink="http://www.w3.org/1999/xlink" overflow="visible" id="zdnba3d"><desc>Engraved by Verovio 5.6.0-85e7620</desc><defs><g id="E050-zdnba3d"><path transform="scale(1,-1)" d="M441 -245c-23 -4 -48 -6 -76 -6c-59 0 -102 7 -130 20c-88 42 -150 93 -187 154c-26 44 -43 103 -48 176c0 6 -1 13 -1 19c0 54 15 111 45 170c29 57 65 106 110 148s96 85 153 127c-3 16 -8 46 -13 92c-4 43 -5 73 -5 89c0 117 16 172 69 257c34 54 64 82 89 82 c21 0 43 -30 69 -92s39 -115 41 -159v-15c0 -109 -21 -162 -67 -241c-13 -20 -63 -90 -98 -118c-13 -9 -25 -19 -37 -29l31 -181c8 1 18 2 28 2c58 0 102 -12 133 -35c59 -43 92 -104 98 -184c1 -7 1 -15 1 -22c0 -123 -87 -209 -181 -248c8 -57 17 -110 25 -162 c5 -31 6 -58 6 -80c0 -30 -5 -53 -14 -70c-35 -64 -88 -99 -158 -103c-5 0 -11 -1 -16 -1c-37 0 -72 10 -108 27c-50 24 -77 59 -80 105v11c0 29 7 55 20 76c18 28 45 42 79 44h6c49 0 93 -42 97 -87v-9c0 -51 -34 -86 -105 -106c17 -24 51 -36 102 -36c62 0 116 43 140 85 c9 16 13 41 13 74c0 20 -1 42 -5 67c-8 53 -18 106 -26 159zM461 939c-95 0 -135 -175 -135 -286c0 -24 2 -48 5 -71c50 39 92 82 127 128c40 53 60 100 60 140v8c-4 53 -22 81 -55 81h-2zM406 119l54 -326c73 25 110 78 110 161c0 7 0 15 -1 23c-7 95 -57 142 -151 142h-12 zM382 117c-72 -2 -128 -47 -128 -120v-7c2 -46 43 -99 75 -115c-3 -2 -7 -5 -10 -10c-70 33 -116 88 -123 172v11c0 68 44 126 88 159c23 17 49 29 78 36l-29 170c-21 -13 -52 -37 -92 -73c-50 -44 -86 -84 -109 -119c-45 -69 -67 -130 -67 -182v-13c5 -68 35 -127 93 -176 s125 -73 203 -73c25 0 50 3 75 9c-19 111 -36 221 -54 331z"/></g><g id="E262-zdnba3d"><path transform="scale(1,-1)" d="M136 186v169h17v-164l44 14v-91l-44 -14v-165l44 12v-91l-44 -13v-155h-17v150l-76 -22v-155h-17v149l-43 -13v90l43 14v167l-43 -14v92l43 13v169h17v-163zM60 73v-167l76 22v168z"/></g><g id="E083-zdnba3d"><path transform="scale(1,-1)" d="M208 250c97 0 177 -52 177 -116c0 -69 -40 -111 -118 -125c56 -5 125 -44 125 -116c0 -31 -10 -57 -31 -78c-19 -21 -45 -38 -78 -49l-50 -11c-15 -3 -36 -7 -55 -7c-50 0 -86 16 -113 38c-16 10 -23 18 -34 34c-7 13 -11 25 -11 38c0 43 27 83 68 83l3 -2 c61 0 75 -42 75 -70c0 -19 -24 -42 -26 -57c7 -17 20 -25 37 -25c44 0 94 29 94 78c0 75 -34 125 -138 125v36c84 0 131 22 131 98c0 54 -37 88 -87 88c-26 0 -43 -7 -51 -22c15 -22 44 -16 44 -70c0 -37 -37 -62 -71 -62c-22 0 -69 15 -69 76c0 79 101 116 178 116z"/></g><g id="E084-zdnba3d"><path transform="scale(1,-1)" d="M20 -78c84 97 114 180 134 329h170c-13 -32 -82 -132 -99 -151l-84 -97c-33 -36 -59 -63 -80 -81h162v102l127 123v-225h57v-39h-57v-34c0 -43 19 -65 57 -65v-34h-244v36c48 0 60 26 60 70v27h-203v39z"/></g><g id="E0A4-zdnba3d"><path transform="scale(1,-1)" d="M0 -39c0 68 73 172 200 172c66 0 114 -37 114 -95c0 -84 -106 -171 -218 -171c-64 0 -96 30 -96 94z"/></g><g id="E241-zdnba3d"><path transform="scale(1,-1)" d="M179 646c-4 8 -17 30 -18 33l-4 10c0 3 2 5 5 5s7 -2 13 -7c23 -33 46 -81 66 -132c22 -57 35 -125 35 -163c0 -104 -60 -183 -122 -241c-63 -59 -57 -53 -61 -56c-38 -34 -63 -95 -71 -95h-22v190c40 7 69 11 87 16c88 27 168 95 168 200c0 30 -12 89 -30 138 c-17 47 -31 73 -46 102z"/></g><g id="E243-zdnba3d"><path transform="scale(1,-1)" d="M216 730c-5 8 -10 13 -11 16l-4 10c0 3 2 5 5 5s7 -2 13 -7c35 -42 57 -101 57 -172c0 -34 -6 -65 -17 -94c10 -31 17 -64 17 -96c0 -104 -60 -183 -122 -241c-63 -59 -57 -53 -61 -56c-38 -34 -63 -95 -71 -95h-22v190v190c40 7 69 11 87 16c116 36 175 111 175 197 c0 44 -15 91 -46 137zM248 463c-23 -48 -58 -89 -94 -122c-63 -59 -57 -53 -61 -56c-30 -27 -44 -71 -53 -88c20 3 36 6 47 9c88 27 168 95 168 200c0 19 -3 39 -7 57z"/></g><g id="E0A3-zdnba3d"><path transform="scale(1,-1)" d="M278 64c0 22 -17 39 -43 39c-12 0 -26 -3 -41 -10c-85 -43 -165 -94 -165 -156c5 -25 15 -32 49 -32c67 11 200 95 200 159zM0 -36c0 68 73 174 200 174c66 0 114 -39 114 -97c0 -84 -106 -173 -218 -173c-64 0 -96 32 -96 96z"/></g><g id="E4E5-zdnba3d"><path transform="scale(1,-1)" d="M107 292c-13 24 -30 49 -52 71c-1 1 0 2 0 3l-2 2c3 3 4 4 6 4c12 0 26 -7 40 -20s44 -40 89 -81c26 -24 28 -29 46 -47c4 -4 8 -9 10 -14c6 -8 8 -16 8 -27c0 -19 -12 -40 -36 -61c-28 -23 -49 -38 -61 -73c-4 -11 -7 -27 -10 -50c13 -43 34 -83 59 -121 c31 -47 59 -79 101 -129c-8 0 -26 7 -54 20l-62 29l-21 6l-23 1c-25 0 -45 -10 -60 -30l-4 -14l-1 -12c0 -33 20 -56 39 -78c8 -9 17 -18 26 -26c17 -15 27 -24 28 -30l-3 -3c-11 5 -19 10 -25 15c-9 3 -37 21 -45 26c-24 14 -45 32 -63 51c-19 21 -37 44 -37 71 c0 63 27 95 80 95c41 0 86 -18 136 -52c-19 26 -37 48 -55 66c-23 23 -48 44 -73 65c-28 23 -47 40 -58 53s-17 26 -18 39c75 64 113 125 113 183c0 27 -7 48 -18 68z"/></g><g id="E4C0-zdnba3d"><path transform="scale(1,-1)" d="M0 0c0 0 40 320 300 320s300 -320 300 -320h-32s-38 227 -268 227s-268 -227 -268 -227h-32zM355 52c0 -30 -25 -55 -55 -55s-55 25 -55 55s25 55 55 55s55 -25 55 -55z"/></g></defs><style type="text/css">#zdnba3d g.page-margin {font-family:Times,serif;}#zdnba3d g.ending, #zdnba3d g.fing, #zdnba3d g.reh, #zdnba3d g.tempo {font-weight:bold;}#zdnba3d g.dir, #zdnba3d g.dynam, #zdnba3d g.mNum {font-style:italic;}#zdnba3d g.label {font-weight:normal;}#zdnba3d path {stroke:currentColor}</style><svg class="definition-scale" color="black" viewBox="0 0 14000 2100"><g class="page-margin" transform="translate(0, 150)"><g data-id="oewrzm8" data-class="mdiv" class="mdiv pageMilestone"/><g data-id="p1oxrvdh" data-class="score" class="score pageMilestone"/><g data-id="g3meko8" data-class="system" class="system"><g data-id="rmjqemk" data-class="section" class="section systemMilestone"/><g data-id="ahvyf32" data-class="measure" class="measure"><g data-id="dt9z6mr" data-class="staff" class="staff"><path d="M0 540 L3095 540" stroke-width="13"/><path d="M0 720 L3095 720" stroke-width="13"/><path d="M0 900 L3095 900" stroke-width="13"/><path d="M0 1080 L3095 1080" stroke-width="13"/><path d="M0 1260 L3095 1260" stroke-width="13"/><g data-id="kuzwnyy" data-class="clef" class="clef"><use href="#E050-zdnba3d" transform="translate(90, 1080) scale(0.72, 0.72)"/></g><g data-id="l1szneym" data-class="keySig" class="keySig"><g data-id="m1lj2sh0" data-class="keyAccid" class="keyAccid"><use href="#E262-zdnba3d" transform="translate(735, 540) scale(0.72, 0.72)"/></g><g data-id="n1thtqu0" data-class="keyAccid" class="keyAccid"><use href="#E262-zdnba3d" transform="translate(913, 810) scale(0.72, 0.72)"/></g><g data-id="o1wo8gnn" data-class="keyAccid" class="keyAccid"><use href="#E262-zdnba3d" transform="translate(1091, 450) scale(0.72, 0.72)"/></g></g><g data-id="pubtyvo" data-class="meterSig" class="meterSig"><use href="#E083-zdnba3d" transform="translate(1404, 720) scale(0.72, 0.72)"/><use href="#E084-zdnba3d" transform="translate(1398, 1080) scale(0.72, 0.72)"/></g><g data-id="e1becarn" data-class="layer" class="layer"><g data-id="jofy2qx" data-class="note" class="note"><g data-class="notehead" class="notehead"><use href="#E0A4-zdnba3d" transform="translate(1974, 810) scale(0.72, 0.72)"/></g><g data-id="j9353jv" data-class="dots" class="dots"><ellipse cx="2290" cy="810" rx="36" ry="36" fill-opacity="1" stroke-opacity="1"/></g><g data-id="i1maz1f8" data-class="stem" class="stem"><path d="M1983 838 L1983 1440" stroke-width="18"/><g data-id="k59bse0" data-class="flag" class="flag"><use href="#E241-zdnba3d" transform="translate(1974, 1440) scale(0.72, 0.72)"/></g></g><g data-id="f6mh4pj" data-class="accid" class="accid"/></g><g data-id="kj1aa5h" data-class="note" class="note"><g data-class="notehead" class="notehead"><use href="#E0A4-zdnba3d" transform="translate(2705, 900) scale(0.72, 0.72)"/></g><g data-id="l10z8nzt" data-class="stem" class="stem"><path d="M2714 928 L2714 1500" stroke-width="18"/><g data-id="m1gxuuzp" data-class="flag" class="flag"><use href="#E243-zdnba3d" transform="translate(2705, 1500) scale(0.72, 0.72)"/></g></g></g></g></g><g data-id="izr9uj" data-class="barLine" class="barLine"><path d="M3082 540 L3082 1260" stroke-width="27"/></g></g><g data-id="j1cce2f6" data-class="measure" class="measure"><g data-id="f1gr0cxi" data-class="staff" class="staff"><path d="M3095 540 L5495 540" stroke-width="13"/><path d="M3095 720 L5495 720" stroke-width="13"/><path d="M3095 900 L5495 900" stroke-width="13"/><path d="M3095 1080 L5495 1080" stroke-width="13"/><path d="M3095 1260 L5495 1260" stroke-width="13"/><g data-id="g1f1mom4" data-class="layer" class="layer"><g data-id="l1mr8vjf" data-class="note" class="note"><g data-class="notehead" class="notehead"><use href="#E0A3-zdnba3d" transform="translate(3289, 720) scale(0.72, 0.72)"/></g><g data-id="nc9kfry" data-class="stem" class="stem"><path d="M3298 745 L3298 1350" stroke-width="18"/></g></g><g data-id="d11pt3jw" data-class="rest" class="rest"><use href="#E4E5-zdnba3d" transform="translate(4612, 900) scale(0.72, 0.72)"/></g></g></g><g data-id="ry06cmd" data-class="barLine" class="barLine"><path d="M5482 540 L5482 1260" stroke-width="27"/></g></g><g data-id="s1kmi88g" data-class="measure" class="measure"><g data-id="h15km2al" data-class="staff" class="staff"><path d="M5495 540 L8549 540" stroke-width="13"/><path d="M5495 720 L8549 720" stroke-width="13"/><path d="M5495 900 L8549 900" stroke-width="13"/><path d="M5495 1080 L8549 1080" stroke-width="13"/><path d="M5495 1260 L8549 1260" stroke-width="13"/><g data-id="i1a0xwd4" data-class="layer" class="layer"><g data-id="e1600gv7" data-class="rest" class="rest"><use href="#E4E5-zdnba3d" transform="translate(5689, 900) scale(0.72, 0.72)"/></g><g data-id="fb6pjqn" data-class="rest" class="rest"><use href="#E4E5-zdnba3d" transform="translate(6559, 900) scale(0.72, 0.72)"/></g><g data-id="mzutm0d" data-class="note" class="note"><g data-class="notehead" class="notehead"><use href="#E0A4-zdnba3d" transform="translate(7428, 810) scale(0.72, 0.72)"/></g><g data-id="pf3z9ks" data-class="dots" class="dots"><ellipse cx="7744" cy="810" rx="36" ry="36" fill-opacity="1" stroke-opacity="1"/></g><g data-id="or6ngpg" data-class="stem" class="stem"><path d="M7437 838 L7437 1440" stroke-width="18"/><g data-id="qtp9okd" data-class="flag" class="flag"><use href="#E241-zdnba3d" transform="translate(7428, 1440) scale(0.72, 0.72)"/></g></g><g data-id="g1kwl2q1" data-class="accid" class="accid"/></g><g data-id="ni3n30" data-class="note" class="note"><g data-class="notehead" class="notehead"><use href="#E0A4-zdnba3d" transform="translate(8159, 900) scale(0.72, 0.72)"/></g><g data-id="r1osuxsy" data-class="stem" class="stem"><path d="M8168 928 L8168 1500" stroke-width="18"/><g data-id="sj85u18" data-class="flag" class="flag"><use href="#E243-zdnba3d" transform="translate(8159, 1500) scale(0.72, 0.72)"/></g></g></g></g></g><g data-id="a1kpblhv" data-class="barLine" class="barLine"><path d="M8536 540 L8536 1260" stroke-width="27"/></g></g><g data-id="bbrcz2a" data-class="measure" class="measure"><g data-id="j15rbf3x" data-class="staff" class="staff"><path d="M8549 540 L10949 540" stroke-width="13"/><path d="M8549 720 L10949 720" stroke-width="13"/><path d="M8549 900 L10949 900" stroke-width="13"/><path d="M8549 1080 L10949 1080" stroke-width="13"/><path d="M8549 1260 L10949 1260" stroke-width="13"/><g data-id="krs184o" data-class="layer" class="layer"><g data-id="o1ufcne0" data-class="note" class="note"><g data-class="notehead" class="notehead"><use href="#E0A3-zdnba3d" transform="translate(8743, 720) scale(0.72, 0.72)"/></g><g data-id="t8qv8fp" data-class="stem" class="stem"><path d="M8752 745 L8752 1350" stroke-width="18"/></g></g><g data-id="g8b0b9n" data-class="rest" class="rest"><use href="#E4E5-zdnba3d" transform="translate(10066, 900) scale(0.72, 0.72)"/></g></g></g><g data-id="j14b2o0" data-class="barLine" class="barLine"><path d="M10936 540 L10936 1260" stroke-width="27"/></g></g><g data-id="kqbxydc" data-class="measure" class="measure"><g data-id="l1fv5v1" data-class="staff" class="staff"><path d="M10949 540 L14003 540" stroke-width="13"/><path d="M10949 720 L14003 720" stroke-width="13"/><path d="M10949 900 L14003 900" stroke-width="13"/><path d="M10949 1080 L14003 1080" stroke-width="13"/><path d="M10949 1260 L14003 1260" stroke-width="13"/><g data-id="m9vaf6i" data-class="layer" class="layer"><g data-id="hs4l5ta" data-class="rest" class="rest"><use href="#E4E5-zdnba3d" transform="translate(11143, 900) scale(0.72, 0.72)"/></g><g data-id="i1j6zzzx" data-class="rest" class="rest"><use href="#E4E5-zdnba3d" transform="translate(12013, 900) scale(0.72, 0.72)"/></g><g data-id="p1mrrd7q" data-class="note" class="note"><g data-class="notehead" class="notehead"><use href="#E0A4-zdnba3d" transform="translate(12882, 720) scale(0.72, 0.72)"/></g><g data-id="vlg7o9l" data-class="dots" class="dots"><ellipse cx="13198" cy="630" rx="36" ry="36" fill-opacity="1" stroke-opacity="1"/></g><g data-id="uawsfvh" data-class="stem" class="stem"><path d="M12891 748 L12891 1350" stroke-width="18"/><g data-id="w5zcm47" data-class="flag" class="flag"><use href="#E241-zdnba3d" transform="translate(12882, 1350) scale(0.72, 0.72)"/></g></g></g><g data-id="q1awhcq1" data-class="note" class="note"><g data-class="notehead" class="notehead"><use href="#E0A4-zdnba3d" transform="translate(13613, 810) scale(0.72, 0.72)"/></g><g data-id="x92xmrc" data-class="stem" class="stem"><path d="M13622 838 L13622 1440" stroke-width="18"/><g data-id="y1o0pc7s" data-class="flag" class="flag"><use href="#E243-zdnba3d" transform="translate(13613, 1440) scale(0.72, 0.72)"/></g></g><g data-id="hy3jtcs" data-class="accid" class="accid"/></g></g></g><g data-id="eyb28to" data-class="fermata" class="fermata"><use href="#E4C0-zdnba3d" transform="translate(11910, 493) scale(0.72, 0.72)"/></g><g data-id="se3k029" data-class="barLine" class="barLine"><path d="M13990 540 L13990 1260" stroke-width="27"/></g></g></g></g></svg></svg>