<svg viewBox="0 0 560 84" version="1.1" xmlns="http://www.w3.org/2000/svg" xmlns:xlink="http://www.w3.org/1999/xlink" overflow="visible" id="p1nfp3mx"><desc>Engraved by Verovio 5.6.0-85e7620</desc><defs><g id="E050-p1nfp3mx"><path transform="scale(1,-1)" d="M441 -245c-23 -4 -48 -6 -76 -6c-59 0 -102 7 -130 20c-88 42 -150 93 -187 154c-26 44 -43 103 -48 176c0 6 -1 13 -1 19c0 54 15 111 45 170c29 57 65 106 110 148s96 85 153 127c-3 16 -8 46 -13 92c-4 43 -5 73 -5 89c0 117 16 172 69 257c34 54 64 82 89 82 c21 0 43 -30 69 -92s39 -115 41 -159v-15c0 -109 -21 -162 -67 -241c-13 -20 -63 -90 -98 -118c-13 -9 -25 -19 -37 -29l31 -181c8 1 18 2 28 2c58 0 102 -12 133 -35c59 -43 92 -104 98 -184c1 -7 1 -15 1 -22c0 -123 -87 -209 -181 -248c8 -57 17 -110 25 -162 c5 -31 6 -58 6 -80c0 -30 -5 -53 -14 -70c-35 -64 -88 -99 -158 -103c-5 0 -11 -1 -16 -1c-37 0 -72 10 -108 27c-50 24 -77 59 -80 105v11c0 29 7 55 20 76c18 28 45 42 79 44h6c49 0 93 -42 97 -87v-9c0 -51 -34 -86 -105 -106c17 -24 51 -36 102 -36c62 0 116 43 140 85 c9 16 13 41 13 74c0 20 -1 42 -5 67c-8 53 -18 106 -26 159zM461 939c-95 0 -135 -175 -135 -286c0 -24 2 -48 5 -71c50 39 92 82 127 128c40 53 60 100 60 140v8c-4 53 -22 81 -55 81h-2zM406 119l54 -326c73 25 110 78 110 161c0 7 0 15 -1 23c-7 95 -57 142 -151 142h-12 zM382 117c-72 -2 -128 -47 -128 -120v-7c2 -46 43 -99 75 -115c-3 -2 -7 -5 -10 -10c-70 33 -116 88 -123 172v11c0 68 44 126 88 159c23 17 49 29 78 36l-29 170c-21 -13 -52 -37 -92 -73c-50 -44 -86 -84 -109 -119c-45 -69 -67 -130 -67 -182v-13c5 -68 35 -127 93 -176 s125 -73 203 -73c25 0 50 3 75 9c-19 111 -36 221 -54 331z"/></g><g id="E260-p1nfp3mx"><path transform="scale(1,-1)" d="M20 110c32 16 54 27 93 27c26 0 35 -3 54 -13c13 -7 24 -20 27 -38l4 -25c0 -28 -16 -57 -45 -89c-23 -25 -39 -44 -65 -68l-88 -79v644h20v-359zM90 106c-32 0 -48 -10 -70 -29v-194c31 31 54 59 71 84c21 32 32 59 32 84c0 9 1 16 1 20c0 14 -3 21 -11 30l-8 3z"/></g><g id="E08A-p1nfp3mx"><path transform="scale(1,-1)" d="M340 179c-9 24 -56 41 -89 41c-46 0 -81 -28 -100 -58c-17 -28 -25 -78 -25 -150c0 -65 2 -111 8 -135c8 -31 18 -49 40 -67c20 -17 43 -25 70 -25c54 0 92 36 115 75c14 25 23 54 28 88h27c0 -63 -24 -105 -58 -141c-35 -38 -82 -56 -140 -56c-45 0 -83 13 -115 39 c-57 45 -101 130 -101 226c0 59 33 127 68 163c36 37 97 72 160 72c36 0 93 -21 121 -40c11 -8 23 -17 33 -30c19 -23 27 -48 27 -76c0 -51 -35 -88 -86 -88c-43 0 -76 27 -76 68c0 26 7 35 21 51c15 17 32 27 58 32c7 2 14 7 14 11z"/></g><g id="E0A4-p1nfp3mx"><path transform="scale(1,-1)" d="M0 -39c0 68 73 172 200 172c66 0 114 -37 114 -95c0 -84 -106 -171 -218 -171c-64 0 -96 30 -96 94z"/></g><g id="E240-p1nfp3mx"><path transform="scale(1,-1)" d="M179 -646c15 29 29 55 46 102c18 49 30 108 30 138c0 105 -80 173 -168 200c-18 5 -47 9 -87 16v190h22c8 0 33 -61 71 -95c4 -3 -2 3 61 -56c62 -58 122 -137 122 -241c0 -38 -13 -106 -35 -163c-20 -51 -43 -99 -66 -132c-6 -5 -10 -7 -13 -7s-5 2 -5 5l4 10 c1 3 14 25 18 33z"/></g><g id="E0A3-p1nfp3mx"><path transform="scale(1,-1)" d="M278 64c0 22 -17 39 -43 39c-12 0 -26 -3 -41 -10c-85 -43 -165 -94 -165 -156c5 -25 15 -32 49 -32c67 11 200 95 200 159zM0 -36c0 68 73 174 200 174c66 0 114 -39 114 -97c0 -84 -106 -173 -218 -173c-64 0 -96 32 -96 96z"/></g><g id="E261-p1nfp3mx"><path transform="scale(1,-1)" d="M0 -188v539h18v-191l139 22v-533h-17v186zM18 -100l122 17v176l-122 -19v-174z"/></g></defs><style type="text/css">#p1nfp3mx g.page-margin {font-family:Times,serif;}#p1nfp3mx g.ending, #p1nfp3mx g.fing, #p1nfp3mx g.reh, #p1nfp3mx g.tempo {font-weight:bold;}#p1nfp3mx g.dir, #p1nfp3mx g.dynam, #p1nfp3mx g.mNum {font-style:italic;}#p1nfp3mx g.label {font-weight:normal;}#p1nfp3mx path {stroke:currentColor}</style><svg class="definition-scale" color="black" viewBox="0 0 14000 2100"><g class="page-margin" transform="translate(0, 150)"><g data-id="w157a7n5" data-class="mdiv" class="mdiv pageMilestone"/><g data-id="x19ipmar" data-class="score" class="score pageMilestone"/><g data-id="q1hzbde7" data-class="system" class="system"><g data-id="z1s1v0up" data-class="section" class="section systemMilestone"/><g data-id="q1l4zwu5" data-class="measure" class="measure"><g data-id="l1vrmac2" data-class="staff" class="staff"><path d="M0 540 L5388 540" stroke-width="13"/><path d="M0 720 L5388 720" stroke-width="13"/><path d="M0 900 L5388 900" stroke-width="13"/><path d="M0 1080 L5388 1080" stroke-width="13"/><path d="M0 1260 L5388 1260" stroke-width="13"/><g data-id="cn5m7is" data-class="clef" class="clef"><use href="#E050-p1nfp3mx" transform="translate(90, 1080) scale(0.72, 0.72)"/></g><g data-id="dle6uz7" data-class="keySig" class="keySig"><g data-id="e1wqh7jx" data-class="keyAccid" class="keyAccid"><use href="#E260-p1nfp3mx" transform="translate(735, 900) scale(0.72, 0.72)"/></g><g data-id="fqqbngv" data-class="keyAccid" class="keyAccid"><use href="#E260-p1nfp3mx" transform="translate(915, 630) scale(0.72, 0.72)"/></g><g data-id="g1d15dvo" data-class="keyAccid" class="keyAccid"><use href="#E260-p1nfp3mx" transform="translate(1095, 990) scale(0.72, 0.72)"/></g><g data-id="h1rtpgel" data-class="keyAccid" class="keyAccid"><use href="#E260-p1nfp3mx" transform="translate(1275, 720) scale(0.72, 0.72)"/></g><g data-id="i1jrw1dl" data-class="keyAccid" class="keyAccid"><use href="#E260-p1nfp3mx" transform="translate(1455, 1080) scale(0.72, 0.72)"/></g></g><g data-id="jsdk1k3" data-class="meterSig" class="meterSig"><use href="#E08A-p1nfp3mx" transform="translate(1777, 900) scale(0.72, 0.72)"/></g><g data-id="moidt5z" data-class="layer" class="layer"><g data-id="b1qrja3m" data-class="note" class="note"><g data-class="notehead" class="notehead"><use href="#E0A4-p1nfp3mx" transform="translate(2356, 990) scale(0.72, 0.72)"/></g><g data-id="o6fsruv" data-class="stem" class="stem"><path d="M2573 962 L2573 360" stroke-width="18"/></g><g data-id="dztxbzm" data-class="accid" class="accid"/></g><g data-id="ckcpxze" data-class="note" class="note"><g data-class="notehead" class="notehead"><use href="#E0A4-p1nfp3mx" transform="translate(3113, 990) scale(0.72, 0.72)"/></g><g data-id="pf3c2p0" data-class="stem" class="stem"><path d="M3330 962 L3330 360" stroke-width="18"/></g><g data-id="e9kq8xe" data-class="accid" class="accid"/></g><g data-id="d1dd38if" data-class="note" class="note"><g data-class="notehead" class="notehead"><use href="#E0A4-p1nfp3mx" transform="translate(3870, 720) scale(0.72, 0.72)"/></g><g data-id="r1hxsf7c" data-class="dots" class="dots"><ellipse cx="4186" cy="630" rx="36" ry="36" fill-opacity="1" stroke-opacity="1"/></g><g data-id="q1a2i52g" data-class="stem" class="stem"><path d="M3879 748 L3879 1350" stroke-width="18"/></g><g data-id="f7nsi0e" data-class="accid" class="accid"/></g><g data-id="ew6mgm6" data-class="note" class="note"><g data-class="notehead" class="notehead"><use href="#E0A4-p1nfp3mx" transform="translate(4836, 990) scale(0.72, 0.72)"/></g><g data-id="sknizy2" data-class="stem" class="stem"><path d="M5053 962 L5053 360" stroke-width="18"/><g data-id="t1yisqw9" data-class="flag" class="flag"><use href="#E240-p1nfp3mx" transform="translate(5044, 360) scale(0.72, 0.72)"/></g></g><g data-id="gqtbqrl" data-class="accid" class="accid"/></g></g></g><g data-id="yp2rl38" data-class="barLine" class="barLine"><path d="M5375 540 L5375 1260" stroke-width="27"/></g></g><g data-id="zew4gh6" data-class="measure" class="measure"><g data-id="n171lrjh" data-class="staff" class="staff"><path d="M5388 540 L8259 540" stroke-width="13"/><path d="M5388 720 L8259 720" stroke-width="13"/><path d="M5388 900 L8259 900" stroke-width="13"/><path d="M5388 1080 L8259 1080" stroke-width="13"/><path d="M5388 1260 L8259 1260" stroke-width="13"/><g data-id="o1qqwgvh" data-class="layer" class="layer"><g data-id="f1txxpxd" data-class="note" class="note"><g data-class="notehead" class="notehead"><use href="#E0A4-p1nfp3mx" transform="translate(5579, 1170) scale(0.72, 0.72)"/></g><g data-id="u1szrkdl" data-class="stem" class="stem"><path d="M5796 1142 L5796 540" stroke-width="18"/></g></g><g data-id="g1ml9h6s" data-class="note" class="note"><g data-class="notehead" class="notehead"><use href="#E0A4-p1nfp3mx" transform="translate(6336, 1080) scale(0.72, 0.72)"/></g><g data-id="vr9p97o" data-class="stem" class="stem"><path d="M6553 1052 L6553 450" stroke-width="18"/></g><g data-id="h10prsio" data-class="accid" class="accid"/></g><g data-id="hduf3i5" data-class="note" class="note"><g data-class="notehead" class="notehead"><use href="#E0A3-p1nfp3mx" transform="translate(7093, 990) scale(0.72, 0.72)"/></g><g data-id="w1rgmw4c" data-class="stem" class="stem"><path d="M7310 962 L7310 360" stroke-width="18"/></g><g data-id="iz73iu6" data-class="accid" class="accid"/></g></g></g><g data-id="h1egtpge" data-class="barLine" class="barLine"><path d="M8246 540 L8246 1260" stroke-width="27"/></g></g><g data-id="i1ejxcso" data-class="measure" class="measure"><g data-id="pq3uaz4" data-class="staff" class="staff"><path d="M8259 540 L11492 540" stroke-width="13"/><path d="M8259 720 L11492 720" stroke-width="13"/><path d="M8259 900 L11492 900" stroke-width="13"/><path d="M8259 1080 L11492 1080" stroke-width="13"/><path d="M8259 1260 L11492 1260" stroke-width="13"/><g data-id="q1y3mepp" data-class="layer" class="layer"><g data-id="i7kde52" data-class="note" class="note"><g data-class="notehead" class="notehead"><use href="#E0A4-p1nfp3mx" transform="translate(8450, 990) scale(0.72, 0.72)"/></g><g data-id="xh8rh55" data-class="stem" class="stem"><path d="M8667 962 L8667 360" stroke-width="18"/></g><g data-id="j1s36i3t" data-class="accid" class="accid"/></g><g data-id="j1ovjwct" data-class="note" class="note"><g data-class="notehead" class="notehead"><use href="#E0A4-p1nfp3mx" transform="translate(9207, 990) scale(0.72, 0.72)"/></g><g data-id="ynf6o03" data-class="stem" class="stem"><path d="M9424 962 L9424 360" stroke-width="18"/></g><g data-id="a19k2asi" data-class="accid" class="accid"><use href="#E261-p1nfp3mx" transform="translate(9049, 990) scale(0.72, 0.72)"/></g></g><g data-id="k1a6zxvl" data-class="note" class="note"><g data-class="notehead" class="notehead"><use href="#E0A4-p1nfp3mx" transform="translate(9964, 900) scale(0.72, 0.72)"/></g><g data-id="zemrf7s" data-class="stem" class="stem"><path d="M9973 928 L9973 1500" stroke-width="18"/></g><g data-id="k1p5w7jz" data-class="accid" class="accid"/></g><g data-id="l9ce9cj" data-class="note" class="note"><g data-class="notehead" class="notehead"><use href="#E0A4-p1nfp3mx" transform="translate(10722, 630) scale(0.72, 0.72)"/></g><g data-id="aufs6v1" data-class="stem" class="stem"><path d="M10731 658 L10731 1260" stroke-width="18"/></g><g data-id="li4jk8f" data-class="accid" class="accid"/></g></g></g><g data-id="q6rzut2" data-class="barLine" class="barLine"><path d="M11479 540 L11479 1260" stroke-width="27"/></g></g><g data-id="r1u0nqna" data-class="measure" class="measure"><g data-id="r2e6h1c" data-class="staff" class="staff"><path d="M11492 540 L14001 540" stroke-width="13"/><path d="M11492 720 L14001 720" stroke-width="13"/><path d="M11492 900 L14001 900" stroke-width="13"/><path d="M11492 1080 L14001 1080" stroke-width="13"/><path d="M11492 1260 L14001 1260" stroke-width="13"/><g data-id="s6j5v3w" data-class="layer" class="layer"><g data-id="m1al096a" data-class="note" class="note"><g data-class="notehead" class="notehead"><use href="#E0A3-p1nfp3mx" transform="translate(11683, 720) scale(0.72, 0.72)"/></g><g data-id="b5tiaov" data-class="stem" class="stem"><path d="M11692 745 L11692 1350" stroke-width="18"/></g><g data-id="mpq0azy" data-class="accid" class="accid"/></g><g data-id="n1lfvguq" data-class="note" class="note"><g data-class="notehead" class="notehead"><use href="#E0A3-p1nfp3mx" transform="translate(12836, 810) scale(0.72, 0.72)"/></g><g data-id="cwshtwv" data-class="stem" class="stem"><path d="M12845 835 L12845 1440" stroke-width="18"/></g></g></g></g><g data-id="z1x1tjh4" data-class="barLine" class="barLine"><path d="M13988 540 L13988 1260" stroke-width="27"/></g></g></g></g></svg></svg>