<svg viewBox="0 0 560 84" version="1.1" xmlns="http://www.w3.org/2000/svg" xmlns:xlink="http://www.w3.org/1999/xlink" overflow="visible" id="er1ytm5"><desc>Engraved by Verovio 5.6.0-85e7620</desc><defs><g id="E062-er1ytm5"><path transform="scale(1,-1)" d="M582 -120c0 32 26 58 58 58s58 -26 58 -58s-26 -58 -58 -58s-58 26 -58 58zM582 120c0 32 26 58 58 58s58 -26 58 -58s-26 -58 -58 -58s-58 26 -58 58zM158 96c51 0 73 -14 88 -49l16 -39c0 -17 -2 -30 -7 -40c-3 -11 -10 -21 -19 -31c-17 -18 -49 -43 -84 -43 c-55 0 -77 13 -112 44c-24 21 -35 55 -35 100c0 46 14 81 32 112c30 52 71 79 137 93l36 6l26 2c154 0 235 -68 274 -182c11 -32 18 -68 18 -107c0 -103 -26 -182 -68 -250c-89 -145 -234 -230 -412 -288l-30 -5c-9 0 -14 3 -14 8c3 10 5 11 10 16c35 15 70 30 96 44l78 43 c96 57 162 136 197 258c9 33 17 60 22 100c3 22 5 35 6 39c-7 69 -16 115 -23 140s-4 22 -16 40c-8 12 -19 23 -31 34c-24 21 -62 44 -118 44c-48 0 -84 -8 -113 -28c-28 -19 -42 -44 -42 -73v-16c2 -5 3 -9 4 -11c24 22 52 39 84 39z"/></g><g id="E262-er1ytm5"><path transform="scale(1,-1)" d="M136 186v169h17v-164l44 14v-91l-44 -14v-165l44 12v-91l-44 -13v-155h-17v150l-76 -22v-155h-17v149l-43 -13v90l43 14v167l-43 -14v92l43 13v169h17v-163zM60 73v-167l76 22v168z"/></g><g id="E082-er1ytm5"><path transform="scale(1,-1)" d="M124 -185c-18 0 -55 -14 -65 -65h-36l-3 30c0 25 6 45 18 63c11 19 22 30 39 43l121 82l37 29c15 11 27 29 38 54c12 24 18 47 18 70c0 40 -19 88 -94 88c-25 0 -32 0 -50 -8c-14 -5 -23 -12 -26 -22c3 -9 7 -15 10 -18l24 -17c12 -7 17 -11 27 -21c5 -7 7 -16 7 -27 c0 -12 0 -57 -79 -74c-30 0 -76 26 -76 94c0 66 81 135 197 135c72 0 181 -32 181 -150c0 -53 -32 -95 -113 -133l-91 -41c-26 -11 -45 -23 -57 -37l49 7c84 0 115 -41 148 -41c20 0 33 20 39 61h35c0 -152 -68 -168 -114 -168c-17 0 -65 0 -79 7h10l-28 17 c-49 37 -69 40 -87 42z"/></g><g id="E084-er1ytm5"><path transform="scale(1,-1)" d="M20 -78c84 97 114 180 134 329h170c-13 -32 -82 -132 -99 -151l-84 -97c-33 -36 -59 -63 -80 -81h162v102l127 123v-225h57v-39h-57v-34c0 -43 19 -65 57 -65v-34h-244v36c48 0 60 26 60 70v27h-203v39z"/></g><g id="E4E7-er1ytm5"><path transform="scale(1,-1)" d="M133 -111c0 -33 -21 -50 -52 -55c10 -3 18 -4 25 -4c40 0 69 24 90 47l66 197c-36 -18 -64 -25 -112 -25c-23 0 -38 3 -45 8c-37 7 -55 27 -55 59c8 35 30 54 68 58c45 -6 49 -13 64 -48c0 -3 1 -5 1 -7c0 -27 -25 -46 -52 -49c6 -4 15 -6 26 -6c32 2 62 14 88 29 c32 19 44 36 59 71l7 1l10 2h4c-72 -220 -143 -439 -215 -659h-37l108 324c-20 -13 -51 -20 -82 -20c-21 0 -35 4 -43 10c-37 6 -55 26 -55 58c8 35 31 56 68 60c43 -8 48 -13 64 -51z"/></g><g id="E0A4-er1ytm5"><path transform="scale(1,-1)" d="M0 -39c0 68 73 172 200 172c66 0 114 -37 114 -95c0 -84 -106 -171 -218 -171c-64 0 -96 30 -96 94z"/></g><g id="E07A-er1ytm5"><path transform="scale(1,-1)" d="M343 -190c-18 -3 -37 -5 -59 -5c-46 0 -79 6 -101 16c-68 33 -117 72 -146 119c-20 34 -33 80 -37 137c0 5 -1 10 -1 15c0 42 12 86 35 132c23 44 51 82 86 115s75 65 119 98c-2 12 -7 36 -11 72c-3 33 -3 57 -3 69c0 91 12 134 53 200c26 42 50 63 69 63 c16 0 34 -23 54 -71s30 -90 32 -124v-11c0 -85 -16 -126 -52 -187c-10 -16 -49 -70 -76 -92c-10 -7 -20 -15 -29 -23l24 -140c6 1 14 1 22 1c45 0 79 -9 103 -27c46 -33 71 -81 76 -143c1 -5 1 -12 1 -17c0 -96 -68 -163 -141 -193c6 -44 14 -86 20 -126c4 -24 4 -45 4 -62 c0 -23 -3 -41 -10 -54c-27 -50 -69 -77 -123 -80c-4 0 -9 -1 -13 -1c-29 0 -56 8 -84 21c-39 19 -60 46 -62 82v8c0 23 6 43 16 59c14 22 35 32 61 34h5c38 0 72 -32 75 -67v-7c0 -40 -26 -67 -81 -83c13 -19 39 -28 79 -28c48 0 90 34 109 67c7 12 10 31 10 57 c0 16 -1 33 -4 52c-6 41 -14 83 -20 124zM358 730c-74 0 -105 -137 -105 -223c0 -19 2 -37 4 -55c39 30 72 64 99 100c31 41 46 77 46 108v7c-3 41 -16 63 -42 63h-2zM315 92l42 -253c57 19 86 61 86 125c0 5 0 12 -1 18c-5 74 -44 110 -117 110h-10zM297 91 c-56 -2 -100 -36 -100 -93v-6c2 -36 34 -77 59 -89c-2 -2 -6 -4 -8 -8c-54 26 -91 69 -96 134v8c0 53 35 98 69 124c18 13 37 23 60 28l-22 132c-16 -10 -41 -29 -72 -57c-39 -34 -66 -65 -84 -92c-35 -54 -52 -102 -52 -142v-10c4 -53 27 -99 72 -137s96 -56 157 -56 c19 0 40 2 59 7c-15 86 -28 172 -42 257z"/></g><g id="E07C-er1ytm5"><path transform="scale(1,-1)" d="M509 -105c0 28 22 51 50 51s51 -23 51 -51s-23 -51 -51 -51s-50 23 -50 51zM509 105c0 28 22 51 50 51s51 -23 51 -51s-23 -51 -51 -51s-50 23 -50 51zM138 84c43 0 63 -11 77 -43l14 -34c0 -16 -2 -27 -6 -35c-2 -9 -8 -17 -17 -27c-22 -24 -49 -38 -73 -38 c-43 0 -63 8 -98 39c-20 18 -31 47 -31 87c0 34 9 65 28 98c26 45 62 69 120 81l32 6l22 1c125 0 203 -51 240 -159c10 -30 15 -61 15 -93c0 -83 -19 -154 -59 -219c-70 -115 -185 -194 -360 -251l-26 -5c-8 0 -13 3 -13 7c2 7 3 8 9 14c47 20 66 30 84 39l68 37 c89 53 143 125 172 226c13 48 17 60 20 87c3 19 4 31 5 34c-5 51 -12 95 -20 123c-8 30 -5 22 -14 35c-6 9 -14 17 -27 29c-29 26 -64 39 -103 39c-44 0 -75 -8 -99 -25c-24 -16 -37 -38 -37 -64v-14c2 -4 3 -7 4 -9c25 23 49 34 73 34z"/></g></defs><style type="text/css">#er1ytm5 g.page-margin {font-family:Times,serif;}#er1ytm5 g.ending, #er1ytm5 g.fing, #er1ytm5 g.reh, #er1ytm5 g.tempo {font-weight:bold;}#er1ytm5 g.dir, #er1ytm5 g.dynam, #er1ytm5 g.mNum {font-style:italic;}#er1ytm5 g.label {font-weight:normal;}#er1ytm5 path {stroke:currentColor}</style><svg class="definition-scale" color="black" viewBox="0 0 14000 2100"><g class="page-margin" transform="translate(0, 150)"><g data-id="t9fb5rb" data-class="mdiv" class="mdiv pageMilestone"/><g data-id="u15sar49" data-class="score" class="score pageMilestone"/><g data-id="a149nugm" data-class="system" class="system"><g data-id="w1gy4k6r" data-class="section" class="section systemMilestone"/><g data-id="fat0pau" data-class="measure" class="measure"><g data-id="ixyd1xc" data-class="staff" class="staff"><path d="M0 540 L4648 540" stroke-width="13"/><path d="M0 720 L4648 720" stroke-width="13"/><path d="M0 900 L4648 900" stroke-width="13"/><path d="M0 1080 L4648 1080" stroke-width="13"/><path d="M0 1260 L4648 1260" stroke-width="13"/><g data-id="bqvzo0a" data-class="clef" class="clef"><use href="#E062-er1ytm5" transform="translate(88, 720) scale(0.72, 0.72)"/></g><g data-id="c1h6pf97" data-class="keySig" class="keySig"><g data-id="d1i32z2j" data-class="keyAccid" class="keyAccid"><use href="#E262-er1ytm5" transform="translate(769, 720) scale(0.72, 0.72)"/></g><g data-id="e1mmabh9" data-class="keyAccid" class="keyAccid"><use href="#E262-er1ytm5" transform="translate(947, 990) scale(0.72, 0.72)"/></g><g data-id="f1bycder" data-class="keyAccid" class="keyAccid"><use href="#E262-er1ytm5" transform="translate(1125, 630) scale(0.72, 0.72)"/></g></g><g data-id="g9jx19a" data-class="meterSig" class="meterSig"><use href="#E082-er1ytm5" transform="translate(1432, 720) scale(0.72, 0.72)"/><use href="#E084-er1ytm5" transform="translate(1437, 1080) scale(0.72, 0.72)"/></g><g data-class="ledgerLines" class="ledgerLines above"><g data-class="lineDash" class="lineDash" data-related="#fjvij9"><path d="M2596 360 L2918 360" stroke-width="22"/></g><g data-class="lineDash" class="lineDash" data-related="#fjvij9"><path d="M2596 180 L2918 180" stroke-width="22"/></g></g><g data-id="j13ncnp4" data-class="layer" class="layer"><g data-id="a1nvgd5h" data-class="rest" class="rest"><use href="#E4E7-er1ytm5" transform="translate(2005, 900) scale(0.72, 0.72)"/></g><g data-id="mvq6yta" data-class="beam" class="beam"><polygon stroke-opacity="1" fill-opacity="1" points="2328,1485 2662,1440 2662,1350 2328,1395"/><polygon stroke-opacity="1" fill-opacity="1" points="2328,1350 2554,1317 2554,1227 2328,1260"/><g data-id="e1mporid" data-class="note" class="note"><g data-class="notehead" class="notehead"><use href="#E0A4-er1ytm5" transform="translate(2328, 810) scale(0.72, 0.72)"/></g><g data-id="z1r2zbvd" data-class="stem" class="stem"><path d="M2337 838 L2337 1467" stroke-width="18"/></g></g><g data-id="fjvij9" data-class="note" class="note"><g data-class="notehead" class="notehead"><use href="#E0A4-er1ytm5" transform="translate(2644, 180) scale(0.72, 0.72)"/></g><g data-id="a1cklqaq" data-class="stem" class="stem"><path d="M2653 208 L2653 1422" stroke-width="18"/></g></g></g><g data-id="b1poyzli" data-class="rest" class="rest"><use href="#E4E7-er1ytm5" transform="translate(3094, 900) scale(0.72, 0.72)"/></g><g data-id="ntw3py4" data-class="beam" class="beam"><polygon stroke-opacity="1" fill-opacity="1" points="3417,1485 4203,1665 4203,1575 3417,1395"/><polygon stroke-opacity="1" fill-opacity="1" points="3417,1350 3643,1402 3643,1312 3417,1260"/><g data-id="g12xwtw" data-class="note" class="note"><g data-class="notehead" class="notehead"><use href="#E0A4-er1ytm5" transform="translate(3417, 540) scale(0.72, 0.72)"/></g><g data-id="byejl6o" data-class="stem" class="stem"><path d="M3426 568 L3426 1467" stroke-width="18"/></g></g><g data-id="o1tbof9m" data-class="clef" class="clef"><use href="#E07A-er1ytm5" transform="translate(3733, 1080) scale(0.72, 0.72)"/></g><g data-id="h1y715go" data-class="note" class="note"><g data-class="notehead" class="notehead"><use href="#E0A4-er1ytm5" transform="translate(4185, 990) scale(0.72, 0.72)"/></g><g data-id="c1ybpn78" data-class="stem" class="stem"><path d="M4194 1018 L4194 1647" stroke-width="18"/></g></g></g></g></g><g data-id="n1eccn23" data-class="barLine" class="barLine"><path d="M4635 540 L4635 1260" stroke-width="27"/></g></g><g data-id="r1q9nz9o" data-class="measure" class="measure"><g data-id="kg51an5" data-class="staff" class="staff"><path d="M4648 540 L7975 540" stroke-width="13"/><path d="M4648 720 L7975 720" stroke-width="13"/><path d="M4648 900 L7975 900" stroke-width="13"/><path d="M4648 1080 L7975 1080" stroke-width="13"/><path d="M4648 1260 L7975 1260" stroke-width="13"/><g data-class="ledgerLines" class="ledgerLines below"><g data-class="lineDash" class="lineDash" data-related="#kmoj0se"><path d="M7148 1440 L7470 1440" stroke-width="22"/></g></g><g data-id="l5wde92" data-class="layer" class="layer"><g data-id="ck3b3oi" data-class="rest" class="rest"><use href="#E4E7-er1ytm5" transform="translate(4828, 900) scale(0.72, 0.72)"/></g><g data-id="p11f55nv" data-class="clef" class="clef"><use href="#E07C-er1ytm5" transform="translate(5149, 720) scale(0.72, 0.72)"/></g><g data-id="o12yzgvj" data-class="beam" class="beam"><polygon stroke-opacity="1" fill-opacity="1" points="5886,90 6672,270 6672,360 5886,180"/><polygon stroke-opacity="1" fill-opacity="1" points="5886,225 6112,278 6112,368 5886,315"/><g data-id="iohq3o8" data-class="note" class="note"><g data-class="notehead" class="notehead"><use href="#E0A4-er1ytm5" transform="translate(5678, 720) scale(0.72, 0.72)"/></g><g data-id="d1o1b1og" data-class="stem" class="stem"><path d="M5895 692 L5895 108" stroke-width="18"/></g><g data-id="qgrxvdk" data-class="accid" class="accid"/></g><g data-id="q2jvme3" data-class="clef" class="clef"><use href="#E07A-er1ytm5" transform="translate(5994, 1080) scale(0.72, 0.72)"/></g><g data-id="j1t4nl1x" data-class="note" class="note"><g data-class="notehead" class="notehead"><use href="#E0A4-er1ytm5" transform="translate(6446, 1170) scale(0.72, 0.72)"/></g><g data-id="e4ynnap" data-class="stem" class="stem"><path d="M6663 1142 L6663 288" stroke-width="18"/></g><g data-id="r13usk1u" data-class="accid" class="accid"/></g></g><g data-id="dsn7igl" data-class="rest" class="rest"><use href="#E4E7-er1ytm5" transform="translate(6896, 900) scale(0.72, 0.72)"/></g><g data-id="pffy5dc" data-class="beam" class="beam"><polygon stroke-opacity="1" fill-opacity="1" points="7404,360 7738,315 7738,405 7404,450"/><polygon stroke-opacity="1" fill-opacity="1" points="7404,495 7630,463 7630,553 7404,585"/><g data-id="kmoj0se" data-class="note" class="note"><g data-class="notehead" class="notehead"><use href="#E0A4-er1ytm5" transform="translate(7196, 1530) scale(0.72, 0.72)"/></g><g data-id="f1w5v4bw" data-class="stem" class="stem"><path d="M7413 1502 L7413 378" stroke-width="18"/></g></g><g data-id="luprdvv" data-class="note" class="note"><g data-class="notehead" class="notehead"><use href="#E0A4-er1ytm5" transform="translate(7512, 900) scale(0.72, 0.72)"/></g><g data-id="gpgb9zy" data-class="stem" class="stem"><path d="M7729 872 L7729 333" stroke-width="18"/></g></g></g></g></g><g data-id="z88grjo" data-class="barLine" class="barLine"><path d="M7962 540 L7962 1260" stroke-width="27"/></g></g><g data-id="t1y9gj9k" data-class="systemMilestoneEnd" class="systemMilestoneEnd w1gy4k6r"/></g><g data-id="u11697gt" data-class="pageMilestoneEnd" class="pageMilestoneEnd u15sar49"/><g data-id="v1iww6kd" data-class="pageMilestoneEnd" class="pageMilestoneEnd t9fb5rb"/></g></svg></svg>