<svg viewBox="0 0 560 84" version="1.1" xmlns="http://www.w3.org/2000/svg" xmlns:xlink="http://www.w3.org/1999/xlink" overflow="visible" id="g177ero8"><desc>Engraved by Verovio 5.6.0-85e7620</desc><defs><g id="E050-g177ero8"><path transform="scale(1,-1)" d="M441 -245c-23 -4 -48 -6 -76 -6c-59 0 -102 7 -130 20c-88 42 -150 93 -187 154c-26 44 -43 103 -48 176c0 6 -1 13 -1 19c0 54 15 111 45 170c29 57 65 106 110 148s96 85 153 127c-3 16 -8 46 -13 92c-4 43 -5 73 -5 89c0 117 16 172 69 257c34 54 64 82 89 82 c21 0 43 -30 69 -92s39 -115 41 -159v-15c0 -109 -21 -162 -67 -241c-13 -20 -63 -90 -98 -118c-13 -9 -25 -19 -37 -29l31 -181c8 1 18 2 28 2c58 0 102 -12 133 -35c59 -43 92 -104 98 -184c1 -7 1 -15 1 -22c0 -123 -87 -209 -181 -248c8 -57 17 -110 25 -162 c5 -31 6 -58 6 -80c0 -30 -5 -53 -14 -70c-35 -64 -88 -99 -158 -103c-5 0 -11 -1 -16 -1c-37 0 -72 10 -108 27c-50 24 -77 59 -80 105v11c0 29 7 55 20 76c18 28 45 42 79 44h6c49 0 93 -42 97 -87v-9c0 -51 -34 -86 -105 -106c17 -24 51 -36 102 -36c62 0 116 43 140 85 c9 16 13 41 13 74c0 20 -1 42 -5 67c-8 53 -18 106 -26 159zM461 939c-95 0 -135 -175 -135 -286c0 -24 2 -48 5 -71c50 39 92 82 127 128c40 53 60 100 60 140v8c-4 53 -22 81 -55 81h-2zM406 119l54 -326c73 25 110 78 110 161c0 7 0 15 -1 23c-7 95 -57 142 -151 142h-12 zM382 117c-72 -2 -128 -47 -128 -120v-7c2 -46 43 -99 75 -115c-3 -2 -7 -5 -10 -10c-70 33 -116 88 -123 172v11c0 68 44 126 88 159c23 17 49 29 78 36l-29 170c-21 -13 -52 -37 -92 -73c-50 -44 -86 -84 -109 -119c-45 -69 -67 -130 -67 -182v-13c5 -68 35 -127 93 -176 s125 -73 203 -73c25 0 50 3 75 9c-19 111 -36 221 -54 331z"/></g><g id="E260-g177ero8"><path transform="scale(1,-1)" d="M20 110c32 16 54 27 93 27c26 0 35 -3 54 -13c13 -7 24 -20 27 -38l4 -25c0 -28 -16 -57 -45 -89c-23 -25 -39 -44 -65 -68l-88 -79v644h20v-359zM90 106c-32 0 -48 -10 -70 -29v-194c31 31 54 59 71 84c21 32 32 59 32 84c0 9 1 16 1 20c0 14 -3 21 -11 30l-8 3z"/></g><g id="E083-g177ero8"><path transform="scale(1,-1)" d="M208 250c97 0 177 -52 177 -116c0 -69 -40 -111 -118 -125c56 -5 125 -44 125 -116c0 -31 -10 -57 -31 -78c-19 -21 -45 -38 -78 -49l-50 -11c-15 -3 -36 -7 -55 -7c-50 0 -86 16 -113 38c-16 10 -23 18 -34 34c-7 13 -11 25 -11 38c0 43 27 83 68 83l3 -2 c61 0 75 -42 75 -70c0 -19 -24 -42 -26 -57c7 -17 20 -25 37 -25c44 0 94 29 94 78c0 75 -34 125 -138 125v36c84 0 131 22 131 98c0 54 -37 88 -87 88c-26 0 -43 -7 -51 -22c15 -22 44 -16 44 -70c0 -37 -37 -62 -71 -62c-22 0 -69 15 -69 76c0 79 101 116 178 116z"/></g><g id="E088-g177ero8"><path transform="scale(1,-1)" d="M195 -214c76 0 88 58 90 68c0 34 -35 60 -57 73l-52 29c-21 10 -32 17 -34 20c-39 -33 -58 -54 -62 -92c5 -23 23 -98 115 -98zM301 135c0 61 -72 76 -113 76c-40 0 -77 -17 -77 -51c3 -21 15 -38 26 -50c17 -15 33 -26 48 -34l65 -28c34 27 51 56 51 87zM176 -250 c-57 0 -166 26 -166 132c0 47 30 86 89 116c-33 15 -79 60 -79 119c0 79 85 132 178 132h18c5 0 21 1 28 -1c25 0 126 -30 126 -110c0 -37 -23 -76 -69 -116c43 -25 83 -71 83 -119c0 -101 -118 -153 -208 -153z"/></g><g id="E0A4-g177ero8"><path transform="scale(1,-1)" d="M0 -39c0 68 73 172 200 172c66 0 114 -37 114 -95c0 -84 -106 -171 -218 -171c-64 0 -96 30 -96 94z"/></g><g id="E261-g177ero8"><path transform="scale(1,-1)" d="M0 -188v539h18v-191l139 22v-533h-17v186zM18 -100l122 17v176l-122 -19v-174z"/></g><g id="E240-g177ero8"><path transform="scale(1,-1)" d="M179 -646c15 29 29 55 46 102c18 49 30 108 30 138c0 105 -80 173 -168 200c-18 5 -47 9 -87 16v190h22c8 0 33 -61 71 -95c4 -3 -2 3 61 -56c62 -58 122 -137 122 -241c0 -38 -13 -106 -35 -163c-20 -51 -43 -99 -66 -132c-6 -5 -10 -7 -13 -7s-5 2 -5 5l4 10 c1 3 14 25 18 33z"/></g></defs><style type="text/css">#g177ero8 g.page-margin {font-family:Times,serif;}#g177ero8 g.ending, #g177ero8 g.fing, #g177ero8 g.reh, #g177ero8 g.tempo {font-weight:bold;}#g177ero8 g.dir, #g177ero8 g.dynam, #g177ero8 g.mNum {font-style:italic;}#g177ero8 g.label {font-weight:normal;}#g177ero8 path {stroke:currentColor}</style><svg class="definition-scale" color="black" viewBox="0 0 14000 2100"><g class="page-margin" transform="translate(0, 150)"><g data-id="n1kf8d7g" data-class="mdiv" class="mdiv pageMilestone"/><g data-id="o1fnsb2p" data-class="score" class="score pageMilestone"/><g data-id="c1lqkkey" data-class="system" class="system"><g data-id="q1es0lx" data-class="section" class="section systemMilestone"/><g data-id="homgky7" data-class="measure" class="measure"><g data-id="c4nljp7" data-class="staff" class="staff"><path d="M0 540 L3501 540" stroke-width="13"/><path d="M0 720 L3501 720" stroke-width="13"/><path d="M0 900 L3501 900" stroke-width="13"/><path d="M0 1080 L3501 1080" stroke-width="13"/><path d="M0 1260 L3501 1260" stroke-width="13"/><g data-id="g10odk9l" data-class="clef" class="clef"><use href="#E050-g177ero8" transform="translate(90, 1080) scale(0.72, 0.72)"/></g><g data-id="h87uvjk" data-class="keySig" class="keySig"><g data-id="i5naaps" data-class="keyAccid" class="keyAccid"><use href="#E260-g177ero8" transform="translate(735, 900) scale(0.72, 0.72)"/></g><g data-id="j187flzs" data-class="keyAccid" class="keyAccid"><use href="#E260-g177ero8" transform="translate(915, 630) scale(0.72, 0.72)"/></g><g data-id="kxfmeg7" data-class="keyAccid" class="keyAccid"><use href="#E260-g177ero8" transform="translate(1095, 990) scale(0.72, 0.72)"/></g><g data-id="lnceute" data-class="keyAccid" class="keyAccid"><use href="#E260-g177ero8" transform="translate(1275, 720) scale(0.72, 0.72)"/></g></g><g data-id="m11ozqyl" data-class="meterSig" class="meterSig"><use href="#E083-g177ero8" transform="translate(1587, 720) scale(0.72, 0.72)"/><use href="#E088-g177ero8" transform="translate(1590, 1080) scale(0.72, 0.72)"/></g><g data-class="ledgerLines" class="ledgerLines below"><g data-class="lineDash" class="lineDash" data-related="#ri14o9x"><path d="M2090 1440 L2412 1440" stroke-width="22"/></g><g data-class="lineDash" class="lineDash" data-related="#s1bv5i0j"><path d="M2540 1440 L2862 1440" stroke-width="22"/></g><g data-class="lineDash" class="lineDash" data-related="#ri14o9x"><path d="M2090 1620 L2412 1620" stroke-width="22"/></g></g><g data-id="dc836sq" data-class="layer" class="layer"><g data-id="e1yqwnu3" data-class="beam" class="beam"><polygon stroke-opacity="1" fill-opacity="1" points="2346,720 3264,540 3264,630 2346,810"/><g data-id="ri14o9x" data-class="note" class="note"><g data-class="notehead" class="notehead"><use href="#E0A4-g177ero8" transform="translate(2138, 1620) scale(0.72, 0.72)"/></g><g data-id="ysf53qd" data-class="stem" class="stem"><path d="M2355 1592 L2355 738" stroke-width="18"/></g><g data-id="g1qoae1d" data-class="accid" class="accid"/></g><g data-id="s1bv5i0j" data-class="note" class="note"><g data-class="notehead" class="notehead"><use href="#E0A4-g177ero8" transform="translate(2588, 1440) scale(0.72, 0.72)"/></g><g data-id="z1t9ohef" data-class="stem" class="stem"><path d="M2805 1412 L2805 648" stroke-width="18"/></g></g><g data-id="tuakeop" data-class="note" class="note"><g data-class="notehead" class="notehead"><use href="#E0A4-g177ero8" transform="translate(3038, 1170) scale(0.72, 0.72)"/></g><g data-id="a1dlr8f1" data-class="stem" class="stem"><path d="M3255 1142 L3255 558" stroke-width="18"/></g></g></g></g></g><g data-id="p1183q5e" data-class="barLine" class="barLine"><path d="M3488 540 L3488 1260" stroke-width="27"/></g></g><g data-id="q1019i23" data-class="measure" class="measure"><g data-id="e9x6w29" data-class="staff" class="staff"><path d="M3501 540 L5052 540" stroke-width="13"/><path d="M3501 720 L5052 720" stroke-width="13"/><path d="M3501 900 L5052 900" stroke-width="13"/><path d="M3501 1080 L5052 1080" stroke-width="13"/><path d="M3501 1260 L5052 1260" stroke-width="13"/><g data-id="f77xwu2" data-class="layer" class="layer"><g data-id="u1l8ibeo" data-class="note" class="note"><g data-class="notehead" class="notehead"><use href="#E0A4-g177ero8" transform="translate(3839, 1350) scale(0.72, 0.72)"/></g><g data-id="b1xwfzs4" data-class="stem" class="stem"><path d="M4056 1322 L4056 720" stroke-width="18"/></g><g data-id="d1ud29oz" data-class="accid" class="accid"><use href="#E261-g177ero8" transform="translate(3681, 1350) scale(0.72, 0.72)"/></g></g><g data-id="vh19ki2" data-class="note" class="note"><g data-class="notehead" class="notehead"><use href="#E0A4-g177ero8" transform="translate(4529, 1260) scale(0.72, 0.72)"/></g><g data-id="c9k2jbw" data-class="stem" class="stem"><path d="M4746 1232 L4746 630" stroke-width="18"/><g data-id="d1z02ykk" data-class="flag" class="flag"><use href="#E240-g177ero8" transform="translate(4737, 630) scale(0.72, 0.72)"/></g></g><g data-id="hor3js6" data-class="accid" class="accid"/></g></g></g><g data-id="y30li1e" data-class="barLine" class="barLine"><path d="M5039 540 L5039 1260" stroke-width="27"/></g></g><g data-id="zizhhvb" data-class="measure" class="measure"><g data-id="g1qk8lq1" data-class="staff" class="staff"><path d="M5052 540 L6973 540" stroke-width="13"/><path d="M5052 720 L6973 720" stroke-width="13"/><path d="M5052 900 L6973 900" stroke-width="13"/><path d="M5052 1080 L6973 1080" stroke-width="13"/><path d="M5052 1260 L6973 1260" stroke-width="13"/><g data-id="h1tnk67y" data-class="layer" class="layer"><g data-id="f1ho44gi" data-class="beam" class="beam"><polygon stroke-opacity="1" fill-opacity="1" points="5440,315 6856,315 6856,405 5440,405"/><polygon stroke-opacity="1" fill-opacity="1" points="5899,450 6215,450 6215,540 5899,540"/><polygon stroke-opacity="1" fill-opacity="1" points="6215,450 6531,450 6531,540 6215,540"/><polygon stroke-opacity="1" fill-opacity="1" points="6531,450 6856,450 6856,540 6531,540"/><g data-id="w1wpb7gk" data-class="note" class="note"><g data-class="notehead" class="notehead"><use href="#E0A4-g177ero8" transform="translate(5232, 990) scale(0.72, 0.72)"/></g><g data-id="ehxi9o6" data-class="stem" class="stem"><path d="M5449 962 L5449 333" stroke-width="18"/></g><g data-id="iyp5601" data-class="accid" class="accid"/></g><g data-id="x1dnzvvk" data-class="note" class="note"><g data-class="notehead" class="notehead"><use href="#E0A4-g177ero8" transform="translate(5682, 1080) scale(0.72, 0.72)"/></g><g data-id="f129gmtc" data-class="stem" class="stem"><path d="M5899 1052 L5899 333" stroke-width="18"/></g></g><g data-id="y1787cfx" data-class="note" class="note"><g data-class="notehead" class="notehead"><use href="#E0A4-g177ero8" transform="translate(5998, 990) scale(0.72, 0.72)"/></g><g data-id="gtgzbon" data-class="stem" class="stem"><path d="M6215 962 L6215 333" stroke-width="18"/></g><g data-id="j28frz5" data-class="accid" class="accid"/></g><g data-id="z1ed5904" data-class="note" class="note"><g data-class="notehead" class="notehead"><use href="#E0A4-g177ero8" transform="translate(6314, 900) scale(0.72, 0.72)"/></g><g data-id="h1295nqw" data-class="stem" class="stem"><path d="M6531 872 L6531 333" stroke-width="18"/></g><g data-id="k6ri56i" data-class="accid" class="accid"/></g><g data-id="ay4nzrn" data-class="note" class="note"><g data-class="notehead" class="notehead"><use href="#E0A4-g177ero8" transform="translate(6630, 1170) scale(0.72, 0.72)"/></g><g data-id="i98isx6" data-class="stem" class="stem"><path d="M6847 1142 L6847 333" stroke-width="18"/></g></g></g></g></g><g data-id="h1f67zz0" data-class="barLine" class="barLine"><path d="M6960 540 L6960 1260" stroke-width="27"/></g></g><g data-id="ic4t6ji" data-class="measure" class="measure"><g data-id="ifn1wan" data-class="staff" class="staff"><path d="M6973 540 L8366 540" stroke-width="13"/><path d="M6973 720 L8366 720" stroke-width="13"/><path d="M6973 900 L8366 900" stroke-width="13"/><path d="M6973 1080 L8366 1080" stroke-width="13"/><path d="M6973 1260 L8366 1260" stroke-width="13"/><g data-id="jdpq28f" data-class="layer" class="layer"><g data-id="b9ug9ra" data-class="note" class="note"><g data-class="notehead" class="notehead"><use href="#E0A4-g177ero8" transform="translate(7153, 990) scale(0.72, 0.72)"/></g><g data-id="jl2khzt" data-class="stem" class="stem"><path d="M7370 962 L7370 360" stroke-width="18"/></g><g data-id="l3pda7v" data-class="accid" class="accid"/></g><g data-id="c1ma4ddt" data-class="note" class="note"><g data-class="notehead" class="notehead"><use href="#E0A4-g177ero8" transform="translate(7843, 1080) scale(0.72, 0.72)"/></g><g data-id="k1okqugt" data-class="stem" class="stem"><path d="M8060 1052 L8060 450" stroke-width="18"/><g data-id="lhldtcw" data-class="flag" class="flag"><use href="#E240-g177ero8" transform="translate(8051, 450) scale(0.72, 0.72)"/></g></g></g></g></g><g data-id="q1d4zxbc" data-class="barLine" class="barLine"><path d="M8353 540 L8353 1260" stroke-width="27"/></g></g><g data-id="rvtk48a" data-class="systemMilestoneEnd" class="systemMilestoneEnd q1es0lx"/></g><g data-id="s1rpkthr" data-class="pageMilestoneEnd" class="pageMilestoneEnd o1fnsb2p"/><g data-id="tnypef8" data-class="pageMilestoneEnd" class="pageMilestoneEnd n1kf8d7g"/></g></svg></svg>