<svg viewBox="0 0 560 86" version="1.1" xmlns="http://www.w3.org/2000/svg" xmlns:xlink="http://www.w3.org/1999/xlink" overflow="visible" id="p151zt3p"><desc>Engraved by Verovio 5.6.0-85e7620</desc><defs><g id="E050-p151zt3p"><path transform="scale(1,-1)" d="M441 -245c-23 -4 -48 -6 -76 -6c-59 0 -102 7 -130 20c-88 42 -150 93 -187 154c-26 44 -43 103 -48 176c0 6 -1 13 -1 19c0 54 15 111 45 170c29 57 65 106 110 148s96 85 153 127c-3 16 -8 46 -13 92c-4 43 -5 73 -5 89c0 117 16 172 69 257c34 54 64 82 89 82 c21 0 43 -30 69 -92s39 -115 41 -159v-15c0 -109 -21 -162 -67 -241c-13 -20 -63 -90 -98 -118c-13 -9 -25 -19 -37 -29l31 -181c8 1 18 2 28 2c58 0 102 -12 133 -35c59 -43 92 -104 98 -184c1 -7 1 -15 1 -22c0 -123 -87 -209 -181 -248c8 -57 17 -110 25 -162 c5 -31 6 -58 6 -80c0 -30 -5 -53 -14 -70c-35 -64 -88 -99 -158 -103c-5 0 -11 -1 -16 -1c-37 0 -72 10 -108 27c-50 24 -77 59 -80 105v11c0 29 7 55 20 76c18 28 45 42 79 44h6c49 0 93 -42 97 -87v-9c0 -51 -34 -86 -105 -106c17 -24 51 -36 102 -36c62 0 116 43 140 85 c9 16 13 41 13 74c0 20 -1 42 -5 67c-8 53 -18 106 -26 159zM461 939c-95 0 -135 -175 -135 -286c0 -24 2 -48 5 -71c50 39 92 82 127 128c40 53 60 100 60 140v8c-4 53 -22 81 -55 81h-2zM406 119l54 -326c73 25 110 78 110 161c0 7 0 15 -1 23c-7 95 -57 142 -151 142h-12 zM382 117c-72 -2 -128 -47 -128 -120v-7c2 -46 43 -99 75 -115c-3 -2 -7 -5 -10 -10c-70 33 -116 88 -123 172v11c0 68 44 126 88 159c23 17 49 29 78 36l-29 170c-21 -13 -52 -37 -92 -73c-50 -44 -86 -84 -109 -119c-45 -69 -67 -130 -67 -182v-13c5 -68 35 -127 93 -176 s125 -73 203 -73c25 0 50 3 75 9c-19 111 -36 221 -54 331z"/></g><g id="E262-p151zt3p"><path transform="scale(1,-1)" d="M136 186v169h17v-164l44 14v-91l-44 -14v-165l44 12v-91l-44 -13v-155h-17v150l-76 -22v-155h-17v149l-43 -13v90l43 14v167l-43 -14v92l43 13v169h17v-163zM60 73v-167l76 22v168z"/></g><g id="E08A-p151zt3p"><path transform="scale(1,-1)" d="M340 179c-9 24 -56 41 -89 41c-46 0 -81 -28 -100 -58c-17 -28 -25 -78 -25 -150c0 -65 2 -111 8 -135c8 -31 18 -49 40 -67c20 -17 43 -25 70 -25c54 0 92 36 115 75c14 25 23 54 28 88h27c0 -63 -24 -105 -58 -141c-35 -38 -82 -56 -140 -56c-45 0 -83 13 -115 39 c-57 45 -101 130 -101 226c0 59 33 127 68 163c36 37 97 72 160 72c36 0 93 -21 121 -40c11 -8 23 -17 33 -30c19 -23 27 -48 27 -76c0 -51 -35 -88 -86 -88c-43 0 -76 27 -76 68c0 26 7 35 21 51c15 17 32 27 58 32c7 2 14 7 14 11z"/></g><g id="E0A4-p151zt3p"><path transform="scale(1,-1)" d="M0 -39c0 68 73 172 200 172c66 0 114 -37 114 -95c0 -84 -106 -171 -218 -171c-64 0 -96 30 -96 94z"/></g><g id="E240-p151zt3p"><path transform="scale(1,-1)" d="M179 -646c15 29 29 55 46 102c18 49 30 108 30 138c0 105 -80 173 -168 200c-18 5 -47 9 -87 16v190h22c8 0 33 -61 71 -95c4 -3 -2 3 61 -56c62 -58 122 -137 122 -241c0 -38 -13 -106 -35 -163c-20 -51 -43 -99 -66 -132c-6 -5 -10 -7 -13 -7s-5 2 -5 5l4 10 c1 3 14 25 18 33z"/></g><g id="E244-p151zt3p"><path transform="scale(1,-1)" d="M248 -463c4 18 7 38 7 57c0 105 -80 173 -168 200c-11 3 -27 6 -47 9c9 -17 23 -61 53 -88c4 -3 -2 3 61 -56c36 -33 71 -74 94 -122zM206 -748c32 48 49 100 49 149c0 89 -55 168 -168 203c-18 5 -47 9 -87 16v190v190v190h22c8 0 33 -61 71 -95c4 -3 -2 3 61 -56 c61 -57 122 -134 122 -235v-6c-1 -59 -10 -80 -19 -91c12 -30 19 -63 19 -99c0 -32 -7 -65 -17 -96c11 -29 17 -60 17 -94c0 -71 -32 -148 -67 -190c-6 -5 -10 -7 -13 -7s-5 2 -5 5l4 10c1 3 6 8 11 16zM247 -270c4 11 8 28 8 54c0 105 -80 173 -168 200c-11 3 -27 6 -47 9 c9 -17 23 -61 53 -88c4 -3 -2 3 61 -56c35 -33 70 -72 93 -119z"/></g><g id="E0A3-p151zt3p"><path transform="scale(1,-1)" d="M278 64c0 22 -17 39 -43 39c-12 0 -26 -3 -41 -10c-85 -43 -165 -94 -165 -156c5 -25 15 -32 49 -32c67 11 200 95 200 159zM0 -36c0 68 73 174 200 174c66 0 114 -39 114 -97c0 -84 -106 -173 -218 -173c-64 0 -96 32 -96 96z"/></g><g id="E566-p151zt3p"><path transform="scale(1,-1)" d="M162 167l-36 -115l-1 -10c0 -10 5 -16 16 -19c32 18 48 43 48 75c0 20 -9 43 -27 69zM432 225c0 -21 -11 -36 -31 -37c-15 0 -20 10 -23 25l3 14l2 11l1 9l-4 4c-1 -1 -2 -1 -3 -1c-23 -13 -36 -24 -47 -48l-12 -27c-18 -50 -31 -105 -47 -157h-60l58 214c0 7 -3 5 -5 9 c-7 0 -25 -8 -51 -28l-37 -28c20 -34 31 -67 31 -97c0 -12 -1 -21 -4 -28l-6 -15c-1 -3 -5 -10 -12 -19c-14 -18 -30 -26 -49 -26c-30 0 -67 18 -67 52c1 1 1 6 3 15l20 84c-9 -5 -21 -8 -36 -8c-21 0 -29 7 -40 19c-10 12 -16 27 -16 47c0 23 6 33 17 45s25 18 46 18 c19 0 39 -8 60 -25l34 117h63l-46 -158l38 31l32 20c21 10 35 13 62 15c16 0 24 -7 24 -21l-1 -10l-6 -24c21 37 44 55 70 55c23 0 39 -23 39 -47zM18 208c0 -27 17 -47 45 -47l3 -2l13 4l23 9l14 55c-17 15 -35 22 -55 22c-26 0 -43 -17 -43 -41z"/></g></defs><style type="text/css">#p151zt3p g.page-margin {font-family:Times,serif;}#p151zt3p g.ending, #p151zt3p g.fing, #p151zt3p g.reh, #p151zt3p g.tempo {font-weight:bold;}#p151zt3p g.dir, #p151zt3p g.dynam, #p151zt3p g.mNum {font-style:italic;}#p151zt3p g.label {font-weight:normal;}#p151zt3p path {stroke:currentColor}</style><svg class="definition-scale" color="black" viewBox="0 0 14000 2130"><g class="page-margin" transform="translate(0, 150)"><g data-id="nroyjyx" data-class="mdiv" class="mdiv pageMilestone"/><g data-id="o1its7dt" data-class="score" class="score pageMilestone"/><g data-id="a1q7nh68" data-class="system" class="system"><g data-id="q1xepp1r" data-class="section" class="section systemMilestone"/><g data-id="qbqxg8n" data-class="measure" class="measure"><g data-id="c1disvhk" data-class="staff" class="staff"><path d="M0 575 L5972 575" stroke-width="13"/><path d="M0 755 L5972 755" stroke-width="13"/><path d="M0 935 L5972 935" stroke-width="13"/><path d="M0 1115 L5972 1115" stroke-width="13"/><path d="M0 1295 L5972 1295" stroke-width="13"/><g data-id="e1li6gph" data-class="clef" class="clef"><use href="#E050-p151zt3p" transform="translate(90, 1115) scale(0.72, 0.72)"/></g><g data-id="ffk057q" data-class="keySig" class="keySig"><g data-id="g145z8ib" data-class="keyAccid" class="keyAccid"><use href="#E262-p151zt3p" transform="translate(735, 575) scale(0.72, 0.72)"/></g><g data-id="h1yo45ox" data-class="keyAccid" class="keyAccid"><use href="#E262-p151zt3p" transform="translate(913, 845) scale(0.72, 0.72)"/></g><g data-id="i1c0isx4" data-class="keyAccid" class="keyAccid"><use href="#E262-p151zt3p" transform="translate(1091, 485) scale(0.72, 0.72)"/></g></g><g data-id="jtz042e" data-class="meterSig" class="meterSig"><use href="#E08A-p151zt3p" transform="translate(1412, 935) scale(0.72, 0.72)"/></g><g data-id="dsuos49" data-class="layer" class="layer"><g data-id="y12cpcpr" data-class="beam" class="beam"><polygon stroke-opacity="1" fill-opacity="1" points="1996,1340 3723,1520 3723,1430 1996,1250"/><g data-id="a1kudxlx" data-class="note" class="note"><g data-class="notehead" class="notehead"><use href="#E0A4-p151zt3p" transform="translate(1996, 665) scale(0.72, 0.72)"/></g><g data-id="x1pi7z7s" data-class="stem" class="stem"><path d="M2005 693 L2005 1322" stroke-width="18"/></g></g><g data-id="b1ygwi8e" data-class="note" class="note"><g data-class="notehead" class="notehead"><use href="#E0A4-p151zt3p" transform="translate(2566, 755) scale(0.72, 0.72)"/></g><g data-id="y1or623" data-class="stem" class="stem"><path d="M2575 783 L2575 1382" stroke-width="18"/></g></g><g data-id="c1faxtd8" data-class="note" class="note"><g data-class="notehead" class="notehead"><use href="#E0A4-p151zt3p" transform="translate(3135, 845) scale(0.72, 0.72)"/></g><g data-id="z1qu275u" data-class="stem" class="stem"><path d="M3144 873 L3144 1441" stroke-width="18"/></g><g data-id="f49fukn" data-class="accid" class="accid"/></g><g data-id="d1rnzjj4" data-class="note" class="note"><g data-class="notehead" class="notehead"><use href="#E0A4-p151zt3p" transform="translate(3705, 935) scale(0.72, 0.72)"/></g><g data-id="a31z4m8" data-class="stem" class="stem"><path d="M3714 963 L3714 1502" stroke-width="18"/></g></g></g><g data-id="e10l77n7" data-class="note" class="note"><g data-class="notehead" class="notehead"><use href="#E0A4-p151zt3p" transform="translate(4274, 1025) scale(0.72, 0.72)"/></g><g data-id="c1vehwfl" data-class="dots" class="dots"><ellipse cx="4590" cy="1025" rx="36" ry="36" fill-opacity="1" stroke-opacity="1"/></g><g data-id="b9w4hml" data-class="stem" class="stem"><path d="M4491 997 L4491 395" stroke-width="18"/></g></g><g data-id="f1ppxuwf" data-class="note" class="note"><g data-class="notehead" class="notehead"><use href="#E0A4-p151zt3p" transform="translate(5389, 1025) scale(0.72, 0.72)"/></g><g data-id="d1i4bua3" data-class="stem" class="stem"><path d="M5606 997 L5606 395" stroke-width="18"/><g data-id="ea5fy2c" data-class="flag" class="flag"><use href="#E240-p151zt3p" transform="translate(5597, 395) scale(0.72, 0.72)"/></g></g></g></g></g><g data-id="y56sk8q" data-class="barLine" class="barLine"><path d="M5959 575 L5959 1295" stroke-width="27"/></g></g><g data-id="z12la4hs" data-class="measure" class="measure"><g data-id="ed9jcrw" data-class="staff" class="staff"><path d="M5972 575 L10182 575" stroke-width="13"/><path d="M5972 755 L10182 755" stroke-width="13"/><path d="M5972 935 L10182 935" stroke-width="13"/><path d="M5972 1115 L10182 1115" stroke-width="13"/><path d="M5972 1295 L10182 1295" stroke-width="13"/><g data-id="f13bzgsj" data-class="layer" class="layer"><g data-id="gx4m9ss" data-class="note" class="note"><g data-class="notehead" class="notehead"><use href="#E0A4-p151zt3p" transform="translate(6168, 575) scale(0.72, 0.72)"/></g><g data-id="f147hnbu" data-class="stem" class="stem"><path d="M6177 603 L6177 1205" stroke-width="18"/></g><g data-id="g1wn7ikh" data-class="accid" class="accid"/></g><g data-id="z1yovboj" data-class="beam" class="beam"><polygon stroke-opacity="1" fill-opacity="1" points="7042,1295 7795,1205 7795,1115 7042,1205"/><polygon stroke-opacity="1" fill-opacity="1" points="7569,1095 7795,1070 7795,980 7569,1005"/><g data-id="h1ho7h97" data-class="note" class="note"><g data-class="notehead" class="notehead"><use href="#E0A4-p151zt3p" transform="translate(7042, 665) scale(0.72, 0.72)"/></g><g data-id="hkevnxd" data-class="dots" class="dots"><ellipse cx="7358" cy="665" rx="36" ry="36" fill-opacity="1" stroke-opacity="1"/></g><g data-id="g1odg2io" data-class="stem" class="stem"><path d="M7051 693 L7051 1277" stroke-width="18"/></g></g><g data-id="i1kj3ixt" data-class="note" class="note"><g data-class="notehead" class="notehead"><use href="#E0A4-p151zt3p" transform="translate(7777, 575) scale(0.72, 0.72)"/></g><g data-id="im8xzaj" data-class="stem" class="stem"><path d="M7786 603 L7786 1187" stroke-width="18"/></g><g data-id="hzoq5ta" data-class="accid" class="accid"/></g></g><g data-id="j1bpfu2z" data-class="note" class="note"><g data-class="notehead" class="notehead"><use href="#E0A4-p151zt3p" transform="translate(8156, 665) scale(0.72, 0.72)"/></g><g data-id="jygr5yz" data-class="stem" class="stem"><path d="M8165 693 L8165 1295" stroke-width="18"/></g></g><g data-id="a1iotnw8" data-class="beam" class="beam"><polygon stroke-opacity="1" fill-opacity="1" points="9030,1340 9617,1340 9617,1250 9030,1250"/><g data-id="ko883ra" data-class="note" class="note"><g data-class="notehead" class="notehead"><use href="#E0A4-p151zt3p" transform="translate(9030, 755) scale(0.72, 0.72)"/></g><g data-id="kp5n850" data-class="stem" class="stem"><path d="M9039 783 L9039 1322" stroke-width="18"/></g></g><g data-id="l1na6ibo" data-class="note" class="note"><g data-class="notehead" class="notehead"><use href="#E0A4-p151zt3p" transform="translate(9599, 755) scale(0.72, 0.72)"/></g><g data-id="l18n2uoe" data-class="stem" class="stem"><path d="M9608 783 L9608 1322" stroke-width="18"/></g></g></g></g></g><g data-id="h8l2w89" data-class="barLine" class="barLine"><path d="M10169 575 L10169 1295" stroke-width="27"/></g></g><g data-id="ids5bd1" data-class="measure" class="measure"><g data-id="g1y78e9w" data-class="staff" class="staff"><path d="M10182 575 L14002 575" stroke-width="13"/><path d="M10182 755 L14002 755" stroke-width="13"/><path d="M10182 935 L14002 935" stroke-width="13"/><path d="M10182 1115 L14002 1115" stroke-width="13"/><path d="M10182 1295 L14002 1295" stroke-width="13"/><g data-class="ledgerLines" class="ledgerLines above"><g data-class="lineDash" class="lineDash" data-related="#p9pd2xn"><path d="M11471 395 L11793 395" stroke-width="22"/></g><g data-class="lineDash" class="lineDash" data-related="#q1gxhb2u"><path d="M12041 395 L12363 395" stroke-width="22"/></g></g><g data-id="ho28nae" data-class="layer" class="layer"><g data-id="m171vtl" data-class="note" class="note"><g data-class="notehead" class="notehead"><use href="#E0A4-p151zt3p" transform="translate(10378, 485) scale(0.72, 0.72)"/></g><g data-id="miqxrij" data-class="stem" class="stem"><path d="M10387 513 L10387 1115" stroke-width="18"/></g><g data-id="i15jvln2" data-class="accid" class="accid"/></g><g data-id="dlpxhue" data-class="graceGrp" class="graceGrp"><g data-id="ncd4vwd" data-class="note" class="note"><g data-class="notehead" class="notehead"><use href="#E0A4-p151zt3p" transform="translate(10785, 575) scale(0.54, 0.54)"/></g><g data-id="n12rxsz6" data-class="stem" class="stem"><path d="M10945 554 L10945 193" stroke-width="18"/><g data-id="o10xd8qb" data-class="flag" class="flag"><use href="#E244-p151zt3p" transform="translate(10936, 193) scale(0.54, 0.54)"/></g></g><g data-id="j169i7sr" data-class="accid" class="accid"/></g><g data-id="o1fz0zi2" data-class="note" class="note"><g data-class="notehead" class="notehead"><use href="#E0A4-p151zt3p" transform="translate(11152, 485) scale(0.54, 0.54)"/></g><g data-id="piu5cb6" data-class="stem" class="stem"><path d="M11312 464 L11312 103" stroke-width="18"/><g data-id="q1ulhnh0" data-class="flag" class="flag"><use href="#E244-p151zt3p" transform="translate(11303, 103) scale(0.54, 0.54)"/></g></g><g data-id="kykfplf" data-class="accid" class="accid"/></g></g><g data-id="b14ev2nw" data-class="beam" class="beam"><polygon stroke-opacity="1" fill-opacity="1" points="11519,1025 12107,935 12107,845 11519,935"/><g data-id="p9pd2xn" data-class="note" class="note"><g data-class="notehead" class="notehead"><use href="#E0A4-p151zt3p" transform="translate(11519, 395) scale(0.72, 0.72)"/></g><g data-id="r1vpwshv" data-class="stem" class="stem"><path d="M11528 423 L11528 1007" stroke-width="18"/></g></g><g data-id="q1gxhb2u" data-class="note" class="note"><g data-class="notehead" class="notehead"><use href="#E0A4-p151zt3p" transform="translate(12089, 305) scale(0.72, 0.72)"/></g><g data-id="s1xxq7cx" data-class="stem" class="stem"><path d="M12098 333 L12098 917" stroke-width="18"/></g></g></g><g data-id="r1gxfquk" data-class="note" class="note"><g data-class="notehead" class="notehead"><use href="#E0A3-p151zt3p" transform="translate(12658, 665) scale(0.72, 0.72)"/></g><g data-id="t2k8qdw" data-class="stem" class="stem"><path d="M12667 690 L12667 1295" stroke-width="18"/></g></g></g></g><g data-id="x13gcura" data-class="trill" class="trill"><use href="#E566-p151zt3p" transform="translate(10335, 344) scale(0.72, 0.72)"/></g><g data-id="e2x51zi" data-class="tie" class="tie"><path d="M12929,620 C13173,467 13684,467 13931,620 C13673,515 13184,515 12929,620" stroke-linecap="round" stroke-linejoin="round" stroke-width="9"/></g><g data-id="qudavvj" data-class="barLine" class="barLine"><path d="M13989 575 L13989 1295" stroke-width="27"/></g></g></g></g></svg></svg>