<svg viewBox="0 0 560 84" version="1.1" xmlns="http://www.w3.org/2000/svg" xmlns:xlink="http://www.w3.org/1999/xlink" overflow="visible" id="ihziugv"><desc>Engraved by Verovio 5.6.0-85e7620</desc><defs><g id="E050-ihziugv"><path transform="scale(1,-1)" d="M441 -245c-23 -4 -48 -6 -76 -6c-59 0 -102 7 -130 20c-88 42 -150 93 -187 154c-26 44 -43 103 -48 176c0 6 -1 13 -1 19c0 54 15 111 45 170c29 57 65 106 110 148s96 85 153 127c-3 16 -8 46 -13 92c-4 43 -5 73 -5 89c0 117 16 172 69 257c34 54 64 82 89 82 c21 0 43 -30 69 -92s39 -115 41 -159v-15c0 -109 -21 -162 -67 -241c-13 -20 -63 -90 -98 -118c-13 -9 -25 -19 -37 -29l31 -181c8 1 18 2 28 2c58 0 102 -12 133 -35c59 -43 92 -104 98 -184c1 -7 1 -15 1 -22c0 -123 -87 -209 -181 -248c8 -57 17 -110 25 -162 c5 -31 6 -58 6 -80c0 -30 -5 -53 -14 -70c-35 -64 -88 -99 -158 -103c-5 0 -11 -1 -16 -1c-37 0 -72 10 -108 27c-50 24 -77 59 -80 105v11c0 29 7 55 20 76c18 28 45 42 79 44h6c49 0 93 -42 97 -87v-9c0 -51 -34 -86 -105 -106c17 -24 51 -36 102 -36c62 0 116 43 140 85 c9 16 13 41 13 74c0 20 -1 42 -5 67c-8 53 -18 106 -26 159zM461 939c-95 0 -135 -175 -135 -286c0 -24 2 -48 5 -71c50 39 92 82 127 128c40 53 60 100 60 140v8c-4 53 -22 81 -55 81h-2zM406 119l54 -326c73 25 110 78 110 161c0 7 0 15 -1 23c-7 95 -57 142 -151 142h-12 zM382 117c-72 -2 -128 -47 -128 -120v-7c2 -46 43 -99 75 -115c-3 -2 -7 -5 -10 -10c-70 33 -116 88 -123 172v11c0 68 44 126 88 159c23 17 49 29 78 36l-29 170c-21 -13 -52 -37 -92 -73c-50 -44 -86 -84 -109 -119c-45 -69 -67 -130 -67 -182v-13c5 -68 35 -127 93 -176 s125 -73 203 -73c25 0 50 3 75 9c-19 111 -36 221 -54 331z"/></g><g id="E260-ihziugv"><path transform="scale(1,-1)" d="M20 110c32 16 54 27 93 27c26 0 35 -3 54 -13c13 -7 24 -20 27 -38l4 -25c0 -28 -16 -57 -45 -89c-23 -25 -39 -44 -65 -68l-88 -79v644h20v-359zM90 106c-32 0 -48 -10 -70 -29v-194c31 31 54 59 71 84c21 32 32 59 32 84c0 9 1 16 1 20c0 14 -3 21 -11 30l-8 3z"/></g><g id="E08A-ihziugv"><path transform="scale(1,-1)" d="M340 179c-9 24 -56 41 -89 41c-46 0 -81 -28 -100 -58c-17 -28 -25 -78 -25 -150c0 -65 2 -111 8 -135c8 -31 18 -49 40 -67c20 -17 43 -25 70 -25c54 0 92 36 115 75c14 25 23 54 28 88h27c0 -63 -24 -105 -58 -141c-35 -38 -82 -56 -140 -56c-45 0 -83 13 -115 39 c-57 45 -101 130 -101 226c0 59 33 127 68 163c36 37 97 72 160 72c36 0 93 -21 121 -40c11 -8 23 -17 33 -30c19 -23 27 -48 27 -76c0 -51 -35 -88 -86 -88c-43 0 -76 27 -76 68c0 26 7 35 21 51c15 17 32 27 58 32c7 2 14 7 14 11z"/></g><g id="E0A4-ihziugv"><path transform="scale(1,-1)" d="M0 -39c0 68 73 172 200 172c66 0 114 -37 114 -95c0 -84 -106 -171 -218 -171c-64 0 -96 30 -96 94z"/></g><g id="E240-ihziugv"><path transform="scale(1,-1)" d="M179 -646c15 29 29 55 46 102c18 49 30 108 30 138c0 105 -80 173 -168 200c-18 5 -47 9 -87 16v190h22c8 0 33 -61 71 -95c4 -3 -2 3 61 -56c62 -58 122 -137 122 -241c0 -38 -13 -106 -35 -163c-20 -51 -43 -99 -66 -132c-6 -5 -10 -7 -13 -7s-5 2 -5 5l4 10 c1 3 14 25 18 33z"/></g><g id="E241-ihziugv"><path transform="scale(1,-1)" d="M179 646c-4 8 -17 30 -18 33l-4 10c0 3 2 5 5 5s7 -2 13 -7c23 -33 46 -81 66 -132c22 -57 35 -125 35 -163c0 -104 -60 -183 -122 -241c-63 -59 -57 -53 -61 -56c-38 -34 -63 -95 -71 -95h-22v190c40 7 69 11 87 16c88 27 168 95 168 200c0 30 -12 89 -30 138 c-17 47 -31 73 -46 102z"/></g><g id="E0A3-ihziugv"><path transform="scale(1,-1)" d="M278 64c0 22 -17 39 -43 39c-12 0 -26 -3 -41 -10c-85 -43 -165 -94 -165 -156c5 -25 15 -32 49 -32c67 11 200 95 200 159zM0 -36c0 68 73 174 200 174c66 0 114 -39 114 -97c0 -84 -106 -173 -218 -173c-64 0 -96 32 -96 96z"/></g><g id="E0A2-ihziugv"><path transform="scale(1,-1)" d="M198 133c102 0 207 -45 207 -133c0 -92 -118 -133 -227 -133c-101 0 -178 46 -178 133c0 88 93 133 198 133zM293 -21c0 14 -3 29 -8 44c-7 20 -18 38 -33 54c-20 21 -43 31 -68 31l-20 -2c-15 -5 -27 -14 -36 -28c-4 -9 -6 -17 -8 -24s-3 -16 -3 -27c0 -15 3 -34 9 -57 s18 -41 34 -55c15 -15 36 -23 62 -23c4 0 10 1 18 2c19 5 32 15 40 30s13 34 13 55z"/></g></defs><style type="text/css">#ihziugv g.page-margin {font-family:Times,serif;}#ihziugv g.ending, #ihziugv g.fing, #ihziugv g.reh, #ihziugv g.tempo {font-weight:bold;}#ihziugv g.dir, #ihziugv g.dynam, #ihziugv g.mNum {font-style:italic;}#ihziugv g.label {font-weight:normal;}#ihziugv path {stroke:currentColor}</style><svg class="definition-scale" color="black" viewBox="0 0 14000 2100"><g class="page-margin" transform="translate(0, 150)"><g data-id="mqdy216" data-class="mdiv" class="mdiv pageMilestone"/><g data-id="nsia9p9" data-class="score" class="score pageMilestone"/><g data-id="cjidhsr" data-class="system" class="system"><g data-id="pfwvuki" data-class="section" class="section systemMilestone"/><g data-id="j12xciqn" data-class="measure" class="measure"><g data-id="b2d0m7u" data-class="staff" class="staff"><path d="M0 540 L2328 540" stroke-width="13"/><path d="M0 720 L2328 720" stroke-width="13"/><path d="M0 900 L2328 900" stroke-width="13"/><path d="M0 1080 L2328 1080" stroke-width="13"/><path d="M0 1260 L2328 1260" stroke-width="13"/><g data-id="j1il13gn" data-class="clef" class="clef"><use href="#E050-ihziugv" transform="translate(90, 1080) scale(0.72, 0.72)"/></g><g data-id="k1xfogbd" data-class="keySig" class="keySig"><g data-id="ljcdv5o" data-class="keyAccid" class="keyAccid"><use href="#E260-ihziugv" transform="translate(735, 900) scale(0.72, 0.72)"/></g></g><g data-id="mm9r8xf" data-class="meterSig" class="meterSig"><use href="#E08A-ihziugv" transform="translate(1057, 900) scale(0.72, 0.72)"/></g><g data-id="c1mp7vnl" data-class="layer" class="layer"><g data-id="t1ycdyq7" data-class="note" class="note"><g data-class="notehead" class="notehead"><use href="#E0A4-ihziugv" transform="translate(1625, 810) scale(0.72, 0.72)"/></g><g data-id="uwez7v3" data-class="stem" class="stem"><path d="M1634 838 L1634 1440" stroke-width="18"/></g></g></g></g><g data-id="r17nvtis" data-class="barLine" class="barLine"><path d="M2315 540 L2315 1260" stroke-width="27"/></g></g><g data-id="s197to8x" data-class="measure" class="measure"><g data-id="dis9sl1" data-class="staff" class="staff"><path d="M2328 540 L6167 540" stroke-width="13"/><path d="M2328 720 L6167 720" stroke-width="13"/><path d="M2328 900 L6167 900" stroke-width="13"/><path d="M2328 1080 L6167 1080" stroke-width="13"/><path d="M2328 1260 L6167 1260" stroke-width="13"/><g data-class="ledgerLines" class="ledgerLines above"><g data-class="lineDash" class="lineDash" data-related="#azsuana"><path d="M5206 360 L5528 360" stroke-width="22"/></g></g><g data-id="e3ngvww" data-class="layer" class="layer"><g data-id="u1aqlo6a" data-class="note" class="note"><g data-class="notehead" class="notehead"><use href="#E0A4-ihziugv" transform="translate(2508, 990) scale(0.72, 0.72)"/></g><g data-id="v13qalms" data-class="stem" class="stem"><path d="M2725 962 L2725 360" stroke-width="18"/><g data-id="wso2evt" data-class="flag" class="flag"><use href="#E240-ihziugv" transform="translate(2716, 360) scale(0.72, 0.72)"/></g></g></g><g data-id="v1j8te7j" data-class="note" class="note"><g data-class="notehead" class="notehead"><use href="#E0A4-ihziugv" transform="translate(3004, 900) scale(0.72, 0.72)"/></g><g data-id="x1cyp8nh" data-class="stem" class="stem"><path d="M3013 928 L3013 1500" stroke-width="18"/><g data-id="y1hm9kjw" data-class="flag" class="flag"><use href="#E241-ihziugv" transform="translate(3004, 1500) scale(0.72, 0.72)"/></g></g><g data-id="j1x4gtwk" data-class="accid" class="accid"/></g><g data-id="we535hw" data-class="note" class="note"><g data-class="notehead" class="notehead"><use href="#E0A4-ihziugv" transform="translate(3454, 810) scale(0.72, 0.72)"/></g><g data-id="ze8q9k3" data-class="stem" class="stem"><path d="M3463 838 L3463 1440" stroke-width="18"/><g data-id="axamcpg" data-class="flag" class="flag"><use href="#E241-ihziugv" transform="translate(3454, 1440) scale(0.72, 0.72)"/></g></g></g><g data-id="x1yypw3b" data-class="note" class="note"><g data-class="notehead" class="notehead"><use href="#E0A4-ihziugv" transform="translate(3904, 720) scale(0.72, 0.72)"/></g><g data-id="bygxav7" data-class="stem" class="stem"><path d="M3913 748 L3913 1350" stroke-width="18"/><g data-id="c1gy9399" data-class="flag" class="flag"><use href="#E241-ihziugv" transform="translate(3904, 1350) scale(0.72, 0.72)"/></g></g></g><g data-id="irs0ahd" data-class="beam" class="beam"><polygon stroke-opacity="1" fill-opacity="1" points="4354,1485 4822,1440 4822,1350 4354,1395"/><g data-id="yz7mtqt" data-class="note" class="note"><g data-class="notehead" class="notehead"><use href="#E0A4-ihziugv" transform="translate(4354, 810) scale(0.72, 0.72)"/></g><g data-id="dxvie3z" data-class="stem" class="stem"><path d="M4363 838 L4363 1467" stroke-width="18"/></g></g><g data-id="z1boxyed" data-class="note" class="note"><g data-class="notehead" class="notehead"><use href="#E0A4-ihziugv" transform="translate(4804, 540) scale(0.72, 0.72)"/></g><g data-id="edhye14" data-class="stem" class="stem"><path d="M4813 568 L4813 1422" stroke-width="18"/></g></g></g><g data-id="azsuana" data-class="note" class="note"><g data-class="notehead" class="notehead"><use href="#E0A4-ihziugv" transform="translate(5254, 360) scale(0.72, 0.72)"/></g><g data-id="fkcvsl4" data-class="stem" class="stem"><path d="M5263 388 L5263 990" stroke-width="18"/><g data-id="gihk03c" data-class="flag" class="flag"><use href="#E241-ihziugv" transform="translate(5254, 990) scale(0.72, 0.72)"/></g></g></g><g data-id="b2cdlup" data-class="note" class="note"><g data-class="notehead" class="notehead"><use href="#E0A4-ihziugv" transform="translate(5704, 540) scale(0.72, 0.72)"/></g><g data-id="h16mxcva" data-class="stem" class="stem"><path d="M5713 568 L5713 1170" stroke-width="18"/><g data-id="ijr9wsu" data-class="flag" class="flag"><use href="#E241-ihziugv" transform="translate(5704, 1170) scale(0.72, 0.72)"/></g></g></g></g></g><g data-id="a14dihie" data-class="barLine" class="barLine"><path d="M6154 540 L6154 1260" stroke-width="27"/></g></g><g data-id="bhnqziz" data-class="measure" class="measure"><g data-id="f1kpwqsp" data-class="staff" class="staff"><path d="M6167 540 L9256 540" stroke-width="13"/><path d="M6167 720 L9256 720" stroke-width="13"/><path d="M6167 900 L9256 900" stroke-width="13"/><path d="M6167 1080 L9256 1080" stroke-width="13"/><path d="M6167 1260 L9256 1260" stroke-width="13"/><g data-id="gbuaxzs" data-class="layer" class="layer"><g data-id="c1w3r2r3" data-class="note" class="note"><g data-class="notehead" class="notehead"><use href="#E0A4-ihziugv" transform="translate(6347, 810) scale(0.72, 0.72)"/></g><g data-id="j1e1pv9p" data-class="stem" class="stem"><path d="M6356 838 L6356 1440" stroke-width="18"/><g data-id="k84ylf5" data-class="flag" class="flag"><use href="#E241-ihziugv" transform="translate(6347, 1440) scale(0.72, 0.72)"/></g></g></g><g data-id="dvjxbx5" data-class="note" class="note"><g data-class="notehead" class="notehead"><use href="#E0A4-ihziugv" transform="translate(6797, 990) scale(0.72, 0.72)"/></g><g data-id="lvkn31v" data-class="stem" class="stem"><path d="M7014 962 L7014 360" stroke-width="18"/><g data-id="mcq534k" data-class="flag" class="flag"><use href="#E240-ihziugv" transform="translate(7005, 360) scale(0.72, 0.72)"/></g></g></g><g data-id="e1hpj5p0" data-class="note" class="note"><g data-class="notehead" class="notehead"><use href="#E0A4-ihziugv" transform="translate(7293, 900) scale(0.72, 0.72)"/></g><g data-id="n1rjjjo8" data-class="stem" class="stem"><path d="M7302 928 L7302 1500" stroke-width="18"/><g data-id="o9f1fj9" data-class="flag" class="flag"><use href="#E241-ihziugv" transform="translate(7293, 1500) scale(0.72, 0.72)"/></g></g><g data-id="khxdnmn" data-class="accid" class="accid"/></g><g data-id="fvme5jt" data-class="note" class="note"><g data-class="notehead" class="notehead"><use href="#E0A4-ihziugv" transform="translate(7743, 720) scale(0.72, 0.72)"/></g><g data-id="p1u5ap9r" data-class="stem" class="stem"><path d="M7752 748 L7752 1350" stroke-width="18"/><g data-id="q1t5hem6" data-class="flag" class="flag"><use href="#E241-ihziugv" transform="translate(7743, 1350) scale(0.72, 0.72)"/></g></g></g><g data-id="g17g1dog" data-class="note" class="note"><g data-class="notehead" class="notehead"><use href="#E0A3-ihziugv" transform="translate(8193, 810) scale(0.72, 0.72)"/></g><g data-id="r1cz13ue" data-class="stem" class="stem"><path d="M8202 835 L8202 1440" stroke-width="18"/></g></g></g></g><g data-id="j1bvu0sk" data-class="barLine" class="barLine"><path d="M9243 540 L9243 1260" stroke-width="27"/></g></g><g data-id="kil1gyh" data-class="measure" class="measure"><g data-id="hcc4rg1" data-class="staff" class="staff"><path d="M9256 540 L11039 540" stroke-width="13"/><path d="M9256 720 L11039 720" stroke-width="13"/><path d="M9256 900 L11039 900" stroke-width="13"/><path d="M9256 1080 L11039 1080" stroke-width="13"/><path d="M9256 1260 L11039 1260" stroke-width="13"/><g data-id="ijhgyt5" data-class="layer" class="layer"><g data-id="h11reu7v" data-class="note" class="note"><g data-class="notehead" class="notehead"><use href="#E0A2-ihziugv" transform="translate(9436, 540) scale(0.72, 0.72)"/></g></g></g></g><g data-id="s1l2wm3y" data-class="barLine" class="barLine"><path d="M11026 540 L11026 1260" stroke-width="27"/></g></g><g data-id="q12v16go" data-class="systemMilestoneEnd" class="systemMilestoneEnd pfwvuki"/></g><g data-id="reskmaj" data-class="pageMilestoneEnd" class="pageMilestoneEnd nsia9p9"/><g data-id="s4knbzr" data-class="pageMilestoneEnd" class="pageMilestoneEnd mqdy216"/></g></svg></svg>