<svg viewBox="0 0 560 84" version="1.1" xmlns="http://www.w3.org/2000/svg" xmlns:xlink="http://www.w3.org/1999/xlink" overflow="visible" id="oztuyqm"><desc>Engraved by Verovio 5.6.0-85e7620</desc><defs><g id="E050-oztuyqm"><path transform="scale(1,-1)" d="M441 -245c-23 -4 -48 -6 -76 -6c-59 0 -102 7 -130 20c-88 42 -150 93 -187 154c-26 44 -43 103 -48 176c0 6 -1 13 -1 19c0 54 15 111 45 170c29 57 65 106 110 148s96 85 153 127c-3 16 -8 46 -13 92c-4 43 -5 73 -5 89c0 117 16 172 69 257c34 54 64 82 89 82 c21 0 43 -30 69 -92s39 -115 41 -159v-15c0 -109 -21 -162 -67 -241c-13 -20 -63 -90 -98 -118c-13 -9 -25 -19 -37 -29l31 -181c8 1 18 2 28 2c58 0 102 -12 133 -35c59 -43 92 -104 98 -184c1 -7 1 -15 1 -22c0 -123 -87 -209 -181 -248c8 -57 17 -110 25 -162 c5 -31 6 -58 6 -80c0 -30 -5 -53 -14 -70c-35 -64 -88 -99 -158 -103c-5 0 -11 -1 -16 -1c-37 0 -72 10 -108 27c-50 24 -77 59 -80 105v11c0 29 7 55 20 76c18 28 45 42 79 44h6c49 0 93 -42 97 -87v-9c0 -51 -34 -86 -105 -106c17 -24 51 -36 102 -36c62 0 116 43 140 85 c9 16 13 41 13 74c0 20 -1 42 -5 67c-8 53 -18 106 -26 159zM461 939c-95 0 -135 -175 -135 -286c0 -24 2 -48 5 -71c50 39 92 82 127 128c40 53 60 100 60 140v8c-4 53 -22 81 -55 81h-2zM406 119l54 -326c73 25 110 78 110 161c0 7 0 15 -1 23c-7 95 -57 142 -151 142h-12 zM382 117c-72 -2 -128 -47 -128 -120v-7c2 -46 43 -99 75 -115c-3 -2 -7 -5 -10 -10c-70 33 -116 88 -123 172v11c0 68 44 126 88 159c23 17 49 29 78 36l-29 170c-21 -13 -52 -37 -92 -73c-50 -44 -86 -84 -109 -119c-45 -69 -67 -130 -67 -182v-13c5 -68 35 -127 93 -176 s125 -73 203 -73c25 0 50 3 75 9c-19 111 -36 221 -54 331z"/></g><g id="E260-oztuyqm"><path transform="scale(1,-1)" d="M20 110c32 16 54 27 93 27c26 0 35 -3 54 -13c13 -7 24 -20 27 -38l4 -25c0 -28 -16 -57 -45 -89c-23 -25 -39 -44 -65 -68l-88 -79v644h20v-359zM90 106c-32 0 -48 -10 -70 -29v-194c31 31 54 59 71 84c21 32 32 59 32 84c0 9 1 16 1 20c0 14 -3 21 -11 30l-8 3z"/></g><g id="E08A-oztuyqm"><path transform="scale(1,-1)" d="M340 179c-9 24 -56 41 -89 41c-46 0 -81 -28 -100 -58c-17 -28 -25 -78 -25 -150c0 -65 2 -111 8 -135c8 -31 18 -49 40 -67c20 -17 43 -25 70 -25c54 0 92 36 115 75c14 25 23 54 28 88h27c0 -63 -24 -105 -58 -141c-35 -38 -82 -56 -140 -56c-45 0 -83 13 -115 39 c-57 45 -101 130 -101 226c0 59 33 127 68 163c36 37 97 72 160 72c36 0 93 -21 121 -40c11 -8 23 -17 33 -30c19 -23 27 -48 27 -76c0 -51 -35 -88 -86 -88c-43 0 -76 27 -76 68c0 26 7 35 21 51c15 17 32 27 58 32c7 2 14 7 14 11z"/></g><g id="E4E5-oztuyqm"><path transform="scale(1,-1)" d="M107 292c-13 24 -30 49 -52 71c-1 1 0 2 0 3l-2 2c3 3 4 4 6 4c12 0 26 -7 40 -20s44 -40 89 -81c26 -24 28 -29 46 -47c4 -4 8 -9 10 -14c6 -8 8 -16 8 -27c0 -19 -12 -40 -36 -61c-28 -23 -49 -38 -61 -73c-4 -11 -7 -27 -10 -50c13 -43 34 -83 59 -121 c31 -47 59 -79 101 -129c-8 0 -26 7 -54 20l-62 29l-21 6l-23 1c-25 0 -45 -10 -60 -30l-4 -14l-1 -12c0 -33 20 -56 39 -78c8 -9 17 -18 26 -26c17 -15 27 -24 28 -30l-3 -3c-11 5 -19 10 -25 15c-9 3 -37 21 -45 26c-24 14 -45 32 -63 51c-19 21 -37 44 -37 71 c0 63 27 95 80 95c41 0 86 -18 136 -52c-19 26 -37 48 -55 66c-23 23 -48 44 -73 65c-28 23 -47 40 -58 53s-17 26 -18 39c75 64 113 125 113 183c0 27 -7 48 -18 68z"/></g><g id="E4E6-oztuyqm"><path transform="scale(1,-1)" d="M0 123c7 34 33 56 69 60c29 -3 43 -9 53 -29c4 -8 7 -15 10 -22c0 -21 -1 -25 -11 -35c-5 -8 -18 -14 -40 -20l12 -3l15 -1c44 0 97 26 122 56c10 11 18 26 24 42c7 1 15 2 22 3l-140 -424h-36l111 330c-10 -6 -27 -12 -53 -16l-52 -8h-10l-20 1c-1 0 -8 3 -21 6 c-37 9 -55 28 -55 60z"/></g><g id="E0A4-oztuyqm"><path transform="scale(1,-1)" d="M0 -39c0 68 73 172 200 172c66 0 114 -37 114 -95c0 -84 -106 -171 -218 -171c-64 0 -96 30 -96 94z"/></g><g id="E241-oztuyqm"><path transform="scale(1,-1)" d="M179 646c-4 8 -17 30 -18 33l-4 10c0 3 2 5 5 5s7 -2 13 -7c23 -33 46 -81 66 -132c22 -57 35 -125 35 -163c0 -104 -60 -183 -122 -241c-63 -59 -57 -53 -61 -56c-38 -34 -63 -95 -71 -95h-22v190c40 7 69 11 87 16c88 27 168 95 168 200c0 30 -12 89 -30 138 c-17 47 -31 73 -46 102z"/></g><g id="E240-oztuyqm"><path transform="scale(1,-1)" d="M179 -646c15 29 29 55 46 102c18 49 30 108 30 138c0 105 -80 173 -168 200c-18 5 -47 9 -87 16v190h22c8 0 33 -61 71 -95c4 -3 -2 3 61 -56c62 -58 122 -137 122 -241c0 -38 -13 -106 -35 -163c-20 -51 -43 -99 -66 -132c-6 -5 -10 -7 -13 -7s-5 2 -5 5l4 10 c1 3 14 25 18 33z"/></g><g id="E262-oztuyqm"><path transform="scale(1,-1)" d="M136 186v169h17v-164l44 14v-91l-44 -14v-165l44 12v-91l-44 -13v-155h-17v150l-76 -22v-155h-17v149l-43 -13v90l43 14v167l-43 -14v92l43 13v169h17v-163zM60 73v-167l76 22v168z"/></g><g id="E243-oztuyqm"><path transform="scale(1,-1)" d="M216 730c-5 8 -10 13 -11 16l-4 10c0 3 2 5 5 5s7 -2 13 -7c35 -42 57 -101 57 -172c0 -34 -6 -65 -17 -94c10 -31 17 -64 17 -96c0 -104 -60 -183 -122 -241c-63 -59 -57 -53 -61 -56c-38 -34 -63 -95 -71 -95h-22v190v190c40 7 69 11 87 16c116 36 175 111 175 197 c0 44 -15 91 -46 137zM248 463c-23 -48 -58 -89 -94 -122c-63 -59 -57 -53 -61 -56c-30 -27 -44 -71 -53 -88c20 3 36 6 47 9c88 27 168 95 168 200c0 19 -3 39 -7 57z"/></g></defs><style type="text/css">#oztuyqm g.page-margin {font-family:Times,serif;}#oztuyqm g.ending, #oztuyqm g.fing, #oztuyqm g.reh, #oztuyqm g.tempo {font-weight:bold;}#oztuyqm g.dir, #oztuyqm g.dynam, #oztuyqm g.mNum {font-style:italic;}#oztuyqm g.label {font-weight:normal;}#oztuyqm path {stroke:currentColor}</style><svg class="definition-scale" color="black" viewBox="0 0 14000 2100"><g class="page-margin" transform="translate(0, 150)"><g data-id="hh404ok" data-class="mdiv" class="mdiv pageMilestone"/><g data-id="i1yiaopi" data-class="score" class="score pageMilestone"/><g data-id="ecg7g90" data-class="system" class="system"><g data-id="k1gwo4hj" data-class="section" class="section systemMilestone"/><g data-id="pt4f0pa" data-class="measure" class="measure"><g data-id="w9tzbax" data-class="staff" class="staff"><path d="M0 540 L5540 540" stroke-width="13"/><path d="M0 720 L5540 720" stroke-width="13"/><path d="M0 900 L5540 900" stroke-width="13"/><path d="M0 1080 L5540 1080" stroke-width="13"/><path d="M0 1260 L5540 1260" stroke-width="13"/><g data-id="e2wgeko" data-class="clef" class="clef"><use href="#E050-oztuyqm" transform="translate(90, 1080) scale(0.72, 0.72)"/></g><g data-id="f173oo5t" data-class="keySig" class="keySig"><g data-id="g1kmkb07" data-class="keyAccid" class="keyAccid"><use href="#E260-oztuyqm" transform="translate(735, 900) scale(0.72, 0.72)"/></g><g data-id="hq76j6w" data-class="keyAccid" class="keyAccid"><use href="#E260-oztuyqm" transform="translate(915, 630) scale(0.72, 0.72)"/></g></g><g data-id="iojexv2" data-class="meterSig" class="meterSig"><use href="#E08A-oztuyqm" transform="translate(1237, 900) scale(0.72, 0.72)"/></g><g data-id="x1i981zr" data-class="layer" class="layer"><g data-id="i7ezgsi" data-class="rest" class="rest"><use href="#E4E5-oztuyqm" transform="translate(1817, 900) scale(0.72, 0.72)"/></g><g data-id="jfhtkme" data-class="rest" class="rest"><use href="#E4E6-oztuyqm" transform="translate(2561, 900) scale(0.72, 0.72)"/></g><g data-id="l1318o1n" data-class="note" class="note"><g data-class="notehead" class="notehead"><use href="#E0A4-oztuyqm" transform="translate(3046, 720) scale(0.72, 0.72)"/></g><g data-id="s1wgfem8" data-class="stem" class="stem"><path d="M3055 748 L3055 1350" stroke-width="18"/><g data-id="tty6g5l" data-class="flag" class="flag"><use href="#E241-oztuyqm" transform="translate(3046, 1350) scale(0.72, 0.72)"/></g></g></g><g data-id="mlkb54q" data-class="note" class="note"><g data-class="notehead" class="notehead"><use href="#E0A4-oztuyqm" transform="translate(3531, 810) scale(0.72, 0.72)"/></g><g data-id="ufkh3iy" data-class="stem" class="stem"><path d="M3540 838 L3540 1440" stroke-width="18"/><g data-id="ve9fob7" data-class="flag" class="flag"><use href="#E241-oztuyqm" transform="translate(3531, 1440) scale(0.72, 0.72)"/></g></g></g><g data-id="n1426835" data-class="note" class="note"><g data-class="notehead" class="notehead"><use href="#E0A4-oztuyqm" transform="translate(4016, 900) scale(0.72, 0.72)"/></g><g data-id="w1imo9wh" data-class="stem" class="stem"><path d="M4025 928 L4025 1500" stroke-width="18"/><g data-id="x1cp53g8" data-class="flag" class="flag"><use href="#E241-oztuyqm" transform="translate(4016, 1500) scale(0.72, 0.72)"/></g></g><g data-id="w1w7uaof" data-class="accid" class="accid"/></g><g data-id="o1sy2bph" data-class="note" class="note"><g data-class="notehead" class="notehead"><use href="#E0A4-oztuyqm" transform="translate(4501, 990) scale(0.72, 0.72)"/></g><g data-id="ygqbxsa" data-class="stem" class="stem"><path d="M4718 962 L4718 360" stroke-width="18"/><g data-id="z1fvsnkm" data-class="flag" class="flag"><use href="#E240-oztuyqm" transform="translate(4709, 360) scale(0.72, 0.72)"/></g></g></g><g data-id="paye61n" data-class="note" class="note"><g data-class="notehead" class="notehead"><use href="#E0A4-oztuyqm" transform="translate(4986, 1080) scale(0.72, 0.72)"/></g><g data-id="a193v0tp" data-class="stem" class="stem"><path d="M5203 1052 L5203 450" stroke-width="18"/><g data-id="bq3agki" data-class="flag" class="flag"><use href="#E240-oztuyqm" transform="translate(5194, 450) scale(0.72, 0.72)"/></g></g></g></g></g><g data-id="x129xqcn" data-class="barLine" class="barLine"><path d="M5527 540 L5527 1260" stroke-width="27"/></g></g><g data-id="y1ia8shj" data-class="measure" class="measure"><g data-id="y8tl135" data-class="staff" class="staff"><path d="M5540 540 L10095 540" stroke-width="13"/><path d="M5540 720 L10095 720" stroke-width="13"/><path d="M5540 900 L10095 900" stroke-width="13"/><path d="M5540 1080 L10095 1080" stroke-width="13"/><path d="M5540 1260 L10095 1260" stroke-width="13"/><g data-id="zniq4ng" data-class="layer" class="layer"><g data-id="q2z4p5q" data-class="note" class="note"><g data-class="notehead" class="notehead"><use href="#E0A4-oztuyqm" transform="translate(5732, 1080) scale(0.72, 0.72)"/></g><g data-id="chfm0rs" data-class="stem" class="stem"><path d="M5949 1052 L5949 450" stroke-width="18"/></g></g><g data-id="rkj38b5" data-class="note" class="note"><g data-class="notehead" class="notehead"><use href="#E0A4-oztuyqm" transform="translate(6476, 1170) scale(0.72, 0.72)"/></g><g data-id="d1igw8rl" data-class="stem" class="stem"><path d="M6693 1142 L6693 540" stroke-width="18"/><g data-id="e1ns21or" data-class="flag" class="flag"><use href="#E240-oztuyqm" transform="translate(6684, 540) scale(0.72, 0.72)"/></g></g><g data-id="q3t8p6g" data-class="accid" class="accid"><use href="#E262-oztuyqm" transform="translate(6290, 1170) scale(0.72, 0.72)"/></g></g><g data-id="r1yrsbsh" data-class="beam" class="beam"><polygon stroke-opacity="1" fill-opacity="1" points="7002,1620 7356,1665 7356,1575 7002,1530"/><polygon stroke-opacity="1" fill-opacity="1" points="7002,1485 7356,1530 7356,1440 7002,1395"/><g data-id="sgkeg31" data-class="note" class="note"><g data-class="notehead" class="notehead"><use href="#E0A4-oztuyqm" transform="translate(7002, 810) scale(0.72, 0.72)"/></g><g data-id="fq6x4he" data-class="stem" class="stem"><path d="M7011 838 L7011 1602" stroke-width="18"/></g></g><g data-id="t1qspta5" data-class="note" class="note"><g data-class="notehead" class="notehead"><use href="#E0A4-oztuyqm" transform="translate(7338, 990) scale(0.72, 0.72)"/></g><g data-id="g1j7v7dw" data-class="stem" class="stem"><path d="M7347 1018 L7347 1647" stroke-width="18"/></g></g></g><g data-id="u1qco0vk" data-class="note" class="note"><g data-class="notehead" class="notehead"><use href="#E0A4-oztuyqm" transform="translate(7673, 1080) scale(0.72, 0.72)"/></g><g data-id="hbrtyoy" data-class="stem" class="stem"><path d="M7890 1052 L7890 450" stroke-width="18"/><g data-id="irs1v51" data-class="flag" class="flag"><use href="#E240-oztuyqm" transform="translate(7881, 450) scale(0.72, 0.72)"/></g></g></g><g data-id="s1snsw6l" data-class="beam" class="beam"><polygon stroke-opacity="1" fill-opacity="1" points="8199,1530 8553,1575 8553,1485 8199,1440"/><polygon stroke-opacity="1" fill-opacity="1" points="8199,1395 8553,1440 8553,1350 8199,1305"/><g data-id="v1wlgcio" data-class="note" class="note"><g data-class="notehead" class="notehead"><use href="#E0A4-oztuyqm" transform="translate(8199, 720) scale(0.72, 0.72)"/></g><g data-id="j1mqf1x1" data-class="stem" class="stem"><path d="M8208 748 L8208 1512" stroke-width="18"/></g></g><g data-id="wwehe41" data-class="note" class="note"><g data-class="notehead" class="notehead"><use href="#E0A4-oztuyqm" transform="translate(8535, 900) scale(0.72, 0.72)"/></g><g data-id="kawtg5z" data-class="stem" class="stem"><path d="M8544 928 L8544 1557" stroke-width="18"/></g><g data-id="x118xa2o" data-class="accid" class="accid"/></g></g><g data-id="x1dx3ppo" data-class="note" class="note"><g data-class="notehead" class="notehead"><use href="#E0A4-oztuyqm" transform="translate(8870, 990) scale(0.72, 0.72)"/></g><g data-id="l1bpqj24" data-class="stem" class="stem"><path d="M9087 962 L9087 360" stroke-width="18"/><g data-id="mltqw4d" data-class="flag" class="flag"><use href="#E240-oztuyqm" transform="translate(9078, 360) scale(0.72, 0.72)"/></g></g></g><g data-id="t1rjke2n" data-class="beam" class="beam"><polygon stroke-opacity="1" fill-opacity="1" points="9397,1440 9750,1485 9750,1395 9397,1350"/><polygon stroke-opacity="1" fill-opacity="1" points="9397,1305 9750,1350 9750,1260 9397,1215"/><g data-id="y1v9ng5u" data-class="note" class="note"><g data-class="notehead" class="notehead"><use href="#E0A4-oztuyqm" transform="translate(9397, 630) scale(0.72, 0.72)"/></g><g data-id="n86op4d" data-class="stem" class="stem"><path d="M9406 658 L9406 1422" stroke-width="18"/></g><g data-id="yf121cm" data-class="accid" class="accid"/></g><g data-id="z1bhfafl" data-class="note" class="note"><g data-class="notehead" class="notehead"><use href="#E0A4-oztuyqm" transform="translate(9732, 810) scale(0.72, 0.72)"/></g><g data-id="o19o3enh" data-class="stem" class="stem"><path d="M9741 838 L9741 1467" stroke-width="18"/></g></g></g></g></g><g data-id="g12pdth3" data-class="barLine" class="barLine"><path d="M10082 540 L10082 1260" stroke-width="27"/></g></g><g data-id="hklnp23" data-class="measure" class="measure"><g data-id="a13zyk8n" data-class="staff" class="staff"><path d="M10095 540 L14001 540" stroke-width="13"/><path d="M10095 720 L14001 720" stroke-width="13"/><path d="M10095 900 L14001 900" stroke-width="13"/><path d="M10095 1080 L14001 1080" stroke-width="13"/><path d="M10095 1260 L14001 1260" stroke-width="13"/><g data-id="b9339c" data-class="layer" class="layer"><g data-id="af9n1m9" data-class="note" class="note"><g data-class="notehead" class="notehead"><use href="#E0A4-oztuyqm" transform="translate(10287, 900) scale(0.72, 0.72)"/></g><g data-id="p1g2zqbb" data-class="stem" class="stem"><path d="M10296 928 L10296 1500" stroke-width="18"/></g><g data-id="z72wpjz" data-class="accid" class="accid"/></g><g data-id="k15rdw5v" data-class="rest" class="rest"><use href="#E4E6-oztuyqm" transform="translate(11031, 900) scale(0.72, 0.72)"/></g><g data-id="b1ptxmxn" data-class="note" class="note"><g data-class="notehead" class="notehead"><use href="#E0A4-oztuyqm" transform="translate(11516, 900) scale(0.72, 0.72)"/></g><g data-id="quovtx9" data-class="stem" class="stem"><path d="M11525 928 L11525 1500" stroke-width="18"/><g data-id="r14i3jot" data-class="flag" class="flag"><use href="#E241-oztuyqm" transform="translate(11516, 1500) scale(0.72, 0.72)"/></g></g><g data-id="a5ou57g" data-class="accid" class="accid"/></g><g data-id="c199ipji" data-class="note" class="note"><g data-class="notehead" class="notehead"><use href="#E0A4-oztuyqm" transform="translate(12001, 990) scale(0.72, 0.72)"/></g><g data-id="s1q3bdyz" data-class="stem" class="stem"><path d="M12218 962 L12218 360" stroke-width="18"/><g data-id="tqwyop9" data-class="flag" class="flag"><use href="#E240-oztuyqm" transform="translate(12209, 360) scale(0.72, 0.72)"/></g></g></g><g data-id="d1ekyntj" data-class="note" class="note"><g data-class="notehead" class="notehead"><use href="#E0A4-oztuyqm" transform="translate(12527, 810) scale(0.72, 0.72)"/></g><g data-id="u100wb3p" data-class="stem" class="stem"><path d="M12536 838 L12536 1440" stroke-width="18"/><g data-id="vzdmlmn" data-class="flag" class="flag"><use href="#E241-oztuyqm" transform="translate(12527, 1440) scale(0.72, 0.72)"/></g></g></g><g data-id="ecm6qp1" data-class="note" class="note"><g data-class="notehead" class="notehead"><use href="#E0A4-oztuyqm" transform="translate(13012, 450) scale(0.72, 0.72)"/></g><g data-id="x1wlxcjr" data-class="dots" class="dots"><ellipse cx="13328" cy="450" rx="36" ry="36" fill-opacity="1" stroke-opacity="1"/></g><g data-id="wvbyi7c" data-class="stem" class="stem"><path d="M13021 478 L13021 1080" stroke-width="18"/><g data-id="y1gcgpwc" data-class="flag" class="flag"><use href="#E241-oztuyqm" transform="translate(13012, 1080) scale(0.72, 0.72)"/></g></g></g><g data-id="f1inshja" data-class="note" class="note"><g data-class="notehead" class="notehead"><use href="#E0A4-oztuyqm" transform="translate(13638, 540) scale(0.72, 0.72)"/></g><g data-id="zcgt53n" data-class="stem" class="stem"><path d="M13647 568 L13647 1170" stroke-width="18"/><g data-id="a1j5hzwc" data-class="flag" class="flag"><use href="#E243-oztuyqm" transform="translate(13638, 1170) scale(0.72, 0.72)"/></g></g></g></g></g><g data-id="p2dck2e" data-class="barLine" class="barLine"><path d="M13988 540 L13988 1260" stroke-width="27"/></g></g></g></g></svg></svg>