<svg viewBox="0 0 560 84" version="1.1" xmlns="http://www.w3.org/2000/svg" xmlns:xlink="http://www.w3.org/1999/xlink" overflow="visible" id="t1h3e85e"><desc>Engraved by Verovio 5.6.0-85e7620</desc><defs><g id="E050-t1h3e85e"><path transform="scale(1,-1)" d="M441 -245c-23 -4 -48 -6 -76 -6c-59 0 -102 7 -130 20c-88 42 -150 93 -187 154c-26 44 -43 103 -48 176c0 6 -1 13 -1 19c0 54 15 111 45 170c29 57 65 106 110 148s96 85 153 127c-3 16 -8 46 -13 92c-4 43 -5 73 -5 89c0 117 16 172 69 257c34 54 64 82 89 82 c21 0 43 -30 69 -92s39 -115 41 -159v-15c0 -109 -21 -162 -67 -241c-13 -20 -63 -90 -98 -118c-13 -9 -25 -19 -37 -29l31 -181c8 1 18 2 28 2c58 0 102 -12 133 -35c59 -43 92 -104 98 -184c1 -7 1 -15 1 -22c0 -123 -87 -209 -181 -248c8 -57 17 -110 25 -162 c5 -31 6 -58 6 -80c0 -30 -5 -53 -14 -70c-35 -64 -88 -99 -158 -103c-5 0 -11 -1 -16 -1c-37 0 -72 10 -108 27c-50 24 -77 59 -80 105v11c0 29 7 55 20 76c18 28 45 42 79 44h6c49 0 93 -42 97 -87v-9c0 -51 -34 -86 -105 -106c17 -24 51 -36 102 -36c62 0 116 43 140 85 c9 16 13 41 13 74c0 20 -1 42 -5 67c-8 53 -18 106 -26 159zM461 939c-95 0 -135 -175 -135 -286c0 -24 2 -48 5 -71c50 39 92 82 127 128c40 53 60 100 60 140v8c-4 53 -22 81 -55 81h-2zM406 119l54 -326c73 25 110 78 110 161c0 7 0 15 -1 23c-7 95 -57 142 -151 142h-12 zM382 117c-72 -2 -128 -47 -128 -120v-7c2 -46 43 -99 75 -115c-3 -2 -7 -5 -10 -10c-70 33 -116 88 -123 172v11c0 68 44 126 88 159c23 17 49 29 78 36l-29 170c-21 -13 -52 -37 -92 -73c-50 -44 -86 -84 -109 -119c-45 -69 -67 -130 -67 -182v-13c5 -68 35 -127 93 -176 s125 -73 203 -73c25 0 50 3 75 9c-19 111 -36 221 -54 331z"/></g><g id="E260-t1h3e85e"><path transform="scale(1,-1)" d="M20 110c32 16 54 27 93 27c26 0 35 -3 54 -13c13 -7 24 -20 27 -38l4 -25c0 -28 -16 -57 -45 -89c-23 -25 -39 -44 -65 -68l-88 -79v644h20v-359zM90 106c-32 0 -48 -10 -70 -29v-194c31 31 54 59 71 84c21 32 32 59 32 84c0 9 1 16 1 20c0 14 -3 21 -11 30l-8 3z"/></g><g id="E08A-t1h3e85e"><path transform="scale(1,-1)" d="M340 179c-9 24 -56 41 -89 41c-46 0 -81 -28 -100 -58c-17 -28 -25 -78 -25 -150c0 -65 2 -111 8 -135c8 -31 18 -49 40 -67c20 -17 43 -25 70 -25c54 0 92 36 115 75c14 25 23 54 28 88h27c0 -63 -24 -105 -58 -141c-35 -38 -82 -56 -140 -56c-45 0 -83 13 -115 39 c-57 45 -101 130 -101 226c0 59 33 127 68 163c36 37 97 72 160 72c36 0 93 -21 121 -40c11 -8 23 -17 33 -30c19 -23 27 -48 27 -76c0 -51 -35 -88 -86 -88c-43 0 -76 27 -76 68c0 26 7 35 21 51c15 17 32 27 58 32c7 2 14 7 14 11z"/></g><g id="E0A3-t1h3e85e"><path transform="scale(1,-1)" d="M278 64c0 22 -17 39 -43 39c-12 0 -26 -3 -41 -10c-85 -43 -165 -94 -165 -156c5 -25 15 -32 49 -32c67 11 200 95 200 159zM0 -36c0 68 73 174 200 174c66 0 114 -39 114 -97c0 -84 -106 -173 -218 -173c-64 0 -96 32 -96 96z"/></g><g id="E4E4-t1h3e85e"><path transform="scale(1,-1)" d="M0 10v105c0 9 1 10 10 10h280c9 0 10 -1 10 -10v-105c0 -9 -1 -10 -10 -10h-280c-9 0 -10 1 -10 10z"/></g><g id="E081-t1h3e85e"><path transform="scale(1,-1)" d="M68 -250v36c23 0 40 6 49 18c8 14 12 33 12 57v250l-82 -129l-27 13l107 255h128v-394c0 -24 5 -42 14 -53s25 -17 47 -17v-36h-248z"/></g><g id="E085-t1h3e85e"><path transform="scale(1,-1)" d="M161 38c-14 0 -56 -5 -92 -51h-32l5 263c55 -11 108 -18 158 -18c40 0 85 6 134 17c-8 -52 -39 -114 -159 -114l-50 2c-19 2 -31 4 -49 10l-5 -111c38 26 81 39 129 39c94 0 177 -64 177 -159c0 -100 -98 -166 -211 -166c-88 0 -146 53 -146 115c0 53 39 83 75 83 c37 0 69 -32 69 -72c0 -4 -1 -10 -4 -18l-27 -37c-2 -3 -3 -8 -3 -14c0 -15 12 -23 36 -23c74 0 92 77 92 132s-35 122 -97 122z"/></g></defs><style type="text/css">#t1h3e85e g.page-margin {font-family:Times,serif;}#t1h3e85e g.ending, #t1h3e85e g.fing, #t1h3e85e g.reh, #t1h3e85e g.tempo {font-weight:bold;}#t1h3e85e g.dir, #t1h3e85e g.dynam, #t1h3e85e g.mNum {font-style:italic;}#t1h3e85e g.label {font-weight:normal;}#t1h3e85e path {stroke:currentColor}</style><svg class="definition-scale" color="black" viewBox="0 0 14000 2100"><g class="page-margin" transform="translate(0, 150)"><g data-id="xnjpgd6" data-class="mdiv" class="mdiv pageMilestone"/><g data-id="ywqyy8v" data-class="score" class="score pageMilestone"/><g data-id="q9m1jn" data-class="system" class="system"><g data-id="a1ybtkz6" data-class="section" class="section systemMilestone"/><g data-id="u1kjeoi7" data-class="measure" class="measure"><g data-id="mf8ufj4" data-class="staff" class="staff"><path d="M0 540 L4046 540" stroke-width="13"/><path d="M0 720 L4046 720" stroke-width="13"/><path d="M0 900 L4046 900" stroke-width="13"/><path d="M0 1080 L4046 1080" stroke-width="13"/><path d="M0 1260 L4046 1260" stroke-width="13"/><g data-id="xmgese4" data-class="clef" class="clef"><use href="#E050-t1h3e85e" transform="translate(90, 1080) scale(0.72, 0.72)"/></g><g data-id="yuqy9xw" data-class="keySig" class="keySig"><g data-id="z1mkklhw" data-class="keyAccid" class="keyAccid"><use href="#E260-t1h3e85e" transform="translate(735, 900) scale(0.72, 0.72)"/></g></g><g data-id="ade0vjv" data-class="meterSig" class="meterSig"><use href="#E08A-t1h3e85e" transform="translate(1057, 900) scale(0.72, 0.72)"/></g><g data-id="n1chwcqo" data-class="layer" class="layer"><g data-id="q3iixmj" data-class="note" class="note"><g data-class="notehead" class="notehead"><use href="#E0A3-t1h3e85e" transform="translate(1650, 1350) scale(0.72, 0.72)"/></g><g data-id="h1oidjwv" data-class="stem" class="stem"><path d="M1867 1322 L1867 720" stroke-width="18"/></g></g><g data-id="ogq5vis" data-class="rest" class="rest"><use href="#E4E4-t1h3e85e" transform="translate(2841, 900) scale(0.72, 0.72)"/><g data-class="ledgerLines" class="ledgerLines"/></g></g></g><g data-id="cb3vb9" data-class="barLine" class="barLine"><path d="M4033 540 L4033 1260" stroke-width="27"/></g></g><g data-id="d1mcyikt" data-class="measure" class="measure"><g data-id="osxep1w" data-class="staff" class="staff"><path d="M4046 540 L6199 540" stroke-width="13"/><path d="M4046 720 L6199 720" stroke-width="13"/><path d="M4046 900 L6199 900" stroke-width="13"/><path d="M4046 1080 L6199 1080" stroke-width="13"/><path d="M4046 1260 L6199 1260" stroke-width="13"/><g data-id="p1rbtcu5" data-class="layer" class="layer"><g data-id="n4u9zew" data-class="multiRest" class="multiRest"><rect stroke-opacity="1" fill-opacity="1" x="4226" y="810" height="180" width="1766"/><rect stroke-opacity="1" fill-opacity="1" x="4226" y="720" height="360" width="36"/><rect stroke-opacity="1" fill-opacity="1" x="5956" y="720" height="360" width="36"/><use href="#E081-t1h3e85e" transform="translate(4845, 270) scale(0.72, 0.72)"/><use href="#E085-t1h3e85e" transform="translate(5086, 270) scale(0.72, 0.72)"/></g></g></g><g data-id="l1a4ygt9" data-class="barLine" class="barLine"><path d="M6186 540 L6186 1260" stroke-width="27"/></g></g><g data-id="m4mse6o" data-class="measure" class="measure"><g data-id="q14tvdsw" data-class="staff" class="staff"><path d="M6199 540 L8800 540" stroke-width="13"/><path d="M6199 720 L8800 720" stroke-width="13"/><path d="M6199 900 L8800 900" stroke-width="13"/><path d="M6199 1080 L8800 1080" stroke-width="13"/><path d="M6199 1260 L8800 1260" stroke-width="13"/><g data-id="rkcdmu1" data-class="layer" class="layer"><g data-id="p1efrvdi" data-class="rest" class="rest"><use href="#E4E4-t1h3e85e" transform="translate(6404, 900) scale(0.72, 0.72)"/><g data-class="ledgerLines" class="ledgerLines"/></g><g data-id="rv1s26u" data-class="note" class="note"><g data-class="notehead" class="notehead"><use href="#E0A3-t1h3e85e" transform="translate(7595, 720) scale(0.72, 0.72)"/></g><g data-id="i1jyv06j" data-class="stem" class="stem"><path d="M7604 745 L7604 1350" stroke-width="18"/></g></g></g></g><g data-id="u10s2vbz" data-class="barLine" class="barLine"><path d="M8787 540 L8787 1260" stroke-width="27"/></g></g><g data-id="vvegobl" data-class="measure" class="measure"><g data-id="s9ks7or" data-class="staff" class="staff"><path d="M8800 540 L11401 540" stroke-width="13"/><path d="M8800 720 L11401 720" stroke-width="13"/><path d="M8800 900 L11401 900" stroke-width="13"/><path d="M8800 1080 L11401 1080" stroke-width="13"/><path d="M8800 1260 L11401 1260" stroke-width="13"/><g data-class="ledgerLines" class="ledgerLines above"><g data-class="lineDash" class="lineDash" data-related="#s1m2rq2u"><path d="M8957 360 L9279 360" stroke-width="22"/></g></g><g data-id="tzgn2mo" data-class="layer" class="layer"><g data-id="s1m2rq2u" data-class="note" class="note"><g data-class="notehead" class="notehead"><use href="#E0A3-t1h3e85e" transform="translate(9005, 360) scale(0.72, 0.72)"/></g><g data-id="j16pxrkz" data-class="stem" class="stem"><path d="M9014 385 L9014 990" stroke-width="18"/></g></g><g data-id="t1yn3l48" data-class="note" class="note"><g data-class="notehead" class="notehead"><use href="#E0A3-t1h3e85e" transform="translate(10196, 450) scale(0.72, 0.72)"/></g><g data-id="kmfs930" data-class="stem" class="stem"><path d="M10205 475 L10205 1080" stroke-width="18"/></g></g></g></g><g data-id="d1vb5y3t" data-class="barLine" class="barLine"><path d="M11388 540 L11388 1260" stroke-width="27"/></g></g><g data-id="ekiaukl" data-class="measure" class="measure"><g data-id="u8ts33t" data-class="staff" class="staff"><path d="M11401 540 L14002 540" stroke-width="13"/><path d="M11401 720 L14002 720" stroke-width="13"/><path d="M11401 900 L14002 900" stroke-width="13"/><path d="M11401 1080 L14002 1080" stroke-width="13"/><path d="M11401 1260 L14002 1260" stroke-width="13"/><g data-class="ledgerLines" class="ledgerLines above"><g data-class="lineDash" class="lineDash" data-related="#u19tq12q"><path d="M11558 360 L11880 360" stroke-width="22"/></g></g><g data-id="v7wcco" data-class="layer" class="layer"><g data-id="u19tq12q" data-class="note" class="note"><g data-class="notehead" class="notehead"><use href="#E0A3-t1h3e85e" transform="translate(11606, 360) scale(0.72, 0.72)"/></g><g data-id="l10gqors" data-class="stem" class="stem"><path d="M11615 385 L11615 990" stroke-width="18"/></g></g><g data-id="v15butc3" data-class="note" class="note"><g data-class="notehead" class="notehead"><use href="#E0A3-t1h3e85e" transform="translate(12797, 630) scale(0.72, 0.72)"/></g><g data-id="mkfgiei" data-class="stem" class="stem"><path d="M12806 655 L12806 1260" stroke-width="18"/></g></g></g></g><g data-id="mt0ubu1" data-class="barLine" class="barLine"><path d="M13989 540 L13989 1260" stroke-width="27"/></g></g><g data-id="dsu7rl7" data-class="systemMilestoneEnd" class="systemMilestoneEnd a1ybtkz6"/></g><g data-id="e7ziuwf" data-class="pageMilestoneEnd" class="pageMilestoneEnd ywqyy8v"/><g data-id="far7q0t" data-class="pageMilestoneEnd" class="pageMilestoneEnd xnjpgd6"/></g></svg></svg>