<svg viewBox="0 0 560 84" version="1.1" xmlns="http://www.w3.org/2000/svg" xmlns:xlink="http://www.w3.org/1999/xlink" overflow="visible" id="xiwh26"><desc>Engraved by Verovio 5.6.0-85e7620</desc><defs><g id="E050-xiwh26"><path transform="scale(1,-1)" d="M441 -245c-23 -4 -48 -6 -76 -6c-59 0 -102 7 -130 20c-88 42 -150 93 -187 154c-26 44 -43 103 -48 176c0 6 -1 13 -1 19c0 54 15 111 45 170c29 57 65 106 110 148s96 85 153 127c-3 16 -8 46 -13 92c-4 43 -5 73 -5 89c0 117 16 172 69 257c34 54 64 82 89 82 c21 0 43 -30 69 -92s39 -115 41 -159v-15c0 -109 -21 -162 -67 -241c-13 -20 -63 -90 -98 -118c-13 -9 -25 -19 -37 -29l31 -181c8 1 18 2 28 2c58 0 102 -12 133 -35c59 -43 92 -104 98 -184c1 -7 1 -15 1 -22c0 -123 -87 -209 -181 -248c8 -57 17 -110 25 -162 c5 -31 6 -58 6 -80c0 -30 -5 -53 -14 -70c-35 -64 -88 -99 -158 -103c-5 0 -11 -1 -16 -1c-37 0 -72 10 -108 27c-50 24 -77 59 -80 105v11c0 29 7 55 20 76c18 28 45 42 79 44h6c49 0 93 -42 97 -87v-9c0 -51 -34 -86 -105 -106c17 -24 51 -36 102 -36c62 0 116 43 140 85 c9 16 13 41 13 74c0 20 -1 42 -5 67c-8 53 -18 106 -26 159zM461 939c-95 0 -135 -175 -135 -286c0 -24 2 -48 5 -71c50 39 92 82 127 128c40 53 60 100 60 140v8c-4 53 -22 81 -55 81h-2zM406 119l54 -326c73 25 110 78 110 161c0 7 0 15 -1 23c-7 95 -57 142 -151 142h-12 zM382 117c-72 -2 -128 -47 -128 -120v-7c2 -46 43 -99 75 -115c-3 -2 -7 -5 -10 -10c-70 33 -116 88 -123 172v11c0 68 44 126 88 159c23 17 49 29 78 36l-29 170c-21 -13 -52 -37 -92 -73c-50 -44 -86 -84 -109 -119c-45 -69 -67 -130 -67 -182v-13c5 -68 35 -127 93 -176 s125 -73 203 -73c25 0 50 3 75 9c-19 111 -36 221 -54 331z"/></g><g id="E260-xiwh26"><path transform="scale(1,-1)" d="M20 110c32 16 54 27 93 27c26 0 35 -3 54 -13c13 -7 24 -20 27 -38l4 -25c0 -28 -16 -57 -45 -89c-23 -25 -39 -44 -65 -68l-88 -79v644h20v-359zM90 106c-32 0 -48 -10 -70 -29v-194c31 31 54 59 71 84c21 32 32 59 32 84c0 9 1 16 1 20c0 14 -3 21 -11 30l-8 3z"/></g><g id="E082-xiwh26"><path transform="scale(1,-1)" d="M124 -185c-18 0 -55 -14 -65 -65h-36l-3 30c0 25 6 45 18 63c11 19 22 30 39 43l121 82l37 29c15 11 27 29 38 54c12 24 18 47 18 70c0 40 -19 88 -94 88c-25 0 -32 0 -50 -8c-14 -5 -23 -12 -26 -22c3 -9 7 -15 10 -18l24 -17c12 -7 17 -11 27 -21c5 -7 7 -16 7 -27 c0 -12 0 -57 -79 -74c-30 0 -76 26 -76 94c0 66 81 135 197 135c72 0 181 -32 181 -150c0 -53 -32 -95 -113 -133l-91 -41c-26 -11 -45 -23 -57 -37l49 7c84 0 115 -41 148 -41c20 0 33 20 39 61h35c0 -152 -68 -168 -114 -168c-17 0 -65 0 -79 7h10l-28 17 c-49 37 -69 40 -87 42z"/></g><g id="E084-xiwh26"><path transform="scale(1,-1)" d="M20 -78c84 97 114 180 134 329h170c-13 -32 -82 -132 -99 -151l-84 -97c-33 -36 -59 -63 -80 -81h162v102l127 123v-225h57v-39h-57v-34c0 -43 19 -65 57 -65v-34h-244v36c48 0 60 26 60 70v27h-203v39z"/></g><g id="E0A4-xiwh26"><path transform="scale(1,-1)" d="M0 -39c0 68 73 172 200 172c66 0 114 -37 114 -95c0 -84 -106 -171 -218 -171c-64 0 -96 30 -96 94z"/></g><g id="E241-xiwh26"><path transform="scale(1,-1)" d="M179 646c-4 8 -17 30 -18 33l-4 10c0 3 2 5 5 5s7 -2 13 -7c23 -33 46 -81 66 -132c22 -57 35 -125 35 -163c0 -104 -60 -183 -122 -241c-63 -59 -57 -53 -61 -56c-38 -34 -63 -95 -71 -95h-22v190c40 7 69 11 87 16c88 27 168 95 168 200c0 30 -12 89 -30 138 c-17 47 -31 73 -46 102z"/></g><g id="E240-xiwh26"><path transform="scale(1,-1)" d="M179 -646c15 29 29 55 46 102c18 49 30 108 30 138c0 105 -80 173 -168 200c-18 5 -47 9 -87 16v190h22c8 0 33 -61 71 -95c4 -3 -2 3 61 -56c62 -58 122 -137 122 -241c0 -38 -13 -106 -35 -163c-20 -51 -43 -99 -66 -132c-6 -5 -10 -7 -13 -7s-5 2 -5 5l4 10 c1 3 14 25 18 33z"/></g><g id="E242-xiwh26"><path transform="scale(1,-1)" d="M206 -748c32 48 49 100 49 149c0 89 -55 168 -168 203c-18 5 -47 9 -87 16v190v190h22c8 0 33 -61 71 -95c4 -3 -2 3 61 -56c62 -58 122 -137 122 -241c0 -32 -7 -65 -17 -96c11 -29 17 -60 17 -94c0 -71 -32 -148 -67 -190c-6 -5 -10 -7 -13 -7s-5 2 -5 5l4 10 c1 3 6 8 11 16zM248 -463c4 18 7 38 7 57c0 105 -80 173 -168 200c-11 3 -27 6 -47 9c9 -17 23 -61 53 -88c4 -3 -2 3 61 -56c36 -33 71 -74 94 -122z"/></g></defs><style type="text/css">#xiwh26 g.page-margin {font-family:Times,serif;}#xiwh26 g.ending, #xiwh26 g.fing, #xiwh26 g.reh, #xiwh26 g.tempo {font-weight:bold;}#xiwh26 g.dir, #xiwh26 g.dynam, #xiwh26 g.mNum {font-style:italic;}#xiwh26 g.label {font-weight:normal;}#xiwh26 path {stroke:currentColor}</style><svg class="definition-scale" color="black" viewBox="0 0 14000 2100"><g class="page-margin" transform="translate(0, 150)"><g data-id="lseqra7" data-class="mdiv" class="mdiv pageMilestone"/><g data-id="myglft5" data-class="score" class="score pageMilestone"/><g data-id="mb4r4vo" data-class="system" class="system"><g data-id="o1dop91i" data-class="section" class="section systemMilestone"/><g data-id="y1bdjq8i" data-class="measure" class="measure"><g data-id="a1y7io8" data-class="staff" class="staff"><path d="M0 540 L2319 540" stroke-width="13"/><path d="M0 720 L2319 720" stroke-width="13"/><path d="M0 900 L2319 900" stroke-width="13"/><path d="M0 1080 L2319 1080" stroke-width="13"/><path d="M0 1260 L2319 1260" stroke-width="13"/><g data-id="tzm7gii" data-class="clef" class="clef"><use href="#E050-xiwh26" transform="translate(90, 1080) scale(0.72, 0.72)"/></g><g data-id="u1v4axd3" data-class="keySig" class="keySig"><g data-id="vvmv2ny" data-class="keyAccid" class="keyAccid"><use href="#E260-xiwh26" transform="translate(735, 900) scale(0.72, 0.72)"/></g></g><g data-id="wl9tnpq" data-class="meterSig" class="meterSig"><use href="#E082-xiwh26" transform="translate(1043, 720) scale(0.72, 0.72)"/><use href="#E084-xiwh26" transform="translate(1048, 1080) scale(0.72, 0.72)"/></g><g data-id="bqmewwl" data-class="layer" class="layer"><g data-id="r1l3slas" data-class="note" class="note"><g data-class="notehead" class="notehead"><use href="#E0A4-xiwh26" transform="translate(1616, 810) scale(0.72, 0.72)"/></g><g data-id="vmqtg8r" data-class="stem" class="stem"><path d="M1625 838 L1625 1440" stroke-width="18"/></g></g></g></g><g data-id="g1ynaikl" data-class="barLine" class="barLine"><path d="M2306 540 L2306 1260" stroke-width="27"/></g></g><g data-id="h4o5k1k" data-class="measure" class="measure"><g data-id="c1izk1tp" data-class="staff" class="staff"><path d="M2319 540 L4358 540" stroke-width="13"/><path d="M2319 720 L4358 720" stroke-width="13"/><path d="M2319 900 L4358 900" stroke-width="13"/><path d="M2319 1080 L4358 1080" stroke-width="13"/><path d="M2319 1260 L4358 1260" stroke-width="13"/><g data-id="d1m9dfso" data-class="layer" class="layer"><g data-id="sf1lv3w" data-class="note" class="note"><g data-class="notehead" class="notehead"><use href="#E0A4-xiwh26" transform="translate(2499, 900) scale(0.72, 0.72)"/></g><g data-id="w6n4rit" data-class="stem" class="stem"><path d="M2508 928 L2508 1500" stroke-width="18"/><g data-id="x1lzmd85" data-class="flag" class="flag"><use href="#E241-xiwh26" transform="translate(2499, 1500) scale(0.72, 0.72)"/></g></g><g data-id="g1nnfzdd" data-class="accid" class="accid"/></g><g data-id="t5xpc6o" data-class="note" class="note"><g data-class="notehead" class="notehead"><use href="#E0A4-xiwh26" transform="translate(2949, 990) scale(0.72, 0.72)"/></g><g data-id="y1wyyx2b" data-class="stem" class="stem"><path d="M3166 962 L3166 360" stroke-width="18"/><g data-id="zmx5ubt" data-class="flag" class="flag"><use href="#E240-xiwh26" transform="translate(3157, 360) scale(0.72, 0.72)"/></g></g></g><g data-id="uuwuxte" data-class="note" class="note"><g data-class="notehead" class="notehead"><use href="#E0A4-xiwh26" transform="translate(3445, 900) scale(0.72, 0.72)"/></g><g data-id="am70d00" data-class="stem" class="stem"><path d="M3454 928 L3454 1500" stroke-width="18"/><g data-id="bgbt6ts" data-class="flag" class="flag"><use href="#E241-xiwh26" transform="translate(3445, 1500) scale(0.72, 0.72)"/></g></g><g data-id="hyd6bsu" data-class="accid" class="accid"/></g><g data-id="vdnnw1u" data-class="note" class="note"><g data-class="notehead" class="notehead"><use href="#E0A4-xiwh26" transform="translate(3895, 810) scale(0.72, 0.72)"/></g><g data-id="c1lxbfs3" data-class="stem" class="stem"><path d="M3904 838 L3904 1440" stroke-width="18"/><g data-id="d10apfbi" data-class="flag" class="flag"><use href="#E241-xiwh26" transform="translate(3895, 1440) scale(0.72, 0.72)"/></g></g></g></g></g><g data-id="pscxuy3" data-class="barLine" class="barLine"><path d="M4345 540 L4345 1260" stroke-width="27"/></g></g><g data-id="q6t1vuo" data-class="measure" class="measure"><g data-id="e15sgew3" data-class="staff" class="staff"><path d="M4358 540 L6141 540" stroke-width="13"/><path d="M4358 720 L6141 720" stroke-width="13"/><path d="M4358 900 L6141 900" stroke-width="13"/><path d="M4358 1080 L6141 1080" stroke-width="13"/><path d="M4358 1260 L6141 1260" stroke-width="13"/><g data-id="f1vqt15b" data-class="layer" class="layer"><g data-id="weucm5u" data-class="note" class="note"><g data-class="notehead" class="notehead"><use href="#E0A4-xiwh26" transform="translate(4538, 720) scale(0.72, 0.72)"/></g><g data-id="esgsivs" data-class="stem" class="stem"><path d="M4547 748 L4547 1350" stroke-width="18"/></g></g><g data-id="xyfnb0f" data-class="note" class="note"><g data-class="notehead" class="notehead"><use href="#E0A4-xiwh26" transform="translate(5228, 720) scale(0.72, 0.72)"/></g><g data-id="fumtemc" data-class="stem" class="stem"><path d="M5237 748 L5237 1350" stroke-width="18"/><g data-id="gopr3nw" data-class="flag" class="flag"><use href="#E241-xiwh26" transform="translate(5228, 1350) scale(0.72, 0.72)"/></g></g></g><g data-id="y1ahsyw3" data-class="note" class="note"><g data-class="notehead" class="notehead"><use href="#E0A4-xiwh26" transform="translate(5678, 540) scale(0.72, 0.72)"/></g><g data-id="h16xnjpn" data-class="stem" class="stem"><path d="M5687 568 L5687 1170" stroke-width="18"/><g data-id="i13zq9aa" data-class="flag" class="flag"><use href="#E241-xiwh26" transform="translate(5678, 1170) scale(0.72, 0.72)"/></g></g></g></g></g><g data-id="y1cuwg5h" data-class="barLine" class="barLine"><path d="M6128 540 L6128 1260" stroke-width="27"/></g></g><g data-id="z1fwdmxe" data-class="measure" class="measure"><g data-id="g7tae0e" data-class="staff" class="staff"><path d="M6141 540 L8134 540" stroke-width="13"/><path d="M6141 720 L8134 720" stroke-width="13"/><path d="M6141 900 L8134 900" stroke-width="13"/><path d="M6141 1080 L8134 1080" stroke-width="13"/><path d="M6141 1260 L8134 1260" stroke-width="13"/><g data-id="h1gtdrua" data-class="layer" class="layer"><g data-id="z1qolsq6" data-class="note" class="note"><g data-class="notehead" class="notehead"><use href="#E0A4-xiwh26" transform="translate(6321, 630) scale(0.72, 0.72)"/></g><g data-id="ju2aer" data-class="stem" class="stem"><path d="M6330 658 L6330 1260" stroke-width="18"/><g data-id="k1nxoqi5" data-class="flag" class="flag"><use href="#E241-xiwh26" transform="translate(6321, 1260) scale(0.72, 0.72)"/></g></g></g><g data-id="af94576" data-class="note" class="note"><g data-class="notehead" class="notehead"><use href="#E0A4-xiwh26" transform="translate(6771, 720) scale(0.72, 0.72)"/></g><g data-id="lzhfmd7" data-class="stem" class="stem"><path d="M6780 748 L6780 1350" stroke-width="18"/><g data-id="m716snj" data-class="flag" class="flag"><use href="#E241-xiwh26" transform="translate(6771, 1350) scale(0.72, 0.72)"/></g></g></g><g data-id="b1rabicf" data-class="note" class="note"><g data-class="notehead" class="notehead"><use href="#E0A4-xiwh26" transform="translate(7221, 810) scale(0.72, 0.72)"/></g><g data-id="n1w94qds" data-class="stem" class="stem"><path d="M7230 838 L7230 1440" stroke-width="18"/><g data-id="o1i96oio" data-class="flag" class="flag"><use href="#E241-xiwh26" transform="translate(7221, 1440) scale(0.72, 0.72)"/></g></g></g><g data-id="cb8u51t" data-class="note" class="note"><g data-class="notehead" class="notehead"><use href="#E0A4-xiwh26" transform="translate(7671, 900) scale(0.72, 0.72)"/></g><g data-id="p1cqxijb" data-class="stem" class="stem"><path d="M7680 928 L7680 1500" stroke-width="18"/><g data-id="q1if1890" data-class="flag" class="flag"><use href="#E241-xiwh26" transform="translate(7671, 1500) scale(0.72, 0.72)"/></g></g><g data-id="i1cvlxui" data-class="accid" class="accid"/></g></g></g><g data-id="hq349u3" data-class="barLine" class="barLine"><path d="M8121 540 L8121 1260" stroke-width="27"/></g></g><g data-id="i185y8bj" data-class="measure" class="measure"><g data-id="ie7et3c" data-class="staff" class="staff"><path d="M8134 540 L10068 540" stroke-width="13"/><path d="M8134 720 L10068 720" stroke-width="13"/><path d="M8134 900 L10068 900" stroke-width="13"/><path d="M8134 1080 L10068 1080" stroke-width="13"/><path d="M8134 1260 L10068 1260" stroke-width="13"/><g data-id="jjwja7f" data-class="layer" class="layer"><g data-id="d1yq3na6" data-class="note" class="note"><g data-class="notehead" class="notehead"><use href="#E0A4-xiwh26" transform="translate(8314, 900) scale(0.72, 0.72)"/></g><g data-id="s1suslbb" data-class="dots" class="dots"><ellipse cx="8630" cy="810" rx="36" ry="36" fill-opacity="1" stroke-opacity="1"/></g><g data-id="rgh2gvd" data-class="stem" class="stem"><path d="M8323 928 L8323 1500" stroke-width="18"/><g data-id="tpfkr68" data-class="flag" class="flag"><use href="#E241-xiwh26" transform="translate(8314, 1500) scale(0.72, 0.72)"/></g></g><g data-id="jn4sm71" data-class="accid" class="accid"/></g><g data-id="e1gecgbj" data-class="note" class="note"><g data-class="notehead" class="notehead"><use href="#E0A4-xiwh26" transform="translate(8894, 990) scale(0.72, 0.72)"/></g><g data-id="u1urkrv3" data-class="stem" class="stem"><path d="M9111 962 L9111 360" stroke-width="18"/><g data-id="v9qdcqt" data-class="flag" class="flag"><use href="#E242-xiwh26" transform="translate(9102, 360) scale(0.72, 0.72)"/></g></g></g><g data-id="f1oohdsb" data-class="note" class="note"><g data-class="notehead" class="notehead"><use href="#E0A4-xiwh26" transform="translate(9365, 990) scale(0.72, 0.72)"/></g><g data-id="w1dm690o" data-class="stem" class="stem"><path d="M9582 962 L9582 360" stroke-width="18"/></g></g></g></g><g data-id="q4ejhwk" data-class="barLine" class="barLine"><path d="M10055 540 L10055 1260" stroke-width="27"/></g></g><g data-id="ryaxu96" data-class="systemMilestoneEnd" class="systemMilestoneEnd o1dop91i"/></g><g data-id="sbu85it" data-class="pageMilestoneEnd" class="pageMilestoneEnd myglft5"/><g data-id="t4qtk7y" data-class="pageMilestoneEnd" class="pageMilestoneEnd lseqra7"/></g></svg></svg>