<svg viewBox="0 0 560 84" version="1.1" xmlns="http://www.w3.org/2000/svg" xmlns:xlink="http://www.w3.org/1999/xlink" overflow="visible" id="i6yme0e"><desc>Engraved by Verovio 5.6.0-85e7620</desc><defs><g id="E050-i6yme0e"><path transform="scale(1,-1)" d="M441 -245c-23 -4 -48 -6 -76 -6c-59 0 -102 7 -130 20c-88 42 -150 93 -187 154c-26 44 -43 103 -48 176c0 6 -1 13 -1 19c0 54 15 111 45 170c29 57 65 106 110 148s96 85 153 127c-3 16 -8 46 -13 92c-4 43 -5 73 -5 89c0 117 16 172 69 257c34 54 64 82 89 82 c21 0 43 -30 69 -92s39 -115 41 -159v-15c0 -109 -21 -162 -67 -241c-13 -20 -63 -90 -98 -118c-13 -9 -25 -19 -37 -29l31 -181c8 1 18 2 28 2c58 0 102 -12 133 -35c59 -43 92 -104 98 -184c1 -7 1 -15 1 -22c0 -123 -87 -209 -181 -248c8 -57 17 -110 25 -162 c5 -31 6 -58 6 -80c0 -30 -5 -53 -14 -70c-35 -64 -88 -99 -158 -103c-5 0 -11 -1 -16 -1c-37 0 -72 10 -108 27c-50 24 -77 59 -80 105v11c0 29 7 55 20 76c18 28 45 42 79 44h6c49 0 93 -42 97 -87v-9c0 -51 -34 -86 -105 -106c17 -24 51 -36 102 -36c62 0 116 43 140 85 c9 16 13 41 13 74c0 20 -1 42 -5 67c-8 53 -18 106 -26 159zM461 939c-95 0 -135 -175 -135 -286c0 -24 2 -48 5 -71c50 39 92 82 127 128c40 53 60 100 60 140v8c-4 53 -22 81 -55 81h-2zM406 119l54 -326c73 25 110 78 110 161c0 7 0 15 -1 23c-7 95 -57 142 -151 142h-12 zM382 117c-72 -2 -128 -47 -128 -120v-7c2 -46 43 -99 75 -115c-3 -2 -7 -5 -10 -10c-70 33 -116 88 -123 172v11c0 68 44 126 88 159c23 17 49 29 78 36l-29 170c-21 -13 -52 -37 -92 -73c-50 -44 -86 -84 -109 -119c-45 -69 -67 -130 -67 -182v-13c5 -68 35 -127 93 -176 s125 -73 203 -73c25 0 50 3 75 9c-19 111 -36 221 -54 331z"/></g><g id="E260-i6yme0e"><path transform="scale(1,-1)" d="M20 110c32 16 54 27 93 27c26 0 35 -3 54 -13c13 -7 24 -20 27 -38l4 -25c0 -28 -16 -57 -45 -89c-23 -25 -39 -44 -65 -68l-88 -79v644h20v-359zM90 106c-32 0 -48 -10 -70 -29v-194c31 31 54 59 71 84c21 32 32 59 32 84c0 9 1 16 1 20c0 14 -3 21 -11 30l-8 3z"/></g><g id="E08A-i6yme0e"><path transform="scale(1,-1)" d="M340 179c-9 24 -56 41 -89 41c-46 0 -81 -28 -100 -58c-17 -28 -25 -78 -25 -150c0 -65 2 -111 8 -135c8 -31 18 -49 40 -67c20 -17 43 -25 70 -25c54 0 92 36 115 75c14 25 23 54 28 88h27c0 -63 -24 -105 -58 -141c-35 -38 -82 -56 -140 -56c-45 0 -83 13 -115 39 c-57 45 -101 130 -101 226c0 59 33 127 68 163c36 37 97 72 160 72c36 0 93 -21 121 -40c11 -8 23 -17 33 -30c19 -23 27 -48 27 -76c0 -51 -35 -88 -86 -88c-43 0 -76 27 -76 68c0 26 7 35 21 51c15 17 32 27 58 32c7 2 14 7 14 11z"/></g><g id="E4E3-i6yme0e"><path transform="scale(1,-1)" d="M0 -115v105c0 9 1 10 10 10h280c9 0 10 -1 10 -10v-105c0 -9 -1 -10 -10 -10h-280c-9 0 -10 1 -10 10z"/></g><g id="E4E4-i6yme0e"><path transform="scale(1,-1)" d="M0 10v105c0 9 1 10 10 10h280c9 0 10 -1 10 -10v-105c0 -9 -1 -10 -10 -10h-280c-9 0 -10 1 -10 10z"/></g><g id="E4E5-i6yme0e"><path transform="scale(1,-1)" d="M107 292c-13 24 -30 49 -52 71c-1 1 0 2 0 3l-2 2c3 3 4 4 6 4c12 0 26 -7 40 -20s44 -40 89 -81c26 -24 28 -29 46 -47c4 -4 8 -9 10 -14c6 -8 8 -16 8 -27c0 -19 -12 -40 -36 -61c-28 -23 -49 -38 -61 -73c-4 -11 -7 -27 -10 -50c13 -43 34 -83 59 -121 c31 -47 59 -79 101 -129c-8 0 -26 7 -54 20l-62 29l-21 6l-23 1c-25 0 -45 -10 -60 -30l-4 -14l-1 -12c0 -33 20 -56 39 -78c8 -9 17 -18 26 -26c17 -15 27 -24 28 -30l-3 -3c-11 5 -19 10 -25 15c-9 3 -37 21 -45 26c-24 14 -45 32 -63 51c-19 21 -37 44 -37 71 c0 63 27 95 80 95c41 0 86 -18 136 -52c-19 26 -37 48 -55 66c-23 23 -48 44 -73 65c-28 23 -47 40 -58 53s-17 26 -18 39c75 64 113 125 113 183c0 27 -7 48 -18 68z"/></g><g id="E0A4-i6yme0e"><path transform="scale(1,-1)" d="M0 -39c0 68 73 172 200 172c66 0 114 -37 114 -95c0 -84 -106 -171 -218 -171c-64 0 -96 30 -96 94z"/></g></defs><style type="text/css">#i6yme0e g.page-margin {font-family:Times,serif;}#i6yme0e g.ending, #i6yme0e g.fing, #i6yme0e g.reh, #i6yme0e g.tempo {font-weight:bold;}#i6yme0e g.dir, #i6yme0e g.dynam, #i6yme0e g.mNum {font-style:italic;}#i6yme0e g.label {font-weight:normal;}#i6yme0e path {stroke:currentColor}</style><svg class="definition-scale" color="black" viewBox="0 0 14000 2100"><g class="page-margin" transform="translate(0, 150)"><g data-id="c1tumiyl" data-class="mdiv" class="mdiv pageMilestone"/><g data-id="dv6ecat" data-class="score" class="score pageMilestone"/><g data-id="ot3xdaq" data-class="system" class="system"><g data-id="f1m03vdm" data-class="section" class="section systemMilestone"/><g data-id="j14eut8e" data-class="measure" class="measure"><g data-id="rg6u3hm" data-class="staff" class="staff"><path d="M0 540 L3865 540" stroke-width="13"/><path d="M0 720 L3865 720" stroke-width="13"/><path d="M0 900 L3865 900" stroke-width="13"/><path d="M0 1080 L3865 1080" stroke-width="13"/><path d="M0 1260 L3865 1260" stroke-width="13"/><g data-id="s1i5fbtj" data-class="clef" class="clef"><use href="#E050-i6yme0e" transform="translate(90, 1080) scale(0.72, 0.72)"/></g><g data-id="tj67coh" data-class="keySig" class="keySig"><g data-id="u5itdgg" data-class="keyAccid" class="keyAccid"><use href="#E260-i6yme0e" transform="translate(735, 900) scale(0.72, 0.72)"/></g><g data-id="vr8imk5" data-class="keyAccid" class="keyAccid"><use href="#E260-i6yme0e" transform="translate(915, 630) scale(0.72, 0.72)"/></g><g data-id="w1mqth9i" data-class="keyAccid" class="keyAccid"><use href="#E260-i6yme0e" transform="translate(1095, 990) scale(0.72, 0.72)"/></g></g><g data-id="xqgshqo" data-class="meterSig" class="meterSig"><use href="#E08A-i6yme0e" transform="translate(1417, 900) scale(0.72, 0.72)"/></g><g data-id="sqamrxe" data-class="layer" class="layer"><g data-id="dmsnenp" data-class="rest" class="rest"><use href="#E4E3-i6yme0e" transform="translate(1996, 720) scale(0.72, 0.72)"/><g data-class="ledgerLines" class="ledgerLines"/></g></g></g><g data-id="r1jeio54" data-class="barLine" class="barLine"><path d="M3852 540 L3852 1260" stroke-width="27"/></g></g><g data-id="s151t4ls" data-class="measure" class="measure"><g data-id="thnu4dt" data-class="staff" class="staff"><path d="M3865 540 L6906 540" stroke-width="13"/><path d="M3865 720 L6906 720" stroke-width="13"/><path d="M3865 900 L6906 900" stroke-width="13"/><path d="M3865 1080 L6906 1080" stroke-width="13"/><path d="M3865 1260 L6906 1260" stroke-width="13"/><g data-id="u1erf0cj" data-class="layer" class="layer"><g data-id="e1kra5ut" data-class="rest" class="rest"><use href="#E4E4-i6yme0e" transform="translate(4056, 900) scale(0.72, 0.72)"/><g data-class="ledgerLines" class="ledgerLines"/></g><g data-id="f14rv70o" data-class="rest" class="rest"><use href="#E4E5-i6yme0e" transform="translate(5281, 900) scale(0.72, 0.72)"/></g><g data-id="gduyqy4" data-class="note" class="note"><g data-class="notehead" class="notehead"><use href="#E0A4-i6yme0e" transform="translate(6087, 1170) scale(0.72, 0.72)"/></g><g data-id="u1367xbz" data-class="stem" class="stem"><path d="M6304 1142 L6304 540" stroke-width="18"/></g></g></g></g><g data-id="a20h9q8" data-class="barLine" class="barLine"><path d="M6893 540 L6893 1260" stroke-width="27"/></g></g><g data-id="b1j4b006" data-class="measure" class="measure"><g data-id="v1ihpc53" data-class="staff" class="staff"><path d="M6906 540 L10332 540" stroke-width="13"/><path d="M6906 720 L10332 720" stroke-width="13"/><path d="M6906 900 L10332 900" stroke-width="13"/><path d="M6906 1080 L10332 1080" stroke-width="13"/><path d="M6906 1260 L10332 1260" stroke-width="13"/><g data-id="wi4f0uc" data-class="layer" class="layer"><g data-id="h18ivb3t" data-class="note" class="note"><g data-class="notehead" class="notehead"><use href="#E0A4-i6yme0e" transform="translate(7097, 1080) scale(0.72, 0.72)"/></g><g data-id="v1la9bxx" data-class="stem" class="stem"><path d="M7314 1052 L7314 450" stroke-width="18"/></g></g><g data-id="i1twacnr" data-class="note" class="note"><g data-class="notehead" class="notehead"><use href="#E0A4-i6yme0e" transform="translate(7903, 1170) scale(0.72, 0.72)"/></g><g data-id="wv8w6vf" data-class="stem" class="stem"><path d="M8120 1142 L8120 540" stroke-width="18"/></g></g><g data-id="j1r7vf43" data-class="note" class="note"><g data-class="notehead" class="notehead"><use href="#E0A4-i6yme0e" transform="translate(8708, 1080) scale(0.72, 0.72)"/></g><g data-id="x1p51hw5" data-class="stem" class="stem"><path d="M8925 1052 L8925 450" stroke-width="18"/></g></g><g data-id="k1xl16at" data-class="note" class="note"><g data-class="notehead" class="notehead"><use href="#E0A4-i6yme0e" transform="translate(9514, 900) scale(0.72, 0.72)"/></g><g data-id="yqgcvxg" data-class="stem" class="stem"><path d="M9523 928 L9523 1500" stroke-width="18"/></g><g data-id="p156d694" data-class="accid" class="accid"/></g></g></g><g data-id="j1ngh63s" data-class="barLine" class="barLine"><path d="M10319 540 L10319 1260" stroke-width="27"/></g></g><g data-id="kekwzmg" data-class="measure" class="measure"><g data-id="x14g320k" data-class="staff" class="staff"><path d="M10332 540 L14002 540" stroke-width="13"/><path d="M10332 720 L14002 720" stroke-width="13"/><path d="M10332 900 L14002 900" stroke-width="13"/><path d="M10332 1080 L14002 1080" stroke-width="13"/><path d="M10332 1260 L14002 1260" stroke-width="13"/><g data-id="y1553c0n" data-class="layer" class="layer"><g data-id="lah7x3x" data-class="note" class="note"><g data-class="notehead" class="notehead"><use href="#E0A4-i6yme0e" transform="translate(10523, 990) scale(0.72, 0.72)"/></g><g data-id="z1h2z3u2" data-class="stem" class="stem"><path d="M10740 962 L10740 360" stroke-width="18"/></g><g data-id="q1jagcad" data-class="accid" class="accid"/></g><g data-id="m1v6nhlm" data-class="note" class="note"><g data-class="notehead" class="notehead"><use href="#E0A4-i6yme0e" transform="translate(11329, 1080) scale(0.72, 0.72)"/></g><g data-id="a1r1ryae" data-class="stem" class="stem"><path d="M11546 1052 L11546 450" stroke-width="18"/></g></g><g data-id="nzebegf" data-class="note" class="note"><g data-class="notehead" class="notehead"><use href="#E0A4-i6yme0e" transform="translate(12134, 990) scale(0.72, 0.72)"/></g><g data-id="b1mtlcc8" data-class="stem" class="stem"><path d="M12351 962 L12351 360" stroke-width="18"/></g><g data-id="rdg1h9r" data-class="accid" class="accid"/></g><g data-id="l1vvu9bz" data-class="beam" class="beam"><polygon stroke-opacity="1" fill-opacity="1" points="12940,1440 13482,1485 13482,1395 12940,1350"/><g data-id="of8pko8" data-class="note" class="note"><g data-class="notehead" class="notehead"><use href="#E0A4-i6yme0e" transform="translate(12940, 810) scale(0.72, 0.72)"/></g><g data-id="cumxqr7" data-class="stem" class="stem"><path d="M12949 838 L12949 1422" stroke-width="18"/></g></g><g data-id="prn20qd" data-class="note" class="note"><g data-class="notehead" class="notehead"><use href="#E0A4-i6yme0e" transform="translate(13464, 900) scale(0.72, 0.72)"/></g><g data-id="d1wi7hhn" data-class="stem" class="stem"><path d="M13473 928 L13473 1467" stroke-width="18"/></g><g data-id="s8jo97k" data-class="accid" class="accid"/></g></g></g></g><g data-id="slvcgni" data-class="barLine" class="barLine"><path d="M13989 540 L13989 1260" stroke-width="27"/></g></g></g></g></svg></svg>