<svg viewBox="0 0 560 84" version="1.1" xmlns="http://www.w3.org/2000/svg" xmlns:xlink="http://www.w3.org/1999/xlink" overflow="visible" id="saqq8w7"><desc>Engraved by Verovio 5.6.0-85e7620</desc><defs><g id="E050-saqq8w7"><path transform="scale(1,-1)" d="M441 -245c-23 -4 -48 -6 -76 -6c-59 0 -102 7 -130 20c-88 42 -150 93 -187 154c-26 44 -43 103 -48 176c0 6 -1 13 -1 19c0 54 15 111 45 170c29 57 65 106 110 148s96 85 153 127c-3 16 -8 46 -13 92c-4 43 -5 73 -5 89c0 117 16 172 69 257c34 54 64 82 89 82 c21 0 43 -30 69 -92s39 -115 41 -159v-15c0 -109 -21 -162 -67 -241c-13 -20 -63 -90 -98 -118c-13 -9 -25 -19 -37 -29l31 -181c8 1 18 2 28 2c58 0 102 -12 133 -35c59 -43 92 -104 98 -184c1 -7 1 -15 1 -22c0 -123 -87 -209 -181 -248c8 -57 17 -110 25 -162 c5 -31 6 -58 6 -80c0 -30 -5 -53 -14 -70c-35 -64 -88 -99 -158 -103c-5 0 -11 -1 -16 -1c-37 0 -72 10 -108 27c-50 24 -77 59 -80 105v11c0 29 7 55 20 76c18 28 45 42 79 44h6c49 0 93 -42 97 -87v-9c0 -51 -34 -86 -105 -106c17 -24 51 -36 102 -36c62 0 116 43 140 85 c9 16 13 41 13 74c0 20 -1 42 -5 67c-8 53 -18 106 -26 159zM461 939c-95 0 -135 -175 -135 -286c0 -24 2 -48 5 -71c50 39 92 82 127 128c40 53 60 100 60 140v8c-4 53 -22 81 -55 81h-2zM406 119l54 -326c73 25 110 78 110 161c0 7 0 15 -1 23c-7 95 -57 142 -151 142h-12 zM382 117c-72 -2 -128 -47 -128 -120v-7c2 -46 43 -99 75 -115c-3 -2 -7 -5 -10 -10c-70 33 -116 88 -123 172v11c0 68 44 126 88 159c23 17 49 29 78 36l-29 170c-21 -13 -52 -37 -92 -73c-50 -44 -86 -84 -109 -119c-45 -69 -67 -130 -67 -182v-13c5 -68 35 -127 93 -176 s125 -73 203 -73c25 0 50 3 75 9c-19 111 -36 221 -54 331z"/></g><g id="E262-saqq8w7"><path transform="scale(1,-1)" d="M136 186v169h17v-164l44 14v-91l-44 -14v-165l44 12v-91l-44 -13v-155h-17v150l-76 -22v-155h-17v149l-43 -13v90l43 14v167l-43 -14v92l43 13v169h17v-163zM60 73v-167l76 22v168z"/></g><g id="E083-saqq8w7"><path transform="scale(1,-1)" d="M208 250c97 0 177 -52 177 -116c0 -69 -40 -111 -118 -125c56 -5 125 -44 125 -116c0 -31 -10 -57 -31 -78c-19 -21 -45 -38 -78 -49l-50 -11c-15 -3 -36 -7 -55 -7c-50 0 -86 16 -113 38c-16 10 -23 18 -34 34c-7 13 -11 25 -11 38c0 43 27 83 68 83l3 -2 c61 0 75 -42 75 -70c0 -19 -24 -42 -26 -57c7 -17 20 -25 37 -25c44 0 94 29 94 78c0 75 -34 125 -138 125v36c84 0 131 22 131 98c0 54 -37 88 -87 88c-26 0 -43 -7 -51 -22c15 -22 44 -16 44 -70c0 -37 -37 -62 -71 -62c-22 0 -69 15 -69 76c0 79 101 116 178 116z"/></g><g id="E084-saqq8w7"><path transform="scale(1,-1)" d="M20 -78c84 97 114 180 134 329h170c-13 -32 -82 -132 -99 -151l-84 -97c-33 -36 -59 -63 -80 -81h162v102l127 123v-225h57v-39h-57v-34c0 -43 19 -65 57 -65v-34h-244v36c48 0 60 26 60 70v27h-203v39z"/></g><g id="E0A4-saqq8w7"><path transform="scale(1,-1)" d="M0 -39c0 68 73 172 200 172c66 0 114 -37 114 -95c0 -84 -106 -171 -218 -171c-64 0 -96 30 -96 94z"/></g><g id="E240-saqq8w7"><path transform="scale(1,-1)" d="M179 -646c15 29 29 55 46 102c18 49 30 108 30 138c0 105 -80 173 -168 200c-18 5 -47 9 -87 16v190h22c8 0 33 -61 71 -95c4 -3 -2 3 61 -56c62 -58 122 -137 122 -241c0 -38 -13 -106 -35 -163c-20 -51 -43 -99 -66 -132c-6 -5 -10 -7 -13 -7s-5 2 -5 5l4 10 c1 3 14 25 18 33z"/></g></defs><style type="text/css">#saqq8w7 g.page-margin {font-family:Times,serif;}#saqq8w7 g.ending, #saqq8w7 g.fing, #saqq8w7 g.reh, #saqq8w7 g.tempo {font-weight:bold;}#saqq8w7 g.dir, #saqq8w7 g.dynam, #saqq8w7 g.mNum {font-style:italic;}#saqq8w7 g.label {font-weight:normal;}#saqq8w7 path {stroke:currentColor}</style><svg class="definition-scale" color="black" viewBox="0 0 14000 2100"><g class="page-margin" transform="translate(0, 150)"><g data-id="ksrxg3s" data-class="mdiv" class="mdiv pageMilestone"/><g data-id="l17lhu9a" data-class="score" class="score pageMilestone"/><g data-id="t1ihy4vk" data-class="system" class="system"><g data-id="n16zhiqr" data-class="section" class="section systemMilestone"/><g data-id="t1tev1g8" data-class="measure" class="measure"><g data-id="zyj39vj" data-class="staff" class="staff"><path d="M0 540 L2305 540" stroke-width="13"/><path d="M0 720 L2305 720" stroke-width="13"/><path d="M0 900 L2305 900" stroke-width="13"/><path d="M0 1080 L2305 1080" stroke-width="13"/><path d="M0 1260 L2305 1260" stroke-width="13"/><g data-id="z1ghtvve" data-class="clef" class="clef"><use href="#E050-saqq8w7" transform="translate(90, 1080) scale(0.72, 0.72)"/></g><g data-id="alqc8ks" data-class="keySig" class="keySig"><g data-id="bthyjml" data-class="keyAccid" class="keyAccid"><use href="#E262-saqq8w7" transform="translate(735, 540) scale(0.72, 0.72)"/></g><g data-id="ceh7yms" data-class="keyAccid" class="keyAccid"><use href="#E262-saqq8w7" transform="translate(913, 810) scale(0.72, 0.72)"/></g></g><g data-id="d1aaw9rm" data-class="meterSig" class="meterSig"><use href="#E083-saqq8w7" transform="translate(1226, 720) scale(0.72, 0.72)"/><use href="#E084-saqq8w7" transform="translate(1220, 1080) scale(0.72, 0.72)"/></g><g data-id="a1y1zt20" data-class="layer" class="layer"><g data-id="m16yi4nt" data-class="note" class="note"><g data-class="notehead" class="notehead"><use href="#E0A4-saqq8w7" transform="translate(1782, 990) scale(0.72, 0.72)"/></g><g data-id="vkm1s1e" data-class="stem" class="stem"><path d="M1999 962 L1999 360" stroke-width="18"/><g data-id="w1bfnz5e" data-class="flag" class="flag"><use href="#E240-saqq8w7" transform="translate(1990, 360) scale(0.72, 0.72)"/></g></g></g></g></g><g data-id="buz6m1v" data-class="barLine" class="barLine"><path d="M2292 540 L2292 1260" stroke-width="27"/></g></g><g data-id="cxk0gc0" data-class="measure" class="measure"><g data-id="be1ceo3" data-class="staff" class="staff"><path d="M2305 540 L4298 540" stroke-width="13"/><path d="M2305 720 L4298 720" stroke-width="13"/><path d="M2305 900 L4298 900" stroke-width="13"/><path d="M2305 1080 L4298 1080" stroke-width="13"/><path d="M2305 1260 L4298 1260" stroke-width="13"/><g data-id="c1oct1md" data-class="layer" class="layer"><g data-id="cwdc6nm" data-class="beam" class="beam"><polygon stroke-opacity="1" fill-opacity="1" points="2485,1305 3853,1305 3853,1215 2485,1215"/><g data-id="nw6uadu" data-class="note" class="note"><g data-class="notehead" class="notehead"><use href="#E0A4-saqq8w7" transform="translate(2485, 720) scale(0.72, 0.72)"/></g><g data-id="x21zvsc" data-class="stem" class="stem"><path d="M2494 748 L2494 1287" stroke-width="18"/></g></g><g data-id="o1h06g06" data-class="note" class="note"><g data-class="notehead" class="notehead"><use href="#E0A4-saqq8w7" transform="translate(2935, 540) scale(0.72, 0.72)"/></g><g data-id="y4ni7p" data-class="stem" class="stem"><path d="M2944 568 L2944 1287" stroke-width="18"/></g><g data-id="fa14at3" data-class="accid" class="accid"/></g><g data-id="p1hhbr2u" data-class="note" class="note"><g data-class="notehead" class="notehead"><use href="#E0A4-saqq8w7" transform="translate(3385, 630) scale(0.72, 0.72)"/></g><g data-id="z1l0kvic" data-class="stem" class="stem"><path d="M3394 658 L3394 1287" stroke-width="18"/></g></g><g data-id="q1b53p07" data-class="note" class="note"><g data-class="notehead" class="notehead"><use href="#E0A4-saqq8w7" transform="translate(3835, 720) scale(0.72, 0.72)"/></g><g data-id="a1x1rw2l" data-class="stem" class="stem"><path d="M3844 748 L3844 1287" stroke-width="18"/></g></g></g></g></g><g data-id="kohsx9m" data-class="barLine" class="barLine"><path d="M4285 540 L4285 1260" stroke-width="27"/></g></g><g data-id="lm08eue" data-class="measure" class="measure"><g data-id="db0bcmk" data-class="staff" class="staff"><path d="M4298 540 L6551 540" stroke-width="13"/><path d="M4298 720 L6551 720" stroke-width="13"/><path d="M4298 900 L6551 900" stroke-width="13"/><path d="M4298 1080 L6551 1080" stroke-width="13"/><path d="M4298 1260 L6551 1260" stroke-width="13"/><g data-id="e1q9mpsb" data-class="layer" class="layer"><g data-id="d1441c32" data-class="beam" class="beam"><polygon stroke-opacity="1" fill-opacity="1" points="4478,1620 6226,1800 6226,1710 4478,1530"/><polygon stroke-opacity="1" fill-opacity="1" points="5837,1625 6226,1665 6226,1575 5837,1535"/><polygon stroke-opacity="1" fill-opacity="1" points="6000,1508 6226,1530 6226,1440 6000,1418"/><g data-id="rbgtxr" data-class="note" class="note"><g data-class="notehead" class="notehead"><use href="#E0A4-saqq8w7" transform="translate(4478, 720) scale(0.72, 0.72)"/></g><g data-id="beb5g7w" data-class="stem" class="stem"><path d="M4487 748 L4487 1602" stroke-width="18"/></g></g><g data-id="s5e23eo" data-class="note" class="note"><g data-class="notehead" class="notehead"><use href="#E0A4-saqq8w7" transform="translate(4928, 810) scale(0.72, 0.72)"/></g><g data-id="cev981r" data-class="stem" class="stem"><path d="M4937 838 L4937 1648" stroke-width="18"/></g><g data-id="g14k46gq" data-class="accid" class="accid"/></g><g data-id="tugnmk9" data-class="note" class="note"><g data-class="notehead" class="notehead"><use href="#E0A4-saqq8w7" transform="translate(5378, 900) scale(0.72, 0.72)"/></g><g data-id="dkw20u0" data-class="stem" class="stem"><path d="M5387 928 L5387 1695" stroke-width="18"/></g></g><g data-id="u9xc3ox" data-class="note" class="note"><g data-class="notehead" class="notehead"><use href="#E0A4-saqq8w7" transform="translate(5828, 810) scale(0.72, 0.72)"/></g><g data-id="flmhftr" data-class="dots" class="dots"><ellipse cx="6144" cy="810" rx="36" ry="36" fill-opacity="1" stroke-opacity="1"/></g><g data-id="ejqmtyk" data-class="stem" class="stem"><path d="M5837 838 L5837 1742" stroke-width="18"/></g><g data-id="h2jtos1" data-class="accid" class="accid"/></g><g data-id="v2n36wd" data-class="note" class="note"><g data-class="notehead" class="notehead"><use href="#E0A4-saqq8w7" transform="translate(6208, 990) scale(0.72, 0.72)"/></g><g data-id="g14nrool" data-class="stem" class="stem"><path d="M6217 1018 L6217 1782" stroke-width="18"/></g></g></g></g></g><g data-id="t1q2qn70" data-class="barLine" class="barLine"><path d="M6538 540 L6538 1260" stroke-width="27"/></g></g><g data-id="ul6h13b" data-class="measure" class="measure"><g data-id="fjfro0z" data-class="staff" class="staff"><path d="M6551 540 L8544 540" stroke-width="13"/><path d="M6551 720 L8544 720" stroke-width="13"/><path d="M6551 900 L8544 900" stroke-width="13"/><path d="M6551 1080 L8544 1080" stroke-width="13"/><path d="M6551 1260 L8544 1260" stroke-width="13"/><g data-id="gz1etj1" data-class="layer" class="layer"><g data-id="eobnvnm" data-class="beam" class="beam"><polygon stroke-opacity="1" fill-opacity="1" points="6731,1530 8099,1530 8099,1440 6731,1440"/><g data-id="w1k9wdjq" data-class="note" class="note"><g data-class="notehead" class="notehead"><use href="#E0A4-saqq8w7" transform="translate(6731, 720) scale(0.72, 0.72)"/></g><g data-id="h13caisq" data-class="stem" class="stem"><path d="M6740 748 L6740 1512" stroke-width="18"/></g></g><g data-id="x1m93vk7" data-class="note" class="note"><g data-class="notehead" class="notehead"><use href="#E0A4-saqq8w7" transform="translate(7181, 990) scale(0.72, 0.72)"/></g><g data-id="iby2akh" data-class="stem" class="stem"><path d="M7190 1018 L7190 1512" stroke-width="18"/></g></g><g data-id="yo46t4o" data-class="note" class="note"><g data-class="notehead" class="notehead"><use href="#E0A4-saqq8w7" transform="translate(7631, 810) scale(0.72, 0.72)"/></g><g data-id="j1ghs3kc" data-class="stem" class="stem"><path d="M7640 838 L7640 1512" stroke-width="18"/></g><g data-id="iv1d4ny" data-class="accid" class="accid"/></g><g data-id="zzscn6a" data-class="note" class="note"><g data-class="notehead" class="notehead"><use href="#E0A4-saqq8w7" transform="translate(8081, 900) scale(0.72, 0.72)"/></g><g data-id="kjb4lt9" data-class="stem" class="stem"><path d="M8090 928 L8090 1512" stroke-width="18"/></g></g></g></g></g><g data-id="ccbsg4e" data-class="barLine" class="barLine"><path d="M8531 540 L8531 1260" stroke-width="27"/></g></g><g data-id="d1ffwlz" data-class="measure" class="measure"><g data-id="hrazeai" data-class="staff" class="staff"><path d="M8544 540 L10127 540" stroke-width="13"/><path d="M8544 720 L10127 720" stroke-width="13"/><path d="M8544 900 L10127 900" stroke-width="13"/><path d="M8544 1080 L10127 1080" stroke-width="13"/><path d="M8544 1260 L10127 1260" stroke-width="13"/><g data-id="i73niek" data-class="layer" class="layer"><g data-id="a1m4hqql" data-class="note" class="note"><g data-class="notehead" class="notehead"><use href="#E0A4-saqq8w7" transform="translate(8724, 990) scale(0.72, 0.72)"/></g><g data-id="m5vgi1u" data-class="dots" class="dots"><ellipse cx="9040" cy="990" rx="36" ry="36" fill-opacity="1" stroke-opacity="1"/></g><g data-id="l1f67ics" data-class="stem" class="stem"><path d="M8941 962 L8941 360" stroke-width="18"/></g></g><g data-id="bj9o4xh" data-class="note" class="note"><g data-class="notehead" class="notehead"><use href="#E0A4-saqq8w7" transform="translate(9604, 1080) scale(0.72, 0.72)"/></g><g data-id="ngqc60y" data-class="stem" class="stem"><path d="M9821 1052 L9821 450" stroke-width="18"/><g data-id="o117vloz" data-class="flag" class="flag"><use href="#E240-saqq8w7" transform="translate(9812, 450) scale(0.72, 0.72)"/></g></g></g></g></g><g data-id="l1tp2aop" data-class="barLine" class="barLine"><path d="M10114 540 L10114 1260" stroke-width="27"/></g></g><g data-id="qzpaidx" data-class="systemMilestoneEnd" class="systemMilestoneEnd n16zhiqr"/></g><g data-id="r1id2mvb" data-class="pageMilestoneEnd" class="pageMilestoneEnd l17lhu9a"/><g data-id="s1iwdxe" data-class="pageMilestoneEnd" class="pageMilestoneEnd ksrxg3s"/></g></svg></svg>