<svg viewBox="0 0 560 84" version="1.1" xmlns="http://www.w3.org/2000/svg" xmlns:xlink="http://www.w3.org/1999/xlink" overflow="visible" id="m1ytt5bm"><desc>Engraved by Verovio 5.6.0-85e7620</desc><defs><g id="E052-m1ytt5bm"><path transform="scale(1,-1)" d="M382 117c-72 -2 -128 -47 -128 -120v-7c2 -46 43 -99 75 -115c-3 -2 -7 -5 -10 -10c-70 33 -116 88 -123 172v11c0 68 44 126 88 159c23 17 49 29 78 36l-29 170c-21 -13 -52 -37 -92 -73c-50 -44 -86 -84 -109 -119c-45 -69 -67 -130 -67 -182v-13 c5 -68 35 -127 93 -176s125 -73 203 -73c25 0 50 3 75 9c-19 111 -36 221 -54 331zM406 119l54 -326c73 25 110 78 110 161c0 7 0 15 -1 23c-7 95 -57 142 -151 142h-12zM461 939c-95 0 -135 -175 -135 -286c0 -24 2 -48 5 -71c50 39 92 82 127 128c40 53 60 100 60 140v8 c-4 53 -22 81 -55 81h-2zM441 -245c-23 -4 -48 -6 -76 -6c-59 0 -102 7 -130 20c-88 42 -150 93 -187 154c-26 44 -43 103 -48 176c0 6 -1 13 -1 19c0 54 15 111 45 170c29 57 65 106 110 148s96 85 153 127c-3 16 -8 46 -13 92c-4 43 -5 73 -5 89c0 117 16 172 69 257 c34 54 64 82 89 82c21 0 43 -30 69 -92s39 -115 41 -159v-15c0 -109 -21 -162 -67 -241c-13 -20 -63 -90 -98 -118c-13 -9 -25 -19 -37 -29l31 -181c8 1 18 2 28 2c58 0 102 -12 133 -35c59 -43 92 -104 98 -184c1 -7 1 -15 1 -22c0 -123 -87 -209 -181 -248 c8 -57 17 -110 25 -162c5 -31 6 -58 6 -80c0 -30 -5 -53 -14 -70c-25 -46 -59 -77 -102 -92c21 -1 85 -13 85 -60c0 -35 -22 -43 -31 -50c-6 -5 -8 -10 -8 -16s0 -11 4 -16c6 -11 9 -22 9 -34c0 -27 -18 -53 -46 -65c-11 -4 -27 -6 -41 -6c-34 0 -82 21 -90 58 c-1 5 -2 8 -2 12c0 28 25 57 51 66c4 1 6 2 6 5c0 2 -1 3 -2 3c-11 13 -16 27 -16 41c0 21 11 40 30 51h-5c-5 0 -11 -1 -16 -1c-37 0 -72 10 -108 27c-50 24 -77 59 -80 105v11c0 29 7 55 20 76c18 28 45 42 79 44h6c49 0 93 -42 97 -87v-9c0 -51 -34 -86 -105 -106 c17 -24 51 -36 102 -36c62 0 116 43 140 85c9 16 13 41 13 74c0 20 -1 42 -5 67c-8 53 -18 106 -26 159zM315 -781c-3 -2 -6 -5 -7 -8c-6 -8 -10 -19 -10 -30c0 -2 0 -4 1 -7c7 -32 34 -52 53 -52c20 0 37 20 37 36c0 5 -2 9 -4 14c-5 13 -14 24 -25 34c-6 5 -11 10 -17 14 c-4 2 -9 6 -14 6c-6 0 -11 -3 -14 -7zM349 -685c0 -14 10 -25 18 -34c8 -8 16 -18 26 -25c5 -2 10 -4 13 -4c17 0 22 30 23 48c0 9 -3 20 -9 26c-8 9 -23 14 -40 14c-15 -1 -29 -8 -31 -25z"/></g><g id="E262-m1ytt5bm"><path transform="scale(1,-1)" d="M136 186v169h17v-164l44 14v-91l-44 -14v-165l44 12v-91l-44 -13v-155h-17v150l-76 -22v-155h-17v149l-43 -13v90l43 14v167l-43 -14v92l43 13v169h17v-163zM60 73v-167l76 22v168z"/></g><g id="E08A-m1ytt5bm"><path transform="scale(1,-1)" d="M340 179c-9 24 -56 41 -89 41c-46 0 -81 -28 -100 -58c-17 -28 -25 -78 -25 -150c0 -65 2 -111 8 -135c8 -31 18 -49 40 -67c20 -17 43 -25 70 -25c54 0 92 36 115 75c14 25 23 54 28 88h27c0 -63 -24 -105 -58 -141c-35 -38 -82 -56 -140 -56c-45 0 -83 13 -115 39 c-57 45 -101 130 -101 226c0 59 33 127 68 163c36 37 97 72 160 72c36 0 93 -21 121 -40c11 -8 23 -17 33 -30c19 -23 27 -48 27 -76c0 -51 -35 -88 -86 -88c-43 0 -76 27 -76 68c0 26 7 35 21 51c15 17 32 27 58 32c7 2 14 7 14 11z"/></g><g id="E0A4-m1ytt5bm"><path transform="scale(1,-1)" d="M0 -39c0 68 73 172 200 172c66 0 114 -37 114 -95c0 -84 -106 -171 -218 -171c-64 0 -96 30 -96 94z"/></g><g id="E241-m1ytt5bm"><path transform="scale(1,-1)" d="M179 646c-4 8 -17 30 -18 33l-4 10c0 3 2 5 5 5s7 -2 13 -7c23 -33 46 -81 66 -132c22 -57 35 -125 35 -163c0 -104 -60 -183 -122 -241c-63 -59 -57 -53 -61 -56c-38 -34 -63 -95 -71 -95h-22v190c40 7 69 11 87 16c88 27 168 95 168 200c0 30 -12 89 -30 138 c-17 47 -31 73 -46 102z"/></g><g id="E0A3-m1ytt5bm"><path transform="scale(1,-1)" d="M278 64c0 22 -17 39 -43 39c-12 0 -26 -3 -41 -10c-85 -43 -165 -94 -165 -156c5 -25 15 -32 49 -32c67 11 200 95 200 159zM0 -36c0 68 73 174 200 174c66 0 114 -39 114 -97c0 -84 -106 -173 -218 -173c-64 0 -96 32 -96 96z"/></g><g id="E4E5-m1ytt5bm"><path transform="scale(1,-1)" d="M107 292c-13 24 -30 49 -52 71c-1 1 0 2 0 3l-2 2c3 3 4 4 6 4c12 0 26 -7 40 -20s44 -40 89 -81c26 -24 28 -29 46 -47c4 -4 8 -9 10 -14c6 -8 8 -16 8 -27c0 -19 -12 -40 -36 -61c-28 -23 -49 -38 -61 -73c-4 -11 -7 -27 -10 -50c13 -43 34 -83 59 -121 c31 -47 59 -79 101 -129c-8 0 -26 7 -54 20l-62 29l-21 6l-23 1c-25 0 -45 -10 -60 -30l-4 -14l-1 -12c0 -33 20 -56 39 -78c8 -9 17 -18 26 -26c17 -15 27 -24 28 -30l-3 -3c-11 5 -19 10 -25 15c-9 3 -37 21 -45 26c-24 14 -45 32 -63 51c-19 21 -37 44 -37 71 c0 63 27 95 80 95c41 0 86 -18 136 -52c-19 26 -37 48 -55 66c-23 23 -48 44 -73 65c-28 23 -47 40 -58 53s-17 26 -18 39c75 64 113 125 113 183c0 27 -7 48 -18 68z"/></g></defs><style type="text/css">#m1ytt5bm g.page-margin {font-family:Times,serif;}#m1ytt5bm g.ending, #m1ytt5bm g.fing, #m1ytt5bm g.reh, #m1ytt5bm g.tempo {font-weight:bold;}#m1ytt5bm g.dir, #m1ytt5bm g.dynam, #m1ytt5bm g.mNum {font-style:italic;}#m1ytt5bm g.label {font-weight:normal;}#m1ytt5bm path {stroke:currentColor}</style><svg class="definition-scale" color="black" viewBox="0 0 14000 2100"><g class="page-margin" transform="translate(0, 150)"><g data-id="e4v9fk9" data-class="mdiv" class="mdiv pageMilestone"/><g data-id="ftn4cdr" data-class="score" class="score pageMilestone"/><g data-id="k17g4m4g" data-class="system" class="system"><g data-id="h1abx3cp" data-class="section" class="section systemMilestone"/><g data-id="nabiil4" data-class="measure" class="measure"><g data-id="tyi71d7" data-class="staff" class="staff"><path d="M0 540 L2707 540" stroke-width="13"/><path d="M0 720 L2707 720" stroke-width="13"/><path d="M0 900 L2707 900" stroke-width="13"/><path d="M0 1080 L2707 1080" stroke-width="13"/><path d="M0 1260 L2707 1260" stroke-width="13"/><g data-id="ocpln8t" data-class="clef" class="clef"><use href="#E052-m1ytt5bm" transform="translate(90, 1080) scale(0.72, 0.72)"/></g><g data-id="pwl49pg" data-class="keySig" class="keySig"><g data-id="q1ftoeze" data-class="keyAccid" class="keyAccid"><use href="#E262-m1ytt5bm" transform="translate(735, 540) scale(0.72, 0.72)"/></g><g data-id="r1r35br0" data-class="keyAccid" class="keyAccid"><use href="#E262-m1ytt5bm" transform="translate(913, 810) scale(0.72, 0.72)"/></g><g data-id="s1wmxy7n" data-class="keyAccid" class="keyAccid"><use href="#E262-m1ytt5bm" transform="translate(1091, 450) scale(0.72, 0.72)"/></g></g><g data-id="t10e1744" data-class="meterSig" class="meterSig"><use href="#E08A-m1ytt5bm" transform="translate(1412, 900) scale(0.72, 0.72)"/></g><g data-id="uab3qhi" data-class="layer" class="layer"><g data-id="zyhdazk" data-class="note" class="note"><g data-class="notehead" class="notehead"><use href="#E0A4-m1ytt5bm" transform="translate(1990, 990) scale(0.72, 0.72)"/></g><g data-id="u1j68hqz" data-class="stem" class="stem"><path d="M2207 962 L2207 360" stroke-width="18"/></g></g></g></g><g data-id="va2wuyt" data-class="barLine" class="barLine"><path d="M2694 540 L2694 1260" stroke-width="27"/></g></g><g data-id="w1bp1xuc" data-class="measure" class="measure"><g data-id="v1lz6wak" data-class="staff" class="staff"><path d="M2707 540 L5674 540" stroke-width="13"/><path d="M2707 720 L5674 720" stroke-width="13"/><path d="M2707 900 L5674 900" stroke-width="13"/><path d="M2707 1080 L5674 1080" stroke-width="13"/><path d="M2707 1260 L5674 1260" stroke-width="13"/><g data-id="wbzozw" data-class="layer" class="layer"><g data-id="a1g1b843" data-class="note" class="note"><g data-class="notehead" class="notehead"><use href="#E0A4-m1ytt5bm" transform="translate(2897, 810) scale(0.72, 0.72)"/></g><g data-id="w1evvuqg" data-class="dots" class="dots"><ellipse cx="3213" cy="810" rx="36" ry="36" fill-opacity="1" stroke-opacity="1"/></g><g data-id="v1ll3iwh" data-class="stem" class="stem"><path d="M2906 838 L2906 1440" stroke-width="18"/></g><g data-id="u13prhkt" data-class="accid" class="accid"/></g><g data-id="b1exghte" data-class="note" class="note"><g data-class="notehead" class="notehead"><use href="#E0A4-m1ytt5bm" transform="translate(3794, 810) scale(0.72, 0.72)"/></g><g data-id="x1n7n3tm" data-class="stem" class="stem"><path d="M3803 838 L3803 1440" stroke-width="18"/><g data-id="y1bk4c82" data-class="flag" class="flag"><use href="#E241-m1ytt5bm" transform="translate(3794, 1440) scale(0.72, 0.72)"/></g></g><g data-id="v1ltkuhu" data-class="accid" class="accid"/></g><g data-id="c1rxwo8o" data-class="note" class="note"><g data-class="notehead" class="notehead"><use href="#E0A4-m1ytt5bm" transform="translate(4253, 810) scale(0.72, 0.72)"/></g><g data-id="zf25ugk" data-class="stem" class="stem"><path d="M4262 838 L4262 1440" stroke-width="18"/></g><g data-id="w17qmate" data-class="accid" class="accid"/></g><g data-id="d1dyxt3n" data-class="note" class="note"><g data-class="notehead" class="notehead"><use href="#E0A4-m1ytt5bm" transform="translate(4957, 810) scale(0.72, 0.72)"/></g><g data-id="a8bd5to" data-class="stem" class="stem"><path d="M4966 838 L4966 1440" stroke-width="18"/></g><g data-id="x1q33e5s" data-class="accid" class="accid"/></g></g></g><g data-id="efxe91w" data-class="barLine" class="barLine"><path d="M5661 540 L5661 1260" stroke-width="27"/></g></g><g data-id="fs4yvyw" data-class="measure" class="measure"><g data-id="x1f4t9yv" data-class="staff" class="staff"><path d="M5674 540 L8355 540" stroke-width="13"/><path d="M5674 720 L8355 720" stroke-width="13"/><path d="M5674 900 L8355 900" stroke-width="13"/><path d="M5674 1080 L8355 1080" stroke-width="13"/><path d="M5674 1260 L8355 1260" stroke-width="13"/><g data-id="yitoau5" data-class="layer" class="layer"><g data-id="e1uona01" data-class="note" class="note"><g data-class="notehead" class="notehead"><use href="#E0A3-m1ytt5bm" transform="translate(5864, 630) scale(0.72, 0.72)"/></g><g data-id="bgckt8w" data-class="stem" class="stem"><path d="M5873 655 L5873 1260" stroke-width="18"/></g></g><g data-id="f1si6odj" data-class="note" class="note"><g data-class="notehead" class="notehead"><use href="#E0A4-m1ytt5bm" transform="translate(6934, 720) scale(0.72, 0.72)"/></g><g data-id="c12qbc3" data-class="stem" class="stem"><path d="M6943 748 L6943 1350" stroke-width="18"/></g></g><g data-id="gm475xa" data-class="note" class="note"><g data-class="notehead" class="notehead"><use href="#E0A4-m1ytt5bm" transform="translate(7638, 810) scale(0.72, 0.72)"/></g><g data-id="dfym61z" data-class="stem" class="stem"><path d="M7647 838 L7647 1440" stroke-width="18"/></g><g data-id="y22yncl" data-class="accid" class="accid"/></g></g></g><g data-id="nbiowz4" data-class="barLine" class="barLine"><path d="M8342 540 L8342 1260" stroke-width="27"/></g></g><g data-id="o1q2uvxz" data-class="measure" class="measure"><g data-id="z1giz6b3" data-class="staff" class="staff"><path d="M8355 540 L11322 540" stroke-width="13"/><path d="M8355 720 L11322 720" stroke-width="13"/><path d="M8355 900 L11322 900" stroke-width="13"/><path d="M8355 1080 L11322 1080" stroke-width="13"/><path d="M8355 1260 L11322 1260" stroke-width="13"/><g data-id="a1cwvz77" data-class="layer" class="layer"><g data-id="h16om208" data-class="note" class="note"><g data-class="notehead" class="notehead"><use href="#E0A4-m1ytt5bm" transform="translate(8545, 900) scale(0.72, 0.72)"/></g><g data-id="f1khhkyw" data-class="dots" class="dots"><ellipse cx="8861" cy="810" rx="36" ry="36" fill-opacity="1" stroke-opacity="1"/></g><g data-id="e5cq7hp" data-class="stem" class="stem"><path d="M8554 928 L8554 1500" stroke-width="18"/></g></g><g data-id="i10dv90o" data-class="note" class="note"><g data-class="notehead" class="notehead"><use href="#E0A4-m1ytt5bm" transform="translate(9442, 900) scale(0.72, 0.72)"/></g><g data-id="g3e0pqp" data-class="stem" class="stem"><path d="M9451 928 L9451 1500" stroke-width="18"/><g data-id="h1oydwti" data-class="flag" class="flag"><use href="#E241-m1ytt5bm" transform="translate(9442, 1500) scale(0.72, 0.72)"/></g></g></g><g data-id="jyc9fly" data-class="note" class="note"><g data-class="notehead" class="notehead"><use href="#E0A4-m1ytt5bm" transform="translate(9901, 900) scale(0.72, 0.72)"/></g><g data-id="i1evjbud" data-class="stem" class="stem"><path d="M9910 928 L9910 1500" stroke-width="18"/></g></g><g data-id="k75xggm" data-class="note" class="note"><g data-class="notehead" class="notehead"><use href="#E0A4-m1ytt5bm" transform="translate(10605, 720) scale(0.72, 0.72)"/></g><g data-id="jceoxz7" data-class="stem" class="stem"><path d="M10614 748 L10614 1350" stroke-width="18"/></g></g></g></g><g data-id="wa96335" data-class="barLine" class="barLine"><path d="M11309 540 L11309 1260" stroke-width="27"/></g></g><g data-id="x10hif79" data-class="measure" class="measure"><g data-id="bcgmqsr" data-class="staff" class="staff"><path d="M11322 540 L14003 540" stroke-width="13"/><path d="M11322 720 L14003 720" stroke-width="13"/><path d="M11322 900 L14003 900" stroke-width="13"/><path d="M11322 1080 L14003 1080" stroke-width="13"/><path d="M11322 1260 L14003 1260" stroke-width="13"/><g data-id="ctohri5" data-class="layer" class="layer"><g data-id="lcnm57q" data-class="note" class="note"><g data-class="notehead" class="notehead"><use href="#E0A3-m1ytt5bm" transform="translate(11512, 810) scale(0.72, 0.72)"/></g><g data-id="kka7z86" data-class="stem" class="stem"><path d="M11521 835 L11521 1440" stroke-width="18"/></g><g data-id="z11g0s3" data-class="accid" class="accid"/></g><g data-id="y1p3gi2n" data-class="rest" class="rest"><use href="#E4E5-m1ytt5bm" transform="translate(12582, 900) scale(0.72, 0.72)"/></g><g data-id="m1jy927e" data-class="note" class="note"><g data-class="notehead" class="notehead"><use href="#E0A4-m1ytt5bm" transform="translate(13286, 810) scale(0.72, 0.72)"/></g><g data-id="l1voriwn" data-class="stem" class="stem"><path d="M13295 838 L13295 1440" stroke-width="18"/></g><g data-id="a5i8rfm" data-class="accid" class="accid"/></g></g></g><g data-id="f1ag01ru" data-class="barLine" class="barLine"><path d="M13990 540 L13990 1260" stroke-width="27"/></g></g></g></g></svg></svg>