<svg viewBox="0 0 560 84" version="1.1" xmlns="http://www.w3.org/2000/svg" xmlns:xlink="http://www.w3.org/1999/xlink" overflow="visible" id="a1mx0ubm"><desc>Engraved by Verovio 5.6.0-85e7620</desc><defs><g id="E050-a1mx0ubm"><path transform="scale(1,-1)" d="M441 -245c-23 -4 -48 -6 -76 -6c-59 0 -102 7 -130 20c-88 42 -150 93 -187 154c-26 44 -43 103 -48 176c0 6 -1 13 -1 19c0 54 15 111 45 170c29 57 65 106 110 148s96 85 153 127c-3 16 -8 46 -13 92c-4 43 -5 73 -5 89c0 117 16 172 69 257c34 54 64 82 89 82 c21 0 43 -30 69 -92s39 -115 41 -159v-15c0 -109 -21 -162 -67 -241c-13 -20 -63 -90 -98 -118c-13 -9 -25 -19 -37 -29l31 -181c8 1 18 2 28 2c58 0 102 -12 133 -35c59 -43 92 -104 98 -184c1 -7 1 -15 1 -22c0 -123 -87 -209 -181 -248c8 -57 17 -110 25 -162 c5 -31 6 -58 6 -80c0 -30 -5 -53 -14 -70c-35 -64 -88 -99 -158 -103c-5 0 -11 -1 -16 -1c-37 0 -72 10 -108 27c-50 24 -77 59 -80 105v11c0 29 7 55 20 76c18 28 45 42 79 44h6c49 0 93 -42 97 -87v-9c0 -51 -34 -86 -105 -106c17 -24 51 -36 102 -36c62 0 116 43 140 85 c9 16 13 41 13 74c0 20 -1 42 -5 67c-8 53 -18 106 -26 159zM461 939c-95 0 -135 -175 -135 -286c0 -24 2 -48 5 -71c50 39 92 82 127 128c40 53 60 100 60 140v8c-4 53 -22 81 -55 81h-2zM406 119l54 -326c73 25 110 78 110 161c0 7 0 15 -1 23c-7 95 -57 142 -151 142h-12 zM382 117c-72 -2 -128 -47 -128 -120v-7c2 -46 43 -99 75 -115c-3 -2 -7 -5 -10 -10c-70 33 -116 88 -123 172v11c0 68 44 126 88 159c23 17 49 29 78 36l-29 170c-21 -13 -52 -37 -92 -73c-50 -44 -86 -84 -109 -119c-45 -69 -67 -130 -67 -182v-13c5 -68 35 -127 93 -176 s125 -73 203 -73c25 0 50 3 75 9c-19 111 -36 221 -54 331z"/></g><g id="E262-a1mx0ubm"><path transform="scale(1,-1)" d="M136 186v169h17v-164l44 14v-91l-44 -14v-165l44 12v-91l-44 -13v-155h-17v150l-76 -22v-155h-17v149l-43 -13v90l43 14v167l-43 -14v92l43 13v169h17v-163zM60 73v-167l76 22v168z"/></g><g id="E083-a1mx0ubm"><path transform="scale(1,-1)" d="M208 250c97 0 177 -52 177 -116c0 -69 -40 -111 -118 -125c56 -5 125 -44 125 -116c0 -31 -10 -57 -31 -78c-19 -21 -45 -38 -78 -49l-50 -11c-15 -3 -36 -7 -55 -7c-50 0 -86 16 -113 38c-16 10 -23 18 -34 34c-7 13 -11 25 -11 38c0 43 27 83 68 83l3 -2 c61 0 75 -42 75 -70c0 -19 -24 -42 -26 -57c7 -17 20 -25 37 -25c44 0 94 29 94 78c0 75 -34 125 -138 125v36c84 0 131 22 131 98c0 54 -37 88 -87 88c-26 0 -43 -7 -51 -22c15 -22 44 -16 44 -70c0 -37 -37 -62 -71 -62c-22 0 -69 15 -69 76c0 79 101 116 178 116z"/></g><g id="E084-a1mx0ubm"><path transform="scale(1,-1)" d="M20 -78c84 97 114 180 134 329h170c-13 -32 -82 -132 -99 -151l-84 -97c-33 -36 -59 -63 -80 -81h162v102l127 123v-225h57v-39h-57v-34c0 -43 19 -65 57 -65v-34h-244v36c48 0 60 26 60 70v27h-203v39z"/></g><g id="E4E3-a1mx0ubm"><path transform="scale(1,-1)" d="M0 -115v105c0 9 1 10 10 10h280c9 0 10 -1 10 -10v-105c0 -9 -1 -10 -10 -10h-280c-9 0 -10 1 -10 10z"/></g><g id="E044-a1mx0ubm"><path transform="scale(1,-1)" d="M0 0c0 28 22 50 50 50s50 -22 50 -50s-22 -50 -50 -50s-50 22 -50 50z"/></g><g id="E4E5-a1mx0ubm"><path transform="scale(1,-1)" d="M107 292c-13 24 -30 49 -52 71c-1 1 0 2 0 3l-2 2c3 3 4 4 6 4c12 0 26 -7 40 -20s44 -40 89 -81c26 -24 28 -29 46 -47c4 -4 8 -9 10 -14c6 -8 8 -16 8 -27c0 -19 -12 -40 -36 -61c-28 -23 -49 -38 -61 -73c-4 -11 -7 -27 -10 -50c13 -43 34 -83 59 -121 c31 -47 59 -79 101 -129c-8 0 -26 7 -54 20l-62 29l-21 6l-23 1c-25 0 -45 -10 -60 -30l-4 -14l-1 -12c0 -33 20 -56 39 -78c8 -9 17 -18 26 -26c17 -15 27 -24 28 -30l-3 -3c-11 5 -19 10 -25 15c-9 3 -37 21 -45 26c-24 14 -45 32 -63 51c-19 21 -37 44 -37 71 c0 63 27 95 80 95c41 0 86 -18 136 -52c-19 26 -37 48 -55 66c-23 23 -48 44 -73 65c-28 23 -47 40 -58 53s-17 26 -18 39c75 64 113 125 113 183c0 27 -7 48 -18 68z"/></g><g id="E0A4-a1mx0ubm"><path transform="scale(1,-1)" d="M0 -39c0 68 73 172 200 172c66 0 114 -37 114 -95c0 -84 -106 -171 -218 -171c-64 0 -96 30 -96 94z"/></g><g id="E241-a1mx0ubm"><path transform="scale(1,-1)" d="M179 646c-4 8 -17 30 -18 33l-4 10c0 3 2 5 5 5s7 -2 13 -7c23 -33 46 -81 66 -132c22 -57 35 -125 35 -163c0 -104 -60 -183 -122 -241c-63 -59 -57 -53 -61 -56c-38 -34 -63 -95 -71 -95h-22v190c40 7 69 11 87 16c88 27 168 95 168 200c0 30 -12 89 -30 138 c-17 47 -31 73 -46 102z"/></g><g id="E243-a1mx0ubm"><path transform="scale(1,-1)" d="M216 730c-5 8 -10 13 -11 16l-4 10c0 3 2 5 5 5s7 -2 13 -7c35 -42 57 -101 57 -172c0 -34 -6 -65 -17 -94c10 -31 17 -64 17 -96c0 -104 -60 -183 -122 -241c-63 -59 -57 -53 -61 -56c-38 -34 -63 -95 -71 -95h-22v190v190c40 7 69 11 87 16c116 36 175 111 175 197 c0 44 -15 91 -46 137zM248 463c-23 -48 -58 -89 -94 -122c-63 -59 -57 -53 -61 -56c-30 -27 -44 -71 -53 -88c20 3 36 6 47 9c88 27 168 95 168 200c0 19 -3 39 -7 57z"/></g><g id="E4E6-a1mx0ubm"><path transform="scale(1,-1)" d="M0 123c7 34 33 56 69 60c29 -3 43 -9 53 -29c4 -8 7 -15 10 -22c0 -21 -1 -25 -11 -35c-5 -8 -18 -14 -40 -20l12 -3l15 -1c44 0 97 26 122 56c10 11 18 26 24 42c7 1 15 2 22 3l-140 -424h-36l111 330c-10 -6 -27 -12 -53 -16l-52 -8h-10l-20 1c-1 0 -8 3 -21 6 c-37 9 -55 28 -55 60z"/></g><g id="E240-a1mx0ubm"><path transform="scale(1,-1)" d="M179 -646c15 29 29 55 46 102c18 49 30 108 30 138c0 105 -80 173 -168 200c-18 5 -47 9 -87 16v190h22c8 0 33 -61 71 -95c4 -3 -2 3 61 -56c62 -58 122 -137 122 -241c0 -38 -13 -106 -35 -163c-20 -51 -43 -99 -66 -132c-6 -5 -10 -7 -13 -7s-5 2 -5 5l4 10 c1 3 14 25 18 33z"/></g></defs><style type="text/css">#a1mx0ubm g.page-margin {font-family:Times,serif;}#a1mx0ubm g.ending, #a1mx0ubm g.fing, #a1mx0ubm g.reh, #a1mx0ubm g.tempo {font-weight:bold;}#a1mx0ubm g.dir, #a1mx0ubm g.dynam, #a1mx0ubm g.mNum {font-style:italic;}#a1mx0ubm g.label {font-weight:normal;}#a1mx0ubm path {stroke:currentColor}</style><svg class="definition-scale" color="black" viewBox="0 0 14000 2100"><g class="page-margin" transform="translate(0, 150)"><g data-id="chsf8p1" data-class="mdiv" class="mdiv pageMilestone"/><g data-id="d1o97vql" data-class="score" class="score pageMilestone"/><g data-id="xnz9iz0" data-class="system" class="system"><g data-id="faihuys" data-class="section" class="section systemMilestone"/><g data-id="b19nvef7" data-class="measure" class="measure"><g data-id="r16neyva" data-class="staff" class="staff"><path d="M0 540 L3933 540" stroke-width="13"/><path d="M0 720 L3933 720" stroke-width="13"/><path d="M0 900 L3933 900" stroke-width="13"/><path d="M0 1080 L3933 1080" stroke-width="13"/><path d="M0 1260 L3933 1260" stroke-width="13"/><g data-id="b1fezfzt" data-class="clef" class="clef"><use href="#E050-a1mx0ubm" transform="translate(90, 1080) scale(0.72, 0.72)"/></g><g data-id="cwu29od" data-class="keySig" class="keySig"><g data-id="d1cmyvgz" data-class="keyAccid" class="keyAccid"><use href="#E262-a1mx0ubm" transform="translate(735, 540) scale(0.72, 0.72)"/></g><g data-id="eoqpubm" data-class="keyAccid" class="keyAccid"><use href="#E262-a1mx0ubm" transform="translate(913, 810) scale(0.72, 0.72)"/></g><g data-id="fh63r8s" data-class="keyAccid" class="keyAccid"><use href="#E262-a1mx0ubm" transform="translate(1091, 450) scale(0.72, 0.72)"/></g></g><g data-id="g5ihdxw" data-class="meterSig" class="meterSig"><use href="#E083-a1mx0ubm" transform="translate(1404, 720) scale(0.72, 0.72)"/><use href="#E084-a1mx0ubm" transform="translate(1398, 1080) scale(0.72, 0.72)"/></g><g data-id="s15kdz2w" data-class="layer" class="layer"><g data-id="d11l985" data-class="mRest" class="mRest"><use href="#E4E3-a1mx0ubm" transform="translate(2602, 720) scale(0.72, 0.72)"/></g></g></g><g data-id="j1145wpo" data-class="barLine" class="barLine"><path d="M3685 540 L3685 1260" stroke-width="90"/><path d="M3815 540 L3815 1260" stroke-width="27"/><use href="#E044-a1mx0ubm" transform="translate(3861, 810) scale(0.72, 0.72)"/><use href="#E044-a1mx0ubm" transform="translate(3861, 990) scale(0.72, 0.72)"/></g></g><g data-id="k19rvqz7" data-class="measure" class="measure"><g data-id="txxlqbv" data-class="staff" class="staff"><path d="M3933 540 L7186 540" stroke-width="13"/><path d="M3933 720 L7186 720" stroke-width="13"/><path d="M3933 900 L7186 900" stroke-width="13"/><path d="M3933 1080 L7186 1080" stroke-width="13"/><path d="M3933 1260 L7186 1260" stroke-width="13"/><g data-id="uld159x" data-class="layer" class="layer"><g data-id="e1z0t5rd" data-class="rest" class="rest"><use href="#E4E5-a1mx0ubm" transform="translate(4128, 900) scale(0.72, 0.72)"/></g><g data-id="fwbd459" data-class="rest" class="rest"><use href="#E4E5-a1mx0ubm" transform="translate(5058, 900) scale(0.72, 0.72)"/></g><g data-id="iow5f8g" data-class="note" class="note"><g data-class="notehead" class="notehead"><use href="#E0A4-a1mx0ubm" transform="translate(5988, 810) scale(0.72, 0.72)"/></g><g data-id="rouku9v" data-class="dots" class="dots"><ellipse cx="6304" cy="810" rx="36" ry="36" fill-opacity="1" stroke-opacity="1"/></g><g data-id="q1blxdud" data-class="stem" class="stem"><path d="M5997 838 L5997 1440" stroke-width="18"/><g data-id="s1hrzptu" data-class="flag" class="flag"><use href="#E241-a1mx0ubm" transform="translate(5988, 1440) scale(0.72, 0.72)"/></g></g><g data-id="z184i2l5" data-class="accid" class="accid"/></g><g data-id="j12a9bzn" data-class="note" class="note"><g data-class="notehead" class="notehead"><use href="#E0A4-a1mx0ubm" transform="translate(6770, 900) scale(0.72, 0.72)"/></g><g data-id="te2d928" data-class="stem" class="stem"><path d="M6779 928 L6779 1500" stroke-width="18"/><g data-id="u1gr700k" data-class="flag" class="flag"><use href="#E243-a1mx0ubm" transform="translate(6770, 1500) scale(0.72, 0.72)"/></g></g></g></g></g><g data-id="s14ec8aa" data-class="barLine" class="barLine"><path d="M7173 540 L7173 1260" stroke-width="27"/></g></g><g data-id="t15ro04w" data-class="measure" class="measure"><g data-id="vyiu2a4" data-class="staff" class="staff"><path d="M7186 540 L10439 540" stroke-width="13"/><path d="M7186 720 L10439 720" stroke-width="13"/><path d="M7186 900 L10439 900" stroke-width="13"/><path d="M7186 1080 L10439 1080" stroke-width="13"/><path d="M7186 1260 L10439 1260" stroke-width="13"/><g data-id="w1wqihok" data-class="layer" class="layer"><g data-id="kdlr3a8" data-class="note" class="note"><g data-class="notehead" class="notehead"><use href="#E0A4-a1mx0ubm" transform="translate(7381, 720) scale(0.72, 0.72)"/></g><g data-id="v1cda7zy" data-class="stem" class="stem"><path d="M7390 748 L7390 1350" stroke-width="18"/></g></g><g data-id="l17lgk22" data-class="note" class="note"><g data-class="notehead" class="notehead"><use href="#E0A4-a1mx0ubm" transform="translate(8311, 810) scale(0.72, 0.72)"/></g><g data-id="w7cht0v" data-class="stem" class="stem"><path d="M8320 838 L8320 1440" stroke-width="18"/></g><g data-id="azj2irg" data-class="accid" class="accid"/></g><g data-id="m4y6kx0" data-class="note" class="note"><g data-class="notehead" class="notehead"><use href="#E0A4-a1mx0ubm" transform="translate(9241, 630) scale(0.72, 0.72)"/></g><g data-id="y1yyg6hb" data-class="dots" class="dots"><ellipse cx="9557" cy="630" rx="36" ry="36" fill-opacity="1" stroke-opacity="1"/></g><g data-id="x8r1jnc" data-class="stem" class="stem"><path d="M9250 658 L9250 1260" stroke-width="18"/><g data-id="zw9dtoj" data-class="flag" class="flag"><use href="#E241-a1mx0ubm" transform="translate(9241, 1260) scale(0.72, 0.72)"/></g></g></g><g data-id="n1j12orx" data-class="note" class="note"><g data-class="notehead" class="notehead"><use href="#E0A4-a1mx0ubm" transform="translate(10023, 630) scale(0.72, 0.72)"/></g><g data-id="a1wotyyb" data-class="stem" class="stem"><path d="M10032 658 L10032 1260" stroke-width="18"/><g data-id="b1lx642c" data-class="flag" class="flag"><use href="#E243-a1mx0ubm" transform="translate(10023, 1260) scale(0.72, 0.72)"/></g></g></g></g></g><g data-id="b1mm9vzk" data-class="barLine" class="barLine"><path d="M10426 540 L10426 1260" stroke-width="27"/></g></g><g data-id="crhn1m0" data-class="measure" class="measure"><g data-id="x14bt148" data-class="staff" class="staff"><path d="M10439 540 L14002 540" stroke-width="13"/><path d="M10439 720 L14002 720" stroke-width="13"/><path d="M10439 900 L14002 900" stroke-width="13"/><path d="M10439 1080 L14002 1080" stroke-width="13"/><path d="M10439 1260 L14002 1260" stroke-width="13"/><g data-id="yu83fz5" data-class="layer" class="layer"><g data-id="ox0o6ty" data-class="note" class="note"><g data-class="notehead" class="notehead"><use href="#E0A4-a1mx0ubm" transform="translate(10634, 630) scale(0.72, 0.72)"/></g><g data-id="c4j4jb3" data-class="stem" class="stem"><path d="M10643 658 L10643 1260" stroke-width="18"/></g></g><g data-id="p1e1h107" data-class="note" class="note"><g data-class="notehead" class="notehead"><use href="#E0A4-a1mx0ubm" transform="translate(11564, 720) scale(0.72, 0.72)"/></g><g data-id="d15dlvjh" data-class="stem" class="stem"><path d="M11573 748 L11573 1350" stroke-width="18"/><g data-id="esy0d2i" data-class="flag" class="flag"><use href="#E241-a1mx0ubm" transform="translate(11564, 1350) scale(0.72, 0.72)"/></g></g></g><g data-id="g1eavmii" data-class="rest" class="rest"><use href="#E4E6-a1mx0ubm" transform="translate(12170, 900) scale(0.72, 0.72)"/></g><g data-id="q1xh0ruy" data-class="note" class="note"><g data-class="notehead" class="notehead"><use href="#E0A4-a1mx0ubm" transform="translate(12777, 990) scale(0.72, 0.72)"/></g><g data-id="f1ur9s68" data-class="stem" class="stem"><path d="M12994 962 L12994 360" stroke-width="18"/><g data-id="gb9u8qg" data-class="flag" class="flag"><use href="#E240-a1mx0ubm" transform="translate(12985, 360) scale(0.72, 0.72)"/></g></g></g><g data-id="rzsbj79" data-class="note" class="note"><g data-class="notehead" class="notehead"><use href="#E0A4-a1mx0ubm" transform="translate(13383, 990) scale(0.72, 0.72)"/></g><g data-id="hvpvbu5" data-class="stem" class="stem"><path d="M13600 962 L13600 360" stroke-width="18"/><g data-id="i1ml4wer" data-class="flag" class="flag"><use href="#E240-a1mx0ubm" transform="translate(13591, 360) scale(0.72, 0.72)"/></g></g></g></g></g><g data-id="k1iqw2kz" data-class="barLine" class="barLine"><path d="M13989 540 L13989 1260" stroke-width="27"/></g></g></g></g></svg></svg>