<svg viewBox="0 0 560 84" version="1.1" xmlns="http://www.w3.org/2000/svg" xmlns:xlink="http://www.w3.org/1999/xlink" overflow="visible" id="b64jj0e"><desc>Engraved by Verovio 5.6.0-85e7620</desc><defs><g id="E062-b64jj0e"><path transform="scale(1,-1)" d="M582 -120c0 32 26 58 58 58s58 -26 58 -58s-26 -58 -58 -58s-58 26 -58 58zM582 120c0 32 26 58 58 58s58 -26 58 -58s-26 -58 -58 -58s-58 26 -58 58zM158 96c51 0 73 -14 88 -49l16 -39c0 -17 -2 -30 -7 -40c-3 -11 -10 -21 -19 -31c-17 -18 -49 -43 -84 -43 c-55 0 -77 13 -112 44c-24 21 -35 55 -35 100c0 46 14 81 32 112c30 52 71 79 137 93l36 6l26 2c154 0 235 -68 274 -182c11 -32 18 -68 18 -107c0 -103 -26 -182 -68 -250c-89 -145 -234 -230 -412 -288l-30 -5c-9 0 -14 3 -14 8c3 10 5 11 10 16c35 15 70 30 96 44l78 43 c96 57 162 136 197 258c9 33 17 60 22 100c3 22 5 35 6 39c-7 69 -16 115 -23 140s-4 22 -16 40c-8 12 -19 23 -31 34c-24 21 -62 44 -118 44c-48 0 -84 -8 -113 -28c-28 -19 -42 -44 -42 -73v-16c2 -5 3 -9 4 -11c24 22 52 39 84 39z"/></g><g id="E260-b64jj0e"><path transform="scale(1,-1)" d="M20 110c32 16 54 27 93 27c26 0 35 -3 54 -13c13 -7 24 -20 27 -38l4 -25c0 -28 -16 -57 -45 -89c-23 -25 -39 -44 -65 -68l-88 -79v644h20v-359zM90 106c-32 0 -48 -10 -70 -29v-194c31 31 54 59 71 84c21 32 32 59 32 84c0 9 1 16 1 20c0 14 -3 21 -11 30l-8 3z"/></g><g id="E081-b64jj0e"><path transform="scale(1,-1)" d="M68 -250v36c23 0 40 6 49 18c8 14 12 33 12 57v250l-82 -129l-27 13l107 255h128v-394c0 -24 5 -42 14 -53s25 -17 47 -17v-36h-248z"/></g><g id="E082-b64jj0e"><path transform="scale(1,-1)" d="M124 -185c-18 0 -55 -14 -65 -65h-36l-3 30c0 25 6 45 18 63c11 19 22 30 39 43l121 82l37 29c15 11 27 29 38 54c12 24 18 47 18 70c0 40 -19 88 -94 88c-25 0 -32 0 -50 -8c-14 -5 -23 -12 -26 -22c3 -9 7 -15 10 -18l24 -17c12 -7 17 -11 27 -21c5 -7 7 -16 7 -27 c0 -12 0 -57 -79 -74c-30 0 -76 26 -76 94c0 66 81 135 197 135c72 0 181 -32 181 -150c0 -53 -32 -95 -113 -133l-91 -41c-26 -11 -45 -23 -57 -37l49 7c84 0 115 -41 148 -41c20 0 33 20 39 61h35c0 -152 -68 -168 -114 -168c-17 0 -65 0 -79 7h10l-28 17 c-49 37 -69 40 -87 42z"/></g><g id="E088-b64jj0e"><path transform="scale(1,-1)" d="M195 -214c76 0 88 58 90 68c0 34 -35 60 -57 73l-52 29c-21 10 -32 17 -34 20c-39 -33 -58 -54 -62 -92c5 -23 23 -98 115 -98zM301 135c0 61 -72 76 -113 76c-40 0 -77 -17 -77 -51c3 -21 15 -38 26 -50c17 -15 33 -26 48 -34l65 -28c34 27 51 56 51 87zM176 -250 c-57 0 -166 26 -166 132c0 47 30 86 89 116c-33 15 -79 60 -79 119c0 79 85 132 178 132h18c5 0 21 1 28 -1c25 0 126 -30 126 -110c0 -37 -23 -76 -69 -116c43 -25 83 -71 83 -119c0 -101 -118 -153 -208 -153z"/></g><g id="E0A4-b64jj0e"><path transform="scale(1,-1)" d="M0 -39c0 68 73 172 200 172c66 0 114 -37 114 -95c0 -84 -106 -171 -218 -171c-64 0 -96 30 -96 94z"/></g><g id="E240-b64jj0e"><path transform="scale(1,-1)" d="M179 -646c15 29 29 55 46 102c18 49 30 108 30 138c0 105 -80 173 -168 200c-18 5 -47 9 -87 16v190h22c8 0 33 -61 71 -95c4 -3 -2 3 61 -56c62 -58 122 -137 122 -241c0 -38 -13 -106 -35 -163c-20 -51 -43 -99 -66 -132c-6 -5 -10 -7 -13 -7s-5 2 -5 5l4 10 c1 3 14 25 18 33z"/></g><g id="E261-b64jj0e"><path transform="scale(1,-1)" d="M0 -188v539h18v-191l139 22v-533h-17v186zM18 -100l122 17v176l-122 -19v-174z"/></g><g id="E241-b64jj0e"><path transform="scale(1,-1)" d="M179 646c-4 8 -17 30 -18 33l-4 10c0 3 2 5 5 5s7 -2 13 -7c23 -33 46 -81 66 -132c22 -57 35 -125 35 -163c0 -104 -60 -183 -122 -241c-63 -59 -57 -53 -61 -56c-38 -34 -63 -95 -71 -95h-22v190c40 7 69 11 87 16c88 27 168 95 168 200c0 30 -12 89 -30 138 c-17 47 -31 73 -46 102z"/></g></defs><style type="text/css">#b64jj0e g.page-margin {font-family:Times,serif;}#b64jj0e g.ending, #b64jj0e g.fing, #b64jj0e g.reh, #b64jj0e g.tempo {font-weight:bold;}#b64jj0e g.dir, #b64jj0e g.dynam, #b64jj0e g.mNum {font-style:italic;}#b64jj0e g.label {font-weight:normal;}#b64jj0e path {stroke:currentColor}</style><svg class="definition-scale" color="black" viewBox="0 0 14000 2100"><g class="page-margin" transform="translate(0, 150)"><g data-id="bc4v4hb" data-class="mdiv" class="mdiv pageMilestone"/><g data-id="c3d86ji" data-class="score" class="score pageMilestone"/><g data-id="gp4ygd0" data-class="system" class="system"><g data-id="e1mkcaj4" data-class="section" class="section systemMilestone"/><g data-id="c45etbt" data-class="measure" class="measure"><g data-id="qwix4ra" data-class="staff" class="staff"><path d="M0 540 L2828 540" stroke-width="13"/><path d="M0 720 L2828 720" stroke-width="13"/><path d="M0 900 L2828 900" stroke-width="13"/><path d="M0 1080 L2828 1080" stroke-width="13"/><path d="M0 1260 L2828 1260" stroke-width="13"/><g data-id="kq6gt82" data-class="clef" class="clef"><use href="#E062-b64jj0e" transform="translate(88, 720) scale(0.72, 0.72)"/></g><g data-id="l1djhnoc" data-class="keySig" class="keySig"><g data-id="murlgv1" data-class="keyAccid" class="keyAccid"><use href="#E260-b64jj0e" transform="translate(769, 1080) scale(0.72, 0.72)"/></g><g data-id="n1yg851h" data-class="keyAccid" class="keyAccid"><use href="#E260-b64jj0e" transform="translate(949, 810) scale(0.72, 0.72)"/></g><g data-id="okajy15" data-class="keyAccid" class="keyAccid"><use href="#E260-b64jj0e" transform="translate(1129, 1170) scale(0.72, 0.72)"/></g></g><g data-id="p1jzvlyq" data-class="meterSig" class="meterSig"><use href="#E081-b64jj0e" transform="translate(1437, 720) scale(0.72, 0.72)"/><use href="#E082-b64jj0e" transform="translate(1678, 720) scale(0.72, 0.72)"/><use href="#E088-b64jj0e" transform="translate(1572, 1080) scale(0.72, 0.72)"/></g><g data-id="r7nypux" data-class="layer" class="layer"><g data-id="m1ukssjd" data-class="note" class="note"><g data-class="notehead" class="notehead"><use href="#E0A4-b64jj0e" transform="translate(2265, 1260) scale(0.72, 0.72)"/></g><g data-id="lrbq1lu" data-class="stem" class="stem"><path d="M2482 1232 L2482 630" stroke-width="18"/><g data-id="m17hgnvc" data-class="flag" class="flag"><use href="#E240-b64jj0e" transform="translate(2473, 630) scale(0.72, 0.72)"/></g></g></g></g></g><g data-id="k1kn13e1" data-class="barLine" class="barLine"><path d="M2815 540 L2815 1260" stroke-width="27"/></g></g><g data-id="l1slaxvb" data-class="measure" class="measure"><g data-id="s9agi59" data-class="staff" class="staff"><path d="M2828 540 L8501 540" stroke-width="13"/><path d="M2828 720 L8501 720" stroke-width="13"/><path d="M2828 900 L8501 900" stroke-width="13"/><path d="M2828 1080 L8501 1080" stroke-width="13"/><path d="M2828 1260 L8501 1260" stroke-width="13"/><g data-id="t1rsz9jf" data-class="layer" class="layer"><g data-id="n1m09jv1" data-class="note" class="note"><g data-class="notehead" class="notehead"><use href="#E0A4-b64jj0e" transform="translate(3022, 990) scale(0.72, 0.72)"/></g><g data-id="nnnvdcf" data-class="stem" class="stem"><path d="M3239 962 L3239 360" stroke-width="18"/></g></g><g data-id="ob2ynid" data-class="note" class="note"><g data-class="notehead" class="notehead"><use href="#E0A4-b64jj0e" transform="translate(3816, 1260) scale(0.72, 0.72)"/></g><g data-id="o14gpnkt" data-class="stem" class="stem"><path d="M4033 1232 L4033 630" stroke-width="18"/><g data-id="pkq6rgz" data-class="flag" class="flag"><use href="#E240-b64jj0e" transform="translate(4024, 630) scale(0.72, 0.72)"/></g></g></g><g data-id="p149292q" data-class="note" class="note"><g data-class="notehead" class="notehead"><use href="#E0A4-b64jj0e" transform="translate(4351, 900) scale(0.72, 0.72)"/></g><g data-id="qpqywmq" data-class="stem" class="stem"><path d="M4360 928 L4360 1500" stroke-width="18"/></g></g><g data-id="q1n8iia9" data-class="note" class="note"><g data-class="notehead" class="notehead"><use href="#E0A4-b64jj0e" transform="translate(5144, 1260) scale(0.72, 0.72)"/></g><g data-id="rx31jeo" data-class="stem" class="stem"><path d="M5361 1232 L5361 630" stroke-width="18"/><g data-id="sq2f988" data-class="flag" class="flag"><use href="#E240-b64jj0e" transform="translate(5352, 630) scale(0.72, 0.72)"/></g></g></g><g data-id="r1th95pd" data-class="note" class="note"><g data-class="notehead" class="notehead"><use href="#E0A4-b64jj0e" transform="translate(5679, 810) scale(0.72, 0.72)"/></g><g data-id="t122xidp" data-class="stem" class="stem"><path d="M5688 838 L5688 1440" stroke-width="18"/></g><g data-id="udd067a" data-class="accid" class="accid"/></g><g data-id="s612fzp" data-class="note" class="note"><g data-class="notehead" class="notehead"><use href="#E0A4-b64jj0e" transform="translate(6473, 990) scale(0.72, 0.72)"/></g><g data-id="u79s4j1" data-class="stem" class="stem"><path d="M6690 962 L6690 360" stroke-width="18"/><g data-id="v17co2tk" data-class="flag" class="flag"><use href="#E240-b64jj0e" transform="translate(6681, 360) scale(0.72, 0.72)"/></g></g></g><g data-id="tiks81i" data-class="note" class="note"><g data-class="notehead" class="notehead"><use href="#E0A4-b64jj0e" transform="translate(7177, 1080) scale(0.72, 0.72)"/></g><g data-id="w1xjhl80" data-class="stem" class="stem"><path d="M7394 1052 L7394 450" stroke-width="18"/></g><g data-id="o1mnnbma" data-class="accid" class="accid"><use href="#E261-b64jj0e" transform="translate(7019, 1080) scale(0.72, 0.72)"/></g></g><g data-id="u15xql75" data-class="note" class="note"><g data-class="notehead" class="notehead"><use href="#E0A4-b64jj0e" transform="translate(7971, 630) scale(0.72, 0.72)"/></g><g data-id="x47yml1" data-class="stem" class="stem"><path d="M7980 658 L7980 1260" stroke-width="18"/><g data-id="y223mp8" data-class="flag" class="flag"><use href="#E241-b64jj0e" transform="translate(7971, 1260) scale(0.72, 0.72)"/></g></g></g></g></g><g data-id="t1uuhovd" data-class="barLine" class="barLine"><path d="M8488 540 L8488 1260" stroke-width="27"/></g></g><g data-id="u19xuhgn" data-class="measure" class="measure"><g data-id="u1fgr5d1" data-class="staff" class="staff"><path d="M8501 540 L14002 540" stroke-width="13"/><path d="M8501 720 L14002 720" stroke-width="13"/><path d="M8501 900 L14002 900" stroke-width="13"/><path d="M8501 1080 L14002 1080" stroke-width="13"/><path d="M8501 1260 L14002 1260" stroke-width="13"/><g data-id="vmeoe9l" data-class="layer" class="layer"><g data-id="v1t305w7" data-class="note" class="note"><g data-class="notehead" class="notehead"><use href="#E0A4-b64jj0e" transform="translate(8695, 540) scale(0.72, 0.72)"/></g><g data-id="zbnw9ql" data-class="stem" class="stem"><path d="M8704 568 L8704 1170" stroke-width="18"/></g><g data-id="vhf8ctw" data-class="accid" class="accid"/></g><g data-id="wkr7iby" data-class="note" class="note"><g data-class="notehead" class="notehead"><use href="#E0A4-b64jj0e" transform="translate(9489, 720) scale(0.72, 0.72)"/></g><g data-id="awfpmr9" data-class="stem" class="stem"><path d="M9498 748 L9498 1350" stroke-width="18"/><g data-id="byzk9wz" data-class="flag" class="flag"><use href="#E241-b64jj0e" transform="translate(9489, 1350) scale(0.72, 0.72)"/></g></g></g><g data-id="x1anfeop" data-class="note" class="note"><g data-class="notehead" class="notehead"><use href="#E0A4-b64jj0e" transform="translate(10006, 900) scale(0.72, 0.72)"/></g><g data-id="cbs7ped" data-class="stem" class="stem"><path d="M10015 928 L10015 1500" stroke-width="18"/></g></g><g data-id="y1obnnzb" data-class="note" class="note"><g data-class="notehead" class="notehead"><use href="#E0A4-b64jj0e" transform="translate(10800, 1080) scale(0.72, 0.72)"/></g><g data-id="dceyc5p" data-class="stem" class="stem"><path d="M11017 1052 L11017 450" stroke-width="18"/><g data-id="ecflenn" data-class="flag" class="flag"><use href="#E240-b64jj0e" transform="translate(11008, 450) scale(0.72, 0.72)"/></g></g><g data-id="p1ldm2bg" data-class="accid" class="accid"><use href="#E260-b64jj0e" transform="translate(10613, 1080) scale(0.72, 0.72)"/></g></g><g data-id="z18lsgtf" data-class="note" class="note"><g data-class="notehead" class="notehead"><use href="#E0A4-b64jj0e" transform="translate(11335, 630) scale(0.72, 0.72)"/></g><g data-id="felzaik" data-class="stem" class="stem"><path d="M11344 658 L11344 1260" stroke-width="18"/></g></g><g data-id="a1a2antp" data-class="note" class="note"><g data-class="notehead" class="notehead"><use href="#E0A4-b64jj0e" transform="translate(12128, 810) scale(0.72, 0.72)"/></g><g data-id="g2dnh34" data-class="stem" class="stem"><path d="M12137 838 L12137 1440" stroke-width="18"/><g data-id="hlhjyjk" data-class="flag" class="flag"><use href="#E241-b64jj0e" transform="translate(12128, 1440) scale(0.72, 0.72)"/></g></g><g data-id="w1h161uh" data-class="accid" class="accid"/></g><g data-id="b1w178r1" data-class="note" class="note"><g data-class="notehead" class="notehead"><use href="#E0A4-b64jj0e" transform="translate(12645, 990) scale(0.72, 0.72)"/></g><g data-id="i1mb5ixi" data-class="stem" class="stem"><path d="M12862 962 L12862 360" stroke-width="18"/></g></g><g data-id="cdhz1iu" data-class="note" class="note"><g data-class="notehead" class="notehead"><use href="#E0A4-b64jj0e" transform="translate(13439, 1170) scale(0.72, 0.72)"/></g><g data-id="j143aj7h" data-class="stem" class="stem"><path d="M13656 1142 L13656 540" stroke-width="18"/><g data-id="k1hlwxf5" data-class="flag" class="flag"><use href="#E240-b64jj0e" transform="translate(13647, 540) scale(0.72, 0.72)"/></g></g><g data-id="xm8cwm8" data-class="accid" class="accid"/></g></g></g><g data-id="c4io0ac" data-class="barLine" class="barLine"><path d="M13989 540 L13989 1260" stroke-width="27"/></g></g></g></g></svg></svg>